<?xml version="1.0" encoding="UTF-8"?>
<!DOCTYPE svg PUBLIC "-//W3C//DTD SVG 1.1//EN"
    "http://www.w3.org/Graphics/SVG/1.1/DTD/svg11.dtd">
<svg xmlns="http://www.w3.org/2000/svg" xmlns:xlink="http://www.w3.org/1999/xlink" version="1.1" width="400.0" height="413.59691124314463" font-size="1" viewBox="0 0 400 414"><g><g transform="matrix(42.26068207736614,0.0,0.0,42.26068207736614,193.52383413392167,202.6069094013546)"><g stroke="rgb(0,0,0)" stroke-opacity="1.0" fill="rgb(75,0,130)" fill-opacity="1.0" stroke-width="1.0e-2" font-size="1.0em"><path d="M 0.4283021878736286,0.3779027204020299 c 0.0,-0.8836555997292698 -0.7163444002707305,-1.6000000000000005 -1.6 -1.6000000000000005c -0.8836555997292698,-5.410830008785425e-17 -1.6000000000000005,0.7163444002707304 -1.6000000000000005 1.6c -1.082166001757085e-16,0.8836555997292698 0.7163444002707303,1.6000000000000005 1.5999999999999999 1.6000000000000005c 0.8836555997292698,1.6232490026356274e-16 1.6000000000000005,-0.7163444002707303 1.6000000000000005 -1.5999999999999996Z" /></g></g><g transform="matrix(42.26068207736614,0.0,0.0,42.26068207736614,193.52383413392167,202.6069094013546)"><g stroke="rgb(0,0,0)" stroke-opacity="1.0" fill="rgb(178,34,34)" fill-opacity="1.0" stroke-width="1.0e-2" font-size="1.0em"><path d="M 3.4291391856479385,0.3779027204020299 c 0.0,-0.8284271247461904 -0.6715728752538098,-1.5000000000000004 -1.5 -1.5000000000000004c -0.8284271247461904,-5.0726531332363355e-17 -1.5000000000000004,0.6715728752538098 -1.5000000000000004 1.5c -1.0145306266472671e-16,0.8284271247461904 0.6715728752538097,1.5000000000000004 1.4999999999999998 1.5000000000000004c 0.8284271247461904,1.5217959399709008e-16 1.5000000000000004,-0.6715728752538096 1.5000000000000004 -1.4999999999999996Z" /></g></g><g transform="matrix(42.26068207736614,0.0,0.0,42.26068207736614,193.52383413392167,202.6069094013546)"><g stroke="rgb(0,0,0)" stroke-opacity="1.0" fill="rgb(255,228,196)" fill-opacity="1.0" stroke-width="1.0e-2" font-size="1.0em"><path d="M 1.873907670563429,-2.131448438466417 c 0.0,-0.773198649763111 -0.6268013502368892,-1.4000000000000004 -1.4000000000000001 -1.4000000000000004c -0.773198649763111,-4.734476257687246e-17 -1.4000000000000004,0.6268013502368891 -1.4000000000000004 1.4c -9.468952515374493e-17,0.773198649763111 0.626801350236889,1.4000000000000004 1.3999999999999997 1.4000000000000004c 0.773198649763111,1.420342877306174e-16 1.4000000000000004,-0.626801350236889 1.4000000000000004 -1.3999999999999995Z" /></g></g><g transform="matrix(42.26068207736614,0.0,0.0,42.26068207736614,193.52383413392167,202.6069094013546)"><g stroke="rgb(0,0,0)" stroke-opacity="1.0" fill="rgb(0,255,255)" fill-opacity="1.0" stroke-width="1.0e-2" font-size="1.0em"><path d="M 1.7706809931463905,2.7689555974836706 c 0.0,-0.7179701747800317 -0.5820298252199685,-1.3000000000000003 -1.3 -1.3000000000000003c -0.7179701747800317,-4.396299382138157e-17 -1.3000000000000003,0.5820298252199684 -1.3000000000000003 1.2999999999999998c -8.792598764276314e-17,0.7179701747800317 0.5820298252199684,1.3000000000000003 1.2999999999999996 1.3000000000000003c 0.7179701747800317,1.3188898146414472e-16 1.3000000000000003,-0.5820298252199683 1.3000000000000003 -1.2999999999999996Z" /></g></g><g transform="matrix(42.26068207736614,0.0,0.0,42.26068207736614,193.52383413392167,202.6069094013546)"><g stroke="rgb(0,0,0)" stroke-opacity="1.0" fill="rgb(255,0,255)" fill-opacity="1.0" stroke-width="1.0e-2" font-size="1.0em"><path d="M -0.923807607108523,-2.256052688972685 c 0.0,-0.6627416997969522 -0.5372583002030478,-1.2000000000000002 -1.2 -1.2000000000000002c -0.6627416997969522,-4.058122506589068e-17 -1.2000000000000002,0.5372583002030478 -1.2000000000000002 1.1999999999999997c -8.116245013178136e-17,0.6627416997969522 0.5372583002030477,1.2000000000000002 1.1999999999999997 1.2000000000000002c 0.6627416997969522,1.2174367519767204e-16 1.2000000000000002,-0.5372583002030477 1.2000000000000002 -1.1999999999999995Z" /></g></g><g transform="matrix(42.26068207736614,0.0,0.0,42.26068207736614,193.52383413392167,202.6069094013546)"><g stroke="rgb(0,0,0)" stroke-opacity="1.0" fill="rgb(255,228,196)" fill-opacity="1.0" stroke-width="1.0e-2" font-size="1.0em"><path d="M 3.9210018913093143,-1.3596952039512598 l 0.21631189606246304,-0.6657395614066076 l -0.21631189606246348,-0.6657395614066075 l -0.5663118960624632,-0.4114496766047311 l -0.7,2.220446049250313e-16 l -0.5663118960624631,0.4114496766047313 l -0.21631189606246304,0.6657395614066076 l 0.21631189606246315,0.6657395614066076 l 0.5663118960624633,0.4114496766047311 h 0.7000000000000001 Z" /></g></g><g transform="matrix(42.26068207736614,0.0,0.0,42.26068207736614,193.52383413392167,202.6069094013546)"><g stroke="rgb(0,0,0)" stroke-opacity="1.0" fill="rgb(255,255,0)" fill-opacity="1.0" stroke-width="1.0e-2" font-size="1.0em"><path d="M -0.8213213609409009,2.9725128367842513 c 0.0,-0.6075132248138728 -0.4924867751861271,-1.1 -1.0999999999999999 -1.1c -0.6075132248138728,-3.719945631039979e-17 -1.1,0.49248677518612705 -1.1 1.0999999999999996c -7.439891262079957e-17,0.6075132248138728 0.492486775186127,1.1 1.0999999999999996 1.1c 0.6075132248138728,1.1159836893119935e-16 1.1,-0.49248677518612693 1.1 -1.0999999999999994Z" /></g></g><g transform="matrix(42.26068207736614,0.0,0.0,42.26068207736614,193.52383413392167,202.6069094013546)"><g stroke="rgb(0,0,0)" stroke-opacity="1.0" fill="rgb(0,0,255)" fill-opacity="1.0" stroke-width="1.0e-2" font-size="1.0em"><path d="M -2.5792879958643313,-0.6055404097601161 c 0.0,-0.5522847498307935 -0.44771525016920644,-1.0 -0.9999999999999998 -1.0c -0.5522847498307935,-3.3817687554908895e-17 -1.0,0.4477152501692064 -1.0 0.9999999999999997c -6.763537510981779e-17,0.5522847498307935 0.4477152501692063,1.0 0.9999999999999996 1.0c 0.5522847498307935,1.0145306266472669e-16 1.0,-0.44771525016920627 1.0 -0.9999999999999994Z" /></g></g><g transform="matrix(42.26068207736614,0.0,0.0,42.26068207736614,193.52383413392167,202.6069094013546)"><g stroke="rgb(0,0,0)" stroke-opacity="1.0" fill="rgb(0,255,255)" fill-opacity="1.0" stroke-width="1.0e-2" font-size="1.0em"><path d="M -2.6628205291317135,2.143834399374732 l 0.18541019662496838,-0.5706339097770923 l -0.18541019662496838,-0.5706339097770925 l -0.48541019662496854,-0.35267115137548377 l -0.6,2.220446049250313e-16 l -0.48541019662496865,0.3526711513754839 l -0.18541019662496838,0.570633909777092 l 0.18541019662496838,0.5706339097770923 l 0.4854101966249684,0.3526711513754839 l 0.6000000000000001,1.1102230246251565e-16 Z" /></g></g><g transform="matrix(42.26068207736614,0.0,0.0,42.26068207736614,193.52383413392167,202.6069094013546)"><g stroke="rgb(0,0,0)" stroke-opacity="1.0" fill="rgb(255,0,0)" fill-opacity="1.0" stroke-width="1.0e-2" font-size="1.0em"><path d="M 3.5686648052537926,2.661805667021564 c 0.0,-0.49705627484771414 -0.4029437251522858,-0.9 -0.8999999999999998 -0.9c -0.49705627484771414,-3.043591879941801e-17 -0.9,0.40294372515228577 -0.9 0.8999999999999997c -6.087183759883602e-17,0.49705627484771414 0.4029437251522857,0.9 0.8999999999999996 0.9c 0.49705627484771414,9.130775639825402e-17 0.9,-0.40294372515228566 0.9 -0.8999999999999995Z" /></g></g><g transform="matrix(42.26068207736614,0.0,0.0,42.26068207736614,193.52383413392167,202.6069094013546)"><g stroke="rgb(0,0,0)" stroke-opacity="1.0" fill="rgb(255,0,255)" fill-opacity="1.0" stroke-width="1.0e-2" font-size="1.0em"><path d="M -0.2531743004653909,-3.3800530101383446 l 0.15450849718747361,-0.4755282581475769 l -0.15450849718747395,-0.4755282581475769 l -0.40450849718747384,-0.29389262614623646 l -0.5000000000000001,1.1102230246251565e-16 l -0.40450849718747384,0.29389262614623685 l -0.15450849718747361,0.47552825814757693 l 0.15450849718747395,0.47552825814757693 l 0.40450849718747384,0.2938926261462365 l 0.5000000000000001,1.1102230246251565e-16 Z" /></g></g><g transform="matrix(42.26068207736614,0.0,0.0,42.26068207736614,193.52383413392167,202.6069094013546)"><g stroke="rgb(0,0,0)" stroke-opacity="1.0" fill="rgb(75,0,130)" fill-opacity="1.0" stroke-width="1.0e-2" font-size="1.0em"><path d="M 4.885774571458284,-0.4232095006466472 c 0.0,-0.4418277998646348 -0.35817220013536516,-0.8 -0.7999999999999998 -0.8c -0.4418277998646348,-2.7054150043927117e-17 -0.8,0.3581722001353651 -0.8 0.7999999999999998c -5.4108300087854235e-17,0.4418277998646348 0.3581722001353651,0.8 0.7999999999999997 0.8c 0.4418277998646348,8.116245013178136e-17 0.8,-0.35817220013536505 0.8 -0.7999999999999996Z" /></g></g><g transform="matrix(42.26068207736614,0.0,0.0,42.26068207736614,193.52383413392167,202.6069094013546)"><g stroke="rgb(0,0,0)" stroke-opacity="1.0" fill="rgb(178,34,34)" fill-opacity="1.0" stroke-width="1.0e-2" font-size="1.0em"><path d="M 2.7096276659670315,-3.564607819300385 c 0.0,-0.38659932488155546 -0.31340067511844455,-0.7000000000000001 -0.7 -0.7000000000000001c -0.38659932488155546,-2.3672381288436228e-17 -0.7000000000000001,0.3134006751184445 -0.7000000000000001 0.6999999999999998c -4.7344762576872457e-17,0.38659932488155546 0.31340067511844444,0.7000000000000001 0.6999999999999997 0.7000000000000001c 0.38659932488155546,7.101714386530869e-17 0.7000000000000001,-0.31340067511844444 0.7000000000000001 -0.6999999999999996Z" /></g></g><g transform="matrix(42.26068207736614,0.0,0.0,42.26068207736614,193.52383413392167,202.6069094013546)"><g stroke="rgb(0,0,0)" stroke-opacity="1.0" fill="rgb(178,34,34)" fill-opacity="1.0" stroke-width="1.0e-2" font-size="1.0em"><path d="M 4.152346261753314,2.138623603659494 l 0.35,-0.6062177826491071 l -0.35,-0.6062177826491071 h -0.7 l -0.34999999999999987,0.6062177826491071 l 0.34999999999999976,0.6062177826491073 Z" /></g></g><g transform="matrix(42.26068207736614,0.0,0.0,42.26068207736614,193.52383413392167,202.6069094013546)"><g stroke="rgb(0,0,0)" stroke-opacity="1.0" fill="rgb(255,255,0)" fill-opacity="1.0" stroke-width="1.0e-2" font-size="1.0em"><path d="M 1.0358585438917443,-3.7982583711861024 l 0.12360679774997885,-0.38042260651806153 l -0.12360679774997907,-0.38042260651806153 l -0.3236067977499791,-0.23511410091698925 l -0.4000000000000001,2.220446049250313e-16 l -0.323606797749979,0.23511410091698937 l -0.12360679774997885,0.3804226065180616 l 0.12360679774997896,0.3804226065180615 l 0.3236067977499791,0.23511410091698925 h 0.4000000000000001 Z" /></g></g><g transform="matrix(42.26068207736614,0.0,0.0,42.26068207736614,193.52383413392167,202.6069094013546)"><g stroke="rgb(0,0,0)" stroke-opacity="1.0" fill="rgb(255,228,196)" fill-opacity="1.0" stroke-width="1.0e-2" font-size="1.0em"><path d="M -0.16142417423801558,4.215975471047452 c 0.0,-0.3313708498984761 -0.2686291501015239,-0.6000000000000001 -0.6 -0.6000000000000001c -0.3313708498984761,-2.029061253294534e-17 -0.6000000000000001,0.2686291501015239 -0.6000000000000001 0.5999999999999999c -4.058122506589068e-17,0.3313708498984761 0.26862915010152383,0.6000000000000001 0.5999999999999999 0.6000000000000001c 0.3313708498984761,6.087183759883602e-17 0.6000000000000001,-0.26862915010152383 0.6000000000000001 -0.5999999999999998Z" /></g></g><g transform="matrix(42.26068207736614,0.0,0.0,42.26068207736614,193.52383413392167,202.6069094013546)"><g stroke="rgb(0,0,0)" stroke-opacity="1.0" fill="rgb(255,228,196)" fill-opacity="1.0" stroke-width="1.0e-2" font-size="1.0em"><path d="M 2.24051700265543,4.493110596177566 l 0.3000000000000002,-0.519615242270663 l -0.29999999999999993,-0.5196152422706632 l -0.6,-3.3306690738754696e-16 l -0.30000000000000016,0.5196152422706632 l 0.2999999999999996,0.5196152422706635 Z" /></g></g><g transform="matrix(42.26068207736614,0.0,0.0,42.26068207736614,193.52383413392167,202.6069094013546)"><g stroke="rgb(0,0,0)" stroke-opacity="1.0" fill="rgb(0,255,255)" fill-opacity="1.0" stroke-width="1.0e-2" font-size="1.0em"><path d="M -3.315860209467459,-2.087177594952295 c 0.0,-0.2761423749153968 -0.22385762508460327,-0.5000000000000001 -0.5 -0.5000000000000001c -0.2761423749153968,-1.690884377745445e-17 -0.5000000000000001,0.22385762508460325 -0.5000000000000001 0.49999999999999994c -3.38176875549089e-17,0.2761423749153968 0.22385762508460322,0.5000000000000001 0.4999999999999999 0.5000000000000001c 0.2761423749153968,5.0726531332363355e-17 0.5000000000000001,-0.2238576250846032 0.5000000000000001 -0.49999999999999983Z" /></g></g><g transform="matrix(42.26068207736614,0.0,0.0,42.26068207736614,193.52383413392167,202.6069094013546)"><g stroke="rgb(0,0,0)" stroke-opacity="1.0" fill="rgb(0,255,255)" fill-opacity="1.0" stroke-width="1.0e-2" font-size="1.0em"><path d="M 0.5337066247620426,4.992583921280141 l 0.2500000000000001,-0.4330127018922194 l -0.24999999999999983,-0.4330127018922195 l -0.5000000000000001,-1.6653345369377348e-16 l -0.25000000000000033,0.4330127018922193 l 0.24999999999999972,0.4330127018922195 Z" /></g></g><g transform="matrix(42.26068207736614,0.0,0.0,42.26068207736614,193.52383413392167,202.6069094013546)"><g stroke="rgb(0,0,0)" stroke-opacity="1.0" fill="rgb(0,0,255)" fill-opacity="1.0" stroke-width="1.0e-2" font-size="1.0em"><path d="M -1.806643073214627,-3.6547765298766386 l 9.270509831248419e-2,-0.28531695488854614 l -9.270509831248419e-2,-0.28531695488854625 l -0.24270509831248427,-0.17633557568774189 l -0.3,1.1102230246251565e-16 l -0.24270509831248432,0.17633557568774194 l -9.270509831248419e-2,0.285316954888546 l 9.270509831248419e-2,0.28531695488854614 l 0.2427050983124842,0.17633557568774194 l 0.30000000000000004,5.551115123125783e-17 Z" /></g></g><g transform="matrix(42.26068207736614,0.0,0.0,42.26068207736614,193.52383413392167,202.6069094013546)"><g stroke="rgb(0,0,0)" stroke-opacity="1.0" fill="rgb(255,0,255)" fill-opacity="1.0" stroke-width="1.0e-2" font-size="1.0em"><path d="M -3.021452887215652,2.9438673367908232 c 0.0,-0.22091389993231741 -0.1790861000676826,-0.4000000000000001 -0.39999999999999997 -0.4000000000000001c -0.22091389993231741,-1.352707502196356e-17 -0.4000000000000001,0.17908610006768258 -0.4000000000000001 0.39999999999999997c -2.705415004392712e-17,0.22091389993231741 0.17908610006768255,0.4000000000000001 0.3999999999999999 0.4000000000000001c 0.22091389993231741,4.058122506589068e-17 0.4000000000000001,-0.17908610006768255 0.4000000000000001 -0.39999999999999986Z" /></g></g><g transform="matrix(42.26068207736614,0.0,0.0,42.26068207736614,193.52383413392167,202.6069094013546)"><g stroke="rgb(0,0,0)" stroke-opacity="1.0" fill="rgb(255,0,255)" fill-opacity="1.0" stroke-width="1.0e-2" font-size="1.0em"><path d="M -3.3650444491349516,-2.605252524083558 l 0.2,-0.34641016151377557 l -0.2,-0.34641016151377557 h -0.40000000000000013 l -0.19999999999999996,0.3464101615137755 l 0.19999999999999987,0.34641016151377557 Z" /></g></g><g transform="matrix(42.26068207736614,0.0,0.0,42.26068207736614,193.52383413392167,202.6069094013546)"><g stroke="rgb(0,0,0)" stroke-opacity="1.0" fill="rgb(255,0,0)" fill-opacity="1.0" stroke-width="1.0e-2" font-size="1.0em"><path d="M 1.3306155545687095,4.468960939090743 l 6.1803398874989424e-2,-0.19021130325903074 l -6.180339887498948e-2,-0.19021130325903074 l -0.1618033988749895,-0.11755705045849457 l -0.2,1.1102230246251565e-16 l -0.16180339887498943,0.11755705045849468 l -6.1803398874989424e-2,0.19021130325903074 l 6.1803398874989535e-2,0.19021130325903068 l 0.16180339887498946,0.11755705045849463 h 0.2 Z" /></g></g><g transform="matrix(42.26068207736614,0.0,0.0,42.26068207736614,193.52383413392167,202.6069094013546)"><g stroke="rgb(0,0,0)" stroke-opacity="1.0" fill="rgb(255,255,0)" fill-opacity="1.0" stroke-width="1.0e-2" font-size="1.0em"><path d="M -2.5816870061259714,-3.5509789329488575 c 0.0,-0.16568542494923805 -0.13431457505076194,-0.30000000000000004 -0.3 -0.30000000000000004c -0.16568542494923805,-1.014530626647267e-17 -0.30000000000000004,0.13431457505076194 -0.30000000000000004 0.29999999999999993c -2.029061253294534e-17,0.16568542494923805 0.13431457505076191,0.30000000000000004 0.29999999999999993 0.30000000000000004c 0.16568542494923805,3.043591879941801e-17 0.30000000000000004,-0.13431457505076191 0.30000000000000004 -0.2999999999999999Z" /></g></g><g transform="matrix(42.26068207736614,0.0,0.0,42.26068207736614,193.52383413392167,202.6069094013546)"><g stroke="rgb(0,0,0)" stroke-opacity="1.0" fill="rgb(255,255,0)" fill-opacity="1.0" stroke-width="1.0e-2" font-size="1.0em"><path d="M 3.1541251600783733,-3.1982508249997443 l 0.1500000000000001,-0.2598076211353315 l -0.14999999999999997,-0.2598076211353316 l -0.3,-1.6653345369377348e-16 l -0.15000000000000008,0.2598076211353316 l 0.1499999999999998,0.25980762113533173 Z" /></g></g><g transform="matrix(42.26068207736614,0.0,0.0,42.26068207736614,193.52383413392167,202.6069094013546)"><g stroke="rgb(0,0,0)" stroke-opacity="1.0" fill="rgb(0,0,255)" fill-opacity="1.0" stroke-width="1.0e-2" font-size="1.0em"><path d="M 0.6351875415589625,-0.4342975576414406 c 0.0,-0.1104569499661587 -8.954305003384129e-2,-0.2 -0.19999999999999996 -0.2c -0.1104569499661587,-6.763537510981779e-18 -0.2,8.954305003384128e-2 -0.2 0.19999999999999996c -1.3527075021963559e-17,0.1104569499661587 8.954305003384128e-2,0.2 0.19999999999999993 0.2c 0.1104569499661587,2.029061253294534e-17 0.2,-8.954305003384126e-2 0.2 -0.1999999999999999Z" /></g></g><g transform="matrix(42.26068207736614,0.0,0.0,42.26068207736614,193.52383413392167,202.6069094013546)"><g stroke="rgb(0,0,0)" stroke-opacity="1.0" fill="rgb(0,0,255)" fill-opacity="1.0" stroke-width="1.0e-2" font-size="1.0em"><path d="M 0.5351857996281107,1.3631918120607458 l 0.10000000000000003,-0.1732050807568877 l -9.999999999999992e-2,-0.17320508075688779 l -0.19999999999999998,-8.326672684688674e-17 l -0.10000000000000003,0.17320508075688773 l 9.999999999999985e-2,0.17320508075688779 Z" /></g></g><g transform="matrix(42.26068207736614,0.0,0.0,42.26068207736614,193.52383413392167,202.6069094013546)"><g stroke="rgb(0,0,0)" stroke-opacity="1.0" fill="rgb(75,0,130)" fill-opacity="1.0" stroke-width="1.0e-2" font-size="1.0em"><path d="M -0.754084587892758,-1.265746958240218 l 3.0901699437494712e-2,-9.510565162951537e-2 l -3.090169943749474e-2,-9.510565162951537e-2 l -8.090169943749476e-2,-5.8778525229247286e-2 l -0.1,5.551115123125783e-17 l -8.090169943749471e-2,5.877852522924734e-2 l -3.0901699437494712e-2,9.510565162951537e-2 l 3.0901699437494767e-2,9.510565162951534e-2 l 8.090169943749473e-2,5.8778525229247314e-2 h 0.1 Z" /></g></g><g transform="matrix(42.26068207736614,0.0,0.0,42.26068207736614,193.52383413392167,202.6069094013546)"><g stroke="rgb(0,0,0)" stroke-opacity="1.0" fill="rgb(255,0,0)" fill-opacity="1.0" stroke-width="1.0e-2" font-size="1.0em"><path d="M 0.302454862797947,-0.6237285653156156 c 0.0,-5.522847498307935e-2 -4.4771525016920645e-2,-0.1 -9.999999999999998e-2 -0.1c -5.522847498307935e-2,-3.3817687554908897e-18 -0.1,4.477152501692064e-2 -0.1 9.999999999999998e-2c -6.763537510981779e-18,5.522847498307935e-2 4.477152501692064e-2,0.1 9.999999999999996e-2 0.1c 5.522847498307935e-2,1.014530626647267e-17 0.1,-4.477152501692063e-2 0.1 -9.999999999999995e-2Z" /></g></g><g transform="matrix(42.26068207736614,0.0,0.0,42.26068207736614,193.52383413392167,202.6069094013546)"><g stroke="rgb(0,0,0)" stroke-opacity="1.0" fill="rgb(255,0,0)" fill-opacity="1.0" stroke-width="1.0e-2" font-size="1.0em"><path d="M 0.7243588453404469,-0.5288841181418675 l 5.000000000000002e-2,-8.660254037844385e-2 l -4.999999999999996e-2,-8.660254037844389e-2 l -9.999999999999999e-2,-4.163336342344337e-17 l -5.000000000000002e-2,8.660254037844387e-2 l 4.9999999999999926e-2,8.660254037844389e-2 Z" /></g></g></g></svg>