<?xml version="1.0" encoding="UTF-8"?>
<!DOCTYPE svg PUBLIC "-//W3C//DTD SVG 1.1//EN"
    "http://www.w3.org/Graphics/SVG/1.1/DTD/svg11.dtd">
<svg xmlns="http://www.w3.org/2000/svg" xmlns:xlink="http://www.w3.org/1999/xlink" version="1.1" width="200.0" height="200.0" font-size="1" viewBox="0 0 200 200"><g><g transform="matrix(200.0,0.0,0.0,200.0,100.0,100.0)"><g stroke="rgb(148,148,148)" stroke-opacity="1.0" fill="rgb(148,148,148)" fill-opacity="1.0" stroke-width="1.0e-2" font-size="1.0em" clip-path="url(#myClip1)"><clipPath id="myClip1"><path d="M 0.5000000000000002,0.5 l -1.1102230246251565e-16,-1.0 h -1.0 l -1.1102230246251565e-16,1.0 Z" /></clipPath><path d="M 0.5,0.5 l -2.7755575615628914e-17,-1.0 h -0.25 l -2.7755575615628914e-17,1.0 Z" /></g></g><g transform="matrix(200.0,0.0,0.0,200.0,100.0,100.0)"><g stroke="rgb(255,177,89)" stroke-opacity="1.0" fill="rgb(255,177,89)" fill-opacity="1.0" stroke-width="1.0e-2" font-size="1.0em" clip-path="url(#myClip2)"><clipPath id="myClip2"><path d="M 0.5000000000000002,0.5 l -1.1102230246251565e-16,-1.0 h -1.0 l -1.1102230246251565e-16,1.0 Z" /></clipPath><path d="M 0.25,0.5 l -2.7755575615628914e-17,-1.0 h -0.25 l -2.7755575615628914e-17,1.0 Z" /></g></g><g transform="matrix(200.0,0.0,0.0,200.0,100.0,100.0)"><g stroke="rgb(89,89,255)" stroke-opacity="1.0" fill="rgb(89,89,255)" fill-opacity="1.0" stroke-width="1.0e-2" font-size="1.0em" clip-path="url(#myClip3)"><clipPath id="myClip3"><path d="M 0.5000000000000002,0.5 l -1.1102230246251565e-16,-1.0 h -1.0 l -1.1102230246251565e-16,1.0 Z" /></clipPath><path d="M 2.7755575615628914e-17,0.5 l -2.7755575615628914e-17,-1.0 h -0.25 l -2.7755575615628914e-17,1.0 Z" /></g></g><g transform="matrix(200.0,0.0,0.0,200.0,100.0,100.0)"><g stroke="rgb(255,255,89)" stroke-opacity="1.0" fill="rgb(255,255,89)" fill-opacity="1.0" stroke-width="1.0e-2" font-size="1.0em" clip-path="url(#myClip4)"><clipPath id="myClip4"><path d="M 0.5000000000000002,0.5 l -1.1102230246251565e-16,-1.0 h -1.0 l -1.1102230246251565e-16,1.0 Z" /></clipPath><path d="M -0.24999999999999997,0.5 l -2.7755575615628914e-17,-1.0 h -0.25 l -2.7755575615628914e-17,1.0 Z" /></g></g></g></svg>