<?xml version="1.0" encoding="UTF-8"?>
<!DOCTYPE svg PUBLIC "-//W3C//DTD SVG 1.1//EN"
    "http://www.w3.org/Graphics/SVG/1.1/DTD/svg11.dtd">
<svg xmlns="http://www.w3.org/2000/svg" xmlns:xlink="http://www.w3.org/1999/xlink" version="1.1" width="590.1523919995886" height="100.0" font-size="1" viewBox="0 0 590 100"><g><g transform="matrix(14.28571428571429,0.0,0.0,14.28571428571429,295.0761959997943,50.0)"><g stroke="rgb(0,0,0)" stroke-opacity="1.0" fill="rgb(0,0,0)" fill-opacity="0.0" stroke-width="0.2" font-size="1.0em"><path d="M 20.335333719985595,-0.8200000000000007 c -0.5044772701248142,-0.4101683270353824 -1.008954540249628,-0.8203366540707663 -1.6000000000000005 -0.8c -0.5910454597503723,2.033665407076626e-2 -1.2686591091263026,0.4711782892476819 -1.6 0.8c -0.33134089087369745,0.3288217107523188 -0.31640902324516207,0.5356234970800415 0.0 0.8c 0.31640902324516207,0.26437650291995923 0.9342952021069508,0.5863277224321543 1.6 0.8c 0.6657047978930493,0.2136722775678461 1.3792282148173591,0.3190656131913432 1.6 0.8c 0.2207717851826402,0.480934386808657 -5.120806137638852e-2,1.3374098248024735 -0.8 1.6c -0.7487919386236115,0.2625901751975266 -1.9743959693118058,-6.870491240123666e-2 -3.2 -0.4" /></g></g><g transform="matrix(14.28571428571429,0.0,0.0,14.28571428571429,295.0761959997943,50.0)"><g stroke="rgb(0,0,0)" stroke-opacity="1.0" fill="rgb(0,0,255)" fill-opacity="1.0" stroke-width="0.0" font-size="1.0em"><path d="M 16.655333719985595,2.7799999999999994 c 0.0,-0.17673111994585394 -0.1432688800541461,-0.32000000000000006 -0.32 -0.32000000000000006c -0.17673111994585394,-1.0821660017570848e-17 -0.32000000000000006,0.14326888005414606 -0.32000000000000006 0.31999999999999995c -2.1643320035141697e-17,0.17673111994585394 0.14326888005414606,0.32000000000000006 0.3199999999999999 0.32000000000000006c 0.17673111994585394,3.2464980052712547e-17 0.32000000000000006,-0.14326888005414604 0.32000000000000006 -0.3199999999999999Z" /></g></g><g transform="matrix(14.28571428571429,0.0,0.0,14.28571428571429,295.0761959997943,50.0)"><g stroke="rgb(0,0,0)" stroke-opacity="1.0" fill="rgb(0,0,255)" fill-opacity="1.0" stroke-width="0.0" font-size="1.0em"><path d="M 19.855333719985595,3.1799999999999993 c 0.0,-0.17673111994585394 -0.1432688800541461,-0.32000000000000006 -0.32 -0.32000000000000006c -0.17673111994585394,-1.0821660017570848e-17 -0.32000000000000006,0.14326888005414606 -0.32000000000000006 0.31999999999999995c -2.1643320035141697e-17,0.17673111994585394 0.14326888005414606,0.32000000000000006 0.3199999999999999 0.32000000000000006c 0.17673111994585394,3.2464980052712547e-17 0.32000000000000006,-0.14326888005414604 0.32000000000000006 -0.3199999999999999Z" /></g></g><g transform="matrix(14.28571428571429,0.0,0.0,14.28571428571429,295.0761959997943,50.0)"><g stroke="rgb(0,0,0)" stroke-opacity="1.0" fill="rgb(0,0,255)" fill-opacity="1.0" stroke-width="0.0" font-size="1.0em"><path d="M 20.655333719985595,1.5799999999999992 c 0.0,-0.17673111994585394 -0.1432688800541461,-0.32000000000000006 -0.32 -0.32000000000000006c -0.17673111994585394,-1.0821660017570848e-17 -0.32000000000000006,0.14326888005414606 -0.32000000000000006 0.31999999999999995c -2.1643320035141697e-17,0.17673111994585394 0.14326888005414606,0.32000000000000006 0.3199999999999999 0.32000000000000006c 0.17673111994585394,3.2464980052712547e-17 0.32000000000000006,-0.14326888005414604 0.32000000000000006 -0.3199999999999999Z" /></g></g><g transform="matrix(14.28571428571429,0.0,0.0,14.28571428571429,295.0761959997943,50.0)"><g stroke="rgb(0,0,0)" stroke-opacity="1.0" fill="rgb(0,0,255)" fill-opacity="1.0" stroke-width="0.0" font-size="1.0em"><path d="M 19.055333719985597,0.7799999999999989 c 0.0,-0.17673111994585394 -0.1432688800541461,-0.32000000000000006 -0.32 -0.32000000000000006c -0.17673111994585394,-1.0821660017570848e-17 -0.32000000000000006,0.14326888005414606 -0.32000000000000006 0.31999999999999995c -2.1643320035141697e-17,0.17673111994585394 0.14326888005414606,0.32000000000000006 0.3199999999999999 0.32000000000000006c 0.17673111994585394,3.2464980052712547e-17 0.32000000000000006,-0.14326888005414604 0.32000000000000006 -0.3199999999999999Z" /></g></g><g transform="matrix(14.28571428571429,0.0,0.0,14.28571428571429,295.0761959997943,50.0)"><g stroke="rgb(0,0,0)" stroke-opacity="1.0" fill="rgb(0,0,255)" fill-opacity="1.0" stroke-width="0.0" font-size="1.0em"><path d="M 17.455333719985596,-2.0000000000000906e-2 c 0.0,-0.17673111994585394 -0.1432688800541461,-0.32000000000000006 -0.32 -0.32000000000000006c -0.17673111994585394,-1.0821660017570848e-17 -0.32000000000000006,0.14326888005414606 -0.32000000000000006 0.31999999999999995c -2.1643320035141697e-17,0.17673111994585394 0.14326888005414606,0.32000000000000006 0.3199999999999999 0.32000000000000006c 0.17673111994585394,3.2464980052712547e-17 0.32000000000000006,-0.14326888005414604 0.32000000000000006 -0.3199999999999999Z" /></g></g><g transform="matrix(14.28571428571429,0.0,0.0,14.28571428571429,295.0761959997943,50.0)"><g stroke="rgb(0,0,0)" stroke-opacity="1.0" fill="rgb(0,0,255)" fill-opacity="1.0" stroke-width="0.0" font-size="1.0em"><path d="M 17.455333719985596,-0.8200000000000007 c 0.0,-0.17673111994585394 -0.1432688800541461,-0.32000000000000006 -0.32 -0.32000000000000006c -0.17673111994585394,-1.0821660017570848e-17 -0.32000000000000006,0.14326888005414606 -0.32000000000000006 0.31999999999999995c -2.1643320035141697e-17,0.17673111994585394 0.14326888005414606,0.32000000000000006 0.3199999999999999 0.32000000000000006c 0.17673111994585394,3.2464980052712547e-17 0.32000000000000006,-0.14326888005414604 0.32000000000000006 -0.3199999999999999Z" /></g></g><g transform="matrix(14.28571428571429,0.0,0.0,14.28571428571429,295.0761959997943,50.0)"><g stroke="rgb(0,0,0)" stroke-opacity="1.0" fill="rgb(0,0,255)" fill-opacity="1.0" stroke-width="0.0" font-size="1.0em"><path d="M 19.055333719985597,-1.6200000000000014 c 0.0,-0.17673111994585394 -0.1432688800541461,-0.32000000000000006 -0.32 -0.32000000000000006c -0.17673111994585394,-1.0821660017570848e-17 -0.32000000000000006,0.14326888005414606 -0.32000000000000006 0.31999999999999995c -2.1643320035141697e-17,0.17673111994585394 0.14326888005414606,0.32000000000000006 0.3199999999999999 0.32000000000000006c 0.17673111994585394,3.2464980052712547e-17 0.32000000000000006,-0.14326888005414604 0.32000000000000006 -0.3199999999999999Z" /></g></g><g transform="matrix(14.28571428571429,0.0,0.0,14.28571428571429,295.0761959997943,50.0)"><g stroke="rgb(0,0,0)" stroke-opacity="1.0" fill="rgb(0,0,255)" fill-opacity="1.0" stroke-width="0.0" font-size="1.0em"><path d="M 20.655333719985595,-0.8200000000000007 c 0.0,-0.17673111994585394 -0.1432688800541461,-0.32000000000000006 -0.32 -0.32000000000000006c -0.17673111994585394,-1.0821660017570848e-17 -0.32000000000000006,0.14326888005414606 -0.32000000000000006 0.31999999999999995c -2.1643320035141697e-17,0.17673111994585394 0.14326888005414606,0.32000000000000006 0.3199999999999999 0.32000000000000006c 0.17673111994585394,3.2464980052712547e-17 0.32000000000000006,-0.14326888005414604 0.32000000000000006 -0.3199999999999999Z" /></g></g><g transform="matrix(14.28571428571429,0.0,0.0,14.28571428571429,295.0761959997943,50.0)"><g stroke="rgb(0,0,0)" stroke-opacity="1.0" fill="rgb(0,128,0)" fill-opacity="1.0" stroke-width="1.0e-2" font-size="6.0em" font-style="italic" font-family="freeserif"><text transform="matrix(1.0,0.0,0.0,1.0,13.015333719985595,0.9999999999999987)" dominant-baseline="middle" text-anchor="middle" stroke="none">m</text></g></g><g transform="matrix(14.28571428571429,0.0,0.0,14.28571428571429,295.0761959997943,50.0)"><g stroke="rgb(0,0,0)" stroke-opacity="1.0" fill="rgb(0,0,0)" fill-opacity="0.0" stroke-width="5.0e-2" font-size="1.0em"><path d="M 15.515333719985595,3.4999999999999987 l -5.551115123125783e-16,-5.0 h -5.0 l -5.551115123125783e-16,5.0 Z" /></g></g><g transform="matrix(14.28571428571429,0.0,0.0,14.28571428571429,295.0761959997943,50.0)"><g stroke="rgb(0,0,0)" stroke-opacity="1.0" fill="rgb(0,0,0)" fill-opacity="0.0" stroke-width="0.1" font-size="1.0em"><path d="M 6.470123175719088,-1.0000000000000013 l 1.472168388222995,2.0 " /></g></g><g transform="matrix(14.28571428571429,0.0,0.0,14.28571428571429,295.0761959997943,50.0)"><g stroke="rgb(0,0,0)" stroke-opacity="1.0" fill="rgb(0,0,0)" fill-opacity="0.0" stroke-width="0.1" font-size="1.0em"><path d="M 6.470123175719088,-1.0000000000000013 l -1.4721683882229954,2.0 " /></g></g><g transform="matrix(14.28571428571429,0.0,0.0,14.28571428571429,295.0761959997943,50.0)"><g stroke="rgb(0,0,0)" stroke-opacity="1.0" fill="rgb(0,0,0)" fill-opacity="0.0" stroke-width="0.1" font-size="1.0em"><path d="M 7.942291563942083,0.9999999999999987 l 1.5730421560435097,2.0 " /></g></g><g transform="matrix(14.28571428571429,0.0,0.0,14.28571428571429,295.0761959997943,50.0)"><g stroke="rgb(0,0,0)" stroke-opacity="1.0" fill="rgb(0,0,0)" fill-opacity="0.0" stroke-width="0.1" font-size="1.0em"><path d="M 7.942291563942083,0.9999999999999987 l -0.28868441920393195,2.0 " /></g></g><g transform="matrix(14.28571428571429,0.0,0.0,14.28571428571429,295.0761959997943,50.0)"><g stroke="rgb(0,0,0)" stroke-opacity="1.0" fill="rgb(128,0,128)" fill-opacity="1.0" stroke-width="0.1" font-size="1.0em"><path d="M 10.015333719985593,2.9999999999999987 c 0.0,-0.2761423749153967 -0.22385762508460322,-0.5 -0.4999999999999999 -0.5c -0.2761423749153967,-1.6908843777454448e-17 -0.5,0.2238576250846032 -0.5 0.49999999999999983c -3.3817687554908895e-17,0.2761423749153967 0.22385762508460316,0.5 0.4999999999999998 0.5c 0.2761423749153967,5.072653133236334e-17 0.5,-0.22385762508460313 0.5 -0.4999999999999997Z" /></g></g><g transform="matrix(14.28571428571429,0.0,0.0,14.28571428571429,295.0761959997943,50.0)"><g stroke="rgb(0,0,0)" stroke-opacity="1.0" fill="rgb(128,0,128)" fill-opacity="1.0" stroke-width="0.1" font-size="1.0em"><path d="M 8.153607144738151,2.9999999999999987 c 0.0,-0.2761423749153967 -0.22385762508460322,-0.5 -0.4999999999999999 -0.5c -0.2761423749153967,-1.6908843777454448e-17 -0.5,0.2238576250846032 -0.5 0.49999999999999983c -3.3817687554908895e-17,0.2761423749153967 0.22385762508460316,0.5 0.4999999999999998 0.5c 0.2761423749153967,5.072653133236334e-17 0.5,-0.22385762508460313 0.5 -0.4999999999999997Z" /></g></g><g transform="matrix(14.28571428571429,0.0,0.0,14.28571428571429,295.0761959997943,50.0)"><g stroke="rgb(0,0,0)" stroke-opacity="1.0" fill="rgb(128,0,128)" fill-opacity="1.0" stroke-width="0.1" font-size="1.0em"><path d="M 8.442291563942083,0.9999999999999987 c 0.0,-0.2761423749153967 -0.22385762508460322,-0.5 -0.4999999999999999 -0.5c -0.2761423749153967,-1.6908843777454448e-17 -0.5,0.2238576250846032 -0.5 0.49999999999999983c -3.3817687554908895e-17,0.2761423749153967 0.22385762508460316,0.5 0.4999999999999998 0.5c 0.2761423749153967,5.072653133236334e-17 0.5,-0.22385762508460313 0.5 -0.4999999999999997Z" /></g></g><g transform="matrix(14.28571428571429,0.0,0.0,14.28571428571429,295.0761959997943,50.0)"><g stroke="rgb(0,0,0)" stroke-opacity="1.0" fill="rgb(0,0,0)" fill-opacity="0.0" stroke-width="0.1" font-size="1.0em"><path d="M 4.997954787496092,0.9999999999999987 l 0.2886844192039326,2.0 " /></g></g><g transform="matrix(14.28571428571429,0.0,0.0,14.28571428571429,295.0761959997943,50.0)"><g stroke="rgb(0,0,0)" stroke-opacity="1.0" fill="rgb(0,0,0)" fill-opacity="0.0" stroke-width="0.1" font-size="1.0em"><path d="M 4.997954787496092,0.9999999999999987 l -1.5730421560435097,2.0 " /></g></g><g transform="matrix(14.28571428571429,0.0,0.0,14.28571428571429,295.0761959997943,50.0)"><g stroke="rgb(0,0,0)" stroke-opacity="1.0" fill="rgb(128,0,128)" fill-opacity="1.0" stroke-width="0.1" font-size="1.0em"><path d="M 5.786639206700025,2.9999999999999987 c 0.0,-0.2761423749153967 -0.22385762508460322,-0.5 -0.4999999999999999 -0.5c -0.2761423749153967,-1.6908843777454448e-17 -0.5,0.2238576250846032 -0.5 0.49999999999999983c -3.3817687554908895e-17,0.2761423749153967 0.22385762508460316,0.5 0.4999999999999998 0.5c 0.2761423749153967,5.072653133236334e-17 0.5,-0.22385762508460313 0.5 -0.4999999999999997Z" /></g></g><g transform="matrix(14.28571428571429,0.0,0.0,14.28571428571429,295.0761959997943,50.0)"><g stroke="rgb(0,0,0)" stroke-opacity="1.0" fill="rgb(128,0,128)" fill-opacity="1.0" stroke-width="0.1" font-size="1.0em"><path d="M 3.9249126314525826,2.9999999999999987 c 0.0,-0.2761423749153967 -0.22385762508460322,-0.5 -0.4999999999999999 -0.5c -0.2761423749153967,-1.6908843777454448e-17 -0.5,0.2238576250846032 -0.5 0.49999999999999983c -3.3817687554908895e-17,0.2761423749153967 0.22385762508460316,0.5 0.4999999999999998 0.5c 0.2761423749153967,5.072653133236334e-17 0.5,-0.22385762508460313 0.5 -0.4999999999999997Z" /></g></g><g transform="matrix(14.28571428571429,0.0,0.0,14.28571428571429,295.0761959997943,50.0)"><g stroke="rgb(0,0,0)" stroke-opacity="1.0" fill="rgb(128,0,128)" fill-opacity="1.0" stroke-width="0.1" font-size="1.0em"><path d="M 5.497954787496092,0.9999999999999987 c 0.0,-0.2761423749153967 -0.22385762508460322,-0.5 -0.4999999999999999 -0.5c -0.2761423749153967,-1.6908843777454448e-17 -0.5,0.2238576250846032 -0.5 0.49999999999999983c -3.3817687554908895e-17,0.2761423749153967 0.22385762508460316,0.5 0.4999999999999998 0.5c 0.2761423749153967,5.072653133236334e-17 0.5,-0.22385762508460313 0.5 -0.4999999999999997Z" /></g></g><g transform="matrix(14.28571428571429,0.0,0.0,14.28571428571429,295.0761959997943,50.0)"><g stroke="rgb(0,0,0)" stroke-opacity="1.0" fill="rgb(128,0,128)" fill-opacity="1.0" stroke-width="0.1" font-size="1.0em"><path d="M 6.970123175719088,-1.0000000000000013 c 0.0,-0.2761423749153967 -0.22385762508460322,-0.5 -0.4999999999999999 -0.5c -0.2761423749153967,-1.6908843777454448e-17 -0.5,0.2238576250846032 -0.5 0.49999999999999983c -3.3817687554908895e-17,0.2761423749153967 0.22385762508460316,0.5 0.4999999999999998 0.5c 0.2761423749153967,5.072653133236334e-17 0.5,-0.22385762508460313 0.5 -0.4999999999999997Z" /></g></g><g transform="matrix(14.28571428571429,0.0,0.0,14.28571428571429,295.0761959997943,50.0)"><g stroke="rgb(255,165,0)" stroke-opacity="1.0" fill="rgb(0,0,0)" fill-opacity="0.0" stroke-width="0.3" stroke-linecap="round" stroke-linejoin="round" font-size="1.0em"><path d="M 1.8941898538495607,2.969277222396977 l -2.121320343559643,-2.1213203435596424 l 0.9,-1.1021821192326179e-16 l 0.7281152949374526,-0.5290067270632259 l 0.27811529493745263,-0.8559508646656383 l -0.27811529493745274,-0.8559508646656382 l -0.7281152949374528,-0.5290067270632258 h -0.9 l -3.061616997868383e-16,5.0 " /></g></g><g transform="matrix(14.28571428571429,0.0,0.0,14.28571428571429,295.0761959997943,50.0)"><g stroke="rgb(0,0,0)" stroke-opacity="1.0" fill="rgb(0,0,0)" fill-opacity="0.0" stroke-width="0.1" font-size="1.0em"><path d="M 1.275275074454776,3.05746922418874 l 1.1496375569978068,0.44253077581125877 l -0.44253077581125927,-1.1496375569978066 Z" /></g></g><g transform="matrix(14.28571428571429,0.0,0.0,14.28571428571429,295.0761959997943,50.0)"><g stroke="rgb(128,128,128)" stroke-opacity="1.0" fill="rgb(0,0,0)" fill-opacity="0.0" stroke-width="5.0e-2" font-size="1.0em" clip-path="url(#myClip27)"><clipPath id="myClip27"><path d="M -0.7271304897100812,3.499999999999999 l -5.551115123125783e-16,-5.0 h -5.0 l -5.551115123125783e-16,5.0 Z" /></clipPath><path d="M -6.514582347904851,-5.062603424276718 l 9.510565162951535,3.0901699437494745 " /></g></g><g transform="matrix(14.28571428571429,0.0,0.0,14.28571428571429,295.0761959997943,50.0)"><g stroke="rgb(128,128,128)" stroke-opacity="1.0" fill="rgb(0,0,0)" fill-opacity="0.0" stroke-width="5.0e-2" font-size="1.0em" clip-path="url(#myClip28)"><clipPath id="myClip28"><path d="M -0.7271304897100812,3.499999999999999 l -5.551115123125783e-16,-5.0 h -5.0 l -5.551115123125783e-16,5.0 Z" /></clipPath><path d="M -6.669090845092324,-4.587075166129141 l 9.510565162951535,3.0901699437494745 " /></g></g><g transform="matrix(14.28571428571429,0.0,0.0,14.28571428571429,295.0761959997943,50.0)"><g stroke="rgb(128,128,128)" stroke-opacity="1.0" fill="rgb(0,0,0)" fill-opacity="0.0" stroke-width="5.0e-2" font-size="1.0em" clip-path="url(#myClip29)"><clipPath id="myClip29"><path d="M -0.7271304897100812,3.499999999999999 l -5.551115123125783e-16,-5.0 h -5.0 l -5.551115123125783e-16,5.0 Z" /></clipPath><path d="M -6.823599342279798,-4.111546907981564 l 9.510565162951535,3.0901699437494745 " /></g></g><g transform="matrix(14.28571428571429,0.0,0.0,14.28571428571429,295.0761959997943,50.0)"><g stroke="rgb(128,128,128)" stroke-opacity="1.0" fill="rgb(0,0,0)" fill-opacity="0.0" stroke-width="5.0e-2" font-size="1.0em" clip-path="url(#myClip30)"><clipPath id="myClip30"><path d="M -0.7271304897100812,3.499999999999999 l -5.551115123125783e-16,-5.0 h -5.0 l -5.551115123125783e-16,5.0 Z" /></clipPath><path d="M -6.978107839467272,-3.6360186498339875 l 9.510565162951535,3.0901699437494745 " /></g></g><g transform="matrix(14.28571428571429,0.0,0.0,14.28571428571429,295.0761959997943,50.0)"><g stroke="rgb(128,128,128)" stroke-opacity="1.0" fill="rgb(0,0,0)" fill-opacity="0.0" stroke-width="5.0e-2" font-size="1.0em" clip-path="url(#myClip31)"><clipPath id="myClip31"><path d="M -0.7271304897100812,3.499999999999999 l -5.551115123125783e-16,-5.0 h -5.0 l -5.551115123125783e-16,5.0 Z" /></clipPath><path d="M -7.1326163366547455,-3.1604903916864107 l 9.510565162951535,3.0901699437494745 " /></g></g><g transform="matrix(14.28571428571429,0.0,0.0,14.28571428571429,295.0761959997943,50.0)"><g stroke="rgb(128,128,128)" stroke-opacity="1.0" fill="rgb(0,0,0)" fill-opacity="0.0" stroke-width="5.0e-2" font-size="1.0em" clip-path="url(#myClip32)"><clipPath id="myClip32"><path d="M -0.7271304897100812,3.499999999999999 l -5.551115123125783e-16,-5.0 h -5.0 l -5.551115123125783e-16,5.0 Z" /></clipPath><path d="M -7.287124833842219,-2.684962133538834 l 9.510565162951535,3.0901699437494745 " /></g></g><g transform="matrix(14.28571428571429,0.0,0.0,14.28571428571429,295.0761959997943,50.0)"><g stroke="rgb(128,128,128)" stroke-opacity="1.0" fill="rgb(0,0,0)" fill-opacity="0.0" stroke-width="5.0e-2" font-size="1.0em" clip-path="url(#myClip33)"><clipPath id="myClip33"><path d="M -0.7271304897100812,3.499999999999999 l -5.551115123125783e-16,-5.0 h -5.0 l -5.551115123125783e-16,5.0 Z" /></clipPath><path d="M -7.441633331029693,-2.209433875391257 l 9.510565162951535,3.0901699437494745 " /></g></g><g transform="matrix(14.28571428571429,0.0,0.0,14.28571428571429,295.0761959997943,50.0)"><g stroke="rgb(128,128,128)" stroke-opacity="1.0" fill="rgb(0,0,0)" fill-opacity="0.0" stroke-width="5.0e-2" font-size="1.0em" clip-path="url(#myClip34)"><clipPath id="myClip34"><path d="M -0.7271304897100812,3.499999999999999 l -5.551115123125783e-16,-5.0 h -5.0 l -5.551115123125783e-16,5.0 Z" /></clipPath><path d="M -7.596141828217167,-1.7339056172436804 l 9.510565162951535,3.0901699437494745 " /></g></g><g transform="matrix(14.28571428571429,0.0,0.0,14.28571428571429,295.0761959997943,50.0)"><g stroke="rgb(128,128,128)" stroke-opacity="1.0" fill="rgb(0,0,0)" fill-opacity="0.0" stroke-width="5.0e-2" font-size="1.0em" clip-path="url(#myClip35)"><clipPath id="myClip35"><path d="M -0.7271304897100812,3.499999999999999 l -5.551115123125783e-16,-5.0 h -5.0 l -5.551115123125783e-16,5.0 Z" /></clipPath><path d="M -7.75065032540464,-1.2583773590961038 l 9.510565162951535,3.0901699437494745 " /></g></g><g transform="matrix(14.28571428571429,0.0,0.0,14.28571428571429,295.0761959997943,50.0)"><g stroke="rgb(128,128,128)" stroke-opacity="1.0" fill="rgb(0,0,0)" fill-opacity="0.0" stroke-width="5.0e-2" font-size="1.0em" clip-path="url(#myClip36)"><clipPath id="myClip36"><path d="M -0.7271304897100812,3.499999999999999 l -5.551115123125783e-16,-5.0 h -5.0 l -5.551115123125783e-16,5.0 Z" /></clipPath><path d="M -7.905158822592114,-0.782849100948527 l 9.510565162951535,3.0901699437494745 " /></g></g><g transform="matrix(14.28571428571429,0.0,0.0,14.28571428571429,295.0761959997943,50.0)"><g stroke="rgb(128,128,128)" stroke-opacity="1.0" fill="rgb(0,0,0)" fill-opacity="0.0" stroke-width="5.0e-2" font-size="1.0em" clip-path="url(#myClip37)"><clipPath id="myClip37"><path d="M -0.7271304897100812,3.499999999999999 l -5.551115123125783e-16,-5.0 h -5.0 l -5.551115123125783e-16,5.0 Z" /></clipPath><path d="M -8.059667319779589,-0.3073208428009502 l 9.510565162951535,3.0901699437494745 " /></g></g><g transform="matrix(14.28571428571429,0.0,0.0,14.28571428571429,295.0761959997943,50.0)"><g stroke="rgb(128,128,128)" stroke-opacity="1.0" fill="rgb(0,0,0)" fill-opacity="0.0" stroke-width="5.0e-2" font-size="1.0em" clip-path="url(#myClip38)"><clipPath id="myClip38"><path d="M -0.7271304897100812,3.499999999999999 l -5.551115123125783e-16,-5.0 h -5.0 l -5.551115123125783e-16,5.0 Z" /></clipPath><path d="M -8.214175816967062,0.16820741534662664 l 9.510565162951535,3.0901699437494745 " /></g></g><g transform="matrix(14.28571428571429,0.0,0.0,14.28571428571429,295.0761959997943,50.0)"><g stroke="rgb(128,128,128)" stroke-opacity="1.0" fill="rgb(0,0,0)" fill-opacity="0.0" stroke-width="5.0e-2" font-size="1.0em" clip-path="url(#myClip39)"><clipPath id="myClip39"><path d="M -0.7271304897100812,3.499999999999999 l -5.551115123125783e-16,-5.0 h -5.0 l -5.551115123125783e-16,5.0 Z" /></clipPath><path d="M -8.368684314154535,0.643735673494203 l 9.510565162951535,3.0901699437494745 " /></g></g><g transform="matrix(14.28571428571429,0.0,0.0,14.28571428571429,295.0761959997943,50.0)"><g stroke="rgb(128,128,128)" stroke-opacity="1.0" fill="rgb(0,0,0)" fill-opacity="0.0" stroke-width="5.0e-2" font-size="1.0em" clip-path="url(#myClip40)"><clipPath id="myClip40"><path d="M -0.7271304897100812,3.499999999999999 l -5.551115123125783e-16,-5.0 h -5.0 l -5.551115123125783e-16,5.0 Z" /></clipPath><path d="M -8.523192811342009,1.1192639316417798 l 9.510565162951535,3.0901699437494745 " /></g></g><g transform="matrix(14.28571428571429,0.0,0.0,14.28571428571429,295.0761959997943,50.0)"><g stroke="rgb(128,128,128)" stroke-opacity="1.0" fill="rgb(0,0,0)" fill-opacity="0.0" stroke-width="5.0e-2" font-size="1.0em" clip-path="url(#myClip41)"><clipPath id="myClip41"><path d="M -0.7271304897100812,3.499999999999999 l -5.551115123125783e-16,-5.0 h -5.0 l -5.551115123125783e-16,5.0 Z" /></clipPath><path d="M -8.677701308529482,1.5947921897893567 l 9.510565162951535,3.0901699437494745 " /></g></g><g transform="matrix(14.28571428571429,0.0,0.0,14.28571428571429,295.0761959997943,50.0)"><g stroke="rgb(128,128,128)" stroke-opacity="1.0" fill="rgb(0,0,0)" fill-opacity="0.0" stroke-width="5.0e-2" font-size="1.0em" clip-path="url(#myClip42)"><clipPath id="myClip42"><path d="M -0.7271304897100812,3.499999999999999 l -5.551115123125783e-16,-5.0 h -5.0 l -5.551115123125783e-16,5.0 Z" /></clipPath><path d="M -8.832209805716957,2.0703204479369335 l 9.510565162951535,3.0901699437494745 " /></g></g><g transform="matrix(14.28571428571429,0.0,0.0,14.28571428571429,295.0761959997943,50.0)"><g stroke="rgb(128,128,128)" stroke-opacity="1.0" fill="rgb(0,0,0)" fill-opacity="0.0" stroke-width="5.0e-2" font-size="1.0em" clip-path="url(#myClip43)"><clipPath id="myClip43"><path d="M -0.7271304897100812,3.499999999999999 l -5.551115123125783e-16,-5.0 h -5.0 l -5.551115123125783e-16,5.0 Z" /></clipPath><path d="M -8.986718302904432,2.5458487060845103 l 9.510565162951535,3.0901699437494745 " /></g></g><g transform="matrix(14.28571428571429,0.0,0.0,14.28571428571429,295.0761959997943,50.0)"><g stroke="rgb(128,128,128)" stroke-opacity="1.0" fill="rgb(0,0,0)" fill-opacity="0.0" stroke-width="5.0e-2" font-size="1.0em" clip-path="url(#myClip44)"><clipPath id="myClip44"><path d="M -0.7271304897100812,3.499999999999999 l -5.551115123125783e-16,-5.0 h -5.0 l -5.551115123125783e-16,5.0 Z" /></clipPath><path d="M -9.141226800091903,3.021376964232087 l 9.510565162951535,3.0901699437494745 " /></g></g><g transform="matrix(14.28571428571429,0.0,0.0,14.28571428571429,295.0761959997943,50.0)"><g stroke="rgb(128,128,128)" stroke-opacity="1.0" fill="rgb(0,0,0)" fill-opacity="0.0" stroke-width="5.0e-2" font-size="1.0em" clip-path="url(#myClip45)"><clipPath id="myClip45"><path d="M -0.7271304897100812,3.499999999999999 l -5.551115123125783e-16,-5.0 h -5.0 l -5.551115123125783e-16,5.0 Z" /></clipPath><path d="M -9.295735297279379,3.496905222379664 l 9.510565162951535,3.0901699437494745 " /></g></g><g transform="matrix(14.28571428571429,0.0,0.0,14.28571428571429,295.0761959997943,50.0)"><g stroke="rgb(128,128,128)" stroke-opacity="1.0" fill="rgb(0,0,0)" fill-opacity="0.0" stroke-width="5.0e-2" font-size="1.0em" clip-path="url(#myClip46)"><clipPath id="myClip46"><path d="M -0.7271304897100812,3.499999999999999 l -5.551115123125783e-16,-5.0 h -5.0 l -5.551115123125783e-16,5.0 Z" /></clipPath><path d="M -9.45024379446685,3.9724334805272408 l 9.510565162951535,3.0901699437494745 " /></g></g><g transform="matrix(14.28571428571429,0.0,0.0,14.28571428571429,295.0761959997943,50.0)"><g stroke="rgb(128,128,128)" stroke-opacity="1.0" fill="rgb(0,0,0)" fill-opacity="0.0" stroke-width="5.0e-2" font-size="1.0em" clip-path="url(#myClip47)"><clipPath id="myClip47"><path d="M -0.7271304897100812,3.499999999999999 l -5.551115123125783e-16,-5.0 h -5.0 l -5.551115123125783e-16,5.0 Z" /></clipPath><path d="M 2.8354729345666336,-2.2874518581947685 l -3.090169943749474,9.510565162951535 " /></g></g><g transform="matrix(14.28571428571429,0.0,0.0,14.28571428571429,295.0761959997943,50.0)"><g stroke="rgb(128,128,128)" stroke-opacity="1.0" fill="rgb(0,0,0)" fill-opacity="0.0" stroke-width="5.0e-2" font-size="1.0em" clip-path="url(#myClip48)"><clipPath id="myClip48"><path d="M -0.7271304897100812,3.499999999999999 l -5.551115123125783e-16,-5.0 h -5.0 l -5.551115123125783e-16,5.0 Z" /></clipPath><path d="M 2.359944676419057,-2.441960355382242 l -3.090169943749474,9.510565162951535 " /></g></g><g transform="matrix(14.28571428571429,0.0,0.0,14.28571428571429,295.0761959997943,50.0)"><g stroke="rgb(128,128,128)" stroke-opacity="1.0" fill="rgb(0,0,0)" fill-opacity="0.0" stroke-width="5.0e-2" font-size="1.0em" clip-path="url(#myClip49)"><clipPath id="myClip49"><path d="M -0.7271304897100812,3.499999999999999 l -5.551115123125783e-16,-5.0 h -5.0 l -5.551115123125783e-16,5.0 Z" /></clipPath><path d="M 1.8844164182714802,-2.596468852569716 l -3.090169943749474,9.510565162951535 " /></g></g><g transform="matrix(14.28571428571429,0.0,0.0,14.28571428571429,295.0761959997943,50.0)"><g stroke="rgb(128,128,128)" stroke-opacity="1.0" fill="rgb(0,0,0)" fill-opacity="0.0" stroke-width="5.0e-2" font-size="1.0em" clip-path="url(#myClip50)"><clipPath id="myClip50"><path d="M -0.7271304897100812,3.499999999999999 l -5.551115123125783e-16,-5.0 h -5.0 l -5.551115123125783e-16,5.0 Z" /></clipPath><path d="M 1.4088881601239034,-2.7509773497571897 l -3.090169943749474,9.510565162951535 " /></g></g><g transform="matrix(14.28571428571429,0.0,0.0,14.28571428571429,295.0761959997943,50.0)"><g stroke="rgb(128,128,128)" stroke-opacity="1.0" fill="rgb(0,0,0)" fill-opacity="0.0" stroke-width="5.0e-2" font-size="1.0em" clip-path="url(#myClip51)"><clipPath id="myClip51"><path d="M -0.7271304897100812,3.499999999999999 l -5.551115123125783e-16,-5.0 h -5.0 l -5.551115123125783e-16,5.0 Z" /></clipPath><path d="M 0.9333599019763266,-2.9054858469446634 l -3.090169943749474,9.510565162951535 " /></g></g><g transform="matrix(14.28571428571429,0.0,0.0,14.28571428571429,295.0761959997943,50.0)"><g stroke="rgb(128,128,128)" stroke-opacity="1.0" fill="rgb(0,0,0)" fill-opacity="0.0" stroke-width="5.0e-2" font-size="1.0em" clip-path="url(#myClip52)"><clipPath id="myClip52"><path d="M -0.7271304897100812,3.499999999999999 l -5.551115123125783e-16,-5.0 h -5.0 l -5.551115123125783e-16,5.0 Z" /></clipPath><path d="M 0.45783164382874975,-3.059994344132137 l -3.090169943749474,9.510565162951535 " /></g></g><g transform="matrix(14.28571428571429,0.0,0.0,14.28571428571429,295.0761959997943,50.0)"><g stroke="rgb(128,128,128)" stroke-opacity="1.0" fill="rgb(0,0,0)" fill-opacity="0.0" stroke-width="5.0e-2" font-size="1.0em" clip-path="url(#myClip53)"><clipPath id="myClip53"><path d="M -0.7271304897100812,3.499999999999999 l -5.551115123125783e-16,-5.0 h -5.0 l -5.551115123125783e-16,5.0 Z" /></clipPath><path d="M -1.7696614318827075e-2,-3.214502841319611 l -3.090169943749474,9.510565162951535 " /></g></g><g transform="matrix(14.28571428571429,0.0,0.0,14.28571428571429,295.0761959997943,50.0)"><g stroke="rgb(128,128,128)" stroke-opacity="1.0" fill="rgb(0,0,0)" fill-opacity="0.0" stroke-width="5.0e-2" font-size="1.0em" clip-path="url(#myClip54)"><clipPath id="myClip54"><path d="M -0.7271304897100812,3.499999999999999 l -5.551115123125783e-16,-5.0 h -5.0 l -5.551115123125783e-16,5.0 Z" /></clipPath><path d="M -0.4932248724664039,-3.3690113385070846 l -3.090169943749474,9.510565162951535 " /></g></g><g transform="matrix(14.28571428571429,0.0,0.0,14.28571428571429,295.0761959997943,50.0)"><g stroke="rgb(128,128,128)" stroke-opacity="1.0" fill="rgb(0,0,0)" fill-opacity="0.0" stroke-width="5.0e-2" font-size="1.0em" clip-path="url(#myClip55)"><clipPath id="myClip55"><path d="M -0.7271304897100812,3.499999999999999 l -5.551115123125783e-16,-5.0 h -5.0 l -5.551115123125783e-16,5.0 Z" /></clipPath><path d="M -0.9687531306139803,-3.5235198356945583 l -3.090169943749474,9.510565162951535 " /></g></g><g transform="matrix(14.28571428571429,0.0,0.0,14.28571428571429,295.0761959997943,50.0)"><g stroke="rgb(128,128,128)" stroke-opacity="1.0" fill="rgb(0,0,0)" fill-opacity="0.0" stroke-width="5.0e-2" font-size="1.0em" clip-path="url(#myClip56)"><clipPath id="myClip56"><path d="M -0.7271304897100812,3.499999999999999 l -5.551115123125783e-16,-5.0 h -5.0 l -5.551115123125783e-16,5.0 Z" /></clipPath><path d="M -1.444281388761557,-3.6780283328820316 l -3.090169943749474,9.510565162951535 " /></g></g><g transform="matrix(14.28571428571429,0.0,0.0,14.28571428571429,295.0761959997943,50.0)"><g stroke="rgb(128,128,128)" stroke-opacity="1.0" fill="rgb(0,0,0)" fill-opacity="0.0" stroke-width="5.0e-2" font-size="1.0em" clip-path="url(#myClip57)"><clipPath id="myClip57"><path d="M -0.7271304897100812,3.499999999999999 l -5.551115123125783e-16,-5.0 h -5.0 l -5.551115123125783e-16,5.0 Z" /></clipPath><path d="M -1.919809646909134,-3.8325368300695057 l -3.090169943749474,9.510565162951535 " /></g></g><g transform="matrix(14.28571428571429,0.0,0.0,14.28571428571429,295.0761959997943,50.0)"><g stroke="rgb(128,128,128)" stroke-opacity="1.0" fill="rgb(0,0,0)" fill-opacity="0.0" stroke-width="5.0e-2" font-size="1.0em" clip-path="url(#myClip58)"><clipPath id="myClip58"><path d="M -0.7271304897100812,3.499999999999999 l -5.551115123125783e-16,-5.0 h -5.0 l -5.551115123125783e-16,5.0 Z" /></clipPath><path d="M -2.395337905056711,-3.987045327256979 l -3.090169943749474,9.510565162951535 " /></g></g><g transform="matrix(14.28571428571429,0.0,0.0,14.28571428571429,295.0761959997943,50.0)"><g stroke="rgb(128,128,128)" stroke-opacity="1.0" fill="rgb(0,0,0)" fill-opacity="0.0" stroke-width="5.0e-2" font-size="1.0em" clip-path="url(#myClip59)"><clipPath id="myClip59"><path d="M -0.7271304897100812,3.499999999999999 l -5.551115123125783e-16,-5.0 h -5.0 l -5.551115123125783e-16,5.0 Z" /></clipPath><path d="M -2.870866163204287,-4.141553824444453 l -3.090169943749474,9.510565162951535 " /></g></g><g transform="matrix(14.28571428571429,0.0,0.0,14.28571428571429,295.0761959997943,50.0)"><g stroke="rgb(128,128,128)" stroke-opacity="1.0" fill="rgb(0,0,0)" fill-opacity="0.0" stroke-width="5.0e-2" font-size="1.0em" clip-path="url(#myClip60)"><clipPath id="myClip60"><path d="M -0.7271304897100812,3.499999999999999 l -5.551115123125783e-16,-5.0 h -5.0 l -5.551115123125783e-16,5.0 Z" /></clipPath><path d="M -3.3463944213518637,-4.2960623216319265 l -3.090169943749474,9.510565162951535 " /></g></g><g transform="matrix(14.28571428571429,0.0,0.0,14.28571428571429,295.0761959997943,50.0)"><g stroke="rgb(128,128,128)" stroke-opacity="1.0" fill="rgb(0,0,0)" fill-opacity="0.0" stroke-width="5.0e-2" font-size="1.0em" clip-path="url(#myClip61)"><clipPath id="myClip61"><path d="M -0.7271304897100812,3.499999999999999 l -5.551115123125783e-16,-5.0 h -5.0 l -5.551115123125783e-16,5.0 Z" /></clipPath><path d="M -3.8219226794994405,-4.450570818819401 l -3.090169943749474,9.510565162951535 " /></g></g><g transform="matrix(14.28571428571429,0.0,0.0,14.28571428571429,295.0761959997943,50.0)"><g stroke="rgb(128,128,128)" stroke-opacity="1.0" fill="rgb(0,0,0)" fill-opacity="0.0" stroke-width="5.0e-2" font-size="1.0em" clip-path="url(#myClip62)"><clipPath id="myClip62"><path d="M -0.7271304897100812,3.499999999999999 l -5.551115123125783e-16,-5.0 h -5.0 l -5.551115123125783e-16,5.0 Z" /></clipPath><path d="M -4.297450937647017,-4.605079316006874 l -3.090169943749474,9.510565162951535 " /></g></g><g transform="matrix(14.28571428571429,0.0,0.0,14.28571428571429,295.0761959997943,50.0)"><g stroke="rgb(128,128,128)" stroke-opacity="1.0" fill="rgb(0,0,0)" fill-opacity="0.0" stroke-width="5.0e-2" font-size="1.0em" clip-path="url(#myClip63)"><clipPath id="myClip63"><path d="M -0.7271304897100812,3.499999999999999 l -5.551115123125783e-16,-5.0 h -5.0 l -5.551115123125783e-16,5.0 Z" /></clipPath><path d="M -4.772979195794594,-4.759587813194348 l -3.090169943749474,9.510565162951535 " /></g></g><g transform="matrix(14.28571428571429,0.0,0.0,14.28571428571429,295.0761959997943,50.0)"><g stroke="rgb(128,128,128)" stroke-opacity="1.0" fill="rgb(0,0,0)" fill-opacity="0.0" stroke-width="5.0e-2" font-size="1.0em" clip-path="url(#myClip64)"><clipPath id="myClip64"><path d="M -0.7271304897100812,3.499999999999999 l -5.551115123125783e-16,-5.0 h -5.0 l -5.551115123125783e-16,5.0 Z" /></clipPath><path d="M -5.248507453942171,-4.914096310381821 l -3.090169943749474,9.510565162951535 " /></g></g><g transform="matrix(14.28571428571429,0.0,0.0,14.28571428571429,295.0761959997943,50.0)"><g stroke="rgb(128,128,128)" stroke-opacity="1.0" fill="rgb(0,0,0)" fill-opacity="0.0" stroke-width="5.0e-2" font-size="1.0em" clip-path="url(#myClip65)"><clipPath id="myClip65"><path d="M -0.7271304897100812,3.499999999999999 l -5.551115123125783e-16,-5.0 h -5.0 l -5.551115123125783e-16,5.0 Z" /></clipPath><path d="M -5.724035712089748,-5.0686048075692955 l -3.090169943749474,9.510565162951535 " /></g></g><g transform="matrix(14.28571428571429,0.0,0.0,14.28571428571429,295.0761959997943,50.0)"><g stroke="rgb(128,128,128)" stroke-opacity="1.0" fill="rgb(0,0,0)" fill-opacity="0.0" stroke-width="5.0e-2" font-size="1.0em" clip-path="url(#myClip66)"><clipPath id="myClip66"><path d="M -0.7271304897100812,3.499999999999999 l -5.551115123125783e-16,-5.0 h -5.0 l -5.551115123125783e-16,5.0 Z" /></clipPath><path d="M -6.199563970237325,-5.223113304756769 l -3.090169943749474,9.510565162951535 " /></g></g><g transform="matrix(14.28571428571429,0.0,0.0,14.28571428571429,295.0761959997943,50.0)"><g stroke="rgb(0,0,0)" stroke-opacity="1.0" fill="rgb(0,0,0)" fill-opacity="1.0" stroke-width="1.0e-2" font-size="4.0em"><text transform="matrix(0.9510565162951535,0.3090169943749474,-0.3090169943749474,0.9510565162951535,-3.227130489710083,0.9999999999999987)" dominant-baseline="middle" text-anchor="middle" stroke="none">G</text></g></g><g transform="matrix(14.28571428571429,0.0,0.0,14.28571428571429,295.0761959997943,50.0)"><g stroke="rgb(0,0,0)" stroke-opacity="1.0" fill="rgb(0,0,128)" fill-opacity="1.0" stroke-width="0.0" font-size="1.0em"><path d="M -6.227130489710084,3.499999999999999 l -0.43301270189221935,-0.7499999999999999 l -0.4330127018922194,0.7499999999999998 Z" /></g></g><g transform="matrix(14.28571428571429,0.0,0.0,14.28571428571429,295.0761959997943,50.0)"><g stroke="rgb(0,0,0)" stroke-opacity="1.0" fill="rgb(0,0,128)" fill-opacity="1.0" stroke-width="0.0" font-size="1.0em"><path d="M -7.093155893494523,3.499999999999999 l -0.43301270189221935,-0.7499999999999999 l -0.4330127018922194,0.7499999999999998 Z" /></g></g><g transform="matrix(14.28571428571429,0.0,0.0,14.28571428571429,295.0761959997943,50.0)"><g stroke="rgb(0,0,0)" stroke-opacity="1.0" fill="rgb(0,0,128)" fill-opacity="1.0" stroke-width="0.0" font-size="1.0em"><path d="M -6.6601431916023035,2.749999999999999 l -0.43301270189221935,-0.7499999999999999 l -0.4330127018922194,0.7499999999999998 Z" /></g></g><g transform="matrix(14.28571428571429,0.0,0.0,14.28571428571429,295.0761959997943,50.0)"><g stroke="rgb(0,0,0)" stroke-opacity="1.0" fill="rgb(0,0,128)" fill-opacity="1.0" stroke-width="0.0" font-size="1.0em"><path d="M -7.959181297278961,3.499999999999999 l -0.43301270189221935,-0.7499999999999999 l -0.4330127018922194,0.7499999999999998 Z" /></g></g><g transform="matrix(14.28571428571429,0.0,0.0,14.28571428571429,295.0761959997943,50.0)"><g stroke="rgb(0,0,0)" stroke-opacity="1.0" fill="rgb(0,0,128)" fill-opacity="1.0" stroke-width="0.0" font-size="1.0em"><path d="M -8.8252067010634,3.499999999999999 l -0.43301270189221935,-0.7499999999999999 l -0.4330127018922194,0.7499999999999998 Z" /></g></g><g transform="matrix(14.28571428571429,0.0,0.0,14.28571428571429,295.0761959997943,50.0)"><g stroke="rgb(0,0,0)" stroke-opacity="1.0" fill="rgb(0,0,128)" fill-opacity="1.0" stroke-width="0.0" font-size="1.0em"><path d="M -8.392193999171182,2.749999999999999 l -0.43301270189221935,-0.7499999999999999 l -0.4330127018922194,0.7499999999999998 Z" /></g></g><g transform="matrix(14.28571428571429,0.0,0.0,14.28571428571429,295.0761959997943,50.0)"><g stroke="rgb(0,0,0)" stroke-opacity="1.0" fill="rgb(0,0,128)" fill-opacity="1.0" stroke-width="0.0" font-size="1.0em"><path d="M -7.093155893494521,1.9999999999999991 l -0.43301270189221935,-0.7499999999999999 l -0.4330127018922194,0.7499999999999998 Z" /></g></g><g transform="matrix(14.28571428571429,0.0,0.0,14.28571428571429,295.0761959997943,50.0)"><g stroke="rgb(0,0,0)" stroke-opacity="1.0" fill="rgb(0,0,128)" fill-opacity="1.0" stroke-width="0.0" font-size="1.0em"><path d="M -7.959181297278961,1.9999999999999991 l -0.43301270189221935,-0.7499999999999999 l -0.4330127018922194,0.7499999999999998 Z" /></g></g><g transform="matrix(14.28571428571429,0.0,0.0,14.28571428571429,295.0761959997943,50.0)"><g stroke="rgb(0,0,0)" stroke-opacity="1.0" fill="rgb(0,0,128)" fill-opacity="1.0" stroke-width="0.0" font-size="1.0em"><path d="M -7.526168595386742,1.2499999999999991 l -0.43301270189221935,-0.7499999999999999 l -0.4330127018922194,0.7499999999999998 Z" /></g></g><g transform="matrix(14.28571428571429,0.0,0.0,14.28571428571429,295.0761959997943,50.0)"><g stroke="rgb(0,0,0)" stroke-opacity="1.0" fill="rgb(0,0,128)" fill-opacity="1.0" stroke-width="0.0" font-size="1.0em"><path d="M -9.69123210484784,3.499999999999999 l -0.43301270189221935,-0.7499999999999999 l -0.4330127018922194,0.7499999999999998 Z" /></g></g><g transform="matrix(14.28571428571429,0.0,0.0,14.28571428571429,295.0761959997943,50.0)"><g stroke="rgb(0,0,0)" stroke-opacity="1.0" fill="rgb(0,0,128)" fill-opacity="1.0" stroke-width="0.0" font-size="1.0em"><path d="M -10.55725750863228,3.499999999999999 l -0.43301270189221935,-0.7499999999999999 l -0.4330127018922194,0.7499999999999998 Z" /></g></g><g transform="matrix(14.28571428571429,0.0,0.0,14.28571428571429,295.0761959997943,50.0)"><g stroke="rgb(0,0,0)" stroke-opacity="1.0" fill="rgb(0,0,128)" fill-opacity="1.0" stroke-width="0.0" font-size="1.0em"><path d="M -10.12424480674006,2.749999999999999 l -0.43301270189221935,-0.7499999999999999 l -0.4330127018922194,0.7499999999999998 Z" /></g></g><g transform="matrix(14.28571428571429,0.0,0.0,14.28571428571429,295.0761959997943,50.0)"><g stroke="rgb(0,0,0)" stroke-opacity="1.0" fill="rgb(0,0,128)" fill-opacity="1.0" stroke-width="0.0" font-size="1.0em"><path d="M -11.423282912416717,3.499999999999999 l -0.43301270189221935,-0.7499999999999999 l -0.4330127018922194,0.7499999999999998 Z" /></g></g><g transform="matrix(14.28571428571429,0.0,0.0,14.28571428571429,295.0761959997943,50.0)"><g stroke="rgb(0,0,0)" stroke-opacity="1.0" fill="rgb(0,0,128)" fill-opacity="1.0" stroke-width="0.0" font-size="1.0em"><path d="M -12.289308316201156,3.499999999999999 l -0.43301270189221935,-0.7499999999999999 l -0.4330127018922194,0.7499999999999998 Z" /></g></g><g transform="matrix(14.28571428571429,0.0,0.0,14.28571428571429,295.0761959997943,50.0)"><g stroke="rgb(0,0,0)" stroke-opacity="1.0" fill="rgb(0,0,128)" fill-opacity="1.0" stroke-width="0.0" font-size="1.0em"><path d="M -11.856295614308937,2.749999999999999 l -0.43301270189221935,-0.7499999999999999 l -0.4330127018922194,0.7499999999999998 Z" /></g></g><g transform="matrix(14.28571428571429,0.0,0.0,14.28571428571429,295.0761959997943,50.0)"><g stroke="rgb(0,0,0)" stroke-opacity="1.0" fill="rgb(0,0,128)" fill-opacity="1.0" stroke-width="0.0" font-size="1.0em"><path d="M -10.557257508632278,1.9999999999999991 l -0.43301270189221935,-0.7499999999999999 l -0.4330127018922194,0.7499999999999998 Z" /></g></g><g transform="matrix(14.28571428571429,0.0,0.0,14.28571428571429,295.0761959997943,50.0)"><g stroke="rgb(0,0,0)" stroke-opacity="1.0" fill="rgb(0,0,128)" fill-opacity="1.0" stroke-width="0.0" font-size="1.0em"><path d="M -11.423282912416717,1.9999999999999991 l -0.43301270189221935,-0.7499999999999999 l -0.4330127018922194,0.7499999999999998 Z" /></g></g><g transform="matrix(14.28571428571429,0.0,0.0,14.28571428571429,295.0761959997943,50.0)"><g stroke="rgb(0,0,0)" stroke-opacity="1.0" fill="rgb(0,0,128)" fill-opacity="1.0" stroke-width="0.0" font-size="1.0em"><path d="M -10.990270210524498,1.2499999999999991 l -0.43301270189221935,-0.7499999999999999 l -0.4330127018922194,0.7499999999999998 Z" /></g></g><g transform="matrix(14.28571428571429,0.0,0.0,14.28571428571429,295.0761959997943,50.0)"><g stroke="rgb(0,0,0)" stroke-opacity="1.0" fill="rgb(0,0,128)" fill-opacity="1.0" stroke-width="0.0" font-size="1.0em"><path d="M -7.959181297278961,0.4999999999999991 l -0.43301270189221935,-0.7499999999999999 l -0.4330127018922194,0.7499999999999998 Z" /></g></g><g transform="matrix(14.28571428571429,0.0,0.0,14.28571428571429,295.0761959997943,50.0)"><g stroke="rgb(0,0,0)" stroke-opacity="1.0" fill="rgb(0,0,128)" fill-opacity="1.0" stroke-width="0.0" font-size="1.0em"><path d="M -8.8252067010634,0.4999999999999991 l -0.43301270189221935,-0.7499999999999999 l -0.4330127018922194,0.7499999999999998 Z" /></g></g><g transform="matrix(14.28571428571429,0.0,0.0,14.28571428571429,295.0761959997943,50.0)"><g stroke="rgb(0,0,0)" stroke-opacity="1.0" fill="rgb(0,0,128)" fill-opacity="1.0" stroke-width="0.0" font-size="1.0em"><path d="M -8.392193999171182,-0.2500000000000008 l -0.43301270189221935,-0.7499999999999999 l -0.4330127018922194,0.7499999999999998 Z" /></g></g><g transform="matrix(14.28571428571429,0.0,0.0,14.28571428571429,295.0761959997943,50.0)"><g stroke="rgb(0,0,0)" stroke-opacity="1.0" fill="rgb(0,0,128)" fill-opacity="1.0" stroke-width="0.0" font-size="1.0em"><path d="M -9.69123210484784,0.4999999999999991 l -0.43301270189221935,-0.7499999999999999 l -0.4330127018922194,0.7499999999999998 Z" /></g></g><g transform="matrix(14.28571428571429,0.0,0.0,14.28571428571429,295.0761959997943,50.0)"><g stroke="rgb(0,0,0)" stroke-opacity="1.0" fill="rgb(0,0,128)" fill-opacity="1.0" stroke-width="0.0" font-size="1.0em"><path d="M -10.55725750863228,0.4999999999999991 l -0.43301270189221935,-0.7499999999999999 l -0.4330127018922194,0.7499999999999998 Z" /></g></g><g transform="matrix(14.28571428571429,0.0,0.0,14.28571428571429,295.0761959997943,50.0)"><g stroke="rgb(0,0,0)" stroke-opacity="1.0" fill="rgb(0,0,128)" fill-opacity="1.0" stroke-width="0.0" font-size="1.0em"><path d="M -10.12424480674006,-0.2500000000000008 l -0.43301270189221935,-0.7499999999999999 l -0.4330127018922194,0.7499999999999998 Z" /></g></g><g transform="matrix(14.28571428571429,0.0,0.0,14.28571428571429,295.0761959997943,50.0)"><g stroke="rgb(0,0,0)" stroke-opacity="1.0" fill="rgb(0,0,128)" fill-opacity="1.0" stroke-width="0.0" font-size="1.0em"><path d="M -8.8252067010634,-1.0000000000000004 l -0.43301270189221935,-0.7499999999999999 l -0.4330127018922194,0.7499999999999998 Z" /></g></g><g transform="matrix(14.28571428571429,0.0,0.0,14.28571428571429,295.0761959997943,50.0)"><g stroke="rgb(0,0,0)" stroke-opacity="1.0" fill="rgb(0,0,128)" fill-opacity="1.0" stroke-width="0.0" font-size="1.0em"><path d="M -9.69123210484784,-1.0000000000000004 l -0.43301270189221935,-0.7499999999999999 l -0.4330127018922194,0.7499999999999998 Z" /></g></g><g transform="matrix(14.28571428571429,0.0,0.0,14.28571428571429,295.0761959997943,50.0)"><g stroke="rgb(0,0,0)" stroke-opacity="1.0" fill="rgb(0,0,128)" fill-opacity="1.0" stroke-width="0.0" font-size="1.0em"><path d="M -9.258219402955621,-1.7500000000000004 l -0.43301270189221935,-0.7499999999999999 l -0.4330127018922194,0.7499999999999998 Z" /></g></g><g transform="matrix(14.28571428571429,0.0,0.0,14.28571428571429,295.0761959997943,50.0)"><g stroke="rgb(0,0,255)" stroke-opacity="1.0" fill="rgb(255,255,0)" fill-opacity="1.0" stroke-width="5.0e-2" font-size="1.0em"><path d="M -13.655333719985595,3.0999999999999983 v -3.2 c 0.0,-0.2209138999323174 -0.17908610006768258,-0.4 -0.3999999999999999 -0.4h -1.2 c -0.2209138999323174,-1.3527075021963559e-17 -0.4,0.17908610006768255 -0.4 0.3999999999999999v 3.2 c -2.7054150043927117e-17,0.2209138999323174 0.17908610006768255,0.4 0.3999999999999999 0.40000000000000013h 1.2000000000000002 c 0.2209138999323174,4.058122506589068e-17 0.4,-0.17908610006768252 0.40000000000000013 -0.39999999999999986Z" /></g></g><g transform="matrix(14.28571428571429,0.0,0.0,14.28571428571429,295.0761959997943,50.0)"><g stroke="rgb(0,0,255)" stroke-opacity="1.0" fill="rgb(255,255,0)" fill-opacity="1.0" stroke-width="5.0e-2" font-size="1.0em"></g></g><g transform="matrix(14.28571428571429,0.0,0.0,14.28571428571429,295.0761959997943,50.0)"><g stroke="rgb(0,0,255)" stroke-opacity="1.0" fill="rgb(255,255,0)" fill-opacity="1.0" stroke-width="5.0e-2" font-size="1.0em"><path d="M -13.655333719985595,-2.0000000000000013 c 0.0,-0.5522847498307935 -0.44771525016920644,-1.0 -0.9999999999999998 -1.0c -0.5522847498307935,-3.3817687554908895e-17 -1.0,0.4477152501692064 -1.0 0.9999999999999997c -6.763537510981779e-17,0.5522847498307935 0.4477152501692063,1.0 0.9999999999999996 1.0c 0.5522847498307935,1.0145306266472669e-16 1.0,-0.44771525016920627 1.0 -0.9999999999999994Z" /></g></g><g transform="matrix(14.28571428571429,0.0,0.0,14.28571428571429,295.0761959997943,50.0)"><g stroke="rgb(0,0,0)" stroke-opacity="1.0" fill="rgb(255,0,0)" fill-opacity="1.0" stroke-width="0.0" font-size="1.0em"><path d="M -16.655333719985595,1.4999999999999996 c 0.0,-1.104569499661587 -0.8954305003384129,-2.0 -1.9999999999999996 -2.0c -1.104569499661587,-6.763537510981779e-17 -2.0,0.8954305003384128 -2.0 1.9999999999999993c -1.3527075021963558e-16,1.104569499661587 0.8954305003384126,2.0 1.9999999999999991 2.0c 1.104569499661587,2.0290612532945337e-16 2.0,-0.8954305003384125 2.0 -1.999999999999999ZM -16.955333719985596,-3.1999999999999997 l -5.551115123125783e-17,5.551115123125783e-17 c 0.0,0.16568542494923794 -0.13431457505076197,0.2999999999999999 -0.3 0.2999999999999998c -0.165685424949238,0.0 -0.2999999999999999,-0.13431457505076197 -0.2999999999999999 -0.3c 0.0,-0.16568542494923796 0.13431457505076197,-0.2999999999999999 0.3 -0.2999999999999999c 0.16568542494923802,0.0 0.29999999999999993,0.13431457505076197 0.29999999999999993 0.3ZM -16.955333719985596,-2.4 l -5.551115123125783e-17,5.551115123125783e-17 c 0.0,0.16568542494923794 -0.13431457505076197,0.2999999999999999 -0.3 0.2999999999999998c -0.165685424949238,0.0 -0.2999999999999999,-0.13431457505076197 -0.2999999999999999 -0.3c 0.0,-0.16568542494923796 0.13431457505076197,-0.2999999999999999 0.3 -0.2999999999999999c 0.16568542494923802,0.0 0.29999999999999993,0.13431457505076197 0.29999999999999993 0.3ZM -16.955333719985596,-1.6 l -5.551115123125783e-17,5.551115123125783e-17 c 0.0,0.16568542494923794 -0.13431457505076197,0.2999999999999999 -0.3 0.2999999999999998c -0.165685424949238,0.0 -0.2999999999999999,-0.13431457505076197 -0.2999999999999999 -0.3c 0.0,-0.16568542494923796 0.13431457505076197,-0.2999999999999999 0.3 -0.2999999999999999c 0.16568542494923802,0.0 0.29999999999999993,0.13431457505076197 0.29999999999999993 0.3ZM -16.955333719985596,-0.8000000000000003 l -5.551115123125783e-17,5.551115123125783e-17 c 0.0,0.16568542494923794 -0.13431457505076197,0.2999999999999999 -0.3 0.2999999999999998c -0.165685424949238,0.0 -0.2999999999999999,-0.13431457505076197 -0.2999999999999999 -0.3c 0.0,-0.16568542494923796 0.13431457505076197,-0.2999999999999999 0.3 -0.2999999999999999c 0.16568542494923802,0.0 0.29999999999999993,0.13431457505076197 0.29999999999999993 0.3ZM -16.955333719985596,-4.440892098500626e-16 l -5.551115123125783e-17,5.551115123125783e-17 c 0.0,0.16568542494923794 -0.13431457505076197,0.2999999999999999 -0.3 0.2999999999999998c -0.165685424949238,0.0 -0.2999999999999999,-0.13431457505076197 -0.2999999999999999 -0.3c 0.0,-0.16568542494923796 0.13431457505076197,-0.2999999999999999 0.3 -0.2999999999999999c 0.16568542494923802,0.0 0.29999999999999993,0.13431457505076197 0.29999999999999993 0.3ZM -16.955333719985596,0.7999999999999994 l -5.551115123125783e-17,5.551115123125783e-17 c 0.0,0.16568542494923794 -0.13431457505076197,0.2999999999999999 -0.3 0.2999999999999998c -0.165685424949238,0.0 -0.2999999999999999,-0.13431457505076197 -0.2999999999999999 -0.3c 0.0,-0.16568542494923796 0.13431457505076197,-0.2999999999999999 0.3 -0.2999999999999999c 0.16568542494923802,0.0 0.29999999999999993,0.13431457505076197 0.29999999999999993 0.3ZM -16.955333719985596,1.5999999999999992 l -5.551115123125783e-17,5.551115123125783e-17 c 0.0,0.16568542494923794 -0.13431457505076197,0.2999999999999999 -0.3 0.2999999999999998c -0.165685424949238,0.0 -0.2999999999999999,-0.13431457505076197 -0.2999999999999999 -0.3c 0.0,-0.16568542494923796 0.13431457505076197,-0.2999999999999999 0.3 -0.2999999999999999c 0.16568542494923802,0.0 0.29999999999999993,0.13431457505076197 0.29999999999999993 0.3ZM -16.955333719985596,2.399999999999999 l -5.551115123125783e-17,5.551115123125783e-17 c 0.0,0.16568542494923794 -0.13431457505076197,0.2999999999999999 -0.3 0.2999999999999998c -0.165685424949238,0.0 -0.2999999999999999,-0.13431457505076197 -0.2999999999999999 -0.3c 0.0,-0.16568542494923796 0.13431457505076197,-0.2999999999999999 0.3 -0.2999999999999999c 0.16568542494923802,0.0 0.29999999999999993,0.13431457505076197 0.29999999999999993 0.3ZM -16.955333719985596,3.199999999999999 l -5.551115123125783e-17,5.551115123125783e-17 c 0.0,0.16568542494923794 -0.13431457505076197,0.2999999999999999 -0.3 0.2999999999999998c -0.165685424949238,0.0 -0.2999999999999999,-0.13431457505076197 -0.2999999999999999 -0.3c 0.0,-0.16568542494923796 0.13431457505076197,-0.2999999999999999 0.3 -0.2999999999999999c 0.16568542494923802,0.0 0.29999999999999993,0.13431457505076197 0.29999999999999993 0.3ZM -16.155333719985595,-3.1999999999999997 l -5.551115123125783e-17,5.551115123125783e-17 c 0.0,0.16568542494923794 -0.13431457505076197,0.2999999999999999 -0.3 0.2999999999999998c -0.165685424949238,0.0 -0.2999999999999999,-0.13431457505076197 -0.2999999999999999 -0.3c 0.0,-0.16568542494923796 0.13431457505076197,-0.2999999999999999 0.3 -0.2999999999999999c 0.16568542494923802,0.0 0.29999999999999993,0.13431457505076197 0.29999999999999993 0.3ZM -16.155333719985595,-2.4 l -5.551115123125783e-17,5.551115123125783e-17 c 0.0,0.16568542494923794 -0.13431457505076197,0.2999999999999999 -0.3 0.2999999999999998c -0.165685424949238,0.0 -0.2999999999999999,-0.13431457505076197 -0.2999999999999999 -0.3c 0.0,-0.16568542494923796 0.13431457505076197,-0.2999999999999999 0.3 -0.2999999999999999c 0.16568542494923802,0.0 0.29999999999999993,0.13431457505076197 0.29999999999999993 0.3ZM -16.155333719985595,-1.6 l -5.551115123125783e-17,5.551115123125783e-17 c 0.0,0.16568542494923794 -0.13431457505076197,0.2999999999999999 -0.3 0.2999999999999998c -0.165685424949238,0.0 -0.2999999999999999,-0.13431457505076197 -0.2999999999999999 -0.3c 0.0,-0.16568542494923796 0.13431457505076197,-0.2999999999999999 0.3 -0.2999999999999999c 0.16568542494923802,0.0 0.29999999999999993,0.13431457505076197 0.29999999999999993 0.3ZM -16.155333719985595,-0.8000000000000003 l -5.551115123125783e-17,5.551115123125783e-17 c 0.0,0.16568542494923794 -0.13431457505076197,0.2999999999999999 -0.3 0.2999999999999998c -0.165685424949238,0.0 -0.2999999999999999,-0.13431457505076197 -0.2999999999999999 -0.3c 0.0,-0.16568542494923796 0.13431457505076197,-0.2999999999999999 0.3 -0.2999999999999999c 0.16568542494923802,0.0 0.29999999999999993,0.13431457505076197 0.29999999999999993 0.3ZM -16.155333719985595,-4.440892098500626e-16 l -5.551115123125783e-17,5.551115123125783e-17 c 0.0,0.16568542494923794 -0.13431457505076197,0.2999999999999999 -0.3 0.2999999999999998c -0.165685424949238,0.0 -0.2999999999999999,-0.13431457505076197 -0.2999999999999999 -0.3c 0.0,-0.16568542494923796 0.13431457505076197,-0.2999999999999999 0.3 -0.2999999999999999c 0.16568542494923802,0.0 0.29999999999999993,0.13431457505076197 0.29999999999999993 0.3ZM -16.155333719985595,0.7999999999999994 l -5.551115123125783e-17,5.551115123125783e-17 c 0.0,0.16568542494923794 -0.13431457505076197,0.2999999999999999 -0.3 0.2999999999999998c -0.165685424949238,0.0 -0.2999999999999999,-0.13431457505076197 -0.2999999999999999 -0.3c 0.0,-0.16568542494923796 0.13431457505076197,-0.2999999999999999 0.3 -0.2999999999999999c 0.16568542494923802,0.0 0.29999999999999993,0.13431457505076197 0.29999999999999993 0.3ZM -16.155333719985595,1.5999999999999992 l -5.551115123125783e-17,5.551115123125783e-17 c 0.0,0.16568542494923794 -0.13431457505076197,0.2999999999999999 -0.3 0.2999999999999998c -0.165685424949238,0.0 -0.2999999999999999,-0.13431457505076197 -0.2999999999999999 -0.3c 0.0,-0.16568542494923796 0.13431457505076197,-0.2999999999999999 0.3 -0.2999999999999999c 0.16568542494923802,0.0 0.29999999999999993,0.13431457505076197 0.29999999999999993 0.3ZM -16.155333719985595,2.399999999999999 l -5.551115123125783e-17,5.551115123125783e-17 c 0.0,0.16568542494923794 -0.13431457505076197,0.2999999999999999 -0.3 0.2999999999999998c -0.165685424949238,0.0 -0.2999999999999999,-0.13431457505076197 -0.2999999999999999 -0.3c 0.0,-0.16568542494923796 0.13431457505076197,-0.2999999999999999 0.3 -0.2999999999999999c 0.16568542494923802,0.0 0.29999999999999993,0.13431457505076197 0.29999999999999993 0.3ZM -16.155333719985595,3.199999999999999 l -5.551115123125783e-17,5.551115123125783e-17 c 0.0,0.16568542494923794 -0.13431457505076197,0.2999999999999999 -0.3 0.2999999999999998c -0.165685424949238,0.0 -0.2999999999999999,-0.13431457505076197 -0.2999999999999999 -0.3c 0.0,-0.16568542494923796 0.13431457505076197,-0.2999999999999999 0.3 -0.2999999999999999c 0.16568542494923802,0.0 0.29999999999999993,0.13431457505076197 0.29999999999999993 0.3Z" /></g></g></g></svg>