<?xml version="1.0" encoding="UTF-8"?>
<!DOCTYPE svg PUBLIC "-//W3C//DTD SVG 1.1//EN"
    "http://www.w3.org/Graphics/SVG/1.1/DTD/svg11.dtd">
<svg xmlns="http://www.w3.org/2000/svg" xmlns:xlink="http://www.w3.org/1999/xlink" version="1.1" width="200.0" height="100.0" font-size="1" viewBox="0 0 200 100"><g><g transform="matrix(100.0,0.0,0.0,100.0,50.0,50.0)"><g stroke="rgb(0,0,0)" stroke-opacity="1.0" fill="rgb(0,0,0)" fill-opacity="0.0" stroke-width="1.0e-2" font-size="1.0em"><path d="M 1.5,0.5 l -1.1102230246251565e-16,-1.0 h -1.0 l -1.1102230246251565e-16,1.0 Z" /></g></g><g transform="matrix(100.0,0.0,0.0,100.0,50.0,50.0)"><g stroke="rgb(0,0,0)" stroke-opacity="1.0" fill="rgb(255,255,89)" fill-opacity="1.0" stroke-width="0.0" font-size="1.0em"><path d="M 1.1104899379850617,0.13228727693161307 l -0.11048993798506161,0.19137418631526104 l -0.11048993798506161,-0.19137418631526104 Z" /></g></g><g transform="matrix(100.0,0.0,0.0,100.0,50.0,50.0)"><g stroke="rgb(0,0,0)" stroke-opacity="1.0" fill="rgb(89,89,255)" fill-opacity="1.0" stroke-width="0.0" font-size="1.0em"><path d="M 1.0990867003435452,7.863926177779748e-2 l 5.890173781772907e-2,2.6224743290975572e-2 l -6.73957501115412e-3,6.412277292269175e-2 l -6.306702424435176e-2,1.3405309828139374e-2 l -3.223798954116894e-2,-5.583783581917861e-2 Z" /></g></g><g transform="matrix(100.0,0.0,0.0,100.0,50.0,50.0)"><g stroke="rgb(0,0,0)" stroke-opacity="1.0" fill="rgb(0,0,0)" fill-opacity="1.0" stroke-width="1.0e-2" font-size="1.0em"><path d="M 1.0780643589287613,8.31076983871773e-2 c -2.4678493949460796e-3,-1.1610318569121467e-2 4.9435862362826564e-3,-2.3022928629217638e-2 1.6553904805404123e-2 -2.549077802416372e-2c 1.1610318569121467e-2,-2.4678493949460804e-3 2.3022928629217638e-2,4.9435862362826564e-3 2.549077802416372e-2 1.655390480540412e-2c 2.467849394946081e-3,1.1610318569121467e-2 -4.943586236282655e-3,2.3022928629217638e-2 -1.6553904805404116e-2 2.549077802416372e-2c -1.1610318569121467e-2,2.4678493949460817e-3 -2.3022928629217638e-2,-4.943586236282653e-3 -2.5490778024163715e-2 -1.6553904805404116e-2Z" /></g></g><g transform="matrix(100.0,0.0,0.0,100.0,50.0,50.0)"><g stroke="rgb(0,0,0)" stroke-opacity="1.0" fill="rgb(0,0,0)" fill-opacity="1.0" stroke-width="1.0e-2" font-size="1.0em"><path d="M 1.0536973243608814,0.14792850964132284 c -1.1804676534021865e-2,-1.2407214996670356e-3 -2.0368454136846258e-2,-1.1816106110593418e-2 -1.912773263717922e-2 -2.362078264461528e-2c 1.240721499667035e-3,-1.1804676534021865e-2 1.1816106110593416e-2,-2.0368454136846258e-2 2.3620782644615278e-2 -1.912773263717922e-2c 1.1804676534021865e-2,1.240721499667034e-3 2.0368454136846258e-2,1.1816106110593414e-2 1.912773263717922e-2 2.3620782644615274e-2c -1.2407214996670334e-3,1.1804676534021865e-2 -1.1816106110593414e-2,2.0368454136846258e-2 -2.3620782644615274e-2 1.912773263717922e-2Z" /></g></g><g transform="matrix(100.0,0.0,0.0,100.0,50.0,50.0)"><g stroke="rgb(0,0,0)" stroke-opacity="1.0" fill="rgb(0,0,0)" fill-opacity="1.0" stroke-width="1.0e-2" font-size="1.0em"><path d="M 1.1078157515116782,0.19113366891659603 c -4.827841929277739e-3,1.0843510511754499e-2 -1.753198319114705e-2,1.5720173438195584e-2 -2.8375493702901548e-2 1.0892331508917845e-2c -1.0843510511754499e-2,-4.827841929277738e-3 -1.5720173438195584e-2,-1.753198319114705e-2 -1.0892331508917847e-2 -2.8375493702901544e-2c 4.8278419292777375e-3,-1.0843510511754499e-2 1.7531983191147047e-2,-1.5720173438195584e-2 2.837549370290154e-2 -1.0892331508917847e-2c 1.08435105117545e-2,4.8278419292777375e-3 1.5720173438195584e-2,1.7531983191147047e-2 1.0892331508917849e-2 2.837549370290154e-2Z" /></g></g><g transform="matrix(100.0,0.0,0.0,100.0,50.0,50.0)"><g stroke="rgb(0,0,0)" stroke-opacity="1.0" fill="rgb(0,0,0)" fill-opacity="1.0" stroke-width="1.0e-2" font-size="1.0em"><path d="M 1.1656298134764354,0.1530151145839221 c 8.820906129416358e-3,7.942379553298082e-3 9.533092634525536e-3,2.1531707604441584e-2 1.5907130812274559e-3 3.035261373385794e-2c -7.942379553298082e-3,8.820906129416358e-3 -2.1531707604441584e-2,9.533092634525538e-3 -3.0352613733857937e-2 1.5907130812274576e-3c -8.82090612941636e-3,-7.94237955329808e-3 -9.53309263452554e-3,-2.1531707604441584e-2 -1.5907130812274593e-3 -3.0352613733857937e-2c 7.94237955329808e-3,-8.82090612941636e-3 2.1531707604441584e-2,-9.53309263452554e-3 3.0352613733857933e-2 -1.590713081227461e-3Z" /></g></g><g transform="matrix(100.0,0.0,0.0,100.0,50.0,50.0)"><g stroke="rgb(0,0,0)" stroke-opacity="1.0" fill="rgb(0,0,0)" fill-opacity="1.0" stroke-width="1.0e-2" font-size="1.0em"><path d="M 1.1472424416475513,8.625139312904684e-2 c 1.0279461728829329e-2,-5.934849996264075e-3 2.3423758457185112e-2,-2.412846302826104e-3 2.935860845344919e-2 7.866615426003223e-3c 5.934849996264076e-3,1.0279461728829329e-2 2.412846302826104e-3,2.3423758457185112e-2 -7.86661542600322e-3 2.9358608453449186e-2c -1.0279461728829329e-2,5.934849996264076e-3 -2.3423758457185112e-2,2.412846302826106e-3 -2.9358608453449182e-2 -7.86661542600322e-3c -5.934849996264077e-3,-1.0279461728829327e-2 -2.4128463028261077e-3,-2.3423758457185112e-2 7.866615426003216e-3 -2.9358608453449182e-2Z" /></g></g><g transform="matrix(100.0,0.0,0.0,100.0,50.0,50.0)"><g stroke="rgb(0,0,0)" stroke-opacity="1.0" fill="rgb(89,89,255)" fill-opacity="1.0" stroke-width="0.0" font-size="1.0em"><path d="M 0.8487511368498798,0.16898677799146491 l -6.739575011154152e-3,-6.412277292269175e-2 l 5.890173781772906e-2,-2.6224743290975603e-2 l 4.3142850978945775e-2,4.7914990222628046e-2 l -3.2237989541168896e-2,5.583783581917864e-2 Z" /></g></g><g transform="matrix(100.0,0.0,0.0,100.0,50.0,50.0)"><g stroke="rgb(0,0,0)" stroke-opacity="1.0" fill="rgb(0,0,0)" fill-opacity="1.0" stroke-width="1.0e-2" font-size="1.0em"><path d="M 0.863132087176195,0.18495844139900763 c -8.820906129416349e-3,7.942379553298094e-3 -2.2410234180559853e-2,7.230193048188931e-3 -3.0352613733857947e-2 -1.590713081227416e-3c -7.942379553298094e-3,-8.820906129416349e-3 -7.230193048188932e-3,-2.2410234180559853e-2 1.5907130812274125e-3 -3.0352613733857944e-2c 8.820906129416347e-3,-7.942379553298096e-3 2.2410234180559853e-2,-7.230193048188934e-3 3.035261373385794e-2 1.5907130812274125e-3c 7.942379553298096e-3,8.820906129416347e-3 7.230193048188935e-3,2.2410234180559853e-2 -1.590713081227409e-3 3.035261373385794e-2Z" /></g></g><g transform="matrix(100.0,0.0,0.0,100.0,50.0,50.0)"><g stroke="rgb(0,0,0)" stroke-opacity="1.0" fill="rgb(0,0,0)" fill-opacity="1.0" stroke-width="1.0e-2" font-size="1.0em"><path d="M 0.9314520737001413,0.17365050672261237 c 4.8278419292777505e-3,1.0843510511754495e-2 -4.88209971633187e-5,2.3547651773623814e-2 -1.0892331508917812e-2 2.8375493702901565e-2c -1.0843510511754495e-2,4.827841929277751e-3 -2.3547651773623814e-2,-4.882099716331696e-5 -2.837549370290156e-2 -1.0892331508917809e-2c -4.827841929277752e-3,-1.0843510511754495e-2 4.882099716331523e-5,-2.3547651773623814e-2 1.0892331508917805e-2 -2.837549370290156e-2c 1.0843510511754494e-2,-4.827841929277752e-3 2.3547651773623814e-2,4.882099716331523e-5 2.8375493702901558e-2 1.0892331508917805e-2Z" /></g></g><g transform="matrix(100.0,0.0,0.0,100.0,50.0,50.0)"><g stroke="rgb(0,0,0)" stroke-opacity="1.0" fill="rgb(0,0,0)" fill-opacity="1.0" stroke-width="1.0e-2" font-size="1.0em"><path d="M 0.9418096256316825,0.10517999435952835 c 1.1804676534021867e-2,-1.2407214996670482e-3 2.238006114494826e-2,7.323056103157333e-3 2.362078264461531e-2 1.91277326371792e-2c 1.2407214996670488e-3,1.1804676534021867e-2 -7.323056103157331e-3,2.238006114494826e-2 -1.9127732637179193e-2 2.362078264461531e-2c -1.1804676534021867e-2,1.2407214996670497e-3 -2.238006114494826e-2,-7.3230561031573296e-3 -2.362078264461531e-2 -1.9127732637179193e-2c -1.2407214996670503e-3,-1.1804676534021867e-2 7.3230561031573296e-3,-2.238006114494826e-2 1.9127732637179193e-2 -2.362078264461531e-2Z" /></g></g><g transform="matrix(100.0,0.0,0.0,100.0,50.0,50.0)"><g stroke="rgb(0,0,0)" stroke-opacity="1.0" fill="rgb(0,0,0)" fill-opacity="1.0" stroke-width="1.0e-2" font-size="1.0em"><path d="M 0.8798909582416707,7.417082516841779e-2 c 2.467849394946068e-3,-1.1610318569121474e-2 1.3880459455042233e-2,-1.9021754200350224e-2 2.5490778024163704e-2 -1.6553904805404158e-2c 1.1610318569121474e-2,2.467849394946067e-3 1.9021754200350228e-2,1.388045945504223e-2 1.655390480540416e-2 2.54907780241637e-2c -2.4678493949460666e-3,1.1610318569121474e-2 -1.388045945504223e-2,1.9021754200350228e-2 -2.5490778024163697e-2 1.655390480540416e-2c -1.1610318569121474e-2,-2.4678493949460657e-3 -1.9021754200350228e-2,-1.3880459455042229e-2 -1.655390480540416e-2 -2.5490778024163697e-2Z" /></g></g><g transform="matrix(100.0,0.0,0.0,100.0,50.0,50.0)"><g stroke="rgb(0,0,0)" stroke-opacity="1.0" fill="rgb(0,0,0)" fill-opacity="1.0" stroke-width="1.0e-2" font-size="1.0em"><path d="M 0.8312655653250026,0.12347661700849938 c -1.0279461728829334e-2,-5.934849996264068e-3 -1.380146542226732e-2,-1.907914672461985e-2 -7.866615426003252e-3 -2.9358608453449182e-2c 5.934849996264067e-3,-1.0279461728829334e-2 1.907914672461985e-2,-1.380146542226732e-2 2.935860845344918e-2 -7.866615426003254e-3c 1.0279461728829334e-2,5.934849996264067e-3 1.380146542226732e-2,1.907914672461985e-2 7.866615426003256e-3 2.935860845344918e-2c -5.934849996264066e-3,1.0279461728829336e-2 -1.907914672461985e-2,1.380146542226732e-2 -2.9358608453449175e-2 7.866615426003256e-3Z" /></g></g><g transform="matrix(100.0,0.0,0.0,100.0,50.0,50.0)"><g stroke="rgb(0,0,0)" stroke-opacity="1.0" fill="rgb(89,89,255)" fill-opacity="1.0" stroke-width="0.0" font-size="1.0em"><path d="M 1.052162162806575,0.3406099773408379 l -5.216216280657493e-2,3.7898029631716144e-2 l -5.216216280657491e-2,-3.789802963171616e-2 l 1.9924173265406013e-2,-6.13203000507674e-2 h 6.447597908233782e-2 Z" /></g></g><g transform="matrix(100.0,0.0,0.0,100.0,50.0,50.0)"><g stroke="rgb(0,0,0)" stroke-opacity="1.0" fill="rgb(0,0,0)" fill-opacity="1.0" stroke-width="1.0e-2" font-size="1.0em"><path d="M 1.0588035538950435,0.3201698773239154 c 1.128875552436242e-2,3.667939015823378e-3 1.746664794427718e-2,1.5792735581028707e-2 1.3798708928453803e-2 2.708149110539113e-2c -3.667939015823377e-3,1.128875552436242e-2 -1.5792735581028707e-2,1.746664794427718e-2 -2.7081491105391126e-2 1.3798708928453803e-2c -1.128875552436242e-2,-3.6679390158233767e-3 -1.746664794427718e-2,-1.5792735581028707e-2 -1.3798708928453803e-2 -2.7081491105391122e-2c 3.667939015823376e-3,-1.128875552436242e-2 1.5792735581028703e-2,-1.746664794427718e-2 2.7081491105391122e-2 -1.3798708928453803e-2Z" /></g></g><g transform="matrix(100.0,0.0,0.0,100.0,50.0,50.0)"><g stroke="rgb(0,0,0)" stroke-opacity="1.0" fill="rgb(0,0,0)" fill-opacity="1.0" stroke-width="1.0e-2" font-size="1.0em"><path d="M 1.0148506019389771,0.2666570007461651 c 6.976834604744116e-3,-9.602789012087451e-3 2.0417275134009573e-2,-1.173154566303038e-2 3.0020064146097022e-2 -4.7547110582862664e-3c 9.602789012087451e-3,6.976834604744115e-3 1.173154566303038e-2,2.0417275134009573e-2 4.7547110582862664e-3 3.002006414609702e-2c -6.976834604744115e-3,9.602789012087451e-3 -2.041727513400957e-2,1.1731545663030382e-2 -3.002006414609702e-2 4.754711058286268e-3c -9.602789012087453e-3,-6.9768346047441145e-3 -1.1731545663030384e-2,-2.041727513400957e-2 -4.75471105828627e-3 -3.0020064146097016e-2Z" /></g></g><g transform="matrix(100.0,0.0,0.0,100.0,50.0,50.0)"><g stroke="rgb(0,0,0)" stroke-opacity="1.0" fill="rgb(0,0,0)" fill-opacity="1.0" stroke-width="1.0e-2" font-size="1.0em"><path d="M 0.9503746228566395,0.29192235383397586 c -6.97683460474412e-3,-9.60278901208745e-3 -4.8480779538012e-3,-2.304322954135291e-2 4.754711058286249e-3 -3.0020064146097026e-2c 9.60278901208745e-3,-6.9768346047441206e-3 2.3043229541352905e-2,-4.8480779538012005e-3 3.0020064146097026e-2 4.754711058286246e-3c 6.9768346047441206e-3,9.60278901208745e-3 4.848077953801201e-3,2.3043229541352905e-2 -4.754711058286246e-3 3.0020064146097022e-2c -9.602789012087448e-3,6.976834604744121e-3 -2.3043229541352905e-2,4.848077953801202e-3 -3.0020064146097022e-2 -4.754711058286242e-3Z" /></g></g><g transform="matrix(100.0,0.0,0.0,100.0,50.0,50.0)"><g stroke="rgb(0,0,0)" stroke-opacity="1.0" fill="rgb(0,0,0)" fill-opacity="1.0" stroke-width="1.0e-2" font-size="1.0em"><path d="M 0.9544792282818937,0.3610500773577604 c -1.1288755524362423e-2,3.6679390158233824e-3 -2.341355208956776e-2,-2.5099534040913703e-3 -2.708149110539114e-2 -1.3798708928453793e-2c -3.6679390158233832e-3,-1.1288755524362423e-2 2.5099534040913703e-3,-2.341355208956776e-2 1.379870892845379e-2 -2.708149110539114e-2c 1.1288755524362423e-2,-3.6679390158233837e-3 2.341355208956776e-2,2.5099534040913685e-3 2.708149110539114e-2 1.3798708928453786e-2c 3.6679390158233845e-3,1.1288755524362423e-2 -2.509953404091367e-3,2.341355208956776e-2 -1.3798708928453786e-2 2.708149110539114e-2Z" /></g></g><g transform="matrix(100.0,0.0,0.0,100.0,50.0,50.0)"><g stroke="rgb(0,0,0)" stroke-opacity="1.0" fill="rgb(0,0,0)" fill-opacity="1.0" stroke-width="1.0e-2" font-size="1.0em"><path d="M 1.021491993027446,0.37850800697255405 c 0.0,1.1869699992528142e-2 -9.622293034917802e-3,2.1491993027445946e-2 -2.1491993027445942e-2 2.1491993027445946e-2c -1.1869699992528142e-2,7.268095051344475e-19 -2.1491993027445946e-2,-9.6222930349178e-3 -2.1491993027445946e-2 -2.149199302744594e-2c -1.453619010268895e-18,-1.1869699992528142e-2 9.6222930349178e-3,-2.1491993027445946e-2 2.1491993027445935e-2 -2.1491993027445946e-2c 1.1869699992528142e-2,-2.1804285154033426e-18 2.1491993027445946e-2,9.622293034917798e-3 2.1491993027445946e-2 2.1491993027445935e-2Z" /></g></g><g transform="matrix(100.0,0.0,0.0,100.0,50.0,50.0)"><g stroke="rgb(0,0,0)" stroke-opacity="1.0" fill="rgb(0,0,0)" fill-opacity="0.0" stroke-width="1.0e-2" font-size="1.0em"></g></g><g transform="matrix(100.0,0.0,0.0,100.0,50.0,50.0)"><g stroke="rgb(0,0,0)" stroke-opacity="1.0" fill="rgb(255,255,89)" fill-opacity="1.0" stroke-width="0.0" font-size="1.0em"><path d="M 1.1104899379850617,-0.13228727693161307 l -0.11048993798506161,-0.19137418631526104 l -0.11048993798506161,0.19137418631526104 Z" /></g></g><g transform="matrix(100.0,0.0,0.0,100.0,50.0,50.0)"><g stroke="rgb(0,0,0)" stroke-opacity="1.0" fill="rgb(89,89,255)" fill-opacity="1.0" stroke-width="0.0" font-size="1.0em"><path d="M 1.0990867003435452,-7.863926177779748e-2 l 5.890173781772907e-2,-2.6224743290975572e-2 l -6.73957501115412e-3,-6.412277292269175e-2 l -6.306702424435176e-2,-1.3405309828139374e-2 l -3.223798954116894e-2,5.583783581917861e-2 Z" /></g></g><g transform="matrix(100.0,0.0,0.0,100.0,50.0,50.0)"><g stroke="rgb(0,0,0)" stroke-opacity="1.0" fill="rgb(0,0,0)" fill-opacity="1.0" stroke-width="1.0e-2" font-size="1.0em"><path d="M 1.0780643589287613,-8.31076983871773e-2 c -2.4678493949460796e-3,1.1610318569121467e-2 4.9435862362826564e-3,2.3022928629217638e-2 1.6553904805404123e-2 2.549077802416372e-2c 1.1610318569121467e-2,2.4678493949460804e-3 2.3022928629217638e-2,-4.9435862362826564e-3 2.549077802416372e-2 -1.655390480540412e-2c 2.467849394946081e-3,-1.1610318569121467e-2 -4.943586236282655e-3,-2.3022928629217638e-2 -1.6553904805404116e-2 -2.549077802416372e-2c -1.1610318569121467e-2,-2.4678493949460817e-3 -2.3022928629217638e-2,4.943586236282653e-3 -2.5490778024163715e-2 1.6553904805404116e-2Z" /></g></g><g transform="matrix(100.0,0.0,0.0,100.0,50.0,50.0)"><g stroke="rgb(0,0,0)" stroke-opacity="1.0" fill="rgb(0,0,0)" fill-opacity="1.0" stroke-width="1.0e-2" font-size="1.0em"><path d="M 1.0536973243608814,-0.14792850964132284 c -1.1804676534021865e-2,1.2407214996670356e-3 -2.0368454136846258e-2,1.1816106110593418e-2 -1.912773263717922e-2 2.362078264461528e-2c 1.240721499667035e-3,1.1804676534021865e-2 1.1816106110593416e-2,2.0368454136846258e-2 2.3620782644615278e-2 1.912773263717922e-2c 1.1804676534021865e-2,-1.240721499667034e-3 2.0368454136846258e-2,-1.1816106110593414e-2 1.912773263717922e-2 -2.3620782644615274e-2c -1.2407214996670334e-3,-1.1804676534021865e-2 -1.1816106110593414e-2,-2.0368454136846258e-2 -2.3620782644615274e-2 -1.912773263717922e-2Z" /></g></g><g transform="matrix(100.0,0.0,0.0,100.0,50.0,50.0)"><g stroke="rgb(0,0,0)" stroke-opacity="1.0" fill="rgb(0,0,0)" fill-opacity="1.0" stroke-width="1.0e-2" font-size="1.0em"><path d="M 1.1078157515116782,-0.19113366891659603 c -4.827841929277739e-3,-1.0843510511754499e-2 -1.753198319114705e-2,-1.5720173438195584e-2 -2.8375493702901548e-2 -1.0892331508917845e-2c -1.0843510511754499e-2,4.827841929277738e-3 -1.5720173438195584e-2,1.753198319114705e-2 -1.0892331508917847e-2 2.8375493702901544e-2c 4.8278419292777375e-3,1.0843510511754499e-2 1.7531983191147047e-2,1.5720173438195584e-2 2.837549370290154e-2 1.0892331508917847e-2c 1.08435105117545e-2,-4.8278419292777375e-3 1.5720173438195584e-2,-1.7531983191147047e-2 1.0892331508917849e-2 -2.837549370290154e-2Z" /></g></g><g transform="matrix(100.0,0.0,0.0,100.0,50.0,50.0)"><g stroke="rgb(0,0,0)" stroke-opacity="1.0" fill="rgb(0,0,0)" fill-opacity="1.0" stroke-width="1.0e-2" font-size="1.0em"><path d="M 1.1656298134764354,-0.1530151145839221 c 8.820906129416358e-3,-7.942379553298082e-3 9.533092634525536e-3,-2.1531707604441584e-2 1.5907130812274559e-3 -3.035261373385794e-2c -7.942379553298082e-3,-8.820906129416358e-3 -2.1531707604441584e-2,-9.533092634525538e-3 -3.0352613733857937e-2 -1.5907130812274576e-3c -8.82090612941636e-3,7.94237955329808e-3 -9.53309263452554e-3,2.1531707604441584e-2 -1.5907130812274593e-3 3.0352613733857937e-2c 7.94237955329808e-3,8.82090612941636e-3 2.1531707604441584e-2,9.53309263452554e-3 3.0352613733857933e-2 1.590713081227461e-3Z" /></g></g><g transform="matrix(100.0,0.0,0.0,100.0,50.0,50.0)"><g stroke="rgb(0,0,0)" stroke-opacity="1.0" fill="rgb(0,0,0)" fill-opacity="1.0" stroke-width="1.0e-2" font-size="1.0em"><path d="M 1.1472424416475513,-8.625139312904684e-2 c 1.0279461728829329e-2,5.934849996264075e-3 2.3423758457185112e-2,2.412846302826104e-3 2.935860845344919e-2 -7.866615426003223e-3c 5.934849996264076e-3,-1.0279461728829329e-2 2.412846302826104e-3,-2.3423758457185112e-2 -7.86661542600322e-3 -2.9358608453449186e-2c -1.0279461728829329e-2,-5.934849996264076e-3 -2.3423758457185112e-2,-2.412846302826106e-3 -2.9358608453449182e-2 7.86661542600322e-3c -5.934849996264077e-3,1.0279461728829327e-2 -2.4128463028261077e-3,2.3423758457185112e-2 7.866615426003216e-3 2.9358608453449182e-2Z" /></g></g><g transform="matrix(100.0,0.0,0.0,100.0,50.0,50.0)"><g stroke="rgb(0,0,0)" stroke-opacity="1.0" fill="rgb(89,89,255)" fill-opacity="1.0" stroke-width="0.0" font-size="1.0em"><path d="M 0.8487511368498798,-0.16898677799146491 l -6.739575011154152e-3,6.412277292269175e-2 l 5.890173781772906e-2,2.6224743290975603e-2 l 4.3142850978945775e-2,-4.7914990222628046e-2 l -3.2237989541168896e-2,-5.583783581917864e-2 Z" /></g></g><g transform="matrix(100.0,0.0,0.0,100.0,50.0,50.0)"><g stroke="rgb(0,0,0)" stroke-opacity="1.0" fill="rgb(0,0,0)" fill-opacity="1.0" stroke-width="1.0e-2" font-size="1.0em"><path d="M 0.863132087176195,-0.18495844139900763 c -8.820906129416349e-3,-7.942379553298094e-3 -2.2410234180559853e-2,-7.230193048188931e-3 -3.0352613733857947e-2 1.590713081227416e-3c -7.942379553298094e-3,8.820906129416349e-3 -7.230193048188932e-3,2.2410234180559853e-2 1.5907130812274125e-3 3.0352613733857944e-2c 8.820906129416347e-3,7.942379553298096e-3 2.2410234180559853e-2,7.230193048188934e-3 3.035261373385794e-2 -1.5907130812274125e-3c 7.942379553298096e-3,-8.820906129416347e-3 7.230193048188935e-3,-2.2410234180559853e-2 -1.590713081227409e-3 -3.035261373385794e-2Z" /></g></g><g transform="matrix(100.0,0.0,0.0,100.0,50.0,50.0)"><g stroke="rgb(0,0,0)" stroke-opacity="1.0" fill="rgb(0,0,0)" fill-opacity="1.0" stroke-width="1.0e-2" font-size="1.0em"><path d="M 0.9314520737001413,-0.17365050672261237 c 4.8278419292777505e-3,-1.0843510511754495e-2 -4.88209971633187e-5,-2.3547651773623814e-2 -1.0892331508917812e-2 -2.8375493702901565e-2c -1.0843510511754495e-2,-4.827841929277751e-3 -2.3547651773623814e-2,4.882099716331696e-5 -2.837549370290156e-2 1.0892331508917809e-2c -4.827841929277752e-3,1.0843510511754495e-2 4.882099716331523e-5,2.3547651773623814e-2 1.0892331508917805e-2 2.837549370290156e-2c 1.0843510511754494e-2,4.827841929277752e-3 2.3547651773623814e-2,-4.882099716331523e-5 2.8375493702901558e-2 -1.0892331508917805e-2Z" /></g></g><g transform="matrix(100.0,0.0,0.0,100.0,50.0,50.0)"><g stroke="rgb(0,0,0)" stroke-opacity="1.0" fill="rgb(0,0,0)" fill-opacity="1.0" stroke-width="1.0e-2" font-size="1.0em"><path d="M 0.9418096256316825,-0.10517999435952835 c 1.1804676534021867e-2,1.2407214996670482e-3 2.238006114494826e-2,-7.323056103157333e-3 2.362078264461531e-2 -1.91277326371792e-2c 1.2407214996670488e-3,-1.1804676534021867e-2 -7.323056103157331e-3,-2.238006114494826e-2 -1.9127732637179193e-2 -2.362078264461531e-2c -1.1804676534021867e-2,-1.2407214996670497e-3 -2.238006114494826e-2,7.3230561031573296e-3 -2.362078264461531e-2 1.9127732637179193e-2c -1.2407214996670503e-3,1.1804676534021867e-2 7.3230561031573296e-3,2.238006114494826e-2 1.9127732637179193e-2 2.362078264461531e-2Z" /></g></g><g transform="matrix(100.0,0.0,0.0,100.0,50.0,50.0)"><g stroke="rgb(0,0,0)" stroke-opacity="1.0" fill="rgb(0,0,0)" fill-opacity="1.0" stroke-width="1.0e-2" font-size="1.0em"><path d="M 0.8798909582416707,-7.417082516841779e-2 c 2.467849394946068e-3,1.1610318569121474e-2 1.3880459455042233e-2,1.9021754200350224e-2 2.5490778024163704e-2 1.6553904805404158e-2c 1.1610318569121474e-2,-2.467849394946067e-3 1.9021754200350228e-2,-1.388045945504223e-2 1.655390480540416e-2 -2.54907780241637e-2c -2.4678493949460666e-3,-1.1610318569121474e-2 -1.388045945504223e-2,-1.9021754200350228e-2 -2.5490778024163697e-2 -1.655390480540416e-2c -1.1610318569121474e-2,2.4678493949460657e-3 -1.9021754200350228e-2,1.3880459455042229e-2 -1.655390480540416e-2 2.5490778024163697e-2Z" /></g></g><g transform="matrix(100.0,0.0,0.0,100.0,50.0,50.0)"><g stroke="rgb(0,0,0)" stroke-opacity="1.0" fill="rgb(0,0,0)" fill-opacity="1.0" stroke-width="1.0e-2" font-size="1.0em"><path d="M 0.8312655653250026,-0.12347661700849938 c -1.0279461728829334e-2,5.934849996264068e-3 -1.380146542226732e-2,1.907914672461985e-2 -7.866615426003252e-3 2.9358608453449182e-2c 5.934849996264067e-3,1.0279461728829334e-2 1.907914672461985e-2,1.380146542226732e-2 2.935860845344918e-2 7.866615426003254e-3c 1.0279461728829334e-2,-5.934849996264067e-3 1.380146542226732e-2,-1.907914672461985e-2 7.866615426003256e-3 -2.935860845344918e-2c -5.934849996264066e-3,-1.0279461728829336e-2 -1.907914672461985e-2,-1.380146542226732e-2 -2.9358608453449175e-2 -7.866615426003256e-3Z" /></g></g><g transform="matrix(100.0,0.0,0.0,100.0,50.0,50.0)"><g stroke="rgb(0,0,0)" stroke-opacity="1.0" fill="rgb(89,89,255)" fill-opacity="1.0" stroke-width="0.0" font-size="1.0em"><path d="M 1.052162162806575,-0.3406099773408379 l -5.216216280657493e-2,-3.7898029631716144e-2 l -5.216216280657491e-2,3.789802963171616e-2 l 1.9924173265406013e-2,6.13203000507674e-2 h 6.447597908233782e-2 Z" /></g></g><g transform="matrix(100.0,0.0,0.0,100.0,50.0,50.0)"><g stroke="rgb(0,0,0)" stroke-opacity="1.0" fill="rgb(0,0,0)" fill-opacity="1.0" stroke-width="1.0e-2" font-size="1.0em"><path d="M 1.0588035538950435,-0.3201698773239154 c 1.128875552436242e-2,-3.667939015823378e-3 1.746664794427718e-2,-1.5792735581028707e-2 1.3798708928453803e-2 -2.708149110539113e-2c -3.667939015823377e-3,-1.128875552436242e-2 -1.5792735581028707e-2,-1.746664794427718e-2 -2.7081491105391126e-2 -1.3798708928453803e-2c -1.128875552436242e-2,3.6679390158233767e-3 -1.746664794427718e-2,1.5792735581028707e-2 -1.3798708928453803e-2 2.7081491105391122e-2c 3.667939015823376e-3,1.128875552436242e-2 1.5792735581028703e-2,1.746664794427718e-2 2.7081491105391122e-2 1.3798708928453803e-2Z" /></g></g><g transform="matrix(100.0,0.0,0.0,100.0,50.0,50.0)"><g stroke="rgb(0,0,0)" stroke-opacity="1.0" fill="rgb(0,0,0)" fill-opacity="1.0" stroke-width="1.0e-2" font-size="1.0em"><path d="M 1.0148506019389771,-0.2666570007461651 c 6.976834604744116e-3,9.602789012087451e-3 2.0417275134009573e-2,1.173154566303038e-2 3.0020064146097022e-2 4.7547110582862664e-3c 9.602789012087451e-3,-6.976834604744115e-3 1.173154566303038e-2,-2.0417275134009573e-2 4.7547110582862664e-3 -3.002006414609702e-2c -6.976834604744115e-3,-9.602789012087451e-3 -2.041727513400957e-2,-1.1731545663030382e-2 -3.002006414609702e-2 -4.754711058286268e-3c -9.602789012087453e-3,6.9768346047441145e-3 -1.1731545663030384e-2,2.041727513400957e-2 -4.75471105828627e-3 3.0020064146097016e-2Z" /></g></g><g transform="matrix(100.0,0.0,0.0,100.0,50.0,50.0)"><g stroke="rgb(0,0,0)" stroke-opacity="1.0" fill="rgb(0,0,0)" fill-opacity="1.0" stroke-width="1.0e-2" font-size="1.0em"><path d="M 0.9503746228566395,-0.29192235383397586 c -6.97683460474412e-3,9.60278901208745e-3 -4.8480779538012e-3,2.304322954135291e-2 4.754711058286249e-3 3.0020064146097026e-2c 9.60278901208745e-3,6.9768346047441206e-3 2.3043229541352905e-2,4.8480779538012005e-3 3.0020064146097026e-2 -4.754711058286246e-3c 6.9768346047441206e-3,-9.60278901208745e-3 4.848077953801201e-3,-2.3043229541352905e-2 -4.754711058286246e-3 -3.0020064146097022e-2c -9.602789012087448e-3,-6.976834604744121e-3 -2.3043229541352905e-2,-4.848077953801202e-3 -3.0020064146097022e-2 4.754711058286242e-3Z" /></g></g><g transform="matrix(100.0,0.0,0.0,100.0,50.0,50.0)"><g stroke="rgb(0,0,0)" stroke-opacity="1.0" fill="rgb(0,0,0)" fill-opacity="1.0" stroke-width="1.0e-2" font-size="1.0em"><path d="M 0.9544792282818937,-0.3610500773577604 c -1.1288755524362423e-2,-3.6679390158233824e-3 -2.341355208956776e-2,2.5099534040913703e-3 -2.708149110539114e-2 1.3798708928453793e-2c -3.6679390158233832e-3,1.1288755524362423e-2 2.5099534040913703e-3,2.341355208956776e-2 1.379870892845379e-2 2.708149110539114e-2c 1.1288755524362423e-2,3.6679390158233837e-3 2.341355208956776e-2,-2.5099534040913685e-3 2.708149110539114e-2 -1.3798708928453786e-2c 3.6679390158233845e-3,-1.1288755524362423e-2 -2.509953404091367e-3,-2.341355208956776e-2 -1.3798708928453786e-2 -2.708149110539114e-2Z" /></g></g><g transform="matrix(100.0,0.0,0.0,100.0,50.0,50.0)"><g stroke="rgb(0,0,0)" stroke-opacity="1.0" fill="rgb(0,0,0)" fill-opacity="1.0" stroke-width="1.0e-2" font-size="1.0em"><path d="M 1.021491993027446,-0.37850800697255405 c 0.0,-1.1869699992528142e-2 -9.622293034917802e-3,-2.1491993027445946e-2 -2.1491993027445942e-2 -2.1491993027445946e-2c -1.1869699992528142e-2,-7.268095051344475e-19 -2.1491993027445946e-2,9.6222930349178e-3 -2.1491993027445946e-2 2.149199302744594e-2c -1.453619010268895e-18,1.1869699992528142e-2 9.6222930349178e-3,2.1491993027445946e-2 2.1491993027445935e-2 2.1491993027445946e-2c 1.1869699992528142e-2,2.1804285154033426e-18 2.1491993027445946e-2,-9.622293034917798e-3 2.1491993027445946e-2 -2.1491993027445935e-2Z" /></g></g><g transform="matrix(100.0,0.0,0.0,100.0,50.0,50.0)"><g stroke="rgb(0,0,0)" stroke-opacity="1.0" fill="rgb(0,0,0)" fill-opacity="0.0" stroke-width="1.0e-2" font-size="1.0em"><path d="M 0.5000000000000001,0.5 l -1.1102230246251565e-16,-1.0 h -1.0 l -1.1102230246251565e-16,1.0 Z" /></g></g><g transform="matrix(100.0,0.0,0.0,100.0,50.0,50.0)"><g stroke="rgb(0,0,0)" stroke-opacity="1.0" fill="rgb(0,0,0)" fill-opacity="0.0" stroke-width="1.0e-2" font-size="1.0em"><path d="M 0.4,5.684341886080803e-17 c 0.0,-0.22091389993231741 -0.1790861000676826,-0.4000000000000001 -0.39999999999999997 -0.4000000000000001c -0.22091389993231741,-1.352707502196356e-17 -0.4000000000000001,0.17908610006768258 -0.4000000000000001 0.39999999999999997c -2.705415004392712e-17,0.22091389993231741 0.17908610006768255,0.4000000000000001 0.3999999999999999 0.4000000000000001c 0.22091389993231741,4.058122506589068e-17 0.4000000000000001,-0.17908610006768255 0.4000000000000001 -0.39999999999999986Z" /></g></g></g></svg>