<?xml version="1.0" encoding="UTF-8"?>
<!DOCTYPE svg PUBLIC "-//W3C//DTD SVG 1.1//EN"
    "http://www.w3.org/Graphics/SVG/1.1/DTD/svg11.dtd">
<svg xmlns="http://www.w3.org/2000/svg" xmlns:xlink="http://www.w3.org/1999/xlink" version="1.1" width="88.71119695091163" height="200.0" font-size="1" viewBox="0 0 89 200"><g><g transform="matrix(3.27066542773286,0.0,0.0,3.27066542773286,44.355598475455814,100.0)"><g stroke="rgb(0,0,0)" stroke-opacity="1.0" fill="rgb(89,89,255)" fill-opacity="1.0" stroke-width="0.0" font-size="1.0em"><path d="M 9.70820393249937,19.52139491384038 l -9.70820393249937,7.053423027509675 l -9.708203932499368,-7.053423027509678 l 3.7082039324993694,-11.41267819554184 l 12.0,-1.7763568394002505e-15 Z" /></g></g><g transform="matrix(3.27066542773286,0.0,0.0,3.27066542773286,44.355598475455814,100.0)"><g stroke="rgb(0,0,0)" stroke-opacity="1.0" fill="rgb(148,148,148)" fill-opacity="1.0" stroke-width="0.0" font-size="1.0em"><path d="M 10.635254915624214,16.668225364954914 l 2.007391819076574,2.2294344764321834 l -0.9270509831248436,2.8531695488854605 l -2.9344428022014175,0.6237350724532771 l -2.0073918190765734,-2.2294344764321825 l 0.9270509831248416,-2.85316954888546 Z" /></g></g><g transform="matrix(3.27066542773286,0.0,0.0,3.27066542773286,44.355598475455814,100.0)"><g stroke="rgb(0,0,0)" stroke-opacity="1.0" fill="rgb(0,0,0)" fill-opacity="1.0" stroke-width="1.0e-2" font-size="1.0em"><path d="M 11.268507802572694,16.770858269286403 c 0.41042755402683123,-0.3695506295370295 1.0427248022992233,-0.33641333490829617 1.4122754318362527 7.401421911853501e-2c 0.3695506295370295,0.41042755402683123 0.3364133349082962,1.0427248022992233 -7.40142191185349e-2 1.4122754318362527c -0.4104275540268312,0.36955062953702955 -1.0427248022992233,0.3364133349082963 -1.4122754318362527 -7.401421911853479e-2c -0.36955062953702955,-0.4104275540268312 -0.3364133349082963,-1.0427248022992233 7.401421911853467e-2 -1.4122754318362527Z" /></g></g><g transform="matrix(3.27066542773286,0.0,0.0,3.27066542773286,44.355598475455814,100.0)"><g stroke="rgb(0,0,0)" stroke-opacity="1.0" fill="rgb(0,0,0)" fill-opacity="1.0" stroke-width="1.0e-2" font-size="1.0em"><path d="M 8.106321259312285,16.794863802456717 c -0.1148264561501838,-0.5402160029688607 0.230019906947185,-1.0712328354013818 0.7702359099160456 -1.1860592915515658c 0.5402160029688607,-0.11482645615018383 1.0712328354013818,0.23001990694718494 1.1860592915515658 0.7702359099160456c 0.11482645615018387,0.5402160029688607 -0.23001990694718488,1.0712328354013818 -0.7702359099160454 1.1860592915515655c -0.5402160029688607,0.1148264561501839 -1.0712328354013818,-0.23001990694718488 -1.1860592915515655 -0.7702359099160454Z" /></g></g><g transform="matrix(3.27066542773286,0.0,0.0,3.27066542773286,44.355598475455814,100.0)"><g stroke="rgb(0,0,0)" stroke-opacity="1.0" fill="rgb(0,0,0)" fill-opacity="1.0" stroke-width="1.0e-2" font-size="1.0em"><path d="M 6.546017389238962,19.54540044701069 c -0.525254010177015,-0.17066537343183139 -0.8127048953520382,-0.7348195004930859 -0.6420395219202069 -1.2600735106701006c 0.17066537343183136,-0.525254010177015 0.7348195004930858,-0.8127048953520382 1.2600735106701006 -0.6420395219202069c 0.525254010177015,0.17066537343183133 0.8127048953520382,0.7348195004930858 0.6420395219202069 1.2600735106701006c -0.1706653734318313,0.525254010177015 -0.7348195004930858,0.8127048953520382 -1.2600735106701004 0.6420395219202069Z" /></g></g><g transform="matrix(3.27066542773286,0.0,0.0,3.27066542773286,44.355598475455814,100.0)"><g stroke="rgb(0,0,0)" stroke-opacity="1.0" fill="rgb(0,0,0)" fill-opacity="1.0" stroke-width="1.0e-2" font-size="1.0em"><path d="M 8.147900062426048,22.271931558394343 c -0.4104275540268313,0.36955062953702933 -1.0427248022992233,0.3364133349082958 -1.4122754318362527 -7.401421911853545e-2c -0.36955062953702933,-0.4104275540268313 -0.33641333490829584,-1.0427248022992233 7.401421911853534e-2 -1.4122754318362525c 0.41042755402683123,-0.3695506295370294 1.0427248022992233,-0.3364133349082959 1.4122754318362523 7.401421911853523e-2c 0.3695506295370294,0.41042755402683123 0.33641333490829595,1.0427248022992233 -7.401421911853512e-2 1.4122754318362523Z" /></g></g><g transform="matrix(3.27066542773286,0.0,0.0,3.27066542773286,44.355598475455814,100.0)"><g stroke="rgb(0,0,0)" stroke-opacity="1.0" fill="rgb(0,0,0)" fill-opacity="1.0" stroke-width="1.0e-2" font-size="1.0em"><path d="M 11.310086605686456,22.247926025224032 c 0.11482645615018365,0.5402160029688607 -0.23001990694718527,1.0712328354013816 -0.7702359099160458 1.1860592915515653c -0.5402160029688607,0.11482645615018368 -1.0712328354013816,-0.23001990694718522 -1.1860592915515653 -0.7702359099160457c -0.11482645615018372,-0.5402160029688607 0.23001990694718516,-1.0712328354013816 0.7702359099160456 -1.1860592915515653c 0.5402160029688607,-0.11482645615018375 1.0712328354013816,0.2300199069471851 1.1860592915515653 0.7702359099160455Z" /></g></g><g transform="matrix(3.27066542773286,0.0,0.0,3.27066542773286,44.355598475455814,100.0)"><g stroke="rgb(0,0,0)" stroke-opacity="1.0" fill="rgb(0,0,0)" fill-opacity="1.0" stroke-width="1.0e-2" font-size="1.0em"><path d="M 12.870390475759779,19.497389380670064 c 0.5252540101770149,0.17066537343183147 0.8127048953520378,0.734819500493086 0.6420395219202064 1.2600735106701006c -0.17066537343183144,0.5252540101770149 -0.734819500493086,0.8127048953520379 -1.2600735106701006 0.6420395219202064c -0.5252540101770149,-0.1706653734318314 -0.8127048953520379,-0.7348195004930859 -0.6420395219202064 -1.2600735106701004c 0.17066537343183139,-0.5252540101770149 0.7348195004930858,-0.8127048953520379 1.2600735106701004 -0.6420395219202065Z" /></g></g><g transform="matrix(3.27066542773286,0.0,0.0,3.27066542773286,44.355598475455814,100.0)"><g stroke="rgb(0,0,0)" stroke-opacity="1.0" fill="rgb(148,148,148)" fill-opacity="1.0" stroke-width="0.0" font-size="1.0em"><path d="M 3.572949016875159,6.345360961421114 l 2.740636372927803,-1.2202099292273991 l 2.4270509831248415,1.7633557568774205 l -0.31358538980296147,2.9835656861048205 l -2.740636372927802,1.2202099292273993 l -2.4270509831248415,-1.7633557568774185 Z" /></g></g><g transform="matrix(3.27066542773286,0.0,0.0,3.27066542773286,44.355598475455814,100.0)"><g stroke="rgb(0,0,0)" stroke-opacity="1.0" fill="rgb(0,0,0)" fill-opacity="1.0" stroke-width="1.0e-2" font-size="1.0em"><path d="M 3.866244613129997,5.774816988446533 c -0.22463444516813538,-0.5045372245332015 2.2715900335983363e-3,-1.095647655550266 0.5068088145667997 -1.3202821007184014c 0.5045372245332015,-0.2246344451681354 1.095647655550266,2.2715900335983363e-3 1.3202821007184014 0.5068088145667996c 0.22463444516813544,0.5045372245332015 -2.271590033598281e-3,1.095647655550266 -0.5068088145667995 1.3202821007184014c -0.5045372245332015,0.22463444516813547 -1.095647655550266,-2.2715900335982253e-3 -1.3202821007184014 -0.5068088145667994Z" /></g></g><g transform="matrix(3.27066542773286,0.0,0.0,3.27066542773286,44.355598475455814,100.0)"><g stroke="rgb(0,0,0)" stroke-opacity="1.0" fill="rgb(0,0,0)" fill-opacity="1.0" stroke-width="1.0e-2" font-size="1.0em"><path d="M 2.911905850627527,8.78965322386385 c -0.5492592761847134,-5.7729476185973e-2 -0.9477229082865934,-0.5497910824512129 -0.8899934321006204 -1.0990503586359262c 5.772947618597297e-2,-0.5492592761847134 0.5497910824512128,-0.9477229082865934 1.099050358635926 -0.8899934321006204c 0.5492592761847134,5.772947618597293e-2 0.9477229082865934,0.5497910824512127 0.8899934321006204 1.099050358635926c -5.77294761859729e-2,0.5492592761847134 -0.5497910824512127,0.9477229082865934 -1.099050358635926 0.8899934321006204Z" /></g></g><g transform="matrix(3.27066542773286,0.0,0.0,3.27066542773286,44.355598475455814,100.0)"><g stroke="rgb(0,0,0)" stroke-opacity="1.0" fill="rgb(0,0,0)" fill-opacity="1.0" stroke-width="1.0e-2" font-size="1.0em"><path d="M 5.045661237497529,11.123552953715851 c -0.32462483101657813,0.4468077483472284 -0.949994498320192,0.5458565730990531 -1.3968022466674204 0.22123174208247498c -0.4468077483472284,-0.32462483101657813 -0.5458565730990531,-0.949994498320192 -0.2212317420824751 -1.3968022466674204c 0.3246248310165781,-0.4468077483472285 0.9499944983201919,-0.5458565730990532 1.3968022466674201 -0.2212317420824751c 0.4468077483472285,0.3246248310165781 0.5458565730990532,0.9499944983201918 0.2212317420824752 1.39680224666742Z" /></g></g><g transform="matrix(3.27066542773286,0.0,0.0,3.27066542773286,44.355598475455814,100.0)"><g stroke="rgb(0,0,0)" stroke-opacity="1.0" fill="rgb(0,0,0)" fill-opacity="1.0" stroke-width="1.0e-2" font-size="1.0em"><path d="M 8.133755386870002,10.442616448150536 c 0.22463444516813524,0.5045372245332015 -2.271590033598614e-3,1.095647655550266 -0.5068088145667999 1.3202821007184011c -0.5045372245332015,0.22463444516813527 -1.095647655550266,-2.271590033598614e-3 -1.3202821007184011 -0.5068088145667999c -0.2246344451681353,-0.5045372245332015 2.2715900335985584e-3,-1.0956476555502659 0.5068088145667997 -1.3202821007184011c 0.5045372245332015,-0.22463444516813533 1.0956476555502659,2.271590033598503e-3 1.3202821007184011 0.5068088145667997Z" /></g></g><g transform="matrix(3.27066542773286,0.0,0.0,3.27066542773286,44.355598475455814,100.0)"><g stroke="rgb(0,0,0)" stroke-opacity="1.0" fill="rgb(0,0,0)" fill-opacity="1.0" stroke-width="1.0e-2" font-size="1.0em"><path d="M 9.088094149372473,7.427780212733221 c 0.5492592761847134,5.772947618597313e-2 0.9477229082865932,0.549791082451213 0.8899934321006201 1.0990503586359264c -5.772947618597309e-2,0.5492592761847134 -0.5497910824512129,0.9477229082865932 -1.0990503586359262 0.8899934321006201c -0.5492592761847134,-5.772947618597306e-2 -0.9477229082865932,-0.5497910824512129 -0.8899934321006201 -1.099050358635926c 5.7729476185973023e-2,-0.5492592761847134 0.5497910824512129,-0.9477229082865932 1.099050358635926 -0.8899934321006202Z" /></g></g><g transform="matrix(3.27066542773286,0.0,0.0,3.27066542773286,44.355598475455814,100.0)"><g stroke="rgb(0,0,0)" stroke-opacity="1.0" fill="rgb(0,0,0)" fill-opacity="1.0" stroke-width="1.0e-2" font-size="1.0em"><path d="M 6.954338762502472,5.093880482881219 c 0.3246248310165783,-0.4468077483472283 0.9499944983201921,-0.5458565730990528 1.3968022466674204 -0.22123174208247454c 0.4468077483472283,0.3246248310165783 0.5458565730990528,0.949994498320192 0.22123174208247465 1.3968022466674204c -0.32462483101657824,0.44680774834722836 -0.949994498320192,0.5458565730990528 -1.3968022466674201 0.22123174208247465c -0.44680774834722836,-0.32462483101657824 -0.5458565730990529,-0.949994498320192 -0.22123174208247476 -1.39680224666742Z" /></g></g><g transform="matrix(3.27066542773286,0.0,0.0,3.27066542773286,44.355598475455814,100.0)"><g stroke="rgb(0,0,0)" stroke-opacity="1.0" fill="rgb(148,148,148)" fill-opacity="1.0" stroke-width="0.0" font-size="1.0em"><path d="M -8.427050983124841,9.872072475175953 l -0.313585389802959,-2.98356568610482 l 2.427050983124843,-1.763355756877418 l 2.7406363729278023,1.2202099292274018 l 0.31358538980295925,2.9835656861048188 l -2.4270509831248415,1.763355756877419 Z" /></g></g><g transform="matrix(3.27066542773286,0.0,0.0,3.27066542773286,44.355598475455814,100.0)"><g stroke="rgb(0,0,0)" stroke-opacity="1.0" fill="rgb(0,0,0)" fill-opacity="1.0" stroke-width="1.0e-2" font-size="1.0em"><path d="M -8.879037222837164,9.41682400346977 c -0.5492592761847134,5.772947618597371e-2 -1.0413208824499538,-0.34073415591590556 -1.0990503586359275 -0.8899934321006189c -5.7729476185973745e-2,-0.5492592761847134 0.3407341559159055,-1.0413208824499538 0.8899934321006187 -1.0990503586359275c 0.5492592761847134,-5.772947618597378e-2 1.0413208824499538,0.34073415591590545 1.0990503586359275 0.8899934321006187c 5.7729476185973815e-2,0.5492592761847134 -0.3407341559159054,1.0413208824499538 -0.8899934321006184 1.0990503586359275Z" /></g></g><g transform="matrix(3.27066542773286,0.0,0.0,3.27066542773286,44.355598475455814,100.0)"><g stroke="rgb(0,0,0)" stroke-opacity="1.0" fill="rgb(0,0,0)" fill-opacity="1.0" stroke-width="1.0e-2" font-size="1.0em"><path d="M -6.306664471584796,11.256089734302137 c -0.22463444516813474,0.5045372245332017 -0.8157448761851991,0.7314432597349363 -1.3202821007184007 0.5068088145668017c -0.5045372245332017,-0.22463444516813472 -0.7314432597349363,-0.815744876185199 -0.5068088145668017 -1.3202821007184005c 0.2246344451681347,-0.5045372245332017 0.8157448761851989,-0.7314432597349364 1.3202821007184005 -0.5068088145668017c 0.5045372245332017,0.22463444516813466 0.7314432597349364,0.8157448761851989 0.5068088145668017 1.3202821007184002Z" /></g></g><g transform="matrix(3.27066542773286,0.0,0.0,3.27066542773286,44.355598475455814,100.0)"><g stroke="rgb(0,0,0)" stroke-opacity="1.0" fill="rgb(0,0,0)" fill-opacity="1.0" stroke-width="1.0e-2" font-size="1.0em"><path d="M -3.4276272487476303,9.947982449130903 c 0.3246248310165786,0.4468077483472281 0.22557600626475466,1.0721774156508421 -0.22123174208247331 1.3968022466674206c -0.4468077483472281,0.3246248310165786 -1.0721774156508421,0.2255760062647547 -1.3968022466674204 -0.22123174208247331c -0.32462483101657863,-0.44680774834722803 -0.22557600626475477,-1.072177415650842 0.2212317420824732 -1.3968022466674204c 0.44680774834722803,-0.32462483101657863 1.072177415650842,-0.22557600626475477 1.3968022466674204 0.2212317420824731Z" /></g></g><g transform="matrix(3.27066542773286,0.0,0.0,3.27066542773286,44.355598475455814,100.0)"><g stroke="rgb(0,0,0)" stroke-opacity="1.0" fill="rgb(0,0,0)" fill-opacity="1.0" stroke-width="1.0e-2" font-size="1.0em"><path d="M -3.1209627771628323,6.8006094331273 c 0.5492592761847134,-5.7729476185973495e-2 1.0413208824499536,0.34073415591590595 1.099050358635927 0.8899934321006192c 5.772947618597353e-2,0.5492592761847134 -0.3407341559159059,1.0413208824499536 -0.8899934321006191 1.099050358635927c -0.5492592761847134,5.7729476185973565e-2 -1.0413208824499536,-0.34073415591590583 -1.099050358635927 -0.889993432100619c -5.77294761859736e-2,-0.5492592761847134 0.3407341559159058,-1.0413208824499536 0.8899934321006189 -1.099050358635927Z" /></g></g><g transform="matrix(3.27066542773286,0.0,0.0,3.27066542773286,44.355598475455814,100.0)"><g stroke="rgb(0,0,0)" stroke-opacity="1.0" fill="rgb(0,0,0)" fill-opacity="1.0" stroke-width="1.0e-2" font-size="1.0em"><path d="M -5.6933355284152,4.961343702294932 c 0.2246344451681349,-0.5045372245332016 0.8157448761851993,-0.731443259734936 1.3202821007184007 -0.506808814566801c 0.5045372245332016,0.22463444516813488 0.731443259734936,0.8157448761851992 0.506808814566801 1.3202821007184007c -0.22463444516813486,0.5045372245332016 -0.8157448761851991,0.7314432597349361 -1.3202821007184005 0.5068088145668012c -0.5045372245332016,-0.22463444516813483 -0.7314432597349361,-0.8157448761851991 -0.5068088145668013 -1.3202821007184005Z" /></g></g><g transform="matrix(3.27066542773286,0.0,0.0,3.27066542773286,44.355598475455814,100.0)"><g stroke="rgb(0,0,0)" stroke-opacity="1.0" fill="rgb(0,0,0)" fill-opacity="1.0" stroke-width="1.0e-2" font-size="1.0em"><path d="M -8.572372751252365,6.269450987466167 c -0.32462483101657835,-0.44680774834722825 -0.2255760062647541,-1.0721774156508421 0.22123174208247398 -1.3968022466674204c 0.44680774834722825,-0.32462483101657835 1.0721774156508421,-0.22557600626475416 1.3968022466674204 0.22123174208247398c 0.3246248310165784,0.4468077483472282 0.22557600626475421,1.0721774156508421 -0.22123174208247387 1.3968022466674204c -0.4468077483472282,0.3246248310165784 -1.072177415650842,0.22557600626475427 -1.3968022466674201 -0.22123174208247376Z" /></g></g><g transform="matrix(3.27066542773286,0.0,0.0,3.27066542773286,44.355598475455814,100.0)"><g stroke="rgb(0,0,0)" stroke-opacity="1.0" fill="rgb(148,148,148)" fill-opacity="1.0" stroke-width="0.0" font-size="1.0em"><path d="M -8.781152949374526,22.374564462725836 l -2.9344428022014166,-0.6237350724532794 l -0.9270509831248407,-2.853169548885461 l 2.007391819076576,-2.229434476432182 l 2.9344428022014153,0.6237350724532787 l 0.9270509831248421,2.8531695488854596 Z" /></g></g><g transform="matrix(3.27066542773286,0.0,0.0,3.27066542773286,44.355598475455814,100.0)"><g stroke="rgb(0,0,0)" stroke-opacity="1.0" fill="rgb(0,0,0)" fill-opacity="1.0" stroke-width="1.0e-2" font-size="1.0em"><path d="M -9.353791404218837,22.66374940685955 c -0.11482645615018319,0.5402160029688609 -0.6458432885827037,0.8850623660662303 -1.1860592915515644 0.7702359099160472c -0.5402160029688609,-0.11482645615018316 -0.8850623660662303,-0.6458432885827037 -0.7702359099160472 -1.1860592915515644c 0.11482645615018312,-0.5402160029688609 0.6458432885827037,-0.8850623660662303 1.1860592915515642 -0.7702359099160472c 0.5402160029688609,0.1148264561501831 0.8850623660662303,0.6458432885827036 0.7702359099160472 1.1860592915515642Z" /></g></g><g transform="matrix(3.27066542773286,0.0,0.0,3.27066542773286,44.355598475455814,100.0)"><g stroke="rgb(0,0,0)" stroke-opacity="1.0" fill="rgb(0,0,0)" fill-opacity="1.0" stroke-width="1.0e-2" font-size="1.0em"><path d="M -6.809638849708324,20.785641907439555 c 0.41042755402683156,0.369550629537029 0.44356484865556584,1.0018478778094209 7.40142191185369e-2 1.4122754318362525c -0.369550629537029,0.41042755402683156 -1.0018478778094209,0.4435648486555659 -1.4122754318362523 7.4014219118537e-2c -0.4104275540268316,-0.36955062953702894 -0.4435648486555659,-1.0018478778094209 -7.401421911853712e-2 -1.4122754318362523c 0.36955062953702894,-0.4104275540268316 1.0018478778094209,-0.44356484865556595 1.4122754318362523 -7.401421911853712e-2Z" /></g></g><g transform="matrix(3.27066542773286,0.0,0.0,3.27066542773286,44.355598475455814,100.0)"><g stroke="rgb(0,0,0)" stroke-opacity="1.0" fill="rgb(0,0,0)" fill-opacity="1.0" stroke-width="1.0e-2" font-size="1.0em"><path d="M -7.164051377988852,17.643287414420378 c 0.5252540101770148,-0.17066537343183175 1.0894081372382696,0.11678551174319085 1.2600735106701013 0.6420395219202055c 0.17066537343183177,0.5252540101770148 -0.1167855117431908,1.0894081372382696 -0.6420395219202054 1.260073510670101c -0.5252540101770148,0.1706653734318318 -1.0894081372382696,-0.11678551174319074 -1.260073510670101 -0.6420395219202053c -0.17066537343183183,-0.5252540101770148 0.11678551174319068,-1.0894081372382696 0.6420395219202052 -1.260073510670101Z" /></g></g><g transform="matrix(3.27066542773286,0.0,0.0,3.27066542773286,44.355598475455814,100.0)"><g stroke="rgb(0,0,0)" stroke-opacity="1.0" fill="rgb(0,0,0)" fill-opacity="1.0" stroke-width="1.0e-2" font-size="1.0em"><path d="M -10.062616460779894,16.379040420821198 c 0.11482645615018335,-0.5402160029688607 0.6458432885827039,-0.88506236606623 1.1860592915515644 -0.7702359099160467c 0.5402160029688607,0.11482645615018332 0.88506236606623,0.6458432885827039 0.7702359099160467 1.1860592915515644c -0.11482645615018328,0.5402160029688607 -0.6458432885827039,0.88506236606623 -1.1860592915515644 0.7702359099160467c -0.5402160029688607,-0.11482645615018325 -0.88506236606623,-0.6458432885827038 -0.7702359099160467 -1.1860592915515642Z" /></g></g><g transform="matrix(3.27066542773286,0.0,0.0,3.27066542773286,44.355598475455814,100.0)"><g stroke="rgb(0,0,0)" stroke-opacity="1.0" fill="rgb(0,0,0)" fill-opacity="1.0" stroke-width="1.0e-2" font-size="1.0em"><path d="M -12.606769015290405,18.257147920241195 c -0.4104275540268314,-0.3695506295370291 -0.4435648486555654,-1.0018478778094209 -7.401421911853634e-2 -1.4122754318362523c 0.3695506295370291,-0.4104275540268314 1.0018478778094209,-0.44356484865556545 1.4122754318362523 -7.401421911853645e-2c 0.41042755402683145,0.36955062953702905 0.44356484865556545,1.0018478778094209 7.401421911853656e-2 1.4122754318362523c -0.36955062953702905,0.41042755402683145 -1.0018478778094209,0.4435648486555655 -1.412275431836252 7.401421911853656e-2Z" /></g></g><g transform="matrix(3.27066542773286,0.0,0.0,3.27066542773286,44.355598475455814,100.0)"><g stroke="rgb(0,0,0)" stroke-opacity="1.0" fill="rgb(0,0,0)" fill-opacity="1.0" stroke-width="1.0e-2" font-size="1.0em"><path d="M -12.25235648700988,21.39950241326037 c -0.5252540101770148,0.17066537343183155 -1.0894081372382693,-0.11678551174319118 -1.2600735106701009 -0.6420395219202059c -0.17066537343183158,-0.5252540101770148 0.11678551174319113,-1.0894081372382693 0.6420395219202057 -1.2600735106701009c 0.5252540101770148,-0.1706653734318316 1.0894081372382693,0.11678551174319107 1.2600735106701009 0.6420395219202056c 0.17066537343183164,0.5252540101770148 -0.11678551174319102,1.0894081372382693 -0.6420395219202055 1.2600735106701009Z" /></g></g><g transform="matrix(3.27066542773286,0.0,0.0,3.27066542773286,44.355598475455814,100.0)"><g stroke="rgb(0,0,0)" stroke-opacity="1.0" fill="rgb(148,148,148)" fill-opacity="1.0" stroke-width="0.0" font-size="1.0em"><path d="M 3.0000000000000018,26.57481794135006 l -1.5000000000000013,2.598076211353315 l -3.0,-1.7763568394002505e-15 l -1.499999999999999,-2.598076211353317 l 1.5000000000000004,-2.5980762113533142 h 2.999999999999999 Z" /></g></g><g transform="matrix(3.27066542773286,0.0,0.0,3.27066542773286,44.355598475455814,100.0)"><g stroke="rgb(0,0,0)" stroke-opacity="1.0" fill="rgb(0,0,0)" fill-opacity="1.0" stroke-width="1.0e-2" font-size="1.0em"><path d="M 3.0980762113533182,27.208792537565618 c 0.47829262347620083,0.2761423749153964 0.6421677786998361,0.8877327803082375 0.36602540378443976 1.3660254037844382c -0.27614237491539634,0.47829262347620083 -0.8877327803082375,0.6421677786998361 -1.3660254037844382 0.3660254037844398c -0.4782926234762009,-0.27614237491539634 -0.6421677786998361,-0.8877327803082374 -0.3660254037844399 -1.3660254037844382c 0.2761423749153963,-0.4782926234762009 0.8877327803082373,-0.6421677786998362 1.366025403784438 -0.36602540378443993Z" /></g></g><g transform="matrix(3.27066542773286,0.0,0.0,3.27066542773286,44.355598475455814,100.0)"><g stroke="rgb(0,0,0)" stroke-opacity="1.0" fill="rgb(0,0,0)" fill-opacity="1.0" stroke-width="1.0e-2" font-size="1.0em"><path d="M 2.0980762113533165,24.208792537565618 c 0.47829262347620044,-0.27614237491539695 1.0898830288690418,-0.11226721969176262 1.3660254037844388 0.3660254037844377c 0.276142374915397,0.47829262347620044 0.11226721969176262,1.0898830288690418 -0.3660254037844376 1.3660254037844386c -0.4782926234762004,0.276142374915397 -1.0898830288690418,0.11226721969176268 -1.3660254037844386 -0.3660254037844376c -0.27614237491539706,-0.4782926234762004 -0.11226721969176273,-1.0898830288690418 0.3660254037844375 -1.3660254037844384Z" /></g></g><g transform="matrix(3.27066542773286,0.0,0.0,3.27066542773286,44.355598475455814,100.0)"><g stroke="rgb(0,0,0)" stroke-opacity="1.0" fill="rgb(0,0,0)" fill-opacity="1.0" stroke-width="1.0e-2" font-size="1.0em"><path d="M -0.9999999999999993,23.574817941350055 c -2.14605735894022e-16,-0.5522847498307935 0.44771525016920605,-1.0000000000000002 0.9999999999999993 -1.0000000000000004c 0.5522847498307935,-2.484234234489309e-16 1.0000000000000002,0.447715250169206 1.0000000000000004 0.9999999999999993c 2.822411110038398e-16,0.5522847498307935 -0.44771525016920594,1.0000000000000002 -0.9999999999999991 1.0000000000000004c -0.5522847498307935,3.160587985587487e-16 -1.0000000000000002,-0.4477152501692059 -1.0000000000000004 -0.9999999999999991Z" /></g></g><g transform="matrix(3.27066542773286,0.0,0.0,3.27066542773286,44.355598475455814,100.0)"><g stroke="rgb(0,0,0)" stroke-opacity="1.0" fill="rgb(0,0,0)" fill-opacity="1.0" stroke-width="1.0e-2" font-size="1.0em"><path d="M -3.0980762113533142,25.940843345134493 c -0.47829262347620066,-0.2761423749153966 -0.6421677786998357,-0.8877327803082378 -0.36602540378443915 -1.3660254037844384c 0.27614237491539656,-0.47829262347620066 0.8877327803082378,-0.6421677786998358 1.3660254037844384 -0.3660254037844392c 0.4782926234762007,0.27614237491539656 0.6421677786998358,0.8877327803082378 0.36602540378443926 1.3660254037844384c -0.2761423749153965,0.4782926234762007 -0.8877327803082377,0.6421677786998358 -1.3660254037844382 0.3660254037844393Z" /></g></g><g transform="matrix(3.27066542773286,0.0,0.0,3.27066542773286,44.355598475455814,100.0)"><g stroke="rgb(0,0,0)" stroke-opacity="1.0" fill="rgb(0,0,0)" fill-opacity="1.0" stroke-width="1.0e-2" font-size="1.0em"><path d="M -2.0980762113533142,28.940843345134493 c -0.47829262347620055,0.2761423749153968 -1.0898830288690418,0.11226721969176218 -1.3660254037844386 -0.36602540378443826c -0.27614237491539684,-0.47829262347620055 -0.11226721969176223,-1.0898830288690418 0.36602540378443815 -1.3660254037844386c 0.4782926234762005,-0.27614237491539684 1.0898830288690418,-0.11226721969176229 1.3660254037844384 0.36602540378443815c 0.2761423749153969,0.4782926234762005 0.11226721969176229,1.0898830288690418 -0.36602540378443804 1.3660254037844384Z" /></g></g><g transform="matrix(3.27066542773286,0.0,0.0,3.27066542773286,44.355598475455814,100.0)"><g stroke="rgb(0,0,0)" stroke-opacity="1.0" fill="rgb(0,0,0)" fill-opacity="1.0" stroke-width="1.0e-2" font-size="1.0em"><path d="M 1.0000000000000018,29.574817941350055 c 0.0,0.5522847498307935 -0.44771525016920644,1.0 -0.9999999999999998 1.0c -0.5522847498307935,3.3817687554908895e-17 -1.0,-0.4477152501692064 -1.0 -0.9999999999999997c -6.763537510981779e-17,-0.5522847498307935 0.4477152501692063,-1.0 0.9999999999999996 -1.0c 0.5522847498307935,-1.0145306266472669e-16 1.0,0.44771525016920627 1.0 0.9999999999999994Z" /></g></g><g transform="matrix(3.27066542773286,0.0,0.0,3.27066542773286,44.355598475455814,100.0)"><g stroke="rgb(0,0,0)" stroke-opacity="1.0" fill="rgb(0,0,0)" fill-opacity="0.0" stroke-width="1.0e-2" font-size="1.0em"></g></g><g transform="matrix(3.27066542773286,0.0,0.0,3.27066542773286,44.355598475455814,100.0)"><g stroke="rgb(0,0,0)" stroke-opacity="1.0" fill="rgb(89,89,255)" fill-opacity="1.0" stroke-width="0.0" font-size="1.0em"><path d="M 9.70820393249937,-19.521394913840385 l -9.70820393249937,-7.053423027509675 l -9.708203932499368,7.053423027509678 l 3.7082039324993694,11.41267819554184 l 12.0,1.7763568394002505e-15 Z" /></g></g><g transform="matrix(3.27066542773286,0.0,0.0,3.27066542773286,44.355598475455814,100.0)"><g stroke="rgb(0,0,0)" stroke-opacity="1.0" fill="rgb(148,148,148)" fill-opacity="1.0" stroke-width="0.0" font-size="1.0em"><path d="M 10.635254915624214,-16.66822536495492 l 2.007391819076574,-2.2294344764321834 l -0.9270509831248436,-2.8531695488854605 l -2.9344428022014175,-0.6237350724532771 l -2.0073918190765734,2.2294344764321825 l 0.9270509831248416,2.85316954888546 Z" /></g></g><g transform="matrix(3.27066542773286,0.0,0.0,3.27066542773286,44.355598475455814,100.0)"><g stroke="rgb(0,0,0)" stroke-opacity="1.0" fill="rgb(0,0,0)" fill-opacity="1.0" stroke-width="1.0e-2" font-size="1.0em"><path d="M 11.268507802572694,-16.77085826928641 c 0.41042755402683123,0.3695506295370295 1.0427248022992233,0.33641333490829617 1.4122754318362527 -7.401421911853501e-2c 0.3695506295370295,-0.41042755402683123 0.3364133349082962,-1.0427248022992233 -7.40142191185349e-2 -1.4122754318362527c -0.4104275540268312,-0.36955062953702955 -1.0427248022992233,-0.3364133349082963 -1.4122754318362527 7.401421911853479e-2c -0.36955062953702955,0.4104275540268312 -0.3364133349082963,1.0427248022992233 7.401421911853467e-2 1.4122754318362527Z" /></g></g><g transform="matrix(3.27066542773286,0.0,0.0,3.27066542773286,44.355598475455814,100.0)"><g stroke="rgb(0,0,0)" stroke-opacity="1.0" fill="rgb(0,0,0)" fill-opacity="1.0" stroke-width="1.0e-2" font-size="1.0em"><path d="M 8.106321259312285,-16.794863802456724 c -0.1148264561501838,0.5402160029688607 0.230019906947185,1.0712328354013818 0.7702359099160456 1.1860592915515658c 0.5402160029688607,0.11482645615018383 1.0712328354013818,-0.23001990694718494 1.1860592915515658 -0.7702359099160456c 0.11482645615018387,-0.5402160029688607 -0.23001990694718488,-1.0712328354013818 -0.7702359099160454 -1.1860592915515655c -0.5402160029688607,-0.1148264561501839 -1.0712328354013818,0.23001990694718488 -1.1860592915515655 0.7702359099160454Z" /></g></g><g transform="matrix(3.27066542773286,0.0,0.0,3.27066542773286,44.355598475455814,100.0)"><g stroke="rgb(0,0,0)" stroke-opacity="1.0" fill="rgb(0,0,0)" fill-opacity="1.0" stroke-width="1.0e-2" font-size="1.0em"><path d="M 6.546017389238962,-19.545400447010696 c -0.525254010177015,0.17066537343183139 -0.8127048953520382,0.7348195004930859 -0.6420395219202069 1.2600735106701006c 0.17066537343183136,0.525254010177015 0.7348195004930858,0.8127048953520382 1.2600735106701006 0.6420395219202069c 0.525254010177015,-0.17066537343183133 0.8127048953520382,-0.7348195004930858 0.6420395219202069 -1.2600735106701006c -0.1706653734318313,-0.525254010177015 -0.7348195004930858,-0.8127048953520382 -1.2600735106701004 -0.6420395219202069Z" /></g></g><g transform="matrix(3.27066542773286,0.0,0.0,3.27066542773286,44.355598475455814,100.0)"><g stroke="rgb(0,0,0)" stroke-opacity="1.0" fill="rgb(0,0,0)" fill-opacity="1.0" stroke-width="1.0e-2" font-size="1.0em"><path d="M 8.147900062426048,-22.27193155839435 c -0.4104275540268313,-0.36955062953702933 -1.0427248022992233,-0.3364133349082958 -1.4122754318362527 7.401421911853545e-2c -0.36955062953702933,0.4104275540268313 -0.33641333490829584,1.0427248022992233 7.401421911853534e-2 1.4122754318362525c 0.41042755402683123,0.3695506295370294 1.0427248022992233,0.3364133349082959 1.4122754318362523 -7.401421911853523e-2c 0.3695506295370294,-0.41042755402683123 0.33641333490829595,-1.0427248022992233 -7.401421911853512e-2 -1.4122754318362523Z" /></g></g><g transform="matrix(3.27066542773286,0.0,0.0,3.27066542773286,44.355598475455814,100.0)"><g stroke="rgb(0,0,0)" stroke-opacity="1.0" fill="rgb(0,0,0)" fill-opacity="1.0" stroke-width="1.0e-2" font-size="1.0em"><path d="M 11.310086605686456,-22.24792602522404 c 0.11482645615018365,-0.5402160029688607 -0.23001990694718527,-1.0712328354013816 -0.7702359099160458 -1.1860592915515653c -0.5402160029688607,-0.11482645615018368 -1.0712328354013816,0.23001990694718522 -1.1860592915515653 0.7702359099160457c -0.11482645615018372,0.5402160029688607 0.23001990694718516,1.0712328354013816 0.7702359099160456 1.1860592915515653c 0.5402160029688607,0.11482645615018375 1.0712328354013816,-0.2300199069471851 1.1860592915515653 -0.7702359099160455Z" /></g></g><g transform="matrix(3.27066542773286,0.0,0.0,3.27066542773286,44.355598475455814,100.0)"><g stroke="rgb(0,0,0)" stroke-opacity="1.0" fill="rgb(0,0,0)" fill-opacity="1.0" stroke-width="1.0e-2" font-size="1.0em"><path d="M 12.870390475759779,-19.49738938067007 c 0.5252540101770149,-0.17066537343183147 0.8127048953520378,-0.734819500493086 0.6420395219202064 -1.2600735106701006c -0.17066537343183144,-0.5252540101770149 -0.734819500493086,-0.8127048953520379 -1.2600735106701006 -0.6420395219202064c -0.5252540101770149,0.1706653734318314 -0.8127048953520379,0.7348195004930859 -0.6420395219202064 1.2600735106701004c 0.17066537343183139,0.5252540101770149 0.7348195004930858,0.8127048953520379 1.2600735106701004 0.6420395219202065Z" /></g></g><g transform="matrix(3.27066542773286,0.0,0.0,3.27066542773286,44.355598475455814,100.0)"><g stroke="rgb(0,0,0)" stroke-opacity="1.0" fill="rgb(148,148,148)" fill-opacity="1.0" stroke-width="0.0" font-size="1.0em"><path d="M 3.572949016875159,-6.345360961421121 l 2.740636372927803,1.2202099292273991 l 2.4270509831248415,-1.7633557568774205 l -0.31358538980296147,-2.9835656861048205 l -2.740636372927802,-1.2202099292273993 l -2.4270509831248415,1.7633557568774185 Z" /></g></g><g transform="matrix(3.27066542773286,0.0,0.0,3.27066542773286,44.355598475455814,100.0)"><g stroke="rgb(0,0,0)" stroke-opacity="1.0" fill="rgb(0,0,0)" fill-opacity="1.0" stroke-width="1.0e-2" font-size="1.0em"><path d="M 3.866244613129997,-5.77481698844654 c -0.22463444516813538,0.5045372245332015 2.2715900335983363e-3,1.095647655550266 0.5068088145667997 1.3202821007184014c 0.5045372245332015,0.2246344451681354 1.095647655550266,-2.2715900335983363e-3 1.3202821007184014 -0.5068088145667996c 0.22463444516813544,-0.5045372245332015 -2.271590033598281e-3,-1.095647655550266 -0.5068088145667995 -1.3202821007184014c -0.5045372245332015,-0.22463444516813547 -1.095647655550266,2.2715900335982253e-3 -1.3202821007184014 0.5068088145667994Z" /></g></g><g transform="matrix(3.27066542773286,0.0,0.0,3.27066542773286,44.355598475455814,100.0)"><g stroke="rgb(0,0,0)" stroke-opacity="1.0" fill="rgb(0,0,0)" fill-opacity="1.0" stroke-width="1.0e-2" font-size="1.0em"><path d="M 2.911905850627527,-8.789653223863857 c -0.5492592761847134,5.7729476185973e-2 -0.9477229082865934,0.5497910824512129 -0.8899934321006204 1.0990503586359262c 5.772947618597297e-2,0.5492592761847134 0.5497910824512128,0.9477229082865934 1.099050358635926 0.8899934321006204c 0.5492592761847134,-5.772947618597293e-2 0.9477229082865934,-0.5497910824512127 0.8899934321006204 -1.099050358635926c -5.77294761859729e-2,-0.5492592761847134 -0.5497910824512127,-0.9477229082865934 -1.099050358635926 -0.8899934321006204Z" /></g></g><g transform="matrix(3.27066542773286,0.0,0.0,3.27066542773286,44.355598475455814,100.0)"><g stroke="rgb(0,0,0)" stroke-opacity="1.0" fill="rgb(0,0,0)" fill-opacity="1.0" stroke-width="1.0e-2" font-size="1.0em"><path d="M 5.045661237497529,-11.123552953715858 c -0.32462483101657813,-0.4468077483472284 -0.949994498320192,-0.5458565730990531 -1.3968022466674204 -0.22123174208247498c -0.4468077483472284,0.32462483101657813 -0.5458565730990531,0.949994498320192 -0.2212317420824751 1.3968022466674204c 0.3246248310165781,0.4468077483472285 0.9499944983201919,0.5458565730990532 1.3968022466674201 0.2212317420824751c 0.4468077483472285,-0.3246248310165781 0.5458565730990532,-0.9499944983201918 0.2212317420824752 -1.39680224666742Z" /></g></g><g transform="matrix(3.27066542773286,0.0,0.0,3.27066542773286,44.355598475455814,100.0)"><g stroke="rgb(0,0,0)" stroke-opacity="1.0" fill="rgb(0,0,0)" fill-opacity="1.0" stroke-width="1.0e-2" font-size="1.0em"><path d="M 8.133755386870002,-10.442616448150543 c 0.22463444516813524,-0.5045372245332015 -2.271590033598614e-3,-1.095647655550266 -0.5068088145667999 -1.3202821007184011c -0.5045372245332015,-0.22463444516813527 -1.095647655550266,2.271590033598614e-3 -1.3202821007184011 0.5068088145667999c -0.2246344451681353,0.5045372245332015 2.2715900335985584e-3,1.0956476555502659 0.5068088145667997 1.3202821007184011c 0.5045372245332015,0.22463444516813533 1.0956476555502659,-2.271590033598503e-3 1.3202821007184011 -0.5068088145667997Z" /></g></g><g transform="matrix(3.27066542773286,0.0,0.0,3.27066542773286,44.355598475455814,100.0)"><g stroke="rgb(0,0,0)" stroke-opacity="1.0" fill="rgb(0,0,0)" fill-opacity="1.0" stroke-width="1.0e-2" font-size="1.0em"><path d="M 9.088094149372473,-7.427780212733228 c 0.5492592761847134,-5.772947618597313e-2 0.9477229082865932,-0.549791082451213 0.8899934321006201 -1.0990503586359264c -5.772947618597309e-2,-0.5492592761847134 -0.5497910824512129,-0.9477229082865932 -1.0990503586359262 -0.8899934321006201c -0.5492592761847134,5.772947618597306e-2 -0.9477229082865932,0.5497910824512129 -0.8899934321006201 1.099050358635926c 5.7729476185973023e-2,0.5492592761847134 0.5497910824512129,0.9477229082865932 1.099050358635926 0.8899934321006202Z" /></g></g><g transform="matrix(3.27066542773286,0.0,0.0,3.27066542773286,44.355598475455814,100.0)"><g stroke="rgb(0,0,0)" stroke-opacity="1.0" fill="rgb(0,0,0)" fill-opacity="1.0" stroke-width="1.0e-2" font-size="1.0em"><path d="M 6.954338762502472,-5.093880482881226 c 0.3246248310165783,0.4468077483472283 0.9499944983201921,0.5458565730990528 1.3968022466674204 0.22123174208247454c 0.4468077483472283,-0.3246248310165783 0.5458565730990528,-0.949994498320192 0.22123174208247465 -1.3968022466674204c -0.32462483101657824,-0.44680774834722836 -0.949994498320192,-0.5458565730990528 -1.3968022466674201 -0.22123174208247465c -0.44680774834722836,0.32462483101657824 -0.5458565730990529,0.949994498320192 -0.22123174208247476 1.39680224666742Z" /></g></g><g transform="matrix(3.27066542773286,0.0,0.0,3.27066542773286,44.355598475455814,100.0)"><g stroke="rgb(0,0,0)" stroke-opacity="1.0" fill="rgb(148,148,148)" fill-opacity="1.0" stroke-width="0.0" font-size="1.0em"><path d="M -8.427050983124841,-9.87207247517596 l -0.313585389802959,2.98356568610482 l 2.427050983124843,1.763355756877418 l 2.7406363729278023,-1.2202099292274018 l 0.31358538980295925,-2.9835656861048188 l -2.4270509831248415,-1.763355756877419 Z" /></g></g><g transform="matrix(3.27066542773286,0.0,0.0,3.27066542773286,44.355598475455814,100.0)"><g stroke="rgb(0,0,0)" stroke-opacity="1.0" fill="rgb(0,0,0)" fill-opacity="1.0" stroke-width="1.0e-2" font-size="1.0em"><path d="M -8.879037222837164,-9.416824003469777 c -0.5492592761847134,-5.772947618597371e-2 -1.0413208824499538,0.34073415591590556 -1.0990503586359275 0.8899934321006189c -5.7729476185973745e-2,0.5492592761847134 0.3407341559159055,1.0413208824499538 0.8899934321006187 1.0990503586359275c 0.5492592761847134,5.772947618597378e-2 1.0413208824499538,-0.34073415591590545 1.0990503586359275 -0.8899934321006187c 5.7729476185973815e-2,-0.5492592761847134 -0.3407341559159054,-1.0413208824499538 -0.8899934321006184 -1.0990503586359275Z" /></g></g><g transform="matrix(3.27066542773286,0.0,0.0,3.27066542773286,44.355598475455814,100.0)"><g stroke="rgb(0,0,0)" stroke-opacity="1.0" fill="rgb(0,0,0)" fill-opacity="1.0" stroke-width="1.0e-2" font-size="1.0em"><path d="M -6.306664471584796,-11.256089734302144 c -0.22463444516813474,-0.5045372245332017 -0.8157448761851991,-0.7314432597349363 -1.3202821007184007 -0.5068088145668017c -0.5045372245332017,0.22463444516813472 -0.7314432597349363,0.815744876185199 -0.5068088145668017 1.3202821007184005c 0.2246344451681347,0.5045372245332017 0.8157448761851989,0.7314432597349364 1.3202821007184005 0.5068088145668017c 0.5045372245332017,-0.22463444516813466 0.7314432597349364,-0.8157448761851989 0.5068088145668017 -1.3202821007184002Z" /></g></g><g transform="matrix(3.27066542773286,0.0,0.0,3.27066542773286,44.355598475455814,100.0)"><g stroke="rgb(0,0,0)" stroke-opacity="1.0" fill="rgb(0,0,0)" fill-opacity="1.0" stroke-width="1.0e-2" font-size="1.0em"><path d="M -3.4276272487476303,-9.94798244913091 c 0.3246248310165786,-0.4468077483472281 0.22557600626475466,-1.0721774156508421 -0.22123174208247331 -1.3968022466674206c -0.4468077483472281,-0.3246248310165786 -1.0721774156508421,-0.2255760062647547 -1.3968022466674204 0.22123174208247331c -0.32462483101657863,0.44680774834722803 -0.22557600626475477,1.072177415650842 0.2212317420824732 1.3968022466674204c 0.44680774834722803,0.32462483101657863 1.072177415650842,0.22557600626475477 1.3968022466674204 -0.2212317420824731Z" /></g></g><g transform="matrix(3.27066542773286,0.0,0.0,3.27066542773286,44.355598475455814,100.0)"><g stroke="rgb(0,0,0)" stroke-opacity="1.0" fill="rgb(0,0,0)" fill-opacity="1.0" stroke-width="1.0e-2" font-size="1.0em"><path d="M -3.1209627771628323,-6.800609433127307 c 0.5492592761847134,5.7729476185973495e-2 1.0413208824499536,-0.34073415591590595 1.099050358635927 -0.8899934321006192c 5.772947618597353e-2,-0.5492592761847134 -0.3407341559159059,-1.0413208824499536 -0.8899934321006191 -1.099050358635927c -0.5492592761847134,-5.7729476185973565e-2 -1.0413208824499536,0.34073415591590583 -1.099050358635927 0.889993432100619c -5.77294761859736e-2,0.5492592761847134 0.3407341559159058,1.0413208824499536 0.8899934321006189 1.099050358635927Z" /></g></g><g transform="matrix(3.27066542773286,0.0,0.0,3.27066542773286,44.355598475455814,100.0)"><g stroke="rgb(0,0,0)" stroke-opacity="1.0" fill="rgb(0,0,0)" fill-opacity="1.0" stroke-width="1.0e-2" font-size="1.0em"><path d="M -5.6933355284152,-4.961343702294939 c 0.2246344451681349,0.5045372245332016 0.8157448761851993,0.731443259734936 1.3202821007184007 0.506808814566801c 0.5045372245332016,-0.22463444516813488 0.731443259734936,-0.8157448761851992 0.506808814566801 -1.3202821007184007c -0.22463444516813486,-0.5045372245332016 -0.8157448761851991,-0.7314432597349361 -1.3202821007184005 -0.5068088145668012c -0.5045372245332016,0.22463444516813483 -0.7314432597349361,0.8157448761851991 -0.5068088145668013 1.3202821007184005Z" /></g></g><g transform="matrix(3.27066542773286,0.0,0.0,3.27066542773286,44.355598475455814,100.0)"><g stroke="rgb(0,0,0)" stroke-opacity="1.0" fill="rgb(0,0,0)" fill-opacity="1.0" stroke-width="1.0e-2" font-size="1.0em"><path d="M -8.572372751252365,-6.269450987466174 c -0.32462483101657835,0.44680774834722825 -0.2255760062647541,1.0721774156508421 0.22123174208247398 1.3968022466674204c 0.44680774834722825,0.32462483101657835 1.0721774156508421,0.22557600626475416 1.3968022466674204 -0.22123174208247398c 0.3246248310165784,-0.4468077483472282 0.22557600626475421,-1.0721774156508421 -0.22123174208247387 -1.3968022466674204c -0.4468077483472282,-0.3246248310165784 -1.072177415650842,-0.22557600626475427 -1.3968022466674201 0.22123174208247376Z" /></g></g><g transform="matrix(3.27066542773286,0.0,0.0,3.27066542773286,44.355598475455814,100.0)"><g stroke="rgb(0,0,0)" stroke-opacity="1.0" fill="rgb(148,148,148)" fill-opacity="1.0" stroke-width="0.0" font-size="1.0em"><path d="M -8.781152949374526,-22.374564462725843 l -2.9344428022014166,0.6237350724532794 l -0.9270509831248407,2.853169548885461 l 2.007391819076576,2.229434476432182 l 2.9344428022014153,-0.6237350724532787 l 0.9270509831248421,-2.8531695488854596 Z" /></g></g><g transform="matrix(3.27066542773286,0.0,0.0,3.27066542773286,44.355598475455814,100.0)"><g stroke="rgb(0,0,0)" stroke-opacity="1.0" fill="rgb(0,0,0)" fill-opacity="1.0" stroke-width="1.0e-2" font-size="1.0em"><path d="M -9.353791404218837,-22.66374940685956 c -0.11482645615018319,-0.5402160029688609 -0.6458432885827037,-0.8850623660662303 -1.1860592915515644 -0.7702359099160472c -0.5402160029688609,0.11482645615018316 -0.8850623660662303,0.6458432885827037 -0.7702359099160472 1.1860592915515644c 0.11482645615018312,0.5402160029688609 0.6458432885827037,0.8850623660662303 1.1860592915515642 0.7702359099160472c 0.5402160029688609,-0.1148264561501831 0.8850623660662303,-0.6458432885827036 0.7702359099160472 -1.1860592915515642Z" /></g></g><g transform="matrix(3.27066542773286,0.0,0.0,3.27066542773286,44.355598475455814,100.0)"><g stroke="rgb(0,0,0)" stroke-opacity="1.0" fill="rgb(0,0,0)" fill-opacity="1.0" stroke-width="1.0e-2" font-size="1.0em"><path d="M -6.809638849708324,-20.78564190743956 c 0.41042755402683156,-0.369550629537029 0.44356484865556584,-1.0018478778094209 7.40142191185369e-2 -1.4122754318362525c -0.369550629537029,-0.41042755402683156 -1.0018478778094209,-0.4435648486555659 -1.4122754318362523 -7.4014219118537e-2c -0.4104275540268316,0.36955062953702894 -0.4435648486555659,1.0018478778094209 -7.401421911853712e-2 1.4122754318362523c 0.36955062953702894,0.4104275540268316 1.0018478778094209,0.44356484865556595 1.4122754318362523 7.401421911853712e-2Z" /></g></g><g transform="matrix(3.27066542773286,0.0,0.0,3.27066542773286,44.355598475455814,100.0)"><g stroke="rgb(0,0,0)" stroke-opacity="1.0" fill="rgb(0,0,0)" fill-opacity="1.0" stroke-width="1.0e-2" font-size="1.0em"><path d="M -7.164051377988852,-17.643287414420385 c 0.5252540101770148,0.17066537343183175 1.0894081372382696,-0.11678551174319085 1.2600735106701013 -0.6420395219202055c 0.17066537343183177,-0.5252540101770148 -0.1167855117431908,-1.0894081372382696 -0.6420395219202054 -1.260073510670101c -0.5252540101770148,-0.1706653734318318 -1.0894081372382696,0.11678551174319074 -1.260073510670101 0.6420395219202053c -0.17066537343183183,0.5252540101770148 0.11678551174319068,1.0894081372382696 0.6420395219202052 1.260073510670101Z" /></g></g><g transform="matrix(3.27066542773286,0.0,0.0,3.27066542773286,44.355598475455814,100.0)"><g stroke="rgb(0,0,0)" stroke-opacity="1.0" fill="rgb(0,0,0)" fill-opacity="1.0" stroke-width="1.0e-2" font-size="1.0em"><path d="M -10.062616460779894,-16.379040420821205 c 0.11482645615018335,0.5402160029688607 0.6458432885827039,0.88506236606623 1.1860592915515644 0.7702359099160467c 0.5402160029688607,-0.11482645615018332 0.88506236606623,-0.6458432885827039 0.7702359099160467 -1.1860592915515644c -0.11482645615018328,-0.5402160029688607 -0.6458432885827039,-0.88506236606623 -1.1860592915515644 -0.7702359099160467c -0.5402160029688607,0.11482645615018325 -0.88506236606623,0.6458432885827038 -0.7702359099160467 1.1860592915515642Z" /></g></g><g transform="matrix(3.27066542773286,0.0,0.0,3.27066542773286,44.355598475455814,100.0)"><g stroke="rgb(0,0,0)" stroke-opacity="1.0" fill="rgb(0,0,0)" fill-opacity="1.0" stroke-width="1.0e-2" font-size="1.0em"><path d="M -12.606769015290405,-18.257147920241202 c -0.4104275540268314,0.3695506295370291 -0.4435648486555654,1.0018478778094209 -7.401421911853634e-2 1.4122754318362523c 0.3695506295370291,0.4104275540268314 1.0018478778094209,0.44356484865556545 1.4122754318362523 7.401421911853645e-2c 0.41042755402683145,-0.36955062953702905 0.44356484865556545,-1.0018478778094209 7.401421911853656e-2 -1.4122754318362523c -0.36955062953702905,-0.41042755402683145 -1.0018478778094209,-0.4435648486555655 -1.412275431836252 -7.401421911853656e-2Z" /></g></g><g transform="matrix(3.27066542773286,0.0,0.0,3.27066542773286,44.355598475455814,100.0)"><g stroke="rgb(0,0,0)" stroke-opacity="1.0" fill="rgb(0,0,0)" fill-opacity="1.0" stroke-width="1.0e-2" font-size="1.0em"><path d="M -12.25235648700988,-21.39950241326038 c -0.5252540101770148,-0.17066537343183155 -1.0894081372382693,0.11678551174319118 -1.2600735106701009 0.6420395219202059c -0.17066537343183158,0.5252540101770148 0.11678551174319113,1.0894081372382693 0.6420395219202057 1.2600735106701009c 0.5252540101770148,0.1706653734318316 1.0894081372382693,-0.11678551174319107 1.2600735106701009 -0.6420395219202056c 0.17066537343183164,-0.5252540101770148 -0.11678551174319102,-1.0894081372382693 -0.6420395219202055 -1.2600735106701009Z" /></g></g><g transform="matrix(3.27066542773286,0.0,0.0,3.27066542773286,44.355598475455814,100.0)"><g stroke="rgb(0,0,0)" stroke-opacity="1.0" fill="rgb(148,148,148)" fill-opacity="1.0" stroke-width="0.0" font-size="1.0em"><path d="M 3.0000000000000018,-26.574817941350066 l -1.5000000000000013,-2.598076211353315 l -3.0,1.7763568394002505e-15 l -1.499999999999999,2.598076211353317 l 1.5000000000000004,2.5980762113533142 h 2.999999999999999 Z" /></g></g><g transform="matrix(3.27066542773286,0.0,0.0,3.27066542773286,44.355598475455814,100.0)"><g stroke="rgb(0,0,0)" stroke-opacity="1.0" fill="rgb(0,0,0)" fill-opacity="1.0" stroke-width="1.0e-2" font-size="1.0em"><path d="M 3.0980762113533182,-27.208792537565625 c 0.47829262347620083,-0.2761423749153964 0.6421677786998361,-0.8877327803082375 0.36602540378443976 -1.3660254037844382c -0.27614237491539634,-0.47829262347620083 -0.8877327803082375,-0.6421677786998361 -1.3660254037844382 -0.3660254037844398c -0.4782926234762009,0.27614237491539634 -0.6421677786998361,0.8877327803082374 -0.3660254037844399 1.3660254037844382c 0.2761423749153963,0.4782926234762009 0.8877327803082373,0.6421677786998362 1.366025403784438 0.36602540378443993Z" /></g></g><g transform="matrix(3.27066542773286,0.0,0.0,3.27066542773286,44.355598475455814,100.0)"><g stroke="rgb(0,0,0)" stroke-opacity="1.0" fill="rgb(0,0,0)" fill-opacity="1.0" stroke-width="1.0e-2" font-size="1.0em"><path d="M 2.0980762113533165,-24.208792537565625 c 0.47829262347620044,0.27614237491539695 1.0898830288690418,0.11226721969176262 1.3660254037844388 -0.3660254037844377c 0.276142374915397,-0.47829262347620044 0.11226721969176262,-1.0898830288690418 -0.3660254037844376 -1.3660254037844386c -0.4782926234762004,-0.276142374915397 -1.0898830288690418,-0.11226721969176268 -1.3660254037844386 0.3660254037844376c -0.27614237491539706,0.4782926234762004 -0.11226721969176273,1.0898830288690418 0.3660254037844375 1.3660254037844384Z" /></g></g><g transform="matrix(3.27066542773286,0.0,0.0,3.27066542773286,44.355598475455814,100.0)"><g stroke="rgb(0,0,0)" stroke-opacity="1.0" fill="rgb(0,0,0)" fill-opacity="1.0" stroke-width="1.0e-2" font-size="1.0em"><path d="M -0.9999999999999993,-23.574817941350062 c -2.14605735894022e-16,0.5522847498307935 0.44771525016920605,1.0000000000000002 0.9999999999999993 1.0000000000000004c 0.5522847498307935,2.484234234489309e-16 1.0000000000000002,-0.447715250169206 1.0000000000000004 -0.9999999999999993c 2.822411110038398e-16,-0.5522847498307935 -0.44771525016920594,-1.0000000000000002 -0.9999999999999991 -1.0000000000000004c -0.5522847498307935,-3.160587985587487e-16 -1.0000000000000002,0.4477152501692059 -1.0000000000000004 0.9999999999999991Z" /></g></g><g transform="matrix(3.27066542773286,0.0,0.0,3.27066542773286,44.355598475455814,100.0)"><g stroke="rgb(0,0,0)" stroke-opacity="1.0" fill="rgb(0,0,0)" fill-opacity="1.0" stroke-width="1.0e-2" font-size="1.0em"><path d="M -3.0980762113533142,-25.9408433451345 c -0.47829262347620066,0.2761423749153966 -0.6421677786998357,0.8877327803082378 -0.36602540378443915 1.3660254037844384c 0.27614237491539656,0.47829262347620066 0.8877327803082378,0.6421677786998358 1.3660254037844384 0.3660254037844392c 0.4782926234762007,-0.27614237491539656 0.6421677786998358,-0.8877327803082378 0.36602540378443926 -1.3660254037844384c -0.2761423749153965,-0.4782926234762007 -0.8877327803082377,-0.6421677786998358 -1.3660254037844382 -0.3660254037844393Z" /></g></g><g transform="matrix(3.27066542773286,0.0,0.0,3.27066542773286,44.355598475455814,100.0)"><g stroke="rgb(0,0,0)" stroke-opacity="1.0" fill="rgb(0,0,0)" fill-opacity="1.0" stroke-width="1.0e-2" font-size="1.0em"><path d="M -2.0980762113533142,-28.9408433451345 c -0.47829262347620055,-0.2761423749153968 -1.0898830288690418,-0.11226721969176218 -1.3660254037844386 0.36602540378443826c -0.27614237491539684,0.47829262347620055 -0.11226721969176223,1.0898830288690418 0.36602540378443815 1.3660254037844386c 0.4782926234762005,0.27614237491539684 1.0898830288690418,0.11226721969176229 1.3660254037844384 -0.36602540378443815c 0.2761423749153969,-0.4782926234762005 0.11226721969176229,-1.0898830288690418 -0.36602540378443804 -1.3660254037844384Z" /></g></g><g transform="matrix(3.27066542773286,0.0,0.0,3.27066542773286,44.355598475455814,100.0)"><g stroke="rgb(0,0,0)" stroke-opacity="1.0" fill="rgb(0,0,0)" fill-opacity="1.0" stroke-width="1.0e-2" font-size="1.0em"><path d="M 1.0000000000000018,-29.574817941350062 c 0.0,-0.5522847498307935 -0.44771525016920644,-1.0 -0.9999999999999998 -1.0c -0.5522847498307935,-3.3817687554908895e-17 -1.0,0.4477152501692064 -1.0 0.9999999999999997c -6.763537510981779e-17,0.5522847498307935 0.4477152501692063,1.0 0.9999999999999996 1.0c 0.5522847498307935,1.0145306266472669e-16 1.0,-0.44771525016920627 1.0 -0.9999999999999994Z" /></g></g></g></svg>