<?xml version="1.0" encoding="UTF-8"?>
<!DOCTYPE svg PUBLIC "-//W3C//DTD SVG 1.1//EN"
    "http://www.w3.org/Graphics/SVG/1.1/DTD/svg11.dtd">
<svg xmlns="http://www.w3.org/2000/svg" xmlns:xlink="http://www.w3.org/1999/xlink" version="1.1" width="300.0" height="107.31758228717159" font-size="1" viewBox="0 0 300 107"><g><g transform="matrix(41.27599318737369,0.0,0.0,41.27599318737369,150.0,0.0)"><g stroke="rgb(0,0,0)" stroke-opacity="1.0" fill="rgb(0,0,0)" fill-opacity="0.0" stroke-width="1.0e-2" font-size="1.0em"><path d="M 0.0,0.2999999999999998 l 1.6865364301542698,1.0 " /></g></g><g transform="matrix(41.27599318737369,0.0,0.0,41.27599318737369,150.0,0.0)"><g stroke="rgb(0,0,0)" stroke-opacity="1.0" fill="rgb(0,0,0)" fill-opacity="0.0" stroke-width="1.0e-2" font-size="1.0em"><path d="M 0.0,0.2999999999999998 l -1.6865364301542705,1.0 " /></g></g><g transform="matrix(41.27599318737369,0.0,0.0,41.27599318737369,150.0,0.0)"><g stroke="rgb(0,0,0)" stroke-opacity="1.0" fill="rgb(0,0,0)" fill-opacity="0.0" stroke-width="1.0e-2" font-size="1.0em"><path d="M 1.6865364301542698,1.2999999999999998 l 1.6475372387474136,1.0 " /></g></g><g transform="matrix(41.27599318737369,0.0,0.0,41.27599318737369,150.0,0.0)"><g stroke="rgb(0,0,0)" stroke-opacity="1.0" fill="rgb(0,0,0)" fill-opacity="0.0" stroke-width="1.0e-2" font-size="1.0em"><path d="M 1.6865364301542698,1.2999999999999998 l -0.688041445208103,1.0 " /></g></g><g transform="matrix(41.27599318737369,0.0,0.0,41.27599318737369,150.0,0.0)"><g stroke="rgb(0,0,0)" stroke-opacity="1.0" fill="rgb(255,255,255)" fill-opacity="1.0" stroke-width="1.0e-2" font-size="1.0em"><path d="M 3.6340736689016833,2.3 c 0.0,-0.16568542494923802 -0.13431457505076191,-0.3 -0.29999999999999993 -0.3c -0.16568542494923802,-1.0145306266472668e-17 -0.3,0.13431457505076191 -0.3 0.2999999999999999c -2.0290612532945336e-17,0.16568542494923802 0.1343145750507619,0.3 0.2999999999999999 0.3c 0.16568542494923802,3.0435918799418003e-17 0.3,-0.1343145750507619 0.3 -0.2999999999999998Z" /></g></g><g transform="matrix(41.27599318737369,0.0,0.0,41.27599318737369,150.0,0.0)"><g stroke="rgb(0,0,0)" stroke-opacity="1.0" fill="rgb(0,0,0)" fill-opacity="1.0" stroke-width="1.0e-2" font-size="0.5em"><text transform="matrix(1.0,0.0,0.0,1.0,3.3340736689016834,2.3)" dominant-baseline="middle" text-anchor="middle" stroke="none">4</text></g></g><g transform="matrix(41.27599318737369,0.0,0.0,41.27599318737369,150.0,0.0)"><g stroke="rgb(0,0,0)" stroke-opacity="1.0" fill="rgb(255,255,255)" fill-opacity="1.0" stroke-width="1.0e-2" font-size="1.0em"><path d="M 1.2984949849461669,2.3 c 0.0,-0.16568542494923802 -0.13431457505076191,-0.3 -0.29999999999999993 -0.3c -0.16568542494923802,-1.0145306266472668e-17 -0.3,0.13431457505076191 -0.3 0.2999999999999999c -2.0290612532945336e-17,0.16568542494923802 0.1343145750507619,0.3 0.2999999999999999 0.3c 0.16568542494923802,3.0435918799418003e-17 0.3,-0.1343145750507619 0.3 -0.2999999999999998Z" /></g></g><g transform="matrix(41.27599318737369,0.0,0.0,41.27599318737369,150.0,0.0)"><g stroke="rgb(0,0,0)" stroke-opacity="1.0" fill="rgb(0,0,0)" fill-opacity="1.0" stroke-width="1.0e-2" font-size="0.5em"><text transform="matrix(1.0,0.0,0.0,1.0,0.9984949849461668,2.3)" dominant-baseline="middle" text-anchor="middle" stroke="none">3</text></g></g><g transform="matrix(41.27599318737369,0.0,0.0,41.27599318737369,150.0,0.0)"><g stroke="rgb(0,0,0)" stroke-opacity="1.0" fill="rgb(255,255,255)" fill-opacity="1.0" stroke-width="1.0e-2" font-size="1.0em"><path d="M 1.9865364301542698,1.2999999999999998 c 0.0,-0.16568542494923802 -0.13431457505076191,-0.3 -0.29999999999999993 -0.3c -0.16568542494923802,-1.0145306266472668e-17 -0.3,0.13431457505076191 -0.3 0.2999999999999999c -2.0290612532945336e-17,0.16568542494923802 0.1343145750507619,0.3 0.2999999999999999 0.3c 0.16568542494923802,3.0435918799418003e-17 0.3,-0.1343145750507619 0.3 -0.2999999999999998Z" /></g></g><g transform="matrix(41.27599318737369,0.0,0.0,41.27599318737369,150.0,0.0)"><g stroke="rgb(0,0,0)" stroke-opacity="1.0" fill="rgb(0,0,0)" fill-opacity="1.0" stroke-width="1.0e-2" font-size="0.5em"><text transform="matrix(1.0,0.0,0.0,1.0,1.6865364301542698,1.2999999999999998)" dominant-baseline="middle" text-anchor="middle" stroke="none">6</text></g></g><g transform="matrix(41.27599318737369,0.0,0.0,41.27599318737369,150.0,0.0)"><g stroke="rgb(0,0,0)" stroke-opacity="1.0" fill="rgb(0,0,0)" fill-opacity="0.0" stroke-width="1.0e-2" font-size="1.0em"><path d="M -1.6865364301542705,1.2999999999999998 l 0.6880414452081036,1.0 " /></g></g><g transform="matrix(41.27599318737369,0.0,0.0,41.27599318737369,150.0,0.0)"><g stroke="rgb(0,0,0)" stroke-opacity="1.0" fill="rgb(0,0,0)" fill-opacity="0.0" stroke-width="1.0e-2" font-size="1.0em"><path d="M -1.6865364301542705,1.2999999999999998 l -1.6475372387474134,1.0 " /></g></g><g transform="matrix(41.27599318737369,0.0,0.0,41.27599318737369,150.0,0.0)"><g stroke="rgb(0,0,0)" stroke-opacity="1.0" fill="rgb(255,255,255)" fill-opacity="1.0" stroke-width="1.0e-2" font-size="1.0em"><path d="M -0.6984949849461668,2.3 c 0.0,-0.16568542494923802 -0.13431457505076191,-0.3 -0.29999999999999993 -0.3c -0.16568542494923802,-1.0145306266472668e-17 -0.3,0.13431457505076191 -0.3 0.2999999999999999c -2.0290612532945336e-17,0.16568542494923802 0.1343145750507619,0.3 0.2999999999999999 0.3c 0.16568542494923802,3.0435918799418003e-17 0.3,-0.1343145750507619 0.3 -0.2999999999999998Z" /></g></g><g transform="matrix(41.27599318737369,0.0,0.0,41.27599318737369,150.0,0.0)"><g stroke="rgb(0,0,0)" stroke-opacity="1.0" fill="rgb(0,0,0)" fill-opacity="1.0" stroke-width="1.0e-2" font-size="0.5em"><text transform="matrix(1.0,0.0,0.0,1.0,-0.9984949849461668,2.3)" dominant-baseline="middle" text-anchor="middle" stroke="none">2</text></g></g><g transform="matrix(41.27599318737369,0.0,0.0,41.27599318737369,150.0,0.0)"><g stroke="rgb(0,0,0)" stroke-opacity="1.0" fill="rgb(255,255,255)" fill-opacity="1.0" stroke-width="1.0e-2" font-size="1.0em"><path d="M -3.034073668901684,2.3 c 0.0,-0.16568542494923802 -0.13431457505076191,-0.3 -0.29999999999999993 -0.3c -0.16568542494923802,-1.0145306266472668e-17 -0.3,0.13431457505076191 -0.3 0.2999999999999999c -2.0290612532945336e-17,0.16568542494923802 0.1343145750507619,0.3 0.2999999999999999 0.3c 0.16568542494923802,3.0435918799418003e-17 0.3,-0.1343145750507619 0.3 -0.2999999999999998Z" /></g></g><g transform="matrix(41.27599318737369,0.0,0.0,41.27599318737369,150.0,0.0)"><g stroke="rgb(0,0,0)" stroke-opacity="1.0" fill="rgb(0,0,0)" fill-opacity="1.0" stroke-width="1.0e-2" font-size="0.5em"><text transform="matrix(1.0,0.0,0.0,1.0,-3.334073668901684,2.3)" dominant-baseline="middle" text-anchor="middle" stroke="none">7</text></g></g><g transform="matrix(41.27599318737369,0.0,0.0,41.27599318737369,150.0,0.0)"><g stroke="rgb(0,0,0)" stroke-opacity="1.0" fill="rgb(255,255,255)" fill-opacity="1.0" stroke-width="1.0e-2" font-size="1.0em"><path d="M -1.3865364301542704,1.2999999999999998 c 0.0,-0.16568542494923802 -0.13431457505076191,-0.3 -0.29999999999999993 -0.3c -0.16568542494923802,-1.0145306266472668e-17 -0.3,0.13431457505076191 -0.3 0.2999999999999999c -2.0290612532945336e-17,0.16568542494923802 0.1343145750507619,0.3 0.2999999999999999 0.3c 0.16568542494923802,3.0435918799418003e-17 0.3,-0.1343145750507619 0.3 -0.2999999999999998Z" /></g></g><g transform="matrix(41.27599318737369,0.0,0.0,41.27599318737369,150.0,0.0)"><g stroke="rgb(0,0,0)" stroke-opacity="1.0" fill="rgb(0,0,0)" fill-opacity="1.0" stroke-width="1.0e-2" font-size="0.5em"><text transform="matrix(1.0,0.0,0.0,1.0,-1.6865364301542705,1.2999999999999998)" dominant-baseline="middle" text-anchor="middle" stroke="none">8</text></g></g><g transform="matrix(41.27599318737369,0.0,0.0,41.27599318737369,150.0,0.0)"><g stroke="rgb(0,0,0)" stroke-opacity="1.0" fill="rgb(255,255,255)" fill-opacity="1.0" stroke-width="1.0e-2" font-size="1.0em"><path d="M 0.3,0.2999999999999998 c 0.0,-0.16568542494923802 -0.13431457505076191,-0.3 -0.29999999999999993 -0.3c -0.16568542494923802,-1.0145306266472668e-17 -0.3,0.13431457505076191 -0.3 0.2999999999999999c -2.0290612532945336e-17,0.16568542494923802 0.1343145750507619,0.3 0.2999999999999999 0.3c 0.16568542494923802,3.0435918799418003e-17 0.3,-0.1343145750507619 0.3 -0.2999999999999998Z" /></g></g><g transform="matrix(41.27599318737369,0.0,0.0,41.27599318737369,150.0,0.0)"><g stroke="rgb(0,0,0)" stroke-opacity="1.0" fill="rgb(0,0,0)" fill-opacity="1.0" stroke-width="1.0e-2" font-size="0.5em"><text transform="matrix(1.0,0.0,0.0,1.0,0.0,0.2999999999999998)" dominant-baseline="middle" text-anchor="middle" stroke="none">1</text></g></g></g></svg>