<?xml version="1.0" encoding="UTF-8"?>
<!DOCTYPE svg PUBLIC "-//W3C//DTD SVG 1.1//EN"
    "http://www.w3.org/Graphics/SVG/1.1/DTD/svg11.dtd">
<svg xmlns="http://www.w3.org/2000/svg" xmlns:xlink="http://www.w3.org/1999/xlink" version="1.1" width="200.0" height="470.94010767584865" font-size="1" viewBox="0 0 200 471"><g><g transform="matrix(199.9999999999993,0.0,0.0,199.9999999999993,0.0,0.0)"><g stroke="rgb(0,0,0)" stroke-opacity="1.0" fill="rgb(0,0,0)" fill-opacity="0.0" stroke-width="1.0e-2" font-size="1.0em"><path d="M 0.0,2.3547005383792516 h 1.2345679012345678e-2 l 6.172839506172841e-3,-1.0691671651659735e-2 l 6.172839506172841e-3,1.0691671651659735e-2 h 1.2345679012345678e-2 l 6.172839506172841e-3,-1.0691671651659735e-2 l -6.172839506172836e-3,-1.0691671651659736e-2 l 1.2345679012345678e-2,-8.673617379884035e-19 l 6.172839506172841e-3,-1.0691671651659735e-2 l 6.172839506172841e-3,1.0691671651659735e-2 l 1.2345679012345678e-2,8.673617379884035e-19 l -6.172839506172836e-3,1.0691671651659736e-2 l 6.172839506172841e-3,1.0691671651659735e-2 h 1.2345679012345678e-2 l 6.172839506172841e-3,-1.0691671651659735e-2 l 6.172839506172841e-3,1.0691671651659735e-2 h 1.2345679012345678e-2 l 6.172839506172841e-3,-1.0691671651659735e-2 l -6.172839506172836e-3,-1.0691671651659736e-2 l 1.2345679012345678e-2,-8.673617379884035e-19 l 6.172839506172841e-3,-1.0691671651659735e-2 l -6.172839506172832e-3,-1.0691671651659742e-2 l -1.2345679012345678e-2,-1.0408340855860843e-17 l 6.172839506172845e-3,-1.0691671651659733e-2 l -6.172839506172832e-3,-1.0691671651659742e-2 h 1.2345679012345678e-2 l 6.172839506172841e-3,-1.0691671651659735e-2 l 6.172839506172841e-3,1.0691671651659735e-2 h 1.2345679012345678e-2 l 6.172839506172841e-3,-1.0691671651659735e-2 l -6.172839506172836e-3,-1.0691671651659736e-2 l 1.2345679012345678e-2,-8.673617379884035e-19 l 6.172839506172841e-3,-1.0691671651659735e-2 l 6.172839506172841e-3,1.0691671651659735e-2 l 1.2345679012345678e-2,8.673617379884035e-19 l -6.172839506172836e-3,1.0691671651659736e-2 l 6.172839506172841e-3,1.0691671651659735e-2 h 1.2345679012345678e-2 l 6.172839506172841e-3,-1.0691671651659735e-2 l 6.172839506172841e-3,1.0691671651659735e-2 h 1.2345679012345678e-2 l -6.172839506172832e-3,1.0691671651659742e-2 l 6.172839506172845e-3,1.0691671651659733e-2 l -1.2345679012345678e-2,1.0408340855860843e-17 l -6.172839506172832e-3,1.0691671651659742e-2 l 6.172839506172841e-3,1.0691671651659735e-2 l 1.2345679012345678e-2,8.673617379884035e-19 l -6.172839506172836e-3,1.0691671651659736e-2 l 6.172839506172841e-3,1.0691671651659735e-2 h 1.2345679012345678e-2 l 6.172839506172841e-3,-1.0691671651659735e-2 l 6.172839506172841e-3,1.0691671651659735e-2 h 1.2345679012345678e-2 l 6.172839506172841e-3,-1.0691671651659735e-2 l -6.172839506172836e-3,-1.0691671651659736e-2 l 1.2345679012345678e-2,-8.673617379884035e-19 l 6.172839506172841e-3,-1.0691671651659735e-2 l 6.172839506172841e-3,1.0691671651659735e-2 l 1.2345679012345678e-2,8.673617379884035e-19 l -6.172839506172836e-3,1.0691671651659736e-2 l 6.172839506172841e-3,1.0691671651659735e-2 h 1.2345679012345678e-2 l 6.172839506172841e-3,-1.0691671651659735e-2 l 6.172839506172841e-3,1.0691671651659735e-2 h 1.2345679012345678e-2 l 6.172839506172841e-3,-1.0691671651659735e-2 l -6.172839506172836e-3,-1.0691671651659736e-2 l 1.2345679012345678e-2,-8.673617379884035e-19 l 6.172839506172841e-3,-1.0691671651659735e-2 l -6.172839506172832e-3,-1.0691671651659742e-2 l -1.2345679012345678e-2,-1.0408340855860843e-17 l 6.172839506172845e-3,-1.0691671651659733e-2 l -6.172839506172832e-3,-1.0691671651659742e-2 h 1.2345679012345678e-2 l 6.172839506172841e-3,-1.0691671651659735e-2 l 6.172839506172841e-3,1.0691671651659735e-2 h 1.2345679012345678e-2 l 6.172839506172841e-3,-1.0691671651659735e-2 l -6.172839506172836e-3,-1.0691671651659736e-2 l 1.2345679012345678e-2,-8.673617379884035e-19 l 6.172839506172841e-3,-1.0691671651659735e-2 l -6.172839506172831e-3,-1.069167165165974e-2 l -1.2345679012345677e-2,-1.0408340855860843e-17 l 6.172839506172844e-3,-1.0691671651659731e-2 l -6.172839506172831e-3,-1.069167165165974e-2 l -1.2345679012345678e-2,-1.2477075303887167e-17 l -6.172839506172851e-3,1.0691671651659728e-2 l -6.1728395061728305e-3,-1.0691671651659742e-2 l -1.2345679012345678e-2,-1.2477075303887167e-17 l 6.1728395061728435e-3,-1.0691671651659731e-2 l -6.1728395061728305e-3,-1.0691671651659738e-2 l 1.2345679012345677e-2,3.469446951953614e-18 l 6.1728395061728435e-3,-1.0691671651659731e-2 l -6.172839506172831e-3,-1.069167165165974e-2 l -1.2345679012345677e-2,-1.0408340855860843e-17 l 6.172839506172844e-3,-1.0691671651659731e-2 l -6.172839506172831e-3,-1.069167165165974e-2 h 1.2345679012345678e-2 l 6.172839506172841e-3,-1.0691671651659735e-2 l 6.172839506172841e-3,1.0691671651659735e-2 h 1.2345679012345678e-2 l 6.172839506172841e-3,-1.0691671651659735e-2 l -6.172839506172836e-3,-1.0691671651659736e-2 l 1.2345679012345678e-2,-8.673617379884035e-19 l 6.172839506172841e-3,-1.0691671651659735e-2 l 6.172839506172841e-3,1.0691671651659735e-2 l 1.2345679012345678e-2,8.673617379884035e-19 l -6.172839506172836e-3,1.0691671651659736e-2 l 6.172839506172841e-3,1.0691671651659735e-2 h 1.2345679012345678e-2 l 6.172839506172841e-3,-1.0691671651659735e-2 l 6.172839506172841e-3,1.0691671651659735e-2 h 1.2345679012345678e-2 l 6.172839506172841e-3,-1.0691671651659735e-2 l -6.172839506172836e-3,-1.0691671651659736e-2 l 1.2345679012345678e-2,-8.673617379884035e-19 l 6.172839506172841e-3,-1.0691671651659735e-2 l -6.172839506172832e-3,-1.0691671651659742e-2 l -1.2345679012345678e-2,-1.0408340855860843e-17 l 6.172839506172845e-3,-1.0691671651659733e-2 l -6.172839506172832e-3,-1.0691671651659742e-2 h 1.2345679012345678e-2 l 6.172839506172841e-3,-1.0691671651659735e-2 l 6.172839506172841e-3,1.0691671651659735e-2 h 1.2345679012345678e-2 l 6.172839506172841e-3,-1.0691671651659735e-2 l -6.172839506172836e-3,-1.0691671651659736e-2 l 1.2345679012345678e-2,-8.673617379884035e-19 l 6.172839506172841e-3,-1.0691671651659735e-2 l 6.172839506172841e-3,1.0691671651659735e-2 l 1.2345679012345678e-2,8.673617379884035e-19 l -6.172839506172836e-3,1.0691671651659736e-2 l 6.172839506172841e-3,1.0691671651659735e-2 h 1.2345679012345678e-2 l 6.172839506172841e-3,-1.0691671651659735e-2 l 6.172839506172841e-3,1.0691671651659735e-2 h 1.2345679012345678e-2 l -6.172839506172832e-3,1.0691671651659742e-2 l 6.172839506172845e-3,1.0691671651659733e-2 l -1.2345679012345678e-2,1.0408340855860843e-17 l -6.172839506172832e-3,1.0691671651659742e-2 l 6.172839506172841e-3,1.0691671651659735e-2 l 1.2345679012345678e-2,8.673617379884035e-19 l -6.172839506172836e-3,1.0691671651659736e-2 l 6.172839506172841e-3,1.0691671651659735e-2 h 1.2345679012345678e-2 l 6.172839506172841e-3,-1.0691671651659735e-2 l 6.172839506172841e-3,1.0691671651659735e-2 h 1.2345679012345678e-2 l 6.172839506172841e-3,-1.0691671651659735e-2 l -6.172839506172836e-3,-1.0691671651659736e-2 l 1.2345679012345678e-2,-8.673617379884035e-19 l 6.172839506172841e-3,-1.0691671651659735e-2 l 6.172839506172841e-3,1.0691671651659735e-2 l 1.2345679012345678e-2,8.673617379884035e-19 l -6.172839506172836e-3,1.0691671651659736e-2 l 6.172839506172841e-3,1.0691671651659735e-2 h 1.2345679012345678e-2 l 6.172839506172841e-3,-1.0691671651659735e-2 l 6.172839506172841e-3,1.0691671651659735e-2 h 1.2345679012345678e-2 l -6.172839506172831e-3,1.069167165165974e-2 l 6.172839506172844e-3,1.0691671651659731e-2 l -1.2345679012345677e-2,1.0408340855860843e-17 l -6.172839506172831e-3,1.069167165165974e-2 l 6.1728395061728435e-3,1.0691671651659731e-2 l 1.2345679012345677e-2,-3.469446951953614e-18 l -6.1728395061728305e-3,1.0691671651659738e-2 l 6.1728395061728435e-3,1.0691671651659731e-2 l -1.2345679012345678e-2,1.2477075303887167e-17 l -6.1728395061728305e-3,1.0691671651659742e-2 l -6.172839506172851e-3,-1.0691671651659728e-2 l -1.2345679012345678e-2,1.2477075303887167e-17 l -6.172839506172831e-3,1.069167165165974e-2 l 6.172839506172844e-3,1.0691671651659731e-2 l -1.2345679012345677e-2,1.0408340855860843e-17 l -6.172839506172831e-3,1.069167165165974e-2 l 6.172839506172841e-3,1.0691671651659735e-2 l 1.2345679012345678e-2,8.673617379884035e-19 l -6.172839506172836e-3,1.0691671651659736e-2 l 6.172839506172841e-3,1.0691671651659735e-2 h 1.2345679012345678e-2 l 6.172839506172841e-3,-1.0691671651659735e-2 l 6.172839506172841e-3,1.0691671651659735e-2 h 1.2345679012345678e-2 l -6.172839506172832e-3,1.0691671651659742e-2 l 6.172839506172845e-3,1.0691671651659733e-2 l -1.2345679012345678e-2,1.0408340855860843e-17 l -6.172839506172832e-3,1.0691671651659742e-2 l 6.172839506172841e-3,1.0691671651659735e-2 l 1.2345679012345678e-2,8.673617379884035e-19 l -6.172839506172836e-3,1.0691671651659736e-2 l 6.172839506172841e-3,1.0691671651659735e-2 h 1.2345679012345678e-2 l 6.172839506172841e-3,-1.0691671651659735e-2 l 6.172839506172841e-3,1.0691671651659735e-2 h 1.2345679012345678e-2 l 6.172839506172841e-3,-1.0691671651659735e-2 l -6.172839506172836e-3,-1.0691671651659736e-2 l 1.2345679012345678e-2,-8.673617379884035e-19 l 6.172839506172841e-3,-1.0691671651659735e-2 l 6.172839506172841e-3,1.0691671651659735e-2 l 1.2345679012345678e-2,8.673617379884035e-19 l -6.172839506172836e-3,1.0691671651659736e-2 l 6.172839506172841e-3,1.0691671651659735e-2 h 1.2345679012345678e-2 l 6.172839506172841e-3,-1.0691671651659735e-2 l 6.172839506172841e-3,1.0691671651659735e-2 h 1.2345679012345678e-2 l 6.172839506172841e-3,-1.0691671651659735e-2 l -6.172839506172836e-3,-1.0691671651659736e-2 l 1.2345679012345678e-2,-8.673617379884035e-19 l 6.172839506172841e-3,-1.0691671651659735e-2 l -6.172839506172832e-3,-1.0691671651659742e-2 l -1.2345679012345678e-2,-1.0408340855860843e-17 l 6.172839506172845e-3,-1.0691671651659733e-2 l -6.172839506172832e-3,-1.0691671651659742e-2 h 1.2345679012345678e-2 l 6.172839506172841e-3,-1.0691671651659735e-2 l 6.172839506172841e-3,1.0691671651659735e-2 h 1.2345679012345678e-2 l 6.172839506172841e-3,-1.0691671651659735e-2 l -6.172839506172836e-3,-1.0691671651659736e-2 l 1.2345679012345678e-2,-8.673617379884035e-19 l 6.172839506172841e-3,-1.0691671651659735e-2 l 6.172839506172841e-3,1.0691671651659735e-2 l 1.2345679012345678e-2,8.673617379884035e-19 l -6.172839506172836e-3,1.0691671651659736e-2 l 6.172839506172841e-3,1.0691671651659735e-2 h 1.2345679012345678e-2 l 6.172839506172841e-3,-1.0691671651659735e-2 l 6.172839506172841e-3,1.0691671651659735e-2 h 1.2345679012345678e-2 l -6.172839506172832e-3,1.0691671651659742e-2 l 6.172839506172845e-3,1.0691671651659733e-2 l -1.2345679012345678e-2,1.0408340855860843e-17 l -6.172839506172832e-3,1.0691671651659742e-2 l 6.172839506172841e-3,1.0691671651659735e-2 l 1.2345679012345678e-2,8.673617379884035e-19 l -6.172839506172836e-3,1.0691671651659736e-2 l 6.172839506172841e-3,1.0691671651659735e-2 h 1.2345679012345678e-2 l 6.172839506172841e-3,-1.0691671651659735e-2 l 6.172839506172841e-3,1.0691671651659735e-2 h 1.2345679012345678e-2 l 6.172839506172841e-3,-1.0691671651659735e-2 l -6.172839506172836e-3,-1.0691671651659736e-2 l 1.2345679012345678e-2,-8.673617379884035e-19 l 6.172839506172841e-3,-1.0691671651659735e-2 l 6.172839506172841e-3,1.0691671651659735e-2 l 1.2345679012345678e-2,8.673617379884035e-19 l -6.172839506172836e-3,1.0691671651659736e-2 l 6.172839506172841e-3,1.0691671651659735e-2 h 1.2345679012345678e-2 l 6.172839506172841e-3,-1.0691671651659735e-2 l 6.172839506172841e-3,1.0691671651659735e-2 h 1.2345679012345678e-2 " /></g></g><g transform="matrix(199.9999999999993,0.0,0.0,199.9999999999993,0.0,0.0)"><g stroke="rgb(0,0,0)" stroke-opacity="1.0" fill="rgb(0,0,0)" fill-opacity="0.0" stroke-width="1.0e-2" font-size="1.0em"><path d="M 0.0,1.7660254037844387 h 3.7037037037037035e-2 l 1.851851851851852e-2,-3.2075014954979206e-2 l 1.851851851851852e-2,3.2075014954979206e-2 h 3.7037037037037035e-2 l 1.851851851851852e-2,-3.2075014954979206e-2 l -1.851851851851851e-2,-3.207501495497921e-2 h 3.7037037037037035e-2 l 1.851851851851852e-2,-3.2075014954979206e-2 l 1.851851851851852e-2,3.2075014954979206e-2 h 3.7037037037037035e-2 l -1.851851851851851e-2,3.207501495497921e-2 l 1.851851851851852e-2,3.2075014954979206e-2 h 3.7037037037037035e-2 l 1.851851851851852e-2,-3.2075014954979206e-2 l 1.851851851851852e-2,3.2075014954979206e-2 h 3.7037037037037035e-2 l 1.851851851851852e-2,-3.2075014954979206e-2 l -1.851851851851851e-2,-3.207501495497921e-2 h 3.7037037037037035e-2 l 1.851851851851852e-2,-3.2075014954979206e-2 l -1.8518518518518493e-2,-3.207501495497922e-2 l -3.7037037037037035e-2,-3.122502256758253e-17 l 1.8518518518518535e-2,-3.207501495497919e-2 l -1.8518518518518493e-2,-3.207501495497922e-2 h 3.7037037037037035e-2 l 1.851851851851852e-2,-3.2075014954979206e-2 l 1.851851851851852e-2,3.2075014954979206e-2 h 3.7037037037037035e-2 l 1.851851851851852e-2,-3.2075014954979206e-2 l -1.851851851851851e-2,-3.207501495497921e-2 h 3.7037037037037035e-2 l 1.851851851851852e-2,-3.2075014954979206e-2 l 1.851851851851852e-2,3.2075014954979206e-2 h 3.7037037037037035e-2 l -1.851851851851851e-2,3.207501495497921e-2 l 1.851851851851852e-2,3.2075014954979206e-2 h 3.7037037037037035e-2 l 1.851851851851852e-2,-3.2075014954979206e-2 l 1.851851851851852e-2,3.2075014954979206e-2 h 3.7037037037037035e-2 l -1.8518518518518493e-2,3.207501495497922e-2 l 1.8518518518518535e-2,3.207501495497919e-2 l -3.7037037037037035e-2,3.122502256758253e-17 l -1.8518518518518493e-2,3.207501495497922e-2 l 1.851851851851852e-2,3.2075014954979206e-2 h 3.7037037037037035e-2 l -1.851851851851851e-2,3.207501495497921e-2 l 1.851851851851852e-2,3.2075014954979206e-2 h 3.7037037037037035e-2 l 1.851851851851852e-2,-3.2075014954979206e-2 l 1.851851851851852e-2,3.2075014954979206e-2 h 3.7037037037037035e-2 l 1.851851851851852e-2,-3.2075014954979206e-2 l -1.851851851851851e-2,-3.207501495497921e-2 h 3.7037037037037035e-2 l 1.851851851851852e-2,-3.2075014954979206e-2 l 1.851851851851852e-2,3.2075014954979206e-2 h 3.7037037037037035e-2 l -1.851851851851851e-2,3.207501495497921e-2 l 1.851851851851852e-2,3.2075014954979206e-2 h 3.7037037037037035e-2 l 1.851851851851852e-2,-3.2075014954979206e-2 l 1.851851851851852e-2,3.2075014954979206e-2 h 3.7037037037037035e-2 " /></g></g><g transform="matrix(199.9999999999993,0.0,0.0,199.9999999999993,0.0,0.0)"><g stroke="rgb(0,0,0)" stroke-opacity="1.0" fill="rgb(0,0,0)" fill-opacity="0.0" stroke-width="1.0e-2" font-size="1.0em"><path d="M 0.0,1.1773502691896258 h 0.1111111111111111 l 5.5555555555555566e-2,-9.622504486493762e-2 l 5.5555555555555566e-2,9.622504486493762e-2 h 0.1111111111111111 l 5.5555555555555566e-2,-9.622504486493762e-2 l -5.5555555555555525e-2,-9.622504486493764e-2 h 0.1111111111111111 l 5.5555555555555566e-2,-9.622504486493762e-2 l 5.5555555555555566e-2,9.622504486493762e-2 h 0.1111111111111111 l -5.5555555555555525e-2,9.622504486493764e-2 l 5.5555555555555566e-2,9.622504486493762e-2 h 0.1111111111111111 l 5.5555555555555566e-2,-9.622504486493762e-2 l 5.5555555555555566e-2,9.622504486493762e-2 h 0.1111111111111111 " /></g></g><g transform="matrix(199.9999999999993,0.0,0.0,199.9999999999993,0.0,0.0)"><g stroke="rgb(0,0,0)" stroke-opacity="1.0" fill="rgb(0,0,0)" fill-opacity="0.0" stroke-width="1.0e-2" font-size="1.0em"><path d="M 0.0,0.5886751345948129 h 0.3333333333333333 l 0.16666666666666669,-0.28867513459481287 l 0.16666666666666669,0.28867513459481287 h 0.3333333333333333 " /></g></g><g transform="matrix(199.9999999999993,0.0,0.0,199.9999999999993,0.0,0.0)"><g stroke="rgb(0,0,0)" stroke-opacity="1.0" fill="rgb(0,0,0)" fill-opacity="0.0" stroke-width="1.0e-2" font-size="1.0em"><path d="M 0.0,0.0 h 1.0 " /></g></g></g></svg>