<?xml version="1.0" encoding="UTF-8"?>
<!DOCTYPE svg PUBLIC "-//W3C//DTD SVG 1.1//EN"
    "http://www.w3.org/Graphics/SVG/1.1/DTD/svg11.dtd">
<svg xmlns="http://www.w3.org/2000/svg" xmlns:xlink="http://www.w3.org/1999/xlink" version="1.1" width="400.0" height="101.8159535455558" font-size="1" viewBox="0 0 400 102"><g><g transform="matrix(90.90909090909086,0.0,0.0,90.90909090909086,200.0,50.90797677277791)"><g stroke="rgb(255,255,255)" stroke-opacity="1.0" fill="rgb(255,255,255)" fill-opacity="1.0" stroke-width="1.0e-2" font-size="1.0em" clip-path="url(#myClip1)"><clipPath id="myClip1"><path d="M 1.9307627368790152,-4.320178357976168e-2 l -7.364818725667803e-2,-0.1941943099082857 l -0.15545882687829055,-0.13772450265866157 l -0.20165572274404525,-4.97036716101213e-2 l -0.20165572274404522,4.97036716101213e-2 l -0.15545882687829055,0.13772450265866157 l -7.364818725667789e-2,0.19419430990828587 l 2.503436450856772e-2,0.20617654105305527 l 0.11798184506169819,0.17092621133924255 l 0.18390110674656077,9.65187464917577e-2 h 0.20769084112437397 l 0.1839011067465605,-9.651874649175733e-2 l 0.11798184506169837,-0.17092621133924235 Z" /></clipPath><path d="M 1.9307627368790148,0.43672427376089906 l -4.782427086336291e-17,-0.8552439830611239 h -0.43076273687901373 l -4.782427086336291e-17,0.8552439830611239 Z" /></g></g><g transform="matrix(90.90909090909086,0.0,0.0,90.90909090909086,200.0,50.90797677277791)"><g stroke="rgb(255,255,255)" stroke-opacity="1.0" fill="rgb(255,255,255)" fill-opacity="1.0" stroke-width="1.0e-2" font-size="1.0em" clip-path="url(#myClip2)"><clipPath id="myClip2"><path d="M 1.9307627368790152,-4.320178357976168e-2 l -7.364818725667803e-2,-0.1941943099082857 l -0.15545882687829055,-0.13772450265866157 l -0.20165572274404525,-4.97036716101213e-2 l -0.20165572274404522,4.97036716101213e-2 l -0.15545882687829055,0.13772450265866157 l -7.364818725667789e-2,0.19419430990828587 l 2.503436450856772e-2,0.20617654105305527 l 0.11798184506169819,0.17092621133924255 l 0.18390110674656077,9.65187464917577e-2 h 0.20769084112437397 l 0.1839011067465605,-9.651874649175733e-2 l 0.11798184506169837,-0.17092621133924235 Z" /></clipPath><path d="M 1.5000000000000009,0.43672427376089906 l -4.782427086336291e-17,-0.8552439830611239 h -0.43076273687901373 l -4.782427086336291e-17,0.8552439830611239 Z" /></g></g><g transform="matrix(90.90909090909086,0.0,0.0,90.90909090909086,200.0,50.90797677277791)"><g stroke="rgb(255,165,0)" stroke-opacity="1.0" fill="rgb(0,0,0)" fill-opacity="0.0" stroke-width="1.0e-2" font-size="1.0em"><path d="M 1.7629560916595663,-0.34294768064945647 c 1.7768610586727355e-2,-3.385525891104342e-2 4.727805492775728e-3,-7.570467382604534e-2 -2.9127453418267682e-2 -9.34732844127727e-2c -3.385525891104342e-2,-1.776861058672736e-2 -7.570467382604533e-2,-4.7278054927757315e-3 -9.347328441277268e-2 2.9127453418267675e-2c -1.776861058672736e-2,3.385525891104342e-2 -4.727805492775735e-3,7.570467382604533e-2 2.9127453418267668e-2 9.347328441277268e-2c 3.385525891104342e-2,1.7768610586727362e-2 7.570467382604533e-2,4.7278054927757385e-3 9.347328441277267e-2 -2.912745341826766e-2Z" /></g></g><g transform="matrix(90.90909090909086,0.0,0.0,90.90909090909086,200.0,50.90797677277791)"><g stroke="rgb(255,165,0)" stroke-opacity="1.0" fill="rgb(0,0,0)" fill-opacity="0.0" stroke-width="1.0e-2" font-size="1.0em"><path d="M 1.8964418313095694,-0.18042068970829983 c 3.1466646623006314e-2,-2.1719857928158504e-2 3.9367980020673266e-2,-6.4836038843974e-2 1.7648122092514762e-2 -9.630268546698031e-2c -2.17198579281585e-2,-3.1466646623006314e-2 -6.4836038843974e-2,-3.9367980020673266e-2 -9.63026854669803e-2 -1.764812209251477e-2c -3.1466646623006314e-2,2.17198579281585e-2 -3.9367980020673266e-2,6.4836038843974e-2 -1.7648122092514776e-2 9.630268546698029e-2c 2.1719857928158497e-2,3.146664662300632e-2 6.483603884397399e-2,3.9367980020673266e-2 9.630268546698029e-2 1.7648122092514776e-2Z" /></g></g><g transform="matrix(90.90909090909086,0.0,0.0,90.90909090909086,200.0,50.90797677277791)"><g stroke="rgb(255,165,0)" stroke-opacity="1.0" fill="rgb(0,0,0)" fill-opacity="0.0" stroke-width="1.0e-2" font-size="1.0em"><path d="M 1.9391075250485372,2.552373010459015e-2 c 3.7956053132154985e-2,-4.608699246595758e-3 6.498942476142491e-2,-3.911424872171937e-2 6.0380725514829155e-2 -7.707030185387435e-2c -4.608699246595755e-3,-3.7956053132154985e-2 -3.911424872171937e-2,-6.498942476142491e-2 -7.707030185387434e-2 -6.0380725514829155e-2c -3.7956053132154985e-2,4.608699246595753e-3 -6.498942476142491e-2,3.911424872171937e-2 -6.0380725514829155e-2 7.707030185387434e-2c 4.608699246595751e-3,3.7956053132154985e-2 3.911424872171936e-2,6.498942476142491e-2 7.707030185387433e-2 6.0380725514829155e-2Z" /></g></g><g transform="matrix(90.90909090909086,0.0,0.0,90.90909090909086,200.0,50.90797677277791)"><g stroke="rgb(255,165,0)" stroke-opacity="1.0" fill="rgb(0,0,0)" fill-opacity="0.0" stroke-width="1.0e-2" font-size="1.0em"><path d="M 1.881178976618221,0.22770619410938897 c 3.575018528875373e-2,1.355825689151526e-2 7.572257549680597e-2,-4.431855595115563e-3 8.928083238832121e-2 -4.0182040883869286e-2c 1.3558256891515262e-2,-3.575018528875373e-2 -4.431855595115559e-3,-7.572257549680596e-2 -4.018204088386927e-2 -8.928083238832121e-2c -3.575018528875373e-2,-1.3558256891515266e-2 -7.572257549680596e-2,4.431855595115556e-3 -8.928083238832121e-2 4.018204088386927e-2c -1.3558256891515267e-2,3.575018528875373e-2 4.4318555951155525e-3,7.572257549680596e-2 4.018204088386926e-2 8.928083238832121e-2Z" /></g></g><g transform="matrix(90.90909090909086,0.0,0.0,90.90909090909086,200.0,50.90797677277791)"><g stroke="rgb(255,165,0)" stroke-opacity="1.0" fill="rgb(0,0,0)" fill-opacity="0.0" stroke-width="1.0e-2" font-size="1.0em"><path d="M 1.7359269183493184,0.3798091363654236 c 2.5354380832136477e-2,2.861917977048845e-2 6.910859674182898e-2,3.126582223867944e-2 9.772777651231743e-2 5.911441406542969e-3c 2.861917977048845e-2,-2.5354380832136474e-2 3.126582223867945e-2,-6.910859674182898e-2 5.911441406542976e-3 -9.772777651231743e-2c -2.5354380832136474e-2,-2.8619179770488452e-2 -6.910859674182897e-2,-3.126582223867945e-2 -9.772777651231741e-2 -5.911441406542983e-3c -2.8619179770488452e-2,2.535438083213647e-2 -3.126582223867945e-2,6.910859674182897e-2 -5.91144140654299e-3 9.77277765123174e-2Z" /></g></g><g transform="matrix(90.90909090909086,0.0,0.0,90.90909090909086,200.0,50.90797677277791)"><g stroke="rgb(255,165,0)" stroke-opacity="1.0" fill="rgb(0,0,0)" fill-opacity="0.0" stroke-width="1.0e-2" font-size="1.0em"><path d="M 1.5366268463141728,0.44698760584100106 c 9.150193280289242e-3,3.7123793462547634e-2 4.666267132217454e-2,5.980087699159726e-2 8.378646478472217e-2 5.0650683711308014e-2c 3.7123793462547634e-2,-9.15019328028924e-3 5.980087699159726e-2,-4.666267132217454e-2 5.065068371130802e-2 -8.378646478472215e-2c -9.150193280289237e-3,-3.7123793462547634e-2 -4.666267132217453e-2,-5.980087699159726e-2 -8.378646478472215e-2 -5.065068371130802e-2c -3.7123793462547634e-2,9.150193280289235e-3 -5.980087699159726e-2,4.6662671322174526e-2 -5.065068371130803e-2 8.378646478472214e-2Z" /></g></g><g transform="matrix(90.90909090909086,0.0,0.0,90.90909090909086,200.0,50.90797677277791)"><g stroke="rgb(255,165,0)" stroke-opacity="1.0" fill="rgb(0,0,0)" fill-opacity="0.0" stroke-width="1.0e-2" font-size="1.0em"><path d="M 1.3289360051897987,0.41385182476758686 c -9.150193280289235e-3,3.7123793462547634e-2 1.3526890248760384e-2,7.463627150443293e-2 5.0650683711308014e-2 8.378646478472217e-2c 3.7123793462547634e-2,9.150193280289237e-3 7.463627150443293e-2,-1.352689024876038e-2 8.378646478472217e-2 -5.0650683711308e-2c 9.15019328028924e-3,-3.7123793462547634e-2 -1.3526890248760377e-2,-7.463627150443293e-2 -5.0650683711308e-2 -8.378646478472217e-2c -3.7123793462547634e-2,-9.150193280289242e-3 -7.463627150443293e-2,1.3526890248760373e-2 -8.378646478472215e-2 5.065068371130799e-2Z" /></g></g><g transform="matrix(90.90909090909086,0.0,0.0,90.90909090909086,200.0,50.90797677277791)"><g stroke="rgb(255,165,0)" stroke-opacity="1.0" fill="rgb(0,0,0)" fill-opacity="0.0" stroke-width="1.0e-2" font-size="1.0em"><path d="M 1.160433863731823,0.2879928012596492 c -2.535438083213647e-2,2.8619179770488452e-2 -2.2707738363945476e-2,7.237339568018095e-2 5.911441406542969e-3 9.772777651231743e-2c 2.8619179770488452e-2,2.5354380832136474e-2 7.237339568018095e-2,2.270773836394548e-2 9.772777651231741e-2 -5.911441406542969e-3c 2.5354380832136474e-2,-2.861917977048845e-2 2.2707738363945483e-2,-7.237339568018095e-2 -5.911441406542962e-3 -9.77277765123174e-2c -2.861917977048845e-2,-2.5354380832136477e-2 -7.237339568018095e-2,-2.2707738363945486e-2 -9.77277765123174e-2 5.9114414065429555e-3Z" /></g></g><g transform="matrix(90.90909090909086,0.0,0.0,90.90909090909086,200.0,50.90797677277791)"><g stroke="rgb(255,165,0)" stroke-opacity="1.0" fill="rgb(0,0,0)" fill-opacity="0.0" stroke-width="1.0e-2" font-size="1.0em"><path d="M 1.0697222318773287,9.824332083719853e-2 c -3.575018528875373e-2,1.3558256891515267e-2 -5.3740297775384555e-2,5.353064709956751e-2 -4.018204088386929e-2 8.928083238832123e-2c 1.3558256891515266e-2,3.575018528875373e-2 5.35306470995675e-2,5.3740297775384555e-2 8.928083238832121e-2 4.018204088386929e-2c 3.575018528875373e-2,-1.3558256891515262e-2 5.3740297775384555e-2,-5.3530647099567494e-2 4.01820408838693e-2 -8.928083238832121e-2c -1.355825689151526e-2,-3.575018528875373e-2 -5.3530647099567494e-2,-5.374029777538456e-2 -8.92808323883212e-2 -4.01820408838693e-2Z" /></g></g><g transform="matrix(90.90909090909086,0.0,0.0,90.90909090909086,200.0,50.90797677277791)"><g stroke="rgb(255,165,0)" stroke-opacity="1.0" fill="rgb(0,0,0)" fill-opacity="0.0" stroke-width="1.0e-2" font-size="1.0em"><path d="M 1.0775820512905097,-0.1119272972641133 c -3.795605313215499e-2,-4.60869924659575e-3 -7.246160260727862e-2,2.242467238267418e-2 -7.707030185387437e-2 6.038072551482916e-2c -4.6086992465957525e-3,3.795605313215499e-2 2.2424672382674177e-2,7.246160260727862e-2 6.038072551482915e-2 7.707030185387437e-2c 3.795605313215499e-2,4.608699246595754e-3 7.246160260727862e-2,-2.2424672382674173e-2 7.707030185387437e-2 -6.038072551482915e-2c 4.608699246595757e-3,-3.795605313215499e-2 -2.242467238267417e-2,-7.246160260727862e-2 -6.0380725514829134e-2 -7.707030185387435e-2Z" /></g></g><g transform="matrix(90.90909090909086,0.0,0.0,90.90909090909086,200.0,50.90797677277791)"><g stroke="rgb(255,165,0)" stroke-opacity="1.0" fill="rgb(0,0,0)" fill-opacity="0.0" stroke-width="1.0e-2" font-size="1.0em"><path d="M 1.1822127320648979,-0.2943714972677949 c -3.146664662300632e-2,-2.17198579281585e-2 -7.458282753882182e-2,-1.3818524530491552e-2 -9.630268546698031e-2 1.7648122092514762e-2c -2.1719857928158504e-2,3.146664662300632e-2 -1.3818524530491556e-2,7.458282753882182e-2 1.7648122092514755e-2 9.630268546698031e-2c 3.146664662300632e-2,2.1719857928158504e-2 7.458282753882182e-2,1.3818524530491559e-2 9.630268546698031e-2 -1.7648122092514748e-2c 2.1719857928158507e-2,-3.1466646623006314e-2 1.3818524530491559e-2,-7.458282753882181e-2 -1.764812209251474e-2 -9.630268546698031e-2Z" /></g></g><g transform="matrix(90.90909090909086,0.0,0.0,90.90909090909086,200.0,50.90797677277791)"><g stroke="rgb(255,165,0)" stroke-opacity="1.0" fill="rgb(0,0,0)" fill-opacity="0.0" stroke-width="1.0e-2" font-size="1.0em"><path d="M 1.359644646171476,-0.40729351164396144 c -1.7768610586727362e-2,-3.385525891104342e-2 -5.961802550172929e-2,-4.689606400499505e-2 -9.34732844127727e-2 -2.912745341826769e-2c -3.385525891104342e-2,1.776861058672736e-2 -4.689606400499505e-2,5.961802550172928e-2 -2.9127453418267696e-2 9.34732844127727e-2c 1.776861058672736e-2,3.385525891104342e-2 5.9618025501729274e-2,4.689606400499505e-2 9.347328441277268e-2 2.9127453418267696e-2c 3.385525891104342e-2,-1.7768610586727355e-2 4.6896064004995054e-2,-5.9618025501729274e-2 2.9127453418267703e-2 -9.347328441277267e-2Z" /></g></g><g transform="matrix(90.90909090909086,0.0,0.0,90.90909090909086,200.0,50.90797677277791)"><g stroke="rgb(255,165,0)" stroke-opacity="1.0" fill="rgb(0,0,0)" fill-opacity="0.0" stroke-width="1.0e-2" font-size="1.0em"><path d="M 1.5692302803747922,-0.42482426775683013 c 0.0,-3.8234828077507346e-2 -3.0995452297284027e-2,-6.923028037479138e-2 -6.923028037479137e-2 -6.923028037479138e-2c -3.8234828077507346e-2,-2.3412079910534363e-18 -6.923028037479138e-2,3.0995452297284024e-2 -6.923028037479138e-2 6.923028037479136e-2c -4.6824159821068726e-18,3.8234828077507346e-2 3.099545229728402e-2,6.923028037479138e-2 6.923028037479136e-2 6.923028037479138e-2c 3.8234828077507346e-2,7.023623973160309e-18 6.923028037479138e-2,-3.0995452297284017e-2 6.923028037479138e-2 -6.923028037479134e-2Z" /></g></g><g transform="matrix(90.90909090909086,0.0,0.0,90.90909090909086,200.0,50.90797677277791)"><g stroke="rgb(255,255,89)" stroke-opacity="1.0" fill="rgb(255,255,89)" fill-opacity="1.0" stroke-width="1.0e-2" font-size="1.0em" clip-path="url(#myClip16)"><clipPath id="myClip16"><path d="M 0.48988828547771046,1.6573878170719536e-2 l -4.5571012860801027e-4,-2.987943343828237e-2 l -2.2764314549423353e-3,-2.979607481103866e-2 l -4.088684306747355e-3,-2.9601872828485372e-2 l -5.885726984385914e-3,-2.929754993475282e-2 l -7.660874371066636e-3,-2.8884238230993696e-2 l -9.407522801919215e-3,-2.836347526389231e-2 l -1.1119174630060541e-2,-2.7737198305890283e-2 l -1.2789462398268248e-2,-2.700773714840516e-2 l -1.441217252633981e-2,-2.6177805434854134e-2 l -1.5981268426018862e-2,-2.525049056572163e-2 l -1.7490912957499938e-2,-2.4229242213227035e-2 l -1.8935490143972535e-2,-2.3117859488317363e-2 l -2.0309626063422098e-2,-2.1920476807725475e-2 l -2.160820883997541e-2,-2.0641548513667087e-2 l -2.2826407660412256e-2,-1.9285832303396606e-2 l -2.3959690745109154e-2,-1.78583715302599e-2 l -2.500384220655638e-2,-1.636447644208906e-2 l -2.595497773273785e-2,-1.4809704426731298e-2 l -2.6809559037025e-2,-1.3199839338201654e-2 l -2.7564407020836883e-2,-1.154086998036551e-2 l -2.8216713600095113e-2,-9.838967828195776e-3 l -2.8764052151481267e-2,-8.100464069479523e-3 l -2.9204386539634895e-2,-6.331826052384769e-3 l -2.9536078691710703e-2,-4.539633226499161e-3 l -2.9757894691117476e-2,-2.7305526668472526e-3 l -2.9869009367768432e-2,-9.113142719312263e-4 l -2.9869009367768304e-2,9.11314271931651e-4 l -2.975789469111743e-2,2.730552666847819e-3 l -2.9536078691710835e-2,4.539633226499798e-3 l -2.9204386539634666e-2,6.331826052385123e-3 l -2.876405215148114e-2,8.100464069480019e-3 l -2.8216713600094975e-2,9.83896782819627e-3 l -2.756440702083656e-2,1.1540869980365935e-2 l -2.680955903702465e-2,1.3199839338202008e-2 l -2.595497773273757e-2,1.4809704426731721e-2 l -2.500384220655613e-2,1.6364476442089413e-2 l -2.3959690745108696e-2,1.785837153026018e-2 l -2.282640766041183e-2,1.928583230339689e-2 l -2.1608208839975055e-2,2.06415485136673e-2 l -2.0309626063421814e-2,2.1920476807725686e-2 l -1.8935490143971972e-2,2.3117859488317714e-2 l -1.749091295749951e-2,2.4229242213227104e-2 l -1.5981268426018505e-2,2.5250490565721772e-2 l -1.4412172526339457e-2,2.617780543485424e-2 l -1.2789462398267752e-2,2.70077371484053e-2 l -1.1119174630060116e-2,2.773719830589035e-2 l -9.40752280191879e-3,2.8363475263892345e-2 l -7.660874371066212e-3,2.8884238230993717e-2 l -5.885726984385489e-3,2.9297549934752802e-2 l -4.088684306747002e-3,2.9601872828485327e-2 l -2.2764314549418405e-3,2.97960748110386e-2 l -4.5571012860765633e-4,2.987943343828207e-2 l 1.3667064693359684e-3,2.985163861064825e-2 l 3.1840388294481644e-3,2.9712793726720213e-2 l 4.989526355986359e-3,2.9463415298586364e-2 l 6.776452516767284e-3,2.910443103037825e-2 l 8.538169829106945e-3,2.863717636715251e-2 l 1.0268124588893512e-2,2.806338952694453e-2 l 1.1959881250796674e-2,2.7385205034487072e-2 l 1.3607146368919694e-2,2.6605145780635546e-2 l 1.520379200882935e-2,2.5726113637047597e-2 l 1.674387854387875e-2,2.475137866103438e-2 l 1.8221676751002853e-2,2.3684566930725494e-2 l 1.963168912381e-2,2.2529647055827495e-2 l 2.0968670323662394e-2,2.129091541412883e-2 l 2.2227646692685028e-2,1.997298016869919e-2 l 2.3403934756093595e-2,1.858074412521127e-2 l 2.4493158645034204e-2,1.711938649319065e-2 l 2.5491266375099603e-2,1.559434361901062e-2 l 2.639454491997768e-2,1.4011288762327948e-2 l 2.7199634024154214e-2,1.2376110991184894e-2 l 2.7903538703283232e-2,1.0694893274289201e-2 l 2.850364038572552e-2,8.973889851970146e-3 l 2.8997706653807825e-2,7.219502969994897e-3 l 2.9383899548562478e-2,5.438259062792828e-3 l 2.9660782407055677e-2,3.6367844746910405e-3 l 2.9827325206868163e-2,1.8217808094784709e-3 l 2.988290839784604e-2,7.077694495158021e-17 l 2.9827325206868153e-2,-1.8217808094786122e-3 l 2.9660782407055677e-2,-3.636784474690969e-3 l 2.9383899548562478e-2,-5.438259062792758e-3 l 2.8997706653807846e-2,-7.219502969994966e-3 l 2.8503640385725542e-2,-8.973889851970217e-3 l 2.7903538703283163e-2,-1.0694893274289201e-2 l 2.7199634024154214e-2,-1.2376110991184967e-2 l 2.639454491997768e-2,-1.4011288762327876e-2 l 2.5491266375099568e-2,-1.5594343619010692e-2 l 2.449315864503424e-2,-1.711938649319072e-2 l 2.3403934756093633e-2,-1.858074412521127e-2 l 2.2227646692684705e-2,-1.9972980168698837e-2 l 2.096867032366261e-2,-2.129091541412925e-2 l 1.9631689123809793e-2,-2.252964705582721e-2 l 1.8221676751002922e-2,-2.3684566930725525e-2 l 1.674387854387861e-2,-2.4751378661034208e-2 l 1.5203792008829632e-2,-2.5726113637047947e-2 l 1.3607146368919484e-2,-2.6605145780635366e-2 l 1.1959881250796814e-2,-2.7385205034487107e-2 l 1.026812458889344e-2,-2.8063389526944496e-2 l 8.538169829106945e-3,-2.863717636715228e-2 l 6.776452516767212e-3,-2.9104431030378474e-2 l 4.989526355986429e-3,-2.9463415298586374e-2 l 3.1840388294481644e-3,-2.9712793726720203e-2 Z" /></clipPath><path d="M 0.4898882854777104,0.4989336006297363 l -3.625901693543288e-17,-0.9796626367987984 h -0.32659219031847203 l -3.625901693543288e-17,0.9796626367987984 Z" /></g></g><g transform="matrix(90.90909090909086,0.0,0.0,90.90909090909086,200.0,50.90797677277791)"><g stroke="rgb(89,89,89)" stroke-opacity="1.0" fill="rgb(89,89,89)" fill-opacity="1.0" stroke-width="1.0e-2" font-size="1.0em" clip-path="url(#myClip17)"><clipPath id="myClip17"><path d="M 0.48988828547771046,1.6573878170719536e-2 l -4.5571012860801027e-4,-2.987943343828237e-2 l -2.2764314549423353e-3,-2.979607481103866e-2 l -4.088684306747355e-3,-2.9601872828485372e-2 l -5.885726984385914e-3,-2.929754993475282e-2 l -7.660874371066636e-3,-2.8884238230993696e-2 l -9.407522801919215e-3,-2.836347526389231e-2 l -1.1119174630060541e-2,-2.7737198305890283e-2 l -1.2789462398268248e-2,-2.700773714840516e-2 l -1.441217252633981e-2,-2.6177805434854134e-2 l -1.5981268426018862e-2,-2.525049056572163e-2 l -1.7490912957499938e-2,-2.4229242213227035e-2 l -1.8935490143972535e-2,-2.3117859488317363e-2 l -2.0309626063422098e-2,-2.1920476807725475e-2 l -2.160820883997541e-2,-2.0641548513667087e-2 l -2.2826407660412256e-2,-1.9285832303396606e-2 l -2.3959690745109154e-2,-1.78583715302599e-2 l -2.500384220655638e-2,-1.636447644208906e-2 l -2.595497773273785e-2,-1.4809704426731298e-2 l -2.6809559037025e-2,-1.3199839338201654e-2 l -2.7564407020836883e-2,-1.154086998036551e-2 l -2.8216713600095113e-2,-9.838967828195776e-3 l -2.8764052151481267e-2,-8.100464069479523e-3 l -2.9204386539634895e-2,-6.331826052384769e-3 l -2.9536078691710703e-2,-4.539633226499161e-3 l -2.9757894691117476e-2,-2.7305526668472526e-3 l -2.9869009367768432e-2,-9.113142719312263e-4 l -2.9869009367768304e-2,9.11314271931651e-4 l -2.975789469111743e-2,2.730552666847819e-3 l -2.9536078691710835e-2,4.539633226499798e-3 l -2.9204386539634666e-2,6.331826052385123e-3 l -2.876405215148114e-2,8.100464069480019e-3 l -2.8216713600094975e-2,9.83896782819627e-3 l -2.756440702083656e-2,1.1540869980365935e-2 l -2.680955903702465e-2,1.3199839338202008e-2 l -2.595497773273757e-2,1.4809704426731721e-2 l -2.500384220655613e-2,1.6364476442089413e-2 l -2.3959690745108696e-2,1.785837153026018e-2 l -2.282640766041183e-2,1.928583230339689e-2 l -2.1608208839975055e-2,2.06415485136673e-2 l -2.0309626063421814e-2,2.1920476807725686e-2 l -1.8935490143971972e-2,2.3117859488317714e-2 l -1.749091295749951e-2,2.4229242213227104e-2 l -1.5981268426018505e-2,2.5250490565721772e-2 l -1.4412172526339457e-2,2.617780543485424e-2 l -1.2789462398267752e-2,2.70077371484053e-2 l -1.1119174630060116e-2,2.773719830589035e-2 l -9.40752280191879e-3,2.8363475263892345e-2 l -7.660874371066212e-3,2.8884238230993717e-2 l -5.885726984385489e-3,2.9297549934752802e-2 l -4.088684306747002e-3,2.9601872828485327e-2 l -2.2764314549418405e-3,2.97960748110386e-2 l -4.5571012860765633e-4,2.987943343828207e-2 l 1.3667064693359684e-3,2.985163861064825e-2 l 3.1840388294481644e-3,2.9712793726720213e-2 l 4.989526355986359e-3,2.9463415298586364e-2 l 6.776452516767284e-3,2.910443103037825e-2 l 8.538169829106945e-3,2.863717636715251e-2 l 1.0268124588893512e-2,2.806338952694453e-2 l 1.1959881250796674e-2,2.7385205034487072e-2 l 1.3607146368919694e-2,2.6605145780635546e-2 l 1.520379200882935e-2,2.5726113637047597e-2 l 1.674387854387875e-2,2.475137866103438e-2 l 1.8221676751002853e-2,2.3684566930725494e-2 l 1.963168912381e-2,2.2529647055827495e-2 l 2.0968670323662394e-2,2.129091541412883e-2 l 2.2227646692685028e-2,1.997298016869919e-2 l 2.3403934756093595e-2,1.858074412521127e-2 l 2.4493158645034204e-2,1.711938649319065e-2 l 2.5491266375099603e-2,1.559434361901062e-2 l 2.639454491997768e-2,1.4011288762327948e-2 l 2.7199634024154214e-2,1.2376110991184894e-2 l 2.7903538703283232e-2,1.0694893274289201e-2 l 2.850364038572552e-2,8.973889851970146e-3 l 2.8997706653807825e-2,7.219502969994897e-3 l 2.9383899548562478e-2,5.438259062792828e-3 l 2.9660782407055677e-2,3.6367844746910405e-3 l 2.9827325206868163e-2,1.8217808094784709e-3 l 2.988290839784604e-2,7.077694495158021e-17 l 2.9827325206868153e-2,-1.8217808094786122e-3 l 2.9660782407055677e-2,-3.636784474690969e-3 l 2.9383899548562478e-2,-5.438259062792758e-3 l 2.8997706653807846e-2,-7.219502969994966e-3 l 2.8503640385725542e-2,-8.973889851970217e-3 l 2.7903538703283163e-2,-1.0694893274289201e-2 l 2.7199634024154214e-2,-1.2376110991184967e-2 l 2.639454491997768e-2,-1.4011288762327876e-2 l 2.5491266375099568e-2,-1.5594343619010692e-2 l 2.449315864503424e-2,-1.711938649319072e-2 l 2.3403934756093633e-2,-1.858074412521127e-2 l 2.2227646692684705e-2,-1.9972980168698837e-2 l 2.096867032366261e-2,-2.129091541412925e-2 l 1.9631689123809793e-2,-2.252964705582721e-2 l 1.8221676751002922e-2,-2.3684566930725525e-2 l 1.674387854387861e-2,-2.4751378661034208e-2 l 1.5203792008829632e-2,-2.5726113637047947e-2 l 1.3607146368919484e-2,-2.6605145780635366e-2 l 1.1959881250796814e-2,-2.7385205034487107e-2 l 1.026812458889344e-2,-2.8063389526944496e-2 l 8.538169829106945e-3,-2.863717636715228e-2 l 6.776452516767212e-3,-2.9104431030378474e-2 l 4.989526355986429e-3,-2.9463415298586374e-2 l 3.1840388294481644e-3,-2.9712793726720203e-2 Z" /></clipPath><path d="M 0.16329609515923826,0.4989336006297363 l -3.625901693543288e-17,-0.9796626367987984 h -0.32659219031847203 l -3.625901693543288e-17,0.9796626367987984 Z" /></g></g><g transform="matrix(90.90909090909086,0.0,0.0,90.90909090909086,200.0,50.90797677277791)"><g stroke="rgb(255,89,89)" stroke-opacity="1.0" fill="rgb(255,89,89)" fill-opacity="1.0" stroke-width="1.0e-2" font-size="1.0em" clip-path="url(#myClip18)"><clipPath id="myClip18"><path d="M 0.48988828547771046,1.6573878170719536e-2 l -4.5571012860801027e-4,-2.987943343828237e-2 l -2.2764314549423353e-3,-2.979607481103866e-2 l -4.088684306747355e-3,-2.9601872828485372e-2 l -5.885726984385914e-3,-2.929754993475282e-2 l -7.660874371066636e-3,-2.8884238230993696e-2 l -9.407522801919215e-3,-2.836347526389231e-2 l -1.1119174630060541e-2,-2.7737198305890283e-2 l -1.2789462398268248e-2,-2.700773714840516e-2 l -1.441217252633981e-2,-2.6177805434854134e-2 l -1.5981268426018862e-2,-2.525049056572163e-2 l -1.7490912957499938e-2,-2.4229242213227035e-2 l -1.8935490143972535e-2,-2.3117859488317363e-2 l -2.0309626063422098e-2,-2.1920476807725475e-2 l -2.160820883997541e-2,-2.0641548513667087e-2 l -2.2826407660412256e-2,-1.9285832303396606e-2 l -2.3959690745109154e-2,-1.78583715302599e-2 l -2.500384220655638e-2,-1.636447644208906e-2 l -2.595497773273785e-2,-1.4809704426731298e-2 l -2.6809559037025e-2,-1.3199839338201654e-2 l -2.7564407020836883e-2,-1.154086998036551e-2 l -2.8216713600095113e-2,-9.838967828195776e-3 l -2.8764052151481267e-2,-8.100464069479523e-3 l -2.9204386539634895e-2,-6.331826052384769e-3 l -2.9536078691710703e-2,-4.539633226499161e-3 l -2.9757894691117476e-2,-2.7305526668472526e-3 l -2.9869009367768432e-2,-9.113142719312263e-4 l -2.9869009367768304e-2,9.11314271931651e-4 l -2.975789469111743e-2,2.730552666847819e-3 l -2.9536078691710835e-2,4.539633226499798e-3 l -2.9204386539634666e-2,6.331826052385123e-3 l -2.876405215148114e-2,8.100464069480019e-3 l -2.8216713600094975e-2,9.83896782819627e-3 l -2.756440702083656e-2,1.1540869980365935e-2 l -2.680955903702465e-2,1.3199839338202008e-2 l -2.595497773273757e-2,1.4809704426731721e-2 l -2.500384220655613e-2,1.6364476442089413e-2 l -2.3959690745108696e-2,1.785837153026018e-2 l -2.282640766041183e-2,1.928583230339689e-2 l -2.1608208839975055e-2,2.06415485136673e-2 l -2.0309626063421814e-2,2.1920476807725686e-2 l -1.8935490143971972e-2,2.3117859488317714e-2 l -1.749091295749951e-2,2.4229242213227104e-2 l -1.5981268426018505e-2,2.5250490565721772e-2 l -1.4412172526339457e-2,2.617780543485424e-2 l -1.2789462398267752e-2,2.70077371484053e-2 l -1.1119174630060116e-2,2.773719830589035e-2 l -9.40752280191879e-3,2.8363475263892345e-2 l -7.660874371066212e-3,2.8884238230993717e-2 l -5.885726984385489e-3,2.9297549934752802e-2 l -4.088684306747002e-3,2.9601872828485327e-2 l -2.2764314549418405e-3,2.97960748110386e-2 l -4.5571012860765633e-4,2.987943343828207e-2 l 1.3667064693359684e-3,2.985163861064825e-2 l 3.1840388294481644e-3,2.9712793726720213e-2 l 4.989526355986359e-3,2.9463415298586364e-2 l 6.776452516767284e-3,2.910443103037825e-2 l 8.538169829106945e-3,2.863717636715251e-2 l 1.0268124588893512e-2,2.806338952694453e-2 l 1.1959881250796674e-2,2.7385205034487072e-2 l 1.3607146368919694e-2,2.6605145780635546e-2 l 1.520379200882935e-2,2.5726113637047597e-2 l 1.674387854387875e-2,2.475137866103438e-2 l 1.8221676751002853e-2,2.3684566930725494e-2 l 1.963168912381e-2,2.2529647055827495e-2 l 2.0968670323662394e-2,2.129091541412883e-2 l 2.2227646692685028e-2,1.997298016869919e-2 l 2.3403934756093595e-2,1.858074412521127e-2 l 2.4493158645034204e-2,1.711938649319065e-2 l 2.5491266375099603e-2,1.559434361901062e-2 l 2.639454491997768e-2,1.4011288762327948e-2 l 2.7199634024154214e-2,1.2376110991184894e-2 l 2.7903538703283232e-2,1.0694893274289201e-2 l 2.850364038572552e-2,8.973889851970146e-3 l 2.8997706653807825e-2,7.219502969994897e-3 l 2.9383899548562478e-2,5.438259062792828e-3 l 2.9660782407055677e-2,3.6367844746910405e-3 l 2.9827325206868163e-2,1.8217808094784709e-3 l 2.988290839784604e-2,7.077694495158021e-17 l 2.9827325206868153e-2,-1.8217808094786122e-3 l 2.9660782407055677e-2,-3.636784474690969e-3 l 2.9383899548562478e-2,-5.438259062792758e-3 l 2.8997706653807846e-2,-7.219502969994966e-3 l 2.8503640385725542e-2,-8.973889851970217e-3 l 2.7903538703283163e-2,-1.0694893274289201e-2 l 2.7199634024154214e-2,-1.2376110991184967e-2 l 2.639454491997768e-2,-1.4011288762327876e-2 l 2.5491266375099568e-2,-1.5594343619010692e-2 l 2.449315864503424e-2,-1.711938649319072e-2 l 2.3403934756093633e-2,-1.858074412521127e-2 l 2.2227646692684705e-2,-1.9972980168698837e-2 l 2.096867032366261e-2,-2.129091541412925e-2 l 1.9631689123809793e-2,-2.252964705582721e-2 l 1.8221676751002922e-2,-2.3684566930725525e-2 l 1.674387854387861e-2,-2.4751378661034208e-2 l 1.5203792008829632e-2,-2.5726113637047947e-2 l 1.3607146368919484e-2,-2.6605145780635366e-2 l 1.1959881250796814e-2,-2.7385205034487107e-2 l 1.026812458889344e-2,-2.8063389526944496e-2 l 8.538169829106945e-3,-2.863717636715228e-2 l 6.776452516767212e-3,-2.9104431030378474e-2 l 4.989526355986429e-3,-2.9463415298586374e-2 l 3.1840388294481644e-3,-2.9712793726720203e-2 Z" /></clipPath><path d="M -0.16329609515923388,0.4989336006297363 l -3.625901693543288e-17,-0.9796626367987984 h -0.32659219031847203 l -3.625901693543288e-17,0.9796626367987984 Z" /></g></g><g transform="matrix(90.90909090909086,0.0,0.0,90.90909090909086,200.0,50.90797677277791)"><g stroke="rgb(0,0,0)" stroke-opacity="1.0" fill="rgb(0,128,0)" fill-opacity="1.0" stroke-width="0.0" font-size="1.0em"><path d="M 3.920419083356727e-2,-0.46938196067353516 l 1.2145205396524104e-3,-1.9884883471245503e-2 l -1.9884883471245503e-2,-1.2145205396524126e-3 l -1.2145205396524147e-3,1.9884883471245503e-2 Z" /></g></g><g transform="matrix(90.90909090909086,0.0,0.0,90.90909090909086,200.0,50.90797677277791)"><g stroke="rgb(0,0,0)" stroke-opacity="1.0" fill="rgb(0,128,0)" fill-opacity="1.0" stroke-width="0.0" font-size="1.0em"><path d="M 6.830157003634307e-2,-0.4661019210515544 l 2.4245229831273453e-3,-1.9773854938037183e-2 l -1.9773854938037183e-2,-2.4245229831273475e-3 l -2.4245229831273496e-3,1.9773854938037183e-2 Z" /></g></g><g transform="matrix(90.90909090909086,0.0,0.0,90.90909090909086,200.0,50.90797677277791)"><g stroke="rgb(0,0,0)" stroke-opacity="1.0" fill="rgb(0,128,0)" fill-opacity="1.0" stroke-width="0.0" font-size="1.0em"><path d="M 9.714486291252208e-2,-0.46105409058185204 l 3.625506041861862e-3,-1.9589266365708374e-2 l -1.9589266365708374e-2,-3.6255060418618644e-3 l -3.6255060418618665e-3,1.9589266365708374e-2 Z" /></g></g><g transform="matrix(90.90909090909086,0.0,0.0,90.90909090909086,200.0,50.90797677277791)"><g stroke="rgb(0,0,0)" stroke-opacity="1.0" fill="rgb(0,128,0)" fill-opacity="1.0" stroke-width="0.0" font-size="1.0em"><path d="M 0.12562677051817128,-0.454257247525318 l 4.813001979996646e-3,-1.9331804435871958e-2 l -1.9331804435871958e-2,-4.813001979996648e-3 l -4.81300197999665e-3,1.9331804435871958e-2 Z" /></g></g><g transform="matrix(90.90909090909086,0.0,0.0,90.90909090909086,200.0,50.90797677277791)"><g stroke="rgb(0,0,0)" stroke-opacity="1.0" fill="rgb(0,128,0)" fill-opacity="1.0" stroke-width="0.0" font-size="1.0em"><path d="M 0.15364133828629992,-0.4457366765845405 l 5.982593234646851e-3,-1.9002426923817074e-2 l -1.9002426923817074e-2,-5.982593234646853e-3 l -5.9825932346468545e-3,1.9002426923817074e-2 Z" /></g></g><g transform="matrix(90.90909090909086,0.0,0.0,90.90909090909086,200.0,50.90797677277791)"><g stroke="rgb(0,0,0)" stroke-opacity="1.0" fill="rgb(0,128,0)" fill-opacity="1.0" stroke-width="0.0" font-size="1.0em"><path d="M 0.18108435018480784,-0.43552407484305233 l 7.129928849526176e-3,-1.860235913552216e-2 l -1.860235913552216e-2,-7.1299288495261775e-3 l -7.129928849526179e-3,1.860235913552216e-2 Z" /></g></g><g transform="matrix(90.90909090909086,0.0,0.0,90.90909090909086,200.0,50.90797677277791)"><g stroke="rgb(0,0,0)" stroke-opacity="1.0" fill="rgb(0,128,0)" fill-opacity="1.0" stroke-width="0.0" font-size="1.0em"><path d="M 0.2078537164069697,-0.4236574338500976 l 8.250740660790023e-3,-1.81330893494362e-2 l -1.81330893494362e-2,-8.250740660790025e-3 l -8.250740660790026e-3,1.81330893494362e-2 Z" /></g></g><g transform="matrix(90.90909090909086,0.0,0.0,90.90909090909086,200.0,50.90797677277791)"><g stroke="rgb(0,0,0)" stroke-opacity="1.0" fill="rgb(0,128,0)" fill-opacity="1.0" stroke-width="0.0" font-size="1.0em"><path d="M 0.23384985315222143,-0.4101808982895737 l 9.340859174885332e-3,-1.7596363279985185e-2 l -1.7596363279985185e-2,-9.340859174885334e-3 l -9.340859174885335e-3,1.7596363279985185e-2 Z" /></g></g><g transform="matrix(90.90909090909086,0.0,0.0,90.90909090909086,200.0,50.90797677277791)"><g stroke="rgb(0,0,0)" stroke-opacity="1.0" fill="rgb(0,128,0)" fill-opacity="1.0" stroke-width="0.0" font-size="1.0em"><path d="M 0.2589760530844389,-0.3951446017589073 l 1.0396229079340454e-2,-1.6994177583399744e-2 l -1.6994177583399744e-2,-1.0396229079340456e-2 l -1.0396229079340458e-2,1.6994177583399744e-2 Z" /></g></g><g transform="matrix(90.90909090909086,0.0,0.0,90.90909090909086,200.0,50.90797677277791)"><g stroke="rgb(0,0,0)" stroke-opacity="1.0" fill="rgb(0,128,0)" fill-opacity="1.0" stroke-width="0.0" font-size="1.0em"><path d="M 0.28313884508958004,-0.3786044802687797 l 1.1412924328793896e-2,-1.6328772430022863e-2 l -1.6328772430022863e-2,-1.1412924328793898e-2 l -1.14129243287939e-2,1.6328772430022863e-2 Z" /></g></g><g transform="matrix(90.90909090909086,0.0,0.0,90.90909090909086,200.0,50.90797677277791)"><g stroke="rgb(0,0,0)" stroke-opacity="1.0" fill="rgb(0,128,0)" fill-opacity="1.0" stroke-width="0.0" font-size="1.0em"><path d="M 0.30624834199436857,-0.360622064157493 l 1.238716275014093e-2,-1.560262317072906e-2 l -1.5602623170729059e-2,-1.2387162750140932e-2 l -1.2387162750140934e-2,1.5602623170729057e-2 Z" /></g></g><g transform="matrix(90.90909090909086,0.0,0.0,90.90909090909086,200.0,50.90797677277791)"><g stroke="rgb(0,0,0)" stroke-opacity="1.0" fill="rgb(0,128,0)" fill-opacity="1.0" stroke-width="0.0" font-size="1.0em"><path d="M 0.32821857495248186,-0.3412642491940699 l 1.3315320112465962e-2,-1.481843112845654e-2 l -1.4818431128456539e-2,-1.3315320112465964e-2 l -1.3315320112465966e-2,1.4818431128456537e-2 Z" /></g></g><g transform="matrix(90.90909090909086,0.0,0.0,90.90909090909086,200.0,50.90797677277791)"><g stroke="rgb(0,0,0)" stroke-opacity="1.0" fill="rgb(0,128,0)" fill-opacity="1.0" stroke-width="0.0" font-size="1.0em"><path d="M 0.3489678132543063,-0.3206030477216 l 1.4193943609419567e-2,-1.3979113549108461e-2 l -1.397911354910846e-2,-1.419394360941957e-2 l -1.4193943609419571e-2,1.3979113549108458e-2 Z" /></g></g><g transform="matrix(90.90909090909086,0.0,0.0,90.90909090909086,200.0,50.90797677277791)"><g stroke="rgb(0,0,0)" stroke-opacity="1.0" fill="rgb(0,128,0)" fill-opacity="1.0" stroke-width="0.0" font-size="1.0em"><path d="M 0.36841886837054466,-0.2987153207665927 l 1.5019764703884903e-2,-1.3087792749206552e-2 l -1.308779274920655e-2,-1.5019764703884905e-2 l -1.5019764703884907e-2,1.3087792749206548e-2 Z" /></g></g><g transform="matrix(90.90909090909086,0.0,0.0,90.90909090909086,200.0,50.90797677277791)"><g stroke="rgb(0,0,0)" stroke-opacity="1.0" fill="rgb(0,128,0)" fill-opacity="1.0" stroke-width="0.0" font-size="1.0em"><path d="M 0.38649938109861504,-0.27568249211091134 l 1.5789711287150454e-2,-1.2147784500668588e-2 l -1.2147784500668586e-2,-1.5789711287150454e-2 l -1.5789711287150454e-2,1.2147784500668585e-2 Z" /></g></g><g transform="matrix(90.90909090909086,0.0,0.0,90.90909090909086,200.0,50.90797677277791)"><g stroke="rgb(0,0,0)" stroke-opacity="1.0" fill="rgb(0,128,0)" fill-opacity="1.0" stroke-width="0.0" font-size="1.0em"><path d="M 0.4031420907436372,-0.251590245389956 l 1.6500919107356214e-2,-1.116258569591907e-2 l -1.1162585695919068e-2,-1.6500919107356214e-2 l -1.6500919107356214e-2,1.1162585695919066e-2 Z" /></g></g><g transform="matrix(90.90909090909086,0.0,0.0,90.90909090909086,200.0,50.90797677277791)"><g stroke="rgb(0,0,0)" stroke-opacity="1.0" fill="rgb(0,128,0)" fill-opacity="1.0" stroke-width="0.0" font-size="1.0em"><path d="M 0.4182850853326349,-0.2265282053439127 l 1.7150742424698735e-2,-1.0135861339219735e-2 l -1.0135861339219733e-2,-1.7150742424698735e-2 l -1.7150742424698735e-2,1.0135861339219732e-2 Z" /></g></g><g transform="matrix(90.90909090909086,0.0,0.0,90.90909090909086,200.0,50.90797677277791)"><g stroke="rgb(0,0,0)" stroke-opacity="1.0" fill="rgb(0,128,0)" fill-opacity="1.0" stroke-width="0.0" font-size="1.0em"><path d="M 0.431872031931142,-0.20058960440783266 l 1.7736763853756974e-2,-9.071430912612978e-3 l -9.071430912612977e-3,-1.7736763853756974e-2 l -1.7736763853756974e-2,9.071430912612975e-3 Z" /></g></g><g transform="matrix(90.90909090909086,0.0,0.0,90.90909090909086,200.0,50.90797677277791)"><g stroke="rgb(0,0,0)" stroke-opacity="1.0" fill="rgb(0,128,0)" fill-opacity="1.0" stroke-width="0.0" font-size="1.0em"><path d="M 0.4438523862054185,-0.1738709358808511 l 1.8256803356324822e-2,-7.973254167197795e-3 l -7.973254167197793e-3,-1.8256803356324822e-2 l -1.8256803356324822e-2,7.973254167197791e-3 Z" /></g></g><g transform="matrix(90.90909090909086,0.0,0.0,90.90909090909086,200.0,50.90797677277791)"><g stroke="rgb(0,0,0)" stroke-opacity="1.0" fill="rgb(0,128,0)" fill-opacity="1.0" stroke-width="0.0" font-size="1.0em"><path d="M 0.4541815804506919,-0.14647159496477605 l 1.870892635129642e-2,-6.845416392595606e-3 l -6.8454163925956045e-3,-1.870892635129642e-2 l -1.870892635129642e-2,6.845416392595603e-3 Z" /></g></g><g transform="matrix(90.90909090909086,0.0,0.0,90.90909090909086,200.0,50.90797677277791)"><g stroke="rgb(0,0,0)" stroke-opacity="1.0" fill="rgb(0,128,0)" fill-opacity="1.0" stroke-width="0.0" font-size="1.0em"><path d="M 0.4628211893859461,-0.11849350900740986 l 1.909145091143494e-2,-5.692113219404561e-3 l -5.692113219404559e-3,-1.909145091143494e-2 l -1.909145091143494e-2,5.692113219404557e-3 Z" /></g></g><g transform="matrix(90.90909090909086,0.0,0.0,90.90909090909086,200.0,50.90797677277791)"><g stroke="rgb(0,0,0)" stroke-opacity="1.0" fill="rgb(0,128,0)" fill-opacity="1.0" stroke-width="0.0" font-size="1.0em"><path d="M 0.4697390730984905,-9.004075832612063e-2 l 1.9402954020252373e-2,-4.517635011178125e-3 l -4.517635011178123e-3,-1.9402954020252373e-2 l -1.9402954020252373e-2,4.517635011178122e-3 Z" /></g></g><g transform="matrix(90.90909090909086,0.0,0.0,90.90909090909086,200.0,50.90797677277791)"><g stroke="rgb(0,0,0)" stroke-opacity="1.0" fill="rgb(0,128,0)" fill-opacity="1.0" stroke-width="0.0" font-size="1.0em"><path d="M 0.4749094966065466,-6.1219189022225416e-2 l 1.964227686572433e-2,-3.3263509039908813e-3 l -3.326350903990879e-3,-1.964227686572433e-2 l -1.964227686572433e-2,3.326350903990877e-3 Z" /></g></g><g transform="matrix(90.90909090909086,0.0,0.0,90.90909090909086,200.0,50.90797677277791)"><g stroke="rgb(0,0,0)" stroke-opacity="1.0" fill="rgb(0,128,0)" fill-opacity="1.0" stroke-width="0.0" font-size="1.0em"><path d="M 0.4783132255950697,-3.213601922654151e-2 l 1.9808529151146875e-2,-2.122692552965357e-3 l -2.1226925529653547e-3,-1.9808529151146875e-2 l -1.9808529151146875e-2,2.1226925529653526e-3 Z" /></g></g><g transform="matrix(90.90909090909086,0.0,0.0,90.90909090909086,200.0,50.90797677277791)"><g stroke="rgb(0,0,0)" stroke-opacity="1.0" fill="rgb(0,128,0)" fill-opacity="1.0" stroke-width="0.0" font-size="1.0em"><path d="M 0.47993759796866503,-2.8994402408976123e-3 l 1.9901092407098753e-2,-9.111376462239039e-4 l -9.111376462239018e-4,-1.9901092407098753e-2 l -1.9901092407098753e-2,9.111376462238996e-4 Z" /></g></g><g transform="matrix(90.90909090909086,0.0,0.0,90.90909090909086,200.0,50.90797677277791)"><g stroke="rgb(0,0,0)" stroke-opacity="1.0" fill="rgb(0,128,0)" fill-opacity="1.0" stroke-width="0.0" font-size="1.0em"><path d="M 0.47977657095541354,2.6381785940614952e-2 l 1.991962229218825e-2,3.0380675240521577e-4 l 3.03806752405218e-4,-1.991962229218825e-2 l -1.991962229218825e-2,-3.038067524052202e-4 Z" /></g></g><g transform="matrix(90.90909090909086,0.0,0.0,90.90909090909086,200.0,50.90797677277791)"><g stroke="rgb(0,0,0)" stroke-opacity="1.0" fill="rgb(0,128,0)" fill-opacity="1.0" stroke-width="0.0" font-size="1.0em"><path d="M 0.47783074358638084,5.55987312334038e-2 l 1.9864049874025784e-2,1.517620969961296e-3 l 1.5176209699612983e-3,-1.9864049874025784e-2 l -1.9864049874025784e-2,-1.5176209699613004e-3 Z" /></g></g><g transform="matrix(90.90909090909086,0.0,0.0,90.90909090909086,200.0,50.90797677277791)"><g stroke="rgb(0,0,0)" stroke-opacity="1.0" fill="rgb(0,128,0)" fill-opacity="1.0" stroke-width="0.0" font-size="1.0em"><path d="M 0.4741073544671823,8.464270668200462e-2 l 1.973458188565693e-2,2.725789537831453e-3 l 2.7257895378314553e-3,-1.973458188565693e-2 l -1.973458188565693e-2,-2.7257895378314575e-3 Z" /></g></g><g transform="matrix(90.90909090909086,0.0,0.0,90.90909090909086,200.0,50.90797677277791)"><g stroke="rgb(0,0,0)" stroke-opacity="1.0" fill="rgb(0,128,0)" fill-opacity="1.0" stroke-width="0.0" font-size="1.0em"><path d="M 0.46862025484989395,0.1134056667901341 l 1.9531699956501905e-2,3.923817989590441e-3 l 3.923817989590444e-3,-1.9531699956501905e-2 l -1.9531699956501905e-2,-3.9238179895904465e-3 Z" /></g></g><g transform="matrix(90.90909090909086,0.0,0.0,90.90909090909086,200.0,50.90797677277791)"><g stroke="rgb(0,0,0)" stroke-opacity="1.0" fill="rgb(0,128,0)" fill-opacity="1.0" stroke-width="0.0" font-size="1.0em"><path d="M 0.46138985710548625,0.14178061145703272 l 1.9256158820662492e-2,5.107249580710955e-3 l 5.107249580710957e-3,-1.9256158820662492e-2 l -1.9256158820662492e-2,-5.107249580710959e-3 Z" /></g></g><g transform="matrix(90.90909090909086,0.0,0.0,90.90909090909086,200.0,50.90797677277791)"><g stroke="rgb(0,0,0)" stroke-opacity="1.0" fill="rgb(0,128,0)" fill-opacity="1.0" stroke-width="0.0" font-size="1.0em"><path d="M 0.4524430587884623,0.16966198402486715 l 1.8908983509261613e-2,6.271681867945987e-3 l 6.271681867945989e-3,-1.8908983509261613e-2 l -1.8908983509261613e-2,-6.2716818679459906e-3 Z" /></g></g><g transform="matrix(90.90909090909086,0.0,0.0,90.90909090909086,200.0,50.90797677277791)"><g stroke="rgb(0,0,0)" stroke-opacity="1.0" fill="rgb(0,128,0)" fill-opacity="1.0" stroke-width="0.0" font-size="1.0em"><path d="M 0.4418131425761891,0.1969460639564307 l 1.8491465537260228e-2,7.412783086706863e-3 l 7.412783086706865e-3,-1.8491465537260228e-2 l -1.8491465537260228e-2,-7.4127830867068666e-3 Z" /></g></g><g transform="matrix(90.90909090909086,0.0,0.0,90.90909090909086,200.0,50.90797677277791)"><g stroke="rgb(0,0,0)" stroke-opacity="1.0" fill="rgb(0,128,0)" fill-opacity="1.0" stroke-width="0.0" font-size="1.0em"><path d="M 0.42953965245515147,0.22353135268235363 l 1.8005158098936852e-2,8.526308265512022e-3 l 8.526308265512024e-3,-1.8005158098936852e-2 l -1.8005158098936852e-2,-8.526308265512025e-3 Z" /></g></g><g transform="matrix(90.90909090909086,0.0,0.0,90.90909090909086,200.0,50.90797677277791)"><g stroke="rgb(0,0,0)" stroke-opacity="1.0" fill="rgb(0,128,0)" fill-opacity="1.0" stroke-width="0.0" font-size="1.0em"><path d="M 0.4156682466147252,0.2493189511824482 l 1.7451870289902825e-2,9.608115017559739e-3 l 9.60811501755974e-3,-1.7451870289902825e-2 l -1.7451870289902825e-2,-9.608115017559742e-3 Z" /></g></g><g transform="matrix(90.90909090909086,0.0,0.0,90.90909090909086,200.0,50.90797677277791)"><g stroke="rgb(0,0,0)" stroke-opacity="1.0" fill="rgb(0,128,0)" fill-opacity="1.0" stroke-width="0.0" font-size="1.0em"><path d="M 0.40025052759571333,0.27421292789655916 l 1.6833660377147813e-2,1.06541789506791e-2 l 1.0654178950679102e-2,-1.6833660377147813e-2 l -1.6833660377147813e-2,-1.0654178950679103e-2 Z" /></g></g><g transform="matrix(90.90909090909086,0.0,0.0,90.90909090909086,200.0,50.90797677277791)"><g stroke="rgb(0,0,0)" stroke-opacity="1.0" fill="rgb(0,128,0)" fill-opacity="1.0" stroke-width="0.0" font-size="1.0em"><path d="M 0.38334385032550594,0.2981206755962682 l 1.6152828142151427e-2,1.1660608638333198e-2 l 1.16606086383332e-2,-1.6152828142151427e-2 l -1.6152828142151427e-2,-1.1660608638333202e-2 Z" /></g></g><g transform="matrix(90.90909090909086,0.0,0.0,90.90909090909086,200.0,50.90797677277791)"><g stroke="rgb(0,0,0)" stroke-opacity="1.0" fill="rgb(0,128,0)" fill-opacity="1.0" stroke-width="0.0" font-size="1.0em"><path d="M 0.3650111087539822,0.32095325588986656 l 1.5411906325545056e-2,1.2623660095981445e-2 l 1.2623660095981447e-2,-1.5411906325545054e-2 l -1.5411906325545052e-2,-1.2623660095981449e-2 Z" /></g></g><g transform="matrix(90.90909090909086,0.0,0.0,90.90909090909086,200.0,50.90797677277791)"><g stroke="rgb(0,0,0)" stroke-opacity="1.0" fill="rgb(0,128,0)" fill-opacity="1.0" stroke-width="0.0" font-size="1.0em"><path d="M 0.34532050188388647,0.3426257300790133 l 1.4613651205150376e-2,1.3539750708947968e-2 l 1.353975070894797e-2,-1.4613651205150374e-2 l -1.4613651205150372e-2,-1.3539750708947971e-2 Z" /></g></g><g transform="matrix(90.90909090909086,0.0,0.0,90.90909090909086,200.0,50.90797677277791)"><g stroke="rgb(0,0,0)" stroke-opacity="1.0" fill="rgb(0,128,0)" fill-opacity="1.0" stroke-width="0.0" font-size="1.0em"><path d="M 0.3243452800660588,0.36305747513627207 l 1.3761032342444822e-2,1.4405472559983501e-2 l 1.4405472559983503e-2,-1.376103234244482e-2 l -1.3761032342444818e-2,-1.4405472559983505e-2 Z" /></g></g><g transform="matrix(90.90909090909086,0.0,0.0,90.90909090909086,200.0,50.90797677277791)"><g stroke="rgb(0,0,0)" stroke-opacity="1.0" fill="rgb(0,128,0)" fill-opacity="1.0" stroke-width="0.0" font-size="1.0em"><path d="M 0.3021634725033185,0.3821724836280686 l 1.2857221535597846e-2,1.52176051069414e-2 l 1.5217605106941402e-2,-1.2857221535597844e-2 l -1.2857221535597842e-2,-1.5217605106941404e-2 Z" /></g></g><g transform="matrix(90.90909090909086,0.0,0.0,90.90909090909086,200.0,50.90797677277791)"><g stroke="rgb(0,0,0)" stroke-opacity="1.0" fill="rgb(0,128,0)" fill-opacity="1.0" stroke-width="0.0" font-size="1.0em"><path d="M 0.2788575969767048,0.3998996464673355 l 1.1905581020173406e-2,1.5973127163405945e-2 l 1.5973127163405945e-2,-1.1905581020173405e-2 l -1.1905581020173403e-2,-1.5973127163405945e-2 Z" /></g></g><g transform="matrix(90.90909090909086,0.0,0.0,90.90909090909086,200.0,50.90797677277791)"><g stroke="rgb(0,0,0)" stroke-opacity="1.0" fill="rgb(0,128,0)" fill-opacity="1.0" stroke-width="0.0" font-size="1.0em"><path d="M 0.25451435287391166,0.416173017443987 l 1.0909650961392832e-2,1.6669228137704235e-2 l 1.6669228137704235e-2,-1.090965096139283e-2 l -1.0909650961392828e-2,-1.6669228137704235e-2 Z" /></g></g><g transform="matrix(90.90909090909086,0.0,0.0,90.90909090909086,200.0,50.90797677277791)"><g stroke="rgb(0,0,0)" stroke-opacity="1.0" fill="rgb(0,128,0)" fill-opacity="1.0" stroke-width="0.0" font-size="1.0em"><path d="M 0.22922429866187086,0.4309320585491513 l 9.873136284487685e-3,1.730331848849182e-2 l 1.730331848849182e-2,-9.873136284487683e-3 l -9.873136284487681e-3,-1.730331848849182e-2 Z" /></g></g><g transform="matrix(90.90909090909086,0.0,0.0,90.90909090909086,200.0,50.90797677277791)"><g stroke="rgb(0,0,0)" stroke-opacity="1.0" fill="rgb(0,128,0)" fill-opacity="1.0" stroke-width="0.0" font-size="1.0em"><path d="M 0.20308151500330726,0.4441218651805404 l 8.799892892134556e-3,1.7873039358016585e-2 l 1.7873039358016585e-2,-8.799892892134554e-3 l -8.799892892134552e-3,-1.7873039358016585e-2 Z" /></g></g><g transform="matrix(90.90909090909086,0.0,0.0,90.90909090909086,200.0,50.90797677277791)"><g stroke="rgb(0,0,0)" stroke-opacity="1.0" fill="rgb(0,128,0)" fill-opacity="1.0" stroke-width="0.0" font-size="1.0em"><path d="M 0.17618325477049435,0.455693370391176 l 7.693913320243852e-3,1.8376271347224506e-2 l 1.8376271347224506e-2,-7.693913320243851e-3 l -7.693913320243849e-3,-1.8376271347224506e-2 Z" /></g></g><g transform="matrix(90.90909090909086,0.0,0.0,90.90909090909086,200.0,50.90797677277791)"><g stroke="rgb(0,0,0)" stroke-opacity="1.0" fill="rgb(0,128,0)" fill-opacity="1.0" stroke-width="0.0" font-size="1.0em"><path d="M 0.14862958125818163,0.465603527421656 l 6.559311885463982e-3,1.881114240006335e-2 l 1.881114240006335e-2,-6.55931188546398e-3 l -6.559311885463978e-3,-1.881114240006335e-2 Z" /></g></g><g transform="matrix(90.90909090909086,0.0,0.0,90.90909090909086,200.0,50.90797677277791)"><g stroke="rgb(0,0,0)" stroke-opacity="1.0" fill="rgb(0,128,0)" fill-opacity="1.0" stroke-width="0.0" font-size="1.0em"><path d="M 0.12052299594156601,0.47381546983692546 l 5.400309379653188e-3,1.917603476765413e-2 l 1.917603476765413e-2,-5.400309379653186e-3 l -5.400309379653185e-3,-1.917603476765413e-2 Z" /></g></g><g transform="matrix(90.90909090909086,0.0,0.0,90.90909090909086,200.0,50.90797677277791)"><g stroke="rgb(0,0,0)" stroke-opacity="1.0" fill="rgb(0,128,0)" fill-opacity="1.0" stroke-width="0.0" font-size="1.0em"><path d="M 9.196805716407182e-2,0.48029864867183764 l 4.221217368256617e-3,1.9469591026423202e-2 l 1.9469591026423202e-2,-4.2212173682566155e-3 l -4.221217368256614e-3,-1.9469591026423202e-2 Z" /></g></g><g transform="matrix(90.90909090909086,0.0,0.0,90.90909090909086,200.0,50.90797677277791)"><g stroke="rgb(0,0,0)" stroke-opacity="1.0" fill="rgb(0,128,0)" fill-opacity="1.0" stroke-width="0.0" font-size="1.0em"><path d="M 6.307099117344579e-2,0.48502894607530994 l 3.02642215099968e-3,1.9690719127807104e-2 l 1.9690719127807104e-2,-3.026422150999678e-3 l -3.026422150999676e-3,-1.9690719127807104e-2 Z" /></g></g><g transform="matrix(90.90909090909086,0.0,0.0,90.90909090909086,200.0,50.90797677277791)"><g stroke="rgb(0,0,0)" stroke-opacity="1.0" fill="rgb(0,128,0)" fill-opacity="1.0" stroke-width="0.0" font-size="1.0em"><path d="M 3.3939296953138444e-2,0.48798876503031463 l 1.820368444564974e-3,1.9838596460744953e-2 l 1.9838596460744953e-2,-1.8203684445649718e-3 l -1.8203684445649696e-3,-1.9838596460744953e-2 Z" /></g></g><g transform="matrix(90.90909090909086,0.0,0.0,90.90909090909086,200.0,50.90797677277791)"><g stroke="rgb(0,0,0)" stroke-opacity="1.0" fill="rgb(0,128,0)" fill-opacity="1.0" stroke-width="0.0" font-size="1.0em"><path d="M 4.6813463190252015e-3,0.48916709481593756 l 6.075428479543003e-4,1.9912672911845602e-2 l 1.9912672911845602e-2,-6.075428479542981e-4 l -6.07542847954296e-4,-1.9912672911845602e-2 Z" /></g></g><g transform="matrix(90.90909090909086,0.0,0.0,90.90909090909086,200.0,50.90797677277791)"><g stroke="rgb(0,0,0)" stroke-opacity="1.0" fill="rgb(0,128,0)" fill-opacity="1.0" stroke-width="0.0" font-size="1.0em"><path d="M -2.459401923086662e-2,0.4885595519679833 l -6.075428479543066e-4,1.9912672911845602e-2 l 1.9912672911845602e-2,6.075428479543087e-4 l 6.075428479543109e-4,-1.9912672911845602e-2 Z" /></g></g><g transform="matrix(90.90909090909086,0.0,0.0,90.90909090909086,200.0,50.90797677277791)"><g stroke="rgb(0,0,0)" stroke-opacity="1.0" fill="rgb(0,128,0)" fill-opacity="1.0" stroke-width="0.0" font-size="1.0em"><path d="M -5.377789341387921e-2,0.4861683965857497 l -1.8203684445649803e-3,1.9838596460744953e-2 l 1.9838596460744953e-2,1.8203684445649824e-3 l 1.8203684445649846e-3,-1.9838596460744953e-2 Z" /></g></g><g transform="matrix(90.90909090909086,0.0,0.0,90.90909090909086,200.0,50.90797677277791)"><g stroke="rgb(0,0,0)" stroke-opacity="1.0" fill="rgb(0,128,0)" fill-opacity="1.0" stroke-width="0.0" font-size="1.0em"><path d="M -8.27617103012487e-2,0.48200252392431014 l -3.0264221509996862e-3,1.96907191278071e-2 l 1.96907191278071e-2,3.0264221509996884e-3 l 3.0264221509996906e-3,-1.96907191278071e-2 Z" /></g></g><g transform="matrix(90.90909090909086,0.0,0.0,90.90909090909086,200.0,50.90797677277791)"><g stroke="rgb(0,0,0)" stroke-opacity="1.0" fill="rgb(0,128,0)" fill-opacity="1.0" stroke-width="0.0" font-size="1.0em"><path d="M -0.11143764819049082,0.4760774313035808 l -4.221217368256624e-3,1.9469591026423195e-2 l 1.9469591026423195e-2,4.221217368256626e-3 l 4.221217368256628e-3,-1.9469591026423195e-2 Z" /></g></g><g transform="matrix(90.90909090909086,0.0,0.0,90.90909090909086,200.0,50.90797677277791)"><g stroke="rgb(0,0,0)" stroke-opacity="1.0" fill="rgb(0,128,0)" fill-opacity="1.0" stroke-width="0.0" font-size="1.0em"><path d="M -0.13969903070921594,0.46841516045727205 l -5.400309379653194e-3,1.9176034767654122e-2 l 1.9176034767654122e-2,5.400309379653196e-3 l 5.400309379653198e-3,-1.9176034767654122e-2 Z" /></g></g><g transform="matrix(90.90909090909086,0.0,0.0,90.90909090909086,200.0,50.90797677277791)"><g stroke="rgb(0,0,0)" stroke-opacity="1.0" fill="rgb(0,128,0)" fill-opacity="1.0" stroke-width="0.0" font-size="1.0em"><path d="M -0.16744072365824075,0.45904421553619185 l -6.559311885463987e-3,1.8811142400063343e-2 l 1.8811142400063343e-2,6.5593118854639886e-3 l 6.55931188546399e-3,-1.8811142400063343e-2 Z" /></g></g><g transform="matrix(90.90909090909086,0.0,0.0,90.90909090909086,200.0,50.90797677277791)"><g stroke="rgb(0,0,0)" stroke-opacity="1.0" fill="rgb(0,128,0)" fill-opacity="1.0" stroke-width="0.0" font-size="1.0em"><path d="M -0.1945595261177146,0.44799945707093203 l -7.693913320243857e-3,1.83762713472245e-2 l 1.83762713472245e-2,7.6939133202438585e-3 l 7.69391332024386e-3,-1.83762713472245e-2 Z" /></g></g><g transform="matrix(90.90909090909086,0.0,0.0,90.90909090909086,200.0,50.90797677277791)"><g stroke="rgb(0,0,0)" stroke-opacity="1.0" fill="rgb(0,128,0)" fill-opacity="1.0" stroke-width="0.0" font-size="1.0em"><path d="M -0.22095455436131958,0.4353219722884057 l -8.799892892134559e-3,1.787303935801658e-2 l 1.787303935801658e-2,8.79989289213456e-3 l 8.799892892134563e-3,-1.787303935801658e-2 Z" /></g></g><g transform="matrix(90.90909090909086,0.0,0.0,90.90909090909086,200.0,50.90797677277791)"><g stroke="rgb(0,0,0)" stroke-opacity="1.0" fill="rgb(0,128,0)" fill-opacity="1.0" stroke-width="0.0" font-size="1.0em"><path d="M -0.24652761715035842,0.42105892226466346 l -9.873136284487688e-3,1.7303318488491815e-2 l 1.7303318488491815e-2,9.87313628448769e-3 l 9.873136284487691e-3,-1.7303318488491815e-2 Z" /></g></g><g transform="matrix(90.90909090909086,0.0,0.0,90.90909090909086,200.0,50.90797677277791)"><g stroke="rgb(0,0,0)" stroke-opacity="1.0" fill="rgb(0,128,0)" fill-opacity="1.0" stroke-width="0.0" font-size="1.0em"><path d="M -0.2711835810116116,0.405263366482594 l -1.0909650961392833e-2,1.6669228137704228e-2 l 1.6669228137704228e-2,1.0909650961392835e-2 l 1.0909650961392837e-2,-1.6669228137704228e-2 Z" /></g></g><g transform="matrix(90.90909090909086,0.0,0.0,90.90909090909086,200.0,50.90797677277791)"><g stroke="rgb(0,0,0)" stroke-opacity="1.0" fill="rgb(0,128,0)" fill-opacity="1.0" stroke-width="0.0" font-size="1.0em"><path d="M -0.29483072414010647,0.38799406544716203 l -1.1905581020173406e-2,1.597312716340594e-2 l 1.597312716340594e-2,1.1905581020173408e-2 l 1.190558102017341e-2,-1.597312716340594e-2 Z" /></g></g><g transform="matrix(90.90909090909086,0.0,0.0,90.90909090909086,200.0,50.90797677277791)"><g stroke="rgb(0,0,0)" stroke-opacity="1.0" fill="rgb(0,128,0)" fill-opacity="1.0" stroke-width="0.0" font-size="1.0em"><path d="M -0.3173810776102556,0.36931526209247073 l -1.2857221535597846e-2,1.5217605106941402e-2 l 1.52176051069414e-2,1.2857221535597848e-2 l 1.285722153559785e-2,-1.5217605106941399e-2 Z" /></g></g><g transform="matrix(90.90909090909086,0.0,0.0,90.90909090909086,200.0,50.90797677277791)"><g stroke="rgb(0,0,0)" stroke-opacity="1.0" fill="rgb(0,128,0)" fill-opacity="1.0" stroke-width="0.0" font-size="1.0em"><path d="M -0.33875075262603793,0.34929644279382727 l -1.376103234244482e-2,1.4405472559983503e-2 l 1.4405472559983501e-2,1.3761032342444822e-2 l 1.3761032342444824e-2,-1.44054725599835e-2 Z" /></g></g><g transform="matrix(90.90909090909086,0.0,0.0,90.90909090909086,200.0,50.90797677277791)"><g stroke="rgb(0,0,0)" stroke-opacity="1.0" fill="rgb(0,128,0)" fill-opacity="1.0" stroke-width="0.0" font-size="1.0em"><path d="M -0.35886025259283005,0.3280120788738629 l -1.4613651205150374e-2,1.353975070894797e-2 l 1.3539750708947968e-2,1.4613651205150376e-2 l 1.4613651205150378e-2,-1.3539750708947966e-2 Z" /></g></g><g transform="matrix(90.90909090909086,0.0,0.0,90.90909090909086,200.0,50.90797677277791)"><g stroke="rgb(0,0,0)" stroke-opacity="1.0" fill="rgb(0,128,0)" fill-opacity="1.0" stroke-width="0.0" font-size="1.0em"><path d="M -0.37763476884995917,0.3055413495643215 l -1.5411906325545054e-2,1.2623660095981449e-2 l 1.2623660095981447e-2,1.5411906325545056e-2 l 1.5411906325545057e-2,-1.2623660095981445e-2 Z" /></g></g><g transform="matrix(90.90909090909086,0.0,0.0,90.90909090909086,200.0,50.90797677277791)"><g stroke="rgb(0,0,0)" stroke-opacity="1.0" fill="rgb(0,128,0)" fill-opacity="1.0" stroke-width="0.0" font-size="1.0em"><path d="M -0.39500445896383485,0.28196784745411674 l -1.615282814215143e-2,1.1660608638333202e-2 l 1.16606086383332e-2,1.615282814215143e-2 l 1.615282814215143e-2,-1.1660608638333198e-2 Z" /></g></g><g transform="matrix(90.90909090909086,0.0,0.0,90.90909090909086,200.0,50.90797677277791)"><g stroke="rgb(0,0,0)" stroke-opacity="1.0" fill="rgb(0,128,0)" fill-opacity="1.0" stroke-width="0.0" font-size="1.0em"><path d="M -0.41090470654638817,0.2573792675194113 l -1.683366037714782e-2,1.0654178950679103e-2 l 1.0654178950679102e-2,1.683366037714782e-2 l 1.683366037714782e-2,-1.06541789506791e-2 Z" /></g></g><g transform="matrix(90.90909090909086,0.0,0.0,90.90909090909086,200.0,50.90797677277791)"><g stroke="rgb(0,0,0)" stroke-opacity="1.0" fill="rgb(0,128,0)" fill-opacity="1.0" stroke-width="0.0" font-size="1.0em"><path d="M -0.42527636163228066,0.23186708089254537 l -1.7451870289902832e-2,9.608115017559742e-3 l 9.60811501755974e-3,1.7451870289902832e-2 l 1.7451870289902832e-2,-9.608115017559739e-3 Z" /></g></g><g transform="matrix(90.90909090909086,0.0,0.0,90.90909090909086,200.0,50.90797677277791)"><g stroke="rgb(0,0,0)" stroke-opacity="1.0" fill="rgb(0,128,0)" fill-opacity="1.0" stroke-width="0.0" font-size="1.0em"><path d="M -0.43806596072065923,0.20552619458341678 l -1.800515809893686e-2,8.526308265512025e-3 l 8.526308265512024e-3,1.800515809893686e-2 l 1.800515809893686e-2,-8.526308265512022e-3 Z" /></g></g><g transform="matrix(90.90909090909086,0.0,0.0,90.90909090909086,200.0,50.90797677277791)"><g stroke="rgb(0,0,0)" stroke-opacity="1.0" fill="rgb(0,128,0)" fill-opacity="1.0" stroke-width="0.0" font-size="1.0em"><path d="M -0.44922592566289166,0.17845459841917044 l -1.849146553726023e-2,7.4127830867068666e-3 l 7.412783086706865e-3,1.849146553726023e-2 l 1.849146553726023e-2,-7.412783086706863e-3 Z" /></g></g><g transform="matrix(90.90909090909086,0.0,0.0,90.90909090909086,200.0,50.90797677277791)"><g stroke="rgb(0,0,0)" stroke-opacity="1.0" fill="rgb(0,128,0)" fill-opacity="1.0" stroke-width="0.0" font-size="1.0em"><path d="M -0.45871474065640394,0.15075300051560558 l -1.8908983509261616e-2,6.271681867945991e-3 l 6.27168186794599e-3,1.8908983509261616e-2 l 1.8908983509261616e-2,-6.271681867945988e-3 Z" /></g></g><g transform="matrix(90.90909090909086,0.0,0.0,90.90909090909086,200.0,50.90797677277791)"><g stroke="rgb(0,0,0)" stroke-opacity="1.0" fill="rgb(0,128,0)" fill-opacity="1.0" stroke-width="0.0" font-size="1.0em"><path d="M -0.46649710668619276,0.12252445263637024 l -1.9256158820662492e-2,5.10724958071096e-3 l 5.107249580710958e-3,1.9256158820662492e-2 l 1.9256158820662492e-2,-5.107249580710956e-3 Z" /></g></g><g transform="matrix(90.90909090909086,0.0,0.0,90.90909090909086,200.0,50.90797677277791)"><g stroke="rgb(0,0,0)" stroke-opacity="1.0" fill="rgb(0,128,0)" fill-opacity="1.0" stroke-width="0.0" font-size="1.0em"><path d="M -0.47254407283947997,9.387396683363225e-2 l -1.9531699956501905e-2,3.923817989590448e-3 l 3.923817989590446e-3,1.9531699956501905e-2 l 1.9531699956501905e-2,-3.923817989590443e-3 Z" /></g></g><g transform="matrix(90.90909090909086,0.0,0.0,90.90909090909086,200.0,50.90797677277791)"><g stroke="rgb(0,0,0)" stroke-opacity="1.0" fill="rgb(0,128,0)" fill-opacity="1.0" stroke-width="0.0" font-size="1.0em"><path d="M -0.47683314400500926,6.490812479634774e-2 l -1.973458188565693e-2,2.7257895378314597e-3 l 2.7257895378314575e-3,1.973458188565693e-2 l 1.973458188565693e-2,-2.7257895378314553e-3 Z" /></g></g><g transform="matrix(90.90909090909086,0.0,0.0,90.90909090909086,200.0,50.90797677277791)"><g stroke="rgb(0,0,0)" stroke-opacity="1.0" fill="rgb(0,128,0)" fill-opacity="1.0" stroke-width="0.0" font-size="1.0em"><path d="M -0.4793483645563377,3.573468135937807e-2 l -1.9864049874025784e-2,1.5176209699613026e-3 l 1.5176209699613004e-3,1.9864049874025784e-2 l 1.9864049874025784e-2,-1.5176209699612983e-3 Z" /></g></g><g transform="matrix(90.90909090909086,0.0,0.0,90.90909090909086,200.0,50.90797677277791)"><g stroke="rgb(0,0,0)" stroke-opacity="1.0" fill="rgb(0,128,0)" fill-opacity="1.0" stroke-width="0.0" font-size="1.0em"><path d="M -0.48008037770781437,6.462163648426746e-3 l -1.991962229218825e-2,3.0380675240522227e-4 l 3.0380675240522005e-4,1.991962229218825e-2 l 1.991962229218825e-2,-3.038067524052178e-4 Z" /></g></g><g transform="matrix(90.90909090909086,0.0,0.0,90.90909090909086,200.0,50.90797677277791)"><g stroke="rgb(0,0,0)" stroke-opacity="1.0" fill="rgb(0,128,0)" fill-opacity="1.0" stroke-width="0.0" font-size="1.0em"><path d="M -0.47902646032243673,-2.2800532647996325e-2 l -1.9901092407098756e-2,-9.111376462238978e-4 l -9.111376462238999e-4,1.9901092407098756e-2 l 1.9901092407098756e-2,9.111376462239021e-4 Z" /></g></g><g transform="matrix(90.90909090909086,0.0,0.0,90.90909090909086,200.0,50.90797677277791)"><g stroke="rgb(0,0,0)" stroke-opacity="1.0" fill="rgb(0,128,0)" fill-opacity="1.0" stroke-width="0.0" font-size="1.0em"><path d="M -0.47619053304209996,-5.194454837768833e-2 l -1.9808529151146875e-2,-2.1226925529653504e-3 l -2.1226925529653526e-3,1.9808529151146875e-2 l 1.9808529151146875e-2,2.1226925529653547e-3 Z" /></g></g><g transform="matrix(90.90909090909086,0.0,0.0,90.90909090909086,200.0,50.90797677277791)"><g stroke="rgb(0,0,0)" stroke-opacity="1.0" fill="rgb(0,128,0)" fill-opacity="1.0" stroke-width="0.0" font-size="1.0em"><path d="M -0.4715831457025513,-8.086146588794968e-2 l -1.964227686572433e-2,-3.3263509039908744e-3 l -3.3263509039908766e-3,1.964227686572433e-2 l 1.964227686572433e-2,3.3263509039908787e-3 Z" /></g></g><g transform="matrix(90.90909090909086,0.0,0.0,90.90909090909086,200.0,50.90797677277791)"><g stroke="rgb(0,0,0)" stroke-opacity="1.0" fill="rgb(0,128,0)" fill-opacity="1.0" stroke-width="0.0" font-size="1.0em"><path d="M -0.465221438087308,-0.10944371234637293 l -1.9402954020252373e-2,-4.517635011178119e-3 l -4.517635011178121e-3,1.9402954020252373e-2 l 1.9402954020252373e-2,4.5176350111781225e-3 Z" /></g></g><g transform="matrix(90.90909090909086,0.0,0.0,90.90909090909086,200.0,50.90797677277791)"><g stroke="rgb(0,0,0)" stroke-opacity="1.0" fill="rgb(0,128,0)" fill-opacity="1.0" stroke-width="0.0" font-size="1.0em"><path d="M -0.4571290761665371,-0.13758495991884473 l -1.909145091143494e-2,-5.692113219404554e-3 l -5.692113219404556e-3,1.909145091143494e-2 l 1.909145091143494e-2,5.692113219404557e-3 Z" /></g></g><g transform="matrix(90.90909090909086,0.0,0.0,90.90909090909086,200.0,50.90797677277791)"><g stroke="rgb(0,0,0)" stroke-opacity="1.0" fill="rgb(0,128,0)" fill-opacity="1.0" stroke-width="0.0" font-size="1.0em"><path d="M -0.44733616405809185,-0.1651805213160724 l -1.870892635129642e-2,-6.845416392595599e-3 l -6.845416392595601e-3,1.870892635129642e-2 l 1.870892635129642e-2,6.845416392595603e-3 Z" /></g></g><g transform="matrix(90.90909090909086,0.0,0.0,90.90909090909086,200.0,50.90797677277791)"><g stroke="rgb(0,0,0)" stroke-opacity="1.0" fill="rgb(0,128,0)" fill-opacity="1.0" stroke-width="0.0" font-size="1.0em"><path d="M -0.43587913203821627,-0.19212773923717585 l -1.8256803356324822e-2,-7.973254167197788e-3 l -7.97325416719779e-3,1.8256803356324822e-2 l 1.8256803356324822e-2,7.973254167197791e-3 Z" /></g></g><g transform="matrix(90.90909090909086,0.0,0.0,90.90909090909086,200.0,50.90797677277791)"><g stroke="rgb(0,0,0)" stroke-opacity="1.0" fill="rgb(0,128,0)" fill-opacity="1.0" stroke-width="0.0" font-size="1.0em"><path d="M -0.42280060101852457,-0.21832636826158963 l -1.7736763853756974e-2,-9.071430912612973e-3 l -9.071430912612975e-3,1.7736763853756974e-2 l 1.7736763853756974e-2,9.071430912612977e-3 Z" /></g></g><g transform="matrix(90.90909090909086,0.0,0.0,90.90909090909086,200.0,50.90797677277791)"><g stroke="rgb(0,0,0)" stroke-opacity="1.0" fill="rgb(0,128,0)" fill-opacity="1.0" stroke-width="0.0" font-size="1.0em"><path d="M -0.40814922399341075,-0.24367894776861135 l -1.7150742424698735e-2,-1.013586133921973e-2 l -1.0135861339219732e-2,1.7150742424698735e-2 l 1.7150742424698735e-2,1.0135861339219733e-2 Z" /></g></g><g transform="matrix(90.90909090909086,0.0,0.0,90.90909090909086,200.0,50.90797677277791)"><g stroke="rgb(0,0,0)" stroke-opacity="1.0" fill="rgb(0,128,0)" fill-opacity="1.0" stroke-width="0.0" font-size="1.0em"><path d="M -0.3919795050477136,-0.2680911644973122 l -1.650091910735621e-2,-1.1162585695919065e-2 l -1.1162585695919066e-2,1.650091910735621e-2 l 1.650091910735621e-2,1.1162585695919068e-2 Z" /></g></g><g transform="matrix(90.90909090909086,0.0,0.0,90.90909090909086,200.0,50.90797677277791)"><g stroke="rgb(0,0,0)" stroke-opacity="1.0" fill="rgb(0,128,0)" fill-opacity="1.0" stroke-width="0.0" font-size="1.0em"><path d="M -0.374351596597942,-0.2914722033980617 l -1.578971128715045e-2,-1.2147784500668581e-2 l -1.2147784500668583e-2,1.578971128715045e-2 l 1.578971128715045e-2,1.2147784500668585e-2 Z" /></g></g><g transform="matrix(90.90909090909086,0.0,0.0,90.90909090909086,200.0,50.90797677277791)"><g stroke="rgb(0,0,0)" stroke-opacity="1.0" fill="rgb(0,128,0)" fill-opacity="1.0" stroke-width="0.0" font-size="1.0em"><path d="M -0.35533107562133354,-0.31373508547047746 l -1.5019764703884903e-2,-1.3087792749206545e-2 l -1.3087792749206547e-2,1.5019764703884901e-2 l 1.50197647038849e-2,1.3087792749206548e-2 Z" /></g></g><g transform="matrix(90.90909090909086,0.0,0.0,90.90909090909086,200.0,50.90797677277791)"><g stroke="rgb(0,0,0)" stroke-opacity="1.0" fill="rgb(0,128,0)" fill-opacity="1.0" stroke-width="0.0" font-size="1.0em"><path d="M -0.3349886997051933,-0.3347969913310194 l -1.4193943609419567e-2,-1.3979113549108454e-2 l -1.3979113549108456e-2,1.4193943609419566e-2 l 1.4193943609419564e-2,1.3979113549108458e-2 Z" /></g></g><g transform="matrix(90.90909090909086,0.0,0.0,90.90909090909086,200.0,50.90797677277791)"><g stroke="rgb(0,0,0)" stroke-opacity="1.0" fill="rgb(0,128,0)" fill-opacity="1.0" stroke-width="0.0" font-size="1.0em"><path d="M -0.31340014382402076,-0.35457956930653584 l -1.331532011246596e-2,-1.4818431128456534e-2 l -1.4818431128456535e-2,1.3315320112465959e-2 l 1.3315320112465957e-2,1.4818431128456537e-2 Z" /></g></g><g transform="matrix(90.90909090909086,0.0,0.0,90.90909090909086,200.0,50.90797677277791)"><g stroke="rgb(0,0,0)" stroke-opacity="1.0" fill="rgb(0,128,0)" fill-opacity="1.0" stroke-width="0.0" font-size="1.0em"><path d="M -0.29064571882363494,-0.37300922690763383 l -1.2387162750140929e-2,-1.5602623170729052e-2 l -1.5602623170729054e-2,1.2387162750140927e-2 l 1.2387162750140925e-2,1.5602623170729055e-2 Z" /></g></g><g transform="matrix(90.90909090909086,0.0,0.0,90.90909090909086,200.0,50.90797677277791)"><g stroke="rgb(0,0,0)" stroke-opacity="1.0" fill="rgb(0,128,0)" fill-opacity="1.0" stroke-width="0.0" font-size="1.0em"><path d="M -0.2668100726595526,-0.39001740459757345 l -1.1412924328793893e-2,-1.6328772430022856e-2 l -1.6328772430022856e-2,1.1412924328793891e-2 l 1.141292432879389e-2,1.6328772430022856e-2 Z" /></g></g><g transform="matrix(90.90909090909086,0.0,0.0,90.90909090909086,200.0,50.90797677277791)"><g stroke="rgb(0,0,0)" stroke-opacity="1.0" fill="rgb(0,128,0)" fill-opacity="1.0" stroke-width="0.0" font-size="1.0em"><path d="M -0.24198187550103456,-0.40554083083824755 l -1.039622907934045e-2,-1.6994177583399734e-2 l -1.6994177583399734e-2,1.0396229079340449e-2 l 1.0396229079340447e-2,1.6994177583399734e-2 Z" /></g></g><g transform="matrix(90.90909090909086,0.0,0.0,90.90909090909086,200.0,50.90797677277791)"><g stroke="rgb(0,0,0)" stroke-opacity="1.0" fill="rgb(0,128,0)" fill-opacity="1.0" stroke-width="0.0" font-size="1.0em"><path d="M -0.2162534898722316,-0.41952175746445874 l -9.340859174885328e-3,-1.7596363279985174e-2 l -1.7596363279985174e-2,9.340859174885327e-3 l 9.340859174885325e-3,1.7596363279985174e-2 Z" /></g></g><g transform="matrix(90.90909090909086,0.0,0.0,90.90909090909086,200.0,50.90797677277791)"><g stroke="rgb(0,0,0)" stroke-opacity="1.0" fill="rgb(0,128,0)" fill-opacity="1.0" stroke-width="0.0" font-size="1.0em"><path d="M -0.1897206270575289,-0.4319081745108875 l -8.25074066079002e-3,-1.8133089349436193e-2 l -1.8133089349436193e-2,8.250740660790018e-3 l 8.250740660790016e-3,1.8133089349436193e-2 Z" /></g></g><g transform="matrix(90.90909090909086,0.0,0.0,90.90909090909086,200.0,50.90797677277791)"><g stroke="rgb(0,0,0)" stroke-opacity="1.0" fill="rgb(0,128,0)" fill-opacity="1.0" stroke-width="0.0" font-size="1.0em"><path d="M -0.1624819910492811,-0.44265400369257835 l -7.129928849526174e-3,-1.860235913552215e-2 l -1.860235913552215e-2,7.129928849526172e-3 l 7.1299288495261706e-3,1.860235913552215e-2 Z" /></g></g><g transform="matrix(90.90909090909086,0.0,0.0,90.90909090909086,200.0,50.90797677277791)"><g stroke="rgb(0,0,0)" stroke-opacity="1.0" fill="rgb(0,128,0)" fill-opacity="1.0" stroke-width="0.0" font-size="1.0em"><path d="M -0.1346389113624783,-0.45171926981918725 l -5.98259323464685e-3,-1.900242692381707e-2 l -1.900242692381707e-2,5.982593234646848e-3 l 5.982593234646847e-3,1.900242692381707e-2 Z" /></g></g><g transform="matrix(90.90909090909086,0.0,0.0,90.90909090909086,200.0,50.90797677277791)"><g stroke="rgb(0,0,0)" stroke-opacity="1.0" fill="rgb(0,128,0)" fill-opacity="1.0" stroke-width="0.0" font-size="1.0em"><path d="M -0.10629496608229476,-0.45907024950531455 l -4.813001979996645e-3,-1.9331804435871954e-2 l -1.9331804435871954e-2,4.813001979996644e-3 l 4.813001979996642e-3,1.9331804435871954e-2 Z" /></g></g><g transform="matrix(90.90909090909086,0.0,0.0,90.90909090909086,200.0,50.90797677277791)"><g stroke="rgb(0,0,0)" stroke-opacity="1.0" fill="rgb(0,128,0)" fill-opacity="1.0" stroke-width="0.0" font-size="1.0em"><path d="M -7.755559654680916e-2,-0.46467959662371383 l -3.625506041861862e-3,-1.958926636570837e-2 l -1.958926636570837e-2,3.62550604186186e-3 l 3.625506041861858e-3,1.958926636570837e-2 Z" /></g></g><g transform="matrix(90.90909090909086,0.0,0.0,90.90909090909086,200.0,50.90797677277791)"><g stroke="rgb(0,0,0)" stroke-opacity="1.0" fill="rgb(0,128,0)" fill-opacity="1.0" stroke-width="0.0" font-size="1.0em"><path d="M -4.852771509830135e-2,-0.46852644403468174 l -2.4245229831273457e-3,-1.9773854938037183e-2 l -1.9773854938037183e-2,2.4245229831273436e-3 l 2.4245229831273414e-3,1.9773854938037183e-2 Z" /></g></g><g transform="matrix(90.90909090909086,0.0,0.0,90.90909090909086,200.0,50.90797677277791)"><g stroke="rgb(0,0,0)" stroke-opacity="1.0" fill="rgb(0,128,0)" fill-opacity="1.0" stroke-width="0.0" font-size="1.0em"><path d="M -1.931930736231723e-2,-0.4705964812131876 l -1.2145205396524108e-3,-1.9884883471245503e-2 l -1.9884883471245503e-2,1.2145205396524087e-3 l 1.2145205396524065e-3,1.9884883471245503e-2 Z" /></g></g><g transform="matrix(90.90909090909086,0.0,0.0,90.90909090909086,200.0,50.90797677277791)"><g stroke="rgb(0,0,0)" stroke-opacity="1.0" fill="rgb(0,128,0)" fill-opacity="1.0" stroke-width="0.0" font-size="1.0em"><path d="M 9.960969465950932e-3,-0.47088200748496684 l -2.2117795297368815e-18,-1.992193893189742e-2 h -1.992193893189742e-2 l -2.2117795297368815e-18,1.992193893189742e-2 Z" /></g></g><g transform="matrix(90.90909090909086,0.0,0.0,90.90909090909086,200.0,50.90797677277791)"><g stroke="rgb(0,0,0)" stroke-opacity="1.0" fill="rgb(89,89,255)" fill-opacity="1.0" stroke-width="0.0" font-size="1.0em"><path d="M -1.1459259293799189,-0.1059433572394887 l -0.3540740706200822,-0.2572498703694631 l -0.35407407062008206,0.25724987036946323 l 0.13524426044184082,0.4162390338592959 h 0.43765962035648265 Z" /></g></g><g transform="matrix(90.90909090909086,0.0,0.0,90.90909090909086,200.0,50.90797677277791)"><g stroke="rgb(0,0,0)" stroke-opacity="1.0" fill="rgb(0,0,0)" fill-opacity="1.0" stroke-width="1.0e-2" font-size="1.0em"><path d="M -1.1008445092326384,3.28029873802768e-2 c 7.662749022826416e-2,-2.4897780848057566e-2 0.11856270532054267,-0.10720027453878142 9.366492447248509e-2 -0.18382776476704557c -2.4897780848057563e-2,-7.662749022826416e-2 -0.10720027453878142,-0.11856270532054267 -0.18382776476704554 -9.36649244724851e-2c -7.662749022826416e-2,2.4897780848057556e-2 -0.11856270532054267,0.1072002745387814 -9.366492447248512e-2 0.18382776476704554c 2.4897780848057553e-2,7.662749022826416e-2 0.10720027453878139,0.11856270532054267 0.18382776476704552 9.366492447248512e-2Z" /></g></g><g transform="matrix(90.90909090909086,0.0,0.0,90.90909090909086,200.0,50.90797677277791)"><g stroke="rgb(0,0,0)" stroke-opacity="1.0" fill="rgb(0,0,0)" fill-opacity="1.0" stroke-width="1.0e-2" font-size="1.0em"><path d="M -1.3991948800284537,0.39604563340962834 c 4.735839343366767e-2,6.518323650466094e-2 0.1385914104918542,7.963312685054072e-2 0.20377464699651512 3.227473341687305e-2c 6.518323650466094e-2,-4.735839343366766e-2 7.963312685054072e-2,-0.1385914104918542 3.2274733416873064e-2 -0.2037746469965151c -4.735839343366766e-2,-6.518323650466094e-2 -0.1385914104918542,-7.963312685054072e-2 -0.2037746469965151 -3.227473341687308e-2c -6.518323650466096e-2,4.7358393433667656e-2 -7.963312685054073e-2,0.13859141049185417 -3.227473341687308e-2 0.2037746469965151Z" /></g></g><g transform="matrix(90.90909090909086,0.0,0.0,90.90909090909086,200.0,50.90797677277791)"><g stroke="rgb(0,0,0)" stroke-opacity="1.0" fill="rgb(0,0,0)" fill-opacity="1.0" stroke-width="1.0e-2" font-size="1.0em"><path d="M -1.8368545003849364,0.22454571982998614 c -4.7358393433667684e-2,6.518323650466093e-2 -3.290850308778796e-2,0.15641625356284744 3.227473341687295e-2 0.20377464699651515c 6.518323650466093e-2,4.735839343366769e-2 0.15641625356284744,3.290850308778797e-2 0.20377464699651512 -3.227473341687294e-2c 4.735839343366769e-2,-6.518323650466093e-2 3.290850308778798e-2,-0.15641625356284744 -3.2274733416872925e-2 -0.2037746469965151c -6.518323650466092e-2,-4.73583934336677e-2 -0.15641625356284744,-3.2908503087787984e-2 -0.2037746469965151 3.227473341687291e-2Z" /></g></g><g transform="matrix(90.90909090909086,0.0,0.0,90.90909090909086,200.0,50.90797677277791)"><g stroke="rgb(0,0,0)" stroke-opacity="1.0" fill="rgb(0,0,0)" fill-opacity="1.0" stroke-width="1.0e-2" font-size="1.0em"><path d="M -1.8089926504728027,-0.24468970185925396 c -7.662749022826414e-2,-2.489778084805759e-2 -0.15892998391898802,1.7037434244220863e-2 -0.1838277647670456 9.366492447248499e-2c -2.4897780848057594e-2,7.662749022826414e-2 1.7037434244220856e-2,0.15892998391898802 9.366492447248496e-2 0.1838277647670456c 7.662749022826414e-2,2.48977808480576e-2 0.15892998391898802,-1.703743424422085e-2 0.1838277647670456 -9.366492447248496e-2c 2.4897780848057605e-2,-7.662749022826414e-2 -1.7037434244220842e-2,-0.15892998391898802 -9.366492447248494e-2 -0.1838277647670456Z" /></g></g><g transform="matrix(90.90909090909086,0.0,0.0,90.90909090909086,200.0,50.90797677277791)"><g stroke="rgb(0,0,0)" stroke-opacity="1.0" fill="rgb(0,0,0)" fill-opacity="1.0" stroke-width="1.0e-2" font-size="1.0em"><path d="M -1.3541134598811733,-0.3631932276089518 c 0.0,-8.05709113132067e-2 -6.531562880562086e-2,-0.1458865401188276 -0.14588654011882757 -0.1458865401188276c -8.05709113132067e-2,-4.933545432205193e-18 -0.1458865401188276,6.531562880562086e-2 -0.1458865401188276 0.14588654011882754c -9.867090864410386e-18,8.05709113132067e-2 6.531562880562085e-2,0.1458865401188276 0.14588654011882754 0.1458865401188276c 8.05709113132067e-2,1.480063629661558e-17 0.1458865401188276,-6.531562880562085e-2 0.1458865401188276 -0.1458865401188275Z" /></g></g></g></svg>