<?xml version="1.0" encoding="UTF-8"?>
<!DOCTYPE svg PUBLIC "-//W3C//DTD SVG 1.1//EN"
    "http://www.w3.org/Graphics/SVG/1.1/DTD/svg11.dtd">
<svg xmlns="http://www.w3.org/2000/svg" xmlns:xlink="http://www.w3.org/1999/xlink" version="1.1" width="300.0" height="346.4101615137744" font-size="1" viewBox="0 0 300 346"><g><g transform="matrix(272.7272727272718,0.0,0.0,272.7272727272718,150.0,173.2050807568872)"><g stroke="rgb(0,0,0)" stroke-opacity="1.0" fill="rgb(0,0,0)" fill-opacity="0.0" stroke-width="1.0e-2" font-size="1.0em"><path d="M -0.5000000000000018,-0.2886751345948131 h 1.2345679012345678e-2 l 6.172839506172841e-3,-1.0691671651659735e-2 l 6.172839506172841e-3,1.0691671651659735e-2 h 1.2345679012345678e-2 l 6.172839506172841e-3,-1.0691671651659735e-2 l -6.172839506172836e-3,-1.0691671651659736e-2 l 1.2345679012345678e-2,-8.673617379884035e-19 l 6.172839506172841e-3,-1.0691671651659735e-2 l 6.172839506172841e-3,1.0691671651659735e-2 l 1.2345679012345678e-2,8.673617379884035e-19 l -6.172839506172836e-3,1.0691671651659736e-2 l 6.172839506172841e-3,1.0691671651659735e-2 h 1.2345679012345678e-2 l 6.172839506172841e-3,-1.0691671651659735e-2 l 6.172839506172841e-3,1.0691671651659735e-2 h 1.2345679012345678e-2 l 6.172839506172841e-3,-1.0691671651659735e-2 l -6.172839506172836e-3,-1.0691671651659736e-2 l 1.2345679012345678e-2,-8.673617379884035e-19 l 6.172839506172841e-3,-1.0691671651659735e-2 l -6.172839506172832e-3,-1.0691671651659742e-2 l -1.2345679012345678e-2,-1.0408340855860843e-17 l 6.172839506172845e-3,-1.0691671651659733e-2 l -6.172839506172832e-3,-1.0691671651659742e-2 h 1.2345679012345678e-2 l 6.172839506172841e-3,-1.0691671651659735e-2 l 6.172839506172841e-3,1.0691671651659735e-2 h 1.2345679012345678e-2 l 6.172839506172841e-3,-1.0691671651659735e-2 l -6.172839506172836e-3,-1.0691671651659736e-2 l 1.2345679012345678e-2,-8.673617379884035e-19 l 6.172839506172841e-3,-1.0691671651659735e-2 l 6.172839506172841e-3,1.0691671651659735e-2 l 1.2345679012345678e-2,8.673617379884035e-19 l -6.172839506172836e-3,1.0691671651659736e-2 l 6.172839506172841e-3,1.0691671651659735e-2 h 1.2345679012345678e-2 l 6.172839506172841e-3,-1.0691671651659735e-2 l 6.172839506172841e-3,1.0691671651659735e-2 h 1.2345679012345678e-2 l -6.172839506172832e-3,1.0691671651659742e-2 l 6.172839506172845e-3,1.0691671651659733e-2 l -1.2345679012345678e-2,1.0408340855860843e-17 l -6.172839506172832e-3,1.0691671651659742e-2 l 6.172839506172841e-3,1.0691671651659735e-2 l 1.2345679012345678e-2,8.673617379884035e-19 l -6.172839506172836e-3,1.0691671651659736e-2 l 6.172839506172841e-3,1.0691671651659735e-2 h 1.2345679012345678e-2 l 6.172839506172841e-3,-1.0691671651659735e-2 l 6.172839506172841e-3,1.0691671651659735e-2 h 1.2345679012345678e-2 l 6.172839506172841e-3,-1.0691671651659735e-2 l -6.172839506172836e-3,-1.0691671651659736e-2 l 1.2345679012345678e-2,-8.673617379884035e-19 l 6.172839506172841e-3,-1.0691671651659735e-2 l 6.172839506172841e-3,1.0691671651659735e-2 l 1.2345679012345678e-2,8.673617379884035e-19 l -6.172839506172836e-3,1.0691671651659736e-2 l 6.172839506172841e-3,1.0691671651659735e-2 h 1.2345679012345678e-2 l 6.172839506172841e-3,-1.0691671651659735e-2 l 6.172839506172841e-3,1.0691671651659735e-2 h 1.2345679012345678e-2 l 6.172839506172841e-3,-1.0691671651659735e-2 l -6.172839506172836e-3,-1.0691671651659736e-2 l 1.2345679012345678e-2,-8.673617379884035e-19 l 6.172839506172841e-3,-1.0691671651659735e-2 l -6.172839506172832e-3,-1.0691671651659742e-2 l -1.2345679012345678e-2,-1.0408340855860843e-17 l 6.172839506172845e-3,-1.0691671651659733e-2 l -6.172839506172832e-3,-1.0691671651659742e-2 h 1.2345679012345678e-2 l 6.172839506172841e-3,-1.0691671651659735e-2 l 6.172839506172841e-3,1.0691671651659735e-2 h 1.2345679012345678e-2 l 6.172839506172841e-3,-1.0691671651659735e-2 l -6.172839506172836e-3,-1.0691671651659736e-2 l 1.2345679012345678e-2,-8.673617379884035e-19 l 6.172839506172841e-3,-1.0691671651659735e-2 l -6.172839506172831e-3,-1.069167165165974e-2 l -1.2345679012345677e-2,-1.0408340855860843e-17 l 6.172839506172844e-3,-1.0691671651659731e-2 l -6.172839506172831e-3,-1.069167165165974e-2 l -1.2345679012345678e-2,-1.2477075303887167e-17 l -6.172839506172851e-3,1.0691671651659728e-2 l -6.1728395061728305e-3,-1.0691671651659742e-2 l -1.2345679012345678e-2,-1.2477075303887167e-17 l 6.1728395061728435e-3,-1.0691671651659731e-2 l -6.1728395061728305e-3,-1.0691671651659738e-2 l 1.2345679012345677e-2,3.469446951953614e-18 l 6.1728395061728435e-3,-1.0691671651659731e-2 l -6.172839506172831e-3,-1.069167165165974e-2 l -1.2345679012345677e-2,-1.0408340855860843e-17 l 6.172839506172844e-3,-1.0691671651659731e-2 l -6.172839506172831e-3,-1.069167165165974e-2 h 1.2345679012345678e-2 l 6.172839506172841e-3,-1.0691671651659735e-2 l 6.172839506172841e-3,1.0691671651659735e-2 h 1.2345679012345678e-2 l 6.172839506172841e-3,-1.0691671651659735e-2 l -6.172839506172836e-3,-1.0691671651659736e-2 l 1.2345679012345678e-2,-8.673617379884035e-19 l 6.172839506172841e-3,-1.0691671651659735e-2 l 6.172839506172841e-3,1.0691671651659735e-2 l 1.2345679012345678e-2,8.673617379884035e-19 l -6.172839506172836e-3,1.0691671651659736e-2 l 6.172839506172841e-3,1.0691671651659735e-2 h 1.2345679012345678e-2 l 6.172839506172841e-3,-1.0691671651659735e-2 l 6.172839506172841e-3,1.0691671651659735e-2 h 1.2345679012345678e-2 l 6.172839506172841e-3,-1.0691671651659735e-2 l -6.172839506172836e-3,-1.0691671651659736e-2 l 1.2345679012345678e-2,-8.673617379884035e-19 l 6.172839506172841e-3,-1.0691671651659735e-2 l -6.172839506172832e-3,-1.0691671651659742e-2 l -1.2345679012345678e-2,-1.0408340855860843e-17 l 6.172839506172845e-3,-1.0691671651659733e-2 l -6.172839506172832e-3,-1.0691671651659742e-2 h 1.2345679012345678e-2 l 6.172839506172841e-3,-1.0691671651659735e-2 l 6.172839506172841e-3,1.0691671651659735e-2 h 1.2345679012345678e-2 l 6.172839506172841e-3,-1.0691671651659735e-2 l -6.172839506172836e-3,-1.0691671651659736e-2 l 1.2345679012345678e-2,-8.673617379884035e-19 l 6.172839506172841e-3,-1.0691671651659735e-2 l 6.172839506172841e-3,1.0691671651659735e-2 l 1.2345679012345678e-2,8.673617379884035e-19 l -6.172839506172836e-3,1.0691671651659736e-2 l 6.172839506172841e-3,1.0691671651659735e-2 h 1.2345679012345678e-2 l 6.172839506172841e-3,-1.0691671651659735e-2 l 6.172839506172841e-3,1.0691671651659735e-2 h 1.2345679012345678e-2 l -6.172839506172832e-3,1.0691671651659742e-2 l 6.172839506172845e-3,1.0691671651659733e-2 l -1.2345679012345678e-2,1.0408340855860843e-17 l -6.172839506172832e-3,1.0691671651659742e-2 l 6.172839506172841e-3,1.0691671651659735e-2 l 1.2345679012345678e-2,8.673617379884035e-19 l -6.172839506172836e-3,1.0691671651659736e-2 l 6.172839506172841e-3,1.0691671651659735e-2 h 1.2345679012345678e-2 l 6.172839506172841e-3,-1.0691671651659735e-2 l 6.172839506172841e-3,1.0691671651659735e-2 h 1.2345679012345678e-2 l 6.172839506172841e-3,-1.0691671651659735e-2 l -6.172839506172836e-3,-1.0691671651659736e-2 l 1.2345679012345678e-2,-8.673617379884035e-19 l 6.172839506172841e-3,-1.0691671651659735e-2 l 6.172839506172841e-3,1.0691671651659735e-2 l 1.2345679012345678e-2,8.673617379884035e-19 l -6.172839506172836e-3,1.0691671651659736e-2 l 6.172839506172841e-3,1.0691671651659735e-2 h 1.2345679012345678e-2 l 6.172839506172841e-3,-1.0691671651659735e-2 l 6.172839506172841e-3,1.0691671651659735e-2 h 1.2345679012345678e-2 l -6.172839506172831e-3,1.069167165165974e-2 l 6.172839506172844e-3,1.0691671651659731e-2 l -1.2345679012345677e-2,1.0408340855860843e-17 l -6.172839506172831e-3,1.069167165165974e-2 l 6.1728395061728435e-3,1.0691671651659731e-2 l 1.2345679012345677e-2,-3.469446951953614e-18 l -6.1728395061728305e-3,1.0691671651659738e-2 l 6.1728395061728435e-3,1.0691671651659731e-2 l -1.2345679012345678e-2,1.2477075303887167e-17 l -6.1728395061728305e-3,1.0691671651659742e-2 l -6.172839506172851e-3,-1.0691671651659728e-2 l -1.2345679012345678e-2,1.2477075303887167e-17 l -6.172839506172831e-3,1.069167165165974e-2 l 6.172839506172844e-3,1.0691671651659731e-2 l -1.2345679012345677e-2,1.0408340855860843e-17 l -6.172839506172831e-3,1.069167165165974e-2 l 6.172839506172841e-3,1.0691671651659735e-2 l 1.2345679012345678e-2,8.673617379884035e-19 l -6.172839506172836e-3,1.0691671651659736e-2 l 6.172839506172841e-3,1.0691671651659735e-2 h 1.2345679012345678e-2 l 6.172839506172841e-3,-1.0691671651659735e-2 l 6.172839506172841e-3,1.0691671651659735e-2 h 1.2345679012345678e-2 l -6.172839506172832e-3,1.0691671651659742e-2 l 6.172839506172845e-3,1.0691671651659733e-2 l -1.2345679012345678e-2,1.0408340855860843e-17 l -6.172839506172832e-3,1.0691671651659742e-2 l 6.172839506172841e-3,1.0691671651659735e-2 l 1.2345679012345678e-2,8.673617379884035e-19 l -6.172839506172836e-3,1.0691671651659736e-2 l 6.172839506172841e-3,1.0691671651659735e-2 h 1.2345679012345678e-2 l 6.172839506172841e-3,-1.0691671651659735e-2 l 6.172839506172841e-3,1.0691671651659735e-2 h 1.2345679012345678e-2 l 6.172839506172841e-3,-1.0691671651659735e-2 l -6.172839506172836e-3,-1.0691671651659736e-2 l 1.2345679012345678e-2,-8.673617379884035e-19 l 6.172839506172841e-3,-1.0691671651659735e-2 l 6.172839506172841e-3,1.0691671651659735e-2 l 1.2345679012345678e-2,8.673617379884035e-19 l -6.172839506172836e-3,1.0691671651659736e-2 l 6.172839506172841e-3,1.0691671651659735e-2 h 1.2345679012345678e-2 l 6.172839506172841e-3,-1.0691671651659735e-2 l 6.172839506172841e-3,1.0691671651659735e-2 h 1.2345679012345678e-2 l 6.172839506172841e-3,-1.0691671651659735e-2 l -6.172839506172836e-3,-1.0691671651659736e-2 l 1.2345679012345678e-2,-8.673617379884035e-19 l 6.172839506172841e-3,-1.0691671651659735e-2 l -6.172839506172832e-3,-1.0691671651659742e-2 l -1.2345679012345678e-2,-1.0408340855860843e-17 l 6.172839506172845e-3,-1.0691671651659733e-2 l -6.172839506172832e-3,-1.0691671651659742e-2 h 1.2345679012345678e-2 l 6.172839506172841e-3,-1.0691671651659735e-2 l 6.172839506172841e-3,1.0691671651659735e-2 h 1.2345679012345678e-2 l 6.172839506172841e-3,-1.0691671651659735e-2 l -6.172839506172836e-3,-1.0691671651659736e-2 l 1.2345679012345678e-2,-8.673617379884035e-19 l 6.172839506172841e-3,-1.0691671651659735e-2 l 6.172839506172841e-3,1.0691671651659735e-2 l 1.2345679012345678e-2,8.673617379884035e-19 l -6.172839506172836e-3,1.0691671651659736e-2 l 6.172839506172841e-3,1.0691671651659735e-2 h 1.2345679012345678e-2 l 6.172839506172841e-3,-1.0691671651659735e-2 l 6.172839506172841e-3,1.0691671651659735e-2 h 1.2345679012345678e-2 l -6.172839506172832e-3,1.0691671651659742e-2 l 6.172839506172845e-3,1.0691671651659733e-2 l -1.2345679012345678e-2,1.0408340855860843e-17 l -6.172839506172832e-3,1.0691671651659742e-2 l 6.172839506172841e-3,1.0691671651659735e-2 l 1.2345679012345678e-2,8.673617379884035e-19 l -6.172839506172836e-3,1.0691671651659736e-2 l 6.172839506172841e-3,1.0691671651659735e-2 h 1.2345679012345678e-2 l 6.172839506172841e-3,-1.0691671651659735e-2 l 6.172839506172841e-3,1.0691671651659735e-2 h 1.2345679012345678e-2 l 6.172839506172841e-3,-1.0691671651659735e-2 l -6.172839506172836e-3,-1.0691671651659736e-2 l 1.2345679012345678e-2,-8.673617379884035e-19 l 6.172839506172841e-3,-1.0691671651659735e-2 l 6.172839506172841e-3,1.0691671651659735e-2 l 1.2345679012345678e-2,8.673617379884035e-19 l -6.172839506172836e-3,1.0691671651659736e-2 l 6.172839506172841e-3,1.0691671651659735e-2 h 1.2345679012345678e-2 l 6.172839506172841e-3,-1.0691671651659735e-2 l 6.172839506172841e-3,1.0691671651659735e-2 h 1.2345679012345678e-2 l -6.1728395061728366e-3,1.0691671651659736e-2 l 6.172839506172839e-3,1.0691671651659735e-2 l -1.2345679012345678e-2,5.204170427930421e-18 l -6.1728395061728366e-3,1.0691671651659736e-2 l 6.172839506172839e-3,1.0691671651659735e-2 h 1.2345679012345677e-2 l -6.172839506172836e-3,1.0691671651659736e-2 l 6.172839506172839e-3,1.0691671651659735e-2 l -1.2345679012345678e-2,5.204170427930421e-18 l -6.172839506172837e-3,1.0691671651659736e-2 l -6.172839506172844e-3,-1.0691671651659731e-2 l -1.2345679012345678e-2,5.204170427930421e-18 l -6.1728395061728366e-3,1.0691671651659736e-2 l 6.172839506172839e-3,1.0691671651659735e-2 l -1.2345679012345678e-2,5.204170427930421e-18 l -6.1728395061728366e-3,1.0691671651659736e-2 l 6.172839506172839e-3,1.0691671651659735e-2 h 1.2345679012345677e-2 l -6.172839506172836e-3,1.0691671651659736e-2 l 6.172839506172839e-3,1.0691671651659735e-2 l 1.2345679012345678e-2,6.071532165918825e-18 l 6.172839506172845e-3,-1.0691671651659731e-2 l 6.172839506172836e-3,1.0691671651659736e-2 l 1.2345679012345678e-2,6.071532165918825e-18 l -6.1728395061728366e-3,1.0691671651659736e-2 l 6.172839506172839e-3,1.0691671651659735e-2 l -1.2345679012345678e-2,5.204170427930421e-18 l -6.1728395061728366e-3,1.0691671651659736e-2 l 6.172839506172839e-3,1.0691671651659735e-2 h 1.2345679012345677e-2 l -6.172839506172836e-3,1.0691671651659736e-2 l 6.172839506172839e-3,1.0691671651659735e-2 l -1.2345679012345678e-2,5.204170427930421e-18 l -6.172839506172837e-3,1.0691671651659736e-2 l -6.172839506172844e-3,-1.0691671651659731e-2 l -1.2345679012345678e-2,5.204170427930421e-18 l -6.1728395061728366e-3,1.0691671651659736e-2 l 6.172839506172839e-3,1.0691671651659735e-2 l -1.2345679012345678e-2,5.204170427930421e-18 l -6.1728395061728366e-3,1.0691671651659736e-2 l -6.17283950617285e-3,-1.069167165165973e-2 l -1.2345679012345678e-2,9.540979117872439e-18 l 6.172839506172828e-3,-1.0691671651659742e-2 l -6.17283950617285e-3,-1.069167165165973e-2 l -1.2345679012345678e-2,5.204170427930421e-18 l -6.172839506172837e-3,1.0691671651659736e-2 l -6.172839506172844e-3,-1.0691671651659731e-2 l -1.2345679012345678e-2,5.204170427930421e-18 l -6.1728395061728366e-3,1.0691671651659736e-2 l 6.172839506172839e-3,1.0691671651659735e-2 l -1.2345679012345678e-2,5.204170427930421e-18 l -6.1728395061728366e-3,1.0691671651659736e-2 l 6.172839506172839e-3,1.0691671651659735e-2 h 1.2345679012345677e-2 l -6.172839506172836e-3,1.0691671651659736e-2 l 6.172839506172839e-3,1.0691671651659735e-2 l -1.2345679012345678e-2,5.204170427930421e-18 l -6.172839506172837e-3,1.0691671651659736e-2 l -6.172839506172844e-3,-1.0691671651659731e-2 l -1.2345679012345678e-2,5.204170427930421e-18 l -6.1728395061728366e-3,1.0691671651659736e-2 l 6.172839506172839e-3,1.0691671651659735e-2 l -1.2345679012345678e-2,5.204170427930421e-18 l -6.1728395061728366e-3,1.0691671651659736e-2 l 6.172839506172839e-3,1.0691671651659735e-2 h 1.2345679012345677e-2 l -6.172839506172836e-3,1.0691671651659736e-2 l 6.172839506172839e-3,1.0691671651659735e-2 l 1.2345679012345678e-2,6.071532165918825e-18 l 6.172839506172845e-3,-1.0691671651659731e-2 l 6.172839506172836e-3,1.0691671651659736e-2 l 1.2345679012345678e-2,6.071532165918825e-18 l -6.1728395061728366e-3,1.0691671651659736e-2 l 6.172839506172839e-3,1.0691671651659735e-2 l -1.2345679012345678e-2,5.204170427930421e-18 l -6.1728395061728366e-3,1.0691671651659736e-2 l 6.172839506172839e-3,1.0691671651659735e-2 h 1.2345679012345677e-2 l -6.172839506172836e-3,1.0691671651659736e-2 l 6.172839506172839e-3,1.0691671651659735e-2 l 1.2345679012345677e-2,6.071532165918825e-18 l 6.172839506172844e-3,-1.069167165165973e-2 l 6.172839506172834e-3,1.0691671651659736e-2 l 1.2345679012345677e-2,6.071532165918825e-18 l 6.172839506172847e-3,-1.069167165165973e-2 l -6.172839506172827e-3,-1.069167165165974e-2 l 1.2345679012345678e-2,7.806255641895632e-18 l 6.172839506172847e-3,-1.069167165165973e-2 l 6.172839506172835e-3,1.0691671651659735e-2 l 1.2345679012345677e-2,6.071532165918825e-18 l -6.172839506172838e-3,1.0691671651659733e-2 l 6.172839506172835e-3,1.0691671651659735e-2 l 1.2345679012345677e-2,6.071532165918825e-18 l 6.172839506172844e-3,-1.069167165165973e-2 l 6.172839506172834e-3,1.0691671651659736e-2 l 1.2345679012345677e-2,6.071532165918825e-18 l -6.1728395061728366e-3,1.0691671651659736e-2 l 6.172839506172839e-3,1.0691671651659735e-2 l -1.2345679012345678e-2,5.204170427930421e-18 l -6.1728395061728366e-3,1.0691671651659736e-2 l 6.172839506172839e-3,1.0691671651659735e-2 h 1.2345679012345677e-2 l -6.172839506172836e-3,1.0691671651659736e-2 l 6.172839506172839e-3,1.0691671651659735e-2 l -1.2345679012345678e-2,5.204170427930421e-18 l -6.172839506172837e-3,1.0691671651659736e-2 l -6.172839506172844e-3,-1.0691671651659731e-2 l -1.2345679012345678e-2,5.204170427930421e-18 l -6.1728395061728366e-3,1.0691671651659736e-2 l 6.172839506172839e-3,1.0691671651659735e-2 l -1.2345679012345678e-2,5.204170427930421e-18 l -6.1728395061728366e-3,1.0691671651659736e-2 l 6.172839506172839e-3,1.0691671651659735e-2 h 1.2345679012345677e-2 l -6.172839506172836e-3,1.0691671651659736e-2 l 6.172839506172839e-3,1.0691671651659735e-2 l 1.2345679012345678e-2,6.071532165918825e-18 l 6.172839506172845e-3,-1.0691671651659731e-2 l 6.172839506172836e-3,1.0691671651659736e-2 l 1.2345679012345678e-2,6.071532165918825e-18 l -6.1728395061728366e-3,1.0691671651659736e-2 l 6.172839506172839e-3,1.0691671651659735e-2 l -1.2345679012345678e-2,5.204170427930421e-18 l -6.1728395061728366e-3,1.0691671651659736e-2 l 6.172839506172839e-3,1.0691671651659735e-2 h 1.2345679012345677e-2 l -6.172839506172836e-3,1.0691671651659736e-2 l 6.172839506172839e-3,1.0691671651659735e-2 l -1.2345679012345678e-2,5.204170427930421e-18 l -6.172839506172837e-3,1.0691671651659736e-2 l -6.172839506172844e-3,-1.0691671651659731e-2 l -1.2345679012345678e-2,5.204170427930421e-18 l -6.1728395061728366e-3,1.0691671651659736e-2 l 6.172839506172839e-3,1.0691671651659735e-2 l -1.2345679012345678e-2,5.204170427930421e-18 l -6.1728395061728366e-3,1.0691671651659736e-2 l -6.17283950617285e-3,-1.069167165165973e-2 l -1.2345679012345678e-2,9.540979117872439e-18 l 6.172839506172828e-3,-1.0691671651659742e-2 l -6.17283950617285e-3,-1.069167165165973e-2 l -1.2345679012345678e-2,5.204170427930421e-18 l -6.172839506172837e-3,1.0691671651659736e-2 l -6.172839506172844e-3,-1.0691671651659731e-2 l -1.2345679012345678e-2,5.204170427930421e-18 l -6.1728395061728366e-3,1.0691671651659736e-2 l 6.172839506172839e-3,1.0691671651659735e-2 l -1.2345679012345678e-2,5.204170427930421e-18 l -6.1728395061728366e-3,1.0691671651659736e-2 l 6.172839506172839e-3,1.0691671651659735e-2 h 1.2345679012345677e-2 l -6.172839506172836e-3,1.0691671651659736e-2 l 6.172839506172839e-3,1.0691671651659735e-2 l -1.2345679012345678e-2,5.204170427930421e-18 l -6.172839506172837e-3,1.0691671651659736e-2 l -6.172839506172844e-3,-1.0691671651659731e-2 l -1.2345679012345678e-2,5.204170427930421e-18 l -6.1728395061728366e-3,1.0691671651659736e-2 l 6.172839506172839e-3,1.0691671651659735e-2 l -1.2345679012345678e-2,5.204170427930421e-18 l -6.1728395061728366e-3,1.0691671651659736e-2 l -6.172839506172848e-3,-1.069167165165973e-2 l -1.2345679012345677e-2,9.540979117872439e-18 l 6.172839506172827e-3,-1.069167165165974e-2 l -6.172839506172848e-3,-1.069167165165973e-2 l -1.2345679012345675e-2,8.673617379884035e-18 l -6.172839506172833e-3,1.0691671651659736e-2 l -6.172839506172848e-3,-1.0691671651659726e-2 l -1.2345679012345675e-2,8.673617379884035e-18 l 6.172839506172826e-3,-1.0691671651659743e-2 l -6.17283950617285e-3,-1.069167165165973e-2 l 1.2345679012345677e-2,-1.734723475976807e-17 l 6.172839506172826e-3,-1.0691671651659743e-2 l -6.172839506172848e-3,-1.069167165165973e-2 l -1.2345679012345677e-2,9.540979117872439e-18 l 6.172839506172827e-3,-1.069167165165974e-2 l -6.172839506172848e-3,-1.069167165165973e-2 l -1.2345679012345678e-2,5.204170427930421e-18 l -6.172839506172837e-3,1.0691671651659736e-2 l -6.172839506172844e-3,-1.0691671651659731e-2 l -1.2345679012345678e-2,5.204170427930421e-18 l -6.1728395061728366e-3,1.0691671651659736e-2 l 6.172839506172839e-3,1.0691671651659735e-2 l -1.2345679012345678e-2,5.204170427930421e-18 l -6.1728395061728366e-3,1.0691671651659736e-2 l -6.17283950617285e-3,-1.069167165165973e-2 l -1.2345679012345678e-2,9.540979117872439e-18 l 6.172839506172828e-3,-1.0691671651659742e-2 l -6.17283950617285e-3,-1.069167165165973e-2 l -1.2345679012345678e-2,5.204170427930421e-18 l -6.172839506172837e-3,1.0691671651659736e-2 l -6.172839506172844e-3,-1.0691671651659731e-2 l -1.2345679012345678e-2,5.204170427930421e-18 l -6.1728395061728366e-3,1.0691671651659736e-2 l 6.172839506172839e-3,1.0691671651659735e-2 l -1.2345679012345678e-2,5.204170427930421e-18 l -6.1728395061728366e-3,1.0691671651659736e-2 l 6.172839506172839e-3,1.0691671651659735e-2 h 1.2345679012345677e-2 l -6.172839506172836e-3,1.0691671651659736e-2 l 6.172839506172839e-3,1.0691671651659735e-2 l -1.2345679012345678e-2,5.204170427930421e-18 l -6.172839506172837e-3,1.0691671651659736e-2 l -6.172839506172844e-3,-1.0691671651659731e-2 l -1.2345679012345678e-2,5.204170427930421e-18 l -6.1728395061728366e-3,1.0691671651659736e-2 l 6.172839506172839e-3,1.0691671651659735e-2 l -1.2345679012345678e-2,5.204170427930421e-18 l -6.1728395061728366e-3,1.0691671651659736e-2 l 6.172839506172839e-3,1.0691671651659735e-2 h 1.2345679012345677e-2 l -6.172839506172836e-3,1.0691671651659736e-2 l 6.172839506172839e-3,1.0691671651659735e-2 l 1.2345679012345678e-2,6.071532165918825e-18 l 6.172839506172845e-3,-1.0691671651659731e-2 l 6.172839506172836e-3,1.0691671651659736e-2 l 1.2345679012345678e-2,6.071532165918825e-18 l -6.1728395061728366e-3,1.0691671651659736e-2 l 6.172839506172839e-3,1.0691671651659735e-2 l -1.2345679012345678e-2,5.204170427930421e-18 l -6.1728395061728366e-3,1.0691671651659736e-2 l 6.172839506172839e-3,1.0691671651659735e-2 h 1.2345679012345677e-2 l -6.172839506172836e-3,1.0691671651659736e-2 l 6.172839506172839e-3,1.0691671651659735e-2 l -1.2345679012345678e-2,5.204170427930421e-18 l -6.172839506172837e-3,1.0691671651659736e-2 l -6.172839506172844e-3,-1.0691671651659731e-2 l -1.2345679012345678e-2,5.204170427930421e-18 l -6.1728395061728366e-3,1.0691671651659736e-2 l 6.172839506172839e-3,1.0691671651659735e-2 l -1.2345679012345678e-2,5.204170427930421e-18 l -6.1728395061728366e-3,1.0691671651659736e-2 l -6.17283950617285e-3,-1.069167165165973e-2 l -1.2345679012345678e-2,9.540979117872439e-18 l 6.172839506172828e-3,-1.0691671651659742e-2 l -6.17283950617285e-3,-1.069167165165973e-2 l -1.2345679012345678e-2,5.204170427930421e-18 l -6.172839506172837e-3,1.0691671651659736e-2 l -6.172839506172844e-3,-1.0691671651659731e-2 l -1.2345679012345678e-2,5.204170427930421e-18 l -6.1728395061728366e-3,1.0691671651659736e-2 l 6.172839506172839e-3,1.0691671651659735e-2 l -1.2345679012345678e-2,5.204170427930421e-18 l -6.1728395061728366e-3,1.0691671651659736e-2 l 6.172839506172839e-3,1.0691671651659735e-2 h 1.2345679012345677e-2 l -6.172839506172836e-3,1.0691671651659736e-2 l 6.172839506172839e-3,1.0691671651659735e-2 l -1.2345679012345678e-2,5.204170427930421e-18 l -6.172839506172837e-3,1.0691671651659736e-2 l -6.172839506172844e-3,-1.0691671651659731e-2 l -1.2345679012345678e-2,5.204170427930421e-18 l -6.1728395061728366e-3,1.0691671651659736e-2 l 6.172839506172839e-3,1.0691671651659735e-2 l -1.2345679012345678e-2,5.204170427930421e-18 l -6.1728395061728366e-3,1.0691671651659736e-2 l -6.1728395061728435e-3,-1.0691671651659731e-2 l -1.2345679012345677e-2,3.469446951953614e-18 l 6.172839506172832e-3,-1.0691671651659738e-2 l -6.1728395061728435e-3,-1.0691671651659731e-2 l -1.2345679012345677e-2,3.469446951953614e-18 l -6.172839506172836e-3,1.0691671651659735e-2 l -6.172839506172844e-3,-1.0691671651659731e-2 l -1.2345679012345677e-2,3.469446951953614e-18 l 6.172839506172832e-3,-1.0691671651659738e-2 l -6.172839506172843e-3,-1.0691671651659733e-2 l 1.2345679012345677e-2,-9.540979117872439e-18 l 6.172839506172832e-3,-1.0691671651659738e-2 l -6.1728395061728435e-3,-1.0691671651659731e-2 l -1.2345679012345677e-2,3.469446951953614e-18 l 6.172839506172832e-3,-1.0691671651659738e-2 l -6.1728395061728435e-3,-1.0691671651659731e-2 l -1.2345679012345677e-2,3.469446951953614e-18 l -6.172839506172836e-3,1.0691671651659735e-2 l -6.172839506172844e-3,-1.0691671651659731e-2 l -1.2345679012345677e-2,3.469446951953614e-18 l -6.172839506172842e-3,1.0691671651659733e-2 l 6.172839506172834e-3,1.0691671651659736e-2 h -1.2345679012345677e-2 l -6.172839506172842e-3,1.0691671651659733e-2 l -6.1728395061728435e-3,-1.0691671651659731e-2 l -1.2345679012345677e-2,3.469446951953614e-18 l 6.172839506172832e-3,-1.0691671651659738e-2 l -6.1728395061728435e-3,-1.0691671651659731e-2 l -1.2345679012345677e-2,3.469446951953614e-18 l -6.172839506172836e-3,1.0691671651659735e-2 l -6.172839506172844e-3,-1.0691671651659731e-2 l -1.2345679012345677e-2,3.469446951953614e-18 l 6.172839506172832e-3,-1.0691671651659738e-2 l -6.172839506172843e-3,-1.0691671651659733e-2 l 1.2345679012345677e-2,-9.540979117872439e-18 l 6.172839506172832e-3,-1.0691671651659738e-2 l -6.1728395061728435e-3,-1.0691671651659731e-2 l -1.2345679012345677e-2,3.469446951953614e-18 l 6.172839506172832e-3,-1.0691671651659738e-2 l -6.1728395061728435e-3,-1.0691671651659731e-2 l 1.2345679012345677e-2,-1.474514954580286e-17 l 6.172839506172828e-3,-1.0691671651659742e-2 l 6.172839506172851e-3,1.0691671651659726e-2 l 1.2345679012345677e-2,-1.474514954580286e-17 l 6.172839506172832e-3,-1.0691671651659738e-2 l -6.172839506172843e-3,-1.0691671651659733e-2 l 1.2345679012345677e-2,-9.540979117872439e-18 l 6.172839506172832e-3,-1.0691671651659738e-2 l -6.1728395061728435e-3,-1.0691671651659731e-2 l -1.2345679012345677e-2,3.469446951953614e-18 l 6.172839506172832e-3,-1.0691671651659738e-2 l -6.1728395061728435e-3,-1.0691671651659731e-2 l -1.2345679012345677e-2,3.469446951953614e-18 l -6.172839506172836e-3,1.0691671651659735e-2 l -6.172839506172844e-3,-1.0691671651659731e-2 l -1.2345679012345677e-2,3.469446951953614e-18 l 6.172839506172832e-3,-1.0691671651659738e-2 l -6.172839506172843e-3,-1.0691671651659733e-2 l 1.2345679012345677e-2,-9.540979117872439e-18 l 6.172839506172832e-3,-1.0691671651659738e-2 l -6.1728395061728435e-3,-1.0691671651659731e-2 l -1.2345679012345677e-2,3.469446951953614e-18 l 6.172839506172832e-3,-1.0691671651659738e-2 l -6.1728395061728435e-3,-1.0691671651659731e-2 l -1.2345679012345677e-2,3.469446951953614e-18 l -6.172839506172836e-3,1.0691671651659735e-2 l -6.172839506172844e-3,-1.0691671651659731e-2 l -1.2345679012345677e-2,3.469446951953614e-18 l -6.172839506172842e-3,1.0691671651659733e-2 l 6.172839506172834e-3,1.0691671651659736e-2 h -1.2345679012345677e-2 l -6.172839506172842e-3,1.0691671651659733e-2 l -6.1728395061728435e-3,-1.0691671651659731e-2 l -1.2345679012345677e-2,3.469446951953614e-18 l 6.172839506172832e-3,-1.0691671651659738e-2 l -6.1728395061728435e-3,-1.0691671651659731e-2 l -1.2345679012345677e-2,3.469446951953614e-18 l -6.172839506172836e-3,1.0691671651659735e-2 l -6.172839506172844e-3,-1.0691671651659731e-2 l -1.2345679012345677e-2,3.469446951953614e-18 l -6.172839506172841e-3,1.0691671651659731e-2 l 6.172839506172832e-3,1.0691671651659735e-2 l -1.2345679012345677e-2,-1.734723475976807e-18 l -6.172839506172841e-3,1.0691671651659731e-2 l 6.172839506172831e-3,1.0691671651659736e-2 l 1.2345679012345675e-2,9.540979117872439e-18 l -6.1728395061728435e-3,1.0691671651659733e-2 l 6.172839506172831e-3,1.0691671651659736e-2 h -1.2345679012345675e-2 l -6.172839506172841e-3,1.0691671651659731e-2 l -6.172839506172839e-3,-1.0691671651659731e-2 h -1.2345679012345675e-2 l -6.172839506172841e-3,1.0691671651659731e-2 l 6.172839506172832e-3,1.0691671651659735e-2 l -1.2345679012345677e-2,-1.734723475976807e-18 l -6.172839506172841e-3,1.0691671651659731e-2 l -6.1728395061728435e-3,-1.0691671651659731e-2 l -1.2345679012345677e-2,3.469446951953614e-18 l 6.172839506172832e-3,-1.0691671651659738e-2 l -6.1728395061728435e-3,-1.0691671651659731e-2 l -1.2345679012345677e-2,3.469446951953614e-18 l -6.172839506172836e-3,1.0691671651659735e-2 l -6.172839506172844e-3,-1.0691671651659731e-2 l -1.2345679012345677e-2,3.469446951953614e-18 l 6.172839506172832e-3,-1.0691671651659738e-2 l -6.172839506172843e-3,-1.0691671651659733e-2 l 1.2345679012345677e-2,-9.540979117872439e-18 l 6.172839506172832e-3,-1.0691671651659738e-2 l -6.1728395061728435e-3,-1.0691671651659731e-2 l -1.2345679012345677e-2,3.469446951953614e-18 l 6.172839506172832e-3,-1.0691671651659738e-2 l -6.1728395061728435e-3,-1.0691671651659731e-2 l -1.2345679012345677e-2,3.469446951953614e-18 l -6.172839506172836e-3,1.0691671651659735e-2 l -6.172839506172844e-3,-1.0691671651659731e-2 l -1.2345679012345677e-2,3.469446951953614e-18 l -6.172839506172842e-3,1.0691671651659733e-2 l 6.172839506172834e-3,1.0691671651659736e-2 h -1.2345679012345677e-2 l -6.172839506172842e-3,1.0691671651659733e-2 l -6.1728395061728435e-3,-1.0691671651659731e-2 l -1.2345679012345677e-2,3.469446951953614e-18 l 6.172839506172832e-3,-1.0691671651659738e-2 l -6.1728395061728435e-3,-1.0691671651659731e-2 l -1.2345679012345677e-2,3.469446951953614e-18 l -6.172839506172836e-3,1.0691671651659735e-2 l -6.172839506172844e-3,-1.0691671651659731e-2 l -1.2345679012345677e-2,3.469446951953614e-18 l 6.172839506172832e-3,-1.0691671651659738e-2 l -6.172839506172843e-3,-1.0691671651659733e-2 l 1.2345679012345677e-2,-9.540979117872439e-18 l 6.172839506172832e-3,-1.0691671651659738e-2 l -6.1728395061728435e-3,-1.0691671651659731e-2 l -1.2345679012345677e-2,3.469446951953614e-18 l 6.172839506172832e-3,-1.0691671651659738e-2 l -6.1728395061728435e-3,-1.0691671651659731e-2 l 1.2345679012345677e-2,-1.474514954580286e-17 l 6.172839506172828e-3,-1.0691671651659742e-2 l 6.172839506172851e-3,1.0691671651659726e-2 l 1.2345679012345677e-2,-1.474514954580286e-17 l 6.172839506172832e-3,-1.0691671651659738e-2 l -6.172839506172843e-3,-1.0691671651659733e-2 l 1.2345679012345677e-2,-9.540979117872439e-18 l 6.172839506172832e-3,-1.0691671651659738e-2 l -6.1728395061728435e-3,-1.0691671651659731e-2 l -1.2345679012345677e-2,3.469446951953614e-18 l 6.172839506172832e-3,-1.0691671651659738e-2 l -6.1728395061728435e-3,-1.0691671651659731e-2 l -1.2345679012345677e-2,3.469446951953614e-18 l -6.172839506172836e-3,1.0691671651659735e-2 l -6.172839506172844e-3,-1.0691671651659731e-2 l -1.2345679012345677e-2,3.469446951953614e-18 l 6.172839506172832e-3,-1.0691671651659738e-2 l -6.172839506172843e-3,-1.0691671651659733e-2 l 1.2345679012345677e-2,-9.540979117872439e-18 l 6.172839506172832e-3,-1.0691671651659738e-2 l -6.1728395061728435e-3,-1.0691671651659731e-2 l -1.2345679012345677e-2,3.469446951953614e-18 l 6.172839506172832e-3,-1.0691671651659738e-2 l -6.1728395061728435e-3,-1.0691671651659731e-2 l 1.2345679012345677e-2,-1.3877787807814457e-17 l 6.172839506172827e-3,-1.069167165165974e-2 l 6.17283950617285e-3,1.0691671651659726e-2 l 1.2345679012345677e-2,-1.3877787807814457e-17 l 6.172839506172827e-3,-1.0691671651659736e-2 l -6.172839506172845e-3,-1.069167165165973e-2 l 1.2345679012345673e-2,-1.5612511283791264e-17 l 6.172839506172827e-3,-1.0691671651659736e-2 l 6.172839506172854e-3,1.0691671651659726e-2 l 1.2345679012345677e-2,-1.474514954580286e-17 l -6.172839506172821e-3,1.0691671651659743e-2 l 6.172839506172854e-3,1.0691671651659726e-2 l 1.2345679012345677e-2,-1.3877787807814457e-17 l 6.172839506172827e-3,-1.069167165165974e-2 l 6.17283950617285e-3,1.0691671651659726e-2 l 1.2345679012345677e-2,-1.3877787807814457e-17 l 6.172839506172832e-3,-1.0691671651659738e-2 l -6.172839506172843e-3,-1.0691671651659733e-2 l 1.2345679012345677e-2,-9.540979117872439e-18 l 6.172839506172832e-3,-1.0691671651659738e-2 l -6.1728395061728435e-3,-1.0691671651659731e-2 l -1.2345679012345677e-2,3.469446951953614e-18 l 6.172839506172832e-3,-1.0691671651659738e-2 l -6.1728395061728435e-3,-1.0691671651659731e-2 l 1.2345679012345677e-2,-1.474514954580286e-17 l 6.172839506172828e-3,-1.0691671651659742e-2 l 6.172839506172851e-3,1.0691671651659726e-2 l 1.2345679012345677e-2,-1.474514954580286e-17 l 6.172839506172832e-3,-1.0691671651659738e-2 l -6.172839506172843e-3,-1.0691671651659733e-2 l 1.2345679012345677e-2,-9.540979117872439e-18 l 6.172839506172832e-3,-1.0691671651659738e-2 l -6.1728395061728435e-3,-1.0691671651659731e-2 l -1.2345679012345677e-2,3.469446951953614e-18 l 6.172839506172832e-3,-1.0691671651659738e-2 l -6.1728395061728435e-3,-1.0691671651659731e-2 l -1.2345679012345677e-2,3.469446951953614e-18 l -6.172839506172836e-3,1.0691671651659735e-2 l -6.172839506172844e-3,-1.0691671651659731e-2 l -1.2345679012345677e-2,3.469446951953614e-18 l 6.172839506172832e-3,-1.0691671651659738e-2 l -6.172839506172843e-3,-1.0691671651659733e-2 l 1.2345679012345677e-2,-9.540979117872439e-18 l 6.172839506172832e-3,-1.0691671651659738e-2 l -6.1728395061728435e-3,-1.0691671651659731e-2 l -1.2345679012345677e-2,3.469446951953614e-18 l 6.172839506172832e-3,-1.0691671651659738e-2 l -6.1728395061728435e-3,-1.0691671651659731e-2 l -1.2345679012345677e-2,3.469446951953614e-18 l -6.172839506172836e-3,1.0691671651659735e-2 l -6.172839506172844e-3,-1.0691671651659731e-2 l -1.2345679012345677e-2,3.469446951953614e-18 l -6.172839506172842e-3,1.0691671651659733e-2 l 6.172839506172834e-3,1.0691671651659736e-2 h -1.2345679012345677e-2 l -6.172839506172842e-3,1.0691671651659733e-2 l -6.1728395061728435e-3,-1.0691671651659731e-2 l -1.2345679012345677e-2,3.469446951953614e-18 l 6.172839506172832e-3,-1.0691671651659738e-2 l -6.1728395061728435e-3,-1.0691671651659731e-2 l -1.2345679012345677e-2,3.469446951953614e-18 l -6.172839506172836e-3,1.0691671651659735e-2 l -6.172839506172844e-3,-1.0691671651659731e-2 l -1.2345679012345677e-2,3.469446951953614e-18 l 6.172839506172832e-3,-1.0691671651659738e-2 l -6.172839506172843e-3,-1.0691671651659733e-2 l 1.2345679012345677e-2,-9.540979117872439e-18 l 6.172839506172832e-3,-1.0691671651659738e-2 l -6.1728395061728435e-3,-1.0691671651659731e-2 l -1.2345679012345677e-2,3.469446951953614e-18 l 6.172839506172832e-3,-1.0691671651659738e-2 l -6.1728395061728435e-3,-1.0691671651659731e-2 l 1.2345679012345677e-2,-1.474514954580286e-17 l 6.172839506172828e-3,-1.0691671651659742e-2 l 6.172839506172851e-3,1.0691671651659726e-2 l 1.2345679012345677e-2,-1.474514954580286e-17 l 6.172839506172832e-3,-1.0691671651659738e-2 l -6.172839506172843e-3,-1.0691671651659733e-2 l 1.2345679012345677e-2,-9.540979117872439e-18 l 6.172839506172832e-3,-1.0691671651659738e-2 l -6.1728395061728435e-3,-1.0691671651659731e-2 l -1.2345679012345677e-2,3.469446951953614e-18 l 6.172839506172832e-3,-1.0691671651659738e-2 l -6.1728395061728435e-3,-1.0691671651659731e-2 l -1.2345679012345677e-2,3.469446951953614e-18 l -6.172839506172836e-3,1.0691671651659735e-2 l -6.172839506172844e-3,-1.0691671651659731e-2 l -1.2345679012345677e-2,3.469446951953614e-18 l 6.172839506172832e-3,-1.0691671651659738e-2 l -6.172839506172843e-3,-1.0691671651659733e-2 l 1.2345679012345677e-2,-9.540979117872439e-18 l 6.172839506172832e-3,-1.0691671651659738e-2 l -6.1728395061728435e-3,-1.0691671651659731e-2 l -1.2345679012345677e-2,3.469446951953614e-18 l 6.172839506172832e-3,-1.0691671651659738e-2 l -6.1728395061728435e-3,-1.0691671651659731e-2 Z" /></g></g></g></svg>