<?xml version="1.0" encoding="UTF-8"?>
<!DOCTYPE svg PUBLIC "-//W3C//DTD SVG 1.1//EN"
    "http://www.w3.org/Graphics/SVG/1.1/DTD/svg11.dtd">
<svg xmlns="http://www.w3.org/2000/svg" xmlns:xlink="http://www.w3.org/1999/xlink" version="1.1" width="400.0" height="120.99552168627056" font-size="1" viewBox="0 0 400 121"><g><g transform="matrix(165.2892561983471,0.0,0.0,165.2892561983471,200.0,60.497760843135275)"><g stroke="rgb(0,0,0)" stroke-opacity="1.0" fill="rgb(0,0,0)" fill-opacity="0.0" stroke-width="1.0e-2" font-size="1.0em"><path d="M 9.999999999999987e-2,0.0 c 7.113821138211383e-3,1.5243902439024378e-3 1.4227642276422765e-2,3.0487804878048756e-3 1.5625e-2 -2.6020852139652106e-18c 1.3973577235772343e-3,-3.048780487804878e-3 -2.921747967479677e-3,-1.0670731707317072e-2 -2.6020852139652106e-18 -1.5625e-2c 2.921747967479674e-3,-4.954268292682925e-3 1.308434959349593e-2,-7.2408536585365875e-3 1.5625e-2 -2.6020852139652106e-18c 2.5406504065040593e-3,7.240853658536585e-3 -2.540650406504061e-3,2.4009146341463415e-2 5.204170427930421e-18 3.125e-2c 2.5406504065040663e-3,7.240853658536585e-3 1.2703252032520325e-2,4.9542682926829295e-3 1.5625e-2 8.673617379884035e-19c 2.9217479674796673e-3,-4.954268292682929e-3 -1.3973577235772438e-3,-1.2576219512195123e-2 -2.6020852139652106e-18 -1.5625e-2c 1.3973577235772273e-3,-3.0487804878048777e-3 8.51117886178862e-3,-1.5243902439024402e-3 1.5625e-2 -2.6020852139652106e-18c 1.5243902439024393e-3,-7.113821138211383e-3 3.0487804878048786e-3,-1.4227642276422765e-2 9.567553118338697e-19 -1.5625e-2c -3.0487804878048777e-3,-1.397357723577235e-3 -1.0670731707317072e-2,2.921747967479674e-3 -1.5625e-2 -9.567553118338697e-19c -4.954268292682924e-3,-2.9217479674796755e-3 -7.240853658536584e-3,-1.3084349593495932e-2 9.567553118338697e-19 -1.5625e-2c 7.240853658536585e-3,-2.5406504065040576e-3 2.4009146341463415e-2,2.5406504065040663e-3 3.125e-2 1.9135106236677394e-18c 7.240853658536585e-3,-2.5406504065040646e-3 4.954268292682932e-3,-1.2703252032520325e-2 4.426202263787484e-18 -1.5625e-2c -4.954268292682928e-3,-2.9217479674796686e-3 -1.2576219512195123e-2,1.3973577235772408e-3 -1.5625e-2 -9.567553118338697e-19c -3.0487804878048773e-3,-1.397357723577228e-3 -1.5243902439024382e-3,-8.51117886178862e-3 9.567553118338697e-19 -1.5625e-2c 7.113821138211383e-3,1.5243902439024378e-3 1.4227642276422765e-2,3.0487804878048756e-3 1.5625e-2 -2.6020852139652106e-18c 1.3973577235772343e-3,-3.048780487804878e-3 -2.921747967479677e-3,-1.0670731707317072e-2 -2.6020852139652106e-18 -1.5625e-2c 2.921747967479674e-3,-4.954268292682925e-3 1.308434959349593e-2,-7.2408536585365875e-3 1.5625e-2 -2.6020852139652106e-18c 2.5406504065040593e-3,7.240853658536585e-3 -2.540650406504061e-3,2.4009146341463415e-2 5.204170427930421e-18 3.125e-2c 2.5406504065040663e-3,7.240853658536585e-3 1.2703252032520325e-2,4.9542682926829295e-3 1.5625e-2 8.673617379884035e-19c 2.9217479674796673e-3,-4.954268292682929e-3 -1.3973577235772438e-3,-1.2576219512195123e-2 -2.6020852139652106e-18 -1.5625e-2c 1.3973577235772273e-3,-3.0487804878048777e-3 8.51117886178862e-3,-1.5243902439024402e-3 1.5625e-2 -2.6020852139652106e-18c -3.048780487804877e-3,1.4227642276422765e-2 -6.097560975609754e-3,2.845528455284553e-2 1.9135106236677394e-18 3.125e-2c 6.0975609756097554e-3,2.794715447154469e-3 2.1341463414634144e-2,-5.843495934959352e-3 3.125e-2 -1.9135106236677394e-18c 9.908536585365849e-3,5.843495934959349e-3 1.4481707317073171e-2,2.6168699186991863e-2 1.9135106236677394e-18 3.125e-2c -1.448170731707317e-2,5.081300813008117e-3 -4.801829268292683e-2,-5.081300813008127e-3 -6.25e-2 3.827021247335479e-18c -1.448170731707317e-2,5.081300813008131e-3 -9.90853658536586e-3,2.540650406504065e-2 -5.0253832802394886e-18 3.125e-2c 9.908536585365856e-3,5.843495934959335e-3 2.5152439024390245e-2,-2.794715447154485e-3 3.125e-2 -1.9135106236677394e-18c 6.097560975609755e-3,2.794715447154455e-3 3.048780487804878e-3,1.702235772357724e-2 1.9135106236677394e-18 3.125e-2c 7.113821138211383e-3,1.5243902439024393e-3 1.4227642276422765e-2,3.0487804878048786e-3 1.5625e-2 8.673617379884035e-19c 1.397357723577235e-3,-3.0487804878048777e-3 -2.9217479674796746e-3,-1.0670731707317072e-2 8.673617379884035e-19 -1.5625e-2c 2.9217479674796755e-3,-4.954268292682924e-3 1.3084349593495932e-2,-7.240853658536584e-3 1.5625e-2 8.673617379884035e-19c 2.5406504065040576e-3,7.240853658536585e-3 -2.5406504065040663e-3,2.4009146341463415e-2 -1.734723475976807e-18 3.125e-2c 2.5406504065040646e-3,7.240853658536585e-3 1.2703252032520325e-2,4.954268292682932e-3 1.5625e-2 4.336808689942018e-18c 2.9217479674796686e-3,-4.954268292682928e-3 -1.397357723577241e-3,-1.2576219512195123e-2 8.673617379884035e-19 -1.5625e-2c 1.397357723577228e-3,-3.0487804878048773e-3 8.51117886178862e-3,-1.5243902439024382e-3 1.5625e-2 8.673617379884035e-19c 1.5243902439024393e-3,-7.113821138211383e-3 3.0487804878048786e-3,-1.4227642276422765e-2 9.567553118338697e-19 -1.5625e-2c -3.0487804878048777e-3,-1.397357723577235e-3 -1.0670731707317072e-2,2.921747967479674e-3 -1.5625e-2 -9.567553118338697e-19c -4.954268292682924e-3,-2.9217479674796755e-3 -7.240853658536584e-3,-1.3084349593495932e-2 9.567553118338697e-19 -1.5625e-2c 7.240853658536585e-3,-2.5406504065040576e-3 2.4009146341463415e-2,2.5406504065040663e-3 3.125e-2 1.9135106236677394e-18c 7.240853658536585e-3,-2.5406504065040646e-3 4.954268292682932e-3,-1.2703252032520325e-2 4.426202263787484e-18 -1.5625e-2c -4.954268292682928e-3,-2.9217479674796686e-3 -1.2576219512195123e-2,1.3973577235772408e-3 -1.5625e-2 -9.567553118338697e-19c -3.0487804878048773e-3,-1.397357723577228e-3 -1.5243902439024382e-3,-8.51117886178862e-3 9.567553118338697e-19 -1.5625e-2c 7.113821138211383e-3,1.5243902439024378e-3 1.4227642276422765e-2,3.0487804878048756e-3 1.5625e-2 -2.6020852139652106e-18c 1.3973577235772343e-3,-3.048780487804878e-3 -2.921747967479677e-3,-1.0670731707317072e-2 -2.6020852139652106e-18 -1.5625e-2c 2.921747967479674e-3,-4.954268292682925e-3 1.308434959349593e-2,-7.2408536585365875e-3 1.5625e-2 -2.6020852139652106e-18c 2.5406504065040593e-3,7.240853658536585e-3 -2.540650406504061e-3,2.4009146341463415e-2 5.204170427930421e-18 3.125e-2c 2.5406504065040663e-3,7.240853658536585e-3 1.2703252032520325e-2,4.9542682926829295e-3 1.5625e-2 8.673617379884035e-19c 2.9217479674796673e-3,-4.954268292682929e-3 -1.3973577235772438e-3,-1.2576219512195123e-2 -2.6020852139652106e-18 -1.5625e-2c 1.3973577235772273e-3,-3.0487804878048777e-3 8.51117886178862e-3,-1.5243902439024402e-3 1.5625e-2 -2.6020852139652106e-18c 1.5243902439024393e-3,-7.113821138211383e-3 3.0487804878048786e-3,-1.4227642276422765e-2 9.567553118338697e-19 -1.5625e-2c -3.0487804878048777e-3,-1.397357723577235e-3 -1.0670731707317072e-2,2.921747967479674e-3 -1.5625e-2 -9.567553118338697e-19c -4.954268292682924e-3,-2.9217479674796755e-3 -7.240853658536584e-3,-1.3084349593495932e-2 9.567553118338697e-19 -1.5625e-2c 7.240853658536585e-3,-2.5406504065040576e-3 2.4009146341463415e-2,2.5406504065040663e-3 3.125e-2 1.9135106236677394e-18c 7.240853658536585e-3,-2.5406504065040646e-3 4.954268292682932e-3,-1.2703252032520325e-2 4.426202263787484e-18 -1.5625e-2c -4.954268292682928e-3,-2.9217479674796686e-3 -1.2576219512195123e-2,1.3973577235772408e-3 -1.5625e-2 -9.567553118338697e-19c -3.0487804878048773e-3,-1.397357723577228e-3 -1.5243902439024382e-3,-8.51117886178862e-3 9.567553118338697e-19 -1.5625e-2c -7.113821138211383e-3,-1.5243902439024397e-3 -1.4227642276422765e-2,-3.0487804878048795e-3 -1.5625e-2 -1.9135106236677394e-18c -1.3973577235772351e-3,3.0487804878048777e-3 2.9217479674796738e-3,1.0670731707317072e-2 -1.9135106236677394e-18 1.5625e-2c -2.9217479674796755e-3,4.954268292682924e-3 -1.3084349593495933e-2,7.240853658536583e-3 -1.5625e-2 -1.9135106236677394e-18c -2.540650406504057e-3,-7.240853658536585e-3 2.540650406504068e-3,-2.4009146341463415e-2 3.827021247335479e-18 -3.125e-2c -2.540650406504064e-3,-7.240853658536585e-3 -1.2703252032520325e-2,-4.954268292682933e-3 -1.5625e-2 -5.382957575621354e-18c -2.9217479674796686e-3,4.954268292682928e-3 1.3973577235772401e-3,1.2576219512195123e-2 -1.9135106236677394e-18 1.5625e-2c -1.3973577235772282e-3,3.0487804878048773e-3 -8.51117886178862e-3,1.5243902439024376e-3 -1.5625e-2 -1.9135106236677394e-18c 1.5243902439024393e-3,-7.113821138211383e-3 3.0487804878048786e-3,-1.4227642276422765e-2 9.567553118338697e-19 -1.5625e-2c -3.0487804878048777e-3,-1.397357723577235e-3 -1.0670731707317072e-2,2.921747967479674e-3 -1.5625e-2 -9.567553118338697e-19c -4.954268292682924e-3,-2.9217479674796755e-3 -7.240853658536584e-3,-1.3084349593495932e-2 9.567553118338697e-19 -1.5625e-2c 7.240853658536585e-3,-2.5406504065040576e-3 2.4009146341463415e-2,2.5406504065040663e-3 3.125e-2 1.9135106236677394e-18c 7.240853658536585e-3,-2.5406504065040646e-3 4.954268292682932e-3,-1.2703252032520325e-2 4.426202263787484e-18 -1.5625e-2c -4.954268292682928e-3,-2.9217479674796686e-3 -1.2576219512195123e-2,1.3973577235772408e-3 -1.5625e-2 -9.567553118338697e-19c -3.0487804878048773e-3,-1.397357723577228e-3 -1.5243902439024382e-3,-8.51117886178862e-3 9.567553118338697e-19 -1.5625e-2c 1.4227642276422765e-2,3.0487804878048777e-3 2.845528455284553e-2,6.0975609756097554e-3 3.125e-2 1.7878714769093215e-19c 2.7947154471544694e-3,-6.0975609756097554e-3 -5.84349593495935e-3,-2.1341463414634144e-2 1.7878714769093215e-19 -3.125e-2c 5.84349593495935e-3,-9.908536585365849e-3 2.6168699186991863e-2,-1.448170731707317e-2 3.125e-2 1.7878714769093215e-19c 5.081300813008116e-3,1.448170731707317e-2 -5.08130081300813e-3,4.801829268292683e-2 -3.575742953818643e-19 6.25e-2c 5.08130081300813e-3,1.448170731707317e-2 2.540650406504065e-2,9.908536585365862e-3 3.125e-2 7.117681051598161e-18c 5.843495934959336e-3,-9.908536585365856e-3 -2.7947154471544833e-3,-2.5152439024390245e-2 1.7878714769093215e-19 -3.125e-2c 2.7947154471544555e-3,-6.097560975609755e-3 1.702235772357724e-2,-3.0487804878048773e-3 3.125e-2 1.7878714769093215e-19c 1.5243902439024408e-3,-7.113821138211383e-3 3.0487804878048816e-3,-1.4227642276422765e-2 4.426202263787484e-18 -1.5625e-2c -3.0487804878048773e-3,-1.3973577235772356e-3 -1.0670731707317072e-2,2.921747967479672e-3 -1.5625e-2 -4.426202263787484e-18c -4.954268292682923e-3,-2.9217479674796764e-3 -7.240853658536581e-3,-1.3084349593495933e-2 4.426202263787484e-18 -1.5625e-2c 7.240853658536586e-3,-2.540650406504056e-3 2.4009146341463415e-2,2.540650406504072e-3 3.125e-2 8.852404527574968e-18c 7.240853658536586e-3,-2.540650406504063e-3 4.954268292682935e-3,-1.2703252032520323e-2 7.895649215741098e-18 -1.5625e-2c -4.954268292682927e-3,-2.9217479674796694e-3 -1.2576219512195123e-2,1.3973577235772382e-3 -1.5625e-2 -4.426202263787484e-18c -3.048780487804877e-3,-1.3973577235772286e-3 -1.5243902439024363e-3,-8.51117886178862e-3 4.426202263787484e-18 -1.5625e-2c -7.113821138211383e-3,-1.5243902439024397e-3 -1.4227642276422765e-2,-3.0487804878048795e-3 -1.5625e-2 -1.9135106236677394e-18c -1.3973577235772351e-3,3.0487804878048777e-3 2.9217479674796738e-3,1.0670731707317072e-2 -1.9135106236677394e-18 1.5625e-2c -2.9217479674796755e-3,4.954268292682924e-3 -1.3084349593495933e-2,7.240853658536583e-3 -1.5625e-2 -1.9135106236677394e-18c -2.540650406504057e-3,-7.240853658536585e-3 2.540650406504068e-3,-2.4009146341463415e-2 3.827021247335479e-18 -3.125e-2c -2.540650406504064e-3,-7.240853658536585e-3 -1.2703252032520325e-2,-4.954268292682933e-3 -1.5625e-2 -5.382957575621354e-18c -2.9217479674796686e-3,4.954268292682928e-3 1.3973577235772401e-3,1.2576219512195123e-2 -1.9135106236677394e-18 1.5625e-2c -1.3973577235772282e-3,3.0487804878048773e-3 -8.51117886178862e-3,1.5243902439024376e-3 -1.5625e-2 -1.9135106236677394e-18c 1.5243902439024393e-3,-7.113821138211383e-3 3.0487804878048786e-3,-1.4227642276422765e-2 9.567553118338697e-19 -1.5625e-2c -3.0487804878048777e-3,-1.397357723577235e-3 -1.0670731707317072e-2,2.921747967479674e-3 -1.5625e-2 -9.567553118338697e-19c -4.954268292682924e-3,-2.9217479674796755e-3 -7.240853658536584e-3,-1.3084349593495932e-2 9.567553118338697e-19 -1.5625e-2c 7.240853658536585e-3,-2.5406504065040576e-3 2.4009146341463415e-2,2.5406504065040663e-3 3.125e-2 1.9135106236677394e-18c 7.240853658536585e-3,-2.5406504065040646e-3 4.954268292682932e-3,-1.2703252032520325e-2 4.426202263787484e-18 -1.5625e-2c -4.954268292682928e-3,-2.9217479674796686e-3 -1.2576219512195123e-2,1.3973577235772408e-3 -1.5625e-2 -9.567553118338697e-19c -3.0487804878048773e-3,-1.397357723577228e-3 -1.5243902439024382e-3,-8.51117886178862e-3 9.567553118338697e-19 -1.5625e-2c 7.113821138211383e-3,1.5243902439024378e-3 1.4227642276422765e-2,3.0487804878048756e-3 1.5625e-2 -2.6020852139652106e-18c 1.3973577235772343e-3,-3.048780487804878e-3 -2.921747967479677e-3,-1.0670731707317072e-2 -2.6020852139652106e-18 -1.5625e-2c 2.921747967479674e-3,-4.954268292682925e-3 1.308434959349593e-2,-7.2408536585365875e-3 1.5625e-2 -2.6020852139652106e-18c 2.5406504065040593e-3,7.240853658536585e-3 -2.540650406504061e-3,2.4009146341463415e-2 5.204170427930421e-18 3.125e-2c 2.5406504065040663e-3,7.240853658536585e-3 1.2703252032520325e-2,4.9542682926829295e-3 1.5625e-2 8.673617379884035e-19c 2.9217479674796673e-3,-4.954268292682929e-3 -1.3973577235772438e-3,-1.2576219512195123e-2 -2.6020852139652106e-18 -1.5625e-2c 1.3973577235772273e-3,-3.0487804878048777e-3 8.51117886178862e-3,-1.5243902439024402e-3 1.5625e-2 -2.6020852139652106e-18c 1.5243902439024393e-3,-7.113821138211383e-3 3.0487804878048786e-3,-1.4227642276422765e-2 9.567553118338697e-19 -1.5625e-2c -3.0487804878048777e-3,-1.397357723577235e-3 -1.0670731707317072e-2,2.921747967479674e-3 -1.5625e-2 -9.567553118338697e-19c -4.954268292682924e-3,-2.9217479674796755e-3 -7.240853658536584e-3,-1.3084349593495932e-2 9.567553118338697e-19 -1.5625e-2c 7.240853658536585e-3,-2.5406504065040576e-3 2.4009146341463415e-2,2.5406504065040663e-3 3.125e-2 1.9135106236677394e-18c 7.240853658536585e-3,-2.5406504065040646e-3 4.954268292682932e-3,-1.2703252032520325e-2 4.426202263787484e-18 -1.5625e-2c -4.954268292682928e-3,-2.9217479674796686e-3 -1.2576219512195123e-2,1.3973577235772408e-3 -1.5625e-2 -9.567553118338697e-19c -3.0487804878048773e-3,-1.397357723577228e-3 -1.5243902439024382e-3,-8.51117886178862e-3 9.567553118338697e-19 -1.5625e-2c 7.113821138211383e-3,1.5243902439024378e-3 1.4227642276422765e-2,3.0487804878048756e-3 1.5625e-2 -2.6020852139652106e-18c 1.3973577235772343e-3,-3.048780487804878e-3 -2.921747967479677e-3,-1.0670731707317072e-2 -2.6020852139652106e-18 -1.5625e-2c 2.921747967479674e-3,-4.954268292682925e-3 1.308434959349593e-2,-7.2408536585365875e-3 1.5625e-2 -2.6020852139652106e-18c 2.5406504065040593e-3,7.240853658536585e-3 -2.540650406504061e-3,2.4009146341463415e-2 5.204170427930421e-18 3.125e-2c 2.5406504065040663e-3,7.240853658536585e-3 1.2703252032520325e-2,4.9542682926829295e-3 1.5625e-2 8.673617379884035e-19c 2.9217479674796673e-3,-4.954268292682929e-3 -1.3973577235772438e-3,-1.2576219512195123e-2 -2.6020852139652106e-18 -1.5625e-2c 1.3973577235772273e-3,-3.0487804878048777e-3 8.51117886178862e-3,-1.5243902439024402e-3 1.5625e-2 -2.6020852139652106e-18c -3.048780487804877e-3,1.4227642276422765e-2 -6.097560975609754e-3,2.845528455284553e-2 1.9135106236677394e-18 3.125e-2c 6.0975609756097554e-3,2.794715447154469e-3 2.1341463414634144e-2,-5.843495934959352e-3 3.125e-2 -1.9135106236677394e-18c 9.908536585365849e-3,5.843495934959349e-3 1.4481707317073171e-2,2.6168699186991863e-2 1.9135106236677394e-18 3.125e-2c -1.448170731707317e-2,5.081300813008117e-3 -4.801829268292683e-2,-5.081300813008127e-3 -6.25e-2 3.827021247335479e-18c -1.448170731707317e-2,5.081300813008131e-3 -9.90853658536586e-3,2.540650406504065e-2 -5.0253832802394886e-18 3.125e-2c 9.908536585365856e-3,5.843495934959335e-3 2.5152439024390245e-2,-2.794715447154485e-3 3.125e-2 -1.9135106236677394e-18c 6.097560975609755e-3,2.794715447154455e-3 3.048780487804878e-3,1.702235772357724e-2 1.9135106236677394e-18 3.125e-2c 7.113821138211383e-3,1.5243902439024393e-3 1.4227642276422765e-2,3.0487804878048786e-3 1.5625e-2 8.673617379884035e-19c 1.397357723577235e-3,-3.0487804878048777e-3 -2.9217479674796746e-3,-1.0670731707317072e-2 8.673617379884035e-19 -1.5625e-2c 2.9217479674796755e-3,-4.954268292682924e-3 1.3084349593495932e-2,-7.240853658536584e-3 1.5625e-2 8.673617379884035e-19c 2.5406504065040576e-3,7.240853658536585e-3 -2.5406504065040663e-3,2.4009146341463415e-2 -1.734723475976807e-18 3.125e-2c 2.5406504065040646e-3,7.240853658536585e-3 1.2703252032520325e-2,4.954268292682932e-3 1.5625e-2 4.336808689942018e-18c 2.9217479674796686e-3,-4.954268292682928e-3 -1.397357723577241e-3,-1.2576219512195123e-2 8.673617379884035e-19 -1.5625e-2c 1.397357723577228e-3,-3.0487804878048773e-3 8.51117886178862e-3,-1.5243902439024382e-3 1.5625e-2 8.673617379884035e-19c 1.5243902439024393e-3,-7.113821138211383e-3 3.0487804878048786e-3,-1.4227642276422765e-2 9.567553118338697e-19 -1.5625e-2c -3.0487804878048777e-3,-1.397357723577235e-3 -1.0670731707317072e-2,2.921747967479674e-3 -1.5625e-2 -9.567553118338697e-19c -4.954268292682924e-3,-2.9217479674796755e-3 -7.240853658536584e-3,-1.3084349593495932e-2 9.567553118338697e-19 -1.5625e-2c 7.240853658536585e-3,-2.5406504065040576e-3 2.4009146341463415e-2,2.5406504065040663e-3 3.125e-2 1.9135106236677394e-18c 7.240853658536585e-3,-2.5406504065040646e-3 4.954268292682932e-3,-1.2703252032520325e-2 4.426202263787484e-18 -1.5625e-2c -4.954268292682928e-3,-2.9217479674796686e-3 -1.2576219512195123e-2,1.3973577235772408e-3 -1.5625e-2 -9.567553118338697e-19c -3.0487804878048773e-3,-1.397357723577228e-3 -1.5243902439024382e-3,-8.51117886178862e-3 9.567553118338697e-19 -1.5625e-2c 7.113821138211383e-3,1.5243902439024378e-3 1.4227642276422765e-2,3.0487804878048756e-3 1.5625e-2 -2.6020852139652106e-18c 1.3973577235772343e-3,-3.048780487804878e-3 -2.921747967479677e-3,-1.0670731707317072e-2 -2.6020852139652106e-18 -1.5625e-2c 2.921747967479674e-3,-4.954268292682925e-3 1.308434959349593e-2,-7.2408536585365875e-3 1.5625e-2 -2.6020852139652106e-18c 2.5406504065040593e-3,7.240853658536585e-3 -2.540650406504061e-3,2.4009146341463415e-2 5.204170427930421e-18 3.125e-2c 2.5406504065040663e-3,7.240853658536585e-3 1.2703252032520325e-2,4.9542682926829295e-3 1.5625e-2 8.673617379884035e-19c 2.9217479674796673e-3,-4.954268292682929e-3 -1.3973577235772438e-3,-1.2576219512195123e-2 -2.6020852139652106e-18 -1.5625e-2c 1.3973577235772273e-3,-3.0487804878048777e-3 8.51117886178862e-3,-1.5243902439024402e-3 1.5625e-2 -2.6020852139652106e-18c -3.048780487804877e-3,1.4227642276422765e-2 -6.097560975609754e-3,2.845528455284553e-2 1.9135106236677394e-18 3.125e-2c 6.0975609756097554e-3,2.794715447154469e-3 2.1341463414634144e-2,-5.843495934959352e-3 3.125e-2 -1.9135106236677394e-18c 9.908536585365849e-3,5.843495934959349e-3 1.4481707317073171e-2,2.6168699186991863e-2 1.9135106236677394e-18 3.125e-2c -1.448170731707317e-2,5.081300813008117e-3 -4.801829268292683e-2,-5.081300813008127e-3 -6.25e-2 3.827021247335479e-18c -1.448170731707317e-2,5.081300813008131e-3 -9.90853658536586e-3,2.540650406504065e-2 -5.0253832802394886e-18 3.125e-2c 9.908536585365856e-3,5.843495934959335e-3 2.5152439024390245e-2,-2.794715447154485e-3 3.125e-2 -1.9135106236677394e-18c 6.097560975609755e-3,2.794715447154455e-3 3.048780487804878e-3,1.702235772357724e-2 1.9135106236677394e-18 3.125e-2c 1.4227642276422765e-2,3.048780487804876e-3 2.845528455284553e-2,6.097560975609752e-3 3.125e-2 -3.648234099644546e-18c 2.7947154471544685e-3,-6.0975609756097554e-3 -5.843495934959353e-3,-2.1341463414634144e-2 -3.648234099644546e-18 -3.125e-2c 5.843495934959349e-3,-9.908536585365849e-3 2.6168699186991863e-2,-1.4481707317073173e-2 3.125e-2 -3.648234099644546e-18c 5.081300813008118e-3,1.448170731707317e-2 -5.081300813008125e-3,4.801829268292683e-2 7.296468199289092e-18 6.25e-2c 5.081300813008132e-3,1.448170731707317e-2 2.540650406504065e-2,9.908536585365859e-3 3.125e-2 3.2906598042626823e-18c 5.843495934959335e-3,-9.908536585365856e-3 -2.7947154471544863e-3,-2.5152439024390245e-2 -3.648234099644546e-18 -3.125e-2c 2.7947154471544547e-3,-6.097560975609755e-3 1.702235772357724e-2,-3.0487804878048795e-3 3.125e-2 -3.648234099644546e-18c -3.048780487804877e-3,1.4227642276422765e-2 -6.097560975609754e-3,2.845528455284553e-2 1.9135106236677394e-18 3.125e-2c 6.0975609756097554e-3,2.794715447154469e-3 2.1341463414634144e-2,-5.843495934959352e-3 3.125e-2 -1.9135106236677394e-18c 9.908536585365849e-3,5.843495934959349e-3 1.4481707317073171e-2,2.6168699186991863e-2 1.9135106236677394e-18 3.125e-2c -1.448170731707317e-2,5.081300813008117e-3 -4.801829268292683e-2,-5.081300813008127e-3 -6.25e-2 3.827021247335479e-18c -1.448170731707317e-2,5.081300813008131e-3 -9.90853658536586e-3,2.540650406504065e-2 -5.0253832802394886e-18 3.125e-2c 9.908536585365856e-3,5.843495934959335e-3 2.5152439024390245e-2,-2.794715447154485e-3 3.125e-2 -1.9135106236677394e-18c 6.097560975609755e-3,2.794715447154455e-3 3.048780487804878e-3,1.702235772357724e-2 1.9135106236677394e-18 3.125e-2c -2.845528455284553e-2,-6.097560975609752e-3 -5.691056910569106e-2,-1.2195121951219504e-2 -6.25e-2 7.654042494670958e-18c -5.589430894308937e-3,1.2195121951219511e-2 1.1686991869918706e-2,4.268292682926829e-2 7.654042494670958e-18 6.25e-2c -1.1686991869918699e-2,1.9817073170731697e-2 -5.233739837398372e-2,2.8963414634146346e-2 -6.25e-2 7.654042494670958e-18c -1.0162601626016236e-2,-2.896341463414634e-2 1.0162601626016248e-2,-9.603658536585366e-2 -1.5308084989341915e-17 -0.125c -1.0162601626016263e-2,-2.896341463414634e-2 -5.08130081300813e-2,-1.9817073170731718e-2 -6.25e-2 -6.223745313143499e-18c -1.168699186991867e-2,1.981707317073171e-2 5.589430894308973e-3,5.030487804878049e-2 7.654042494670958e-18 6.25e-2c -5.589430894308909e-3,1.219512195121951e-2 -3.404471544715448e-2,6.097560975609759e-3 -6.25e-2 7.654042494670958e-18c -3.048780487804877e-3,1.4227642276422765e-2 -6.097560975609754e-3,2.845528455284553e-2 1.9135106236677394e-18 3.125e-2c 6.0975609756097554e-3,2.794715447154469e-3 2.1341463414634144e-2,-5.843495934959352e-3 3.125e-2 -1.9135106236677394e-18c 9.908536585365849e-3,5.843495934959349e-3 1.4481707317073171e-2,2.6168699186991863e-2 1.9135106236677394e-18 3.125e-2c -1.448170731707317e-2,5.081300813008117e-3 -4.801829268292683e-2,-5.081300813008127e-3 -6.25e-2 3.827021247335479e-18c -1.448170731707317e-2,5.081300813008131e-3 -9.90853658536586e-3,2.540650406504065e-2 -5.0253832802394886e-18 3.125e-2c 9.908536585365856e-3,5.843495934959335e-3 2.5152439024390245e-2,-2.794715447154485e-3 3.125e-2 -1.9135106236677394e-18c 6.097560975609755e-3,2.794715447154455e-3 3.048780487804878e-3,1.702235772357724e-2 1.9135106236677394e-18 3.125e-2c 1.4227642276422765e-2,3.048780487804876e-3 2.845528455284553e-2,6.097560975609752e-3 3.125e-2 -3.648234099644546e-18c 2.7947154471544685e-3,-6.0975609756097554e-3 -5.843495934959353e-3,-2.1341463414634144e-2 -3.648234099644546e-18 -3.125e-2c 5.843495934959349e-3,-9.908536585365849e-3 2.6168699186991863e-2,-1.4481707317073173e-2 3.125e-2 -3.648234099644546e-18c 5.081300813008118e-3,1.448170731707317e-2 -5.081300813008125e-3,4.801829268292683e-2 7.296468199289092e-18 6.25e-2c 5.081300813008132e-3,1.448170731707317e-2 2.540650406504065e-2,9.908536585365859e-3 3.125e-2 3.2906598042626823e-18c 5.843495934959335e-3,-9.908536585365856e-3 -2.7947154471544863e-3,-2.5152439024390245e-2 -3.648234099644546e-18 -3.125e-2c 2.7947154471544547e-3,-6.097560975609755e-3 1.702235772357724e-2,-3.0487804878048795e-3 3.125e-2 -3.648234099644546e-18c -3.048780487804877e-3,1.4227642276422765e-2 -6.097560975609754e-3,2.845528455284553e-2 1.9135106236677394e-18 3.125e-2c 6.0975609756097554e-3,2.794715447154469e-3 2.1341463414634144e-2,-5.843495934959352e-3 3.125e-2 -1.9135106236677394e-18c 9.908536585365849e-3,5.843495934959349e-3 1.4481707317073171e-2,2.6168699186991863e-2 1.9135106236677394e-18 3.125e-2c -1.448170731707317e-2,5.081300813008117e-3 -4.801829268292683e-2,-5.081300813008127e-3 -6.25e-2 3.827021247335479e-18c -1.448170731707317e-2,5.081300813008131e-3 -9.90853658536586e-3,2.540650406504065e-2 -5.0253832802394886e-18 3.125e-2c 9.908536585365856e-3,5.843495934959335e-3 2.5152439024390245e-2,-2.794715447154485e-3 3.125e-2 -1.9135106236677394e-18c 6.097560975609755e-3,2.794715447154455e-3 3.048780487804878e-3,1.702235772357724e-2 1.9135106236677394e-18 3.125e-2c 7.113821138211383e-3,1.5243902439024393e-3 1.4227642276422765e-2,3.0487804878048786e-3 1.5625e-2 8.673617379884033e-19c 1.397357723577235e-3,-3.0487804878048777e-3 -2.9217479674796746e-3,-1.0670731707317072e-2 8.673617379884033e-19 -1.5625e-2c 2.9217479674796755e-3,-4.954268292682924e-3 1.3084349593495932e-2,-7.240853658536584e-3 1.5625e-2 8.673617379884033e-19c 2.5406504065040576e-3,7.240853658536585e-3 -2.5406504065040663e-3,2.4009146341463415e-2 -1.7347234759768065e-18 3.125e-2c 2.5406504065040646e-3,7.240853658536585e-3 1.2703252032520325e-2,4.954268292682932e-3 1.5625e-2 4.336808689942018e-18c 2.9217479674796686e-3,-4.954268292682928e-3 -1.397357723577241e-3,-1.2576219512195123e-2 8.673617379884033e-19 -1.5625e-2c 1.397357723577228e-3,-3.0487804878048773e-3 8.51117886178862e-3,-1.5243902439024382e-3 1.5625e-2 8.673617379884033e-19c 1.5243902439024393e-3,-7.113821138211383e-3 3.0487804878048786e-3,-1.4227642276422765e-2 9.567553118338697e-19 -1.5625e-2c -3.0487804878048777e-3,-1.397357723577235e-3 -1.0670731707317072e-2,2.921747967479674e-3 -1.5625e-2 -9.567553118338697e-19c -4.954268292682924e-3,-2.9217479674796755e-3 -7.240853658536584e-3,-1.3084349593495932e-2 9.567553118338697e-19 -1.5625e-2c 7.240853658536585e-3,-2.5406504065040576e-3 2.4009146341463415e-2,2.5406504065040663e-3 3.125e-2 1.9135106236677394e-18c 7.240853658536585e-3,-2.5406504065040646e-3 4.954268292682932e-3,-1.2703252032520325e-2 4.426202263787484e-18 -1.5625e-2c -4.954268292682928e-3,-2.9217479674796686e-3 -1.2576219512195123e-2,1.3973577235772408e-3 -1.5625e-2 -9.567553118338697e-19c -3.0487804878048773e-3,-1.397357723577228e-3 -1.5243902439024382e-3,-8.51117886178862e-3 9.567553118338697e-19 -1.5625e-2c 7.113821138211383e-3,1.5243902439024393e-3 1.4227642276422765e-2,3.0487804878048786e-3 1.5625e-2 8.673617379884033e-19c 1.397357723577235e-3,-3.0487804878048777e-3 -2.9217479674796746e-3,-1.0670731707317072e-2 8.673617379884033e-19 -1.5625e-2c 2.9217479674796755e-3,-4.954268292682924e-3 1.3084349593495932e-2,-7.240853658536584e-3 1.5625e-2 8.673617379884033e-19c 2.5406504065040576e-3,7.240853658536585e-3 -2.5406504065040663e-3,2.4009146341463415e-2 -1.7347234759768065e-18 3.125e-2c 2.5406504065040646e-3,7.240853658536585e-3 1.2703252032520325e-2,4.954268292682932e-3 1.5625e-2 4.336808689942018e-18c 2.9217479674796686e-3,-4.954268292682928e-3 -1.397357723577241e-3,-1.2576219512195123e-2 8.673617379884033e-19 -1.5625e-2c 1.397357723577228e-3,-3.0487804878048773e-3 8.51117886178862e-3,-1.5243902439024382e-3 1.5625e-2 8.673617379884033e-19c -3.048780487804877e-3,1.4227642276422765e-2 -6.097560975609754e-3,2.845528455284553e-2 1.9135106236677394e-18 3.125e-2c 6.0975609756097554e-3,2.794715447154469e-3 2.1341463414634144e-2,-5.843495934959352e-3 3.125e-2 -1.9135106236677394e-18c 9.908536585365849e-3,5.843495934959349e-3 1.4481707317073171e-2,2.6168699186991863e-2 1.9135106236677394e-18 3.125e-2c -1.448170731707317e-2,5.081300813008117e-3 -4.801829268292683e-2,-5.081300813008127e-3 -6.25e-2 3.827021247335479e-18c -1.448170731707317e-2,5.081300813008131e-3 -9.90853658536586e-3,2.540650406504065e-2 -5.0253832802394886e-18 3.125e-2c 9.908536585365856e-3,5.843495934959335e-3 2.5152439024390245e-2,-2.794715447154485e-3 3.125e-2 -1.9135106236677394e-18c 6.097560975609755e-3,2.794715447154455e-3 3.048780487804878e-3,1.702235772357724e-2 1.9135106236677394e-18 3.125e-2c 7.113821138211383e-3,1.5243902439024408e-3 1.4227642276422765e-2,3.0487804878048816e-3 1.5625e-2 4.336808689942018e-18c 1.3973577235772356e-3,-3.0487804878048773e-3 -2.921747967479672e-3,-1.0670731707317072e-2 4.336808689942018e-18 -1.5625e-2c 2.9217479674796764e-3,-4.954268292682923e-3 1.3084349593495933e-2,-7.240853658536581e-3 1.5625e-2 4.336808689942018e-18c 2.540650406504056e-3,7.240853658536586e-3 -2.5406504065040715e-3,2.4009146341463415e-2 -8.673617379884035e-18 3.125e-2c 2.540650406504063e-3,7.240853658536586e-3 1.2703252032520323e-2,4.954268292682935e-3 1.5625e-2 7.806255641895632e-18c 2.9217479674796694e-3,-4.954268292682927e-3 -1.3973577235772382e-3,-1.2576219512195123e-2 4.336808689942018e-18 -1.5625e-2c 1.3973577235772286e-3,-3.048780487804877e-3 8.51117886178862e-3,-1.5243902439024363e-3 1.5625e-2 4.336808689942018e-18c 1.5243902439024393e-3,-7.113821138211383e-3 3.0487804878048786e-3,-1.4227642276422765e-2 9.567553118338697e-19 -1.5625e-2c -3.0487804878048777e-3,-1.397357723577235e-3 -1.0670731707317072e-2,2.921747967479674e-3 -1.5625e-2 -9.567553118338697e-19c -4.954268292682924e-3,-2.9217479674796755e-3 -7.240853658536584e-3,-1.3084349593495932e-2 9.567553118338697e-19 -1.5625e-2c 7.240853658536585e-3,-2.5406504065040576e-3 2.4009146341463415e-2,2.5406504065040663e-3 3.125e-2 1.9135106236677394e-18c 7.240853658536585e-3,-2.5406504065040646e-3 4.954268292682932e-3,-1.2703252032520325e-2 4.426202263787484e-18 -1.5625e-2c -4.954268292682928e-3,-2.9217479674796686e-3 -1.2576219512195123e-2,1.3973577235772408e-3 -1.5625e-2 -9.567553118338697e-19c -3.0487804878048773e-3,-1.397357723577228e-3 -1.5243902439024382e-3,-8.51117886178862e-3 9.567553118338697e-19 -1.5625e-2c 7.113821138211383e-3,1.5243902439024393e-3 1.4227642276422765e-2,3.0487804878048786e-3 1.5625e-2 8.673617379884033e-19c 1.397357723577235e-3,-3.0487804878048777e-3 -2.9217479674796746e-3,-1.0670731707317072e-2 8.673617379884033e-19 -1.5625e-2c 2.9217479674796755e-3,-4.954268292682924e-3 1.3084349593495932e-2,-7.240853658536584e-3 1.5625e-2 8.673617379884033e-19c 2.5406504065040576e-3,7.240853658536585e-3 -2.5406504065040663e-3,2.4009146341463415e-2 -1.7347234759768065e-18 3.125e-2c 2.5406504065040646e-3,7.240853658536585e-3 1.2703252032520325e-2,4.954268292682932e-3 1.5625e-2 4.336808689942018e-18c 2.9217479674796686e-3,-4.954268292682928e-3 -1.397357723577241e-3,-1.2576219512195123e-2 8.673617379884033e-19 -1.5625e-2c 1.397357723577228e-3,-3.0487804878048773e-3 8.51117886178862e-3,-1.5243902439024382e-3 1.5625e-2 8.673617379884033e-19c 1.5243902439024393e-3,-7.113821138211383e-3 3.0487804878048786e-3,-1.4227642276422765e-2 9.567553118338697e-19 -1.5625e-2c -3.0487804878048777e-3,-1.397357723577235e-3 -1.0670731707317072e-2,2.921747967479674e-3 -1.5625e-2 -9.567553118338697e-19c -4.954268292682924e-3,-2.9217479674796755e-3 -7.240853658536584e-3,-1.3084349593495932e-2 9.567553118338697e-19 -1.5625e-2c 7.240853658536585e-3,-2.5406504065040576e-3 2.4009146341463415e-2,2.5406504065040663e-3 3.125e-2 1.9135106236677394e-18c 7.240853658536585e-3,-2.5406504065040646e-3 4.954268292682932e-3,-1.2703252032520325e-2 4.426202263787484e-18 -1.5625e-2c -4.954268292682928e-3,-2.9217479674796686e-3 -1.2576219512195123e-2,1.3973577235772408e-3 -1.5625e-2 -9.567553118338697e-19c -3.0487804878048773e-3,-1.397357723577228e-3 -1.5243902439024382e-3,-8.51117886178862e-3 9.567553118338697e-19 -1.5625e-2c -7.113821138211383e-3,-1.5243902439024397e-3 -1.4227642276422765e-2,-3.0487804878048795e-3 -1.5625e-2 -1.9135106236677394e-18c -1.3973577235772351e-3,3.0487804878048777e-3 2.9217479674796738e-3,1.0670731707317072e-2 -1.9135106236677394e-18 1.5625e-2c -2.9217479674796755e-3,4.954268292682924e-3 -1.3084349593495933e-2,7.240853658536583e-3 -1.5625e-2 -1.9135106236677394e-18c -2.540650406504057e-3,-7.240853658536585e-3 2.540650406504068e-3,-2.4009146341463415e-2 3.827021247335479e-18 -3.125e-2c -2.540650406504064e-3,-7.240853658536585e-3 -1.2703252032520325e-2,-4.954268292682933e-3 -1.5625e-2 -5.382957575621354e-18c -2.9217479674796686e-3,4.954268292682928e-3 1.3973577235772401e-3,1.2576219512195123e-2 -1.9135106236677394e-18 1.5625e-2c -1.3973577235772282e-3,3.0487804878048773e-3 -8.51117886178862e-3,1.5243902439024376e-3 -1.5625e-2 -1.9135106236677394e-18c 1.5243902439024393e-3,-7.113821138211383e-3 3.0487804878048786e-3,-1.4227642276422765e-2 9.567553118338697e-19 -1.5625e-2c -3.0487804878048777e-3,-1.397357723577235e-3 -1.0670731707317072e-2,2.921747967479674e-3 -1.5625e-2 -9.567553118338697e-19c -4.954268292682924e-3,-2.9217479674796755e-3 -7.240853658536584e-3,-1.3084349593495932e-2 9.567553118338697e-19 -1.5625e-2c 7.240853658536585e-3,-2.5406504065040576e-3 2.4009146341463415e-2,2.5406504065040663e-3 3.125e-2 1.9135106236677394e-18c 7.240853658536585e-3,-2.5406504065040646e-3 4.954268292682932e-3,-1.2703252032520325e-2 4.426202263787484e-18 -1.5625e-2c -4.954268292682928e-3,-2.9217479674796686e-3 -1.2576219512195123e-2,1.3973577235772408e-3 -1.5625e-2 -9.567553118338697e-19c -3.0487804878048773e-3,-1.397357723577228e-3 -1.5243902439024382e-3,-8.51117886178862e-3 9.567553118338697e-19 -1.5625e-2c 1.4227642276422765e-2,3.0487804878048777e-3 2.845528455284553e-2,6.0975609756097554e-3 3.125e-2 1.7878714769093215e-19c 2.7947154471544694e-3,-6.0975609756097554e-3 -5.84349593495935e-3,-2.1341463414634144e-2 1.7878714769093215e-19 -3.125e-2c 5.84349593495935e-3,-9.908536585365849e-3 2.6168699186991863e-2,-1.448170731707317e-2 3.125e-2 1.7878714769093215e-19c 5.081300813008116e-3,1.448170731707317e-2 -5.08130081300813e-3,4.801829268292683e-2 -3.575742953818643e-19 6.25e-2c 5.08130081300813e-3,1.448170731707317e-2 2.540650406504065e-2,9.908536585365862e-3 3.125e-2 7.117681051598161e-18c 5.843495934959336e-3,-9.908536585365856e-3 -2.7947154471544833e-3,-2.5152439024390245e-2 1.7878714769093215e-19 -3.125e-2c 2.7947154471544555e-3,-6.097560975609755e-3 1.702235772357724e-2,-3.0487804878048773e-3 3.125e-2 1.7878714769093215e-19c 1.5243902439024408e-3,-7.113821138211383e-3 3.0487804878048816e-3,-1.4227642276422765e-2 4.426202263787484e-18 -1.5625e-2c -3.0487804878048773e-3,-1.3973577235772356e-3 -1.0670731707317072e-2,2.921747967479672e-3 -1.5625e-2 -4.426202263787484e-18c -4.954268292682923e-3,-2.9217479674796764e-3 -7.240853658536581e-3,-1.3084349593495933e-2 4.426202263787484e-18 -1.5625e-2c 7.240853658536586e-3,-2.540650406504056e-3 2.4009146341463415e-2,2.540650406504072e-3 3.125e-2 8.852404527574968e-18c 7.240853658536586e-3,-2.540650406504063e-3 4.954268292682935e-3,-1.2703252032520323e-2 7.895649215741098e-18 -1.5625e-2c -4.954268292682927e-3,-2.9217479674796694e-3 -1.2576219512195123e-2,1.3973577235772382e-3 -1.5625e-2 -4.426202263787484e-18c -3.048780487804877e-3,-1.3973577235772286e-3 -1.5243902439024363e-3,-8.51117886178862e-3 4.426202263787484e-18 -1.5625e-2c -7.113821138211383e-3,-1.5243902439024397e-3 -1.4227642276422765e-2,-3.0487804878048795e-3 -1.5625e-2 -1.9135106236677394e-18c -1.3973577235772351e-3,3.0487804878048777e-3 2.9217479674796738e-3,1.0670731707317072e-2 -1.9135106236677394e-18 1.5625e-2c -2.9217479674796755e-3,4.954268292682924e-3 -1.3084349593495933e-2,7.240853658536583e-3 -1.5625e-2 -1.9135106236677394e-18c -2.540650406504057e-3,-7.240853658536585e-3 2.540650406504068e-3,-2.4009146341463415e-2 3.827021247335479e-18 -3.125e-2c -2.540650406504064e-3,-7.240853658536585e-3 -1.2703252032520325e-2,-4.954268292682933e-3 -1.5625e-2 -5.382957575621354e-18c -2.9217479674796686e-3,4.954268292682928e-3 1.3973577235772401e-3,1.2576219512195123e-2 -1.9135106236677394e-18 1.5625e-2c -1.3973577235772282e-3,3.0487804878048773e-3 -8.51117886178862e-3,1.5243902439024376e-3 -1.5625e-2 -1.9135106236677394e-18c 1.5243902439024393e-3,-7.113821138211383e-3 3.0487804878048786e-3,-1.4227642276422765e-2 9.567553118338697e-19 -1.5625e-2c -3.0487804878048777e-3,-1.397357723577235e-3 -1.0670731707317072e-2,2.921747967479674e-3 -1.5625e-2 -9.567553118338697e-19c -4.954268292682924e-3,-2.9217479674796755e-3 -7.240853658536584e-3,-1.3084349593495932e-2 9.567553118338697e-19 -1.5625e-2c 7.240853658536585e-3,-2.5406504065040576e-3 2.4009146341463415e-2,2.5406504065040663e-3 3.125e-2 1.9135106236677394e-18c 7.240853658536585e-3,-2.5406504065040646e-3 4.954268292682932e-3,-1.2703252032520325e-2 4.426202263787484e-18 -1.5625e-2c -4.954268292682928e-3,-2.9217479674796686e-3 -1.2576219512195123e-2,1.3973577235772408e-3 -1.5625e-2 -9.567553118338697e-19c -3.0487804878048773e-3,-1.397357723577228e-3 -1.5243902439024382e-3,-8.51117886178862e-3 9.567553118338697e-19 -1.5625e-2c 7.113821138211383e-3,1.5243902439024378e-3 1.4227642276422765e-2,3.0487804878048756e-3 1.5625e-2 -2.6020852139652106e-18c 1.3973577235772343e-3,-3.048780487804878e-3 -2.921747967479677e-3,-1.0670731707317072e-2 -2.6020852139652106e-18 -1.5625e-2c 2.921747967479674e-3,-4.954268292682925e-3 1.308434959349593e-2,-7.2408536585365875e-3 1.5625e-2 -2.6020852139652106e-18c 2.5406504065040593e-3,7.240853658536585e-3 -2.540650406504061e-3,2.4009146341463415e-2 5.204170427930421e-18 3.125e-2c 2.5406504065040663e-3,7.240853658536585e-3 1.2703252032520325e-2,4.9542682926829295e-3 1.5625e-2 8.673617379884035e-19c 2.9217479674796673e-3,-4.954268292682929e-3 -1.3973577235772438e-3,-1.2576219512195123e-2 -2.6020852139652106e-18 -1.5625e-2c 1.3973577235772273e-3,-3.0487804878048777e-3 8.51117886178862e-3,-1.5243902439024402e-3 1.5625e-2 -2.6020852139652106e-18c 1.5243902439024393e-3,-7.113821138211383e-3 3.0487804878048786e-3,-1.4227642276422765e-2 9.567553118338697e-19 -1.5625e-2c -3.0487804878048777e-3,-1.397357723577235e-3 -1.0670731707317072e-2,2.921747967479674e-3 -1.5625e-2 -9.567553118338697e-19c -4.954268292682924e-3,-2.9217479674796755e-3 -7.240853658536584e-3,-1.3084349593495932e-2 9.567553118338697e-19 -1.5625e-2c 7.240853658536585e-3,-2.5406504065040576e-3 2.4009146341463415e-2,2.5406504065040663e-3 3.125e-2 1.9135106236677394e-18c 7.240853658536585e-3,-2.5406504065040646e-3 4.954268292682932e-3,-1.2703252032520325e-2 4.426202263787484e-18 -1.5625e-2c -4.954268292682928e-3,-2.9217479674796686e-3 -1.2576219512195123e-2,1.3973577235772408e-3 -1.5625e-2 -9.567553118338697e-19c -3.0487804878048773e-3,-1.397357723577228e-3 -1.5243902439024382e-3,-8.51117886178862e-3 9.567553118338697e-19 -1.5625e-2c 7.113821138211383e-3,1.5243902439024378e-3 1.4227642276422765e-2,3.0487804878048756e-3 1.5625e-2 -2.6020852139652106e-18c 1.3973577235772343e-3,-3.048780487804878e-3 -2.921747967479677e-3,-1.0670731707317072e-2 -2.6020852139652106e-18 -1.5625e-2c 2.921747967479674e-3,-4.954268292682925e-3 1.308434959349593e-2,-7.2408536585365875e-3 1.5625e-2 -2.6020852139652106e-18c 2.5406504065040593e-3,7.240853658536585e-3 -2.540650406504061e-3,2.4009146341463415e-2 5.204170427930421e-18 3.125e-2c 2.5406504065040663e-3,7.240853658536585e-3 1.2703252032520325e-2,4.9542682926829295e-3 1.5625e-2 8.673617379884035e-19c 2.9217479674796673e-3,-4.954268292682929e-3 -1.3973577235772438e-3,-1.2576219512195123e-2 -2.6020852139652106e-18 -1.5625e-2c 1.3973577235772273e-3,-3.0487804878048777e-3 8.51117886178862e-3,-1.5243902439024402e-3 1.5625e-2 -2.6020852139652106e-18c -3.048780487804877e-3,1.4227642276422765e-2 -6.097560975609754e-3,2.845528455284553e-2 1.9135106236677394e-18 3.125e-2c 6.0975609756097554e-3,2.794715447154469e-3 2.1341463414634144e-2,-5.843495934959352e-3 3.125e-2 -1.9135106236677394e-18c 9.908536585365849e-3,5.843495934959349e-3 1.4481707317073171e-2,2.6168699186991863e-2 1.9135106236677394e-18 3.125e-2c -1.448170731707317e-2,5.081300813008117e-3 -4.801829268292683e-2,-5.081300813008127e-3 -6.25e-2 3.827021247335479e-18c -1.448170731707317e-2,5.081300813008131e-3 -9.90853658536586e-3,2.540650406504065e-2 -5.0253832802394886e-18 3.125e-2c 9.908536585365856e-3,5.843495934959335e-3 2.5152439024390245e-2,-2.794715447154485e-3 3.125e-2 -1.9135106236677394e-18c 6.097560975609755e-3,2.794715447154455e-3 3.048780487804878e-3,1.702235772357724e-2 1.9135106236677394e-18 3.125e-2c 7.113821138211383e-3,1.5243902439024393e-3 1.4227642276422765e-2,3.0487804878048786e-3 1.5625e-2 8.673617379884035e-19c 1.397357723577235e-3,-3.0487804878048777e-3 -2.9217479674796746e-3,-1.0670731707317072e-2 8.673617379884035e-19 -1.5625e-2c 2.9217479674796755e-3,-4.954268292682924e-3 1.3084349593495932e-2,-7.240853658536584e-3 1.5625e-2 8.673617379884035e-19c 2.5406504065040576e-3,7.240853658536585e-3 -2.5406504065040663e-3,2.4009146341463415e-2 -1.734723475976807e-18 3.125e-2c 2.5406504065040646e-3,7.240853658536585e-3 1.2703252032520325e-2,4.954268292682932e-3 1.5625e-2 4.336808689942018e-18c 2.9217479674796686e-3,-4.954268292682928e-3 -1.397357723577241e-3,-1.2576219512195123e-2 8.673617379884035e-19 -1.5625e-2c 1.397357723577228e-3,-3.0487804878048773e-3 8.51117886178862e-3,-1.5243902439024382e-3 1.5625e-2 8.673617379884035e-19c 1.5243902439024393e-3,-7.113821138211383e-3 3.0487804878048786e-3,-1.4227642276422765e-2 9.567553118338697e-19 -1.5625e-2c -3.0487804878048777e-3,-1.397357723577235e-3 -1.0670731707317072e-2,2.921747967479674e-3 -1.5625e-2 -9.567553118338697e-19c -4.954268292682924e-3,-2.9217479674796755e-3 -7.240853658536584e-3,-1.3084349593495932e-2 9.567553118338697e-19 -1.5625e-2c 7.240853658536585e-3,-2.5406504065040576e-3 2.4009146341463415e-2,2.5406504065040663e-3 3.125e-2 1.9135106236677394e-18c 7.240853658536585e-3,-2.5406504065040646e-3 4.954268292682932e-3,-1.2703252032520325e-2 4.426202263787484e-18 -1.5625e-2c -4.954268292682928e-3,-2.9217479674796686e-3 -1.2576219512195123e-2,1.3973577235772408e-3 -1.5625e-2 -9.567553118338697e-19c -3.0487804878048773e-3,-1.397357723577228e-3 -1.5243902439024382e-3,-8.51117886178862e-3 9.567553118338697e-19 -1.5625e-2c 7.113821138211383e-3,1.5243902439024378e-3 1.4227642276422765e-2,3.0487804878048756e-3 1.5625e-2 -2.6020852139652106e-18c 1.3973577235772343e-3,-3.048780487804878e-3 -2.921747967479677e-3,-1.0670731707317072e-2 -2.6020852139652106e-18 -1.5625e-2c 2.921747967479674e-3,-4.954268292682925e-3 1.308434959349593e-2,-7.2408536585365875e-3 1.5625e-2 -2.6020852139652106e-18c 2.5406504065040593e-3,7.240853658536585e-3 -2.540650406504061e-3,2.4009146341463415e-2 5.204170427930421e-18 3.125e-2c 2.5406504065040663e-3,7.240853658536585e-3 1.2703252032520325e-2,4.9542682926829295e-3 1.5625e-2 8.673617379884035e-19c 2.9217479674796673e-3,-4.954268292682929e-3 -1.3973577235772438e-3,-1.2576219512195123e-2 -2.6020852139652106e-18 -1.5625e-2c 1.3973577235772273e-3,-3.0487804878048777e-3 8.51117886178862e-3,-1.5243902439024402e-3 1.5625e-2 -2.6020852139652106e-18" /></g></g><g transform="matrix(165.2892561983471,0.0,0.0,165.2892561983471,200.0,60.497760843135275)"><g stroke="rgb(0,0,0)" stroke-opacity="1.0" fill="rgb(0,0,0)" fill-opacity="0.0" stroke-width="1.0e-2" font-size="1.0em"><path d="M -1.1,0.0 c 0.11382113821138212,2.4390243902439015e-2 0.22764227642276424,4.878048780487803e-2 0.25 -1.3877787807814457e-17c 2.2357723577235752e-2,-4.8780487804878044e-2 -4.674796747967481e-2,-0.17073170731707316 -1.3877787807814457e-17 -0.25c 4.6747967479674794e-2,-7.926829268292679e-2 0.2093495934959349,-0.11585365853658537 0.25 -1.3877787807814457e-17c 4.0650406504064936e-2,0.11585365853658536 -4.065040650406502e-2,0.38414634146341464 2.7755575615628914e-17 0.5c 4.065040650406505e-2,0.11585365853658536 0.2032520325203252,7.926829268292689e-2 0.25 4.163336342344337e-17c 4.674796747967468e-2,-7.926829268292684e-2 -2.2357723577235877e-2,-0.20121951219512196 -1.3877787807814457e-17 -0.25c 2.235772357723564e-2,-4.878048780487804e-2 0.13617886178861793,-2.4390243902439025e-2 0.25 -1.3877787807814457e-17" /></g></g></g></svg>