<svg xmlns="http://www.w3.org/2000/svg" height="400.0000" stroke-opacity="1" viewBox="0 0 400 400" font-size="1" width="400.0000" xmlns:xlink="http://www.w3.org/1999/xlink" stroke="rgb(0,0,0)" version="1.1"><defs></defs><g stroke-linejoin="miter" stroke-opacity="1.0" fill-opacity="0.0" stroke="rgb(0,0,0)" stroke-width="3.0" fill="rgb(0,0,0)" stroke-linecap="butt" stroke-miterlimit="10.0"><path d="M 79.2453,79.2453 h 3.7736 l 0.0000,3.7736 h 3.7736 l 0.0000,-3.7736 l 0.0000,-3.7736 h 3.7736 l 0.0000,3.7736 h 3.7736 l 0.0000,3.7736 l -3.7736,0.0000 l 0.0000,3.7736 h 3.7736 h 3.7736 l 0.0000,3.7736 l -3.7736,0.0000 l 0.0000,3.7736 h 3.7736 l 0.0000,3.7736 h 3.7736 l 0.0000,-3.7736 l 0.0000,-3.7736 h 3.7736 l 0.0000,3.7736 h 3.7736 l 0.0000,-3.7736 h 3.7736 l 0.0000,-3.7736 l -3.7736,-0.0000 l -3.7736,-0.0000 l 0.0000,-3.7736 h 3.7736 l 0.0000,-3.7736 l 0.0000,-3.7736 h 3.7736 l 0.0000,-3.7736 l -3.7736,-0.0000 l -3.7736,-0.0000 l 0.0000,-3.7736 h 3.7736 l 0.0000,-3.7736 h 3.7736 l 0.0000,3.7736 h 3.7736 l 0.0000,-3.7736 l 0.0000,-3.7736 h 3.7736 l 0.0000,3.7736 h 3.7736 l 0.0000,3.7736 l -3.7736,0.0000 l 0.0000,3.7736 h 3.7736 h 3.7736 l 0.0000,3.7736 l -3.7736,0.0000 l 0.0000,3.7736 h 3.7736 l 0.0000,3.7736 h 3.7736 l 0.0000,-3.7736 l 0.0000,-3.7736 h 3.7736 l 0.0000,3.7736 h 3.7736 l 0.0000,3.7736 l -3.7736,0.0000 l 0.0000,3.7736 h 3.7736 h 3.7736 l 0.0000,3.7736 l -3.7736,0.0000 l 0.0000,3.7736 l -3.7736,0.0000 l -0.0000,-3.7736 l -3.7736,0.0000 l 0.0000,3.7736 l 0.0000,3.7736 l -3.7736,0.0000 l -0.0000,-3.7736 l -3.7736,0.0000 l 0.0000,3.7736 l -3.7736,0.0000 l 0.0000,3.7736 h 3.7736 h 3.7736 l 0.0000,3.7736 l -3.7736,0.0000 l 0.0000,3.7736 h 3.7736 l 0.0000,3.7736 h 3.7736 l 0.0000,-3.7736 l 0.0000,-3.7736 h 3.7736 l 0.0000,3.7736 h 3.7736 h 3.7736 l 0.0000,3.7736 h 3.7736 l 0.0000,-3.7736 l 0.0000,-3.7736 h 3.7736 l 0.0000,3.7736 h 3.7736 l 0.0000,3.7736 l -3.7736,0.0000 l 0.0000,3.7736 h 3.7736 h 3.7736 l 0.0000,3.7736 l -3.7736,0.0000 l 0.0000,3.7736 l -3.7736,0.0000 l -0.0000,-3.7736 l -3.7736,0.0000 l 0.0000,3.7736 l 0.0000,3.7736 l -3.7736,0.0000 l -0.0000,-3.7736 l -3.7736,0.0000 l 0.0000,3.7736 l -3.7736,0.0000 l 0.0000,3.7736 h 3.7736 h 3.7736 l 0.0000,3.7736 l -3.7736,0.0000 l 0.0000,3.7736 h 3.7736 l 0.0000,3.7736 h 3.7736 l 0.0000,-3.7736 l 0.0000,-3.7736 h 3.7736 l 0.0000,3.7736 h 3.7736 l 0.0000,3.7736 l -3.7736,0.0000 l 0.0000,3.7736 h 3.7736 h 3.7736 l 0.0000,3.7736 l -3.7736,0.0000 l 0.0000,3.7736 h 3.7736 l 0.0000,3.7736 h 3.7736 l 0.0000,-3.7736 l 0.0000,-3.7736 h 3.7736 l 0.0000,3.7736 h 3.7736 l 0.0000,-3.7736 h 3.7736 l 0.0000,-3.7736 l -3.7736,-0.0000 l -3.7736,-0.0000 l 0.0000,-3.7736 h 3.7736 l 0.0000,-3.7736 l 0.0000,-3.7736 h 3.7736 l 0.0000,-3.7736 l -3.7736,-0.0000 l -3.7736,-0.0000 l 0.0000,-3.7736 h 3.7736 l 0.0000,-3.7736 h 3.7736 l 0.0000,3.7736 h 3.7736 l 0.0000,-3.7736 l 0.0000,-3.7736 h 3.7736 l 0.0000,3.7736 h 3.7736 l 0.0000,3.7736 l -3.7736,0.0000 l 0.0000,3.7736 h 3.7736 h 3.7736 l 0.0000,3.7736 l -3.7736,0.0000 l 0.0000,3.7736 h 3.7736 l 0.0000,3.7736 h 3.7736 l 0.0000,-3.7736 l 0.0000,-3.7736 h 3.7736 l 0.0000,3.7736 h 3.7736 l 0.0000,-3.7736 h 3.7736 l 0.0000,-3.7736 l -3.7736,-0.0000 l -3.7736,-0.0000 l 0.0000,-3.7736 h 3.7736 l 0.0000,-3.7736 h 3.7736 l 0.0000,3.7736 h 3.7736 l 0.0000,-3.7736 l 0.0000,-3.7736 h 3.7736 l 0.0000,3.7736 h 3.7736 l 0.0000,-3.7736 h 3.7736 l 0.0000,-3.7736 l -3.7736,-0.0000 l -3.7736,-0.0000 l 0.0000,-3.7736 h 3.7736 l 0.0000,-3.7736 l -3.7736,-0.0000 l 0.0000,-3.7736 l -3.7736,-0.0000 l -0.0000,3.7736 l -0.0000,3.7736 l -3.7736,-0.0000 l 0.0000,-3.7736 l -3.7736,-0.0000 l -3.7736,-0.0000 l 0.0000,-3.7736 l -3.7736,-0.0000 l -0.0000,3.7736 l -0.0000,3.7736 l -3.7736,-0.0000 l 0.0000,-3.7736 l -3.7736,-0.0000 l 0.0000,-3.7736 h 3.7736 l 0.0000,-3.7736 l -3.7736,-0.0000 l -3.7736,-0.0000 l 0.0000,-3.7736 h 3.7736 l 0.0000,-3.7736 h 3.7736 l 0.0000,3.7736 h 3.7736 l 0.0000,-3.7736 l 0.0000,-3.7736 h 3.7736 l 0.0000,3.7736 h 3.7736 l 0.0000,-3.7736 h 3.7736 l 0.0000,-3.7736 l -3.7736,-0.0000 l -3.7736,-0.0000 l 0.0000,-3.7736 h 3.7736 l 0.0000,-3.7736 l 0.0000,-3.7736 h 3.7736 l 0.0000,-3.7736 l -3.7736,-0.0000 l -3.7736,-0.0000 l 0.0000,-3.7736 h 3.7736 l 0.0000,-3.7736 h 3.7736 l 0.0000,3.7736 h 3.7736 l 0.0000,-3.7736 l 0.0000,-3.7736 h 3.7736 l 0.0000,3.7736 h 3.7736 l 0.0000,-3.7736 h 3.7736 l 0.0000,-3.7736 l -3.7736,-0.0000 l -3.7736,-0.0000 l 0.0000,-3.7736 h 3.7736 l 0.0000,-3.7736 l -3.7736,-0.0000 l 0.0000,-3.7736 l -3.7736,-0.0000 l -0.0000,3.7736 l -0.0000,3.7736 l -3.7736,-0.0000 l 0.0000,-3.7736 l -3.7736,-0.0000 l -3.7736,-0.0000 l 0.0000,-3.7736 l -3.7736,-0.0000 l -0.0000,3.7736 l -0.0000,3.7736 l -3.7736,-0.0000 l 0.0000,-3.7736 l -3.7736,-0.0000 l 0.0000,-3.7736 h 3.7736 l 0.0000,-3.7736 l -3.7736,-0.0000 l -3.7736,-0.0000 l 0.0000,-3.7736 h 3.7736 l 0.0000,-3.7736 h 3.7736 l 0.0000,3.7736 h 3.7736 l 0.0000,-3.7736 l 0.0000,-3.7736 h 3.7736 l 0.0000,3.7736 h 3.7736 l 0.0000,-3.7736 h 3.7736 l 0.0000,-3.7736 l -3.7736,-0.0000 l -3.7736,-0.0000 l 0.0000,-3.7736 h 3.7736 l 0.0000,-3.7736 h 3.7736 l 0.0000,3.7736 h 3.7736 l 0.0000,-3.7736 l 0.0000,-3.7736 h 3.7736 l 0.0000,3.7736 h 3.7736 l 0.0000,3.7736 l -3.7736,0.0000 l 0.0000,3.7736 h 3.7736 h 3.7736 l 0.0000,3.7736 l -3.7736,0.0000 l 0.0000,3.7736 h 3.7736 l 0.0000,3.7736 h 3.7736 l 0.0000,-3.7736 l 0.0000,-3.7736 h 3.7736 l 0.0000,3.7736 h 3.7736 l 0.0000,-3.7736 h 3.7736 l 0.0000,-3.7736 l -3.7736,-0.0000 l -3.7736,-0.0000 l 0.0000,-3.7736 h 3.7736 l 0.0000,-3.7736 l 0.0000,-3.7736 h 3.7736 l 0.0000,-3.7736 l -3.7736,-0.0000 l -3.7736,-0.0000 l 0.0000,-3.7736 h 3.7736 l 0.0000,-3.7736 h 3.7736 l 0.0000,3.7736 h 3.7736 l 0.0000,-3.7736 l 0.0000,-3.7736 h 3.7736 l 0.0000,3.7736 h 3.7736 l 0.0000,3.7736 l -3.7736,0.0000 l 0.0000,3.7736 h 3.7736 h 3.7736 l 0.0000,3.7736 l -3.7736,0.0000 l 0.0000,3.7736 h 3.7736 l 0.0000,3.7736 h 3.7736 l 0.0000,-3.7736 l 0.0000,-3.7736 h 3.7736 l 0.0000,3.7736 h 3.7736 l 0.0000,3.7736 l -3.7736,0.0000 l 0.0000,3.7736 h 3.7736 h 3.7736 l 0.0000,3.7736 l -3.7736,0.0000 l 0.0000,3.7736 l -3.7736,0.0000 l -0.0000,-3.7736 l -3.7736,0.0000 l 0.0000,3.7736 l 0.0000,3.7736 l -3.7736,0.0000 l -0.0000,-3.7736 l -3.7736,0.0000 l 0.0000,3.7736 l -3.7736,0.0000 l 0.0000,3.7736 h 3.7736 h 3.7736 l 0.0000,3.7736 l -3.7736,0.0000 l 0.0000,3.7736 h 3.7736 l 0.0000,3.7736 h 3.7736 l 0.0000,-3.7736 l 0.0000,-3.7736 h 3.7736 l 0.0000,3.7736 h 3.7736 h 3.7736 l 0.0000,3.7736 h 3.7736 l 0.0000,-3.7736 l 0.0000,-3.7736 h 3.7736 l 0.0000,3.7736 h 3.7736 l 0.0000,3.7736 l -3.7736,0.0000 l 0.0000,3.7736 h 3.7736 h 3.7736 l 0.0000,3.7736 l -3.7736,0.0000 l 0.0000,3.7736 l -3.7736,0.0000 l -0.0000,-3.7736 l -3.7736,0.0000 l 0.0000,3.7736 l 0.0000,3.7736 l -3.7736,0.0000 l -0.0000,-3.7736 l -3.7736,0.0000 l 0.0000,3.7736 l -3.7736,0.0000 l 0.0000,3.7736 h 3.7736 h 3.7736 l 0.0000,3.7736 l -3.7736,0.0000 l 0.0000,3.7736 h 3.7736 l 0.0000,3.7736 h 3.7736 l 0.0000,-3.7736 l 0.0000,-3.7736 h 3.7736 l 0.0000,3.7736 h 3.7736 l 0.0000,3.7736 l -3.7736,0.0000 l 0.0000,3.7736 h 3.7736 h 3.7736 l 0.0000,3.7736 l -3.7736,0.0000 l 0.0000,3.7736 h 3.7736 l 0.0000,3.7736 h 3.7736 l 0.0000,-3.7736 l 0.0000,-3.7736 h 3.7736 l 0.0000,3.7736 h 3.7736 l 0.0000,-3.7736 h 3.7736 l 0.0000,-3.7736 l -3.7736,-0.0000 l -3.7736,-0.0000 l 0.0000,-3.7736 h 3.7736 l 0.0000,-3.7736 l 0.0000,-3.7736 h 3.7736 l 0.0000,-3.7736 l -3.7736,-0.0000 l -3.7736,-0.0000 l 0.0000,-3.7736 h 3.7736 l 0.0000,-3.7736 h 3.7736 l 0.0000,3.7736 h 3.7736 l 0.0000,-3.7736 l 0.0000,-3.7736 h 3.7736 l 0.0000,3.7736 h 3.7736 l 0.0000,3.7736 l -3.7736,0.0000 l 0.0000,3.7736 h 3.7736 h 3.7736 l 0.0000,3.7736 l -3.7736,0.0000 l 0.0000,3.7736 h 3.7736 l 0.0000,3.7736 h 3.7736 l 0.0000,-3.7736 l 0.0000,-3.7736 h 3.7736 l 0.0000,3.7736 h 3.7736 l 0.0000,3.7736 l -3.7736,0.0000 l 0.0000,3.7736 h 3.7736 h 3.7736 l 0.0000,3.7736 l -3.7736,0.0000 l 0.0000,3.7736 l -3.7736,0.0000 l -0.0000,-3.7736 l -3.7736,0.0000 l 0.0000,3.7736 l 0.0000,3.7736 l -3.7736,0.0000 l -0.0000,-3.7736 l -3.7736,0.0000 l 0.0000,3.7736 l -3.7736,0.0000 l 0.0000,3.7736 h 3.7736 h 3.7736 l 0.0000,3.7736 l -3.7736,0.0000 l 0.0000,3.7736 h 3.7736 l 0.0000,3.7736 h 3.7736 l 0.0000,-3.7736 l 0.0000,-3.7736 h 3.7736 l 0.0000,3.7736 h 3.7736 h 3.7736 l 0.0000,3.7736 h 3.7736 l 0.0000,-3.7736 l 0.0000,-3.7736 h 3.7736 l 0.0000,3.7736 h 3.7736 l 0.0000,3.7736 l -3.7736,0.0000 l 0.0000,3.7736 h 3.7736 h 3.7736 l 0.0000,3.7736 l -3.7736,0.0000 l 0.0000,3.7736 l -3.7736,0.0000 l -0.0000,-3.7736 l -3.7736,0.0000 l 0.0000,3.7736 l 0.0000,3.7736 l -3.7736,0.0000 l -0.0000,-3.7736 l -3.7736,0.0000 l 0.0000,3.7736 l -3.7736,0.0000 l 0.0000,3.7736 h 3.7736 h 3.7736 l 0.0000,3.7736 l -3.7736,0.0000 l 0.0000,3.7736 l -3.7736,0.0000 l -0.0000,-3.7736 l -3.7736,0.0000 l 0.0000,3.7736 l 0.0000,3.7736 l -3.7736,0.0000 l -0.0000,-3.7736 l -3.7736,0.0000 l -0.0000,-3.7736 l 3.7736,-0.0000 l -0.0000,-3.7736 l -3.7736,0.0000 l -3.7736,0.0000 l -0.0000,-3.7736 l 3.7736,-0.0000 l -0.0000,-3.7736 l -3.7736,0.0000 l -0.0000,-3.7736 l -3.7736,0.0000 l 0.0000,3.7736 l 0.0000,3.7736 l -3.7736,0.0000 l -0.0000,-3.7736 l -3.7736,0.0000 l 0.0000,3.7736 l -3.7736,0.0000 l 0.0000,3.7736 h 3.7736 h 3.7736 l 0.0000,3.7736 l -3.7736,0.0000 l 0.0000,3.7736 l 0.0000,3.7736 l -3.7736,0.0000 l 0.0000,3.7736 h 3.7736 h 3.7736 l 0.0000,3.7736 l -3.7736,0.0000 l 0.0000,3.7736 l -3.7736,0.0000 l -0.0000,-3.7736 l -3.7736,0.0000 l 0.0000,3.7736 l 0.0000,3.7736 l -3.7736,0.0000 l -0.0000,-3.7736 l -3.7736,0.0000 l -0.0000,-3.7736 l 3.7736,-0.0000 l -0.0000,-3.7736 l -3.7736,0.0000 l -3.7736,0.0000 l -0.0000,-3.7736 l 3.7736,-0.0000 l -0.0000,-3.7736 l -3.7736,0.0000 l -0.0000,-3.7736 l -3.7736,0.0000 l 0.0000,3.7736 l 0.0000,3.7736 l -3.7736,0.0000 l -0.0000,-3.7736 l -3.7736,0.0000 l 0.0000,3.7736 l -3.7736,0.0000 l 0.0000,3.7736 h 3.7736 h 3.7736 l 0.0000,3.7736 l -3.7736,0.0000 l 0.0000,3.7736 l -3.7736,0.0000 l -0.0000,-3.7736 l -3.7736,0.0000 l 0.0000,3.7736 l 0.0000,3.7736 l -3.7736,0.0000 l -0.0000,-3.7736 l -3.7736,0.0000 l 0.0000,3.7736 l -3.7736,0.0000 l 0.0000,3.7736 h 3.7736 h 3.7736 l 0.0000,3.7736 l -3.7736,0.0000 l 0.0000,3.7736 h 3.7736 l 0.0000,3.7736 h 3.7736 l 0.0000,-3.7736 l 0.0000,-3.7736 h 3.7736 l 0.0000,3.7736 h 3.7736 h 3.7736 l 0.0000,3.7736 h 3.7736 l 0.0000,-3.7736 l 0.0000,-3.7736 h 3.7736 l 0.0000,3.7736 h 3.7736 l 0.0000,3.7736 l -3.7736,0.0000 l 0.0000,3.7736 h 3.7736 h 3.7736 l 0.0000,3.7736 l -3.7736,0.0000 l 0.0000,3.7736 l -3.7736,0.0000 l -0.0000,-3.7736 l -3.7736,0.0000 l 0.0000,3.7736 l 0.0000,3.7736 l -3.7736,0.0000 l -0.0000,-3.7736 l -3.7736,0.0000 l 0.0000,3.7736 l -3.7736,0.0000 l 0.0000,3.7736 h 3.7736 h 3.7736 l 0.0000,3.7736 l -3.7736,0.0000 l 0.0000,3.7736 h 3.7736 l 0.0000,3.7736 h 3.7736 l 0.0000,-3.7736 l 0.0000,-3.7736 h 3.7736 l 0.0000,3.7736 h 3.7736 l 0.0000,3.7736 l -3.7736,0.0000 l 0.0000,3.7736 h 3.7736 h 3.7736 l 0.0000,3.7736 l -3.7736,0.0000 l 0.0000,3.7736 h 3.7736 l 0.0000,3.7736 h 3.7736 l 0.0000,-3.7736 l 0.0000,-3.7736 h 3.7736 l 0.0000,3.7736 h 3.7736 l 0.0000,-3.7736 h 3.7736 l 0.0000,-3.7736 l -3.7736,-0.0000 l -3.7736,-0.0000 l 0.0000,-3.7736 h 3.7736 l 0.0000,-3.7736 l 0.0000,-3.7736 h 3.7736 l 0.0000,-3.7736 l -3.7736,-0.0000 l -3.7736,-0.0000 l 0.0000,-3.7736 h 3.7736 l 0.0000,-3.7736 h 3.7736 l 0.0000,3.7736 h 3.7736 l 0.0000,-3.7736 l 0.0000,-3.7736 h 3.7736 l 0.0000,3.7736 h 3.7736 l 0.0000,3.7736 l -3.7736,0.0000 l 0.0000,3.7736 h 3.7736 h 3.7736 l 0.0000,3.7736 l -3.7736,0.0000 l 0.0000,3.7736 h 3.7736 l 0.0000,3.7736 h 3.7736 l 0.0000,-3.7736 l 0.0000,-3.7736 h 3.7736 l 0.0000,3.7736 h 3.7736 h 3.7736 l 0.0000,3.7736 h 3.7736 l 0.0000,-3.7736 l 0.0000,-3.7736 h 3.7736 l 0.0000,3.7736 h 3.7736 l 0.0000,3.7736 l -3.7736,0.0000 l 0.0000,3.7736 h 3.7736 h 3.7736 l 0.0000,3.7736 l -3.7736,0.0000 l 0.0000,3.7736 h 3.7736 l 0.0000,3.7736 h 3.7736 l 0.0000,-3.7736 l 0.0000,-3.7736 h 3.7736 l 0.0000,3.7736 h 3.7736 l 0.0000,-3.7736 h 3.7736 l 0.0000,-3.7736 l -3.7736,-0.0000 l -3.7736,-0.0000 l 0.0000,-3.7736 h 3.7736 l 0.0000,-3.7736 l 0.0000,-3.7736 h 3.7736 l 0.0000,-3.7736 l -3.7736,-0.0000 l -3.7736,-0.0000 l 0.0000,-3.7736 h 3.7736 l 0.0000,-3.7736 h 3.7736 l 0.0000,3.7736 h 3.7736 l 0.0000,-3.7736 l 0.0000,-3.7736 h 3.7736 l 0.0000,3.7736 h 3.7736 l 0.0000,3.7736 l -3.7736,0.0000 l 0.0000,3.7736 h 3.7736 h 3.7736 l 0.0000,3.7736 l -3.7736,0.0000 l 0.0000,3.7736 h 3.7736 l 0.0000,3.7736 h 3.7736 l 0.0000,-3.7736 l 0.0000,-3.7736 h 3.7736 l 0.0000,3.7736 h 3.7736 l 0.0000,3.7736 l -3.7736,0.0000 l 0.0000,3.7736 h 3.7736 h 3.7736 l 0.0000,3.7736 l -3.7736,0.0000 l 0.0000,3.7736 l -3.7736,0.0000 l -0.0000,-3.7736 l -3.7736,0.0000 l 0.0000,3.7736 l 0.0000,3.7736 l -3.7736,0.0000 l -0.0000,-3.7736 l -3.7736,0.0000 l 0.0000,3.7736 l -3.7736,0.0000 l 0.0000,3.7736 h 3.7736 h 3.7736 l 0.0000,3.7736 l -3.7736,0.0000 l 0.0000,3.7736 h 3.7736 l 0.0000,3.7736 h 3.7736 l 0.0000,-3.7736 l 0.0000,-3.7736 h 3.7736 l 0.0000,3.7736 h 3.7736 h 3.7736 l 0.0000,3.7736 h 3.7736 l 0.0000,-3.7736 l 0.0000,-3.7736 h 3.7736 l 0.0000,3.7736 h 3.7736 l 0.0000,3.7736 l -3.7736,0.0000 l 0.0000,3.7736 h 3.7736 h 3.7736 l 0.0000,3.7736 l -3.7736,0.0000 l 0.0000,3.7736 l -3.7736,0.0000 l -0.0000,-3.7736 l -3.7736,0.0000 l 0.0000,3.7736 l 0.0000,3.7736 l -3.7736,0.0000 l -0.0000,-3.7736 l -3.7736,0.0000 l 0.0000,3.7736 l -3.7736,0.0000 l 0.0000,3.7736 h 3.7736 h 3.7736 l 0.0000,3.7736 l -3.7736,0.0000 l 0.0000,3.7736 l -3.7736,0.0000 l -0.0000,-3.7736 l -3.7736,0.0000 l 0.0000,3.7736 l 0.0000,3.7736 l -3.7736,0.0000 l -0.0000,-3.7736 l -3.7736,0.0000 l -0.0000,-3.7736 l 3.7736,-0.0000 l -0.0000,-3.7736 l -3.7736,0.0000 l -3.7736,0.0000 l -0.0000,-3.7736 l 3.7736,-0.0000 l -0.0000,-3.7736 l -3.7736,0.0000 l -0.0000,-3.7736 l -3.7736,0.0000 l 0.0000,3.7736 l 0.0000,3.7736 l -3.7736,0.0000 l -0.0000,-3.7736 l -3.7736,0.0000 l 0.0000,3.7736 l -3.7736,0.0000 l 0.0000,3.7736 h 3.7736 h 3.7736 l 0.0000,3.7736 l -3.7736,0.0000 l 0.0000,3.7736 l 0.0000,3.7736 l -3.7736,0.0000 l 0.0000,3.7736 h 3.7736 h 3.7736 l 0.0000,3.7736 l -3.7736,0.0000 l 0.0000,3.7736 l -3.7736,0.0000 l -0.0000,-3.7736 l -3.7736,0.0000 l 0.0000,3.7736 l 0.0000,3.7736 l -3.7736,0.0000 l -0.0000,-3.7736 l -3.7736,0.0000 l -0.0000,-3.7736 l 3.7736,-0.0000 l -0.0000,-3.7736 l -3.7736,0.0000 l -3.7736,0.0000 l -0.0000,-3.7736 l 3.7736,-0.0000 l -0.0000,-3.7736 l -3.7736,0.0000 l -0.0000,-3.7736 l -3.7736,0.0000 l 0.0000,3.7736 l 0.0000,3.7736 l -3.7736,0.0000 l -0.0000,-3.7736 l -3.7736,0.0000 l 0.0000,3.7736 l -3.7736,0.0000 l 0.0000,3.7736 h 3.7736 h 3.7736 l 0.0000,3.7736 l -3.7736,0.0000 l 0.0000,3.7736 l -3.7736,0.0000 l -0.0000,-3.7736 l -3.7736,0.0000 l 0.0000,3.7736 l 0.0000,3.7736 l -3.7736,0.0000 l -0.0000,-3.7736 l -3.7736,0.0000 l 0.0000,3.7736 l -3.7736,0.0000 l 0.0000,3.7736 h 3.7736 h 3.7736 l 0.0000,3.7736 l -3.7736,0.0000 l 0.0000,3.7736 h 3.7736 l 0.0000,3.7736 h 3.7736 l 0.0000,-3.7736 l 0.0000,-3.7736 h 3.7736 l 0.0000,3.7736 h 3.7736 h 3.7736 l 0.0000,3.7736 h 3.7736 l 0.0000,-3.7736 l 0.0000,-3.7736 h 3.7736 l 0.0000,3.7736 h 3.7736 l 0.0000,3.7736 l -3.7736,0.0000 l 0.0000,3.7736 h 3.7736 h 3.7736 l 0.0000,3.7736 l -3.7736,0.0000 l 0.0000,3.7736 l -3.7736,0.0000 l -0.0000,-3.7736 l -3.7736,0.0000 l 0.0000,3.7736 l 0.0000,3.7736 l -3.7736,0.0000 l -0.0000,-3.7736 l -3.7736,0.0000 l 0.0000,3.7736 l -3.7736,0.0000 l 0.0000,3.7736 h 3.7736 h 3.7736 l 0.0000,3.7736 l -3.7736,0.0000 l 0.0000,3.7736 l -3.7736,0.0000 l -0.0000,-3.7736 l -3.7736,0.0000 l 0.0000,3.7736 l 0.0000,3.7736 l -3.7736,0.0000 l -0.0000,-3.7736 l -3.7736,0.0000 l -0.0000,-3.7736 l 3.7736,-0.0000 l -0.0000,-3.7736 l -3.7736,0.0000 l -3.7736,0.0000 l -0.0000,-3.7736 l 3.7736,-0.0000 l -0.0000,-3.7736 l -3.7736,0.0000 l -0.0000,-3.7736 l -3.7736,0.0000 l 0.0000,3.7736 l 0.0000,3.7736 l -3.7736,0.0000 l -0.0000,-3.7736 l -3.7736,0.0000 l 0.0000,3.7736 l -3.7736,0.0000 l 0.0000,3.7736 h 3.7736 h 3.7736 l 0.0000,3.7736 l -3.7736,0.0000 l 0.0000,3.7736 l 0.0000,3.7736 l -3.7736,0.0000 l 0.0000,3.7736 h 3.7736 h 3.7736 l 0.0000,3.7736 l -3.7736,0.0000 l 0.0000,3.7736 l -3.7736,0.0000 l -0.0000,-3.7736 l -3.7736,0.0000 l 0.0000,3.7736 l 0.0000,3.7736 l -3.7736,0.0000 l -0.0000,-3.7736 l -3.7736,0.0000 l -0.0000,-3.7736 l 3.7736,-0.0000 l -0.0000,-3.7736 l -3.7736,0.0000 l -3.7736,0.0000 l -0.0000,-3.7736 l 3.7736,-0.0000 l -0.0000,-3.7736 l -3.7736,0.0000 l -0.0000,-3.7736 l -3.7736,0.0000 l 0.0000,3.7736 l 0.0000,3.7736 l -3.7736,0.0000 l -0.0000,-3.7736 l -3.7736,0.0000 l -0.0000,-3.7736 l 3.7736,-0.0000 l -0.0000,-3.7736 l -3.7736,0.0000 l -3.7736,0.0000 l -0.0000,-3.7736 l 3.7736,-0.0000 l -0.0000,-3.7736 l 3.7736,-0.0000 l 0.0000,3.7736 l 3.7736,-0.0000 l -0.0000,-3.7736 l -0.0000,-3.7736 l 3.7736,-0.0000 l 0.0000,3.7736 l 3.7736,-0.0000 l -0.0000,-3.7736 l 3.7736,-0.0000 l -0.0000,-3.7736 l -3.7736,0.0000 l -3.7736,0.0000 l -0.0000,-3.7736 l 3.7736,-0.0000 l -0.0000,-3.7736 l -3.7736,0.0000 l -0.0000,-3.7736 l -3.7736,0.0000 l 0.0000,3.7736 l 0.0000,3.7736 l -3.7736,0.0000 l -0.0000,-3.7736 l -3.7736,0.0000 l -3.7736,0.0000 l -0.0000,-3.7736 l -3.7736,0.0000 l 0.0000,3.7736 l 0.0000,3.7736 l -3.7736,0.0000 l -0.0000,-3.7736 l -3.7736,0.0000 l -0.0000,-3.7736 l 3.7736,-0.0000 l -0.0000,-3.7736 l -3.7736,0.0000 l -3.7736,0.0000 l -0.0000,-3.7736 l 3.7736,-0.0000 l -0.0000,-3.7736 l 3.7736,-0.0000 l 0.0000,3.7736 l 3.7736,-0.0000 l -0.0000,-3.7736 l -0.0000,-3.7736 l 3.7736,-0.0000 l 0.0000,3.7736 l 3.7736,-0.0000 l -0.0000,-3.7736 l 3.7736,-0.0000 l -0.0000,-3.7736 l -3.7736,0.0000 l -3.7736,0.0000 l -0.0000,-3.7736 l 3.7736,-0.0000 l -0.0000,-3.7736 l -3.7736,0.0000 l -0.0000,-3.7736 l -3.7736,0.0000 l 0.0000,3.7736 l 0.0000,3.7736 l -3.7736,0.0000 l -0.0000,-3.7736 l -3.7736,0.0000 l -0.0000,-3.7736 l 3.7736,-0.0000 l -0.0000,-3.7736 l -3.7736,0.0000 l -3.7736,0.0000 l -0.0000,-3.7736 l 3.7736,-0.0000 l -0.0000,-3.7736 l -3.7736,0.0000 l -0.0000,-3.7736 l -3.7736,0.0000 l 0.0000,3.7736 l 0.0000,3.7736 l -3.7736,0.0000 l -0.0000,-3.7736 l -3.7736,0.0000 l 0.0000,3.7736 l -3.7736,0.0000 l 0.0000,3.7736 h 3.7736 h 3.7736 l 0.0000,3.7736 l -3.7736,0.0000 l 0.0000,3.7736 l 0.0000,3.7736 l -3.7736,0.0000 l 0.0000,3.7736 h 3.7736 h 3.7736 l 0.0000,3.7736 l -3.7736,0.0000 l 0.0000,3.7736 l -3.7736,0.0000 l -0.0000,-3.7736 l -3.7736,0.0000 l 0.0000,3.7736 l 0.0000,3.7736 l -3.7736,0.0000 l -0.0000,-3.7736 l -3.7736,0.0000 l -0.0000,-3.7736 l 3.7736,-0.0000 l -0.0000,-3.7736 l -3.7736,0.0000 l -3.7736,0.0000 l -0.0000,-3.7736 l 3.7736,-0.0000 l -0.0000,-3.7736 l -3.7736,0.0000 l -0.0000,-3.7736 l -3.7736,0.0000 l 0.0000,3.7736 l 0.0000,3.7736 l -3.7736,0.0000 l -0.0000,-3.7736 l -3.7736,0.0000 l 0.0000,3.7736 l -3.7736,0.0000 l 0.0000,3.7736 h 3.7736 h 3.7736 l 0.0000,3.7736 l -3.7736,0.0000 l 0.0000,3.7736 l -3.7736,0.0000 l -0.0000,-3.7736 l -3.7736,0.0000 l 0.0000,3.7736 l 0.0000,3.7736 l -3.7736,0.0000 l -0.0000,-3.7736 l -3.7736,0.0000 l 0.0000,3.7736 l -3.7736,0.0000 l 0.0000,3.7736 h 3.7736 h 3.7736 l 0.0000,3.7736 l -3.7736,0.0000 l 0.0000,3.7736 h 3.7736 l 0.0000,3.7736 h 3.7736 l 0.0000,-3.7736 l 0.0000,-3.7736 h 3.7736 l 0.0000,3.7736 h 3.7736 h 3.7736 l 0.0000,3.7736 h 3.7736 l 0.0000,-3.7736 l 0.0000,-3.7736 h 3.7736 l 0.0000,3.7736 h 3.7736 l 0.0000,3.7736 l -3.7736,0.0000 l 0.0000,3.7736 h 3.7736 h 3.7736 l 0.0000,3.7736 l -3.7736,0.0000 l 0.0000,3.7736 l -3.7736,0.0000 l -0.0000,-3.7736 l -3.7736,0.0000 l 0.0000,3.7736 l 0.0000,3.7736 l -3.7736,0.0000 l -0.0000,-3.7736 l -3.7736,0.0000 l 0.0000,3.7736 l -3.7736,0.0000 l 0.0000,3.7736 h 3.7736 h 3.7736 l 0.0000,3.7736 l -3.7736,0.0000 l 0.0000,3.7736 l 0.0000,3.7736 l -3.7736,0.0000 l 0.0000,3.7736 h 3.7736 h 3.7736 l 0.0000,3.7736 l -3.7736,0.0000 l 0.0000,3.7736 l -3.7736,0.0000 l -0.0000,-3.7736 l -3.7736,0.0000 l 0.0000,3.7736 l 0.0000,3.7736 l -3.7736,0.0000 l -0.0000,-3.7736 l -3.7736,0.0000 l 0.0000,3.7736 l -3.7736,0.0000 l 0.0000,3.7736 h 3.7736 h 3.7736 l 0.0000,3.7736 l -3.7736,0.0000 l 0.0000,3.7736 h 3.7736 l 0.0000,3.7736 h 3.7736 l 0.0000,-3.7736 l 0.0000,-3.7736 h 3.7736 l 0.0000,3.7736 h 3.7736 h 3.7736 l 0.0000,3.7736 h 3.7736 l 0.0000,-3.7736 l 0.0000,-3.7736 h 3.7736 l 0.0000,3.7736 h 3.7736 l 0.0000,3.7736 l -3.7736,0.0000 l 0.0000,3.7736 h 3.7736 h 3.7736 l 0.0000,3.7736 l -3.7736,0.0000 l 0.0000,3.7736 l -3.7736,0.0000 l -0.0000,-3.7736 l -3.7736,0.0000 l 0.0000,3.7736 l 0.0000,3.7736 l -3.7736,0.0000 l -0.0000,-3.7736 l -3.7736,0.0000 l 0.0000,3.7736 l -3.7736,0.0000 l 0.0000,3.7736 h 3.7736 h 3.7736 l 0.0000,3.7736 l -3.7736,0.0000 l 0.0000,3.7736 l -3.7736,0.0000 l -0.0000,-3.7736 l -3.7736,0.0000 l 0.0000,3.7736 l 0.0000,3.7736 l -3.7736,0.0000 l -0.0000,-3.7736 l -3.7736,0.0000 l -0.0000,-3.7736 l 3.7736,-0.0000 l -0.0000,-3.7736 l -3.7736,0.0000 l -3.7736,0.0000 l -0.0000,-3.7736 l 3.7736,-0.0000 l -0.0000,-3.7736 l -3.7736,0.0000 l -0.0000,-3.7736 l -3.7736,0.0000 l 0.0000,3.7736 l 0.0000,3.7736 l -3.7736,0.0000 l -0.0000,-3.7736 l -3.7736,0.0000 l 0.0000,3.7736 l -3.7736,0.0000 l 0.0000,3.7736 h 3.7736 h 3.7736 l 0.0000,3.7736 l -3.7736,0.0000 l 0.0000,3.7736 l 0.0000,3.7736 l -3.7736,0.0000 l 0.0000,3.7736 h 3.7736 h 3.7736 l 0.0000,3.7736 l -3.7736,0.0000 l 0.0000,3.7736 l -3.7736,0.0000 l -0.0000,-3.7736 l -3.7736,0.0000 l 0.0000,3.7736 l 0.0000,3.7736 l -3.7736,0.0000 l -0.0000,-3.7736 l -3.7736,0.0000 l -0.0000,-3.7736 l 3.7736,-0.0000 l -0.0000,-3.7736 l -3.7736,0.0000 l -3.7736,0.0000 l -0.0000,-3.7736 l 3.7736,-0.0000 l -0.0000,-3.7736 l -3.7736,0.0000 l -0.0000,-3.7736 l -3.7736,0.0000 l 0.0000,3.7736 l 0.0000,3.7736 l -3.7736,0.0000 l -0.0000,-3.7736 l -3.7736,0.0000 l -0.0000,-3.7736 l 3.7736,-0.0000 l -0.0000,-3.7736 l -3.7736,0.0000 l -3.7736,0.0000 l -0.0000,-3.7736 l 3.7736,-0.0000 l -0.0000,-3.7736 l 3.7736,-0.0000 l 0.0000,3.7736 l 3.7736,-0.0000 l -0.0000,-3.7736 l -0.0000,-3.7736 l 3.7736,-0.0000 l 0.0000,3.7736 l 3.7736,-0.0000 l -0.0000,-3.7736 l 3.7736,-0.0000 l -0.0000,-3.7736 l -3.7736,0.0000 l -3.7736,0.0000 l -0.0000,-3.7736 l 3.7736,-0.0000 l -0.0000,-3.7736 l -3.7736,0.0000 l -0.0000,-3.7736 l -3.7736,0.0000 l 0.0000,3.7736 l 0.0000,3.7736 l -3.7736,0.0000 l -0.0000,-3.7736 l -3.7736,0.0000 l -3.7736,0.0000 l -0.0000,-3.7736 l -3.7736,0.0000 l 0.0000,3.7736 l 0.0000,3.7736 l -3.7736,0.0000 l -0.0000,-3.7736 l -3.7736,0.0000 l -0.0000,-3.7736 l 3.7736,-0.0000 l -0.0000,-3.7736 l -3.7736,0.0000 l -3.7736,0.0000 l -0.0000,-3.7736 l 3.7736,-0.0000 l -0.0000,-3.7736 l 3.7736,-0.0000 l 0.0000,3.7736 l 3.7736,-0.0000 l -0.0000,-3.7736 l -0.0000,-3.7736 l 3.7736,-0.0000 l 0.0000,3.7736 l 3.7736,-0.0000 l -0.0000,-3.7736 l 3.7736,-0.0000 l -0.0000,-3.7736 l -3.7736,0.0000 l -3.7736,0.0000 l -0.0000,-3.7736 l 3.7736,-0.0000 l -0.0000,-3.7736 l -3.7736,0.0000 l -0.0000,-3.7736 l -3.7736,0.0000 l 0.0000,3.7736 l 0.0000,3.7736 l -3.7736,0.0000 l -0.0000,-3.7736 l -3.7736,0.0000 l -0.0000,-3.7736 l 3.7736,-0.0000 l -0.0000,-3.7736 l -3.7736,0.0000 l -3.7736,0.0000 l -0.0000,-3.7736 l 3.7736,-0.0000 l -0.0000,-3.7736 l -3.7736,0.0000 l -0.0000,-3.7736 l -3.7736,0.0000 l 0.0000,3.7736 l 0.0000,3.7736 l -3.7736,0.0000 l -0.0000,-3.7736 l -3.7736,0.0000 l 0.0000,3.7736 l -3.7736,0.0000 l 0.0000,3.7736 h 3.7736 h 3.7736 l 0.0000,3.7736 l -3.7736,0.0000 l 0.0000,3.7736 l 0.0000,3.7736 l -3.7736,0.0000 l 0.0000,3.7736 h 3.7736 h 3.7736 l 0.0000,3.7736 l -3.7736,0.0000 l 0.0000,3.7736 l -3.7736,0.0000 l -0.0000,-3.7736 l -3.7736,0.0000 l 0.0000,3.7736 l 0.0000,3.7736 l -3.7736,0.0000 l -0.0000,-3.7736 l -3.7736,0.0000 l -0.0000,-3.7736 l 3.7736,-0.0000 l -0.0000,-3.7736 l -3.7736,0.0000 l -3.7736,0.0000 l -0.0000,-3.7736 l 3.7736,-0.0000 l -0.0000,-3.7736 l -3.7736,0.0000 l -0.0000,-3.7736 l -3.7736,0.0000 l 0.0000,3.7736 l 0.0000,3.7736 l -3.7736,0.0000 l -0.0000,-3.7736 l -3.7736,0.0000 l -0.0000,-3.7736 l 3.7736,-0.0000 l -0.0000,-3.7736 l -3.7736,0.0000 l -3.7736,0.0000 l -0.0000,-3.7736 l 3.7736,-0.0000 l -0.0000,-3.7736 l 3.7736,-0.0000 l 0.0000,3.7736 l 3.7736,-0.0000 l -0.0000,-3.7736 l -0.0000,-3.7736 l 3.7736,-0.0000 l 0.0000,3.7736 l 3.7736,-0.0000 l -0.0000,-3.7736 l 3.7736,-0.0000 l -0.0000,-3.7736 l -3.7736,0.0000 l -3.7736,0.0000 l -0.0000,-3.7736 l 3.7736,-0.0000 l -0.0000,-3.7736 l -3.7736,0.0000 l -0.0000,-3.7736 l -3.7736,0.0000 l 0.0000,3.7736 l 0.0000,3.7736 l -3.7736,0.0000 l -0.0000,-3.7736 l -3.7736,0.0000 l -3.7736,0.0000 l -0.0000,-3.7736 l -3.7736,0.0000 l 0.0000,3.7736 l 0.0000,3.7736 l -3.7736,0.0000 l -0.0000,-3.7736 l -3.7736,0.0000 l -0.0000,-3.7736 l 3.7736,-0.0000 l -0.0000,-3.7736 l -3.7736,0.0000 l -3.7736,0.0000 l -0.0000,-3.7736 l 3.7736,-0.0000 l -0.0000,-3.7736 l 3.7736,-0.0000 l 0.0000,3.7736 l 3.7736,-0.0000 l -0.0000,-3.7736 l -0.0000,-3.7736 l 3.7736,-0.0000 l 0.0000,3.7736 l 3.7736,-0.0000 l -0.0000,-3.7736 l 3.7736,-0.0000 l -0.0000,-3.7736 l -3.7736,0.0000 l -3.7736,0.0000 l -0.0000,-3.7736 l 3.7736,-0.0000 l -0.0000,-3.7736 l 3.7736,-0.0000 l 0.0000,3.7736 l 3.7736,-0.0000 l -0.0000,-3.7736 l -0.0000,-3.7736 l 3.7736,-0.0000 l 0.0000,3.7736 l 3.7736,-0.0000 l 0.0000,3.7736 l -3.7736,0.0000 l 0.0000,3.7736 l 3.7736,-0.0000 l 3.7736,-0.0000 l 0.0000,3.7736 l -3.7736,0.0000 l 0.0000,3.7736 l 3.7736,-0.0000 l 0.0000,3.7736 l 3.7736,-0.0000 l -0.0000,-3.7736 l -0.0000,-3.7736 l 3.7736,-0.0000 l 0.0000,3.7736 l 3.7736,-0.0000 l -0.0000,-3.7736 l 3.7736,-0.0000 l -0.0000,-3.7736 l -3.7736,0.0000 l -3.7736,0.0000 l -0.0000,-3.7736 l 3.7736,-0.0000 l -0.0000,-3.7736 l -0.0000,-3.7736 l 3.7736,-0.0000 l -0.0000,-3.7736 l -3.7736,0.0000 l -3.7736,0.0000 l -0.0000,-3.7736 l 3.7736,-0.0000 l -0.0000,-3.7736 l 3.7736,-0.0000 l 0.0000,3.7736 l 3.7736,-0.0000 l -0.0000,-3.7736 l -0.0000,-3.7736 l 3.7736,-0.0000 l 0.0000,3.7736 l 3.7736,-0.0000 l 0.0000,3.7736 l -3.7736,0.0000 l 0.0000,3.7736 l 3.7736,-0.0000 l 3.7736,-0.0000 l 0.0000,3.7736 l -3.7736,0.0000 l 0.0000,3.7736 l 3.7736,-0.0000 l 0.0000,3.7736 l 3.7736,-0.0000 l -0.0000,-3.7736 l -0.0000,-3.7736 l 3.7736,-0.0000 l 0.0000,3.7736 l 3.7736,-0.0000 l -0.0000,-3.7736 l 3.7736,-0.0000 l -0.0000,-3.7736 l -3.7736,0.0000 l -3.7736,0.0000 l -0.0000,-3.7736 l 3.7736,-0.0000 l -0.0000,-3.7736 l 3.7736,-0.0000 l 0.0000,3.7736 l 3.7736,-0.0000 l -0.0000,-3.7736 l -0.0000,-3.7736 l 3.7736,-0.0000 l 0.0000,3.7736 l 3.7736,-0.0000 l -0.0000,-3.7736 l 3.7736,-0.0000 l -0.0000,-3.7736 l -3.7736,0.0000 l -3.7736,0.0000 l -0.0000,-3.7736 l 3.7736,-0.0000 l -0.0000,-3.7736 l -3.7736,0.0000 l -0.0000,-3.7736 l -3.7736,0.0000 l 0.0000,3.7736 l 0.0000,3.7736 l -3.7736,0.0000 l -0.0000,-3.7736 l -3.7736,0.0000 l -3.7736,0.0000 l -0.0000,-3.7736 l -3.7736,0.0000 l 0.0000,3.7736 l 0.0000,3.7736 l -3.7736,0.0000 l -0.0000,-3.7736 l -3.7736,0.0000 l -0.0000,-3.7736 l 3.7736,-0.0000 l -0.0000,-3.7736 l -3.7736,0.0000 l -3.7736,0.0000 l -0.0000,-3.7736 l 3.7736,-0.0000 l -0.0000,-3.7736 l 3.7736,-0.0000 l 0.0000,3.7736 l 3.7736,-0.0000 l -0.0000,-3.7736 l -0.0000,-3.7736 l 3.7736,-0.0000 l 0.0000,3.7736 l 3.7736,-0.0000 l -0.0000,-3.7736 l 3.7736,-0.0000 l -0.0000,-3.7736 l -3.7736,0.0000 l -3.7736,0.0000 l -0.0000,-3.7736 l 3.7736,-0.0000 l -0.0000,-3.7736 l -3.7736,0.0000 l -0.0000,-3.7736 l -3.7736,0.0000 l 0.0000,3.7736 l 0.0000,3.7736 l -3.7736,0.0000 l -0.0000,-3.7736 l -3.7736,0.0000 l -0.0000,-3.7736 l 3.7736,-0.0000 l -0.0000,-3.7736 l -3.7736,0.0000 l -3.7736,0.0000 l -0.0000,-3.7736 l 3.7736,-0.0000 l -0.0000,-3.7736 l -3.7736,0.0000 l -0.0000,-3.7736 l -3.7736,0.0000 l 0.0000,3.7736 l 0.0000,3.7736 l -3.7736,0.0000 l -0.0000,-3.7736 l -3.7736,0.0000 l 0.0000,3.7736 l -3.7736,0.0000 l 0.0000,3.7736 h 3.7736 h 3.7736 l 0.0000,3.7736 l -3.7736,0.0000 l 0.0000,3.7736 l 0.0000,3.7736 l -3.7736,0.0000 l 0.0000,3.7736 h 3.7736 h 3.7736 l 0.0000,3.7736 l -3.7736,0.0000 l 0.0000,3.7736 l -3.7736,0.0000 l -0.0000,-3.7736 l -3.7736,0.0000 l 0.0000,3.7736 l 0.0000,3.7736 l -3.7736,0.0000 l -0.0000,-3.7736 l -3.7736,0.0000 l -0.0000,-3.7736 l 3.7736,-0.0000 l -0.0000,-3.7736 l -3.7736,0.0000 l -3.7736,0.0000 l -0.0000,-3.7736 l 3.7736,-0.0000 l -0.0000,-3.7736 l -3.7736,0.0000 l -0.0000,-3.7736 l -3.7736,0.0000 l 0.0000,3.7736 l 0.0000,3.7736 l -3.7736,0.0000 l -0.0000,-3.7736 l -3.7736,0.0000 l -3.7736,0.0000 l -0.0000,-3.7736 l -3.7736,0.0000 l 0.0000,3.7736 l 0.0000,3.7736 l -3.7736,0.0000 l -0.0000,-3.7736 l -3.7736,0.0000 l -0.0000,-3.7736 l 3.7736,-0.0000 l -0.0000,-3.7736 l -3.7736,0.0000 l -3.7736,0.0000 l -0.0000,-3.7736 l 3.7736,-0.0000 l -0.0000,-3.7736 l -3.7736,0.0000 l -0.0000,-3.7736 l -3.7736,0.0000 l 0.0000,3.7736 l 0.0000,3.7736 l -3.7736,0.0000 l -0.0000,-3.7736 l -3.7736,0.0000 l 0.0000,3.7736 l -3.7736,0.0000 l 0.0000,3.7736 h 3.7736 h 3.7736 l 0.0000,3.7736 l -3.7736,0.0000 l 0.0000,3.7736 l 0.0000,3.7736 l -3.7736,0.0000 l 0.0000,3.7736 h 3.7736 h 3.7736 l 0.0000,3.7736 l -3.7736,0.0000 l 0.0000,3.7736 l -3.7736,0.0000 l -0.0000,-3.7736 l -3.7736,0.0000 l 0.0000,3.7736 l 0.0000,3.7736 l -3.7736,0.0000 l -0.0000,-3.7736 l -3.7736,0.0000 l -0.0000,-3.7736 l 3.7736,-0.0000 l -0.0000,-3.7736 l -3.7736,0.0000 l -3.7736,0.0000 l -0.0000,-3.7736 l 3.7736,-0.0000 l -0.0000,-3.7736 l -3.7736,0.0000 l -0.0000,-3.7736 l -3.7736,0.0000 l 0.0000,3.7736 l 0.0000,3.7736 l -3.7736,0.0000 l -0.0000,-3.7736 l -3.7736,0.0000 l -0.0000,-3.7736 l 3.7736,-0.0000 l -0.0000,-3.7736 l -3.7736,0.0000 l -3.7736,0.0000 l -0.0000,-3.7736 l 3.7736,-0.0000 l -0.0000,-3.7736 l 3.7736,-0.0000 l 0.0000,3.7736 l 3.7736,-0.0000 l -0.0000,-3.7736 l -0.0000,-3.7736 l 3.7736,-0.0000 l 0.0000,3.7736 l 3.7736,-0.0000 l -0.0000,-3.7736 l 3.7736,-0.0000 l -0.0000,-3.7736 l -3.7736,0.0000 l -3.7736,0.0000 l -0.0000,-3.7736 l 3.7736,-0.0000 l -0.0000,-3.7736 l -3.7736,0.0000 l -0.0000,-3.7736 l -3.7736,0.0000 l 0.0000,3.7736 l 0.0000,3.7736 l -3.7736,0.0000 l -0.0000,-3.7736 l -3.7736,0.0000 l -3.7736,0.0000 l -0.0000,-3.7736 l -3.7736,0.0000 l 0.0000,3.7736 l 0.0000,3.7736 l -3.7736,0.0000 l -0.0000,-3.7736 l -3.7736,0.0000 l -0.0000,-3.7736 l 3.7736,-0.0000 l -0.0000,-3.7736 l -3.7736,0.0000 l -3.7736,0.0000 l -0.0000,-3.7736 l 3.7736,-0.0000 l -0.0000,-3.7736 l 3.7736,-0.0000 l 0.0000,3.7736 l 3.7736,-0.0000 l -0.0000,-3.7736 l -0.0000,-3.7736 l 3.7736,-0.0000 l 0.0000,3.7736 l 3.7736,-0.0000 l -0.0000,-3.7736 l 3.7736,-0.0000 l -0.0000,-3.7736 l -3.7736,0.0000 l -3.7736,0.0000 l -0.0000,-3.7736 l 3.7736,-0.0000 l -0.0000,-3.7736 l 3.7736,-0.0000 l 0.0000,3.7736 l 3.7736,-0.0000 l -0.0000,-3.7736 l -0.0000,-3.7736 l 3.7736,-0.0000 l 0.0000,3.7736 l 3.7736,-0.0000 l 0.0000,3.7736 l -3.7736,0.0000 l 0.0000,3.7736 l 3.7736,-0.0000 l 3.7736,-0.0000 l 0.0000,3.7736 l -3.7736,0.0000 l 0.0000,3.7736 l 3.7736,-0.0000 l 0.0000,3.7736 l 3.7736,-0.0000 l -0.0000,-3.7736 l -0.0000,-3.7736 l 3.7736,-0.0000 l 0.0000,3.7736 l 3.7736,-0.0000 l -0.0000,-3.7736 l 3.7736,-0.0000 l -0.0000,-3.7736 l -3.7736,0.0000 l -3.7736,0.0000 l -0.0000,-3.7736 l 3.7736,-0.0000 l -0.0000,-3.7736 l -0.0000,-3.7736 l 3.7736,-0.0000 l -0.0000,-3.7736 l -3.7736,0.0000 l -3.7736,0.0000 l -0.0000,-3.7736 l 3.7736,-0.0000 l -0.0000,-3.7736 l 3.7736,-0.0000 l 0.0000,3.7736 l 3.7736,-0.0000 l -0.0000,-3.7736 l -0.0000,-3.7736 l 3.7736,-0.0000 l 0.0000,3.7736 l 3.7736,-0.0000 l 0.0000,3.7736 l -3.7736,0.0000 l 0.0000,3.7736 l 3.7736,-0.0000 l 3.7736,-0.0000 l 0.0000,3.7736 l -3.7736,0.0000 l 0.0000,3.7736 l 3.7736,-0.0000 l 0.0000,3.7736 l 3.7736,-0.0000 l -0.0000,-3.7736 l -0.0000,-3.7736 l 3.7736,-0.0000 l 0.0000,3.7736 l 3.7736,-0.0000 l -0.0000,-3.7736 l 3.7736,-0.0000 l -0.0000,-3.7736 l -3.7736,0.0000 l -3.7736,0.0000 l -0.0000,-3.7736 l 3.7736,-0.0000 l -0.0000,-3.7736 l 3.7736,-0.0000 l 0.0000,3.7736 l 3.7736,-0.0000 l -0.0000,-3.7736 l -0.0000,-3.7736 l 3.7736,-0.0000 l 0.0000,3.7736 l 3.7736,-0.0000 l -0.0000,-3.7736 l 3.7736,-0.0000 l -0.0000,-3.7736 l -3.7736,0.0000 l -3.7736,0.0000 l -0.0000,-3.7736 l 3.7736,-0.0000 l -0.0000,-3.7736 l -3.7736,0.0000 l -0.0000,-3.7736 l -3.7736,0.0000 l 0.0000,3.7736 l 0.0000,3.7736 l -3.7736,0.0000 l -0.0000,-3.7736 l -3.7736,0.0000 l -3.7736,0.0000 l -0.0000,-3.7736 l -3.7736,0.0000 l 0.0000,3.7736 l 0.0000,3.7736 l -3.7736,0.0000 l -0.0000,-3.7736 l -3.7736,0.0000 l -0.0000,-3.7736 l 3.7736,-0.0000 l -0.0000,-3.7736 l -3.7736,0.0000 l -3.7736,0.0000 l -0.0000,-3.7736 l 3.7736,-0.0000 l -0.0000,-3.7736 l 3.7736,-0.0000 l 0.0000,3.7736 l 3.7736,-0.0000 l -0.0000,-3.7736 l -0.0000,-3.7736 l 3.7736,-0.0000 l 0.0000,3.7736 l 3.7736,-0.0000 l -0.0000,-3.7736 l 3.7736,-0.0000 l -0.0000,-3.7736 l -3.7736,0.0000 l -3.7736,0.0000 l -0.0000,-3.7736 l 3.7736,-0.0000 l -0.0000,-3.7736 "/></g></svg>