<?xml version="1.0" encoding="UTF-8"?>
<!DOCTYPE svg PUBLIC "-//W3C//DTD SVG 1.1//EN"
    "http://www.w3.org/Graphics/SVG/1.1/DTD/svg11.dtd"><svg xmlns="http://www.w3.org/2000/svg" height="200.0" stroke-opacity="1" viewBox="0 0 89 200" font-size="1" width="88.71119695091167" xmlns:xlink="http://www.w3.org/1999/xlink" stroke="rgb(0,0,0)" version="1.1"><g><defs></defs><g stroke-linejoin="miter" stroke-opacity="1.0" fill-opacity="1.0" stroke="rgb(0,0,0)" stroke-width="0.0" fill="rgb(89,89,255)" stroke-linecap="butt" stroke-miterlimit="10.0"><path d="M 76.1078854428617,163.8479514458178 l -31.752286967405883,23.069386843250737 l -31.752286967405876,-23.06938684325074 l 12.128294401008729,-37.32705201199934 l 39.24798513279431,-1.4524672254858029e-15 Z"/></g><defs></defs><g stroke-linejoin="miter" stroke-opacity="1.0" fill-opacity="1.0" stroke="rgb(0,0,0)" stroke-width="0.0" fill="rgb(148,148,148)" stroke-linecap="butt" stroke-miterlimit="10.0"><path d="M 79.1399590431139,154.51618844281796 l 6.565507022567526,7.291734265462452 l -3.0320736002521835,9.331763002999836 l -9.59758062281971,2.0400287375373845 l -6.565507022567526,-7.291734265462449 l 3.0320736002521786,-9.331763002999834 Z"/></g><defs></defs><g stroke-linejoin="miter" stroke-opacity="1.0" fill-opacity="1.0" stroke="rgb(0,0,0)" stroke-width="0.0" fill="rgb(0,0,0)" stroke-linecap="butt" stroke-miterlimit="10.0"><path d="M 81.21111736746832,154.8518663347628 c 1.3423712115445177,-1.2086764678236754 3.410403961519651,-1.1002954639128788 4.619080429343326 0.24207574763163892c 1.2086764678236754,1.3423712115445172 1.1002954639128788,3.41040396151965 -0.24207574763163875 4.619080429343326c -1.3423712115445174,1.2086764678236754 -3.41040396151965,1.1002954639128788 -4.619080429343326 -0.24207574763163855c -1.2086764678236757,-1.3423712115445172 -1.1002954639128788,-3.41040396151965 0.24207574763163908 -4.6190804293433265Z"/></g><defs></defs><g stroke-linejoin="miter" stroke-opacity="1.0" fill-opacity="1.0" stroke="rgb(0,0,0)" stroke-width="0.0" fill="rgb(0,0,0)" stroke-linecap="butt" stroke-miterlimit="10.0"><path d="M 70.86866316438442,154.93038040217724 c -0.3755589203194897,-1.7668658044182846 0.7523181573424864,-3.503644199799544 2.5191839617607705 -3.879203120119034c 1.7668658044182846,-0.3755589203194897 3.503644199799544,0.7523181573424864 3.879203120119034 2.5191839617607696c 0.3755589203194898,1.7668658044182841 -0.7523181573424862,3.503644199799544 -2.5191839617607696 3.879203120119034c -1.7668658044182841,0.37555892031948995 -3.503644199799544,-0.7523181573424861 -3.8792031201190342 -2.5191839617607696Z"/></g><defs></defs><g stroke-linejoin="miter" stroke-opacity="1.0" fill-opacity="1.0" stroke="rgb(0,0,0)" stroke-width="0.0" fill="rgb(0,0,0)" stroke-linecap="butt" stroke-miterlimit="10.0"><path d="M 65.76543123977783,163.92646551323224 c -1.7179301318640063,-0.5581893365946091 -2.6580858041771624,-2.4033487358866648 -2.0998964675825538 -4.1212788677506715c 0.558189336594609,-1.7179301318640063 2.4033487358866648,-2.6580858041771624 4.121278867750671 -2.0998964675825538c 1.7179301318640063,0.5581893365946088 2.6580858041771624,2.4033487358866648 2.099896467582554 4.121278867750671c -0.5581893365946087,1.7179301318640063 -2.4033487358866643,2.6580858041771624 -4.1212788677506715 2.099896467582554Z"/></g><defs></defs><g stroke-linejoin="miter" stroke-opacity="1.0" fill-opacity="1.0" stroke="rgb(0,0,0)" stroke-width="0.0" fill="rgb(0,0,0)" stroke-linecap="butt" stroke-miterlimit="10.0"><path d="M 71.00465351825511,172.84403655687285 c -1.3423712115445172,1.2086764678236757 -3.41040396151965,1.1002954639128797 -4.6190804293433265 -0.24207574763163747c -1.2086764678236759,-1.3423712115445172 -1.1002954639128797,-3.41040396151965 0.24207574763163728 -4.6190804293433265c 1.3423712115445172,-1.208676467823676 3.41040396151965,-1.1002954639128797 4.6190804293433265 0.2420757476316371c 1.208676467823676,1.342371211544517 1.10029546391288,3.41040396151965 -0.2420757476316373 4.6190804293433265Z"/></g><defs></defs><g stroke-linejoin="miter" stroke-opacity="1.0" fill-opacity="1.0" stroke="rgb(0,0,0)" stroke-width="0.0" fill="rgb(0,0,0)" stroke-linecap="butt" stroke-miterlimit="10.0"><path d="M 81.347107721339,172.7655224894584 c 0.375558920319489,1.7668658044182846 -0.7523181573424879,3.5036441997995436 -2.519183961760772 3.8792031201190333c -1.7668658044182846,0.37555892031948923 -3.503644199799544,-0.7523181573424876 -3.8792031201190333 -2.519183961760772c -0.37555892031948923,-1.7668658044182846 0.7523181573424874,-3.503644199799544 2.5191839617607714 -3.8792031201190325c 1.7668658044182846,-0.3755589203194894 3.503644199799544,0.7523181573424874 3.8792031201190342 2.519183961760771Z"/></g><defs></defs><g stroke-linejoin="miter" stroke-opacity="1.0" fill-opacity="1.0" stroke="rgb(0,0,0)" stroke-width="0.0" fill="rgb(0,0,0)" stroke-linecap="butt" stroke-miterlimit="10.0"><path d="M 86.4503396459456,163.76943737840338 c 1.7179301318640063,0.5581893365946092 2.6580858041771624,2.4033487358866656 2.099896467582553 4.1212788677506715c -0.5581893365946091,1.7179301318640063 -2.403348735886665,2.6580858041771624 -4.1212788677506715 2.0998964675825533c -1.7179301318640063,-0.5581893365946091 -2.6580858041771624,-2.4033487358866648 -2.0998964675825533 -4.121278867750671c 0.558189336594609,-1.7179301318640063 2.4033487358866648,-2.6580858041771624 4.1212788677506715 -2.099896467582554Z"/></g><defs></defs><g stroke-linejoin="miter" stroke-opacity="1.0" fill-opacity="1.0" stroke="rgb(0,0,0)" stroke-width="0.0" fill="rgb(148,148,148)" stroke-linecap="butt" stroke-miterlimit="10.0"><path d="M 56.04151930000152,120.75355272300578 l 8.963704634922147,-3.990898430100414 l 7.938071741851468,5.7673467108126895 l -1.0256328930706786,9.758245140913107 l -8.963704634922145,3.990898430100415 l -7.938071741851468,-5.767346710812684 Z"/></g><defs></defs><g stroke-linejoin="miter" stroke-opacity="1.0" fill-opacity="1.0" stroke="rgb(0,0,0)" stroke-width="0.0" fill="rgb(0,0,0)" stroke-linecap="butt" stroke-miterlimit="10.0"><path d="M 57.00079106677851,118.88749427559645 c -0.734704113689372,-1.6501724572850334 7.42961098887442e-3,-3.5834969079848156 1.6576020682739079 -4.318201021674188c 1.6501724572850334,-0.7347041136893722 3.5834969079848156,7.42961098887442e-3 4.318201021674188 1.6576020682739079c 0.7347041136893724,1.6501724572850334 -7.429610988874057e-3,3.5834969079848156 -1.6576020682739074 4.318201021674188c -1.6501724572850331,0.7347041136893726 -3.5834969079848156,-7.429610988874057e-3 -4.318201021674189 -1.657602068273908Z"/></g><defs></defs><g stroke-linejoin="miter" stroke-opacity="1.0" fill-opacity="1.0" stroke="rgb(0,0,0)" stroke-width="0.0" fill="rgb(0,0,0)" stroke-linecap="butt" stroke-miterlimit="10.0"><path d="M 53.87946826991632,128.74801492105217 c -1.7964433254789167,-0.18881380192258929 -3.099684551203401,-1.7981826858490075 -2.910870749280812 -3.594626011327924c 0.18881380192258912,-1.7964433254789167 1.7981826858490075,-3.099684551203401 3.594626011327924 -2.9108707492808126c 1.7964433254789167,0.18881380192258893 3.099684551203401,1.7981826858490075 2.9108707492808126 3.594626011327924c -0.18881380192258884,1.796443325478917 -1.798182685849007,3.0996845512034015 -3.5946260113279243 2.910870749280812Z"/></g><defs></defs><g stroke-linejoin="miter" stroke-opacity="1.0" fill-opacity="1.0" stroke="rgb(0,0,0)" stroke-width="0.0" fill="rgb(0,0,0)" stroke-linecap="butt" stroke-miterlimit="10.0"><path d="M 60.858268244990796,136.38142007927416 c -1.0617392117895443,1.4613586553624438 -3.1071141621922744,1.7853142221358065 -4.568472817554718 0.7235750103462634c -1.4613586553624438,-1.0617392117895443 -1.785314222135807,-3.1071141621922744 -0.7235750103462634 -4.568472817554718c 1.0617392117895441,-1.4613586553624438 3.107114162192274,-1.785314222135807 4.568472817554717 -0.7235750103462638c 1.4613586553624438,1.0617392117895441 1.7853142221358074,3.107114162192274 0.7235750103462646 4.568472817554719Z"/></g><defs></defs><g stroke-linejoin="miter" stroke-opacity="1.0" fill-opacity="1.0" stroke="rgb(0,0,0)" stroke-width="0.0" fill="rgb(0,0,0)" stroke-linecap="butt" stroke-miterlimit="10.0"><path d="M 70.95839101692746,134.1543045920405 c 0.7347041136893727,1.6501724572850334 -7.4296109888736936e-3,3.5834969079848156 -1.6576020682739063 4.318201021674188c -1.6501724572850331,0.7347041136893728 -3.5834969079848165,-7.429610988873331e-3 -4.318201021674189 -1.6576020682739063c -0.7347041136893728,-1.6501724572850331 7.429610988873331e-3,-3.5834969079848165 1.6576020682739063 -4.318201021674189c 1.6501724572850331,-0.7347041136893729 3.5834969079848156,7.429610988872968e-3 4.318201021674189 1.6576020682739072Z"/></g><defs></defs><g stroke-linejoin="miter" stroke-opacity="1.0" fill-opacity="1.0" stroke="rgb(0,0,0)" stroke-width="0.0" fill="rgb(0,0,0)" stroke-linecap="butt" stroke-miterlimit="10.0"><path d="M 74.07971381378965,124.29378394658478 c 1.7964433254789167,0.18881380192258992 3.0996845512034006,1.7981826858490086 2.9108707492808112 3.594626011327925c -0.18881380192258976,1.7964433254789167 -1.7981826858490086,3.0996845512034006 -3.594626011327925 2.9108707492808112c -1.7964433254789167,-0.18881380192258956 -3.0996845512034006,-1.7981826858490082 -2.9108707492808104 -3.5946260113279247c 0.1888138019225894,-1.7964433254789167 1.7981826858490082,-3.0996845512034006 3.5946260113279243 -2.9108707492808112Z"/></g><defs></defs><g stroke-linejoin="miter" stroke-opacity="1.0" fill-opacity="1.0" stroke="rgb(0,0,0)" stroke-width="0.0" fill="rgb(0,0,0)" stroke-linecap="butt" stroke-miterlimit="10.0"><path d="M 67.10091383871519,116.66037878836276 c 1.0617392117895443,-1.4613586553624436 3.107114162192275,-1.7853142221358065 4.568472817554718 -0.7235750103462624c 1.4613586553624436,1.0617392117895443 1.7853142221358065,3.1071141621922744 0.7235750103462627 4.568472817554718c -1.0617392117895443,1.4613586553624438 -3.1071141621922744,1.7853142221358065 -4.568472817554717 0.7235750103462627c -1.4613586553624438,-1.0617392117895443 -1.785314222135807,-3.1071141621922744 -0.7235750103462637 -4.568472817554718Z"/></g><defs></defs><g stroke-linejoin="miter" stroke-opacity="1.0" fill-opacity="1.0" stroke="rgb(0,0,0)" stroke-width="0.0" fill="rgb(148,148,148)" stroke-linecap="butt" stroke-miterlimit="10.0"><path d="M 16.79353416720719,132.28824614463116 l -1.0256328930706713,-9.758245140913107 l 7.938071741851473,-5.767346710812682 l 8.963704634922145,3.990898430100423 l 1.0256328930706728,9.758245140913102 l -7.938071741851468,5.767346710812684 Z"/></g><defs></defs><g stroke-linejoin="miter" stroke-opacity="1.0" fill-opacity="1.0" stroke="rgb(0,0,0)" stroke-width="0.0" fill="rgb(0,0,0)" stroke-linecap="butt" stroke-miterlimit="10.0"><path d="M 15.31523839916912,130.79928070719353 c -1.7964433254789167,0.18881380192259048 -3.4058122094053367,-1.1144274238018923 -3.594626011327927 -2.9108707492808086c -0.18881380192259065,-1.7964433254789163 1.1144274238018923,-3.405812209405336 2.910870749280808 -3.594626011327927c 1.7964433254789167,-0.18881380192259065 3.405812209405336,1.1144274238018919 3.594626011327927 2.910870749280808c 0.18881380192259084,1.7964433254789167 -1.1144274238018919,3.405812209405336 -2.910870749280808 3.594626011327928Z"/></g><defs></defs><g stroke-linejoin="miter" stroke-opacity="1.0" fill-opacity="1.0" stroke="rgb(0,0,0)" stroke-width="0.0" fill="rgb(0,0,0)" stroke-linecap="butt" stroke-miterlimit="10.0"><path d="M 23.7286090239323,136.81490354544076 c -0.7347041136893709,1.6501724572850338 -2.668028564389153,2.3923061819632827 -4.318201021674187 1.6576020682739123c -1.6501724572850343,-0.7347041136893708 -2.3923061819632827,-2.668028564389153 -1.6576020682739123 -4.318201021674186c 0.7347041136893708,-1.6501724572850343 2.6680285643891524,-2.3923061819632827 4.318201021674186 -1.6576020682739123c 1.6501724572850343,0.7347041136893707 2.392306181963283,2.6680285643891524 1.6576020682739134 4.318201021674186Z"/></g><defs></defs><g stroke-linejoin="miter" stroke-opacity="1.0" fill-opacity="1.0" stroke="rgb(0,0,0)" stroke-width="0.0" fill="rgb(0,0,0)" stroke-linecap="butt" stroke-miterlimit="10.0"><path d="M 33.14497653382184,132.53652227206572 c 1.061739211789545,1.4613586553624431 0.737783645016183,3.506733605765174 -0.7235750103462598 4.568472817554719c -1.4613586553624431,1.061739211789545 -3.506733605765174,0.7377836450161832 -4.568472817554719 -0.7235750103462594c -1.0617392117895452,-1.4613586553624431 -0.7377836450161832,-3.506733605765174 0.723575010346259 -4.568472817554718c 1.461358655362443,-1.0617392117895452 3.5067336057651732,-0.7377836450161833 4.56847281755472 0.7235750103462584Z"/></g><defs></defs><g stroke-linejoin="miter" stroke-opacity="1.0" fill-opacity="1.0" stroke="rgb(0,0,0)" stroke-width="0.0" fill="rgb(0,0,0)" stroke-linecap="butt" stroke-miterlimit="10.0"><path d="M 34.14797341894821,122.24251816044342 c 1.7964433254789167,-0.18881380192259103 3.405812209405337,1.1144274238018914 3.5946260113279282 2.9108707492808072c 0.18881380192259112,1.7964433254789167 -1.1144274238018914,3.405812209405337 -2.9108707492808072 3.5946260113279282c -1.7964433254789167,0.18881380192259112 -3.405812209405337,-1.1144274238018914 -3.5946260113279282 -2.9108707492808072c -0.18881380192259128,-1.7964433254789167 1.114427423801891,-3.405812209405337 2.9108707492808072 -3.5946260113279287Z"/></g><defs></defs><g stroke-linejoin="miter" stroke-opacity="1.0" fill-opacity="1.0" stroke="rgb(0,0,0)" stroke-width="0.0" fill="rgb(0,0,0)" stroke-linecap="butt" stroke-miterlimit="10.0"><path d="M 25.73460279418503,116.22689532219619 c 0.7347041136893716,-1.6501724572850338 2.6680285643891533,-2.392306181963282 4.318201021674187 -1.6576020682739108c 1.6501724572850343,0.7347041136893716 2.392306181963282,2.6680285643891533 1.6576020682739108 4.318201021674187c -0.7347041136893714,1.6501724572850338 -2.6680285643891533,2.3923061819632823 -4.318201021674186 1.65760206827391c -1.6501724572850338,-0.7347041136893713 -2.3923061819632823,-2.6680285643891533 -1.6576020682739117 -4.318201021674186Z"/></g><defs></defs><g stroke-linejoin="miter" stroke-opacity="1.0" fill-opacity="1.0" stroke="rgb(0,0,0)" stroke-width="0.0" fill="rgb(0,0,0)" stroke-linecap="butt" stroke-miterlimit="10.0"><path d="M 16.318235284295486,120.50527659557123 c -1.0617392117895448,-1.4613586553624434 -0.7377836450161827,-3.506733605765174 0.7235750103462602 -4.568472817554718c 1.4613586553624434,-1.0617392117895448 3.506733605765174,-0.7377836450161828 4.568472817554718 0.7235750103462602c 1.061739211789545,1.4613586553624431 0.737783645016183,3.506733605765174 -0.7235750103462598 4.568472817554718c -1.4613586553624431,1.061739211789545 -3.506733605765174,0.7377836450161832 -4.568472817554718 -0.7235750103462602Z"/></g><defs></defs><g stroke-linejoin="miter" stroke-opacity="1.0" fill-opacity="1.0" stroke="rgb(0,0,0)" stroke-width="0.0" fill="rgb(148,148,148)" stroke-linecap="butt" stroke-miterlimit="10.0"><path d="M 15.635385108302128,173.17971444881766 l -9.597580622819708,-2.0400287375373916 l -3.032073600252176,-9.331763002999837 l 6.565507022567534,-7.2917342654624475 l 9.597580622819706,2.040028737537389 l 3.0320736002521795,9.331763002999832 Z"/></g><defs></defs><g stroke-linejoin="miter" stroke-opacity="1.0" fill-opacity="1.0" stroke="rgb(0,0,0)" stroke-width="0.0" fill="rgb(0,0,0)" stroke-linecap="butt" stroke-miterlimit="10.0"><path d="M 13.762476311452467,174.12554164781668 c -0.3755589203194883,1.7668658044182846 -2.112337315700747,2.8947428820802625 -3.879203120119031 2.519183961760774c -1.7668658044182846,-0.3755589203194881 -2.8947428820802625,-2.1123373157007466 -2.519183961760774 -3.879203120119031c 0.375558920319488,-1.7668658044182848 2.112337315700746,-2.8947428820802625 3.879203120119031 -2.5191839617607745c 1.7668658044182846,0.37555892031948784 2.8947428820802625,2.112337315700746 2.5191839617607745 3.8792031201190316Z"/></g><defs></defs><g stroke-linejoin="miter" stroke-opacity="1.0" fill-opacity="1.0" stroke="rgb(0,0,0)" stroke-width="0.0" fill="rgb(0,0,0)" stroke-linecap="butt" stroke-miterlimit="10.0"><path d="M 22.083548114368245,167.98288037989784 c 1.3423712115445183,1.2086764678236743 1.4507522154553174,3.276709217798807 0.24207574763164347 4.619080429343326c -1.2086764678236743,1.3423712115445185 -3.276709217798807,1.4507522154553174 -4.619080429343325 0.24207574763164363c -1.3423712115445183,-1.208676467823674 -1.4507522154553176,-3.276709217798807 -0.24207574763164363 -4.619080429343325c 1.208676467823674,-1.3423712115445188 3.276709217798807,-1.4507522154553176 4.619080429343325 -0.2420757476316444Z"/></g><defs></defs><g stroke-linejoin="miter" stroke-opacity="1.0" fill-opacity="1.0" stroke="rgb(0,0,0)" stroke-width="0.0" fill="rgb(0,0,0)" stroke-linecap="butt" stroke-miterlimit="10.0"><path d="M 20.924383310965727,157.70529017789903 c 1.7179301318640061,-0.5581893365946098 3.5630895311560624,0.381966335718545 4.121278867750672 2.0998964675825507c 0.5581893365946099,1.7179301318640061 -0.38196633571854477,3.5630895311560624 -2.0998964675825498 4.121278867750672c -1.7179301318640061,0.5581893365946101 -3.5630895311560624,-0.3819663357185446 -4.121278867750672 -2.0998964675825498c -0.5581893365946101,-1.7179301318640061 0.38196633571854444,-3.5630895311560624 2.0998964675825498 -4.121278867750673Z"/></g><defs></defs><g stroke-linejoin="miter" stroke-opacity="1.0" fill-opacity="1.0" stroke="rgb(0,0,0)" stroke-width="0.0" fill="rgb(0,0,0)" stroke-linecap="butt" stroke-miterlimit="10.0"><path d="M 11.444146704647432,153.57036124381898 c 0.37555892031948784,-1.7668658044182848 2.112337315700746,-2.8947428820802634 3.8792031201190302 -2.5191839617607754c 1.7668658044182848,0.3755589203194877 2.8947428820802634,2.1123373157007457 2.5191839617607754 3.8792031201190302c -0.37555892031948757,1.7668658044182848 -2.1123373157007457,2.8947428820802634 -3.8792031201190302 2.5191839617607754c -1.7668658044182848,-0.3755589203194874 -2.8947428820802634,-2.1123373157007452 -2.5191839617607754 -3.8792031201190302Z"/></g><defs></defs><g stroke-linejoin="miter" stroke-opacity="1.0" fill-opacity="1.0" stroke="rgb(0,0,0)" stroke-width="0.0" fill="rgb(0,0,0)" stroke-linecap="butt" stroke-miterlimit="10.0"><path d="M 3.123074901731659,159.7130225117378 c -1.342371211544518,-1.2086764678236748 -1.450752215455316,-3.276709217798807 -0.24207574763164164 -4.619080429343326c 1.2086764678236748,-1.342371211544518 3.276709217798807,-1.4507522154553163 4.619080429343326 -0.242075747631642c 1.342371211544518,1.2086764678236745 1.4507522154553165,3.276709217798807 0.24207574763164164 4.619080429343325c -1.2086764678236745,1.342371211544518 -3.276709217798807,1.4507522154553165 -4.619080429343326 0.24207574763164263Z"/></g><defs></defs><g stroke-linejoin="miter" stroke-opacity="1.0" fill-opacity="1.0" stroke="rgb(0,0,0)" stroke-width="0.0" fill="rgb(0,0,0)" stroke-linecap="butt" stroke-miterlimit="10.0"><path d="M 4.2822397051341765,169.9906127137366 c -1.7179301318640061,0.5581893365946096 -3.5630895311560624,-0.3819663357185453 -4.1212788677506715 -2.099896467582551c -0.5581893365946097,-1.7179301318640061 0.38196633571854516,-3.5630895311560624 2.0998964675825507 -4.1212788677506715c 1.7179301318640061,-0.5581893365946098 3.5630895311560624,0.381966335718545 4.1212788677506715 2.09989646758255c 0.5581893365946099,1.7179301318640061 -0.38196633571854477,3.5630895311560624 -2.0998964675825507 4.121278867750673Z"/></g><defs></defs><g stroke-linejoin="miter" stroke-opacity="1.0" fill-opacity="1.0" stroke="rgb(0,0,0)" stroke-width="0.0" fill="rgb(148,148,148)" stroke-linecap="butt" stroke-miterlimit="10.0"><path d="M 54.16759475865441,186.91733828906857 l -4.905998141599294,8.497438043088458 l -9.81199628319858,-5.08363528920031e-15 l -4.905998141599286,-8.497438043088465 l 4.905998141599292,-8.497438043088458 l 9.811996283198576,7.262336127428989e-16 Z"/></g><defs></defs><g stroke-linejoin="miter" stroke-opacity="1.0" fill-opacity="1.0" stroke="rgb(0,0,0)" stroke-width="0.0" fill="rgb(0,0,0)" stroke-linecap="butt" stroke-miterlimit="10.0"><path d="M 54.48836923241072,188.9908570829717 c 1.5643351479432592,0.9031693187678338 2.100315952597558,2.903476913619324 1.197146633829724 4.467812061562583c -0.9031693187678337,1.5643351479432592 -2.9034769136193237,2.100315952597558 -4.467812061562583 1.197146633829724c -1.5643351479432595,-0.9031693187678337 -2.100315952597558,-2.9034769136193237 -1.1971466338297243 -4.467812061562583c 0.9031693187678335,-1.5643351479432595 2.9034769136193237,-2.100315952597558 4.467812061562583 -1.1971466338297239Z"/></g><defs></defs><g stroke-linejoin="miter" stroke-opacity="1.0" fill-opacity="1.0" stroke="rgb(0,0,0)" stroke-width="0.0" fill="rgb(0,0,0)" stroke-linecap="butt" stroke-miterlimit="10.0"><path d="M 51.21770380467785,179.1788607997731 c 1.5643351479432588,-0.9031693187678346 3.5646427427947494,-0.36718851411353776 4.467812061562585 1.1971466338297208c 0.9031693187678347,1.5643351479432588 0.36718851411353776,3.5646427427947494 -1.1971466338297203 4.467812061562584c -1.5643351479432586,0.9031693187678347 -3.5646427427947494,0.3671885141135379 -4.467812061562584 -1.1971466338297203c -0.9031693187678349,-1.5643351479432586 -0.3671885141135381,-3.5646427427947494 1.1971466338297194 -4.467812061562584Z"/></g><defs></defs><g stroke-linejoin="miter" stroke-opacity="1.0" fill-opacity="1.0" stroke="rgb(0,0,0)" stroke-width="0.0" fill="rgb(0,0,0)" stroke-linecap="butt" stroke-miterlimit="10.0"><path d="M 41.08493304772297,177.10534200587 c -2.2121268306342463e-16,-1.8063386375356676 1.4643267901971917,-3.27066542773286 3.270665427732859 -3.270665427732861c 1.8063386375356676,-3.3181902459513693e-16 3.27066542773286,1.4643267901971915 3.270665427732861 3.2706654277328586c 4.4242536612684927e-16,1.8063386375356676 -1.4643267901971913,3.27066542773286 -3.270665427732858 3.270665427732861c -1.8063386375356676,5.530317076585617e-16 -3.27066542773286,-1.464326790197191 -3.2706654277328617 -3.2706654277328586Z"/></g><defs></defs><g stroke-linejoin="miter" stroke-opacity="1.0" fill-opacity="1.0" stroke="rgb(0,0,0)" stroke-width="0.0" fill="rgb(0,0,0)" stroke-linecap="butt" stroke-miterlimit="10.0"><path d="M 34.22282771850093,184.84381949516543 c -1.5643351479432597,-0.9031693187678335 -2.1003159525975583,-2.9034769136193237 -1.1971466338297254 -4.467812061562583c 0.9031693187678332,-1.5643351479432597 2.9034769136193237,-2.1003159525975588 4.467812061562583 -1.1971466338297256c 1.5643351479432597,0.9031693187678332 2.1003159525975588,2.9034769136193237 1.1971466338297259 4.467812061562583c -0.9031693187678331,1.5643351479432597 -2.9034769136193233,2.1003159525975588 -4.467812061562583 1.1971466338297256Z"/></g><defs></defs><g stroke-linejoin="miter" stroke-opacity="1.0" fill-opacity="1.0" stroke="rgb(0,0,0)" stroke-width="0.0" fill="rgb(0,0,0)" stroke-linecap="butt" stroke-miterlimit="10.0"><path d="M 37.4934931462338,194.65581577836403 c -1.5643351479432592,0.903169318767834 -3.5646427427947494,0.3671885141135363 -4.467812061562584 -1.1971466338297225c -0.9031693187678341,-1.5643351479432592 -0.3671885141135365,-3.5646427427947494 1.197146633829722 -4.467812061562584c 1.564335147943259,-0.9031693187678341 3.5646427427947494,-0.36718851411353665 4.467812061562583 1.197146633829722c 0.9031693187678344,1.564335147943259 0.36718851411353665,3.5646427427947494 -1.1971466338297212 4.467812061562584Z"/></g><defs></defs><g stroke-linejoin="miter" stroke-opacity="1.0" fill-opacity="1.0" stroke="rgb(0,0,0)" stroke-width="0.0" fill="rgb(0,0,0)" stroke-linecap="butt" stroke-miterlimit="10.0"><path d="M 47.626263903188686,196.72933457226713 c 0.0,1.8063386375356676 -1.464326790197192,3.27066542773286 -3.270665427732859 3.27066542773286c -1.8063386375356676,1.1060634153171232e-16 -3.27066542773286,-1.4643267901971917 -3.27066542773286 -3.270665427732859c -2.2121268306342463e-16,-1.8063386375356676 1.4643267901971917,-3.27066542773286 3.2706654277328586 -3.27066542773286c 1.8063386375356676,-3.3181902459513693e-16 3.27066542773286,1.4643267901971915 3.2706654277328604 3.270665427732859Z"/></g><defs></defs><g stroke-linejoin="miter" stroke-opacity="1.0" fill-opacity="1.0" stroke="rgb(0,0,0)" stroke-width="0.0" fill="rgb(89,89,255)" stroke-linecap="butt" stroke-miterlimit="10.0"><path d="M 76.1078854428617,36.15204855418217 l -31.752286967405883,-23.069386843250737 l -31.752286967405876,23.06938684325074 l 12.128294401008729,37.32705201199934 l 39.24798513279431,1.4524672254858029e-15 Z"/></g><defs></defs><g stroke-linejoin="miter" stroke-opacity="1.0" fill-opacity="1.0" stroke="rgb(0,0,0)" stroke-width="0.0" fill="rgb(148,148,148)" stroke-linecap="butt" stroke-miterlimit="10.0"><path d="M 79.1399590431139,45.48381155718202 l 6.565507022567526,-7.291734265462452 l -3.0320736002521835,-9.331763002999836 l -9.59758062281971,-2.0400287375373845 l -6.565507022567526,7.291734265462449 l 3.0320736002521786,9.331763002999834 Z"/></g><defs></defs><g stroke-linejoin="miter" stroke-opacity="1.0" fill-opacity="1.0" stroke="rgb(0,0,0)" stroke-width="0.0" fill="rgb(0,0,0)" stroke-linecap="butt" stroke-miterlimit="10.0"><path d="M 81.21111736746832,45.1481336652372 c 1.3423712115445177,1.2086764678236754 3.410403961519651,1.1002954639128788 4.619080429343326 -0.24207574763163892c 1.2086764678236754,-1.3423712115445172 1.1002954639128788,-3.41040396151965 -0.24207574763163875 -4.619080429343326c -1.3423712115445174,-1.2086764678236754 -3.41040396151965,-1.1002954639128788 -4.619080429343326 0.24207574763163855c -1.2086764678236757,1.3423712115445172 -1.1002954639128788,3.41040396151965 0.24207574763163908 4.6190804293433265Z"/></g><defs></defs><g stroke-linejoin="miter" stroke-opacity="1.0" fill-opacity="1.0" stroke="rgb(0,0,0)" stroke-width="0.0" fill="rgb(0,0,0)" stroke-linecap="butt" stroke-miterlimit="10.0"><path d="M 70.86866316438442,45.069619597822765 c -0.3755589203194897,1.7668658044182846 0.7523181573424864,3.503644199799544 2.5191839617607705 3.879203120119034c 1.7668658044182846,0.3755589203194897 3.503644199799544,-0.7523181573424864 3.879203120119034 -2.5191839617607696c 0.3755589203194898,-1.7668658044182841 -0.7523181573424862,-3.503644199799544 -2.5191839617607696 -3.879203120119034c -1.7668658044182841,-0.37555892031948995 -3.503644199799544,0.7523181573424861 -3.8792031201190342 2.5191839617607696Z"/></g><defs></defs><g stroke-linejoin="miter" stroke-opacity="1.0" fill-opacity="1.0" stroke="rgb(0,0,0)" stroke-width="0.0" fill="rgb(0,0,0)" stroke-linecap="butt" stroke-miterlimit="10.0"><path d="M 65.76543123977783,36.07353448676775 c -1.7179301318640063,0.5581893365946091 -2.6580858041771624,2.4033487358866648 -2.0998964675825538 4.1212788677506715c 0.558189336594609,1.7179301318640063 2.4033487358866648,2.6580858041771624 4.121278867750671 2.0998964675825538c 1.7179301318640063,-0.5581893365946088 2.6580858041771624,-2.4033487358866648 2.099896467582554 -4.121278867750671c -0.5581893365946087,-1.7179301318640063 -2.4033487358866643,-2.6580858041771624 -4.1212788677506715 -2.099896467582554Z"/></g><defs></defs><g stroke-linejoin="miter" stroke-opacity="1.0" fill-opacity="1.0" stroke="rgb(0,0,0)" stroke-width="0.0" fill="rgb(0,0,0)" stroke-linecap="butt" stroke-miterlimit="10.0"><path d="M 71.00465351825511,27.155963443127174 c -1.3423712115445172,-1.2086764678236757 -3.41040396151965,-1.1002954639128797 -4.6190804293433265 0.24207574763163747c -1.2086764678236759,1.3423712115445172 -1.1002954639128797,3.41040396151965 0.24207574763163728 4.6190804293433265c 1.3423712115445172,1.208676467823676 3.41040396151965,1.1002954639128797 4.6190804293433265 -0.2420757476316371c 1.208676467823676,-1.342371211544517 1.10029546391288,-3.41040396151965 -0.2420757476316373 -4.6190804293433265Z"/></g><defs></defs><g stroke-linejoin="miter" stroke-opacity="1.0" fill-opacity="1.0" stroke="rgb(0,0,0)" stroke-width="0.0" fill="rgb(0,0,0)" stroke-linecap="butt" stroke-miterlimit="10.0"><path d="M 81.347107721339,27.23447751054161 c 0.375558920319489,-1.7668658044182846 -0.7523181573424879,-3.5036441997995436 -2.519183961760772 -3.8792031201190333c -1.7668658044182846,-0.37555892031948923 -3.503644199799544,0.7523181573424876 -3.8792031201190333 2.519183961760772c -0.37555892031948923,1.7668658044182846 0.7523181573424874,3.503644199799544 2.5191839617607714 3.8792031201190325c 1.7668658044182846,0.3755589203194894 3.503644199799544,-0.7523181573424874 3.8792031201190342 -2.519183961760771Z"/></g><defs></defs><g stroke-linejoin="miter" stroke-opacity="1.0" fill-opacity="1.0" stroke="rgb(0,0,0)" stroke-width="0.0" fill="rgb(0,0,0)" stroke-linecap="butt" stroke-miterlimit="10.0"><path d="M 86.4503396459456,36.230562621596626 c 1.7179301318640063,-0.5581893365946092 2.6580858041771624,-2.4033487358866656 2.099896467582553 -4.1212788677506715c -0.5581893365946091,-1.7179301318640063 -2.403348735886665,-2.6580858041771624 -4.1212788677506715 -2.0998964675825533c -1.7179301318640063,0.5581893365946091 -2.6580858041771624,2.4033487358866648 -2.0998964675825533 4.121278867750671c 0.558189336594609,1.7179301318640063 2.4033487358866648,2.6580858041771624 4.1212788677506715 2.099896467582554Z"/></g><defs></defs><g stroke-linejoin="miter" stroke-opacity="1.0" fill-opacity="1.0" stroke="rgb(0,0,0)" stroke-width="0.0" fill="rgb(148,148,148)" stroke-linecap="butt" stroke-miterlimit="10.0"><path d="M 56.04151930000152,79.2464472769942 l 8.963704634922147,3.990898430100414 l 7.938071741851468,-5.7673467108126895 l -1.0256328930706786,-9.758245140913107 l -8.963704634922145,-3.990898430100415 l -7.938071741851468,5.767346710812684 Z"/></g><defs></defs><g stroke-linejoin="miter" stroke-opacity="1.0" fill-opacity="1.0" stroke="rgb(0,0,0)" stroke-width="0.0" fill="rgb(0,0,0)" stroke-linecap="butt" stroke-miterlimit="10.0"><path d="M 57.00079106677851,81.11250572440352 c -0.734704113689372,1.6501724572850334 7.42961098887442e-3,3.5834969079848156 1.6576020682739079 4.318201021674188c 1.6501724572850334,0.7347041136893722 3.5834969079848156,-7.42961098887442e-3 4.318201021674188 -1.6576020682739079c 0.7347041136893724,-1.6501724572850334 -7.429610988874057e-3,-3.5834969079848156 -1.6576020682739074 -4.318201021674188c -1.6501724572850331,-0.7347041136893726 -3.5834969079848156,7.429610988874057e-3 -4.318201021674189 1.657602068273908Z"/></g><defs></defs><g stroke-linejoin="miter" stroke-opacity="1.0" fill-opacity="1.0" stroke="rgb(0,0,0)" stroke-width="0.0" fill="rgb(0,0,0)" stroke-linecap="butt" stroke-miterlimit="10.0"><path d="M 53.87946826991632,71.25198507894781 c -1.7964433254789167,0.18881380192258929 -3.099684551203401,1.7981826858490075 -2.910870749280812 3.594626011327924c 0.18881380192258912,1.7964433254789167 1.7981826858490075,3.099684551203401 3.594626011327924 2.9108707492808126c 1.7964433254789167,-0.18881380192258893 3.099684551203401,-1.7981826858490075 2.9108707492808126 -3.594626011327924c -0.18881380192258884,-1.796443325478917 -1.798182685849007,-3.0996845512034015 -3.5946260113279243 -2.910870749280812Z"/></g><defs></defs><g stroke-linejoin="miter" stroke-opacity="1.0" fill-opacity="1.0" stroke="rgb(0,0,0)" stroke-width="0.0" fill="rgb(0,0,0)" stroke-linecap="butt" stroke-miterlimit="10.0"><path d="M 60.858268244990796,63.618579920725814 c -1.0617392117895443,-1.4613586553624438 -3.1071141621922744,-1.7853142221358065 -4.568472817554718 -0.7235750103462634c -1.4613586553624438,1.0617392117895443 -1.785314222135807,3.1071141621922744 -0.7235750103462634 4.568472817554718c 1.0617392117895441,1.4613586553624438 3.107114162192274,1.785314222135807 4.568472817554717 0.7235750103462638c 1.4613586553624438,-1.0617392117895441 1.7853142221358074,-3.107114162192274 0.7235750103462646 -4.568472817554719Z"/></g><defs></defs><g stroke-linejoin="miter" stroke-opacity="1.0" fill-opacity="1.0" stroke="rgb(0,0,0)" stroke-width="0.0" fill="rgb(0,0,0)" stroke-linecap="butt" stroke-miterlimit="10.0"><path d="M 70.95839101692746,65.84569540795951 c 0.7347041136893727,-1.6501724572850334 -7.4296109888736936e-3,-3.5834969079848156 -1.6576020682739063 -4.318201021674188c -1.6501724572850331,-0.7347041136893728 -3.5834969079848165,7.429610988873331e-3 -4.318201021674189 1.6576020682739063c -0.7347041136893728,1.6501724572850331 7.429610988873331e-3,3.5834969079848165 1.6576020682739063 4.318201021674189c 1.6501724572850331,0.7347041136893729 3.5834969079848156,-7.429610988872968e-3 4.318201021674189 -1.6576020682739072Z"/></g><defs></defs><g stroke-linejoin="miter" stroke-opacity="1.0" fill-opacity="1.0" stroke="rgb(0,0,0)" stroke-width="0.0" fill="rgb(0,0,0)" stroke-linecap="butt" stroke-miterlimit="10.0"><path d="M 74.07971381378965,75.7062160534152 c 1.7964433254789167,-0.18881380192258992 3.0996845512034006,-1.7981826858490086 2.9108707492808112 -3.594626011327925c -0.18881380192258976,-1.7964433254789167 -1.7981826858490086,-3.0996845512034006 -3.594626011327925 -2.9108707492808112c -1.7964433254789167,0.18881380192258956 -3.0996845512034006,1.7981826858490082 -2.9108707492808104 3.5946260113279247c 0.1888138019225894,1.7964433254789167 1.7981826858490082,3.0996845512034006 3.5946260113279243 2.9108707492808112Z"/></g><defs></defs><g stroke-linejoin="miter" stroke-opacity="1.0" fill-opacity="1.0" stroke="rgb(0,0,0)" stroke-width="0.0" fill="rgb(0,0,0)" stroke-linecap="butt" stroke-miterlimit="10.0"><path d="M 67.10091383871519,83.33962121163722 c 1.0617392117895443,1.4613586553624436 3.107114162192275,1.7853142221358065 4.568472817554718 0.7235750103462624c 1.4613586553624436,-1.0617392117895443 1.7853142221358065,-3.1071141621922744 0.7235750103462627 -4.568472817554718c -1.0617392117895443,-1.4613586553624438 -3.1071141621922744,-1.7853142221358065 -4.568472817554717 -0.7235750103462627c -1.4613586553624438,1.0617392117895443 -1.785314222135807,3.1071141621922744 -0.7235750103462637 4.568472817554718Z"/></g><defs></defs><g stroke-linejoin="miter" stroke-opacity="1.0" fill-opacity="1.0" stroke="rgb(0,0,0)" stroke-width="0.0" fill="rgb(148,148,148)" stroke-linecap="butt" stroke-miterlimit="10.0"><path d="M 16.79353416720719,67.71175385536884 l -1.0256328930706713,9.758245140913107 l 7.938071741851473,5.767346710812682 l 8.963704634922145,-3.990898430100423 l 1.0256328930706728,-9.758245140913102 l -7.938071741851468,-5.767346710812684 Z"/></g><defs></defs><g stroke-linejoin="miter" stroke-opacity="1.0" fill-opacity="1.0" stroke="rgb(0,0,0)" stroke-width="0.0" fill="rgb(0,0,0)" stroke-linecap="butt" stroke-miterlimit="10.0"><path d="M 15.31523839916912,69.20071929280647 c -1.7964433254789167,-0.18881380192259048 -3.4058122094053367,1.1144274238018923 -3.594626011327927 2.9108707492808086c -0.18881380192259065,1.7964433254789163 1.1144274238018923,3.405812209405336 2.910870749280808 3.594626011327927c 1.7964433254789167,0.18881380192259065 3.405812209405336,-1.1144274238018919 3.594626011327927 -2.910870749280808c 0.18881380192259084,-1.7964433254789167 -1.1144274238018919,-3.405812209405336 -2.910870749280808 -3.594626011327928Z"/></g><defs></defs><g stroke-linejoin="miter" stroke-opacity="1.0" fill-opacity="1.0" stroke="rgb(0,0,0)" stroke-width="0.0" fill="rgb(0,0,0)" stroke-linecap="butt" stroke-miterlimit="10.0"><path d="M 23.7286090239323,63.18509645455922 c -0.7347041136893709,-1.6501724572850338 -2.668028564389153,-2.3923061819632827 -4.318201021674187 -1.6576020682739123c -1.6501724572850343,0.7347041136893708 -2.3923061819632827,2.668028564389153 -1.6576020682739123 4.318201021674186c 0.7347041136893708,1.6501724572850343 2.6680285643891524,2.3923061819632827 4.318201021674186 1.6576020682739123c 1.6501724572850343,-0.7347041136893707 2.392306181963283,-2.6680285643891524 1.6576020682739134 -4.318201021674186Z"/></g><defs></defs><g stroke-linejoin="miter" stroke-opacity="1.0" fill-opacity="1.0" stroke="rgb(0,0,0)" stroke-width="0.0" fill="rgb(0,0,0)" stroke-linecap="butt" stroke-miterlimit="10.0"><path d="M 33.14497653382184,67.46347772793428 c 1.061739211789545,-1.4613586553624431 0.737783645016183,-3.506733605765174 -0.7235750103462598 -4.568472817554719c -1.4613586553624431,-1.061739211789545 -3.506733605765174,-0.7377836450161832 -4.568472817554719 0.7235750103462594c -1.0617392117895452,1.4613586553624431 -0.7377836450161832,3.506733605765174 0.723575010346259 4.568472817554718c 1.461358655362443,1.0617392117895452 3.5067336057651732,0.7377836450161833 4.56847281755472 -0.7235750103462584Z"/></g><defs></defs><g stroke-linejoin="miter" stroke-opacity="1.0" fill-opacity="1.0" stroke="rgb(0,0,0)" stroke-width="0.0" fill="rgb(0,0,0)" stroke-linecap="butt" stroke-miterlimit="10.0"><path d="M 34.14797341894821,77.75748183955656 c 1.7964433254789167,0.18881380192259103 3.405812209405337,-1.1144274238018914 3.5946260113279282 -2.9108707492808072c 0.18881380192259112,-1.7964433254789167 -1.1144274238018914,-3.405812209405337 -2.9108707492808072 -3.5946260113279282c -1.7964433254789167,-0.18881380192259112 -3.405812209405337,1.1144274238018914 -3.5946260113279282 2.9108707492808072c -0.18881380192259128,1.7964433254789167 1.114427423801891,3.405812209405337 2.9108707492808072 3.5946260113279287Z"/></g><defs></defs><g stroke-linejoin="miter" stroke-opacity="1.0" fill-opacity="1.0" stroke="rgb(0,0,0)" stroke-width="0.0" fill="rgb(0,0,0)" stroke-linecap="butt" stroke-miterlimit="10.0"><path d="M 25.73460279418503,83.7731046778038 c 0.7347041136893716,1.6501724572850338 2.6680285643891533,2.392306181963282 4.318201021674187 1.6576020682739108c 1.6501724572850343,-0.7347041136893716 2.392306181963282,-2.6680285643891533 1.6576020682739108 -4.318201021674187c -0.7347041136893714,-1.6501724572850338 -2.6680285643891533,-2.3923061819632823 -4.318201021674186 -1.65760206827391c -1.6501724572850338,0.7347041136893713 -2.3923061819632823,2.6680285643891533 -1.6576020682739117 4.318201021674186Z"/></g><defs></defs><g stroke-linejoin="miter" stroke-opacity="1.0" fill-opacity="1.0" stroke="rgb(0,0,0)" stroke-width="0.0" fill="rgb(0,0,0)" stroke-linecap="butt" stroke-miterlimit="10.0"><path d="M 16.318235284295486,79.49472340442875 c -1.0617392117895448,1.4613586553624434 -0.7377836450161827,3.506733605765174 0.7235750103462602 4.568472817554718c 1.4613586553624434,1.0617392117895448 3.506733605765174,0.7377836450161828 4.568472817554718 -0.7235750103462602c 1.061739211789545,-1.4613586553624431 0.737783645016183,-3.506733605765174 -0.7235750103462598 -4.568472817554718c -1.4613586553624431,-1.061739211789545 -3.506733605765174,-0.7377836450161832 -4.568472817554718 0.7235750103462602Z"/></g><defs></defs><g stroke-linejoin="miter" stroke-opacity="1.0" fill-opacity="1.0" stroke="rgb(0,0,0)" stroke-width="0.0" fill="rgb(148,148,148)" stroke-linecap="butt" stroke-miterlimit="10.0"><path d="M 15.635385108302128,26.820285551182337 l -9.597580622819708,2.0400287375373916 l -3.032073600252176,9.331763002999837 l 6.565507022567534,7.2917342654624475 l 9.597580622819706,-2.040028737537389 l 3.0320736002521795,-9.331763002999832 Z"/></g><defs></defs><g stroke-linejoin="miter" stroke-opacity="1.0" fill-opacity="1.0" stroke="rgb(0,0,0)" stroke-width="0.0" fill="rgb(0,0,0)" stroke-linecap="butt" stroke-miterlimit="10.0"><path d="M 13.762476311452467,25.874458352183336 c -0.3755589203194883,-1.7668658044182846 -2.112337315700747,-2.8947428820802625 -3.879203120119031 -2.519183961760774c -1.7668658044182846,0.3755589203194881 -2.8947428820802625,2.1123373157007466 -2.519183961760774 3.879203120119031c 0.375558920319488,1.7668658044182848 2.112337315700746,2.8947428820802625 3.879203120119031 2.5191839617607745c 1.7668658044182846,-0.37555892031948784 2.8947428820802625,-2.112337315700746 2.5191839617607745 -3.8792031201190316Z"/></g><defs></defs><g stroke-linejoin="miter" stroke-opacity="1.0" fill-opacity="1.0" stroke="rgb(0,0,0)" stroke-width="0.0" fill="rgb(0,0,0)" stroke-linecap="butt" stroke-miterlimit="10.0"><path d="M 22.083548114368245,32.017119620102136 c 1.3423712115445183,-1.2086764678236743 1.4507522154553174,-3.276709217798807 0.24207574763164347 -4.619080429343326c -1.2086764678236743,-1.3423712115445185 -3.276709217798807,-1.4507522154553174 -4.619080429343325 -0.24207574763164363c -1.3423712115445183,1.208676467823674 -1.4507522154553176,3.276709217798807 -0.24207574763164363 4.619080429343325c 1.208676467823674,1.3423712115445188 3.276709217798807,1.4507522154553176 4.619080429343325 0.2420757476316444Z"/></g><defs></defs><g stroke-linejoin="miter" stroke-opacity="1.0" fill-opacity="1.0" stroke="rgb(0,0,0)" stroke-width="0.0" fill="rgb(0,0,0)" stroke-linecap="butt" stroke-miterlimit="10.0"><path d="M 20.924383310965727,42.29470982210097 c 1.7179301318640061,0.5581893365946098 3.5630895311560624,-0.381966335718545 4.121278867750672 -2.0998964675825507c 0.5581893365946099,-1.7179301318640061 -0.38196633571854477,-3.5630895311560624 -2.0998964675825498 -4.121278867750672c -1.7179301318640061,-0.5581893365946101 -3.5630895311560624,0.3819663357185446 -4.121278867750672 2.0998964675825498c -0.5581893365946101,1.7179301318640061 0.38196633571854444,3.5630895311560624 2.0998964675825498 4.121278867750673Z"/></g><defs></defs><g stroke-linejoin="miter" stroke-opacity="1.0" fill-opacity="1.0" stroke="rgb(0,0,0)" stroke-width="0.0" fill="rgb(0,0,0)" stroke-linecap="butt" stroke-miterlimit="10.0"><path d="M 11.444146704647432,46.429638756181006 c 0.37555892031948784,1.7668658044182848 2.112337315700746,2.8947428820802634 3.8792031201190302 2.5191839617607754c 1.7668658044182848,-0.3755589203194877 2.8947428820802634,-2.1123373157007457 2.5191839617607754 -3.8792031201190302c -0.37555892031948757,-1.7668658044182848 -2.1123373157007457,-2.8947428820802634 -3.8792031201190302 -2.5191839617607754c -1.7668658044182848,0.3755589203194874 -2.8947428820802634,2.1123373157007452 -2.5191839617607754 3.8792031201190302Z"/></g><defs></defs><g stroke-linejoin="miter" stroke-opacity="1.0" fill-opacity="1.0" stroke="rgb(0,0,0)" stroke-width="0.0" fill="rgb(0,0,0)" stroke-linecap="butt" stroke-miterlimit="10.0"><path d="M 3.123074901731659,40.28697748826222 c -1.342371211544518,1.2086764678236748 -1.450752215455316,3.276709217798807 -0.24207574763164164 4.619080429343326c 1.2086764678236748,1.342371211544518 3.276709217798807,1.4507522154553163 4.619080429343326 0.242075747631642c 1.342371211544518,-1.2086764678236745 1.4507522154553165,-3.276709217798807 0.24207574763164164 -4.619080429343325c -1.2086764678236745,-1.342371211544518 -3.276709217798807,-1.4507522154553165 -4.619080429343326 -0.24207574763164263Z"/></g><defs></defs><g stroke-linejoin="miter" stroke-opacity="1.0" fill-opacity="1.0" stroke="rgb(0,0,0)" stroke-width="0.0" fill="rgb(0,0,0)" stroke-linecap="butt" stroke-miterlimit="10.0"><path d="M 4.2822397051341765,30.00938728626338 c -1.7179301318640061,-0.5581893365946096 -3.5630895311560624,0.3819663357185453 -4.1212788677506715 2.099896467582551c -0.5581893365946097,1.7179301318640061 0.38196633571854516,3.5630895311560624 2.0998964675825507 4.1212788677506715c 1.7179301318640061,0.5581893365946098 3.5630895311560624,-0.381966335718545 4.1212788677506715 -2.09989646758255c 0.5581893365946099,-1.7179301318640061 -0.38196633571854477,-3.5630895311560624 -2.0998964675825507 -4.121278867750673Z"/></g><defs></defs><g stroke-linejoin="miter" stroke-opacity="1.0" fill-opacity="1.0" stroke="rgb(0,0,0)" stroke-width="0.0" fill="rgb(148,148,148)" stroke-linecap="butt" stroke-miterlimit="10.0"><path d="M 54.16759475865441,13.082661710931426 l -4.905998141599294,-8.497438043088458 l -9.81199628319858,5.08363528920031e-15 l -4.905998141599286,8.497438043088465 l 4.905998141599292,8.497438043088458 l 9.811996283198576,-7.262336127428989e-16 Z"/></g><defs></defs><g stroke-linejoin="miter" stroke-opacity="1.0" fill-opacity="1.0" stroke="rgb(0,0,0)" stroke-width="0.0" fill="rgb(0,0,0)" stroke-linecap="butt" stroke-miterlimit="10.0"><path d="M 54.48836923241072,11.009142917028296 c 1.5643351479432592,-0.9031693187678338 2.100315952597558,-2.903476913619324 1.197146633829724 -4.467812061562583c -0.9031693187678337,-1.5643351479432592 -2.9034769136193237,-2.100315952597558 -4.467812061562583 -1.197146633829724c -1.5643351479432595,0.9031693187678337 -2.100315952597558,2.9034769136193237 -1.1971466338297243 4.467812061562583c 0.9031693187678335,1.5643351479432595 2.9034769136193237,2.100315952597558 4.467812061562583 1.1971466338297239Z"/></g><defs></defs><g stroke-linejoin="miter" stroke-opacity="1.0" fill-opacity="1.0" stroke="rgb(0,0,0)" stroke-width="0.0" fill="rgb(0,0,0)" stroke-linecap="butt" stroke-miterlimit="10.0"><path d="M 51.21770380467785,20.82113920022688 c 1.5643351479432588,0.9031693187678346 3.5646427427947494,0.36718851411353776 4.467812061562585 -1.1971466338297208c 0.9031693187678347,-1.5643351479432588 0.36718851411353776,-3.5646427427947494 -1.1971466338297203 -4.467812061562584c -1.5643351479432586,-0.9031693187678347 -3.5646427427947494,-0.3671885141135379 -4.467812061562584 1.1971466338297203c -0.9031693187678349,1.5643351479432586 -0.3671885141135381,3.5646427427947494 1.1971466338297194 4.467812061562584Z"/></g><defs></defs><g stroke-linejoin="miter" stroke-opacity="1.0" fill-opacity="1.0" stroke="rgb(0,0,0)" stroke-width="0.0" fill="rgb(0,0,0)" stroke-linecap="butt" stroke-miterlimit="10.0"><path d="M 41.08493304772297,22.894657994130014 c -2.2121268306342463e-16,1.8063386375356676 1.4643267901971917,3.27066542773286 3.270665427732859 3.270665427732861c 1.8063386375356676,3.3181902459513693e-16 3.27066542773286,-1.4643267901971915 3.270665427732861 -3.2706654277328586c 4.4242536612684927e-16,-1.8063386375356676 -1.4643267901971913,-3.27066542773286 -3.270665427732858 -3.270665427732861c -1.8063386375356676,-5.530317076585617e-16 -3.27066542773286,1.464326790197191 -3.2706654277328617 3.2706654277328586Z"/></g><defs></defs><g stroke-linejoin="miter" stroke-opacity="1.0" fill-opacity="1.0" stroke="rgb(0,0,0)" stroke-width="0.0" fill="rgb(0,0,0)" stroke-linecap="butt" stroke-miterlimit="10.0"><path d="M 34.22282771850093,15.156180504834566 c -1.5643351479432597,0.9031693187678335 -2.1003159525975583,2.9034769136193237 -1.1971466338297254 4.467812061562583c 0.9031693187678332,1.5643351479432597 2.9034769136193237,2.1003159525975588 4.467812061562583 1.1971466338297256c 1.5643351479432597,-0.9031693187678332 2.1003159525975588,-2.9034769136193237 1.1971466338297259 -4.467812061562583c -0.9031693187678331,-1.5643351479432597 -2.9034769136193233,-2.1003159525975588 -4.467812061562583 -1.1971466338297256Z"/></g><defs></defs><g stroke-linejoin="miter" stroke-opacity="1.0" fill-opacity="1.0" stroke="rgb(0,0,0)" stroke-width="0.0" fill="rgb(0,0,0)" stroke-linecap="butt" stroke-miterlimit="10.0"><path d="M 37.4934931462338,5.344184221635988 c -1.5643351479432592,-0.903169318767834 -3.5646427427947494,-0.3671885141135363 -4.467812061562584 1.1971466338297225c -0.9031693187678341,1.5643351479432592 -0.3671885141135365,3.5646427427947494 1.197146633829722 4.467812061562584c 1.564335147943259,0.9031693187678341 3.5646427427947494,0.36718851411353665 4.467812061562583 -1.197146633829722c 0.9031693187678344,-1.564335147943259 0.36718851411353665,-3.5646427427947494 -1.1971466338297212 -4.467812061562584Z"/></g><defs></defs><g stroke-linejoin="miter" stroke-opacity="1.0" fill-opacity="1.0" stroke="rgb(0,0,0)" stroke-width="0.0" fill="rgb(0,0,0)" stroke-linecap="butt" stroke-miterlimit="10.0"><path d="M 47.626263903188686,3.270665427732853 c 0.0,-1.8063386375356676 -1.464326790197192,-3.27066542773286 -3.270665427732859 -3.27066542773286c -1.8063386375356676,-1.1060634153171232e-16 -3.27066542773286,1.4643267901971917 -3.27066542773286 3.270665427732859c -2.2121268306342463e-16,1.8063386375356676 1.4643267901971917,3.27066542773286 3.2706654277328586 3.27066542773286c 1.8063386375356676,3.3181902459513693e-16 3.27066542773286,-1.4643267901971915 3.2706654277328604 -3.270665427732859Z"/></g></g></svg>