<?xml version="1.0" encoding="UTF-8"?>
<!DOCTYPE svg PUBLIC "-//W3C//DTD SVG 1.1//EN"
    "http://www.w3.org/Graphics/SVG/1.1/DTD/svg11.dtd"><svg xmlns="http://www.w3.org/2000/svg" height="400.0" stroke-opacity="1" viewBox="0 0 377 400" font-size="1" width="376.7970177869153" xmlns:xlink="http://www.w3.org/1999/xlink" stroke="rgb(0,0,0)" version="1.1"><defs></defs><defs></defs><g stroke-linejoin="miter" stroke-opacity="1.0" fill-opacity="0.0" stroke="rgb(0,0,0)" stroke-width="1.552900806180568" fill="rgb(0,0,0)" stroke-linecap="butt" stroke-miterlimit="10.0"><path d="M 376.7970177869153,143.85964912280667 l 4.297006312797725e-16,-7.0175438596491135 l -6.077371254627631,-3.5087719298245577 l -1.2891018938393174e-15,7.0175438596491135 l -6.077371254627631,3.5087719298245577 l -2.6867148764399608e-15,-7.0175438596491135 l -2.6867148764399608e-15,-7.0175438596491135 l 6.0773712546276295,-3.5087719298245608 l -2.6867148764399608e-15,-7.0175438596491135 l -6.077371254627633,-3.5087719298245554 l -6.077371254627633,-3.5087719298245554 l -1.2891018938393174e-15,7.0175438596491135 l 6.0773712546276295,3.50877192982456 l -6.077371254627631,3.5087719298245577 l -6.077371254627633,-3.5087719298245554 l -6.077371254627631,3.5087719298245577 l -1.2891018938393174e-15,7.0175438596491135 l -1.2891018938393174e-15,7.0175438596491135 l 6.077371254627634,-3.5087719298245514 l 8.381334171838329e-15,-7.0175438596491135 l 6.0773712546276295,3.50877192982456 l -1.2891018938393174e-15,7.0175438596491135 l -6.077371254627631,3.5087719298245577 l -1.2891018938393174e-15,7.0175438596491135 l 6.077371254627634,-3.5087719298245514 l 6.0773712546276295,3.50877192982456 l -6.077371254627631,3.5087719298245577 l -6.077371254627631,3.5087719298245577 l -6.077371254627633,-3.5087719298245554 l -2.6867148764399608e-15,-7.0175438596491135 l -6.077371254627633,-3.5087719298245554 l -1.2891018938393174e-15,7.0175438596491135 l -6.077371254627631,3.5087719298245577 l -2.6867148764399608e-15,-7.0175438596491135 l -2.6867148764399608e-15,-7.0175438596491135 l 6.0773712546276295,-3.5087719298245608 l -2.6867148764399608e-15,-7.0175438596491135 l -6.077371254627633,-3.5087719298245554 l -1.2891018938393174e-15,7.0175438596491135 l -6.077371254627631,3.5087719298245577 l -2.6867148764399608e-15,-7.0175438596491135 l -2.6867148764399608e-15,-7.0175438596491135 l 6.0773712546276295,-3.5087719298245608 l 6.077371254627634,3.5087719298245528 l 6.0773712546276295,-3.5087719298245608 l 6.0773712546276295,-3.5087719298245608 l -6.077371254627633,-3.5087719298245554 l -6.077371254627631,3.5087719298245577 l -2.6867148764399608e-15,-7.0175438596491135 l 6.0773712546276295,-3.5087719298245608 l -2.6867148764399608e-15,-7.0175438596491135 l -6.077371254627633,-3.5087719298245554 l -1.2891018938393174e-15,7.0175438596491135 l -6.077371254627631,3.5087719298245577 l -2.6867148764399608e-15,-7.0175438596491135 l -2.6867148764399608e-15,-7.0175438596491135 l 6.0773712546276295,-3.5087719298245608 l -2.6867148764399608e-15,-7.0175438596491135 l -6.077371254627633,-3.5087719298245554 l -6.077371254627633,-3.5087719298245554 l -1.2891018938393174e-15,7.0175438596491135 l 6.0773712546276295,3.50877192982456 l -6.077371254627631,3.5087719298245577 l -6.077371254627633,-3.5087719298245554 l -2.6867148764399608e-15,-7.0175438596491135 l -6.077371254627633,-3.5087719298245554 l -6.077371254627633,-3.5087719298245554 l -1.2891018938393174e-15,7.0175438596491135 l 6.0773712546276295,3.50877192982456 l -6.077371254627631,3.5087719298245577 l -6.077371254627633,-3.5087719298245554 l -6.077371254627631,3.5087719298245577 l -1.2891018938393174e-15,7.0175438596491135 l -1.2891018938393174e-15,7.0175438596491135 l 6.077371254627634,-3.5087719298245514 l 8.381334171838329e-15,-7.0175438596491135 l 6.0773712546276295,3.50877192982456 l -1.2891018938393174e-15,7.0175438596491135 l 6.0773712546276295,3.50877192982456 l 6.077371254627634,-3.5087719298245514 l -6.077371254627627,-3.508771929824566 l 8.381334171838329e-15,-7.0175438596491135 l 6.0773712546276295,3.50877192982456 l 6.0773712546276295,3.50877192982456 l -1.2891018938393174e-15,7.0175438596491135 l -6.077371254627631,3.5087719298245577 l -1.2891018938393174e-15,7.0175438596491135 l 6.077371254627634,-3.5087719298245514 l 6.0773712546276295,3.50877192982456 l -6.077371254627631,3.5087719298245577 l -6.077371254627631,3.5087719298245577 l -6.077371254627633,-3.5087719298245554 l -2.6867148764399608e-15,-7.0175438596491135 l -6.077371254627633,-3.5087719298245554 l -6.077371254627633,-3.5087719298245554 l -1.2891018938393174e-15,7.0175438596491135 l 6.0773712546276295,3.50877192982456 l -6.077371254627631,3.5087719298245577 l -6.077371254627633,-3.5087719298245554 l -6.077371254627631,3.5087719298245577 l -1.2891018938393174e-15,7.0175438596491135 l 6.077371254627634,-3.5087719298245514 l 6.0773712546276295,3.50877192982456 l -6.077371254627631,3.5087719298245577 l -6.077371254627631,3.5087719298245577 l -6.077371254627633,-3.5087719298245554 l -6.077371254627631,3.5087719298245577 l -1.2891018938393174e-15,7.0175438596491135 l -1.2891018938393174e-15,7.0175438596491135 l 6.077371254627634,-3.5087719298245514 l 8.381334171838329e-15,-7.0175438596491135 l 6.0773712546276295,3.50877192982456 l -1.2891018938393174e-15,7.0175438596491135 l -6.077371254627631,3.5087719298245577 l -1.2891018938393174e-15,7.0175438596491135 l -1.2891018938393174e-15,7.0175438596491135 l 6.077371254627634,-3.5087719298245514 l 8.381334171838329e-15,-7.0175438596491135 l 6.0773712546276295,3.50877192982456 l -1.2891018938393174e-15,7.0175438596491135 l 6.0773712546276295,3.50877192982456 l 6.077371254627634,-3.5087719298245514 l 6.077371254627634,-3.5087719298245514 l -6.077371254627627,-3.508771929824566 l -6.077371254627635,3.5087719298245506 l 2.1485031563988625e-15,-7.0175438596491135 l 6.077371254627631,-3.5087719298245563 l 2.1485031563988625e-15,-7.0175438596491135 l -6.0773712546276295,-3.5087719298245608 l -3.0079044189584072e-15,7.0175438596491135 l -6.077371254627635,3.5087719298245506 l 2.1485031563988625e-15,-7.0175438596491135 l 2.1485031563988625e-15,-7.0175438596491135 l 6.077371254627631,-3.5087719298245563 l 6.077371254627633,3.508771929824555 l 6.077371254627631,-3.5087719298245563 l -6.0773712546276295,-3.5087719298245608 l 2.1485031563988625e-15,-7.0175438596491135 l 6.077371254627633,3.508771929824555 l 6.077371254627633,3.508771929824555 l 4.94372912160015e-15,7.0175438596491135 l -6.077371254627628,3.508771929824563 l 4.94372912160015e-15,7.0175438596491135 l 4.94372912160015e-15,7.0175438596491135 l 6.077371254627631,-3.5087719298245563 l 2.1485031563988625e-15,-7.0175438596491135 l 6.077371254627633,3.508771929824555 l 4.94372912160015e-15,7.0175438596491135 l -6.077371254627628,3.508771929824563 l 4.94372912160015e-15,7.0175438596491135 l 6.077371254627631,-3.5087719298245563 l 6.077371254627633,3.508771929824555 l -6.077371254627628,3.508771929824563 l -6.077371254627628,3.508771929824563 l -6.077371254627636,-3.50877192982455 l -6.077371254627628,3.508771929824563 l 4.94372912160015e-15,7.0175438596491135 l 4.94372912160015e-15,7.0175438596491135 l 6.077371254627631,-3.5087719298245563 l 2.1485031563988625e-15,-7.0175438596491135 l 6.077371254627633,3.508771929824555 l 4.94372912160015e-15,7.0175438596491135 l 6.077371254627633,3.508771929824555 l 6.077371254627631,-3.5087719298245563 l 6.077371254627631,-3.5087719298245563 l -6.0773712546276295,-3.5087719298245608 l -6.077371254627635,3.5087719298245506 l 2.1485031563988625e-15,-7.0175438596491135 l 6.077371254627631,-3.5087719298245563 l 6.077371254627633,3.508771929824555 l 6.077371254627631,-3.5087719298245563 l -6.0773712546276295,-3.5087719298245608 l 2.1485031563988625e-15,-7.0175438596491135 l 6.077371254627633,3.508771929824555 l 6.077371254627633,3.508771929824555 l 4.94372912160015e-15,7.0175438596491135 l -6.077371254627628,3.508771929824563 l 4.94372912160015e-15,7.0175438596491135 l 6.077371254627631,-3.5087719298245563 l 6.077371254627633,3.508771929824555 l -6.077371254627628,3.508771929824563 l -6.077371254627628,3.508771929824563 l -6.077371254627636,-3.50877192982455 l -6.077371254627628,3.508771929824563 l 4.94372912160015e-15,7.0175438596491135 l 6.077371254627631,-3.5087719298245563 l 6.077371254627633,3.508771929824555 l -6.077371254627628,3.508771929824563 l -6.077371254627628,3.508771929824563 l -6.077371254627636,-3.50877192982455 l -8.919545891879429e-15,-7.0175438596491135 l -6.077371254627636,-3.50877192982455 l -6.077371254627636,-3.50877192982455 l 4.94372912160015e-15,7.0175438596491135 l 6.077371254627633,3.508771929824555 l -6.077371254627628,3.508771929824563 l -6.077371254627636,-3.50877192982455 l -8.919545891879429e-15,-7.0175438596491135 l -6.077371254627636,-3.50877192982455 l 4.94372912160015e-15,7.0175438596491135 l -6.077371254627628,3.508771929824563 l -8.919545891879429e-15,-7.0175438596491135 l -8.919545891879429e-15,-7.0175438596491135 l 6.077371254627627,-3.508771929824566 l -8.919545891879429e-15,-7.0175438596491135 l -6.077371254627636,-3.50877192982455 l -6.077371254627636,-3.50877192982455 l 4.94372912160015e-15,7.0175438596491135 l 6.077371254627633,3.508771929824555 l -6.077371254627628,3.508771929824563 l -6.077371254627636,-3.50877192982455 l -6.077371254627628,3.508771929824563 l 4.94372912160015e-15,7.0175438596491135 l 4.94372912160015e-15,7.0175438596491135 l 6.077371254627631,-3.5087719298245563 l 2.1485031563988625e-15,-7.0175438596491135 l 6.077371254627633,3.508771929824555 l 4.94372912160015e-15,7.0175438596491135 l -6.077371254627628,3.508771929824563 l 4.94372912160015e-15,7.0175438596491135 l 6.077371254627631,-3.5087719298245563 l 6.077371254627633,3.508771929824555 l -6.077371254627628,3.508771929824563 l -6.077371254627628,3.508771929824563 l -6.077371254627636,-3.50877192982455 l -8.919545891879429e-15,-7.0175438596491135 l -6.077371254627636,-3.50877192982455 l 4.94372912160015e-15,7.0175438596491135 l -6.077371254627628,3.508771929824563 l -8.919545891879429e-15,-7.0175438596491135 l -8.919545891879429e-15,-7.0175438596491135 l 6.077371254627627,-3.508771929824566 l -8.919545891879429e-15,-7.0175438596491135 l -6.077371254627636,-3.50877192982455 l 4.94372912160015e-15,7.0175438596491135 l -6.077371254627628,3.508771929824563 l -8.919545891879429e-15,-7.0175438596491135 l -8.919545891879429e-15,-7.0175438596491135 l 6.077371254627627,-3.508771929824566 l 6.0773712546276375,3.5087719298245474 l 6.077371254627627,-3.508771929824566 l 6.077371254627627,-3.508771929824566 l -6.077371254627636,-3.50877192982455 l -6.077371254627628,3.508771929824563 l -8.919545891879429e-15,-7.0175438596491135 l 6.077371254627627,-3.508771929824566 l -8.919545891879429e-15,-7.0175438596491135 l -6.077371254627636,-3.50877192982455 l 4.94372912160015e-15,7.0175438596491135 l -6.077371254627628,3.508771929824563 l -8.919545891879429e-15,-7.0175438596491135 l -8.919545891879429e-15,-7.0175438596491135 l 6.077371254627627,-3.508771929824566 l -8.919545891879429e-15,-7.0175438596491135 l -6.077371254627636,-3.50877192982455 l -6.077371254627636,-3.50877192982455 l 4.94372912160015e-15,7.0175438596491135 l 6.077371254627633,3.508771929824555 l -6.077371254627628,3.508771929824563 l -6.077371254627636,-3.50877192982455 l -6.077371254627628,3.508771929824563 l 4.94372912160015e-15,7.0175438596491135 l 4.94372912160015e-15,7.0175438596491135 l 6.077371254627631,-3.5087719298245563 l 2.1485031563988625e-15,-7.0175438596491135 l 6.077371254627633,3.508771929824555 l 4.94372912160015e-15,7.0175438596491135 l -6.077371254627628,3.508771929824563 l 4.94372912160015e-15,7.0175438596491135 l 6.077371254627631,-3.5087719298245563 l 6.077371254627633,3.508771929824555 l -6.077371254627628,3.508771929824563 l -6.077371254627628,3.508771929824563 l -6.077371254627636,-3.50877192982455 l -8.919545891879429e-15,-7.0175438596491135 l -6.077371254627636,-3.50877192982455 l 4.94372912160015e-15,7.0175438596491135 l -6.077371254627628,3.508771929824563 l -8.919545891879429e-15,-7.0175438596491135 l -8.919545891879429e-15,-7.0175438596491135 l 6.077371254627627,-3.508771929824566 l -8.919545891879429e-15,-7.0175438596491135 l -6.077371254627636,-3.50877192982455 l 4.94372912160015e-15,7.0175438596491135 l -6.077371254627628,3.508771929824563 l -8.919545891879429e-15,-7.0175438596491135 l -8.919545891879429e-15,-7.0175438596491135 l 6.077371254627627,-3.508771929824566 l 6.0773712546276375,3.5087719298245474 l 6.077371254627627,-3.508771929824566 l 6.077371254627627,-3.508771929824566 l -6.077371254627636,-3.50877192982455 l -6.077371254627628,3.508771929824563 l -8.919545891879429e-15,-7.0175438596491135 l 6.077371254627627,-3.508771929824566 l 6.0773712546276375,3.5087719298245474 l 6.077371254627627,-3.508771929824566 l -6.077371254627636,-3.50877192982455 l -8.919545891879429e-15,-7.0175438596491135 l 6.0773712546276375,3.5087719298245474 l 6.0773712546276375,3.5087719298245474 l 1.2895362662158706e-14,7.0175438596491135 l 6.0773712546276375,3.5087719298245474 l 6.077371254627627,-3.508771929824566 l 6.077371254627627,-3.508771929824566 l -6.077371254627636,-3.50877192982455 l -6.077371254627628,3.508771929824563 l -8.919545891879429e-15,-7.0175438596491135 l 6.077371254627627,-3.508771929824566 l 6.0773712546276375,3.5087719298245474 l 6.077371254627627,-3.508771929824566 l 6.077371254627627,-3.508771929824566 l -6.077371254627636,-3.50877192982455 l -6.077371254627628,3.508771929824563 l -8.919545891879429e-15,-7.0175438596491135 l 6.077371254627627,-3.508771929824566 l -8.919545891879429e-15,-7.0175438596491135 l -6.077371254627636,-3.50877192982455 l -6.077371254627636,-3.50877192982455 l 4.94372912160015e-15,7.0175438596491135 l 6.077371254627633,3.508771929824555 l -6.077371254627628,3.508771929824563 l -6.077371254627636,-3.50877192982455 l -6.077371254627628,3.508771929824563 l 4.94372912160015e-15,7.0175438596491135 l 6.077371254627631,-3.5087719298245563 l 6.077371254627633,3.508771929824555 l -6.077371254627628,3.508771929824563 l -6.077371254627628,3.508771929824563 l -6.077371254627636,-3.50877192982455 l -8.919545891879429e-15,-7.0175438596491135 l -6.077371254627636,-3.50877192982455 l 4.94372912160015e-15,7.0175438596491135 l -6.077371254627628,3.508771929824563 l -8.919545891879429e-15,-7.0175438596491135 l -8.919545891879429e-15,-7.0175438596491135 l 6.077371254627627,-3.508771929824566 l 6.0773712546276375,3.5087719298245474 l 6.077371254627627,-3.508771929824566 l 6.077371254627627,-3.508771929824566 l -6.077371254627636,-3.50877192982455 l -6.077371254627628,3.508771929824563 l -8.919545891879429e-15,-7.0175438596491135 l 6.077371254627627,-3.508771929824566 l -8.919545891879429e-15,-7.0175438596491135 l -6.077371254627636,-3.50877192982455 l 4.94372912160015e-15,7.0175438596491135 l -6.077371254627628,3.508771929824563 l -8.919545891879429e-15,-7.0175438596491135 l -8.919545891879429e-15,-7.0175438596491135 l 6.077371254627627,-3.508771929824566 l -8.919545891879429e-15,-7.0175438596491135 l -6.077371254627636,-3.50877192982455 l -6.077371254627636,-3.50877192982455 l 4.94372912160015e-15,7.0175438596491135 l 6.077371254627633,3.508771929824555 l -6.077371254627628,3.508771929824563 l -6.077371254627636,-3.50877192982455 l -6.077371254627628,3.508771929824563 l 4.94372912160015e-15,7.0175438596491135 l 4.94372912160015e-15,7.0175438596491135 l 6.077371254627631,-3.5087719298245563 l 2.1485031563988625e-15,-7.0175438596491135 l 6.077371254627633,3.508771929824555 l 4.94372912160015e-15,7.0175438596491135 l -6.077371254627628,3.508771929824563 l 4.94372912160015e-15,7.0175438596491135 l 6.077371254627631,-3.5087719298245563 l 6.077371254627633,3.508771929824555 l -6.077371254627628,3.508771929824563 l -6.077371254627628,3.508771929824563 l -6.077371254627636,-3.50877192982455 l -8.919545891879429e-15,-7.0175438596491135 l -6.077371254627636,-3.50877192982455 l 4.94372912160015e-15,7.0175438596491135 l -6.077371254627628,3.508771929824563 l -8.919545891879429e-15,-7.0175438596491135 l -8.919545891879429e-15,-7.0175438596491135 l 6.077371254627627,-3.508771929824566 l -8.919545891879429e-15,-7.0175438596491135 l -6.077371254627636,-3.50877192982455 l 4.94372912160015e-15,7.0175438596491135 l -6.077371254627628,3.508771929824563 l -8.919545891879429e-15,-7.0175438596491135 l -8.919545891879429e-15,-7.0175438596491135 l 6.077371254627627,-3.508771929824566 l 6.0773712546276375,3.5087719298245474 l 6.077371254627627,-3.508771929824566 l 6.077371254627627,-3.508771929824566 l -6.077371254627636,-3.50877192982455 l -6.077371254627628,3.508771929824563 l -8.919545891879429e-15,-7.0175438596491135 l 6.077371254627627,-3.508771929824566 l -8.919545891879429e-15,-7.0175438596491135 l -6.077371254627636,-3.50877192982455 l 4.94372912160015e-15,7.0175438596491135 l -6.077371254627628,3.508771929824563 l -8.919545891879429e-15,-7.0175438596491135 l -8.919545891879429e-15,-7.0175438596491135 l 6.077371254627627,-3.508771929824566 l -8.919545891879429e-15,-7.0175438596491135 l -6.077371254627636,-3.50877192982455 l -6.077371254627636,-3.50877192982455 l 4.94372912160015e-15,7.0175438596491135 l 6.077371254627633,3.508771929824555 l -6.077371254627628,3.508771929824563 l -6.077371254627636,-3.50877192982455 l -8.919545891879429e-15,-7.0175438596491135 l -6.077371254627636,-3.50877192982455 l -6.077371254627636,-3.50877192982455 l 4.94372912160015e-15,7.0175438596491135 l 6.077371254627633,3.508771929824555 l -6.077371254627628,3.508771929824563 l -6.077371254627636,-3.50877192982455 l -6.077371254627628,3.508771929824563 l 4.94372912160015e-15,7.0175438596491135 l 4.94372912160015e-15,7.0175438596491135 l 6.077371254627631,-3.5087719298245563 l 2.1485031563988625e-15,-7.0175438596491135 l 6.077371254627633,3.508771929824555 l 4.94372912160015e-15,7.0175438596491135 l 6.077371254627633,3.508771929824555 l 6.077371254627631,-3.5087719298245563 l -6.0773712546276295,-3.5087719298245608 l 2.1485031563988625e-15,-7.0175438596491135 l 6.077371254627633,3.508771929824555 l 6.077371254627633,3.508771929824555 l 4.94372912160015e-15,7.0175438596491135 l -6.077371254627628,3.508771929824563 l 4.94372912160015e-15,7.0175438596491135 l 6.077371254627631,-3.5087719298245563 l 6.077371254627633,3.508771929824555 l -6.077371254627628,3.508771929824563 l -6.077371254627628,3.508771929824563 l -6.077371254627636,-3.50877192982455 l -8.919545891879429e-15,-7.0175438596491135 l -6.077371254627636,-3.50877192982455 l -6.077371254627636,-3.50877192982455 l 4.94372912160015e-15,7.0175438596491135 l 6.077371254627633,3.508771929824555 l -6.077371254627628,3.508771929824563 l -6.077371254627636,-3.50877192982455 l -8.919545891879429e-15,-7.0175438596491135 l -6.077371254627636,-3.50877192982455 l 4.94372912160015e-15,7.0175438596491135 l -6.077371254627628,3.508771929824563 l -8.919545891879429e-15,-7.0175438596491135 l -8.919545891879429e-15,-7.0175438596491135 l 6.077371254627627,-3.508771929824566 l -8.919545891879429e-15,-7.0175438596491135 l -6.077371254627636,-3.50877192982455 l -6.077371254627636,-3.50877192982455 l 4.94372912160015e-15,7.0175438596491135 l 6.077371254627633,3.508771929824555 l -6.077371254627628,3.508771929824563 l -6.077371254627636,-3.50877192982455 l -8.919545891879429e-15,-7.0175438596491135 l -6.077371254627636,-3.50877192982455 l -6.077371254627636,-3.50877192982455 l 4.94372912160015e-15,7.0175438596491135 l 6.077371254627633,3.508771929824555 l -6.077371254627628,3.508771929824563 l -6.077371254627636,-3.50877192982455 l -6.077371254627628,3.508771929824563 l 4.94372912160015e-15,7.0175438596491135 l 4.94372912160015e-15,7.0175438596491135 l 6.077371254627631,-3.5087719298245563 l 2.1485031563988625e-15,-7.0175438596491135 l 6.077371254627633,3.508771929824555 l 4.94372912160015e-15,7.0175438596491135 l 6.077371254627633,3.508771929824555 l 6.077371254627631,-3.5087719298245563 l -6.0773712546276295,-3.5087719298245608 l 2.1485031563988625e-15,-7.0175438596491135 l 6.077371254627633,3.508771929824555 l 6.077371254627633,3.508771929824555 l 4.94372912160015e-15,7.0175438596491135 l -6.077371254627628,3.508771929824563 l 4.94372912160015e-15,7.0175438596491135 l 6.077371254627631,-3.5087719298245563 l 6.077371254627633,3.508771929824555 l -6.077371254627628,3.508771929824563 l -6.077371254627628,3.508771929824563 l -6.077371254627636,-3.50877192982455 l -8.919545891879429e-15,-7.0175438596491135 l -6.077371254627636,-3.50877192982455 l -6.077371254627636,-3.50877192982455 l 4.94372912160015e-15,7.0175438596491135 l 6.077371254627633,3.508771929824555 l -6.077371254627628,3.508771929824563 l -6.077371254627636,-3.50877192982455 l -6.077371254627628,3.508771929824563 l 4.94372912160015e-15,7.0175438596491135 l 6.077371254627631,-3.5087719298245563 l 6.077371254627633,3.508771929824555 l -6.077371254627628,3.508771929824563 l -6.077371254627628,3.508771929824563 l -6.077371254627636,-3.50877192982455 l -6.077371254627628,3.508771929824563 l 4.94372912160015e-15,7.0175438596491135 l 4.94372912160015e-15,7.0175438596491135 l 6.077371254627631,-3.5087719298245563 l 2.1485031563988625e-15,-7.0175438596491135 l 6.077371254627633,3.508771929824555 l 4.94372912160015e-15,7.0175438596491135 l -6.077371254627628,3.508771929824563 l 4.94372912160015e-15,7.0175438596491135 l 4.94372912160015e-15,7.0175438596491135 l 6.077371254627631,-3.5087719298245563 l 2.1485031563988625e-15,-7.0175438596491135 l 6.077371254627633,3.508771929824555 l 4.94372912160015e-15,7.0175438596491135 l 6.077371254627633,3.508771929824555 l 6.077371254627631,-3.5087719298245563 l 6.077371254627631,-3.5087719298245563 l -6.0773712546276295,-3.5087719298245608 l -6.077371254627635,3.5087719298245506 l 2.1485031563988625e-15,-7.0175438596491135 l 6.077371254627631,-3.5087719298245563 l 2.1485031563988625e-15,-7.0175438596491135 l -6.0773712546276295,-3.5087719298245608 l -3.0079044189584072e-15,7.0175438596491135 l -6.077371254627635,3.5087719298245506 l 2.1485031563988625e-15,-7.0175438596491135 l 2.1485031563988625e-15,-7.0175438596491135 l 6.077371254627631,-3.5087719298245563 l 6.077371254627633,3.508771929824555 l 6.077371254627631,-3.5087719298245563 l -6.0773712546276295,-3.5087719298245608 l 2.1485031563988625e-15,-7.0175438596491135 l 6.077371254627633,3.508771929824555 l 6.077371254627633,3.508771929824555 l 4.94372912160015e-15,7.0175438596491135 l -6.077371254627628,3.508771929824563 l 4.94372912160015e-15,7.0175438596491135 l 4.94372912160015e-15,7.0175438596491135 l 6.077371254627631,-3.5087719298245563 l 2.1485031563988625e-15,-7.0175438596491135 l 6.077371254627633,3.508771929824555 l 4.94372912160015e-15,7.0175438596491135 l 6.077371254627633,3.508771929824555 l 6.077371254627631,-3.5087719298245563 l -6.0773712546276295,-3.5087719298245608 l 2.1485031563988625e-15,-7.0175438596491135 l 6.077371254627633,3.508771929824555 l 6.077371254627633,3.508771929824555 l 4.94372912160015e-15,7.0175438596491135 l 6.077371254627633,3.508771929824555 l 6.077371254627631,-3.5087719298245563 l 6.077371254627631,-3.5087719298245563 l -6.0773712546276295,-3.5087719298245608 l -6.077371254627635,3.5087719298245506 l 2.1485031563988625e-15,-7.0175438596491135 l 6.077371254627631,-3.5087719298245563 l 2.1485031563988625e-15,-7.0175438596491135 l -6.0773712546276295,-3.5087719298245608 l -6.0773712546276295,-3.5087719298245608 l -3.0079044189584072e-15,7.0175438596491135 l 6.077371254627632,3.508771929824556 l -6.077371254627635,3.5087719298245506 l -6.0773712546276295,-3.5087719298245608 l 2.1485031563988625e-15,-7.0175438596491135 l -6.0773712546276295,-3.5087719298245608 l -3.0079044189584072e-15,7.0175438596491135 l -6.077371254627635,3.5087719298245506 l 2.1485031563988625e-15,-7.0175438596491135 l 2.1485031563988625e-15,-7.0175438596491135 l 6.077371254627631,-3.5087719298245563 l 6.077371254627633,3.508771929824555 l 6.077371254627631,-3.5087719298245563 l -6.0773712546276295,-3.5087719298245608 l 2.1485031563988625e-15,-7.0175438596491135 l 6.077371254627633,3.508771929824555 l 6.077371254627633,3.508771929824555 l 4.94372912160015e-15,7.0175438596491135 l 6.077371254627633,3.508771929824555 l 6.077371254627631,-3.5087719298245563 l -6.0773712546276295,-3.5087719298245608 l 2.1485031563988625e-15,-7.0175438596491135 l 6.077371254627633,3.508771929824555 l 6.077371254627633,3.508771929824555 l 4.94372912160015e-15,7.0175438596491135 l -6.077371254627628,3.508771929824563 l 4.94372912160015e-15,7.0175438596491135 l 4.94372912160015e-15,7.0175438596491135 l 6.077371254627631,-3.5087719298245563 l 2.1485031563988625e-15,-7.0175438596491135 l 6.077371254627633,3.508771929824555 l 4.94372912160015e-15,7.0175438596491135 l -6.077371254627628,3.508771929824563 l 4.94372912160015e-15,7.0175438596491135 l 6.077371254627631,-3.5087719298245563 l 6.077371254627633,3.508771929824555 l -6.077371254627628,3.508771929824563 l -6.077371254627628,3.508771929824563 l -6.077371254627636,-3.50877192982455 l -6.077371254627628,3.508771929824563 l 4.94372912160015e-15,7.0175438596491135 l 4.94372912160015e-15,7.0175438596491135 l 6.077371254627631,-3.5087719298245563 l 2.1485031563988625e-15,-7.0175438596491135 l 6.077371254627633,3.508771929824555 l 4.94372912160015e-15,7.0175438596491135 l 6.077371254627633,3.508771929824555 l 6.077371254627631,-3.5087719298245563 l 6.077371254627631,-3.5087719298245563 l -6.0773712546276295,-3.5087719298245608 l -6.077371254627635,3.5087719298245506 l 2.1485031563988625e-15,-7.0175438596491135 l 6.077371254627631,-3.5087719298245563 l 6.077371254627633,3.508771929824555 l 6.077371254627631,-3.5087719298245563 l -6.0773712546276295,-3.5087719298245608 l 2.1485031563988625e-15,-7.0175438596491135 l 6.077371254627633,3.508771929824555 l 6.077371254627633,3.508771929824555 l 4.94372912160015e-15,7.0175438596491135 l -6.077371254627628,3.508771929824563 l 4.94372912160015e-15,7.0175438596491135 l 6.077371254627631,-3.5087719298245563 l 6.077371254627633,3.508771929824555 l -6.077371254627628,3.508771929824563 l -6.077371254627628,3.508771929824563 l -6.077371254627636,-3.50877192982455 l -6.077371254627628,3.508771929824563 l 4.94372912160015e-15,7.0175438596491135 l 6.077371254627631,-3.5087719298245563 l 6.077371254627633,3.508771929824555 l -6.077371254627628,3.508771929824563 l -6.077371254627628,3.508771929824563 l -6.077371254627636,-3.50877192982455 l -8.919545891879429e-15,-7.0175438596491135 l -6.077371254627636,-3.50877192982455 l -6.077371254627636,-3.50877192982455 l 4.94372912160015e-15,7.0175438596491135 l 6.077371254627633,3.508771929824555 l -6.077371254627628,3.508771929824563 l -6.077371254627636,-3.50877192982455 l -8.919545891879429e-15,-7.0175438596491135 l -6.077371254627636,-3.50877192982455 l 4.94372912160015e-15,7.0175438596491135 l -6.077371254627628,3.508771929824563 l -8.919545891879429e-15,-7.0175438596491135 l -8.919545891879429e-15,-7.0175438596491135 l 6.077371254627627,-3.508771929824566 l -8.919545891879429e-15,-7.0175438596491135 l -6.077371254627636,-3.50877192982455 l -6.077371254627636,-3.50877192982455 l 4.94372912160015e-15,7.0175438596491135 l 6.077371254627633,3.508771929824555 l -6.077371254627628,3.508771929824563 l -6.077371254627636,-3.50877192982455 l -8.919545891879429e-15,-7.0175438596491135 l -6.077371254627636,-3.50877192982455 l -6.077371254627636,-3.50877192982455 l 4.94372912160015e-15,7.0175438596491135 l 6.077371254627633,3.508771929824555 l -6.077371254627628,3.508771929824563 l -6.077371254627636,-3.50877192982455 l -6.077371254627628,3.508771929824563 l 4.94372912160015e-15,7.0175438596491135 l 4.94372912160015e-15,7.0175438596491135 l 6.077371254627631,-3.5087719298245563 l 2.1485031563988625e-15,-7.0175438596491135 l 6.077371254627633,3.508771929824555 l 4.94372912160015e-15,7.0175438596491135 l 6.077371254627633,3.508771929824555 l 6.077371254627631,-3.5087719298245563 l -6.0773712546276295,-3.5087719298245608 l 2.1485031563988625e-15,-7.0175438596491135 l 6.077371254627633,3.508771929824555 l 6.077371254627633,3.508771929824555 l 4.94372912160015e-15,7.0175438596491135 l -6.077371254627628,3.508771929824563 l 4.94372912160015e-15,7.0175438596491135 l 6.077371254627631,-3.5087719298245563 l 6.077371254627633,3.508771929824555 l -6.077371254627628,3.508771929824563 l -6.077371254627628,3.508771929824563 l -6.077371254627636,-3.50877192982455 l -8.919545891879429e-15,-7.0175438596491135 l -6.077371254627636,-3.50877192982455 l -6.077371254627636,-3.50877192982455 l 4.94372912160015e-15,7.0175438596491135 l 6.077371254627633,3.508771929824555 l -6.077371254627628,3.508771929824563 l -6.077371254627636,-3.50877192982455 l -6.077371254627628,3.508771929824563 l 4.94372912160015e-15,7.0175438596491135 l 6.077371254627631,-3.5087719298245563 l 6.077371254627633,3.508771929824555 l -6.077371254627628,3.508771929824563 l -6.077371254627628,3.508771929824563 l -6.077371254627636,-3.50877192982455 l -6.077371254627628,3.508771929824563 l 4.94372912160015e-15,7.0175438596491135 l 4.94372912160015e-15,7.0175438596491135 l 6.077371254627631,-3.5087719298245563 l 2.1485031563988625e-15,-7.0175438596491135 l 6.077371254627633,3.508771929824555 l 4.94372912160015e-15,7.0175438596491135 l 6.077371254627633,3.508771929824555 l 6.077371254627631,-3.5087719298245563 l 6.077371254627631,-3.5087719298245563 l -6.0773712546276295,-3.5087719298245608 l -6.077371254627635,3.5087719298245506 l 2.1485031563988625e-15,-7.0175438596491135 l 6.077371254627631,-3.5087719298245563 l 6.077371254627633,3.508771929824555 l 6.077371254627631,-3.5087719298245563 l -6.0773712546276295,-3.5087719298245608 l 2.1485031563988625e-15,-7.0175438596491135 l 6.077371254627633,3.508771929824555 l 6.077371254627633,3.508771929824555 l 4.94372912160015e-15,7.0175438596491135 l -6.077371254627628,3.508771929824563 l 4.94372912160015e-15,7.0175438596491135 l 6.077371254627631,-3.5087719298245563 l 6.077371254627633,3.508771929824555 l -6.077371254627628,3.508771929824563 l -6.077371254627628,3.508771929824563 l -6.077371254627636,-3.50877192982455 l -6.077371254627628,3.508771929824563 l 4.94372912160015e-15,7.0175438596491135 l 6.077371254627631,-3.5087719298245563 l 6.077371254627633,3.508771929824555 l -6.077371254627628,3.508771929824563 l -6.077371254627628,3.508771929824563 l -6.077371254627636,-3.50877192982455 l -8.919545891879429e-15,-7.0175438596491135 l -6.077371254627636,-3.50877192982455 l -6.077371254627636,-3.50877192982455 l 4.94372912160015e-15,7.0175438596491135 l 6.077371254627633,3.508771929824555 l -6.077371254627628,3.508771929824563 l -6.077371254627636,-3.50877192982455 l -6.077371254627628,3.508771929824563 l 4.94372912160015e-15,7.0175438596491135 l 6.077371254627631,-3.5087719298245563 l 6.077371254627633,3.508771929824555 l -6.077371254627628,3.508771929824563 l -6.077371254627628,3.508771929824563 l -6.077371254627636,-3.50877192982455 l -6.077371254627628,3.508771929824563 l 4.94372912160015e-15,7.0175438596491135 l 4.94372912160015e-15,7.0175438596491135 l 6.077371254627631,-3.5087719298245563 l 2.1485031563988625e-15,-7.0175438596491135 l 6.077371254627633,3.508771929824555 l 4.94372912160015e-15,7.0175438596491135 l -6.077371254627628,3.508771929824563 l 4.94372912160015e-15,7.0175438596491135 l 4.94372912160015e-15,7.0175438596491135 l 6.077371254627631,-3.5087719298245563 l 2.1485031563988625e-15,-7.0175438596491135 l 6.077371254627633,3.508771929824555 l 4.94372912160015e-15,7.0175438596491135 l 6.077371254627633,3.508771929824555 l 6.077371254627631,-3.5087719298245563 l 6.077371254627631,-3.5087719298245563 l -6.0773712546276295,-3.5087719298245608 l -6.077371254627635,3.5087719298245506 l 2.1485031563988625e-15,-7.0175438596491135 l 6.077371254627631,-3.5087719298245563 l 2.1485031563988625e-15,-7.0175438596491135 l -6.0773712546276295,-3.5087719298245608 l -3.0079044189584072e-15,7.0175438596491135 l -6.077371254627635,3.5087719298245506 l 2.1485031563988625e-15,-7.0175438596491135 l 2.1485031563988625e-15,-7.0175438596491135 l 6.077371254627631,-3.5087719298245563 l 6.077371254627633,3.508771929824555 l 6.077371254627631,-3.5087719298245563 l -6.0773712546276295,-3.5087719298245608 l 2.1485031563988625e-15,-7.0175438596491135 l 6.077371254627633,3.508771929824555 l 6.077371254627633,3.508771929824555 l 4.94372912160015e-15,7.0175438596491135 l -6.077371254627628,3.508771929824563 l 4.94372912160015e-15,7.0175438596491135 l 4.94372912160015e-15,7.0175438596491135 l 6.077371254627631,-3.5087719298245563 l 2.1485031563988625e-15,-7.0175438596491135 l 6.077371254627633,3.508771929824555 l 4.94372912160015e-15,7.0175438596491135 l -6.077371254627628,3.508771929824563 l 4.94372912160015e-15,7.0175438596491135 l 6.077371254627631,-3.5087719298245563 l 6.077371254627633,3.508771929824555 l -6.077371254627628,3.508771929824563 l -6.077371254627628,3.508771929824563 l -6.077371254627636,-3.50877192982455 l -6.077371254627628,3.508771929824563 l 4.94372912160015e-15,7.0175438596491135 l 4.94372912160015e-15,7.0175438596491135 l 6.077371254627631,-3.5087719298245563 l 2.1485031563988625e-15,-7.0175438596491135 l 6.077371254627633,3.508771929824555 l 4.94372912160015e-15,7.0175438596491135 l -6.077371254627628,3.508771929824563 l 4.94372912160015e-15,7.0175438596491135 l 4.94372912160015e-15,7.0175438596491135 l 6.077371254627631,-3.5087719298245563 l 2.1485031563988625e-15,-7.0175438596491135 l 6.077371254627633,3.508771929824555 l 4.94372912160015e-15,7.0175438596491135 l 6.077371254627633,3.508771929824555 l 6.077371254627631,-3.5087719298245563 l 6.077371254627631,-3.5087719298245563 l -6.0773712546276295,-3.5087719298245608 l -6.077371254627635,3.5087719298245506 l 2.1485031563988625e-15,-7.0175438596491135 l 6.077371254627631,-3.5087719298245563 l 2.1485031563988625e-15,-7.0175438596491135 l -6.0773712546276295,-3.5087719298245608 l -3.0079044189584072e-15,7.0175438596491135 l -6.077371254627635,3.5087719298245506 l 2.1485031563988625e-15,-7.0175438596491135 l 2.1485031563988625e-15,-7.0175438596491135 l 6.077371254627631,-3.5087719298245563 l 6.077371254627633,3.508771929824555 l 6.077371254627631,-3.5087719298245563 l -6.0773712546276295,-3.5087719298245608 l 2.1485031563988625e-15,-7.0175438596491135 l 6.077371254627633,3.508771929824555 l 6.077371254627633,3.508771929824555 l 4.94372912160015e-15,7.0175438596491135 l -6.077371254627628,3.508771929824563 l 4.94372912160015e-15,7.0175438596491135 l 4.94372912160015e-15,7.0175438596491135 l 6.077371254627631,-3.5087719298245563 l 2.1485031563988625e-15,-7.0175438596491135 l 6.077371254627633,3.508771929824555 l 4.94372912160015e-15,7.0175438596491135 l 6.077371254627633,3.508771929824555 l 6.077371254627631,-3.5087719298245563 l -6.0773712546276295,-3.5087719298245608 l 2.1485031563988625e-15,-7.0175438596491135 l 6.077371254627633,3.508771929824555 l 6.077371254627633,3.508771929824555 l 4.94372912160015e-15,7.0175438596491135 l 6.077371254627633,3.508771929824555 l 6.077371254627631,-3.5087719298245563 l 6.077371254627631,-3.5087719298245563 l -6.0773712546276295,-3.5087719298245608 l -6.077371254627635,3.5087719298245506 l 2.1485031563988625e-15,-7.0175438596491135 l 6.077371254627631,-3.5087719298245563 l 6.077371254627633,3.508771929824555 l 6.077371254627631,-3.5087719298245563 l 6.077371254627631,-3.5087719298245563 l -6.0773712546276295,-3.5087719298245608 l -6.077371254627635,3.5087719298245506 l 2.1485031563988625e-15,-7.0175438596491135 l 6.077371254627631,-3.5087719298245563 l 2.1485031563988625e-15,-7.0175438596491135 l -6.0773712546276295,-3.5087719298245608 l -6.0773712546276295,-3.5087719298245608 l -3.0079044189584072e-15,7.0175438596491135 l 6.077371254627632,3.508771929824556 l -6.077371254627635,3.5087719298245506 l -6.0773712546276295,-3.5087719298245608 l -6.077371254627635,3.5087719298245506 l -3.0079044189584072e-15,7.0175438596491135 l 6.077371254627629,-3.5087719298245617 l 6.077371254627632,3.508771929824556 l -6.077371254627635,3.5087719298245506 l -6.077371254627635,3.5087719298245506 l -6.0773712546276295,-3.5087719298245608 l 2.1485031563988625e-15,-7.0175438596491135 l -6.0773712546276295,-3.5087719298245608 l -3.0079044189584072e-15,7.0175438596491135 l -6.077371254627635,3.5087719298245506 l 2.1485031563988625e-15,-7.0175438596491135 l 2.1485031563988625e-15,-7.0175438596491135 l 6.077371254627631,-3.5087719298245563 l 6.077371254627633,3.508771929824555 l 6.077371254627631,-3.5087719298245563 l 6.077371254627631,-3.5087719298245563 l -6.0773712546276295,-3.5087719298245608 l -6.077371254627635,3.5087719298245506 l 2.1485031563988625e-15,-7.0175438596491135 l 6.077371254627631,-3.5087719298245563 l 2.1485031563988625e-15,-7.0175438596491135 l -6.0773712546276295,-3.5087719298245608 l -3.0079044189584072e-15,7.0175438596491135 l -6.077371254627635,3.5087719298245506 l 2.1485031563988625e-15,-7.0175438596491135 l 2.1485031563988625e-15,-7.0175438596491135 l 6.077371254627631,-3.5087719298245563 l 2.1485031563988625e-15,-7.0175438596491135 l -6.0773712546276295,-3.5087719298245608 l -6.0773712546276295,-3.5087719298245608 l -3.0079044189584072e-15,7.0175438596491135 l 6.077371254627632,3.508771929824556 l -6.077371254627635,3.5087719298245506 l -6.0773712546276295,-3.5087719298245608 l -6.077371254627635,3.5087719298245506 l -3.0079044189584072e-15,7.0175438596491135 l -3.0079044189584072e-15,7.0175438596491135 l 6.077371254627629,-3.5087719298245617 l -8.598356349360983e-15,-7.0175438596491135 l 6.077371254627632,3.508771929824556 l -3.0079044189584072e-15,7.0175438596491135 l -6.077371254627635,3.5087719298245506 l -3.0079044189584072e-15,7.0175438596491135 l 6.077371254627629,-3.5087719298245617 l 6.077371254627632,3.508771929824556 l -6.077371254627635,3.5087719298245506 l -6.077371254627635,3.5087719298245506 l -6.0773712546276295,-3.5087719298245608 l 2.1485031563988625e-15,-7.0175438596491135 l -6.0773712546276295,-3.5087719298245608 l -3.0079044189584072e-15,7.0175438596491135 l -6.077371254627635,3.5087719298245506 l 2.1485031563988625e-15,-7.0175438596491135 l 2.1485031563988625e-15,-7.0175438596491135 l 6.077371254627631,-3.5087719298245563 l 2.1485031563988625e-15,-7.0175438596491135 l -6.0773712546276295,-3.5087719298245608 l -3.0079044189584072e-15,7.0175438596491135 l -6.077371254627635,3.5087719298245506 l 2.1485031563988625e-15,-7.0175438596491135 l 2.1485031563988625e-15,-7.0175438596491135 l 6.077371254627631,-3.5087719298245563 l 6.077371254627633,3.508771929824555 l 6.077371254627631,-3.5087719298245563 l 6.077371254627631,-3.5087719298245563 l -6.0773712546276295,-3.5087719298245608 l -6.077371254627635,3.5087719298245506 l 2.1485031563988625e-15,-7.0175438596491135 l 6.077371254627631,-3.5087719298245563 l 6.077371254627633,3.508771929824555 l 6.077371254627631,-3.5087719298245563 l -6.0773712546276295,-3.5087719298245608 l 2.1485031563988625e-15,-7.0175438596491135 l 6.077371254627633,3.508771929824555 l 6.077371254627633,3.508771929824555 l 4.94372912160015e-15,7.0175438596491135 l 6.077371254627633,3.508771929824555 l 6.077371254627631,-3.5087719298245563 l 6.077371254627631,-3.5087719298245563 l -6.0773712546276295,-3.5087719298245608 l -6.077371254627635,3.5087719298245506 l 2.1485031563988625e-15,-7.0175438596491135 l 6.077371254627631,-3.5087719298245563 l 2.1485031563988625e-15,-7.0175438596491135 l -6.0773712546276295,-3.5087719298245608 l -6.0773712546276295,-3.5087719298245608 l -3.0079044189584072e-15,7.0175438596491135 l 6.077371254627632,3.508771929824556 l -6.077371254627635,3.5087719298245506 l -6.0773712546276295,-3.5087719298245608 l 2.1485031563988625e-15,-7.0175438596491135 l -6.0773712546276295,-3.5087719298245608 l -3.0079044189584072e-15,7.0175438596491135 l -6.077371254627635,3.5087719298245506 l 2.1485031563988625e-15,-7.0175438596491135 l 2.1485031563988625e-15,-7.0175438596491135 l 6.077371254627631,-3.5087719298245563 l 6.077371254627633,3.508771929824555 l 6.077371254627631,-3.5087719298245563 l -6.0773712546276295,-3.5087719298245608 l 2.1485031563988625e-15,-7.0175438596491135 l 6.077371254627633,3.508771929824555 l 6.077371254627633,3.508771929824555 l 4.94372912160015e-15,7.0175438596491135 l 6.077371254627633,3.508771929824555 l 6.077371254627631,-3.5087719298245563 l -6.0773712546276295,-3.5087719298245608 l 2.1485031563988625e-15,-7.0175438596491135 l 6.077371254627633,3.508771929824555 l 6.077371254627633,3.508771929824555 l 4.94372912160015e-15,7.0175438596491135 l -6.077371254627628,3.508771929824563 l 4.94372912160015e-15,7.0175438596491135 l 4.94372912160015e-15,7.0175438596491135 l 6.077371254627631,-3.5087719298245563 l 2.1485031563988625e-15,-7.0175438596491135 l 6.077371254627633,3.508771929824555 l 4.94372912160015e-15,7.0175438596491135 l -6.077371254627628,3.508771929824563 l 4.94372912160015e-15,7.0175438596491135 l 6.077371254627631,-3.5087719298245563 l 6.077371254627633,3.508771929824555 l -6.077371254627628,3.508771929824563 l -6.077371254627628,3.508771929824563 l -6.077371254627636,-3.50877192982455 l -6.077371254627628,3.508771929824563 l 4.94372912160015e-15,7.0175438596491135 l 4.94372912160015e-15,7.0175438596491135 l 6.077371254627631,-3.5087719298245563 l 2.1485031563988625e-15,-7.0175438596491135 l 6.077371254627633,3.508771929824555 l 4.94372912160015e-15,7.0175438596491135 l -6.077371254627628,3.508771929824563 l 4.94372912160015e-15,7.0175438596491135 l 4.94372912160015e-15,7.0175438596491135 l 6.077371254627631,-3.5087719298245563 l 2.1485031563988625e-15,-7.0175438596491135 l 6.077371254627633,3.508771929824555 l 4.94372912160015e-15,7.0175438596491135 l 6.077371254627633,3.508771929824555 l 6.077371254627631,-3.5087719298245563 l 6.077371254627631,-3.5087719298245563 l -6.0773712546276295,-3.5087719298245608 l -6.077371254627635,3.5087719298245506 l 2.1485031563988625e-15,-7.0175438596491135 l 6.077371254627631,-3.5087719298245563 l 2.1485031563988625e-15,-7.0175438596491135 l -6.0773712546276295,-3.5087719298245608 l -3.0079044189584072e-15,7.0175438596491135 l -6.077371254627635,3.5087719298245506 l 2.1485031563988625e-15,-7.0175438596491135 l 2.1485031563988625e-15,-7.0175438596491135 l 6.077371254627631,-3.5087719298245563 l 6.077371254627633,3.508771929824555 l 6.077371254627631,-3.5087719298245563 l -6.0773712546276295,-3.5087719298245608 l 2.1485031563988625e-15,-7.0175438596491135 l 6.077371254627633,3.508771929824555 l 6.077371254627633,3.508771929824555 l 4.94372912160015e-15,7.0175438596491135 l -6.077371254627628,3.508771929824563 l 4.94372912160015e-15,7.0175438596491135 l 4.94372912160015e-15,7.0175438596491135 l 6.077371254627631,-3.5087719298245563 l 2.1485031563988625e-15,-7.0175438596491135 l 6.077371254627633,3.508771929824555 l 4.94372912160015e-15,7.0175438596491135 l -6.077371254627628,3.508771929824563 l 4.94372912160015e-15,7.0175438596491135 l 6.077371254627631,-3.5087719298245563 l 6.077371254627633,3.508771929824555 l -6.077371254627628,3.508771929824563 l -6.077371254627628,3.508771929824563 l -6.077371254627636,-3.50877192982455 l -6.077371254627628,3.508771929824563 l 4.94372912160015e-15,7.0175438596491135 l 4.94372912160015e-15,7.0175438596491135 l 6.077371254627631,-3.5087719298245563 l 2.1485031563988625e-15,-7.0175438596491135 l 6.077371254627633,3.508771929824555 l 4.94372912160015e-15,7.0175438596491135 l 6.077371254627633,3.508771929824555 l 6.077371254627631,-3.5087719298245563 l 6.077371254627631,-3.5087719298245563 l -6.0773712546276295,-3.5087719298245608 l -6.077371254627635,3.5087719298245506 l 2.1485031563988625e-15,-7.0175438596491135 l 6.077371254627631,-3.5087719298245563 l 6.077371254627633,3.508771929824555 l 6.077371254627631,-3.5087719298245563 l -6.0773712546276295,-3.5087719298245608 l 2.1485031563988625e-15,-7.0175438596491135 l 6.077371254627633,3.508771929824555 l 6.077371254627633,3.508771929824555 l 4.94372912160015e-15,7.0175438596491135 l -6.077371254627628,3.508771929824563 l 4.94372912160015e-15,7.0175438596491135 l 6.077371254627631,-3.5087719298245563 l 6.077371254627633,3.508771929824555 l -6.077371254627628,3.508771929824563 l -6.077371254627628,3.508771929824563 l -6.077371254627636,-3.50877192982455 l -6.077371254627628,3.508771929824563 l 4.94372912160015e-15,7.0175438596491135 l 6.077371254627631,-3.5087719298245563 l 6.077371254627633,3.508771929824555 l -6.077371254627628,3.508771929824563 l -6.077371254627628,3.508771929824563 l -6.077371254627636,-3.50877192982455 l -8.919545891879429e-15,-7.0175438596491135 l -6.077371254627636,-3.50877192982455 l -6.077371254627636,-3.50877192982455 l 4.94372912160015e-15,7.0175438596491135 l 6.077371254627633,3.508771929824555 l -6.077371254627628,3.508771929824563 l -6.077371254627636,-3.50877192982455 l -6.077371254627628,3.508771929824563 l 4.94372912160015e-15,7.0175438596491135 l 6.077371254627631,-3.5087719298245563 l 6.077371254627633,3.508771929824555 l -6.077371254627628,3.508771929824563 l -6.077371254627628,3.508771929824563 l -6.077371254627636,-3.50877192982455 l -6.077371254627628,3.508771929824563 l 4.94372912160015e-15,7.0175438596491135 l 4.94372912160015e-15,7.0175438596491135 l 6.077371254627631,-3.5087719298245563 l 2.1485031563988625e-15,-7.0175438596491135 l 6.077371254627633,3.508771929824555 l 4.94372912160015e-15,7.0175438596491135 l -6.077371254627628,3.508771929824563 l 4.94372912160015e-15,7.0175438596491135 l 4.94372912160015e-15,7.0175438596491135 l 6.077371254627631,-3.5087719298245563 l 2.1485031563988625e-15,-7.0175438596491135 l 6.077371254627633,3.508771929824555 l 4.94372912160015e-15,7.0175438596491135 l 6.077371254627633,3.508771929824555 l 6.077371254627631,-3.5087719298245563 l 6.077371254627631,-3.5087719298245563 l -6.0773712546276295,-3.5087719298245608 l -6.077371254627635,3.5087719298245506 l 2.1485031563988625e-15,-7.0175438596491135 l 6.077371254627631,-3.5087719298245563 l 2.1485031563988625e-15,-7.0175438596491135 l -6.0773712546276295,-3.5087719298245608 l -3.0079044189584072e-15,7.0175438596491135 l -6.077371254627635,3.5087719298245506 l 2.1485031563988625e-15,-7.0175438596491135 l 2.1485031563988625e-15,-7.0175438596491135 l 6.077371254627631,-3.5087719298245563 l 6.077371254627633,3.508771929824555 l 6.077371254627631,-3.5087719298245563 l -6.0773712546276295,-3.5087719298245608 l 2.1485031563988625e-15,-7.0175438596491135 l 6.077371254627633,3.508771929824555 l 6.077371254627633,3.508771929824555 l 4.94372912160015e-15,7.0175438596491135 l -6.077371254627628,3.508771929824563 l 4.94372912160015e-15,7.0175438596491135 l 4.94372912160015e-15,7.0175438596491135 l 6.077371254627631,-3.5087719298245563 l 2.1485031563988625e-15,-7.0175438596491135 l 6.077371254627633,3.508771929824555 l 4.94372912160015e-15,7.0175438596491135 l 6.077371254627633,3.508771929824555 l 6.077371254627631,-3.5087719298245563 l -6.0773712546276295,-3.5087719298245608 l 2.1485031563988625e-15,-7.0175438596491135 l 6.077371254627633,3.508771929824555 l 6.077371254627633,3.508771929824555 l 4.94372912160015e-15,7.0175438596491135 l 6.077371254627633,3.508771929824555 l 6.077371254627631,-3.5087719298245563 l 6.077371254627631,-3.5087719298245563 l -6.0773712546276295,-3.5087719298245608 l -6.077371254627635,3.5087719298245506 l 2.1485031563988625e-15,-7.0175438596491135 l 6.077371254627631,-3.5087719298245563 l 6.077371254627633,3.508771929824555 l 6.077371254627631,-3.5087719298245563 l 6.077371254627631,-3.5087719298245563 l -6.0773712546276295,-3.5087719298245608 l -6.077371254627635,3.5087719298245506 l 2.1485031563988625e-15,-7.0175438596491135 l 6.077371254627631,-3.5087719298245563 l 2.1485031563988625e-15,-7.0175438596491135 l -6.0773712546276295,-3.5087719298245608 l -6.0773712546276295,-3.5087719298245608 l -3.0079044189584072e-15,7.0175438596491135 l 6.077371254627632,3.508771929824556 l -6.077371254627635,3.5087719298245506 l -6.0773712546276295,-3.5087719298245608 l -6.077371254627635,3.5087719298245506 l -3.0079044189584072e-15,7.0175438596491135 l 6.077371254627629,-3.5087719298245617 l 6.077371254627632,3.508771929824556 l -6.077371254627635,3.5087719298245506 l -6.077371254627635,3.5087719298245506 l -6.0773712546276295,-3.5087719298245608 l 2.1485031563988625e-15,-7.0175438596491135 l -6.0773712546276295,-3.5087719298245608 l -3.0079044189584072e-15,7.0175438596491135 l -6.077371254627635,3.5087719298245506 l 2.1485031563988625e-15,-7.0175438596491135 l 2.1485031563988625e-15,-7.0175438596491135 l 6.077371254627631,-3.5087719298245563 l 6.077371254627633,3.508771929824555 l 6.077371254627631,-3.5087719298245563 l 6.077371254627631,-3.5087719298245563 l -6.0773712546276295,-3.5087719298245608 l -6.077371254627635,3.5087719298245506 l 2.1485031563988625e-15,-7.0175438596491135 l 6.077371254627631,-3.5087719298245563 l 6.077371254627633,3.508771929824555 l 6.077371254627631,-3.5087719298245563 l -6.0773712546276295,-3.5087719298245608 l 2.1485031563988625e-15,-7.0175438596491135 l 6.077371254627633,3.508771929824555 l 6.077371254627633,3.508771929824555 l 4.94372912160015e-15,7.0175438596491135 l 6.077371254627633,3.508771929824555 l 6.077371254627631,-3.5087719298245563 l 6.077371254627631,-3.5087719298245563 l -6.0773712546276295,-3.5087719298245608 l -6.077371254627635,3.5087719298245506 l 2.1485031563988625e-15,-7.0175438596491135 l 6.077371254627631,-3.5087719298245563 l 2.1485031563988625e-15,-7.0175438596491135 l -6.0773712546276295,-3.5087719298245608 l -6.0773712546276295,-3.5087719298245608 l -3.0079044189584072e-15,7.0175438596491135 l 6.077371254627632,3.508771929824556 l -6.077371254627635,3.5087719298245506 l -6.0773712546276295,-3.5087719298245608 l 2.1485031563988625e-15,-7.0175438596491135 l -6.0773712546276295,-3.5087719298245608 l -3.0079044189584072e-15,7.0175438596491135 l -6.077371254627635,3.5087719298245506 l 2.1485031563988625e-15,-7.0175438596491135 l 2.1485031563988625e-15,-7.0175438596491135 l 6.077371254627631,-3.5087719298245563 l 6.077371254627633,3.508771929824555 l 6.077371254627631,-3.5087719298245563 l -6.0773712546276295,-3.5087719298245608 l 2.1485031563988625e-15,-7.0175438596491135 l 6.077371254627633,3.508771929824555 l 6.077371254627633,3.508771929824555 l 4.94372912160015e-15,7.0175438596491135 l 6.077371254627633,3.508771929824555 l 6.077371254627631,-3.5087719298245563 l -6.0773712546276295,-3.5087719298245608 l 2.1485031563988625e-15,-7.0175438596491135 l 6.077371254627633,3.508771929824555 l 6.077371254627633,3.508771929824555 l 4.94372912160015e-15,7.0175438596491135 l -6.077371254627628,3.508771929824563 l 4.94372912160015e-15,7.0175438596491135 l 4.94372912160015e-15,7.0175438596491135 l 6.077371254627631,-3.5087719298245563 l 2.1485031563988625e-15,-7.0175438596491135 l 6.077371254627633,3.508771929824555 l 4.94372912160015e-15,7.0175438596491135 l -6.077371254627628,3.508771929824563 l 4.94372912160015e-15,7.0175438596491135 l 6.077371254627631,-3.5087719298245563 l 6.077371254627633,3.508771929824555 l -6.077371254627628,3.508771929824563 l -6.077371254627628,3.508771929824563 l -6.077371254627636,-3.50877192982455 l -6.077371254627628,3.508771929824563 l 4.94372912160015e-15,7.0175438596491135 l 4.94372912160015e-15,7.0175438596491135 l 6.077371254627631,-3.5087719298245563 l 2.1485031563988625e-15,-7.0175438596491135 l 6.077371254627633,3.508771929824555 l 4.94372912160015e-15,7.0175438596491135 l 6.077371254627633,3.508771929824555 l 6.077371254627631,-3.5087719298245563 l 6.077371254627631,-3.5087719298245563 l -6.0773712546276295,-3.5087719298245608 l -6.077371254627635,3.5087719298245506 l 2.1485031563988625e-15,-7.0175438596491135 l 6.077371254627631,-3.5087719298245563 l 6.077371254627633,3.508771929824555 l 6.077371254627631,-3.5087719298245563 l -6.0773712546276295,-3.5087719298245608 l 2.1485031563988625e-15,-7.0175438596491135 l 6.077371254627633,3.508771929824555 l 6.077371254627633,3.508771929824555 l 4.94372912160015e-15,7.0175438596491135 l -6.077371254627628,3.508771929824563 l 4.94372912160015e-15,7.0175438596491135 l 6.077371254627631,-3.5087719298245563 l 6.077371254627633,3.508771929824555 l -6.077371254627628,3.508771929824563 l -6.077371254627628,3.508771929824563 l -6.077371254627636,-3.50877192982455 l -6.077371254627628,3.508771929824563 l 4.94372912160015e-15,7.0175438596491135 l 6.077371254627631,-3.5087719298245563 l 6.077371254627633,3.508771929824555 l -6.077371254627628,3.508771929824563 l -6.077371254627628,3.508771929824563 l -6.077371254627636,-3.50877192982455 l -8.919545891879429e-15,-7.0175438596491135 l -6.077371254627636,-3.50877192982455 l -6.077371254627636,-3.50877192982455 l 4.94372912160015e-15,7.0175438596491135 l 6.077371254627633,3.508771929824555 l -6.077371254627628,3.508771929824563 l -6.077371254627636,-3.50877192982455 l -6.077371254627628,3.508771929824563 l 4.94372912160015e-15,7.0175438596491135 l 6.077371254627631,-3.5087719298245563 l 6.077371254627633,3.508771929824555 l -6.077371254627628,3.508771929824563 l -6.077371254627628,3.508771929824563 l -6.077371254627636,-3.50877192982455 l -6.077371254627628,3.508771929824563 l 4.94372912160015e-15,7.0175438596491135 l 4.94372912160015e-15,7.0175438596491135 l 6.077371254627631,-3.5087719298245563 l 2.1485031563988625e-15,-7.0175438596491135 l 6.077371254627633,3.508771929824555 l 4.94372912160015e-15,7.0175438596491135 l 6.077371254627633,3.508771929824555 l 6.077371254627631,-3.5087719298245563 l 6.077371254627631,-3.5087719298245563 l -6.0773712546276295,-3.5087719298245608 l -6.077371254627635,3.5087719298245506 l 2.1485031563988625e-15,-7.0175438596491135 l 6.077371254627631,-3.5087719298245563 l 6.077371254627633,3.508771929824555 l 6.077371254627631,-3.5087719298245563 l -6.0773712546276295,-3.5087719298245608 l 2.1485031563988625e-15,-7.0175438596491135 l 6.077371254627633,3.508771929824555 l 6.077371254627633,3.508771929824555 l 4.94372912160015e-15,7.0175438596491135 l -6.077371254627628,3.508771929824563 l 4.94372912160015e-15,7.0175438596491135 l 6.077371254627631,-3.5087719298245563 l 6.077371254627633,3.508771929824555 l -6.077371254627628,3.508771929824563 l -6.077371254627628,3.508771929824563 l -6.077371254627636,-3.50877192982455 l -6.077371254627628,3.508771929824563 l 4.94372912160015e-15,7.0175438596491135 l 6.077371254627631,-3.5087719298245563 l 6.077371254627633,3.508771929824555 l -6.077371254627628,3.508771929824563 l -6.077371254627628,3.508771929824563 l -6.077371254627636,-3.50877192982455 l -8.919545891879429e-15,-7.0175438596491135 l -6.077371254627636,-3.50877192982455 l -6.077371254627636,-3.50877192982455 l 4.94372912160015e-15,7.0175438596491135 l 6.077371254627633,3.508771929824555 l -6.077371254627628,3.508771929824563 l -6.077371254627636,-3.50877192982455 l -8.919545891879429e-15,-7.0175438596491135 l -6.077371254627636,-3.50877192982455 l 4.94372912160015e-15,7.0175438596491135 l -6.077371254627628,3.508771929824563 l -8.919545891879429e-15,-7.0175438596491135 l -8.919545891879429e-15,-7.0175438596491135 l 6.077371254627627,-3.508771929824566 l -8.919545891879429e-15,-7.0175438596491135 l -6.077371254627636,-3.50877192982455 l -6.077371254627636,-3.50877192982455 l 4.94372912160015e-15,7.0175438596491135 l 6.077371254627633,3.508771929824555 l -6.077371254627628,3.508771929824563 l -6.077371254627636,-3.50877192982455 l -8.919545891879429e-15,-7.0175438596491135 l -6.077371254627636,-3.50877192982455 l -6.077371254627636,-3.50877192982455 l 4.94372912160015e-15,7.0175438596491135 l 6.077371254627633,3.508771929824555 l -6.077371254627628,3.508771929824563 l -6.077371254627636,-3.50877192982455 l -6.077371254627628,3.508771929824563 l 4.94372912160015e-15,7.0175438596491135 l 4.94372912160015e-15,7.0175438596491135 l 6.077371254627631,-3.5087719298245563 l 2.1485031563988625e-15,-7.0175438596491135 l 6.077371254627633,3.508771929824555 l 4.94372912160015e-15,7.0175438596491135 l 6.077371254627633,3.508771929824555 l 6.077371254627631,-3.5087719298245563 l -6.0773712546276295,-3.5087719298245608 l 2.1485031563988625e-15,-7.0175438596491135 l 6.077371254627633,3.508771929824555 l 6.077371254627633,3.508771929824555 l 4.94372912160015e-15,7.0175438596491135 l -6.077371254627628,3.508771929824563 l 4.94372912160015e-15,7.0175438596491135 l 6.077371254627631,-3.5087719298245563 l 6.077371254627633,3.508771929824555 l -6.077371254627628,3.508771929824563 l -6.077371254627628,3.508771929824563 l -6.077371254627636,-3.50877192982455 l -8.919545891879429e-15,-7.0175438596491135 l -6.077371254627636,-3.50877192982455 l -6.077371254627636,-3.50877192982455 l 4.94372912160015e-15,7.0175438596491135 l 6.077371254627633,3.508771929824555 l -6.077371254627628,3.508771929824563 l -6.077371254627636,-3.50877192982455 l -8.919545891879429e-15,-7.0175438596491135 l -6.077371254627636,-3.50877192982455 l 4.94372912160015e-15,7.0175438596491135 l -6.077371254627628,3.508771929824563 l -8.919545891879429e-15,-7.0175438596491135 l -8.919545891879429e-15,-7.0175438596491135 l 6.077371254627627,-3.508771929824566 l -8.919545891879429e-15,-7.0175438596491135 l -6.077371254627636,-3.50877192982455 l -6.077371254627636,-3.50877192982455 l 4.94372912160015e-15,7.0175438596491135 l 6.077371254627633,3.508771929824555 l -6.077371254627628,3.508771929824563 l -6.077371254627636,-3.50877192982455 l -6.077371254627628,3.508771929824563 l 4.94372912160015e-15,7.0175438596491135 l 4.94372912160015e-15,7.0175438596491135 l 6.077371254627631,-3.5087719298245563 l 2.1485031563988625e-15,-7.0175438596491135 l 6.077371254627633,3.508771929824555 l 4.94372912160015e-15,7.0175438596491135 l -6.077371254627628,3.508771929824563 l 4.94372912160015e-15,7.0175438596491135 l 6.077371254627631,-3.5087719298245563 l 6.077371254627633,3.508771929824555 l -6.077371254627628,3.508771929824563 l -6.077371254627628,3.508771929824563 l -6.077371254627636,-3.50877192982455 l -8.919545891879429e-15,-7.0175438596491135 l -6.077371254627636,-3.50877192982455 l 4.94372912160015e-15,7.0175438596491135 l -6.077371254627628,3.508771929824563 l -8.919545891879429e-15,-7.0175438596491135 l -8.919545891879429e-15,-7.0175438596491135 l 6.077371254627627,-3.508771929824566 l -8.919545891879429e-15,-7.0175438596491135 l -6.077371254627636,-3.50877192982455 l 4.94372912160015e-15,7.0175438596491135 l -6.077371254627628,3.508771929824563 l -8.919545891879429e-15,-7.0175438596491135 l -8.919545891879429e-15,-7.0175438596491135 l 6.077371254627627,-3.508771929824566 l 6.0773712546276375,3.5087719298245474 l 6.077371254627627,-3.508771929824566 l 6.077371254627627,-3.508771929824566 l -6.077371254627636,-3.50877192982455 l -6.077371254627628,3.508771929824563 l -8.919545891879429e-15,-7.0175438596491135 l 6.077371254627627,-3.508771929824566 l -8.919545891879429e-15,-7.0175438596491135 l -6.077371254627636,-3.50877192982455 l 4.94372912160015e-15,7.0175438596491135 l -6.077371254627628,3.508771929824563 l -8.919545891879429e-15,-7.0175438596491135 l -8.919545891879429e-15,-7.0175438596491135 l 6.077371254627627,-3.508771929824566 l -8.919545891879429e-15,-7.0175438596491135 l -6.077371254627636,-3.50877192982455 l -6.077371254627636,-3.50877192982455 l 4.94372912160015e-15,7.0175438596491135 l 6.077371254627633,3.508771929824555 l -6.077371254627628,3.508771929824563 l -6.077371254627636,-3.50877192982455 l -8.919545891879429e-15,-7.0175438596491135 l -6.077371254627636,-3.50877192982455 l -6.077371254627636,-3.50877192982455 l 4.94372912160015e-15,7.0175438596491135 l 6.077371254627633,3.508771929824555 l -6.077371254627628,3.508771929824563 l -6.077371254627636,-3.50877192982455 l -6.077371254627628,3.508771929824563 l 4.94372912160015e-15,7.0175438596491135 l 4.94372912160015e-15,7.0175438596491135 l 6.077371254627631,-3.5087719298245563 l 2.1485031563988625e-15,-7.0175438596491135 l 6.077371254627633,3.508771929824555 l 4.94372912160015e-15,7.0175438596491135 l 6.077371254627633,3.508771929824555 l 6.077371254627631,-3.5087719298245563 l -6.0773712546276295,-3.5087719298245608 l 2.1485031563988625e-15,-7.0175438596491135 l 6.077371254627633,3.508771929824555 l 6.077371254627633,3.508771929824555 l 4.94372912160015e-15,7.0175438596491135 l -6.077371254627628,3.508771929824563 l 4.94372912160015e-15,7.0175438596491135 l 6.077371254627631,-3.5087719298245563 l 6.077371254627633,3.508771929824555 l -6.077371254627628,3.508771929824563 l -6.077371254627628,3.508771929824563 l -6.077371254627636,-3.50877192982455 l -8.919545891879429e-15,-7.0175438596491135 l -6.077371254627636,-3.50877192982455 l -6.077371254627636,-3.50877192982455 l 4.94372912160015e-15,7.0175438596491135 l 6.077371254627633,3.508771929824555 l -6.077371254627628,3.508771929824563 l -6.077371254627636,-3.50877192982455 l -6.077371254627628,3.508771929824563 l 4.94372912160015e-15,7.0175438596491135 l 6.077371254627631,-3.5087719298245563 l 6.077371254627633,3.508771929824555 l -6.077371254627628,3.508771929824563 l -6.077371254627628,3.508771929824563 l -6.077371254627636,-3.50877192982455 l -6.077371254627628,3.508771929824563 l 4.94372912160015e-15,7.0175438596491135 l 4.94372912160015e-15,7.0175438596491135 l 6.077371254627631,-3.5087719298245563 l 2.1485031563988625e-15,-7.0175438596491135 l 6.077371254627633,3.508771929824555 l 4.94372912160015e-15,7.0175438596491135 l -6.077371254627628,3.508771929824563 l 4.94372912160015e-15,7.0175438596491135 l 4.94372912160015e-15,7.0175438596491135 l 6.077371254627631,-3.5087719298245563 l 2.1485031563988625e-15,-7.0175438596491135 l 6.077371254627633,3.508771929824555 l 4.94372912160015e-15,7.0175438596491135 l 6.077371254627633,3.508771929824555 l 6.077371254627631,-3.5087719298245563 l 6.077371254627631,-3.5087719298245563 l -6.0773712546276295,-3.5087719298245608 l -6.077371254627635,3.5087719298245506 l 2.1485031563988625e-15,-7.0175438596491135 l 6.077371254627631,-3.5087719298245563 l 2.1485031563988625e-15,-7.0175438596491135 l -6.0773712546276295,-3.5087719298245608 l -3.0079044189584072e-15,7.0175438596491135 l -6.077371254627635,3.5087719298245506 l 2.1485031563988625e-15,-7.0175438596491135 l 2.1485031563988625e-15,-7.0175438596491135 l 6.077371254627631,-3.5087719298245563 l 6.077371254627633,3.508771929824555 l 6.077371254627631,-3.5087719298245563 l -6.0773712546276295,-3.5087719298245608 l 2.1485031563988625e-15,-7.0175438596491135 l 6.077371254627633,3.508771929824555 l 6.077371254627633,3.508771929824555 l 4.94372912160015e-15,7.0175438596491135 l -6.077371254627628,3.508771929824563 l 4.94372912160015e-15,7.0175438596491135 l 4.94372912160015e-15,7.0175438596491135 l 6.077371254627631,-3.5087719298245563 l 2.1485031563988625e-15,-7.0175438596491135 l 6.077371254627633,3.508771929824555 l 4.94372912160015e-15,7.0175438596491135 l -6.077371254627628,3.508771929824563 l 4.94372912160015e-15,7.0175438596491135 l 6.077371254627631,-3.5087719298245563 l 6.077371254627633,3.508771929824555 l -6.077371254627628,3.508771929824563 l -6.077371254627628,3.508771929824563 l -6.077371254627636,-3.50877192982455 l -6.077371254627628,3.508771929824563 l 4.94372912160015e-15,7.0175438596491135 l 4.94372912160015e-15,7.0175438596491135 l 6.077371254627631,-3.5087719298245563 l 2.1485031563988625e-15,-7.0175438596491135 l 6.077371254627633,3.508771929824555 l 4.94372912160015e-15,7.0175438596491135 l 6.077371254627633,3.508771929824555 l 6.077371254627631,-3.5087719298245563 l 6.077371254627631,-3.5087719298245563 l -6.0773712546276295,-3.5087719298245608 l -6.077371254627635,3.5087719298245506 l 2.1485031563988625e-15,-7.0175438596491135 l 6.077371254627631,-3.5087719298245563 l 6.077371254627633,3.508771929824555 l 6.077371254627631,-3.5087719298245563 l -6.0773712546276295,-3.5087719298245608 l 2.1485031563988625e-15,-7.0175438596491135 l 6.077371254627633,3.508771929824555 l 6.077371254627633,3.508771929824555 l 4.94372912160015e-15,7.0175438596491135 l -6.077371254627628,3.508771929824563 l 4.94372912160015e-15,7.0175438596491135 l 6.077371254627631,-3.5087719298245563 l 6.077371254627633,3.508771929824555 l -6.077371254627628,3.508771929824563 l -6.077371254627628,3.508771929824563 l -6.077371254627636,-3.50877192982455 l -6.077371254627628,3.508771929824563 l 4.94372912160015e-15,7.0175438596491135 l 6.077371254627631,-3.5087719298245563 l 6.077371254627633,3.508771929824555 l -6.077371254627628,3.508771929824563 l -6.077371254627628,3.508771929824563 l -6.077371254627636,-3.50877192982455 l -8.919545891879429e-15,-7.0175438596491135 l -6.077371254627636,-3.50877192982455 l -6.077371254627636,-3.50877192982455 l 4.94372912160015e-15,7.0175438596491135 l 6.077371254627633,3.508771929824555 l -6.077371254627628,3.508771929824563 l -6.077371254627636,-3.50877192982455 l -8.919545891879429e-15,-7.0175438596491135 l -6.077371254627636,-3.50877192982455 l 4.94372912160015e-15,7.0175438596491135 l -6.077371254627628,3.508771929824563 l -8.919545891879429e-15,-7.0175438596491135 l -8.919545891879429e-15,-7.0175438596491135 l 6.077371254627627,-3.508771929824566 l -8.919545891879429e-15,-7.0175438596491135 l -6.077371254627636,-3.50877192982455 l -6.077371254627636,-3.50877192982455 l 4.94372912160015e-15,7.0175438596491135 l 6.077371254627633,3.508771929824555 l -6.077371254627628,3.508771929824563 l -6.077371254627636,-3.50877192982455 l -6.077371254627628,3.508771929824563 l 4.94372912160015e-15,7.0175438596491135 l 4.94372912160015e-15,7.0175438596491135 l 6.077371254627631,-3.5087719298245563 l 2.1485031563988625e-15,-7.0175438596491135 l 6.077371254627633,3.508771929824555 l 4.94372912160015e-15,7.0175438596491135 l -6.077371254627628,3.508771929824563 l 4.94372912160015e-15,7.0175438596491135 l 6.077371254627631,-3.5087719298245563 l 6.077371254627633,3.508771929824555 l -6.077371254627628,3.508771929824563 l -6.077371254627628,3.508771929824563 l -6.077371254627636,-3.50877192982455 l -8.919545891879429e-15,-7.0175438596491135 l -6.077371254627636,-3.50877192982455 l 4.94372912160015e-15,7.0175438596491135 l -6.077371254627628,3.508771929824563 l -8.919545891879429e-15,-7.0175438596491135 l -8.919545891879429e-15,-7.0175438596491135 l 6.077371254627627,-3.508771929824566 l -8.919545891879429e-15,-7.0175438596491135 l -6.077371254627636,-3.50877192982455 l 4.94372912160015e-15,7.0175438596491135 l -6.077371254627628,3.508771929824563 l -8.919545891879429e-15,-7.0175438596491135 l -8.919545891879429e-15,-7.0175438596491135 l 6.077371254627627,-3.508771929824566 l 6.0773712546276375,3.5087719298245474 l 6.077371254627627,-3.508771929824566 l 6.077371254627627,-3.508771929824566 l -6.077371254627636,-3.50877192982455 l -6.077371254627628,3.508771929824563 l -8.919545891879429e-15,-7.0175438596491135 l 6.077371254627627,-3.508771929824566 l -8.919545891879429e-15,-7.0175438596491135 l -6.077371254627636,-3.50877192982455 l 4.94372912160015e-15,7.0175438596491135 l -6.077371254627628,3.508771929824563 l -8.919545891879429e-15,-7.0175438596491135 l -8.919545891879429e-15,-7.0175438596491135 l 6.077371254627627,-3.508771929824566 l -8.919545891879429e-15,-7.0175438596491135 l -6.077371254627636,-3.50877192982455 l -6.077371254627636,-3.50877192982455 l 4.94372912160015e-15,7.0175438596491135 l 6.077371254627633,3.508771929824555 l -6.077371254627628,3.508771929824563 l -6.077371254627636,-3.50877192982455 l -6.077371254627628,3.508771929824563 l 4.94372912160015e-15,7.0175438596491135 l 4.94372912160015e-15,7.0175438596491135 l 6.077371254627631,-3.5087719298245563 l 2.1485031563988625e-15,-7.0175438596491135 l 6.077371254627633,3.508771929824555 l 4.94372912160015e-15,7.0175438596491135 l -6.077371254627628,3.508771929824563 l 4.94372912160015e-15,7.0175438596491135 l 6.077371254627631,-3.5087719298245563 l 6.077371254627633,3.508771929824555 l -6.077371254627628,3.508771929824563 l -6.077371254627628,3.508771929824563 l -6.077371254627636,-3.50877192982455 l -8.919545891879429e-15,-7.0175438596491135 l -6.077371254627636,-3.50877192982455 l 4.94372912160015e-15,7.0175438596491135 l -6.077371254627628,3.508771929824563 l -8.919545891879429e-15,-7.0175438596491135 l -8.919545891879429e-15,-7.0175438596491135 l 6.077371254627627,-3.508771929824566 l -8.919545891879429e-15,-7.0175438596491135 l -6.077371254627636,-3.50877192982455 l 4.94372912160015e-15,7.0175438596491135 l -6.077371254627628,3.508771929824563 l -8.919545891879429e-15,-7.0175438596491135 l -8.919545891879429e-15,-7.0175438596491135 l 6.077371254627627,-3.508771929824566 l 6.0773712546276375,3.5087719298245474 l 6.077371254627627,-3.508771929824566 l 6.077371254627627,-3.508771929824566 l -6.077371254627636,-3.50877192982455 l -6.077371254627628,3.508771929824563 l -8.919545891879429e-15,-7.0175438596491135 l 6.077371254627627,-3.508771929824566 l 6.0773712546276375,3.5087719298245474 l 6.077371254627627,-3.508771929824566 l -6.077371254627636,-3.50877192982455 l -8.919545891879429e-15,-7.0175438596491135 l 6.0773712546276375,3.5087719298245474 l 6.0773712546276375,3.5087719298245474 l 1.2895362662158706e-14,7.0175438596491135 l 6.0773712546276375,3.5087719298245474 l 6.077371254627627,-3.508771929824566 l 6.077371254627627,-3.508771929824566 l -6.077371254627636,-3.50877192982455 l -6.077371254627628,3.508771929824563 l -8.919545891879429e-15,-7.0175438596491135 l 6.077371254627627,-3.508771929824566 l 6.0773712546276375,3.5087719298245474 l 6.077371254627627,-3.508771929824566 l 6.077371254627627,-3.508771929824566 l -6.077371254627636,-3.50877192982455 l -6.077371254627628,3.508771929824563 l -8.919545891879429e-15,-7.0175438596491135 l 6.077371254627627,-3.508771929824566 l -8.919545891879429e-15,-7.0175438596491135 l -6.077371254627636,-3.50877192982455 l -6.077371254627636,-3.50877192982455 l 4.94372912160015e-15,7.0175438596491135 l 6.077371254627633,3.508771929824555 l -6.077371254627628,3.508771929824563 l -6.077371254627636,-3.50877192982455 l -6.077371254627628,3.508771929824563 l 4.94372912160015e-15,7.0175438596491135 l 6.077371254627631,-3.5087719298245563 l 6.077371254627633,3.508771929824555 l -6.077371254627628,3.508771929824563 l -6.077371254627628,3.508771929824563 l -6.077371254627636,-3.50877192982455 l -8.919545891879429e-15,-7.0175438596491135 l -6.077371254627636,-3.50877192982455 l 4.94372912160015e-15,7.0175438596491135 l -6.077371254627628,3.508771929824563 l -8.919545891879429e-15,-7.0175438596491135 l -8.919545891879429e-15,-7.0175438596491135 l 6.077371254627627,-3.508771929824566 l 6.0773712546276375,3.5087719298245474 l 6.077371254627627,-3.508771929824566 l 6.077371254627627,-3.508771929824566 l -6.077371254627636,-3.50877192982455 l -6.077371254627628,3.508771929824563 l -8.919545891879429e-15,-7.0175438596491135 l 6.077371254627627,-3.508771929824566 l -8.919545891879429e-15,-7.0175438596491135 l -6.077371254627636,-3.50877192982455 l 4.94372912160015e-15,7.0175438596491135 l -6.077371254627628,3.508771929824563 l -8.919545891879429e-15,-7.0175438596491135 l -8.919545891879429e-15,-7.0175438596491135 l 6.077371254627627,-3.508771929824566 l -8.919545891879429e-15,-7.0175438596491135 l -6.077371254627636,-3.50877192982455 l -6.077371254627636,-3.50877192982455 l 4.94372912160015e-15,7.0175438596491135 l 6.077371254627633,3.508771929824555 l -6.077371254627628,3.508771929824563 l -6.077371254627636,-3.50877192982455 l -6.077371254627628,3.508771929824563 l 4.94372912160015e-15,7.0175438596491135 l 4.94372912160015e-15,7.0175438596491135 l 6.077371254627631,-3.5087719298245563 l 2.1485031563988625e-15,-7.0175438596491135 l 6.077371254627633,3.508771929824555 l 4.94372912160015e-15,7.0175438596491135 l -6.077371254627628,3.508771929824563 l 4.94372912160015e-15,7.0175438596491135 l 6.077371254627631,-3.5087719298245563 l 6.077371254627633,3.508771929824555 l -6.077371254627628,3.508771929824563 l -6.077371254627628,3.508771929824563 l -6.077371254627636,-3.50877192982455 l -8.919545891879429e-15,-7.0175438596491135 l -6.077371254627636,-3.50877192982455 l 4.94372912160015e-15,7.0175438596491135 l -6.077371254627628,3.508771929824563 l -8.919545891879429e-15,-7.0175438596491135 l -8.919545891879429e-15,-7.0175438596491135 l 6.077371254627627,-3.508771929824566 l -8.919545891879429e-15,-7.0175438596491135 l -6.077371254627636,-3.50877192982455 l 4.94372912160015e-15,7.0175438596491135 l -6.077371254627628,3.508771929824563 l -8.919545891879429e-15,-7.0175438596491135 l -8.919545891879429e-15,-7.0175438596491135 l 6.077371254627627,-3.508771929824566 l 6.0773712546276375,3.5087719298245474 l 6.077371254627627,-3.508771929824566 l 6.077371254627627,-3.508771929824566 l -6.077371254627636,-3.50877192982455 l -6.077371254627628,3.508771929824563 l -8.919545891879429e-15,-7.0175438596491135 l 6.077371254627627,-3.508771929824566 l -8.919545891879429e-15,-7.0175438596491135 l -6.077371254627636,-3.50877192982455 l 4.94372912160015e-15,7.0175438596491135 l -6.077371254627628,3.508771929824563 l -8.919545891879429e-15,-7.0175438596491135 l -8.919545891879429e-15,-7.0175438596491135 l 6.077371254627627,-3.508771929824566 l -8.919545891879429e-15,-7.0175438596491135 l -6.077371254627636,-3.50877192982455 l -6.077371254627636,-3.50877192982455 l 4.94372912160015e-15,7.0175438596491135 l 6.077371254627633,3.508771929824555 l -6.077371254627628,3.508771929824563 l -6.077371254627636,-3.50877192982455 l -8.919545891879429e-15,-7.0175438596491135 l -6.077371254627636,-3.50877192982455 l -6.077371254627636,-3.50877192982455 l 4.94372912160015e-15,7.0175438596491135 l 6.077371254627633,3.508771929824555 l -6.077371254627628,3.508771929824563 l -6.077371254627636,-3.50877192982455 l -6.077371254627628,3.508771929824563 l 4.94372912160015e-15,7.0175438596491135 l 4.94372912160015e-15,7.0175438596491135 l 6.077371254627631,-3.5087719298245563 l 2.1485031563988625e-15,-7.0175438596491135 l 6.077371254627633,3.508771929824555 l 4.94372912160015e-15,7.0175438596491135 l 6.077371254627633,3.508771929824555 l 6.077371254627631,-3.5087719298245563 l -6.0773712546276295,-3.5087719298245608 l 2.1485031563988625e-15,-7.0175438596491135 l 6.077371254627633,3.508771929824555 l 6.077371254627633,3.508771929824555 l 4.94372912160015e-15,7.0175438596491135 l -6.077371254627628,3.508771929824563 l 4.94372912160015e-15,7.0175438596491135 l 6.077371254627631,-3.5087719298245563 l 6.077371254627633,3.508771929824555 l -6.077371254627628,3.508771929824563 l -6.077371254627628,3.508771929824563 l -6.077371254627636,-3.50877192982455 l -8.919545891879429e-15,-7.0175438596491135 l -6.077371254627636,-3.50877192982455 l -6.077371254627636,-3.50877192982455 l 4.94372912160015e-15,7.0175438596491135 l 6.077371254627633,3.508771929824555 l -6.077371254627628,3.508771929824563 l -6.077371254627636,-3.50877192982455 l -6.077371254627628,3.508771929824563 l 4.94372912160015e-15,7.0175438596491135 l 6.077371254627631,-3.5087719298245563 l 6.077371254627633,3.508771929824555 l -6.077371254627628,3.508771929824563 l -6.077371254627628,3.508771929824563 l -6.077371254627636,-3.50877192982455 l -6.077371254627628,3.508771929824563 l 4.94372912160015e-15,7.0175438596491135 l 4.94372912160015e-15,7.0175438596491135 l 6.077371254627631,-3.5087719298245563 l 2.1485031563988625e-15,-7.0175438596491135 l 6.077371254627633,3.508771929824555 l 4.94372912160015e-15,7.0175438596491135 l -6.077371254627628,3.508771929824563 l 4.94372912160015e-15,7.0175438596491135 l 4.94372912160015e-15,7.0175438596491135 l 6.077371254627631,-3.5087719298245563 l 2.1485031563988625e-15,-7.0175438596491135 l 6.077371254627633,3.508771929824555 l 4.94372912160015e-15,7.0175438596491135 l 6.077371254627633,3.508771929824555 l 6.077371254627631,-3.5087719298245563 l 6.077371254627631,-3.5087719298245563 l -6.0773712546276295,-3.5087719298245608 l -6.077371254627635,3.5087719298245506 l 2.1485031563988625e-15,-7.0175438596491135 l 6.077371254627631,-3.5087719298245563 l 2.1485031563988625e-15,-7.0175438596491135 l -6.0773712546276295,-3.5087719298245608 l -3.0079044189584072e-15,7.0175438596491135 l -6.077371254627635,3.5087719298245506 l 2.1485031563988625e-15,-7.0175438596491135 l 2.1485031563988625e-15,-7.0175438596491135 l 6.077371254627631,-3.5087719298245563 l 6.077371254627633,3.508771929824555 l 6.077371254627631,-3.5087719298245563 l -6.0773712546276295,-3.5087719298245608 l 2.1485031563988625e-15,-7.0175438596491135 l 6.077371254627633,3.508771929824555 l 6.077371254627633,3.508771929824555 l 4.94372912160015e-15,7.0175438596491135 l -6.077371254627628,3.508771929824563 l 4.94372912160015e-15,7.0175438596491135 l 4.94372912160015e-15,7.0175438596491135 l 6.077371254627631,-3.5087719298245563 l 2.1485031563988625e-15,-7.0175438596491135 l 6.077371254627633,3.508771929824555 l 4.94372912160015e-15,7.0175438596491135 l -6.077371254627628,3.508771929824563 l 4.94372912160015e-15,7.0175438596491135 l 6.077371254627631,-3.5087719298245563 l 6.077371254627633,3.508771929824555 l -6.077371254627628,3.508771929824563 l -6.077371254627628,3.508771929824563 l -6.077371254627636,-3.50877192982455 l -6.077371254627628,3.508771929824563 l 4.94372912160015e-15,7.0175438596491135 l 4.94372912160015e-15,7.0175438596491135 l 6.077371254627631,-3.5087719298245563 l 2.1485031563988625e-15,-7.0175438596491135 l 6.077371254627633,3.508771929824555 l 4.94372912160015e-15,7.0175438596491135 l 6.077371254627633,3.508771929824555 l 6.077371254627631,-3.5087719298245563 l 6.077371254627631,-3.5087719298245563 l -6.0773712546276295,-3.5087719298245608 l -6.077371254627635,3.5087719298245506 l 2.1485031563988625e-15,-7.0175438596491135 l 6.077371254627631,-3.5087719298245563 l 6.077371254627633,3.508771929824555 l 6.077371254627631,-3.5087719298245563 l -6.0773712546276295,-3.5087719298245608 l 2.1485031563988625e-15,-7.0175438596491135 l 6.077371254627633,3.508771929824555 l 6.077371254627633,3.508771929824555 l 4.94372912160015e-15,7.0175438596491135 l -6.077371254627628,3.508771929824563 l 4.94372912160015e-15,7.0175438596491135 l 6.077371254627631,-3.5087719298245563 l 6.077371254627633,3.508771929824555 l -6.077371254627628,3.508771929824563 l -6.077371254627628,3.508771929824563 l -6.077371254627636,-3.50877192982455 l -6.077371254627628,3.508771929824563 l 4.94372912160015e-15,7.0175438596491135 l 6.077371254627631,-3.5087719298245563 l 6.077371254627633,3.508771929824555 l -6.077371254627628,3.508771929824563 l -6.077371254627628,3.508771929824563 l -6.077371254627636,-3.50877192982455 l -8.919545891879429e-15,-7.0175438596491135 l -6.077371254627636,-3.50877192982455 l -6.077371254627636,-3.50877192982455 l 4.94372912160015e-15,7.0175438596491135 l 6.077371254627633,3.508771929824555 l -6.077371254627628,3.508771929824563 l -6.077371254627636,-3.50877192982455 l -8.919545891879429e-15,-7.0175438596491135 l -6.077371254627636,-3.50877192982455 l 4.94372912160015e-15,7.0175438596491135 l -6.077371254627628,3.508771929824563 l -8.919545891879429e-15,-7.0175438596491135 l -8.919545891879429e-15,-7.0175438596491135 l 6.077371254627627,-3.508771929824566 l -8.919545891879429e-15,-7.0175438596491135 l -6.077371254627636,-3.50877192982455 l -6.077371254627636,-3.50877192982455 l 4.94372912160015e-15,7.0175438596491135 l 6.077371254627633,3.508771929824555 l -6.077371254627628,3.508771929824563 l -6.077371254627636,-3.50877192982455 l -6.077371254627628,3.508771929824563 l 4.94372912160015e-15,7.0175438596491135 l 4.94372912160015e-15,7.0175438596491135 l 6.077371254627631,-3.5087719298245563 l 2.1485031563988625e-15,-7.0175438596491135 l 6.077371254627633,3.508771929824555 l 4.94372912160015e-15,7.0175438596491135 l -6.077371254627628,3.508771929824563 l 4.94372912160015e-15,7.0175438596491135 l 6.077371254627631,-3.5087719298245563 l 6.077371254627633,3.508771929824555 l -6.077371254627628,3.508771929824563 l -6.077371254627628,3.508771929824563 l -6.077371254627636,-3.50877192982455 l -8.919545891879429e-15,-7.0175438596491135 l -6.077371254627636,-3.50877192982455 l 4.94372912160015e-15,7.0175438596491135 l -6.077371254627628,3.508771929824563 l -8.919545891879429e-15,-7.0175438596491135 l -8.919545891879429e-15,-7.0175438596491135 l 6.077371254627627,-3.508771929824566 l -8.919545891879429e-15,-7.0175438596491135 l -6.077371254627636,-3.50877192982455 l 4.94372912160015e-15,7.0175438596491135 l -6.077371254627628,3.508771929824563 l -8.919545891879429e-15,-7.0175438596491135 l -8.919545891879429e-15,-7.0175438596491135 l 6.077371254627627,-3.508771929824566 l 6.0773712546276375,3.5087719298245474 l 6.077371254627627,-3.508771929824566 l 6.077371254627627,-3.508771929824566 l -6.077371254627636,-3.50877192982455 l -6.077371254627628,3.508771929824563 l -8.919545891879429e-15,-7.0175438596491135 l 6.077371254627627,-3.508771929824566 l -8.919545891879429e-15,-7.0175438596491135 l -6.077371254627636,-3.50877192982455 l 4.94372912160015e-15,7.0175438596491135 l -6.077371254627628,3.508771929824563 l -8.919545891879429e-15,-7.0175438596491135 l -8.919545891879429e-15,-7.0175438596491135 l 6.077371254627627,-3.508771929824566 l -8.919545891879429e-15,-7.0175438596491135 l -6.077371254627636,-3.50877192982455 l -6.077371254627636,-3.50877192982455 l 4.94372912160015e-15,7.0175438596491135 l 6.077371254627633,3.508771929824555 l -6.077371254627628,3.508771929824563 l -6.077371254627636,-3.50877192982455 l -6.077371254627628,3.508771929824563 l 4.94372912160015e-15,7.0175438596491135 l 4.94372912160015e-15,7.0175438596491135 l 6.077371254627631,-3.5087719298245563 l 2.1485031563988625e-15,-7.0175438596491135 l 6.077371254627633,3.508771929824555 l 4.94372912160015e-15,7.0175438596491135 l -6.077371254627628,3.508771929824563 l 4.94372912160015e-15,7.0175438596491135 l 6.077371254627631,-3.5087719298245563 l 6.077371254627633,3.508771929824555 l -6.077371254627628,3.508771929824563 l -6.077371254627628,3.508771929824563 l -6.077371254627636,-3.50877192982455 l -8.919545891879429e-15,-7.0175438596491135 l -6.077371254627636,-3.50877192982455 l 4.94372912160015e-15,7.0175438596491135 l -6.077371254627628,3.508771929824563 l -8.919545891879429e-15,-7.0175438596491135 l -8.919545891879429e-15,-7.0175438596491135 l 6.077371254627627,-3.508771929824566 l -8.919545891879429e-15,-7.0175438596491135 l -6.077371254627636,-3.50877192982455 l 4.94372912160015e-15,7.0175438596491135 l -6.077371254627628,3.508771929824563 l -8.919545891879429e-15,-7.0175438596491135 l -8.919545891879429e-15,-7.0175438596491135 l 6.077371254627627,-3.508771929824566 l 6.0773712546276375,3.5087719298245474 l 6.077371254627627,-3.508771929824566 l 6.077371254627627,-3.508771929824566 l -6.077371254627636,-3.50877192982455 l -6.077371254627628,3.508771929824563 l -8.919545891879429e-15,-7.0175438596491135 l 6.077371254627627,-3.508771929824566 l 6.0773712546276375,3.5087719298245474 l 6.077371254627627,-3.508771929824566 l -6.077371254627636,-3.50877192982455 l -8.919545891879429e-15,-7.0175438596491135 l 6.0773712546276375,3.5087719298245474 l 6.0773712546276375,3.5087719298245474 l 1.2895362662158706e-14,7.0175438596491135 l 6.0773712546276375,3.5087719298245474 l 6.077371254627627,-3.508771929824566 l 6.077371254627627,-3.508771929824566 l -6.077371254627636,-3.50877192982455 l -6.077371254627628,3.508771929824563 l -8.919545891879429e-15,-7.0175438596491135 l 6.077371254627627,-3.508771929824566 l 6.0773712546276375,3.5087719298245474 l 6.077371254627627,-3.508771929824566 l 6.077371254627627,-3.508771929824566 l -6.077371254627636,-3.50877192982455 l -6.077371254627628,3.508771929824563 l -8.919545891879429e-15,-7.0175438596491135 l 6.077371254627627,-3.508771929824566 l -8.919545891879429e-15,-7.0175438596491135 l -6.077371254627636,-3.50877192982455 l -6.077371254627636,-3.50877192982455 l 4.94372912160015e-15,7.0175438596491135 l 6.077371254627633,3.508771929824555 l -6.077371254627628,3.508771929824563 l -6.077371254627636,-3.50877192982455 l -6.077371254627628,3.508771929824563 l 4.94372912160015e-15,7.0175438596491135 l 6.077371254627631,-3.5087719298245563 l 6.077371254627633,3.508771929824555 l -6.077371254627628,3.508771929824563 l -6.077371254627628,3.508771929824563 l -6.077371254627636,-3.50877192982455 l -8.919545891879429e-15,-7.0175438596491135 l -6.077371254627636,-3.50877192982455 l 4.94372912160015e-15,7.0175438596491135 l -6.077371254627628,3.508771929824563 l -8.919545891879429e-15,-7.0175438596491135 l -8.919545891879429e-15,-7.0175438596491135 l 6.077371254627627,-3.508771929824566 l 6.0773712546276375,3.5087719298245474 l 6.077371254627627,-3.508771929824566 l 6.077371254627627,-3.508771929824566 l -6.077371254627636,-3.50877192982455 l -6.077371254627628,3.508771929824563 l -8.919545891879429e-15,-7.0175438596491135 l 6.077371254627627,-3.508771929824566 l 6.0773712546276375,3.5087719298245474 l 6.077371254627627,-3.508771929824566 l -6.077371254627636,-3.50877192982455 l -8.919545891879429e-15,-7.0175438596491135 l 6.0773712546276375,3.5087719298245474 l 6.0773712546276375,3.5087719298245474 l 1.2895362662158706e-14,7.0175438596491135 l 6.0773712546276375,3.5087719298245474 l 6.077371254627627,-3.508771929824566 l 6.077371254627627,-3.508771929824566 l -6.077371254627636,-3.50877192982455 l -6.077371254627628,3.508771929824563 l -8.919545891879429e-15,-7.0175438596491135 l 6.077371254627627,-3.508771929824566 l -8.919545891879429e-15,-7.0175438596491135 l -6.077371254627636,-3.50877192982455 l -6.077371254627636,-3.50877192982455 l 4.94372912160015e-15,7.0175438596491135 l 6.077371254627633,3.508771929824555 l -6.077371254627628,3.508771929824563 l -6.077371254627636,-3.50877192982455 l -8.919545891879429e-15,-7.0175438596491135 l -6.077371254627636,-3.50877192982455 l 4.94372912160015e-15,7.0175438596491135 l -6.077371254627628,3.508771929824563 l -8.919545891879429e-15,-7.0175438596491135 l -8.919545891879429e-15,-7.0175438596491135 l 6.077371254627627,-3.508771929824566 l 6.0773712546276375,3.5087719298245474 l 6.077371254627627,-3.508771929824566 l -6.077371254627636,-3.50877192982455 l -8.919545891879429e-15,-7.0175438596491135 l 6.0773712546276375,3.5087719298245474 l 6.0773712546276375,3.5087719298245474 l 1.2895362662158706e-14,7.0175438596491135 l 6.0773712546276375,3.5087719298245474 l 6.077371254627627,-3.508771929824566 l -6.077371254627636,-3.50877192982455 l -8.919545891879429e-15,-7.0175438596491135 l 6.0773712546276375,3.5087719298245474 l 6.0773712546276375,3.5087719298245474 l 1.2895362662158706e-14,7.0175438596491135 l -6.077371254627623,3.508771929824571 l 1.2895362662158706e-14,7.0175438596491135 l 1.2895362662158706e-14,7.0175438596491135 l 6.077371254627627,-3.508771929824566 l -8.919545891879429e-15,-7.0175438596491135 l 6.0773712546276375,3.5087719298245474 l 1.2895362662158706e-14,7.0175438596491135 l 6.0773712546276375,3.5087719298245474 l 6.077371254627627,-3.508771929824566 l -6.077371254627636,-3.50877192982455 l -8.919545891879429e-15,-7.0175438596491135 l 6.0773712546276375,3.5087719298245474 l 6.0773712546276375,3.5087719298245474 l 1.2895362662158706e-14,7.0175438596491135 l 6.0773712546276375,3.5087719298245474 l 6.077371254627627,-3.508771929824566 l 6.077371254627627,-3.508771929824566 l -6.077371254627636,-3.50877192982455 l -6.077371254627628,3.508771929824563 l -8.919545891879429e-15,-7.0175438596491135 l 6.077371254627627,-3.508771929824566 l 6.0773712546276375,3.5087719298245474 l 6.077371254627627,-3.508771929824566 l 6.077371254627627,-3.508771929824566 l -6.077371254627636,-3.50877192982455 l -6.077371254627628,3.508771929824563 l -8.919545891879429e-15,-7.0175438596491135 l 6.077371254627627,-3.508771929824566 l -8.919545891879429e-15,-7.0175438596491135 l -6.077371254627636,-3.50877192982455 l -6.077371254627636,-3.50877192982455 l 4.94372912160015e-15,7.0175438596491135 l 6.077371254627633,3.508771929824555 l -6.077371254627628,3.508771929824563 l -6.077371254627636,-3.50877192982455 l -6.077371254627628,3.508771929824563 l 4.94372912160015e-15,7.0175438596491135 l 6.077371254627631,-3.5087719298245563 l 6.077371254627633,3.508771929824555 l -6.077371254627628,3.508771929824563 l -6.077371254627628,3.508771929824563 l -6.077371254627636,-3.50877192982455 l -8.919545891879429e-15,-7.0175438596491135 l -6.077371254627636,-3.50877192982455 l 4.94372912160015e-15,7.0175438596491135 l -6.077371254627628,3.508771929824563 l -8.919545891879429e-15,-7.0175438596491135 l -8.919545891879429e-15,-7.0175438596491135 l 6.077371254627627,-3.508771929824566 l 6.0773712546276375,3.5087719298245474 l 6.077371254627627,-3.508771929824566 l 6.077371254627627,-3.508771929824566 l -6.077371254627636,-3.50877192982455 l -6.077371254627628,3.508771929824563 l -8.919545891879429e-15,-7.0175438596491135 l 6.077371254627627,-3.508771929824566 l 6.0773712546276375,3.5087719298245474 l 6.077371254627627,-3.508771929824566 l -6.077371254627636,-3.50877192982455 l -8.919545891879429e-15,-7.0175438596491135 l 6.0773712546276375,3.5087719298245474 l 6.0773712546276375,3.5087719298245474 l 1.2895362662158706e-14,7.0175438596491135 l 6.0773712546276375,3.5087719298245474 l 6.077371254627627,-3.508771929824566 l 6.077371254627627,-3.508771929824566 l -6.077371254627636,-3.50877192982455 l -6.077371254627628,3.508771929824563 l -8.919545891879429e-15,-7.0175438596491135 l 6.077371254627627,-3.508771929824566 l 6.0773712546276375,3.5087719298245474 l 6.077371254627627,-3.508771929824566 l 6.077371254627627,-3.508771929824566 l -6.077371254627636,-3.50877192982455 l -6.077371254627628,3.508771929824563 l -8.919545891879429e-15,-7.0175438596491135 l 6.077371254627627,-3.508771929824566 l -8.919545891879429e-15,-7.0175438596491135 l -6.077371254627636,-3.50877192982455 l -6.077371254627636,-3.50877192982455 l 4.94372912160015e-15,7.0175438596491135 l 6.077371254627633,3.508771929824555 l -6.077371254627628,3.508771929824563 l -6.077371254627636,-3.50877192982455 l -6.077371254627628,3.508771929824563 l 4.94372912160015e-15,7.0175438596491135 l 6.077371254627631,-3.5087719298245563 l 6.077371254627633,3.508771929824555 l -6.077371254627628,3.508771929824563 l -6.077371254627628,3.508771929824563 l -6.077371254627636,-3.50877192982455 l -8.919545891879429e-15,-7.0175438596491135 l -6.077371254627636,-3.50877192982455 l 4.94372912160015e-15,7.0175438596491135 l -6.077371254627628,3.508771929824563 l -8.919545891879429e-15,-7.0175438596491135 l -8.919545891879429e-15,-7.0175438596491135 l 6.077371254627627,-3.508771929824566 l 6.0773712546276375,3.5087719298245474 l 6.077371254627627,-3.508771929824566 l 6.077371254627627,-3.508771929824566 l -6.077371254627636,-3.50877192982455 l -6.077371254627628,3.508771929824563 l -8.919545891879429e-15,-7.0175438596491135 l 6.077371254627627,-3.508771929824566 l -8.919545891879429e-15,-7.0175438596491135 l -6.077371254627636,-3.50877192982455 l 4.94372912160015e-15,7.0175438596491135 l -6.077371254627628,3.508771929824563 l -8.919545891879429e-15,-7.0175438596491135 l -8.919545891879429e-15,-7.0175438596491135 l 6.077371254627627,-3.508771929824566 l -8.919545891879429e-15,-7.0175438596491135 l -6.077371254627636,-3.50877192982455 l -6.077371254627636,-3.50877192982455 l 4.94372912160015e-15,7.0175438596491135 l 6.077371254627633,3.508771929824555 l -6.077371254627628,3.508771929824563 l -6.077371254627636,-3.50877192982455 l -8.919545891879429e-15,-7.0175438596491135 l -6.077371254627636,-3.50877192982455 l -6.077371254627636,-3.50877192982455 l 4.94372912160015e-15,7.0175438596491135 l 6.077371254627633,3.508771929824555 l -6.077371254627628,3.508771929824563 l -6.077371254627636,-3.50877192982455 l -6.077371254627628,3.508771929824563 l 4.94372912160015e-15,7.0175438596491135 l 4.94372912160015e-15,7.0175438596491135 l 6.077371254627631,-3.5087719298245563 l 2.1485031563988625e-15,-7.0175438596491135 l 6.077371254627633,3.508771929824555 l 4.94372912160015e-15,7.0175438596491135 l 6.077371254627633,3.508771929824555 l 6.077371254627631,-3.5087719298245563 l -6.0773712546276295,-3.5087719298245608 l 2.1485031563988625e-15,-7.0175438596491135 l 6.077371254627633,3.508771929824555 l 6.077371254627633,3.508771929824555 l 4.94372912160015e-15,7.0175438596491135 l -6.077371254627628,3.508771929824563 l 4.94372912160015e-15,7.0175438596491135 l 6.077371254627631,-3.5087719298245563 l 6.077371254627633,3.508771929824555 l -6.077371254627628,3.508771929824563 l -6.077371254627628,3.508771929824563 l -6.077371254627636,-3.50877192982455 l -8.919545891879429e-15,-7.0175438596491135 l -6.077371254627636,-3.50877192982455 l -6.077371254627636,-3.50877192982455 l 4.94372912160015e-15,7.0175438596491135 l 6.077371254627633,3.508771929824555 l -6.077371254627628,3.508771929824563 l -6.077371254627636,-3.50877192982455 l -6.077371254627628,3.508771929824563 l 4.94372912160015e-15,7.0175438596491135 l 6.077371254627631,-3.5087719298245563 l 6.077371254627633,3.508771929824555 l -6.077371254627628,3.508771929824563 l -6.077371254627628,3.508771929824563 l -6.077371254627636,-3.50877192982455 l -6.077371254627628,3.508771929824563 l 4.94372912160015e-15,7.0175438596491135 l 4.94372912160015e-15,7.0175438596491135 l 6.077371254627631,-3.5087719298245563 l 2.1485031563988625e-15,-7.0175438596491135 l 6.077371254627633,3.508771929824555 l 4.94372912160015e-15,7.0175438596491135 l 6.077371254627633,3.508771929824555 l 6.077371254627631,-3.5087719298245563 l 6.077371254627631,-3.5087719298245563 l -6.0773712546276295,-3.5087719298245608 l -6.077371254627635,3.5087719298245506 l 2.1485031563988625e-15,-7.0175438596491135 l 6.077371254627631,-3.5087719298245563 l 6.077371254627633,3.508771929824555 l 6.077371254627631,-3.5087719298245563 l -6.0773712546276295,-3.5087719298245608 l 2.1485031563988625e-15,-7.0175438596491135 l 6.077371254627633,3.508771929824555 l 6.077371254627633,3.508771929824555 l 4.94372912160015e-15,7.0175438596491135 l -6.077371254627628,3.508771929824563 l 4.94372912160015e-15,7.0175438596491135 l 6.077371254627631,-3.5087719298245563 l 6.077371254627633,3.508771929824555 l -6.077371254627628,3.508771929824563 l -6.077371254627628,3.508771929824563 l -6.077371254627636,-3.50877192982455 l -6.077371254627628,3.508771929824563 l 4.94372912160015e-15,7.0175438596491135 l 6.077371254627631,-3.5087719298245563 l 6.077371254627633,3.508771929824555 l -6.077371254627628,3.508771929824563 l -6.077371254627628,3.508771929824563 l -6.077371254627636,-3.50877192982455 l -8.919545891879429e-15,-7.0175438596491135 l -6.077371254627636,-3.50877192982455 l -6.077371254627636,-3.50877192982455 l 4.94372912160015e-15,7.0175438596491135 l 6.077371254627633,3.508771929824555 l -6.077371254627628,3.508771929824563 l -6.077371254627636,-3.50877192982455 l -8.919545891879429e-15,-7.0175438596491135 l -6.077371254627636,-3.50877192982455 l 4.94372912160015e-15,7.0175438596491135 l -6.077371254627628,3.508771929824563 l -8.919545891879429e-15,-7.0175438596491135 l -8.919545891879429e-15,-7.0175438596491135 l 6.077371254627627,-3.508771929824566 l -8.919545891879429e-15,-7.0175438596491135 l -6.077371254627636,-3.50877192982455 l -6.077371254627636,-3.50877192982455 l 4.94372912160015e-15,7.0175438596491135 l 6.077371254627633,3.508771929824555 l -6.077371254627628,3.508771929824563 l -6.077371254627636,-3.50877192982455 l -6.077371254627628,3.508771929824563 l 4.94372912160015e-15,7.0175438596491135 l 4.94372912160015e-15,7.0175438596491135 l 6.077371254627631,-3.5087719298245563 l 2.1485031563988625e-15,-7.0175438596491135 l 6.077371254627633,3.508771929824555 l 4.94372912160015e-15,7.0175438596491135 l -6.077371254627628,3.508771929824563 l 4.94372912160015e-15,7.0175438596491135 l 6.077371254627631,-3.5087719298245563 l 6.077371254627633,3.508771929824555 l -6.077371254627628,3.508771929824563 l -6.077371254627628,3.508771929824563 l -6.077371254627636,-3.50877192982455 l -8.919545891879429e-15,-7.0175438596491135 l -6.077371254627636,-3.50877192982455 l 4.94372912160015e-15,7.0175438596491135 l -6.077371254627628,3.508771929824563 l -8.919545891879429e-15,-7.0175438596491135 l -8.919545891879429e-15,-7.0175438596491135 l 6.077371254627627,-3.508771929824566 l -8.919545891879429e-15,-7.0175438596491135 l -6.077371254627636,-3.50877192982455 l 4.94372912160015e-15,7.0175438596491135 l -6.077371254627628,3.508771929824563 l -8.919545891879429e-15,-7.0175438596491135 l -8.919545891879429e-15,-7.0175438596491135 l 6.077371254627627,-3.508771929824566 l 6.0773712546276375,3.5087719298245474 l 6.077371254627627,-3.508771929824566 l 6.077371254627627,-3.508771929824566 l -6.077371254627636,-3.50877192982455 l -6.077371254627628,3.508771929824563 l -8.919545891879429e-15,-7.0175438596491135 l 6.077371254627627,-3.508771929824566 l 6.0773712546276375,3.5087719298245474 l 6.077371254627627,-3.508771929824566 l -6.077371254627636,-3.50877192982455 l -8.919545891879429e-15,-7.0175438596491135 l 6.0773712546276375,3.5087719298245474 l 6.0773712546276375,3.5087719298245474 l 1.2895362662158706e-14,7.0175438596491135 l 6.0773712546276375,3.5087719298245474 l 6.077371254627627,-3.508771929824566 l 6.077371254627627,-3.508771929824566 l -6.077371254627636,-3.50877192982455 l -6.077371254627628,3.508771929824563 l -8.919545891879429e-15,-7.0175438596491135 l 6.077371254627627,-3.508771929824566 l 6.0773712546276375,3.5087719298245474 l 6.077371254627627,-3.508771929824566 l 6.077371254627627,-3.508771929824566 l -6.077371254627636,-3.50877192982455 l -6.077371254627628,3.508771929824563 l -8.919545891879429e-15,-7.0175438596491135 l 6.077371254627627,-3.508771929824566 l -8.919545891879429e-15,-7.0175438596491135 l -6.077371254627636,-3.50877192982455 l -6.077371254627636,-3.50877192982455 l 4.94372912160015e-15,7.0175438596491135 l 6.077371254627633,3.508771929824555 l -6.077371254627628,3.508771929824563 l -6.077371254627636,-3.50877192982455 l -6.077371254627628,3.508771929824563 l 4.94372912160015e-15,7.0175438596491135 l 6.077371254627631,-3.5087719298245563 l 6.077371254627633,3.508771929824555 l -6.077371254627628,3.508771929824563 l -6.077371254627628,3.508771929824563 l -6.077371254627636,-3.50877192982455 l -8.919545891879429e-15,-7.0175438596491135 l -6.077371254627636,-3.50877192982455 l 4.94372912160015e-15,7.0175438596491135 l -6.077371254627628,3.508771929824563 l -8.919545891879429e-15,-7.0175438596491135 l -8.919545891879429e-15,-7.0175438596491135 l 6.077371254627627,-3.508771929824566 l 6.0773712546276375,3.5087719298245474 l 6.077371254627627,-3.508771929824566 l 6.077371254627627,-3.508771929824566 l -6.077371254627636,-3.50877192982455 l -6.077371254627628,3.508771929824563 l -8.919545891879429e-15,-7.0175438596491135 l 6.077371254627627,-3.508771929824566 "/></g></svg>