<?xml version="1.0" encoding="UTF-8"?>
<!DOCTYPE svg PUBLIC "-//W3C//DTD SVG 1.1//EN"
    "http://www.w3.org/Graphics/SVG/1.1/DTD/svg11.dtd"><svg xmlns="http://www.w3.org/2000/svg" height="128.0487804878049" stroke-opacity="1" viewBox="0 0 400 128" font-size="1" width="400.0" xmlns:xlink="http://www.w3.org/1999/xlink" stroke="rgb(0,0,0)" version="1.1"><g><defs></defs><g stroke-linejoin="miter" stroke-opacity="1.0" fill-opacity="0.0" stroke="rgb(0,0,0)" stroke-width="0.905269128558989" fill="rgb(0,0,0)" stroke-linecap="butt" stroke-miterlimit="10.0"><path d="M 204.4345898004435,64.02439024390245 l 2.771618625277162,7.692787033156573e-17 l 2.4664056422670894e-16,-2.771618625277162 l 2.771618625277162,7.692787033156573e-17 l 1.8556964712715494e-16,5.543237250554324 l 2.771618625277162,7.692787033156573e-17 l 2.4664056422670894e-16,-2.771618625277162 l 2.771618625277162,7.692787033156573e-17 l 2.4664056422670894e-16,-2.771618625277162 l -2.771618625277162,-4.1635325812185216e-16 l 2.4664056422670894e-16,-2.771618625277162 l 5.543237250554324,1.5385574066313147e-16 l 2.4664056422670894e-16,-2.771618625277162 l -2.771618625277162,-4.1635325812185216e-16 l 2.4664056422670894e-16,-2.771618625277162 l 2.771618625277162,7.692787033156573e-17 l 2.4664056422670894e-16,-2.771618625277162 l 2.771618625277162,7.692787033156573e-17 l 1.8556964712715494e-16,5.543237250554324 l 2.771618625277162,7.692787033156573e-17 l 2.4664056422670894e-16,-2.771618625277162 l 2.771618625277162,7.692787033156573e-17 l 1.8556964712715494e-16,5.543237250554324 l 5.543237250554324,1.5385574066313147e-16 l 1.8556964712715494e-16,5.543237250554324 l -11.086474501108649,1.0499900698348827e-15 l 1.8556964712715494e-16,5.543237250554324 l 5.543237250554324,1.5385574066313147e-16 l 1.8556964712715494e-16,5.543237250554324 l 2.771618625277162,7.692787033156573e-17 l 2.4664056422670894e-16,-2.771618625277162 l 2.771618625277162,7.692787033156573e-17 l 1.8556964712715494e-16,5.543237250554324 l 2.771618625277162,7.692787033156573e-17 l 2.4664056422670894e-16,-2.771618625277162 l 2.771618625277162,7.692787033156573e-17 l 2.4664056422670894e-16,-2.771618625277162 l -2.771618625277162,-4.1635325812185216e-16 l 2.4664056422670894e-16,-2.771618625277162 l 5.543237250554324,1.5385574066313147e-16 l 2.4664056422670894e-16,-2.771618625277162 l -2.771618625277162,-4.1635325812185216e-16 l 2.4664056422670894e-16,-2.771618625277162 l 2.771618625277162,7.692787033156573e-17 l 2.4664056422670894e-16,-2.771618625277162 l 2.771618625277162,7.692787033156573e-17 l 1.8556964712715494e-16,5.543237250554324 l 2.771618625277162,7.692787033156573e-17 l 2.4664056422670894e-16,-2.771618625277162 l 2.771618625277162,7.692787033156573e-17 l 1.697126938951432e-16,-2.771618625277162 l -2.771618625277162,-3.394253877902864e-16 l 1.697126938951432e-16,-2.771618625277162 h 5.543237250554324 l 1.697126938951432e-16,-2.771618625277162 l -2.771618625277162,-3.394253877902864e-16 l 1.697126938951432e-16,-2.771618625277162 l -2.771618625277162,-3.394253877902864e-16 l -5.091380816854296e-16,2.771618625277162 l -2.771618625277162,-3.394253877902864e-16 l 3.394253877902864e-16,-5.543237250554324 l -2.771618625277162,-3.394253877902864e-16 l -5.091380816854296e-16,2.771618625277162 l -2.771618625277162,-3.394253877902864e-16 l 1.697126938951432e-16,-2.771618625277162 l -2.771618625277162,-3.394253877902864e-16 l 1.697126938951432e-16,-2.771618625277162 h 5.543237250554324 l 1.697126938951432e-16,-2.771618625277162 l -2.771618625277162,-3.394253877902864e-16 l 1.697126938951432e-16,-2.771618625277162 h 5.543237250554324 l 3.394253877902864e-16,-5.543237250554324 h 5.543237250554324 l 6.788507755805728e-16,11.086474501108649 h 5.543237250554324 l 3.394253877902864e-16,-5.543237250554324 h 5.543237250554324 l 1.697126938951432e-16,-2.771618625277162 l -2.771618625277162,-3.394253877902864e-16 l 1.697126938951432e-16,-2.771618625277162 h 5.543237250554324 l 1.697126938951432e-16,-2.771618625277162 l -2.771618625277162,-3.394253877902864e-16 l 1.697126938951432e-16,-2.771618625277162 l -2.771618625277162,-3.394253877902864e-16 l -5.091380816854296e-16,2.771618625277162 l -2.771618625277162,-3.394253877902864e-16 l 3.394253877902864e-16,-5.543237250554324 l -2.771618625277162,-3.394253877902864e-16 l -5.091380816854296e-16,2.771618625277162 l -2.771618625277162,-3.394253877902864e-16 l 1.697126938951432e-16,-2.771618625277162 l -2.771618625277162,-3.394253877902864e-16 l 1.697126938951432e-16,-2.771618625277162 h 5.543237250554324 l 1.697126938951432e-16,-2.771618625277162 l -2.771618625277162,-3.394253877902864e-16 l 1.697126938951432e-16,-2.771618625277162 l 2.771618625277162,7.692787033156573e-17 l 2.4664056422670894e-16,-2.771618625277162 l 2.771618625277162,7.692787033156573e-17 l 1.8556964712715494e-16,5.543237250554324 l 2.771618625277162,7.692787033156573e-17 l 2.4664056422670894e-16,-2.771618625277162 l 2.771618625277162,7.692787033156573e-17 l 2.4664056422670894e-16,-2.771618625277162 l -2.771618625277162,-4.1635325812185216e-16 l 2.4664056422670894e-16,-2.771618625277162 l 5.543237250554324,1.5385574066313147e-16 l 2.4664056422670894e-16,-2.771618625277162 l -2.771618625277162,-4.1635325812185216e-16 l 2.4664056422670894e-16,-2.771618625277162 l 2.771618625277162,7.692787033156573e-17 l 2.4664056422670894e-16,-2.771618625277162 l 2.771618625277162,7.692787033156573e-17 l 1.8556964712715494e-16,5.543237250554324 l 2.771618625277162,7.692787033156573e-17 l 2.4664056422670894e-16,-2.771618625277162 l 2.771618625277162,7.692787033156573e-17 l 1.8556964712715494e-16,5.543237250554324 l 5.543237250554324,1.5385574066313147e-16 l 1.8556964712715494e-16,5.543237250554324 l -11.086474501108649,1.0499900698348827e-15 l 1.8556964712715494e-16,5.543237250554324 l 5.543237250554324,1.5385574066313147e-16 l 1.8556964712715494e-16,5.543237250554324 l 2.771618625277162,7.692787033156573e-17 l 2.4664056422670894e-16,-2.771618625277162 l 2.771618625277162,7.692787033156573e-17 l 1.8556964712715494e-16,5.543237250554324 l 2.771618625277162,7.692787033156573e-17 l 2.4664056422670894e-16,-2.771618625277162 l 2.771618625277162,7.692787033156573e-17 l 2.4664056422670894e-16,-2.771618625277162 l -2.771618625277162,-4.1635325812185216e-16 l 2.4664056422670894e-16,-2.771618625277162 l 5.543237250554324,1.5385574066313147e-16 l 2.4664056422670894e-16,-2.771618625277162 l -2.771618625277162,-4.1635325812185216e-16 l 2.4664056422670894e-16,-2.771618625277162 l 2.771618625277162,7.692787033156573e-17 l 2.4664056422670894e-16,-2.771618625277162 l 2.771618625277162,7.692787033156573e-17 l 1.8556964712715494e-16,5.543237250554324 l 2.771618625277162,7.692787033156573e-17 l 2.4664056422670894e-16,-2.771618625277162 l 2.771618625277162,7.692787033156573e-17 l 3.394253877902864e-16,5.543237250554324 h 5.543237250554324 l 3.394253877902864e-16,5.543237250554324 l -11.086474501108649,1.3577015511611455e-15 l 3.394253877902864e-16,5.543237250554324 h 5.543237250554324 l 3.394253877902864e-16,5.543237250554324 h 5.543237250554324 l 3.394253877902864e-16,-5.543237250554324 h 5.543237250554324 l 6.788507755805728e-16,11.086474501108649 h 5.543237250554324 l 3.394253877902864e-16,-5.543237250554324 h 5.543237250554324 l 3.394253877902864e-16,5.543237250554324 h 5.543237250554324 l 3.394253877902864e-16,5.543237250554324 l -11.086474501108649,1.3577015511611455e-15 l 3.394253877902864e-16,5.543237250554324 h 5.543237250554324 l 3.394253877902864e-16,5.543237250554324 l -11.086474501108649,1.3577015511611455e-15 l 6.788507755805728e-16,11.086474501108649 l -11.086474501108649,1.3577015511611455e-15 l -4.073104653483437e-15,-22.172949002217297 l -11.086474501108649,1.3577015511611455e-15 l 6.788507755805728e-16,11.086474501108649 l -11.086474501108649,1.3577015511611455e-15 l 3.394253877902864e-16,5.543237250554324 h 5.543237250554324 l 3.394253877902864e-16,5.543237250554324 l -11.086474501108649,1.3577015511611455e-15 l 3.394253877902864e-16,5.543237250554324 h 5.543237250554324 l 3.394253877902864e-16,5.543237250554324 h 5.543237250554324 l 3.394253877902864e-16,-5.543237250554324 h 5.543237250554324 l 6.788507755805728e-16,11.086474501108649 h 5.543237250554324 l 3.394253877902864e-16,-5.543237250554324 h 5.543237250554324 l 3.394253877902864e-16,5.543237250554324 h 5.543237250554324 l 3.394253877902864e-16,5.543237250554324 l -11.086474501108649,1.3577015511611455e-15 l 3.394253877902864e-16,5.543237250554324 h 5.543237250554324 l 3.394253877902864e-16,5.543237250554324 l 2.771618625277162,7.692787033156573e-17 l 2.4664056422670894e-16,-2.771618625277162 l 2.771618625277162,7.692787033156573e-17 l 1.8556964712715494e-16,5.543237250554324 l 2.771618625277162,7.692787033156573e-17 l 2.4664056422670894e-16,-2.771618625277162 l 2.771618625277162,7.692787033156573e-17 l 2.4664056422670894e-16,-2.771618625277162 l -2.771618625277162,-4.1635325812185216e-16 l 2.4664056422670894e-16,-2.771618625277162 l 5.543237250554324,1.5385574066313147e-16 l 2.4664056422670894e-16,-2.771618625277162 l -2.771618625277162,-4.1635325812185216e-16 l 2.4664056422670894e-16,-2.771618625277162 l 2.771618625277162,7.692787033156573e-17 l 2.4664056422670894e-16,-2.771618625277162 l 2.771618625277162,7.692787033156573e-17 l 1.8556964712715494e-16,5.543237250554324 l 2.771618625277162,7.692787033156573e-17 l 2.4664056422670894e-16,-2.771618625277162 l 2.771618625277162,7.692787033156573e-17 l 1.8556964712715494e-16,5.543237250554324 l 5.543237250554324,1.5385574066313147e-16 l 1.8556964712715494e-16,5.543237250554324 l -11.086474501108649,1.0499900698348827e-15 l 1.8556964712715494e-16,5.543237250554324 l 5.543237250554324,1.5385574066313147e-16 l 1.8556964712715494e-16,5.543237250554324 l 2.771618625277162,7.692787033156573e-17 l 2.4664056422670894e-16,-2.771618625277162 l 2.771618625277162,7.692787033156573e-17 l 1.8556964712715494e-16,5.543237250554324 l 2.771618625277162,7.692787033156573e-17 l 2.4664056422670894e-16,-2.771618625277162 l 2.771618625277162,7.692787033156573e-17 l 2.4664056422670894e-16,-2.771618625277162 l -2.771618625277162,-4.1635325812185216e-16 l 2.4664056422670894e-16,-2.771618625277162 l 5.543237250554324,1.5385574066313147e-16 l 2.4664056422670894e-16,-2.771618625277162 l -2.771618625277162,-4.1635325812185216e-16 l 2.4664056422670894e-16,-2.771618625277162 l 2.771618625277162,7.692787033156573e-17 l 2.4664056422670894e-16,-2.771618625277162 l 2.771618625277162,7.692787033156573e-17 l 1.8556964712715494e-16,5.543237250554324 l 2.771618625277162,7.692787033156573e-17 l 2.4664056422670894e-16,-2.771618625277162 l 2.771618625277162,7.692787033156573e-17 l 1.697126938951432e-16,-2.771618625277162 l -2.771618625277162,-3.394253877902864e-16 l 1.697126938951432e-16,-2.771618625277162 h 5.543237250554324 l 1.697126938951432e-16,-2.771618625277162 l -2.771618625277162,-3.394253877902864e-16 l 1.697126938951432e-16,-2.771618625277162 l -2.771618625277162,-3.394253877902864e-16 l -5.091380816854296e-16,2.771618625277162 l -2.771618625277162,-3.394253877902864e-16 l 3.394253877902864e-16,-5.543237250554324 l -2.771618625277162,-3.394253877902864e-16 l -5.091380816854296e-16,2.771618625277162 l -2.771618625277162,-3.394253877902864e-16 l 1.697126938951432e-16,-2.771618625277162 l -2.771618625277162,-3.394253877902864e-16 l 1.697126938951432e-16,-2.771618625277162 h 5.543237250554324 l 1.697126938951432e-16,-2.771618625277162 l -2.771618625277162,-3.394253877902864e-16 l 1.697126938951432e-16,-2.771618625277162 h 5.543237250554324 l 3.394253877902864e-16,-5.543237250554324 h 5.543237250554324 l 6.788507755805728e-16,11.086474501108649 h 5.543237250554324 l 3.394253877902864e-16,-5.543237250554324 h 5.543237250554324 l 1.697126938951432e-16,-2.771618625277162 l -2.771618625277162,-3.394253877902864e-16 l 1.697126938951432e-16,-2.771618625277162 h 5.543237250554324 l 1.697126938951432e-16,-2.771618625277162 l -2.771618625277162,-3.394253877902864e-16 l 1.697126938951432e-16,-2.771618625277162 l -2.771618625277162,-3.394253877902864e-16 l -5.091380816854296e-16,2.771618625277162 l -2.771618625277162,-3.394253877902864e-16 l 3.394253877902864e-16,-5.543237250554324 l -2.771618625277162,-3.394253877902864e-16 l -5.091380816854296e-16,2.771618625277162 l -2.771618625277162,-3.394253877902864e-16 l 1.697126938951432e-16,-2.771618625277162 l -2.771618625277162,-3.394253877902864e-16 l 1.697126938951432e-16,-2.771618625277162 h 5.543237250554324 l 1.697126938951432e-16,-2.771618625277162 l -2.771618625277162,-3.394253877902864e-16 l 1.697126938951432e-16,-2.771618625277162 l 2.771618625277162,7.692787033156573e-17 l 2.4664056422670894e-16,-2.771618625277162 l 2.771618625277162,7.692787033156573e-17 l 1.8556964712715494e-16,5.543237250554324 l 2.771618625277162,7.692787033156573e-17 l 2.4664056422670894e-16,-2.771618625277162 l 2.771618625277162,7.692787033156573e-17 l 2.4664056422670894e-16,-2.771618625277162 l -2.771618625277162,-4.1635325812185216e-16 l 2.4664056422670894e-16,-2.771618625277162 l 5.543237250554324,1.5385574066313147e-16 l 2.4664056422670894e-16,-2.771618625277162 l -2.771618625277162,-4.1635325812185216e-16 l 2.4664056422670894e-16,-2.771618625277162 l 2.771618625277162,7.692787033156573e-17 l 2.4664056422670894e-16,-2.771618625277162 l 2.771618625277162,7.692787033156573e-17 l 1.8556964712715494e-16,5.543237250554324 l 2.771618625277162,7.692787033156573e-17 l 2.4664056422670894e-16,-2.771618625277162 l 2.771618625277162,7.692787033156573e-17 l 1.8556964712715494e-16,5.543237250554324 l 5.543237250554324,1.5385574066313147e-16 l 1.8556964712715494e-16,5.543237250554324 l -11.086474501108649,1.0499900698348827e-15 l 1.8556964712715494e-16,5.543237250554324 l 5.543237250554324,1.5385574066313147e-16 l 1.8556964712715494e-16,5.543237250554324 l 2.771618625277162,7.692787033156573e-17 l 2.4664056422670894e-16,-2.771618625277162 l 2.771618625277162,7.692787033156573e-17 l 1.8556964712715494e-16,5.543237250554324 l 2.771618625277162,7.692787033156573e-17 l 2.4664056422670894e-16,-2.771618625277162 l 2.771618625277162,7.692787033156573e-17 l 2.4664056422670894e-16,-2.771618625277162 l -2.771618625277162,-4.1635325812185216e-16 l 2.4664056422670894e-16,-2.771618625277162 l 5.543237250554324,1.5385574066313147e-16 l 2.4664056422670894e-16,-2.771618625277162 l -2.771618625277162,-4.1635325812185216e-16 l 2.4664056422670894e-16,-2.771618625277162 l 2.771618625277162,7.692787033156573e-17 l 2.4664056422670894e-16,-2.771618625277162 l 2.771618625277162,7.692787033156573e-17 l 1.8556964712715494e-16,5.543237250554324 l 2.771618625277162,7.692787033156573e-17 l 2.4664056422670894e-16,-2.771618625277162 l 2.771618625277162,7.692787033156573e-17 "/></g><defs></defs><g stroke-linejoin="miter" stroke-opacity="1.0" fill-opacity="0.0" stroke="rgb(0,0,0)" stroke-width="0.905269128558989" fill="rgb(0,0,0)" stroke-linecap="butt" stroke-miterlimit="10.0"><path d="M 18.181818181818187,64.02439024390245 h 44.345898004434595 l 2.715403102322291e-15,-44.345898004434595 h 44.345898004434595 l 5.430806204644582e-15,88.69179600886919 h 44.345898004434595 l 2.715403102322291e-15,-44.345898004434595 h 44.345898004434595 "/></g></g></svg>