<?xml version="1.0" encoding="UTF-8"?>
<!DOCTYPE svg PUBLIC "-//W3C//DTD SVG 1.1//EN"
    "http://www.w3.org/Graphics/SVG/1.1/DTD/svg11.dtd"><svg xmlns="http://www.w3.org/2000/svg" height="162.7707010280085" stroke-opacity="1" viewBox="0 0 400 163" font-size="1" width="400.0" xmlns:xlink="http://www.w3.org/1999/xlink" stroke="rgb(0,0,0)" version="1.1"><defs></defs><defs></defs><g stroke-linejoin="miter" stroke-opacity="1.0" fill-opacity="0.0" stroke="rgb(0,0,0)" stroke-width="1.0206529706904568" fill="rgb(0,0,0)" stroke-linecap="butt" stroke-miterlimit="10.0"><path d="M 257.79122541603635,132.04543464864616 l -3.0257186081694383,1.746899452918687 l -3.025718608169438,1.7468994529186879 l -1.5116501091719226e-15,-3.4937989058373717 l -5.66868790939471e-16,-3.4937989058373717 l -3.0257186081694396,1.7468994529186879 l -3.0257186081694396,1.7468994529186863 l -5.66868790939471e-16,-3.4937989058373717 l -1.5116501091719226e-15,-3.4937989058373713 l 3.0257186081694387,1.7468994529186843 l 3.0257186081694387,1.7468994529186843 l -1.5116501091719226e-15,-3.4937989058373713 l -5.66868790939471e-16,-3.4937989058373717 l -3.0257186081694396,1.7468994529186863 l -3.0257186081694396,1.7468994529186879 l -5.66868790939471e-16,-3.4937989058373717 l -1.5116501091719226e-15,-3.4937989058373717 l -3.025718608169438,1.7468994529186879 l -3.0257186081694383,1.746899452918687 l -1.3226938455254323e-15,-3.4937989058373713 l -2.834343954697355e-15,-3.4937989058373713 l 3.025718608169439,1.7468994529186843 l 3.0257186081694387,1.7468994529186843 l -2.267475163757884e-15,-3.4937989058373717 l -5.66868790939471e-16,-3.4937989058373717 l 3.0257186081694387,1.7468994529186843 l 3.025718608169439,1.7468994529186843 l -3.025718608169439,1.7468994529186856 l -3.025718608169441,1.7468994529186856 l 3.0257186081694405,1.7468994529186859 l 3.02571860816944,1.7468994529186868 l 7.558250545859613e-16,-3.4937989058373726 l -9.447813182324517e-16,-3.4937989058373735 l 3.02571860816944,1.7468994529186868 l 3.025718608169441,1.7468994529186868 l -1.3226938455254323e-15,-3.4937989058373735 l -1.8895626364649033e-16,-3.4937989058373726 l -3.0257186081694414,1.746899452918687 l -3.02571860816944,1.7468994529186874 l -3.7791252729298066e-16,-3.4937989058373735 l 3.7791252729298066e-16,-3.4937989058373735 l -3.025718608169441,1.7468994529186874 l -3.025718608169441,1.7468994529186856 l 3.7791252729298066e-16,-3.4937989058373735 l -5.66868790939471e-16,-3.4937989058373726 l 3.02571860816944,1.7468994529186868 l 3.02571860816944,1.7468994529186868 l -5.66868790939471e-16,-3.4937989058373726 l 3.7791252729298066e-16,-3.4937989058373735 l -3.025718608169441,1.7468994529186856 l -3.025718608169441,1.7468994529186874 l 3.7791252729298066e-16,-3.4937989058373735 l -3.7791252729298066e-16,-3.4937989058373735 l -3.02571860816944,1.7468994529186874 l -3.0257186081694414,1.746899452918687 l -9.447813182324517e-16,-3.4937989058373713 l -1.5116501091719226e-15,-3.4937989058373713 l 3.02571860816944,1.7468994529186859 l 3.025718608169439,1.7468994529186859 l -9.447813182324517e-16,-3.4937989058373726 l 3.7791252729298066e-16,-3.4937989058373717 l 3.025718608169439,1.7468994529186859 l 3.02571860816944,1.7468994529186852 l -3.025718608169439,1.7468994529186852 l -3.025718608169439,1.7468994529186852 l 3.02571860816944,1.7468994529186852 l 3.025718608169439,1.7468994529186859 l 3.7791252729298066e-16,-3.4937989058373717 l -9.447813182324517e-16,-3.4937989058373726 l 3.025718608169439,1.7468994529186859 l 3.02571860816944,1.7468994529186859 l -1.5116501091719226e-15,-3.4937989058373713 l -9.447813182324517e-16,-3.4937989058373713 l 3.02571860816944,1.7468994529186852 l 3.02571860816944,1.7468994529186836 l -3.0257186081694387,1.7468994529186856 l -3.025718608169439,1.7468994529186852 l 3.025718608169441,1.7468994529186852 l 3.025718608169439,1.7468994529186859 l -3.025718608169439,1.7468994529186852 l -3.0257186081694387,1.7468994529186863 l 5.66868790939471e-16,-3.4937989058373717 l 9.447813182324517e-16,-3.4937989058373717 l -3.0257186081694387,1.7468994529186856 l -3.0257186081694387,1.7468994529186843 l 3.0257186081694387,1.7468994529186859 l 3.02571860816944,1.7468994529186852 l -3.0257186081694387,1.7468994529186843 l -3.025718608169439,1.7468994529186852 l 3.025718608169439,1.7468994529186843 l 3.025718608169439,1.7468994529186852 l -5.66868790939471e-16,-3.4937989058373704 l -1.700606372818413e-15,-3.4937989058373713 l 3.02571860816944,1.7468994529186859 l 3.0257186081694387,1.7468994529186859 l -5.66868790939471e-16,-3.4937989058373726 l 7.558250545859613e-16,-3.4937989058373713 l 3.0257186081694387,1.7468994529186859 l 3.025718608169439,1.7468994529186843 l -3.0257186081694387,1.7468994529186843 l -3.0257186081694387,1.7468994529186843 l 3.025718608169439,1.7468994529186843 l 3.0257186081694387,1.7468994529186859 l 7.558250545859613e-16,-3.4937989058373713 l -5.66868790939471e-16,-3.4937989058373726 l 3.0257186081694387,1.7468994529186859 l 3.02571860816944,1.7468994529186859 l -1.700606372818413e-15,-3.4937989058373713 l -5.66868790939471e-16,-3.4937989058373704 l -3.0257186081694405,1.7468994529186868 l -3.02571860816944,1.746899452918687 l 3.7791252729298066e-16,-3.4937989058373735 l 1.3226938455254323e-15,-3.4937989058373726 l -3.0257186081694414,1.746899452918687 l -3.0257186081694405,1.7468994529186848 l 1.3226938455254323e-15,-3.4937989058373726 l 1.8895626364649033e-16,-3.4937989058373717 l 3.0257186081694396,1.746899452918687 l 3.0257186081694396,1.746899452918687 l 1.8895626364649033e-16,-3.4937989058373717 l 1.3226938455254323e-15,-3.4937989058373726 l -3.0257186081694405,1.7468994529186848 l -3.0257186081694414,1.746899452918687 l 1.3226938455254323e-15,-3.4937989058373726 l 3.7791252729298066e-16,-3.4937989058373735 l -3.02571860816944,1.746899452918687 l -3.0257186081694405,1.7468994529186868 l 3.7791252729298066e-16,-3.4937989058373717 l -9.447813182324517e-16,-3.4937989058373726 l 3.02571860816944,1.7468994529186868 l 3.0257186081694396,1.746899452918687 l -5.66868790939471e-16,-3.4937989058373726 l 1.3226938455254323e-15,-3.4937989058373726 l 3.0257186081694396,1.746899452918687 l 3.02571860816944,1.7468994529186863 l -3.0257186081694405,1.7468994529186848 l -3.025718608169439,1.7468994529186852 l 3.0257186081694387,1.7468994529186843 l 3.0257186081694383,1.7468994529186852 l -1.8895626364649033e-16,-3.4937989058373704 l -1.700606372818413e-15,-3.4937989058373713 l 3.0257186081694383,1.7468994529186852 l 3.0257186081694387,1.7468994529186843 l -1.700606372818413e-15,-3.4937989058373713 l -9.447813182324517e-16,-3.4937989058373704 l -3.0257186081694387,1.7468994529186868 l -3.025718608169437,1.7468994529186863 l -1.3226938455254323e-15,-3.4937989058373713 l -5.66868790939471e-16,-3.4937989058373704 l -3.0257186081694387,1.7468994529186874 l -3.025718608169439,1.7468994529186852 l -5.66868790939471e-16,-3.4937989058373704 l -1.700606372818413e-15,-3.4937989058373713 l 3.0257186081694383,1.7468994529186852 l 3.0257186081694383,1.7468994529186852 l -1.700606372818413e-15,-3.4937989058373713 l -5.66868790939471e-16,-3.4937989058373704 l -3.025718608169439,1.7468994529186852 l -3.0257186081694387,1.7468994529186874 l -5.66868790939471e-16,-3.4937989058373704 l -1.3226938455254323e-15,-3.4937989058373713 l -3.025718608169437,1.7468994529186863 l -3.0257186081694387,1.7468994529186868 l -9.447813182324517e-16,-3.4937989058373713 l -1.700606372818413e-15,-3.4937989058373713 l 3.02571860816944,1.7468994529186859 l 3.02571860816944,1.7468994529186859 l -9.447813182324517e-16,-3.4937989058373726 l 5.66868790939471e-16,-3.4937989058373717 l 3.02571860816944,1.7468994529186859 l 3.02571860816944,1.7468994529186852 l -3.025718608169439,1.7468994529186852 l -3.025718608169439,1.7468994529186852 l 3.02571860816944,1.7468994529186852 l 3.02571860816944,1.7468994529186859 l 5.66868790939471e-16,-3.4937989058373717 l -9.447813182324517e-16,-3.4937989058373726 l 3.02571860816944,1.7468994529186859 l 3.02571860816944,1.7468994529186859 l -1.700606372818413e-15,-3.4937989058373713 l -9.447813182324517e-16,-3.4937989058373713 l 3.02571860816944,1.7468994529186852 l 3.0257186081694405,1.7468994529186836 l -3.0257186081694387,1.7468994529186856 l -3.025718608169439,1.7468994529186852 l 3.025718608169441,1.7468994529186852 l 3.025718608169439,1.7468994529186859 l -3.025718608169439,1.7468994529186852 l -3.0257186081694387,1.7468994529186863 l 9.447813182324517e-16,-3.4937989058373713 l 1.8895626364649035e-15,-3.4937989058373735 l -3.025718608169441,1.7468994529186859 l -3.0257186081694414,1.7468994529186852 l 3.02571860816944,1.7468994529186874 l 3.0257186081694414,1.7468994529186868 l -3.0257186081694414,1.7468994529186852 l -3.025718608169441,1.7468994529186856 l 3.0257186081694414,1.7468994529186859 l 3.0257186081694405,1.746899452918687 l 3.7791252729298066e-16,-3.4937989058373735 l -5.66868790939471e-16,-3.4937989058373726 l 3.025718608169441,1.7468994529186868 l 3.02571860816944,1.7468994529186874 l 1.8895626364649033e-16,-3.4937989058373735 l 1.8895626364649035e-15,-3.4937989058373735 l 3.02571860816944,1.7468994529186874 l 3.025718608169441,1.7468994529186868 l -3.0257186081694414,1.7468994529186852 l -3.0257186081694414,1.7468994529186852 l 3.025718608169441,1.7468994529186868 l 3.02571860816944,1.7468994529186874 l 1.8895626364649035e-15,-3.4937989058373735 l 1.8895626364649033e-16,-3.4937989058373735 l 3.02571860816944,1.7468994529186874 l 3.025718608169441,1.7468994529186868 l -5.66868790939471e-16,-3.4937989058373726 l 3.7791252729298066e-16,-3.4937989058373735 l 3.02571860816944,1.7468994529186859 l 3.02571860816944,1.7468994529186852 l -3.02571860816944,1.7468994529186859 l -3.02571860816944,1.7468994529186852 l 3.025718608169441,1.7468994529186868 l 3.025718608169439,1.7468994529186874 l -3.02571860816944,1.7468994529186852 l -3.0257186081694396,1.7468994529186859 l 1.133737581878942e-15,-3.4937989058373704 l 1.133737581878942e-15,-3.4937989058373704 l -3.0257186081694396,1.7468994529186859 l -3.02571860816944,1.7468994529186852 l 3.025718608169439,1.7468994529186874 l 3.025718608169441,1.7468994529186868 l -3.02571860816944,1.7468994529186852 l -3.02571860816944,1.7468994529186859 l 3.02571860816944,1.7468994529186852 l 3.02571860816944,1.7468994529186859 l -3.0257186081694396,1.7468994529186859 l -3.025718608169439,1.7468994529186868 l 5.66868790939471e-16,-3.4937989058373704 l 1.133737581878942e-15,-3.4937989058373704 l -3.0257186081694396,1.7468994529186863 l -3.0257186081694405,1.7468994529186852 l 1.133737581878942e-15,-3.4937989058373704 l 1.8895626364649033e-16,-3.4937989058373704 l 3.025718608169439,1.7468994529186874 l 3.025718608169443,1.746899452918689 l -1.8895626364649033e-16,-3.493798905837375 l 9.447813182324517e-16,-3.493798905837375 l -3.0257186081694436,1.7468994529186874 l -3.0257186081694436,1.746899452918689 l 9.447813182324517e-16,-3.493798905837375 l 3.7791252729298066e-16,-3.493798905837375 l -3.0257186081694427,1.746899452918689 l -3.025718608169443,1.746899452918688 l 3.0257186081694436,1.7468994529186874 l 3.0257186081694436,1.746899452918687 l -3.0257186081694436,1.7468994529186885 l -3.0257186081694436,1.7468994529186874 l 3.0257186081694445,1.7468994529186879 l 3.025718608169443,1.7468994529186885 l -3.0257186081694436,1.7468994529186874 l -3.025718608169443,1.746899452918688 l 9.447813182324517e-16,-3.493798905837375 l 9.447813182324517e-16,-3.493798905837375 l -3.025718608169443,1.746899452918688 l -3.0257186081694436,1.7468994529186874 l 3.025718608169443,1.7468994529186885 l 3.0257186081694445,1.7468994529186879 l -3.0257186081694436,1.7468994529186874 l -3.0257186081694436,1.7468994529186885 l 3.0257186081694436,1.746899452918687 l 3.0257186081694436,1.7468994529186874 v -3.493798905837377 l -9.447813182324517e-16,-3.493798905837376 l 3.025718608169445,1.746899452918689 l 3.025718608169444,1.7468994529186896 l -1.8895626364649033e-16,-3.493798905837378 l 1.5116501091719226e-15,-3.493798905837376 l 3.025718608169444,1.7468994529186896 l 3.0257186081694445,1.746899452918689 l -3.025718608169444,1.7468994529186874 l -3.025718608169444,1.7468994529186874 l 3.0257186081694445,1.746899452918689 l 3.025718608169444,1.7468994529186896 l 1.5116501091719226e-15,-3.493798905837376 l -1.8895626364649033e-16,-3.493798905837378 l 3.025718608169444,1.7468994529186896 l 3.025718608169445,1.746899452918689 l -9.447813182324517e-16,-3.493798905837376 v -3.493798905837377 l 3.0257186081694445,1.746899452918689 l 3.025718608169445,1.7468994529186874 l -3.0257186081694445,1.746899452918688 l -3.025718608169444,1.7468994529186874 l 3.025718608169445,1.7468994529186885 l 3.0257186081694436,1.7468994529186896 l -3.025718608169444,1.7468994529186874 l -3.0257186081694436,1.746899452918688 l 1.5116501091719226e-15,-3.493798905837376 l 7.558250545859613e-16,-3.493798905837375 l -3.025718608169442,1.7468994529186885 l -3.0257186081694427,1.7468994529186874 l 3.025718608169443,1.746899452918688 l 3.0257186081694445,1.7468994529186868 l -3.0257186081694427,1.7468994529186874 l -3.0257186081694423,1.7468994529186879 l 3.0257186081694445,1.7468994529186859 l 3.0257186081694436,1.7468994529186874 l -1.133737581878942e-15,-3.493798905837375 l -2.0785189001113938e-15,-3.493798905837375 l 3.025718608169444,1.7468994529186874 l 3.0257186081694436,1.7468994529186879 l -1.3226938455254323e-15,-3.493798905837376 l 3.7791252729298066e-16,-3.493798905837376 l 3.0257186081694436,1.7468994529186879 l 3.0257186081694436,1.746899452918687 l -3.0257186081694427,1.7468994529186874 l -3.0257186081694427,1.7468994529186874 l 3.0257186081694436,1.746899452918687 l 3.0257186081694436,1.7468994529186879 l 3.7791252729298066e-16,-3.493798905837376 l -1.3226938455254323e-15,-3.493798905837376 l 3.0257186081694436,1.7468994529186879 l 3.025718608169444,1.7468994529186874 l -2.0785189001113938e-15,-3.493798905837375 l -1.133737581878942e-15,-3.493798905837375 l -3.025718608169442,1.7468994529186885 l -3.025718608169441,1.7468994529186894 l -1.5116501091719226e-15,-3.493798905837375 l -7.558250545859613e-16,-3.493798905837375 l -3.0257186081694427,1.7468994529186896 l -3.0257186081694427,1.7468994529186874 l -7.558250545859613e-16,-3.493798905837375 l -2.0785189001113938e-15,-3.493798905837375 l 3.0257186081694423,1.746899452918687 l 3.0257186081694423,1.746899452918687 l -2.0785189001113938e-15,-3.493798905837375 l -7.558250545859613e-16,-3.493798905837375 l -3.0257186081694427,1.7468994529186874 l -3.0257186081694427,1.7468994529186896 l -7.558250545859613e-16,-3.493798905837375 l -1.5116501091719226e-15,-3.493798905837375 l -3.025718608169441,1.7468994529186894 l -3.025718608169442,1.7468994529186885 l -1.3226938455254323e-15,-3.493798905837375 l -2.0785189001113938e-15,-3.493798905837375 l 3.0257186081694423,1.7468994529186859 l 3.0257186081694423,1.746899452918687 l -2.0785189001113938e-15,-3.493798905837375 l -7.558250545859613e-16,-3.493798905837375 l 3.0257186081694423,1.746899452918687 l 3.0257186081694427,1.7468994529186859 l -3.0257186081694427,1.746899452918687 l -3.025718608169444,1.746899452918687 l 3.025718608169444,1.746899452918688 l 3.025718608169443,1.7468994529186885 l 9.447813182324517e-16,-3.493798905837376 l -7.558250545859613e-16,-3.493798905837377 l 3.025718608169443,1.7468994529186885 l 3.0257186081694436,1.746899452918688 l -1.3226938455254323e-15,-3.493798905837376 l 1.8895626364649033e-16,-3.493798905837376 l -3.025718608169444,1.746899452918689 l -3.025718608169443,1.7468994529186894 v -3.493798905837377 l 9.447813182324517e-16,-3.493798905837376 l -3.025718608169444,1.7468994529186894 l -3.025718608169444,1.746899452918687 l 9.447813182324517e-16,-3.493798905837376 l -1.8895626364649033e-16,-3.493798905837376 l 3.025718608169443,1.7468994529186885 l 3.025718608169443,1.7468994529186885 l -1.8895626364649033e-16,-3.493798905837376 l 9.447813182324517e-16,-3.493798905837376 l -3.025718608169444,1.746899452918687 l -3.025718608169444,1.7468994529186894 l 9.447813182324517e-16,-3.493798905837376 v -3.493798905837377 l -3.025718608169443,1.7468994529186894 l -3.025718608169444,1.746899452918689 l -1.133737581878942e-15,-3.493798905837375 l -2.0785189001113938e-15,-3.493798905837375 l 3.0257186081694436,1.7468994529186874 l 3.0257186081694423,1.7468994529186874 l -9.447813182324517e-16,-3.493798905837376 l 5.66868790939471e-16,-3.4937989058373757 l 3.0257186081694423,1.7468994529186874 l 3.025718608169443,1.7468994529186868 l -3.025718608169442,1.7468994529186868 l -3.025718608169442,1.7468994529186868 l 3.025718608169443,1.7468994529186868 l 3.0257186081694423,1.7468994529186874 l 5.66868790939471e-16,-3.4937989058373757 l -9.447813182324517e-16,-3.493798905837376 l 3.0257186081694423,1.7468994529186874 l 3.0257186081694436,1.7468994529186874 l -2.0785189001113938e-15,-3.493798905837375 l -1.133737581878942e-15,-3.493798905837375 l 3.025718608169443,1.7468994529186874 l 3.025718608169443,1.7468994529186856 l -3.0257186081694427,1.7468994529186874 l -3.025718608169442,1.7468994529186868 l 3.0257186081694436,1.746899452918687 l 3.0257186081694427,1.7468994529186879 l -3.025718608169442,1.7468994529186868 l -3.0257186081694414,1.7468994529186879 l 5.66868790939471e-16,-3.4937989058373757 l 3.7791252729298066e-16,-3.493798905837376 l -3.025718608169442,1.746899452918688 l -3.0257186081694427,1.7468994529186874 l 3.025718608169443,1.746899452918688 l 3.0257186081694445,1.7468994529186868 l -3.0257186081694427,1.7468994529186874 l -3.0257186081694423,1.7468994529186879 l 3.0257186081694436,1.7468994529186859 l 3.0257186081694436,1.7468994529186874 l -1.133737581878942e-15,-3.493798905837375 l -2.0785189001113938e-15,-3.4937989058373757 l 3.025718608169444,1.7468994529186874 l 3.025718608169443,1.7468994529186874 l -1.3226938455254323e-15,-3.493798905837376 l 1.8895626364649033e-16,-3.493798905837376 l 3.025718608169443,1.7468994529186874 l 3.0257186081694436,1.7468994529186868 l -3.0257186081694427,1.7468994529186874 l -3.0257186081694427,1.7468994529186874 l 3.0257186081694436,1.7468994529186868 l 3.025718608169443,1.7468994529186874 l 1.8895626364649033e-16,-3.493798905837376 l -1.3226938455254323e-15,-3.493798905837376 l 3.025718608169443,1.7468994529186874 l 3.025718608169444,1.7468994529186874 l -2.0785189001113938e-15,-3.4937989058373757 l -1.133737581878942e-15,-3.493798905837375 l -3.025718608169444,1.7468994529186894 l -3.025718608169443,1.7468994529186896 l -5.66868790939471e-16,-3.493798905837378 v -3.493798905837377 l -3.0257186081694436,1.7468994529186894 l -3.0257186081694445,1.746899452918688 v -3.493798905837377 l -7.558250545859613e-16,-3.493798905837377 l 3.0257186081694436,1.746899452918688 l 3.0257186081694436,1.746899452918688 l -7.558250545859613e-16,-3.493798905837377 v -3.493798905837377 l -3.0257186081694445,1.746899452918688 l -3.0257186081694436,1.7468994529186894 v -3.493798905837377 l -5.66868790939471e-16,-3.493798905837378 l -3.025718608169443,1.7468994529186896 l -3.025718608169444,1.7468994529186894 l -7.558250545859613e-16,-3.493798905837377 l -1.700606372818413e-15,-3.493798905837377 l 3.0257186081694445,1.746899452918688 l 3.0257186081694436,1.746899452918688 l -1.133737581878942e-15,-3.493798905837378 l 5.66868790939471e-16,-3.493798905837377 l 3.0257186081694436,1.746899452918688 l 3.0257186081694445,1.7468994529186879 l -3.0257186081694445,1.746899452918688 l -3.0257186081694427,1.7468994529186874 l 3.025718608169443,1.7468994529186856 l 3.0257186081694427,1.7468994529186868 l -1.133737581878942e-15,-3.493798905837375 l -2.6453876910508647e-15,-3.4937989058373757 l 3.0257186081694427,1.7468994529186868 l 3.0257186081694436,1.7468994529186868 l -3.0233002183438453e-15,-3.4937989058373757 l -1.700606372818413e-15,-3.493798905837375 l -3.0257186081694414,1.7468994529186894 l -3.0257186081694414,1.74689945291869 l -2.0785189001113938e-15,-3.493798905837376 l -1.133737581878942e-15,-3.493798905837375 l -3.0257186081694427,1.74689945291869 l -3.025718608169443,1.746899452918688 l -1.133737581878942e-15,-3.493798905837375 l -2.0785189001113938e-15,-3.4937989058373757 l 3.0257186081694427,1.7468994529186868 l 3.0257186081694427,1.7468994529186868 l -2.0785189001113938e-15,-3.4937989058373757 l -1.133737581878942e-15,-3.493798905837375 l -3.025718608169443,1.746899452918688 l -3.0257186081694427,1.74689945291869 l -1.133737581878942e-15,-3.493798905837375 l -2.0785189001113938e-15,-3.493798905837376 l -3.0257186081694414,1.74689945291869 l -3.0257186081694414,1.7468994529186894 l -9.89712680079079e-16,-3.4937989058373713 l -1.862464277530016e-15,-3.4937989058373713 l 3.0257186081694405,1.7468994529186856 l 3.025718608169439,1.7468994529186859 l -9.897126800790793e-16,-3.4937989058373726 l 5.3760261546006025e-16,-3.4937989058373717 l 3.025718608169439,1.7468994529186859 l 3.0257186081694396,1.7468994529186852 l -3.0257186081694387,1.7468994529186848 l -3.0257186081694387,1.7468994529186848 l 3.0257186081694396,1.7468994529186852 l 3.025718608169439,1.7468994529186859 l 5.3760261546006025e-16,-3.4937989058373717 l -9.897126800790793e-16,-3.4937989058373726 l 3.025718608169439,1.7468994529186859 l 3.0257186081694405,1.7468994529186856 l -1.862464277530016e-15,-3.4937989058373713 l -9.89712680079079e-16,-3.4937989058373713 l 3.025718608169439,1.7468994529186852 l 3.0257186081694405,1.746899452918684 l -3.0257186081694387,1.7468994529186856 l -3.0257186081694387,1.7468994529186848 l 3.0257186081694405,1.7468994529186848 l 3.025718608169439,1.7468994529186859 l -3.0257186081694387,1.7468994529186848 l -3.0257186081694387,1.7468994529186856 l 9.739784141855291e-16,-3.4937989058373713 l 1.6285421122737315e-15,-3.4937989058373726 l -3.025718608169441,1.7468994529186856 l -3.0257186081694414,1.7468994529186848 l 3.0257186081694396,1.7468994529186879 l 3.0257186081694414,1.7468994529186868 l -3.0257186081694414,1.7468994529186848 l -3.0257186081694414,1.7468994529186856 l 3.0257186081694414,1.7468994529186863 l 3.0257186081694405,1.746899452918687 l 3.194147160973259e-16,-3.4937989058373735 l -5.533368813536109e-16,-3.4937989058373726 l 3.025718608169441,1.746899452918687 l 3.0257186081694405,1.7468994529186879 l 1.0122681673459159e-16,-3.4937989058373735 l 1.6285421122737315e-15,-3.4937989058373726 l 3.0257186081694405,1.7468994529186879 l 3.0257186081694405,1.7468994529186868 l -3.0257186081694414,1.7468994529186848 l -3.0257186081694414,1.7468994529186848 l 3.0257186081694405,1.7468994529186868 l 3.0257186081694405,1.7468994529186879 l 1.6285421122737315e-15,-3.4937989058373726 l 1.0122681673459159e-16,-3.4937989058373735 l 3.0257186081694405,1.7468994529186879 l 3.025718608169441,1.746899452918687 l -5.533368813536109e-16,-3.4937989058373726 l 3.194147160973259e-16,-3.4937989058373735 l 3.025718608169439,1.7468994529186856 l 3.0257186081694396,1.7468994529186852 l -3.0257186081694405,1.7468994529186856 l -3.02571860816944,1.7468994529186848 l 3.0257186081694405,1.7468994529186863 l 3.025718608169439,1.746899452918687 l -3.02571860816944,1.7468994529186848 l -3.0257186081694396,1.7468994529186856 l 1.192166313548263e-15,-3.4937989058373713 l 1.192166313548263e-15,-3.4937989058373713 l -3.0257186081694396,1.7468994529186856 l -3.02571860816944,1.7468994529186848 l 3.025718608169439,1.746899452918687 l 3.0257186081694405,1.7468994529186863 l -3.02571860816944,1.7468994529186848 l -3.0257186081694405,1.7468994529186856 l 3.0257186081694396,1.7468994529186852 l 3.025718608169439,1.7468994529186856 l -3.02571860816944,1.7468994529186856 l -3.0257186081694387,1.7468994529186863 l 7.557905148227947e-16,-3.4937989058373713 l 1.192166313548263e-15,-3.4937989058373713 l -3.02571860816944,1.7468994529186863 l -3.0257186081694405,1.7468994529186848 l 1.192166313548263e-15,-3.4937989058373713 l 1.0122681673459209e-16,-3.4937989058373713 l 3.0257186081694387,1.746899452918687 l 3.0257186081694387,1.7468994529186874 l 3.1941471609732676e-16,-3.4937989058373704 l 1.628542112273732e-15,-3.4937989058373704 l -3.02571860816944,1.746899452918684 l -3.02571860816944,1.7468994529186856 l 1.628542112273732e-15,-3.4937989058373704 l 1.192166313548263e-15,-3.4937989058373713 l -3.0257186081694387,1.7468994529186856 l -3.0257186081694396,1.7468994529186848 l 3.0257186081694387,1.7468994529186856 l 3.025718608169439,1.7468994529186848 l -3.0257186081694405,1.7468994529186852 l -3.0257186081694396,1.746899452918684 l 3.0257186081694405,1.7468994529186868 l 3.0257186081694387,1.746899452918687 l -3.0257186081694396,1.746899452918684 l -3.0257186081694387,1.7468994529186852 l 1.628542112273732e-15,-3.4937989058373704 l 1.628542112273732e-15,-3.4937989058373704 l -3.0257186081694387,1.7468994529186852 l -3.0257186081694396,1.746899452918684 l 3.0257186081694387,1.746899452918687 l 3.0257186081694405,1.7468994529186868 l -3.0257186081694396,1.746899452918684 l -3.0257186081694405,1.7468994529186852 l 3.025718608169439,1.7468994529186848 l 3.0257186081694387,1.7468994529186856 l 5.376026154600601e-16,-3.4937989058373726 l -1.169610826281424e-16,-3.4937989058373726 l 3.0257186081694405,1.7468994529186879 l 3.025718608169439,1.746899452918688 l 3.194147160973259e-16,-3.4937989058373735 l 2.283105810361934e-15,-3.4937989058373717 l 3.025718608169439,1.746899452918688 l 3.0257186081694396,1.746899452918687 l -3.0257186081694414,1.7468994529186843 l -3.0257186081694414,1.7468994529186843 l 3.0257186081694396,1.746899452918687 l 3.025718608169439,1.746899452918688 l 2.283105810361934e-15,-3.4937989058373717 l 3.194147160973259e-16,-3.4937989058373735 l 3.025718608169439,1.746899452918688 l 3.0257186081694405,1.7468994529186879 l -1.169610826281424e-16,-3.4937989058373726 l 5.376026154600601e-16,-3.4937989058373726 l 3.025718608169439,1.746899452918687 l 3.0257186081694405,1.7468994529186863 l -3.0257186081694414,1.7468994529186852 l -3.0257186081694414,1.7468994529186843 l 3.0257186081694405,1.7468994529186868 l 3.025718608169439,1.746899452918688 l -3.0257186081694414,1.7468994529186843 l -3.025718608169441,1.7468994529186852 l 2.283105810361934e-15,-3.4937989058373717 l 1.4103542129109975e-15,-3.4937989058373713 l -3.0257186081694387,1.7468994529186852 l -3.0257186081694387,1.746899452918684 l 3.0257186081694387,1.7468994529186859 l 3.025718608169439,1.7468994529186848 l -3.0257186081694387,1.746899452918684 l -3.0257186081694387,1.7468994529186848 l 3.025718608169439,1.7468994529186848 l 3.0257186081694387,1.7468994529186852 l -3.3514898199087624e-16,-3.4937989058373713 l -1.2079005794418125e-15,-3.4937989058373695 l 3.025718608169439,1.7468994529186852 l 3.0257186081694387,1.7468994529186856 l -7.71524780716345e-16,-3.4937989058373717 l 1.192166313548263e-15,-3.4937989058373713 l 3.0257186081694387,1.7468994529186856 l 3.025718608169439,1.7468994529186848 l -3.0257186081694387,1.746899452918684 l -3.0257186081694387,1.746899452918684 l 3.025718608169439,1.7468994529186848 l 3.0257186081694387,1.7468994529186856 l 1.192166313548263e-15,-3.4937989058373713 l -7.71524780716345e-16,-3.4937989058373717 l 3.0257186081694387,1.7468994529186856 l 3.025718608169439,1.7468994529186852 l -1.2079005794418125e-15,-3.4937989058373695 l -3.3514898199087624e-16,-3.4937989058373713 l 3.025718608169439,1.7468994529186856 l 3.025718608169439,1.7468994529186848 l -3.0257186081694405,1.7468994529186856 l -3.0257186081694405,1.7468994529186852 l 3.0257186081694405,1.7468994529186863 l 3.0257186081694387,1.746899452918687 l -3.0257186081694405,1.7468994529186852 l -3.02571860816944,1.7468994529186856 l 1.1037372876303008e-15,-3.4937989058373713 l 1.1037372876303008e-15,-3.4937989058373713 l -3.02571860816944,1.7468994529186856 l -3.0257186081694405,1.7468994529186852 l 3.0257186081694387,1.746899452918687 l 3.0257186081694405,1.7468994529186863 l -3.0257186081694405,1.7468994529186852 l -3.0257186081694405,1.7468994529186856 l 3.025718608169439,1.7468994529186848 l 3.025718608169439,1.7468994529186856 l -3.02571860816944,1.7468994529186856 l -3.0257186081694387,1.7468994529186868 l 5.998539179063267e-16,-3.4937989058373713 l 1.1037372876303008e-15,-3.4937989058373713 l -3.02571860816944,1.7468994529186863 l -3.0257186081694405,1.7468994529186848 l 1.1037372876303008e-15,-3.4937989058373713 l 9.597054818235213e-17,-3.4937989058373713 l 3.0257186081694383,1.746899452918687 l 3.025718608169439,1.746899452918689 l 1.1037372876303012e-15,-3.4937989058373726 l 2.111504027078249e-15,-3.4937989058373726 l -3.025718608169442,1.7468994529186843 l -3.0257186081694414,1.7468994529186859 l 2.111504027078249e-15,-3.4937989058373726 l 1.6076206573542753e-15,-3.4937989058373726 l -3.0257186081694414,1.7468994529186863 l -3.0257186081694414,1.7468994529186852 l 3.0257186081694405,1.7468994529186879 l 3.0257186081694405,1.7468994529186868 l -3.025718608169442,1.7468994529186856 l -3.025718608169442,1.7468994529186848 l 3.025718608169441,1.7468994529186879 l 3.025718608169439,1.746899452918689 l -3.025718608169442,1.7468994529186848 l -3.0257186081694414,1.7468994529186856 l 2.111504027078249e-15,-3.4937989058373726 l 2.111504027078249e-15,-3.4937989058373726 l -3.0257186081694414,1.7468994529186856 l -3.025718608169442,1.7468994529186848 l 3.025718608169439,1.746899452918689 l 3.025718608169441,1.7468994529186879 l -3.025718608169442,1.7468994529186848 l -3.025718608169442,1.7468994529186856 l 3.0257186081694405,1.7468994529186868 l 3.0257186081694405,1.7468994529186879 l -3.0257186081694405,1.7468994529186852 l -3.02571860816944,1.7468994529186856 l 9.097579484335926e-16,-3.4937989058373717 l 1.4915923467342166e-15,-3.4937989058373717 l -3.0257186081694414,1.7468994529186856 l -3.0257186081694414,1.746899452918684 l 1.4915923467342166e-15,-3.4937989058373717 l 6.188407492832802e-16,-3.4937989058373717 l 3.025718608169438,1.746899452918687 l 3.025718608169438,1.746899452918687 l 6.188407492832802e-16,-3.4937989058373717 l 1.4915923467342166e-15,-3.4937989058373717 l -3.0257186081694414,1.746899452918684 l -3.0257186081694414,1.7468994529186856 l 1.4915923467342166e-15,-3.4937989058373717 l 9.097579484335926e-16,-3.4937989058373717 l -3.02571860816944,1.7468994529186856 l -3.0257186081694405,1.7468994529186852 l 8.6378558933000405e-16,-3.4937989058373717 l -1.4398115011794419e-16,-3.4937989058373717 l 3.0257186081694383,1.7468994529186868 l 3.025718608169438,1.746899452918687 l 3.5990221960602973e-16,-3.4937989058373717 l 1.7035912055366273e-15,-3.4937989058373717 l 3.025718608169438,1.746899452918687 l 3.0257186081694383,1.7468994529186863 l -3.0257186081694414,1.746899452918684 "/></g><defs></defs><g stroke-linejoin="miter" stroke-opacity="1.0" fill-opacity="0.0" stroke="rgb(0,0,0)" stroke-width="1.0206529706904568" fill="rgb(0,0,0)" stroke-linecap="butt" stroke-miterlimit="10.0"><path d="M 119.81845688350985,132.04543464864616 l 1.5116501091719226e-15,-31.444190152536347 l -7.558250545859614e-15,-31.444190152536347 l 27.23146747352496,15.72209507626818 l 27.231467473524958,15.722095076268182 l -3.0233002183438453e-15,-31.444190152536354 l 9.069900655031536e-15,-31.444190152536347 l 27.231467473524955,15.722095076268182 l 27.23146747352496,15.722095076268173 l -27.23146747352497,15.722095076268165 "/></g><defs></defs><g stroke-linejoin="miter" stroke-opacity="1.0" fill-opacity="0.0" stroke="rgb(0,0,0)" stroke-width="1.0206529706904568" fill="rgb(0,0,0)" stroke-linecap="butt" stroke-miterlimit="10.0"><path d="M 81.6944024205749,37.71286419103713 l 23.55142243801997,40.792260253168244 "/></g><defs></defs><g stroke-linejoin="miter" stroke-opacity="1.0" fill-opacity="1.0" stroke="rgb(0,0,0)" stroke-width="0.0" fill="rgb(0,0,0)" stroke-linecap="butt" stroke-miterlimit="10.0"></g><defs></defs><g stroke-linejoin="miter" stroke-opacity="1.0" fill-opacity="1.0" stroke="rgb(0,0,0)" stroke-width="0.0" fill="rgb(0,0,0)" stroke-linecap="butt" stroke-miterlimit="10.0"></g><defs></defs><g stroke-linejoin="miter" stroke-opacity="1.0" fill-opacity="1.0" stroke="rgb(0,0,0)" stroke-width="0.0" fill="rgb(0,0,0)" stroke-linecap="butt" stroke-miterlimit="10.0"><path d="M 109.26922590483262,86.49451244620539 l -2.213091536355159,-10.411777076968411 l -1.9839706997311957,3.1422520415382036 Z"/></g><defs></defs><g stroke-linejoin="miter" stroke-opacity="1.0" fill-opacity="1.0" stroke="rgb(0,0,0)" stroke-width="0.0" fill="rgb(0,0,0)" stroke-linecap="butt" stroke-miterlimit="10.0"><path d="M 105.07216366874627,79.22498741077519 l -0.26829451068439536,-0.46469972389720365 l 0.8839114010659896,-0.5103264853452285 Z"/></g><defs></defs><g stroke-linejoin="miter" stroke-opacity="1.0" fill-opacity="0.0" stroke="rgb(0,0,0)" stroke-width="1.0206529706904568" fill="rgb(0,0,0)" stroke-linecap="butt" stroke-miterlimit="10.0"><path d="M 81.6944024205749,37.71286419103713 l -23.55142243801996,40.79226025316827 "/></g><defs></defs><g stroke-linejoin="miter" stroke-opacity="1.0" fill-opacity="1.0" stroke="rgb(0,0,0)" stroke-width="0.0" fill="rgb(0,0,0)" stroke-linecap="butt" stroke-miterlimit="10.0"></g><defs></defs><g stroke-linejoin="miter" stroke-opacity="1.0" fill-opacity="1.0" stroke="rgb(0,0,0)" stroke-width="0.0" fill="rgb(0,0,0)" stroke-linecap="butt" stroke-miterlimit="10.0"></g><defs></defs><g stroke-linejoin="miter" stroke-opacity="1.0" fill-opacity="1.0" stroke="rgb(0,0,0)" stroke-width="0.0" fill="rgb(0,0,0)" stroke-linecap="butt" stroke-miterlimit="10.0"><path d="M 53.23566753525121,85.9841859608602 l 7.910317679017546,-7.12248202986811 l -3.7132554429311977,-0.14704300556210015 Z"/></g><defs></defs><g stroke-linejoin="miter" stroke-opacity="1.0" fill-opacity="1.0" stroke="rgb(0,0,0)" stroke-width="0.0" fill="rgb(0,0,0)" stroke-linecap="butt" stroke-miterlimit="10.0"><path d="M 57.432729771337556,78.71466092542998 l 0.26829451068439497,-0.4646997238972039 l 0.8839114010659901,0.5103264853452277 Z"/></g><defs></defs><g stroke-linejoin="miter" stroke-opacity="1.0" fill-opacity="0.0" stroke="rgb(0,0,0)" stroke-width="1.0206529706904568" fill="rgb(0,0,0)" stroke-linecap="butt" stroke-miterlimit="10.0"><path d="M 27.231467473524987,132.04543464864616 l 23.55142243801997,-40.79226025316827 "/></g><defs></defs><g stroke-linejoin="miter" stroke-opacity="1.0" fill-opacity="1.0" stroke="rgb(0,0,0)" stroke-width="0.0" fill="rgb(0,0,0)" stroke-linecap="butt" stroke-miterlimit="10.0"></g><defs></defs><g stroke-linejoin="miter" stroke-opacity="1.0" fill-opacity="1.0" stroke="rgb(0,0,0)" stroke-width="0.0" fill="rgb(0,0,0)" stroke-linecap="butt" stroke-miterlimit="10.0"></g><defs></defs><g stroke-linejoin="miter" stroke-opacity="1.0" fill-opacity="1.0" stroke="rgb(0,0,0)" stroke-width="0.0" fill="rgb(0,0,0)" stroke-linecap="butt" stroke-miterlimit="10.0"><path d="M 55.6902023588487,83.7741128788231 l -7.910317679017551,7.122482029868105 l 3.7132554429311972,0.1470430055621026 Z"/></g><defs></defs><g stroke-linejoin="miter" stroke-opacity="1.0" fill-opacity="1.0" stroke="rgb(0,0,0)" stroke-width="0.0" fill="rgb(0,0,0)" stroke-linecap="butt" stroke-miterlimit="10.0"><path d="M 51.49314012276235,91.04363791425331 l -0.26829451068439525,0.4646997238972037 l -0.8839114010659898,-0.5103264853452283 Z"/></g></svg>