<?xml version="1.0" encoding="UTF-8"?>
<!DOCTYPE svg PUBLIC "-//W3C//DTD SVG 1.1//EN"
    "http://www.w3.org/Graphics/SVG/1.1/DTD/svg11.dtd"><svg xmlns="http://www.w3.org/2000/svg" height="72.81553398058253" stroke-opacity="1" viewBox="0 0 400 73" font-size="1" width="400.0" xmlns:xlink="http://www.w3.org/1999/xlink" stroke="rgb(0,0,0)" version="1.1"><defs></defs><defs></defs><g stroke-linejoin="miter" stroke-opacity="1.0" fill-opacity="0.0" stroke="rgb(0,0,0)" stroke-width="0.6826561487862892" fill="rgb(0,0,0)" stroke-linecap="butt" stroke-miterlimit="10.0"><path d="M 351.45631067961165,48.54368932038837 l -4.854368932038835,-4.854368932038828 l -4.854368932038829,4.854368932038834 l 4.854368932038831,4.85436893203883 l -4.854368932038829,4.854368932038834 l 4.854368932038833,4.854368932038831 l 4.854368932038833,-4.854368932038831 l 4.854368932038833,4.85436893203883 l -4.854368932038829,4.854368932038834 l 4.854368932038833,4.854368932038831 l 4.854368932038831,-4.854368932038833 l -4.85436893203883,-4.854368932038834 l 4.854368932038833,-4.854368932038831 l 4.854368932038833,4.854368932038831 l 4.854368932038831,-4.854368932038829 l 4.854368932038833,4.85436893203883 l -4.854368932038829,4.854368932038834 l 4.854368932038833,4.85436893203883 l 4.854368932038833,-4.854368932038833 l -4.85436893203883,-4.854368932038834 l 4.854368932038833,-4.854368932038832 l -4.85436893203883,-4.854368932038834 l -4.8543689320388355,4.854368932038828 l -4.854368932038831,-4.854368932038833 l 4.854368932038833,-4.854368932038832 l 4.854368932038833,4.854368932038831 l 4.854368932038833,-4.854368932038833 l -4.85436893203883,-4.854368932038835 l 4.854368932038833,-4.854368932038831 l 4.854368932038833,4.854368932038831 l 4.854368932038833,-4.854368932038831 l 4.854368932038833,4.85436893203883 l -4.85436893203883,4.854368932038834 l 4.854368932038833,4.854368932038832 l 4.854368932038833,-4.854368932038832 l -4.85436893203883,-4.854368932038835 l 4.854368932038834,-4.854368932038833 l -4.854368932038829,-4.854368932038835 l -4.854368932038836,4.854368932038829 l -4.854368932038831,-4.854368932038835 l 4.854368932038834,-4.854368932038833 l -4.854368932038831,-4.854368932038835 l -4.854368932038835,4.854368932038829 l 4.8543689320388275,4.854368932038838 l -4.8543689320388355,4.854368932038828 l -4.854368932038831,-4.854368932038835 l -4.8543689320388355,4.854368932038828 l -4.854368932038831,-4.854368932038835 l 4.854368932038833,-4.854368932038832 l 4.854368932038834,4.854368932038831 l 4.854368932038833,-4.854368932038833 l -4.854368932038828,-4.854368932038833 l 4.854368932038833,-4.854368932038831 l -4.85436893203883,-4.854368932038835 l -4.8543689320388355,4.854368932038828 l -4.854368932038831,-4.854368932038834 l 4.854368932038833,-4.854368932038831 l 4.854368932038833,4.854368932038831 l 4.854368932038833,-4.854368932038833 l -4.85436893203883,-4.854368932038835 l 4.854368932038834,-4.854368932038831 l 4.854368932038833,4.854368932038831 l 4.854368932038833,-4.854368932038831 l 4.854368932038834,4.854368932038831 l -4.85436893203883,4.854368932038834 "/></g><defs></defs><g stroke-linejoin="miter" stroke-opacity="1.0" fill-opacity="0.0" stroke="rgb(0,0,0)" stroke-width="0.6826561487862892" fill="rgb(0,0,0)" stroke-linecap="butt" stroke-miterlimit="10.0"><path d="M 281.5533980582524,48.54368932038837 l -9.708737864077662,4.850488942537092e-15 l 3.772602510862182e-15,9.708737864077662 h 9.708737864077662 l 3.2336592950247275e-15,9.708737864077662 l 9.708737864077662,5.389432158374546e-16 l 3.2336592950247275e-15,-9.708737864077662 l 9.708737864077662,-1.6168296475123638e-15 l 3.2336592950247275e-15,9.708737864077662 h 9.708737864077662 l 5.389432158374546e-16,-9.708737864077662 l -9.708737864077662,-5.928375374212e-15 l 2.694716079187273e-15,-9.708737864077662 h 9.708737864077662 l 3.2336592950247275e-15,-9.70873786407766 l 9.708737864077662,-1.6168296475123638e-15 l 3.772602510862182e-15,9.708737864077662 l 9.708737864077662,-1.0778864316749092e-15 l 1.6168296475123638e-15,-9.708737864077666 l -9.708737864077662,-5.928375374212e-15 l 2.694716079187273e-15,-9.708737864077666 l -9.708737864077664,-5.389432158374546e-15 l -9.162034669236728e-15,9.708737864077666 l -9.708737864077664,-3.772602510862182e-15 l 2.694716079187273e-15,-9.708737864077666 h 9.708737864077666 l 1.6168296475123638e-15,-9.708737864077666 l -9.708737864077666,-6.467318590049455e-15 l 3.772602510862182e-15,-9.708737864077664 h 9.708737864077666 l 3.2336592950247275e-15,-9.708737864077662 l 9.708737864077662,-1.0778864316749092e-15 l 2.1557728633498184e-15,9.708737864077664 "/></g><defs></defs><g stroke-linejoin="miter" stroke-opacity="1.0" fill-opacity="0.0" stroke="rgb(0,0,0)" stroke-width="0.6826561487862892" fill="rgb(0,0,0)" stroke-linecap="butt" stroke-miterlimit="10.0"><path d="M 211.6504854368932,48.54368932038837 l -9.708737864077662,9.70873786407767 l 9.708737864077667,9.708737864077664 l 9.708737864077666,-9.708737864077662 l 9.708737864077667,9.708737864077666 l 9.708737864077667,-9.708737864077664 l -9.708737864077662,-9.708737864077671 l 9.708737864077666,-9.708737864077666 l 9.708737864077667,9.708737864077666 l 9.708737864077667,-9.708737864077666 l -9.708737864077664,-9.708737864077667 l -9.708737864077673,9.708737864077658 l -9.708737864077662,-9.70873786407767 l 9.708737864077667,-9.708737864077666 l -9.70873786407766,-9.70873786407767 l 9.708737864077666,-9.708737864077666 l 9.708737864077667,9.708737864077664 "/></g><defs></defs><g stroke-linejoin="miter" stroke-opacity="1.0" fill-opacity="0.0" stroke="rgb(0,0,0)" stroke-width="0.6826561487862892" fill="rgb(0,0,0)" stroke-linecap="butt" stroke-miterlimit="10.0"><path d="M 151.45631067961165,48.54368932038837 l 6.467318590049455e-15,19.41747572815533 l 19.41747572815533,-2.1557728633498184e-15 l 6.467318590049455e-15,-19.41747572815533 h 19.41747572815533 l 6.467318590049455e-15,-19.41747572815533 l -19.41747572815533,-1.1856750748424e-14 l 2.1557728633498184e-15,-19.41747572815533 h 19.41747572815533 "/></g><defs></defs><g stroke-linejoin="miter" stroke-opacity="1.0" fill-opacity="0.0" stroke="rgb(0,0,0)" stroke-width="0.6826561487862892" fill="rgb(0,0,0)" stroke-linecap="butt" stroke-miterlimit="10.0"><path d="M 100.97087378640775,48.54368932038837 l 19.417475728155342,19.417475728155335 l 19.41747572815534,-19.41747572815534 l -19.41747572815533,-19.417475728155345 l 19.417475728155342,-19.417475728155335 "/></g><defs></defs><g stroke-linejoin="miter" stroke-opacity="1.0" fill-opacity="0.0" stroke="rgb(0,0,0)" stroke-width="0.6826561487862892" fill="rgb(0,0,0)" stroke-linecap="butt" stroke-miterlimit="10.0"><path d="M 50.48543689320388,48.54368932038837 h 38.83495145631068 l 7.133864849402056e-15,-38.83495145631068 "/></g><defs></defs><g stroke-linejoin="miter" stroke-opacity="1.0" fill-opacity="0.0" stroke="rgb(0,0,0)" stroke-width="0.6826561487862892" fill="rgb(0,0,0)" stroke-linecap="butt" stroke-miterlimit="10.0"><path d="M 0.0,48.54368932038837 h 38.83495145631068 "/></g></svg>