<?xml version="1.0" encoding="UTF-8"?>
<!DOCTYPE svg PUBLIC "-//W3C//DTD SVG 1.1//EN"
    "http://www.w3.org/Graphics/SVG/1.1/DTD/svg11.dtd"><svg xmlns="http://www.w3.org/2000/svg" height="200.0" stroke-opacity="1" viewBox="0 0 200 200" font-size="1" width="200.0" xmlns:xlink="http://www.w3.org/1999/xlink" stroke="rgb(0,0,0)" version="1.1"><g><defs></defs><g stroke-linejoin="miter" stroke-opacity="1.0" fill-opacity="1.0" stroke="rgb(148,148,148)" stroke-width="0.8" fill="rgb(148,148,148)" stroke-linecap="butt" stroke-miterlimit="10.0"><defs><clipPath id="myClip1"><path d="M 200.00000000000003,200.0 l -2.220446049250313e-14,-200.0 h -200.0 l -2.220446049250313e-14,200.0 Z"/></clipPath></defs><g clip-path="url(#myClip1)"><path d="M 200.0,200.0 l -5.551115123125783e-15,-200.0 h -50.0 l -5.551115123125783e-15,200.0 Z"/></g></g><defs></defs><g stroke-linejoin="miter" stroke-opacity="1.0" fill-opacity="1.0" stroke="rgb(255,177,89)" stroke-width="0.8" fill="rgb(255,177,89)" stroke-linecap="butt" stroke-miterlimit="10.0"><defs><clipPath id="myClip2"><path d="M 200.00000000000003,200.0 l -2.220446049250313e-14,-200.0 h -200.0 l -2.220446049250313e-14,200.0 Z"/></clipPath></defs><g clip-path="url(#myClip2)"><path d="M 150.0,200.0 l -5.551115123125783e-15,-200.0 h -50.0 l -5.551115123125783e-15,200.0 Z"/></g></g><defs></defs><g stroke-linejoin="miter" stroke-opacity="1.0" fill-opacity="1.0" stroke="rgb(89,89,255)" stroke-width="0.8" fill="rgb(89,89,255)" stroke-linecap="butt" stroke-miterlimit="10.0"><defs><clipPath id="myClip3"><path d="M 200.00000000000003,200.0 l -2.220446049250313e-14,-200.0 h -200.0 l -2.220446049250313e-14,200.0 Z"/></clipPath></defs><g clip-path="url(#myClip3)"><path d="M 100.0,200.0 l -5.551115123125783e-15,-200.0 h -50.0 l -5.551115123125783e-15,200.0 Z"/></g></g><defs></defs><g stroke-linejoin="miter" stroke-opacity="1.0" fill-opacity="1.0" stroke="rgb(255,255,89)" stroke-width="0.8" fill="rgb(255,255,89)" stroke-linecap="butt" stroke-miterlimit="10.0"><defs><clipPath id="myClip4"><path d="M 200.00000000000003,200.0 l -2.220446049250313e-14,-200.0 h -200.0 l -2.220446049250313e-14,200.0 Z"/></clipPath></defs><g clip-path="url(#myClip4)"><path d="M 50.00000000000001,200.0 l -5.551115123125783e-15,-200.0 h -50.0 l -5.551115123125783e-15,200.0 Z"/></g></g></g></svg>