<?xml version="1.0" encoding="UTF-8"?>
<!DOCTYPE svg PUBLIC "-//W3C//DTD SVG 1.1//EN"
    "http://www.w3.org/Graphics/SVG/1.1/DTD/svg11.dtd">
<svg xmlns="http://www.w3.org/2000/svg" xmlns:xlink="http://www.w3.org/1999/xlink" version="1.1" width="400.0" height="120.99552168627056" font-size="1" viewBox="0 0 400 121"><g><g fill="rgb(0,0,0)" fill-opacity="0.0"><g stroke="rgb(0,0,0)" stroke-opacity="1.0" stroke-width="0.8799837150721208" stroke-linecap="butt" stroke-linejoin="miter" font-size="165.2892561983471em" stroke-miterlimit="10.0"><g><g><path d="M 216.5289256198347,60.497760843135275 c 1.1758382046630382,0.25196532957065104 2.3516764093260765,0.5039306591413021 2.5826446280991733 0.0c 0.23096821877309662,-0.5039306591413021 -0.4829335483437479,-1.7637573069945576 0.0 -2.5826446280991733c 0.4829335483437479,-0.818887321104616 2.1627024121480876,-1.196835315460593 2.5826446280991733 0.0c 0.41994221595108505,1.1968353154605924 -0.4199422159510845,3.968453940737754 0.0 5.165289256198347c 0.41994221595108505,1.196835315460593 2.0997110797554255,0.818887321104616 2.5826446280991733 0.0c 0.4829335483437479,-0.8188873211046158 -0.23096821877309776,-2.078713968957871 0.0 -2.5826446280991733c 0.23096821877309662,-0.5039306591413022 1.4068064234361355,-0.2519653295706511 2.5826446280991733 0.0c 0.2519653295706511,-1.1758382046630382 0.5039306591413022,-2.3516764093260765 1.5814137385683794e-16 -2.5826446280991733c -0.5039306591413021,-0.23096821877309665 -1.7637573069945576,0.48293354834374774 -2.5826446280991733 -1.5814137385683794e-16c -0.818887321104616,-0.48293354834374796 -1.1968353154605929,-2.1627024121480876 1.5814137385683794e-16 -2.5826446280991733c 1.1968353154605924,-0.419942215951085 3.968453940737754,0.4199422159510847 5.165289256198347 3.162827477136759e-16c 1.196835315460593,-0.419942215951085 0.8188873211046163,-2.0997110797554255 1.5814137385683794e-16 -2.5826446280991733c -0.8188873211046158,-0.48293354834374796 -2.078713968957871,0.23096821877309762 -2.5826446280991733 -1.5814137385683794e-16c -0.5039306591413022,-0.23096821877309665 -0.25196532957065104,-1.4068064234361355 1.5814137385683794e-16 -2.5826446280991733c 1.1758382046630382,0.25196532957065104 2.3516764093260765,0.5039306591413021 2.5826446280991733 0.0c 0.23096821877309662,-0.5039306591413021 -0.4829335483437479,-1.7637573069945576 0.0 -2.5826446280991733c 0.4829335483437479,-0.818887321104616 2.1627024121480876,-1.196835315460593 2.5826446280991733 0.0c 0.41994221595108505,1.1968353154605924 -0.4199422159510845,3.968453940737754 0.0 5.165289256198347c 0.41994221595108505,1.196835315460593 2.0997110797554255,0.818887321104616 2.5826446280991733 0.0c 0.4829335483437479,-0.8188873211046158 -0.23096821877309776,-2.078713968957871 0.0 -2.5826446280991733c 0.23096821877309662,-0.5039306591413022 1.4068064234361355,-0.2519653295706511 2.5826446280991733 0.0c -0.5039306591413019,2.3516764093260765 -1.0078613182826037,4.703352818652153 3.162827477136759e-16 5.165289256198347c 1.0078613182826042,0.4619364375461932 3.527514613989115,-0.965867096687496 5.165289256198347 -3.162827477136759e-16c 1.637774642209232,0.9658670966874956 2.393670630921186,4.325404824296175 3.162827477136759e-16 5.165289256198347c -2.393670630921185,0.8398844319021703 -7.936907881475508,-0.8398844319021685 -10.330578512396693 6.325654954273518e-16c -2.393670630921186,0.8398844319021703 -1.6377746422092319,4.199422159510851 3.162827477136759e-16 5.165289256198347c 1.6377746422092316,0.9658670966874956 4.157427937915742,-0.46193643754619584 5.165289256198347 -3.162827477136759e-16c 1.0078613182826044,0.4619364375461932 0.5039306591413023,2.813612846872271 3.162827477136759e-16 5.165289256198347c 1.1758382046630382,0.25196532957065104 2.3516764093260765,0.5039306591413021 2.5826446280991733 0.0c 0.23096821877309662,-0.5039306591413021 -0.4829335483437479,-1.7637573069945576 0.0 -2.5826446280991733c 0.4829335483437479,-0.818887321104616 2.1627024121480876,-1.196835315460593 2.5826446280991733 0.0c 0.41994221595108505,1.1968353154605924 -0.4199422159510845,3.968453940737754 0.0 5.165289256198347c 0.41994221595108505,1.196835315460593 2.0997110797554255,0.818887321104616 2.5826446280991733 0.0c 0.4829335483437479,-0.8188873211046158 -0.23096821877309776,-2.078713968957871 0.0 -2.5826446280991733c 0.23096821877309662,-0.5039306591413022 1.4068064234361355,-0.2519653295706511 2.5826446280991733 0.0c 0.2519653295706511,-1.1758382046630382 0.5039306591413022,-2.3516764093260765 1.5814137385683794e-16 -2.5826446280991733c -0.5039306591413021,-0.23096821877309665 -1.7637573069945576,0.48293354834374774 -2.5826446280991733 -1.5814137385683794e-16c -0.818887321104616,-0.48293354834374796 -1.1968353154605929,-2.1627024121480876 1.5814137385683794e-16 -2.5826446280991733c 1.1968353154605924,-0.419942215951085 3.968453940737754,0.4199422159510847 5.165289256198347 3.162827477136759e-16c 1.196835315460593,-0.419942215951085 0.8188873211046163,-2.0997110797554255 1.5814137385683794e-16 -2.5826446280991733c -0.8188873211046158,-0.48293354834374796 -2.078713968957871,0.23096821877309762 -2.5826446280991733 -1.5814137385683794e-16c -0.5039306591413022,-0.23096821877309665 -0.25196532957065104,-1.4068064234361355 1.5814137385683794e-16 -2.5826446280991733c 1.1758382046630382,0.25196532957065104 2.3516764093260765,0.5039306591413021 2.5826446280991733 0.0c 0.23096821877309662,-0.5039306591413021 -0.4829335483437479,-1.7637573069945576 0.0 -2.5826446280991733c 0.4829335483437479,-0.818887321104616 2.1627024121480876,-1.196835315460593 2.5826446280991733 0.0c 0.41994221595108505,1.1968353154605924 -0.4199422159510845,3.968453940737754 0.0 5.165289256198347c 0.41994221595108505,1.196835315460593 2.0997110797554255,0.818887321104616 2.5826446280991733 0.0c 0.4829335483437479,-0.8188873211046158 -0.23096821877309776,-2.078713968957871 0.0 -2.5826446280991733c 0.23096821877309662,-0.5039306591413022 1.4068064234361355,-0.2519653295706511 2.5826446280991733 0.0c 0.2519653295706511,-1.1758382046630382 0.5039306591413022,-2.3516764093260765 1.5814137385683794e-16 -2.5826446280991733c -0.5039306591413021,-0.23096821877309665 -1.7637573069945576,0.48293354834374774 -2.5826446280991733 -1.5814137385683794e-16c -0.818887321104616,-0.48293354834374796 -1.1968353154605929,-2.1627024121480876 1.5814137385683794e-16 -2.5826446280991733c 1.1968353154605924,-0.419942215951085 3.968453940737754,0.4199422159510847 5.165289256198347 3.162827477136759e-16c 1.196835315460593,-0.419942215951085 0.8188873211046163,-2.0997110797554255 1.5814137385683794e-16 -2.5826446280991733c -0.8188873211046158,-0.48293354834374796 -2.078713968957871,0.23096821877309762 -2.5826446280991733 -1.5814137385683794e-16c -0.5039306591413022,-0.23096821877309665 -0.25196532957065104,-1.4068064234361355 1.5814137385683794e-16 -2.5826446280991733c -1.1758382046630382,-0.25196532957065115 -2.3516764093260765,-0.5039306591413023 -2.5826446280991733 -3.162827477136759e-16c -0.2309682187730967,0.5039306591413021 0.4829335483437477,1.7637573069945576 -3.162827477136759e-16 2.5826446280991733c -0.48293354834374796,0.818887321104616 -2.162702412148088,1.1968353154605926 -2.5826446280991733 -3.162827477136759e-16c -0.41994221595108494,-1.1968353154605924 0.419942215951085,-3.968453940737754 6.325654954273518e-16 -5.165289256198347c -0.41994221595108494,-1.196835315460593 -2.0997110797554255,-0.8188873211046164 -2.5826446280991733 -3.162827477136759e-16c -0.48293354834374796,0.8188873211046158 0.2309682187730975,2.078713968957871 -3.162827477136759e-16 2.5826446280991733c -0.2309682187730967,0.5039306591413022 -1.4068064234361355,0.25196532957065093 -2.5826446280991733 -3.162827477136759e-16c 0.2519653295706511,-1.1758382046630382 0.5039306591413022,-2.3516764093260765 1.5814137385683794e-16 -2.5826446280991733c -0.5039306591413021,-0.23096821877309665 -1.7637573069945576,0.48293354834374774 -2.5826446280991733 -1.5814137385683794e-16c -0.818887321104616,-0.48293354834374796 -1.1968353154605929,-2.1627024121480876 1.5814137385683794e-16 -2.5826446280991733c 1.1968353154605924,-0.419942215951085 3.968453940737754,0.4199422159510847 5.165289256198347 3.162827477136759e-16c 1.196835315460593,-0.419942215951085 0.8188873211046163,-2.0997110797554255 1.5814137385683794e-16 -2.5826446280991733c -0.8188873211046158,-0.48293354834374796 -2.078713968957871,0.23096821877309762 -2.5826446280991733 -1.5814137385683794e-16c -0.5039306591413022,-0.23096821877309665 -0.25196532957065104,-1.4068064234361355 1.5814137385683794e-16 -2.5826446280991733c 2.3516764093260765,0.5039306591413022 4.703352818652153,1.0078613182826044 5.165289256198347 3.162827477136759e-16c 0.4619364375461933,-1.0078613182826042 -0.9658670966874955,-3.527514613989115 3.162827477136759e-16 -5.165289256198347c 0.9658670966874959,-1.637774642209232 4.325404824296175,-2.3936706309211857 5.165289256198347 3.162827477136759e-16c 0.83988443190217,2.393670630921185 -0.8398844319021694,7.936907881475508 -6.325654954273518e-16 10.330578512396693c 0.83988443190217,2.393670630921186 4.199422159510851,1.6377746422092325 5.165289256198347 3.162827477136759e-16c 0.9658670966874959,-1.6377746422092316 -0.46193643754619523,-4.157427937915742 3.162827477136759e-16 -5.165289256198347c 0.4619364375461933,-1.0078613182826044 2.813612846872271,-0.5039306591413021 5.165289256198347 3.162827477136759e-16c 0.2519653295706511,-1.1758382046630382 0.5039306591413022,-2.3516764093260765 1.5814137385683794e-16 -2.5826446280991733c -0.5039306591413021,-0.23096821877309665 -1.7637573069945576,0.48293354834374774 -2.5826446280991733 -1.5814137385683794e-16c -0.818887321104616,-0.48293354834374796 -1.1968353154605929,-2.1627024121480876 1.5814137385683794e-16 -2.5826446280991733c 1.1968353154605924,-0.419942215951085 3.968453940737754,0.4199422159510847 5.165289256198347 3.162827477136759e-16c 1.196835315460593,-0.419942215951085 0.8188873211046163,-2.0997110797554255 1.5814137385683794e-16 -2.5826446280991733c -0.8188873211046158,-0.48293354834374796 -2.078713968957871,0.23096821877309762 -2.5826446280991733 -1.5814137385683794e-16c -0.5039306591413022,-0.23096821877309665 -0.25196532957065104,-1.4068064234361355 1.5814137385683794e-16 -2.5826446280991733c -1.1758382046630382,-0.25196532957065115 -2.3516764093260765,-0.5039306591413023 -2.5826446280991733 -3.162827477136759e-16c -0.2309682187730967,0.5039306591413021 0.4829335483437477,1.7637573069945576 -3.162827477136759e-16 2.5826446280991733c -0.48293354834374796,0.818887321104616 -2.162702412148088,1.1968353154605926 -2.5826446280991733 -3.162827477136759e-16c -0.41994221595108494,-1.1968353154605924 0.419942215951085,-3.968453940737754 6.325654954273518e-16 -5.165289256198347c -0.41994221595108494,-1.196835315460593 -2.0997110797554255,-0.8188873211046164 -2.5826446280991733 -3.162827477136759e-16c -0.48293354834374796,0.8188873211046158 0.2309682187730975,2.078713968957871 -3.162827477136759e-16 2.5826446280991733c -0.2309682187730967,0.5039306591413022 -1.4068064234361355,0.25196532957065093 -2.5826446280991733 -3.162827477136759e-16c 0.2519653295706511,-1.1758382046630382 0.5039306591413022,-2.3516764093260765 1.5814137385683794e-16 -2.5826446280991733c -0.5039306591413021,-0.23096821877309665 -1.7637573069945576,0.48293354834374774 -2.5826446280991733 -1.5814137385683794e-16c -0.818887321104616,-0.48293354834374796 -1.1968353154605929,-2.1627024121480876 1.5814137385683794e-16 -2.5826446280991733c 1.1968353154605924,-0.419942215951085 3.968453940737754,0.4199422159510847 5.165289256198347 3.162827477136759e-16c 1.196835315460593,-0.419942215951085 0.8188873211046163,-2.0997110797554255 1.5814137385683794e-16 -2.5826446280991733c -0.8188873211046158,-0.48293354834374796 -2.078713968957871,0.23096821877309762 -2.5826446280991733 -1.5814137385683794e-16c -0.5039306591413022,-0.23096821877309665 -0.25196532957065104,-1.4068064234361355 1.5814137385683794e-16 -2.5826446280991733c 1.1758382046630382,0.25196532957065104 2.3516764093260765,0.5039306591413021 2.5826446280991733 0.0c 0.23096821877309662,-0.5039306591413021 -0.4829335483437479,-1.7637573069945576 0.0 -2.5826446280991733c 0.4829335483437479,-0.818887321104616 2.1627024121480876,-1.196835315460593 2.5826446280991733 0.0c 0.41994221595108505,1.1968353154605924 -0.4199422159510845,3.968453940737754 0.0 5.165289256198347c 0.41994221595108505,1.196835315460593 2.0997110797554255,0.818887321104616 2.5826446280991733 0.0c 0.4829335483437479,-0.8188873211046158 -0.23096821877309776,-2.078713968957871 0.0 -2.5826446280991733c 0.23096821877309662,-0.5039306591413022 1.4068064234361355,-0.2519653295706511 2.5826446280991733 0.0c 0.2519653295706511,-1.1758382046630382 0.5039306591413022,-2.3516764093260765 1.5814137385683794e-16 -2.5826446280991733c -0.5039306591413021,-0.23096821877309665 -1.7637573069945576,0.48293354834374774 -2.5826446280991733 -1.5814137385683794e-16c -0.818887321104616,-0.48293354834374796 -1.1968353154605929,-2.1627024121480876 1.5814137385683794e-16 -2.5826446280991733c 1.1968353154605924,-0.419942215951085 3.968453940737754,0.4199422159510847 5.165289256198347 3.162827477136759e-16c 1.196835315460593,-0.419942215951085 0.8188873211046163,-2.0997110797554255 1.5814137385683794e-16 -2.5826446280991733c -0.8188873211046158,-0.48293354834374796 -2.078713968957871,0.23096821877309762 -2.5826446280991733 -1.5814137385683794e-16c -0.5039306591413022,-0.23096821877309665 -0.25196532957065104,-1.4068064234361355 1.5814137385683794e-16 -2.5826446280991733c 1.1758382046630382,0.25196532957065104 2.3516764093260765,0.5039306591413021 2.5826446280991733 0.0c 0.23096821877309662,-0.5039306591413021 -0.4829335483437479,-1.7637573069945576 0.0 -2.5826446280991733c 0.4829335483437479,-0.818887321104616 2.1627024121480876,-1.196835315460593 2.5826446280991733 0.0c 0.41994221595108505,1.1968353154605924 -0.4199422159510845,3.968453940737754 0.0 5.165289256198347c 0.41994221595108505,1.196835315460593 2.0997110797554255,0.818887321104616 2.5826446280991733 0.0c 0.4829335483437479,-0.8188873211046158 -0.23096821877309776,-2.078713968957871 0.0 -2.5826446280991733c 0.23096821877309662,-0.5039306591413022 1.4068064234361355,-0.2519653295706511 2.5826446280991733 0.0c -0.5039306591413019,2.3516764093260765 -1.0078613182826037,4.703352818652153 3.162827477136759e-16 5.165289256198347c 1.0078613182826042,0.4619364375461932 3.527514613989115,-0.965867096687496 5.165289256198347 -3.162827477136759e-16c 1.637774642209232,0.9658670966874956 2.393670630921186,4.325404824296175 3.162827477136759e-16 5.165289256198347c -2.393670630921185,0.8398844319021703 -7.936907881475508,-0.8398844319021685 -10.330578512396693 6.325654954273518e-16c -2.393670630921186,0.8398844319021703 -1.6377746422092319,4.199422159510851 3.162827477136759e-16 5.165289256198347c 1.6377746422092316,0.9658670966874956 4.157427937915742,-0.46193643754619584 5.165289256198347 -3.162827477136759e-16c 1.0078613182826044,0.4619364375461932 0.5039306591413023,2.813612846872271 3.162827477136759e-16 5.165289256198347c 1.1758382046630382,0.25196532957065104 2.3516764093260765,0.5039306591413021 2.5826446280991733 0.0c 0.23096821877309662,-0.5039306591413021 -0.4829335483437479,-1.7637573069945576 0.0 -2.5826446280991733c 0.4829335483437479,-0.818887321104616 2.1627024121480876,-1.196835315460593 2.5826446280991733 0.0c 0.41994221595108505,1.1968353154605924 -0.4199422159510845,3.968453940737754 0.0 5.165289256198347c 0.41994221595108505,1.196835315460593 2.0997110797554255,0.818887321104616 2.5826446280991733 0.0c 0.4829335483437479,-0.8188873211046158 -0.23096821877309776,-2.078713968957871 0.0 -2.5826446280991733c 0.23096821877309662,-0.5039306591413022 1.4068064234361355,-0.2519653295706511 2.5826446280991733 0.0c 0.2519653295706511,-1.1758382046630382 0.5039306591413022,-2.3516764093260765 1.5814137385683794e-16 -2.5826446280991733c -0.5039306591413021,-0.23096821877309665 -1.7637573069945576,0.48293354834374774 -2.5826446280991733 -1.5814137385683794e-16c -0.818887321104616,-0.48293354834374796 -1.1968353154605929,-2.1627024121480876 1.5814137385683794e-16 -2.5826446280991733c 1.1968353154605924,-0.419942215951085 3.968453940737754,0.4199422159510847 5.165289256198347 3.162827477136759e-16c 1.196835315460593,-0.419942215951085 0.8188873211046163,-2.0997110797554255 1.5814137385683794e-16 -2.5826446280991733c -0.8188873211046158,-0.48293354834374796 -2.078713968957871,0.23096821877309762 -2.5826446280991733 -1.5814137385683794e-16c -0.5039306591413022,-0.23096821877309665 -0.25196532957065104,-1.4068064234361355 1.5814137385683794e-16 -2.5826446280991733c 1.1758382046630382,0.25196532957065104 2.3516764093260765,0.5039306591413021 2.5826446280991733 0.0c 0.23096821877309662,-0.5039306591413021 -0.4829335483437479,-1.7637573069945576 0.0 -2.5826446280991733c 0.4829335483437479,-0.818887321104616 2.1627024121480876,-1.196835315460593 2.5826446280991733 0.0c 0.41994221595108505,1.1968353154605924 -0.4199422159510845,3.968453940737754 0.0 5.165289256198347c 0.41994221595108505,1.196835315460593 2.0997110797554255,0.818887321104616 2.5826446280991733 0.0c 0.4829335483437479,-0.8188873211046158 -0.23096821877309776,-2.078713968957871 0.0 -2.5826446280991733c 0.23096821877309662,-0.5039306591413022 1.4068064234361355,-0.2519653295706511 2.5826446280991733 0.0c -0.5039306591413019,2.3516764093260765 -1.0078613182826037,4.703352818652153 3.162827477136759e-16 5.165289256198347c 1.0078613182826042,0.4619364375461932 3.527514613989115,-0.965867096687496 5.165289256198347 -3.162827477136759e-16c 1.637774642209232,0.9658670966874956 2.393670630921186,4.325404824296175 3.162827477136759e-16 5.165289256198347c -2.393670630921185,0.8398844319021703 -7.936907881475508,-0.8398844319021685 -10.330578512396693 6.325654954273518e-16c -2.393670630921186,0.8398844319021703 -1.6377746422092319,4.199422159510851 3.162827477136759e-16 5.165289256198347c 1.6377746422092316,0.9658670966874956 4.157427937915742,-0.46193643754619584 5.165289256198347 -3.162827477136759e-16c 1.0078613182826044,0.4619364375461932 0.5039306591413023,2.813612846872271 3.162827477136759e-16 5.165289256198347c 2.3516764093260765,0.5039306591413019 4.703352818652153,1.0078613182826037 5.165289256198347 -3.162827477136759e-16c 0.4619364375461932,-1.0078613182826042 -0.965867096687496,-3.527514613989115 -3.162827477136759e-16 -5.165289256198347c 0.9658670966874956,-1.637774642209232 4.325404824296175,-2.393670630921186 5.165289256198347 -3.162827477136759e-16c 0.8398844319021703,2.393670630921185 -0.8398844319021685,7.936907881475508 6.325654954273518e-16 10.330578512396693c 0.8398844319021703,2.393670630921186 4.199422159510851,1.6377746422092319 5.165289256198347 -3.162827477136759e-16c 0.9658670966874956,-1.6377746422092316 -0.46193643754619584,-4.157427937915742 -3.162827477136759e-16 -5.165289256198347c 0.4619364375461932,-1.0078613182826044 2.813612846872271,-0.5039306591413023 5.165289256198347 -3.162827477136759e-16c -0.5039306591413019,2.3516764093260765 -1.0078613182826037,4.703352818652153 3.162827477136759e-16 5.165289256198347c 1.0078613182826042,0.4619364375461932 3.527514613989115,-0.965867096687496 5.165289256198347 -3.162827477136759e-16c 1.637774642209232,0.9658670966874956 2.393670630921186,4.325404824296175 3.162827477136759e-16 5.165289256198347c -2.393670630921185,0.8398844319021703 -7.936907881475508,-0.8398844319021685 -10.330578512396693 6.325654954273518e-16c -2.393670630921186,0.8398844319021703 -1.6377746422092319,4.199422159510851 3.162827477136759e-16 5.165289256198347c 1.6377746422092316,0.9658670966874956 4.157427937915742,-0.46193643754619584 5.165289256198347 -3.162827477136759e-16c 1.0078613182826044,0.4619364375461932 0.5039306591413023,2.813612846872271 3.162827477136759e-16 5.165289256198347c -4.703352818652153,-1.0078613182826035 -9.406705637304306,-2.015722636565207 -10.330578512396693 1.2651309908547035e-15c -0.9238728750923862,2.0157226365652083 1.9317341933749925,7.05502922797823 1.2651309908547035e-15 10.330578512396693c -1.9317341933749912,3.275549284418464 -8.65080964859235,4.787341261842373 -10.330578512396693 1.2651309908547035e-15c -1.6797688638043409,-4.78734126184237 1.679768863804336,-15.873815762951017 -2.530261981709407e-15 -20.661157024793386c -1.6797688638043409,-4.787341261842372 -8.398844319021702,-3.2755492844184633 -10.330578512396693 1.2651309908547035e-15c -1.9317341933749912,3.2755492844184633 0.923872875092392,8.314855875831483 1.2651309908547035e-15 10.330578512396693c -0.9238728750923862,2.015722636565209 -5.627225693744542,1.007861318282605 -10.330578512396693 1.2651309908547035e-15c -0.5039306591413019,2.3516764093260765 -1.0078613182826037,4.703352818652153 3.162827477136759e-16 5.165289256198347c 1.0078613182826042,0.4619364375461932 3.527514613989115,-0.965867096687496 5.165289256198347 -3.162827477136759e-16c 1.637774642209232,0.9658670966874956 2.393670630921186,4.325404824296175 3.162827477136759e-16 5.165289256198347c -2.393670630921185,0.8398844319021703 -7.936907881475508,-0.8398844319021685 -10.330578512396693 6.325654954273518e-16c -2.393670630921186,0.8398844319021703 -1.6377746422092319,4.199422159510851 3.162827477136759e-16 5.165289256198347c 1.6377746422092316,0.9658670966874956 4.157427937915742,-0.46193643754619584 5.165289256198347 -3.162827477136759e-16c 1.0078613182826044,0.4619364375461932 0.5039306591413023,2.813612846872271 3.162827477136759e-16 5.165289256198347c 2.3516764093260765,0.5039306591413019 4.703352818652153,1.0078613182826037 5.165289256198347 -3.162827477136759e-16c 0.4619364375461932,-1.0078613182826042 -0.965867096687496,-3.527514613989115 -3.162827477136759e-16 -5.165289256198347c 0.9658670966874956,-1.637774642209232 4.325404824296175,-2.393670630921186 5.165289256198347 -3.162827477136759e-16c 0.8398844319021703,2.393670630921185 -0.8398844319021685,7.936907881475508 6.325654954273518e-16 10.330578512396693c 0.8398844319021703,2.393670630921186 4.199422159510851,1.6377746422092319 5.165289256198347 -3.162827477136759e-16c 0.9658670966874956,-1.6377746422092316 -0.46193643754619584,-4.157427937915742 -3.162827477136759e-16 -5.165289256198347c 0.4619364375461932,-1.0078613182826044 2.813612846872271,-0.5039306591413023 5.165289256198347 -3.162827477136759e-16c -0.5039306591413019,2.3516764093260765 -1.0078613182826037,4.703352818652153 3.162827477136759e-16 5.165289256198347c 1.0078613182826042,0.4619364375461932 3.527514613989115,-0.965867096687496 5.165289256198347 -3.162827477136759e-16c 1.637774642209232,0.9658670966874956 2.393670630921186,4.325404824296175 3.162827477136759e-16 5.165289256198347c -2.393670630921185,0.8398844319021703 -7.936907881475508,-0.8398844319021685 -10.330578512396693 6.325654954273518e-16c -2.393670630921186,0.8398844319021703 -1.6377746422092319,4.199422159510851 3.162827477136759e-16 5.165289256198347c 1.6377746422092316,0.9658670966874956 4.157427937915742,-0.46193643754619584 5.165289256198347 -3.162827477136759e-16c 1.0078613182826044,0.4619364375461932 0.5039306591413023,2.813612846872271 3.162827477136759e-16 5.165289256198347c 1.1758382046630382,0.25196532957065104 2.3516764093260765,0.5039306591413021 2.5826446280991733 0.0c 0.23096821877309662,-0.5039306591413021 -0.4829335483437479,-1.7637573069945576 0.0 -2.5826446280991733c 0.4829335483437479,-0.818887321104616 2.1627024121480876,-1.196835315460593 2.5826446280991733 0.0c 0.41994221595108505,1.1968353154605924 -0.4199422159510845,3.968453940737754 0.0 5.165289256198347c 0.41994221595108505,1.196835315460593 2.0997110797554255,0.818887321104616 2.5826446280991733 0.0c 0.4829335483437479,-0.8188873211046158 -0.23096821877309776,-2.078713968957871 0.0 -2.5826446280991733c 0.23096821877309662,-0.5039306591413022 1.4068064234361355,-0.2519653295706511 2.5826446280991733 0.0c 0.2519653295706511,-1.1758382046630382 0.5039306591413022,-2.3516764093260765 1.5814137385683794e-16 -2.5826446280991733c -0.5039306591413021,-0.23096821877309665 -1.7637573069945576,0.48293354834374774 -2.5826446280991733 -1.5814137385683794e-16c -0.818887321104616,-0.48293354834374796 -1.1968353154605929,-2.1627024121480876 1.5814137385683794e-16 -2.5826446280991733c 1.1968353154605924,-0.419942215951085 3.968453940737754,0.4199422159510847 5.165289256198347 3.162827477136759e-16c 1.196835315460593,-0.419942215951085 0.8188873211046163,-2.0997110797554255 1.5814137385683794e-16 -2.5826446280991733c -0.8188873211046158,-0.48293354834374796 -2.078713968957871,0.23096821877309762 -2.5826446280991733 -1.5814137385683794e-16c -0.5039306591413022,-0.23096821877309665 -0.25196532957065104,-1.4068064234361355 1.5814137385683794e-16 -2.5826446280991733c 1.1758382046630382,0.25196532957065104 2.3516764093260765,0.5039306591413021 2.5826446280991733 0.0c 0.23096821877309662,-0.5039306591413021 -0.4829335483437479,-1.7637573069945576 0.0 -2.5826446280991733c 0.4829335483437479,-0.818887321104616 2.1627024121480876,-1.196835315460593 2.5826446280991733 0.0c 0.41994221595108505,1.1968353154605924 -0.4199422159510845,3.968453940737754 0.0 5.165289256198347c 0.41994221595108505,1.196835315460593 2.0997110797554255,0.818887321104616 2.5826446280991733 0.0c 0.4829335483437479,-0.8188873211046158 -0.23096821877309776,-2.078713968957871 0.0 -2.5826446280991733c 0.23096821877309662,-0.5039306591413022 1.4068064234361355,-0.2519653295706511 2.5826446280991733 0.0c -0.5039306591413019,2.3516764093260765 -1.0078613182826037,4.703352818652153 3.162827477136759e-16 5.165289256198347c 1.0078613182826042,0.4619364375461932 3.527514613989115,-0.965867096687496 5.165289256198347 -3.162827477136759e-16c 1.637774642209232,0.9658670966874956 2.393670630921186,4.325404824296175 3.162827477136759e-16 5.165289256198347c -2.393670630921185,0.8398844319021703 -7.936907881475508,-0.8398844319021685 -10.330578512396693 6.325654954273518e-16c -2.393670630921186,0.8398844319021703 -1.6377746422092319,4.199422159510851 3.162827477136759e-16 5.165289256198347c 1.6377746422092316,0.9658670966874956 4.157427937915742,-0.46193643754619584 5.165289256198347 -3.162827477136759e-16c 1.0078613182826044,0.4619364375461932 0.5039306591413023,2.813612846872271 3.162827477136759e-16 5.165289256198347c 1.1758382046630382,0.25196532957065104 2.3516764093260765,0.5039306591413021 2.5826446280991733 0.0c 0.23096821877309662,-0.5039306591413021 -0.4829335483437479,-1.7637573069945576 0.0 -2.5826446280991733c 0.4829335483437479,-0.818887321104616 2.1627024121480876,-1.196835315460593 2.5826446280991733 0.0c 0.41994221595108505,1.1968353154605924 -0.4199422159510845,3.968453940737754 0.0 5.165289256198347c 0.41994221595108505,1.196835315460593 2.0997110797554255,0.818887321104616 2.5826446280991733 0.0c 0.4829335483437479,-0.8188873211046158 -0.23096821877309776,-2.078713968957871 0.0 -2.5826446280991733c 0.23096821877309662,-0.5039306591413022 1.4068064234361355,-0.2519653295706511 2.5826446280991733 0.0c 0.2519653295706511,-1.1758382046630382 0.5039306591413022,-2.3516764093260765 1.5814137385683794e-16 -2.5826446280991733c -0.5039306591413021,-0.23096821877309665 -1.7637573069945576,0.48293354834374774 -2.5826446280991733 -1.5814137385683794e-16c -0.818887321104616,-0.48293354834374796 -1.1968353154605929,-2.1627024121480876 1.5814137385683794e-16 -2.5826446280991733c 1.1968353154605924,-0.419942215951085 3.968453940737754,0.4199422159510847 5.165289256198347 3.162827477136759e-16c 1.196835315460593,-0.419942215951085 0.8188873211046163,-2.0997110797554255 1.5814137385683794e-16 -2.5826446280991733c -0.8188873211046158,-0.48293354834374796 -2.078713968957871,0.23096821877309762 -2.5826446280991733 -1.5814137385683794e-16c -0.5039306591413022,-0.23096821877309665 -0.25196532957065104,-1.4068064234361355 1.5814137385683794e-16 -2.5826446280991733c 1.1758382046630382,0.25196532957065104 2.3516764093260765,0.5039306591413021 2.5826446280991733 0.0c 0.23096821877309662,-0.5039306591413021 -0.4829335483437479,-1.7637573069945576 0.0 -2.5826446280991733c 0.4829335483437479,-0.818887321104616 2.1627024121480876,-1.196835315460593 2.5826446280991733 0.0c 0.41994221595108505,1.1968353154605924 -0.4199422159510845,3.968453940737754 0.0 5.165289256198347c 0.41994221595108505,1.196835315460593 2.0997110797554255,0.818887321104616 2.5826446280991733 0.0c 0.4829335483437479,-0.8188873211046158 -0.23096821877309776,-2.078713968957871 0.0 -2.5826446280991733c 0.23096821877309662,-0.5039306591413022 1.4068064234361355,-0.2519653295706511 2.5826446280991733 0.0c 0.2519653295706511,-1.1758382046630382 0.5039306591413022,-2.3516764093260765 1.5814137385683794e-16 -2.5826446280991733c -0.5039306591413021,-0.23096821877309665 -1.7637573069945576,0.48293354834374774 -2.5826446280991733 -1.5814137385683794e-16c -0.818887321104616,-0.48293354834374796 -1.1968353154605929,-2.1627024121480876 1.5814137385683794e-16 -2.5826446280991733c 1.1968353154605924,-0.419942215951085 3.968453940737754,0.4199422159510847 5.165289256198347 3.162827477136759e-16c 1.196835315460593,-0.419942215951085 0.8188873211046163,-2.0997110797554255 1.5814137385683794e-16 -2.5826446280991733c -0.8188873211046158,-0.48293354834374796 -2.078713968957871,0.23096821877309762 -2.5826446280991733 -1.5814137385683794e-16c -0.5039306591413022,-0.23096821877309665 -0.25196532957065104,-1.4068064234361355 1.5814137385683794e-16 -2.5826446280991733c -1.1758382046630382,-0.25196532957065115 -2.3516764093260765,-0.5039306591413023 -2.5826446280991733 -3.162827477136759e-16c -0.2309682187730967,0.5039306591413021 0.4829335483437477,1.7637573069945576 -3.162827477136759e-16 2.5826446280991733c -0.48293354834374796,0.818887321104616 -2.162702412148088,1.1968353154605926 -2.5826446280991733 -3.162827477136759e-16c -0.41994221595108494,-1.1968353154605924 0.419942215951085,-3.968453940737754 6.325654954273518e-16 -5.165289256198347c -0.41994221595108494,-1.196835315460593 -2.0997110797554255,-0.8188873211046164 -2.5826446280991733 -3.162827477136759e-16c -0.48293354834374796,0.8188873211046158 0.2309682187730975,2.078713968957871 -3.162827477136759e-16 2.5826446280991733c -0.2309682187730967,0.5039306591413022 -1.4068064234361355,0.25196532957065093 -2.5826446280991733 -3.162827477136759e-16c 0.2519653295706511,-1.1758382046630382 0.5039306591413022,-2.3516764093260765 1.5814137385683794e-16 -2.5826446280991733c -0.5039306591413021,-0.23096821877309665 -1.7637573069945576,0.48293354834374774 -2.5826446280991733 -1.5814137385683794e-16c -0.818887321104616,-0.48293354834374796 -1.1968353154605929,-2.1627024121480876 1.5814137385683794e-16 -2.5826446280991733c 1.1968353154605924,-0.419942215951085 3.968453940737754,0.4199422159510847 5.165289256198347 3.162827477136759e-16c 1.196835315460593,-0.419942215951085 0.8188873211046163,-2.0997110797554255 1.5814137385683794e-16 -2.5826446280991733c -0.8188873211046158,-0.48293354834374796 -2.078713968957871,0.23096821877309762 -2.5826446280991733 -1.5814137385683794e-16c -0.5039306591413022,-0.23096821877309665 -0.25196532957065104,-1.4068064234361355 1.5814137385683794e-16 -2.5826446280991733c 2.3516764093260765,0.5039306591413022 4.703352818652153,1.0078613182826044 5.165289256198347 3.162827477136759e-16c 0.4619364375461933,-1.0078613182826042 -0.9658670966874955,-3.527514613989115 3.162827477136759e-16 -5.165289256198347c 0.9658670966874959,-1.637774642209232 4.325404824296175,-2.3936706309211857 5.165289256198347 3.162827477136759e-16c 0.83988443190217,2.393670630921185 -0.8398844319021694,7.936907881475508 -6.325654954273518e-16 10.330578512396693c 0.83988443190217,2.393670630921186 4.199422159510851,1.6377746422092325 5.165289256198347 3.162827477136759e-16c 0.9658670966874959,-1.6377746422092316 -0.46193643754619523,-4.157427937915742 3.162827477136759e-16 -5.165289256198347c 0.4619364375461933,-1.0078613182826044 2.813612846872271,-0.5039306591413021 5.165289256198347 3.162827477136759e-16c 0.2519653295706511,-1.1758382046630382 0.5039306591413022,-2.3516764093260765 1.5814137385683794e-16 -2.5826446280991733c -0.5039306591413021,-0.23096821877309665 -1.7637573069945576,0.48293354834374774 -2.5826446280991733 -1.5814137385683794e-16c -0.818887321104616,-0.48293354834374796 -1.1968353154605929,-2.1627024121480876 1.5814137385683794e-16 -2.5826446280991733c 1.1968353154605924,-0.419942215951085 3.968453940737754,0.4199422159510847 5.165289256198347 3.162827477136759e-16c 1.196835315460593,-0.419942215951085 0.8188873211046163,-2.0997110797554255 1.5814137385683794e-16 -2.5826446280991733c -0.8188873211046158,-0.48293354834374796 -2.078713968957871,0.23096821877309762 -2.5826446280991733 -1.5814137385683794e-16c -0.5039306591413022,-0.23096821877309665 -0.25196532957065104,-1.4068064234361355 1.5814137385683794e-16 -2.5826446280991733c -1.1758382046630382,-0.25196532957065115 -2.3516764093260765,-0.5039306591413023 -2.5826446280991733 -3.162827477136759e-16c -0.2309682187730967,0.5039306591413021 0.4829335483437477,1.7637573069945576 -3.162827477136759e-16 2.5826446280991733c -0.48293354834374796,0.818887321104616 -2.162702412148088,1.1968353154605926 -2.5826446280991733 -3.162827477136759e-16c -0.41994221595108494,-1.1968353154605924 0.419942215951085,-3.968453940737754 6.325654954273518e-16 -5.165289256198347c -0.41994221595108494,-1.196835315460593 -2.0997110797554255,-0.8188873211046164 -2.5826446280991733 -3.162827477136759e-16c -0.48293354834374796,0.8188873211046158 0.2309682187730975,2.078713968957871 -3.162827477136759e-16 2.5826446280991733c -0.2309682187730967,0.5039306591413022 -1.4068064234361355,0.25196532957065093 -2.5826446280991733 -3.162827477136759e-16c 0.2519653295706511,-1.1758382046630382 0.5039306591413022,-2.3516764093260765 1.5814137385683794e-16 -2.5826446280991733c -0.5039306591413021,-0.23096821877309665 -1.7637573069945576,0.48293354834374774 -2.5826446280991733 -1.5814137385683794e-16c -0.818887321104616,-0.48293354834374796 -1.1968353154605929,-2.1627024121480876 1.5814137385683794e-16 -2.5826446280991733c 1.1968353154605924,-0.419942215951085 3.968453940737754,0.4199422159510847 5.165289256198347 3.162827477136759e-16c 1.196835315460593,-0.419942215951085 0.8188873211046163,-2.0997110797554255 1.5814137385683794e-16 -2.5826446280991733c -0.8188873211046158,-0.48293354834374796 -2.078713968957871,0.23096821877309762 -2.5826446280991733 -1.5814137385683794e-16c -0.5039306591413022,-0.23096821877309665 -0.25196532957065104,-1.4068064234361355 1.5814137385683794e-16 -2.5826446280991733c 1.1758382046630382,0.25196532957065104 2.3516764093260765,0.5039306591413021 2.5826446280991733 0.0c 0.23096821877309662,-0.5039306591413021 -0.4829335483437479,-1.7637573069945576 0.0 -2.5826446280991733c 0.4829335483437479,-0.818887321104616 2.1627024121480876,-1.196835315460593 2.5826446280991733 0.0c 0.41994221595108505,1.1968353154605924 -0.4199422159510845,3.968453940737754 0.0 5.165289256198347c 0.41994221595108505,1.196835315460593 2.0997110797554255,0.818887321104616 2.5826446280991733 0.0c 0.4829335483437479,-0.8188873211046158 -0.23096821877309776,-2.078713968957871 0.0 -2.5826446280991733c 0.23096821877309662,-0.5039306591413022 1.4068064234361355,-0.2519653295706511 2.5826446280991733 0.0c 0.2519653295706511,-1.1758382046630382 0.5039306591413022,-2.3516764093260765 1.5814137385683794e-16 -2.5826446280991733c -0.5039306591413021,-0.23096821877309665 -1.7637573069945576,0.48293354834374774 -2.5826446280991733 -1.5814137385683794e-16c -0.818887321104616,-0.48293354834374796 -1.1968353154605929,-2.1627024121480876 1.5814137385683794e-16 -2.5826446280991733c 1.1968353154605924,-0.419942215951085 3.968453940737754,0.4199422159510847 5.165289256198347 3.162827477136759e-16c 1.196835315460593,-0.419942215951085 0.8188873211046163,-2.0997110797554255 1.5814137385683794e-16 -2.5826446280991733c -0.8188873211046158,-0.48293354834374796 -2.078713968957871,0.23096821877309762 -2.5826446280991733 -1.5814137385683794e-16c -0.5039306591413022,-0.23096821877309665 -0.25196532957065104,-1.4068064234361355 1.5814137385683794e-16 -2.5826446280991733c 1.1758382046630382,0.25196532957065104 2.3516764093260765,0.5039306591413021 2.5826446280991733 0.0c 0.23096821877309662,-0.5039306591413021 -0.4829335483437479,-1.7637573069945576 0.0 -2.5826446280991733c 0.4829335483437479,-0.818887321104616 2.1627024121480876,-1.196835315460593 2.5826446280991733 0.0c 0.41994221595108505,1.1968353154605924 -0.4199422159510845,3.968453940737754 0.0 5.165289256198347c 0.41994221595108505,1.196835315460593 2.0997110797554255,0.818887321104616 2.5826446280991733 0.0c 0.4829335483437479,-0.8188873211046158 -0.23096821877309776,-2.078713968957871 0.0 -2.5826446280991733c 0.23096821877309662,-0.5039306591413022 1.4068064234361355,-0.2519653295706511 2.5826446280991733 0.0c -0.5039306591413019,2.3516764093260765 -1.0078613182826037,4.703352818652153 3.162827477136759e-16 5.165289256198347c 1.0078613182826042,0.4619364375461932 3.527514613989115,-0.965867096687496 5.165289256198347 -3.162827477136759e-16c 1.637774642209232,0.9658670966874956 2.393670630921186,4.325404824296175 3.162827477136759e-16 5.165289256198347c -2.393670630921185,0.8398844319021703 -7.936907881475508,-0.8398844319021685 -10.330578512396693 6.325654954273518e-16c -2.393670630921186,0.8398844319021703 -1.6377746422092319,4.199422159510851 3.162827477136759e-16 5.165289256198347c 1.6377746422092316,0.9658670966874956 4.157427937915742,-0.46193643754619584 5.165289256198347 -3.162827477136759e-16c 1.0078613182826044,0.4619364375461932 0.5039306591413023,2.813612846872271 3.162827477136759e-16 5.165289256198347c 1.1758382046630382,0.25196532957065104 2.3516764093260765,0.5039306591413021 2.5826446280991733 0.0c 0.23096821877309662,-0.5039306591413021 -0.4829335483437479,-1.7637573069945576 0.0 -2.5826446280991733c 0.4829335483437479,-0.818887321104616 2.1627024121480876,-1.196835315460593 2.5826446280991733 0.0c 0.41994221595108505,1.1968353154605924 -0.4199422159510845,3.968453940737754 0.0 5.165289256198347c 0.41994221595108505,1.196835315460593 2.0997110797554255,0.818887321104616 2.5826446280991733 0.0c 0.4829335483437479,-0.8188873211046158 -0.23096821877309776,-2.078713968957871 0.0 -2.5826446280991733c 0.23096821877309662,-0.5039306591413022 1.4068064234361355,-0.2519653295706511 2.5826446280991733 0.0c 0.2519653295706511,-1.1758382046630382 0.5039306591413022,-2.3516764093260765 1.5814137385683794e-16 -2.5826446280991733c -0.5039306591413021,-0.23096821877309665 -1.7637573069945576,0.48293354834374774 -2.5826446280991733 -1.5814137385683794e-16c -0.818887321104616,-0.48293354834374796 -1.1968353154605929,-2.1627024121480876 1.5814137385683794e-16 -2.5826446280991733c 1.1968353154605924,-0.419942215951085 3.968453940737754,0.4199422159510847 5.165289256198347 3.162827477136759e-16c 1.196835315460593,-0.419942215951085 0.8188873211046163,-2.0997110797554255 1.5814137385683794e-16 -2.5826446280991733c -0.8188873211046158,-0.48293354834374796 -2.078713968957871,0.23096821877309762 -2.5826446280991733 -1.5814137385683794e-16c -0.5039306591413022,-0.23096821877309665 -0.25196532957065104,-1.4068064234361355 1.5814137385683794e-16 -2.5826446280991733c 1.1758382046630382,0.25196532957065104 2.3516764093260765,0.5039306591413021 2.5826446280991733 0.0c 0.23096821877309662,-0.5039306591413021 -0.4829335483437479,-1.7637573069945576 0.0 -2.5826446280991733c 0.4829335483437479,-0.818887321104616 2.1627024121480876,-1.196835315460593 2.5826446280991733 0.0c 0.41994221595108505,1.1968353154605924 -0.4199422159510845,3.968453940737754 0.0 5.165289256198347c 0.41994221595108505,1.196835315460593 2.0997110797554255,0.818887321104616 2.5826446280991733 0.0c 0.4829335483437479,-0.8188873211046158 -0.23096821877309776,-2.078713968957871 0.0 -2.5826446280991733c 0.23096821877309662,-0.5039306591413022 1.4068064234361355,-0.2519653295706511 2.5826446280991733 0.0" /></g><path d="M 18.181818181818187,60.497760843135275 c 18.81341127460861,4.031445273130417 37.62682254921722,8.062890546260833 41.32231404958677 0.0c 3.695491500369546,-8.062890546260833 -7.7269367734999665,-28.22011691191292 0.0 -41.32231404958677c 7.7269367734999665,-13.102197137673857 34.6032385943694,-19.14936504736949 41.32231404958677 0.0c 6.719075455217361,19.14936504736948 -6.719075455217352,63.495263051804066 0.0 82.64462809917354c 6.719075455217361,19.14936504736949 33.59537727608681,13.102197137673857 41.32231404958677 0.0c 7.7269367734999665,-13.102197137673853 -3.695491500369564,-33.259423503325934 0.0 -41.32231404958677c 3.695491500369546,-8.062890546260835 22.508902774978168,-4.031445273130418 41.32231404958677 0.0" /></g></g></g></g></svg>