<?xml version="1.0" encoding="UTF-8"?>
<!DOCTYPE svg PUBLIC "-//W3C//DTD SVG 1.1//EN"
    "http://www.w3.org/Graphics/SVG/1.1/DTD/svg11.dtd">
<svg xmlns="http://www.w3.org/2000/svg" xmlns:xlink="http://www.w3.org/1999/xlink" version="1.1" width="300.0" height="299.9999999999999" font-size="1" viewBox="0 0 300 300"><g><g stroke="rgb(0,0,0)" stroke-opacity="1.0" fill-opacity="0.0" stroke-width="1.0e-2" stroke-linecap="butt" stroke-linejoin="miter" font-size="1.0em" stroke-miterlimit="10.0"><g transform="matrix(29.99999999999999,0.0,0.0,29.99999999999999,150.00000000000003,149.99999999999994)"><g fill-opacity="0.0" stroke-width="0.0"><path d="M 0.0,-4.732050807568877 l 0.8660254037844386,-0.5 l 0.5,-0.8660254037844393 v -1.0 l -0.5,-0.8660254037844384 l -0.8660254037844386,-0.4999999999999991 h -1.0 l -0.8660254037844386,0.4999999999999991 l -0.4999999999999998,0.8660254037844384 v 1.0 l 0.4999999999999998,0.8660254037844393 l 0.8660254037844386,0.5 " /></g><g fill-opacity="0.0" stroke-width="0.0"><path d="M 1.7320508075688772,-4.732050807568877 l 0.5,-0.8660254037844393 l -0.8660254037844386,-0.5 l -0.5,0.8660254037844393 " /></g><g fill-opacity="0.0" stroke-width="0.0"><path d="M 4.964101615137754,-2.8660254037844384 l 0.8660254037844384,0.5 l 0.5,-0.8660254037844388 l -0.8660254037844384,-0.5 " /></g><g fill-opacity="0.0" stroke-width="0.0"><path d="M 4.098076211353316,-2.3660254037844384 l 0.8660254037844384,-0.5 l 0.5,-0.8660254037844388 v -0.9999999999999996 l -0.5,-0.8660254037844393 l -0.8660254037844384,-0.5 h -1.0 l -0.8660254037844388,0.5 l -0.5,0.8660254037844393 v 0.9999999999999996 l 0.5,0.8660254037844388 l 0.8660254037844388,0.5 " /></g><g fill-opacity="0.0" stroke-width="0.0"><path d="M 4.964101615137754,-0.8660254037844386 l 0.5,0.8660254037844386 l 0.8660254037844384,-0.5 l -0.5,-0.8660254037844386 " /></g><g fill-opacity="0.0" stroke-width="0.0"><path d="M 4.098076211353316,-1.3660254037844386 l 0.8660254037844384,0.5 l 0.8660254037844384,-0.5 v -0.9999999999999998 l -0.8660254037844384,-0.5 l -0.8660254037844384,0.5 " /></g><g fill-opacity="0.0" stroke-width="0.0"><path d="M 3.098076211353316,-1.3660254037844386 h 1.0 v -0.9999999999999998 h -1.0 " /></g><g fill-opacity="0.0" stroke-width="0.0"><path d="M 4.964101615137754,1.8660254037844386 l 0.8660254037844384,0.4999999999999998 l 0.5,-0.8660254037844384 l -0.8660254037844384,-0.5 " /></g><g fill-opacity="0.0" stroke-width="0.0"><path d="M 4.964101615137754,3.8660254037844384 l 0.5,0.8660254037844384 l 0.8660254037844384,-0.5 l -0.5,-0.8660254037844384 " /></g><g fill-opacity="0.0" stroke-width="0.0"><path d="M 4.098076211353316,3.3660254037844384 l 0.8660254037844384,0.5 l 0.8660254037844384,-0.5 v -1.0 l -0.8660254037844384,-0.4999999999999998 l -0.8660254037844384,0.4999999999999998 " /></g><g fill-opacity="0.0" stroke-width="0.0"><path d="M 3.098076211353316,3.3660254037844384 h 1.0 v -1.0 h -1.0 " /></g><g fill-opacity="0.0" stroke-width="0.0"><path d="M 2.232050807568877,3.8660254037844384 l 0.8660254037844388,-0.5 v -1.0 l -0.8660254037844388,-0.4999999999999998 l -0.8660254037844386,0.4999999999999998 v 1.0 " /></g><g fill-opacity="0.0" stroke-width="0.0"><path d="M 1.7320508075688772,4.732050807568877 v 1.0 l 0.5,0.8660254037844393 l 0.8660254037844388,0.5 h 1.0 l 0.8660254037844384,-0.5 l 0.5,-0.8660254037844393 v -1.0 l -0.5,-0.8660254037844384 l -0.8660254037844384,-0.5 h -1.0 l -0.8660254037844388,0.5 " /></g><g fill-opacity="0.0" stroke-width="0.0"><path d="M 0.8660254037844386,4.232050807568877 l 0.8660254037844386,0.5 l 0.5,-0.8660254037844384 l -0.8660254037844386,-0.5 " /></g><g fill-opacity="0.0" stroke-width="0.0"><path d="M 0.0,4.732050807568877 v 1.0 l 0.8660254037844386,0.5 l 0.8660254037844386,-0.5 v -1.0 l -0.8660254037844386,-0.5 " /></g><g fill-opacity="0.0" stroke-width="0.0"><path d="M -1.0,4.732050807568877 v 1.0 h 1.0 v -1.0 " /></g><g fill-opacity="0.0" stroke-width="0.0"><path d="M -2.732050807568877,4.732050807568877 v 1.0 l 0.8660254037844386,0.5 l 0.8660254037844386,-0.5 v -1.0 l -0.8660254037844386,-0.5 " /></g><g fill-opacity="0.0" stroke-width="0.0"><path d="M -3.232050807568877,3.8660254037844384 l 0.5,0.8660254037844384 l 0.8660254037844386,-0.5 l -0.4999999999999998,-0.8660254037844384 " /></g><g fill-opacity="0.0" stroke-width="0.0"><path d="M -4.098076211353316,3.3660254037844384 h -1.0 l -0.8660254037844384,0.5 l -0.5,0.8660254037844384 v 1.0 l 0.5,0.8660254037844393 l 0.8660254037844384,0.5 h 1.0 l 0.8660254037844388,-0.5 l 0.5,-0.8660254037844393 v -1.0 l -0.5,-0.8660254037844384 " /></g><g fill-opacity="0.0" stroke-width="0.0"><path d="M -4.098076211353316,2.3660254037844384 h -1.0 v 1.0 h 1.0 " /></g><g fill-opacity="0.0" stroke-width="0.0"><path d="M -3.232050807568877,1.8660254037844386 l -0.8660254037844388,0.4999999999999998 v 1.0 l 0.8660254037844388,0.5 l 0.8660254037844388,-0.5 v -1.0 " /></g><g fill-opacity="0.0" stroke-width="0.0"><path d="M -2.732050807568877,-4.732050807568877 l 0.8660254037844386,-0.5 l -0.4999999999999998,-0.8660254037844393 l -0.8660254037844388,0.5 " /></g><g fill-opacity="0.0" stroke-width="0.0"><path d="M -4.098076211353316,-2.3660254037844384 l 0.8660254037844388,-0.5 l 0.5,-0.8660254037844388 v -0.9999999999999996 l -0.5,-0.8660254037844393 l -0.8660254037844388,-0.5 h -1.0 l -0.8660254037844384,0.5 l -0.5,0.8660254037844393 v 0.9999999999999996 l 0.5,0.8660254037844388 l 0.8660254037844384,0.5 " /></g><g fill-opacity="0.0" stroke-width="0.0"><path d="M -4.098076211353316,-1.3660254037844386 v -0.9999999999999998 h -1.0 v 0.9999999999999998 " /></g><g fill-opacity="0.0" stroke-width="0.0"><path d="M -2.732050807568877,1.0 v -1.0 l -0.5,-0.8660254037844386 l -0.8660254037844388,-0.5 h -1.0 l -0.8660254037844384,0.5 l -0.5,0.8660254037844386 v 1.0 l 0.5,0.8660254037844386 l 0.8660254037844384,0.4999999999999998 h 1.0 l 0.8660254037844388,-0.4999999999999998 " /></g><g fill-opacity="0.0" stroke-width="0.0"><path d="M -1.8660254037844386,1.5 l -0.8660254037844386,-0.5 l -0.5,0.8660254037844386 l 0.8660254037844388,0.4999999999999998 " /></g><g fill-opacity="0.0" stroke-width="0.0"><path d="M 0.8660254037844386,1.5 l -0.8660254037844386,-0.5 h -1.0 l -0.8660254037844386,0.5 l -0.4999999999999998,0.8660254037844384 v 1.0 l 0.4999999999999998,0.8660254037844384 l 0.8660254037844386,0.5 h 1.0 l 0.8660254037844386,-0.5 l 0.5,-0.8660254037844384 v -1.0 " /></g><g fill-opacity="0.0" stroke-width="0.0"><path d="M 1.7320508075688772,1.0 l -0.8660254037844386,0.5 l 0.5,0.8660254037844384 l 0.8660254037844386,-0.4999999999999998 " /></g><g fill-opacity="0.0" stroke-width="0.0"><path d="M 1.7320508075688772,0.0 v 1.0 l 0.5,0.8660254037844386 l 0.8660254037844388,0.4999999999999998 h 1.0 l 0.8660254037844384,-0.4999999999999998 l 0.5,-0.8660254037844386 v -1.0 l -0.5,-0.8660254037844386 l -0.8660254037844384,-0.5 h -1.0 l -0.8660254037844388,0.5 " /></g><g fill-opacity="0.0" stroke-width="0.0"><path d="M 1.3660254037844386,-1.3660254037844386 l -0.5,0.8660254037844386 l 0.8660254037844386,0.5 l 0.5,-0.8660254037844386 " /></g><g fill-opacity="0.0" stroke-width="0.0"><path d="M 1.3660254037844386,-2.3660254037844384 v 0.9999999999999998 l 0.8660254037844386,0.5 l 0.8660254037844388,-0.5 v -0.9999999999999998 l -0.8660254037844388,-0.5 " /></g><g fill-opacity="0.0" stroke-width="0.0"><path d="M 0.8660254037844386,-3.232050807568877 l 0.5,0.8660254037844388 l 0.8660254037844386,-0.5 l -0.5,-0.8660254037844388 " /></g><g fill-opacity="0.0" stroke-width="0.0"><path d="M 0.0,-3.732050807568877 l 0.8660254037844386,0.5 l 0.8660254037844386,-0.5 v -0.9999999999999996 l -0.8660254037844386,-0.5 l -0.8660254037844386,0.5 " /></g><g fill-opacity="0.0" stroke-width="0.0"><path d="M -1.0,-3.732050807568877 h 1.0 v -0.9999999999999996 h -1.0 " /></g><g fill-opacity="0.0" stroke-width="0.0"><path d="M -1.8660254037844386,-3.232050807568877 l 0.8660254037844386,-0.5 v -0.9999999999999996 l -0.8660254037844386,-0.5 l -0.8660254037844386,0.5 v 0.9999999999999996 " /></g><g fill-opacity="0.0" stroke-width="0.0"><path d="M -2.3660254037844384,-2.3660254037844384 l 0.4999999999999998,-0.8660254037844388 l -0.8660254037844386,-0.5 l -0.5,0.8660254037844388 " /></g><g fill-opacity="0.0" stroke-width="0.0"><path d="M -2.3660254037844384,-1.3660254037844386 v -0.9999999999999998 l -0.8660254037844388,-0.5 l -0.8660254037844388,0.5 v 0.9999999999999998 l 0.8660254037844388,0.5 " /></g><g fill-opacity="0.0" stroke-width="0.0"><path d="M -1.8660254037844386,-0.5 l -0.4999999999999998,-0.8660254037844386 l -0.8660254037844388,0.5 l 0.5,0.8660254037844386 " /></g><g fill-opacity="0.0" stroke-width="0.0"><path d="M -1.0,0.0 l -0.8660254037844386,-0.5 l -0.8660254037844386,0.5 v 1.0 l 0.8660254037844386,0.5 l 0.8660254037844386,-0.5 " /></g><g fill-opacity="0.0" stroke-width="0.0"><path d="M 0.0,0.0 v 1.0 l 0.8660254037844386,0.5 l 0.8660254037844386,-0.5 v -1.0 l -0.8660254037844386,-0.5 " /></g><g fill-opacity="0.0" stroke-width="0.0"><path d="M 0.0,0.0 h -1.0 v 1.0 h 1.0 " /></g><g fill-opacity="0.0" stroke-width="0.0"><path d="M 0.0,0.0 l 0.8660254037844386,-0.5 l 0.5,-0.8660254037844386 v -0.9999999999999998 l -0.5,-0.8660254037844388 l -0.8660254037844386,-0.5 h -1.0 l -0.8660254037844386,0.5 l -0.4999999999999998,0.8660254037844388 v 0.9999999999999998 l 0.4999999999999998,0.8660254037844386 l 0.8660254037844386,0.5 " /></g><g fill-opacity="0.0" stroke-width="2.0e-2"><path d="M -1.8660254037844386,-5.232050807568877 l 0.8660254037844386,0.5 " /></g><g fill-opacity="0.0" stroke-width="2.0e-2"><path d="M 0.0,-4.732050807568877 l 0.8660254037844386,-0.5 " /></g><g fill-opacity="0.0" stroke-width="2.0e-2"><path d="M -1.0,-4.732050807568877 h 1.0 " /></g><g fill-opacity="0.0" stroke-width="2.0e-2"><path d="M 1.7320508075688772,-4.732050807568877 l 0.5,-0.8660254037844393 " /></g><g fill-opacity="0.0" stroke-width="2.0e-2"><path d="M 0.8660254037844386,-5.232050807568877 l 0.8660254037844386,0.5 " /></g><g fill-opacity="0.0" stroke-width="2.0e-2"><path d="M 1.7320508075688772,-3.732050807568877 v -0.9999999999999996 " /></g><g fill-opacity="0.0" stroke-width="2.0e-2"><path d="M 1.7320508075688772,-3.732050807568877 l 0.5,0.8660254037844388 " /></g><g fill-opacity="0.0" stroke-width="2.0e-2"><path d="M 2.232050807568877,-2.8660254037844384 l 0.8660254037844388,0.5 " /></g><g fill-opacity="0.0" stroke-width="2.0e-2"><path d="M 4.964101615137754,-2.8660254037844384 l 0.5,-0.8660254037844388 " /></g><g fill-opacity="0.0" stroke-width="2.0e-2"><path d="M 4.964101615137754,-2.8660254037844384 l 0.8660254037844384,0.5 " /></g><g fill-opacity="0.0" stroke-width="2.0e-2"><path d="M 4.098076211353316,-2.3660254037844384 l 0.8660254037844384,-0.5 " /></g><g fill-opacity="0.0" stroke-width="2.0e-2"><path d="M 3.098076211353316,-2.3660254037844384 h 1.0 " /></g><g fill-opacity="0.0" stroke-width="2.0e-2"><path d="M 4.964101615137754,-0.8660254037844386 l 0.5,0.8660254037844386 " /></g><g fill-opacity="0.0" stroke-width="2.0e-2"><path d="M 4.964101615137754,-0.8660254037844386 l 0.8660254037844384,-0.5 " /></g><g fill-opacity="0.0" stroke-width="2.0e-2"><path d="M 4.098076211353316,-1.3660254037844386 l 0.8660254037844384,0.5 " /></g><g fill-opacity="0.0" stroke-width="2.0e-2"><path d="M 4.098076211353316,-1.3660254037844386 v -0.9999999999999998 " /></g><g fill-opacity="0.0" stroke-width="2.0e-2"><path d="M 3.098076211353316,-1.3660254037844386 h 1.0 " /></g><g fill-opacity="0.0" stroke-width="2.0e-2"><path d="M 3.098076211353316,-1.3660254037844386 v -0.9999999999999998 " /></g><g fill-opacity="0.0" stroke-width="2.0e-2"><path d="M 2.232050807568877,-0.8660254037844386 l 0.8660254037844388,-0.5 " /></g><g fill-opacity="0.0" stroke-width="2.0e-2"><path d="M -2.3660254037844384,3.3660254037844384 v -1.0 " /></g><g fill-opacity="0.0" stroke-width="2.0e-2"><path d="M 1.3660254037844386,3.3660254037844384 v -1.0 " /></g><g fill-opacity="0.0" stroke-width="2.0e-2"><path d="M 1.3660254037844386,2.3660254037844384 l 0.8660254037844386,-0.4999999999999998 " /></g><g fill-opacity="0.0" stroke-width="2.0e-2"><path d="M 2.232050807568877,1.8660254037844386 l 0.8660254037844388,0.4999999999999998 " /></g><g fill-opacity="0.0" stroke-width="2.0e-2"><path d="M 4.964101615137754,1.8660254037844386 l 0.5,-0.8660254037844386 " /></g><g fill-opacity="0.0" stroke-width="2.0e-2"><path d="M 4.964101615137754,1.8660254037844386 l 0.8660254037844384,0.4999999999999998 " /></g><g fill-opacity="0.0" stroke-width="2.0e-2"><path d="M 4.098076211353316,2.3660254037844384 l 0.8660254037844384,-0.4999999999999998 " /></g><g fill-opacity="0.0" stroke-width="2.0e-2"><path d="M 3.098076211353316,2.3660254037844384 h 1.0 " /></g><g fill-opacity="0.0" stroke-width="2.0e-2"><path d="M 4.964101615137754,3.8660254037844384 l 0.5,0.8660254037844384 " /></g><g fill-opacity="0.0" stroke-width="2.0e-2"><path d="M 4.964101615137754,3.8660254037844384 l 0.8660254037844384,-0.5 " /></g><g fill-opacity="0.0" stroke-width="2.0e-2"><path d="M 4.098076211353316,3.3660254037844384 l 0.8660254037844384,0.5 " /></g><g fill-opacity="0.0" stroke-width="2.0e-2"><path d="M 4.098076211353316,3.3660254037844384 v -1.0 " /></g><g fill-opacity="0.0" stroke-width="2.0e-2"><path d="M 3.098076211353316,3.3660254037844384 h 1.0 " /></g><g fill-opacity="0.0" stroke-width="2.0e-2"><path d="M 3.098076211353316,3.3660254037844384 v -1.0 " /></g><g fill-opacity="0.0" stroke-width="2.0e-2"><path d="M 2.232050807568877,3.8660254037844384 l 0.8660254037844388,-0.5 " /></g><g fill-opacity="0.0" stroke-width="2.0e-2"><path d="M 1.3660254037844386,3.3660254037844384 l 0.8660254037844386,0.5 " /></g><g fill-opacity="0.0" stroke-width="2.0e-2"><path d="M 1.7320508075688772,4.732050807568877 l 0.5,-0.8660254037844384 " /></g><g fill-opacity="0.0" stroke-width="2.0e-2"><path d="M 1.7320508075688772,5.732050807568877 v -1.0 " /></g><g fill-opacity="0.0" stroke-width="2.0e-2"><path d="M 0.8660254037844386,4.232050807568877 l 0.5,-0.8660254037844384 " /></g><g fill-opacity="0.0" stroke-width="2.0e-2"><path d="M 0.8660254037844386,4.232050807568877 l 0.8660254037844386,0.5 " /></g><g fill-opacity="0.0" stroke-width="2.0e-2"><path d="M 0.0,4.732050807568877 l 0.8660254037844386,-0.5 " /></g><g fill-opacity="0.0" stroke-width="2.0e-2"><path d="M 0.0,5.732050807568877 v -1.0 " /></g><g fill-opacity="0.0" stroke-width="2.0e-2"><path d="M -1.0,4.732050807568877 h 1.0 " /></g><g fill-opacity="0.0" stroke-width="2.0e-2"><path d="M -1.0,5.732050807568877 v -1.0 " /></g><g fill-opacity="0.0" stroke-width="2.0e-2"><path d="M -1.8660254037844386,4.232050807568877 l 0.8660254037844386,0.5 " /></g><g fill-opacity="0.0" stroke-width="2.0e-2"><path d="M -2.3660254037844384,3.3660254037844384 l 0.4999999999999998,0.8660254037844384 " /></g><g fill-opacity="0.0" stroke-width="2.0e-2"><path d="M -2.732050807568877,4.732050807568877 l 0.8660254037844386,-0.5 " /></g><g fill-opacity="0.0" stroke-width="2.0e-2"><path d="M -2.732050807568877,5.732050807568877 v -1.0 " /></g><g fill-opacity="0.0" stroke-width="2.0e-2"><path d="M -3.232050807568877,3.8660254037844384 l 0.5,0.8660254037844384 " /></g><g fill-opacity="0.0" stroke-width="2.0e-2"><path d="M -3.232050807568877,3.8660254037844384 l 0.8660254037844388,-0.5 " /></g><g fill-opacity="0.0" stroke-width="2.0e-2"><path d="M -4.098076211353316,3.3660254037844384 l 0.8660254037844388,0.5 " /></g><g fill-opacity="0.0" stroke-width="2.0e-2"><path d="M -5.098076211353316,3.3660254037844384 h 1.0 " /></g><g fill-opacity="0.0" stroke-width="2.0e-2"><path d="M -4.098076211353316,3.3660254037844384 v -1.0 " /></g><g fill-opacity="0.0" stroke-width="2.0e-2"><path d="M -5.098076211353316,2.3660254037844384 h 1.0 " /></g><g fill-opacity="0.0" stroke-width="2.0e-2"><path d="M -3.232050807568877,1.8660254037844386 l 0.8660254037844388,0.4999999999999998 " /></g><g fill-opacity="0.0" stroke-width="2.0e-2"><path d="M -4.098076211353316,2.3660254037844384 l 0.8660254037844388,-0.4999999999999998 " /></g><g fill-opacity="0.0" stroke-width="2.0e-2"><path d="M -2.732050807568877,-4.732050807568877 l 0.8660254037844386,-0.5 " /></g><g fill-opacity="0.0" stroke-width="2.0e-2"><path d="M -3.232050807568877,-5.598076211353316 l 0.5,0.8660254037844393 " /></g><g fill-opacity="0.0" stroke-width="2.0e-2"><path d="M -2.732050807568877,-3.732050807568877 v -0.9999999999999996 " /></g><g fill-opacity="0.0" stroke-width="2.0e-2"><path d="M -3.232050807568877,-2.8660254037844384 l 0.5,-0.8660254037844388 " /></g><g fill-opacity="0.0" stroke-width="2.0e-2"><path d="M -4.098076211353316,-2.3660254037844384 l 0.8660254037844388,-0.5 " /></g><g fill-opacity="0.0" stroke-width="2.0e-2"><path d="M -5.098076211353316,-2.3660254037844384 h 1.0 " /></g><g fill-opacity="0.0" stroke-width="2.0e-2"><path d="M -4.098076211353316,-1.3660254037844386 v -0.9999999999999998 " /></g><g fill-opacity="0.0" stroke-width="2.0e-2"><path d="M -5.098076211353316,-1.3660254037844386 h 1.0 " /></g><g fill-opacity="0.0" stroke-width="2.0e-2"><path d="M -4.098076211353316,-1.3660254037844386 l 0.8660254037844388,0.5 " /></g><g fill-opacity="0.0" stroke-width="2.0e-2"><path d="M -3.232050807568877,-0.8660254037844386 l 0.5,0.8660254037844386 " /></g><g fill-opacity="0.0" stroke-width="2.0e-2"><path d="M -2.732050807568877,1.0 v -1.0 " /></g><g fill-opacity="0.0" stroke-width="2.0e-2"><path d="M -3.232050807568877,1.8660254037844386 l 0.5,-0.8660254037844386 " /></g><g fill-opacity="0.0" stroke-width="2.0e-2"><path d="M -2.732050807568877,1.0 l 0.8660254037844386,0.5 " /></g><g fill-opacity="0.0" stroke-width="2.0e-2"><path d="M -2.3660254037844384,2.3660254037844384 l 0.4999999999999998,-0.8660254037844384 " /></g><g fill-opacity="0.0" stroke-width="2.0e-2"><path d="M -1.8660254037844386,1.5 l 0.8660254037844386,-0.5 " /></g><g fill-opacity="0.0" stroke-width="2.0e-2"><path d="M -1.0,1.0 h 1.0 " /></g><g fill-opacity="0.0" stroke-width="2.0e-2"><path d="M 0.8660254037844386,1.5 l 0.5,0.8660254037844384 " /></g><g fill-opacity="0.0" stroke-width="2.0e-2"><path d="M 0.0,1.0 l 0.8660254037844386,0.5 " /></g><g fill-opacity="0.0" stroke-width="2.0e-2"><path d="M 1.7320508075688772,1.0 l 0.5,0.8660254037844386 " /></g><g fill-opacity="0.0" stroke-width="2.0e-2"><path d="M 0.8660254037844386,1.5 l 0.8660254037844386,-0.5 " /></g><g fill-opacity="0.0" stroke-width="2.0e-2"><path d="M 1.7320508075688772,0.0 l 0.5,-0.8660254037844386 " /></g><g fill-opacity="0.0" stroke-width="2.0e-2"><path d="M 1.7320508075688772,1.0 v -1.0 " /></g><g fill-opacity="0.0" stroke-width="2.0e-2"><path d="M 0.8660254037844386,-0.5 l 0.8660254037844386,0.5 " /></g><g fill-opacity="0.0" stroke-width="2.0e-2"><path d="M 1.3660254037844386,-1.3660254037844386 l 0.8660254037844386,0.5 " /></g><g fill-opacity="0.0" stroke-width="2.0e-2"><path d="M 0.8660254037844386,-0.5 l 0.5,-0.8660254037844386 " /></g><g fill-opacity="0.0" stroke-width="2.0e-2"><path d="M 1.3660254037844386,-2.3660254037844384 l 0.8660254037844386,-0.5 " /></g><g fill-opacity="0.0" stroke-width="2.0e-2"><path d="M 1.3660254037844386,-1.3660254037844386 v -0.9999999999999998 " /></g><g fill-opacity="0.0" stroke-width="2.0e-2"><path d="M 0.8660254037844386,-3.232050807568877 l 0.5,0.8660254037844388 " /></g><g fill-opacity="0.0" stroke-width="2.0e-2"><path d="M 0.8660254037844386,-3.232050807568877 l 0.8660254037844386,-0.5 " /></g><g fill-opacity="0.0" stroke-width="2.0e-2"><path d="M 0.0,-3.732050807568877 l 0.8660254037844386,0.5 " /></g><g fill-opacity="0.0" stroke-width="2.0e-2"><path d="M 0.0,-3.732050807568877 v -0.9999999999999996 " /></g><g fill-opacity="0.0" stroke-width="2.0e-2"><path d="M -1.0,-3.732050807568877 h 1.0 " /></g><g fill-opacity="0.0" stroke-width="2.0e-2"><path d="M -1.0,-3.732050807568877 v -0.9999999999999996 " /></g><g fill-opacity="0.0" stroke-width="2.0e-2"><path d="M -1.8660254037844386,-3.232050807568877 l 0.8660254037844386,-0.5 " /></g><g fill-opacity="0.0" stroke-width="2.0e-2"><path d="M -2.732050807568877,-3.732050807568877 l 0.8660254037844386,0.5 " /></g><g fill-opacity="0.0" stroke-width="2.0e-2"><path d="M -2.3660254037844384,-2.3660254037844384 l 0.4999999999999998,-0.8660254037844388 " /></g><g fill-opacity="0.0" stroke-width="2.0e-2"><path d="M -3.232050807568877,-2.8660254037844384 l 0.8660254037844388,0.5 " /></g><g fill-opacity="0.0" stroke-width="2.0e-2"><path d="M -2.3660254037844384,-1.3660254037844386 v -0.9999999999999998 " /></g><g fill-opacity="0.0" stroke-width="2.0e-2"><path d="M -3.232050807568877,-0.8660254037844386 l 0.8660254037844388,-0.5 " /></g><g fill-opacity="0.0" stroke-width="2.0e-2"><path d="M -2.732050807568877,0.0 l 0.8660254037844386,-0.5 " /></g><g fill-opacity="0.0" stroke-width="2.0e-2"><path d="M -2.3660254037844384,-1.3660254037844386 l 0.4999999999999998,0.8660254037844386 " /></g><g fill-opacity="0.0" stroke-width="2.0e-2"><path d="M -1.0,1.0 v -1.0 " /></g><g fill-opacity="0.0" stroke-width="2.0e-2"><path d="M -1.8660254037844386,-0.5 l 0.8660254037844386,0.5 " /></g><g fill-opacity="0.0" stroke-width="2.0e-2"><path d="M 0.0,0.0 l 0.8660254037844386,-0.5 " /></g><g fill-opacity="0.0" stroke-width="2.0e-2"><path d="M 0.0,1.0 v -1.0 " /></g><g fill-opacity="0.0" stroke-width="2.0e-2"><path d="M -1.0,0.0 h 1.0 " /></g></g></g></g></svg>