<svg xmlns="http://www.w3.org/2000/svg" height="157.6087" stroke-opacity="1" viewBox="0 0 400 158" font-size="1" width="400.0000" xmlns:xlink="http://www.w3.org/1999/xlink" stroke="rgb(0,0,0)" version="1.1"><defs></defs><g stroke-linejoin="miter" stroke-opacity="1.0" fill-opacity="0.0" stroke="rgb(0,0,0)" stroke-width="1.0043384151638892" fill="rgb(0,0,0)" stroke-linecap="butt" stroke-miterlimit="10.0"><path d="M 204.3478,78.8043 l 2.7174,0.0000 l 0.0000,-2.7174 l 2.7174,0.0000 l 0.0000,5.4348 l 2.7174,0.0000 l 0.0000,-2.7174 l 2.7174,0.0000 l 0.0000,-2.7174 l -2.7174,-0.0000 l 0.0000,-2.7174 l 5.4348,0.0000 l 0.0000,-2.7174 l -2.7174,-0.0000 l 0.0000,-2.7174 l 2.7174,0.0000 l 0.0000,-2.7174 l 2.7174,0.0000 l 0.0000,5.4348 l 2.7174,0.0000 l 0.0000,-2.7174 l 2.7174,0.0000 l 0.0000,5.4348 l 5.4348,0.0000 l 0.0000,5.4348 l -10.8696,0.0000 l 0.0000,5.4348 l 5.4348,0.0000 l 0.0000,5.4348 l 2.7174,0.0000 l 0.0000,-2.7174 l 2.7174,0.0000 l 0.0000,5.4348 l 2.7174,0.0000 l 0.0000,-2.7174 l 2.7174,0.0000 l 0.0000,-2.7174 l -2.7174,-0.0000 l 0.0000,-2.7174 l 5.4348,0.0000 l 0.0000,-2.7174 l -2.7174,-0.0000 l 0.0000,-2.7174 l 2.7174,0.0000 l 0.0000,-2.7174 l 2.7174,0.0000 l 0.0000,5.4348 l 2.7174,0.0000 l 0.0000,-2.7174 l 2.7174,0.0000 l 0.0000,-2.7174 l -2.7174,-0.0000 l 0.0000,-2.7174 h 5.4348 l 0.0000,-2.7174 l -2.7174,-0.0000 l 0.0000,-2.7174 l -2.7174,-0.0000 l -0.0000,2.7174 l -2.7174,-0.0000 l 0.0000,-5.4348 l -2.7174,-0.0000 l -0.0000,2.7174 l -2.7174,-0.0000 l 0.0000,-2.7174 l -2.7174,-0.0000 l 0.0000,-2.7174 h 5.4348 l 0.0000,-2.7174 l -2.7174,-0.0000 l 0.0000,-2.7174 h 5.4348 l 0.0000,-5.4348 h 5.4348 l 0.0000,10.8696 h 5.4348 l 0.0000,-5.4348 h 5.4348 l 0.0000,-2.7174 l -2.7174,-0.0000 l 0.0000,-2.7174 h 5.4348 l 0.0000,-2.7174 l -2.7174,-0.0000 l 0.0000,-2.7174 l -2.7174,-0.0000 l -0.0000,2.7174 l -2.7174,-0.0000 l 0.0000,-5.4348 l -2.7174,-0.0000 l -0.0000,2.7174 l -2.7174,-0.0000 l 0.0000,-2.7174 l -2.7174,-0.0000 l 0.0000,-2.7174 h 5.4348 l 0.0000,-2.7174 l -2.7174,-0.0000 l 0.0000,-2.7174 l 2.7174,0.0000 l 0.0000,-2.7174 l 2.7174,0.0000 l 0.0000,5.4348 l 2.7174,0.0000 l 0.0000,-2.7174 l 2.7174,0.0000 l 0.0000,-2.7174 l -2.7174,-0.0000 l 0.0000,-2.7174 l 5.4348,0.0000 l 0.0000,-2.7174 l -2.7174,-0.0000 l 0.0000,-2.7174 l 2.7174,0.0000 l 0.0000,-2.7174 l 2.7174,0.0000 l 0.0000,5.4348 l 2.7174,0.0000 l 0.0000,-2.7174 l 2.7174,0.0000 l 0.0000,5.4348 l 5.4348,0.0000 l 0.0000,5.4348 l -10.8696,0.0000 l 0.0000,5.4348 l 5.4348,0.0000 l 0.0000,5.4348 l 2.7174,0.0000 l 0.0000,-2.7174 l 2.7174,0.0000 l 0.0000,5.4348 l 2.7174,0.0000 l 0.0000,-2.7174 l 2.7174,0.0000 l 0.0000,-2.7174 l -2.7174,-0.0000 l 0.0000,-2.7174 l 5.4348,0.0000 l 0.0000,-2.7174 l -2.7174,-0.0000 l 0.0000,-2.7174 l 2.7174,0.0000 l 0.0000,-2.7174 l 2.7174,0.0000 l 0.0000,5.4348 l 2.7174,0.0000 l 0.0000,-2.7174 l 2.7174,0.0000 l 0.0000,5.4348 h 5.4348 l 0.0000,5.4348 l -10.8696,0.0000 l 0.0000,5.4348 h 5.4348 l 0.0000,5.4348 h 5.4348 l 0.0000,-5.4348 h 5.4348 l 0.0000,10.8696 h 5.4348 l 0.0000,-5.4348 h 5.4348 l 0.0000,5.4348 h 5.4348 l 0.0000,5.4348 l -10.8696,0.0000 l 0.0000,5.4348 h 5.4348 l 0.0000,5.4348 l -10.8696,0.0000 l 0.0000,10.8696 l -10.8696,0.0000 l -0.0000,-21.7391 l -10.8696,0.0000 l 0.0000,10.8696 l -10.8696,0.0000 l 0.0000,5.4348 h 5.4348 l 0.0000,5.4348 l -10.8696,0.0000 l 0.0000,5.4348 h 5.4348 l 0.0000,5.4348 h 5.4348 l 0.0000,-5.4348 h 5.4348 l 0.0000,10.8696 h 5.4348 l 0.0000,-5.4348 h 5.4348 l 0.0000,5.4348 h 5.4348 l 0.0000,5.4348 l -10.8696,0.0000 l 0.0000,5.4348 h 5.4348 l 0.0000,5.4348 l 2.7174,0.0000 l 0.0000,-2.7174 l 2.7174,0.0000 l 0.0000,5.4348 l 2.7174,0.0000 l 0.0000,-2.7174 l 2.7174,0.0000 l 0.0000,-2.7174 l -2.7174,-0.0000 l 0.0000,-2.7174 l 5.4348,0.0000 l 0.0000,-2.7174 l -2.7174,-0.0000 l 0.0000,-2.7174 l 2.7174,0.0000 l 0.0000,-2.7174 l 2.7174,0.0000 l 0.0000,5.4348 l 2.7174,0.0000 l 0.0000,-2.7174 l 2.7174,0.0000 l 0.0000,5.4348 l 5.4348,0.0000 l 0.0000,5.4348 l -10.8696,0.0000 l 0.0000,5.4348 l 5.4348,0.0000 l 0.0000,5.4348 l 2.7174,0.0000 l 0.0000,-2.7174 l 2.7174,0.0000 l 0.0000,5.4348 l 2.7174,0.0000 l 0.0000,-2.7174 l 2.7174,0.0000 l 0.0000,-2.7174 l -2.7174,-0.0000 l 0.0000,-2.7174 l 5.4348,0.0000 l 0.0000,-2.7174 l -2.7174,-0.0000 l 0.0000,-2.7174 l 2.7174,0.0000 l 0.0000,-2.7174 l 2.7174,0.0000 l 0.0000,5.4348 l 2.7174,0.0000 l 0.0000,-2.7174 l 2.7174,0.0000 l 0.0000,-2.7174 l -2.7174,-0.0000 l 0.0000,-2.7174 h 5.4348 l 0.0000,-2.7174 l -2.7174,-0.0000 l 0.0000,-2.7174 l -2.7174,-0.0000 l -0.0000,2.7174 l -2.7174,-0.0000 l 0.0000,-5.4348 l -2.7174,-0.0000 l -0.0000,2.7174 l -2.7174,-0.0000 l 0.0000,-2.7174 l -2.7174,-0.0000 l 0.0000,-2.7174 h 5.4348 l 0.0000,-2.7174 l -2.7174,-0.0000 l 0.0000,-2.7174 h 5.4348 l 0.0000,-5.4348 h 5.4348 l 0.0000,10.8696 h 5.4348 l 0.0000,-5.4348 h 5.4348 l 0.0000,-2.7174 l -2.7174,-0.0000 l 0.0000,-2.7174 h 5.4348 l 0.0000,-2.7174 l -2.7174,-0.0000 l 0.0000,-2.7174 l -2.7174,-0.0000 l -0.0000,2.7174 l -2.7174,-0.0000 l 0.0000,-5.4348 l -2.7174,-0.0000 l -0.0000,2.7174 l -2.7174,-0.0000 l 0.0000,-2.7174 l -2.7174,-0.0000 l 0.0000,-2.7174 h 5.4348 l 0.0000,-2.7174 l -2.7174,-0.0000 l 0.0000,-2.7174 l 2.7174,0.0000 l 0.0000,-2.7174 l 2.7174,0.0000 l 0.0000,5.4348 l 2.7174,0.0000 l 0.0000,-2.7174 l 2.7174,0.0000 l 0.0000,-2.7174 l -2.7174,-0.0000 l 0.0000,-2.7174 l 5.4348,0.0000 l 0.0000,-2.7174 l -2.7174,-0.0000 l 0.0000,-2.7174 l 2.7174,0.0000 l 0.0000,-2.7174 l 2.7174,0.0000 l 0.0000,5.4348 l 2.7174,0.0000 l 0.0000,-2.7174 l 2.7174,0.0000 l 0.0000,5.4348 l 5.4348,0.0000 l 0.0000,5.4348 l -10.8696,0.0000 l 0.0000,5.4348 l 5.4348,0.0000 l 0.0000,5.4348 l 2.7174,0.0000 l 0.0000,-2.7174 l 2.7174,0.0000 l 0.0000,5.4348 l 2.7174,0.0000 l 0.0000,-2.7174 l 2.7174,0.0000 l 0.0000,-2.7174 l -2.7174,-0.0000 l 0.0000,-2.7174 l 5.4348,0.0000 l 0.0000,-2.7174 l -2.7174,-0.0000 l 0.0000,-2.7174 l 2.7174,0.0000 l 0.0000,-2.7174 l 2.7174,0.0000 l 0.0000,5.4348 l 2.7174,0.0000 l 0.0000,-2.7174 l 2.7174,0.0000 "/></g><g stroke-linejoin="miter" stroke-opacity="1.0" fill-opacity="0.0" stroke="rgb(0,0,0)" stroke-width="1.0043384151638892" fill="rgb(0,0,0)" stroke-linecap="butt" stroke-miterlimit="10.0"><path d="M 21.7391,78.8043 h 43.4783 l 0.0000,-43.4783 h 43.4783 l 0.0000,86.9565 h 43.4783 l 0.0000,-43.4783 h 43.4783 "/></g></svg>