<?xml version="1.0" encoding="UTF-8"?>
<!DOCTYPE svg PUBLIC "-//W3C//DTD SVG 1.1//EN"
    "http://www.w3.org/Graphics/SVG/1.1/DTD/svg11.dtd"><svg xmlns="http://www.w3.org/2000/svg" height="215.38461538461553" stroke-opacity="1" viewBox="0 0 400 215" font-size="1" width="400.0" xmlns:xlink="http://www.w3.org/1999/xlink" stroke="rgb(0,0,0)" version="1.1"><g><defs></defs><g stroke-linejoin="miter" stroke-opacity="1.0" fill-opacity="1.0" stroke="rgb(0,0,0)" stroke-width="1.174079017128549" fill="rgb(0,0,0)" stroke-linecap="butt" stroke-miterlimit="10.0"><path d="M 258.46153846153845,215.38461538461553 c 2.8717948717948745,-31.589743589743595 5.7435897435897445,-63.17948717948719 18.461538461538467 -73.84615384615387c 12.717948717948717,-10.66666666666668 35.282051282051285,-0.4102564102564253 55.384615384615394 -18.461538461538467c 20.102564102564102,-18.051282051282055 37.74358974358975,-64.41025641025642 55.384615384615365 -110.76923076923086l 12.30769230769231,-12.30769230769231 c -17.641025641025614,46.358974358974436 -35.28205128205126,92.7179487179488 -55.384615384615365 110.76923076923086c -20.102564102564113,18.05128205128204 -42.66666666666668,7.794871794871785 -55.384615384615394 18.461538461538467c -12.717948717948719,10.666666666666675 -15.589743589743593,42.25641025641027 -18.461538461538467 73.84615384615387l -12.30769230769231,12.30769230769231 Z"/></g><defs></defs><g stroke-linejoin="miter" stroke-opacity="1.0" fill-opacity="1.0" stroke="rgb(0,0,0)" stroke-width="1.174079017128549" fill="rgb(0,0,0)" stroke-linecap="butt" stroke-miterlimit="10.0"><path d="M 184.61538461538464,110.76923076923086 c 0.0,-50.98013075361172 -41.3275615540806,-92.30769230769232 -92.3076923076923 -92.30769230769232c -50.98013075361172,-3.121632697376206e-15 -92.30769230769232,41.327561554080596 -92.30769230769232 92.30769230769229c -6.243265394752412e-15,50.98013075361172 41.32756155408059,92.30769230769232 92.30769230769228 92.30769230769232c 50.98013075361172,9.364898092128619e-15 92.30769230769232,-41.32756155408059 92.30769230769235 -92.30769230769229l 12.30769230769231,-6.153846153846155 c -2.1862853408003087e-14,50.980130753611704 -41.32756155408063,92.3076923076923 -92.30769230769235 92.30769230769229c -50.9801307536117,-0.0 -92.30769230769229,-41.32756155408061 -92.30769230769228 -92.30769230769232c 0.0,-50.9801307536117 41.32756155408061,-92.30769230769229 92.30769230769232 -92.30769230769229c 50.980130753611704,-0.0 92.3076923076923,41.32756155408061 92.3076923076923 92.30769230769232l -12.30769230769231,6.153846153846155 Z"/></g></g></svg>