<?xml version="1.0" encoding="UTF-8"?>
<!DOCTYPE svg PUBLIC "-//W3C//DTD SVG 1.1//EN"
    "http://www.w3.org/Graphics/SVG/1.1/DTD/svg11.dtd">
<svg xmlns="http://www.w3.org/2000/svg" xmlns:xlink="http://www.w3.org/1999/xlink" version="1.1" width="400.0" height="87.54208754208756" font-size="1" viewBox="0 0 400 88"><g><g stroke="rgb(0,0,0)" stroke-opacity="1.0" fill-opacity="0.0" stroke-width="1.0e-2" stroke-linecap="butt" stroke-linejoin="miter" font-size="1.0em" stroke-miterlimit="10.0"><g transform="matrix(165.28925619834712,0.0,0.0,165.28925619834712,200.0,43.77104377104378)"><g fill-opacity="0.0"><g fill-opacity="0.0"><path d="M 0.10000000000000009,0.24074074074074073 h 3.7037037037037035e-2 v -3.7037037037037035e-2 h 3.7037037037037035e-2 v 3.7037037037037035e-2 h 3.7037037037037035e-2 l 2.2678644428654687e-18,-3.7037037037037035e-2 l -3.7037037037037035e-2,-2.2678644428654687e-18 l 2.2678644428654687e-18,-3.7037037037037035e-2 l 3.7037037037037035e-2,2.2678644428654687e-18 l 2.2678644428654687e-18,-3.7037037037037035e-2 h 3.7037037037037035e-2 v -3.7037037037037035e-2 h 3.7037037037037035e-2 v 3.7037037037037035e-2 h 3.7037037037037035e-2 l 2.2678644428654687e-18,3.7037037037037035e-2 l 3.7037037037037035e-2,-2.2678644428654687e-18 l 2.2678644428654687e-18,3.7037037037037035e-2 l -3.7037037037037035e-2,2.2678644428654687e-18 l 2.2678644428654687e-18,3.7037037037037035e-2 h 3.7037037037037035e-2 v -3.7037037037037035e-2 h 3.7037037037037035e-2 v 3.7037037037037035e-2 h 3.7037037037037035e-2 l 2.2678644428654687e-18,-3.7037037037037035e-2 l -3.7037037037037035e-2,-2.2678644428654687e-18 l 2.2678644428654687e-18,-3.7037037037037035e-2 l 3.7037037037037035e-2,2.2678644428654687e-18 l 2.2678644428654687e-18,-3.7037037037037035e-2 l -3.7037037037037035e-2,-4.535728885730937e-18 l -4.535728885730937e-18,3.7037037037037035e-2 l -3.7037037037037035e-2,-4.535728885730937e-18 l 4.535728885730937e-18,-3.7037037037037035e-2 l -3.7037037037037035e-2,-4.535728885730937e-18 l 2.2678644428654687e-18,-3.7037037037037035e-2 l -3.7037037037037035e-2,-2.2678644428654687e-18 l 2.2678644428654687e-18,-3.7037037037037035e-2 l 3.7037037037037035e-2,2.2678644428654687e-18 l 2.2678644428654687e-18,-3.7037037037037035e-2 l 3.7037037037037035e-2,2.2678644428654687e-18 l 2.2678644428654687e-18,-3.7037037037037035e-2 l 3.7037037037037035e-2,2.2678644428654687e-18 l -2.2678644428654687e-18,3.7037037037037035e-2 l 3.7037037037037035e-2,2.2678644428654687e-18 l 2.2678644428654687e-18,-3.7037037037037035e-2 l -3.7037037037037035e-2,-2.2678644428654687e-18 l 2.2678644428654687e-18,-3.7037037037037035e-2 l 3.7037037037037035e-2,2.2678644428654687e-18 l 2.2678644428654687e-18,-3.7037037037037035e-2 h 3.7037037037037035e-2 v -3.7037037037037035e-2 h 3.7037037037037035e-2 v 3.7037037037037035e-2 h 3.7037037037037035e-2 l 2.2678644428654687e-18,-3.7037037037037035e-2 l -3.7037037037037035e-2,-2.2678644428654687e-18 l 2.2678644428654687e-18,-3.7037037037037035e-2 l 3.7037037037037035e-2,2.2678644428654687e-18 l 2.2678644428654687e-18,-3.7037037037037035e-2 h 3.7037037037037035e-2 v -3.7037037037037035e-2 h 3.7037037037037035e-2 v 3.7037037037037035e-2 h 3.7037037037037035e-2 l 2.2678644428654687e-18,3.7037037037037035e-2 l 3.7037037037037035e-2,-2.2678644428654687e-18 l 2.2678644428654687e-18,3.7037037037037035e-2 l -3.7037037037037035e-2,2.2678644428654687e-18 l 2.2678644428654687e-18,3.7037037037037035e-2 h 3.7037037037037035e-2 v -3.7037037037037035e-2 h 3.7037037037037035e-2 v 3.7037037037037035e-2 h 3.7037037037037035e-2 l 2.2678644428654687e-18,3.7037037037037035e-2 l 3.7037037037037035e-2,-2.2678644428654687e-18 l 2.2678644428654687e-18,3.7037037037037035e-2 l -3.7037037037037035e-2,2.2678644428654687e-18 l 2.2678644428654687e-18,3.7037037037037035e-2 l 3.7037037037037035e-2,-2.2678644428654687e-18 l -2.2678644428654687e-18,-3.7037037037037035e-2 l 3.7037037037037035e-2,-2.2678644428654687e-18 l 2.2678644428654687e-18,3.7037037037037035e-2 l 3.7037037037037035e-2,-2.2678644428654687e-18 l 2.2678644428654687e-18,3.7037037037037035e-2 l 3.7037037037037035e-2,-2.2678644428654687e-18 l 2.2678644428654687e-18,3.7037037037037035e-2 l -3.7037037037037035e-2,2.2678644428654687e-18 l 2.2678644428654687e-18,3.7037037037037035e-2 l -3.7037037037037035e-2,4.535728885730937e-18 l 4.535728885730937e-18,3.7037037037037035e-2 l -3.7037037037037035e-2,4.535728885730937e-18 l -4.535728885730937e-18,-3.7037037037037035e-2 l -3.7037037037037035e-2,4.535728885730937e-18 l 2.2678644428654687e-18,3.7037037037037035e-2 l 3.7037037037037035e-2,-2.2678644428654687e-18 l 2.2678644428654687e-18,3.7037037037037035e-2 l -3.7037037037037035e-2,2.2678644428654687e-18 l 2.2678644428654687e-18,3.7037037037037035e-2 h 3.7037037037037035e-2 v -3.7037037037037035e-2 h 3.7037037037037035e-2 v 3.7037037037037035e-2 h 3.7037037037037035e-2 l 2.2678644428654687e-18,-3.7037037037037035e-2 l -3.7037037037037035e-2,-2.2678644428654687e-18 l 2.2678644428654687e-18,-3.7037037037037035e-2 l 3.7037037037037035e-2,2.2678644428654687e-18 l 2.2678644428654687e-18,-3.7037037037037035e-2 h 3.7037037037037035e-2 v -3.7037037037037035e-2 h 3.7037037037037035e-2 v 3.7037037037037035e-2 h 3.7037037037037035e-2 l 2.2678644428654687e-18,3.7037037037037035e-2 l 3.7037037037037035e-2,-2.2678644428654687e-18 l 2.2678644428654687e-18,3.7037037037037035e-2 l -3.7037037037037035e-2,2.2678644428654687e-18 l 2.2678644428654687e-18,3.7037037037037035e-2 h 3.7037037037037035e-2 v -3.7037037037037035e-2 h 3.7037037037037035e-2 v 3.7037037037037035e-2 h 3.7037037037037035e-2 " /></g><path d="M -1.0999999999999999,0.24074074074074073 h 0.3333333333333333 v -0.3333333333333333 h 0.3333333333333333 v 0.3333333333333333 h 0.3333333333333333 " /></g></g></g></g></svg>