<?xml version="1.0" encoding="UTF-8"?>
<!DOCTYPE svg PUBLIC "-//W3C//DTD SVG 1.1//EN"
    "http://www.w3.org/Graphics/SVG/1.1/DTD/svg11.dtd">
<svg xmlns="http://www.w3.org/2000/svg" xmlns:xlink="http://www.w3.org/1999/xlink" version="1.1" width="400.0" height="121.33314464870142" font-size="1" viewBox="0 0 400 121"><g><g stroke="rgb(0,0,0)" stroke-opacity="1.0" fill-opacity="0.0" stroke-width="1.0e-2" stroke-linecap="butt" stroke-linejoin="miter" font-size="1.0em" stroke-miterlimit="10.0"><g transform="matrix(155.84446764689906,0.0,0.0,155.84446764689906,200.0,60.66657232435071)"><g fill-opacity="0.0"><g fill-opacity="0.0"><path d="M 9.999999999999942e-2,0.0 l -5.145262636246846e-2,1.0514607062347006e-2 l 3.6240920243581234e-2,4.6195322831294953e-2 l -5.145262636246846e-2,1.0514607062347006e-2 l 3.624092024358123e-2,4.6195322831294953e-2 l 2.807486270950434e-2,-5.93385816592287e-2 l 3.624092024358123e-2,4.6195322831294953e-2 l -5.145262636246846e-2,1.0514607062347006e-2 l 3.6240920243581234e-2,4.6195322831294953e-2 l -5.145262636246846e-2,1.0514607062347006e-2 l 3.624092024358122e-2,4.619532283129496e-2 l 2.807486270950435e-2,-5.93385816592287e-2 l 3.624092024358122e-2,4.619532283129496e-2 l 2.807486270950435e-2,-5.93385816592287e-2 l -7.337601301398088e-2,1.5944281201100002e-3 l 2.807486270950435e-2,-5.93385816592287e-2 l 3.624092024358122e-2,4.619532283129496e-2 l 2.807486270950435e-2,-5.93385816592287e-2 l 3.624092024358122e-2,4.619532283129496e-2 l -5.145262636246846e-2,1.0514607062347006e-2 l 3.6240920243581234e-2,4.6195322831294953e-2 l -5.145262636246846e-2,1.0514607062347006e-2 l 3.624092024358123e-2,4.6195322831294953e-2 l 2.807486270950434e-2,-5.93385816592287e-2 l 3.624092024358123e-2,4.6195322831294953e-2 l -5.145262636246846e-2,1.0514607062347006e-2 l 3.6240920243581234e-2,4.6195322831294953e-2 l -5.145262636246846e-2,1.0514607062347006e-2 l 3.624092024358122e-2,4.619532283129495e-2 l 2.8074862709504336e-2,-5.9338581659228694e-2 l 3.624092024358122e-2,4.619532283129495e-2 l 2.8074862709504347e-2,-5.933858165922869e-2 l -7.337601301398086e-2,1.5944281201099968e-3 l 2.8074862709504347e-2,-5.933858165922869e-2 l 3.624092024358122e-2,4.619532283129495e-2 l 2.8074862709504336e-2,-5.9338581659228694e-2 l 3.624092024358122e-2,4.619532283129495e-2 l 2.807486270950435e-2,-5.93385816592287e-2 l -7.337601301398088e-2,1.5944281201100002e-3 l 2.807486270950435e-2,-5.93385816592287e-2 l -7.337601301398088e-2,1.5944281201100312e-3 l 3.8282434627100466e-2,7.257879895392585e-2 l -7.337601301398088e-2,1.5944281201100312e-3 l 2.807486270950435e-2,-5.93385816592287e-2 l -7.337601301398088e-2,1.5944281201100002e-3 l 2.807486270950435e-2,-5.93385816592287e-2 l 3.624092024358122e-2,4.619532283129495e-2 l 2.8074862709504336e-2,-5.9338581659228694e-2 l 3.624092024358122e-2,4.619532283129495e-2 l 2.8074862709504347e-2,-5.933858165922869e-2 l -7.337601301398086e-2,1.5944281201099968e-3 l 2.8074862709504347e-2,-5.933858165922869e-2 l 3.624092024358122e-2,4.619532283129495e-2 l 2.8074862709504336e-2,-5.9338581659228694e-2 l 3.624092024358122e-2,4.619532283129495e-2 l -5.145262636246846e-2,1.0514607062347006e-2 l 3.6240920243581234e-2,4.6195322831294953e-2 l -5.145262636246846e-2,1.0514607062347006e-2 l 3.624092024358123e-2,4.6195322831294953e-2 l 2.807486270950434e-2,-5.93385816592287e-2 l 3.624092024358123e-2,4.6195322831294953e-2 l -5.145262636246846e-2,1.0514607062347006e-2 l 3.6240920243581234e-2,4.6195322831294953e-2 l -5.145262636246846e-2,1.0514607062347006e-2 l 3.624092024358122e-2,4.619532283129496e-2 l 2.807486270950435e-2,-5.93385816592287e-2 l 3.624092024358122e-2,4.619532283129496e-2 l 2.807486270950435e-2,-5.93385816592287e-2 l -7.337601301398088e-2,1.5944281201100002e-3 l 2.807486270950435e-2,-5.93385816592287e-2 l 3.624092024358122e-2,4.619532283129496e-2 l 2.807486270950435e-2,-5.93385816592287e-2 l 3.624092024358122e-2,4.619532283129496e-2 l -5.145262636246846e-2,1.0514607062347006e-2 l 3.6240920243581234e-2,4.6195322831294953e-2 l -5.145262636246846e-2,1.0514607062347006e-2 l 3.624092024358123e-2,4.6195322831294953e-2 l 2.807486270950434e-2,-5.93385816592287e-2 l 3.624092024358123e-2,4.6195322831294953e-2 l -5.145262636246846e-2,1.0514607062347006e-2 l 3.6240920243581234e-2,4.6195322831294953e-2 l -5.145262636246846e-2,1.0514607062347006e-2 l 3.624092024358124e-2,4.6195322831294953e-2 l 2.8074862709504333e-2,-5.9338581659228715e-2 l 3.624092024358124e-2,4.6195322831294953e-2 l 2.8074862709504326e-2,-5.9338581659228715e-2 l -7.337601301398088e-2,1.5944281201100315e-3 l 2.8074862709504326e-2,-5.9338581659228715e-2 l 3.624092024358124e-2,4.6195322831294953e-2 l 2.8074862709504333e-2,-5.9338581659228715e-2 l 3.624092024358124e-2,4.6195322831294953e-2 l 2.807486270950435e-2,-5.93385816592287e-2 l -7.337601301398088e-2,1.5944281201100002e-3 l 2.807486270950435e-2,-5.93385816592287e-2 l -7.337601301398088e-2,1.5944281201100312e-3 l 3.8282434627100466e-2,7.257879895392585e-2 l -7.337601301398088e-2,1.5944281201100312e-3 l 2.807486270950435e-2,-5.93385816592287e-2 l -7.337601301398088e-2,1.5944281201100002e-3 l 2.807486270950435e-2,-5.93385816592287e-2 l 3.624092024358124e-2,4.6195322831294953e-2 l 2.8074862709504333e-2,-5.9338581659228715e-2 l 3.624092024358124e-2,4.6195322831294953e-2 l 2.8074862709504326e-2,-5.9338581659228715e-2 l -7.337601301398088e-2,1.5944281201100315e-3 l 2.8074862709504326e-2,-5.9338581659228715e-2 l 3.624092024358124e-2,4.6195322831294953e-2 l 2.8074862709504333e-2,-5.9338581659228715e-2 l 3.624092024358124e-2,4.6195322831294953e-2 l 2.8074862709504315e-2,-5.933858165922873e-2 l -7.337601301398089e-2,1.5944281201100488e-3 l 2.8074862709504315e-2,-5.933858165922873e-2 l -7.337601301398089e-2,1.594428120110064e-3 l 3.828243462710051e-2,7.257879895392585e-2 l -7.337601301398089e-2,1.594428120110064e-3 l 2.8074862709504315e-2,-5.933858165922873e-2 l -7.337601301398089e-2,1.5944281201100488e-3 l 2.8074862709504315e-2,-5.933858165922873e-2 l -7.337601301398088e-2,1.5944281201100638e-3 l 3.82824346271005e-2,7.257879895392584e-2 l -7.337601301398088e-2,1.5944281201100638e-3 l 3.8282434627100494e-2,7.257879895392584e-2 l 5.34375816403756e-2,-7.457183410406341e-2 l 3.8282434627100494e-2,7.257879895392584e-2 l -7.337601301398088e-2,1.5944281201100638e-3 l 3.82824346271005e-2,7.257879895392584e-2 l -7.337601301398088e-2,1.5944281201100638e-3 l 2.8074862709504315e-2,-5.933858165922873e-2 l -7.337601301398089e-2,1.5944281201100488e-3 l 2.8074862709504315e-2,-5.933858165922873e-2 l -7.337601301398089e-2,1.594428120110064e-3 l 3.828243462710051e-2,7.257879895392585e-2 l -7.337601301398089e-2,1.594428120110064e-3 l 2.8074862709504315e-2,-5.933858165922873e-2 l -7.337601301398089e-2,1.5944281201100488e-3 l 2.8074862709504315e-2,-5.933858165922873e-2 l 3.624092024358124e-2,4.6195322831294953e-2 l 2.8074862709504333e-2,-5.9338581659228715e-2 l 3.624092024358124e-2,4.6195322831294953e-2 l 2.8074862709504326e-2,-5.9338581659228715e-2 l -7.337601301398088e-2,1.5944281201100315e-3 l 2.8074862709504326e-2,-5.9338581659228715e-2 l 3.624092024358124e-2,4.6195322831294953e-2 l 2.8074862709504333e-2,-5.9338581659228715e-2 l 3.624092024358124e-2,4.6195322831294953e-2 l 2.807486270950435e-2,-5.93385816592287e-2 l -7.337601301398088e-2,1.5944281201100002e-3 l 2.807486270950435e-2,-5.93385816592287e-2 l -7.337601301398088e-2,1.5944281201100312e-3 l 3.8282434627100466e-2,7.257879895392585e-2 l -7.337601301398088e-2,1.5944281201100312e-3 l 2.807486270950435e-2,-5.93385816592287e-2 l -7.337601301398088e-2,1.5944281201100002e-3 l 2.807486270950435e-2,-5.93385816592287e-2 l 3.624092024358124e-2,4.6195322831294953e-2 l 2.8074862709504333e-2,-5.9338581659228715e-2 l 3.624092024358124e-2,4.6195322831294953e-2 l 2.8074862709504326e-2,-5.9338581659228715e-2 l -7.337601301398088e-2,1.5944281201100315e-3 l 2.8074862709504326e-2,-5.9338581659228715e-2 l 3.624092024358124e-2,4.6195322831294953e-2 l 2.8074862709504333e-2,-5.9338581659228715e-2 l 3.624092024358124e-2,4.6195322831294953e-2 l -5.145262636246846e-2,1.0514607062347006e-2 l 3.6240920243581234e-2,4.6195322831294953e-2 l -5.145262636246846e-2,1.0514607062347006e-2 l 3.624092024358123e-2,4.6195322831294953e-2 l 2.807486270950434e-2,-5.93385816592287e-2 l 3.624092024358123e-2,4.6195322831294953e-2 l -5.145262636246846e-2,1.0514607062347006e-2 l 3.6240920243581234e-2,4.6195322831294953e-2 l -5.145262636246846e-2,1.0514607062347006e-2 l 3.624092024358122e-2,4.619532283129496e-2 l 2.807486270950435e-2,-5.93385816592287e-2 l 3.624092024358122e-2,4.619532283129496e-2 l 2.807486270950435e-2,-5.93385816592287e-2 l -7.337601301398088e-2,1.5944281201100002e-3 l 2.807486270950435e-2,-5.93385816592287e-2 l 3.624092024358122e-2,4.619532283129496e-2 l 2.807486270950435e-2,-5.93385816592287e-2 l 3.624092024358122e-2,4.619532283129496e-2 l -5.145262636246846e-2,1.0514607062347006e-2 l 3.6240920243581234e-2,4.6195322831294953e-2 l -5.145262636246846e-2,1.0514607062347006e-2 l 3.624092024358123e-2,4.6195322831294953e-2 l 2.807486270950434e-2,-5.93385816592287e-2 l 3.624092024358123e-2,4.6195322831294953e-2 l -5.145262636246846e-2,1.0514607062347006e-2 l 3.6240920243581234e-2,4.6195322831294953e-2 l -5.145262636246846e-2,1.0514607062347006e-2 l 3.624092024358122e-2,4.619532283129495e-2 l 2.8074862709504336e-2,-5.9338581659228694e-2 l 3.624092024358122e-2,4.619532283129495e-2 l 2.8074862709504347e-2,-5.933858165922869e-2 l -7.337601301398086e-2,1.5944281201099968e-3 l 2.8074862709504347e-2,-5.933858165922869e-2 l 3.624092024358122e-2,4.619532283129495e-2 l 2.8074862709504336e-2,-5.9338581659228694e-2 l 3.624092024358122e-2,4.619532283129495e-2 l 2.807486270950435e-2,-5.93385816592287e-2 l -7.337601301398088e-2,1.5944281201100002e-3 l 2.807486270950435e-2,-5.93385816592287e-2 l -7.337601301398088e-2,1.5944281201100312e-3 l 3.8282434627100466e-2,7.257879895392585e-2 l -7.337601301398088e-2,1.5944281201100312e-3 l 2.807486270950435e-2,-5.93385816592287e-2 l -7.337601301398088e-2,1.5944281201100002e-3 l 2.807486270950435e-2,-5.93385816592287e-2 l 3.624092024358122e-2,4.619532283129495e-2 l 2.8074862709504336e-2,-5.9338581659228694e-2 l 3.624092024358122e-2,4.619532283129495e-2 l 2.8074862709504347e-2,-5.933858165922869e-2 l -7.337601301398086e-2,1.5944281201099968e-3 l 2.8074862709504347e-2,-5.933858165922869e-2 l 3.624092024358122e-2,4.619532283129495e-2 l 2.8074862709504336e-2,-5.9338581659228694e-2 l 3.624092024358122e-2,4.619532283129495e-2 l -5.145262636246846e-2,1.0514607062347006e-2 l 3.6240920243581234e-2,4.6195322831294953e-2 l -5.145262636246846e-2,1.0514607062347006e-2 l 3.624092024358123e-2,4.6195322831294953e-2 l 2.807486270950434e-2,-5.93385816592287e-2 l 3.624092024358123e-2,4.6195322831294953e-2 l -5.145262636246846e-2,1.0514607062347006e-2 l 3.6240920243581234e-2,4.6195322831294953e-2 l -5.145262636246846e-2,1.0514607062347006e-2 l 3.624092024358122e-2,4.619532283129496e-2 l 2.807486270950435e-2,-5.93385816592287e-2 l 3.624092024358122e-2,4.619532283129496e-2 l 2.807486270950435e-2,-5.93385816592287e-2 l -7.337601301398088e-2,1.5944281201100002e-3 l 2.807486270950435e-2,-5.93385816592287e-2 l 3.624092024358122e-2,4.619532283129496e-2 l 2.807486270950435e-2,-5.93385816592287e-2 l 3.624092024358122e-2,4.619532283129496e-2 l -5.145262636246846e-2,1.0514607062347006e-2 l 3.6240920243581234e-2,4.6195322831294953e-2 l -5.145262636246846e-2,1.0514607062347006e-2 l 3.624092024358123e-2,4.6195322831294953e-2 l 2.807486270950434e-2,-5.93385816592287e-2 l 3.624092024358123e-2,4.6195322831294953e-2 l -5.145262636246846e-2,1.0514607062347006e-2 l 3.6240920243581234e-2,4.6195322831294953e-2 l -5.145262636246846e-2,1.0514607062347006e-2 " /></g><path d="M -1.1666643324813561,0.0 l 0.46153846153846156,0.30769230769230765 l 7.692307692307687e-2,-0.6153846153846154 l 0.46153846153846156,0.30769230769230765 " /></g></g></g></g></svg>