<?xml version="1.0" encoding="UTF-8"?>
<!DOCTYPE svg PUBLIC "-//W3C//DTD SVG 1.1//EN"
    "http://www.w3.org/Graphics/SVG/1.1/DTD/svg11.dtd">
<svg xmlns="http://www.w3.org/2000/svg" xmlns:xlink="http://www.w3.org/1999/xlink" version="1.1" width="400.0" height="151.394422310757" font-size="1" viewBox="0 0 400 151"><g><g transform="matrix(115.9000362187613,0.0,0.0,115.9000362187613,200.0,75.6972111553785)"><g stroke="rgb(0,0,0)" stroke-opacity="1.0" fill-opacity="0.0" stroke-width="1.0e-2" font-size="1.0em"><path d="M 9.999999999999942e-2,0.3750000000000002 l 3.1249999999999976e-2,-3.124999999999998e-2 l 3.124999999999998e-2,3.1249999999999976e-2 l 3.124999999999998e-2,3.1249999999999976e-2 l -3.1249999999999976e-2,3.124999999999998e-2 l 3.124999999999998e-2,3.1249999999999976e-2 l -3.1249999999999976e-2,3.124999999999998e-2 l -3.1249999999999976e-2,3.1249999999999986e-2 l -3.1249999999999986e-2,-3.1249999999999976e-2 l 3.124999999999998e-2,3.1249999999999976e-2 l -3.1249999999999976e-2,3.124999999999998e-2 l -3.1249999999999976e-2,3.1249999999999986e-2 l -3.1249999999999986e-2,-3.1249999999999976e-2 l -3.124999999999998e-2,3.1249999999999976e-2 l -3.1249999999999976e-2,-3.124999999999998e-2 l -3.1249999999999976e-2,-3.124999999999998e-2 l 3.124999999999998e-2,-3.1249999999999976e-2 l 3.124999999999998e-2,3.1249999999999976e-2 l -3.1249999999999976e-2,3.124999999999998e-2 l -3.1249999999999976e-2,3.1249999999999986e-2 l -3.1249999999999986e-2,-3.1249999999999976e-2 l -3.124999999999998e-2,3.1249999999999976e-2 l -3.1249999999999976e-2,-3.124999999999998e-2 l -3.1249999999999976e-2,-3.124999999999998e-2 l 3.124999999999998e-2,-3.1249999999999976e-2 l -3.124999999999998e-2,3.1249999999999976e-2 l -3.1249999999999976e-2,-3.124999999999998e-2 l -3.1249999999999976e-2,-3.124999999999998e-2 l 3.124999999999998e-2,-3.1249999999999976e-2 l -3.1249999999999976e-2,-3.124999999999998e-2 l 3.124999999999998e-2,-3.1249999999999976e-2 l 3.1249999999999976e-2,-3.124999999999998e-2 l 3.124999999999998e-2,3.1249999999999976e-2 l 3.124999999999998e-2,3.1249999999999976e-2 l -3.1249999999999976e-2,3.124999999999998e-2 l -3.1249999999999976e-2,3.1249999999999986e-2 l -3.1249999999999986e-2,-3.1249999999999976e-2 l -3.124999999999998e-2,3.1249999999999976e-2 l -3.1249999999999976e-2,-3.124999999999998e-2 l -3.1249999999999976e-2,-3.124999999999998e-2 l 3.124999999999998e-2,-3.1249999999999976e-2 l -3.124999999999998e-2,3.1249999999999976e-2 l -3.1249999999999976e-2,-3.124999999999998e-2 l -3.1249999999999976e-2,-3.124999999999998e-2 l 3.124999999999998e-2,-3.1249999999999976e-2 l -3.1249999999999976e-2,-3.124999999999998e-2 l 3.124999999999998e-2,-3.1249999999999976e-2 l 3.1249999999999976e-2,-3.124999999999998e-2 l 3.124999999999998e-2,3.1249999999999976e-2 l -3.124999999999998e-2,3.1249999999999976e-2 l -3.1249999999999976e-2,-3.124999999999998e-2 l -3.1249999999999976e-2,-3.124999999999998e-2 l 3.124999999999998e-2,-3.1249999999999976e-2 l -3.1249999999999976e-2,-3.124999999999998e-2 l 3.124999999999998e-2,-3.1249999999999976e-2 l 3.1249999999999976e-2,-3.124999999999998e-2 l 3.124999999999998e-2,3.1249999999999976e-2 l -3.1249999999999986e-2,-3.124999999999997e-2 l 3.124999999999997e-2,-3.1249999999999986e-2 l 3.124999999999997e-2,-3.1249999999999986e-2 l 3.1249999999999986e-2,3.124999999999997e-2 l 3.1249999999999976e-2,-3.124999999999998e-2 l 3.124999999999998e-2,3.1249999999999976e-2 l 3.124999999999998e-2,3.1249999999999976e-2 l -3.1249999999999976e-2,3.124999999999998e-2 l 3.124999999999998e-2,3.1249999999999976e-2 l -3.1249999999999976e-2,3.124999999999998e-2 l -3.1249999999999976e-2,3.1249999999999986e-2 l -3.1249999999999986e-2,-3.1249999999999976e-2 l -3.124999999999998e-2,3.1249999999999976e-2 l -3.1249999999999976e-2,-3.124999999999998e-2 l -3.1249999999999976e-2,-3.124999999999998e-2 l 3.124999999999998e-2,-3.1249999999999976e-2 l -3.124999999999998e-2,3.1249999999999976e-2 l -3.1249999999999976e-2,-3.124999999999998e-2 l -3.1249999999999976e-2,-3.124999999999998e-2 l 3.124999999999998e-2,-3.1249999999999976e-2 l -3.1249999999999976e-2,-3.124999999999998e-2 l 3.124999999999998e-2,-3.1249999999999976e-2 l 3.1249999999999976e-2,-3.124999999999998e-2 l 3.124999999999998e-2,3.1249999999999976e-2 l -3.124999999999998e-2,3.1249999999999976e-2 l -3.1249999999999976e-2,-3.124999999999998e-2 l -3.1249999999999976e-2,-3.124999999999998e-2 l 3.124999999999998e-2,-3.1249999999999976e-2 l -3.1249999999999986e-2,-3.124999999999997e-2 l 3.124999999999997e-2,-3.1249999999999986e-2 l 3.124999999999997e-2,-3.1249999999999986e-2 l 3.1249999999999986e-2,3.124999999999997e-2 l -3.1249999999999986e-2,-3.124999999999997e-2 l 3.124999999999997e-2,-3.1249999999999986e-2 l 3.124999999999997e-2,-3.1249999999999986e-2 l 3.1249999999999986e-2,3.124999999999997e-2 l 3.1249999999999962e-2,-3.1249999999999993e-2 l 3.1249999999999993e-2,3.1249999999999962e-2 l 3.125000000000001e-2,3.1249999999999944e-2 l -3.1249999999999944e-2,3.125000000000001e-2 l -3.124999999999998e-2,3.1249999999999976e-2 l -3.1249999999999976e-2,-3.124999999999998e-2 l -3.1249999999999976e-2,-3.124999999999998e-2 l 3.124999999999998e-2,-3.1249999999999976e-2 l -3.1249999999999986e-2,-3.124999999999997e-2 l 3.124999999999997e-2,-3.1249999999999986e-2 l 3.124999999999997e-2,-3.1249999999999986e-2 l 3.1249999999999986e-2,3.124999999999997e-2 l -3.1249999999999986e-2,-3.124999999999997e-2 l 3.124999999999997e-2,-3.1249999999999986e-2 l 3.124999999999997e-2,-3.1249999999999986e-2 l 3.1249999999999986e-2,3.124999999999997e-2 l 3.1249999999999962e-2,-3.1249999999999993e-2 l 3.1249999999999993e-2,3.1249999999999962e-2 l 3.125000000000001e-2,3.1249999999999944e-2 l -3.1249999999999944e-2,3.125000000000001e-2 l -3.1249999999999986e-2,-3.124999999999997e-2 l 3.124999999999997e-2,-3.1249999999999986e-2 l 3.1249999999999962e-2,-3.1249999999999993e-2 l 3.1249999999999993e-2,3.1249999999999962e-2 l 3.1249999999999962e-2,-3.1249999999999993e-2 l 3.1249999999999993e-2,3.1249999999999962e-2 l 3.125000000000001e-2,3.1249999999999944e-2 l -3.1249999999999944e-2,3.125000000000001e-2 l 3.124999999999994e-2,-3.1250000000000014e-2 l 3.1250000000000014e-2,3.124999999999994e-2 l 3.125000000000001e-2,3.1249999999999944e-2 l -3.1249999999999944e-2,3.125000000000001e-2 l 3.125000000000001e-2,3.1249999999999944e-2 l -3.1249999999999944e-2,3.125000000000001e-2 l -3.124999999999993e-2,3.125000000000002e-2 l -3.125000000000002e-2,-3.124999999999993e-2 l 3.124999999999998e-2,3.1249999999999976e-2 l -3.1249999999999976e-2,3.124999999999998e-2 l -3.1249999999999976e-2,3.1249999999999986e-2 l -3.1249999999999986e-2,-3.1249999999999976e-2 l -3.124999999999998e-2,3.1249999999999976e-2 l -3.1249999999999976e-2,-3.124999999999998e-2 l -3.1249999999999976e-2,-3.124999999999998e-2 l 3.124999999999998e-2,-3.1249999999999976e-2 l -3.124999999999998e-2,3.1249999999999976e-2 l -3.1249999999999976e-2,-3.124999999999998e-2 l -3.1249999999999976e-2,-3.124999999999998e-2 l 3.124999999999998e-2,-3.1249999999999976e-2 l -3.1249999999999976e-2,-3.124999999999998e-2 l 3.124999999999998e-2,-3.1249999999999976e-2 l 3.1249999999999976e-2,-3.124999999999998e-2 l 3.124999999999998e-2,3.1249999999999976e-2 l -3.124999999999998e-2,3.1249999999999976e-2 l -3.1249999999999976e-2,-3.124999999999998e-2 l -3.1249999999999976e-2,-3.124999999999998e-2 l 3.124999999999998e-2,-3.1249999999999976e-2 l -3.1249999999999986e-2,-3.124999999999997e-2 l 3.124999999999997e-2,-3.1249999999999986e-2 l 3.124999999999997e-2,-3.1249999999999986e-2 l 3.1249999999999986e-2,3.124999999999997e-2 l -3.1249999999999986e-2,-3.124999999999997e-2 l 3.124999999999997e-2,-3.1249999999999986e-2 l 3.124999999999997e-2,-3.1249999999999986e-2 l 3.1249999999999986e-2,3.124999999999997e-2 l 3.1249999999999962e-2,-3.1249999999999993e-2 l 3.1249999999999993e-2,3.1249999999999962e-2 l 3.125000000000001e-2,3.1249999999999944e-2 l -3.1249999999999944e-2,3.125000000000001e-2 l -3.124999999999998e-2,3.1249999999999976e-2 l -3.1249999999999976e-2,-3.124999999999998e-2 l -3.1249999999999976e-2,-3.124999999999998e-2 l 3.124999999999998e-2,-3.1249999999999976e-2 l -3.1249999999999986e-2,-3.124999999999997e-2 l 3.124999999999997e-2,-3.1249999999999986e-2 l 3.124999999999997e-2,-3.1249999999999986e-2 l 3.1249999999999986e-2,3.124999999999997e-2 l -3.1249999999999986e-2,-3.124999999999997e-2 l 3.124999999999997e-2,-3.1249999999999986e-2 l 3.124999999999997e-2,-3.1249999999999986e-2 l 3.1249999999999986e-2,3.124999999999997e-2 l 3.1249999999999962e-2,-3.1249999999999993e-2 l 3.1249999999999993e-2,3.1249999999999962e-2 l 3.125000000000001e-2,3.1249999999999944e-2 l -3.1249999999999944e-2,3.125000000000001e-2 l -3.1249999999999986e-2,-3.124999999999997e-2 l 3.124999999999997e-2,-3.1249999999999986e-2 l 3.1249999999999962e-2,-3.1249999999999993e-2 l 3.1249999999999993e-2,3.1249999999999962e-2 l 3.1249999999999962e-2,-3.1249999999999993e-2 l 3.1249999999999993e-2,3.1249999999999962e-2 l 3.125000000000001e-2,3.1249999999999944e-2 l -3.1249999999999944e-2,3.125000000000001e-2 l 3.124999999999994e-2,-3.1250000000000014e-2 l 3.1250000000000014e-2,3.124999999999994e-2 l 3.125000000000001e-2,3.1249999999999944e-2 l -3.1249999999999944e-2,3.125000000000001e-2 l 3.125000000000001e-2,3.1249999999999944e-2 l -3.1249999999999944e-2,3.125000000000001e-2 l -3.124999999999993e-2,3.125000000000002e-2 l -3.125000000000002e-2,-3.124999999999993e-2 l -3.1249999999999934e-2,3.125000000000003e-2 l -3.125000000000003e-2,-3.1249999999999934e-2 l -3.1250000000000014e-2,-3.124999999999995e-2 l 3.124999999999995e-2,-3.1250000000000014e-2 l -3.125000000000001e-2,-3.1249999999999965e-2 l 3.1249999999999965e-2,-3.125000000000001e-2 l 3.1249999999999962e-2,-3.125000000000001e-2 l 3.125000000000001e-2,3.1249999999999962e-2 l -3.125e-2,-3.1249999999999962e-2 l 3.1249999999999962e-2,-3.125e-2 l 3.1249999999999955e-2,-3.125e-2 l 3.125e-2,3.1249999999999955e-2 l 3.1249999999999955e-2,-3.125e-2 l 3.125e-2,3.1249999999999955e-2 l 3.125000000000001e-2,3.1249999999999944e-2 l -3.1249999999999944e-2,3.125000000000001e-2 l -3.1249999999999986e-2,-3.124999999999997e-2 l 3.124999999999997e-2,-3.1249999999999986e-2 l 3.1249999999999962e-2,-3.1249999999999993e-2 l 3.1249999999999993e-2,3.1249999999999962e-2 l 3.1249999999999962e-2,-3.1249999999999993e-2 l 3.1249999999999993e-2,3.1249999999999962e-2 l 3.125000000000001e-2,3.1249999999999944e-2 l -3.1249999999999944e-2,3.125000000000001e-2 l 3.124999999999994e-2,-3.1250000000000014e-2 l 3.1250000000000014e-2,3.124999999999994e-2 l 3.125000000000001e-2,3.1249999999999944e-2 l -3.1249999999999944e-2,3.125000000000001e-2 l 3.125000000000001e-2,3.1249999999999944e-2 l -3.1249999999999944e-2,3.125000000000001e-2 l -3.124999999999993e-2,3.125000000000002e-2 l -3.125000000000002e-2,-3.124999999999993e-2 l -3.125000000000001e-2,-3.1249999999999944e-2 l 3.1249999999999944e-2,-3.125000000000001e-2 l 3.124999999999994e-2,-3.125000000000002e-2 l 3.125000000000002e-2,3.124999999999994e-2 l 3.124999999999994e-2,-3.1250000000000014e-2 l 3.1250000000000014e-2,3.124999999999994e-2 l 3.125000000000001e-2,3.1249999999999944e-2 l -3.1249999999999944e-2,3.125000000000001e-2 l 3.124999999999994e-2,-3.1250000000000014e-2 l 3.1250000000000014e-2,3.124999999999994e-2 l 3.125000000000001e-2,3.1249999999999944e-2 l -3.1249999999999944e-2,3.125000000000001e-2 l 3.125000000000001e-2,3.1249999999999944e-2 l -3.1249999999999944e-2,3.125000000000001e-2 l -3.124999999999993e-2,3.125000000000002e-2 l -3.125000000000002e-2,-3.124999999999993e-2 l 3.124999999999994e-2,-3.1250000000000014e-2 l 3.1250000000000014e-2,3.124999999999994e-2 l 3.125000000000001e-2,3.1249999999999944e-2 l -3.1249999999999944e-2,3.125000000000001e-2 l 3.125000000000001e-2,3.1249999999999944e-2 l -3.1249999999999944e-2,3.125000000000001e-2 l -3.124999999999993e-2,3.125000000000002e-2 l -3.125000000000002e-2,-3.124999999999993e-2 l 3.1250000000000035e-2,3.124999999999992e-2 l -3.124999999999992e-2,3.1250000000000035e-2 l -3.124999999999993e-2,3.125000000000002e-2 l -3.125000000000002e-2,-3.124999999999993e-2 l -3.124999999999993e-2,3.125000000000002e-2 l -3.125000000000002e-2,-3.124999999999993e-2 l -3.125000000000001e-2,-3.1249999999999944e-2 l 3.1249999999999944e-2,-3.125000000000001e-2 l 3.124999999999998e-2,3.1249999999999976e-2 l -3.1249999999999976e-2,3.124999999999998e-2 l -3.1249999999999976e-2,3.1249999999999986e-2 l -3.1249999999999986e-2,-3.1249999999999976e-2 l -3.124999999999998e-2,3.1249999999999976e-2 l -3.1249999999999976e-2,-3.124999999999998e-2 l -3.1249999999999976e-2,-3.124999999999998e-2 l 3.124999999999998e-2,-3.1249999999999976e-2 l -3.124999999999998e-2,3.1249999999999976e-2 l -3.1249999999999976e-2,-3.124999999999998e-2 l -3.1249999999999976e-2,-3.124999999999998e-2 l 3.124999999999998e-2,-3.1249999999999976e-2 l -3.1249999999999976e-2,-3.124999999999998e-2 l 3.124999999999998e-2,-3.1249999999999976e-2 l 3.1249999999999976e-2,-3.124999999999998e-2 l 3.124999999999998e-2,3.1249999999999976e-2 l -3.124999999999998e-2,3.1249999999999976e-2 l -3.1249999999999976e-2,-3.124999999999998e-2 l -3.1249999999999976e-2,-3.124999999999998e-2 l 3.124999999999998e-2,-3.1249999999999976e-2 l -3.1249999999999986e-2,-3.124999999999997e-2 l 3.124999999999997e-2,-3.1249999999999986e-2 l 3.124999999999997e-2,-3.1249999999999986e-2 l 3.1249999999999986e-2,3.124999999999997e-2 l -3.1249999999999986e-2,-3.124999999999997e-2 l 3.124999999999997e-2,-3.1249999999999986e-2 l 3.124999999999997e-2,-3.1249999999999986e-2 l 3.1249999999999986e-2,3.124999999999997e-2 l 3.1249999999999962e-2,-3.1249999999999993e-2 l 3.1249999999999993e-2,3.1249999999999962e-2 l 3.125000000000001e-2,3.1249999999999944e-2 l -3.1249999999999944e-2,3.125000000000001e-2 l -3.124999999999998e-2,3.1249999999999976e-2 l -3.1249999999999976e-2,-3.124999999999998e-2 l -3.1249999999999976e-2,-3.124999999999998e-2 l 3.124999999999998e-2,-3.1249999999999976e-2 l -3.1249999999999986e-2,-3.124999999999997e-2 l 3.124999999999997e-2,-3.1249999999999986e-2 l 3.124999999999997e-2,-3.1249999999999986e-2 l 3.1249999999999986e-2,3.124999999999997e-2 l -3.1249999999999986e-2,-3.124999999999997e-2 l 3.124999999999997e-2,-3.1249999999999986e-2 l 3.124999999999997e-2,-3.1249999999999986e-2 l 3.1249999999999986e-2,3.124999999999997e-2 l 3.1249999999999962e-2,-3.1249999999999993e-2 l 3.1249999999999993e-2,3.1249999999999962e-2 l 3.125000000000001e-2,3.1249999999999944e-2 l -3.1249999999999944e-2,3.125000000000001e-2 l -3.1249999999999986e-2,-3.124999999999997e-2 l 3.124999999999997e-2,-3.1249999999999986e-2 l 3.1249999999999962e-2,-3.1249999999999993e-2 l 3.1249999999999993e-2,3.1249999999999962e-2 l 3.1249999999999962e-2,-3.1249999999999993e-2 l 3.1249999999999993e-2,3.1249999999999962e-2 l 3.125000000000001e-2,3.1249999999999944e-2 l -3.1249999999999944e-2,3.125000000000001e-2 l 3.124999999999994e-2,-3.1250000000000014e-2 l 3.1250000000000014e-2,3.124999999999994e-2 l 3.125000000000001e-2,3.1249999999999944e-2 l -3.1249999999999944e-2,3.125000000000001e-2 l 3.125000000000001e-2,3.1249999999999944e-2 l -3.1249999999999944e-2,3.125000000000001e-2 l -3.124999999999993e-2,3.125000000000002e-2 l -3.125000000000002e-2,-3.124999999999993e-2 l -3.124999999999998e-2,3.1249999999999976e-2 l -3.1249999999999976e-2,-3.124999999999998e-2 l -3.1249999999999976e-2,-3.124999999999998e-2 l 3.124999999999998e-2,-3.1249999999999976e-2 l -3.1249999999999986e-2,-3.124999999999997e-2 l 3.124999999999997e-2,-3.1249999999999986e-2 l 3.124999999999997e-2,-3.1249999999999986e-2 l 3.1249999999999986e-2,3.124999999999997e-2 l -3.1249999999999986e-2,-3.124999999999997e-2 l 3.124999999999997e-2,-3.1249999999999986e-2 l 3.124999999999997e-2,-3.1249999999999986e-2 l 3.1249999999999986e-2,3.124999999999997e-2 l 3.1249999999999962e-2,-3.1249999999999993e-2 l 3.1249999999999993e-2,3.1249999999999962e-2 l 3.125000000000001e-2,3.1249999999999944e-2 l -3.1249999999999944e-2,3.125000000000001e-2 l -3.1249999999999986e-2,-3.124999999999997e-2 l 3.124999999999997e-2,-3.1249999999999986e-2 l 3.124999999999997e-2,-3.1249999999999986e-2 l 3.1249999999999986e-2,3.124999999999997e-2 l 3.1249999999999976e-2,-3.124999999999998e-2 l 3.124999999999998e-2,3.1249999999999976e-2 l 3.124999999999998e-2,3.1249999999999976e-2 l -3.1249999999999976e-2,3.124999999999998e-2 l 3.1249999999999976e-2,-3.124999999999998e-2 l 3.124999999999998e-2,3.1249999999999976e-2 l 3.124999999999998e-2,3.1249999999999976e-2 l -3.1249999999999976e-2,3.124999999999998e-2 l 3.124999999999998e-2,3.1249999999999976e-2 l -3.1249999999999976e-2,3.124999999999998e-2 l -3.1249999999999976e-2,3.1249999999999986e-2 l -3.1249999999999986e-2,-3.1249999999999976e-2 l -3.1249999999999986e-2,-3.124999999999997e-2 l 3.124999999999997e-2,-3.1249999999999986e-2 l 3.124999999999997e-2,-3.1249999999999986e-2 l 3.1249999999999986e-2,3.124999999999997e-2 l 3.1249999999999976e-2,-3.124999999999998e-2 l 3.124999999999998e-2,3.1249999999999976e-2 l 3.124999999999998e-2,3.1249999999999976e-2 l -3.1249999999999976e-2,3.124999999999998e-2 l 3.1249999999999976e-2,-3.124999999999998e-2 l 3.124999999999998e-2,3.1249999999999976e-2 l 3.124999999999998e-2,3.1249999999999976e-2 l -3.1249999999999976e-2,3.124999999999998e-2 l 3.124999999999998e-2,3.1249999999999976e-2 l -3.1249999999999976e-2,3.124999999999998e-2 l -3.1249999999999976e-2,3.1249999999999986e-2 l -3.1249999999999986e-2,-3.1249999999999976e-2 l 3.1249999999999976e-2,-3.124999999999998e-2 l 3.124999999999998e-2,3.1249999999999976e-2 l 3.124999999999998e-2,3.1249999999999976e-2 l -3.1249999999999976e-2,3.124999999999998e-2 l 3.124999999999998e-2,3.1249999999999976e-2 l -3.1249999999999976e-2,3.124999999999998e-2 l -3.1249999999999976e-2,3.1249999999999986e-2 l -3.1249999999999986e-2,-3.1249999999999976e-2 l 3.124999999999998e-2,3.1249999999999976e-2 l -3.1249999999999976e-2,3.124999999999998e-2 l -3.1249999999999976e-2,3.1249999999999986e-2 l -3.1249999999999986e-2,-3.1249999999999976e-2 l -3.124999999999998e-2,3.1249999999999976e-2 l -3.1249999999999976e-2,-3.124999999999998e-2 l -3.1249999999999976e-2,-3.124999999999998e-2 l 3.124999999999998e-2,-3.1249999999999976e-2 l -3.124999999999998e-2,3.1249999999999976e-2 l -3.1249999999999976e-2,-3.124999999999998e-2 l -3.1249999999999976e-2,-3.124999999999998e-2 l 3.124999999999998e-2,-3.1249999999999976e-2 l -3.1249999999999986e-2,-3.124999999999997e-2 l 3.124999999999997e-2,-3.1249999999999986e-2 l 3.124999999999997e-2,-3.1249999999999986e-2 l 3.1249999999999986e-2,3.124999999999997e-2 l -3.1249999999999986e-2,-3.124999999999997e-2 l 3.124999999999997e-2,-3.1249999999999986e-2 l 3.124999999999997e-2,-3.1249999999999986e-2 l 3.1249999999999986e-2,3.124999999999997e-2 l 3.1249999999999962e-2,-3.1249999999999993e-2 l 3.1249999999999993e-2,3.1249999999999962e-2 l 3.125000000000001e-2,3.1249999999999944e-2 l -3.1249999999999944e-2,3.125000000000001e-2 l -3.1249999999999986e-2,-3.124999999999997e-2 l 3.124999999999997e-2,-3.1249999999999986e-2 l 3.124999999999997e-2,-3.1249999999999986e-2 l 3.1249999999999986e-2,3.124999999999997e-2 l 3.1249999999999976e-2,-3.124999999999998e-2 l 3.124999999999998e-2,3.1249999999999976e-2 l 3.124999999999998e-2,3.1249999999999976e-2 l -3.1249999999999976e-2,3.124999999999998e-2 l 3.1249999999999976e-2,-3.124999999999998e-2 l 3.124999999999998e-2,3.1249999999999976e-2 l 3.124999999999998e-2,3.1249999999999976e-2 l -3.1249999999999976e-2,3.124999999999998e-2 l 3.124999999999998e-2,3.1249999999999976e-2 l -3.1249999999999976e-2,3.124999999999998e-2 l -3.1249999999999976e-2,3.1249999999999986e-2 l -3.1249999999999986e-2,-3.1249999999999976e-2 l -3.1249999999999986e-2,-3.124999999999997e-2 l 3.124999999999997e-2,-3.1249999999999986e-2 l 3.124999999999997e-2,-3.1249999999999986e-2 l 3.1249999999999986e-2,3.124999999999997e-2 l 3.1249999999999976e-2,-3.124999999999998e-2 l 3.124999999999998e-2,3.1249999999999976e-2 l 3.124999999999998e-2,3.1249999999999976e-2 l -3.1249999999999976e-2,3.124999999999998e-2 l 3.1249999999999976e-2,-3.124999999999998e-2 l 3.124999999999998e-2,3.1249999999999976e-2 l 3.124999999999998e-2,3.1249999999999976e-2 l -3.1249999999999976e-2,3.124999999999998e-2 l 3.124999999999998e-2,3.1249999999999976e-2 l -3.1249999999999976e-2,3.124999999999998e-2 l -3.1249999999999976e-2,3.1249999999999986e-2 l -3.1249999999999986e-2,-3.1249999999999976e-2 l 3.1249999999999976e-2,-3.124999999999998e-2 l 3.124999999999998e-2,3.1249999999999976e-2 l 3.124999999999998e-2,3.1249999999999976e-2 l -3.1249999999999976e-2,3.124999999999998e-2 l 3.124999999999998e-2,3.1249999999999976e-2 l -3.1249999999999976e-2,3.124999999999998e-2 l -3.1249999999999976e-2,3.1249999999999986e-2 l -3.1249999999999986e-2,-3.1249999999999976e-2 l 3.124999999999998e-2,3.1249999999999976e-2 l -3.1249999999999976e-2,3.124999999999998e-2 l -3.1249999999999976e-2,3.1249999999999986e-2 l -3.1249999999999986e-2,-3.1249999999999976e-2 l -3.124999999999998e-2,3.1249999999999976e-2 l -3.1249999999999976e-2,-3.124999999999998e-2 l -3.1249999999999976e-2,-3.124999999999998e-2 l 3.124999999999998e-2,-3.1249999999999976e-2 l -3.1249999999999986e-2,-3.124999999999997e-2 l 3.124999999999997e-2,-3.1249999999999986e-2 l 3.124999999999997e-2,-3.1249999999999986e-2 l 3.1249999999999986e-2,3.124999999999997e-2 l 3.1249999999999976e-2,-3.124999999999998e-2 l 3.124999999999998e-2,3.1249999999999976e-2 l 3.124999999999998e-2,3.1249999999999976e-2 l -3.1249999999999976e-2,3.124999999999998e-2 l 3.1249999999999976e-2,-3.124999999999998e-2 l 3.124999999999998e-2,3.1249999999999976e-2 l 3.124999999999998e-2,3.1249999999999976e-2 l -3.1249999999999976e-2,3.124999999999998e-2 l 3.124999999999998e-2,3.1249999999999976e-2 l -3.1249999999999976e-2,3.124999999999998e-2 l -3.1249999999999976e-2,3.1249999999999986e-2 l -3.1249999999999986e-2,-3.1249999999999976e-2 l 3.1249999999999976e-2,-3.124999999999998e-2 l 3.124999999999998e-2,3.1249999999999976e-2 l 3.124999999999998e-2,3.1249999999999976e-2 l -3.1249999999999976e-2,3.124999999999998e-2 l 3.124999999999998e-2,3.1249999999999976e-2 l -3.1249999999999976e-2,3.124999999999998e-2 l -3.1249999999999976e-2,3.1249999999999986e-2 l -3.1249999999999986e-2,-3.1249999999999976e-2 l 3.124999999999998e-2,3.1249999999999976e-2 l -3.1249999999999976e-2,3.124999999999998e-2 l -3.1249999999999976e-2,3.1249999999999986e-2 l -3.1249999999999986e-2,-3.1249999999999976e-2 l -3.124999999999998e-2,3.1249999999999976e-2 l -3.1249999999999976e-2,-3.124999999999998e-2 l -3.1249999999999976e-2,-3.124999999999998e-2 l 3.124999999999998e-2,-3.1249999999999976e-2 l 3.1249999999999976e-2,-3.124999999999998e-2 l 3.124999999999998e-2,3.1249999999999976e-2 l 3.124999999999998e-2,3.1249999999999976e-2 l -3.1249999999999976e-2,3.124999999999998e-2 l 3.124999999999998e-2,3.1249999999999976e-2 l -3.1249999999999976e-2,3.124999999999998e-2 l -3.1249999999999976e-2,3.1249999999999986e-2 l -3.1249999999999986e-2,-3.1249999999999976e-2 l 3.124999999999998e-2,3.1249999999999976e-2 l -3.1249999999999976e-2,3.124999999999998e-2 l -3.1249999999999976e-2,3.1249999999999986e-2 l -3.1249999999999986e-2,-3.1249999999999976e-2 l -3.124999999999998e-2,3.1249999999999976e-2 l -3.1249999999999976e-2,-3.124999999999998e-2 l -3.1249999999999976e-2,-3.124999999999998e-2 l 3.124999999999998e-2,-3.1249999999999976e-2 l 3.124999999999998e-2,3.1249999999999976e-2 l -3.1249999999999976e-2,3.124999999999998e-2 l -3.1249999999999976e-2,3.1249999999999986e-2 l -3.1249999999999986e-2,-3.1249999999999976e-2 l -3.124999999999998e-2,3.1249999999999976e-2 l -3.1249999999999976e-2,-3.124999999999998e-2 l -3.1249999999999976e-2,-3.124999999999998e-2 l 3.124999999999998e-2,-3.1249999999999976e-2 l -3.124999999999998e-2,3.1249999999999976e-2 l -3.1249999999999976e-2,-3.124999999999998e-2 l -3.1249999999999976e-2,-3.124999999999998e-2 l 3.124999999999998e-2,-3.1249999999999976e-2 l -3.1249999999999976e-2,-3.124999999999998e-2 l 3.124999999999998e-2,-3.1249999999999976e-2 l 3.1249999999999976e-2,-3.124999999999998e-2 l 3.124999999999998e-2,3.1249999999999976e-2 " /></g></g><g transform="matrix(115.9000362187613,0.0,0.0,115.9000362187613,200.0,75.6972111553785)"><g stroke="rgb(0,0,0)" stroke-opacity="1.0" fill-opacity="0.0" stroke-width="1.0e-2" font-size="1.0em"><path d="M -1.56875,0.3750000000000002 l 0.4999999999999999,-0.5 l 0.5,0.4999999999999999 " /></g></g></g></svg>