<?xml version="1.0" encoding="UTF-8"?>
<!DOCTYPE svg PUBLIC "-//W3C//DTD SVG 1.1//EN"
    "http://www.w3.org/Graphics/SVG/1.1/DTD/svg11.dtd"><svg xmlns="http://www.w3.org/2000/svg" height="346.4101615137754" stroke-opacity="1" viewBox="0 0 300 346" font-size="1" width="300.0" xmlns:xlink="http://www.w3.org/1999/xlink" stroke="rgb(0,0,0)" version="1.1"><g><defs></defs><g stroke-linejoin="miter" stroke-opacity="1.0" fill-opacity="0.0" stroke="rgb(0,0,0)" stroke-width="1.28948391818825" fill="rgb(0,0,0)" stroke-linecap="butt" stroke-miterlimit="10.0"><path d="M 13.636363636363626,94.47549859466599 l 3.3670033670033654,5.999459334134358e-17 l 1.6835016835016834,-2.9159104504526545 l 1.6835016835016834,2.9159104504526545 l 3.3670033670033654,5.999459334134358e-17 l 1.6835016835016834,-2.9159104504526545 l -1.6835016835016827,-2.915910450452655 l 3.3670033670033654,5.999459334134358e-17 l 1.6835016835016834,-2.9159104504526545 l 1.6835016835016834,2.9159104504526545 l 3.3670033670033654,5.999459334134358e-17 l -1.6835016835016827,2.915910450452655 l 1.6835016835016834,2.9159104504526545 l 3.3670033670033654,5.999459334134358e-17 l 1.6835016835016834,-2.9159104504526545 l 1.6835016835016834,2.9159104504526545 l 3.3670033670033654,5.999459334134358e-17 l 1.6835016835016834,-2.9159104504526536 l -1.683501683501682,-2.915910450452655 l 3.3670033670033654,2.079620278803305e-16 l 1.6835016835016834,-2.9159104504526536 l -1.683501683501682,-2.915910450452655 l -3.367003367003366,-1.0490400768387823e-15 l 1.6835016835016834,-2.9159104504526536 l -1.683501683501682,-2.915910450452655 l 3.3670033670033654,2.079620278803305e-16 l 1.6835016835016834,-2.9159104504526536 l 1.6835016835016827,2.9159104504526545 l 3.3670033670033654,2.079620278803305e-16 l 1.6835016835016834,-2.9159104504526536 l -1.683501683501682,-2.915910450452655 l 3.3670033670033654,2.079620278803305e-16 l 1.6835016835016834,-2.9159104504526536 l 1.6835016835016834,2.9159104504526536 l 3.3670033670033654,-2.1257699659889542e-16 l -1.683501683501682,2.915910450452655 l 1.6835016835016834,2.9159104504526536 l 3.3670033670033654,-2.1257699659889542e-16 l 1.6835016835016827,-2.9159104504526545 l 1.6835016835016834,2.9159104504526536 l 3.3670033670033654,-2.1257699659889542e-16 l -1.683501683501682,2.915910450452655 l 1.6835016835016834,2.9159104504526536 l -3.367003367003366,1.0536550455573471e-15 l -1.683501683501682,2.915910450452655 l 1.6835016835016834,2.9159104504526536 l 3.3670033670033654,-2.1257699659889542e-16 l -1.683501683501682,2.915910450452655 l 1.6835016835016834,2.9159104504526536 l 3.3670033670033654,5.999459334134358e-17 l 1.6835016835016834,-2.9159104504526545 l 1.6835016835016834,2.9159104504526545 l 3.3670033670033654,5.999459334134358e-17 l 1.6835016835016834,-2.9159104504526545 l -1.6835016835016827,-2.915910450452655 l 3.3670033670033654,5.999459334134358e-17 l 1.6835016835016834,-2.9159104504526545 l 1.6835016835016834,2.9159104504526545 l 3.3670033670033654,5.999459334134358e-17 l -1.6835016835016827,2.915910450452655 l 1.6835016835016834,2.9159104504526545 l 3.3670033670033654,5.999459334134358e-17 l 1.6835016835016834,-2.9159104504526545 l 1.6835016835016834,2.9159104504526545 l 3.3670033670033654,5.999459334134358e-17 l 1.683501683501683,-2.9159104504526536 l -1.683501683501682,-2.915910450452655 h 3.367003367003366 l 1.683501683501683,-2.9159104504526536 l -1.683501683501682,-2.915910450452655 l -3.367003367003366,-9.462128050782585e-16 l 1.683501683501683,-2.9159104504526536 l -1.683501683501682,-2.915910450452655 h 3.367003367003366 l 1.683501683501683,-2.9159104504526536 l 1.6835016835016834,2.915910450452655 h 3.367003367003366 l 1.683501683501683,-2.9159104504526536 l -1.683501683501682,-2.915910450452655 h 3.367003367003366 l 1.683501683501683,-2.9159104504526536 l -1.683501683501682,-2.915910450452655 l -3.367003367003366,-1.2616170734376779e-15 l 1.6835016835016834,-2.9159104504526536 l -1.683501683501682,-2.915910450452655 l -3.367003367003366,-1.2616170734376779e-15 l -1.6835016835016843,2.9159104504526536 l -1.683501683501682,-2.915910450452655 l -3.367003367003366,-1.2616170734376779e-15 l 1.6835016835016834,-2.9159104504526536 l -1.683501683501682,-2.915910450452655 l 3.3670033670033654,6.308085367188389e-16 l 1.6835016835016834,-2.9159104504526536 l -1.683501683501682,-2.915910450452655 l -3.367003367003366,-1.2616170734376779e-15 l 1.6835016835016834,-2.9159104504526536 l -1.683501683501682,-2.915910450452655 l 3.3670033670033654,-3.1540426835941946e-16 l 1.6835016835016827,-2.9159104504526536 l 1.6835016835016834,2.9159104504526545 l 3.3670033670033654,-3.1540426835941946e-16 l 1.6835016835016827,-2.9159104504526536 l -1.6835016835016827,-2.9159104504526545 l 3.3670033670033654,-3.1540426835941946e-16 l 1.6835016835016827,-2.9159104504526536 l 1.6835016835016834,2.9159104504526545 l 3.3670033670033654,-3.1540426835941946e-16 l -1.6835016835016825,2.915910450452655 l 1.6835016835016834,2.9159104504526545 l 3.3670033670033654,-3.1540426835941946e-16 l 1.6835016835016827,-2.9159104504526536 l 1.6835016835016834,2.9159104504526545 l 3.3670033670033654,-3.1540426835941946e-16 l 1.683501683501683,-2.9159104504526536 l -1.683501683501682,-2.915910450452655 h 3.367003367003366 l 1.683501683501683,-2.9159104504526536 l -1.683501683501682,-2.915910450452655 l -3.367003367003366,-9.462128050782585e-16 l 1.683501683501683,-2.9159104504526536 l -1.683501683501682,-2.915910450452655 h 3.367003367003366 l 1.683501683501683,-2.9159104504526536 l 1.6835016835016834,2.915910450452655 h 3.367003367003366 l 1.683501683501683,-2.9159104504526536 l -1.683501683501682,-2.915910450452655 h 3.367003367003366 l 1.683501683501683,-2.9159104504526536 l 1.683501683501683,2.9159104504526536 h 3.367003367003366 l -1.683501683501682,2.915910450452655 l 1.683501683501683,2.9159104504526536 h 3.367003367003366 l 1.6835016835016834,-2.915910450452655 l 1.683501683501683,2.9159104504526536 h 3.367003367003366 l -1.683501683501682,2.915910450452655 l 1.683501683501683,2.9159104504526536 l -3.367003367003366,9.462128050782585e-16 l -1.683501683501682,2.915910450452655 l 1.683501683501683,2.9159104504526536 h 3.367003367003366 l -1.683501683501682,2.915910450452655 l 1.683501683501683,2.9159104504526536 l 3.3670033670033654,3.1540426835941946e-16 l 1.6835016835016834,-2.9159104504526545 l 1.6835016835016827,2.9159104504526536 l 3.3670033670033654,3.1540426835941946e-16 l 1.6835016835016834,-2.9159104504526545 l -1.6835016835016825,-2.915910450452655 l 3.3670033670033654,3.1540426835941946e-16 l 1.6835016835016834,-2.9159104504526545 l 1.6835016835016827,2.9159104504526536 l 3.3670033670033654,3.1540426835941946e-16 l -1.6835016835016827,2.9159104504526545 l 1.6835016835016827,2.9159104504526536 l 3.3670033670033654,3.1540426835941946e-16 l 1.6835016835016834,-2.9159104504526545 l 1.6835016835016827,2.9159104504526536 l 3.3670033670033654,3.1540426835941946e-16 l -1.683501683501682,2.915910450452655 l 1.6835016835016834,2.9159104504526536 l -3.367003367003366,1.2616170734376779e-15 l -1.683501683501682,2.915910450452655 l 1.6835016835016834,2.9159104504526536 l 3.3670033670033654,-6.308085367188389e-16 l -1.683501683501682,2.915910450452655 l 1.6835016835016834,2.9159104504526536 l -3.367003367003366,1.2616170734376779e-15 l -1.683501683501682,2.915910450452655 l -1.6835016835016843,-2.9159104504526536 l -3.367003367003366,1.2616170734376779e-15 l -1.683501683501682,2.915910450452655 l 1.6835016835016834,2.9159104504526536 l -3.367003367003366,1.2616170734376779e-15 l -1.683501683501682,2.915910450452655 l 1.683501683501683,2.9159104504526536 h 3.367003367003366 l -1.683501683501682,2.915910450452655 l 1.683501683501683,2.9159104504526536 h 3.367003367003366 l 1.6835016835016834,-2.915910450452655 l 1.683501683501683,2.9159104504526536 h 3.367003367003366 l -1.683501683501682,2.915910450452655 l 1.683501683501683,2.9159104504526536 l -3.367003367003366,9.462128050782585e-16 l -1.683501683501682,2.915910450452655 l 1.683501683501683,2.9159104504526536 h 3.367003367003366 l -1.683501683501682,2.915910450452655 l 1.683501683501683,2.9159104504526536 l 3.3670033670033654,5.999459334134358e-17 l 1.6835016835016834,-2.9159104504526545 l 1.6835016835016834,2.9159104504526545 l 3.3670033670033654,5.999459334134358e-17 l 1.6835016835016834,-2.9159104504526545 l -1.6835016835016827,-2.915910450452655 l 3.3670033670033654,5.999459334134358e-17 l 1.6835016835016834,-2.9159104504526545 l 1.6835016835016834,2.9159104504526545 l 3.3670033670033654,5.999459334134358e-17 l -1.6835016835016827,2.915910450452655 l 1.6835016835016834,2.9159104504526545 l 3.3670033670033654,5.999459334134358e-17 l 1.6835016835016834,-2.9159104504526545 l 1.6835016835016834,2.9159104504526545 l 3.3670033670033654,5.999459334134358e-17 l 1.6835016835016834,-2.9159104504526536 l -1.683501683501682,-2.915910450452655 l 3.3670033670033654,2.079620278803305e-16 l 1.6835016835016834,-2.9159104504526536 l -1.683501683501682,-2.915910450452655 l -3.367003367003366,-1.0490400768387823e-15 l 1.6835016835016834,-2.9159104504526536 l -1.683501683501682,-2.915910450452655 l 3.3670033670033654,2.079620278803305e-16 l 1.6835016835016834,-2.9159104504526536 l 1.6835016835016827,2.9159104504526545 l 3.3670033670033654,2.079620278803305e-16 l 1.6835016835016834,-2.9159104504526536 l -1.683501683501682,-2.915910450452655 l 3.3670033670033654,2.079620278803305e-16 l 1.6835016835016834,-2.9159104504526536 l 1.6835016835016834,2.9159104504526536 l 3.3670033670033654,-2.1257699659889542e-16 l -1.683501683501682,2.915910450452655 l 1.6835016835016834,2.9159104504526536 l 3.3670033670033654,-2.1257699659889542e-16 l 1.6835016835016827,-2.9159104504526545 l 1.6835016835016834,2.9159104504526536 l 3.3670033670033654,-2.1257699659889542e-16 l -1.683501683501682,2.915910450452655 l 1.6835016835016834,2.9159104504526536 l -3.367003367003366,1.0536550455573471e-15 l -1.683501683501682,2.915910450452655 l 1.6835016835016834,2.9159104504526536 l 3.3670033670033654,-2.1257699659889542e-16 l -1.683501683501682,2.915910450452655 l 1.6835016835016834,2.9159104504526536 l 3.3670033670033654,5.999459334134358e-17 l 1.6835016835016834,-2.9159104504526545 l 1.6835016835016834,2.9159104504526545 l 3.3670033670033654,5.999459334134358e-17 l 1.6835016835016834,-2.9159104504526545 l -1.6835016835016827,-2.915910450452655 l 3.3670033670033654,5.999459334134358e-17 l 1.6835016835016834,-2.9159104504526545 l 1.6835016835016834,2.9159104504526545 l 3.3670033670033654,5.999459334134358e-17 l -1.6835016835016827,2.915910450452655 l 1.6835016835016834,2.9159104504526545 l 3.3670033670033654,5.999459334134358e-17 l 1.6835016835016834,-2.9159104504526545 l 1.6835016835016834,2.9159104504526545 l 3.3670033670033654,5.999459334134358e-17 l -1.683501683501682,2.9159104504526545 l 1.6835016835016834,2.9159104504526545 l -3.367003367003366,1.2616170734376779e-15 l -1.683501683501682,2.9159104504526545 l 1.6835016835016834,2.9159104504526545 l 3.3670033670033668,-3.1540426835941946e-16 l -1.683501683501682,2.9159104504526545 l 1.6835016835016834,2.9159104504526545 l -3.367003367003366,1.2616170734376779e-15 l -1.683501683501682,2.9159104504526545 l -1.6835016835016843,-2.9159104504526536 l -3.367003367003366,1.2616170734376779e-15 l -1.683501683501682,2.9159104504526545 l 1.6835016835016834,2.9159104504526545 l -3.367003367003366,1.2616170734376779e-15 l -1.683501683501682,2.9159104504526545 l 1.683501683501683,2.9159104504526536 h 3.367003367003366 l -1.6835016835016825,2.9159104504526545 l 1.683501683501683,2.9159104504526536 h 3.367003367003366 l 1.6835016835016834,-2.9159104504526545 l 1.683501683501683,2.9159104504526536 h 3.367003367003366 l -1.6835016835016825,2.9159104504526545 l 1.683501683501683,2.9159104504526536 l -3.3670033670033654,6.308085367188389e-16 l -1.6835016835016825,2.9159104504526545 l 1.683501683501683,2.9159104504526536 h 3.367003367003366 l -1.6835016835016825,2.9159104504526545 l 1.683501683501683,2.9159104504526536 l -3.3670033670033654,1.5770213417970972e-15 l -1.6835016835016818,2.9159104504526545 l -1.6835016835016847,-2.9159104504526536 l -3.3670033670033654,1.5770213417970972e-15 l -1.6835016835016818,2.9159104504526545 l 1.6835016835016836,2.9159104504526536 l -3.3670033670033654,1.5770213417970972e-15 l -1.6835016835016818,2.9159104504526545 l -1.6835016835016847,-2.9159104504526536 l -3.3670033670033654,1.5770213417970972e-15 l 1.6835016835016814,-2.9159104504526554 l -1.6835016835016847,-2.9159104504526536 l -3.3670033670033654,1.5770213417970972e-15 l -1.6835016835016818,2.9159104504526545 l -1.6835016835016847,-2.9159104504526536 l -3.3670033670033654,1.5770213417970972e-15 l -1.683501683501682,2.9159104504526545 l 1.6835016835016834,2.9159104504526545 l -3.367003367003366,1.2616170734376779e-15 l -1.683501683501682,2.9159104504526545 l 1.6835016835016834,2.9159104504526545 l 3.3670033670033668,-3.1540426835941946e-16 l -1.683501683501682,2.9159104504526545 l 1.6835016835016834,2.9159104504526545 l -3.367003367003366,1.2616170734376779e-15 l -1.683501683501682,2.9159104504526545 l -1.6835016835016843,-2.9159104504526536 l -3.367003367003366,1.2616170734376779e-15 l -1.683501683501682,2.9159104504526545 l 1.6835016835016834,2.9159104504526545 l -3.367003367003366,1.2616170734376779e-15 l -1.683501683501682,2.9159104504526545 l 1.6835016835016834,2.9159104504526536 h 3.367003367003366 l -1.6835016835016825,2.915910450452655 l 1.6835016835016834,2.9159104504526536 h 3.367003367003366 l 1.6835016835016834,-2.9159104504526545 l 1.6835016835016834,2.9159104504526536 h 3.367003367003366 l -1.6835016835016825,2.915910450452655 l 1.6835016835016834,2.9159104504526536 l -3.3670033670033668,9.462128050782585e-16 l -1.6835016835016825,2.915910450452655 l 1.6835016835016834,2.9159104504526536 h 3.367003367003366 l -1.6835016835016825,2.915910450452655 l 1.6835016835016834,2.9159104504526536 h 3.367003367003366 l 1.6835016835016834,-2.9159104504526545 l 1.683501683501683,2.9159104504526536 h 3.367003367003366 l 1.6835016835016834,-2.9159104504526545 l -1.6835016835016827,-2.915910450452655 h 3.367003367003366 l 1.6835016835016834,-2.9159104504526545 l 1.683501683501683,2.9159104504526536 h 3.367003367003366 l -1.6835016835016827,2.9159104504526545 l 1.683501683501683,2.9159104504526536 h 3.367003367003366 l 1.6835016835016834,-2.9159104504526545 l 1.683501683501683,2.9159104504526536 h 3.367003367003366 l -1.6835016835016818,2.9159104504526545 l 1.6835016835016834,2.9159104504526536 l -3.367003367003366,1.2616170734376779e-15 l -1.6835016835016818,2.9159104504526545 l 1.6835016835016834,2.9159104504526536 l 3.3670033670033654,-6.308085367188389e-16 l -1.6835016835016818,2.9159104504526545 l 1.6835016835016834,2.9159104504526536 l -3.367003367003366,1.2616170734376779e-15 l -1.6835016835016818,2.9159104504526545 l -1.6835016835016847,-2.9159104504526536 l -3.367003367003366,1.2616170734376779e-15 l -1.6835016835016818,2.9159104504526545 l 1.6835016835016834,2.9159104504526536 l -3.367003367003366,1.2616170734376779e-15 l -1.6835016835016818,2.9159104504526545 l 1.6835016835016834,2.9159104504526536 h 3.367003367003366 l -1.6835016835016825,2.915910450452655 l 1.6835016835016834,2.9159104504526536 h 3.367003367003366 l 1.6835016835016834,-2.9159104504526545 l 1.6835016835016834,2.9159104504526536 h 3.367003367003366 l -1.6835016835016825,2.915910450452655 l 1.6835016835016834,2.9159104504526536 l -3.3670033670033668,9.462128050782585e-16 l -1.6835016835016825,2.915910450452655 l 1.6835016835016834,2.9159104504526536 h 3.367003367003366 l -1.6835016835016825,2.915910450452655 l 1.6835016835016834,2.9159104504526536 l -3.3670033670033654,1.2616170734376779e-15 l -1.6835016835016825,2.915910450452655 l -1.6835016835016847,-2.9159104504526536 l -3.3670033670033654,1.2616170734376779e-15 l -1.6835016835016825,2.915910450452655 l 1.683501683501684,2.915910450452655 l -3.3670033670033654,1.2616170734376779e-15 l -1.6835016835016825,2.915910450452655 l -1.6835016835016847,-2.9159104504526536 l -3.3670033670033654,1.2616170734376779e-15 l 1.6835016835016814,-2.9159104504526554 l -1.6835016835016847,-2.9159104504526536 l -3.3670033670033654,1.2616170734376779e-15 l -1.6835016835016825,2.915910450452655 l -1.6835016835016847,-2.9159104504526536 l -3.3670033670033654,1.2616170734376779e-15 l -1.6835016835016825,2.9159104504526545 l 1.6835016835016834,2.9159104504526545 l -3.3670033670033654,9.462128050782585e-16 l -1.6835016835016825,2.9159104504526545 l 1.6835016835016834,2.9159104504526545 l 3.367003367003366,-3.1540426835941946e-16 l -1.6835016835016825,2.9159104504526545 l 1.6835016835016834,2.9159104504526545 l -3.3670033670033654,9.462128050782585e-16 l -1.6835016835016825,2.9159104504526545 l -1.6835016835016836,-2.9159104504526536 l -3.3670033670033654,9.462128050782585e-16 l -1.6835016835016825,2.9159104504526545 l 1.6835016835016834,2.9159104504526545 l -3.3670033670033654,9.462128050782585e-16 l -1.6835016835016825,2.9159104504526545 l -1.6835016835016847,-2.9159104504526536 l -3.3670033670033654,1.5770213417970972e-15 l 1.6835016835016814,-2.9159104504526554 l -1.6835016835016847,-2.9159104504526536 l -3.3670033670033654,1.5770213417970972e-15 l -1.6835016835016814,2.9159104504526545 l -1.6835016835016847,-2.9159104504526536 l -3.3670033670033654,1.5770213417970972e-15 l 1.6835016835016814,-2.9159104504526554 l -1.6835016835016847,-2.9159104504526536 l 3.367003367003366,-2.5232341468753557e-15 l 1.6835016835016814,-2.9159104504526554 l -1.6835016835016847,-2.9159104504526536 l -3.3670033670033654,1.5770213417970972e-15 l 1.6835016835016814,-2.9159104504526554 l -1.6835016835016847,-2.9159104504526536 l -3.3670033670033654,1.2616170734376779e-15 l -1.6835016835016825,2.915910450452655 l -1.6835016835016847,-2.9159104504526536 l -3.3670033670033654,1.2616170734376779e-15 l -1.6835016835016825,2.915910450452655 l 1.683501683501684,2.915910450452655 l -3.3670033670033654,1.2616170734376779e-15 l -1.6835016835016825,2.915910450452655 l -1.6835016835016847,-2.9159104504526536 l -3.3670033670033654,1.2616170734376779e-15 l 1.6835016835016814,-2.9159104504526554 l -1.6835016835016847,-2.9159104504526536 l -3.3670033670033654,1.2616170734376779e-15 l -1.6835016835016825,2.915910450452655 l -1.6835016835016847,-2.9159104504526536 l -3.3670033670033654,1.2616170734376779e-15 l -1.683501683501682,2.9159104504526545 l 1.6835016835016834,2.9159104504526545 l -3.367003367003366,1.2616170734376779e-15 l -1.683501683501682,2.9159104504526545 l 1.6835016835016834,2.9159104504526545 l 3.3670033670033668,-3.1540426835941946e-16 l -1.683501683501682,2.9159104504526545 l 1.6835016835016834,2.9159104504526545 l -3.367003367003366,1.2616170734376779e-15 l -1.683501683501682,2.9159104504526545 l -1.6835016835016843,-2.9159104504526536 l -3.367003367003366,1.2616170734376779e-15 l -1.683501683501682,2.9159104504526545 l 1.6835016835016834,2.9159104504526545 l -3.367003367003366,1.2616170734376779e-15 l -1.683501683501682,2.9159104504526545 l 1.683501683501683,2.9159104504526536 h 3.367003367003366 l -1.6835016835016825,2.9159104504526545 l 1.683501683501683,2.9159104504526536 h 3.367003367003366 l 1.6835016835016834,-2.9159104504526545 l 1.683501683501683,2.9159104504526536 h 3.367003367003366 l -1.6835016835016825,2.9159104504526545 l 1.683501683501683,2.9159104504526536 l -3.3670033670033654,6.308085367188389e-16 l -1.6835016835016825,2.9159104504526545 l 1.683501683501683,2.9159104504526536 h 3.367003367003366 l -1.6835016835016825,2.9159104504526545 l 1.683501683501683,2.9159104504526536 l -3.3670033670033654,1.5770213417970972e-15 l -1.6835016835016818,2.9159104504526545 l -1.6835016835016847,-2.9159104504526536 l -3.3670033670033654,1.5770213417970972e-15 l -1.6835016835016818,2.9159104504526545 l 1.6835016835016836,2.9159104504526536 l -3.3670033670033654,1.5770213417970972e-15 l -1.6835016835016818,2.9159104504526545 l -1.6835016835016847,-2.9159104504526536 l -3.3670033670033654,1.5770213417970972e-15 l 1.6835016835016814,-2.9159104504526554 l -1.6835016835016847,-2.9159104504526536 l -3.3670033670033654,1.5770213417970972e-15 l -1.6835016835016818,2.9159104504526545 l -1.6835016835016847,-2.9159104504526536 l -3.3670033670033654,1.5770213417970972e-15 l -1.683501683501682,2.9159104504526545 l 1.6835016835016834,2.9159104504526545 l -3.367003367003366,1.2616170734376779e-15 l -1.683501683501682,2.9159104504526545 l 1.6835016835016834,2.9159104504526545 l 3.3670033670033668,-3.1540426835941946e-16 l -1.683501683501682,2.9159104504526545 l 1.6835016835016834,2.9159104504526545 l -3.367003367003366,1.2616170734376779e-15 l -1.683501683501682,2.9159104504526545 l -1.6835016835016843,-2.9159104504526536 l -3.367003367003366,1.2616170734376779e-15 l -1.683501683501682,2.9159104504526545 l 1.6835016835016834,2.9159104504526545 l -3.367003367003366,1.2616170734376779e-15 l -1.683501683501682,2.9159104504526545 l -1.683501683501684,-2.9159104504526536 l -3.367003367003366,1.2616170734376779e-15 l 1.6835016835016814,-2.9159104504526554 l -1.683501683501684,-2.9159104504526536 l -3.367003367003366,1.2616170734376779e-15 l -1.6835016835016825,2.9159104504526554 l -1.683501683501684,-2.9159104504526536 l -3.367003367003366,1.2616170734376779e-15 l 1.6835016835016814,-2.9159104504526554 l -1.683501683501684,-2.9159104504526536 l 3.367003367003366,-2.5232341468753557e-15 l 1.6835016835016814,-2.9159104504526554 l -1.683501683501684,-2.9159104504526536 l -3.367003367003366,1.2616170734376779e-15 l 1.6835016835016814,-2.9159104504526554 l -1.683501683501684,-2.9159104504526536 l -3.3670033670033654,1.2616170734376779e-15 l -1.6835016835016825,2.915910450452655 l -1.683501683501684,-2.9159104504526536 l -3.3670033670033654,1.2616170734376779e-15 l -1.6835016835016825,2.915910450452655 l 1.6835016835016834,2.9159104504526545 l -3.3670033670033654,1.2616170734376779e-15 l -1.6835016835016825,2.915910450452655 l -1.683501683501684,-2.9159104504526536 l -3.3670033670033654,1.2616170734376779e-15 l 1.6835016835016814,-2.9159104504526545 l -1.683501683501684,-2.9159104504526536 l -3.3670033670033654,1.2616170734376779e-15 l -1.6835016835016825,2.915910450452655 l -1.683501683501684,-2.9159104504526536 l -3.3670033670033654,1.2616170734376779e-15 l 1.683501683501681,-2.915910450452655 l -1.683501683501684,-2.915910450452653 l 3.3670033670033668,-2.838638415234775e-15 l 1.683501683501681,-2.915910450452655 l -1.683501683501684,-2.915910450452653 l -3.367003367003366,1.892425610156517e-15 l 1.683501683501681,-2.915910450452655 l -1.683501683501684,-2.915910450452653 l 3.3670033670033668,-2.838638415234775e-15 l 1.683501683501681,-2.915910450452655 l 1.6835016835016856,2.9159104504526536 l 3.3670033670033668,-2.838638415234775e-15 l 1.683501683501681,-2.915910450452655 l -1.683501683501684,-2.915910450452653 l 3.3670033670033668,-2.838638415234775e-15 l 1.683501683501681,-2.915910450452655 l -1.683501683501684,-2.9159104504526536 l -3.367003367003366,1.2616170734376779e-15 l 1.6835016835016814,-2.9159104504526554 l -1.683501683501684,-2.9159104504526536 l -3.367003367003366,1.2616170734376779e-15 l -1.6835016835016825,2.9159104504526554 l -1.683501683501684,-2.9159104504526536 l -3.367003367003366,1.2616170734376779e-15 l 1.6835016835016814,-2.9159104504526554 l -1.683501683501684,-2.9159104504526536 l 3.367003367003366,-2.5232341468753557e-15 l 1.6835016835016814,-2.9159104504526554 l -1.683501683501684,-2.9159104504526536 l -3.367003367003366,1.2616170734376779e-15 l 1.6835016835016814,-2.9159104504526554 l -1.683501683501684,-2.9159104504526536 l -3.3670033670033654,1.5770213417970972e-15 l -1.6835016835016825,2.915910450452655 l -1.6835016835016847,-2.9159104504526536 l -3.3670033670033654,1.5770213417970972e-15 l -1.6835016835016825,2.915910450452655 l 1.6835016835016834,2.9159104504526545 l -3.3670033670033654,1.5770213417970972e-15 l -1.6835016835016825,2.915910450452655 l -1.6835016835016847,-2.9159104504526536 l -3.3670033670033654,1.5770213417970972e-15 l 1.6835016835016818,-2.9159104504526563 l -1.6835016835016847,-2.9159104504526536 l -3.3670033670033654,1.5770213417970972e-15 l -1.6835016835016825,2.915910450452655 l -1.6835016835016847,-2.9159104504526536 l -3.3670033670033654,1.5770213417970972e-15 l -1.6835016835016825,2.915910450452655 l 1.6835016835016834,2.9159104504526545 l -3.3670033670033654,1.2616170734376779e-15 l -1.6835016835016825,2.915910450452655 l 1.6835016835016834,2.9159104504526545 l 3.3670033670033668,-3.1540426835941946e-16 l -1.6835016835016825,2.915910450452655 l 1.6835016835016834,2.9159104504526545 l -3.3670033670033654,1.2616170734376779e-15 l -1.6835016835016825,2.915910450452655 l -1.6835016835016836,-2.9159104504526536 l -3.3670033670033654,1.2616170734376779e-15 l -1.6835016835016825,2.915910450452655 l 1.6835016835016834,2.9159104504526545 l -3.3670033670033654,1.2616170734376779e-15 l -1.6835016835016825,2.915910450452655 l -1.683501683501684,-2.915910450452653 l -3.3670033670033654,1.5770213417970972e-15 l 1.6835016835016814,-2.9159104504526554 l -1.683501683501684,-2.915910450452653 l -3.3670033670033654,1.5770213417970972e-15 l -1.6835016835016814,2.9159104504526545 l -1.683501683501684,-2.915910450452653 l -3.3670033670033654,1.5770213417970972e-15 l 1.6835016835016814,-2.9159104504526554 l -1.683501683501684,-2.915910450452653 l 3.3670033670033668,-2.838638415234775e-15 l 1.6835016835016814,-2.9159104504526554 l -1.683501683501684,-2.915910450452653 l -3.3670033670033654,1.5770213417970972e-15 l 1.6835016835016814,-2.9159104504526554 l -1.683501683501684,-2.915910450452653 l -3.3670033670033654,1.5770213417970972e-15 l -1.6835016835016825,2.915910450452655 l -1.6835016835016847,-2.9159104504526536 l -3.3670033670033654,1.5770213417970972e-15 l -1.6835016835016825,2.915910450452655 l 1.6835016835016834,2.9159104504526545 l -3.3670033670033654,1.5770213417970972e-15 l -1.6835016835016825,2.915910450452655 l -1.6835016835016847,-2.9159104504526536 l -3.3670033670033654,1.5770213417970972e-15 l 1.6835016835016818,-2.9159104504526563 l -1.6835016835016847,-2.9159104504526536 l -3.3670033670033654,1.5770213417970972e-15 l -1.6835016835016825,2.915910450452655 l -1.6835016835016847,-2.9159104504526536 l -3.3670033670033654,1.5770213417970972e-15 l 1.6835016835016812,-2.915910450452655 l -1.6835016835016847,-2.9159104504526536 l 3.3670033670033668,-2.838638415234775e-15 l 1.6835016835016812,-2.915910450452655 l -1.6835016835016847,-2.9159104504526536 l -3.3670033670033668,1.5770213417970972e-15 l 1.6835016835016812,-2.915910450452655 l -1.6835016835016847,-2.9159104504526536 l 3.3670033670033668,-2.838638415234775e-15 l 1.6835016835016812,-2.915910450452655 l 1.6835016835016856,2.9159104504526536 l 3.3670033670033668,-2.838638415234775e-15 l 1.6835016835016812,-2.915910450452655 l -1.6835016835016847,-2.9159104504526536 l 3.3670033670033668,-2.838638415234775e-15 l 1.6835016835016812,-2.915910450452655 l -1.683501683501684,-2.9159104504526536 l -3.367003367003366,1.2616170734376779e-15 l 1.6835016835016812,-2.915910450452655 l -1.683501683501684,-2.9159104504526536 l -3.367003367003366,1.2616170734376779e-15 l -1.683501683501682,2.915910450452655 l -1.683501683501684,-2.9159104504526536 l -3.367003367003366,1.2616170734376779e-15 l 1.6835016835016812,-2.915910450452655 l -1.683501683501684,-2.9159104504526536 l 3.367003367003366,-1.892425610156517e-15 l 1.6835016835016812,-2.915910450452655 l -1.683501683501684,-2.9159104504526536 l -3.367003367003366,1.2616170734376779e-15 l 1.6835016835016812,-2.915910450452655 l -1.683501683501684,-2.9159104504526536 l 3.3670033670033668,-2.838638415234775e-15 l 1.683501683501681,-2.915910450452655 l 1.6835016835016856,2.9159104504526536 l 3.3670033670033668,-2.838638415234775e-15 l 1.683501683501681,-2.915910450452655 l -1.6835016835016843,-2.9159104504526523 l 3.3670033670033668,-2.838638415234775e-15 l 1.683501683501681,-2.915910450452655 l 1.6835016835016856,2.9159104504526536 l 3.3670033670033668,-2.838638415234775e-15 l -1.6835016835016803,2.9159104504526563 l 1.6835016835016856,2.9159104504526536 l 3.3670033670033668,-2.838638415234775e-15 l 1.683501683501681,-2.915910450452655 l 1.6835016835016856,2.9159104504526536 l 3.3670033670033668,-2.838638415234775e-15 l 1.6835016835016812,-2.915910450452655 l -1.6835016835016847,-2.9159104504526536 l 3.3670033670033668,-2.838638415234775e-15 l 1.6835016835016812,-2.915910450452655 l -1.6835016835016847,-2.9159104504526536 l -3.3670033670033668,1.5770213417970972e-15 l 1.6835016835016812,-2.915910450452655 l -1.6835016835016847,-2.9159104504526536 l 3.3670033670033668,-2.838638415234775e-15 l 1.6835016835016812,-2.915910450452655 l 1.6835016835016856,2.9159104504526536 l 3.3670033670033668,-2.838638415234775e-15 l 1.6835016835016812,-2.915910450452655 l -1.6835016835016847,-2.9159104504526536 l 3.3670033670033668,-2.838638415234775e-15 l 1.6835016835016812,-2.915910450452655 l -1.683501683501684,-2.9159104504526536 l -3.367003367003366,1.2616170734376779e-15 l 1.6835016835016814,-2.9159104504526554 l -1.683501683501684,-2.9159104504526536 l -3.367003367003366,1.2616170734376779e-15 l -1.6835016835016825,2.9159104504526554 l -1.683501683501684,-2.9159104504526536 l -3.367003367003366,1.2616170734376779e-15 l 1.6835016835016814,-2.9159104504526554 l -1.683501683501684,-2.9159104504526536 l 3.367003367003366,-2.5232341468753557e-15 l 1.6835016835016814,-2.9159104504526554 l -1.683501683501684,-2.9159104504526536 l -3.367003367003366,1.2616170734376779e-15 l 1.6835016835016814,-2.9159104504526554 l -1.683501683501684,-2.9159104504526536 l -3.3670033670033654,1.2616170734376779e-15 l -1.6835016835016825,2.915910450452655 l -1.683501683501684,-2.9159104504526536 l -3.3670033670033654,1.2616170734376779e-15 l -1.6835016835016825,2.915910450452655 l 1.6835016835016834,2.9159104504526545 l -3.3670033670033654,1.2616170734376779e-15 l -1.6835016835016825,2.915910450452655 l -1.683501683501684,-2.9159104504526536 l -3.3670033670033654,1.2616170734376779e-15 l 1.6835016835016814,-2.9159104504526545 l -1.683501683501684,-2.9159104504526536 l -3.3670033670033654,1.2616170734376779e-15 l -1.6835016835016825,2.915910450452655 l -1.683501683501684,-2.9159104504526536 l -3.3670033670033654,1.2616170734376779e-15 l 1.683501683501681,-2.915910450452655 l -1.683501683501684,-2.915910450452653 l 3.3670033670033668,-2.838638415234775e-15 l 1.683501683501681,-2.915910450452655 l -1.683501683501684,-2.915910450452653 l -3.367003367003366,1.892425610156517e-15 l 1.683501683501681,-2.915910450452655 l -1.683501683501684,-2.915910450452653 l 3.3670033670033668,-2.838638415234775e-15 l 1.683501683501681,-2.915910450452655 l 1.6835016835016856,2.9159104504526536 l 3.3670033670033668,-2.838638415234775e-15 l 1.683501683501681,-2.915910450452655 l -1.683501683501684,-2.915910450452653 l 3.3670033670033668,-2.838638415234775e-15 l 1.683501683501681,-2.915910450452655 l -1.683501683501684,-2.9159104504526536 l -3.367003367003366,1.2616170734376779e-15 l 1.6835016835016814,-2.9159104504526554 l -1.683501683501684,-2.9159104504526536 l -3.367003367003366,1.2616170734376779e-15 l -1.6835016835016825,2.9159104504526554 l -1.683501683501684,-2.9159104504526536 l -3.367003367003366,1.2616170734376779e-15 l 1.6835016835016814,-2.9159104504526554 l -1.683501683501684,-2.9159104504526536 l 3.367003367003366,-2.5232341468753557e-15 l 1.6835016835016814,-2.9159104504526554 l -1.683501683501684,-2.9159104504526536 l -3.367003367003366,1.2616170734376779e-15 l 1.6835016835016814,-2.9159104504526554 Z"/></g></g></svg>