<svg xmlns="http://www.w3.org/2000/svg" height="400.0000" stroke-opacity="1" viewBox="0 0 400 400" font-size="1" width="400.0000" xmlns:xlink="http://www.w3.org/1999/xlink" stroke="rgb(0,0,0)" version="1.1"><defs></defs><g stroke-linejoin="miter" stroke-opacity="1.0" fill-opacity="0.0" stroke="rgb(0,0,0)" stroke-width="1.6000000000000003" fill="rgb(0,0,0)" stroke-linecap="butt" stroke-miterlimit="10.0"><path d="M 221.3707,336.6545 c 0.0000,-1.7057 -1.3827,-3.0884 -3.0884 -3.0884c -1.7057,-0.0000 -3.0884,1.3827 -3.0884 3.0884c -0.0000,1.7057 1.3827,3.0884 3.0884 3.0884c 1.7057,0.0000 3.0884,-1.3827 3.0884 -3.0884Z"/></g><g stroke-linejoin="miter" stroke-opacity="1.0" fill-opacity="0.0" stroke="rgb(0,0,0)" stroke-width="1.6000000000000003" fill="rgb(0,0,0)" stroke-linecap="butt" stroke-miterlimit="10.0"><path d="M 239.4241,331.6005 c 0.0000,-1.7360 -1.4073,-3.1434 -3.1434 -3.1434c -1.7360,-0.0000 -3.1434,1.4073 -3.1434 3.1434c -0.0000,1.7360 1.4073,3.1434 3.1434 3.1434c 1.7360,0.0000 3.1434,-1.4073 3.1434 -3.1434Z"/></g><g stroke-linejoin="miter" stroke-opacity="1.0" fill-opacity="0.0" stroke="rgb(0,0,0)" stroke-width="1.6000000000000003" fill="rgb(0,0,0)" stroke-linecap="butt" stroke-miterlimit="10.0"><path d="M 225.9123,316.3859 c 0.0000,-2.1101 -1.7106,-3.8207 -3.8207 -3.8207c -2.1101,-0.0000 -3.8207,1.7106 -3.8207 3.8207c -0.0000,2.1101 1.7106,3.8207 3.8207 3.8207c 2.1101,0.0000 3.8207,-1.7106 3.8207 -3.8207Z"/></g><g stroke-linejoin="miter" stroke-opacity="1.0" fill-opacity="0.0" stroke="rgb(0,0,0)" stroke-width="1.6000000000000003" fill="rgb(0,0,0)" stroke-linecap="butt" stroke-miterlimit="10.0"><path d="M 233.7415,327.9429 c 0.0000,-4.5460 -3.6853,-8.2313 -8.2313 -8.2313c -4.5460,-0.0000 -8.2313,3.6853 -8.2313 8.2313c -0.0000,4.5460 3.6853,8.2313 8.2313 8.2313c 4.5460,0.0000 8.2313,-3.6853 8.2313 -8.2313Z"/></g><g stroke-linejoin="miter" stroke-opacity="1.0" fill-opacity="0.0" stroke="rgb(0,0,0)" stroke-width="1.6000000000000003" fill="rgb(0,0,0)" stroke-linecap="butt" stroke-miterlimit="10.0"><path d="M 205.3902,368.2788 c 0.0000,-2.3074 -1.8705,-4.1779 -4.1779 -4.1779c -2.3074,-0.0000 -4.1779,1.8705 -4.1779 4.1779c -0.0000,2.3074 1.8705,4.1779 4.1779 4.1779c 2.3074,0.0000 4.1779,-1.8705 4.1779 -4.1779Z"/></g><g stroke-linejoin="miter" stroke-opacity="1.0" fill-opacity="0.0" stroke="rgb(0,0,0)" stroke-width="1.6000000000000003" fill="rgb(0,0,0)" stroke-linecap="butt" stroke-miterlimit="10.0"><path d="M 224.8065,395.9199 c 0.0000,-1.5763 -1.2778,-2.8541 -2.8541 -2.8541c -1.5763,-0.0000 -2.8541,1.2778 -2.8541 2.8541c -0.0000,1.5763 1.2778,2.8541 2.8541 2.8541c 1.5763,0.0000 2.8541,-1.2778 2.8541 -2.8541Z"/></g><g stroke-linejoin="miter" stroke-opacity="1.0" fill-opacity="0.0" stroke="rgb(0,0,0)" stroke-width="1.6000000000000003" fill="rgb(0,0,0)" stroke-linecap="butt" stroke-miterlimit="10.0"><path d="M 219.3129,394.0425 c 0.0000,-3.0176 -2.4463,-5.4639 -5.4639 -5.4639c -3.0176,-0.0000 -5.4639,2.4463 -5.4639 5.4639c -0.0000,3.0176 2.4463,5.4639 5.4639 5.4639c 3.0176,0.0000 5.4639,-2.4463 5.4639 -5.4639Z"/></g><g stroke-linejoin="miter" stroke-opacity="1.0" fill-opacity="0.0" stroke="rgb(0,0,0)" stroke-width="1.6000000000000003" fill="rgb(0,0,0)" stroke-linecap="butt" stroke-miterlimit="10.0"><path d="M 182.4440,381.8213 c 0.0000,-1.2921 -1.0474,-2.3395 -2.3395 -2.3395c -1.2921,-0.0000 -2.3395,1.0474 -2.3395 2.3395c -0.0000,1.2921 1.0474,2.3395 2.3395 2.3395c 1.2921,0.0000 2.3395,-1.0474 2.3395 -2.3395Z"/></g><g stroke-linejoin="miter" stroke-opacity="1.0" fill-opacity="0.0" stroke="rgb(0,0,0)" stroke-width="1.6000000000000003" fill="rgb(0,0,0)" stroke-linecap="butt" stroke-miterlimit="10.0"><path d="M 185.8271,396.5830 c 0.0000,-1.4882 -1.2064,-2.6947 -2.6947 -2.6947c -1.4882,-0.0000 -2.6947,1.2064 -2.6947 2.6947c -0.0000,1.4882 1.2064,2.6947 2.6947 2.6947c 1.4882,0.0000 2.6947,-1.2064 2.6947 -2.6947Z"/></g><g stroke-linejoin="miter" stroke-opacity="1.0" fill-opacity="0.0" stroke="rgb(0,0,0)" stroke-width="1.6000000000000003" fill="rgb(0,0,0)" stroke-linecap="butt" stroke-miterlimit="10.0"><path d="M 149.8099,390.3365 c 0.0000,-1.3830 -1.1211,-2.5041 -2.5041 -2.5041c -1.3830,-0.0000 -2.5041,1.1211 -2.5041 2.5041c -0.0000,1.3830 1.1211,2.5041 2.5041 2.5041c 1.3830,0.0000 2.5041,-1.1211 2.5041 -2.5041Z"/></g><g stroke-linejoin="miter" stroke-opacity="1.0" fill-opacity="0.0" stroke="rgb(0,0,0)" stroke-width="1.6000000000000003" fill="rgb(0,0,0)" stroke-linecap="butt" stroke-miterlimit="10.0"><path d="M 156.6573,390.9144 c 0.0000,-1.8986 -1.5392,-3.4378 -3.4378 -3.4378c -1.8986,-0.0000 -3.4378,1.5392 -3.4378 3.4378c -0.0000,1.8986 1.5392,3.4378 3.4378 3.4378c 1.8986,0.0000 3.4378,-1.5392 3.4378 -3.4378Z"/></g><g stroke-linejoin="miter" stroke-opacity="1.0" fill-opacity="0.0" stroke="rgb(0,0,0)" stroke-width="1.6000000000000003" fill="rgb(0,0,0)" stroke-linecap="butt" stroke-miterlimit="10.0"><path d="M 166.6540,391.1918 c 0.0000,-2.7618 -2.2389,-5.0006 -5.0006 -5.0006c -2.7618,-0.0000 -5.0006,2.2389 -5.0006 5.0006c -0.0000,2.7618 2.2389,5.0006 5.0006 5.0006c 2.7618,0.0000 5.0006,-2.2389 5.0006 -5.0006Z"/></g><g stroke-linejoin="miter" stroke-opacity="1.0" fill-opacity="0.0" stroke="rgb(0,0,0)" stroke-width="1.6000000000000003" fill="rgb(0,0,0)" stroke-linecap="butt" stroke-miterlimit="10.0"><path d="M 182.4253,390.4061 c 0.0000,-4.3617 -3.5359,-7.8976 -7.8976 -7.8976c -4.3617,-0.0000 -7.8976,3.5359 -7.8976 7.8976c -0.0000,4.3617 3.5359,7.8976 7.8976 7.8976c 4.3617,0.0000 7.8976,-3.5359 7.8976 -7.8976Z"/></g><g stroke-linejoin="miter" stroke-opacity="1.0" fill-opacity="0.0" stroke="rgb(0,0,0)" stroke-width="1.6000000000000003" fill="rgb(0,0,0)" stroke-linecap="butt" stroke-miterlimit="10.0"><path d="M 210.1864,385.8383 c 0.0000,-7.7983 -6.3218,-14.1201 -14.1201 -14.1201c -7.7983,-0.0000 -14.1201,6.3218 -14.1201 14.1201c -0.0000,7.7983 6.3218,14.1201 14.1201 14.1201c 7.7983,0.0000 14.1201,-6.3218 14.1201 -14.1201Z"/></g><g stroke-linejoin="miter" stroke-opacity="1.0" fill-opacity="0.0" stroke="rgb(0,0,0)" stroke-width="1.6000000000000003" fill="rgb(0,0,0)" stroke-linecap="butt" stroke-miterlimit="10.0"><path d="M 272.6126,351.2895 c 0.0000,-2.4629 -1.9966,-4.4595 -4.4595 -4.4595c -2.4629,-0.0000 -4.4595,1.9966 -4.4595 4.4595c -0.0000,2.4629 1.9966,4.4595 4.4595 4.4595c 2.4629,0.0000 4.4595,-1.9966 4.4595 -4.4595Z"/></g><g stroke-linejoin="miter" stroke-opacity="1.0" fill-opacity="0.0" stroke="rgb(0,0,0)" stroke-width="1.6000000000000003" fill="rgb(0,0,0)" stroke-linecap="butt" stroke-miterlimit="10.0"><path d="M 278.9305,382.2449 c 0.0000,-1.2700 -1.0295,-2.2995 -2.2995 -2.2995c -1.2700,-0.0000 -2.2995,1.0295 -2.2995 2.2995c -0.0000,1.2700 1.0295,2.2995 2.2995 2.2995c 1.2700,0.0000 2.2995,-1.0295 2.2995 -2.2995Z"/></g><g stroke-linejoin="miter" stroke-opacity="1.0" fill-opacity="0.0" stroke="rgb(0,0,0)" stroke-width="1.6000000000000003" fill="rgb(0,0,0)" stroke-linecap="butt" stroke-miterlimit="10.0"><path d="M 264.6893,387.1166 c 0.0000,-1.6381 -1.3279,-2.9660 -2.9660 -2.9660c -1.6381,-0.0000 -2.9660,1.3279 -2.9660 2.9660c -0.0000,1.6381 1.3279,2.9660 2.9660 2.9660c 1.6381,0.0000 2.9660,-1.3279 2.9660 -2.9660Z"/></g><g stroke-linejoin="miter" stroke-opacity="1.0" fill-opacity="0.0" stroke="rgb(0,0,0)" stroke-width="1.6000000000000003" fill="rgb(0,0,0)" stroke-linecap="butt" stroke-miterlimit="10.0"><path d="M 274.3482,381.7265 c 0.0000,-3.1818 -2.5794,-5.7612 -5.7612 -5.7612c -3.1818,-0.0000 -5.7612,2.5794 -5.7612 5.7612c -0.0000,3.1818 2.5794,5.7612 5.7612 5.7612c 3.1818,0.0000 5.7612,-2.5794 5.7612 -5.7612Z"/></g><g stroke-linejoin="miter" stroke-opacity="1.0" fill-opacity="0.0" stroke="rgb(0,0,0)" stroke-width="1.6000000000000003" fill="rgb(0,0,0)" stroke-linecap="butt" stroke-miterlimit="10.0"><path d="M 298.0715,353.5171 c 0.0000,-1.4454 -1.1717,-2.6171 -2.6171 -2.6171c -1.4454,-0.0000 -2.6171,1.1717 -2.6171 2.6171c -0.0000,1.4454 1.1717,2.6171 2.6171 2.6171c 1.4454,0.0000 2.6171,-1.1717 2.6171 -2.6171Z"/></g><g stroke-linejoin="miter" stroke-opacity="1.0" fill-opacity="0.0" stroke="rgb(0,0,0)" stroke-width="1.6000000000000003" fill="rgb(0,0,0)" stroke-linecap="butt" stroke-miterlimit="10.0"><path d="M 302.8723,369.7975 c 0.0000,-1.6663 -1.3508,-3.0171 -3.0171 -3.0171c -1.6663,-0.0000 -3.0171,1.3508 -3.0171 3.0171c -0.0000,1.6663 1.3508,3.0171 3.0171 3.0171c 1.6663,0.0000 3.0171,-1.3508 3.0171 -3.0171Z"/></g><g stroke-linejoin="miter" stroke-opacity="1.0" fill-opacity="0.0" stroke="rgb(0,0,0)" stroke-width="1.6000000000000003" fill="rgb(0,0,0)" stroke-linecap="butt" stroke-miterlimit="10.0"><path d="M 340.2796,341.5870 c 0.0000,-1.2705 -1.0299,-2.3004 -2.3004 -2.3004c -1.2705,-0.0000 -2.3004,1.0299 -2.3004 2.3004c -0.0000,1.2705 1.0299,2.3004 2.3004 2.3004c 1.2705,0.0000 2.3004,-1.0299 2.3004 -2.3004Z"/></g><g stroke-linejoin="miter" stroke-opacity="1.0" fill-opacity="0.0" stroke="rgb(0,0,0)" stroke-width="1.6000000000000003" fill="rgb(0,0,0)" stroke-linecap="butt" stroke-miterlimit="10.0"><path d="M 336.6861,344.6959 c 0.0000,-1.6573 -1.3435,-3.0008 -3.0008 -3.0008c -1.6573,-0.0000 -3.0008,1.3435 -3.0008 3.0008c -0.0000,1.6573 1.3435,3.0008 3.0008 3.0008c 1.6573,0.0000 3.0008,-1.3435 3.0008 -3.0008Z"/></g><g stroke-linejoin="miter" stroke-opacity="1.0" fill-opacity="0.0" stroke="rgb(0,0,0)" stroke-width="1.6000000000000003" fill="rgb(0,0,0)" stroke-linecap="butt" stroke-miterlimit="10.0"><path d="M 331.8258,348.5486 c 0.0000,-2.2491 -1.8233,-4.0724 -4.0724 -4.0724c -2.2491,-0.0000 -4.0724,1.8233 -4.0724 4.0724c -0.0000,2.2491 1.8233,4.0724 4.0724 4.0724c 2.2491,0.0000 4.0724,-1.8233 4.0724 -4.0724Z"/></g><g stroke-linejoin="miter" stroke-opacity="1.0" fill-opacity="0.0" stroke="rgb(0,0,0)" stroke-width="1.6000000000000003" fill="rgb(0,0,0)" stroke-linecap="butt" stroke-miterlimit="10.0"><path d="M 324.9273,353.3571 c 0.0000,-3.2176 -2.6084,-5.8261 -5.8261 -5.8261c -3.2176,-0.0000 -5.8261,2.6084 -5.8261 5.8261c -0.0000,3.2176 2.6084,5.8261 5.8261 5.8261c 3.2176,0.0000 5.8261,-2.6084 5.8261 -5.8261Z"/></g><g stroke-linejoin="miter" stroke-opacity="1.0" fill-opacity="0.0" stroke="rgb(0,0,0)" stroke-width="1.6000000000000003" fill="rgb(0,0,0)" stroke-linecap="butt" stroke-miterlimit="10.0"><path d="M 314.4950,359.2397 c 0.0000,-4.9528 -4.0150,-8.9678 -8.9678 -8.9678c -4.9528,-0.0000 -8.9678,4.0150 -8.9678 8.9678c -0.0000,4.9528 4.0150,8.9678 8.9678 8.9678c 4.9528,0.0000 8.9678,-4.0150 8.9678 -8.9678Z"/></g><g stroke-linejoin="miter" stroke-opacity="1.0" fill-opacity="0.0" stroke="rgb(0,0,0)" stroke-width="1.6000000000000003" fill="rgb(0,0,0)" stroke-linecap="butt" stroke-miterlimit="10.0"><path d="M 297.3628,365.4386 c 0.0000,-8.4765 -6.8716,-15.3481 -15.3481 -15.3481c -8.4765,-0.0000 -15.3481,6.8716 -15.3481 15.3481c -0.0000,8.4765 6.8716,15.3481 15.3481 15.3481c 8.4765,0.0000 15.3481,-6.8716 15.3481 -15.3481Z"/></g><g stroke-linejoin="miter" stroke-opacity="1.0" fill-opacity="0.0" stroke="rgb(0,0,0)" stroke-width="1.6000000000000003" fill="rgb(0,0,0)" stroke-linecap="butt" stroke-miterlimit="10.0"><path d="M 266.6667,365.4386 c 0.0000,-16.9530 -13.7431,-30.6961 -30.6961 -30.6961c -16.9530,-0.0000 -30.6961,13.7431 -30.6961 30.6961c -0.0000,16.9530 13.7431,30.6961 30.6961 30.6961c 16.9530,0.0000 30.6961,-13.7431 30.6961 -30.6961Z"/></g><g stroke-linejoin="miter" stroke-opacity="1.0" fill-opacity="0.0" stroke="rgb(0,0,0)" stroke-width="1.6000000000000003" fill="rgb(0,0,0)" stroke-linecap="butt" stroke-miterlimit="10.0"><path d="M 210.8038,272.8605 c 0.0000,-1.5426 -1.2505,-2.7931 -2.7931 -2.7931c -1.5426,-0.0000 -2.7931,1.2505 -2.7931 2.7931c -0.0000,1.5426 1.2505,2.7931 2.7931 2.7931c 1.5426,0.0000 2.7931,-1.2505 2.7931 -2.7931Z"/></g><g stroke-linejoin="miter" stroke-opacity="1.0" fill-opacity="0.0" stroke="rgb(0,0,0)" stroke-width="1.6000000000000003" fill="rgb(0,0,0)" stroke-linecap="butt" stroke-miterlimit="10.0"><path d="M 210.6046,265.2645 c 0.0000,-2.9027 -2.3531,-5.2558 -5.2558 -5.2558c -2.9027,-0.0000 -5.2558,2.3531 -5.2558 5.2558c -0.0000,2.9027 2.3531,5.2558 5.2558 5.2558c 2.9027,0.0000 5.2558,-2.3531 5.2558 -5.2558Z"/></g><g stroke-linejoin="miter" stroke-opacity="1.0" fill-opacity="0.0" stroke="rgb(0,0,0)" stroke-width="1.6000000000000003" fill="rgb(0,0,0)" stroke-linecap="butt" stroke-miterlimit="10.0"><path d="M 174.5616,244.2450 c 0.0000,-1.6587 -1.3447,-3.0034 -3.0034 -3.0034c -1.6587,-0.0000 -3.0034,1.3447 -3.0034 3.0034c -0.0000,1.6587 1.3447,3.0034 3.0034 3.0034c 1.6587,0.0000 3.0034,-1.3447 3.0034 -3.0034Z"/></g><g stroke-linejoin="miter" stroke-opacity="1.0" fill-opacity="0.0" stroke="rgb(0,0,0)" stroke-width="1.6000000000000003" fill="rgb(0,0,0)" stroke-linecap="butt" stroke-miterlimit="10.0"><path d="M 185.5751,245.1154 c 0.0000,-3.0536 -2.4754,-5.5290 -5.5290 -5.5290c -3.0536,-0.0000 -5.5290,2.4754 -5.5290 5.5290c -0.0000,3.0536 2.4754,5.5290 5.5290 5.5290c 3.0536,0.0000 5.5290,-2.4754 5.5290 -5.5290Z"/></g><g stroke-linejoin="miter" stroke-opacity="1.0" fill-opacity="0.0" stroke="rgb(0,0,0)" stroke-width="1.6000000000000003" fill="rgb(0,0,0)" stroke-linecap="butt" stroke-miterlimit="10.0"><path d="M 220.5222,226.3622 c 0.0000,-1.7376 -1.4086,-3.1462 -3.1462 -3.1462c -1.7376,-0.0000 -3.1462,1.4086 -3.1462 3.1462c -0.0000,1.7376 1.4086,3.1462 3.1462 3.1462c 1.7376,0.0000 3.1462,-1.4086 3.1462 -3.1462Z"/></g><g stroke-linejoin="miter" stroke-opacity="1.0" fill-opacity="0.0" stroke="rgb(0,0,0)" stroke-width="1.6000000000000003" fill="rgb(0,0,0)" stroke-linecap="butt" stroke-miterlimit="10.0"><path d="M 217.1991,232.9776 c 0.0000,-3.1523 -2.5555,-5.7078 -5.7078 -5.7078c -3.1523,-0.0000 -5.7078,2.5555 -5.7078 5.7078c -0.0000,3.1523 2.5555,5.7078 5.7078 5.7078c 3.1523,0.0000 5.7078,-2.5555 5.7078 -5.7078Z"/></g><g stroke-linejoin="miter" stroke-opacity="1.0" fill-opacity="0.0" stroke="rgb(0,0,0)" stroke-width="1.6000000000000003" fill="rgb(0,0,0)" stroke-linecap="butt" stroke-miterlimit="10.0"><path d="M 212.4984,247.5869 c 0.0000,-7.4791 -6.0630,-13.5421 -13.5421 -13.5421c -7.4791,-0.0000 -13.5421,6.0630 -13.5421 13.5421c -0.0000,7.4791 6.0630,13.5421 13.5421 13.5421c 7.4791,0.0000 13.5421,-6.0630 13.5421 -13.5421Z"/></g><g stroke-linejoin="miter" stroke-opacity="1.0" fill-opacity="0.0" stroke="rgb(0,0,0)" stroke-width="1.6000000000000003" fill="rgb(0,0,0)" stroke-linecap="butt" stroke-miterlimit="10.0"><path d="M 78.6819,286.8964 c 0.0000,-1.3905 -1.1272,-2.5177 -2.5177 -2.5177c -1.3905,-0.0000 -2.5177,1.1272 -2.5177 2.5177c -0.0000,1.3905 1.1272,2.5177 2.5177 2.5177c 1.3905,0.0000 2.5177,-1.1272 2.5177 -2.5177Z"/></g><g stroke-linejoin="miter" stroke-opacity="1.0" fill-opacity="0.0" stroke="rgb(0,0,0)" stroke-width="1.6000000000000003" fill="rgb(0,0,0)" stroke-linecap="butt" stroke-miterlimit="10.0"><path d="M 76.4118,292.8550 c 0.0000,-2.9187 -2.3661,-5.2849 -5.2849 -5.2849c -2.9187,-0.0000 -5.2849,2.3661 -5.2849 5.2849c -0.0000,2.9187 2.3661,5.2849 5.2849 5.2849c 2.9187,0.0000 5.2849,-2.3661 5.2849 -5.2849Z"/></g><g stroke-linejoin="miter" stroke-opacity="1.0" fill-opacity="0.0" stroke="rgb(0,0,0)" stroke-width="1.6000000000000003" fill="rgb(0,0,0)" stroke-linecap="butt" stroke-miterlimit="10.0"><path d="M 45.1923,293.5926 c 0.0000,-1.2921 -1.0474,-2.3395 -2.3395 -2.3395c -1.2921,-0.0000 -2.3395,1.0474 -2.3395 2.3395c -0.0000,1.2921 1.0474,2.3395 2.3395 2.3395c 1.2921,0.0000 2.3395,-1.0474 2.3395 -2.3395Z"/></g><g stroke-linejoin="miter" stroke-opacity="1.0" fill-opacity="0.0" stroke="rgb(0,0,0)" stroke-width="1.6000000000000003" fill="rgb(0,0,0)" stroke-linecap="butt" stroke-miterlimit="10.0"><path d="M 37.2548,306.7628 c 0.0000,-1.6106 -1.3057,-2.9163 -2.9163 -2.9163c -1.6106,-0.0000 -2.9163,1.3057 -2.9163 2.9163c -0.0000,1.6106 1.3057,2.9163 2.9163 2.9163c 1.6106,0.0000 2.9163,-1.3057 2.9163 -2.9163Z"/></g><g stroke-linejoin="miter" stroke-opacity="1.0" fill-opacity="0.0" stroke="rgb(0,0,0)" stroke-width="1.6000000000000003" fill="rgb(0,0,0)" stroke-linecap="butt" stroke-miterlimit="10.0"><path d="M 23.4289,283.2319 c 0.0000,-1.3897 -1.1266,-2.5163 -2.5163 -2.5163c -1.3897,-0.0000 -2.5163,1.1266 -2.5163 2.5163c -0.0000,1.3897 1.1266,2.5163 2.5163 2.5163c 1.3897,0.0000 2.5163,-1.1266 2.5163 -2.5163Z"/></g><g stroke-linejoin="miter" stroke-opacity="1.0" fill-opacity="0.0" stroke="rgb(0,0,0)" stroke-width="1.6000000000000003" fill="rgb(0,0,0)" stroke-linecap="butt" stroke-miterlimit="10.0"><path d="M 29.1249,288.3083 c 0.0000,-2.2362 -1.8128,-4.0490 -4.0490 -4.0490c -2.2362,-0.0000 -4.0490,1.8128 -4.0490 4.0490c -0.0000,2.2362 1.8128,4.0490 4.0490 4.0490c 2.2362,0.0000 4.0490,-1.8128 4.0490 -4.0490Z"/></g><g stroke-linejoin="miter" stroke-opacity="1.0" fill-opacity="0.0" stroke="rgb(0,0,0)" stroke-width="1.6000000000000003" fill="rgb(0,0,0)" stroke-linecap="butt" stroke-miterlimit="10.0"><path d="M 40.9108,296.3650 c 0.0000,-4.1561 -3.3691,-7.5252 -7.5252 -7.5252c -4.1561,-0.0000 -7.5252,3.3691 -7.5252 7.5252c -0.0000,4.1561 3.3691,7.5252 7.5252 7.5252c 4.1561,0.0000 7.5252,-3.3691 7.5252 -7.5252Z"/></g><g stroke-linejoin="miter" stroke-opacity="1.0" fill-opacity="0.0" stroke="rgb(0,0,0)" stroke-width="1.6000000000000003" fill="rgb(0,0,0)" stroke-linecap="butt" stroke-miterlimit="10.0"><path d="M 73.6162,323.9370 c 0.0000,-1.5679 -1.2711,-2.8390 -2.8390 -2.8390c -1.5679,-0.0000 -2.8390,1.2711 -2.8390 2.8390c -0.0000,1.5679 1.2711,2.8390 2.8390 2.8390c 1.5679,0.0000 2.8390,-1.2711 2.8390 -2.8390Z"/></g><g stroke-linejoin="miter" stroke-opacity="1.0" fill-opacity="0.0" stroke="rgb(0,0,0)" stroke-width="1.6000000000000003" fill="rgb(0,0,0)" stroke-linecap="butt" stroke-miterlimit="10.0"><path d="M 57.1410,331.4305 c 0.0000,-1.8664 -1.5130,-3.3794 -3.3794 -3.3794c -1.8664,-0.0000 -3.3794,1.5130 -3.3794 3.3794c -0.0000,1.8664 1.5130,3.3794 3.3794 3.3794c 1.8664,0.0000 3.3794,-1.5130 3.3794 -3.3794Z"/></g><g stroke-linejoin="miter" stroke-opacity="1.0" fill-opacity="0.0" stroke="rgb(0,0,0)" stroke-width="1.6000000000000003" fill="rgb(0,0,0)" stroke-linecap="butt" stroke-miterlimit="10.0"><path d="M 88.2031,360.5072 c 0.0000,-1.5400 -1.2485,-2.7885 -2.7885 -2.7885c -1.5400,-0.0000 -2.7885,1.2485 -2.7885 2.7885c -0.0000,1.5400 1.2485,2.7885 2.7885 2.7885c 1.5400,0.0000 2.7885,-1.2485 2.7885 -2.7885Z"/></g><g stroke-linejoin="miter" stroke-opacity="1.0" fill-opacity="0.0" stroke="rgb(0,0,0)" stroke-width="1.6000000000000003" fill="rgb(0,0,0)" stroke-linecap="butt" stroke-miterlimit="10.0"><path d="M 84.6723,355.6921 c 0.0000,-2.1538 -1.7460,-3.8999 -3.8999 -3.8999c -2.1538,-0.0000 -3.8999,1.7460 -3.8999 3.8999c -0.0000,2.1538 1.7460,3.8999 3.8999 3.8999c 2.1538,0.0000 3.8999,-1.7460 3.8999 -3.8999Z"/></g><g stroke-linejoin="miter" stroke-opacity="1.0" fill-opacity="0.0" stroke="rgb(0,0,0)" stroke-width="1.6000000000000003" fill="rgb(0,0,0)" stroke-linecap="butt" stroke-miterlimit="10.0"><path d="M 80.3766,348.2188 c 0.0000,-3.2152 -2.6064,-5.8216 -5.8216 -5.8216c -3.2152,-0.0000 -5.8216,2.6064 -5.8216 5.8216c -0.0000,3.2152 2.6064,5.8216 5.8216 5.8216c 3.2152,0.0000 5.8216,-2.6064 5.8216 -5.8216Z"/></g><g stroke-linejoin="miter" stroke-opacity="1.0" fill-opacity="0.0" stroke="rgb(0,0,0)" stroke-width="1.6000000000000003" fill="rgb(0,0,0)" stroke-linecap="butt" stroke-miterlimit="10.0"><path d="M 75.6215,335.3991 c 0.0000,-5.2756 -4.2767,-9.5523 -9.5523 -9.5523c -5.2756,-0.0000 -9.5523,4.2767 -9.5523 9.5523c -0.0000,5.2756 4.2767,9.5523 9.5523 9.5523c 5.2756,0.0000 9.5523,-4.2767 9.5523 -9.5523Z"/></g><g stroke-linejoin="miter" stroke-opacity="1.0" fill-opacity="0.0" stroke="rgb(0,0,0)" stroke-width="1.6000000000000003" fill="rgb(0,0,0)" stroke-linecap="butt" stroke-miterlimit="10.0"><path d="M 73.2715,309.9645 c 0.0000,-10.0134 -8.1174,-18.1308 -18.1308 -18.1308c -10.0134,-0.0000 -18.1308,8.1174 -18.1308 18.1308c -0.0000,10.0134 8.1174,18.1308 18.1308 18.1308c 10.0134,0.0000 18.1308,-8.1174 18.1308 -18.1308Z"/></g><g stroke-linejoin="miter" stroke-opacity="1.0" fill-opacity="0.0" stroke="rgb(0,0,0)" stroke-width="1.6000000000000003" fill="rgb(0,0,0)" stroke-linecap="butt" stroke-miterlimit="10.0"><path d="M 101.2904,255.9854 c 0.0000,-2.1407 -1.7353,-3.8760 -3.8760 -3.8760c -2.1407,-0.0000 -3.8760,1.7353 -3.8760 3.8760c -0.0000,2.1407 1.7353,3.8760 3.8760 3.8760c 2.1407,0.0000 3.8760,-1.7353 3.8760 -3.8760Z"/></g><g stroke-linejoin="miter" stroke-opacity="1.0" fill-opacity="0.0" stroke="rgb(0,0,0)" stroke-width="1.6000000000000003" fill="rgb(0,0,0)" stroke-linecap="butt" stroke-miterlimit="10.0"><path d="M 99.2667,232.1250 c 0.0000,-2.2734 -1.8430,-4.1164 -4.1164 -4.1164c -2.2734,-0.0000 -4.1164,1.8430 -4.1164 4.1164c -0.0000,2.2734 1.8430,4.1164 4.1164 4.1164c 2.2734,0.0000 4.1164,-1.8430 4.1164 -4.1164Z"/></g><g stroke-linejoin="miter" stroke-opacity="1.0" fill-opacity="0.0" stroke="rgb(0,0,0)" stroke-width="1.6000000000000003" fill="rgb(0,0,0)" stroke-linecap="butt" stroke-miterlimit="10.0"><path d="M 129.1398,242.5343 c 0.0000,-1.4607 -1.1841,-2.6447 -2.6447 -2.6447c -1.4607,-0.0000 -2.6447,1.1841 -2.6447 2.6447c -0.0000,1.4607 1.1841,2.6447 2.6447 2.6447c 1.4607,0.0000 2.6447,-1.1841 2.6447 -2.6447Z"/></g><g stroke-linejoin="miter" stroke-opacity="1.0" fill-opacity="0.0" stroke="rgb(0,0,0)" stroke-width="1.6000000000000003" fill="rgb(0,0,0)" stroke-linecap="butt" stroke-miterlimit="10.0"><path d="M 123.8527,242.7189 c 0.0000,-2.5720 -2.0850,-4.6570 -4.6570 -4.6570c -2.5720,-0.0000 -4.6570,2.0850 -4.6570 4.6570c -0.0000,2.5720 2.0850,4.6570 4.6570 4.6570c 2.5720,0.0000 4.6570,-2.0850 4.6570 -4.6570Z"/></g><g stroke-linejoin="miter" stroke-opacity="1.0" fill-opacity="0.0" stroke="rgb(0,0,0)" stroke-width="1.6000000000000003" fill="rgb(0,0,0)" stroke-linecap="butt" stroke-miterlimit="10.0"><path d="M 114.5565,243.4501 c 0.0000,-5.7278 -4.6433,-10.3711 -10.3711 -10.3711c -5.7278,-0.0000 -10.3711,4.6433 -10.3711 10.3711c -0.0000,5.7278 4.6433,10.3711 10.3711 10.3711c 5.7278,0.0000 10.3711,-4.6433 10.3711 -10.3711Z"/></g><g stroke-linejoin="miter" stroke-opacity="1.0" fill-opacity="0.0" stroke="rgb(0,0,0)" stroke-width="1.6000000000000003" fill="rgb(0,0,0)" stroke-linecap="butt" stroke-miterlimit="10.0"><path d="M 24.6508,213.2306 c 0.0000,-1.5912 -1.2899,-2.8811 -2.8811 -2.8811c -1.5912,-0.0000 -2.8811,1.2899 -2.8811 2.8811c -0.0000,1.5912 1.2899,2.8811 2.8811 2.8811c 1.5912,0.0000 2.8811,-1.2899 2.8811 -2.8811Z"/></g><g stroke-linejoin="miter" stroke-opacity="1.0" fill-opacity="0.0" stroke="rgb(0,0,0)" stroke-width="1.6000000000000003" fill="rgb(0,0,0)" stroke-linecap="butt" stroke-miterlimit="10.0"><path d="M 7.6705,204.5579 c 0.0000,-2.1035 -1.7052,-3.8088 -3.8088 -3.8088c -2.1035,-0.0000 -3.8088,1.7052 -3.8088 3.8088c -0.0000,2.1035 1.7052,3.8088 3.8088 3.8088c 2.1035,0.0000 3.8088,-1.7052 3.8088 -3.8088Z"/></g><g stroke-linejoin="miter" stroke-opacity="1.0" fill-opacity="0.0" stroke="rgb(0,0,0)" stroke-width="1.6000000000000003" fill="rgb(0,0,0)" stroke-linecap="butt" stroke-miterlimit="10.0"><path d="M 9.2498,237.3574 c 0.0000,-1.5680 -1.2711,-2.8392 -2.8392 -2.8392c -1.5680,-0.0000 -2.8392,1.2711 -2.8392 2.8392c -0.0000,1.5680 1.2711,2.8392 2.8392 2.8392c 1.5680,0.0000 2.8392,-1.2711 2.8392 -2.8392Z"/></g><g stroke-linejoin="miter" stroke-opacity="1.0" fill-opacity="0.0" stroke="rgb(0,0,0)" stroke-width="1.6000000000000003" fill="rgb(0,0,0)" stroke-linecap="butt" stroke-miterlimit="10.0"><path d="M 11.7324,229.8212 c 0.0000,-2.6073 -2.1137,-4.7210 -4.7210 -4.7210c -2.6073,-0.0000 -4.7210,2.1137 -4.7210 4.7210c -0.0000,2.6073 2.1137,4.7210 4.7210 4.7210c 2.6073,0.0000 4.7210,-2.1137 4.7210 -4.7210Z"/></g><g stroke-linejoin="miter" stroke-opacity="1.0" fill-opacity="0.0" stroke="rgb(0,0,0)" stroke-width="1.6000000000000003" fill="rgb(0,0,0)" stroke-linecap="butt" stroke-miterlimit="10.0"><path d="M 19.2408,216.1362 c 0.0000,-5.1244 -4.1541,-9.2785 -9.2785 -9.2785c -5.1244,-0.0000 -9.2785,4.1541 -9.2785 9.2785c -0.0000,5.1244 4.1541,9.2785 9.2785 9.2785c 5.1244,0.0000 9.2785,-4.1541 9.2785 -9.2785Z"/></g><g stroke-linejoin="miter" stroke-opacity="1.0" fill-opacity="0.0" stroke="rgb(0,0,0)" stroke-width="1.6000000000000003" fill="rgb(0,0,0)" stroke-linecap="butt" stroke-miterlimit="10.0"><path d="M 48.6458,203.5257 c 0.0000,-1.3280 -1.0766,-2.4046 -2.4046 -2.4046c -1.3280,-0.0000 -2.4046,1.0766 -2.4046 2.4046c -0.0000,1.3280 1.0766,2.4046 2.4046 2.4046c 1.3280,0.0000 2.4046,-1.0766 2.4046 -2.4046Z"/></g><g stroke-linejoin="miter" stroke-opacity="1.0" fill-opacity="0.0" stroke="rgb(0,0,0)" stroke-width="1.6000000000000003" fill="rgb(0,0,0)" stroke-linecap="butt" stroke-miterlimit="10.0"><path d="M 55.5356,189.7884 c 0.0000,-1.4823 -1.2016,-2.6839 -2.6839 -2.6839c -1.4823,-0.0000 -2.6839,1.2016 -2.6839 2.6839c -0.0000,1.4823 1.2016,2.6839 2.6839 2.6839c 1.4823,0.0000 2.6839,-1.2016 2.6839 -2.6839Z"/></g><g stroke-linejoin="miter" stroke-opacity="1.0" fill-opacity="0.0" stroke="rgb(0,0,0)" stroke-width="1.6000000000000003" fill="rgb(0,0,0)" stroke-linecap="butt" stroke-miterlimit="10.0"><path d="M 65.7534,204.0863 c 0.0000,-1.7159 -1.3910,-3.1069 -3.1069 -3.1069c -1.7159,-0.0000 -3.1069,1.3910 -3.1069 3.1069c -0.0000,1.7159 1.3910,3.1069 3.1069 3.1069c 1.7159,0.0000 3.1069,-1.3910 3.1069 -3.1069Z"/></g><g stroke-linejoin="miter" stroke-opacity="1.0" fill-opacity="0.0" stroke="rgb(0,0,0)" stroke-width="1.6000000000000003" fill="rgb(0,0,0)" stroke-linecap="butt" stroke-miterlimit="10.0"><path d="M 60.9094,199.0845 c 0.0000,-3.7055 -3.0039,-6.7095 -6.7095 -6.7095c -3.7055,-0.0000 -6.7095,3.0039 -6.7095 6.7095c -0.0000,3.7055 3.0039,6.7095 6.7095 6.7095c 3.7055,0.0000 6.7095,-3.0039 6.7095 -6.7095Z"/></g><g stroke-linejoin="miter" stroke-opacity="1.0" fill-opacity="0.0" stroke="rgb(0,0,0)" stroke-width="1.6000000000000003" fill="rgb(0,0,0)" stroke-linecap="butt" stroke-miterlimit="10.0"><path d="M 7.9685,166.9009 c 0.0000,-1.4288 -1.1582,-2.5870 -2.5870 -2.5870c -1.4288,-0.0000 -2.5870,1.1582 -2.5870 2.5870c -0.0000,1.4288 1.1582,2.5870 2.5870 2.5870c 1.4288,0.0000 2.5870,-1.1582 2.5870 -2.5870Z"/></g><g stroke-linejoin="miter" stroke-opacity="1.0" fill-opacity="0.0" stroke="rgb(0,0,0)" stroke-width="1.6000000000000003" fill="rgb(0,0,0)" stroke-linecap="butt" stroke-miterlimit="10.0"><path d="M 14.6217,160.1541 c 0.0000,-2.9000 -2.3509,-5.2509 -5.2509 -5.2509c -2.9000,-0.0000 -5.2509,2.3509 -5.2509 5.2509c -0.0000,2.9000 2.3509,5.2509 5.2509 5.2509c 2.9000,0.0000 5.2509,-2.3509 5.2509 -5.2509Z"/></g><g stroke-linejoin="miter" stroke-opacity="1.0" fill-opacity="0.0" stroke="rgb(0,0,0)" stroke-width="1.6000000000000003" fill="rgb(0,0,0)" stroke-linecap="butt" stroke-miterlimit="10.0"><path d="M 42.2470,159.1561 c 0.0000,-2.3835 -1.9322,-4.3158 -4.3158 -4.3158c -2.3835,-0.0000 -4.3158,1.9322 -4.3158 4.3158c -0.0000,2.3835 1.9322,4.3158 4.3158 4.3158c 2.3835,0.0000 4.3158,-1.9322 4.3158 -4.3158Z"/></g><g stroke-linejoin="miter" stroke-opacity="1.0" fill-opacity="0.0" stroke="rgb(0,0,0)" stroke-width="1.6000000000000003" fill="rgb(0,0,0)" stroke-linecap="butt" stroke-miterlimit="10.0"><path d="M 20.3658,127.7022 c 0.0000,-1.8218 -1.4769,-3.2987 -3.2987 -3.2987c -1.8218,-0.0000 -3.2987,1.4769 -3.2987 3.2987c -0.0000,1.8218 1.4769,3.2987 3.2987 3.2987c 1.8218,0.0000 3.2987,-1.4769 3.2987 -3.2987Z"/></g><g stroke-linejoin="miter" stroke-opacity="1.0" fill-opacity="0.0" stroke="rgb(0,0,0)" stroke-width="1.6000000000000003" fill="rgb(0,0,0)" stroke-linecap="butt" stroke-miterlimit="10.0"><path d="M 38.2626,130.9190 c 0.0000,-1.6035 -1.2999,-2.9034 -2.9034 -2.9034c -1.6035,-0.0000 -2.9034,1.2999 -2.9034 2.9034c -0.0000,1.6035 1.2999,2.9034 2.9034 2.9034c 1.6035,0.0000 2.9034,-1.2999 2.9034 -2.9034Z"/></g><g stroke-linejoin="miter" stroke-opacity="1.0" fill-opacity="0.0" stroke="rgb(0,0,0)" stroke-width="1.6000000000000003" fill="rgb(0,0,0)" stroke-linecap="butt" stroke-miterlimit="10.0"><path d="M 53.3475,71.1085 c 0.0000,-1.4976 -1.2141,-2.7117 -2.7117 -2.7117c -1.4976,-0.0000 -2.7117,1.2141 -2.7117 2.7117c -0.0000,1.4976 1.2141,2.7117 2.7117 2.7117c 1.4976,0.0000 2.7117,-1.2141 2.7117 -2.7117Z"/></g><g stroke-linejoin="miter" stroke-opacity="1.0" fill-opacity="0.0" stroke="rgb(0,0,0)" stroke-width="1.6000000000000003" fill="rgb(0,0,0)" stroke-linecap="butt" stroke-miterlimit="10.0"><path d="M 50.5970,76.1298 c 0.0000,-1.8453 -1.4959,-3.3413 -3.3413 -3.3413c -1.8453,-0.0000 -3.3413,1.4959 -3.3413 3.3413c -0.0000,1.8453 1.4959,3.3413 3.3413 3.3413c 1.8453,0.0000 3.3413,-1.4959 3.3413 -3.3413Z"/></g><g stroke-linejoin="miter" stroke-opacity="1.0" fill-opacity="0.0" stroke="rgb(0,0,0)" stroke-width="1.6000000000000003" fill="rgb(0,0,0)" stroke-linecap="butt" stroke-miterlimit="10.0"><path d="M 47.5430,82.5844 c 0.0000,-2.3273 -1.8866,-4.2139 -4.2139 -4.2139c -2.3273,-0.0000 -4.2139,1.8866 -4.2139 4.2139c -0.0000,2.3273 1.8866,4.2139 4.2139 4.2139c 2.3273,0.0000 4.2139,-1.8866 4.2139 -4.2139Z"/></g><g stroke-linejoin="miter" stroke-opacity="1.0" fill-opacity="0.0" stroke="rgb(0,0,0)" stroke-width="1.6000000000000003" fill="rgb(0,0,0)" stroke-linecap="butt" stroke-miterlimit="10.0"><path d="M 44.2533,91.1346 c 0.0000,-3.0205 -2.4486,-5.4692 -5.4692 -5.4692c -3.0205,-0.0000 -5.4692,2.4486 -5.4692 5.4692c -0.0000,3.0205 2.4486,5.4692 5.4692 5.4692c 3.0205,0.0000 5.4692,-2.4486 5.4692 -5.4692Z"/></g><g stroke-linejoin="miter" stroke-opacity="1.0" fill-opacity="0.0" stroke="rgb(0,0,0)" stroke-width="1.6000000000000003" fill="rgb(0,0,0)" stroke-linecap="butt" stroke-miterlimit="10.0"><path d="M 40.9899,102.8823 c 0.0000,-4.0643 -3.2947,-7.3590 -7.3590 -7.3590c -4.0643,-0.0000 -7.3590,3.2947 -7.3590 7.3590c -0.0000,4.0643 3.2947,7.3590 7.3590 7.3590c 4.0643,0.0000 7.3590,-3.2947 7.3590 -7.3590Z"/></g><g stroke-linejoin="miter" stroke-opacity="1.0" fill-opacity="0.0" stroke="rgb(0,0,0)" stroke-width="1.6000000000000003" fill="rgb(0,0,0)" stroke-linecap="butt" stroke-miterlimit="10.0"><path d="M 38.5538,119.7529 c 0.0000,-5.7265 -4.6423,-10.3688 -10.3688 -10.3688c -5.7265,-0.0000 -10.3688,4.6423 -10.3688 10.3688c -0.0000,5.7265 4.6423,10.3688 10.3688 10.3688c 5.7265,0.0000 10.3688,-4.6423 10.3688 -10.3688Z"/></g><g stroke-linejoin="miter" stroke-opacity="1.0" fill-opacity="0.0" stroke="rgb(0,0,0)" stroke-width="1.6000000000000003" fill="rgb(0,0,0)" stroke-linecap="butt" stroke-miterlimit="10.0"><path d="M 39.3132,145.2507 c 0.0000,-8.5612 -6.9402,-15.5014 -15.5014 -15.5014c -8.5612,-0.0000 -15.5014,6.9402 -15.5014 15.5014c -0.0000,8.5612 6.9402,15.5014 15.5014 15.5014c 8.5612,0.0000 15.5014,-6.9402 15.5014 -15.5014Z"/></g><g stroke-linejoin="miter" stroke-opacity="1.0" fill-opacity="0.0" stroke="rgb(0,0,0)" stroke-width="1.6000000000000003" fill="rgb(0,0,0)" stroke-linecap="butt" stroke-miterlimit="10.0"><path d="M 50.4780,185.6603 c 0.0000,-13.7767 -11.1682,-24.9448 -24.9448 -24.9448c -13.7767,-0.0000 -24.9448,11.1682 -24.9448 24.9448c -0.0000,13.7767 11.1682,24.9448 24.9448 24.9448c 13.7767,0.0000 24.9448,-11.1682 24.9448 -24.9448Z"/></g><g stroke-linejoin="miter" stroke-opacity="1.0" fill-opacity="0.0" stroke="rgb(0,0,0)" stroke-width="1.6000000000000003" fill="rgb(0,0,0)" stroke-linecap="butt" stroke-miterlimit="10.0"><path d="M 94.0856,248.8326 c 0.0000,-23.8285 -19.3168,-43.1453 -43.1453 -43.1453c -23.8285,-0.0000 -43.1453,19.3168 -43.1453 43.1453c -0.0000,23.8285 19.3168,43.1453 43.1453 43.1453c 23.8285,0.0000 43.1453,-19.3168 43.1453 -43.1453Z"/></g><g stroke-linejoin="miter" stroke-opacity="1.0" fill-opacity="0.0" stroke="rgb(0,0,0)" stroke-width="1.6000000000000003" fill="rgb(0,0,0)" stroke-linecap="butt" stroke-miterlimit="10.0"><path d="M 218.2791,315.2682 c 0.0000,-40.0856 -32.4958,-72.5814 -72.5814 -72.5814c -40.0856,-0.0000 -72.5814,32.4958 -72.5814 72.5814c -0.0000,40.0856 32.4958,72.5814 72.5814 72.5814c 40.0856,0.0000 72.5814,-32.4958 72.5814 -72.5814Z"/></g><g stroke-linejoin="miter" stroke-opacity="1.0" fill-opacity="0.0" stroke="rgb(0,0,0)" stroke-width="1.6000000000000003" fill="rgb(0,0,0)" stroke-linecap="butt" stroke-miterlimit="10.0"><path d="M 373.7101,221.1814 c 0.0000,-2.1114 -1.7116,-3.8230 -3.8230 -3.8230c -2.1114,-0.0000 -3.8230,1.7116 -3.8230 3.8230c -0.0000,2.1114 1.7116,3.8230 3.8230 3.8230c 2.1114,0.0000 3.8230,-1.7116 3.8230 -3.8230Z"/></g><g stroke-linejoin="miter" stroke-opacity="1.0" fill-opacity="0.0" stroke="rgb(0,0,0)" stroke-width="1.6000000000000003" fill="rgb(0,0,0)" stroke-linecap="butt" stroke-miterlimit="10.0"><path d="M 399.8226,208.3701 c 0.0000,-1.3290 -1.0774,-2.4064 -2.4064 -2.4064c -1.3290,-0.0000 -2.4064,1.0774 -2.4064 2.4064c -0.0000,1.3290 1.0774,2.4064 2.4064 2.4064c 1.3290,0.0000 2.4064,-1.0774 2.4064 -2.4064Z"/></g><g stroke-linejoin="miter" stroke-opacity="1.0" fill-opacity="0.0" stroke="rgb(0,0,0)" stroke-width="1.6000000000000003" fill="rgb(0,0,0)" stroke-linecap="butt" stroke-miterlimit="10.0"><path d="M 399.4249,214.9749 c 0.0000,-2.6186 -2.1228,-4.7414 -4.7414 -4.7414c -2.6186,-0.0000 -4.7414,2.1228 -4.7414 4.7414c -0.0000,2.6186 2.1228,4.7414 4.7414 4.7414c 2.6186,0.0000 4.7414,-2.1228 4.7414 -4.7414Z"/></g><g stroke-linejoin="miter" stroke-opacity="1.0" fill-opacity="0.0" stroke="rgb(0,0,0)" stroke-width="1.6000000000000003" fill="rgb(0,0,0)" stroke-linecap="butt" stroke-miterlimit="10.0"><path d="M 380.2399,243.5593 c 0.0000,-1.2714 -1.0307,-2.3022 -2.3022 -2.3022c -1.2714,-0.0000 -2.3022,1.0307 -2.3022 2.3022c -0.0000,1.2714 1.0307,2.3022 2.3022 2.3022c 1.2714,0.0000 2.3022,-1.0307 2.3022 -2.3022Z"/></g><g stroke-linejoin="miter" stroke-opacity="1.0" fill-opacity="0.0" stroke="rgb(0,0,0)" stroke-width="1.6000000000000003" fill="rgb(0,0,0)" stroke-linecap="butt" stroke-miterlimit="10.0"><path d="M 395.2366,243.1027 c 0.0000,-1.4393 -1.1668,-2.6061 -2.6061 -2.6061c -1.4393,-0.0000 -2.6061,1.1668 -2.6061 2.6061c -0.0000,1.4393 1.1668,2.6061 2.6061 2.6061c 1.4393,0.0000 2.6061,-1.1668 2.6061 -2.6061Z"/></g><g stroke-linejoin="miter" stroke-opacity="1.0" fill-opacity="0.0" stroke="rgb(0,0,0)" stroke-width="1.6000000000000003" fill="rgb(0,0,0)" stroke-linecap="butt" stroke-miterlimit="10.0"><path d="M 383.5364,278.8846 c 0.0000,-1.5368 -1.2458,-2.7826 -2.7826 -2.7826c -1.5368,-0.0000 -2.7826,1.2458 -2.7826 2.7826c -0.0000,1.5368 1.2458,2.7826 2.7826 2.7826c 1.5368,0.0000 2.7826,-1.2458 2.7826 -2.7826Z"/></g><g stroke-linejoin="miter" stroke-opacity="1.0" fill-opacity="0.0" stroke="rgb(0,0,0)" stroke-width="1.6000000000000003" fill="rgb(0,0,0)" stroke-linecap="butt" stroke-miterlimit="10.0"><path d="M 386.0905,272.5707 c 0.0000,-2.0611 -1.6709,-3.7320 -3.7320 -3.7320c -2.0611,-0.0000 -3.7320,1.6709 -3.7320 3.7320c -0.0000,2.0611 1.6709,3.7320 3.7320 3.7320c 2.0611,0.0000 3.7320,-1.6709 3.7320 -3.7320Z"/></g><g stroke-linejoin="miter" stroke-opacity="1.0" fill-opacity="0.0" stroke="rgb(0,0,0)" stroke-width="1.6000000000000003" fill="rgb(0,0,0)" stroke-linecap="butt" stroke-miterlimit="10.0"><path d="M 389.2739,263.7390 c 0.0000,-2.9020 -2.3526,-5.2546 -5.2546 -5.2546c -2.9020,-0.0000 -5.2546,2.3526 -5.2546 5.2546c -0.0000,2.9020 2.3526,5.2546 5.2546 5.2546c 2.9020,0.0000 5.2546,-2.3526 5.2546 -5.2546Z"/></g><g stroke-linejoin="miter" stroke-opacity="1.0" fill-opacity="0.0" stroke="rgb(0,0,0)" stroke-width="1.6000000000000003" fill="rgb(0,0,0)" stroke-linecap="butt" stroke-miterlimit="10.0"><path d="M 393.2054,250.6378 c 0.0000,-4.3678 -3.5408,-7.9087 -7.9087 -7.9087c -4.3678,-0.0000 -7.9087,3.5408 -7.9087 7.9087c -0.0000,4.3678 3.5408,7.9087 7.9087 7.9087c 4.3678,0.0000 7.9087,-3.5408 7.9087 -7.9087Z"/></g><g stroke-linejoin="miter" stroke-opacity="1.0" fill-opacity="0.0" stroke="rgb(0,0,0)" stroke-width="1.6000000000000003" fill="rgb(0,0,0)" stroke-linecap="butt" stroke-miterlimit="10.0"><path d="M 397.6338,229.6462 c 0.0000,-7.2331 -5.8636,-13.0967 -13.0967 -13.0967c -7.2331,-0.0000 -13.0967,5.8636 -13.0967 13.0967c -0.0000,7.2331 5.8636,13.0967 13.0967 13.0967c 7.2331,0.0000 13.0967,-5.8636 13.0967 -13.0967Z"/></g><g stroke-linejoin="miter" stroke-opacity="1.0" fill-opacity="0.0" stroke="rgb(0,0,0)" stroke-width="1.6000000000000003" fill="rgb(0,0,0)" stroke-linecap="butt" stroke-miterlimit="10.0"><path d="M 350.4162,198.0988 c 0.0000,-1.4762 -1.1967,-2.6729 -2.6729 -2.6729c -1.4762,-0.0000 -2.6729,1.1967 -2.6729 2.6729c -0.0000,1.4762 1.1967,2.6729 2.6729 2.6729c 1.4762,0.0000 2.6729,-1.1967 2.6729 -2.6729Z"/></g><g stroke-linejoin="miter" stroke-opacity="1.0" fill-opacity="0.0" stroke="rgb(0,0,0)" stroke-width="1.6000000000000003" fill="rgb(0,0,0)" stroke-linecap="butt" stroke-miterlimit="10.0"><path d="M 351.9186,182.4945 c 0.0000,-1.4125 -1.1451,-2.5576 -2.5576 -2.5576c -1.4125,-0.0000 -2.5576,1.1451 -2.5576 2.5576c -0.0000,1.4125 1.1451,2.5576 2.5576 2.5576c 1.4125,0.0000 2.5576,-1.1451 2.5576 -2.5576Z"/></g><g stroke-linejoin="miter" stroke-opacity="1.0" fill-opacity="0.0" stroke="rgb(0,0,0)" stroke-width="1.6000000000000003" fill="rgb(0,0,0)" stroke-linecap="butt" stroke-miterlimit="10.0"><path d="M 336.2625,188.2553 c 0.0000,-1.8017 -1.4606,-3.2623 -3.2623 -3.2623c -1.8017,-0.0000 -3.2623,1.4606 -3.2623 3.2623c -0.0000,1.8017 1.4606,3.2623 3.2623 3.2623c 1.8017,0.0000 3.2623,-1.4606 3.2623 -3.2623Z"/></g><g stroke-linejoin="miter" stroke-opacity="1.0" fill-opacity="0.0" stroke="rgb(0,0,0)" stroke-width="1.6000000000000003" fill="rgb(0,0,0)" stroke-linecap="butt" stroke-miterlimit="10.0"><path d="M 350.0648,189.6623 c 0.0000,-3.8383 -3.1115,-6.9498 -6.9498 -6.9498c -3.8383,-0.0000 -6.9498,3.1115 -6.9498 6.9498c -0.0000,3.8383 3.1115,6.9498 6.9498 6.9498c 3.8383,0.0000 6.9498,-3.1115 6.9498 -6.9498Z"/></g><g stroke-linejoin="miter" stroke-opacity="1.0" fill-opacity="0.0" stroke="rgb(0,0,0)" stroke-width="1.6000000000000003" fill="rgb(0,0,0)" stroke-linecap="butt" stroke-miterlimit="10.0"><path d="M 397.7570,170.4469 c 0.0000,-2.3106 -1.8731,-4.1837 -4.1837 -4.1837c -2.3106,-0.0000 -4.1837,1.8731 -4.1837 4.1837c -0.0000,2.3106 1.8731,4.1837 4.1837 4.1837c 2.3106,0.0000 4.1837,-1.8731 4.1837 -4.1837Z"/></g><g stroke-linejoin="miter" stroke-opacity="1.0" fill-opacity="0.0" stroke="rgb(0,0,0)" stroke-width="1.6000000000000003" fill="rgb(0,0,0)" stroke-linecap="butt" stroke-miterlimit="10.0"><path d="M 375.4023,164.7210 c 0.0000,-1.8016 -1.4605,-3.2621 -3.2621 -3.2621c -1.8016,-0.0000 -3.2621,1.4605 -3.2621 3.2621c -0.0000,1.8016 1.4605,3.2621 3.2621 3.2621c 1.8016,0.0000 3.2621,-1.4605 3.2621 -3.2621Z"/></g><g stroke-linejoin="miter" stroke-opacity="1.0" fill-opacity="0.0" stroke="rgb(0,0,0)" stroke-width="1.6000000000000003" fill="rgb(0,0,0)" stroke-linecap="butt" stroke-miterlimit="10.0"><path d="M 385.8068,126.4787 c 0.0000,-1.3708 -1.1113,-2.4821 -2.4821 -2.4821c -1.3708,-0.0000 -2.4821,1.1113 -2.4821 2.4821c -0.0000,1.3708 1.1113,2.4821 2.4821 2.4821c 1.3708,0.0000 2.4821,-1.1113 2.4821 -2.4821Z"/></g><g stroke-linejoin="miter" stroke-opacity="1.0" fill-opacity="0.0" stroke="rgb(0,0,0)" stroke-width="1.6000000000000003" fill="rgb(0,0,0)" stroke-linecap="butt" stroke-miterlimit="10.0"><path d="M 388.0363,132.5076 c 0.0000,-2.0109 -1.6302,-3.6411 -3.6411 -3.6411c -2.0109,-0.0000 -3.6411,1.6302 -3.6411 3.6411c -0.0000,2.0109 1.6302,3.6411 3.6411 3.6411c 2.0109,0.0000 3.6411,-1.6302 3.6411 -3.6411Z"/></g><g stroke-linejoin="miter" stroke-opacity="1.0" fill-opacity="0.0" stroke="rgb(0,0,0)" stroke-width="1.6000000000000003" fill="rgb(0,0,0)" stroke-linecap="butt" stroke-miterlimit="10.0"><path d="M 391.1163,141.9406 c 0.0000,-3.2218 -2.6118,-5.8336 -5.8336 -5.8336c -3.2218,-0.0000 -5.8336,2.6118 -5.8336 5.8336c -0.0000,3.2218 2.6118,5.8336 5.8336 5.8336c 3.2218,0.0000 5.8336,-2.6118 5.8336 -5.8336Z"/></g><g stroke-linejoin="miter" stroke-opacity="1.0" fill-opacity="0.0" stroke="rgb(0,0,0)" stroke-width="1.6000000000000003" fill="rgb(0,0,0)" stroke-linecap="butt" stroke-miterlimit="10.0"><path d="M 395.3920,158.4898 c 0.0000,-5.9244 -4.8027,-10.7271 -10.7271 -10.7271c -5.9244,-0.0000 -10.7271,4.8027 -10.7271 10.7271c -0.0000,5.9244 4.8027,10.7271 10.7271 10.7271c 5.9244,0.0000 10.7271,-4.8027 10.7271 -10.7271Z"/></g><g stroke-linejoin="miter" stroke-opacity="1.0" fill-opacity="0.0" stroke="rgb(0,0,0)" stroke-width="1.6000000000000003" fill="rgb(0,0,0)" stroke-linecap="butt" stroke-miterlimit="10.0"><path d="M 399.8528,192.8222 c 0.0000,-13.7919 -11.1805,-24.9724 -24.9724 -24.9724c -13.7919,-0.0000 -24.9724,11.1805 -24.9724 24.9724c -0.0000,13.7919 11.1805,24.9724 24.9724 24.9724c 13.7919,0.0000 24.9724,-11.1805 24.9724 -24.9724Z"/></g><g stroke-linejoin="miter" stroke-opacity="1.0" fill-opacity="0.0" stroke="rgb(0,0,0)" stroke-width="1.6000000000000003" fill="rgb(0,0,0)" stroke-linecap="butt" stroke-miterlimit="10.0"><path d="M 254.6466,191.0602 c 0.0000,-1.6596 -1.3454,-3.0050 -3.0050 -3.0050c -1.6596,-0.0000 -3.0050,1.3454 -3.0050 3.0050c -0.0000,1.6596 1.3454,3.0050 3.0050 3.0050c 1.6596,0.0000 3.0050,-1.3454 3.0050 -3.0050Z"/></g><g stroke-linejoin="miter" stroke-opacity="1.0" fill-opacity="0.0" stroke="rgb(0,0,0)" stroke-width="1.6000000000000003" fill="rgb(0,0,0)" stroke-linecap="butt" stroke-miterlimit="10.0"><path d="M 263.0901,185.3120 c 0.0000,-2.9629 -2.4019,-5.3648 -5.3648 -5.3648c -2.9629,-0.0000 -5.3648,2.4019 -5.3648 5.3648c -0.0000,2.9629 2.4019,5.3648 5.3648 5.3648c 2.9629,0.0000 5.3648,-2.4019 5.3648 -5.3648Z"/></g><g stroke-linejoin="miter" stroke-opacity="1.0" fill-opacity="0.0" stroke="rgb(0,0,0)" stroke-width="1.6000000000000003" fill="rgb(0,0,0)" stroke-linecap="butt" stroke-miterlimit="10.0"><path d="M 296.4566,180.1986 c 0.0000,-1.3710 -1.1115,-2.4825 -2.4825 -2.4825c -1.3710,-0.0000 -2.4825,1.1115 -2.4825 2.4825c -0.0000,1.3710 1.1115,2.4825 2.4825 2.4825c 1.3710,0.0000 2.4825,-1.1115 2.4825 -2.4825Z"/></g><g stroke-linejoin="miter" stroke-opacity="1.0" fill-opacity="0.0" stroke="rgb(0,0,0)" stroke-width="1.6000000000000003" fill="rgb(0,0,0)" stroke-linecap="butt" stroke-miterlimit="10.0"><path d="M 291.7451,178.3068 c 0.0000,-2.5970 -2.1053,-4.7022 -4.7022 -4.7022c -2.5970,-0.0000 -4.7022,2.1053 -4.7022 4.7022c -0.0000,2.5970 2.1053,4.7022 4.7022 4.7022c 2.5970,0.0000 4.7022,-2.1053 4.7022 -4.7022Z"/></g><g stroke-linejoin="miter" stroke-opacity="1.0" fill-opacity="0.0" stroke="rgb(0,0,0)" stroke-width="1.6000000000000003" fill="rgb(0,0,0)" stroke-linecap="butt" stroke-miterlimit="10.0"><path d="M 270.1963,148.8281 c 0.0000,-1.4620 -1.1852,-2.6472 -2.6472 -2.6472c -1.4620,-0.0000 -2.6472,1.1852 -2.6472 2.6472c -0.0000,1.4620 1.1852,2.6472 2.6472 2.6472c 1.4620,0.0000 2.6472,-1.1852 2.6472 -2.6472Z"/></g><g stroke-linejoin="miter" stroke-opacity="1.0" fill-opacity="0.0" stroke="rgb(0,0,0)" stroke-width="1.6000000000000003" fill="rgb(0,0,0)" stroke-linecap="butt" stroke-miterlimit="10.0"><path d="M 273.2262,156.3570 c 0.0000,-2.7171 -2.2026,-4.9197 -4.9197 -4.9197c -2.7171,-0.0000 -4.9197,2.2026 -4.9197 4.9197c -0.0000,2.7171 2.2026,4.9197 4.9197 4.9197c 2.7171,0.0000 4.9197,-2.2026 4.9197 -4.9197Z"/></g><g stroke-linejoin="miter" stroke-opacity="1.0" fill-opacity="0.0" stroke="rgb(0,0,0)" stroke-width="1.6000000000000003" fill="rgb(0,0,0)" stroke-linecap="butt" stroke-miterlimit="10.0"><path d="M 283.0647,173.3986 c 0.0000,-6.7923 -5.5062,-12.2985 -12.2985 -12.2985c -6.7923,-0.0000 -12.2985,5.5062 -12.2985 12.2985c -0.0000,6.7923 5.5062,12.2985 12.2985 12.2985c 6.7923,0.0000 12.2985,-5.5062 12.2985 -12.2985Z"/></g><g stroke-linejoin="miter" stroke-opacity="1.0" fill-opacity="0.0" stroke="rgb(0,0,0)" stroke-width="1.6000000000000003" fill="rgb(0,0,0)" stroke-linecap="butt" stroke-miterlimit="10.0"><path d="M 378.8169,266.7907 c 0.0000,-46.4541 -37.6585,-84.1126 -84.1126 -84.1126c -46.4541,-0.0000 -84.1126,37.6585 -84.1126 84.1126c -0.0000,46.4541 37.6585,84.1126 84.1126 84.1126c 46.4541,0.0000 84.1126,-37.6585 84.1126 -84.1126Z"/></g><g stroke-linejoin="miter" stroke-opacity="1.0" fill-opacity="0.0" stroke="rgb(0,0,0)" stroke-width="1.6000000000000003" fill="rgb(0,0,0)" stroke-linecap="butt" stroke-miterlimit="10.0"><path d="M 222.7185,5.0051 c 0.0000,-2.2755 -1.8447,-4.1201 -4.1201 -4.1201c -2.2755,-0.0000 -4.1201,1.8447 -4.1201 4.1201c -0.0000,2.2755 1.8447,4.1201 4.1201 4.1201c 2.2755,0.0000 4.1201,-1.8447 4.1201 -4.1201Z"/></g><g stroke-linejoin="miter" stroke-opacity="1.0" fill-opacity="0.0" stroke="rgb(0,0,0)" stroke-width="1.6000000000000003" fill="rgb(0,0,0)" stroke-linecap="butt" stroke-miterlimit="10.0"><path d="M 215.0192,26.7365 c 0.0000,-1.9448 -1.5766,-3.5214 -3.5214 -3.5214c -1.9448,-0.0000 -3.5214,1.5766 -3.5214 3.5214c -0.0000,1.9448 1.5766,3.5214 3.5214 3.5214c 1.9448,0.0000 3.5214,-1.5766 3.5214 -3.5214Z"/></g><g stroke-linejoin="miter" stroke-opacity="1.0" fill-opacity="0.0" stroke="rgb(0,0,0)" stroke-width="1.6000000000000003" fill="rgb(0,0,0)" stroke-linecap="butt" stroke-miterlimit="10.0"><path d="M 194.6634,2.8639 c 0.0000,-1.4912 -1.2089,-2.7001 -2.7001 -2.7001c -1.4912,-0.0000 -2.7001,1.2089 -2.7001 2.7001c -0.0000,1.4912 1.2089,2.7001 2.7001 2.7001c 1.4912,0.0000 2.7001,-1.2089 2.7001 -2.7001Z"/></g><g stroke-linejoin="miter" stroke-opacity="1.0" fill-opacity="0.0" stroke="rgb(0,0,0)" stroke-width="1.6000000000000003" fill="rgb(0,0,0)" stroke-linecap="butt" stroke-miterlimit="10.0"><path d="M 192.1644,18.0710 c 0.0000,-1.3417 -1.0877,-2.4294 -2.4294 -2.4294c -1.3417,-0.0000 -2.4294,1.0877 -2.4294 2.4294c -0.0000,1.3417 1.0877,2.4294 2.4294 2.4294c 1.3417,0.0000 2.4294,-1.0877 2.4294 -2.4294Z"/></g><g stroke-linejoin="miter" stroke-opacity="1.0" fill-opacity="0.0" stroke="rgb(0,0,0)" stroke-width="1.6000000000000003" fill="rgb(0,0,0)" stroke-linecap="butt" stroke-miterlimit="10.0"><path d="M 138.6221,13.0628 c 0.0000,-1.3599 -1.1025,-2.4624 -2.4624 -2.4624c -1.3599,-0.0000 -2.4624,1.1025 -2.4624 2.4624c -0.0000,1.3599 1.1025,2.4624 2.4624 2.4624c 1.3599,0.0000 2.4624,-1.1025 2.4624 -2.4624Z"/></g><g stroke-linejoin="miter" stroke-opacity="1.0" fill-opacity="0.0" stroke="rgb(0,0,0)" stroke-width="1.6000000000000003" fill="rgb(0,0,0)" stroke-linecap="butt" stroke-miterlimit="10.0"><path d="M 144.5031,11.8908 c 0.0000,-1.6591 -1.3449,-3.0040 -3.0040 -3.0040c -1.6591,-0.0000 -3.0040,1.3449 -3.0040 3.0040c -0.0000,1.6591 1.3449,3.0040 3.0040 3.0040c 1.6591,0.0000 3.0040,-1.3449 3.0040 -3.0040Z"/></g><g stroke-linejoin="miter" stroke-opacity="1.0" fill-opacity="0.0" stroke="rgb(0,0,0)" stroke-width="1.6000000000000003" fill="rgb(0,0,0)" stroke-linecap="butt" stroke-miterlimit="10.0"><path d="M 151.8860,10.7178 c 0.0000,-2.0671 -1.6757,-3.7428 -3.7428 -3.7428c -2.0671,-0.0000 -3.7428,1.6757 -3.7428 3.7428c -0.0000,2.0671 1.6757,3.7428 3.7428 3.7428c 2.0671,0.0000 3.7428,-1.6757 3.7428 -3.7428Z"/></g><g stroke-linejoin="miter" stroke-opacity="1.0" fill-opacity="0.0" stroke="rgb(0,0,0)" stroke-width="1.6000000000000003" fill="rgb(0,0,0)" stroke-linecap="butt" stroke-miterlimit="10.0"><path d="M 161.3917,9.6692 c 0.0000,-2.6428 -2.1424,-4.7852 -4.7852 -4.7852c -2.6428,-0.0000 -4.7852,2.1424 -4.7852 4.7852c -0.0000,2.6428 2.1424,4.7852 4.7852 4.7852c 2.6428,0.0000 4.7852,-2.1424 4.7852 -4.7852Z"/></g><g stroke-linejoin="miter" stroke-opacity="1.0" fill-opacity="0.0" stroke="rgb(0,0,0)" stroke-width="1.6000000000000003" fill="rgb(0,0,0)" stroke-linecap="butt" stroke-miterlimit="10.0"><path d="M 174.0086,9.0314 c 0.0000,-3.4891 -2.8285,-6.3176 -6.3176 -6.3176c -3.4891,-0.0000 -6.3176,2.8285 -6.3176 6.3176c -0.0000,3.4891 2.8285,6.3176 6.3176 6.3176c 3.4891,0.0000 6.3176,-2.8285 6.3176 -6.3176Z"/></g><g stroke-linejoin="miter" stroke-opacity="1.0" fill-opacity="0.0" stroke="rgb(0,0,0)" stroke-width="1.6000000000000003" fill="rgb(0,0,0)" stroke-linecap="butt" stroke-miterlimit="10.0"><path d="M 191.3767,9.4721 c 0.0000,-4.7979 -3.8894,-8.6873 -8.6873 -8.6873c -4.7979,-0.0000 -8.6873,3.8894 -8.6873 8.6873c -0.0000,4.7979 3.8894,8.6873 8.6873 8.6873c 4.7979,0.0000 8.6873,-3.8894 8.6873 -8.6873Z"/></g><g stroke-linejoin="miter" stroke-opacity="1.0" fill-opacity="0.0" stroke="rgb(0,0,0)" stroke-width="1.6000000000000003" fill="rgb(0,0,0)" stroke-linecap="butt" stroke-miterlimit="10.0"><path d="M 216.3168,12.6246 c 0.0000,-6.9519 -5.6356,-12.5875 -12.5875 -12.5875c -6.9519,-0.0000 -12.5875,5.6356 -12.5875 12.5875c -0.0000,6.9519 5.6356,12.5875 12.5875 12.5875c 6.9519,0.0000 12.5875,-5.6356 12.5875 -12.5875Z"/></g><g stroke-linejoin="miter" stroke-opacity="1.0" fill-opacity="0.0" stroke="rgb(0,0,0)" stroke-width="1.6000000000000003" fill="rgb(0,0,0)" stroke-linecap="butt" stroke-miterlimit="10.0"><path d="M 255.3080,9.9493 c 0.0000,-1.5683 -1.2714,-2.8397 -2.8397 -2.8397c -1.5683,-0.0000 -2.8397,1.2714 -2.8397 2.8397c -0.0000,1.5683 1.2714,2.8397 2.8397 2.8397c 1.5683,0.0000 2.8397,-1.2714 2.8397 -2.8397Z"/></g><g stroke-linejoin="miter" stroke-opacity="1.0" fill-opacity="0.0" stroke="rgb(0,0,0)" stroke-width="1.6000000000000003" fill="rgb(0,0,0)" stroke-linecap="butt" stroke-miterlimit="10.0"><path d="M 273.5580,16.3757 c 0.0000,-1.9030 -1.5427,-3.4456 -3.4456 -3.4456c -1.9030,-0.0000 -3.4456,1.5427 -3.4456 3.4456c -0.0000,1.9030 1.5427,3.4456 3.4456 3.4456c 1.9030,0.0000 3.4456,-1.5427 3.4456 -3.4456Z"/></g><g stroke-linejoin="miter" stroke-opacity="1.0" fill-opacity="0.0" stroke="rgb(0,0,0)" stroke-width="1.6000000000000003" fill="rgb(0,0,0)" stroke-linecap="butt" stroke-miterlimit="10.0"><path d="M 266.6667,16.3757 c 0.0000,-3.8060 -3.0853,-6.8913 -6.8913 -6.8913c -3.8060,-0.0000 -6.8913,3.0853 -6.8913 6.8913c -0.0000,3.8060 3.0853,6.8913 6.8913 6.8913c 3.8060,0.0000 6.8913,-3.0853 6.8913 -6.8913Z"/></g><g stroke-linejoin="miter" stroke-opacity="1.0" fill-opacity="0.0" stroke="rgb(0,0,0)" stroke-width="1.6000000000000003" fill="rgb(0,0,0)" stroke-linecap="butt" stroke-miterlimit="10.0"><path d="M 245.0144,54.3638 c 0.0000,-1.3798 -1.1185,-2.4983 -2.4983 -2.4983c -1.3798,-0.0000 -2.4983,1.1185 -2.4983 2.4983c -0.0000,1.3798 1.1185,2.4983 2.4983 2.4983c 1.3798,0.0000 2.4983,-1.1185 2.4983 -2.4983Z"/></g><g stroke-linejoin="miter" stroke-opacity="1.0" fill-opacity="0.0" stroke="rgb(0,0,0)" stroke-width="1.6000000000000003" fill="rgb(0,0,0)" stroke-linecap="butt" stroke-miterlimit="10.0"><path d="M 245.2048,46.9696 c 0.0000,-2.9633 -2.4022,-5.3655 -5.3655 -5.3655c -2.9633,-0.0000 -5.3655,2.4022 -5.3655 5.3655c -0.0000,2.9633 2.4022,5.3655 5.3655 5.3655c 2.9633,0.0000 5.3655,-2.4022 5.3655 -5.3655Z"/></g><g stroke-linejoin="miter" stroke-opacity="1.0" fill-opacity="0.0" stroke="rgb(0,0,0)" stroke-width="1.6000000000000003" fill="rgb(0,0,0)" stroke-linecap="butt" stroke-miterlimit="10.0"><path d="M 253.6684,22.7614 c 0.0000,-10.7682 -8.7293,-19.4975 -19.4975 -19.4975c -10.7682,-0.0000 -19.4975,8.7293 -19.4975 19.4975c -0.0000,10.7682 8.7293,19.4975 19.4975 19.4975c 10.7682,0.0000 19.4975,-8.7293 19.4975 -19.4975Z"/></g><g stroke-linejoin="miter" stroke-opacity="1.0" fill-opacity="0.0" stroke="rgb(0,0,0)" stroke-width="1.6000000000000003" fill="rgb(0,0,0)" stroke-linecap="butt" stroke-miterlimit="10.0"><path d="M 340.1198,58.2759 c 0.0000,-1.2947 -1.0496,-2.3442 -2.3442 -2.3442c -1.2947,-0.0000 -2.3442,1.0496 -2.3442 2.3442c -0.0000,1.2947 1.0496,2.3442 2.3442 2.3442c 1.2947,0.0000 2.3442,-1.0496 2.3442 -2.3442Z"/></g><g stroke-linejoin="miter" stroke-opacity="1.0" fill-opacity="0.0" stroke="rgb(0,0,0)" stroke-width="1.6000000000000003" fill="rgb(0,0,0)" stroke-linecap="butt" stroke-miterlimit="10.0"><path d="M 357.1429,77.2260 c 0.0000,-1.4991 -1.2152,-2.7143 -2.7143 -2.7143c -1.4991,-0.0000 -2.7143,1.2152 -2.7143 2.7143c -0.0000,1.4991 1.2152,2.7143 2.7143 2.7143c 1.4991,0.0000 2.7143,-1.2152 2.7143 -2.7143Z"/></g><g stroke-linejoin="miter" stroke-opacity="1.0" fill-opacity="0.0" stroke="rgb(0,0,0)" stroke-width="1.6000000000000003" fill="rgb(0,0,0)" stroke-linecap="butt" stroke-miterlimit="10.0"><path d="M 353.2315,72.9545 c 0.0000,-2.2410 -1.8167,-4.0577 -4.0577 -4.0577c -2.2410,-0.0000 -4.0577,1.8167 -4.0577 4.0577c -0.0000,2.2410 1.8167,4.0577 4.0577 4.0577c 2.2410,0.0000 4.0577,-1.8167 4.0577 -4.0577Z"/></g><g stroke-linejoin="miter" stroke-opacity="1.0" fill-opacity="0.0" stroke="rgb(0,0,0)" stroke-width="1.6000000000000003" fill="rgb(0,0,0)" stroke-linecap="butt" stroke-miterlimit="10.0"><path d="M 346.9405,66.9639 c 0.0000,-3.6945 -2.9950,-6.6895 -6.6895 -6.6895c -3.6945,-0.0000 -6.6895,2.9950 -6.6895 6.6895c -0.0000,3.6945 2.9950,6.6895 6.6895 6.6895c 3.6945,0.0000 6.6895,-2.9950 6.6895 -6.6895Z"/></g><g stroke-linejoin="miter" stroke-opacity="1.0" fill-opacity="0.0" stroke="rgb(0,0,0)" stroke-width="1.6000000000000003" fill="rgb(0,0,0)" stroke-linecap="butt" stroke-miterlimit="10.0"><path d="M 312.1846,35.9422 c 0.0000,-1.5712 -1.2737,-2.8449 -2.8449 -2.8449c -1.5712,-0.0000 -2.8449,1.2737 -2.8449 2.8449c -0.0000,1.5712 1.2737,2.8449 2.8449 2.8449c 1.5712,0.0000 2.8449,-1.2737 2.8449 -2.8449Z"/></g><g stroke-linejoin="miter" stroke-opacity="1.0" fill-opacity="0.0" stroke="rgb(0,0,0)" stroke-width="1.6000000000000003" fill="rgb(0,0,0)" stroke-linecap="butt" stroke-miterlimit="10.0"><path d="M 319.6080,42.3843 c 0.0000,-2.9239 -2.3703,-5.2941 -5.2941 -5.2941c -2.9239,-0.0000 -5.2941,2.3703 -5.2941 5.2941c -0.0000,2.9239 2.3703,5.2941 5.2941 5.2941c 2.9239,0.0000 5.2941,-2.3703 5.2941 -5.2941Z"/></g><g stroke-linejoin="miter" stroke-opacity="1.0" fill-opacity="0.0" stroke="rgb(0,0,0)" stroke-width="1.6000000000000003" fill="rgb(0,0,0)" stroke-linecap="butt" stroke-miterlimit="10.0"><path d="M 313.4646,69.2666 c 0.0000,-2.1538 -1.7460,-3.8998 -3.8998 -3.8998c -2.1538,-0.0000 -3.8998,1.7460 -3.8998 3.8998c -0.0000,2.1538 1.7460,3.8998 3.8998 3.8998c 2.1538,0.0000 3.8998,-1.7460 3.8998 -3.8998Z"/></g><g stroke-linejoin="miter" stroke-opacity="1.0" fill-opacity="0.0" stroke="rgb(0,0,0)" stroke-width="1.6000000000000003" fill="rgb(0,0,0)" stroke-linecap="butt" stroke-miterlimit="10.0"><path d="M 335.4348,58.6055 c 0.0000,-7.1212 -5.7729,-12.8940 -12.8940 -12.8940c -7.1212,-0.0000 -12.8940,5.7729 -12.8940 12.8940c -0.0000,7.1212 5.7729,12.8940 12.8940 12.8940c 7.1212,0.0000 12.8940,-5.7729 12.8940 -12.8940Z"/></g><g stroke-linejoin="miter" stroke-opacity="1.0" fill-opacity="0.0" stroke="rgb(0,0,0)" stroke-width="1.6000000000000003" fill="rgb(0,0,0)" stroke-linecap="butt" stroke-miterlimit="10.0"><path d="M 400.0000,200.0000 c 0.0000,-110.4569 -89.5431,-200.0000 -200.0000 -200.0000c -110.4569,-0.0000 -200.0000,89.5431 -200.0000 200.0000c -0.0000,110.4569 89.5431,200.0000 200.0000 200.0000c 110.4569,0.0000 200.0000,-89.5431 200.0000 -200.0000Z"/></g><g stroke-linejoin="miter" stroke-opacity="1.0" fill-opacity="0.0" stroke="rgb(0,0,0)" stroke-width="1.6000000000000003" fill="rgb(0,0,0)" stroke-linecap="butt" stroke-miterlimit="10.0"><path d="M 271.8041,104.1014 c 0.0000,-2.1280 -1.7251,-3.8531 -3.8531 -3.8531c -2.1280,-0.0000 -3.8531,1.7251 -3.8531 3.8531c -0.0000,2.1280 1.7251,3.8531 3.8531 3.8531c 2.1280,0.0000 3.8531,-1.7251 3.8531 -3.8531Z"/></g><g stroke-linejoin="miter" stroke-opacity="1.0" fill-opacity="0.0" stroke="rgb(0,0,0)" stroke-width="1.6000000000000003" fill="rgb(0,0,0)" stroke-linecap="butt" stroke-miterlimit="10.0"><path d="M 264.4365,83.6753 c 0.0000,-1.8475 -1.4977,-3.3452 -3.3452 -3.3452c -1.8475,-0.0000 -3.3452,1.4977 -3.3452 3.3452c -0.0000,1.8475 1.4977,3.3452 3.3452 3.3452c 1.8475,0.0000 3.3452,-1.4977 3.3452 -3.3452Z"/></g><g stroke-linejoin="miter" stroke-opacity="1.0" fill-opacity="0.0" stroke="rgb(0,0,0)" stroke-width="1.6000000000000003" fill="rgb(0,0,0)" stroke-linecap="butt" stroke-miterlimit="10.0"><path d="M 283.0669,87.3036 c 0.0000,-1.6983 -1.3767,-3.0750 -3.0750 -3.0750c -1.6983,-0.0000 -3.0750,1.3767 -3.0750 3.0750c -0.0000,1.6983 1.3767,3.0750 3.0750 3.0750c 1.6983,0.0000 3.0750,-1.3767 3.0750 -3.0750Z"/></g><g stroke-linejoin="miter" stroke-opacity="1.0" fill-opacity="0.0" stroke="rgb(0,0,0)" stroke-width="1.6000000000000003" fill="rgb(0,0,0)" stroke-linecap="butt" stroke-miterlimit="10.0"><path d="M 277.8879,91.9270 c 0.0000,-4.6480 -3.7680,-8.4160 -8.4160 -8.4160c -4.6480,-0.0000 -8.4160,3.7680 -8.4160 8.4160c -0.0000,4.6480 3.7680,8.4160 8.4160 8.4160c 4.6480,0.0000 8.4160,-3.7680 8.4160 -8.4160Z"/></g><g stroke-linejoin="miter" stroke-opacity="1.0" fill-opacity="0.0" stroke="rgb(0,0,0)" stroke-width="1.6000000000000003" fill="rgb(0,0,0)" stroke-linecap="butt" stroke-miterlimit="10.0"><path d="M 310.1766,51.6801 c 0.0000,-18.0224 -14.6100,-32.6324 -32.6324 -32.6324c -18.0224,-0.0000 -32.6324,14.6100 -32.6324 32.6324c -0.0000,18.0224 14.6100,32.6324 32.6324 32.6324c 18.0224,0.0000 32.6324,-14.6100 32.6324 -32.6324Z"/></g><g stroke-linejoin="miter" stroke-opacity="1.0" fill-opacity="0.0" stroke="rgb(0,0,0)" stroke-width="1.6000000000000003" fill="rgb(0,0,0)" stroke-linecap="butt" stroke-miterlimit="10.0"><path d="M 380.8802,128.5955 c 0.0000,-31.5392 -25.5676,-57.1068 -57.1068 -57.1068c -31.5392,-0.0000 -57.1068,25.5676 -57.1068 57.1068c -0.0000,31.5392 25.5676,57.1068 57.1068 57.1068c 31.5392,0.0000 57.1068,-25.5676 57.1068 -57.1068Z"/></g><g stroke-linejoin="miter" stroke-opacity="1.0" fill-opacity="0.0" stroke="rgb(0,0,0)" stroke-width="1.6000000000000003" fill="rgb(0,0,0)" stroke-linecap="butt" stroke-miterlimit="10.0"><path d="M 266.6667,128.5955 c 0.0000,-63.0784 -51.1352,-114.2136 -114.2136 -114.2136c -63.0784,-0.0000 -114.2136,51.1352 -114.2136 114.2136c -0.0000,63.0784 51.1352,114.2136 114.2136 114.2136c 63.0784,0.0000 114.2136,-51.1352 114.2136 -114.2136Z"/></g></svg>