<?xml version="1.0" encoding="UTF-8"?>
<!DOCTYPE svg PUBLIC "-//W3C//DTD SVG 1.1//EN"
    "http://www.w3.org/Graphics/SVG/1.1/DTD/svg11.dtd">
<svg xmlns="http://www.w3.org/2000/svg" xmlns:xlink="http://www.w3.org/1999/xlink" version="1.1" width="500.0" height="50.0" font-size="1" viewBox="0 0 500 50"><g><g fill="rgb(0,0,0)" fill-opacity="0.0"><g stroke="rgb(0,0,0)" stroke-opacity="1.0" stroke-width="0.6324555320336759" stroke-linecap="butt" stroke-linejoin="miter" font-size="50.0em" stroke-miterlimit="10.0"><g><g><g fill="rgb(177,98,98)" fill-opacity="1.0" stroke-width="0.0"><g fill="rgb(177,98,98)" fill-opacity="1.0"><g fill="rgb(177,98,98)" fill-opacity="1.0"><path d="M 500.0,50.0 l -5.551115123125783e-15,-50.0 h -50.0 l -5.551115123125783e-15,50.0 Z" /></g></g></g><g fill="rgb(0,0,0)" fill-opacity="1.0"><g fill="rgb(0,0,0)" fill-opacity="1.0"><text transform="matrix(1.0,0.0,0.0,1.0,475.0,25.0)" dominant-baseline="middle" text-anchor="middle" stroke="none">9</text></g></g></g><g fill="rgb(255,255,255)" fill-opacity="1.0" stroke-width="0.0"><g fill="rgb(255,255,255)" fill-opacity="1.0"><g fill="rgb(255,255,255)" fill-opacity="1.0"><path d="M 450.0,50.0 l -5.551115123125783e-15,-50.0 h -50.0 l -5.551115123125783e-15,50.0 Z" /></g></g></g><g fill="rgb(0,0,0)" fill-opacity="1.0"><g fill="rgb(0,0,0)" fill-opacity="1.0"><text transform="matrix(1.0,0.0,0.0,1.0,425.0,25.0)" dominant-baseline="middle" text-anchor="middle" stroke="none">8</text></g></g></g><g><g><g><g fill="rgb(148,89,148)" fill-opacity="1.0" stroke-width="0.0"><g fill="rgb(148,89,148)" fill-opacity="1.0"><g fill="rgb(148,89,148)" fill-opacity="1.0"><path d="M 400.0,50.0 l -5.551115123125783e-15,-50.0 h -50.0 l -5.551115123125783e-15,50.0 Z" /></g></g></g><g fill="rgb(0,0,0)" fill-opacity="1.0"><g fill="rgb(0,0,0)" fill-opacity="1.0"><text transform="matrix(1.0,0.0,0.0,1.0,375.0,25.0)" dominant-baseline="middle" text-anchor="middle" stroke="none">7</text></g></g></g><g fill="rgb(148,148,148)" fill-opacity="1.0" stroke-width="0.0"><g fill="rgb(148,148,148)" fill-opacity="1.0"><g fill="rgb(148,148,148)" fill-opacity="1.0"><path d="M 350.0,50.0 l -5.551115123125783e-15,-50.0 h -50.0 l -5.551115123125783e-15,50.0 Z" /></g></g></g><g fill="rgb(0,0,0)" fill-opacity="1.0"><g fill="rgb(0,0,0)" fill-opacity="1.0"><text transform="matrix(1.0,0.0,0.0,1.0,325.0,25.0)" dominant-baseline="middle" text-anchor="middle" stroke="none">6</text></g></g></g><g><g fill="rgb(89,89,255)" fill-opacity="1.0" stroke-width="0.0"><g fill="rgb(89,89,255)" fill-opacity="1.0"><g fill="rgb(89,89,255)" fill-opacity="1.0"><path d="M 300.0,50.0 l -5.551115123125783e-15,-50.0 h -50.0 l -5.551115123125783e-15,50.0 Z" /></g></g></g><g fill="rgb(0,0,0)" fill-opacity="1.0"><g fill="rgb(0,0,0)" fill-opacity="1.0"><text transform="matrix(1.0,0.0,0.0,1.0,275.0,25.0)" dominant-baseline="middle" text-anchor="middle" stroke="none">5</text></g></g></g><g fill="rgb(89,148,89)" fill-opacity="1.0" stroke-width="0.0"><g fill="rgb(89,148,89)" fill-opacity="1.0"><g fill="rgb(89,148,89)" fill-opacity="1.0"><path d="M 250.0,50.0 l -5.551115123125783e-15,-50.0 h -50.0 l -5.551115123125783e-15,50.0 Z" /></g></g></g><g fill="rgb(0,0,0)" fill-opacity="1.0"><g fill="rgb(0,0,0)" fill-opacity="1.0"><text transform="matrix(1.0,0.0,0.0,1.0,225.0,25.0)" dominant-baseline="middle" text-anchor="middle" stroke="none">4</text></g></g></g><g><g><g fill="rgb(255,255,89)" fill-opacity="1.0" stroke-width="0.0"><g fill="rgb(255,255,89)" fill-opacity="1.0"><g fill="rgb(255,255,89)" fill-opacity="1.0"><path d="M 200.0,50.0 l -5.551115123125783e-15,-50.0 h -50.0 l -5.551115123125783e-15,50.0 Z" /></g></g></g><g fill="rgb(0,0,0)" fill-opacity="1.0"><g fill="rgb(0,0,0)" fill-opacity="1.0"><text transform="matrix(1.0,0.0,0.0,1.0,175.0,25.0)" dominant-baseline="middle" text-anchor="middle" stroke="none">3</text></g></g></g><g fill="rgb(255,177,89)" fill-opacity="1.0" stroke-width="0.0"><g fill="rgb(255,177,89)" fill-opacity="1.0"><g fill="rgb(255,177,89)" fill-opacity="1.0"><path d="M 150.0,50.0 l -5.551115123125783e-15,-50.0 h -50.0 l -5.551115123125783e-15,50.0 Z" /></g></g></g><g fill="rgb(0,0,0)" fill-opacity="1.0"><g fill="rgb(0,0,0)" fill-opacity="1.0"><text transform="matrix(1.0,0.0,0.0,1.0,125.0,25.0)" dominant-baseline="middle" text-anchor="middle" stroke="none">2</text></g></g></g><g><g fill="rgb(255,89,89)" fill-opacity="1.0" stroke-width="0.0"><g fill="rgb(255,89,89)" fill-opacity="1.0"><g fill="rgb(255,89,89)" fill-opacity="1.0"><path d="M 100.0,50.0 l -5.551115123125783e-15,-50.0 h -50.0 l -5.551115123125783e-15,50.0 Z" /></g></g></g><g fill="rgb(0,0,0)" fill-opacity="1.0"><g fill="rgb(0,0,0)" fill-opacity="1.0"><text transform="matrix(1.0,0.0,0.0,1.0,75.0,25.0)" dominant-baseline="middle" text-anchor="middle" stroke="none">1</text></g></g></g><g fill="rgb(89,89,89)" fill-opacity="1.0" stroke-width="0.0"><g fill="rgb(89,89,89)" fill-opacity="1.0"><g fill="rgb(89,89,89)" fill-opacity="1.0"><path d="M 50.00000000000001,50.0 l -5.551115123125783e-15,-50.0 h -50.0 l -5.551115123125783e-15,50.0 Z" /></g></g></g><g fill="rgb(0,0,0)" fill-opacity="1.0"><g fill="rgb(0,0,0)" fill-opacity="1.0"><text transform="matrix(1.0,0.0,0.0,1.0,25.0,25.0)" dominant-baseline="middle" text-anchor="middle" stroke="none">0</text></g></g></g></g></g></svg>