<svg xmlns="http://www.w3.org/2000/svg" height="105.0000" stroke-opacity="1" viewBox="0 0 300 105" font-size="1" width="300.0000" xmlns:xlink="http://www.w3.org/1999/xlink" stroke="rgb(0,0,0)" version="1.1"><defs></defs><g stroke-linejoin="miter" stroke-opacity="1.0" fill-opacity="0.0" stroke="rgb(0,0,0)" stroke-width="0.7099295739719539" fill="rgb(0,0,0)" stroke-linecap="butt" stroke-miterlimit="10.0"><path d="M 109.0909,11.5909 l 61.3636,27.2727 "/></g><g stroke-linejoin="miter" stroke-opacity="1.0" fill-opacity="0.0" stroke="rgb(0,0,0)" stroke-width="0.7099295739719539" fill="rgb(0,0,0)" stroke-linecap="butt" stroke-miterlimit="10.0"><path d="M 109.0909,11.5909 l -61.3636,27.2727 "/></g><g stroke-linejoin="miter" stroke-opacity="1.0" fill-opacity="0.0" stroke="rgb(0,0,0)" stroke-width="0.7099295739719539" fill="rgb(0,0,0)" stroke-linecap="butt" stroke-miterlimit="10.0"><path d="M 170.4545,38.8636 l 68.1818,27.2727 "/></g><g stroke-linejoin="miter" stroke-opacity="1.0" fill-opacity="0.0" stroke="rgb(0,0,0)" stroke-width="0.7099295739719539" fill="rgb(0,0,0)" stroke-linecap="butt" stroke-miterlimit="10.0"><path d="M 170.4545,38.8636 l -68.1818,27.2727 "/></g><g stroke-linejoin="miter" stroke-opacity="1.0" fill-opacity="0.0" stroke="rgb(0,0,0)" stroke-width="0.7099295739719539" fill="rgb(0,0,0)" stroke-linecap="butt" stroke-miterlimit="10.0"><path d="M 238.6364,66.1364 l 40.9091,27.2727 "/></g><g stroke-linejoin="miter" stroke-opacity="1.0" fill-opacity="0.0" stroke="rgb(0,0,0)" stroke-width="0.7099295739719539" fill="rgb(0,0,0)" stroke-linecap="butt" stroke-miterlimit="10.0"><path d="M 238.6364,66.1364 l 13.6364,27.2727 "/></g><g stroke-linejoin="miter" stroke-opacity="1.0" fill-opacity="0.0" stroke="rgb(0,0,0)" stroke-width="0.7099295739719539" fill="rgb(0,0,0)" stroke-linecap="butt" stroke-miterlimit="10.0"><path d="M 238.6364,66.1364 l -13.6364,27.2727 "/></g><g stroke-linejoin="miter" stroke-opacity="1.0" fill-opacity="0.0" stroke="rgb(0,0,0)" stroke-width="0.7099295739719539" fill="rgb(0,0,0)" stroke-linecap="butt" stroke-miterlimit="10.0"><path d="M 238.6364,66.1364 l -40.9091,27.2727 "/></g><g stroke-linejoin="miter" stroke-opacity="1.0" fill-opacity="1.0" stroke="rgb(0,0,0)" stroke-width="0.7099295739719539" fill="rgb(255,255,255)" stroke-linecap="butt" stroke-miterlimit="10.0"><path d="M 286.3636,93.4091 c 0.0000,-3.7656 -3.0526,-6.8182 -6.8182 -6.8182c -3.7656,-0.0000 -6.8182,3.0526 -6.8182 6.8182c -0.0000,3.7656 3.0526,6.8182 6.8182 6.8182c 3.7656,0.0000 6.8182,-3.0526 6.8182 -6.8182Z"/></g><g stroke-linejoin="miter" stroke-opacity="1.0" fill-opacity="1.0" font-size="6.818181818181818px" stroke="rgb(0,0,0)" stroke-width="0.7099295739719539" fill="rgb(0,0,0)" stroke-linecap="butt" stroke-miterlimit="10.0"><text dominant-baseline="middle" transform="matrix(1.0000,0.0000,0.0000,1.0000,279.5455,93.4091)" stroke="none" text-anchor="middle">R</text></g><g stroke-linejoin="miter" stroke-opacity="1.0" fill-opacity="1.0" stroke="rgb(0,0,0)" stroke-width="0.7099295739719539" fill="rgb(255,255,255)" stroke-linecap="butt" stroke-miterlimit="10.0"><path d="M 259.0909,93.4091 c 0.0000,-3.7656 -3.0526,-6.8182 -6.8182 -6.8182c -3.7656,-0.0000 -6.8182,3.0526 -6.8182 6.8182c -0.0000,3.7656 3.0526,6.8182 6.8182 6.8182c 3.7656,0.0000 6.8182,-3.0526 6.8182 -6.8182Z"/></g><g stroke-linejoin="miter" stroke-opacity="1.0" fill-opacity="1.0" font-size="6.818181818181818px" stroke="rgb(0,0,0)" stroke-width="0.7099295739719539" fill="rgb(0,0,0)" stroke-linecap="butt" stroke-miterlimit="10.0"><text dominant-baseline="middle" transform="matrix(1.0000,0.0000,0.0000,1.0000,252.2727,93.4091)" stroke="none" text-anchor="middle">Q</text></g><g stroke-linejoin="miter" stroke-opacity="1.0" fill-opacity="1.0" stroke="rgb(0,0,0)" stroke-width="0.7099295739719539" fill="rgb(255,255,255)" stroke-linecap="butt" stroke-miterlimit="10.0"><path d="M 231.8182,93.4091 c 0.0000,-3.7656 -3.0526,-6.8182 -6.8182 -6.8182c -3.7656,-0.0000 -6.8182,3.0526 -6.8182 6.8182c -0.0000,3.7656 3.0526,6.8182 6.8182 6.8182c 3.7656,0.0000 6.8182,-3.0526 6.8182 -6.8182Z"/></g><g stroke-linejoin="miter" stroke-opacity="1.0" fill-opacity="1.0" font-size="6.818181818181818px" stroke="rgb(0,0,0)" stroke-width="0.7099295739719539" fill="rgb(0,0,0)" stroke-linecap="butt" stroke-miterlimit="10.0"><text dominant-baseline="middle" transform="matrix(1.0000,0.0000,0.0000,1.0000,225.0000,93.4091)" stroke="none" text-anchor="middle">P</text></g><g stroke-linejoin="miter" stroke-opacity="1.0" fill-opacity="1.0" stroke="rgb(0,0,0)" stroke-width="0.7099295739719539" fill="rgb(255,255,255)" stroke-linecap="butt" stroke-miterlimit="10.0"><path d="M 204.5455,93.4091 c 0.0000,-3.7656 -3.0526,-6.8182 -6.8182 -6.8182c -3.7656,-0.0000 -6.8182,3.0526 -6.8182 6.8182c -0.0000,3.7656 3.0526,6.8182 6.8182 6.8182c 3.7656,0.0000 6.8182,-3.0526 6.8182 -6.8182Z"/></g><g stroke-linejoin="miter" stroke-opacity="1.0" fill-opacity="1.0" font-size="6.818181818181818px" stroke="rgb(0,0,0)" stroke-width="0.7099295739719539" fill="rgb(0,0,0)" stroke-linecap="butt" stroke-miterlimit="10.0"><text dominant-baseline="middle" transform="matrix(1.0000,0.0000,0.0000,1.0000,197.7273,93.4091)" stroke="none" text-anchor="middle">O</text></g><g stroke-linejoin="miter" stroke-opacity="1.0" fill-opacity="1.0" stroke="rgb(0,0,0)" stroke-width="0.7099295739719539" fill="rgb(255,255,255)" stroke-linecap="butt" stroke-miterlimit="10.0"><path d="M 245.4545,66.1364 c 0.0000,-3.7656 -3.0526,-6.8182 -6.8182 -6.8182c -3.7656,-0.0000 -6.8182,3.0526 -6.8182 6.8182c -0.0000,3.7656 3.0526,6.8182 6.8182 6.8182c 3.7656,0.0000 6.8182,-3.0526 6.8182 -6.8182Z"/></g><g stroke-linejoin="miter" stroke-opacity="1.0" fill-opacity="1.0" font-size="6.818181818181818px" stroke="rgb(0,0,0)" stroke-width="0.7099295739719539" fill="rgb(0,0,0)" stroke-linecap="butt" stroke-miterlimit="10.0"><text dominant-baseline="middle" transform="matrix(1.0000,0.0000,0.0000,1.0000,238.6364,66.1364)" stroke="none" text-anchor="middle">N</text></g><g stroke-linejoin="miter" stroke-opacity="1.0" fill-opacity="0.0" stroke="rgb(0,0,0)" stroke-width="0.7099295739719539" fill="rgb(0,0,0)" stroke-linecap="butt" stroke-miterlimit="10.0"><path d="M 102.2727,66.1364 l 68.1818,27.2727 "/></g><g stroke-linejoin="miter" stroke-opacity="1.0" fill-opacity="0.0" stroke="rgb(0,0,0)" stroke-width="0.7099295739719539" fill="rgb(0,0,0)" stroke-linecap="butt" stroke-miterlimit="10.0"><path d="M 102.2727,66.1364 l 40.9091,27.2727 "/></g><g stroke-linejoin="miter" stroke-opacity="1.0" fill-opacity="0.0" stroke="rgb(0,0,0)" stroke-width="0.7099295739719539" fill="rgb(0,0,0)" stroke-linecap="butt" stroke-miterlimit="10.0"><path d="M 102.2727,66.1364 l 13.6364,27.2727 "/></g><g stroke-linejoin="miter" stroke-opacity="1.0" fill-opacity="0.0" stroke="rgb(0,0,0)" stroke-width="0.7099295739719539" fill="rgb(0,0,0)" stroke-linecap="butt" stroke-miterlimit="10.0"><path d="M 102.2727,66.1364 l -13.6364,27.2727 "/></g><g stroke-linejoin="miter" stroke-opacity="1.0" fill-opacity="0.0" stroke="rgb(0,0,0)" stroke-width="0.7099295739719539" fill="rgb(0,0,0)" stroke-linecap="butt" stroke-miterlimit="10.0"><path d="M 102.2727,66.1364 l -40.9091,27.2727 "/></g><g stroke-linejoin="miter" stroke-opacity="1.0" fill-opacity="0.0" stroke="rgb(0,0,0)" stroke-width="0.7099295739719539" fill="rgb(0,0,0)" stroke-linecap="butt" stroke-miterlimit="10.0"><path d="M 102.2727,66.1364 l -68.1818,27.2727 "/></g><g stroke-linejoin="miter" stroke-opacity="1.0" fill-opacity="1.0" stroke="rgb(0,0,0)" stroke-width="0.7099295739719539" fill="rgb(255,255,255)" stroke-linecap="butt" stroke-miterlimit="10.0"><path d="M 177.2727,93.4091 c 0.0000,-3.7656 -3.0526,-6.8182 -6.8182 -6.8182c -3.7656,-0.0000 -6.8182,3.0526 -6.8182 6.8182c -0.0000,3.7656 3.0526,6.8182 6.8182 6.8182c 3.7656,0.0000 6.8182,-3.0526 6.8182 -6.8182Z"/></g><g stroke-linejoin="miter" stroke-opacity="1.0" fill-opacity="1.0" font-size="6.818181818181818px" stroke="rgb(0,0,0)" stroke-width="0.7099295739719539" fill="rgb(0,0,0)" stroke-linecap="butt" stroke-miterlimit="10.0"><text dominant-baseline="middle" transform="matrix(1.0000,0.0000,0.0000,1.0000,170.4545,93.4091)" stroke="none" text-anchor="middle">M</text></g><g stroke-linejoin="miter" stroke-opacity="1.0" fill-opacity="1.0" stroke="rgb(0,0,0)" stroke-width="0.7099295739719539" fill="rgb(255,255,255)" stroke-linecap="butt" stroke-miterlimit="10.0"><path d="M 150.0000,93.4091 c 0.0000,-3.7656 -3.0526,-6.8182 -6.8182 -6.8182c -3.7656,-0.0000 -6.8182,3.0526 -6.8182 6.8182c -0.0000,3.7656 3.0526,6.8182 6.8182 6.8182c 3.7656,0.0000 6.8182,-3.0526 6.8182 -6.8182Z"/></g><g stroke-linejoin="miter" stroke-opacity="1.0" fill-opacity="1.0" font-size="6.818181818181818px" stroke="rgb(0,0,0)" stroke-width="0.7099295739719539" fill="rgb(0,0,0)" stroke-linecap="butt" stroke-miterlimit="10.0"><text dominant-baseline="middle" transform="matrix(1.0000,0.0000,0.0000,1.0000,143.1818,93.4091)" stroke="none" text-anchor="middle">L</text></g><g stroke-linejoin="miter" stroke-opacity="1.0" fill-opacity="1.0" stroke="rgb(0,0,0)" stroke-width="0.7099295739719539" fill="rgb(255,255,255)" stroke-linecap="butt" stroke-miterlimit="10.0"><path d="M 122.7273,93.4091 c 0.0000,-3.7656 -3.0526,-6.8182 -6.8182 -6.8182c -3.7656,-0.0000 -6.8182,3.0526 -6.8182 6.8182c -0.0000,3.7656 3.0526,6.8182 6.8182 6.8182c 3.7656,0.0000 6.8182,-3.0526 6.8182 -6.8182Z"/></g><g stroke-linejoin="miter" stroke-opacity="1.0" fill-opacity="1.0" font-size="6.818181818181818px" stroke="rgb(0,0,0)" stroke-width="0.7099295739719539" fill="rgb(0,0,0)" stroke-linecap="butt" stroke-miterlimit="10.0"><text dominant-baseline="middle" transform="matrix(1.0000,0.0000,0.0000,1.0000,115.9091,93.4091)" stroke="none" text-anchor="middle">K</text></g><g stroke-linejoin="miter" stroke-opacity="1.0" fill-opacity="1.0" stroke="rgb(0,0,0)" stroke-width="0.7099295739719539" fill="rgb(255,255,255)" stroke-linecap="butt" stroke-miterlimit="10.0"><path d="M 95.4545,93.4091 c 0.0000,-3.7656 -3.0526,-6.8182 -6.8182 -6.8182c -3.7656,-0.0000 -6.8182,3.0526 -6.8182 6.8182c -0.0000,3.7656 3.0526,6.8182 6.8182 6.8182c 3.7656,0.0000 6.8182,-3.0526 6.8182 -6.8182Z"/></g><g stroke-linejoin="miter" stroke-opacity="1.0" fill-opacity="1.0" font-size="6.818181818181818px" stroke="rgb(0,0,0)" stroke-width="0.7099295739719539" fill="rgb(0,0,0)" stroke-linecap="butt" stroke-miterlimit="10.0"><text dominant-baseline="middle" transform="matrix(1.0000,0.0000,0.0000,1.0000,88.6364,93.4091)" stroke="none" text-anchor="middle">J</text></g><g stroke-linejoin="miter" stroke-opacity="1.0" fill-opacity="1.0" stroke="rgb(0,0,0)" stroke-width="0.7099295739719539" fill="rgb(255,255,255)" stroke-linecap="butt" stroke-miterlimit="10.0"><path d="M 68.1818,93.4091 c 0.0000,-3.7656 -3.0526,-6.8182 -6.8182 -6.8182c -3.7656,-0.0000 -6.8182,3.0526 -6.8182 6.8182c -0.0000,3.7656 3.0526,6.8182 6.8182 6.8182c 3.7656,0.0000 6.8182,-3.0526 6.8182 -6.8182Z"/></g><g stroke-linejoin="miter" stroke-opacity="1.0" fill-opacity="1.0" font-size="6.818181818181818px" stroke="rgb(0,0,0)" stroke-width="0.7099295739719539" fill="rgb(0,0,0)" stroke-linecap="butt" stroke-miterlimit="10.0"><text dominant-baseline="middle" transform="matrix(1.0000,0.0000,0.0000,1.0000,61.3636,93.4091)" stroke="none" text-anchor="middle">I</text></g><g stroke-linejoin="miter" stroke-opacity="1.0" fill-opacity="1.0" stroke="rgb(0,0,0)" stroke-width="0.7099295739719539" fill="rgb(255,255,255)" stroke-linecap="butt" stroke-miterlimit="10.0"><path d="M 40.9091,93.4091 c 0.0000,-3.7656 -3.0526,-6.8182 -6.8182 -6.8182c -3.7656,-0.0000 -6.8182,3.0526 -6.8182 6.8182c -0.0000,3.7656 3.0526,6.8182 6.8182 6.8182c 3.7656,0.0000 6.8182,-3.0526 6.8182 -6.8182Z"/></g><g stroke-linejoin="miter" stroke-opacity="1.0" fill-opacity="1.0" font-size="6.818181818181818px" stroke="rgb(0,0,0)" stroke-width="0.7099295739719539" fill="rgb(0,0,0)" stroke-linecap="butt" stroke-miterlimit="10.0"><text dominant-baseline="middle" transform="matrix(1.0000,0.0000,0.0000,1.0000,34.0909,93.4091)" stroke="none" text-anchor="middle">H</text></g><g stroke-linejoin="miter" stroke-opacity="1.0" fill-opacity="1.0" stroke="rgb(0,0,0)" stroke-width="0.7099295739719539" fill="rgb(255,255,255)" stroke-linecap="butt" stroke-miterlimit="10.0"><path d="M 109.0909,66.1364 c 0.0000,-3.7656 -3.0526,-6.8182 -6.8182 -6.8182c -3.7656,-0.0000 -6.8182,3.0526 -6.8182 6.8182c -0.0000,3.7656 3.0526,6.8182 6.8182 6.8182c 3.7656,0.0000 6.8182,-3.0526 6.8182 -6.8182Z"/></g><g stroke-linejoin="miter" stroke-opacity="1.0" fill-opacity="1.0" font-size="6.818181818181818px" stroke="rgb(0,0,0)" stroke-width="0.7099295739719539" fill="rgb(0,0,0)" stroke-linecap="butt" stroke-miterlimit="10.0"><text dominant-baseline="middle" transform="matrix(1.0000,0.0000,0.0000,1.0000,102.2727,66.1364)" stroke="none" text-anchor="middle">G</text></g><g stroke-linejoin="miter" stroke-opacity="1.0" fill-opacity="1.0" stroke="rgb(0,0,0)" stroke-width="0.7099295739719539" fill="rgb(255,255,255)" stroke-linecap="butt" stroke-miterlimit="10.0"><path d="M 177.2727,38.8636 c 0.0000,-3.7656 -3.0526,-6.8182 -6.8182 -6.8182c -3.7656,-0.0000 -6.8182,3.0526 -6.8182 6.8182c -0.0000,3.7656 3.0526,6.8182 6.8182 6.8182c 3.7656,0.0000 6.8182,-3.0526 6.8182 -6.8182Z"/></g><g stroke-linejoin="miter" stroke-opacity="1.0" fill-opacity="1.0" font-size="6.818181818181818px" stroke="rgb(0,0,0)" stroke-width="0.7099295739719539" fill="rgb(0,0,0)" stroke-linecap="butt" stroke-miterlimit="10.0"><text dominant-baseline="middle" transform="matrix(1.0000,0.0000,0.0000,1.0000,170.4545,38.8636)" stroke="none" text-anchor="middle">F</text></g><g stroke-linejoin="miter" stroke-opacity="1.0" fill-opacity="0.0" stroke="rgb(0,0,0)" stroke-width="0.7099295739719539" fill="rgb(0,0,0)" stroke-linecap="butt" stroke-miterlimit="10.0"><path d="M 47.7273,38.8636 l 27.2727,27.2727 "/></g><g stroke-linejoin="miter" stroke-opacity="1.0" fill-opacity="0.0" stroke="rgb(0,0,0)" stroke-width="0.7099295739719539" fill="rgb(0,0,0)" stroke-linecap="butt" stroke-miterlimit="10.0"><path d="M 47.7273,38.8636 v 27.2727 "/></g><g stroke-linejoin="miter" stroke-opacity="1.0" fill-opacity="0.0" stroke="rgb(0,0,0)" stroke-width="0.7099295739719539" fill="rgb(0,0,0)" stroke-linecap="butt" stroke-miterlimit="10.0"><path d="M 47.7273,38.8636 l -27.2727,27.2727 "/></g><g stroke-linejoin="miter" stroke-opacity="1.0" fill-opacity="1.0" stroke="rgb(0,0,0)" stroke-width="0.7099295739719539" fill="rgb(255,255,255)" stroke-linecap="butt" stroke-miterlimit="10.0"><path d="M 81.8182,66.1364 c 0.0000,-3.7656 -3.0526,-6.8182 -6.8182 -6.8182c -3.7656,-0.0000 -6.8182,3.0526 -6.8182 6.8182c -0.0000,3.7656 3.0526,6.8182 6.8182 6.8182c 3.7656,0.0000 6.8182,-3.0526 6.8182 -6.8182Z"/></g><g stroke-linejoin="miter" stroke-opacity="1.0" fill-opacity="1.0" font-size="6.818181818181818px" stroke="rgb(0,0,0)" stroke-width="0.7099295739719539" fill="rgb(0,0,0)" stroke-linecap="butt" stroke-miterlimit="10.0"><text dominant-baseline="middle" transform="matrix(1.0000,0.0000,0.0000,1.0000,75.0000,66.1364)" stroke="none" text-anchor="middle">E</text></g><g stroke-linejoin="miter" stroke-opacity="1.0" fill-opacity="1.0" stroke="rgb(0,0,0)" stroke-width="0.7099295739719539" fill="rgb(255,255,255)" stroke-linecap="butt" stroke-miterlimit="10.0"><path d="M 54.5455,66.1364 c 0.0000,-3.7656 -3.0526,-6.8182 -6.8182 -6.8182c -3.7656,-0.0000 -6.8182,3.0526 -6.8182 6.8182c -0.0000,3.7656 3.0526,6.8182 6.8182 6.8182c 3.7656,0.0000 6.8182,-3.0526 6.8182 -6.8182Z"/></g><g stroke-linejoin="miter" stroke-opacity="1.0" fill-opacity="1.0" font-size="6.818181818181818px" stroke="rgb(0,0,0)" stroke-width="0.7099295739719539" fill="rgb(0,0,0)" stroke-linecap="butt" stroke-miterlimit="10.0"><text dominant-baseline="middle" transform="matrix(1.0000,0.0000,0.0000,1.0000,47.7273,66.1364)" stroke="none" text-anchor="middle">D</text></g><g stroke-linejoin="miter" stroke-opacity="1.0" fill-opacity="1.0" stroke="rgb(0,0,0)" stroke-width="0.7099295739719539" fill="rgb(255,255,255)" stroke-linecap="butt" stroke-miterlimit="10.0"><path d="M 27.2727,66.1364 c 0.0000,-3.7656 -3.0526,-6.8182 -6.8182 -6.8182c -3.7656,-0.0000 -6.8182,3.0526 -6.8182 6.8182c -0.0000,3.7656 3.0526,6.8182 6.8182 6.8182c 3.7656,0.0000 6.8182,-3.0526 6.8182 -6.8182Z"/></g><g stroke-linejoin="miter" stroke-opacity="1.0" fill-opacity="1.0" font-size="6.818181818181818px" stroke="rgb(0,0,0)" stroke-width="0.7099295739719539" fill="rgb(0,0,0)" stroke-linecap="butt" stroke-miterlimit="10.0"><text dominant-baseline="middle" transform="matrix(1.0000,0.0000,0.0000,1.0000,20.4545,66.1364)" stroke="none" text-anchor="middle">C</text></g><g stroke-linejoin="miter" stroke-opacity="1.0" fill-opacity="1.0" stroke="rgb(0,0,0)" stroke-width="0.7099295739719539" fill="rgb(255,255,255)" stroke-linecap="butt" stroke-miterlimit="10.0"><path d="M 54.5455,38.8636 c 0.0000,-3.7656 -3.0526,-6.8182 -6.8182 -6.8182c -3.7656,-0.0000 -6.8182,3.0526 -6.8182 6.8182c -0.0000,3.7656 3.0526,6.8182 6.8182 6.8182c 3.7656,0.0000 6.8182,-3.0526 6.8182 -6.8182Z"/></g><g stroke-linejoin="miter" stroke-opacity="1.0" fill-opacity="1.0" font-size="6.818181818181818px" stroke="rgb(0,0,0)" stroke-width="0.7099295739719539" fill="rgb(0,0,0)" stroke-linecap="butt" stroke-miterlimit="10.0"><text dominant-baseline="middle" transform="matrix(1.0000,0.0000,0.0000,1.0000,47.7273,38.8636)" stroke="none" text-anchor="middle">B</text></g><g stroke-linejoin="miter" stroke-opacity="1.0" fill-opacity="1.0" stroke="rgb(0,0,0)" stroke-width="0.7099295739719539" fill="rgb(255,255,255)" stroke-linecap="butt" stroke-miterlimit="10.0"><path d="M 115.9091,11.5909 c 0.0000,-3.7656 -3.0526,-6.8182 -6.8182 -6.8182c -3.7656,-0.0000 -6.8182,3.0526 -6.8182 6.8182c -0.0000,3.7656 3.0526,6.8182 6.8182 6.8182c 3.7656,0.0000 6.8182,-3.0526 6.8182 -6.8182Z"/></g><g stroke-linejoin="miter" stroke-opacity="1.0" fill-opacity="1.0" font-size="6.818181818181818px" stroke="rgb(0,0,0)" stroke-width="0.7099295739719539" fill="rgb(0,0,0)" stroke-linecap="butt" stroke-miterlimit="10.0"><text dominant-baseline="middle" transform="matrix(1.0000,0.0000,0.0000,1.0000,109.0909,11.5909)" stroke="none" text-anchor="middle">A</text></g></svg>