<svg xmlns="http://www.w3.org/2000/svg" height="400.0000" stroke-opacity="1" viewBox="0 0 400 400" font-size="1" width="400.0000" xmlns:xlink="http://www.w3.org/1999/xlink" stroke="rgb(0,0,0)" version="1.1"><defs></defs><g stroke-linejoin="miter" stroke-opacity="1.0" fill-opacity="0.0" stroke="rgb(0,0,0)" stroke-width="1.6" fill="rgb(0,0,0)" stroke-linecap="butt" stroke-miterlimit="10.0"><path d="M 211.4562,374.4478 c 0.0000,-1.8767 -1.5214,-3.3981 -3.3981 -3.3981c -1.8767,-0.0000 -3.3981,1.5214 -3.3981 3.3981c -0.0000,1.8767 1.5214,3.3981 3.3981 3.3981c 1.8767,0.0000 3.3981,-1.5214 3.3981 -3.3981Z"/></g><g stroke-linejoin="miter" stroke-opacity="1.0" fill-opacity="0.0" stroke="rgb(0,0,0)" stroke-width="1.6" fill="rgb(0,0,0)" stroke-linecap="butt" stroke-miterlimit="10.0"><path d="M 192.8070,397.3061 c 0.0000,-1.3575 -1.1005,-2.4580 -2.4580 -2.4580c -1.3575,-0.0000 -2.4580,1.1005 -2.4580 2.4580c -0.0000,1.3575 1.1005,2.4580 2.4580 2.4580c 1.3575,0.0000 2.4580,-1.1005 2.4580 -2.4580Z"/></g><g stroke-linejoin="miter" stroke-opacity="1.0" fill-opacity="0.0" stroke="rgb(0,0,0)" stroke-width="1.6" fill="rgb(0,0,0)" stroke-linecap="butt" stroke-miterlimit="10.0"><path d="M 201.6732,395.4159 c 0.0000,-2.5199 -2.0428,-4.5627 -4.5627 -4.5627c -2.5199,-0.0000 -4.5627,2.0428 -4.5627 4.5627c -0.0000,2.5199 2.0428,4.5627 4.5627 4.5627c 2.5199,0.0000 4.5627,-2.0428 4.5627 -4.5627Z"/></g><g stroke-linejoin="miter" stroke-opacity="1.0" fill-opacity="0.0" stroke="rgb(0,0,0)" stroke-width="1.6" fill="rgb(0,0,0)" stroke-linecap="butt" stroke-miterlimit="10.0"><path d="M 240.0000,393.1446 c 0.0000,-1.8901 -1.5322,-3.4223 -3.4223 -3.4223c -1.8901,-0.0000 -3.4223,1.5322 -3.4223 3.4223c -0.0000,1.8901 1.5322,3.4223 3.4223 3.4223c 1.8901,0.0000 3.4223,-1.5322 3.4223 -3.4223Z"/></g><g stroke-linejoin="miter" stroke-opacity="1.0" fill-opacity="0.0" stroke="rgb(0,0,0)" stroke-width="1.6" fill="rgb(0,0,0)" stroke-linecap="butt" stroke-miterlimit="10.0"><path d="M 233.1887,392.3664 c 0.0000,-3.1348 -2.5413,-5.6761 -5.6761 -5.6761c -3.1348,-0.0000 -5.6761,2.5413 -5.6761 5.6761c -0.0000,3.1348 2.5413,5.6761 5.6761 5.6761c 3.1348,0.0000 5.6761,-2.5413 5.6761 -5.6761Z"/></g><g stroke-linejoin="miter" stroke-opacity="1.0" fill-opacity="0.0" stroke="rgb(0,0,0)" stroke-width="1.6" fill="rgb(0,0,0)" stroke-linecap="butt" stroke-miterlimit="10.0"><path d="M 222.2683,388.5863 c 0.0000,-6.1206 -4.9617,-11.0823 -11.0823 -11.0823c -6.1206,-0.0000 -11.0823,4.9617 -11.0823 11.0823c -0.0000,6.1206 4.9617,11.0823 11.0823 11.0823c 6.1206,0.0000 11.0823,-4.9617 11.0823 -11.0823Z"/></g><g stroke-linejoin="miter" stroke-opacity="1.0" fill-opacity="0.0" stroke="rgb(0,0,0)" stroke-width="1.6" fill="rgb(0,0,0)" stroke-linecap="butt" stroke-miterlimit="10.0"><path d="M 200.2427,345.6949 c 0.0000,-1.5248 -1.2361,-2.7609 -2.7609 -2.7609c -1.5248,-0.0000 -2.7609,1.2361 -2.7609 2.7609c -0.0000,1.5248 1.2361,2.7609 2.7609 2.7609c 1.5248,0.0000 2.7609,-1.2361 2.7609 -2.7609Z"/></g><g stroke-linejoin="miter" stroke-opacity="1.0" fill-opacity="0.0" stroke="rgb(0,0,0)" stroke-width="1.6" fill="rgb(0,0,0)" stroke-linecap="butt" stroke-miterlimit="10.0"><path d="M 185.0932,337.6382 c 0.0000,-1.6847 -1.3657,-3.0504 -3.0504 -3.0504c -1.6847,-0.0000 -3.0504,1.3657 -3.0504 3.0504c -0.0000,1.6847 1.3657,3.0504 3.0504 3.0504c 1.6847,0.0000 3.0504,-1.3657 3.0504 -3.0504Z"/></g><g stroke-linejoin="miter" stroke-opacity="1.0" fill-opacity="0.0" stroke="rgb(0,0,0)" stroke-width="1.6" fill="rgb(0,0,0)" stroke-linecap="butt" stroke-miterlimit="10.0"><path d="M 202.0836,327.0316 c 0.0000,-1.9389 -1.5718,-3.5108 -3.5108 -3.5108c -1.9389,-0.0000 -3.5108,1.5718 -3.5108 3.5108c -0.0000,1.9389 1.5718,3.5108 3.5108 3.5108c 1.9389,0.0000 3.5108,-1.5718 3.5108 -3.5108Z"/></g><g stroke-linejoin="miter" stroke-opacity="1.0" fill-opacity="0.0" stroke="rgb(0,0,0)" stroke-width="1.6" fill="rgb(0,0,0)" stroke-linecap="butt" stroke-miterlimit="10.0"><path d="M 200.2998,336.4825 c 0.0000,-4.2165 -3.4181,-7.6346 -7.6346 -7.6346c -4.2165,-0.0000 -7.6346,3.4181 -7.6346 7.6346c -0.0000,4.2165 3.4181,7.6346 7.6346 7.6346c 4.2165,0.0000 7.6346,-3.4181 7.6346 -7.6346Z"/></g><g stroke-linejoin="miter" stroke-opacity="1.0" fill-opacity="0.0" stroke="rgb(0,0,0)" stroke-width="1.6" fill="rgb(0,0,0)" stroke-linecap="butt" stroke-miterlimit="10.0"><path d="M 138.7553,386.8509 c 0.0000,-1.4120 -1.1447,-2.5567 -2.5567 -2.5567c -1.4120,-0.0000 -2.5567,1.1447 -2.5567 2.5567c -0.0000,1.4120 1.1447,2.5567 2.5567 2.5567c 1.4120,0.0000 2.5567,-1.1447 2.5567 -2.5567Z"/></g><g stroke-linejoin="miter" stroke-opacity="1.0" fill-opacity="0.0" stroke="rgb(0,0,0)" stroke-width="1.6" fill="rgb(0,0,0)" stroke-linecap="butt" stroke-miterlimit="10.0"><path d="M 155.5046,391.1103 c 0.0000,-1.6908 -1.3706,-3.0614 -3.0614 -3.0614c -1.6908,-0.0000 -3.0614,1.3706 -3.0614 3.0614c -0.0000,1.6908 1.3706,3.0614 3.0614 3.0614c 1.6908,0.0000 3.0614,-1.3706 3.0614 -3.0614Z"/></g><g stroke-linejoin="miter" stroke-opacity="1.0" fill-opacity="0.0" stroke="rgb(0,0,0)" stroke-width="1.6" fill="rgb(0,0,0)" stroke-linecap="butt" stroke-miterlimit="10.0"><path d="M 151.0483,385.8173 c 0.0000,-3.4116 -2.7656,-6.1772 -6.1772 -6.1772c -3.4116,-0.0000 -6.1772,2.7656 -6.1772 6.1772c -0.0000,3.4116 2.7656,6.1772 6.1772 6.1772c 3.4116,0.0000 6.1772,-2.7656 6.1772 -6.1772Z"/></g><g stroke-linejoin="miter" stroke-opacity="1.0" fill-opacity="0.0" stroke="rgb(0,0,0)" stroke-width="1.6" fill="rgb(0,0,0)" stroke-linecap="butt" stroke-miterlimit="10.0"><path d="M 151.1696,352.6944 c 0.0000,-2.7255 -2.2095,-4.9350 -4.9350 -4.9350c -2.7255,-0.0000 -4.9350,2.2095 -4.9350 4.9350c -0.0000,2.7255 2.2095,4.9350 4.9350 4.9350c 2.7255,0.0000 4.9350,-2.2095 4.9350 -4.9350Z"/></g><g stroke-linejoin="miter" stroke-opacity="1.0" fill-opacity="0.0" stroke="rgb(0,0,0)" stroke-width="1.6" fill="rgb(0,0,0)" stroke-linecap="butt" stroke-miterlimit="10.0"><path d="M 111.8524,373.2976 c 0.0000,-2.1064 -1.7075,-3.8139 -3.8139 -3.8139c -2.1064,-0.0000 -3.8139,1.7075 -3.8139 3.8139c -0.0000,2.1064 1.7075,3.8139 3.8139 3.8139c 2.1064,0.0000 3.8139,-1.7075 3.8139 -3.8139Z"/></g><g stroke-linejoin="miter" stroke-opacity="1.0" fill-opacity="0.0" stroke="rgb(0,0,0)" stroke-width="1.6" fill="rgb(0,0,0)" stroke-linecap="butt" stroke-miterlimit="10.0"><path d="M 117.2056,352.8264 c 0.0000,-1.8231 -1.4779,-3.3009 -3.3009 -3.3009c -1.8231,-0.0000 -3.3009,1.4779 -3.3009 3.3009c -0.0000,1.8231 1.4779,3.3009 3.3009 3.3009c 1.8231,0.0000 3.3009,-1.4779 3.3009 -3.3009Z"/></g><g stroke-linejoin="miter" stroke-opacity="1.0" fill-opacity="0.0" stroke="rgb(0,0,0)" stroke-width="1.6" fill="rgb(0,0,0)" stroke-linecap="butt" stroke-miterlimit="10.0"><path d="M 88.6593,361.2805 c 0.0000,-1.4119 -1.1446,-2.5564 -2.5564 -2.5564c -1.4119,-0.0000 -2.5564,1.1446 -2.5564 2.5564c -0.0000,1.4119 1.1446,2.5564 2.5564 2.5564c 1.4119,0.0000 2.5564,-1.1446 2.5564 -2.5564Z"/></g><g stroke-linejoin="miter" stroke-opacity="1.0" fill-opacity="0.0" stroke="rgb(0,0,0)" stroke-width="1.6" fill="rgb(0,0,0)" stroke-linecap="butt" stroke-miterlimit="10.0"><path d="M 48.3336,323.5680 c 0.0000,-1.3571 -1.1002,-2.4573 -2.4573 -2.4573c -1.3571,-0.0000 -2.4573,1.1002 -2.4573 2.4573c -0.0000,1.3571 1.1002,2.4573 2.4573 2.4573c 1.3571,0.0000 2.4573,-1.1002 2.4573 -2.4573Z"/></g><g stroke-linejoin="miter" stroke-opacity="1.0" fill-opacity="0.0" stroke="rgb(0,0,0)" stroke-width="1.6" fill="rgb(0,0,0)" stroke-linecap="butt" stroke-miterlimit="10.0"><path d="M 52.7082,327.4113 c 0.0000,-1.6471 -1.3352,-2.9824 -2.9824 -2.9824c -1.6471,-0.0000 -2.9824,1.3352 -2.9824 2.9824c -0.0000,1.6471 1.3352,2.9824 2.9824 2.9824c 1.6471,0.0000 2.9824,-1.3352 2.9824 -2.9824Z"/></g><g stroke-linejoin="miter" stroke-opacity="1.0" fill-opacity="0.0" stroke="rgb(0,0,0)" stroke-width="1.6" fill="rgb(0,0,0)" stroke-linecap="butt" stroke-miterlimit="10.0"><path d="M 58.3291,331.9322 c 0.0000,-2.0393 -1.6532,-3.6925 -3.6925 -3.6925c -2.0393,-0.0000 -3.6925,1.6532 -3.6925 3.6925c -0.0000,2.0393 1.6532,3.6925 3.6925 3.6925c 2.0393,0.0000 3.6925,-1.6532 3.6925 -3.6925Z"/></g><g stroke-linejoin="miter" stroke-opacity="1.0" fill-opacity="0.0" stroke="rgb(0,0,0)" stroke-width="1.6" fill="rgb(0,0,0)" stroke-linecap="butt" stroke-miterlimit="10.0"><path d="M 65.7596,337.2896 c 0.0000,-2.5868 -2.0970,-4.6839 -4.6839 -4.6839c -2.5868,-0.0000 -4.6839,2.0970 -4.6839 4.6839c -0.0000,2.5868 2.0970,4.6839 4.6839 4.6839c 2.5868,0.0000 4.6839,-2.0970 4.6839 -4.6839Z"/></g><g stroke-linejoin="miter" stroke-opacity="1.0" fill-opacity="0.0" stroke="rgb(0,0,0)" stroke-width="1.6" fill="rgb(0,0,0)" stroke-linecap="butt" stroke-miterlimit="10.0"><path d="M 75.9271,343.6589 c 0.0000,-3.3812 -2.7410,-6.1221 -6.1221 -6.1221c -3.3812,-0.0000 -6.1221,2.7410 -6.1221 6.1221c -0.0000,3.3812 2.7410,6.1221 6.1221 6.1221c 3.3812,0.0000 6.1221,-2.7410 6.1221 -6.1221Z"/></g><g stroke-linejoin="miter" stroke-opacity="1.0" fill-opacity="0.0" stroke="rgb(0,0,0)" stroke-width="1.6" fill="rgb(0,0,0)" stroke-linecap="butt" stroke-miterlimit="10.0"><path d="M 90.4376,351.1680 c 0.0000,-4.5889 -3.7201,-8.3090 -8.3090 -8.3090c -4.5889,-0.0000 -8.3090,3.7201 -8.3090 8.3090c -0.0000,4.5889 3.7201,8.3090 8.3090 8.3090c 4.5889,0.0000 8.3090,-3.7201 8.3090 -8.3090Z"/></g><g stroke-linejoin="miter" stroke-opacity="1.0" fill-opacity="0.0" stroke="rgb(0,0,0)" stroke-width="1.6" fill="rgb(0,0,0)" stroke-linecap="butt" stroke-miterlimit="10.0"><path d="M 112.2277,359.6462 c 0.0000,-6.5340 -5.2968,-11.8308 -11.8308 -11.8308c -6.5340,-0.0000 -11.8308,5.2968 -11.8308 11.8308c -0.0000,6.5340 5.2968,11.8308 11.8308 11.8308c 6.5340,0.0000 11.8308,-5.2968 11.8308 -11.8308Z"/></g><g stroke-linejoin="miter" stroke-opacity="1.0" fill-opacity="0.0" stroke="rgb(0,0,0)" stroke-width="1.6" fill="rgb(0,0,0)" stroke-linecap="butt" stroke-miterlimit="10.0"><path d="M 146.9181,367.6955 c 0.0000,-9.8861 -8.0143,-17.9004 -17.9004 -17.9004c -9.8861,-0.0000 -17.9004,8.0143 -17.9004 17.9004c -0.0000,9.8861 8.0143,17.9004 17.9004 17.9004c 9.8861,0.0000 17.9004,-8.0143 17.9004 -17.9004Z"/></g><g stroke-linejoin="miter" stroke-opacity="1.0" fill-opacity="0.0" stroke="rgb(0,0,0)" stroke-width="1.6" fill="rgb(0,0,0)" stroke-linecap="butt" stroke-miterlimit="10.0"><path d="M 205.0851,369.2092 c 0.0000,-16.0691 -13.0266,-29.0957 -29.0957 -29.0957c -16.0691,-0.0000 -29.0957,13.0266 -29.0957 29.0957c -0.0000,16.0691 13.0266,29.0957 29.0957 29.0957c 16.0691,0.0000 29.0957,-13.0266 29.0957 -29.0957Z"/></g><g stroke-linejoin="miter" stroke-opacity="1.0" fill-opacity="0.0" stroke="rgb(0,0,0)" stroke-width="1.6" fill="rgb(0,0,0)" stroke-linecap="butt" stroke-miterlimit="10.0"><path d="M 305.0235,347.7638 c 0.0000,-1.5217 -1.2336,-2.7552 -2.7552 -2.7552c -1.5217,-0.0000 -2.7552,1.2336 -2.7552 2.7552c -0.0000,1.5217 1.2336,2.7552 2.7552 2.7552c 1.5217,0.0000 2.7552,-1.2336 2.7552 -2.7552Z"/></g><g stroke-linejoin="miter" stroke-opacity="1.0" fill-opacity="0.0" stroke="rgb(0,0,0)" stroke-width="1.6" fill="rgb(0,0,0)" stroke-linecap="butt" stroke-miterlimit="10.0"><path d="M 321.9933,356.7661 c 0.0000,-1.9188 -1.5555,-3.4743 -3.4743 -3.4743c -1.9188,-0.0000 -3.4743,1.5555 -3.4743 3.4743c -0.0000,1.9188 1.5555,3.4743 3.4743 3.4743c 1.9188,0.0000 3.4743,-1.5555 3.4743 -3.4743Z"/></g><g stroke-linejoin="miter" stroke-opacity="1.0" fill-opacity="0.0" stroke="rgb(0,0,0)" stroke-width="1.6" fill="rgb(0,0,0)" stroke-linecap="butt" stroke-miterlimit="10.0"><path d="M 294.4104,374.4945 c 0.0000,-1.6694 -1.3534,-3.0228 -3.0228 -3.0228c -1.6694,-0.0000 -3.0228,1.3534 -3.0228 3.0228c -0.0000,1.6694 1.3534,3.0228 3.0228 3.0228c 1.6694,0.0000 3.0228,-1.3534 3.0228 -3.0228Z"/></g><g stroke-linejoin="miter" stroke-opacity="1.0" fill-opacity="0.0" stroke="rgb(0,0,0)" stroke-width="1.6" fill="rgb(0,0,0)" stroke-linecap="butt" stroke-miterlimit="10.0"><path d="M 302.0709,369.2092 c 0.0000,-2.6782 -2.1711,-4.8493 -4.8493 -4.8493c -2.6782,-0.0000 -4.8493,2.1711 -4.8493 4.8493c -0.0000,2.6782 2.1711,4.8493 4.8493 4.8493c 2.6782,0.0000 4.8493,-2.1711 4.8493 -4.8493Z"/></g><g stroke-linejoin="miter" stroke-opacity="1.0" fill-opacity="0.0" stroke="rgb(0,0,0)" stroke-width="1.6" fill="rgb(0,0,0)" stroke-linecap="butt" stroke-miterlimit="10.0"><path d="M 315.2078,358.7729 c 0.0000,-4.9448 -4.0085,-8.9533 -8.9533 -8.9533c -4.9448,-0.0000 -8.9533,4.0085 -8.9533 8.9533c -0.0000,4.9448 4.0085,8.9533 8.9533 8.9533c 4.9448,0.0000 8.9533,-4.0085 8.9533 -8.9533Z"/></g><g stroke-linejoin="miter" stroke-opacity="1.0" fill-opacity="0.0" stroke="rgb(0,0,0)" stroke-width="1.6" fill="rgb(0,0,0)" stroke-linecap="butt" stroke-miterlimit="10.0"><path d="M 294.9817,309.7714 c 0.0000,-1.5815 -1.2821,-2.8636 -2.8636 -2.8636c -1.5815,-0.0000 -2.8636,1.2821 -2.8636 2.8636c -0.0000,1.5815 1.2821,2.8636 2.8636 2.8636c 1.5815,0.0000 2.8636,-1.2821 2.8636 -2.8636Z"/></g><g stroke-linejoin="miter" stroke-opacity="1.0" fill-opacity="0.0" stroke="rgb(0,0,0)" stroke-width="1.6" fill="rgb(0,0,0)" stroke-linecap="butt" stroke-miterlimit="10.0"><path d="M 305.3310,315.0741 c 0.0000,-3.3409 -2.7083,-6.0492 -6.0492 -6.0492c -3.3409,-0.0000 -6.0492,2.7083 -6.0492 6.0492c -0.0000,3.3409 2.7083,6.0492 6.0492 6.0492c 3.3409,0.0000 6.0492,-2.7083 6.0492 -6.0492Z"/></g><g stroke-linejoin="miter" stroke-opacity="1.0" fill-opacity="0.0" stroke="rgb(0,0,0)" stroke-width="1.6" fill="rgb(0,0,0)" stroke-linecap="butt" stroke-miterlimit="10.0"><path d="M 349.5227,331.3102 c 0.0000,-2.1916 -1.7766,-3.9682 -3.9682 -3.9682c -2.1916,-0.0000 -3.9682,1.7766 -3.9682 3.9682c -0.0000,2.1916 1.7766,3.9682 3.9682 3.9682c 2.1916,0.0000 3.9682,-1.7766 3.9682 -3.9682Z"/></g><g stroke-linejoin="miter" stroke-opacity="1.0" fill-opacity="0.0" stroke="rgb(0,0,0)" stroke-width="1.6" fill="rgb(0,0,0)" stroke-linecap="butt" stroke-miterlimit="10.0"><path d="M 338.1598,312.4919 c 0.0000,-1.8071 -1.4649,-3.2720 -3.2720 -3.2720c -1.8071,-0.0000 -3.2720,1.4649 -3.2720 3.2720c -0.0000,1.8071 1.4649,3.2720 3.2720 3.2720c 1.8071,0.0000 3.2720,-1.4649 3.2720 -3.2720Z"/></g><g stroke-linejoin="miter" stroke-opacity="1.0" fill-opacity="0.0" stroke="rgb(0,0,0)" stroke-width="1.6" fill="rgb(0,0,0)" stroke-linecap="butt" stroke-miterlimit="10.0"><path d="M 380.1736,286.2726 c 0.0000,-1.3166 -1.0673,-2.3839 -2.3839 -2.3839c -1.3166,-0.0000 -2.3839,1.0673 -2.3839 2.3839c -0.0000,1.3166 1.0673,2.3839 2.3839 2.3839c 1.3166,0.0000 2.3839,-1.0673 2.3839 -2.3839Z"/></g><g stroke-linejoin="miter" stroke-opacity="1.0" fill-opacity="0.0" stroke="rgb(0,0,0)" stroke-width="1.6" fill="rgb(0,0,0)" stroke-linecap="butt" stroke-miterlimit="10.0"><path d="M 377.7827,290.8382 c 0.0000,-1.7615 -1.4279,-3.1894 -3.1894 -3.1894c -1.7615,-0.0000 -3.1894,1.4279 -3.1894 3.1894c -0.0000,1.7615 1.4279,3.1894 3.1894 3.1894c 1.7615,0.0000 3.1894,-1.4279 3.1894 -3.1894Z"/></g><g stroke-linejoin="miter" stroke-opacity="1.0" fill-opacity="0.0" stroke="rgb(0,0,0)" stroke-width="1.6" fill="rgb(0,0,0)" stroke-linecap="butt" stroke-miterlimit="10.0"><path d="M 374.3231,296.8582 c 0.0000,-2.4728 -2.0046,-4.4774 -4.4774 -4.4774c -2.4728,-0.0000 -4.4774,2.0046 -4.4774 4.4774c -0.0000,2.4728 2.0046,4.4774 4.4774 4.4774c 2.4728,0.0000 4.4774,-2.0046 4.4774 -4.4774Z"/></g><g stroke-linejoin="miter" stroke-opacity="1.0" fill-opacity="0.0" stroke="rgb(0,0,0)" stroke-width="1.6" fill="rgb(0,0,0)" stroke-linecap="butt" stroke-miterlimit="10.0"><path d="M 368.9502,305.0655 c 0.0000,-3.7092 -3.0069,-6.7162 -6.7162 -6.7162c -3.7092,-0.0000 -6.7162,3.0069 -6.7162 6.7162c -0.0000,3.7092 3.0069,6.7162 6.7162 6.7162c 3.7092,0.0000 6.7162,-3.0069 6.7162 -6.7162Z"/></g><g stroke-linejoin="miter" stroke-opacity="1.0" fill-opacity="0.0" stroke="rgb(0,0,0)" stroke-width="1.6" fill="rgb(0,0,0)" stroke-linecap="butt" stroke-miterlimit="10.0"><path d="M 359.7405,316.5773 c 0.0000,-6.1232 -4.9639,-11.0871 -11.0871 -11.0871c -6.1232,-0.0000 -11.0871,4.9639 -11.0871 11.0871c -0.0000,6.1232 4.9639,11.0871 11.0871 11.0871c 6.1232,0.0000 11.0871,-4.9639 11.0871 -11.0871Z"/></g><g stroke-linejoin="miter" stroke-opacity="1.0" fill-opacity="0.0" stroke="rgb(0,0,0)" stroke-width="1.6" fill="rgb(0,0,0)" stroke-linecap="butt" stroke-miterlimit="10.0"><path d="M 341.6020,332.1993 c 0.0000,-11.6903 -9.4768,-21.1671 -21.1671 -21.1671c -11.6903,-0.0000 -21.1671,9.4768 -21.1671 21.1671c -0.0000,11.6903 9.4768,21.1671 21.1671 21.1671c 11.6903,0.0000 21.1671,-9.4768 21.1671 -21.1671Z"/></g><g stroke-linejoin="miter" stroke-opacity="1.0" fill-opacity="0.0" stroke="rgb(0,0,0)" stroke-width="1.6" fill="rgb(0,0,0)" stroke-linecap="butt" stroke-miterlimit="10.0"><path d="M 227.3157,295.6026 c 0.0000,-1.3472 -1.0921,-2.4393 -2.4393 -2.4393c -1.3472,-0.0000 -2.4393,1.0921 -2.4393 2.4393c -0.0000,1.3472 1.0921,2.4393 2.4393 2.4393c 1.3472,0.0000 2.4393,-1.0921 2.4393 -2.4393Z"/></g><g stroke-linejoin="miter" stroke-opacity="1.0" fill-opacity="0.0" stroke="rgb(0,0,0)" stroke-width="1.6" fill="rgb(0,0,0)" stroke-linecap="butt" stroke-miterlimit="10.0"><path d="M 234.5541,290.8835 c 0.0000,-2.5064 -2.0318,-4.5382 -4.5382 -4.5382c -2.5064,-0.0000 -4.5382,2.0318 -4.5382 4.5382c -0.0000,2.5064 2.0318,4.5382 4.5382 4.5382c 2.5064,0.0000 4.5382,-2.0318 4.5382 -4.5382Z"/></g><g stroke-linejoin="miter" stroke-opacity="1.0" fill-opacity="0.0" stroke="rgb(0,0,0)" stroke-width="1.6" fill="rgb(0,0,0)" stroke-linecap="butt" stroke-miterlimit="10.0"><path d="M 260.5810,287.7101 c 0.0000,-2.3680 -1.9197,-4.2877 -4.2877 -4.2877c -2.3680,-0.0000 -4.2877,1.9197 -4.2877 4.2877c -0.0000,2.3680 1.9197,4.2877 4.2877 4.2877c 2.3680,0.0000 4.2877,-1.9197 4.2877 -4.2877Z"/></g><g stroke-linejoin="miter" stroke-opacity="1.0" fill-opacity="0.0" stroke="rgb(0,0,0)" stroke-width="1.6" fill="rgb(0,0,0)" stroke-linecap="butt" stroke-miterlimit="10.0"><path d="M 243.4030,256.5539 c 0.0000,-1.5662 -1.2696,-2.8358 -2.8358 -2.8358c -1.5662,-0.0000 -2.8358,1.2696 -2.8358 2.8358c -0.0000,1.5662 1.2696,2.8358 2.8358 2.8358c 1.5662,0.0000 2.8358,-1.2696 2.8358 -2.8358Z"/></g><g stroke-linejoin="miter" stroke-opacity="1.0" fill-opacity="0.0" stroke="rgb(0,0,0)" stroke-width="1.6" fill="rgb(0,0,0)" stroke-linecap="butt" stroke-miterlimit="10.0"><path d="M 246.0345,264.4062 c 0.0000,-2.7773 -2.2515,-5.0288 -5.0288 -5.0288c -2.7773,-0.0000 -5.0288,2.2515 -5.0288 5.0288c -0.0000,2.7773 2.2515,5.0288 5.0288 5.0288c 2.7773,0.0000 5.0288,-2.2515 5.0288 -5.0288Z"/></g><g stroke-linejoin="miter" stroke-opacity="1.0" fill-opacity="0.0" stroke="rgb(0,0,0)" stroke-width="1.6" fill="rgb(0,0,0)" stroke-linecap="butt" stroke-miterlimit="10.0"><path d="M 253.6378,280.7508 c 0.0000,-6.2766 -5.0882,-11.3648 -11.3648 -11.3648c -6.2766,-0.0000 -11.3648,5.0882 -11.3648 11.3648c -0.0000,6.2766 5.0882,11.3648 11.3648 11.3648c 6.2766,0.0000 11.3648,-5.0882 11.3648 -11.3648Z"/></g><g stroke-linejoin="miter" stroke-opacity="1.0" fill-opacity="0.0" stroke="rgb(0,0,0)" stroke-width="1.6" fill="rgb(0,0,0)" stroke-linecap="butt" stroke-miterlimit="10.0"><path d="M 299.8832,341.5315 c 0.0000,-27.5605 -22.3422,-49.9027 -49.9027 -49.9027c -27.5605,-0.0000 -49.9027,22.3422 -49.9027 49.9027c -0.0000,27.5605 22.3422,49.9027 49.9027 49.9027c 27.5605,0.0000 49.9027,-22.3422 49.9027 -49.9027Z"/></g><g stroke-linejoin="miter" stroke-opacity="1.0" fill-opacity="0.0" stroke="rgb(0,0,0)" stroke-width="1.6" fill="rgb(0,0,0)" stroke-linecap="butt" stroke-miterlimit="10.0"><path d="M 80.9704,75.4672 c 0.0000,-1.8767 -1.5214,-3.3981 -3.3981 -3.3981c -1.8767,-0.0000 -3.3981,1.5214 -3.3981 3.3981c -0.0000,1.8767 1.5214,3.3981 3.3981 3.3981c 1.8767,0.0000 3.3981,-1.5214 3.3981 -3.3981Z"/></g><g stroke-linejoin="miter" stroke-opacity="1.0" fill-opacity="0.0" stroke="rgb(0,0,0)" stroke-width="1.6" fill="rgb(0,0,0)" stroke-linecap="butt" stroke-miterlimit="10.0"><path d="M 51.2281,72.9080 c 0.0000,-1.3575 -1.1005,-2.4580 -2.4580 -2.4580c -1.3575,-0.0000 -2.4580,1.1005 -2.4580 2.4580c -0.0000,1.3575 1.1005,2.4580 2.4580 2.4580c 1.3575,0.0000 2.4580,-1.1005 2.4580 -2.4580Z"/></g><g stroke-linejoin="miter" stroke-opacity="1.0" fill-opacity="0.0" stroke="rgb(0,0,0)" stroke-width="1.6" fill="rgb(0,0,0)" stroke-linecap="butt" stroke-miterlimit="10.0"><path d="M 59.3165,69.2358 c 0.0000,-2.5199 -2.0428,-4.5627 -4.5627 -4.5627c -2.5199,-0.0000 -4.5627,2.0428 -4.5627 4.5627c -0.0000,2.5199 2.0428,4.5627 4.5627 4.5627c 2.5199,0.0000 4.5627,-2.0428 4.5627 -4.5627Z"/></g><g stroke-linejoin="miter" stroke-opacity="1.0" fill-opacity="0.0" stroke="rgb(0,0,0)" stroke-width="1.6" fill="rgb(0,0,0)" stroke-linecap="butt" stroke-miterlimit="10.0"><path d="M 86.6792,41.8425 c 0.0000,-1.8901 -1.5322,-3.4223 -3.4223 -3.4223c -1.8901,-0.0000 -3.4223,1.5322 -3.4223 3.4223c -0.0000,1.8901 1.5322,3.4223 3.4223 3.4223c 1.8901,0.0000 3.4223,-1.5322 3.4223 -3.4223Z"/></g><g stroke-linejoin="miter" stroke-opacity="1.0" fill-opacity="0.0" stroke="rgb(0,0,0)" stroke-width="1.6" fill="rgb(0,0,0)" stroke-linecap="butt" stroke-miterlimit="10.0"><path d="M 83.3393,49.0183 c 0.0000,-3.1348 -2.5413,-5.6761 -5.6761 -5.6761c -3.1348,-0.0000 -5.6761,2.5413 -5.6761 5.6761c -0.0000,3.1348 2.5413,5.6761 5.6761 5.6761c 3.1348,0.0000 5.6761,-2.5413 5.6761 -5.6761Z"/></g><g stroke-linejoin="miter" stroke-opacity="1.0" fill-opacity="0.0" stroke="rgb(0,0,0)" stroke-width="1.6" fill="rgb(0,0,0)" stroke-linecap="butt" stroke-miterlimit="10.0"><path d="M 80.4151,63.5596 c 0.0000,-6.1206 -4.9617,-11.0823 -11.0823 -11.0823c -6.1206,-0.0000 -11.0823,4.9617 -11.0823 11.0823c -0.0000,6.1206 4.9617,11.0823 11.0823 11.0823c 6.1206,0.0000 11.0823,-4.9617 11.0823 -11.0823Z"/></g><g stroke-linejoin="miter" stroke-opacity="1.0" fill-opacity="0.0" stroke="rgb(0,0,0)" stroke-width="1.6" fill="rgb(0,0,0)" stroke-linecap="butt" stroke-miterlimit="10.0"><path d="M 94.2233,102.7738 c 0.0000,-1.5248 -1.2361,-2.7609 -2.7609 -2.7609c -1.5248,-0.0000 -2.7609,1.2361 -2.7609 2.7609c -0.0000,1.5248 1.2361,2.7609 2.7609 2.7609c 1.5248,0.0000 2.7609,-1.2361 2.7609 -2.7609Z"/></g><g stroke-linejoin="miter" stroke-opacity="1.0" fill-opacity="0.0" stroke="rgb(0,0,0)" stroke-width="1.6" fill="rgb(0,0,0)" stroke-linecap="butt" stroke-miterlimit="10.0"><path d="M 89.9215,119.5724 c 0.0000,-1.6847 -1.3657,-3.0504 -3.0504 -3.0504c -1.6847,-0.0000 -3.0504,1.3657 -3.0504 3.0504c -0.0000,1.6847 1.3657,3.0504 3.0504 3.0504c 1.6847,0.0000 3.0504,-1.3657 3.0504 -3.0504Z"/></g><g stroke-linejoin="miter" stroke-opacity="1.0" fill-opacity="0.0" stroke="rgb(0,0,0)" stroke-width="1.6" fill="rgb(0,0,0)" stroke-linecap="butt" stroke-miterlimit="10.0"><path d="M 109.3992,114.6649 c 0.0000,-1.9389 -1.5718,-3.5108 -3.5108 -3.5108c -1.9389,-0.0000 -3.5108,1.5718 -3.5108 3.5108c -0.0000,1.9389 1.5718,3.5108 3.5108 3.5108c 1.9389,0.0000 3.5108,-1.5718 3.5108 -3.5108Z"/></g><g stroke-linejoin="miter" stroke-opacity="1.0" fill-opacity="0.0" stroke="rgb(0,0,0)" stroke-width="1.6" fill="rgb(0,0,0)" stroke-linecap="butt" stroke-miterlimit="10.0"><path d="M 102.5763,112.5699 c 0.0000,-4.2165 -3.4181,-7.6346 -7.6346 -7.6346c -4.2165,-0.0000 -7.6346,3.4181 -7.6346 7.6346c -0.0000,4.2165 3.4181,7.6346 7.6346 7.6346c 4.2165,0.0000 7.6346,-3.4181 7.6346 -7.6346Z"/></g><g stroke-linejoin="miter" stroke-opacity="1.0" fill-opacity="0.0" stroke="rgb(0,0,0)" stroke-width="1.6" fill="rgb(0,0,0)" stroke-linecap="butt" stroke-miterlimit="10.0"><path d="M 22.1704,119.7214 c 0.0000,-1.4120 -1.1447,-2.5567 -2.5567 -2.5567c -1.4120,-0.0000 -2.5567,1.1447 -2.5567 2.5567c -0.0000,1.4120 1.1447,2.5567 2.5567 2.5567c 1.4120,0.0000 2.5567,-1.1447 2.5567 -2.5567Z"/></g><g stroke-linejoin="miter" stroke-opacity="1.0" fill-opacity="0.0" stroke="rgb(0,0,0)" stroke-width="1.6" fill="rgb(0,0,0)" stroke-linecap="butt" stroke-miterlimit="10.0"><path d="M 30.5984,104.9142 c 0.0000,-1.6908 -1.3706,-3.0614 -3.0614 -3.0614c -1.6908,-0.0000 -3.0614,1.3706 -3.0614 3.0614c -0.0000,1.6908 1.3706,3.0614 3.0614 3.0614c 1.6908,0.0000 3.0614,-1.3706 3.0614 -3.0614Z"/></g><g stroke-linejoin="miter" stroke-opacity="1.0" fill-opacity="0.0" stroke="rgb(0,0,0)" stroke-width="1.6" fill="rgb(0,0,0)" stroke-linecap="butt" stroke-miterlimit="10.0"><path d="M 32.4460,114.0654 c 0.0000,-3.4116 -2.7656,-6.1772 -6.1772 -6.1772c -3.4116,-0.0000 -6.1772,2.7656 -6.1772 6.1772c -0.0000,3.4116 2.7656,6.1772 6.1772 6.1772c 3.4116,0.0000 6.1772,-2.7656 6.1772 -6.1772Z"/></g><g stroke-linejoin="miter" stroke-opacity="1.0" fill-opacity="0.0" stroke="rgb(0,0,0)" stroke-width="1.6" fill="rgb(0,0,0)" stroke-linecap="butt" stroke-miterlimit="10.0"><path d="M 56.4172,135.5893 c 0.0000,-2.7255 -2.2095,-4.9350 -4.9350 -4.9350c -2.7255,-0.0000 -4.9350,2.2095 -4.9350 4.9350c -0.0000,2.7255 2.2095,4.9350 4.9350 4.9350c 2.7255,0.0000 4.9350,-2.2095 4.9350 -4.9350Z"/></g><g stroke-linejoin="miter" stroke-opacity="1.0" fill-opacity="0.0" stroke="rgb(0,0,0)" stroke-width="1.6" fill="rgb(0,0,0)" stroke-linecap="butt" stroke-miterlimit="10.0"><path d="M 14.2162,149.5849 c 0.0000,-2.1064 -1.7075,-3.8139 -3.8139 -3.8139c -2.1064,-0.0000 -3.8139,1.7075 -3.8139 3.8139c -0.0000,2.1064 1.7075,3.8139 3.8139 3.8139c 2.1064,0.0000 3.8139,-1.7075 3.8139 -3.8139Z"/></g><g stroke-linejoin="miter" stroke-opacity="1.0" fill-opacity="0.0" stroke="rgb(0,0,0)" stroke-width="1.6" fill="rgb(0,0,0)" stroke-linecap="butt" stroke-miterlimit="10.0"><path d="M 32.7020,159.2042 c 0.0000,-1.8231 -1.4779,-3.3009 -3.3009 -3.3009c -1.8231,-0.0000 -3.3009,1.4779 -3.3009 3.3009c -0.0000,1.8231 1.4779,3.3009 3.3009 3.3009c 1.8231,0.0000 3.3009,-1.4779 3.3009 -3.3009Z"/></g><g stroke-linejoin="miter" stroke-opacity="1.0" fill-opacity="0.0" stroke="rgb(0,0,0)" stroke-width="1.6" fill="rgb(0,0,0)" stroke-linecap="butt" stroke-miterlimit="10.0"><path d="M 6.8536,173.8400 c 0.0000,-1.4119 -1.1446,-2.5564 -2.5564 -2.5564c -1.4119,-0.0000 -2.5564,1.1446 -2.5564 2.5564c -0.0000,1.4119 1.1446,2.5564 2.5564 2.5564c 1.4119,0.0000 2.5564,-1.1446 2.5564 -2.5564Z"/></g><g stroke-linejoin="miter" stroke-opacity="1.0" fill-opacity="0.0" stroke="rgb(0,0,0)" stroke-width="1.6" fill="rgb(0,0,0)" stroke-linecap="butt" stroke-miterlimit="10.0"><path d="M 7.0517,228.9791 c 0.0000,-1.3571 -1.1002,-2.4573 -2.4573 -2.4573c -1.3571,-0.0000 -2.4573,1.1002 -2.4573 2.4573c -0.0000,1.3571 1.1002,2.4573 2.4573 2.4573c 1.3571,0.0000 2.4573,-1.1002 2.4573 -2.4573Z"/></g><g stroke-linejoin="miter" stroke-opacity="1.0" fill-opacity="0.0" stroke="rgb(0,0,0)" stroke-width="1.6" fill="rgb(0,0,0)" stroke-linecap="butt" stroke-miterlimit="10.0"><path d="M 7.3764,223.5431 c 0.0000,-1.6471 -1.3352,-2.9824 -2.9824 -2.9824c -1.6471,-0.0000 -2.9824,1.3352 -2.9824 2.9824c -0.0000,1.6471 1.3352,2.9824 2.9824 2.9824c 1.6471,0.0000 2.9824,-1.3352 2.9824 -2.9824Z"/></g><g stroke-linejoin="miter" stroke-opacity="1.0" fill-opacity="0.0" stroke="rgb(0,0,0)" stroke-width="1.6" fill="rgb(0,0,0)" stroke-linecap="butt" stroke-miterlimit="10.0"><path d="M 8.1111,216.8683 c 0.0000,-2.0393 -1.6532,-3.6925 -3.6925 -3.6925c -2.0393,-0.0000 -3.6925,1.6532 -3.6925 3.6925c -0.0000,2.0393 1.6532,3.6925 3.6925 3.6925c 2.0393,0.0000 3.6925,-1.6532 3.6925 -3.6925Z"/></g><g stroke-linejoin="miter" stroke-opacity="1.0" fill-opacity="0.0" stroke="rgb(0,0,0)" stroke-width="1.6" fill="rgb(0,0,0)" stroke-linecap="butt" stroke-miterlimit="10.0"><path d="M 9.5530,208.5041 c 0.0000,-2.5868 -2.0970,-4.6839 -4.6839 -4.6839c -2.5868,-0.0000 -4.6839,2.0970 -4.6839 4.6839c -0.0000,2.5868 2.0970,4.6839 4.6839 4.6839c 2.5868,0.0000 4.6839,-2.0970 4.6839 -4.6839Z"/></g><g stroke-linejoin="miter" stroke-opacity="1.0" fill-opacity="0.0" stroke="rgb(0,0,0)" stroke-width="1.6" fill="rgb(0,0,0)" stroke-linecap="butt" stroke-miterlimit="10.0"><path d="M 12.2570,197.7725 c 0.0000,-3.3812 -2.7410,-6.1221 -6.1221 -6.1221c -3.3812,-0.0000 -6.1221,2.7410 -6.1221 6.1221c -0.0000,3.3812 2.7410,6.1221 6.1221 6.1221c 3.3812,0.0000 6.1221,-2.7410 6.1221 -6.1221Z"/></g><g stroke-linejoin="miter" stroke-opacity="1.0" fill-opacity="0.0" stroke="rgb(0,0,0)" stroke-width="1.6" fill="rgb(0,0,0)" stroke-linecap="butt" stroke-miterlimit="10.0"><path d="M 17.3183,183.6305 c 0.0000,-4.5889 -3.7201,-8.3090 -8.3090 -8.3090c -4.5889,-0.0000 -8.3090,3.7201 -8.3090 8.3090c -0.0000,4.5889 3.7201,8.3090 8.3090 8.3090c 4.5889,0.0000 8.3090,-3.7201 8.3090 -8.3090Z"/></g><g stroke-linejoin="miter" stroke-opacity="1.0" fill-opacity="0.0" stroke="rgb(0,0,0)" stroke-width="1.6" fill="rgb(0,0,0)" stroke-linecap="butt" stroke-miterlimit="10.0"><path d="M 27.0462,164.4708 c 0.0000,-6.5340 -5.2968,-11.8308 -11.8308 -11.8308c -6.5340,-0.0000 -11.8308,5.2968 -11.8308 11.8308c -0.0000,6.5340 5.2968,11.8308 11.8308 11.8308c 6.5340,0.0000 11.8308,-5.2968 11.8308 -11.8308Z"/></g><g stroke-linejoin="miter" stroke-opacity="1.0" fill-opacity="0.0" stroke="rgb(0,0,0)" stroke-width="1.6" fill="rgb(0,0,0)" stroke-linecap="butt" stroke-miterlimit="10.0"><path d="M 46.6760,138.0121 c 0.0000,-9.8861 -8.0143,-17.9004 -17.9004 -17.9004c -9.8861,-0.0000 -17.9004,8.0143 -17.9004 17.9004c -0.0000,9.8861 8.0143,17.9004 17.9004 17.9004c 9.8861,0.0000 17.9004,-8.0143 17.9004 -17.9004Z"/></g><g stroke-linejoin="miter" stroke-opacity="1.0" fill-opacity="0.0" stroke="rgb(0,0,0)" stroke-width="1.6" fill="rgb(0,0,0)" stroke-linecap="butt" stroke-miterlimit="10.0"><path d="M 88.7023,102.5426 c 0.0000,-16.0691 -13.0266,-29.0957 -29.0957 -29.0957c -16.0691,-0.0000 -29.0957,13.0266 -29.0957 29.0957c -0.0000,16.0691 13.0266,29.0957 29.0957 29.0957c 16.0691,0.0000 29.0957,-13.0266 29.0957 -29.0957Z"/></g><g stroke-linejoin="miter" stroke-opacity="1.0" fill-opacity="0.0" stroke="rgb(0,0,0)" stroke-width="1.6" fill="rgb(0,0,0)" stroke-linecap="butt" stroke-miterlimit="10.0"><path d="M 163.9555,24.5363 c 0.0000,-1.5217 -1.2336,-2.7552 -2.7552 -2.7552c -1.5217,-0.0000 -2.7552,1.2336 -2.7552 2.7552c -0.0000,1.5217 1.2336,2.7552 2.7552 2.7552c 1.5217,0.0000 2.7552,-1.2336 2.7552 -2.7552Z"/></g><g stroke-linejoin="miter" stroke-opacity="1.0" fill-opacity="0.0" stroke="rgb(0,0,0)" stroke-width="1.6" fill="rgb(0,0,0)" stroke-linecap="butt" stroke-miterlimit="10.0"><path d="M 169.1244,6.4995 c 0.0000,-1.9188 -1.5555,-3.4743 -3.4743 -3.4743c -1.9188,-0.0000 -3.4743,1.5555 -3.4743 3.4743c -0.0000,1.9188 1.5555,3.4743 3.4743 3.4743c 1.9188,0.0000 3.4743,-1.5555 3.4743 -3.4743Z"/></g><g stroke-linejoin="miter" stroke-opacity="1.0" fill-opacity="0.0" stroke="rgb(0,0,0)" stroke-width="1.6" fill="rgb(0,0,0)" stroke-linecap="butt" stroke-miterlimit="10.0"><path d="M 137.2249,14.3373 c 0.0000,-1.6694 -1.3534,-3.0228 -3.0228 -3.0228c -1.6694,-0.0000 -3.0228,1.3534 -3.0228 3.0228c -0.0000,1.6694 1.3534,3.0228 3.0228 3.0228c 1.6694,0.0000 3.0228,-1.3534 3.0228 -3.0228Z"/></g><g stroke-linejoin="miter" stroke-opacity="1.0" fill-opacity="0.0" stroke="rgb(0,0,0)" stroke-width="1.6" fill="rgb(0,0,0)" stroke-linecap="butt" stroke-miterlimit="10.0"><path d="M 146.8937,13.6537 c 0.0000,-2.6782 -2.1711,-4.8493 -4.8493 -4.8493c -2.6782,-0.0000 -4.8493,2.1711 -4.8493 4.8493c -0.0000,2.6782 2.1711,4.8493 4.8493 4.8493c 2.6782,0.0000 4.8493,-2.1711 4.8493 -4.8493Z"/></g><g stroke-linejoin="miter" stroke-opacity="1.0" fill-opacity="0.0" stroke="rgb(0,0,0)" stroke-width="1.6" fill="rgb(0,0,0)" stroke-linecap="butt" stroke-miterlimit="10.0"><path d="M 164.7922,14.1274 c 0.0000,-4.9448 -4.0085,-8.9533 -8.9533 -8.9533c -4.9448,-0.0000 -8.9533,4.0085 -8.9533 8.9533c -0.0000,4.9448 4.0085,8.9533 8.9533 8.9533c 4.9448,0.0000 8.9533,-4.0085 8.9533 -8.9533Z"/></g><g stroke-linejoin="miter" stroke-opacity="1.0" fill-opacity="0.0" stroke="rgb(0,0,0)" stroke-width="1.6" fill="rgb(0,0,0)" stroke-linecap="butt" stroke-miterlimit="10.0"><path d="M 185.0183,57.8134 c 0.0000,-1.5815 -1.2821,-2.8636 -2.8636 -2.8636c -1.5815,-0.0000 -2.8636,1.2821 -2.8636 2.8636c -0.0000,1.5815 1.2821,2.8636 2.8636 2.8636c 1.5815,0.0000 2.8636,-1.2821 2.8636 -2.8636Z"/></g><g stroke-linejoin="miter" stroke-opacity="1.0" fill-opacity="0.0" stroke="rgb(0,0,0)" stroke-width="1.6" fill="rgb(0,0,0)" stroke-linecap="butt" stroke-miterlimit="10.0"><path d="M 189.1870,48.9550 c 0.0000,-3.3409 -2.7083,-6.0492 -6.0492 -6.0492c -3.3409,-0.0000 -6.0492,2.7083 -6.0492 6.0492c -0.0000,3.3409 2.7083,6.0492 6.0492 6.0492c 3.3409,0.0000 6.0492,-2.7083 6.0492 -6.0492Z"/></g><g stroke-linejoin="miter" stroke-opacity="1.0" fill-opacity="0.0" stroke="rgb(0,0,0)" stroke-width="1.6" fill="rgb(0,0,0)" stroke-linecap="butt" stroke-miterlimit="10.0"><path d="M 206.6670,3.9868 c 0.0000,-2.1916 -1.7766,-3.9682 -3.9682 -3.9682c -2.1916,-0.0000 -3.9682,1.7766 -3.9682 3.9682c -0.0000,2.1916 1.7766,3.9682 3.9682 3.9682c 2.1916,0.0000 3.9682,-1.7766 3.9682 -3.9682Z"/></g><g stroke-linejoin="miter" stroke-opacity="1.0" fill-opacity="0.0" stroke="rgb(0,0,0)" stroke-width="1.6" fill="rgb(0,0,0)" stroke-linecap="butt" stroke-miterlimit="10.0"><path d="M 212.5153,24.6042 c 0.0000,-1.8071 -1.4649,-3.2720 -3.2720 -3.2720c -1.8071,-0.0000 -3.2720,1.4649 -3.2720 3.2720c -0.0000,1.8071 1.4649,3.2720 3.2720 3.2720c 1.8071,0.0000 3.2720,-1.4649 3.2720 -3.2720Z"/></g><g stroke-linejoin="miter" stroke-opacity="1.0" fill-opacity="0.0" stroke="rgb(0,0,0)" stroke-width="1.6" fill="rgb(0,0,0)" stroke-linecap="butt" stroke-miterlimit="10.0"><path d="M 260.0248,10.9771 c 0.0000,-1.3166 -1.0673,-2.3839 -2.3839 -2.3839c -1.3166,-0.0000 -2.3839,1.0673 -2.3839 2.3839c -0.0000,1.3166 1.0673,2.3839 2.3839 2.3839c 1.3166,0.0000 2.3839,-1.0673 2.3839 -2.3839Z"/></g><g stroke-linejoin="miter" stroke-opacity="1.0" fill-opacity="0.0" stroke="rgb(0,0,0)" stroke-width="1.6" fill="rgb(0,0,0)" stroke-linecap="butt" stroke-miterlimit="10.0"><path d="M 255.3092,10.2161 c 0.0000,-1.7615 -1.4279,-3.1894 -3.1894 -3.1894c -1.7615,-0.0000 -3.1894,1.4279 -3.1894 3.1894c -0.0000,1.7615 1.4279,3.1894 3.1894 3.1894c 1.7615,0.0000 3.1894,-1.4279 3.1894 -3.1894Z"/></g><g stroke-linejoin="miter" stroke-opacity="1.0" fill-opacity="0.0" stroke="rgb(0,0,0)" stroke-width="1.6" fill="rgb(0,0,0)" stroke-linecap="butt" stroke-miterlimit="10.0"><path d="M 248.9549,9.6035 c 0.0000,-2.4728 -2.0046,-4.4774 -4.4774 -4.4774c -2.4728,-0.0000 -4.4774,2.0046 -4.4774 4.4774c -0.0000,2.4728 2.0046,4.4774 4.4774 4.4774c 2.4728,0.0000 4.4774,-2.0046 4.4774 -4.4774Z"/></g><g stroke-linejoin="miter" stroke-opacity="1.0" fill-opacity="0.0" stroke="rgb(0,0,0)" stroke-width="1.6" fill="rgb(0,0,0)" stroke-linecap="butt" stroke-miterlimit="10.0"><path d="M 240.0000,9.6035 c 0.0000,-3.7092 -3.0069,-6.7162 -6.7162 -6.7162c -3.7092,-0.0000 -6.7162,3.0069 -6.7162 6.7162c -0.0000,3.7092 3.0069,6.7162 6.7162 6.7162c 3.7092,0.0000 6.7162,-3.0069 6.7162 -6.7162Z"/></g><g stroke-linejoin="miter" stroke-opacity="1.0" fill-opacity="0.0" stroke="rgb(0,0,0)" stroke-width="1.6" fill="rgb(0,0,0)" stroke-linecap="butt" stroke-miterlimit="10.0"><path d="M 226.6955,11.7330 c 0.0000,-6.1232 -4.9639,-11.0871 -11.0871 -11.0871c -6.1232,-0.0000 -11.0871,4.9639 -11.0871 11.0871c -0.0000,6.1232 4.9639,11.0871 11.0871 11.0871c 6.1232,0.0000 11.0871,-4.9639 11.0871 -11.0871Z"/></g><g stroke-linejoin="miter" stroke-opacity="1.0" fill-opacity="0.0" stroke="rgb(0,0,0)" stroke-width="1.6" fill="rgb(0,0,0)" stroke-linecap="butt" stroke-miterlimit="10.0"><path d="M 206.1327,21.8002 c 0.0000,-11.6903 -9.4768,-21.1671 -21.1671 -21.1671c -11.6903,-0.0000 -21.1671,9.4768 -21.1671 21.1671c -0.0000,11.6903 9.4768,21.1671 21.1671 21.1671c 11.6903,0.0000 21.1671,-9.4768 21.1671 -21.1671Z"/></g><g stroke-linejoin="miter" stroke-opacity="1.0" fill-opacity="0.0" stroke="rgb(0,0,0)" stroke-width="1.6" fill="rgb(0,0,0)" stroke-linecap="butt" stroke-miterlimit="10.0"><path d="M 149.2582,116.7506 c 0.0000,-1.3472 -1.0921,-2.4393 -2.4393 -2.4393c -1.3472,-0.0000 -2.4393,1.0921 -2.4393 2.4393c -0.0000,1.3472 1.0921,2.4393 2.4393 2.4393c 1.3472,0.0000 2.4393,-1.0921 2.4393 -2.4393Z"/></g><g stroke-linejoin="miter" stroke-opacity="1.0" fill-opacity="0.0" stroke="rgb(0,0,0)" stroke-width="1.6" fill="rgb(0,0,0)" stroke-linecap="butt" stroke-miterlimit="10.0"><path d="M 158.3122,116.1912 c 0.0000,-2.5064 -2.0318,-4.5382 -4.5382 -4.5382c -2.5064,-0.0000 -4.5382,2.0318 -4.5382 4.5382c -0.0000,2.5064 2.0318,4.5382 4.5382 4.5382c 2.5064,0.0000 4.5382,-2.0318 4.5382 -4.5382Z"/></g><g stroke-linejoin="miter" stroke-opacity="1.0" fill-opacity="0.0" stroke="rgb(0,0,0)" stroke-width="1.6" fill="rgb(0,0,0)" stroke-linecap="butt" stroke-miterlimit="10.0"><path d="M 178.2570,99.0822 c 0.0000,-2.3680 -1.9197,-4.2877 -4.2877 -4.2877c -2.3680,-0.0000 -4.2877,1.9197 -4.2877 4.2877c -0.0000,2.3680 1.9197,4.2877 4.2877 4.2877c 2.3680,0.0000 4.2877,-1.9197 4.2877 -4.2877Z"/></g><g stroke-linejoin="miter" stroke-opacity="1.0" fill-opacity="0.0" stroke="rgb(0,0,0)" stroke-width="1.6" fill="rgb(0,0,0)" stroke-linecap="butt" stroke-miterlimit="10.0"><path d="M 188.9555,131.7990 c 0.0000,-1.5662 -1.2696,-2.8358 -2.8358 -2.8358c -1.5662,-0.0000 -2.8358,1.2696 -2.8358 2.8358c -0.0000,1.5662 1.2696,2.8358 2.8358 2.8358c 1.5662,0.0000 2.8358,-1.2696 2.8358 -2.8358Z"/></g><g stroke-linejoin="miter" stroke-opacity="1.0" fill-opacity="0.0" stroke="rgb(0,0,0)" stroke-width="1.6" fill="rgb(0,0,0)" stroke-linecap="butt" stroke-miterlimit="10.0"><path d="M 185.6893,126.1378 c 0.0000,-2.7773 -2.2515,-5.0288 -5.0288 -5.0288c -2.7773,-0.0000 -5.0288,2.2515 -5.0288 5.0288c -0.0000,2.7773 2.2515,5.0288 5.0288 5.0288c 2.7773,0.0000 5.0288,-2.2515 5.0288 -5.0288Z"/></g><g stroke-linejoin="miter" stroke-opacity="1.0" fill-opacity="0.0" stroke="rgb(0,0,0)" stroke-width="1.6" fill="rgb(0,0,0)" stroke-linecap="butt" stroke-miterlimit="10.0"><path d="M 180.9030,114.0944 c 0.0000,-6.2766 -5.0882,-11.3648 -11.3648 -11.3648c -6.2766,-0.0000 -11.3648,5.0882 -11.3648 11.3648c -0.0000,6.2766 5.0882,11.3648 11.3648 11.3648c 6.2766,0.0000 11.3648,-5.0882 11.3648 -11.3648Z"/></g><g stroke-linejoin="miter" stroke-opacity="1.0" fill-opacity="0.0" stroke="rgb(0,0,0)" stroke-width="1.6" fill="rgb(0,0,0)" stroke-linecap="butt" stroke-miterlimit="10.0"><path d="M 180.1168,67.1123 c 0.0000,-27.5605 -22.3422,-49.9027 -49.9027 -49.9027c -27.5605,-0.0000 -49.9027,22.3422 -49.9027 49.9027c -0.0000,27.5605 22.3422,49.9027 49.9027 49.9027c 27.5605,0.0000 49.9027,-22.3422 49.9027 -49.9027Z"/></g><g stroke-linejoin="miter" stroke-opacity="1.0" fill-opacity="0.0" stroke="rgb(0,0,0)" stroke-width="1.6" fill="rgb(0,0,0)" stroke-linecap="butt" stroke-miterlimit="10.0"><path d="M 390.6490,140.0067 c 0.0000,-1.5878 -1.2872,-2.8750 -2.8750 -2.8750c -1.5878,-0.0000 -2.8750,1.2872 -2.8750 2.8750c -0.0000,1.5878 1.2872,2.8750 2.8750 2.8750c 1.5878,0.0000 2.8750,-1.2872 2.8750 -2.8750Z"/></g><g stroke-linejoin="miter" stroke-opacity="1.0" fill-opacity="0.0" stroke="rgb(0,0,0)" stroke-width="1.6" fill="rgb(0,0,0)" stroke-linecap="butt" stroke-miterlimit="10.0"><path d="M 393.0348,148.4217 c 0.0000,-3.0623 -2.4825,-5.5447 -5.5447 -5.5447c -3.0623,-0.0000 -5.5447,2.4825 -5.5447 5.5447c -0.0000,3.0623 2.4825,5.5447 5.5447 5.5447c 3.0623,0.0000 5.5447,-2.4825 5.5447 -5.5447Z"/></g><g stroke-linejoin="miter" stroke-opacity="1.0" fill-opacity="0.0" stroke="rgb(0,0,0)" stroke-width="1.6" fill="rgb(0,0,0)" stroke-linecap="butt" stroke-miterlimit="10.0"><path d="M 368.2201,165.7546 c 0.0000,-2.3605 -1.9135,-4.2740 -4.2740 -4.2740c -2.3605,-0.0000 -4.2740,1.9135 -4.2740 4.2740c -0.0000,2.3605 1.9135,4.2740 4.2740 4.2740c 2.3605,0.0000 4.2740,-1.9135 4.2740 -4.2740Z"/></g><g stroke-linejoin="miter" stroke-opacity="1.0" fill-opacity="0.0" stroke="rgb(0,0,0)" stroke-width="1.6" fill="rgb(0,0,0)" stroke-linecap="butt" stroke-miterlimit="10.0"><path d="M 398.8761,178.9773 c 0.0000,-1.5558 -1.2612,-2.8170 -2.8170 -2.8170c -1.5558,-0.0000 -2.8170,1.2612 -2.8170 2.8170c -0.0000,1.5558 1.2612,2.8170 2.8170 2.8170c 1.5558,0.0000 2.8170,-1.2612 2.8170 -2.8170Z"/></g><g stroke-linejoin="miter" stroke-opacity="1.0" fill-opacity="0.0" stroke="rgb(0,0,0)" stroke-width="1.6" fill="rgb(0,0,0)" stroke-linecap="butt" stroke-miterlimit="10.0"><path d="M 383.9007,184.8924 c 0.0000,-1.3516 -1.0957,-2.4473 -2.4473 -2.4473c -1.3516,-0.0000 -2.4473,1.0957 -2.4473 2.4473c -0.0000,1.3516 1.0957,2.4473 2.4473 2.4473c 1.3516,0.0000 2.4473,-1.0957 2.4473 -2.4473Z"/></g><g stroke-linejoin="miter" stroke-opacity="1.0" fill-opacity="0.0" stroke="rgb(0,0,0)" stroke-width="1.6" fill="rgb(0,0,0)" stroke-linecap="butt" stroke-miterlimit="10.0"><path d="M 399.2099,217.6395 c 0.0000,-1.4954 -1.2123,-2.7077 -2.7077 -2.7077c -1.4954,-0.0000 -2.7077,1.2123 -2.7077 2.7077c -0.0000,1.4954 1.2123,2.7077 2.7077 2.7077c 1.4954,0.0000 2.7077,-1.2123 2.7077 -2.7077Z"/></g><g stroke-linejoin="miter" stroke-opacity="1.0" fill-opacity="0.0" stroke="rgb(0,0,0)" stroke-width="1.6" fill="rgb(0,0,0)" stroke-linecap="butt" stroke-miterlimit="10.0"><path d="M 399.6770,211.2569 c 0.0000,-2.0414 -1.6549,-3.6962 -3.6962 -3.6962c -2.0414,-0.0000 -3.6962,1.6549 -3.6962 3.6962c -0.0000,2.0414 1.6549,3.6962 3.6962 3.6962c 2.0414,0.0000 3.6962,-1.6549 3.6962 -3.6962Z"/></g><g stroke-linejoin="miter" stroke-opacity="1.0" fill-opacity="0.0" stroke="rgb(0,0,0)" stroke-width="1.6" fill="rgb(0,0,0)" stroke-linecap="butt" stroke-miterlimit="10.0"><path d="M 399.9861,202.3259 c 0.0000,-2.9453 -2.3876,-5.3329 -5.3329 -5.3329c -2.9453,-0.0000 -5.3329,2.3876 -5.3329 5.3329c -0.0000,2.9453 2.3876,5.3329 5.3329 5.3329c 2.9453,0.0000 5.3329,-2.3876 5.3329 -5.3329Z"/></g><g stroke-linejoin="miter" stroke-opacity="1.0" fill-opacity="0.0" stroke="rgb(0,0,0)" stroke-width="1.6" fill="rgb(0,0,0)" stroke-linecap="butt" stroke-miterlimit="10.0"><path d="M 399.6885,189.0764 c 0.0000,-4.5934 -3.7237,-8.3171 -8.3171 -8.3171c -4.5934,-0.0000 -8.3171,3.7237 -8.3171 8.3171c -0.0000,4.5934 3.7237,8.3171 8.3171 8.3171c 4.5934,0.0000 8.3171,-3.7237 8.3171 -8.3171Z"/></g><g stroke-linejoin="miter" stroke-opacity="1.0" fill-opacity="0.0" stroke="rgb(0,0,0)" stroke-width="1.6" fill="rgb(0,0,0)" stroke-linecap="butt" stroke-miterlimit="10.0"><path d="M 397.2061,167.9311 c 0.0000,-8.0391 -6.5170,-14.5561 -14.5561 -14.5561c -8.0391,-0.0000 -14.5561,6.5170 -14.5561 14.5561c -0.0000,8.0391 6.5170,14.5561 14.5561 14.5561c 8.0391,0.0000 14.5561,-6.5170 14.5561 -14.5561Z"/></g><g stroke-linejoin="miter" stroke-opacity="1.0" fill-opacity="0.0" stroke="rgb(0,0,0)" stroke-width="1.6" fill="rgb(0,0,0)" stroke-linecap="butt" stroke-miterlimit="10.0"><path d="M 374.5491,103.1172 c 0.0000,-1.5878 -1.2872,-2.8750 -2.8750 -2.8750c -1.5878,-0.0000 -2.8750,1.2872 -2.8750 2.8750c -0.0000,1.5878 1.2872,2.8750 2.8750 2.8750c 1.5878,0.0000 2.8750,-1.2872 2.8750 -2.8750Z"/></g><g stroke-linejoin="miter" stroke-opacity="1.0" fill-opacity="0.0" stroke="rgb(0,0,0)" stroke-width="1.6" fill="rgb(0,0,0)" stroke-linecap="butt" stroke-miterlimit="10.0"><path d="M 370.8558,97.6033 c 0.0000,-3.0623 -2.4825,-5.5447 -5.5447 -5.5447c -3.0623,-0.0000 -5.5447,2.4825 -5.5447 5.5447c -0.0000,3.0623 2.4825,5.5447 5.5447 5.5447c 3.0623,0.0000 5.5447,-2.4825 5.5447 -5.5447Z"/></g><g stroke-linejoin="miter" stroke-opacity="1.0" fill-opacity="0.0" stroke="rgb(0,0,0)" stroke-width="1.6" fill="rgb(0,0,0)" stroke-linecap="butt" stroke-miterlimit="10.0"><path d="M 340.8665,103.0796 c 0.0000,-2.3605 -1.9135,-4.2740 -4.2740 -4.2740c -2.3605,-0.0000 -4.2740,1.9135 -4.2740 4.2740c -0.0000,2.3605 1.9135,4.2740 4.2740 4.2740c 2.3605,0.0000 4.2740,-1.9135 4.2740 -4.2740Z"/></g><g stroke-linejoin="miter" stroke-opacity="1.0" fill-opacity="0.0" stroke="rgb(0,0,0)" stroke-width="1.6" fill="rgb(0,0,0)" stroke-linecap="butt" stroke-miterlimit="10.0"><path d="M 351.5513,70.5425 c 0.0000,-1.5558 -1.2612,-2.8170 -2.8170 -2.8170c -1.5558,-0.0000 -2.8170,1.2612 -2.8170 2.8170c -0.0000,1.5558 1.2612,2.8170 2.8170 2.8170c 1.5558,0.0000 2.8170,-1.2612 2.8170 -2.8170Z"/></g><g stroke-linejoin="miter" stroke-opacity="1.0" fill-opacity="0.0" stroke="rgb(0,0,0)" stroke-width="1.6" fill="rgb(0,0,0)" stroke-linecap="butt" stroke-miterlimit="10.0"><path d="M 336.9127,77.2294 c 0.0000,-1.3516 -1.0957,-2.4473 -2.4473 -2.4473c -1.3516,-0.0000 -2.4473,1.0957 -2.4473 2.4473c -0.0000,1.3516 1.0957,2.4473 2.4473 2.4473c 1.3516,0.0000 2.4473,-1.0957 2.4473 -2.4473Z"/></g><g stroke-linejoin="miter" stroke-opacity="1.0" fill-opacity="0.0" stroke="rgb(0,0,0)" stroke-width="1.6" fill="rgb(0,0,0)" stroke-linecap="butt" stroke-miterlimit="10.0"><path d="M 323.3956,43.9273 c 0.0000,-1.4954 -1.2123,-2.7077 -2.7077 -2.7077c -1.4954,-0.0000 -2.7077,1.2123 -2.7077 2.7077c -0.0000,1.4954 1.2123,2.7077 2.7077 2.7077c 1.4954,0.0000 2.7077,-1.2123 2.7077 -2.7077Z"/></g><g stroke-linejoin="miter" stroke-opacity="1.0" fill-opacity="0.0" stroke="rgb(0,0,0)" stroke-width="1.6" fill="rgb(0,0,0)" stroke-linecap="butt" stroke-miterlimit="10.0"><path d="M 328.7094,48.6498 c 0.0000,-2.0414 -1.6549,-3.6962 -3.6962 -3.6962c -2.0414,-0.0000 -3.6962,1.6549 -3.6962 3.6962c -0.0000,2.0414 1.6549,3.6962 3.6962 3.6962c 2.0414,0.0000 3.6962,-1.6549 3.6962 -3.6962Z"/></g><g stroke-linejoin="miter" stroke-opacity="1.0" fill-opacity="0.0" stroke="rgb(0,0,0)" stroke-width="1.6" fill="rgb(0,0,0)" stroke-linecap="butt" stroke-miterlimit="10.0"><path d="M 335.9917,55.6963 c 0.0000,-2.9453 -2.3876,-5.3329 -5.3329 -5.3329c -2.9453,-0.0000 -5.3329,2.3876 -5.3329 5.3329c -0.0000,2.9453 2.3876,5.3329 5.3329 5.3329c 2.9453,0.0000 5.3329,-2.3876 5.3329 -5.3329Z"/></g><g stroke-linejoin="miter" stroke-opacity="1.0" fill-opacity="0.0" stroke="rgb(0,0,0)" stroke-width="1.6" fill="rgb(0,0,0)" stroke-linecap="butt" stroke-miterlimit="10.0"><path d="M 346.4590,67.1123 c 0.0000,-4.5934 -3.7237,-8.3171 -8.3171 -8.3171c -4.5934,-0.0000 -8.3171,3.7237 -8.3171 8.3171c -0.0000,4.5934 3.7237,8.3171 8.3171 8.3171c 4.5934,0.0000 8.3171,-3.7237 8.3171 -8.3171Z"/></g><g stroke-linejoin="miter" stroke-opacity="1.0" fill-opacity="0.0" stroke="rgb(0,0,0)" stroke-width="1.6" fill="rgb(0,0,0)" stroke-linecap="butt" stroke-miterlimit="10.0"><path d="M 362.2714,87.8857 c 0.0000,-8.0391 -6.5170,-14.5561 -14.5561 -14.5561c -8.0391,-0.0000 -14.5561,6.5170 -14.5561 14.5561c -0.0000,8.0391 6.5170,14.5561 14.5561 14.5561c 8.0391,0.0000 14.5561,-6.5170 14.5561 -14.5561Z"/></g><g stroke-linejoin="miter" stroke-opacity="1.0" fill-opacity="0.0" stroke="rgb(0,0,0)" stroke-width="1.6" fill="rgb(0,0,0)" stroke-linecap="butt" stroke-miterlimit="10.0"><path d="M 332.7810,153.5226 c 0.0000,-1.7081 -1.3846,-3.0927 -3.0927 -3.0927c -1.7081,-0.0000 -3.0927,1.3846 -3.0927 3.0927c -0.0000,1.7081 1.3846,3.0927 3.0927 3.0927c 1.7081,0.0000 3.0927,-1.3846 3.0927 -3.0927Z"/></g><g stroke-linejoin="miter" stroke-opacity="1.0" fill-opacity="0.0" stroke="rgb(0,0,0)" stroke-width="1.6" fill="rgb(0,0,0)" stroke-linecap="butt" stroke-miterlimit="10.0"><path d="M 325.3585,136.5156 c 0.0000,-1.7081 -1.3846,-3.0927 -3.0927 -3.0927c -1.7081,-0.0000 -3.0927,1.3846 -3.0927 3.0927c -0.0000,1.7081 1.3846,3.0927 3.0927 3.0927c 1.7081,0.0000 3.0927,-1.3846 3.0927 -3.0927Z"/></g><g stroke-linejoin="miter" stroke-opacity="1.0" fill-opacity="0.0" stroke="rgb(0,0,0)" stroke-width="1.6" fill="rgb(0,0,0)" stroke-linecap="butt" stroke-miterlimit="10.0"><path d="M 312.9414,152.3664 c 0.0000,-2.0981 -1.7009,-3.7990 -3.7990 -3.7990c -2.0981,-0.0000 -3.7990,1.7009 -3.7990 3.7990c -0.0000,2.0981 1.7009,3.7990 3.7990 3.7990c 2.0981,0.0000 3.7990,-1.7009 3.7990 -3.7990Z"/></g><g stroke-linejoin="miter" stroke-opacity="1.0" fill-opacity="0.0" stroke="rgb(0,0,0)" stroke-width="1.6" fill="rgb(0,0,0)" stroke-linecap="butt" stroke-miterlimit="10.0"><path d="M 328.2921,147.5767 c 0.0000,-4.5150 -3.6602,-8.1752 -8.1752 -8.1752c -4.5150,-0.0000 -8.1752,3.6602 -8.1752 8.1752c -0.0000,4.5150 3.6602,8.1752 8.1752 8.1752c 4.5150,0.0000 8.1752,-3.6602 8.1752 -8.1752Z"/></g><g stroke-linejoin="miter" stroke-opacity="1.0" fill-opacity="0.0" stroke="rgb(0,0,0)" stroke-width="1.6" fill="rgb(0,0,0)" stroke-linecap="butt" stroke-miterlimit="10.0"><path d="M 385.8396,132.1533 c 0.0000,-16.7802 -13.6030,-30.3832 -30.3832 -30.3832c -16.7802,-0.0000 -30.3832,13.6030 -30.3832 30.3832c -0.0000,16.7802 13.6030,30.3832 30.3832 30.3832c 16.7802,0.0000 30.3832,-13.6030 30.3832 -30.3832Z"/></g><g stroke-linejoin="miter" stroke-opacity="1.0" fill-opacity="0.0" stroke="rgb(0,0,0)" stroke-width="1.6" fill="rgb(0,0,0)" stroke-linecap="butt" stroke-miterlimit="10.0"><path d="M 400.0000,200.0000 c 0.0000,-110.4569 -89.5431,-200.0000 -200.0000 -200.0000c -110.4569,-0.0000 -200.0000,89.5431 -200.0000 200.0000c -0.0000,110.4569 89.5431,200.0000 200.0000 200.0000c 110.4569,0.0000 200.0000,-89.5431 200.0000 -200.0000Z"/></g><g stroke-linejoin="miter" stroke-opacity="1.0" fill-opacity="0.0" stroke="rgb(0,0,0)" stroke-width="1.6" fill="rgb(0,0,0)" stroke-linecap="butt" stroke-miterlimit="10.0"><path d="M 243.7040,209.2159 c 0.0000,-1.7047 -1.3820,-3.0867 -3.0867 -3.0867c -1.7047,-0.0000 -3.0867,1.3820 -3.0867 3.0867c -0.0000,1.7047 1.3820,3.0867 3.0867 3.0867c 1.7047,0.0000 3.0867,-1.3820 3.0867 -3.0867Z"/></g><g stroke-linejoin="miter" stroke-opacity="1.0" fill-opacity="0.0" stroke="rgb(0,0,0)" stroke-width="1.6" fill="rgb(0,0,0)" stroke-linecap="butt" stroke-miterlimit="10.0"><path d="M 246.7659,200.5059 c 0.0000,-3.1139 -2.5243,-5.6382 -5.6382 -5.6382c -3.1139,-0.0000 -5.6382,2.5243 -5.6382 5.6382c -0.0000,3.1139 2.5243,5.6382 5.6382 5.6382c 3.1139,0.0000 5.6382,-2.5243 5.6382 -5.6382Z"/></g><g stroke-linejoin="miter" stroke-opacity="1.0" fill-opacity="0.0" stroke="rgb(0,0,0)" stroke-width="1.6" fill="rgb(0,0,0)" stroke-linecap="butt" stroke-miterlimit="10.0"><path d="M 223.9493,163.9521 c 0.0000,-1.7047 -1.3820,-3.0867 -3.0867 -3.0867c -1.7047,-0.0000 -3.0867,1.3820 -3.0867 3.0867c -0.0000,1.7047 1.3820,3.0867 3.0867 3.0867c 1.7047,0.0000 3.0867,-1.3820 3.0867 -3.0867Z"/></g><g stroke-linejoin="miter" stroke-opacity="1.0" fill-opacity="0.0" stroke="rgb(0,0,0)" stroke-width="1.6" fill="rgb(0,0,0)" stroke-linecap="butt" stroke-miterlimit="10.0"><path d="M 233.2341,169.5007 c 0.0000,-3.1139 -2.5243,-5.6382 -5.6382 -5.6382c -3.1139,-0.0000 -5.6382,2.5243 -5.6382 5.6382c -0.0000,3.1139 2.5243,5.6382 5.6382 5.6382c 3.1139,0.0000 5.6382,-2.5243 5.6382 -5.6382Z"/></g><g stroke-linejoin="miter" stroke-opacity="1.0" fill-opacity="0.0" stroke="rgb(0,0,0)" stroke-width="1.6" fill="rgb(0,0,0)" stroke-linecap="butt" stroke-miterlimit="10.0"><path d="M 270.1421,170.6055 c 0.0000,-1.5414 -1.2495,-2.7909 -2.7909 -2.7909c -1.5414,-0.0000 -2.7909,1.2495 -2.7909 2.7909c -0.0000,1.5414 1.2495,2.7909 2.7909 2.7909c 1.5414,0.0000 2.7909,-1.2495 2.7909 -2.7909Z"/></g><g stroke-linejoin="miter" stroke-opacity="1.0" fill-opacity="0.0" stroke="rgb(0,0,0)" stroke-width="1.6" fill="rgb(0,0,0)" stroke-linecap="butt" stroke-miterlimit="10.0"><path d="M 265.2321,173.8246 c 0.0000,-2.9032 -2.3535,-5.2567 -5.2567 -5.2567c -2.9032,-0.0000 -5.2567,2.3535 -5.2567 5.2567c -0.0000,2.9032 2.3535,5.2567 5.2567 5.2567c 2.9032,0.0000 5.2567,-2.3535 5.2567 -5.2567Z"/></g><g stroke-linejoin="miter" stroke-opacity="1.0" fill-opacity="0.0" stroke="rgb(0,0,0)" stroke-width="1.6" fill="rgb(0,0,0)" stroke-linecap="butt" stroke-miterlimit="10.0"><path d="M 256.2909,181.3576 c 0.0000,-7.4977 -6.0781,-13.5758 -13.5758 -13.5758c -7.4977,-0.0000 -13.5758,6.0781 -13.5758 13.5758c -0.0000,7.4977 6.0781,13.5758 13.5758 13.5758c 7.4977,0.0000 13.5758,-6.0781 13.5758 -13.5758Z"/></g><g stroke-linejoin="miter" stroke-opacity="1.0" fill-opacity="0.0" stroke="rgb(0,0,0)" stroke-width="1.6" fill="rgb(0,0,0)" stroke-linecap="butt" stroke-miterlimit="10.0"><path d="M 333.2121,91.0101 c 0.0000,-42.8997 -34.7771,-77.6768 -77.6768 -77.6768c -42.8997,-0.0000 -77.6768,34.7771 -77.6768 77.6768c -0.0000,42.8997 34.7771,77.6768 77.6768 77.6768c 42.8997,0.0000 77.6768,-34.7771 77.6768 -77.6768Z"/></g><g stroke-linejoin="miter" stroke-opacity="1.0" fill-opacity="0.0" stroke="rgb(0,0,0)" stroke-width="1.6" fill="rgb(0,0,0)" stroke-linecap="butt" stroke-miterlimit="10.0"><path d="M 395.3535,233.3939 c 0.0000,-42.8997 -34.7771,-77.6768 -77.6768 -77.6768c -42.8997,-0.0000 -77.6768,34.7771 -77.6768 77.6768c -0.0000,42.8997 34.7771,77.6768 77.6768 77.6768c 42.8997,0.0000 77.6768,-34.7771 77.6768 -77.6768Z"/></g><g stroke-linejoin="miter" stroke-opacity="1.0" fill-opacity="0.0" stroke="rgb(0,0,0)" stroke-width="1.6" fill="rgb(0,0,0)" stroke-linecap="butt" stroke-miterlimit="10.0"><path d="M 240.0000,233.3939 c 0.0000,-64.3495 -52.1656,-116.5151 -116.5151 -116.5151c -64.3495,-0.0000 -116.5151,52.1656 -116.5151 116.5151c -0.0000,64.3495 52.1656,116.5151 116.5151 116.5151c 64.3495,0.0000 116.5151,-52.1656 116.5151 -116.5151Z"/></g></svg>