<svg xmlns="http://www.w3.org/2000/svg" height="339.4737" stroke-opacity="1" viewBox="0 0 300 339" font-size="1" width="300.0000" xmlns:xlink="http://www.w3.org/1999/xlink" stroke="rgb(0,0,0)" version="1.1"><defs></defs><g stroke-linejoin="miter" stroke-opacity="1.0" fill-opacity="0.0" stroke="rgb(0,0,0)" stroke-width="1.2765085063574477" fill="rgb(0,0,0)" stroke-linecap="butt" stroke-miterlimit="10.0"><path d="M 175.4023,177.1965 l 30.2344,41.6141 "/></g><g stroke-linejoin="miter" stroke-opacity="1.0" fill-opacity="0.0" stroke="rgb(0,0,0)" stroke-width="1.2765085063574477" fill="rgb(0,0,0)" stroke-linecap="butt" stroke-miterlimit="10.0"><path d="M 175.4023,177.1965 l -45.8314,-23.3523 "/></g><g stroke-linejoin="miter" stroke-opacity="1.0" fill-opacity="0.0" stroke="rgb(0,0,0)" stroke-width="1.2765085063574477" fill="rgb(0,0,0)" stroke-linecap="butt" stroke-miterlimit="10.0"><path d="M 175.4023,177.1965 l 45.8314,-23.3523 "/></g><g stroke-linejoin="miter" stroke-opacity="1.0" fill-opacity="0.0" stroke="rgb(0,0,0)" stroke-width="1.2765085063574477" fill="rgb(0,0,0)" stroke-linecap="butt" stroke-miterlimit="10.0"><path d="M 205.6366,218.8106 l 71.3747,-25.5208 "/></g><g stroke-linejoin="miter" stroke-opacity="1.0" fill-opacity="0.0" stroke="rgb(0,0,0)" stroke-width="1.2765085063574477" fill="rgb(0,0,0)" stroke-linecap="butt" stroke-miterlimit="10.0"><path d="M 205.6366,218.8106 l 61.4285,5.0905 "/></g><g stroke-linejoin="miter" stroke-opacity="1.0" fill-opacity="0.0" stroke="rgb(0,0,0)" stroke-width="1.2765085063574477" fill="rgb(0,0,0)" stroke-linecap="butt" stroke-miterlimit="10.0"><path d="M 205.6366,218.8106 l 42.5097,31.1300 "/></g><g stroke-linejoin="miter" stroke-opacity="1.0" fill-opacity="0.0" stroke="rgb(0,0,0)" stroke-width="1.2765085063574477" fill="rgb(0,0,0)" stroke-linecap="butt" stroke-miterlimit="10.0"><path d="M 205.6366,218.8106 l 16.4702,50.0488 "/></g><g stroke-linejoin="miter" stroke-opacity="1.0" fill-opacity="0.0" stroke="rgb(0,0,0)" stroke-width="1.2765085063574477" fill="rgb(0,0,0)" stroke-linecap="butt" stroke-miterlimit="10.0"><path d="M 205.6366,218.8106 l -14.1411,59.9950 "/></g><g stroke-linejoin="miter" stroke-opacity="1.0" fill-opacity="0.0" stroke="rgb(0,0,0)" stroke-width="1.2765085063574477" fill="rgb(0,0,0)" stroke-linecap="butt" stroke-miterlimit="10.0"><path d="M 205.6366,218.8106 l -46.3277,59.9950 "/></g><g stroke-linejoin="miter" stroke-opacity="1.0" fill-opacity="1.0" stroke="rgb(0,0,0)" stroke-width="1.2765085063574477" fill="rgb(255,255,255)" stroke-linecap="butt" stroke-miterlimit="10.0"><path d="M 286.3636,193.2898 c 0.0000,-5.1651 -4.1872,-9.3523 -9.3523 -9.3523c -5.1651,-0.0000 -9.3523,4.1872 -9.3523 9.3523c -0.0000,5.1651 4.1872,9.3523 9.3523 9.3523c 5.1651,0.0000 9.3523,-4.1872 9.3523 -9.3523Z"/></g><g stroke-linejoin="miter" stroke-opacity="1.0" fill-opacity="1.0" font-size="9.352328697640118px" stroke="rgb(0,0,0)" stroke-width="1.2765085063574477" fill="rgb(0,0,0)" stroke-linecap="butt" stroke-miterlimit="10.0"><text dominant-baseline="middle" transform="matrix(1.0000,0.0000,0.0000,1.0000,277.0113,193.2898)" stroke="none" text-anchor="middle">&#39;Z&#39;</text></g><g stroke-linejoin="miter" stroke-opacity="1.0" fill-opacity="1.0" stroke="rgb(0,0,0)" stroke-width="1.2765085063574477" fill="rgb(255,255,255)" stroke-linecap="butt" stroke-miterlimit="10.0"><path d="M 276.4174,223.9011 c 0.0000,-5.1651 -4.1872,-9.3523 -9.3523 -9.3523c -5.1651,-0.0000 -9.3523,4.1872 -9.3523 9.3523c -0.0000,5.1651 4.1872,9.3523 9.3523 9.3523c 5.1651,0.0000 9.3523,-4.1872 9.3523 -9.3523Z"/></g><g stroke-linejoin="miter" stroke-opacity="1.0" fill-opacity="1.0" font-size="9.352328697640118px" stroke="rgb(0,0,0)" stroke-width="1.2765085063574477" fill="rgb(0,0,0)" stroke-linecap="butt" stroke-miterlimit="10.0"><text dominant-baseline="middle" transform="matrix(1.0000,0.0000,0.0000,1.0000,267.0651,223.9011)" stroke="none" text-anchor="middle">&#39;Y&#39;</text></g><g stroke-linejoin="miter" stroke-opacity="1.0" fill-opacity="1.0" stroke="rgb(0,0,0)" stroke-width="1.2765085063574477" fill="rgb(255,255,255)" stroke-linecap="butt" stroke-miterlimit="10.0"><path d="M 257.4986,249.9406 c 0.0000,-5.1651 -4.1872,-9.3523 -9.3523 -9.3523c -5.1651,-0.0000 -9.3523,4.1872 -9.3523 9.3523c -0.0000,5.1651 4.1872,9.3523 9.3523 9.3523c 5.1651,0.0000 9.3523,-4.1872 9.3523 -9.3523Z"/></g><g stroke-linejoin="miter" stroke-opacity="1.0" fill-opacity="1.0" font-size="9.352328697640118px" stroke="rgb(0,0,0)" stroke-width="1.2765085063574477" fill="rgb(0,0,0)" stroke-linecap="butt" stroke-miterlimit="10.0"><text dominant-baseline="middle" transform="matrix(1.0000,0.0000,0.0000,1.0000,248.1463,249.9406)" stroke="none" text-anchor="middle">&#39;X&#39;</text></g><g stroke-linejoin="miter" stroke-opacity="1.0" fill-opacity="1.0" stroke="rgb(0,0,0)" stroke-width="1.2765085063574477" fill="rgb(255,255,255)" stroke-linecap="butt" stroke-miterlimit="10.0"><path d="M 231.4591,268.8594 c 0.0000,-5.1651 -4.1872,-9.3523 -9.3523 -9.3523c -5.1651,-0.0000 -9.3523,4.1872 -9.3523 9.3523c -0.0000,5.1651 4.1872,9.3523 9.3523 9.3523c 5.1651,0.0000 9.3523,-4.1872 9.3523 -9.3523Z"/></g><g stroke-linejoin="miter" stroke-opacity="1.0" fill-opacity="1.0" font-size="9.352328697640118px" stroke="rgb(0,0,0)" stroke-width="1.2765085063574477" fill="rgb(0,0,0)" stroke-linecap="butt" stroke-miterlimit="10.0"><text dominant-baseline="middle" transform="matrix(1.0000,0.0000,0.0000,1.0000,222.1068,268.8594)" stroke="none" text-anchor="middle">&#39;W&#39;</text></g><g stroke-linejoin="miter" stroke-opacity="1.0" fill-opacity="1.0" stroke="rgb(0,0,0)" stroke-width="1.2765085063574477" fill="rgb(255,255,255)" stroke-linecap="butt" stroke-miterlimit="10.0"><path d="M 200.8479,278.8056 c 0.0000,-5.1651 -4.1872,-9.3523 -9.3523 -9.3523c -5.1651,-0.0000 -9.3523,4.1872 -9.3523 9.3523c -0.0000,5.1651 4.1872,9.3523 9.3523 9.3523c 5.1651,0.0000 9.3523,-4.1872 9.3523 -9.3523Z"/></g><g stroke-linejoin="miter" stroke-opacity="1.0" fill-opacity="1.0" font-size="9.352328697640118px" stroke="rgb(0,0,0)" stroke-width="1.2765085063574477" fill="rgb(0,0,0)" stroke-linecap="butt" stroke-miterlimit="10.0"><text dominant-baseline="middle" transform="matrix(1.0000,0.0000,0.0000,1.0000,191.4956,278.8056)" stroke="none" text-anchor="middle">&#39;V&#39;</text></g><g stroke-linejoin="miter" stroke-opacity="1.0" fill-opacity="1.0" stroke="rgb(0,0,0)" stroke-width="1.2765085063574477" fill="rgb(255,255,255)" stroke-linecap="butt" stroke-miterlimit="10.0"><path d="M 168.6613,278.8056 c 0.0000,-5.1651 -4.1872,-9.3523 -9.3523 -9.3523c -5.1651,-0.0000 -9.3523,4.1872 -9.3523 9.3523c -0.0000,5.1651 4.1872,9.3523 9.3523 9.3523c 5.1651,0.0000 9.3523,-4.1872 9.3523 -9.3523Z"/></g><g stroke-linejoin="miter" stroke-opacity="1.0" fill-opacity="1.0" font-size="9.352328697640118px" stroke="rgb(0,0,0)" stroke-width="1.2765085063574477" fill="rgb(0,0,0)" stroke-linecap="butt" stroke-miterlimit="10.0"><text dominant-baseline="middle" transform="matrix(1.0000,0.0000,0.0000,1.0000,159.3090,278.8056)" stroke="none" text-anchor="middle">&#39;U&#39;</text></g><g stroke-linejoin="miter" stroke-opacity="1.0" fill-opacity="1.0" stroke="rgb(0,0,0)" stroke-width="1.2765085063574477" fill="rgb(255,255,255)" stroke-linecap="butt" stroke-miterlimit="10.0"><path d="M 214.9890,218.8106 c 0.0000,-5.1651 -4.1872,-9.3523 -9.3523 -9.3523c -5.1651,-0.0000 -9.3523,4.1872 -9.3523 9.3523c -0.0000,5.1651 4.1872,9.3523 9.3523 9.3523c 5.1651,0.0000 9.3523,-4.1872 9.3523 -9.3523Z"/></g><g stroke-linejoin="miter" stroke-opacity="1.0" fill-opacity="1.0" font-size="9.352328697640118px" stroke="rgb(0,0,0)" stroke-width="1.2765085063574477" fill="rgb(0,0,0)" stroke-linecap="butt" stroke-miterlimit="10.0"><text dominant-baseline="middle" transform="matrix(1.0000,0.0000,0.0000,1.0000,205.6366,218.8106)" stroke="none" text-anchor="middle">&#39;T&#39;</text></g><g stroke-linejoin="miter" stroke-opacity="1.0" fill-opacity="0.0" stroke="rgb(0,0,0)" stroke-width="1.2765085063574477" fill="rgb(0,0,0)" stroke-linecap="butt" stroke-miterlimit="10.0"><path d="M 129.5708,153.8442 l -45.8314,70.0568 "/></g><g stroke-linejoin="miter" stroke-opacity="1.0" fill-opacity="0.0" stroke="rgb(0,0,0)" stroke-width="1.2765085063574477" fill="rgb(0,0,0)" stroke-linecap="butt" stroke-miterlimit="10.0"><path d="M 129.5708,153.8442 l 14.0411,-74.4882 "/></g><g stroke-linejoin="miter" stroke-opacity="1.0" fill-opacity="0.0" stroke="rgb(0,0,0)" stroke-width="1.2765085063574477" fill="rgb(0,0,0)" stroke-linecap="butt" stroke-miterlimit="10.0"><path d="M 83.7394,223.9011 l 21.6060,90.7897 "/></g><g stroke-linejoin="miter" stroke-opacity="1.0" fill-opacity="0.0" stroke="rgb(0,0,0)" stroke-width="1.2765085063574477" fill="rgb(0,0,0)" stroke-linecap="butt" stroke-miterlimit="10.0"><path d="M 83.7394,223.9011 l -17.4532,62.4115 "/></g><g stroke-linejoin="miter" stroke-opacity="1.0" fill-opacity="0.0" stroke="rgb(0,0,0)" stroke-width="1.2765085063574477" fill="rgb(0,0,0)" stroke-linecap="butt" stroke-miterlimit="10.0"><path d="M 83.7394,223.9011 l -45.8314,23.3523 "/></g><g stroke-linejoin="miter" stroke-opacity="1.0" fill-opacity="0.0" stroke="rgb(0,0,0)" stroke-width="1.2765085063574477" fill="rgb(0,0,0)" stroke-linecap="butt" stroke-miterlimit="10.0"><path d="M 83.7394,223.9011 l -60.7507,-22.5646 "/></g><g stroke-linejoin="miter" stroke-opacity="1.0" fill-opacity="0.0" stroke="rgb(0,0,0)" stroke-width="1.2765085063574477" fill="rgb(0,0,0)" stroke-linecap="butt" stroke-miterlimit="10.0"><path d="M 83.7394,223.9011 l -60.7507,-70.8445 "/></g><g stroke-linejoin="miter" stroke-opacity="1.0" fill-opacity="1.0" stroke="rgb(0,0,0)" stroke-width="1.2765085063574477" fill="rgb(255,255,255)" stroke-linecap="butt" stroke-miterlimit="10.0"><path d="M 114.6978,314.6908 c 0.0000,-5.1651 -4.1872,-9.3523 -9.3523 -9.3523c -5.1651,-0.0000 -9.3523,4.1872 -9.3523 9.3523c -0.0000,5.1651 4.1872,9.3523 9.3523 9.3523c 5.1651,0.0000 9.3523,-4.1872 9.3523 -9.3523Z"/></g><g stroke-linejoin="miter" stroke-opacity="1.0" fill-opacity="1.0" font-size="9.352328697640118px" stroke="rgb(0,0,0)" stroke-width="1.2765085063574477" fill="rgb(0,0,0)" stroke-linecap="butt" stroke-miterlimit="10.0"><text dominant-baseline="middle" transform="matrix(1.0000,0.0000,0.0000,1.0000,105.3454,314.6908)" stroke="none" text-anchor="middle">&#39;S&#39;</text></g><g stroke-linejoin="miter" stroke-opacity="1.0" fill-opacity="1.0" stroke="rgb(0,0,0)" stroke-width="1.2765085063574477" fill="rgb(255,255,255)" stroke-linecap="butt" stroke-miterlimit="10.0"><path d="M 75.6385,286.3126 c 0.0000,-5.1651 -4.1872,-9.3523 -9.3523 -9.3523c -5.1651,-0.0000 -9.3523,4.1872 -9.3523 9.3523c -0.0000,5.1651 4.1872,9.3523 9.3523 9.3523c 5.1651,0.0000 9.3523,-4.1872 9.3523 -9.3523Z"/></g><g stroke-linejoin="miter" stroke-opacity="1.0" fill-opacity="1.0" font-size="9.352328697640118px" stroke="rgb(0,0,0)" stroke-width="1.2765085063574477" fill="rgb(0,0,0)" stroke-linecap="butt" stroke-miterlimit="10.0"><text dominant-baseline="middle" transform="matrix(1.0000,0.0000,0.0000,1.0000,66.2862,286.3126)" stroke="none" text-anchor="middle">&#39;R&#39;</text></g><g stroke-linejoin="miter" stroke-opacity="1.0" fill-opacity="1.0" stroke="rgb(0,0,0)" stroke-width="1.2765085063574477" fill="rgb(255,255,255)" stroke-linecap="butt" stroke-miterlimit="10.0"><path d="M 47.2603,247.2534 c 0.0000,-5.1651 -4.1872,-9.3523 -9.3523 -9.3523c -5.1651,-0.0000 -9.3523,4.1872 -9.3523 9.3523c -0.0000,5.1651 4.1872,9.3523 9.3523 9.3523c 5.1651,0.0000 9.3523,-4.1872 9.3523 -9.3523Z"/></g><g stroke-linejoin="miter" stroke-opacity="1.0" fill-opacity="1.0" font-size="9.352328697640118px" stroke="rgb(0,0,0)" stroke-width="1.2765085063574477" fill="rgb(0,0,0)" stroke-linecap="butt" stroke-miterlimit="10.0"><text dominant-baseline="middle" transform="matrix(1.0000,0.0000,0.0000,1.0000,37.9080,247.2534)" stroke="none" text-anchor="middle">&#39;Q&#39;</text></g><g stroke-linejoin="miter" stroke-opacity="1.0" fill-opacity="1.0" stroke="rgb(0,0,0)" stroke-width="1.2765085063574477" fill="rgb(255,255,255)" stroke-linecap="butt" stroke-miterlimit="10.0"><path d="M 32.3410,201.3365 c 0.0000,-5.1651 -4.1872,-9.3523 -9.3523 -9.3523c -5.1651,-0.0000 -9.3523,4.1872 -9.3523 9.3523c -0.0000,5.1651 4.1872,9.3523 9.3523 9.3523c 5.1651,0.0000 9.3523,-4.1872 9.3523 -9.3523Z"/></g><g stroke-linejoin="miter" stroke-opacity="1.0" fill-opacity="1.0" font-size="9.352328697640118px" stroke="rgb(0,0,0)" stroke-width="1.2765085063574477" fill="rgb(0,0,0)" stroke-linecap="butt" stroke-miterlimit="10.0"><text dominant-baseline="middle" transform="matrix(1.0000,0.0000,0.0000,1.0000,22.9887,201.3365)" stroke="none" text-anchor="middle">&#39;P&#39;</text></g><g stroke-linejoin="miter" stroke-opacity="1.0" fill-opacity="1.0" stroke="rgb(0,0,0)" stroke-width="1.2765085063574477" fill="rgb(255,255,255)" stroke-linecap="butt" stroke-miterlimit="10.0"><path d="M 32.3410,153.0566 c 0.0000,-5.1651 -4.1872,-9.3523 -9.3523 -9.3523c -5.1651,-0.0000 -9.3523,4.1872 -9.3523 9.3523c -0.0000,5.1651 4.1872,9.3523 9.3523 9.3523c 5.1651,0.0000 9.3523,-4.1872 9.3523 -9.3523Z"/></g><g stroke-linejoin="miter" stroke-opacity="1.0" fill-opacity="1.0" font-size="9.352328697640118px" stroke="rgb(0,0,0)" stroke-width="1.2765085063574477" fill="rgb(0,0,0)" stroke-linecap="butt" stroke-miterlimit="10.0"><text dominant-baseline="middle" transform="matrix(1.0000,0.0000,0.0000,1.0000,22.9887,153.0566)" stroke="none" text-anchor="middle">&#39;O&#39;</text></g><g stroke-linejoin="miter" stroke-opacity="1.0" fill-opacity="1.0" stroke="rgb(0,0,0)" stroke-width="1.2765085063574477" fill="rgb(255,255,255)" stroke-linecap="butt" stroke-miterlimit="10.0"><path d="M 93.0917,223.9011 c 0.0000,-5.1651 -4.1872,-9.3523 -9.3523 -9.3523c -5.1651,-0.0000 -9.3523,4.1872 -9.3523 9.3523c -0.0000,5.1651 4.1872,9.3523 9.3523 9.3523c 5.1651,0.0000 9.3523,-4.1872 9.3523 -9.3523Z"/></g><g stroke-linejoin="miter" stroke-opacity="1.0" fill-opacity="1.0" font-size="9.352328697640118px" stroke="rgb(0,0,0)" stroke-width="1.2765085063574477" fill="rgb(0,0,0)" stroke-linecap="butt" stroke-miterlimit="10.0"><text dominant-baseline="middle" transform="matrix(1.0000,0.0000,0.0000,1.0000,83.7394,223.9011)" stroke="none" text-anchor="middle">&#39;N&#39;</text></g><g stroke-linejoin="miter" stroke-opacity="1.0" fill-opacity="0.0" stroke="rgb(0,0,0)" stroke-width="1.2765085063574477" fill="rgb(0,0,0)" stroke-linecap="butt" stroke-miterlimit="10.0"><path d="M 143.6119,79.3560 l -105.7040,27.7837 "/></g><g stroke-linejoin="miter" stroke-opacity="1.0" fill-opacity="0.0" stroke="rgb(0,0,0)" stroke-width="1.2765085063574477" fill="rgb(0,0,0)" stroke-linecap="butt" stroke-miterlimit="10.0"><path d="M 143.6119,79.3560 l -77.3258,-11.2755 "/></g><g stroke-linejoin="miter" stroke-opacity="1.0" fill-opacity="0.0" stroke="rgb(0,0,0)" stroke-width="1.2765085063574477" fill="rgb(0,0,0)" stroke-linecap="butt" stroke-miterlimit="10.0"><path d="M 143.6119,79.3560 l -38.2665,-39.6537 "/></g><g stroke-linejoin="miter" stroke-opacity="1.0" fill-opacity="0.0" stroke="rgb(0,0,0)" stroke-width="1.2765085063574477" fill="rgb(0,0,0)" stroke-linecap="butt" stroke-miterlimit="10.0"><path d="M 143.6119,79.3560 l 7.6504,-54.5730 "/></g><g stroke-linejoin="miter" stroke-opacity="1.0" fill-opacity="0.0" stroke="rgb(0,0,0)" stroke-width="1.2765085063574477" fill="rgb(0,0,0)" stroke-linecap="butt" stroke-miterlimit="10.0"><path d="M 143.6119,79.3560 l 55.9303,-54.5730 "/></g><g stroke-linejoin="miter" stroke-opacity="1.0" fill-opacity="0.0" stroke="rgb(0,0,0)" stroke-width="1.2765085063574477" fill="rgb(0,0,0)" stroke-linecap="butt" stroke-miterlimit="10.0"><path d="M 143.6119,79.3560 l 101.8471,-39.6537 "/></g><g stroke-linejoin="miter" stroke-opacity="1.0" fill-opacity="1.0" stroke="rgb(0,0,0)" stroke-width="1.2765085063574477" fill="rgb(255,255,255)" stroke-linecap="butt" stroke-miterlimit="10.0"><path d="M 47.2603,107.1397 c 0.0000,-5.1651 -4.1872,-9.3523 -9.3523 -9.3523c -5.1651,-0.0000 -9.3523,4.1872 -9.3523 9.3523c -0.0000,5.1651 4.1872,9.3523 9.3523 9.3523c 5.1651,0.0000 9.3523,-4.1872 9.3523 -9.3523Z"/></g><g stroke-linejoin="miter" stroke-opacity="1.0" fill-opacity="1.0" font-size="9.352328697640118px" stroke="rgb(0,0,0)" stroke-width="1.2765085063574477" fill="rgb(0,0,0)" stroke-linecap="butt" stroke-miterlimit="10.0"><text dominant-baseline="middle" transform="matrix(1.0000,0.0000,0.0000,1.0000,37.9080,107.1397)" stroke="none" text-anchor="middle">&#39;M&#39;</text></g><g stroke-linejoin="miter" stroke-opacity="1.0" fill-opacity="1.0" stroke="rgb(0,0,0)" stroke-width="1.2765085063574477" fill="rgb(255,255,255)" stroke-linecap="butt" stroke-miterlimit="10.0"><path d="M 75.6385,68.0805 c 0.0000,-5.1651 -4.1872,-9.3523 -9.3523 -9.3523c -5.1651,-0.0000 -9.3523,4.1872 -9.3523 9.3523c -0.0000,5.1651 4.1872,9.3523 9.3523 9.3523c 5.1651,0.0000 9.3523,-4.1872 9.3523 -9.3523Z"/></g><g stroke-linejoin="miter" stroke-opacity="1.0" fill-opacity="1.0" font-size="9.352328697640118px" stroke="rgb(0,0,0)" stroke-width="1.2765085063574477" fill="rgb(0,0,0)" stroke-linecap="butt" stroke-miterlimit="10.0"><text dominant-baseline="middle" transform="matrix(1.0000,0.0000,0.0000,1.0000,66.2862,68.0805)" stroke="none" text-anchor="middle">&#39;L&#39;</text></g><g stroke-linejoin="miter" stroke-opacity="1.0" fill-opacity="1.0" stroke="rgb(0,0,0)" stroke-width="1.2765085063574477" fill="rgb(255,255,255)" stroke-linecap="butt" stroke-miterlimit="10.0"><path d="M 114.6978,39.7023 c 0.0000,-5.1651 -4.1872,-9.3523 -9.3523 -9.3523c -5.1651,-0.0000 -9.3523,4.1872 -9.3523 9.3523c -0.0000,5.1651 4.1872,9.3523 9.3523 9.3523c 5.1651,0.0000 9.3523,-4.1872 9.3523 -9.3523Z"/></g><g stroke-linejoin="miter" stroke-opacity="1.0" fill-opacity="1.0" font-size="9.352328697640118px" stroke="rgb(0,0,0)" stroke-width="1.2765085063574477" fill="rgb(0,0,0)" stroke-linecap="butt" stroke-miterlimit="10.0"><text dominant-baseline="middle" transform="matrix(1.0000,0.0000,0.0000,1.0000,105.3454,39.7023)" stroke="none" text-anchor="middle">&#39;K&#39;</text></g><g stroke-linejoin="miter" stroke-opacity="1.0" fill-opacity="1.0" stroke="rgb(0,0,0)" stroke-width="1.2765085063574477" fill="rgb(255,255,255)" stroke-linecap="butt" stroke-miterlimit="10.0"><path d="M 160.6147,24.7830 c 0.0000,-5.1651 -4.1872,-9.3523 -9.3523 -9.3523c -5.1651,-0.0000 -9.3523,4.1872 -9.3523 9.3523c -0.0000,5.1651 4.1872,9.3523 9.3523 9.3523c 5.1651,0.0000 9.3523,-4.1872 9.3523 -9.3523Z"/></g><g stroke-linejoin="miter" stroke-opacity="1.0" fill-opacity="1.0" font-size="9.352328697640118px" stroke="rgb(0,0,0)" stroke-width="1.2765085063574477" fill="rgb(0,0,0)" stroke-linecap="butt" stroke-miterlimit="10.0"><text dominant-baseline="middle" transform="matrix(1.0000,0.0000,0.0000,1.0000,151.2623,24.7830)" stroke="none" text-anchor="middle">&#39;J&#39;</text></g><g stroke-linejoin="miter" stroke-opacity="1.0" fill-opacity="1.0" stroke="rgb(0,0,0)" stroke-width="1.2765085063574477" fill="rgb(255,255,255)" stroke-linecap="butt" stroke-miterlimit="10.0"><path d="M 208.8945,24.7830 c 0.0000,-5.1651 -4.1872,-9.3523 -9.3523 -9.3523c -5.1651,-0.0000 -9.3523,4.1872 -9.3523 9.3523c -0.0000,5.1651 4.1872,9.3523 9.3523 9.3523c 5.1651,0.0000 9.3523,-4.1872 9.3523 -9.3523Z"/></g><g stroke-linejoin="miter" stroke-opacity="1.0" fill-opacity="1.0" font-size="9.352328697640118px" stroke="rgb(0,0,0)" stroke-width="1.2765085063574477" fill="rgb(0,0,0)" stroke-linecap="butt" stroke-miterlimit="10.0"><text dominant-baseline="middle" transform="matrix(1.0000,0.0000,0.0000,1.0000,199.5422,24.7830)" stroke="none" text-anchor="middle">&#39;I&#39;</text></g><g stroke-linejoin="miter" stroke-opacity="1.0" fill-opacity="1.0" stroke="rgb(0,0,0)" stroke-width="1.2765085063574477" fill="rgb(255,255,255)" stroke-linecap="butt" stroke-miterlimit="10.0"><path d="M 254.8114,39.7023 c 0.0000,-5.1651 -4.1872,-9.3523 -9.3523 -9.3523c -5.1651,-0.0000 -9.3523,4.1872 -9.3523 9.3523c -0.0000,5.1651 4.1872,9.3523 9.3523 9.3523c 5.1651,0.0000 9.3523,-4.1872 9.3523 -9.3523Z"/></g><g stroke-linejoin="miter" stroke-opacity="1.0" fill-opacity="1.0" font-size="9.352328697640118px" stroke="rgb(0,0,0)" stroke-width="1.2765085063574477" fill="rgb(0,0,0)" stroke-linecap="butt" stroke-miterlimit="10.0"><text dominant-baseline="middle" transform="matrix(1.0000,0.0000,0.0000,1.0000,245.4591,39.7023)" stroke="none" text-anchor="middle">&#39;H&#39;</text></g><g stroke-linejoin="miter" stroke-opacity="1.0" fill-opacity="1.0" stroke="rgb(0,0,0)" stroke-width="1.2765085063574477" fill="rgb(255,255,255)" stroke-linecap="butt" stroke-miterlimit="10.0"><path d="M 152.9643,79.3560 c 0.0000,-5.1651 -4.1872,-9.3523 -9.3523 -9.3523c -5.1651,-0.0000 -9.3523,4.1872 -9.3523 9.3523c -0.0000,5.1651 4.1872,9.3523 9.3523 9.3523c 5.1651,0.0000 9.3523,-4.1872 9.3523 -9.3523Z"/></g><g stroke-linejoin="miter" stroke-opacity="1.0" fill-opacity="1.0" font-size="9.352328697640118px" stroke="rgb(0,0,0)" stroke-width="1.2765085063574477" fill="rgb(0,0,0)" stroke-linecap="butt" stroke-miterlimit="10.0"><text dominant-baseline="middle" transform="matrix(1.0000,0.0000,0.0000,1.0000,143.6119,79.3560)" stroke="none" text-anchor="middle">&#39;G&#39;</text></g><g stroke-linejoin="miter" stroke-opacity="1.0" fill-opacity="1.0" stroke="rgb(0,0,0)" stroke-width="1.2765085063574477" fill="rgb(255,255,255)" stroke-linecap="butt" stroke-miterlimit="10.0"><path d="M 138.9232,153.8442 c 0.0000,-5.1651 -4.1872,-9.3523 -9.3523 -9.3523c -5.1651,-0.0000 -9.3523,4.1872 -9.3523 9.3523c -0.0000,5.1651 4.1872,9.3523 9.3523 9.3523c 5.1651,0.0000 9.3523,-4.1872 9.3523 -9.3523Z"/></g><g stroke-linejoin="miter" stroke-opacity="1.0" fill-opacity="1.0" font-size="9.352328697640118px" stroke="rgb(0,0,0)" stroke-width="1.2765085063574477" fill="rgb(0,0,0)" stroke-linecap="butt" stroke-miterlimit="10.0"><text dominant-baseline="middle" transform="matrix(1.0000,0.0000,0.0000,1.0000,129.5708,153.8442)" stroke="none" text-anchor="middle">&#39;F&#39;</text></g><g stroke-linejoin="miter" stroke-opacity="1.0" fill-opacity="0.0" stroke="rgb(0,0,0)" stroke-width="1.2765085063574477" fill="rgb(0,0,0)" stroke-linecap="butt" stroke-miterlimit="10.0"><path d="M 221.2337,153.8442 l 26.9126,-49.3918 "/></g><g stroke-linejoin="miter" stroke-opacity="1.0" fill-opacity="0.0" stroke="rgb(0,0,0)" stroke-width="1.2765085063574477" fill="rgb(0,0,0)" stroke-linecap="butt" stroke-miterlimit="10.0"><path d="M 221.2337,153.8442 l 45.8314,-23.3523 "/></g><g stroke-linejoin="miter" stroke-opacity="1.0" fill-opacity="0.0" stroke="rgb(0,0,0)" stroke-width="1.2765085063574477" fill="rgb(0,0,0)" stroke-linecap="butt" stroke-miterlimit="10.0"><path d="M 221.2337,153.8442 l 55.7776,7.2590 "/></g><g stroke-linejoin="miter" stroke-opacity="1.0" fill-opacity="1.0" stroke="rgb(0,0,0)" stroke-width="1.2765085063574477" fill="rgb(255,255,255)" stroke-linecap="butt" stroke-miterlimit="10.0"><path d="M 257.4986,104.4525 c 0.0000,-5.1651 -4.1872,-9.3523 -9.3523 -9.3523c -5.1651,-0.0000 -9.3523,4.1872 -9.3523 9.3523c -0.0000,5.1651 4.1872,9.3523 9.3523 9.3523c 5.1651,0.0000 9.3523,-4.1872 9.3523 -9.3523Z"/></g><g stroke-linejoin="miter" stroke-opacity="1.0" fill-opacity="1.0" font-size="9.352328697640118px" stroke="rgb(0,0,0)" stroke-width="1.2765085063574477" fill="rgb(0,0,0)" stroke-linecap="butt" stroke-miterlimit="10.0"><text dominant-baseline="middle" transform="matrix(1.0000,0.0000,0.0000,1.0000,248.1463,104.4525)" stroke="none" text-anchor="middle">&#39;E&#39;</text></g><g stroke-linejoin="miter" stroke-opacity="1.0" fill-opacity="1.0" stroke="rgb(0,0,0)" stroke-width="1.2765085063574477" fill="rgb(255,255,255)" stroke-linecap="butt" stroke-miterlimit="10.0"><path d="M 276.4174,130.4920 c 0.0000,-5.1651 -4.1872,-9.3523 -9.3523 -9.3523c -5.1651,-0.0000 -9.3523,4.1872 -9.3523 9.3523c -0.0000,5.1651 4.1872,9.3523 9.3523 9.3523c 5.1651,0.0000 9.3523,-4.1872 9.3523 -9.3523Z"/></g><g stroke-linejoin="miter" stroke-opacity="1.0" fill-opacity="1.0" font-size="9.352328697640118px" stroke="rgb(0,0,0)" stroke-width="1.2765085063574477" fill="rgb(0,0,0)" stroke-linecap="butt" stroke-miterlimit="10.0"><text dominant-baseline="middle" transform="matrix(1.0000,0.0000,0.0000,1.0000,267.0651,130.4920)" stroke="none" text-anchor="middle">&#39;D&#39;</text></g><g stroke-linejoin="miter" stroke-opacity="1.0" fill-opacity="1.0" stroke="rgb(0,0,0)" stroke-width="1.2765085063574477" fill="rgb(255,255,255)" stroke-linecap="butt" stroke-miterlimit="10.0"><path d="M 286.3636,161.1032 c 0.0000,-5.1651 -4.1872,-9.3523 -9.3523 -9.3523c -5.1651,-0.0000 -9.3523,4.1872 -9.3523 9.3523c -0.0000,5.1651 4.1872,9.3523 9.3523 9.3523c 5.1651,0.0000 9.3523,-4.1872 9.3523 -9.3523Z"/></g><g stroke-linejoin="miter" stroke-opacity="1.0" fill-opacity="1.0" font-size="9.352328697640118px" stroke="rgb(0,0,0)" stroke-width="1.2765085063574477" fill="rgb(0,0,0)" stroke-linecap="butt" stroke-miterlimit="10.0"><text dominant-baseline="middle" transform="matrix(1.0000,0.0000,0.0000,1.0000,277.0113,161.1032)" stroke="none" text-anchor="middle">&#39;C&#39;</text></g><g stroke-linejoin="miter" stroke-opacity="1.0" fill-opacity="1.0" stroke="rgb(0,0,0)" stroke-width="1.2765085063574477" fill="rgb(255,255,255)" stroke-linecap="butt" stroke-miterlimit="10.0"><path d="M 230.5860,153.8442 c 0.0000,-5.1651 -4.1872,-9.3523 -9.3523 -9.3523c -5.1651,-0.0000 -9.3523,4.1872 -9.3523 9.3523c -0.0000,5.1651 4.1872,9.3523 9.3523 9.3523c 5.1651,0.0000 9.3523,-4.1872 9.3523 -9.3523Z"/></g><g stroke-linejoin="miter" stroke-opacity="1.0" fill-opacity="1.0" font-size="9.352328697640118px" stroke="rgb(0,0,0)" stroke-width="1.2765085063574477" fill="rgb(0,0,0)" stroke-linecap="butt" stroke-miterlimit="10.0"><text dominant-baseline="middle" transform="matrix(1.0000,0.0000,0.0000,1.0000,221.2337,153.8442)" stroke="none" text-anchor="middle">&#39;B&#39;</text></g><g stroke-linejoin="miter" stroke-opacity="1.0" fill-opacity="1.0" stroke="rgb(0,0,0)" stroke-width="1.2765085063574477" fill="rgb(255,255,255)" stroke-linecap="butt" stroke-miterlimit="10.0"><path d="M 184.7546,177.1965 c 0.0000,-5.1651 -4.1872,-9.3523 -9.3523 -9.3523c -5.1651,-0.0000 -9.3523,4.1872 -9.3523 9.3523c -0.0000,5.1651 4.1872,9.3523 9.3523 9.3523c 5.1651,0.0000 9.3523,-4.1872 9.3523 -9.3523Z"/></g><g stroke-linejoin="miter" stroke-opacity="1.0" fill-opacity="1.0" font-size="9.352328697640118px" stroke="rgb(0,0,0)" stroke-width="1.2765085063574477" fill="rgb(0,0,0)" stroke-linecap="butt" stroke-miterlimit="10.0"><text dominant-baseline="middle" transform="matrix(1.0000,0.0000,0.0000,1.0000,175.4023,177.1965)" stroke="none" text-anchor="middle">&#39;A&#39;</text></g></svg>