<?xml version="1.0" encoding="UTF-8"?>
<!DOCTYPE svg PUBLIC "-//W3C//DTD SVG 1.1//EN"
    "http://www.w3.org/Graphics/SVG/1.1/DTD/svg11.dtd"><svg xmlns="http://www.w3.org/2000/svg" height="201.7789318006118" stroke-opacity="1" viewBox="0 0 400 202" font-size="1" width="400.0" xmlns:xlink="http://www.w3.org/1999/xlink" stroke="rgb(0,0,0)" version="1.1"><g><defs></defs><g stroke-linejoin="miter" stroke-opacity="1.0" fill-opacity="0.0" stroke="rgb(0,0,0)" stroke-width="1.1363912897958675" fill="rgb(0,0,0)" stroke-linecap="butt" stroke-miterlimit="10.0"><path d="M 210.90910618741609,155.43499683738673 l -7.272482819523252,7.333596120527656 l 10.96983753028928,3.6056847592594248 l -7.272482819523252,7.333596120527656 l 10.969837530289281,3.6056847592594226 l -1.8792340058852144,-12.772679909918992 l 10.969837530289281,3.6056847592594226 l -7.272482819523252,7.333596120527656 l 10.96983753028928,3.6056847592594248 l -7.272482819523252,7.333596120527656 l 10.969837530289281,3.6056847592594212 l -1.8792340058852153,-12.77267990991899 l 10.969837530289281,3.6056847592594212 l -1.8792340058852153,-12.77267990991899 l -11.833062906976382,8.265573960844712 l -1.8792340058852153,-12.77267990991899 l 10.969837530289281,3.6056847592594212 l -1.8792340058852153,-12.77267990991899 l 10.969837530289281,3.6056847592594212 l -7.272482819523252,7.333596120527656 l 10.96983753028928,3.6056847592594248 l -7.272482819523252,7.333596120527656 l 10.969837530289281,3.6056847592594226 l -1.8792340058852144,-12.772679909918992 l 10.969837530289281,3.6056847592594226 l -7.272482819523252,7.333596120527656 l 10.96983753028928,3.6056847592594248 l -7.272482819523252,7.333596120527656 l 10.969837530289281,3.6056847592594243 l -1.8792340058852153,-12.77267990991899 l 10.969837530289281,3.6056847592594243 l -1.8792340058852168,-12.77267990991899 l -11.833062906976382,8.265573960844712 l -1.8792340058852168,-12.77267990991899 l 10.969837530289281,3.6056847592594243 l -1.8792340058852153,-12.77267990991899 l 10.969837530289281,3.6056847592594243 l -1.8792340058852168,-12.772679909918992 l -11.83306290697638,8.265573960844709 l -1.8792340058852168,-12.772679909918992 l -11.83306290697638,8.265573960844709 l 14.1821054143329,7.700275926554024 l -11.83306290697638,8.265573960844709 l -1.8792340058852168,-12.772679909918992 l -11.83306290697638,8.265573960844709 l -1.8792340058852168,-12.772679909918992 l 10.969837530289281,3.6056847592594243 l -1.8792340058852153,-12.77267990991899 l 10.969837530289281,3.6056847592594243 l -1.8792340058852168,-12.77267990991899 l -11.833062906976382,8.265573960844712 l -1.8792340058852168,-12.77267990991899 l 10.969837530289281,3.6056847592594243 l -1.8792340058852153,-12.77267990991899 l 10.969837530289281,3.6056847592594243 l -7.272482819523252,7.333596120527656 l 10.96983753028928,3.6056847592594248 l -7.272482819523252,7.333596120527656 l 10.969837530289281,3.6056847592594226 l -1.8792340058852144,-12.772679909918992 l 10.969837530289281,3.6056847592594226 l -7.272482819523252,7.333596120527656 l 10.96983753028928,3.6056847592594248 l -7.272482819523252,7.333596120527656 l 10.969837530289281,3.6056847592594212 l -1.8792340058852153,-12.77267990991899 l 10.969837530289281,3.6056847592594212 l -1.8792340058852153,-12.77267990991899 l -11.833062906976382,8.265573960844712 l -1.8792340058852153,-12.77267990991899 l 10.969837530289281,3.6056847592594212 l -1.8792340058852153,-12.77267990991899 l 10.969837530289281,3.6056847592594212 l -7.272482819523252,7.333596120527656 l 10.96983753028928,3.6056847592594248 l -7.272482819523252,7.333596120527656 l 10.969837530289281,3.6056847592594226 l -1.8792340058852144,-12.772679909918992 l 10.969837530289281,3.6056847592594226 l -7.272482819523252,7.333596120527656 l 10.96983753028928,3.6056847592594248 l -7.272482819523252,7.333596120527656 l 10.969837530289281,3.6056847592594234 l -1.8792340058852148,-12.77267990991899 l 10.969837530289281,3.6056847592594234 l -1.8792340058852164,-12.77267990991899 l -11.833062906976382,8.26557396084471 l -1.8792340058852164,-12.77267990991899 l 10.969837530289281,3.6056847592594234 l -1.8792340058852148,-12.77267990991899 l 10.969837530289281,3.6056847592594234 l -1.8792340058852186,-12.77267990991899 l -11.833062906976382,8.26557396084471 l -1.8792340058852186,-12.77267990991899 l -11.833062906976382,8.26557396084471 l 14.1821054143329,7.700275926554028 l -11.833062906976382,8.26557396084471 l -1.8792340058852186,-12.77267990991899 l -11.833062906976382,8.26557396084471 l -1.8792340058852186,-12.77267990991899 l 10.969837530289281,3.6056847592594234 l -1.8792340058852148,-12.77267990991899 l 10.969837530289281,3.6056847592594234 l -1.8792340058852164,-12.77267990991899 l -11.833062906976382,8.26557396084471 l -1.8792340058852164,-12.77267990991899 l 10.969837530289281,3.6056847592594234 l -1.8792340058852148,-12.77267990991899 l 10.969837530289281,3.6056847592594234 l -1.879234005885216,-12.772679909918994 l -11.83306290697638,8.265573960844709 l -1.879234005885216,-12.772679909918994 l -11.83306290697638,8.26557396084471 l 14.1821054143329,7.700275926554028 l -11.83306290697638,8.26557396084471 l -1.879234005885216,-12.772679909918994 l -11.83306290697638,8.265573960844709 l -1.879234005885216,-12.772679909918994 l -11.833062906976382,8.265573960844714 l 14.182105414332897,7.700275926554026 l -11.833062906976382,8.265573960844714 l 14.1821054143329,7.700275926554024 l 0.6092232193875736,-18.032243377609912 l 14.1821054143329,7.700275926554024 l -11.833062906976382,8.265573960844714 l 14.182105414332897,7.700275926554026 l -11.833062906976382,8.265573960844714 l -1.879234005885216,-12.772679909918994 l -11.83306290697638,8.265573960844709 l -1.879234005885216,-12.772679909918994 l -11.83306290697638,8.26557396084471 l 14.1821054143329,7.700275926554028 l -11.83306290697638,8.26557396084471 l -1.879234005885216,-12.772679909918994 l -11.83306290697638,8.265573960844709 l -1.879234005885216,-12.772679909918994 l 10.969837530289281,3.6056847592594234 l -1.8792340058852148,-12.77267990991899 l 10.969837530289281,3.6056847592594234 l -1.8792340058852164,-12.77267990991899 l -11.833062906976382,8.26557396084471 l -1.8792340058852164,-12.77267990991899 l 10.969837530289281,3.6056847592594234 l -1.8792340058852148,-12.77267990991899 l 10.969837530289281,3.6056847592594234 l -1.8792340058852186,-12.77267990991899 l -11.833062906976382,8.26557396084471 l -1.8792340058852186,-12.77267990991899 l -11.833062906976382,8.26557396084471 l 14.1821054143329,7.700275926554028 l -11.833062906976382,8.26557396084471 l -1.8792340058852186,-12.77267990991899 l -11.833062906976382,8.26557396084471 l -1.8792340058852186,-12.77267990991899 l 10.969837530289281,3.6056847592594234 l -1.8792340058852148,-12.77267990991899 l 10.969837530289281,3.6056847592594234 l -1.8792340058852164,-12.77267990991899 l -11.833062906976382,8.26557396084471 l -1.8792340058852164,-12.77267990991899 l 10.969837530289281,3.6056847592594234 l -1.8792340058852148,-12.77267990991899 l 10.969837530289281,3.6056847592594234 l -7.272482819523252,7.333596120527656 l 10.96983753028928,3.6056847592594248 l -7.272482819523252,7.333596120527656 l 10.969837530289281,3.6056847592594226 l -1.8792340058852144,-12.772679909918992 l 10.969837530289281,3.6056847592594226 l -7.272482819523252,7.333596120527656 l 10.96983753028928,3.6056847592594248 l -7.272482819523252,7.333596120527656 l 10.969837530289281,3.6056847592594212 l -1.8792340058852153,-12.77267990991899 l 10.969837530289281,3.6056847592594212 l -1.8792340058852153,-12.77267990991899 l -11.833062906976382,8.265573960844712 l -1.8792340058852153,-12.77267990991899 l 10.969837530289281,3.6056847592594212 l -1.8792340058852153,-12.77267990991899 l 10.969837530289281,3.6056847592594212 l -7.272482819523252,7.333596120527656 l 10.96983753028928,3.6056847592594248 l -7.272482819523252,7.333596120527656 l 10.969837530289281,3.6056847592594226 l -1.8792340058852144,-12.772679909918992 l 10.969837530289281,3.6056847592594226 l -7.272482819523252,7.333596120527656 l 10.96983753028928,3.6056847592594248 l -7.272482819523252,7.333596120527656 l 10.969837530289281,3.6056847592594243 l -1.8792340058852153,-12.77267990991899 l 10.969837530289281,3.6056847592594243 l -1.8792340058852168,-12.77267990991899 l -11.833062906976382,8.265573960844712 l -1.8792340058852168,-12.77267990991899 l 10.969837530289281,3.6056847592594243 l -1.8792340058852153,-12.77267990991899 l 10.969837530289281,3.6056847592594243 l -1.8792340058852168,-12.772679909918992 l -11.83306290697638,8.265573960844709 l -1.8792340058852168,-12.772679909918992 l -11.83306290697638,8.265573960844709 l 14.1821054143329,7.700275926554024 l -11.83306290697638,8.265573960844709 l -1.8792340058852168,-12.772679909918992 l -11.83306290697638,8.265573960844709 l -1.8792340058852168,-12.772679909918992 l 10.969837530289281,3.6056847592594243 l -1.8792340058852153,-12.77267990991899 l 10.969837530289281,3.6056847592594243 l -1.8792340058852168,-12.77267990991899 l -11.833062906976382,8.265573960844712 l -1.8792340058852168,-12.77267990991899 l 10.969837530289281,3.6056847592594243 l -1.8792340058852153,-12.77267990991899 l 10.969837530289281,3.6056847592594243 l -7.272482819523252,7.333596120527656 l 10.96983753028928,3.6056847592594248 l -7.272482819523252,7.333596120527656 l 10.969837530289281,3.6056847592594226 l -1.8792340058852144,-12.772679909918992 l 10.969837530289281,3.6056847592594226 l -7.272482819523252,7.333596120527656 l 10.96983753028928,3.6056847592594248 l -7.272482819523252,7.333596120527656 l 10.969837530289281,3.6056847592594212 l -1.8792340058852153,-12.77267990991899 l 10.969837530289281,3.6056847592594212 l -1.8792340058852153,-12.77267990991899 l -11.833062906976382,8.265573960844712 l -1.8792340058852153,-12.77267990991899 l 10.969837530289281,3.6056847592594212 l -1.8792340058852153,-12.77267990991899 l 10.969837530289281,3.6056847592594212 l -7.272482819523252,7.333596120527656 l 10.96983753028928,3.6056847592594248 l -7.272482819523252,7.333596120527656 l 10.969837530289281,3.6056847592594226 l -1.8792340058852144,-12.772679909918992 l 10.969837530289281,3.6056847592594226 l -7.272482819523252,7.333596120527656 l 10.96983753028928,3.6056847592594248 l -7.272482819523252,7.333596120527656 "/></g><defs></defs><g stroke-linejoin="miter" stroke-opacity="1.0" fill-opacity="0.0" stroke="rgb(0,0,0)" stroke-width="1.1363912897958675" fill="rgb(0,0,0)" stroke-linecap="butt" stroke-miterlimit="10.0"><path d="M 18.181818181818187,155.43499683738673 h 109.09106187416157 l -54.545530937080784,-109.09106187416157 h 109.09106187416157 "/></g></g></svg>