<svg xmlns="http://www.w3.org/2000/svg" height="247.5223" stroke-opacity="1" viewBox="0 0 400 248" font-size="1" width="400.0000" xmlns:xlink="http://www.w3.org/1999/xlink" stroke="rgb(0,0,0)" version="1.1"><defs></defs><g stroke-linejoin="miter" stroke-opacity="1.0" fill-opacity="0.0" stroke="rgb(0,0,0)" stroke-width="1.2586273272388664" fill="rgb(0,0,0)" stroke-linecap="butt" stroke-miterlimit="10.0"><path d="M 209.2308,169.9150 l -6.1536,6.2053 l 9.2822,3.0510 l -6.1536,6.2053 l 9.2822,3.0510 l -1.5901,-10.8076 l 9.2822,3.0510 l -6.1536,6.2053 l 9.2822,3.0510 l -6.1536,6.2053 l 9.2822,3.0510 l -1.5901,-10.8076 l 9.2822,3.0510 l -1.5901,-10.8076 l -10.0126,6.9939 l -1.5901,-10.8076 l 9.2822,3.0510 l -1.5901,-10.8076 l 9.2822,3.0510 l -6.1536,6.2053 l 9.2822,3.0510 l -6.1536,6.2053 l 9.2822,3.0510 l -1.5901,-10.8076 l 9.2822,3.0510 l -6.1536,6.2053 l 9.2822,3.0510 l -6.1536,6.2053 l 9.2822,3.0510 l -1.5901,-10.8076 l 9.2822,3.0510 l -1.5901,-10.8076 l -10.0126,6.9939 l -1.5901,-10.8076 l 9.2822,3.0510 l -1.5901,-10.8076 l 9.2822,3.0510 l -1.5901,-10.8076 l -10.0126,6.9939 l -1.5901,-10.8076 l -10.0126,6.9939 l 12.0002,6.5156 l -10.0126,6.9939 l -1.5901,-10.8076 l -10.0126,6.9939 l -1.5901,-10.8076 l 9.2822,3.0510 l -1.5901,-10.8076 l 9.2822,3.0510 l -1.5901,-10.8076 l -10.0126,6.9939 l -1.5901,-10.8076 l 9.2822,3.0510 l -1.5901,-10.8076 l 9.2822,3.0510 l -6.1536,6.2053 l 9.2822,3.0510 l -6.1536,6.2053 l 9.2822,3.0510 l -1.5901,-10.8076 l 9.2822,3.0510 l -6.1536,6.2053 l 9.2822,3.0510 l -6.1536,6.2053 l 9.2822,3.0510 l -1.5901,-10.8076 l 9.2822,3.0510 l -1.5901,-10.8076 l -10.0126,6.9939 l -1.5901,-10.8076 l 9.2822,3.0510 l -1.5901,-10.8076 l 9.2822,3.0510 l -6.1536,6.2053 l 9.2822,3.0510 l -6.1536,6.2053 l 9.2822,3.0510 l -1.5901,-10.8076 l 9.2822,3.0510 l -6.1536,6.2053 l 9.2822,3.0510 l -6.1536,6.2053 l 9.2822,3.0510 l -1.5901,-10.8076 l 9.2822,3.0510 l -1.5901,-10.8076 l -10.0126,6.9939 l -1.5901,-10.8076 l 9.2822,3.0510 l -1.5901,-10.8076 l 9.2822,3.0510 l -1.5901,-10.8076 l -10.0126,6.9939 l -1.5901,-10.8076 l -10.0126,6.9939 l 12.0002,6.5156 l -10.0126,6.9939 l -1.5901,-10.8076 l -10.0126,6.9939 l -1.5901,-10.8076 l 9.2822,3.0510 l -1.5901,-10.8076 l 9.2822,3.0510 l -1.5901,-10.8076 l -10.0126,6.9939 l -1.5901,-10.8076 l 9.2822,3.0510 l -1.5901,-10.8076 l 9.2822,3.0510 l -1.5901,-10.8076 l -10.0126,6.9939 l -1.5901,-10.8076 l -10.0126,6.9939 l 12.0002,6.5156 l -10.0126,6.9939 l -1.5901,-10.8076 l -10.0126,6.9939 l -1.5901,-10.8076 l -10.0126,6.9939 l 12.0002,6.5156 l -10.0126,6.9939 l 12.0002,6.5156 l 0.5155,-15.2580 l 12.0002,6.5156 l -10.0126,6.9939 l 12.0002,6.5156 l -10.0126,6.9939 l -1.5901,-10.8076 l -10.0126,6.9939 l -1.5901,-10.8076 l -10.0126,6.9939 l 12.0002,6.5156 l -10.0126,6.9939 l -1.5901,-10.8076 l -10.0126,6.9939 l -1.5901,-10.8076 l 9.2822,3.0510 l -1.5901,-10.8076 l 9.2822,3.0510 l -1.5901,-10.8076 l -10.0126,6.9939 l -1.5901,-10.8076 l 9.2822,3.0510 l -1.5901,-10.8076 l 9.2822,3.0510 l -1.5901,-10.8076 l -10.0126,6.9939 l -1.5901,-10.8076 l -10.0126,6.9939 l 12.0002,6.5156 l -10.0126,6.9939 l -1.5901,-10.8076 l -10.0126,6.9939 l -1.5901,-10.8076 l 9.2822,3.0510 l -1.5901,-10.8076 l 9.2822,3.0510 l -1.5901,-10.8076 l -10.0126,6.9939 l -1.5901,-10.8076 l 9.2822,3.0510 l -1.5901,-10.8076 l 9.2822,3.0510 l -6.1536,6.2053 l 9.2822,3.0510 l -6.1536,6.2053 l 9.2822,3.0510 l -1.5901,-10.8076 l 9.2822,3.0510 l -6.1536,6.2053 l 9.2822,3.0510 l -6.1536,6.2053 l 9.2822,3.0510 l -1.5901,-10.8076 l 9.2822,3.0510 l -1.5901,-10.8076 l -10.0126,6.9939 l -1.5901,-10.8076 l 9.2822,3.0510 l -1.5901,-10.8076 l 9.2822,3.0510 l -6.1536,6.2053 l 9.2822,3.0510 l -6.1536,6.2053 l 9.2822,3.0510 l -1.5901,-10.8076 l 9.2822,3.0510 l -6.1536,6.2053 l 9.2822,3.0510 l -6.1536,6.2053 l 9.2822,3.0510 l -1.5901,-10.8076 l 9.2822,3.0510 l -1.5901,-10.8076 l -10.0126,6.9939 l -1.5901,-10.8076 l 9.2822,3.0510 l -1.5901,-10.8076 l 9.2822,3.0510 l -1.5901,-10.8076 l -10.0126,6.9939 l -1.5901,-10.8076 l -10.0126,6.9939 l 12.0002,6.5156 l -10.0126,6.9939 l -1.5901,-10.8076 l -10.0126,6.9939 l -1.5901,-10.8076 l 9.2822,3.0510 l -1.5901,-10.8076 l 9.2822,3.0510 l -1.5901,-10.8076 l -10.0126,6.9939 l -1.5901,-10.8076 l 9.2822,3.0510 l -1.5901,-10.8076 l 9.2822,3.0510 l -6.1536,6.2053 l 9.2822,3.0510 l -6.1536,6.2053 l 9.2822,3.0510 l -1.5901,-10.8076 l 9.2822,3.0510 l -6.1536,6.2053 l 9.2822,3.0510 l -6.1536,6.2053 l 9.2822,3.0510 l -1.5901,-10.8076 l 9.2822,3.0510 l -1.5901,-10.8076 l -10.0126,6.9939 l -1.5901,-10.8076 l 9.2822,3.0510 l -1.5901,-10.8076 l 9.2822,3.0510 l -6.1536,6.2053 l 9.2822,3.0510 l -6.1536,6.2053 l 9.2822,3.0510 l -1.5901,-10.8076 l 9.2822,3.0510 l -6.1536,6.2053 l 9.2822,3.0510 l -6.1536,6.2053 "/></g><g stroke-linejoin="miter" stroke-opacity="1.0" fill-opacity="0.0" stroke="rgb(0,0,0)" stroke-width="1.2586273272388664" fill="rgb(0,0,0)" stroke-linecap="butt" stroke-miterlimit="10.0"><path d="M 46.1539,169.9150 h 92.3078 l -46.1539,-92.3078 h 92.3078 "/></g></svg>