<?xml version="1.0" encoding="UTF-8"?>
<!DOCTYPE svg PUBLIC "-//W3C//DTD SVG 1.1//EN"
    "http://www.w3.org/Graphics/SVG/1.1/DTD/svg11.dtd">
<svg xmlns="http://www.w3.org/2000/svg" xmlns:xlink="http://www.w3.org/1999/xlink" version="1.1" width="300.0" height="186.49538102064614" font-size="1" viewBox="0 0 300 186"><g><g stroke="rgb(0,0,0)" stroke-opacity="1.0" fill="rgb(0,0,0)" fill-opacity="0.0" stroke-width="1.0e-2" stroke-linecap="butt" stroke-linejoin="miter" font-size="1.0em" stroke-miterlimit="10.0"><g transform="matrix(20.3527815468114,0.0,0.0,20.3527815468114,150.0,93.24769051032307)"><g stroke-width="3.0e-2"><path d="M -1.1499999999999995,-2.6650635094610964 l 5.35,5.386751345948129 " /><path d="M -1.1499999999999995,-2.6650635094610964 l -3.1500000000000004,5.386751345948129 " /><path d="M -1.1499999999999995,-2.6650635094610964 l -5.35,5.386751345948129 " /><g><path d="M 6.7,4.165063509461096 l -2.500000000000001,-4.330127018922193 l -2.4999999999999996,4.330127018922193 h 5.0 Z" /></g><g><g><path d="M 0.7000000000000002,2.7216878364870327 c 0.0,-0.5522847498307935 -0.44771525016920644,-1.0 -0.9999999999999998 -1.0c -0.5522847498307935,-3.3817687554908895e-17 -1.0,0.4477152501692064 -1.0 0.9999999999999997c -6.763537510981779e-17,0.5522847498307935 0.4477152501692063,1.0 0.9999999999999996 1.0c 0.5522847498307935,1.0145306266472669e-16 1.0,-0.44771525016920627 1.0000000000000002 -0.9999999999999997Z" /></g><g><path d="M -1.2999999999999998,2.7216878364870327 c 0.0,-0.5522847498307935 -0.44771525016920644,-1.0 -0.9999999999999998 -1.0c -0.5522847498307935,-3.3817687554908895e-17 -1.0,0.4477152501692064 -1.0 0.9999999999999997c -6.763537510981779e-17,0.5522847498307935 0.4477152501692063,1.0 0.9999999999999996 1.0c 0.5522847498307935,1.0145306266472669e-16 1.0,-0.44771525016920627 1.0000000000000002 -0.9999999999999997Z" /></g><g><path d="M -3.3,2.7216878364870327 c 0.0,-0.5522847498307935 -0.44771525016920644,-1.0 -0.9999999999999998 -1.0c -0.5522847498307935,-3.3817687554908895e-17 -1.0,0.4477152501692064 -1.0 0.9999999999999997c -6.763537510981779e-17,0.5522847498307935 0.4477152501692063,1.0 0.9999999999999996 1.0c 0.5522847498307935,1.0145306266472669e-16 1.0,-0.44771525016920627 1.0000000000000002 -0.9999999999999997Z" /></g></g><g><path d="M -6.299999999999999,2.7216878364870327 c 0.0,-0.1104569499661587 -8.954305003384129e-2,-0.2 -0.19999999999999996 -0.2c -0.1104569499661587,-6.763537510981779e-18 -0.2,8.954305003384128e-2 -0.2 0.19999999999999996c -1.3527075021963559e-17,0.1104569499661587 8.954305003384128e-2,0.2 0.19999999999999993 0.2c 0.1104569499661587,2.029061253294534e-17 0.2,-8.954305003384126e-2 0.20000000000000004 -0.19999999999999996Z" /></g><g><path d="M -0.6499999999999994,-1.1650635094610964 l -1.1102230246251565e-16,-3.0 h -1.0 l -1.1102230246251565e-16,3.0 h 1.0 Z" /></g></g></g></g></g></svg>