<svg xmlns="http://www.w3.org/2000/svg" height="400.0000" stroke-opacity="1" viewBox="0 0 400 400" font-size="1" width="400.0000" xmlns:xlink="http://www.w3.org/1999/xlink" stroke="rgb(0,0,0)" version="1.1"><defs></defs><g stroke-linejoin="miter" stroke-opacity="1.0" fill-opacity="0.0" stroke="rgb(0,0,0)" stroke-width="1.6000000000006376" fill="rgb(0,0,0)" stroke-linecap="butt" stroke-miterlimit="10.0"><path d="M 329.8701,243.2900 h 17.3160 h 17.3160 l 0.0000,17.3160 h 17.3160 l 0.0000,17.3160 l -17.3160,0.0000 l -17.3160,0.0000 l -17.3160,0.0000 l -17.3160,0.0000 l -0.0000,-17.3160 l -17.3160,0.0000 l -0.0000,-17.3160 l 17.3160,-0.0000 l 17.3160,-0.0000 l 0.0000,17.3160 l 0.0000,17.3160 l -17.3160,0.0000 l 0.0000,17.3160 l -17.3160,0.0000 l -0.0000,-17.3160 l -0.0000,-17.3160 l -17.3160,0.0000 l -17.3160,0.0000 l -0.0000,-17.3160 l -17.3160,0.0000 l -0.0000,-17.3160 l 17.3160,-0.0000 l 17.3160,-0.0000 l 0.0000,17.3160 l 0.0000,17.3160 l -17.3160,0.0000 l 0.0000,17.3160 l -17.3160,0.0000 l -0.0000,-17.3160 l -0.0000,-17.3160 l 17.3160,-0.0000 l 17.3160,-0.0000 l -0.0000,17.3160 l 17.3160,-0.0000 l -0.0000,17.3160 l -17.3160,-0.0000 l -17.3160,-0.0000 l -17.3160,-0.0000 l -17.3160,-0.0000 l 0.0000,-17.3160 l -17.3160,-0.0000 l 0.0000,-17.3160 l 17.3160,0.0000 l 17.3160,0.0000 l 17.3160,0.0000 l 17.3160,0.0000 l -0.0000,17.3160 l 17.3160,0.0000 l -0.0000,17.3160 l -17.3160,-0.0000 l -17.3160,-0.0000 l -17.3160,-0.0000 l -17.3160,-0.0000 l 0.0000,-17.3160 l -17.3160,-0.0000 l 0.0000,-17.3160 l 17.3160,0.0000 l 17.3160,0.0000 l -0.0000,17.3160 l -0.0000,17.3160 l -17.3160,-0.0000 l -0.0000,17.3160 l -17.3160,-0.0000 l 0.0000,-17.3160 l 0.0000,-17.3160 l -17.3160,-0.0000 l -17.3160,-0.0000 l 0.0000,-17.3160 l -17.3160,-0.0000 l 0.0000,-17.3160 l 17.3160,0.0000 l 17.3160,0.0000 l -0.0000,17.3160 l -0.0000,17.3160 l -17.3160,-0.0000 l -0.0000,17.3160 l -17.3160,-0.0000 l 0.0000,-17.3160 l 0.0000,-17.3160 l 17.3160,0.0000 l 17.3160,0.0000 l -0.0000,17.3160 l 17.3160,0.0000 l -0.0000,17.3160 l -17.3160,-0.0000 l -17.3160,-0.0000 l -17.3160,-0.0000 l -17.3160,-0.0000 l 0.0000,-17.3160 l -17.3160,-0.0000 l 0.0000,-17.3160 l 17.3160,0.0000 l 17.3160,0.0000 l -0.0000,17.3160 l -0.0000,17.3160 l -17.3160,-0.0000 l -0.0000,17.3160 l -17.3160,-0.0000 l 0.0000,-17.3160 l 0.0000,-17.3160 l 0.0000,-17.3160 l 0.0000,-17.3160 l 17.3160,0.0000 l 0.0000,-17.3160 l 17.3160,0.0000 l -0.0000,17.3160 l -0.0000,17.3160 l -17.3160,-0.0000 l -17.3160,-0.0000 l 0.0000,-17.3160 l -17.3160,-0.0000 l 0.0000,-17.3160 l 17.3160,0.0000 l 17.3160,0.0000 l 0.0000,-17.3160 l 0.0000,-17.3160 l 17.3160,0.0000 l 0.0000,-17.3160 l 17.3160,0.0000 l -0.0000,17.3160 l -0.0000,17.3160 l -17.3160,-0.0000 l -17.3160,-0.0000 l 0.0000,-17.3160 l -17.3160,-0.0000 l 0.0000,-17.3160 l 17.3160,0.0000 l 17.3160,0.0000 l -0.0000,17.3160 l -0.0000,17.3160 l -17.3160,-0.0000 l -0.0000,17.3160 l -17.3160,-0.0000 l 0.0000,-17.3160 l 0.0000,-17.3160 l 0.0000,-17.3160 l 0.0000,-17.3160 l 17.3160,0.0000 l 0.0000,-17.3160 l 17.3160,0.0000 l -0.0000,17.3160 l -0.0000,17.3160 l 17.3160,0.0000 l 17.3160,0.0000 l -0.0000,17.3160 l 17.3160,0.0000 l -0.0000,17.3160 l -17.3160,-0.0000 l -17.3160,-0.0000 l -17.3160,-0.0000 l -17.3160,-0.0000 l -0.0000,-17.3160 l -17.3160,-0.0000 l -0.0000,-17.3160 l 17.3160,-0.0000 l 17.3160,-0.0000 l 0.0000,17.3160 l 0.0000,17.3160 l -17.3160,0.0000 l 0.0000,17.3160 l -17.3160,0.0000 l -0.0000,-17.3160 l -0.0000,-17.3160 l -17.3160,0.0000 l -17.3160,0.0000 l -0.0000,-17.3160 l -17.3160,0.0000 l -0.0000,-17.3160 l 17.3160,-0.0000 l 17.3160,-0.0000 l 0.0000,17.3160 l 0.0000,17.3160 l -17.3160,0.0000 l 0.0000,17.3160 l -17.3160,0.0000 l -0.0000,-17.3160 l -0.0000,-17.3160 l 17.3160,-0.0000 l 17.3160,-0.0000 l 0.0000,17.3160 l 17.3160,-0.0000 l 0.0000,17.3160 l -17.3160,0.0000 l -17.3160,0.0000 l -17.3160,0.0000 l -17.3160,0.0000 l -0.0000,-17.3160 l -17.3160,0.0000 l -0.0000,-17.3160 l 17.3160,-0.0000 l 17.3160,-0.0000 l 0.0000,17.3160 l 0.0000,17.3160 l -17.3160,0.0000 l 0.0000,17.3160 l -17.3160,0.0000 l -0.0000,-17.3160 l -0.0000,-17.3160 l -0.0000,-17.3160 l -0.0000,-17.3160 l 17.3160,-0.0000 l -0.0000,-17.3160 l 17.3160,-0.0000 l 0.0000,17.3160 l 0.0000,17.3160 l -17.3160,0.0000 l -17.3160,0.0000 l -0.0000,-17.3160 l -17.3160,0.0000 l -0.0000,-17.3160 l 17.3160,-0.0000 l 17.3160,-0.0000 l -0.0000,-17.3160 l -0.0000,-17.3160 l 17.3160,-0.0000 l -0.0000,-17.3160 l 17.3160,-0.0000 l 0.0000,17.3160 l 0.0000,17.3160 l -17.3160,0.0000 l -17.3160,0.0000 l -0.0000,-17.3160 l -17.3160,0.0000 l -0.0000,-17.3160 l 17.3160,-0.0000 l 17.3160,-0.0000 l 0.0000,17.3160 l 0.0000,17.3160 l -17.3160,0.0000 l 0.0000,17.3160 l -17.3160,0.0000 l -0.0000,-17.3160 l -0.0000,-17.3160 l -0.0000,-17.3160 l -0.0000,-17.3160 l 17.3160,-0.0000 l -0.0000,-17.3160 l 17.3160,-0.0000 l 0.0000,17.3160 l 0.0000,17.3160 l -17.3160,0.0000 l -17.3160,0.0000 l -0.0000,-17.3160 l -17.3160,0.0000 l -0.0000,-17.3160 l 17.3160,-0.0000 l 17.3160,-0.0000 l 17.3160,-0.0000 l 17.3160,-0.0000 l 0.0000,17.3160 l 17.3160,-0.0000 l 0.0000,17.3160 l -17.3160,0.0000 l -17.3160,0.0000 l -0.0000,-17.3160 l -0.0000,-17.3160 l 17.3160,-0.0000 l -0.0000,-17.3160 l 17.3160,-0.0000 l 0.0000,17.3160 l 0.0000,17.3160 l 17.3160,-0.0000 l 17.3160,-0.0000 l 0.0000,17.3160 l 17.3160,-0.0000 l 0.0000,17.3160 l -17.3160,0.0000 l -17.3160,0.0000 l -0.0000,-17.3160 l -0.0000,-17.3160 l 17.3160,-0.0000 l -0.0000,-17.3160 l 17.3160,-0.0000 l 0.0000,17.3160 l 0.0000,17.3160 l -17.3160,0.0000 l -17.3160,0.0000 l -0.0000,-17.3160 l -17.3160,0.0000 l -0.0000,-17.3160 l 17.3160,-0.0000 l 17.3160,-0.0000 l 17.3160,-0.0000 l 17.3160,-0.0000 l 0.0000,17.3160 l 17.3160,-0.0000 l 0.0000,17.3160 l -17.3160,0.0000 l -17.3160,0.0000 l -17.3160,0.0000 l -17.3160,0.0000 l -0.0000,-17.3160 l -17.3160,0.0000 l -0.0000,-17.3160 l 17.3160,-0.0000 l 17.3160,-0.0000 l 17.3160,-0.0000 l 17.3160,-0.0000 l 0.0000,17.3160 l 17.3160,-0.0000 l 0.0000,17.3160 l -17.3160,0.0000 l -17.3160,0.0000 l -0.0000,-17.3160 l -0.0000,-17.3160 l 17.3160,-0.0000 l -0.0000,-17.3160 l 17.3160,-0.0000 l 0.0000,17.3160 l 0.0000,17.3160 l 17.3160,-0.0000 l 17.3160,-0.0000 l 0.0000,17.3160 l 17.3160,-0.0000 l 0.0000,17.3160 l -17.3160,0.0000 l -17.3160,0.0000 l -0.0000,-17.3160 l -0.0000,-17.3160 l 17.3160,-0.0000 l -0.0000,-17.3160 l 17.3160,-0.0000 l 0.0000,17.3160 l 0.0000,17.3160 l -17.3160,0.0000 l -17.3160,0.0000 l -0.0000,-17.3160 l -17.3160,0.0000 l -0.0000,-17.3160 l 17.3160,-0.0000 l 17.3160,-0.0000 l 17.3160,-0.0000 l 17.3160,-0.0000 l 0.0000,17.3160 l 17.3160,-0.0000 l 0.0000,17.3160 l -17.3160,0.0000 l -17.3160,0.0000 l -0.0000,-17.3160 l -0.0000,-17.3160 l 17.3160,-0.0000 l -0.0000,-17.3160 l 17.3160,-0.0000 l 0.0000,17.3160 l 0.0000,17.3160 l 0.0000,17.3160 l 0.0000,17.3160 l -17.3160,0.0000 l 0.0000,17.3160 l -17.3160,0.0000 l -0.0000,-17.3160 l -0.0000,-17.3160 l 17.3160,-0.0000 l 17.3160,-0.0000 l 0.0000,17.3160 l 17.3160,-0.0000 l 0.0000,17.3160 l -17.3160,0.0000 l -17.3160,0.0000 l 0.0000,17.3160 l 0.0000,17.3160 l -17.3160,0.0000 l 0.0000,17.3160 l -17.3160,0.0000 l -0.0000,-17.3160 l -0.0000,-17.3160 l 17.3160,-0.0000 l 17.3160,-0.0000 l 0.0000,17.3160 l 17.3160,-0.0000 l 0.0000,17.3160 l -17.3160,0.0000 l -17.3160,0.0000 l -0.0000,-17.3160 l -0.0000,-17.3160 l 17.3160,-0.0000 l -0.0000,-17.3160 l 17.3160,-0.0000 l 0.0000,17.3160 l 0.0000,17.3160 l 0.0000,17.3160 l 0.0000,17.3160 l -17.3160,0.0000 l 0.0000,17.3160 l -17.3160,0.0000 l -0.0000,-17.3160 l -0.0000,-17.3160 l -0.0000,-17.3160 l -0.0000,-17.3160 l 17.3160,-0.0000 l -0.0000,-17.3160 l 17.3160,-0.0000 l 0.0000,17.3160 l 0.0000,17.3160 l 0.0000,17.3160 l 0.0000,17.3160 l -17.3160,0.0000 l 0.0000,17.3160 l -17.3160,0.0000 l -0.0000,-17.3160 l -0.0000,-17.3160 l 17.3160,-0.0000 l 17.3160,-0.0000 l 0.0000,17.3160 l 17.3160,-0.0000 l 0.0000,17.3160 l -17.3160,0.0000 l -17.3160,0.0000 l 0.0000,17.3160 l 0.0000,17.3160 l -17.3160,0.0000 l 0.0000,17.3160 l -17.3160,0.0000 l -0.0000,-17.3160 l -0.0000,-17.3160 l 17.3160,-0.0000 l 17.3160,-0.0000 l 0.0000,17.3160 l 17.3160,-0.0000 l 0.0000,17.3160 l -17.3160,0.0000 l -17.3160,0.0000 l -0.0000,-17.3160 l -0.0000,-17.3160 l 17.3160,-0.0000 l -0.0000,-17.3160 l 17.3160,-0.0000 l 0.0000,17.3160 l 0.0000,17.3160 l 0.0000,17.3160 l 0.0000,17.3160 l -17.3160,0.0000 l 0.0000,17.3160 l -17.3160,0.0000 l -0.0000,-17.3160 l -0.0000,-17.3160 l 17.3160,-0.0000 l 17.3160,-0.0000 l 0.0000,17.3160 l 17.3160,-0.0000 l 0.0000,17.3160 l -17.3160,0.0000 l -17.3160,0.0000 l -17.3160,0.0000 l -17.3160,0.0000 l -0.0000,-17.3160 l -17.3160,0.0000 l -0.0000,-17.3160 l 17.3160,-0.0000 l 17.3160,-0.0000 l 0.0000,17.3160 l 0.0000,17.3160 l -17.3160,0.0000 l 0.0000,17.3160 l -17.3160,0.0000 l -0.0000,-17.3160 l -0.0000,-17.3160 l -17.3160,0.0000 l -17.3160,0.0000 l -0.0000,-17.3160 l -17.3160,0.0000 l -0.0000,-17.3160 l 17.3160,-0.0000 l 17.3160,-0.0000 l 0.0000,17.3160 l 0.0000,17.3160 l -17.3160,0.0000 l 0.0000,17.3160 l -17.3160,0.0000 l -0.0000,-17.3160 l -0.0000,-17.3160 l 17.3160,-0.0000 l 17.3160,-0.0000 l 0.0000,17.3160 l 17.3160,-0.0000 l 0.0000,17.3160 l -17.3160,0.0000 l -17.3160,0.0000 l -17.3160,0.0000 l -17.3160,0.0000 l -0.0000,-17.3160 l -17.3160,0.0000 l -0.0000,-17.3160 l 17.3160,-0.0000 l 17.3160,-0.0000 l -0.0000,-17.3160 l -0.0000,-17.3160 l 17.3160,-0.0000 l -0.0000,-17.3160 l 17.3160,-0.0000 l 0.0000,17.3160 l 0.0000,17.3160 l 0.0000,17.3160 l 0.0000,17.3160 l -17.3160,0.0000 l 0.0000,17.3160 l -17.3160,0.0000 l -0.0000,-17.3160 l -0.0000,-17.3160 l 17.3160,-0.0000 l 17.3160,-0.0000 l 0.0000,17.3160 l 17.3160,-0.0000 l 0.0000,17.3160 l -17.3160,0.0000 l -17.3160,0.0000 l 0.0000,17.3160 l 0.0000,17.3160 l -17.3160,0.0000 l 0.0000,17.3160 l -17.3160,0.0000 l -0.0000,-17.3160 l -0.0000,-17.3160 l 17.3160,-0.0000 l 17.3160,-0.0000 l 0.0000,17.3160 l 17.3160,-0.0000 l 0.0000,17.3160 l -17.3160,0.0000 l -17.3160,0.0000 l -0.0000,-17.3160 l -0.0000,-17.3160 l 17.3160,-0.0000 l -0.0000,-17.3160 l 17.3160,-0.0000 l 0.0000,17.3160 l 0.0000,17.3160 l 0.0000,17.3160 l 0.0000,17.3160 l -17.3160,0.0000 l 0.0000,17.3160 l -17.3160,0.0000 l -0.0000,-17.3160 l -0.0000,-17.3160 l 17.3160,-0.0000 l 17.3160,-0.0000 l 0.0000,17.3160 l 17.3160,-0.0000 l 0.0000,17.3160 l -17.3160,0.0000 l -17.3160,0.0000 l -17.3160,0.0000 l -17.3160,0.0000 l -0.0000,-17.3160 l -17.3160,0.0000 l -0.0000,-17.3160 l 17.3160,-0.0000 l 17.3160,-0.0000 l 0.0000,17.3160 l 0.0000,17.3160 l -17.3160,0.0000 l 0.0000,17.3160 l -17.3160,0.0000 l -0.0000,-17.3160 l -0.0000,-17.3160 l -17.3160,0.0000 l -17.3160,0.0000 l -0.0000,-17.3160 l -17.3160,0.0000 l -0.0000,-17.3160 l 17.3160,-0.0000 l 17.3160,-0.0000 l 0.0000,17.3160 l 0.0000,17.3160 l -17.3160,0.0000 l 0.0000,17.3160 l -17.3160,0.0000 l -0.0000,-17.3160 l -0.0000,-17.3160 l 17.3160,-0.0000 l 17.3160,-0.0000 l 0.0000,17.3160 l 17.3160,-0.0000 l 0.0000,17.3160 l -17.3160,0.0000 l -17.3160,0.0000 l -17.3160,0.0000 l -17.3160,0.0000 l -0.0000,-17.3160 l -17.3160,0.0000 l -0.0000,-17.3160 l 17.3160,-0.0000 l 17.3160,-0.0000 l 0.0000,17.3160 l 0.0000,17.3160 l -17.3160,0.0000 l 0.0000,17.3160 l -17.3160,0.0000 l -0.0000,-17.3160 l -0.0000,-17.3160 l -0.0000,-17.3160 l -0.0000,-17.3160 l 17.3160,-0.0000 l -0.0000,-17.3160 l 17.3160,-0.0000 l 0.0000,17.3160 l 0.0000,17.3160 l -17.3160,0.0000 l -17.3160,0.0000 l -0.0000,-17.3160 l -17.3160,0.0000 l -0.0000,-17.3160 l 17.3160,-0.0000 l 17.3160,-0.0000 l -0.0000,-17.3160 l -0.0000,-17.3160 l 17.3160,-0.0000 l -0.0000,-17.3160 l 17.3160,-0.0000 l 0.0000,17.3160 l 0.0000,17.3160 l -17.3160,0.0000 l -17.3160,0.0000 l -0.0000,-17.3160 l -17.3160,0.0000 l -0.0000,-17.3160 l 17.3160,-0.0000 l 17.3160,-0.0000 l 0.0000,17.3160 l 0.0000,17.3160 l -17.3160,0.0000 l 0.0000,17.3160 l -17.3160,0.0000 l -0.0000,-17.3160 l -0.0000,-17.3160 l -0.0000,-17.3160 l -0.0000,-17.3160 l 17.3160,-0.0000 l -0.0000,-17.3160 l 17.3160,-0.0000 l 0.0000,17.3160 l 0.0000,17.3160 l 0.0000,17.3160 l 0.0000,17.3160 l -17.3160,0.0000 l 0.0000,17.3160 l -17.3160,0.0000 l -0.0000,-17.3160 l -0.0000,-17.3160 l -0.0000,-17.3160 l -0.0000,-17.3160 l 17.3160,-0.0000 l -0.0000,-17.3160 l 17.3160,-0.0000 l 0.0000,17.3160 l 0.0000,17.3160 l -17.3160,0.0000 l -17.3160,0.0000 l -0.0000,-17.3160 l -17.3160,0.0000 l -0.0000,-17.3160 l 17.3160,-0.0000 l 17.3160,-0.0000 l -0.0000,-17.3160 l -0.0000,-17.3160 l 17.3160,-0.0000 l -0.0000,-17.3160 l 17.3160,-0.0000 l 0.0000,17.3160 l 0.0000,17.3160 l -17.3160,0.0000 l -17.3160,0.0000 l -0.0000,-17.3160 l -17.3160,0.0000 l -0.0000,-17.3160 l 17.3160,-0.0000 l 17.3160,-0.0000 l 0.0000,17.3160 l 0.0000,17.3160 l -17.3160,0.0000 l 0.0000,17.3160 l -17.3160,0.0000 l -0.0000,-17.3160 l -0.0000,-17.3160 l -0.0000,-17.3160 l -0.0000,-17.3160 l 17.3160,-0.0000 l -0.0000,-17.3160 l 17.3160,-0.0000 l 0.0000,17.3160 l 0.0000,17.3160 l -17.3160,0.0000 l -17.3160,0.0000 l -0.0000,-17.3160 l -17.3160,0.0000 l -0.0000,-17.3160 l 17.3160,-0.0000 l 17.3160,-0.0000 l 17.3160,-0.0000 l 17.3160,-0.0000 l 0.0000,17.3160 l 17.3160,-0.0000 l 0.0000,17.3160 l -17.3160,0.0000 l -17.3160,0.0000 l -0.0000,-17.3160 l -0.0000,-17.3160 l 17.3160,-0.0000 l -0.0000,-17.3160 l 17.3160,-0.0000 l 0.0000,17.3160 l 0.0000,17.3160 l 17.3160,-0.0000 l 17.3160,-0.0000 l 0.0000,17.3160 l 17.3160,-0.0000 l 0.0000,17.3160 l -17.3160,0.0000 l -17.3160,0.0000 l -0.0000,-17.3160 l -0.0000,-17.3160 l 17.3160,-0.0000 l -0.0000,-17.3160 l 17.3160,-0.0000 l 0.0000,17.3160 l 0.0000,17.3160 l -17.3160,0.0000 l -17.3160,0.0000 l -0.0000,-17.3160 l -17.3160,0.0000 l -0.0000,-17.3160 l 17.3160,-0.0000 l 17.3160,-0.0000 l 17.3160,-0.0000 l 17.3160,-0.0000 l 0.0000,17.3160 l 17.3160,-0.0000 l 0.0000,17.3160 l -17.3160,0.0000 l -17.3160,0.0000 l -17.3160,0.0000 l -17.3160,0.0000 l -0.0000,-17.3160 l -17.3160,0.0000 l -0.0000,-17.3160 l 17.3160,-0.0000 l 17.3160,-0.0000 l 17.3160,-0.0000 l 17.3160,-0.0000 l 0.0000,17.3160 l 17.3160,-0.0000 l 0.0000,17.3160 l -17.3160,0.0000 l -17.3160,0.0000 l -0.0000,-17.3160 l -0.0000,-17.3160 l 17.3160,-0.0000 l -0.0000,-17.3160 l 17.3160,-0.0000 l 0.0000,17.3160 l 0.0000,17.3160 l 17.3160,-0.0000 l 17.3160,-0.0000 l 0.0000,17.3160 l 17.3160,-0.0000 l 0.0000,17.3160 l -17.3160,0.0000 l -17.3160,0.0000 l -0.0000,-17.3160 l -0.0000,-17.3160 l 17.3160,-0.0000 l -0.0000,-17.3160 l 17.3160,-0.0000 l 0.0000,17.3160 l 0.0000,17.3160 l -17.3160,0.0000 l -17.3160,0.0000 l -0.0000,-17.3160 l -17.3160,0.0000 l -0.0000,-17.3160 l 17.3160,-0.0000 l 17.3160,-0.0000 l 17.3160,-0.0000 l 17.3160,-0.0000 l 0.0000,17.3160 l 17.3160,-0.0000 l 0.0000,17.3160 l -17.3160,0.0000 l -17.3160,0.0000 l -0.0000,-17.3160 l -0.0000,-17.3160 l 17.3160,-0.0000 l -0.0000,-17.3160 l 17.3160,-0.0000 l 0.0000,17.3160 l 0.0000,17.3160 l 0.0000,17.3160 l 0.0000,17.3160 l -17.3160,0.0000 l 0.0000,17.3160 l -17.3160,0.0000 l -0.0000,-17.3160 l -0.0000,-17.3160 l 17.3160,-0.0000 l 17.3160,-0.0000 l 0.0000,17.3160 l 17.3160,-0.0000 l 0.0000,17.3160 l -17.3160,0.0000 l -17.3160,0.0000 l 0.0000,17.3160 l 0.0000,17.3160 l -17.3160,0.0000 l 0.0000,17.3160 l -17.3160,0.0000 l -0.0000,-17.3160 l -0.0000,-17.3160 l 17.3160,-0.0000 l 17.3160,-0.0000 l 0.0000,17.3160 l 17.3160,-0.0000 l 0.0000,17.3160 l -17.3160,0.0000 l -17.3160,0.0000 l -0.0000,-17.3160 l -0.0000,-17.3160 l 17.3160,-0.0000 l -0.0000,-17.3160 l 17.3160,-0.0000 l 0.0000,17.3160 l 0.0000,17.3160 l 0.0000,17.3160 l 0.0000,17.3160 l -17.3160,0.0000 l 0.0000,17.3160 l -17.3160,0.0000 l -0.0000,-17.3160 l -0.0000,-17.3160 l -17.3160,0.0000 l -17.3160,0.0000 l -0.0000,-17.3160 l -17.3160,0.0000 l -0.0000,-17.3160 l 17.3160,-0.0000 l 17.3160,-0.0000 l 17.3160,-0.0000 l 17.3160,-0.0000 l 0.0000,17.3160 l 17.3160,-0.0000 l 0.0000,17.3160 l -17.3160,0.0000 l -17.3160,0.0000 l -0.0000,-17.3160 l -0.0000,-17.3160 l 17.3160,-0.0000 l -0.0000,-17.3160 l 17.3160,-0.0000 l 0.0000,17.3160 l 0.0000,17.3160 l 17.3160,-0.0000 l 17.3160,-0.0000 l 0.0000,17.3160 l 17.3160,-0.0000 l 0.0000,17.3160 l -17.3160,0.0000 l -17.3160,0.0000 l -0.0000,-17.3160 l -0.0000,-17.3160 l 17.3160,-0.0000 l -0.0000,-17.3160 l 17.3160,-0.0000 l 0.0000,17.3160 l 0.0000,17.3160 l -17.3160,0.0000 l -17.3160,0.0000 l -0.0000,-17.3160 l -17.3160,0.0000 l -0.0000,-17.3160 l 17.3160,-0.0000 l 17.3160,-0.0000 l 17.3160,-0.0000 l 17.3160,-0.0000 l 0.0000,17.3160 l 17.3160,-0.0000 l 0.0000,17.3160 l -17.3160,0.0000 l -17.3160,0.0000 l -0.0000,-17.3160 l -0.0000,-17.3160 l 17.3160,-0.0000 l -0.0000,-17.3160 l 17.3160,-0.0000 l 0.0000,17.3160 l 0.0000,17.3160 l 0.0000,17.3160 l 0.0000,17.3160 l -17.3160,0.0000 l 0.0000,17.3160 l -17.3160,0.0000 l -0.0000,-17.3160 l -0.0000,-17.3160 l 17.3160,-0.0000 l 17.3160,-0.0000 l 0.0000,17.3160 l 17.3160,-0.0000 l 0.0000,17.3160 l -17.3160,0.0000 l -17.3160,0.0000 l 0.0000,17.3160 l 0.0000,17.3160 l -17.3160,0.0000 l 0.0000,17.3160 l -17.3160,0.0000 l -0.0000,-17.3160 l -0.0000,-17.3160 l 17.3160,-0.0000 l 17.3160,-0.0000 l 0.0000,17.3160 l 17.3160,-0.0000 l 0.0000,17.3160 l -17.3160,0.0000 l -17.3160,0.0000 l -0.0000,-17.3160 l -0.0000,-17.3160 l 17.3160,-0.0000 l -0.0000,-17.3160 l 17.3160,-0.0000 l 0.0000,17.3160 l 0.0000,17.3160 l 0.0000,17.3160 l 0.0000,17.3160 l -17.3160,0.0000 l 0.0000,17.3160 l -17.3160,0.0000 l -0.0000,-17.3160 l -0.0000,-17.3160 l 17.3160,-0.0000 l 17.3160,-0.0000 l 0.0000,17.3160 l 17.3160,-0.0000 l 0.0000,17.3160 l -17.3160,0.0000 l -17.3160,0.0000 l -17.3160,0.0000 l -17.3160,0.0000 l -0.0000,-17.3160 l -17.3160,0.0000 l -0.0000,-17.3160 l 17.3160,-0.0000 l 17.3160,-0.0000 l 0.0000,17.3160 l 0.0000,17.3160 l -17.3160,0.0000 l 0.0000,17.3160 l -17.3160,0.0000 l -0.0000,-17.3160 l -0.0000,-17.3160 l -17.3160,0.0000 l -17.3160,0.0000 l -0.0000,-17.3160 l -17.3160,0.0000 l -0.0000,-17.3160 l 17.3160,-0.0000 l 17.3160,-0.0000 l 0.0000,17.3160 l 0.0000,17.3160 l -17.3160,0.0000 l 0.0000,17.3160 l -17.3160,0.0000 l -0.0000,-17.3160 l -0.0000,-17.3160 l 17.3160,-0.0000 l 17.3160,-0.0000 l 0.0000,17.3160 l 17.3160,-0.0000 l 0.0000,17.3160 l -17.3160,0.0000 l -17.3160,0.0000 l -17.3160,0.0000 l -17.3160,0.0000 l -0.0000,-17.3160 l -17.3160,0.0000 l -0.0000,-17.3160 l 17.3160,-0.0000 l 17.3160,-0.0000 l 17.3160,-0.0000 l 17.3160,-0.0000 l 0.0000,17.3160 l 17.3160,-0.0000 l 0.0000,17.3160 l -17.3160,0.0000 l -17.3160,0.0000 l -17.3160,0.0000 l -17.3160,0.0000 l -0.0000,-17.3160 l -17.3160,0.0000 l -0.0000,-17.3160 l 17.3160,-0.0000 l 17.3160,-0.0000 l 0.0000,17.3160 l 0.0000,17.3160 l -17.3160,0.0000 l 0.0000,17.3160 l -17.3160,0.0000 l -0.0000,-17.3160 l -0.0000,-17.3160 l -17.3160,0.0000 l -17.3160,0.0000 l -0.0000,-17.3160 l -17.3160,0.0000 l -0.0000,-17.3160 l 17.3160,-0.0000 l 17.3160,-0.0000 l 0.0000,17.3160 l 0.0000,17.3160 l -17.3160,0.0000 l 0.0000,17.3160 l -17.3160,0.0000 l -0.0000,-17.3160 l -0.0000,-17.3160 l 17.3160,-0.0000 l 17.3160,-0.0000 l 0.0000,17.3160 l 17.3160,-0.0000 l 0.0000,17.3160 l -17.3160,0.0000 l -17.3160,0.0000 l -17.3160,0.0000 l -17.3160,0.0000 l -0.0000,-17.3160 l -17.3160,0.0000 l -0.0000,-17.3160 l 17.3160,-0.0000 l 17.3160,-0.0000 l 0.0000,17.3160 l 0.0000,17.3160 l -17.3160,0.0000 l 0.0000,17.3160 l -17.3160,0.0000 l -0.0000,-17.3160 l -0.0000,-17.3160 l -0.0000,-17.3160 l -0.0000,-17.3160 l 17.3160,-0.0000 l -0.0000,-17.3160 l 17.3160,-0.0000 l 0.0000,17.3160 l 0.0000,17.3160 l -17.3160,0.0000 l -17.3160,0.0000 l -0.0000,-17.3160 l -17.3160,0.0000 l -0.0000,-17.3160 l 17.3160,-0.0000 l 17.3160,-0.0000 l -0.0000,-17.3160 l -0.0000,-17.3160 l 17.3160,-0.0000 l -0.0000,-17.3160 l 17.3160,-0.0000 l 0.0000,17.3160 l 0.0000,17.3160 l -17.3160,-0.0000 l -17.3160,-0.0000 l 0.0000,-17.3160 l -17.3160,-0.0000 l 0.0000,-17.3160 l 17.3160,0.0000 l 17.3160,0.0000 l -0.0000,17.3160 l -0.0000,17.3160 l -17.3160,-0.0000 l -0.0000,17.3160 l -17.3160,-0.0000 l 0.0000,-17.3160 l 0.0000,-17.3160 l 0.0000,-17.3160 l 0.0000,-17.3160 l 17.3160,0.0000 l 0.0000,-17.3160 l 17.3160,0.0000 l -0.0000,17.3160 l -0.0000,17.3160 l -0.0000,17.3160 l -0.0000,17.3160 l -17.3160,-0.0000 l -0.0000,17.3160 l -17.3160,-0.0000 l 0.0000,-17.3160 l 0.0000,-17.3160 l 0.0000,-17.3160 l 0.0000,-17.3160 l 17.3160,0.0000 l 0.0000,-17.3160 l 17.3160,0.0000 l -0.0000,17.3160 l -0.0000,17.3160 l -17.3160,-0.0000 l -17.3160,-0.0000 l 0.0000,-17.3160 l -17.3160,-0.0000 l 0.0000,-17.3160 l 17.3160,0.0000 l 17.3160,0.0000 l 0.0000,-17.3160 l 0.0000,-17.3160 l 17.3160,0.0000 l 0.0000,-17.3160 l 17.3160,0.0000 l -0.0000,17.3160 l -0.0000,17.3160 l -17.3160,-0.0000 l -17.3160,-0.0000 l 0.0000,-17.3160 l -17.3160,-0.0000 l 0.0000,-17.3160 l 17.3160,0.0000 l 17.3160,0.0000 l -0.0000,17.3160 l -0.0000,17.3160 l -17.3160,-0.0000 l -0.0000,17.3160 l -17.3160,-0.0000 l 0.0000,-17.3160 l 0.0000,-17.3160 l 0.0000,-17.3160 l 0.0000,-17.3160 l 17.3160,0.0000 l 0.0000,-17.3160 l 17.3160,0.0000 l -0.0000,17.3160 l -0.0000,17.3160 l -17.3160,-0.0000 l -17.3160,-0.0000 l 0.0000,-17.3160 l -17.3160,-0.0000 l 0.0000,-17.3160 l 17.3160,0.0000 l 17.3160,0.0000 l 17.3160,0.0000 l 17.3160,0.0000 l -0.0000,17.3160 l 17.3160,0.0000 l -0.0000,17.3160 l -17.3160,-0.0000 l -17.3160,-0.0000 l 0.0000,-17.3160 l 0.0000,-17.3160 l 17.3160,0.0000 l 0.0000,-17.3160 l 17.3160,0.0000 l -0.0000,17.3160 l -0.0000,17.3160 l 17.3160,0.0000 l 17.3160,0.0000 l -0.0000,17.3160 l 17.3160,0.0000 l -0.0000,17.3160 l -17.3160,-0.0000 l -17.3160,-0.0000 l 0.0000,-17.3160 l 0.0000,-17.3160 l 17.3160,0.0000 l 0.0000,-17.3160 l 17.3160,0.0000 l -0.0000,17.3160 l -0.0000,17.3160 l -17.3160,-0.0000 l -17.3160,-0.0000 l 0.0000,-17.3160 l -17.3160,-0.0000 l 0.0000,-17.3160 l 17.3160,0.0000 l 17.3160,0.0000 l 17.3160,0.0000 l 17.3160,0.0000 l -0.0000,17.3160 l 17.3160,0.0000 l -0.0000,17.3160 l -17.3160,-0.0000 l -17.3160,-0.0000 l -0.0000,17.3160 l -0.0000,17.3160 l -17.3160,-0.0000 l -0.0000,17.3160 l -17.3160,-0.0000 l 0.0000,-17.3160 l 0.0000,-17.3160 l 0.0000,-17.3160 l 0.0000,-17.3160 l 17.3160,0.0000 l 0.0000,-17.3160 l 17.3160,0.0000 l -0.0000,17.3160 l -0.0000,17.3160 l -17.3160,-0.0000 l -17.3160,-0.0000 l 0.0000,-17.3160 l -17.3160,-0.0000 l 0.0000,-17.3160 l 17.3160,0.0000 l 17.3160,0.0000 l 0.0000,-17.3160 l 0.0000,-17.3160 l 17.3160,0.0000 l 0.0000,-17.3160 l 17.3160,0.0000 l -0.0000,17.3160 l -0.0000,17.3160 l -17.3160,-0.0000 l -17.3160,-0.0000 l 0.0000,-17.3160 l -17.3160,-0.0000 l 0.0000,-17.3160 l 17.3160,0.0000 l 17.3160,0.0000 l -0.0000,17.3160 l -0.0000,17.3160 l -17.3160,-0.0000 l -0.0000,17.3160 l -17.3160,-0.0000 l 0.0000,-17.3160 l 0.0000,-17.3160 l 0.0000,-17.3160 l 0.0000,-17.3160 l 17.3160,0.0000 l 0.0000,-17.3160 l 17.3160,0.0000 l -0.0000,17.3160 l -0.0000,17.3160 l -17.3160,-0.0000 l -17.3160,-0.0000 l 0.0000,-17.3160 l -17.3160,-0.0000 l 0.0000,-17.3160 l 17.3160,0.0000 l 17.3160,0.0000 l 17.3160,0.0000 l 17.3160,0.0000 l -0.0000,17.3160 l 17.3160,0.0000 l -0.0000,17.3160 l -17.3160,-0.0000 l -17.3160,-0.0000 l 0.0000,-17.3160 l 0.0000,-17.3160 l 17.3160,0.0000 l 0.0000,-17.3160 l 17.3160,0.0000 l -0.0000,17.3160 l -0.0000,17.3160 l 17.3160,0.0000 l 17.3160,0.0000 l -0.0000,17.3160 l 17.3160,0.0000 l -0.0000,17.3160 l -17.3160,-0.0000 l -17.3160,-0.0000 l 0.0000,-17.3160 l 0.0000,-17.3160 l 17.3160,0.0000 l 0.0000,-17.3160 l 17.3160,0.0000 l -0.0000,17.3160 l -0.0000,17.3160 l -17.3160,-0.0000 l -17.3160,-0.0000 l 0.0000,-17.3160 l -17.3160,-0.0000 l 0.0000,-17.3160 l 17.3160,0.0000 l 17.3160,0.0000 l 17.3160,0.0000 l 17.3160,0.0000 l -0.0000,17.3160 l 17.3160,0.0000 l -0.0000,17.3160 l -17.3160,-0.0000 l -17.3160,-0.0000 l 0.0000,-17.3160 l 0.0000,-17.3160 l 17.3160,0.0000 l 0.0000,-17.3160 l 17.3160,0.0000 l -0.0000,17.3160 l -0.0000,17.3160 l -0.0000,17.3160 l -0.0000,17.3160 l -17.3160,-0.0000 l -0.0000,17.3160 l -17.3160,-0.0000 l 0.0000,-17.3160 l 0.0000,-17.3160 l 17.3160,0.0000 l 17.3160,0.0000 l -0.0000,17.3160 l 17.3160,0.0000 l -0.0000,17.3160 l -17.3160,-0.0000 l -17.3160,-0.0000 l -0.0000,17.3160 l -0.0000,17.3160 l -17.3160,-0.0000 l -0.0000,17.3160 l -17.3160,-0.0000 l 0.0000,-17.3160 l 0.0000,-17.3160 l 17.3160,0.0000 l 17.3160,0.0000 l -0.0000,17.3160 l 17.3160,0.0000 l -0.0000,17.3160 l -17.3160,-0.0000 l -17.3160,-0.0000 l 0.0000,-17.3160 l 0.0000,-17.3160 l 17.3160,0.0000 l 0.0000,-17.3160 l 17.3160,0.0000 l -0.0000,17.3160 l -0.0000,17.3160 l -0.0000,17.3160 l -0.0000,17.3160 l -17.3160,-0.0000 l -0.0000,17.3160 l -17.3160,-0.0000 l 0.0000,-17.3160 l 0.0000,-17.3160 l 0.0000,-17.3160 l 0.0000,-17.3160 l 17.3160,0.0000 l 0.0000,-17.3160 l 17.3160,0.0000 l -0.0000,17.3160 l -0.0000,17.3160 l -0.0000,17.3160 l -0.0000,17.3160 l -17.3160,-0.0000 l -0.0000,17.3160 l -17.3160,-0.0000 l 0.0000,-17.3160 l 0.0000,-17.3160 l 17.3160,0.0000 l 17.3160,0.0000 l -0.0000,17.3160 l 17.3160,0.0000 l -0.0000,17.3160 l -17.3160,-0.0000 l -17.3160,-0.0000 l -0.0000,17.3160 l -0.0000,17.3160 l -17.3160,-0.0000 l -0.0000,17.3160 l -17.3160,-0.0000 l 0.0000,-17.3160 l 0.0000,-17.3160 l 17.3160,0.0000 l 17.3160,0.0000 l -0.0000,17.3160 l 17.3160,0.0000 l -0.0000,17.3160 l -17.3160,-0.0000 l -17.3160,-0.0000 l 0.0000,-17.3160 l 0.0000,-17.3160 l 17.3160,0.0000 l 0.0000,-17.3160 l 17.3160,0.0000 l -0.0000,17.3160 l -0.0000,17.3160 l -0.0000,17.3160 l -0.0000,17.3160 l -17.3160,-0.0000 l -0.0000,17.3160 l -17.3160,-0.0000 l 0.0000,-17.3160 l 0.0000,-17.3160 "/></g></svg>