<?xml version="1.0" encoding="UTF-8"?>
<!DOCTYPE svg PUBLIC "-//W3C//DTD SVG 1.1//EN"
    "http://www.w3.org/Graphics/SVG/1.1/DTD/svg11.dtd">
<svg xmlns="http://www.w3.org/2000/svg" xmlns:xlink="http://www.w3.org/1999/xlink" version="1.1" width="400.0" height="52.48638810814779" font-size="1" viewBox="0 0 400 52"><g><g fill="rgb(0,0,0)" fill-opacity="0.0"><g stroke="rgb(0,0,0)" stroke-opacity="1.0" stroke-width="0.5795799201940539" stroke-linecap="butt" stroke-linejoin="miter" font-size="165.28925619834703em" stroke-miterlimit="10.0"><g><g><path d="M 216.5289256198346,50.10064319414107 h 2.040608101214161 l 1.0203040506070806,-1.76721845481979 l 1.0203040506070806,1.76721845481979 h 2.040608101214161 l 1.0203040506070806,-1.76721845481979 l -1.0203040506070797,-1.7672184548197905 l 2.040608101214161,-1.4336557652700879e-16 l 1.0203040506070806,-1.76721845481979 l 1.0203040506070806,1.76721845481979 l 2.040608101214161,1.4336557652700879e-16 l -1.0203040506070797,1.7672184548197905 l 1.0203040506070806,1.76721845481979 h 2.040608101214161 l 1.0203040506070806,-1.76721845481979 l 1.0203040506070806,1.76721845481979 h 2.040608101214161 l 1.0203040506070806,-1.76721845481979 l -1.0203040506070797,-1.7672184548197905 l 2.040608101214161,-1.4336557652700879e-16 l 1.0203040506070806,-1.76721845481979 l -1.0203040506070793,-1.7672184548197911 l -2.040608101214161,-1.7203869183241053e-15 l 1.0203040506070813,-1.7672184548197898 l -1.0203040506070793,-1.7672184548197911 h 2.040608101214161 l 1.0203040506070806,-1.76721845481979 l 1.0203040506070806,1.76721845481979 h 2.040608101214161 l 1.0203040506070806,-1.76721845481979 l -1.0203040506070797,-1.7672184548197905 l 2.040608101214161,-1.4336557652700879e-16 l 1.0203040506070806,-1.76721845481979 l 1.0203040506070806,1.76721845481979 l 2.040608101214161,1.4336557652700879e-16 l -1.0203040506070797,1.7672184548197905 l 1.0203040506070806,1.76721845481979 h 2.040608101214161 l 1.0203040506070806,-1.76721845481979 l 1.0203040506070806,1.76721845481979 h 2.040608101214161 l -1.0203040506070793,1.7672184548197911 l 1.0203040506070813,1.7672184548197898 l -2.040608101214161,1.7203869183241053e-15 l -1.0203040506070793,1.7672184548197911 l 1.0203040506070806,1.76721845481979 l 2.040608101214161,1.4336557652700879e-16 l -1.0203040506070797,1.7672184548197905 l 1.0203040506070806,1.76721845481979 h 2.040608101214161 l 1.0203040506070806,-1.76721845481979 l 1.0203040506070806,1.76721845481979 h 2.040608101214161 l 1.0203040506070806,-1.76721845481979 l -1.0203040506070797,-1.7672184548197905 l 2.040608101214161,-1.4336557652700879e-16 l 1.0203040506070806,-1.76721845481979 l 1.0203040506070806,1.76721845481979 l 2.040608101214161,1.4336557652700879e-16 l -1.0203040506070797,1.7672184548197905 l 1.0203040506070806,1.76721845481979 h 2.040608101214161 l 1.0203040506070806,-1.76721845481979 l 1.0203040506070806,1.76721845481979 h 2.040608101214161 l 1.0203040506070806,-1.76721845481979 l -1.0203040506070797,-1.7672184548197905 l 2.040608101214161,-1.4336557652700879e-16 l 1.0203040506070806,-1.76721845481979 l -1.0203040506070793,-1.7672184548197911 l -2.040608101214161,-1.7203869183241053e-15 l 1.0203040506070813,-1.7672184548197898 l -1.0203040506070793,-1.7672184548197911 h 2.040608101214161 l 1.0203040506070806,-1.76721845481979 l 1.0203040506070806,1.76721845481979 h 2.040608101214161 l 1.0203040506070806,-1.76721845481979 l -1.0203040506070797,-1.7672184548197905 l 2.040608101214161,-1.4336557652700879e-16 l 1.0203040506070806,-1.76721845481979 l -1.020304050607079,-1.767218454819791 l -2.0406081012141604,-1.7203869183241053e-15 l 1.0203040506070813,-1.7672184548197896 l -1.020304050607079,-1.767218454819791 l -2.040608101214161,-2.0623264965102746e-15 l -1.0203040506070824,1.767218454819789 l -1.0203040506070788,-1.7672184548197911 l -2.040608101214161,-2.0623264965102746e-15 l 1.020304050607081,-1.7672184548197896 l -1.0203040506070788,-1.7672184548197907 l 2.0406081012141604,5.734623061080351e-16 l 1.020304050607081,-1.7672184548197896 l -1.020304050607079,-1.767218454819791 l -2.0406081012141604,-1.7203869183241053e-15 l 1.0203040506070813,-1.7672184548197896 l -1.020304050607079,-1.767218454819791 h 2.040608101214161 l 1.0203040506070806,-1.76721845481979 l 1.0203040506070806,1.76721845481979 h 2.040608101214161 l 1.0203040506070806,-1.76721845481979 l -1.0203040506070797,-1.7672184548197905 l 2.040608101214161,-1.4336557652700879e-16 l 1.0203040506070806,-1.76721845481979 l 1.0203040506070806,1.76721845481979 l 2.040608101214161,1.4336557652700879e-16 l -1.0203040506070797,1.7672184548197905 l 1.0203040506070806,1.76721845481979 h 2.040608101214161 l 1.0203040506070806,-1.76721845481979 l 1.0203040506070806,1.76721845481979 h 2.040608101214161 l 1.0203040506070806,-1.76721845481979 l -1.0203040506070797,-1.7672184548197905 l 2.040608101214161,-1.4336557652700879e-16 l 1.0203040506070806,-1.76721845481979 l -1.0203040506070793,-1.7672184548197911 l -2.040608101214161,-1.7203869183241053e-15 l 1.0203040506070813,-1.7672184548197898 l -1.0203040506070793,-1.7672184548197911 h 2.040608101214161 l 1.0203040506070806,-1.76721845481979 l 1.0203040506070806,1.76721845481979 h 2.040608101214161 l 1.0203040506070806,-1.76721845481979 l -1.0203040506070797,-1.7672184548197905 l 2.040608101214161,-1.4336557652700879e-16 l 1.0203040506070806,-1.76721845481979 l 1.0203040506070806,1.76721845481979 l 2.040608101214161,1.4336557652700879e-16 l -1.0203040506070797,1.7672184548197905 l 1.0203040506070806,1.76721845481979 h 2.040608101214161 l 1.0203040506070806,-1.76721845481979 l 1.0203040506070806,1.76721845481979 h 2.040608101214161 l -1.0203040506070793,1.7672184548197911 l 1.0203040506070813,1.7672184548197898 l -2.040608101214161,1.7203869183241053e-15 l -1.0203040506070793,1.7672184548197911 l 1.0203040506070806,1.76721845481979 l 2.040608101214161,1.4336557652700879e-16 l -1.0203040506070797,1.7672184548197905 l 1.0203040506070806,1.76721845481979 h 2.040608101214161 l 1.0203040506070806,-1.76721845481979 l 1.0203040506070806,1.76721845481979 h 2.040608101214161 l 1.0203040506070806,-1.76721845481979 l -1.0203040506070797,-1.7672184548197905 l 2.040608101214161,-1.4336557652700879e-16 l 1.0203040506070806,-1.76721845481979 l 1.0203040506070806,1.76721845481979 l 2.040608101214161,1.4336557652700879e-16 l -1.0203040506070797,1.7672184548197905 l 1.0203040506070806,1.76721845481979 h 2.040608101214161 l 1.0203040506070806,-1.76721845481979 l 1.0203040506070806,1.76721845481979 h 2.040608101214161 l -1.020304050607079,1.767218454819791 l 1.0203040506070813,1.7672184548197896 l -2.0406081012141604,1.7203869183241053e-15 l -1.020304050607079,1.767218454819791 l 1.020304050607081,1.7672184548197896 l 2.0406081012141604,-5.734623061080351e-16 l -1.0203040506070788,1.7672184548197907 l 1.020304050607081,1.7672184548197896 l -2.040608101214161,2.0623264965102746e-15 l -1.0203040506070788,1.7672184548197911 l -1.0203040506070824,-1.767218454819789 l -2.040608101214161,2.0623264965102746e-15 l -1.020304050607079,1.767218454819791 l 1.0203040506070813,1.7672184548197896 l -2.0406081012141604,1.7203869183241053e-15 l -1.020304050607079,1.767218454819791 l 1.0203040506070806,1.76721845481979 l 2.040608101214161,1.4336557652700879e-16 l -1.0203040506070797,1.7672184548197905 l 1.0203040506070806,1.76721845481979 h 2.040608101214161 l 1.0203040506070806,-1.76721845481979 l 1.0203040506070806,1.76721845481979 h 2.040608101214161 l -1.0203040506070793,1.7672184548197911 l 1.0203040506070813,1.7672184548197898 l -2.040608101214161,1.7203869183241053e-15 l -1.0203040506070793,1.7672184548197911 l 1.0203040506070806,1.76721845481979 l 2.040608101214161,1.4336557652700879e-16 l -1.0203040506070797,1.7672184548197905 l 1.0203040506070806,1.76721845481979 h 2.040608101214161 l 1.0203040506070806,-1.76721845481979 l 1.0203040506070806,1.76721845481979 h 2.040608101214161 l 1.0203040506070806,-1.76721845481979 l -1.0203040506070797,-1.7672184548197905 l 2.040608101214161,-1.4336557652700879e-16 l 1.0203040506070806,-1.76721845481979 l 1.0203040506070806,1.76721845481979 l 2.040608101214161,1.4336557652700879e-16 l -1.0203040506070797,1.7672184548197905 l 1.0203040506070806,1.76721845481979 h 2.040608101214161 l 1.0203040506070806,-1.76721845481979 l 1.0203040506070806,1.76721845481979 h 2.040608101214161 l 1.0203040506070806,-1.76721845481979 l -1.0203040506070797,-1.7672184548197905 l 2.040608101214161,-1.4336557652700879e-16 l 1.0203040506070806,-1.76721845481979 l -1.0203040506070793,-1.7672184548197911 l -2.040608101214161,-1.7203869183241053e-15 l 1.0203040506070813,-1.7672184548197898 l -1.0203040506070793,-1.7672184548197911 h 2.040608101214161 l 1.0203040506070806,-1.76721845481979 l 1.0203040506070806,1.76721845481979 h 2.040608101214161 l 1.0203040506070806,-1.76721845481979 l -1.0203040506070797,-1.7672184548197905 l 2.040608101214161,-1.4336557652700879e-16 l 1.0203040506070806,-1.76721845481979 l 1.0203040506070806,1.76721845481979 l 2.040608101214161,1.4336557652700879e-16 l -1.0203040506070797,1.7672184548197905 l 1.0203040506070806,1.76721845481979 h 2.040608101214161 l 1.0203040506070806,-1.76721845481979 l 1.0203040506070806,1.76721845481979 h 2.040608101214161 l -1.0203040506070793,1.7672184548197911 l 1.0203040506070813,1.7672184548197898 l -2.040608101214161,1.7203869183241053e-15 l -1.0203040506070793,1.7672184548197911 l 1.0203040506070806,1.76721845481979 l 2.040608101214161,1.4336557652700879e-16 l -1.0203040506070797,1.7672184548197905 l 1.0203040506070806,1.76721845481979 h 2.040608101214161 l 1.0203040506070806,-1.76721845481979 l 1.0203040506070806,1.76721845481979 h 2.040608101214161 l 1.0203040506070806,-1.76721845481979 l -1.0203040506070797,-1.7672184548197905 l 2.040608101214161,-1.4336557652700879e-16 l 1.0203040506070806,-1.76721845481979 l 1.0203040506070806,1.76721845481979 l 2.040608101214161,1.4336557652700879e-16 l -1.0203040506070797,1.7672184548197905 l 1.0203040506070806,1.76721845481979 h 2.040608101214161 l 1.0203040506070806,-1.76721845481979 l 1.0203040506070806,1.76721845481979 h 2.040608101214161 " /></g><path d="M 18.181818181818187,50.10064319414107 h 55.09641873278234 l 27.548209366391177,-47.714898280134335 l 27.548209366391177,47.714898280134335 h 55.09641873278234 " /></g></g></g></g></svg>