<svg xmlns="http://www.w3.org/2000/svg" height="215.3846" stroke-opacity="1" viewBox="0 0 400 215" font-size="1" width="400.0000" xmlns:xlink="http://www.w3.org/1999/xlink" stroke="rgb(0,0,0)" version="1.1"><defs></defs><g stroke-linejoin="miter" stroke-opacity="1.0" fill-opacity="1.0" stroke="rgb(0,0,0)" stroke-width="1.174079017128549" fill="rgb(0,0,0)" stroke-linecap="butt" stroke-miterlimit="10.0"><path d="M 258.4615,215.3846 c 2.8718,-31.5897 5.7436,-63.1795 18.4615 -73.8462c 12.7179,-10.6667 35.2821,-0.4103 55.3846 -18.4615c 20.1026,-18.0513 37.7436,-64.4103 55.3846 -110.7692l 12.3077,-12.3077 c -17.6410,46.3590 -35.2821,92.7179 -55.3846 110.7692c -20.1026,18.0513 -42.6667,7.7949 -55.3846 18.4615c -12.7179,10.6667 -15.5897,42.2564 -18.4615 73.8462l -12.3077,12.3077 Z"/></g><g stroke-linejoin="miter" stroke-opacity="1.0" fill-opacity="1.0" stroke="rgb(0,0,0)" stroke-width="1.174079017128549" fill="rgb(0,0,0)" stroke-linecap="butt" stroke-miterlimit="10.0"><path d="M 184.6154,110.7692 c 0.0000,-50.9801 -41.3276,-92.3077 -92.3077 -92.3077c -50.9801,-0.0000 -92.3077,41.3276 -92.3077 92.3077c -0.0000,50.9801 41.3276,92.3077 92.3077 92.3077c 50.9801,0.0000 92.3077,-41.3276 92.3077 -92.3077l 12.3077,-6.1538 c -0.0000,50.9801 -41.3276,92.3077 -92.3077 92.3077c -50.9801,-0.0000 -92.3077,-41.3276 -92.3077 -92.3077c 0.0000,-50.9801 41.3276,-92.3077 92.3077 -92.3077c 50.9801,-0.0000 92.3077,41.3276 92.3077 92.3077l -12.3077,6.1538 Z"/></g></svg>