<?xml version="1.0" encoding="UTF-8"?>
<!DOCTYPE svg PUBLIC "-//W3C//DTD SVG 1.1//EN"
    "http://www.w3.org/Graphics/SVG/1.1/DTD/svg11.dtd">
<svg xmlns="http://www.w3.org/2000/svg" xmlns:xlink="http://www.w3.org/1999/xlink" version="1.1" width="400.0" height="413.5969112431447" font-size="1" viewBox="0 0 400 414"><g><g stroke="rgb(0,0,0)" stroke-opacity="1.0" fill="rgb(0,0,0)" fill-opacity="0.0" stroke-width="1.0e-2" stroke-linecap="butt" stroke-linejoin="miter" font-size="1.0em" stroke-miterlimit="10.0"><g transform="matrix(42.26068207736615,0.0,0.0,42.26068207736615,193.52383413392164,202.60690940135464)"><g fill="rgb(75,0,130)" fill-opacity="1.0"><path d="M 0.4283021878736293,0.37790272040203 c 0.0,-0.8836555997292698 -0.7163444002707305,-1.6000000000000005 -1.6 -1.6000000000000005c -0.8836555997292698,-5.410830008785425e-17 -1.6000000000000005,0.7163444002707304 -1.6000000000000005 1.6c -1.082166001757085e-16,0.8836555997292698 0.7163444002707303,1.6000000000000005 1.5999999999999999 1.6000000000000005c 0.8836555997292698,1.6232490026356274e-16 1.6000000000000005,-0.7163444002707303 1.6000000000000008 -1.6Z" /></g><g fill="rgb(178,34,34)" fill-opacity="1.0"><path d="M 3.429139185647939,0.37790272040203 c 0.0,-0.8284271247461904 -0.6715728752538098,-1.5000000000000004 -1.5 -1.5000000000000004c -0.8284271247461904,-5.0726531332363355e-17 -1.5000000000000004,0.6715728752538098 -1.5000000000000004 1.5c -1.0145306266472671e-16,0.8284271247461904 0.6715728752538097,1.5000000000000004 1.4999999999999998 1.5000000000000004c 0.8284271247461904,1.5217959399709008e-16 1.5000000000000004,-0.6715728752538096 1.5000000000000007 -1.5Z" /></g><g fill="rgb(255,228,196)" fill-opacity="1.0"><path d="M 1.8739076705634297,-2.1314484384664167 c 0.0,-0.773198649763111 -0.6268013502368892,-1.4000000000000004 -1.4000000000000001 -1.4000000000000004c -0.773198649763111,-4.734476257687246e-17 -1.4000000000000004,0.6268013502368891 -1.4000000000000004 1.4c -9.468952515374493e-17,0.773198649763111 0.626801350236889,1.4000000000000004 1.3999999999999997 1.4000000000000004c 0.773198649763111,1.420342877306174e-16 1.4000000000000004,-0.626801350236889 1.400000000000001 -1.4Z" /></g><g fill="rgb(0,255,255)" fill-opacity="1.0"><path d="M 1.77068099314639,2.7689555974836706 c 0.0,-0.7179701747800317 -0.5820298252199685,-1.3000000000000003 -1.3 -1.3000000000000003c -0.7179701747800317,-4.396299382138157e-17 -1.3000000000000003,0.5820298252199684 -1.3000000000000003 1.2999999999999998c -8.792598764276314e-17,0.7179701747800317 0.5820298252199684,1.3000000000000003 1.2999999999999996 1.3000000000000003c 0.7179701747800317,1.3188898146414472e-16 1.3000000000000003,-0.5820298252199683 1.300000000000001 -1.2999999999999998Z" /></g><g fill="rgb(255,0,255)" fill-opacity="1.0"><path d="M -0.9238076071085222,-2.2560526889726837 c 0.0,-0.6627416997969522 -0.5372583002030478,-1.2000000000000002 -1.2 -1.2000000000000002c -0.6627416997969522,-4.058122506589068e-17 -1.2000000000000002,0.5372583002030478 -1.2000000000000002 1.1999999999999997c -8.116245013178136e-17,0.6627416997969522 0.5372583002030477,1.2000000000000002 1.1999999999999997 1.2000000000000002c 0.6627416997969522,1.2174367519767204e-16 1.2000000000000002,-0.5372583002030477 1.2000000000000006 -1.1999999999999997Z" /></g><g fill="rgb(255,228,196)" fill-opacity="1.0"><path d="M 3.9210018913093156,-1.3596952039512602 l 0.21631189606246304,-0.6657395614066076 l -0.21631189606246343,-0.6657395614066075 l -0.5663118960624633,-0.4114496766047311 l -0.7000000000000001,3.0531133177191805e-16 l -0.5663118960624632,0.4114496766047313 l -0.21631189606246312,0.6657395614066076 l 0.2163118960624633,0.6657395614066075 l 0.5663118960624632,0.4114496766047312 l 0.7000000000000001,-5.551115123125783e-17 l 0.5663118960624635,-0.4114496766047315 Z" /></g><g fill="rgb(255,255,0)" fill-opacity="1.0"><path d="M -0.8213213609409005,2.972512836784251 c 0.0,-0.6075132248138728 -0.4924867751861271,-1.1 -1.0999999999999999 -1.1c -0.6075132248138728,-3.719945631039979e-17 -1.1,0.49248677518612705 -1.1 1.0999999999999996c -7.439891262079957e-17,0.6075132248138728 0.492486775186127,1.1 1.0999999999999996 1.1c 0.6075132248138728,1.1159836893119935e-16 1.1,-0.49248677518612693 1.1000000000000005 -1.0999999999999996Z" /></g><g fill="rgb(0,0,255)" fill-opacity="1.0"><path d="M -2.5792879958643296,-0.6055404097601156 c 0.0,-0.5522847498307935 -0.44771525016920644,-1.0 -0.9999999999999998 -1.0c -0.5522847498307935,-3.3817687554908895e-17 -1.0,0.4477152501692064 -1.0 0.9999999999999997c -6.763537510981779e-17,0.5522847498307935 0.4477152501692063,1.0 0.9999999999999996 1.0c 0.5522847498307935,1.0145306266472669e-16 1.0,-0.44771525016920627 1.0000000000000002 -0.9999999999999997Z" /></g><g fill="rgb(0,255,255)" fill-opacity="1.0"><path d="M -2.6628205291317135,2.1438343993747306 l 0.18541019662496847,-0.5706339097770922 l -0.1854101966249685,-0.5706339097770923 l -0.4854101966249685,-0.3526711513754839 l -0.6000000000000001,1.1102230246251565e-16 l -0.48541019662496854,0.3526711513754839 l -0.18541019662496855,0.5706339097770922 l 0.18541019662496844,0.5706339097770923 l 0.4854101966249684,0.352671151375484 l 0.6000000000000001,1.3877787807814457e-16 l 0.48541019662496865,-0.3526711513754842 Z" /></g><g fill="rgb(255,0,0)" fill-opacity="1.0"><path d="M 3.568664805253792,2.6618056670215644 c 0.0,-0.49705627484771414 -0.4029437251522858,-0.9 -0.8999999999999998 -0.9c -0.49705627484771414,-3.043591879941801e-17 -0.9,0.40294372515228577 -0.9 0.8999999999999997c -6.087183759883602e-17,0.49705627484771414 0.4029437251522857,0.9 0.8999999999999996 0.9c 0.49705627484771414,9.130775639825402e-17 0.9,-0.40294372515228566 0.9000000000000002 -0.8999999999999997Z" /></g><g fill="rgb(255,0,255)" fill-opacity="1.0"><path d="M -0.25317430046539124,-3.380053010138343 l 0.15450849718747361,-0.47552825814757693 l -0.15450849718747384,-0.4755282581475769 l -0.40450849718747384,-0.29389262614623657 l -0.5000000000000001,1.942890293094024e-16 l -0.4045084971874737,0.2938926261462367 l -0.15450849718747367,0.47552825814757693 l 0.15450849718747378,0.47552825814757693 l 0.40450849718747384,0.29389262614623657 l 0.5000000000000001,-2.7755575615628914e-17 l 0.40450849718747384,-0.2938926261462369 Z" /></g><g fill="rgb(75,0,130)" fill-opacity="1.0"><path d="M 4.885774571458284,-0.42320950064664675 c 0.0,-0.4418277998646348 -0.35817220013536516,-0.8 -0.7999999999999998 -0.8c -0.4418277998646348,-2.7054150043927117e-17 -0.8,0.3581722001353651 -0.8 0.7999999999999998c -5.4108300087854235e-17,0.4418277998646348 0.3581722001353651,0.8 0.7999999999999997 0.8c 0.4418277998646348,8.116245013178136e-17 0.8,-0.35817220013536505 0.8000000000000002 -0.7999999999999998Z" /></g><g fill="rgb(178,34,34)" fill-opacity="1.0"><path d="M 2.709627665967032,-3.5646078193003845 c 0.0,-0.38659932488155546 -0.31340067511844455,-0.7000000000000001 -0.7 -0.7000000000000001c -0.38659932488155546,-2.3672381288436228e-17 -0.7000000000000001,0.3134006751184445 -0.7000000000000001 0.6999999999999998c -4.7344762576872457e-17,0.38659932488155546 0.31340067511844444,0.7000000000000001 0.6999999999999997 0.7000000000000001c 0.38659932488155546,7.101714386530869e-17 0.7000000000000001,-0.31340067511844444 0.7000000000000002 -0.6999999999999998Z" /></g><g fill="rgb(178,34,34)" fill-opacity="1.0"><path d="M 4.152346261753313,2.1386236036594948 l 0.3500000000000002,-0.606217782649107 l -0.34999999999999976,-0.6062177826491072 l -0.7000000000000001,-3.3306690738754696e-16 l -0.35000000000000026,0.606217782649107 l 0.34999999999999953,0.6062177826491073 l 0.7000000000000003,3.3306690738754696e-16 Z" /></g><g fill="rgb(255,255,0)" fill-opacity="1.0"><path d="M 1.0358585438917434,-3.7982583711861024 l 0.12360679774997899,-0.3804226065180615 l -0.12360679774997901,-0.3804226065180615 l -0.323606797749979,-0.23511410091698928 l -0.4000000000000001,6.938893903907228e-17 l -0.323606797749979,0.23511410091698925 l -0.12360679774997903,0.3804226065180615 l 0.12360679774997894,0.3804226065180615 l 0.32360679774997897,0.2351141009169893 l 0.4000000000000001,6.938893903907228e-17 l 0.3236067977499792,-0.2351141009169893 Z" /></g><g fill="rgb(255,228,196)" fill-opacity="1.0"><path d="M -0.16142417423801636,4.215975471047451 c 0.0,-0.3313708498984761 -0.2686291501015239,-0.6000000000000001 -0.6 -0.6000000000000001c -0.3313708498984761,-2.029061253294534e-17 -0.6000000000000001,0.2686291501015239 -0.6000000000000001 0.5999999999999999c -4.058122506589068e-17,0.3313708498984761 0.26862915010152383,0.6000000000000001 0.5999999999999999 0.6000000000000001c 0.3313708498984761,6.087183759883602e-17 0.6000000000000001,-0.26862915010152383 0.6000000000000003 -0.5999999999999999Z" /></g><g fill="rgb(255,228,196)" fill-opacity="1.0"><path d="M 2.24051700265543,4.493110596177566 l 0.30000000000000016,-0.5196152422706631 l -0.2999999999999998,-0.5196152422706634 l -0.6,-2.220446049250313e-16 l -0.3000000000000002,0.5196152422706631 l 0.2999999999999996,0.5196152422706635 l 0.6000000000000003,1.1102230246251565e-16 Z" /></g><g fill="rgb(0,255,255)" fill-opacity="1.0"><path d="M -3.3158602094674583,-2.087177594952294 c 0.0,-0.2761423749153968 -0.22385762508460327,-0.5000000000000001 -0.5 -0.5000000000000001c -0.2761423749153968,-1.690884377745445e-17 -0.5000000000000001,0.22385762508460325 -0.5000000000000001 0.49999999999999994c -3.38176875549089e-17,0.2761423749153968 0.22385762508460322,0.5000000000000001 0.4999999999999999 0.5000000000000001c 0.2761423749153968,5.0726531332363355e-17 0.5000000000000001,-0.2238576250846032 0.5000000000000001 -0.49999999999999994Z" /></g><g fill="rgb(0,255,255)" fill-opacity="1.0"><path d="M 0.5337066247620417,4.992583921280141 l 0.24999999999999997,-0.43301270189221946 l -0.2500000000000001,-0.4330127018922194 l -0.5000000000000001,-2.7755575615628914e-17 l -0.25,0.4330127018922194 l 0.24999999999999992,0.4330127018922195 l 0.5000000000000003,-1.1102230246251565e-16 Z" /></g><g fill="rgb(0,0,255)" fill-opacity="1.0"><path d="M -1.806643073214627,-3.654776529876637 l 9.270509831248423e-2,-0.2853169548885461 l -9.270509831248425e-2,-0.28531695488854614 l -0.24270509831248424,-0.17633557568774194 l -0.30000000000000004,5.551115123125783e-17 l -0.24270509831248427,0.17633557568774194 l -9.270509831248427e-2,0.2853169548885461 l 9.270509831248422e-2,0.28531695488854614 l 0.2427050983124842,0.176335575687742 l 0.30000000000000004,6.938893903907228e-17 l 0.24270509831248432,-0.1763355756877421 Z" /></g><g fill="rgb(255,0,255)" fill-opacity="1.0"><path d="M -3.0214528872156516,2.943867336790823 c 0.0,-0.22091389993231741 -0.1790861000676826,-0.4000000000000001 -0.39999999999999997 -0.4000000000000001c -0.22091389993231741,-1.352707502196356e-17 -0.4000000000000001,0.17908610006768258 -0.4000000000000001 0.39999999999999997c -2.705415004392712e-17,0.22091389993231741 0.17908610006768255,0.4000000000000001 0.3999999999999999 0.4000000000000001c 0.22091389993231741,4.058122506589068e-17 0.4000000000000001,-0.17908610006768255 0.40000000000000013 -0.39999999999999997Z" /></g><g fill="rgb(255,0,255)" fill-opacity="1.0"><path d="M -3.3650444491349507,-2.605252524083557 l 0.19999999999999998,-0.34641016151377557 l -0.2,-0.3464101615137755 l -0.4,-2.7755575615628914e-17 l -0.20000000000000004,0.34641016151377557 l 0.1999999999999999,0.34641016151377557 h 0.4000000000000002 Z" /></g><g fill="rgb(255,0,0)" fill-opacity="1.0"><path d="M 1.3306155545687088,4.468960939090743 l 6.180339887498944e-2,-0.19021130325903074 l -6.180339887498953e-2,-0.19021130325903074 l -0.1618033988749895,-0.1175570504584946 l -0.2,7.632783294297951e-17 l -0.16180339887498948,0.11755705045849466 l -6.180339887498946e-2,0.19021130325903074 l 6.1803398874989514e-2,0.19021130325903074 l 0.1618033988749895,0.1175570504584946 l 0.2,-1.3877787807814457e-17 l 0.1618033988749895,-0.11755705045849472 Z" /></g><g fill="rgb(255,255,0)" fill-opacity="1.0"><path d="M -2.5816870061259714,-3.5509789329488557 c 0.0,-0.16568542494923805 -0.13431457505076194,-0.30000000000000004 -0.3 -0.30000000000000004c -0.16568542494923805,-1.014530626647267e-17 -0.30000000000000004,0.13431457505076194 -0.30000000000000004 0.29999999999999993c -2.029061253294534e-17,0.16568542494923805 0.13431457505076191,0.30000000000000004 0.29999999999999993 0.30000000000000004c 0.16568542494923805,3.043591879941801e-17 0.30000000000000004,-0.13431457505076191 0.30000000000000016 -0.29999999999999993Z" /></g><g fill="rgb(255,255,0)" fill-opacity="1.0"><path d="M 3.1541251600783737,-3.1982508249997443 l 0.15000000000000008,-0.25980762113533157 l -0.1499999999999999,-0.2598076211353317 l -0.3,-1.1102230246251565e-16 l -0.1500000000000001,0.25980762113533157 l 0.1499999999999998,0.25980762113533173 l 0.30000000000000016,5.551115123125783e-17 Z" /></g><g fill="rgb(0,0,255)" fill-opacity="1.0"><path d="M 0.635187541558963,-0.43429755764144096 c 0.0,-0.1104569499661587 -8.954305003384129e-2,-0.2 -0.19999999999999996 -0.2c -0.1104569499661587,-6.763537510981779e-18 -0.2,8.954305003384128e-2 -0.2 0.19999999999999996c -1.3527075021963559e-17,0.1104569499661587 8.954305003384128e-2,0.2 0.19999999999999993 0.2c 0.1104569499661587,2.029061253294534e-17 0.2,-8.954305003384126e-2 0.20000000000000004 -0.19999999999999996Z" /></g><g fill="rgb(0,0,255)" fill-opacity="1.0"><path d="M 0.5351857996281113,1.3631918120607462 l 9.999999999999998e-2,-0.17320508075688776 l -0.10000000000000002,-0.17320508075688773 l -0.19999999999999998,-1.3877787807814457e-17 l -0.1,0.17320508075688776 l 9.999999999999994e-2,0.17320508075688776 l 0.20000000000000012,-5.551115123125783e-17 Z" /></g><g fill="rgb(75,0,130)" fill-opacity="1.0"><path d="M -0.7540845878927575,-1.2657469582402172 l 3.090169943749472e-2,-9.510565162951537e-2 l -3.0901699437494764e-2,-9.510565162951537e-2 l -8.090169943749476e-2,-5.87785252292473e-2 l -0.1,3.8163916471489756e-17 l -8.090169943749474e-2,5.877852522924733e-2 l -3.090169943749473e-2,9.510565162951537e-2 l 3.0901699437494757e-2,9.510565162951537e-2 l 8.090169943749476e-2,5.87785252292473e-2 l 0.1,-6.938893903907228e-18 l 8.090169943749476e-2,-5.877852522924736e-2 Z" /></g><g fill="rgb(255,0,0)" fill-opacity="1.0"><path d="M 0.3024548627979472,-0.6237285653156157 c 0.0,-5.522847498307935e-2 -4.4771525016920645e-2,-0.1 -9.999999999999998e-2 -0.1c -5.522847498307935e-2,-3.3817687554908897e-18 -0.1,4.477152501692064e-2 -0.1 9.999999999999998e-2c -6.763537510981779e-18,5.522847498307935e-2 4.477152501692064e-2,0.1 9.999999999999996e-2 0.1c 5.522847498307935e-2,1.014530626647267e-17 0.1,-4.477152501692063e-2 0.10000000000000002 -9.999999999999998e-2Z" /></g><g fill="rgb(255,0,0)" fill-opacity="1.0"><path d="M 0.7243588453404477,-0.5288841181418678 l 4.999999999999999e-2,-8.660254037844388e-2 l -5.000000000000001e-2,-8.660254037844387e-2 l -9.999999999999999e-2,-6.938893903907228e-18 l -5.0e-2,8.660254037844388e-2 l 4.999999999999997e-2,8.660254037844388e-2 l 0.10000000000000006,-2.7755575615628914e-17 Z" /></g></g></g></g></svg>