<?xml version="1.0" encoding="UTF-8"?>
<!DOCTYPE svg PUBLIC "-//W3C//DTD SVG 1.1//EN"
    "http://www.w3.org/Graphics/SVG/1.1/DTD/svg11.dtd">
<svg xmlns="http://www.w3.org/2000/svg" xmlns:xlink="http://www.w3.org/1999/xlink" version="1.1" width="400.0" height="119.31818181818181" font-size="1" viewBox="0 0 400 119" stroke="rgb(0,0,0)" stroke-opacity="1"><g><g fill="rgb(0,0,0)" fill-opacity="0.0"><g stroke="rgb(0,0,0)" stroke-opacity="1.0" stroke-width="0.873862897505303" stroke-linecap="butt" stroke-linejoin="miter" font-size="1.0em" stroke-miterlimit="10.0"><g><g><path d="M 216.5289256198347,59.65909090909091 h 2.5826446280991733 v -2.5826446280991733 h 2.5826446280991733 v 5.165289256198347 h 2.5826446280991733 v -2.5826446280991733 h 2.5826446280991733 l 1.5814137385683794e-16,-2.5826446280991733 l -2.5826446280991733,-1.5814137385683794e-16 l 1.5814137385683794e-16,-2.5826446280991733 l 5.165289256198347,3.162827477136759e-16 l 1.5814137385683794e-16,-2.5826446280991733 l -2.5826446280991733,-1.5814137385683794e-16 l 1.5814137385683794e-16,-2.5826446280991733 h 2.5826446280991733 v -2.5826446280991733 h 2.5826446280991733 v 5.165289256198347 h 2.5826446280991733 v -2.5826446280991733 h 2.5826446280991733 l 3.162827477136759e-16,5.165289256198347 l 5.165289256198347,-3.162827477136759e-16 l 3.162827477136759e-16,5.165289256198347 l -10.330578512396693,6.325654954273518e-16 l 3.162827477136759e-16,5.165289256198347 l 5.165289256198347,-3.162827477136759e-16 l 3.162827477136759e-16,5.165289256198347 h 2.5826446280991733 v -2.5826446280991733 h 2.5826446280991733 v 5.165289256198347 h 2.5826446280991733 v -2.5826446280991733 h 2.5826446280991733 l 1.5814137385683794e-16,-2.5826446280991733 l -2.5826446280991733,-1.5814137385683794e-16 l 1.5814137385683794e-16,-2.5826446280991733 l 5.165289256198347,3.162827477136759e-16 l 1.5814137385683794e-16,-2.5826446280991733 l -2.5826446280991733,-1.5814137385683794e-16 l 1.5814137385683794e-16,-2.5826446280991733 h 2.5826446280991733 v -2.5826446280991733 h 2.5826446280991733 v 5.165289256198347 h 2.5826446280991733 v -2.5826446280991733 h 2.5826446280991733 l 1.5814137385683794e-16,-2.5826446280991733 l -2.5826446280991733,-1.5814137385683794e-16 l 1.5814137385683794e-16,-2.5826446280991733 l 5.165289256198347,3.162827477136759e-16 l 1.5814137385683794e-16,-2.5826446280991733 l -2.5826446280991733,-1.5814137385683794e-16 l 1.5814137385683794e-16,-2.5826446280991733 l -2.5826446280991733,-3.162827477136759e-16 l -3.162827477136759e-16,2.5826446280991733 l -2.5826446280991733,-3.162827477136759e-16 l 6.325654954273518e-16,-5.165289256198347 l -2.5826446280991733,-3.162827477136759e-16 l -3.162827477136759e-16,2.5826446280991733 l -2.5826446280991733,-3.162827477136759e-16 l 1.5814137385683794e-16,-2.5826446280991733 l -2.5826446280991733,-1.5814137385683794e-16 l 1.5814137385683794e-16,-2.5826446280991733 l 5.165289256198347,3.162827477136759e-16 l 1.5814137385683794e-16,-2.5826446280991733 l -2.5826446280991733,-1.5814137385683794e-16 l 1.5814137385683794e-16,-2.5826446280991733 l 5.165289256198347,3.162827477136759e-16 l 3.162827477136759e-16,-5.165289256198347 l 5.165289256198347,3.162827477136759e-16 l -6.325654954273518e-16,10.330578512396693 l 5.165289256198347,3.162827477136759e-16 l 3.162827477136759e-16,-5.165289256198347 l 5.165289256198347,3.162827477136759e-16 l 1.5814137385683794e-16,-2.5826446280991733 l -2.5826446280991733,-1.5814137385683794e-16 l 1.5814137385683794e-16,-2.5826446280991733 l 5.165289256198347,3.162827477136759e-16 l 1.5814137385683794e-16,-2.5826446280991733 l -2.5826446280991733,-1.5814137385683794e-16 l 1.5814137385683794e-16,-2.5826446280991733 l -2.5826446280991733,-3.162827477136759e-16 l -3.162827477136759e-16,2.5826446280991733 l -2.5826446280991733,-3.162827477136759e-16 l 6.325654954273518e-16,-5.165289256198347 l -2.5826446280991733,-3.162827477136759e-16 l -3.162827477136759e-16,2.5826446280991733 l -2.5826446280991733,-3.162827477136759e-16 l 1.5814137385683794e-16,-2.5826446280991733 l -2.5826446280991733,-1.5814137385683794e-16 l 1.5814137385683794e-16,-2.5826446280991733 l 5.165289256198347,3.162827477136759e-16 l 1.5814137385683794e-16,-2.5826446280991733 l -2.5826446280991733,-1.5814137385683794e-16 l 1.5814137385683794e-16,-2.5826446280991733 h 2.5826446280991733 v -2.5826446280991733 h 2.5826446280991733 v 5.165289256198347 h 2.5826446280991733 v -2.5826446280991733 h 2.5826446280991733 l 1.5814137385683794e-16,-2.5826446280991733 l -2.5826446280991733,-1.5814137385683794e-16 l 1.5814137385683794e-16,-2.5826446280991733 l 5.165289256198347,3.162827477136759e-16 l 1.5814137385683794e-16,-2.5826446280991733 l -2.5826446280991733,-1.5814137385683794e-16 l 1.5814137385683794e-16,-2.5826446280991733 h 2.5826446280991733 v -2.5826446280991733 h 2.5826446280991733 v 5.165289256198347 h 2.5826446280991733 v -2.5826446280991733 h 2.5826446280991733 l 3.162827477136759e-16,5.165289256198347 l 5.165289256198347,-3.162827477136759e-16 l 3.162827477136759e-16,5.165289256198347 l -10.330578512396693,6.325654954273518e-16 l 3.162827477136759e-16,5.165289256198347 l 5.165289256198347,-3.162827477136759e-16 l 3.162827477136759e-16,5.165289256198347 h 2.5826446280991733 v -2.5826446280991733 h 2.5826446280991733 v 5.165289256198347 h 2.5826446280991733 v -2.5826446280991733 h 2.5826446280991733 l 1.5814137385683794e-16,-2.5826446280991733 l -2.5826446280991733,-1.5814137385683794e-16 l 1.5814137385683794e-16,-2.5826446280991733 l 5.165289256198347,3.162827477136759e-16 l 1.5814137385683794e-16,-2.5826446280991733 l -2.5826446280991733,-1.5814137385683794e-16 l 1.5814137385683794e-16,-2.5826446280991733 h 2.5826446280991733 v -2.5826446280991733 h 2.5826446280991733 v 5.165289256198347 h 2.5826446280991733 v -2.5826446280991733 h 2.5826446280991733 l 3.162827477136759e-16,5.165289256198347 l 5.165289256198347,-3.162827477136759e-16 l 3.162827477136759e-16,5.165289256198347 l -10.330578512396693,6.325654954273518e-16 l 3.162827477136759e-16,5.165289256198347 l 5.165289256198347,-3.162827477136759e-16 l 3.162827477136759e-16,5.165289256198347 l 5.165289256198347,-3.162827477136759e-16 l -3.162827477136759e-16,-5.165289256198347 l 5.165289256198347,-3.162827477136759e-16 l 6.325654954273518e-16,10.330578512396693 l 5.165289256198347,-3.162827477136759e-16 l -3.162827477136759e-16,-5.165289256198347 l 5.165289256198347,-3.162827477136759e-16 l 3.162827477136759e-16,5.165289256198347 l 5.165289256198347,-3.162827477136759e-16 l 3.162827477136759e-16,5.165289256198347 l -10.330578512396693,6.325654954273518e-16 l 3.162827477136759e-16,5.165289256198347 l 5.165289256198347,-3.162827477136759e-16 l 3.162827477136759e-16,5.165289256198347 l -10.330578512396693,1.2651309908547035e-15 l 1.2651309908547035e-15,10.330578512396693 l -10.330578512396693,1.2651309908547035e-15 l -2.530261981709407e-15,-20.661157024793386 l -10.330578512396693,1.2651309908547035e-15 l 1.2651309908547035e-15,10.330578512396693 l -10.330578512396693,1.2651309908547035e-15 l 3.162827477136759e-16,5.165289256198347 l 5.165289256198347,-3.162827477136759e-16 l 3.162827477136759e-16,5.165289256198347 l -10.330578512396693,6.325654954273518e-16 l 3.162827477136759e-16,5.165289256198347 l 5.165289256198347,-3.162827477136759e-16 l 3.162827477136759e-16,5.165289256198347 l 5.165289256198347,-3.162827477136759e-16 l -3.162827477136759e-16,-5.165289256198347 l 5.165289256198347,-3.162827477136759e-16 l 6.325654954273518e-16,10.330578512396693 l 5.165289256198347,-3.162827477136759e-16 l -3.162827477136759e-16,-5.165289256198347 l 5.165289256198347,-3.162827477136759e-16 l 3.162827477136759e-16,5.165289256198347 l 5.165289256198347,-3.162827477136759e-16 l 3.162827477136759e-16,5.165289256198347 l -10.330578512396693,6.325654954273518e-16 l 3.162827477136759e-16,5.165289256198347 l 5.165289256198347,-3.162827477136759e-16 l 3.162827477136759e-16,5.165289256198347 h 2.5826446280991733 v -2.5826446280991733 h 2.5826446280991733 v 5.165289256198347 h 2.5826446280991733 v -2.5826446280991733 h 2.5826446280991733 l 1.5814137385683794e-16,-2.5826446280991733 l -2.5826446280991733,-1.5814137385683794e-16 l 1.5814137385683794e-16,-2.5826446280991733 l 5.165289256198347,3.162827477136759e-16 l 1.5814137385683794e-16,-2.5826446280991733 l -2.5826446280991733,-1.5814137385683794e-16 l 1.5814137385683794e-16,-2.5826446280991733 h 2.5826446280991733 v -2.5826446280991733 h 2.5826446280991733 v 5.165289256198347 h 2.5826446280991733 v -2.5826446280991733 h 2.5826446280991733 l 3.162827477136759e-16,5.165289256198347 l 5.165289256198347,-3.162827477136759e-16 l 3.162827477136759e-16,5.165289256198347 l -10.330578512396693,6.325654954273518e-16 l 3.162827477136759e-16,5.165289256198347 l 5.165289256198347,-3.162827477136759e-16 l 3.162827477136759e-16,5.165289256198347 h 2.5826446280991733 v -2.5826446280991733 h 2.5826446280991733 v 5.165289256198347 h 2.5826446280991733 v -2.5826446280991733 h 2.5826446280991733 l 1.5814137385683794e-16,-2.5826446280991733 l -2.5826446280991733,-1.5814137385683794e-16 l 1.5814137385683794e-16,-2.5826446280991733 l 5.165289256198347,3.162827477136759e-16 l 1.5814137385683794e-16,-2.5826446280991733 l -2.5826446280991733,-1.5814137385683794e-16 l 1.5814137385683794e-16,-2.5826446280991733 h 2.5826446280991733 v -2.5826446280991733 h 2.5826446280991733 v 5.165289256198347 h 2.5826446280991733 v -2.5826446280991733 h 2.5826446280991733 l 1.5814137385683794e-16,-2.5826446280991733 l -2.5826446280991733,-1.5814137385683794e-16 l 1.5814137385683794e-16,-2.5826446280991733 l 5.165289256198347,3.162827477136759e-16 l 1.5814137385683794e-16,-2.5826446280991733 l -2.5826446280991733,-1.5814137385683794e-16 l 1.5814137385683794e-16,-2.5826446280991733 l -2.5826446280991733,-3.162827477136759e-16 l -3.162827477136759e-16,2.5826446280991733 l -2.5826446280991733,-3.162827477136759e-16 l 6.325654954273518e-16,-5.165289256198347 l -2.5826446280991733,-3.162827477136759e-16 l -3.162827477136759e-16,2.5826446280991733 l -2.5826446280991733,-3.162827477136759e-16 l 1.5814137385683794e-16,-2.5826446280991733 l -2.5826446280991733,-1.5814137385683794e-16 l 1.5814137385683794e-16,-2.5826446280991733 l 5.165289256198347,3.162827477136759e-16 l 1.5814137385683794e-16,-2.5826446280991733 l -2.5826446280991733,-1.5814137385683794e-16 l 1.5814137385683794e-16,-2.5826446280991733 l 5.165289256198347,3.162827477136759e-16 l 3.162827477136759e-16,-5.165289256198347 l 5.165289256198347,3.162827477136759e-16 l -6.325654954273518e-16,10.330578512396693 l 5.165289256198347,3.162827477136759e-16 l 3.162827477136759e-16,-5.165289256198347 l 5.165289256198347,3.162827477136759e-16 l 1.5814137385683794e-16,-2.5826446280991733 l -2.5826446280991733,-1.5814137385683794e-16 l 1.5814137385683794e-16,-2.5826446280991733 l 5.165289256198347,3.162827477136759e-16 l 1.5814137385683794e-16,-2.5826446280991733 l -2.5826446280991733,-1.5814137385683794e-16 l 1.5814137385683794e-16,-2.5826446280991733 l -2.5826446280991733,-3.162827477136759e-16 l -3.162827477136759e-16,2.5826446280991733 l -2.5826446280991733,-3.162827477136759e-16 l 6.325654954273518e-16,-5.165289256198347 l -2.5826446280991733,-3.162827477136759e-16 l -3.162827477136759e-16,2.5826446280991733 l -2.5826446280991733,-3.162827477136759e-16 l 1.5814137385683794e-16,-2.5826446280991733 l -2.5826446280991733,-1.5814137385683794e-16 l 1.5814137385683794e-16,-2.5826446280991733 l 5.165289256198347,3.162827477136759e-16 l 1.5814137385683794e-16,-2.5826446280991733 l -2.5826446280991733,-1.5814137385683794e-16 l 1.5814137385683794e-16,-2.5826446280991733 h 2.5826446280991733 v -2.5826446280991733 h 2.5826446280991733 v 5.165289256198347 h 2.5826446280991733 v -2.5826446280991733 h 2.5826446280991733 l 1.5814137385683794e-16,-2.5826446280991733 l -2.5826446280991733,-1.5814137385683794e-16 l 1.5814137385683794e-16,-2.5826446280991733 l 5.165289256198347,3.162827477136759e-16 l 1.5814137385683794e-16,-2.5826446280991733 l -2.5826446280991733,-1.5814137385683794e-16 l 1.5814137385683794e-16,-2.5826446280991733 h 2.5826446280991733 v -2.5826446280991733 h 2.5826446280991733 v 5.165289256198347 h 2.5826446280991733 v -2.5826446280991733 h 2.5826446280991733 l 3.162827477136759e-16,5.165289256198347 l 5.165289256198347,-3.162827477136759e-16 l 3.162827477136759e-16,5.165289256198347 l -10.330578512396693,6.325654954273518e-16 l 3.162827477136759e-16,5.165289256198347 l 5.165289256198347,-3.162827477136759e-16 l 3.162827477136759e-16,5.165289256198347 h 2.5826446280991733 v -2.5826446280991733 h 2.5826446280991733 v 5.165289256198347 h 2.5826446280991733 v -2.5826446280991733 h 2.5826446280991733 l 1.5814137385683794e-16,-2.5826446280991733 l -2.5826446280991733,-1.5814137385683794e-16 l 1.5814137385683794e-16,-2.5826446280991733 l 5.165289256198347,3.162827477136759e-16 l 1.5814137385683794e-16,-2.5826446280991733 l -2.5826446280991733,-1.5814137385683794e-16 l 1.5814137385683794e-16,-2.5826446280991733 h 2.5826446280991733 v -2.5826446280991733 h 2.5826446280991733 v 5.165289256198347 h 2.5826446280991733 v -2.5826446280991733 h 2.5826446280991733 " /></g><path d="M 18.181818181818187,59.65909090909091 h 41.32231404958677 v -41.32231404958677 h 41.32231404958677 v 82.64462809917354 h 41.32231404958677 v -41.32231404958677 h 41.32231404958677 " /></g></g></g></g></svg>