<svg xmlns="http://www.w3.org/2000/svg" height="200.0000" stroke-opacity="1" viewBox="0 0 89 200" font-size="1" width="88.7112" xmlns:xlink="http://www.w3.org/1999/xlink" stroke="rgb(0,0,0)" version="1.1"><defs></defs><g stroke-linejoin="miter" stroke-opacity="1.0" fill-opacity="1.0" stroke="rgb(0,0,0)" stroke-width="0.0" fill="rgb(89,89,255)" stroke-linecap="butt" stroke-miterlimit="10.0"><path d="M 76.1079,163.8480 l -31.7523,23.0694 l -31.7523,-23.0694 l 12.1283,-37.3271 h 39.2480 Z"/></g><g stroke-linejoin="miter" stroke-opacity="1.0" fill-opacity="1.0" stroke="rgb(0,0,0)" stroke-width="0.0" fill="rgb(148,148,148)" stroke-linecap="butt" stroke-miterlimit="10.0"><path d="M 79.1400,154.5162 l 6.5655,7.2917 l -3.0321,9.3318 l -9.5976,2.0400 l -6.5655,-7.2917 l 3.0321,-9.3318 Z"/></g><g stroke-linejoin="miter" stroke-opacity="1.0" fill-opacity="1.0" stroke="rgb(0,0,0)" stroke-width="0.0" fill="rgb(0,0,0)" stroke-linecap="butt" stroke-miterlimit="10.0"><path d="M 81.2111,154.8519 c 1.3424,-1.2087 3.4104,-1.1003 4.6191 0.2421c 1.2087,1.3424 1.1003,3.4104 -0.2421 4.6191c -1.3424,1.2087 -3.4104,1.1003 -4.6191 -0.2421c -1.2087,-1.3424 -1.1003,-3.4104 0.2421 -4.6191Z"/></g><g stroke-linejoin="miter" stroke-opacity="1.0" fill-opacity="1.0" stroke="rgb(0,0,0)" stroke-width="0.0" fill="rgb(0,0,0)" stroke-linecap="butt" stroke-miterlimit="10.0"><path d="M 70.8687,154.9304 c -0.3756,-1.7669 0.7523,-3.5036 2.5192 -3.8792c 1.7669,-0.3756 3.5036,0.7523 3.8792 2.5192c 0.3756,1.7669 -0.7523,3.5036 -2.5192 3.8792c -1.7669,0.3756 -3.5036,-0.7523 -3.8792 -2.5192Z"/></g><g stroke-linejoin="miter" stroke-opacity="1.0" fill-opacity="1.0" stroke="rgb(0,0,0)" stroke-width="0.0" fill="rgb(0,0,0)" stroke-linecap="butt" stroke-miterlimit="10.0"><path d="M 65.7654,163.9265 c -1.7179,-0.5582 -2.6581,-2.4033 -2.0999 -4.1213c 0.5582,-1.7179 2.4033,-2.6581 4.1213 -2.0999c 1.7179,0.5582 2.6581,2.4033 2.0999 4.1213c -0.5582,1.7179 -2.4033,2.6581 -4.1213 2.0999Z"/></g><g stroke-linejoin="miter" stroke-opacity="1.0" fill-opacity="1.0" stroke="rgb(0,0,0)" stroke-width="0.0" fill="rgb(0,0,0)" stroke-linecap="butt" stroke-miterlimit="10.0"><path d="M 71.0047,172.8440 c -1.3424,1.2087 -3.4104,1.1003 -4.6191 -0.2421c -1.2087,-1.3424 -1.1003,-3.4104 0.2421 -4.6191c 1.3424,-1.2087 3.4104,-1.1003 4.6191 0.2421c 1.2087,1.3424 1.1003,3.4104 -0.2421 4.6191Z"/></g><g stroke-linejoin="miter" stroke-opacity="1.0" fill-opacity="1.0" stroke="rgb(0,0,0)" stroke-width="0.0" fill="rgb(0,0,0)" stroke-linecap="butt" stroke-miterlimit="10.0"><path d="M 81.3471,172.7655 c 0.3756,1.7669 -0.7523,3.5036 -2.5192 3.8792c -1.7669,0.3756 -3.5036,-0.7523 -3.8792 -2.5192c -0.3756,-1.7669 0.7523,-3.5036 2.5192 -3.8792c 1.7669,-0.3756 3.5036,0.7523 3.8792 2.5192Z"/></g><g stroke-linejoin="miter" stroke-opacity="1.0" fill-opacity="1.0" stroke="rgb(0,0,0)" stroke-width="0.0" fill="rgb(0,0,0)" stroke-linecap="butt" stroke-miterlimit="10.0"><path d="M 86.4503,163.7694 c 1.7179,0.5582 2.6581,2.4033 2.0999 4.1213c -0.5582,1.7179 -2.4033,2.6581 -4.1213 2.0999c -1.7179,-0.5582 -2.6581,-2.4033 -2.0999 -4.1213c 0.5582,-1.7179 2.4033,-2.6581 4.1213 -2.0999Z"/></g><g stroke-linejoin="miter" stroke-opacity="1.0" fill-opacity="1.0" stroke="rgb(0,0,0)" stroke-width="0.0" fill="rgb(148,148,148)" stroke-linecap="butt" stroke-miterlimit="10.0"><path d="M 56.0415,120.7536 l 8.9637,-3.9909 l 7.9381,5.7673 l -1.0256,9.7582 l -8.9637,3.9909 l -7.9381,-5.7673 Z"/></g><g stroke-linejoin="miter" stroke-opacity="1.0" fill-opacity="1.0" stroke="rgb(0,0,0)" stroke-width="0.0" fill="rgb(0,0,0)" stroke-linecap="butt" stroke-miterlimit="10.0"><path d="M 57.0008,118.8875 c -0.7347,-1.6502 0.0074,-3.5835 1.6576 -4.3182c 1.6502,-0.7347 3.5835,0.0074 4.3182 1.6576c 0.7347,1.6502 -0.0074,3.5835 -1.6576 4.3182c -1.6502,0.7347 -3.5835,-0.0074 -4.3182 -1.6576Z"/></g><g stroke-linejoin="miter" stroke-opacity="1.0" fill-opacity="1.0" stroke="rgb(0,0,0)" stroke-width="0.0" fill="rgb(0,0,0)" stroke-linecap="butt" stroke-miterlimit="10.0"><path d="M 53.8795,128.7480 c -1.7964,-0.1888 -3.0997,-1.7982 -2.9109 -3.5946c 0.1888,-1.7964 1.7982,-3.0997 3.5946 -2.9109c 1.7964,0.1888 3.0997,1.7982 2.9109 3.5946c -0.1888,1.7964 -1.7982,3.0997 -3.5946 2.9109Z"/></g><g stroke-linejoin="miter" stroke-opacity="1.0" fill-opacity="1.0" stroke="rgb(0,0,0)" stroke-width="0.0" fill="rgb(0,0,0)" stroke-linecap="butt" stroke-miterlimit="10.0"><path d="M 60.8583,136.3814 c -1.0617,1.4614 -3.1071,1.7853 -4.5685 0.7236c -1.4614,-1.0617 -1.7853,-3.1071 -0.7236 -4.5685c 1.0617,-1.4614 3.1071,-1.7853 4.5685 -0.7236c 1.4614,1.0617 1.7853,3.1071 0.7236 4.5685Z"/></g><g stroke-linejoin="miter" stroke-opacity="1.0" fill-opacity="1.0" stroke="rgb(0,0,0)" stroke-width="0.0" fill="rgb(0,0,0)" stroke-linecap="butt" stroke-miterlimit="10.0"><path d="M 70.9584,134.1543 c 0.7347,1.6502 -0.0074,3.5835 -1.6576 4.3182c -1.6502,0.7347 -3.5835,-0.0074 -4.3182 -1.6576c -0.7347,-1.6502 0.0074,-3.5835 1.6576 -4.3182c 1.6502,-0.7347 3.5835,0.0074 4.3182 1.6576Z"/></g><g stroke-linejoin="miter" stroke-opacity="1.0" fill-opacity="1.0" stroke="rgb(0,0,0)" stroke-width="0.0" fill="rgb(0,0,0)" stroke-linecap="butt" stroke-miterlimit="10.0"><path d="M 74.0797,124.2938 c 1.7964,0.1888 3.0997,1.7982 2.9109 3.5946c -0.1888,1.7964 -1.7982,3.0997 -3.5946 2.9109c -1.7964,-0.1888 -3.0997,-1.7982 -2.9109 -3.5946c 0.1888,-1.7964 1.7982,-3.0997 3.5946 -2.9109Z"/></g><g stroke-linejoin="miter" stroke-opacity="1.0" fill-opacity="1.0" stroke="rgb(0,0,0)" stroke-width="0.0" fill="rgb(0,0,0)" stroke-linecap="butt" stroke-miterlimit="10.0"><path d="M 67.1009,116.6604 c 1.0617,-1.4614 3.1071,-1.7853 4.5685 -0.7236c 1.4614,1.0617 1.7853,3.1071 0.7236 4.5685c -1.0617,1.4614 -3.1071,1.7853 -4.5685 0.7236c -1.4614,-1.0617 -1.7853,-3.1071 -0.7236 -4.5685Z"/></g><g stroke-linejoin="miter" stroke-opacity="1.0" fill-opacity="1.0" stroke="rgb(0,0,0)" stroke-width="0.0" fill="rgb(148,148,148)" stroke-linecap="butt" stroke-miterlimit="10.0"><path d="M 16.7935,132.2882 l -1.0256,-9.7582 l 7.9381,-5.7673 l 8.9637,3.9909 l 1.0256,9.7582 l -7.9381,5.7673 Z"/></g><g stroke-linejoin="miter" stroke-opacity="1.0" fill-opacity="1.0" stroke="rgb(0,0,0)" stroke-width="0.0" fill="rgb(0,0,0)" stroke-linecap="butt" stroke-miterlimit="10.0"><path d="M 15.3152,130.7993 c -1.7964,0.1888 -3.4058,-1.1144 -3.5946 -2.9109c -0.1888,-1.7964 1.1144,-3.4058 2.9109 -3.5946c 1.7964,-0.1888 3.4058,1.1144 3.5946 2.9109c 0.1888,1.7964 -1.1144,3.4058 -2.9109 3.5946Z"/></g><g stroke-linejoin="miter" stroke-opacity="1.0" fill-opacity="1.0" stroke="rgb(0,0,0)" stroke-width="0.0" fill="rgb(0,0,0)" stroke-linecap="butt" stroke-miterlimit="10.0"><path d="M 23.7286,136.8149 c -0.7347,1.6502 -2.6680,2.3923 -4.3182 1.6576c -1.6502,-0.7347 -2.3923,-2.6680 -1.6576 -4.3182c 0.7347,-1.6502 2.6680,-2.3923 4.3182 -1.6576c 1.6502,0.7347 2.3923,2.6680 1.6576 4.3182Z"/></g><g stroke-linejoin="miter" stroke-opacity="1.0" fill-opacity="1.0" stroke="rgb(0,0,0)" stroke-width="0.0" fill="rgb(0,0,0)" stroke-linecap="butt" stroke-miterlimit="10.0"><path d="M 33.1450,132.5365 c 1.0617,1.4614 0.7378,3.5067 -0.7236 4.5685c -1.4614,1.0617 -3.5067,0.7378 -4.5685 -0.7236c -1.0617,-1.4614 -0.7378,-3.5067 0.7236 -4.5685c 1.4614,-1.0617 3.5067,-0.7378 4.5685 0.7236Z"/></g><g stroke-linejoin="miter" stroke-opacity="1.0" fill-opacity="1.0" stroke="rgb(0,0,0)" stroke-width="0.0" fill="rgb(0,0,0)" stroke-linecap="butt" stroke-miterlimit="10.0"><path d="M 34.1480,122.2425 c 1.7964,-0.1888 3.4058,1.1144 3.5946 2.9109c 0.1888,1.7964 -1.1144,3.4058 -2.9109 3.5946c -1.7964,0.1888 -3.4058,-1.1144 -3.5946 -2.9109c -0.1888,-1.7964 1.1144,-3.4058 2.9109 -3.5946Z"/></g><g stroke-linejoin="miter" stroke-opacity="1.0" fill-opacity="1.0" stroke="rgb(0,0,0)" stroke-width="0.0" fill="rgb(0,0,0)" stroke-linecap="butt" stroke-miterlimit="10.0"><path d="M 25.7346,116.2269 c 0.7347,-1.6502 2.6680,-2.3923 4.3182 -1.6576c 1.6502,0.7347 2.3923,2.6680 1.6576 4.3182c -0.7347,1.6502 -2.6680,2.3923 -4.3182 1.6576c -1.6502,-0.7347 -2.3923,-2.6680 -1.6576 -4.3182Z"/></g><g stroke-linejoin="miter" stroke-opacity="1.0" fill-opacity="1.0" stroke="rgb(0,0,0)" stroke-width="0.0" fill="rgb(0,0,0)" stroke-linecap="butt" stroke-miterlimit="10.0"><path d="M 16.3182,120.5053 c -1.0617,-1.4614 -0.7378,-3.5067 0.7236 -4.5685c 1.4614,-1.0617 3.5067,-0.7378 4.5685 0.7236c 1.0617,1.4614 0.7378,3.5067 -0.7236 4.5685c -1.4614,1.0617 -3.5067,0.7378 -4.5685 -0.7236Z"/></g><g stroke-linejoin="miter" stroke-opacity="1.0" fill-opacity="1.0" stroke="rgb(0,0,0)" stroke-width="0.0" fill="rgb(148,148,148)" stroke-linecap="butt" stroke-miterlimit="10.0"><path d="M 15.6354,173.1797 l -9.5976,-2.0400 l -3.0321,-9.3318 l 6.5655,-7.2917 l 9.5976,2.0400 l 3.0321,9.3318 Z"/></g><g stroke-linejoin="miter" stroke-opacity="1.0" fill-opacity="1.0" stroke="rgb(0,0,0)" stroke-width="0.0" fill="rgb(0,0,0)" stroke-linecap="butt" stroke-miterlimit="10.0"><path d="M 13.7625,174.1255 c -0.3756,1.7669 -2.1123,2.8947 -3.8792 2.5192c -1.7669,-0.3756 -2.8947,-2.1123 -2.5192 -3.8792c 0.3756,-1.7669 2.1123,-2.8947 3.8792 -2.5192c 1.7669,0.3756 2.8947,2.1123 2.5192 3.8792Z"/></g><g stroke-linejoin="miter" stroke-opacity="1.0" fill-opacity="1.0" stroke="rgb(0,0,0)" stroke-width="0.0" fill="rgb(0,0,0)" stroke-linecap="butt" stroke-miterlimit="10.0"><path d="M 22.0835,167.9829 c 1.3424,1.2087 1.4508,3.2767 0.2421 4.6191c -1.2087,1.3424 -3.2767,1.4508 -4.6191 0.2421c -1.3424,-1.2087 -1.4508,-3.2767 -0.2421 -4.6191c 1.2087,-1.3424 3.2767,-1.4508 4.6191 -0.2421Z"/></g><g stroke-linejoin="miter" stroke-opacity="1.0" fill-opacity="1.0" stroke="rgb(0,0,0)" stroke-width="0.0" fill="rgb(0,0,0)" stroke-linecap="butt" stroke-miterlimit="10.0"><path d="M 20.9244,157.7053 c 1.7179,-0.5582 3.5631,0.3820 4.1213 2.0999c 0.5582,1.7179 -0.3820,3.5631 -2.0999 4.1213c -1.7179,0.5582 -3.5631,-0.3820 -4.1213 -2.0999c -0.5582,-1.7179 0.3820,-3.5631 2.0999 -4.1213Z"/></g><g stroke-linejoin="miter" stroke-opacity="1.0" fill-opacity="1.0" stroke="rgb(0,0,0)" stroke-width="0.0" fill="rgb(0,0,0)" stroke-linecap="butt" stroke-miterlimit="10.0"><path d="M 11.4441,153.5704 c 0.3756,-1.7669 2.1123,-2.8947 3.8792 -2.5192c 1.7669,0.3756 2.8947,2.1123 2.5192 3.8792c -0.3756,1.7669 -2.1123,2.8947 -3.8792 2.5192c -1.7669,-0.3756 -2.8947,-2.1123 -2.5192 -3.8792Z"/></g><g stroke-linejoin="miter" stroke-opacity="1.0" fill-opacity="1.0" stroke="rgb(0,0,0)" stroke-width="0.0" fill="rgb(0,0,0)" stroke-linecap="butt" stroke-miterlimit="10.0"><path d="M 3.1231,159.7130 c -1.3424,-1.2087 -1.4508,-3.2767 -0.2421 -4.6191c 1.2087,-1.3424 3.2767,-1.4508 4.6191 -0.2421c 1.3424,1.2087 1.4508,3.2767 0.2421 4.6191c -1.2087,1.3424 -3.2767,1.4508 -4.6191 0.2421Z"/></g><g stroke-linejoin="miter" stroke-opacity="1.0" fill-opacity="1.0" stroke="rgb(0,0,0)" stroke-width="0.0" fill="rgb(0,0,0)" stroke-linecap="butt" stroke-miterlimit="10.0"><path d="M 4.2822,169.9906 c -1.7179,0.5582 -3.5631,-0.3820 -4.1213 -2.0999c -0.5582,-1.7179 0.3820,-3.5631 2.0999 -4.1213c 1.7179,-0.5582 3.5631,0.3820 4.1213 2.0999c 0.5582,1.7179 -0.3820,3.5631 -2.0999 4.1213Z"/></g><g stroke-linejoin="miter" stroke-opacity="1.0" fill-opacity="1.0" stroke="rgb(0,0,0)" stroke-width="0.0" fill="rgb(148,148,148)" stroke-linecap="butt" stroke-miterlimit="10.0"><path d="M 54.1676,186.9173 l -4.9060,8.4974 l -9.8120,-0.0000 l -4.9060,-8.4974 l 4.9060,-8.4974 l 9.8120,0.0000 Z"/></g><g stroke-linejoin="miter" stroke-opacity="1.0" fill-opacity="1.0" stroke="rgb(0,0,0)" stroke-width="0.0" fill="rgb(0,0,0)" stroke-linecap="butt" stroke-miterlimit="10.0"><path d="M 54.4884,188.9909 c 1.5643,0.9032 2.1003,2.9035 1.1971 4.4678c -0.9032,1.5643 -2.9035,2.1003 -4.4678 1.1971c -1.5643,-0.9032 -2.1003,-2.9035 -1.1971 -4.4678c 0.9032,-1.5643 2.9035,-2.1003 4.4678 -1.1971Z"/></g><g stroke-linejoin="miter" stroke-opacity="1.0" fill-opacity="1.0" stroke="rgb(0,0,0)" stroke-width="0.0" fill="rgb(0,0,0)" stroke-linecap="butt" stroke-miterlimit="10.0"><path d="M 51.2177,179.1789 c 1.5643,-0.9032 3.5646,-0.3672 4.4678 1.1971c 0.9032,1.5643 0.3672,3.5646 -1.1971 4.4678c -1.5643,0.9032 -3.5646,0.3672 -4.4678 -1.1971c -0.9032,-1.5643 -0.3672,-3.5646 1.1971 -4.4678Z"/></g><g stroke-linejoin="miter" stroke-opacity="1.0" fill-opacity="1.0" stroke="rgb(0,0,0)" stroke-width="0.0" fill="rgb(0,0,0)" stroke-linecap="butt" stroke-miterlimit="10.0"><path d="M 41.0849,177.1053 c -0.0000,-1.8063 1.4643,-3.2707 3.2707 -3.2707c 1.8063,-0.0000 3.2707,1.4643 3.2707 3.2707c 0.0000,1.8063 -1.4643,3.2707 -3.2707 3.2707c -1.8063,0.0000 -3.2707,-1.4643 -3.2707 -3.2707Z"/></g><g stroke-linejoin="miter" stroke-opacity="1.0" fill-opacity="1.0" stroke="rgb(0,0,0)" stroke-width="0.0" fill="rgb(0,0,0)" stroke-linecap="butt" stroke-miterlimit="10.0"><path d="M 34.2228,184.8438 c -1.5643,-0.9032 -2.1003,-2.9035 -1.1971 -4.4678c 0.9032,-1.5643 2.9035,-2.1003 4.4678 -1.1971c 1.5643,0.9032 2.1003,2.9035 1.1971 4.4678c -0.9032,1.5643 -2.9035,2.1003 -4.4678 1.1971Z"/></g><g stroke-linejoin="miter" stroke-opacity="1.0" fill-opacity="1.0" stroke="rgb(0,0,0)" stroke-width="0.0" fill="rgb(0,0,0)" stroke-linecap="butt" stroke-miterlimit="10.0"><path d="M 37.4935,194.6558 c -1.5643,0.9032 -3.5646,0.3672 -4.4678 -1.1971c -0.9032,-1.5643 -0.3672,-3.5646 1.1971 -4.4678c 1.5643,-0.9032 3.5646,-0.3672 4.4678 1.1971c 0.9032,1.5643 0.3672,3.5646 -1.1971 4.4678Z"/></g><g stroke-linejoin="miter" stroke-opacity="1.0" fill-opacity="1.0" stroke="rgb(0,0,0)" stroke-width="0.0" fill="rgb(0,0,0)" stroke-linecap="butt" stroke-miterlimit="10.0"><path d="M 47.6263,196.7293 c 0.0000,1.8063 -1.4643,3.2707 -3.2707 3.2707c -1.8063,0.0000 -3.2707,-1.4643 -3.2707 -3.2707c -0.0000,-1.8063 1.4643,-3.2707 3.2707 -3.2707c 1.8063,-0.0000 3.2707,1.4643 3.2707 3.2707Z"/></g><g stroke-linejoin="miter" stroke-opacity="1.0" fill-opacity="1.0" stroke="rgb(0,0,0)" stroke-width="0.0" fill="rgb(89,89,255)" stroke-linecap="butt" stroke-miterlimit="10.0"><path d="M 76.1079,36.1520 l -31.7523,-23.0694 l -31.7523,23.0694 l 12.1283,37.3271 h 39.2480 Z"/></g><g stroke-linejoin="miter" stroke-opacity="1.0" fill-opacity="1.0" stroke="rgb(0,0,0)" stroke-width="0.0" fill="rgb(148,148,148)" stroke-linecap="butt" stroke-miterlimit="10.0"><path d="M 79.1400,45.4838 l 6.5655,-7.2917 l -3.0321,-9.3318 l -9.5976,-2.0400 l -6.5655,7.2917 l 3.0321,9.3318 Z"/></g><g stroke-linejoin="miter" stroke-opacity="1.0" fill-opacity="1.0" stroke="rgb(0,0,0)" stroke-width="0.0" fill="rgb(0,0,0)" stroke-linecap="butt" stroke-miterlimit="10.0"><path d="M 81.2111,45.1481 c 1.3424,1.2087 3.4104,1.1003 4.6191 -0.2421c 1.2087,-1.3424 1.1003,-3.4104 -0.2421 -4.6191c -1.3424,-1.2087 -3.4104,-1.1003 -4.6191 0.2421c -1.2087,1.3424 -1.1003,3.4104 0.2421 4.6191Z"/></g><g stroke-linejoin="miter" stroke-opacity="1.0" fill-opacity="1.0" stroke="rgb(0,0,0)" stroke-width="0.0" fill="rgb(0,0,0)" stroke-linecap="butt" stroke-miterlimit="10.0"><path d="M 70.8687,45.0696 c -0.3756,1.7669 0.7523,3.5036 2.5192 3.8792c 1.7669,0.3756 3.5036,-0.7523 3.8792 -2.5192c 0.3756,-1.7669 -0.7523,-3.5036 -2.5192 -3.8792c -1.7669,-0.3756 -3.5036,0.7523 -3.8792 2.5192Z"/></g><g stroke-linejoin="miter" stroke-opacity="1.0" fill-opacity="1.0" stroke="rgb(0,0,0)" stroke-width="0.0" fill="rgb(0,0,0)" stroke-linecap="butt" stroke-miterlimit="10.0"><path d="M 65.7654,36.0735 c -1.7179,0.5582 -2.6581,2.4033 -2.0999 4.1213c 0.5582,1.7179 2.4033,2.6581 4.1213 2.0999c 1.7179,-0.5582 2.6581,-2.4033 2.0999 -4.1213c -0.5582,-1.7179 -2.4033,-2.6581 -4.1213 -2.0999Z"/></g><g stroke-linejoin="miter" stroke-opacity="1.0" fill-opacity="1.0" stroke="rgb(0,0,0)" stroke-width="0.0" fill="rgb(0,0,0)" stroke-linecap="butt" stroke-miterlimit="10.0"><path d="M 71.0047,27.1560 c -1.3424,-1.2087 -3.4104,-1.1003 -4.6191 0.2421c -1.2087,1.3424 -1.1003,3.4104 0.2421 4.6191c 1.3424,1.2087 3.4104,1.1003 4.6191 -0.2421c 1.2087,-1.3424 1.1003,-3.4104 -0.2421 -4.6191Z"/></g><g stroke-linejoin="miter" stroke-opacity="1.0" fill-opacity="1.0" stroke="rgb(0,0,0)" stroke-width="0.0" fill="rgb(0,0,0)" stroke-linecap="butt" stroke-miterlimit="10.0"><path d="M 81.3471,27.2345 c 0.3756,-1.7669 -0.7523,-3.5036 -2.5192 -3.8792c -1.7669,-0.3756 -3.5036,0.7523 -3.8792 2.5192c -0.3756,1.7669 0.7523,3.5036 2.5192 3.8792c 1.7669,0.3756 3.5036,-0.7523 3.8792 -2.5192Z"/></g><g stroke-linejoin="miter" stroke-opacity="1.0" fill-opacity="1.0" stroke="rgb(0,0,0)" stroke-width="0.0" fill="rgb(0,0,0)" stroke-linecap="butt" stroke-miterlimit="10.0"><path d="M 86.4503,36.2306 c 1.7179,-0.5582 2.6581,-2.4033 2.0999 -4.1213c -0.5582,-1.7179 -2.4033,-2.6581 -4.1213 -2.0999c -1.7179,0.5582 -2.6581,2.4033 -2.0999 4.1213c 0.5582,1.7179 2.4033,2.6581 4.1213 2.0999Z"/></g><g stroke-linejoin="miter" stroke-opacity="1.0" fill-opacity="1.0" stroke="rgb(0,0,0)" stroke-width="0.0" fill="rgb(148,148,148)" stroke-linecap="butt" stroke-miterlimit="10.0"><path d="M 56.0415,79.2464 l 8.9637,3.9909 l 7.9381,-5.7673 l -1.0256,-9.7582 l -8.9637,-3.9909 l -7.9381,5.7673 Z"/></g><g stroke-linejoin="miter" stroke-opacity="1.0" fill-opacity="1.0" stroke="rgb(0,0,0)" stroke-width="0.0" fill="rgb(0,0,0)" stroke-linecap="butt" stroke-miterlimit="10.0"><path d="M 57.0008,81.1125 c -0.7347,1.6502 0.0074,3.5835 1.6576 4.3182c 1.6502,0.7347 3.5835,-0.0074 4.3182 -1.6576c 0.7347,-1.6502 -0.0074,-3.5835 -1.6576 -4.3182c -1.6502,-0.7347 -3.5835,0.0074 -4.3182 1.6576Z"/></g><g stroke-linejoin="miter" stroke-opacity="1.0" fill-opacity="1.0" stroke="rgb(0,0,0)" stroke-width="0.0" fill="rgb(0,0,0)" stroke-linecap="butt" stroke-miterlimit="10.0"><path d="M 53.8795,71.2520 c -1.7964,0.1888 -3.0997,1.7982 -2.9109 3.5946c 0.1888,1.7964 1.7982,3.0997 3.5946 2.9109c 1.7964,-0.1888 3.0997,-1.7982 2.9109 -3.5946c -0.1888,-1.7964 -1.7982,-3.0997 -3.5946 -2.9109Z"/></g><g stroke-linejoin="miter" stroke-opacity="1.0" fill-opacity="1.0" stroke="rgb(0,0,0)" stroke-width="0.0" fill="rgb(0,0,0)" stroke-linecap="butt" stroke-miterlimit="10.0"><path d="M 60.8583,63.6186 c -1.0617,-1.4614 -3.1071,-1.7853 -4.5685 -0.7236c -1.4614,1.0617 -1.7853,3.1071 -0.7236 4.5685c 1.0617,1.4614 3.1071,1.7853 4.5685 0.7236c 1.4614,-1.0617 1.7853,-3.1071 0.7236 -4.5685Z"/></g><g stroke-linejoin="miter" stroke-opacity="1.0" fill-opacity="1.0" stroke="rgb(0,0,0)" stroke-width="0.0" fill="rgb(0,0,0)" stroke-linecap="butt" stroke-miterlimit="10.0"><path d="M 70.9584,65.8457 c 0.7347,-1.6502 -0.0074,-3.5835 -1.6576 -4.3182c -1.6502,-0.7347 -3.5835,0.0074 -4.3182 1.6576c -0.7347,1.6502 0.0074,3.5835 1.6576 4.3182c 1.6502,0.7347 3.5835,-0.0074 4.3182 -1.6576Z"/></g><g stroke-linejoin="miter" stroke-opacity="1.0" fill-opacity="1.0" stroke="rgb(0,0,0)" stroke-width="0.0" fill="rgb(0,0,0)" stroke-linecap="butt" stroke-miterlimit="10.0"><path d="M 74.0797,75.7062 c 1.7964,-0.1888 3.0997,-1.7982 2.9109 -3.5946c -0.1888,-1.7964 -1.7982,-3.0997 -3.5946 -2.9109c -1.7964,0.1888 -3.0997,1.7982 -2.9109 3.5946c 0.1888,1.7964 1.7982,3.0997 3.5946 2.9109Z"/></g><g stroke-linejoin="miter" stroke-opacity="1.0" fill-opacity="1.0" stroke="rgb(0,0,0)" stroke-width="0.0" fill="rgb(0,0,0)" stroke-linecap="butt" stroke-miterlimit="10.0"><path d="M 67.1009,83.3396 c 1.0617,1.4614 3.1071,1.7853 4.5685 0.7236c 1.4614,-1.0617 1.7853,-3.1071 0.7236 -4.5685c -1.0617,-1.4614 -3.1071,-1.7853 -4.5685 -0.7236c -1.4614,1.0617 -1.7853,3.1071 -0.7236 4.5685Z"/></g><g stroke-linejoin="miter" stroke-opacity="1.0" fill-opacity="1.0" stroke="rgb(0,0,0)" stroke-width="0.0" fill="rgb(148,148,148)" stroke-linecap="butt" stroke-miterlimit="10.0"><path d="M 16.7935,67.7118 l -1.0256,9.7582 l 7.9381,5.7673 l 8.9637,-3.9909 l 1.0256,-9.7582 l -7.9381,-5.7673 Z"/></g><g stroke-linejoin="miter" stroke-opacity="1.0" fill-opacity="1.0" stroke="rgb(0,0,0)" stroke-width="0.0" fill="rgb(0,0,0)" stroke-linecap="butt" stroke-miterlimit="10.0"><path d="M 15.3152,69.2007 c -1.7964,-0.1888 -3.4058,1.1144 -3.5946 2.9109c -0.1888,1.7964 1.1144,3.4058 2.9109 3.5946c 1.7964,0.1888 3.4058,-1.1144 3.5946 -2.9109c 0.1888,-1.7964 -1.1144,-3.4058 -2.9109 -3.5946Z"/></g><g stroke-linejoin="miter" stroke-opacity="1.0" fill-opacity="1.0" stroke="rgb(0,0,0)" stroke-width="0.0" fill="rgb(0,0,0)" stroke-linecap="butt" stroke-miterlimit="10.0"><path d="M 23.7286,63.1851 c -0.7347,-1.6502 -2.6680,-2.3923 -4.3182 -1.6576c -1.6502,0.7347 -2.3923,2.6680 -1.6576 4.3182c 0.7347,1.6502 2.6680,2.3923 4.3182 1.6576c 1.6502,-0.7347 2.3923,-2.6680 1.6576 -4.3182Z"/></g><g stroke-linejoin="miter" stroke-opacity="1.0" fill-opacity="1.0" stroke="rgb(0,0,0)" stroke-width="0.0" fill="rgb(0,0,0)" stroke-linecap="butt" stroke-miterlimit="10.0"><path d="M 33.1450,67.4635 c 1.0617,-1.4614 0.7378,-3.5067 -0.7236 -4.5685c -1.4614,-1.0617 -3.5067,-0.7378 -4.5685 0.7236c -1.0617,1.4614 -0.7378,3.5067 0.7236 4.5685c 1.4614,1.0617 3.5067,0.7378 4.5685 -0.7236Z"/></g><g stroke-linejoin="miter" stroke-opacity="1.0" fill-opacity="1.0" stroke="rgb(0,0,0)" stroke-width="0.0" fill="rgb(0,0,0)" stroke-linecap="butt" stroke-miterlimit="10.0"><path d="M 34.1480,77.7575 c 1.7964,0.1888 3.4058,-1.1144 3.5946 -2.9109c 0.1888,-1.7964 -1.1144,-3.4058 -2.9109 -3.5946c -1.7964,-0.1888 -3.4058,1.1144 -3.5946 2.9109c -0.1888,1.7964 1.1144,3.4058 2.9109 3.5946Z"/></g><g stroke-linejoin="miter" stroke-opacity="1.0" fill-opacity="1.0" stroke="rgb(0,0,0)" stroke-width="0.0" fill="rgb(0,0,0)" stroke-linecap="butt" stroke-miterlimit="10.0"><path d="M 25.7346,83.7731 c 0.7347,1.6502 2.6680,2.3923 4.3182 1.6576c 1.6502,-0.7347 2.3923,-2.6680 1.6576 -4.3182c -0.7347,-1.6502 -2.6680,-2.3923 -4.3182 -1.6576c -1.6502,0.7347 -2.3923,2.6680 -1.6576 4.3182Z"/></g><g stroke-linejoin="miter" stroke-opacity="1.0" fill-opacity="1.0" stroke="rgb(0,0,0)" stroke-width="0.0" fill="rgb(0,0,0)" stroke-linecap="butt" stroke-miterlimit="10.0"><path d="M 16.3182,79.4947 c -1.0617,1.4614 -0.7378,3.5067 0.7236 4.5685c 1.4614,1.0617 3.5067,0.7378 4.5685 -0.7236c 1.0617,-1.4614 0.7378,-3.5067 -0.7236 -4.5685c -1.4614,-1.0617 -3.5067,-0.7378 -4.5685 0.7236Z"/></g><g stroke-linejoin="miter" stroke-opacity="1.0" fill-opacity="1.0" stroke="rgb(0,0,0)" stroke-width="0.0" fill="rgb(148,148,148)" stroke-linecap="butt" stroke-miterlimit="10.0"><path d="M 15.6354,26.8203 l -9.5976,2.0400 l -3.0321,9.3318 l 6.5655,7.2917 l 9.5976,-2.0400 l 3.0321,-9.3318 Z"/></g><g stroke-linejoin="miter" stroke-opacity="1.0" fill-opacity="1.0" stroke="rgb(0,0,0)" stroke-width="0.0" fill="rgb(0,0,0)" stroke-linecap="butt" stroke-miterlimit="10.0"><path d="M 13.7625,25.8745 c -0.3756,-1.7669 -2.1123,-2.8947 -3.8792 -2.5192c -1.7669,0.3756 -2.8947,2.1123 -2.5192 3.8792c 0.3756,1.7669 2.1123,2.8947 3.8792 2.5192c 1.7669,-0.3756 2.8947,-2.1123 2.5192 -3.8792Z"/></g><g stroke-linejoin="miter" stroke-opacity="1.0" fill-opacity="1.0" stroke="rgb(0,0,0)" stroke-width="0.0" fill="rgb(0,0,0)" stroke-linecap="butt" stroke-miterlimit="10.0"><path d="M 22.0835,32.0171 c 1.3424,-1.2087 1.4508,-3.2767 0.2421 -4.6191c -1.2087,-1.3424 -3.2767,-1.4508 -4.6191 -0.2421c -1.3424,1.2087 -1.4508,3.2767 -0.2421 4.6191c 1.2087,1.3424 3.2767,1.4508 4.6191 0.2421Z"/></g><g stroke-linejoin="miter" stroke-opacity="1.0" fill-opacity="1.0" stroke="rgb(0,0,0)" stroke-width="0.0" fill="rgb(0,0,0)" stroke-linecap="butt" stroke-miterlimit="10.0"><path d="M 20.9244,42.2947 c 1.7179,0.5582 3.5631,-0.3820 4.1213 -2.0999c 0.5582,-1.7179 -0.3820,-3.5631 -2.0999 -4.1213c -1.7179,-0.5582 -3.5631,0.3820 -4.1213 2.0999c -0.5582,1.7179 0.3820,3.5631 2.0999 4.1213Z"/></g><g stroke-linejoin="miter" stroke-opacity="1.0" fill-opacity="1.0" stroke="rgb(0,0,0)" stroke-width="0.0" fill="rgb(0,0,0)" stroke-linecap="butt" stroke-miterlimit="10.0"><path d="M 11.4441,46.4296 c 0.3756,1.7669 2.1123,2.8947 3.8792 2.5192c 1.7669,-0.3756 2.8947,-2.1123 2.5192 -3.8792c -0.3756,-1.7669 -2.1123,-2.8947 -3.8792 -2.5192c -1.7669,0.3756 -2.8947,2.1123 -2.5192 3.8792Z"/></g><g stroke-linejoin="miter" stroke-opacity="1.0" fill-opacity="1.0" stroke="rgb(0,0,0)" stroke-width="0.0" fill="rgb(0,0,0)" stroke-linecap="butt" stroke-miterlimit="10.0"><path d="M 3.1231,40.2870 c -1.3424,1.2087 -1.4508,3.2767 -0.2421 4.6191c 1.2087,1.3424 3.2767,1.4508 4.6191 0.2421c 1.3424,-1.2087 1.4508,-3.2767 0.2421 -4.6191c -1.2087,-1.3424 -3.2767,-1.4508 -4.6191 -0.2421Z"/></g><g stroke-linejoin="miter" stroke-opacity="1.0" fill-opacity="1.0" stroke="rgb(0,0,0)" stroke-width="0.0" fill="rgb(0,0,0)" stroke-linecap="butt" stroke-miterlimit="10.0"><path d="M 4.2822,30.0094 c -1.7179,-0.5582 -3.5631,0.3820 -4.1213 2.0999c -0.5582,1.7179 0.3820,3.5631 2.0999 4.1213c 1.7179,0.5582 3.5631,-0.3820 4.1213 -2.0999c 0.5582,-1.7179 -0.3820,-3.5631 -2.0999 -4.1213Z"/></g><g stroke-linejoin="miter" stroke-opacity="1.0" fill-opacity="1.0" stroke="rgb(0,0,0)" stroke-width="0.0" fill="rgb(148,148,148)" stroke-linecap="butt" stroke-miterlimit="10.0"><path d="M 54.1676,13.0827 l -4.9060,-8.4974 l -9.8120,0.0000 l -4.9060,8.4974 l 4.9060,8.4974 l 9.8120,-0.0000 Z"/></g><g stroke-linejoin="miter" stroke-opacity="1.0" fill-opacity="1.0" stroke="rgb(0,0,0)" stroke-width="0.0" fill="rgb(0,0,0)" stroke-linecap="butt" stroke-miterlimit="10.0"><path d="M 54.4884,11.0091 c 1.5643,-0.9032 2.1003,-2.9035 1.1971 -4.4678c -0.9032,-1.5643 -2.9035,-2.1003 -4.4678 -1.1971c -1.5643,0.9032 -2.1003,2.9035 -1.1971 4.4678c 0.9032,1.5643 2.9035,2.1003 4.4678 1.1971Z"/></g><g stroke-linejoin="miter" stroke-opacity="1.0" fill-opacity="1.0" stroke="rgb(0,0,0)" stroke-width="0.0" fill="rgb(0,0,0)" stroke-linecap="butt" stroke-miterlimit="10.0"><path d="M 51.2177,20.8211 c 1.5643,0.9032 3.5646,0.3672 4.4678 -1.1971c 0.9032,-1.5643 0.3672,-3.5646 -1.1971 -4.4678c -1.5643,-0.9032 -3.5646,-0.3672 -4.4678 1.1971c -0.9032,1.5643 -0.3672,3.5646 1.1971 4.4678Z"/></g><g stroke-linejoin="miter" stroke-opacity="1.0" fill-opacity="1.0" stroke="rgb(0,0,0)" stroke-width="0.0" fill="rgb(0,0,0)" stroke-linecap="butt" stroke-miterlimit="10.0"><path d="M 41.0849,22.8947 c -0.0000,1.8063 1.4643,3.2707 3.2707 3.2707c 1.8063,0.0000 3.2707,-1.4643 3.2707 -3.2707c 0.0000,-1.8063 -1.4643,-3.2707 -3.2707 -3.2707c -1.8063,-0.0000 -3.2707,1.4643 -3.2707 3.2707Z"/></g><g stroke-linejoin="miter" stroke-opacity="1.0" fill-opacity="1.0" stroke="rgb(0,0,0)" stroke-width="0.0" fill="rgb(0,0,0)" stroke-linecap="butt" stroke-miterlimit="10.0"><path d="M 34.2228,15.1562 c -1.5643,0.9032 -2.1003,2.9035 -1.1971 4.4678c 0.9032,1.5643 2.9035,2.1003 4.4678 1.1971c 1.5643,-0.9032 2.1003,-2.9035 1.1971 -4.4678c -0.9032,-1.5643 -2.9035,-2.1003 -4.4678 -1.1971Z"/></g><g stroke-linejoin="miter" stroke-opacity="1.0" fill-opacity="1.0" stroke="rgb(0,0,0)" stroke-width="0.0" fill="rgb(0,0,0)" stroke-linecap="butt" stroke-miterlimit="10.0"><path d="M 37.4935,5.3442 c -1.5643,-0.9032 -3.5646,-0.3672 -4.4678 1.1971c -0.9032,1.5643 -0.3672,3.5646 1.1971 4.4678c 1.5643,0.9032 3.5646,0.3672 4.4678 -1.1971c 0.9032,-1.5643 0.3672,-3.5646 -1.1971 -4.4678Z"/></g><g stroke-linejoin="miter" stroke-opacity="1.0" fill-opacity="1.0" stroke="rgb(0,0,0)" stroke-width="0.0" fill="rgb(0,0,0)" stroke-linecap="butt" stroke-miterlimit="10.0"><path d="M 47.6263,3.2707 c 0.0000,-1.8063 -1.4643,-3.2707 -3.2707 -3.2707c -1.8063,-0.0000 -3.2707,1.4643 -3.2707 3.2707c -0.0000,1.8063 1.4643,3.2707 3.2707 3.2707c 1.8063,0.0000 3.2707,-1.4643 3.2707 -3.2707Z"/></g></svg>