<?xml version="1.0" encoding="UTF-8"?>
<!DOCTYPE svg PUBLIC "-//W3C//DTD SVG 1.1//EN"
    "http://www.w3.org/Graphics/SVG/1.1/DTD/svg11.dtd">
<svg xmlns="http://www.w3.org/2000/svg" xmlns:xlink="http://www.w3.org/1999/xlink" version="1.1" width="300.0" height="79.0306071821609" font-size="1" viewBox="0 0 300 79"><g><g fill="rgb(0,0,0)" fill-opacity="0.0"><g stroke="rgb(0,0,0)" stroke-opacity="1.0" stroke-width="0.6159114501893695" stroke-linecap="butt" stroke-linejoin="miter" font-size="19.95722403589922em" stroke-miterlimit="10.0"><g><path d="M 149.99999999999997,9.57946753723163 l 47.61200427861611,19.95722403589922 " /><path d="M 149.99999999999997,9.57946753723163 l -47.61200427861608,19.95722403589922 " /><path d="M 197.6120042786161,29.53669157313085 l 43.43044051131754,19.95722403589922 " /><path d="M 197.6120042786161,29.53669157313085 l -13.917704548157523,19.95722403589922 " /><path d="M 241.04244478993365,49.49391560903007 l 39.334024362932944,19.95722403589922 " /><path d="M 241.04244478993365,49.49391560903007 l 4.174881004313462,19.95722403589922 " /><g><g fill="rgb(255,255,255)" fill-opacity="1.0"><g fill="rgb(255,255,255)" fill-opacity="1.0"><g fill="rgb(255,255,255)" fill-opacity="1.0"><path d="M 286.3636363636364,69.4511396449293 c 0.0,-3.3066211451951095 -2.6805460655746556,-5.9871672107697655 -5.987167210769765 -5.9871672107697655c -3.3066211451951095,-2.024721500728073e-16 -5.9871672107697655,2.680546065574655 -5.9871672107697655 5.987167210769764c -4.049443001456146e-16,3.3066211451951095 2.6805460655746547,5.9871672107697655 5.987167210769763 5.9871672107697655c 3.3066211451951095,6.074164502184219e-16 5.9871672107697655,-2.6805460655746547 5.987167210769768 -5.987167210769764Z" /></g></g></g><g fill="rgb(0,0,0)" fill-opacity="1.0" font-size="9.97861201794961em"><g fill="rgb(0,0,0)" fill-opacity="1.0"><text transform="matrix(1.0,0.0,0.0,1.0,280.3764691528666,69.4511396449293)" dominant-baseline="middle" text-anchor="middle" stroke="none">1</text></g></g></g><g><g fill="rgb(255,255,255)" fill-opacity="1.0"><g fill="rgb(255,255,255)" fill-opacity="1.0"><g fill="rgb(255,255,255)" fill-opacity="1.0"><path d="M 251.20449300501687,69.4511396449293 c 0.0,-3.3066211451951095 -2.6805460655746556,-5.9871672107697655 -5.987167210769765 -5.9871672107697655c -3.3066211451951095,-2.024721500728073e-16 -5.9871672107697655,2.680546065574655 -5.9871672107697655 5.987167210769764c -4.049443001456146e-16,3.3066211451951095 2.6805460655746547,5.9871672107697655 5.987167210769763 5.9871672107697655c 3.3066211451951095,6.074164502184219e-16 5.9871672107697655,-2.6805460655746547 5.987167210769768 -5.987167210769764Z" /></g></g></g><g fill="rgb(0,0,0)" fill-opacity="1.0" font-size="9.97861201794961em"><g fill="rgb(0,0,0)" fill-opacity="1.0"><text transform="matrix(1.0,0.0,0.0,1.0,245.2173257942471,69.4511396449293)" dominant-baseline="middle" text-anchor="middle" stroke="none">1</text></g></g></g><g><g fill="rgb(255,255,255)" fill-opacity="1.0"><g fill="rgb(255,255,255)" fill-opacity="1.0"><g fill="rgb(255,255,255)" fill-opacity="1.0"><path d="M 247.02961200070342,49.49391560903007 c 0.0,-3.3066211451951095 -2.6805460655746556,-5.9871672107697655 -5.987167210769765 -5.9871672107697655c -3.3066211451951095,-2.024721500728073e-16 -5.9871672107697655,2.680546065574655 -5.9871672107697655 5.987167210769764c -4.049443001456146e-16,3.3066211451951095 2.6805460655746547,5.9871672107697655 5.987167210769763 5.9871672107697655c 3.3066211451951095,6.074164502184219e-16 5.9871672107697655,-2.6805460655746547 5.987167210769768 -5.987167210769764Z" /></g></g></g><g fill="rgb(0,0,0)" fill-opacity="1.0" font-size="9.97861201794961em"><g fill="rgb(0,0,0)" fill-opacity="1.0"><text transform="matrix(1.0,0.0,0.0,1.0,241.04244478993365,49.49391560903007)" dominant-baseline="middle" text-anchor="middle" stroke="none">2</text></g></g></g><path d="M 183.69429973045857,49.49391560903007 l 22.33961839912862,19.95722403589922 " /><path d="M 183.69429973045857,49.49391560903007 l -15.688425144076556,19.95722403589922 " /><g><g fill="rgb(255,255,255)" fill-opacity="1.0"><g fill="rgb(255,255,255)" fill-opacity="1.0"><g fill="rgb(255,255,255)" fill-opacity="1.0"><path d="M 212.02108534035696,69.4511396449293 c 0.0,-3.3066211451951095 -2.6805460655746556,-5.9871672107697655 -5.987167210769765 -5.9871672107697655c -3.3066211451951095,-2.024721500728073e-16 -5.9871672107697655,2.680546065574655 -5.9871672107697655 5.987167210769764c -4.049443001456146e-16,3.3066211451951095 2.6805460655746547,5.9871672107697655 5.987167210769763 5.9871672107697655c 3.3066211451951095,6.074164502184219e-16 5.9871672107697655,-2.6805460655746547 5.987167210769768 -5.987167210769764Z" /></g></g></g><g fill="rgb(0,0,0)" fill-opacity="1.0" font-size="9.97861201794961em"><g fill="rgb(0,0,0)" fill-opacity="1.0"><text transform="matrix(1.0,0.0,0.0,1.0,206.0339181295872,69.4511396449293)" dominant-baseline="middle" text-anchor="middle" stroke="none">1</text></g></g></g><g><g fill="rgb(255,255,255)" fill-opacity="1.0"><g fill="rgb(255,255,255)" fill-opacity="1.0"><g fill="rgb(255,255,255)" fill-opacity="1.0"><path d="M 173.9930417971518,69.4511396449293 c 0.0,-3.3066211451951095 -2.6805460655746556,-5.9871672107697655 -5.987167210769765 -5.9871672107697655c -3.3066211451951095,-2.024721500728073e-16 -5.9871672107697655,2.680546065574655 -5.9871672107697655 5.987167210769764c -4.049443001456146e-16,3.3066211451951095 2.6805460655746547,5.9871672107697655 5.987167210769763 5.9871672107697655c 3.3066211451951095,6.074164502184219e-16 5.9871672107697655,-2.6805460655746547 5.987167210769768 -5.987167210769764Z" /></g></g></g><g fill="rgb(0,0,0)" fill-opacity="1.0" font-size="9.97861201794961em"><g fill="rgb(0,0,0)" fill-opacity="1.0"><text transform="matrix(1.0,0.0,0.0,1.0,168.00587458638202,69.4511396449293)" dominant-baseline="middle" text-anchor="middle" stroke="none">1</text></g></g></g><g><g fill="rgb(255,255,255)" fill-opacity="1.0"><g fill="rgb(255,255,255)" fill-opacity="1.0"><g fill="rgb(255,255,255)" fill-opacity="1.0"><path d="M 189.68146694122834,49.49391560903007 c 0.0,-3.3066211451951095 -2.6805460655746556,-5.9871672107697655 -5.987167210769765 -5.9871672107697655c -3.3066211451951095,-2.024721500728073e-16 -5.9871672107697655,2.680546065574655 -5.9871672107697655 5.987167210769764c -4.049443001456146e-16,3.3066211451951095 2.6805460655746547,5.9871672107697655 5.987167210769763 5.9871672107697655c 3.3066211451951095,6.074164502184219e-16 5.9871672107697655,-2.6805460655746547 5.987167210769768 -5.987167210769764Z" /></g></g></g><g fill="rgb(0,0,0)" fill-opacity="1.0" font-size="9.97861201794961em"><g fill="rgb(0,0,0)" fill-opacity="1.0"><text transform="matrix(1.0,0.0,0.0,1.0,183.69429973045857,49.49391560903007)" dominant-baseline="middle" text-anchor="middle" stroke="none">2</text></g></g></g><g><g fill="rgb(255,255,255)" fill-opacity="1.0"><g fill="rgb(255,255,255)" fill-opacity="1.0"><g fill="rgb(255,255,255)" fill-opacity="1.0"><path d="M 203.59917148938587,29.53669157313085 c 0.0,-3.3066211451951095 -2.6805460655746556,-5.9871672107697655 -5.987167210769765 -5.9871672107697655c -3.3066211451951095,-2.024721500728073e-16 -5.9871672107697655,2.680546065574655 -5.9871672107697655 5.987167210769764c -4.049443001456146e-16,3.3066211451951095 2.6805460655746547,5.9871672107697655 5.987167210769763 5.9871672107697655c 3.3066211451951095,6.074164502184219e-16 5.9871672107697655,-2.6805460655746547 5.987167210769768 -5.987167210769764Z" /></g></g></g><g fill="rgb(0,0,0)" fill-opacity="1.0" font-size="9.97861201794961em"><g fill="rgb(0,0,0)" fill-opacity="1.0"><text transform="matrix(1.0,0.0,0.0,1.0,197.6120042786161,29.53669157313085)" dominant-baseline="middle" text-anchor="middle" stroke="none">3</text></g></g></g><path d="M 102.3879957213839,29.53669157313085 l 13.917704548157435,19.95722403589922 " /><path d="M 102.3879957213839,29.53669157313085 l -43.430440511317556,19.95722403589922 " /><path d="M 116.30570026954133,49.49391560903007 l 15.688425144076627,19.95722403589922 " /><path d="M 116.30570026954133,49.49391560903007 l -22.339618399128568,19.95722403589922 " /><g><g fill="rgb(255,255,255)" fill-opacity="1.0"><g fill="rgb(255,255,255)" fill-opacity="1.0"><g fill="rgb(255,255,255)" fill-opacity="1.0"><path d="M 137.98129262438772,69.4511396449293 c 0.0,-3.3066211451951095 -2.6805460655746556,-5.9871672107697655 -5.987167210769765 -5.9871672107697655c -3.3066211451951095,-2.024721500728073e-16 -5.9871672107697655,2.680546065574655 -5.9871672107697655 5.987167210769764c -4.049443001456146e-16,3.3066211451951095 2.6805460655746547,5.9871672107697655 5.987167210769763 5.9871672107697655c 3.3066211451951095,6.074164502184219e-16 5.9871672107697655,-2.6805460655746547 5.987167210769768 -5.987167210769764Z" /></g></g></g><g fill="rgb(0,0,0)" fill-opacity="1.0" font-size="9.97861201794961em"><g fill="rgb(0,0,0)" fill-opacity="1.0"><text transform="matrix(1.0,0.0,0.0,1.0,131.99412541361795,69.4511396449293)" dominant-baseline="middle" text-anchor="middle" stroke="none">1</text></g></g></g><g><g fill="rgb(255,255,255)" fill-opacity="1.0"><g fill="rgb(255,255,255)" fill-opacity="1.0"><g fill="rgb(255,255,255)" fill-opacity="1.0"><path d="M 99.95324908118253,69.4511396449293 c 0.0,-3.3066211451951095 -2.6805460655746556,-5.9871672107697655 -5.987167210769765 -5.9871672107697655c -3.3066211451951095,-2.024721500728073e-16 -5.9871672107697655,2.680546065574655 -5.9871672107697655 5.987167210769764c -4.049443001456146e-16,3.3066211451951095 2.6805460655746547,5.9871672107697655 5.987167210769763 5.9871672107697655c 3.3066211451951095,6.074164502184219e-16 5.9871672107697655,-2.6805460655746547 5.987167210769768 -5.987167210769764Z" /></g></g></g><g fill="rgb(0,0,0)" fill-opacity="1.0" font-size="9.97861201794961em"><g fill="rgb(0,0,0)" fill-opacity="1.0"><text transform="matrix(1.0,0.0,0.0,1.0,93.96608187041276,69.4511396449293)" dominant-baseline="middle" text-anchor="middle" stroke="none">1</text></g></g></g><g><g fill="rgb(255,255,255)" fill-opacity="1.0"><g fill="rgb(255,255,255)" fill-opacity="1.0"><g fill="rgb(255,255,255)" fill-opacity="1.0"><path d="M 122.2928674803111,49.49391560903007 c 0.0,-3.3066211451951095 -2.6805460655746556,-5.9871672107697655 -5.987167210769765 -5.9871672107697655c -3.3066211451951095,-2.024721500728073e-16 -5.9871672107697655,2.680546065574655 -5.9871672107697655 5.987167210769764c -4.049443001456146e-16,3.3066211451951095 2.6805460655746547,5.9871672107697655 5.987167210769763 5.9871672107697655c 3.3066211451951095,6.074164502184219e-16 5.9871672107697655,-2.6805460655746547 5.987167210769768 -5.987167210769764Z" /></g></g></g><g fill="rgb(0,0,0)" fill-opacity="1.0" font-size="9.97861201794961em"><g fill="rgb(0,0,0)" fill-opacity="1.0"><text transform="matrix(1.0,0.0,0.0,1.0,116.30570026954133,49.49391560903007)" dominant-baseline="middle" text-anchor="middle" stroke="none">2</text></g></g></g><path d="M 58.95755521006635,49.49391560903007 l -4.174881004313462,19.95722403589922 " /><path d="M 58.95755521006635,49.49391560903007 l -39.334024362932944,19.95722403589922 " /><g><g fill="rgb(255,255,255)" fill-opacity="1.0"><g fill="rgb(255,255,255)" fill-opacity="1.0"><g fill="rgb(255,255,255)" fill-opacity="1.0"><path d="M 60.76984141652265,69.4511396449293 c 0.0,-3.3066211451951095 -2.6805460655746556,-5.9871672107697655 -5.987167210769765 -5.9871672107697655c -3.3066211451951095,-2.024721500728073e-16 -5.9871672107697655,2.680546065574655 -5.9871672107697655 5.987167210769764c -4.049443001456146e-16,3.3066211451951095 2.6805460655746547,5.9871672107697655 5.987167210769763 5.9871672107697655c 3.3066211451951095,6.074164502184219e-16 5.9871672107697655,-2.6805460655746547 5.987167210769768 -5.987167210769764Z" /></g></g></g><g fill="rgb(0,0,0)" fill-opacity="1.0" font-size="9.97861201794961em"><g fill="rgb(0,0,0)" fill-opacity="1.0"><text transform="matrix(1.0,0.0,0.0,1.0,54.78267420575289,69.4511396449293)" dominant-baseline="middle" text-anchor="middle" stroke="none">1</text></g></g></g><g><g fill="rgb(255,255,255)" fill-opacity="1.0"><g fill="rgb(255,255,255)" fill-opacity="1.0"><g fill="rgb(255,255,255)" fill-opacity="1.0"><path d="M 25.61069805790317,69.4511396449293 c 0.0,-3.3066211451951095 -2.6805460655746556,-5.9871672107697655 -5.987167210769765 -5.9871672107697655c -3.3066211451951095,-2.024721500728073e-16 -5.9871672107697655,2.680546065574655 -5.9871672107697655 5.987167210769764c -4.049443001456146e-16,3.3066211451951095 2.6805460655746547,5.9871672107697655 5.987167210769763 5.9871672107697655c 3.3066211451951095,6.074164502184219e-16 5.9871672107697655,-2.6805460655746547 5.987167210769768 -5.987167210769764Z" /></g></g></g><g fill="rgb(0,0,0)" fill-opacity="1.0" font-size="9.97861201794961em"><g fill="rgb(0,0,0)" fill-opacity="1.0"><text transform="matrix(1.0,0.0,0.0,1.0,19.623530847133406,69.4511396449293)" dominant-baseline="middle" text-anchor="middle" stroke="none">1</text></g></g></g><g><g fill="rgb(255,255,255)" fill-opacity="1.0"><g fill="rgb(255,255,255)" fill-opacity="1.0"><g fill="rgb(255,255,255)" fill-opacity="1.0"><path d="M 64.94472242083611,49.49391560903007 c 0.0,-3.3066211451951095 -2.6805460655746556,-5.9871672107697655 -5.987167210769765 -5.9871672107697655c -3.3066211451951095,-2.024721500728073e-16 -5.9871672107697655,2.680546065574655 -5.9871672107697655 5.987167210769764c -4.049443001456146e-16,3.3066211451951095 2.6805460655746547,5.9871672107697655 5.987167210769763 5.9871672107697655c 3.3066211451951095,6.074164502184219e-16 5.9871672107697655,-2.6805460655746547 5.987167210769768 -5.987167210769764Z" /></g></g></g><g fill="rgb(0,0,0)" fill-opacity="1.0" font-size="9.97861201794961em"><g fill="rgb(0,0,0)" fill-opacity="1.0"><text transform="matrix(1.0,0.0,0.0,1.0,58.95755521006635,49.49391560903007)" dominant-baseline="middle" text-anchor="middle" stroke="none">2</text></g></g></g><g><g fill="rgb(255,255,255)" fill-opacity="1.0"><g fill="rgb(255,255,255)" fill-opacity="1.0"><g fill="rgb(255,255,255)" fill-opacity="1.0"><path d="M 108.37516293215367,29.53669157313085 c 0.0,-3.3066211451951095 -2.6805460655746556,-5.9871672107697655 -5.987167210769765 -5.9871672107697655c -3.3066211451951095,-2.024721500728073e-16 -5.9871672107697655,2.680546065574655 -5.9871672107697655 5.987167210769764c -4.049443001456146e-16,3.3066211451951095 2.6805460655746547,5.9871672107697655 5.987167210769763 5.9871672107697655c 3.3066211451951095,6.074164502184219e-16 5.9871672107697655,-2.6805460655746547 5.987167210769768 -5.987167210769764Z" /></g></g></g><g fill="rgb(0,0,0)" fill-opacity="1.0" font-size="9.97861201794961em"><g fill="rgb(0,0,0)" fill-opacity="1.0"><text transform="matrix(1.0,0.0,0.0,1.0,102.3879957213839,29.53669157313085)" dominant-baseline="middle" text-anchor="middle" stroke="none">3</text></g></g></g><g><g fill="rgb(255,255,255)" fill-opacity="1.0"><g fill="rgb(255,255,255)" fill-opacity="1.0"><g fill="rgb(255,255,255)" fill-opacity="1.0"><path d="M 155.98716721076974,9.57946753723163 c 0.0,-3.3066211451951095 -2.6805460655746556,-5.9871672107697655 -5.987167210769765 -5.9871672107697655c -3.3066211451951095,-2.024721500728073e-16 -5.9871672107697655,2.680546065574655 -5.9871672107697655 5.987167210769764c -4.049443001456146e-16,3.3066211451951095 2.6805460655746547,5.9871672107697655 5.987167210769763 5.9871672107697655c 3.3066211451951095,6.074164502184219e-16 5.9871672107697655,-2.6805460655746547 5.987167210769768 -5.987167210769764Z" /></g></g></g><g fill="rgb(0,0,0)" fill-opacity="1.0" font-size="9.97861201794961em"><g fill="rgb(0,0,0)" fill-opacity="1.0"><text transform="matrix(1.0,0.0,0.0,1.0,149.99999999999997,9.57946753723163)" dominant-baseline="middle" text-anchor="middle" stroke="none">4</text></g></g></g></g></g></g></g></svg>