<svg xmlns="http://www.w3.org/2000/svg" height="295.0820" stroke-opacity="1" viewBox="0 0 400 295" font-size="1" width="400.0000" xmlns:xlink="http://www.w3.org/1999/xlink" stroke="rgb(0,0,0)" version="1.1"><defs></defs><g stroke-linejoin="miter" stroke-opacity="1.0" fill-opacity="0.0" stroke="rgb(0,0,0)" stroke-width="1.3742360023532838" fill="rgb(0,0,0)" stroke-linecap="butt" stroke-miterlimit="10.0"><path d="M 230.6011,213.1148 l 0.0000,-5.4645 l 5.4645,0.0000 l 5.4645,0.0000 v 5.4645 l 5.4645,0.0000 l -0.0000,5.4645 l -0.0000,5.4645 h -5.4645 l 5.4645,0.0000 l -0.0000,5.4645 l -0.0000,5.4645 h -5.4645 l -0.0000,5.4645 l -5.4645,-0.0000 l -5.4645,-0.0000 v -5.4645 l 5.4645,0.0000 l -0.0000,5.4645 l -0.0000,5.4645 h -5.4645 l -0.0000,5.4645 l -5.4645,-0.0000 l -5.4645,-0.0000 v -5.4645 l -0.0000,5.4645 l -5.4645,-0.0000 l -5.4645,-0.0000 v -5.4645 l -5.4645,-0.0000 l 0.0000,-5.4645 l 0.0000,-5.4645 h 5.4645 h 5.4645 v 5.4645 v 5.4645 l -5.4645,0.0000 v 5.4645 h -5.4645 h -5.4645 l -0.0000,-5.4645 v 5.4645 h -5.4645 h -5.4645 l -0.0000,-5.4645 h -5.4645 v -5.4645 v -5.4645 l 5.4645,-0.0000 v 5.4645 h -5.4645 h -5.4645 l -0.0000,-5.4645 h -5.4645 v -5.4645 v -5.4645 l 5.4645,-0.0000 h -5.4645 v -5.4645 v -5.4645 l 5.4645,-0.0000 v -5.4645 h 5.4645 h 5.4645 l 0.0000,5.4645 h 5.4645 v 5.4645 v 5.4645 l -5.4645,0.0000 v 5.4645 h -5.4645 h -5.4645 l -0.0000,-5.4645 v 5.4645 h -5.4645 h -5.4645 l -0.0000,-5.4645 h -5.4645 v -5.4645 v -5.4645 l 5.4645,-0.0000 v 5.4645 h -5.4645 h -5.4645 l -0.0000,-5.4645 h -5.4645 v -5.4645 v -5.4645 l 5.4645,-0.0000 h -5.4645 v -5.4645 v -5.4645 l 5.4645,-0.0000 v -5.4645 h 5.4645 h 5.4645 l 0.0000,5.4645 l 0.0000,5.4645 l -5.4645,0.0000 l -5.4645,0.0000 l -0.0000,-5.4645 l -5.4645,0.0000 l -0.0000,-5.4645 l -0.0000,-5.4645 l 5.4645,-0.0000 l -5.4645,0.0000 l -0.0000,-5.4645 l -0.0000,-5.4645 l 5.4645,-0.0000 l -0.0000,-5.4645 l 5.4645,-0.0000 l 5.4645,-0.0000 l 0.0000,5.4645 l -5.4645,0.0000 l -0.0000,-5.4645 l -0.0000,-5.4645 l 5.4645,-0.0000 l -0.0000,-5.4645 l 5.4645,-0.0000 l 5.4645,-0.0000 l 0.0000,5.4645 l -0.0000,-5.4645 l 5.4645,-0.0000 l 5.4645,-0.0000 l 0.0000,5.4645 l 5.4645,-0.0000 l 0.0000,5.4645 l 0.0000,5.4645 l -5.4645,0.0000 l 5.4645,0.0000 l -0.0000,5.4645 l -0.0000,5.4645 h -5.4645 l -0.0000,5.4645 l -5.4645,-0.0000 l -5.4645,-0.0000 v -5.4645 l -0.0000,5.4645 l -5.4645,-0.0000 l -5.4645,-0.0000 v -5.4645 l -5.4645,-0.0000 l 0.0000,-5.4645 l 0.0000,-5.4645 h 5.4645 l -0.0000,5.4645 l -5.4645,-0.0000 l -5.4645,-0.0000 v -5.4645 l -5.4645,-0.0000 l 0.0000,-5.4645 l 0.0000,-5.4645 h 5.4645 l -5.4645,-0.0000 l 0.0000,-5.4645 l 0.0000,-5.4645 h 5.4645 l 0.0000,-5.4645 l 5.4645,0.0000 l 5.4645,0.0000 v 5.4645 v 5.4645 h -5.4645 h -5.4645 l -0.0000,-5.4645 h -5.4645 v -5.4645 v -5.4645 l 5.4645,-0.0000 h -5.4645 v -5.4645 v -5.4645 l 5.4645,-0.0000 v -5.4645 h 5.4645 h 5.4645 l 0.0000,5.4645 h -5.4645 v -5.4645 v -5.4645 l 5.4645,-0.0000 v -5.4645 h 5.4645 h 5.4645 l 0.0000,5.4645 v -5.4645 h 5.4645 h 5.4645 l 0.0000,5.4645 h 5.4645 v 5.4645 v 5.4645 l -5.4645,0.0000 v 5.4645 h -5.4645 h -5.4645 l -0.0000,-5.4645 h -5.4645 v -5.4645 v -5.4645 l 5.4645,-0.0000 h -5.4645 v -5.4645 v -5.4645 l 5.4645,-0.0000 v -5.4645 h 5.4645 h 5.4645 l 0.0000,5.4645 h -5.4645 v -5.4645 v -5.4645 l 5.4645,-0.0000 v -5.4645 h 5.4645 h 5.4645 l 0.0000,5.4645 v -5.4645 h 5.4645 h 5.4645 l 0.0000,5.4645 h 5.4645 v 5.4645 v 5.4645 l -5.4645,0.0000 l -5.4645,0.0000 l -0.0000,-5.4645 l -0.0000,-5.4645 l 5.4645,-0.0000 l -0.0000,-5.4645 l 5.4645,-0.0000 l 5.4645,-0.0000 l 0.0000,5.4645 l -0.0000,-5.4645 l 5.4645,-0.0000 l 5.4645,-0.0000 l 0.0000,5.4645 l 5.4645,-0.0000 l 0.0000,5.4645 l 0.0000,5.4645 l -5.4645,0.0000 l -0.0000,-5.4645 l 5.4645,-0.0000 l 5.4645,-0.0000 l 0.0000,5.4645 l 5.4645,-0.0000 l 0.0000,5.4645 l 0.0000,5.4645 l -5.4645,0.0000 l 5.4645,-0.0000 l 0.0000,5.4645 l 0.0000,5.4645 l -5.4645,0.0000 l 0.0000,5.4645 l -5.4645,0.0000 l -5.4645,0.0000 l -0.0000,-5.4645 l 5.4645,0.0000 l -0.0000,5.4645 l -0.0000,5.4645 h -5.4645 l -0.0000,5.4645 l -5.4645,-0.0000 l -5.4645,-0.0000 v -5.4645 l -0.0000,5.4645 l -5.4645,-0.0000 l -5.4645,-0.0000 v -5.4645 l -5.4645,-0.0000 l 0.0000,-5.4645 l 0.0000,-5.4645 h 5.4645 l -0.0000,5.4645 l -5.4645,-0.0000 l -5.4645,-0.0000 v -5.4645 l -5.4645,-0.0000 l 0.0000,-5.4645 l 0.0000,-5.4645 h 5.4645 l -5.4645,-0.0000 l 0.0000,-5.4645 l 0.0000,-5.4645 h 5.4645 l 0.0000,-5.4645 l 5.4645,0.0000 l 5.4645,0.0000 v 5.4645 v 5.4645 h -5.4645 h -5.4645 l -0.0000,-5.4645 h -5.4645 v -5.4645 v -5.4645 l 5.4645,-0.0000 h -5.4645 v -5.4645 v -5.4645 l 5.4645,-0.0000 v -5.4645 h 5.4645 h 5.4645 l 0.0000,5.4645 h -5.4645 v -5.4645 v -5.4645 l 5.4645,-0.0000 v -5.4645 h 5.4645 h 5.4645 l 0.0000,5.4645 v -5.4645 h 5.4645 h 5.4645 l 0.0000,5.4645 h 5.4645 v 5.4645 v 5.4645 l -5.4645,0.0000 v 5.4645 h -5.4645 h -5.4645 l -0.0000,-5.4645 h -5.4645 v -5.4645 v -5.4645 l 5.4645,-0.0000 h -5.4645 v -5.4645 v -5.4645 l 5.4645,-0.0000 v -5.4645 h 5.4645 h 5.4645 l 0.0000,5.4645 h -5.4645 v -5.4645 v -5.4645 l 5.4645,-0.0000 v -5.4645 h 5.4645 h 5.4645 l 0.0000,5.4645 v -5.4645 h 5.4645 h 5.4645 l 0.0000,5.4645 h 5.4645 v 5.4645 v 5.4645 l -5.4645,0.0000 l -5.4645,0.0000 l -0.0000,-5.4645 l -0.0000,-5.4645 l 5.4645,-0.0000 l -0.0000,-5.4645 l 5.4645,-0.0000 l 5.4645,-0.0000 l 0.0000,5.4645 l -0.0000,-5.4645 l 5.4645,-0.0000 l 5.4645,-0.0000 l 0.0000,5.4645 l 5.4645,-0.0000 l 0.0000,5.4645 l 0.0000,5.4645 l -5.4645,0.0000 l -0.0000,-5.4645 l 5.4645,-0.0000 l 5.4645,-0.0000 l 0.0000,5.4645 l 5.4645,-0.0000 l 0.0000,5.4645 l 0.0000,5.4645 l -5.4645,0.0000 l 5.4645,-0.0000 l 0.0000,5.4645 l 0.0000,5.4645 l -5.4645,0.0000 l 0.0000,5.4645 l -5.4645,0.0000 l -5.4645,0.0000 l -0.0000,-5.4645 l -0.0000,5.4645 l -5.4645,-0.0000 l -5.4645,-0.0000 v -5.4645 l -5.4645,-0.0000 l 0.0000,-5.4645 l 0.0000,-5.4645 h 5.4645 l -5.4645,-0.0000 l 0.0000,-5.4645 l 0.0000,-5.4645 h 5.4645 l 0.0000,-5.4645 l 5.4645,0.0000 l 5.4645,0.0000 v 5.4645 l -5.4645,-0.0000 l 0.0000,-5.4645 l 0.0000,-5.4645 h 5.4645 l 0.0000,-5.4645 l 5.4645,0.0000 l 5.4645,0.0000 v 5.4645 l 0.0000,-5.4645 l 5.4645,0.0000 l 5.4645,0.0000 v 5.4645 l 5.4645,0.0000 l -0.0000,5.4645 l -0.0000,5.4645 h -5.4645 h -5.4645 v -5.4645 v -5.4645 l 5.4645,-0.0000 v -5.4645 h 5.4645 h 5.4645 l 0.0000,5.4645 v -5.4645 h 5.4645 h 5.4645 l 0.0000,5.4645 h 5.4645 v 5.4645 v 5.4645 l -5.4645,0.0000 v -5.4645 h 5.4645 h 5.4645 l 0.0000,5.4645 h 5.4645 v 5.4645 v 5.4645 l -5.4645,0.0000 h 5.4645 v 5.4645 v 5.4645 l -5.4645,0.0000 v 5.4645 h -5.4645 h -5.4645 l -0.0000,-5.4645 h -5.4645 v -5.4645 v -5.4645 l 5.4645,-0.0000 v -5.4645 h 5.4645 h 5.4645 l 0.0000,5.4645 v -5.4645 h 5.4645 h 5.4645 l 0.0000,5.4645 h 5.4645 v 5.4645 v 5.4645 l -5.4645,0.0000 v -5.4645 h 5.4645 h 5.4645 l 0.0000,5.4645 h 5.4645 v 5.4645 v 5.4645 l -5.4645,0.0000 h 5.4645 v 5.4645 v 5.4645 l -5.4645,0.0000 v 5.4645 h -5.4645 h -5.4645 l -0.0000,-5.4645 l -0.0000,-5.4645 l 5.4645,-0.0000 l 5.4645,-0.0000 l 0.0000,5.4645 l 5.4645,-0.0000 l 0.0000,5.4645 l 0.0000,5.4645 l -5.4645,0.0000 l 5.4645,-0.0000 l 0.0000,5.4645 l 0.0000,5.4645 l -5.4645,0.0000 l 0.0000,5.4645 l -5.4645,0.0000 l -5.4645,0.0000 l -0.0000,-5.4645 l 5.4645,-0.0000 l 0.0000,5.4645 l 0.0000,5.4645 l -5.4645,0.0000 l 0.0000,5.4645 l -5.4645,0.0000 l -5.4645,0.0000 l -0.0000,-5.4645 l 0.0000,5.4645 l -5.4645,0.0000 l -5.4645,0.0000 l -0.0000,-5.4645 l -5.4645,0.0000 l -0.0000,-5.4645 l -0.0000,-5.4645 l 5.4645,-0.0000 "/></g><g stroke-linejoin="miter" stroke-opacity="1.0" fill-opacity="0.0" stroke="rgb(0,0,0)" stroke-width="1.3742360023532838" fill="rgb(0,0,0)" stroke-linecap="butt" stroke-miterlimit="10.0"><path d="M 43.7158,213.1148 l 0.0000,-87.4317 h 87.4317 "/></g></svg>