<svg xmlns="http://www.w3.org/2000/svg" height="72.8155" stroke-opacity="1" viewBox="0 0 400 73" font-size="1" width="400.0000" xmlns:xlink="http://www.w3.org/1999/xlink" stroke="rgb(0,0,0)" version="1.1"><defs></defs><g stroke-linejoin="miter" stroke-opacity="1.0" fill-opacity="0.0" stroke="rgb(0,0,0)" stroke-width="0.6826561487862891" fill="rgb(0,0,0)" stroke-linecap="butt" stroke-miterlimit="10.0"><path d="M 351.4563,48.5437 l -4.8544,-4.8544 l -4.8544,4.8544 l 4.8544,4.8544 l -4.8544,4.8544 l 4.8544,4.8544 l 4.8544,-4.8544 l 4.8544,4.8544 l -4.8544,4.8544 l 4.8544,4.8544 l 4.8544,-4.8544 l -4.8544,-4.8544 l 4.8544,-4.8544 l 4.8544,4.8544 l 4.8544,-4.8544 l 4.8544,4.8544 l -4.8544,4.8544 l 4.8544,4.8544 l 4.8544,-4.8544 l -4.8544,-4.8544 l 4.8544,-4.8544 l -4.8544,-4.8544 l -4.8544,4.8544 l -4.8544,-4.8544 l 4.8544,-4.8544 l 4.8544,4.8544 l 4.8544,-4.8544 l -4.8544,-4.8544 l 4.8544,-4.8544 l 4.8544,4.8544 l 4.8544,-4.8544 l 4.8544,4.8544 l -4.8544,4.8544 l 4.8544,4.8544 l 4.8544,-4.8544 l -4.8544,-4.8544 l 4.8544,-4.8544 l -4.8544,-4.8544 l -4.8544,4.8544 l -4.8544,-4.8544 l 4.8544,-4.8544 l -4.8544,-4.8544 l -4.8544,4.8544 l 4.8544,4.8544 l -4.8544,4.8544 l -4.8544,-4.8544 l -4.8544,4.8544 l -4.8544,-4.8544 l 4.8544,-4.8544 l 4.8544,4.8544 l 4.8544,-4.8544 l -4.8544,-4.8544 l 4.8544,-4.8544 l -4.8544,-4.8544 l -4.8544,4.8544 l -4.8544,-4.8544 l 4.8544,-4.8544 l 4.8544,4.8544 l 4.8544,-4.8544 l -4.8544,-4.8544 l 4.8544,-4.8544 l 4.8544,4.8544 l 4.8544,-4.8544 l 4.8544,4.8544 l -4.8544,4.8544 "/></g><g stroke-linejoin="miter" stroke-opacity="1.0" fill-opacity="0.0" stroke="rgb(0,0,0)" stroke-width="0.6826561487862891" fill="rgb(0,0,0)" stroke-linecap="butt" stroke-miterlimit="10.0"><path d="M 281.5534,48.5437 l -9.7087,0.0000 l -0.0000,9.7087 l 9.7087,0.0000 l -0.0000,9.7087 l 9.7087,0.0000 l 0.0000,-9.7087 l 9.7087,0.0000 l -0.0000,9.7087 l 9.7087,0.0000 l 0.0000,-9.7087 l -9.7087,-0.0000 l 0.0000,-9.7087 l 9.7087,0.0000 l 0.0000,-9.7087 l 9.7087,0.0000 l -0.0000,9.7087 h 9.7087 l 0.0000,-9.7087 l -9.7087,-0.0000 l 0.0000,-9.7087 l -9.7087,-0.0000 l -0.0000,9.7087 l -9.7087,-0.0000 l 0.0000,-9.7087 l 9.7087,0.0000 l 0.0000,-9.7087 l -9.7087,-0.0000 l 0.0000,-9.7087 l 9.7087,0.0000 l 0.0000,-9.7087 h 9.7087 l 0.0000,9.7087 "/></g><g stroke-linejoin="miter" stroke-opacity="1.0" fill-opacity="0.0" stroke="rgb(0,0,0)" stroke-width="0.6826561487862891" fill="rgb(0,0,0)" stroke-linecap="butt" stroke-miterlimit="10.0"><path d="M 211.6505,48.5437 l -9.7087,9.7087 l 9.7087,9.7087 l 9.7087,-9.7087 l 9.7087,9.7087 l 9.7087,-9.7087 l -9.7087,-9.7087 l 9.7087,-9.7087 l 9.7087,9.7087 l 9.7087,-9.7087 l -9.7087,-9.7087 l -9.7087,9.7087 l -9.7087,-9.7087 l 9.7087,-9.7087 l -9.7087,-9.7087 l 9.7087,-9.7087 l 9.7087,9.7087 "/></g><g stroke-linejoin="miter" stroke-opacity="1.0" fill-opacity="0.0" stroke="rgb(0,0,0)" stroke-width="0.6826561487862891" fill="rgb(0,0,0)" stroke-linecap="butt" stroke-miterlimit="10.0"><path d="M 151.4563,48.5437 l 0.0000,19.4175 l 19.4175,-0.0000 l 0.0000,-19.4175 l 19.4175,-0.0000 l 0.0000,-19.4175 l -19.4175,-0.0000 l 0.0000,-19.4175 l 19.4175,0.0000 "/></g><g stroke-linejoin="miter" stroke-opacity="1.0" fill-opacity="0.0" stroke="rgb(0,0,0)" stroke-width="0.6826561487862891" fill="rgb(0,0,0)" stroke-linecap="butt" stroke-miterlimit="10.0"><path d="M 100.9709,48.5437 l 19.4175,19.4175 l 19.4175,-19.4175 l -19.4175,-19.4175 l 19.4175,-19.4175 "/></g><g stroke-linejoin="miter" stroke-opacity="1.0" fill-opacity="0.0" stroke="rgb(0,0,0)" stroke-width="0.6826561487862891" fill="rgb(0,0,0)" stroke-linecap="butt" stroke-miterlimit="10.0"><path d="M 50.4854,48.5437 h 38.8350 l 0.0000,-38.8350 "/></g><g stroke-linejoin="miter" stroke-opacity="1.0" fill-opacity="0.0" stroke="rgb(0,0,0)" stroke-width="0.6826561487862891" fill="rgb(0,0,0)" stroke-linecap="butt" stroke-miterlimit="10.0"><path d="M 0.0000,48.5437 h 38.8350 "/></g></svg>