<?xml version="1.0" encoding="UTF-8"?>
<!DOCTYPE svg PUBLIC "-//W3C//DTD SVG 1.1//EN"
    "http://www.w3.org/Graphics/SVG/1.1/DTD/svg11.dtd">
<svg xmlns="http://www.w3.org/2000/svg" xmlns:xlink="http://www.w3.org/1999/xlink" version="1.1" width="590.1523919995885" height="100.0" font-size="1" viewBox="0 0 590 100" stroke="rgb(0,0,0)" stroke-opacity="1"><g><g fill="rgb(0,0,0)" fill-opacity="0.0"><g stroke="rgb(0,0,0)" stroke-opacity="1.0" stroke-width="0.9717220936046178" stroke-linecap="butt" stroke-linejoin="miter" font-size="1.0em" stroke-miterlimit="10.0"><g><g><g><g stroke-width="2.857142857142858"><path d="M 585.58096342816,38.285714285714256 c -7.206818144640206,-5.8595475290768935 -14.413636289280406,-11.719095058153808 -22.857142857142865 -11.428571428571432c -8.443506567862464,0.2905236295823752 -18.123701558947186,6.731118417824019 -22.857142857142865 11.428571428571432c -4.73344129819568,4.697453010747413 -4.520128903502316,7.651764244000595 0.0 11.428571428571432c 4.520128903502316,3.776807184570837 13.347074315813586,8.376110320459345 22.857142857142865 11.428571428571432c 9.510068541329279,3.052461108112088 19.703260211676564,4.558080188447762 22.857142857142865 11.428571428571432c 3.1538826454663,6.870491240123669 -0.7315437339484075,19.10585464003534 -11.428571428571432 22.85714285714286c -10.697027694623024,3.7512882171075246 -28.205656704454377,-0.9814987485890962 -45.71428571428573 -5.714285714285719" /></g><g fill="rgb(0,0,255)" fill-opacity="1.0" stroke-width="0.0"><g fill="rgb(0,0,255)" fill-opacity="1.0"><g fill="rgb(0,0,255)" fill-opacity="1.0"><path d="M 533.0095348567314,89.7142857142857 c 0.0,-2.524730284940771 -2.0466982864878016,-4.571428571428573 -4.571428571428572 -4.571428571428573c -2.524730284940771,-1.54595143108155e-16 -4.571428571428573,2.046698286487801 -4.571428571428573 4.571428571428571c -3.0919028621631e-16,2.524730284940771 2.046698286487801,4.571428571428573 4.571428571428571 4.571428571428573c 2.524730284940771,4.63785429324465e-16 4.571428571428573,-2.0466982864878007 4.571428571428575 -4.571428571428571Z" /></g></g></g><g fill="rgb(0,0,255)" fill-opacity="1.0" stroke-width="0.0"><g fill="rgb(0,0,255)" fill-opacity="1.0"><g fill="rgb(0,0,255)" fill-opacity="1.0"><path d="M 578.7238205710172,95.42857142857142 c 0.0,-2.524730284940771 -2.0466982864878016,-4.571428571428573 -4.571428571428572 -4.571428571428573c -2.524730284940771,-1.54595143108155e-16 -4.571428571428573,2.046698286487801 -4.571428571428573 4.571428571428571c -3.0919028621631e-16,2.524730284940771 2.046698286487801,4.571428571428573 4.571428571428571 4.571428571428573c 2.524730284940771,4.63785429324465e-16 4.571428571428573,-2.0466982864878007 4.571428571428575 -4.571428571428571Z" /></g></g></g><g fill="rgb(0,0,255)" fill-opacity="1.0" stroke-width="0.0"><g fill="rgb(0,0,255)" fill-opacity="1.0"><g fill="rgb(0,0,255)" fill-opacity="1.0"><path d="M 590.1523919995885,72.57142857142856 c 0.0,-2.524730284940771 -2.0466982864878016,-4.571428571428573 -4.571428571428572 -4.571428571428573c -2.524730284940771,-1.54595143108155e-16 -4.571428571428573,2.046698286487801 -4.571428571428573 4.571428571428571c -3.0919028621631e-16,2.524730284940771 2.046698286487801,4.571428571428573 4.571428571428571 4.571428571428573c 2.524730284940771,4.63785429324465e-16 4.571428571428573,-2.0466982864878007 4.571428571428575 -4.571428571428571Z" /></g></g></g><g fill="rgb(0,0,255)" fill-opacity="1.0" stroke-width="0.0"><g fill="rgb(0,0,255)" fill-opacity="1.0"><g fill="rgb(0,0,255)" fill-opacity="1.0"><path d="M 567.2952491424458,61.14285714285712 c 0.0,-2.524730284940771 -2.0466982864878016,-4.571428571428573 -4.571428571428572 -4.571428571428573c -2.524730284940771,-1.54595143108155e-16 -4.571428571428573,2.046698286487801 -4.571428571428573 4.571428571428571c -3.0919028621631e-16,2.524730284940771 2.046698286487801,4.571428571428573 4.571428571428571 4.571428571428573c 2.524730284940771,4.63785429324465e-16 4.571428571428573,-2.0466982864878007 4.571428571428575 -4.571428571428571Z" /></g></g></g><g fill="rgb(0,0,255)" fill-opacity="1.0" stroke-width="0.0"><g fill="rgb(0,0,255)" fill-opacity="1.0"><g fill="rgb(0,0,255)" fill-opacity="1.0"><path d="M 544.4381062853029,49.71428571428569 c 0.0,-2.524730284940771 -2.0466982864878016,-4.571428571428573 -4.571428571428572 -4.571428571428573c -2.524730284940771,-1.54595143108155e-16 -4.571428571428573,2.046698286487801 -4.571428571428573 4.571428571428571c -3.0919028621631e-16,2.524730284940771 2.046698286487801,4.571428571428573 4.571428571428571 4.571428571428573c 2.524730284940771,4.63785429324465e-16 4.571428571428573,-2.0466982864878007 4.571428571428575 -4.571428571428571Z" /></g></g></g><g fill="rgb(0,0,255)" fill-opacity="1.0" stroke-width="0.0"><g fill="rgb(0,0,255)" fill-opacity="1.0"><g fill="rgb(0,0,255)" fill-opacity="1.0"><path d="M 544.4381062853029,38.285714285714256 c 0.0,-2.524730284940771 -2.0466982864878016,-4.571428571428573 -4.571428571428572 -4.571428571428573c -2.524730284940771,-1.54595143108155e-16 -4.571428571428573,2.046698286487801 -4.571428571428573 4.571428571428571c -3.0919028621631e-16,2.524730284940771 2.046698286487801,4.571428571428573 4.571428571428571 4.571428571428573c 2.524730284940771,4.63785429324465e-16 4.571428571428573,-2.0466982864878007 4.571428571428575 -4.571428571428571Z" /></g></g></g><g fill="rgb(0,0,255)" fill-opacity="1.0" stroke-width="0.0"><g fill="rgb(0,0,255)" fill-opacity="1.0"><g fill="rgb(0,0,255)" fill-opacity="1.0"><path d="M 567.2952491424458,26.85714285714282 c 0.0,-2.524730284940771 -2.0466982864878016,-4.571428571428573 -4.571428571428572 -4.571428571428573c -2.524730284940771,-1.54595143108155e-16 -4.571428571428573,2.046698286487801 -4.571428571428573 4.571428571428571c -3.0919028621631e-16,2.524730284940771 2.046698286487801,4.571428571428573 4.571428571428571 4.571428571428573c 2.524730284940771,4.63785429324465e-16 4.571428571428573,-2.0466982864878007 4.571428571428575 -4.571428571428571Z" /></g></g></g><g fill="rgb(0,0,255)" fill-opacity="1.0" stroke-width="0.0"><g fill="rgb(0,0,255)" fill-opacity="1.0"><g fill="rgb(0,0,255)" fill-opacity="1.0"><path d="M 590.1523919995885,38.285714285714256 c 0.0,-2.524730284940771 -2.0466982864878016,-4.571428571428573 -4.571428571428572 -4.571428571428573c -2.524730284940771,-1.54595143108155e-16 -4.571428571428573,2.046698286487801 -4.571428571428573 4.571428571428571c -3.0919028621631e-16,2.524730284940771 2.046698286487801,4.571428571428573 4.571428571428571 4.571428571428573c 2.524730284940771,4.63785429324465e-16 4.571428571428573,-2.0466982864878007 4.571428571428575 -4.571428571428571Z" /></g></g></g></g><g><g fill="rgb(0,128,0)" fill-opacity="1.0" font-size="85.71428571428574em" font-style="italic" font-family="freeserif"><g fill="rgb(0,128,0)" fill-opacity="1.0"><text transform="matrix(1.0,0.0,0.0,1.0,481.0095348567314,64.28571428571428)" dominant-baseline="middle" text-anchor="middle" stroke="none">m</text></g></g><g stroke-width="0.7142857142857145"><path d="M 516.7238205710172,100.0 l -7.930164461608263e-15,-71.42857142857144 h -71.42857142857144 l -7.930164461608263e-15,71.42857142857144 Z" /></g></g></g><g stroke-width="1.428571428571429"><path d="M 387.50652708149556,35.714285714285694 l 21.03097697461422,28.57142857142858 " /><path d="M 387.50652708149556,35.714285714285694 l -21.030976974614227,28.57142857142858 " /><path d="M 408.53750405610975,64.28571428571428 l 22.472030800621575,28.57142857142858 " /><path d="M 408.53750405610975,64.28571428571428 l -4.124063131484744,28.57142857142858 " /><g fill="rgb(128,0,128)" fill-opacity="1.0"><g fill="rgb(128,0,128)" fill-opacity="1.0"><g fill="rgb(128,0,128)" fill-opacity="1.0"><path d="M 438.1523919995885,92.85714285714286 c 0.0,-3.9448910702199544 -3.1979660726371897,-7.142857142857145 -7.142857142857143 -7.142857142857145c -3.9448910702199544,-2.415549111064922e-16 -7.142857142857145,3.1979660726371892 -7.142857142857145 7.142857142857142c -4.831098222129844e-16,3.9448910702199544 3.197966072637189,7.142857142857145 7.1428571428571415 7.142857142857145c 3.9448910702199544,7.246647333194766e-16 7.142857142857145,-3.197966072637189 7.142857142857147 -7.142857142857142Z" /></g></g></g><g fill="rgb(128,0,128)" fill-opacity="1.0"><g fill="rgb(128,0,128)" fill-opacity="1.0"><g fill="rgb(128,0,128)" fill-opacity="1.0"><path d="M 411.5562980674822,92.85714285714286 c 0.0,-3.9448910702199544 -3.1979660726371897,-7.142857142857145 -7.142857142857143 -7.142857142857145c -3.9448910702199544,-2.415549111064922e-16 -7.142857142857145,3.1979660726371892 -7.142857142857145 7.142857142857142c -4.831098222129844e-16,3.9448910702199544 3.197966072637189,7.142857142857145 7.1428571428571415 7.142857142857145c 3.9448910702199544,7.246647333194766e-16 7.142857142857145,-3.197966072637189 7.142857142857147 -7.142857142857142Z" /></g></g></g><g fill="rgb(128,0,128)" fill-opacity="1.0"><g fill="rgb(128,0,128)" fill-opacity="1.0"><g fill="rgb(128,0,128)" fill-opacity="1.0"><path d="M 415.6803611989669,64.28571428571428 c 0.0,-3.9448910702199544 -3.1979660726371897,-7.142857142857145 -7.142857142857143 -7.142857142857145c -3.9448910702199544,-2.415549111064922e-16 -7.142857142857145,3.1979660726371892 -7.142857142857145 7.142857142857142c -4.831098222129844e-16,3.9448910702199544 3.197966072637189,7.142857142857145 7.1428571428571415 7.142857142857145c 3.9448910702199544,7.246647333194766e-16 7.142857142857145,-3.197966072637189 7.142857142857147 -7.142857142857142Z" /></g></g></g><path d="M 366.4755501068813,64.28571428571428 l 4.124063131484753,28.57142857142858 " /><path d="M 366.4755501068813,64.28571428571428 l -22.472030800621575,28.57142857142858 " /><g fill="rgb(128,0,128)" fill-opacity="1.0"><g fill="rgb(128,0,128)" fill-opacity="1.0"><g fill="rgb(128,0,128)" fill-opacity="1.0"><path d="M 377.74247038122326,92.85714285714286 c 0.0,-3.9448910702199544 -3.1979660726371897,-7.142857142857145 -7.142857142857143 -7.142857142857145c -3.9448910702199544,-2.415549111064922e-16 -7.142857142857145,3.1979660726371892 -7.142857142857145 7.142857142857142c -4.831098222129844e-16,3.9448910702199544 3.197966072637189,7.142857142857145 7.1428571428571415 7.142857142857145c 3.9448910702199544,7.246647333194766e-16 7.142857142857145,-3.197966072637189 7.142857142857147 -7.142857142857142Z" /></g></g></g><g fill="rgb(128,0,128)" fill-opacity="1.0"><g fill="rgb(128,0,128)" fill-opacity="1.0"><g fill="rgb(128,0,128)" fill-opacity="1.0"><path d="M 351.14637644911693,92.85714285714286 c 0.0,-3.9448910702199544 -3.1979660726371897,-7.142857142857145 -7.142857142857143 -7.142857142857145c -3.9448910702199544,-2.415549111064922e-16 -7.142857142857145,3.1979660726371892 -7.142857142857145 7.142857142857142c -4.831098222129844e-16,3.9448910702199544 3.197966072637189,7.142857142857145 7.1428571428571415 7.142857142857145c 3.9448910702199544,7.246647333194766e-16 7.142857142857145,-3.197966072637189 7.142857142857147 -7.142857142857142Z" /></g></g></g><g fill="rgb(128,0,128)" fill-opacity="1.0"><g fill="rgb(128,0,128)" fill-opacity="1.0"><g fill="rgb(128,0,128)" fill-opacity="1.0"><path d="M 373.6184072497385,64.28571428571428 c 0.0,-3.9448910702199544 -3.1979660726371897,-7.142857142857145 -7.142857142857143 -7.142857142857145c -3.9448910702199544,-2.415549111064922e-16 -7.142857142857145,3.1979660726371892 -7.142857142857145 7.142857142857142c -4.831098222129844e-16,3.9448910702199544 3.197966072637189,7.142857142857145 7.1428571428571415 7.142857142857145c 3.9448910702199544,7.246647333194766e-16 7.142857142857145,-3.197966072637189 7.142857142857147 -7.142857142857142Z" /></g></g></g><g fill="rgb(128,0,128)" fill-opacity="1.0"><g fill="rgb(128,0,128)" fill-opacity="1.0"><g fill="rgb(128,0,128)" fill-opacity="1.0"><path d="M 394.64938422435273,35.714285714285694 c 0.0,-3.9448910702199544 -3.1979660726371897,-7.142857142857145 -7.142857142857143 -7.142857142857145c -3.9448910702199544,-2.415549111064922e-16 -7.142857142857145,3.1979660726371892 -7.142857142857145 7.142857142857142c -4.831098222129844e-16,3.9448910702199544 3.197966072637189,7.142857142857145 7.1428571428571415 7.142857142857145c 3.9448910702199544,7.246647333194766e-16 7.142857142857145,-3.197966072637189 7.142857142857147 -7.142857142857142Z" /></g></g></g></g><g><g stroke="rgb(255,165,0)" stroke-opacity="1.0" stroke-width="4.2857142857142865" stroke-linecap="round" stroke-linejoin="round"><path d="M 322.136051054788,92.41824603424254 l -30.304576336566335,-30.304576336566328 l 12.857142857142861,-1.5745458846180261e-15 l 10.401647070535041,-7.557238958046087 l 3.97307564196361,-12.227869495223407 l -3.9730756419636117,-12.227869495223407 l -10.401647070535043,-7.557238958046085 h -12.857142857142861 l -4.373738568383406e-15,71.42857142857144 " /></g><g stroke-width="1.428571428571429"><path d="M 313.2944113491482,93.67813177412486 l 16.423393671397246,6.321868225875128 l -6.321868225875133,-16.423393671397243 Z" /></g></g></g><g><g><g stroke-width="0.7142857142857145"><g stroke="rgb(128,128,128)" stroke-opacity="1.0"><g clip-path="url(#myClip1)"><clipPath id="myClip1"><path d="M 284.68861757536456,100.0 l -7.930164461608263e-15,-71.42857142857144 h -71.42857142857144 l -7.930164461608263e-15,71.42857142857144 Z" /></clipPath><g><g><g><g><path d="M 202.0107338868678,-22.32290606109598 l 135.8652166135934,44.14528491070679 " /></g><path d="M 199.80346964133247,-15.529645230416312 l 135.8652166135934,44.14528491070679 " /></g><g><path d="M 197.59620539579714,-8.736384399736643 l 135.8652166135934,44.14528491070679 " /></g><path d="M 195.38894115026181,-1.9431235690569721 l 135.8652166135934,44.14528491070679 " /></g><g><g><g><g><path d="M 193.1816769047265,4.8501372616226845 l 135.8652166135934,44.14528491070679 " /></g><path d="M 190.97441265919116,11.643398092302355 l 135.8652166135934,44.14528491070679 " /></g><g><path d="M 188.76714841365583,18.436658922982026 l 135.8652166135934,44.14528491070679 " /></g><path d="M 186.55988416812045,25.229919753661697 l 135.8652166135934,44.14528491070679 " /></g><g><g><path d="M 184.35261992258512,32.02318058434137 l 135.8652166135934,44.14528491070679 " /></g><path d="M 182.1453556770498,38.81644141502104 l 135.8652166135934,44.14528491070679 " /></g><g><path d="M 179.9380914315144,45.60970224570071 l 135.8652166135934,44.14528491070679 " /></g><path d="M 177.73082718597908,52.40296307638038 l 135.8652166135934,44.14528491070679 " /></g><g><g><g><path d="M 175.52356294044375,59.19622390706005 l 135.8652166135934,44.14528491070679 " /></g><path d="M 173.31629869490843,65.98948473773973 l 135.8652166135934,44.14528491070679 " /></g><g><path d="M 171.1090344493731,72.78274556841939 l 135.8652166135934,44.14528491070679 " /></g><path d="M 168.90177020383777,79.57600639909907 l 135.8652166135934,44.14528491070679 " /></g><g><g><path d="M 166.6945059583024,86.36926722977873 l 135.8652166135934,44.14528491070679 " /></g><path d="M 164.48724171276706,93.16252806045841 l 135.8652166135934,44.14528491070679 " /></g><g><path d="M 162.27997746723173,99.95578889113807 l 135.8652166135934,44.14528491070679 " /></g><path d="M 160.0727132216964,106.74904972181776 l 135.8652166135934,44.14528491070679 " /></g><g><g><g><g><path d="M 335.58295220788904,17.322116311503308 l -44.14528491070678,135.8652166135934 " /></g><path d="M 328.78969137720935,15.114852065967966 l -44.14528491070678,135.8652166135934 " /></g><g><path d="M 321.9964305465297,12.907587820432624 l -44.14528491070678,135.8652166135934 " /></g><path d="M 315.20316971585004,10.700323574897283 l -44.14528491070678,135.8652166135934 " /></g><g><g><g><g><path d="M 308.40990888517035,8.493059329361955 l -44.14528491070678,135.8652166135934 " /></g><path d="M 301.61664805449067,6.2857950838266134 l -44.14528491070678,135.8652166135934 " /></g><g><path d="M 294.82338722381104,4.078530838291272 l -44.14528491070678,135.8652166135934 " /></g><path d="M 288.03012639313135,1.87126659275593 l -44.14528491070678,135.8652166135934 " /></g><g><g><path d="M 281.2368655624517,-0.33599765277941174 l -44.14528491070678,135.8652166135934 " /></g><path d="M 274.44360473177204,-2.5432618983147535 l -44.14528491070678,135.8652166135934 " /></g><g><path d="M 267.65034390109236,-4.750526143850088 l -44.14528491070678,135.8652166135934 " /></g><path d="M 260.8570830704127,-6.95779038938543 l -44.14528491070678,135.8652166135934 " /></g><g><g><g><path d="M 254.063822239733,-9.165054634920772 l -44.14528491070678,135.8652166135934 " /></g><path d="M 247.27056140905336,-11.372318880456113 l -44.14528491070678,135.8652166135934 " /></g><g><path d="M 240.47730057837367,-13.579583125991448 l -44.14528491070678,135.8652166135934 " /></g><path d="M 233.68403974769402,-15.78684737152679 l -44.14528491070678,135.8652166135934 " /></g><g><g><path d="M 226.89077891701433,-17.994111617062124 l -44.14528491070678,135.8652166135934 " /></g><path d="M 220.09751808633467,-20.201375862597466 l -44.14528491070678,135.8652166135934 " /></g><g><path d="M 213.304257255655,-22.4086401081328 l -44.14528491070678,135.8652166135934 " /></g><path d="M 206.51099642497533,-24.615904353668142 l -44.14528491070678,135.8652166135934 " /></g></g></g></g><g fill="rgb(0,0,0)" fill-opacity="1.0" font-size="57.14285714285716em"><g fill="rgb(0,0,0)" fill-opacity="1.0"><text transform="matrix(0.9510565162951538,0.30901699437494745,-0.30901699437494745,0.9510565162951538,248.9743318610788,64.28571428571428)" dominant-baseline="middle" text-anchor="middle" stroke="none">G</text></g></g></g><g fill="rgb(0,0,128)" fill-opacity="1.0" stroke-width="0.0"><g fill="rgb(0,0,128)" fill-opacity="1.0"><g fill="rgb(0,0,128)" fill-opacity="1.0"><g><g fill="rgb(0,0,128)" fill-opacity="1.0"><g fill="rgb(0,0,128)" fill-opacity="1.0"><g><g fill="rgb(0,0,128)" fill-opacity="1.0"><g fill="rgb(0,0,128)" fill-opacity="1.0"><g><g fill="rgb(0,0,128)" fill-opacity="1.0"><g fill="rgb(0,0,128)" fill-opacity="1.0"><g><g fill="rgb(0,0,128)" fill-opacity="1.0"><g fill="rgb(0,0,128)" fill-opacity="1.0"><g><g fill="rgb(0,0,128)" fill-opacity="1.0"><g fill="rgb(0,0,128)" fill-opacity="1.0"><g><g fill="rgb(0,0,128)" fill-opacity="1.0"><g fill="rgb(0,0,128)" fill-opacity="1.0"><path d="M 206.11718900393592,99.99999999999999 l -6.18589574131742,-10.714285714285715 l -6.185895741317422,10.714285714285715 Z" /></g></g></g><g fill="rgb(0,0,128)" fill-opacity="1.0"><path d="M 193.74539752130107,99.99999999999999 l -6.18589574131742,-10.714285714285715 l -6.185895741317422,10.714285714285715 Z" /></g></g></g></g><g fill="rgb(0,0,128)" fill-opacity="1.0"><path d="M 199.93129326261848,89.28571428571428 l -6.18589574131742,-10.714285714285715 l -6.185895741317422,10.714285714285715 Z" /></g></g></g></g><g fill="rgb(0,0,128)" fill-opacity="1.0"><g><g fill="rgb(0,0,128)" fill-opacity="1.0"><g fill="rgb(0,0,128)" fill-opacity="1.0"><g><g fill="rgb(0,0,128)" fill-opacity="1.0"><g fill="rgb(0,0,128)" fill-opacity="1.0"><path d="M 181.37360603866622,99.99999999999999 l -6.18589574131742,-10.714285714285715 l -6.185895741317422,10.714285714285715 Z" /></g></g></g><g fill="rgb(0,0,128)" fill-opacity="1.0"><path d="M 169.00181455603138,99.99999999999999 l -6.18589574131742,-10.714285714285715 l -6.185895741317422,10.714285714285715 Z" /></g></g></g></g><g fill="rgb(0,0,128)" fill-opacity="1.0"><path d="M 175.1877102973488,89.28571428571428 l -6.18589574131742,-10.714285714285715 l -6.185895741317422,10.714285714285715 Z" /></g></g></g></g></g><g fill="rgb(0,0,128)" fill-opacity="1.0"><g><g fill="rgb(0,0,128)" fill-opacity="1.0"><g fill="rgb(0,0,128)" fill-opacity="1.0"><g><g fill="rgb(0,0,128)" fill-opacity="1.0"><g fill="rgb(0,0,128)" fill-opacity="1.0"><path d="M 193.74539752130107,78.57142857142857 l -6.18589574131742,-10.714285714285715 l -6.185895741317422,10.714285714285715 Z" /></g></g></g><g fill="rgb(0,0,128)" fill-opacity="1.0"><path d="M 181.37360603866622,78.57142857142857 l -6.18589574131742,-10.714285714285715 l -6.185895741317422,10.714285714285715 Z" /></g></g></g></g><g fill="rgb(0,0,128)" fill-opacity="1.0"><path d="M 187.55950177998363,67.85714285714285 l -6.18589574131742,-10.714285714285715 l -6.185895741317422,10.714285714285715 Z" /></g></g></g></g></g><g fill="rgb(0,0,128)" fill-opacity="1.0"><g><g fill="rgb(0,0,128)" fill-opacity="1.0"><g fill="rgb(0,0,128)" fill-opacity="1.0"><g><g fill="rgb(0,0,128)" fill-opacity="1.0"><g fill="rgb(0,0,128)" fill-opacity="1.0"><g><g fill="rgb(0,0,128)" fill-opacity="1.0"><g fill="rgb(0,0,128)" fill-opacity="1.0"><g><g fill="rgb(0,0,128)" fill-opacity="1.0"><g fill="rgb(0,0,128)" fill-opacity="1.0"><path d="M 156.63002307339653,99.99999999999999 l -6.18589574131742,-10.714285714285715 l -6.185895741317422,10.714285714285715 Z" /></g></g></g><g fill="rgb(0,0,128)" fill-opacity="1.0"><path d="M 144.25823159076168,99.99999999999999 l -6.18589574131742,-10.714285714285715 l -6.185895741317422,10.714285714285715 Z" /></g></g></g></g><g fill="rgb(0,0,128)" fill-opacity="1.0"><path d="M 150.4441273320791,89.28571428571428 l -6.18589574131742,-10.714285714285715 l -6.185895741317422,10.714285714285715 Z" /></g></g></g></g><g fill="rgb(0,0,128)" fill-opacity="1.0"><g><g fill="rgb(0,0,128)" fill-opacity="1.0"><g fill="rgb(0,0,128)" fill-opacity="1.0"><g><g fill="rgb(0,0,128)" fill-opacity="1.0"><g fill="rgb(0,0,128)" fill-opacity="1.0"><path d="M 131.88644010812686,99.99999999999999 l -6.18589574131742,-10.714285714285715 l -6.185895741317422,10.714285714285715 Z" /></g></g></g><g fill="rgb(0,0,128)" fill-opacity="1.0"><path d="M 119.51464862549201,99.99999999999999 l -6.18589574131742,-10.714285714285715 l -6.185895741317422,10.714285714285715 Z" /></g></g></g></g><g fill="rgb(0,0,128)" fill-opacity="1.0"><path d="M 125.70054436680944,89.28571428571428 l -6.18589574131742,-10.714285714285715 l -6.185895741317422,10.714285714285715 Z" /></g></g></g></g></g><g fill="rgb(0,0,128)" fill-opacity="1.0"><g><g fill="rgb(0,0,128)" fill-opacity="1.0"><g fill="rgb(0,0,128)" fill-opacity="1.0"><g><g fill="rgb(0,0,128)" fill-opacity="1.0"><g fill="rgb(0,0,128)" fill-opacity="1.0"><path d="M 144.25823159076168,78.57142857142857 l -6.18589574131742,-10.714285714285715 l -6.185895741317422,10.714285714285715 Z" /></g></g></g><g fill="rgb(0,0,128)" fill-opacity="1.0"><path d="M 131.88644010812686,78.57142857142857 l -6.18589574131742,-10.714285714285715 l -6.185895741317422,10.714285714285715 Z" /></g></g></g></g><g fill="rgb(0,0,128)" fill-opacity="1.0"><path d="M 138.07233584944427,67.85714285714285 l -6.18589574131742,-10.714285714285715 l -6.185895741317422,10.714285714285715 Z" /></g></g></g></g></g></g><g fill="rgb(0,0,128)" fill-opacity="1.0"><g><g fill="rgb(0,0,128)" fill-opacity="1.0"><g fill="rgb(0,0,128)" fill-opacity="1.0"><g><g fill="rgb(0,0,128)" fill-opacity="1.0"><g fill="rgb(0,0,128)" fill-opacity="1.0"><g><g fill="rgb(0,0,128)" fill-opacity="1.0"><g fill="rgb(0,0,128)" fill-opacity="1.0"><g><g fill="rgb(0,0,128)" fill-opacity="1.0"><g fill="rgb(0,0,128)" fill-opacity="1.0"><path d="M 181.37360603866622,57.14285714285713 l -6.18589574131742,-10.714285714285715 l -6.185895741317422,10.714285714285715 Z" /></g></g></g><g fill="rgb(0,0,128)" fill-opacity="1.0"><path d="M 169.00181455603138,57.14285714285713 l -6.18589574131742,-10.714285714285715 l -6.185895741317422,10.714285714285715 Z" /></g></g></g></g><g fill="rgb(0,0,128)" fill-opacity="1.0"><path d="M 175.1877102973488,46.428571428571416 l -6.18589574131742,-10.714285714285715 l -6.185895741317422,10.714285714285715 Z" /></g></g></g></g><g fill="rgb(0,0,128)" fill-opacity="1.0"><g><g fill="rgb(0,0,128)" fill-opacity="1.0"><g fill="rgb(0,0,128)" fill-opacity="1.0"><g><g fill="rgb(0,0,128)" fill-opacity="1.0"><g fill="rgb(0,0,128)" fill-opacity="1.0"><path d="M 156.63002307339656,57.14285714285713 l -6.18589574131742,-10.714285714285715 l -6.185895741317422,10.714285714285715 Z" /></g></g></g><g fill="rgb(0,0,128)" fill-opacity="1.0"><path d="M 144.2582315907617,57.14285714285713 l -6.18589574131742,-10.714285714285715 l -6.185895741317422,10.714285714285715 Z" /></g></g></g></g><g fill="rgb(0,0,128)" fill-opacity="1.0"><path d="M 150.44412733207912,46.428571428571416 l -6.18589574131742,-10.714285714285715 l -6.185895741317422,10.714285714285715 Z" /></g></g></g></g></g><g fill="rgb(0,0,128)" fill-opacity="1.0"><g><g fill="rgb(0,0,128)" fill-opacity="1.0"><g fill="rgb(0,0,128)" fill-opacity="1.0"><g><g fill="rgb(0,0,128)" fill-opacity="1.0"><g fill="rgb(0,0,128)" fill-opacity="1.0"><path d="M 169.0018145560314,35.7142857142857 l -6.18589574131742,-10.714285714285715 l -6.185895741317422,10.714285714285715 Z" /></g></g></g><g fill="rgb(0,0,128)" fill-opacity="1.0"><path d="M 156.63002307339656,35.7142857142857 l -6.18589574131742,-10.714285714285715 l -6.185895741317422,10.714285714285715 Z" /></g></g></g></g><g fill="rgb(0,0,128)" fill-opacity="1.0"><path d="M 162.81591881471397,24.999999999999986 l -6.18589574131742,-10.714285714285715 l -6.185895741317422,10.714285714285715 Z" /></g></g></g></g></g></g></g><g stroke="rgb(0,0,255)" stroke-opacity="1.0" fill="rgb(255,255,0)" fill-opacity="1.0" stroke-width="0.7142857142857145"><g fill="rgb(255,255,0)" fill-opacity="1.0"><g fill="rgb(255,255,0)" fill-opacity="1.0"><g><g fill="rgb(255,255,0)" fill-opacity="1.0"><g fill="rgb(255,255,0)" fill-opacity="1.0"><path d="M 100.00000000000003,94.28571428571428 v -45.71428571428573 c 0.0,-3.1559128561759637 -2.558372858109752,-5.714285714285716 -5.714285714285714 -5.714285714285716h -17.142857142857146 c -3.1559128561759637,-1.9324392888519374e-16 -5.714285714285716,2.5583728581097516 -5.714285714285716 5.714285714285714v 45.71428571428573 c -3.864878577703875e-16,3.1559128561759637 2.5583728581097516,5.714285714285716 5.714285714285714 5.714285714285718h 17.14285714285715 c 3.1559128561759637,5.797317866555813e-16 5.714285714285716,-2.558372858109751 5.714285714285712 -5.714285714285715Z" /></g></g></g><g fill="rgb(255,255,0)" fill-opacity="1.0"><g><g fill="rgb(255,255,0)" fill-opacity="1.0"><g fill="rgb(255,255,0)" fill-opacity="1.0"></g></g></g><g><g fill="rgb(255,255,0)" fill-opacity="1.0"><g fill="rgb(255,255,0)" fill-opacity="1.0"><path d="M 100.00000000000003,21.428571428571402 c 0.0,-7.889782140439909 -6.395932145274379,-14.28571428571429 -14.285714285714286 -14.28571428571429c -7.889782140439909,-4.831098222129844e-16 -14.28571428571429,6.3959321452743785 -14.28571428571429 14.285714285714285c -9.662196444259688e-16,7.889782140439909 6.395932145274378,14.28571428571429 14.285714285714283 14.28571428571429c 7.889782140439909,1.4493294666389531e-15 14.28571428571429,-6.395932145274378 14.285714285714294 -14.285714285714285Z" /></g></g></g></g></g></g></g><g fill="rgb(255,0,0)" fill-opacity="1.0" stroke-width="0.0"><g fill="rgb(255,0,0)" fill-opacity="1.0"><g fill="rgb(255,0,0)" fill-opacity="1.0"><path d="M 57.14285714285716,71.42857142857143 c 0.0,-15.779564280879818 -12.791864290548759,-28.57142857142858 -28.571428571428573 -28.57142857142858c -15.779564280879818,-9.662196444259688e-16 -28.57142857142858,12.791864290548757 -28.57142857142858 28.57142857142857c -1.9324392888519376e-15,15.779564280879818 12.791864290548755,28.57142857142858 28.571428571428566 28.57142857142858c 15.779564280879818,2.8986589332779062e-15 28.57142857142858,-12.791864290548755 28.571428571428587 -28.57142857142857ZM 52.857142857142875,4.285714285714278 c 0.0,2.366934642131972 -1.9187796435823143,4.2857142857142865 -4.2857142857142865 4.285714285714286c -2.366934642131972,0.0 -4.285714285714286,-1.9187796435823143 -4.285714285714286 -4.2857142857142865c 0.0,-2.3669346421319717 1.9187796435823143,-4.285714285714286 4.2857142857142865 -4.285714285714286c 2.3669346421319726,0.0 4.2857142857142865,1.9187796435823143 4.2857142857142865 4.2857142857142865ZM 52.857142857142875,15.714285714285708 c 0.0,2.366934642131972 -1.9187796435823143,4.2857142857142865 -4.2857142857142865 4.285714285714286c -2.366934642131972,0.0 -4.285714285714286,-1.9187796435823143 -4.285714285714286 -4.2857142857142865c 0.0,-2.3669346421319717 1.9187796435823143,-4.285714285714286 4.2857142857142865 -4.285714285714286c 2.3669346421319726,0.0 4.2857142857142865,1.9187796435823143 4.2857142857142865 4.2857142857142865ZM 52.857142857142875,27.14285714285714 c 0.0,2.366934642131972 -1.9187796435823143,4.2857142857142865 -4.2857142857142865 4.285714285714286c -2.366934642131972,0.0 -4.285714285714286,-1.9187796435823143 -4.285714285714286 -4.2857142857142865c 0.0,-2.3669346421319717 1.9187796435823143,-4.285714285714286 4.2857142857142865 -4.285714285714286c 2.3669346421319726,0.0 4.2857142857142865,1.9187796435823143 4.2857142857142865 4.2857142857142865ZM 52.857142857142875,38.57142857142857 c 0.0,2.366934642131972 -1.9187796435823143,4.2857142857142865 -4.2857142857142865 4.285714285714286c -2.366934642131972,0.0 -4.285714285714286,-1.9187796435823143 -4.285714285714286 -4.2857142857142865c 0.0,-2.3669346421319717 1.9187796435823143,-4.285714285714286 4.2857142857142865 -4.285714285714286c 2.3669346421319726,0.0 4.2857142857142865,1.9187796435823143 4.2857142857142865 4.2857142857142865ZM 52.857142857142875,50.0 c 0.0,2.366934642131972 -1.9187796435823143,4.2857142857142865 -4.2857142857142865 4.285714285714286c -2.366934642131972,0.0 -4.285714285714286,-1.9187796435823143 -4.285714285714286 -4.2857142857142865c 0.0,-2.3669346421319717 1.9187796435823143,-4.285714285714286 4.2857142857142865 -4.285714285714286c 2.3669346421319726,0.0 4.2857142857142865,1.9187796435823143 4.2857142857142865 4.2857142857142865ZM 52.857142857142875,61.42857142857143 c 0.0,2.366934642131972 -1.9187796435823143,4.2857142857142865 -4.2857142857142865 4.285714285714286c -2.366934642131972,0.0 -4.285714285714286,-1.9187796435823143 -4.285714285714286 -4.2857142857142865c 0.0,-2.3669346421319717 1.9187796435823143,-4.285714285714286 4.2857142857142865 -4.285714285714286c 2.3669346421319726,0.0 4.2857142857142865,1.9187796435823143 4.2857142857142865 4.2857142857142865ZM 52.857142857142875,72.85714285714286 c 0.0,2.366934642131972 -1.9187796435823143,4.2857142857142865 -4.2857142857142865 4.285714285714286c -2.366934642131972,0.0 -4.285714285714286,-1.9187796435823143 -4.285714285714286 -4.2857142857142865c 0.0,-2.3669346421319717 1.9187796435823143,-4.285714285714286 4.2857142857142865 -4.285714285714286c 2.3669346421319726,0.0 4.2857142857142865,1.9187796435823143 4.2857142857142865 4.2857142857142865ZM 52.857142857142875,84.28571428571429 c 0.0,2.366934642131972 -1.9187796435823143,4.2857142857142865 -4.2857142857142865 4.285714285714286c -2.366934642131972,0.0 -4.285714285714286,-1.9187796435823143 -4.285714285714286 -4.2857142857142865c 0.0,-2.3669346421319717 1.9187796435823143,-4.285714285714286 4.2857142857142865 -4.285714285714286c 2.3669346421319726,0.0 4.2857142857142865,1.9187796435823143 4.2857142857142865 4.2857142857142865ZM 52.857142857142875,95.71428571428572 c 0.0,2.366934642131972 -1.9187796435823143,4.2857142857142865 -4.2857142857142865 4.285714285714286c -2.366934642131972,0.0 -4.285714285714286,-1.9187796435823143 -4.285714285714286 -4.2857142857142865c 0.0,-2.3669346421319717 1.9187796435823143,-4.285714285714286 4.2857142857142865 -4.285714285714286c 2.3669346421319726,0.0 4.2857142857142865,1.9187796435823143 4.2857142857142865 4.2857142857142865ZM 64.2857142857143,4.285714285714278 c 0.0,2.366934642131972 -1.9187796435823143,4.2857142857142865 -4.2857142857142865 4.285714285714286c -2.366934642131972,0.0 -4.285714285714286,-1.9187796435823143 -4.285714285714286 -4.2857142857142865c 0.0,-2.3669346421319717 1.9187796435823143,-4.285714285714286 4.2857142857142865 -4.285714285714286c 2.3669346421319726,0.0 4.2857142857142865,1.9187796435823143 4.2857142857142865 4.2857142857142865ZM 64.2857142857143,15.714285714285708 c 0.0,2.366934642131972 -1.9187796435823143,4.2857142857142865 -4.2857142857142865 4.285714285714286c -2.366934642131972,0.0 -4.285714285714286,-1.9187796435823143 -4.285714285714286 -4.2857142857142865c 0.0,-2.3669346421319717 1.9187796435823143,-4.285714285714286 4.2857142857142865 -4.285714285714286c 2.3669346421319726,0.0 4.2857142857142865,1.9187796435823143 4.2857142857142865 4.2857142857142865ZM 64.2857142857143,27.14285714285714 c 0.0,2.366934642131972 -1.9187796435823143,4.2857142857142865 -4.2857142857142865 4.285714285714286c -2.366934642131972,0.0 -4.285714285714286,-1.9187796435823143 -4.285714285714286 -4.2857142857142865c 0.0,-2.3669346421319717 1.9187796435823143,-4.285714285714286 4.2857142857142865 -4.285714285714286c 2.3669346421319726,0.0 4.2857142857142865,1.9187796435823143 4.2857142857142865 4.2857142857142865ZM 64.2857142857143,38.57142857142857 c 0.0,2.366934642131972 -1.9187796435823143,4.2857142857142865 -4.2857142857142865 4.285714285714286c -2.366934642131972,0.0 -4.285714285714286,-1.9187796435823143 -4.285714285714286 -4.2857142857142865c 0.0,-2.3669346421319717 1.9187796435823143,-4.285714285714286 4.2857142857142865 -4.285714285714286c 2.3669346421319726,0.0 4.2857142857142865,1.9187796435823143 4.2857142857142865 4.2857142857142865ZM 64.2857142857143,50.0 c 0.0,2.366934642131972 -1.9187796435823143,4.2857142857142865 -4.2857142857142865 4.285714285714286c -2.366934642131972,0.0 -4.285714285714286,-1.9187796435823143 -4.285714285714286 -4.2857142857142865c 0.0,-2.3669346421319717 1.9187796435823143,-4.285714285714286 4.2857142857142865 -4.285714285714286c 2.3669346421319726,0.0 4.2857142857142865,1.9187796435823143 4.2857142857142865 4.2857142857142865ZM 64.2857142857143,61.42857142857143 c 0.0,2.366934642131972 -1.9187796435823143,4.2857142857142865 -4.2857142857142865 4.285714285714286c -2.366934642131972,0.0 -4.285714285714286,-1.9187796435823143 -4.285714285714286 -4.2857142857142865c 0.0,-2.3669346421319717 1.9187796435823143,-4.285714285714286 4.2857142857142865 -4.285714285714286c 2.3669346421319726,0.0 4.2857142857142865,1.9187796435823143 4.2857142857142865 4.2857142857142865ZM 64.2857142857143,72.85714285714286 c 0.0,2.366934642131972 -1.9187796435823143,4.2857142857142865 -4.2857142857142865 4.285714285714286c -2.366934642131972,0.0 -4.285714285714286,-1.9187796435823143 -4.285714285714286 -4.2857142857142865c 0.0,-2.3669346421319717 1.9187796435823143,-4.285714285714286 4.2857142857142865 -4.285714285714286c 2.3669346421319726,0.0 4.2857142857142865,1.9187796435823143 4.2857142857142865 4.2857142857142865ZM 64.2857142857143,84.28571428571429 c 0.0,2.366934642131972 -1.9187796435823143,4.2857142857142865 -4.2857142857142865 4.285714285714286c -2.366934642131972,0.0 -4.285714285714286,-1.9187796435823143 -4.285714285714286 -4.2857142857142865c 0.0,-2.3669346421319717 1.9187796435823143,-4.285714285714286 4.2857142857142865 -4.285714285714286c 2.3669346421319726,0.0 4.2857142857142865,1.9187796435823143 4.2857142857142865 4.2857142857142865ZM 64.2857142857143,95.71428571428572 c 0.0,2.366934642131972 -1.9187796435823143,4.2857142857142865 -4.2857142857142865 4.285714285714286c -2.366934642131972,0.0 -4.285714285714286,-1.9187796435823143 -4.285714285714286 -4.2857142857142865c 0.0,-2.3669346421319717 1.9187796435823143,-4.285714285714286 4.2857142857142865 -4.285714285714286c 2.3669346421319726,0.0 4.2857142857142865,1.9187796435823143 4.2857142857142865 4.2857142857142865Z" /></g></g></g></g></g></g></svg>