<?xml version="1.0" encoding="UTF-8"?>
<!DOCTYPE svg PUBLIC "-//W3C//DTD SVG 1.1//EN"
    "http://www.w3.org/Graphics/SVG/1.1/DTD/svg11.dtd"><svg xmlns="http://www.w3.org/2000/svg" height="200.0000" stroke-opacity="1" viewBox="0 0 200 200" font-size="1" width="200.0000" xmlns:xlink="http://www.w3.org/1999/xlink" stroke="rgb(0,0,0)" version="1.1"><defs></defs><g stroke-linejoin="miter" stroke-opacity="1.0" fill-opacity="1.0" stroke="rgb(0,0,0)" stroke-width="0.8" fill="rgb(128,128,128)" stroke-linecap="butt" stroke-miterlimit="10.0"><path d="M -0.0000,-0.0000 c 44.4444,-0.0000 88.8889,-0.0000 133.3333 -0.0000c 0.0000,22.2222 0.0000,44.4444 0.0000 66.6667c 36.8190,-0.0000 66.6667,29.8477 66.6667 66.6667c 0.0000,36.8190 -29.8477,66.6667 -66.6667 66.6667c -36.8190,-0.0000 -66.6667,-29.8477 -66.6667 -66.6667c 22.2222,-0.0000 44.4445,-0.0000 66.6667 -0.0000c 0.0000,-22.2222 0.0000,-44.4444 0.0000 -66.6667c -36.8190,-0.0000 -66.6667,29.8477 -66.6667 66.6667c -22.2222,-0.0000 -44.4445,-0.0000 -66.6667 -0.0000c 0.0000,-44.4444 0.0000,-88.8889 0.0000 -133.3333Z"/></g></svg>