<svg xmlns="http://www.w3.org/2000/svg" height="400.0000" stroke-opacity="1" viewBox="0 0 606 400" font-size="1" width="606.4516" xmlns:xlink="http://www.w3.org/1999/xlink" stroke="rgb(0,0,0)" version="1.1"><defs></defs><g stroke-linejoin="miter" stroke-opacity="1.0" fill-opacity="0.0" stroke="rgb(0,0,0)" stroke-width="1.9700990641540466" fill="rgb(0,0,0)" stroke-linecap="butt" stroke-miterlimit="10.0"><path d="M 461.5836,264.5161 l 0.0000,-11.7302 l -11.7302,-0.0000 l -0.0000,11.7302 l -11.7302,-0.0000 l -0.0000,11.7302 l 11.7302,0.0000 l -0.0000,11.7302 l -11.7302,-0.0000 l -0.0000,11.7302 l 11.7302,0.0000 l 0.0000,-11.7302 l 11.7302,0.0000 l -0.0000,11.7302 l 11.7302,0.0000 l -0.0000,11.7302 l -11.7302,-0.0000 l -0.0000,11.7302 l 11.7302,0.0000 l 0.0000,-11.7302 l 11.7302,0.0000 l 0.0000,-11.7302 l -11.7302,-0.0000 l 0.0000,-11.7302 l 11.7302,0.0000 l -0.0000,11.7302 l 11.7302,0.0000 l 0.0000,-11.7302 l 11.7302,0.0000 l -0.0000,11.7302 l 11.7302,0.0000 l -0.0000,11.7302 l -11.7302,-0.0000 l -0.0000,11.7302 l 11.7302,0.0000 l 0.0000,-11.7302 l 11.7302,0.0000 l 0.0000,-11.7302 l -11.7302,-0.0000 l 0.0000,-11.7302 l 11.7302,0.0000 l 0.0000,-11.7302 l -11.7302,-0.0000 l -0.0000,11.7302 l -11.7302,-0.0000 l 0.0000,-11.7302 l -11.7302,-0.0000 l 0.0000,-11.7302 l 11.7302,0.0000 l -0.0000,11.7302 l 11.7302,0.0000 l 0.0000,-11.7302 l 11.7302,0.0000 l 0.0000,-11.7302 l -11.7302,-0.0000 l 0.0000,-11.7302 l 11.7302,0.0000 l -0.0000,11.7302 l 11.7302,0.0000 l 0.0000,-11.7302 l 11.7302,0.0000 l -0.0000,11.7302 l 11.7302,0.0000 l -0.0000,11.7302 l -11.7302,-0.0000 l -0.0000,11.7302 l 11.7302,0.0000 l 0.0000,-11.7302 l 11.7302,0.0000 l 0.0000,-11.7302 l -11.7302,-0.0000 l 0.0000,-11.7302 l 11.7302,0.0000 l 0.0000,-11.7302 l -11.7302,-0.0000 l -0.0000,11.7302 l -11.7302,-0.0000 l 0.0000,-11.7302 l -11.7302,-0.0000 l 0.0000,-11.7302 l 11.7302,0.0000 l 0.0000,-11.7302 l -11.7302,-0.0000 l -0.0000,11.7302 l -11.7302,-0.0000 l -0.0000,11.7302 l 11.7302,0.0000 l -0.0000,11.7302 l -11.7302,-0.0000 l 0.0000,-11.7302 l -11.7302,-0.0000 l -0.0000,11.7302 l -11.7302,-0.0000 l 0.0000,-11.7302 l -11.7302,-0.0000 l 0.0000,-11.7302 l 11.7302,0.0000 l -0.0000,11.7302 l 11.7302,0.0000 l 0.0000,-11.7302 l 11.7302,0.0000 l 0.0000,-11.7302 l -11.7302,-0.0000 l 0.0000,-11.7302 l 11.7302,0.0000 l 0.0000,-11.7302 l -11.7302,-0.0000 l -0.0000,11.7302 l -11.7302,-0.0000 l 0.0000,-11.7302 l -11.7302,-0.0000 l 0.0000,-11.7302 l 11.7302,0.0000 l -0.0000,11.7302 l 11.7302,0.0000 l 0.0000,-11.7302 l 11.7302,0.0000 l 0.0000,-11.7302 l -11.7302,-0.0000 l 0.0000,-11.7302 l 11.7302,0.0000 l -0.0000,11.7302 l 11.7302,0.0000 l 0.0000,-11.7302 l 11.7302,0.0000 l -0.0000,11.7302 l 11.7302,0.0000 l -0.0000,11.7302 l -11.7302,-0.0000 l -0.0000,11.7302 l 11.7302,0.0000 l 0.0000,-11.7302 l 11.7302,0.0000 l 0.0000,-11.7302 l -11.7302,-0.0000 l 0.0000,-11.7302 l 11.7302,0.0000 l 0.0000,-11.7302 l -11.7302,-0.0000 l -0.0000,11.7302 l -11.7302,-0.0000 l 0.0000,-11.7302 l -11.7302,-0.0000 l 0.0000,-11.7302 l 11.7302,0.0000 l 0.0000,-11.7302 l -11.7302,-0.0000 l -0.0000,11.7302 l -11.7302,-0.0000 l -0.0000,11.7302 l 11.7302,0.0000 l -0.0000,11.7302 l -11.7302,-0.0000 l 0.0000,-11.7302 l -11.7302,-0.0000 l -0.0000,11.7302 l -11.7302,-0.0000 l 0.0000,-11.7302 l -11.7302,-0.0000 l 0.0000,-11.7302 l 11.7302,0.0000 l 0.0000,-11.7302 l -11.7302,-0.0000 l -0.0000,11.7302 l -11.7302,-0.0000 l -0.0000,11.7302 l 11.7302,0.0000 l -0.0000,11.7302 l -11.7302,-0.0000 l -0.0000,11.7302 l 11.7302,0.0000 l 0.0000,-11.7302 l 11.7302,0.0000 l -0.0000,11.7302 l 11.7302,0.0000 l -0.0000,11.7302 l -11.7302,-0.0000 l 0.0000,-11.7302 l -11.7302,-0.0000 l -0.0000,11.7302 l -11.7302,-0.0000 l -0.0000,11.7302 l 11.7302,0.0000 l -0.0000,11.7302 l -11.7302,-0.0000 l 0.0000,-11.7302 l -11.7302,-0.0000 l -0.0000,11.7302 l -11.7302,-0.0000 l 0.0000,-11.7302 l -11.7302,-0.0000 l 0.0000,-11.7302 l 11.7302,0.0000 l -0.0000,11.7302 l 11.7302,0.0000 l 0.0000,-11.7302 l 11.7302,0.0000 l 0.0000,-11.7302 l -11.7302,-0.0000 l 0.0000,-11.7302 l 11.7302,0.0000 l 0.0000,-11.7302 l -11.7302,-0.0000 l -0.0000,11.7302 l -11.7302,-0.0000 l 0.0000,-11.7302 l -11.7302,-0.0000 l 0.0000,-11.7302 l 11.7302,0.0000 l 0.0000,-11.7302 l -11.7302,-0.0000 l -0.0000,11.7302 l -11.7302,-0.0000 l -0.0000,11.7302 l 11.7302,0.0000 l -0.0000,11.7302 l -11.7302,-0.0000 l 0.0000,-11.7302 l -11.7302,-0.0000 l -0.0000,11.7302 l -11.7302,-0.0000 l 0.0000,-11.7302 l -11.7302,-0.0000 l 0.0000,-11.7302 l 11.7302,0.0000 l -0.0000,11.7302 l 11.7302,0.0000 l 0.0000,-11.7302 l 11.7302,0.0000 l 0.0000,-11.7302 l -11.7302,-0.0000 l 0.0000,-11.7302 l 11.7302,0.0000 l 0.0000,-11.7302 l -11.7302,-0.0000 l -0.0000,11.7302 l -11.7302,-0.0000 l 0.0000,-11.7302 l -11.7302,-0.0000 l 0.0000,-11.7302 l 11.7302,0.0000 l -0.0000,11.7302 l 11.7302,0.0000 l 0.0000,-11.7302 l 11.7302,0.0000 l 0.0000,-11.7302 l -11.7302,-0.0000 l 0.0000,-11.7302 l 11.7302,0.0000 l -0.0000,11.7302 l 11.7302,0.0000 l 0.0000,-11.7302 l 11.7302,0.0000 l -0.0000,11.7302 l 11.7302,0.0000 l -0.0000,11.7302 l -11.7302,-0.0000 l -0.0000,11.7302 l 11.7302,0.0000 l 0.0000,-11.7302 l 11.7302,0.0000 l 0.0000,-11.7302 l -11.7302,-0.0000 l 0.0000,-11.7302 l 11.7302,0.0000 l 0.0000,-11.7302 l -11.7302,-0.0000 l -0.0000,11.7302 l -11.7302,-0.0000 l 0.0000,-11.7302 l -11.7302,-0.0000 l 0.0000,-11.7302 l 11.7302,0.0000 l 0.0000,-11.7302 l -11.7302,-0.0000 l -0.0000,11.7302 l -11.7302,-0.0000 l -0.0000,11.7302 l 11.7302,0.0000 l -0.0000,11.7302 l -11.7302,-0.0000 l 0.0000,-11.7302 l -11.7302,-0.0000 l -0.0000,11.7302 l -11.7302,-0.0000 l 0.0000,-11.7302 l -11.7302,-0.0000 l 0.0000,-11.7302 l 11.7302,0.0000 l 0.0000,-11.7302 l -11.7302,-0.0000 l -0.0000,11.7302 l -11.7302,-0.0000 l -0.0000,11.7302 l 11.7302,0.0000 l -0.0000,11.7302 l -11.7302,-0.0000 l -0.0000,11.7302 l 11.7302,0.0000 l 0.0000,-11.7302 l 11.7302,0.0000 l -0.0000,11.7302 l 11.7302,0.0000 l -0.0000,11.7302 l -11.7302,-0.0000 l 0.0000,-11.7302 l -11.7302,-0.0000 l -0.0000,11.7302 l -11.7302,-0.0000 l -0.0000,11.7302 l 11.7302,0.0000 l -0.0000,11.7302 l -11.7302,-0.0000 l 0.0000,-11.7302 l -11.7302,-0.0000 l -0.0000,11.7302 l -11.7302,-0.0000 l 0.0000,-11.7302 l -11.7302,-0.0000 l 0.0000,-11.7302 l 11.7302,0.0000 l 0.0000,-11.7302 l -11.7302,-0.0000 l -0.0000,11.7302 l -11.7302,-0.0000 l -0.0000,11.7302 l 11.7302,0.0000 l -0.0000,11.7302 l -11.7302,-0.0000 l -0.0000,11.7302 l 11.7302,0.0000 l 0.0000,-11.7302 l 11.7302,0.0000 l -0.0000,11.7302 l 11.7302,0.0000 l -0.0000,11.7302 l -11.7302,-0.0000 l -0.0000,11.7302 l 11.7302,0.0000 l 0.0000,-11.7302 l 11.7302,0.0000 l 0.0000,-11.7302 l -11.7302,-0.0000 l 0.0000,-11.7302 l 11.7302,0.0000 l -0.0000,11.7302 l 11.7302,0.0000 l 0.0000,-11.7302 l 11.7302,0.0000 l -0.0000,11.7302 l 11.7302,0.0000 l -0.0000,11.7302 l -11.7302,-0.0000 l 0.0000,-11.7302 l -11.7302,-0.0000 l -0.0000,11.7302 l -11.7302,-0.0000 l -0.0000,11.7302 l 11.7302,0.0000 l -0.0000,11.7302 l -11.7302,-0.0000 l -0.0000,11.7302 l 11.7302,0.0000 l 0.0000,-11.7302 l 11.7302,0.0000 l -0.0000,11.7302 l 11.7302,0.0000 l -0.0000,11.7302 l -11.7302,-0.0000 l 0.0000,-11.7302 l -11.7302,-0.0000 l -0.0000,11.7302 l -11.7302,-0.0000 l -0.0000,11.7302 l 11.7302,0.0000 l -0.0000,11.7302 l -11.7302,-0.0000 l 0.0000,-11.7302 l -11.7302,-0.0000 l -0.0000,11.7302 l -11.7302,-0.0000 l 0.0000,-11.7302 l -11.7302,-0.0000 l 0.0000,-11.7302 l 11.7302,0.0000 l -0.0000,11.7302 l 11.7302,0.0000 l 0.0000,-11.7302 l 11.7302,0.0000 l 0.0000,-11.7302 l -11.7302,-0.0000 l 0.0000,-11.7302 l 11.7302,0.0000 l 0.0000,-11.7302 l -11.7302,-0.0000 l -0.0000,11.7302 l -11.7302,-0.0000 l 0.0000,-11.7302 l -11.7302,-0.0000 l 0.0000,-11.7302 l 11.7302,0.0000 l 0.0000,-11.7302 l -11.7302,-0.0000 l -0.0000,11.7302 l -11.7302,-0.0000 l -0.0000,11.7302 l 11.7302,0.0000 l -0.0000,11.7302 l -11.7302,-0.0000 l 0.0000,-11.7302 l -11.7302,-0.0000 l -0.0000,11.7302 l -11.7302,-0.0000 l 0.0000,-11.7302 l -11.7302,-0.0000 l 0.0000,-11.7302 l 11.7302,0.0000 l 0.0000,-11.7302 l -11.7302,-0.0000 l -0.0000,11.7302 l -11.7302,-0.0000 l -0.0000,11.7302 l 11.7302,0.0000 l -0.0000,11.7302 l -11.7302,-0.0000 l -0.0000,11.7302 l 11.7302,0.0000 l 0.0000,-11.7302 l 11.7302,0.0000 l -0.0000,11.7302 l 11.7302,0.0000 l -0.0000,11.7302 l -11.7302,-0.0000 l 0.0000,-11.7302 l -11.7302,-0.0000 l -0.0000,11.7302 l -11.7302,-0.0000 l -0.0000,11.7302 l 11.7302,0.0000 l -0.0000,11.7302 l -11.7302,-0.0000 l 0.0000,-11.7302 l -11.7302,-0.0000 l -0.0000,11.7302 l -11.7302,-0.0000 l 0.0000,-11.7302 l -11.7302,-0.0000 l 0.0000,-11.7302 l 11.7302,0.0000 l -0.0000,11.7302 l 11.7302,0.0000 l 0.0000,-11.7302 l 11.7302,0.0000 l 0.0000,-11.7302 l -11.7302,-0.0000 l 0.0000,-11.7302 l 11.7302,0.0000 l 0.0000,-11.7302 l -11.7302,-0.0000 l -0.0000,11.7302 l -11.7302,-0.0000 l 0.0000,-11.7302 l -11.7302,-0.0000 l 0.0000,-11.7302 l 11.7302,0.0000 l 0.0000,-11.7302 l -11.7302,-0.0000 l -0.0000,11.7302 l -11.7302,-0.0000 l -0.0000,11.7302 l 11.7302,0.0000 l -0.0000,11.7302 l -11.7302,-0.0000 l 0.0000,-11.7302 l -11.7302,-0.0000 l -0.0000,11.7302 l -11.7302,-0.0000 l 0.0000,-11.7302 l -11.7302,-0.0000 l 0.0000,-11.7302 l 11.7302,0.0000 l -0.0000,11.7302 l 11.7302,0.0000 l 0.0000,-11.7302 l 11.7302,0.0000 l 0.0000,-11.7302 l -11.7302,-0.0000 l 0.0000,-11.7302 l 11.7302,0.0000 l 0.0000,-11.7302 l -11.7302,-0.0000 l -0.0000,11.7302 l -11.7302,-0.0000 l 0.0000,-11.7302 l -11.7302,-0.0000 l 0.0000,-11.7302 l 11.7302,0.0000 l -0.0000,11.7302 l 11.7302,0.0000 l 0.0000,-11.7302 l 11.7302,0.0000 l 0.0000,-11.7302 l -11.7302,-0.0000 l 0.0000,-11.7302 l 11.7302,0.0000 l -0.0000,11.7302 l 11.7302,0.0000 l 0.0000,-11.7302 l 11.7302,0.0000 l -0.0000,11.7302 l 11.7302,0.0000 l -0.0000,11.7302 l -11.7302,-0.0000 l -0.0000,11.7302 l 11.7302,0.0000 l 0.0000,-11.7302 l 11.7302,0.0000 l 0.0000,-11.7302 l -11.7302,-0.0000 l 0.0000,-11.7302 l 11.7302,0.0000 l 0.0000,-11.7302 l -11.7302,-0.0000 l -0.0000,11.7302 l -11.7302,-0.0000 l 0.0000,-11.7302 l -11.7302,-0.0000 l 0.0000,-11.7302 l 11.7302,0.0000 l 0.0000,-11.7302 l -11.7302,-0.0000 l -0.0000,11.7302 l -11.7302,-0.0000 l -0.0000,11.7302 l 11.7302,0.0000 l -0.0000,11.7302 l -11.7302,-0.0000 l 0.0000,-11.7302 l -11.7302,-0.0000 l -0.0000,11.7302 l -11.7302,-0.0000 l 0.0000,-11.7302 l -11.7302,-0.0000 l 0.0000,-11.7302 l 11.7302,0.0000 l 0.0000,-11.7302 l -11.7302,-0.0000 l -0.0000,11.7302 l -11.7302,-0.0000 l -0.0000,11.7302 l 11.7302,0.0000 l -0.0000,11.7302 l -11.7302,-0.0000 l -0.0000,11.7302 l 11.7302,0.0000 l 0.0000,-11.7302 l 11.7302,0.0000 l -0.0000,11.7302 l 11.7302,0.0000 l -0.0000,11.7302 l -11.7302,-0.0000 l 0.0000,-11.7302 l -11.7302,-0.0000 l -0.0000,11.7302 l -11.7302,-0.0000 l -0.0000,11.7302 l 11.7302,0.0000 l -0.0000,11.7302 l -11.7302,-0.0000 l 0.0000,-11.7302 l -11.7302,-0.0000 l -0.0000,11.7302 l -11.7302,-0.0000 l 0.0000,-11.7302 l -11.7302,-0.0000 l 0.0000,-11.7302 l 11.7302,0.0000 l 0.0000,-11.7302 l -11.7302,-0.0000 l -0.0000,11.7302 l -11.7302,-0.0000 l -0.0000,11.7302 l 11.7302,0.0000 l -0.0000,11.7302 l -11.7302,-0.0000 l -0.0000,11.7302 l 11.7302,0.0000 l 0.0000,-11.7302 l 11.7302,0.0000 l -0.0000,11.7302 l 11.7302,0.0000 l -0.0000,11.7302 l -11.7302,-0.0000 l -0.0000,11.7302 l 11.7302,0.0000 l 0.0000,-11.7302 l 11.7302,0.0000 l 0.0000,-11.7302 l -11.7302,-0.0000 l 0.0000,-11.7302 l 11.7302,0.0000 l -0.0000,11.7302 l 11.7302,0.0000 l 0.0000,-11.7302 l 11.7302,0.0000 l -0.0000,11.7302 l 11.7302,0.0000 l -0.0000,11.7302 l -11.7302,-0.0000 l 0.0000,-11.7302 l -11.7302,-0.0000 l -0.0000,11.7302 l -11.7302,-0.0000 l -0.0000,11.7302 l 11.7302,0.0000 l -0.0000,11.7302 l -11.7302,-0.0000 l -0.0000,11.7302 l 11.7302,0.0000 l 0.0000,-11.7302 l 11.7302,0.0000 l -0.0000,11.7302 l 11.7302,0.0000 l -0.0000,11.7302 l -11.7302,-0.0000 l 0.0000,-11.7302 l -11.7302,-0.0000 l -0.0000,11.7302 l -11.7302,-0.0000 l -0.0000,11.7302 l 11.7302,0.0000 l -0.0000,11.7302 l -11.7302,-0.0000 l 0.0000,-11.7302 l -11.7302,-0.0000 l -0.0000,11.7302 l -11.7302,-0.0000 l 0.0000,-11.7302 l -11.7302,-0.0000 l 0.0000,-11.7302 l 11.7302,0.0000 l 0.0000,-11.7302 l -11.7302,-0.0000 l -0.0000,11.7302 l -11.7302,-0.0000 l -0.0000,11.7302 l 11.7302,0.0000 l -0.0000,11.7302 l -11.7302,-0.0000 l -0.0000,11.7302 l 11.7302,0.0000 l 0.0000,-11.7302 l 11.7302,0.0000 l -0.0000,11.7302 l 11.7302,0.0000 l -0.0000,11.7302 l -11.7302,-0.0000 l -0.0000,11.7302 l 11.7302,0.0000 l 0.0000,-11.7302 l 11.7302,0.0000 l 0.0000,-11.7302 l -11.7302,-0.0000 l 0.0000,-11.7302 l 11.7302,0.0000 l -0.0000,11.7302 l 11.7302,0.0000 l 0.0000,-11.7302 l 11.7302,0.0000 l -0.0000,11.7302 l 11.7302,0.0000 l -0.0000,11.7302 l -11.7302,-0.0000 l -0.0000,11.7302 l 11.7302,0.0000 l 0.0000,-11.7302 l 11.7302,0.0000 l 0.0000,-11.7302 l -11.7302,-0.0000 l 0.0000,-11.7302 l 11.7302,0.0000 l 0.0000,-11.7302 l -11.7302,-0.0000 l -0.0000,11.7302 l -11.7302,-0.0000 l 0.0000,-11.7302 l -11.7302,-0.0000 l 0.0000,-11.7302 l 11.7302,0.0000 l -0.0000,11.7302 l 11.7302,0.0000 l 0.0000,-11.7302 l 11.7302,0.0000 l 0.0000,-11.7302 l -11.7302,-0.0000 l 0.0000,-11.7302 l 11.7302,0.0000 l -0.0000,11.7302 l 11.7302,0.0000 l 0.0000,-11.7302 l 11.7302,0.0000 l -0.0000,11.7302 l 11.7302,0.0000 l -0.0000,11.7302 l -11.7302,-0.0000 l 0.0000,-11.7302 l -11.7302,-0.0000 l -0.0000,11.7302 l -11.7302,-0.0000 l -0.0000,11.7302 l 11.7302,0.0000 l -0.0000,11.7302 l -11.7302,-0.0000 l -0.0000,11.7302 l 11.7302,0.0000 l 0.0000,-11.7302 l 11.7302,0.0000 l -0.0000,11.7302 l 11.7302,0.0000 l -0.0000,11.7302 l -11.7302,-0.0000 l -0.0000,11.7302 l 11.7302,0.0000 l 0.0000,-11.7302 l 11.7302,0.0000 l 0.0000,-11.7302 l -11.7302,-0.0000 l 0.0000,-11.7302 l 11.7302,0.0000 l -0.0000,11.7302 l 11.7302,0.0000 l 0.0000,-11.7302 l 11.7302,0.0000 l -0.0000,11.7302 l 11.7302,0.0000 l -0.0000,11.7302 l -11.7302,-0.0000 l 0.0000,-11.7302 l -11.7302,-0.0000 l -0.0000,11.7302 l -11.7302,-0.0000 l -0.0000,11.7302 l 11.7302,0.0000 l -0.0000,11.7302 l -11.7302,-0.0000 l -0.0000,11.7302 l 11.7302,0.0000 l 0.0000,-11.7302 l 11.7302,0.0000 l -0.0000,11.7302 l 11.7302,0.0000 l -0.0000,11.7302 l -11.7302,-0.0000 l 0.0000,-11.7302 l -11.7302,-0.0000 l -0.0000,11.7302 l -11.7302,-0.0000 l -0.0000,11.7302 l 11.7302,0.0000 l -0.0000,11.7302 l -11.7302,-0.0000 l 0.0000,-11.7302 l -11.7302,-0.0000 l -0.0000,11.7302 l -11.7302,-0.0000 l 0.0000,-11.7302 l -11.7302,-0.0000 l 0.0000,-11.7302 l 11.7302,0.0000 l -0.0000,11.7302 l 11.7302,0.0000 l 0.0000,-11.7302 l 11.7302,0.0000 l 0.0000,-11.7302 l -11.7302,-0.0000 l 0.0000,-11.7302 l 11.7302,0.0000 l 0.0000,-11.7302 l -11.7302,-0.0000 l -0.0000,11.7302 l -11.7302,-0.0000 l 0.0000,-11.7302 l -11.7302,-0.0000 l 0.0000,-11.7302 l 11.7302,0.0000 l 0.0000,-11.7302 l -11.7302,-0.0000 l -0.0000,11.7302 l -11.7302,-0.0000 l -0.0000,11.7302 l 11.7302,0.0000 l -0.0000,11.7302 l -11.7302,-0.0000 l 0.0000,-11.7302 l -11.7302,-0.0000 l -0.0000,11.7302 l -11.7302,-0.0000 l 0.0000,-11.7302 l -11.7302,-0.0000 l 0.0000,-11.7302 l 11.7302,0.0000 l 0.0000,-11.7302 l -11.7302,-0.0000 l -0.0000,11.7302 l -11.7302,-0.0000 l -0.0000,11.7302 l 11.7302,0.0000 l -0.0000,11.7302 l -11.7302,-0.0000 l -0.0000,11.7302 l 11.7302,0.0000 l 0.0000,-11.7302 l 11.7302,0.0000 l -0.0000,11.7302 l 11.7302,0.0000 l -0.0000,11.7302 l -11.7302,-0.0000 l 0.0000,-11.7302 l -11.7302,-0.0000 l -0.0000,11.7302 l -11.7302,-0.0000 l -0.0000,11.7302 l 11.7302,0.0000 l -0.0000,11.7302 l -11.7302,-0.0000 l 0.0000,-11.7302 l -11.7302,-0.0000 l -0.0000,11.7302 l -11.7302,-0.0000 l 0.0000,-11.7302 l -11.7302,-0.0000 l 0.0000,-11.7302 l 11.7302,0.0000 l 0.0000,-11.7302 l -11.7302,-0.0000 l -0.0000,11.7302 l -11.7302,-0.0000 l -0.0000,11.7302 l 11.7302,0.0000 l -0.0000,11.7302 l -11.7302,-0.0000 l -0.0000,11.7302 l 11.7302,0.0000 l 0.0000,-11.7302 l 11.7302,0.0000 l -0.0000,11.7302 l 11.7302,0.0000 l -0.0000,11.7302 l -11.7302,-0.0000 l -0.0000,11.7302 l 11.7302,0.0000 l 0.0000,-11.7302 l 11.7302,0.0000 l 0.0000,-11.7302 l -11.7302,-0.0000 l 0.0000,-11.7302 l 11.7302,0.0000 l -0.0000,11.7302 l 11.7302,0.0000 l 0.0000,-11.7302 l 11.7302,0.0000 l -0.0000,11.7302 l 11.7302,0.0000 l -0.0000,11.7302 l -11.7302,-0.0000 l 0.0000,-11.7302 l -11.7302,-0.0000 l -0.0000,11.7302 l -11.7302,-0.0000 l -0.0000,11.7302 l 11.7302,0.0000 l -0.0000,11.7302 l -11.7302,-0.0000 l -0.0000,11.7302 l 11.7302,0.0000 l 0.0000,-11.7302 l 11.7302,0.0000 l -0.0000,11.7302 l 11.7302,0.0000 l -0.0000,11.7302 l -11.7302,-0.0000 l 0.0000,-11.7302 l -11.7302,-0.0000 l -0.0000,11.7302 l -11.7302,-0.0000 l -0.0000,11.7302 l 11.7302,0.0000 l -0.0000,11.7302 l -11.7302,-0.0000 l 0.0000,-11.7302 l -11.7302,-0.0000 l -0.0000,11.7302 l -11.7302,-0.0000 l 0.0000,-11.7302 l -11.7302,-0.0000 l 0.0000,-11.7302 l 11.7302,0.0000 l -0.0000,11.7302 l 11.7302,0.0000 l 0.0000,-11.7302 l 11.7302,0.0000 l 0.0000,-11.7302 l -11.7302,-0.0000 l 0.0000,-11.7302 l 11.7302,0.0000 l 0.0000,-11.7302 l -11.7302,-0.0000 l -0.0000,11.7302 l -11.7302,-0.0000 l 0.0000,-11.7302 l -11.7302,-0.0000 l 0.0000,-11.7302 l 11.7302,0.0000 l 0.0000,-11.7302 l -11.7302,-0.0000 l -0.0000,11.7302 l -11.7302,-0.0000 l -0.0000,11.7302 l 11.7302,0.0000 l -0.0000,11.7302 l -11.7302,-0.0000 l 0.0000,-11.7302 l -11.7302,-0.0000 l -0.0000,11.7302 l -11.7302,-0.0000 l 0.0000,-11.7302 l -11.7302,-0.0000 l 0.0000,-11.7302 l 11.7302,0.0000 l 0.0000,-11.7302 l -11.7302,-0.0000 l -0.0000,11.7302 l -11.7302,-0.0000 l -0.0000,11.7302 l 11.7302,0.0000 l -0.0000,11.7302 l -11.7302,-0.0000 l -0.0000,11.7302 l 11.7302,0.0000 l 0.0000,-11.7302 l 11.7302,0.0000 l -0.0000,11.7302 l 11.7302,0.0000 l -0.0000,11.7302 l -11.7302,-0.0000 l 0.0000,-11.7302 l -11.7302,-0.0000 l -0.0000,11.7302 l -11.7302,-0.0000 l -0.0000,11.7302 l 11.7302,0.0000 l -0.0000,11.7302 l -11.7302,-0.0000 l 0.0000,-11.7302 l -11.7302,-0.0000 l -0.0000,11.7302 l -11.7302,-0.0000 l 0.0000,-11.7302 l -11.7302,-0.0000 l 0.0000,-11.7302 l 11.7302,0.0000 l -0.0000,11.7302 l 11.7302,0.0000 l 0.0000,-11.7302 l 11.7302,0.0000 l 0.0000,-11.7302 l -11.7302,-0.0000 l 0.0000,-11.7302 l 11.7302,0.0000 l 0.0000,-11.7302 l -11.7302,-0.0000 l -0.0000,11.7302 l -11.7302,-0.0000 l 0.0000,-11.7302 l -11.7302,-0.0000 l 0.0000,-11.7302 l 11.7302,0.0000 l 0.0000,-11.7302 l -11.7302,-0.0000 l -0.0000,11.7302 l -11.7302,-0.0000 l -0.0000,11.7302 l 11.7302,0.0000 l -0.0000,11.7302 l -11.7302,-0.0000 l 0.0000,-11.7302 l -11.7302,-0.0000 l -0.0000,11.7302 l -11.7302,-0.0000 l 0.0000,-11.7302 l -11.7302,-0.0000 l 0.0000,-11.7302 l 11.7302,0.0000 l -0.0000,11.7302 l 11.7302,0.0000 l 0.0000,-11.7302 l 11.7302,0.0000 l 0.0000,-11.7302 l -11.7302,-0.0000 l 0.0000,-11.7302 l 11.7302,0.0000 l 0.0000,-11.7302 l -11.7302,-0.0000 l -0.0000,11.7302 l -11.7302,-0.0000 l 0.0000,-11.7302 l -11.7302,-0.0000 l 0.0000,-11.7302 l 11.7302,0.0000 l -0.0000,11.7302 l 11.7302,0.0000 l 0.0000,-11.7302 l 11.7302,0.0000 l 0.0000,-11.7302 l -11.7302,-0.0000 l 0.0000,-11.7302 l 11.7302,0.0000 l -0.0000,11.7302 l 11.7302,0.0000 l 0.0000,-11.7302 l 11.7302,0.0000 l -0.0000,11.7302 l 11.7302,0.0000 l -0.0000,11.7302 l -11.7302,-0.0000 "/></g></svg>