<svg xmlns="http://www.w3.org/2000/svg" height="101.8160" stroke-opacity="1" viewBox="0 0 400 102" font-size="1" width="400.0000" xmlns:xlink="http://www.w3.org/1999/xlink" stroke="rgb(0,0,0)" version="1.1"><defs></defs><g stroke-linejoin="miter" stroke-opacity="1.0" fill-opacity="1.0" stroke="rgb(255,255,255)" stroke-width="0.8072311333760342" fill="rgb(255,255,255)" stroke-linecap="butt" stroke-miterlimit="10.0"><defs><clipPath id="myClip1"><path d="M 375.5239,46.9805 l -6.6953,-17.6540 l -14.1326,-12.5204 l -18.3323,-4.5185 l -18.3323,4.5185 l -14.1326,12.5204 l -6.6953,17.6540 l 2.2759,18.7433 l 10.7256,15.5387 l 16.7183,8.7744 l 18.8810,0.0000 l 16.7183,-8.7744 l 10.7256,-15.5387 Z"/></clipPath></defs><g clip-path="url(#myClip1)"><path d="M 375.5239,90.6102 l -0.0000,-77.7495 h -39.1602 l -0.0000,77.7495 Z"/></g></g><g stroke-linejoin="miter" stroke-opacity="1.0" fill-opacity="1.0" stroke="rgb(255,255,255)" stroke-width="0.8072311333760342" fill="rgb(255,255,255)" stroke-linecap="butt" stroke-miterlimit="10.0"><defs><clipPath id="myClip2"><path d="M 375.5239,46.9805 l -6.6953,-17.6540 l -14.1326,-12.5204 l -18.3323,-4.5185 l -18.3323,4.5185 l -14.1326,12.5204 l -6.6953,17.6540 l 2.2759,18.7433 l 10.7256,15.5387 l 16.7183,8.7744 l 18.8810,0.0000 l 16.7183,-8.7744 l 10.7256,-15.5387 Z"/></clipPath></defs><g clip-path="url(#myClip2)"><path d="M 336.3636,90.6102 l -0.0000,-77.7495 h -39.1602 l -0.0000,77.7495 Z"/></g></g><g stroke-linejoin="miter" stroke-opacity="1.0" fill-opacity="0.0" stroke="rgb(255,165,0)" stroke-width="0.8072311333760342" fill="rgb(0,0,0)" stroke-linecap="butt" stroke-miterlimit="10.0"><path d="M 360.2687,19.7309 c 1.6153,-3.0778 0.4298,-6.8822 -2.6480 -8.4976c -3.0778,-1.6153 -6.8822,-0.4298 -8.4976 2.6480c -1.6153,3.0778 -0.4298,6.8822 2.6480 8.4976c 3.0778,1.6153 6.8822,0.4298 8.4976 -2.6480Z"/></g><g stroke-linejoin="miter" stroke-opacity="1.0" fill-opacity="0.0" stroke="rgb(255,165,0)" stroke-width="0.8072311333760342" fill="rgb(0,0,0)" stroke-linecap="butt" stroke-miterlimit="10.0"><path d="M 372.4038,34.5061 c 2.8606,-1.9745 3.5789,-5.8942 1.6044 -8.7548c -1.9745,-2.8606 -5.8942,-3.5789 -8.7548 -1.6044c -2.8606,1.9745 -3.5789,5.8942 -1.6044 8.7548c 1.9745,2.8606 5.8942,3.5789 8.7548 1.6044Z"/></g><g stroke-linejoin="miter" stroke-opacity="1.0" fill-opacity="0.0" stroke="rgb(255,165,0)" stroke-width="0.8072311333760342" fill="rgb(0,0,0)" stroke-linecap="butt" stroke-miterlimit="10.0"><path d="M 376.2825,53.2283 c 3.4506,-0.4190 5.9081,-3.5558 5.4892 -7.0064c -0.4190,-3.4506 -3.5558,-5.9081 -7.0064 -5.4892c -3.4506,0.4190 -5.9081,3.5558 -5.4892 7.0064c 0.4190,3.4506 3.5558,5.9081 7.0064 5.4892Z"/></g><g stroke-linejoin="miter" stroke-opacity="1.0" fill-opacity="0.0" stroke="rgb(255,165,0)" stroke-width="0.8072311333760342" fill="rgb(0,0,0)" stroke-linecap="butt" stroke-miterlimit="10.0"><path d="M 371.0163,71.6085 c 3.2500,1.2326 6.8839,-0.4029 8.1164 -3.6529c 1.2326,-3.2500 -0.4029,-6.8839 -3.6529 -8.1164c -3.2500,-1.2326 -6.8839,0.4029 -8.1164 3.6529c -1.2326,3.2500 0.4029,6.8839 3.6529 8.1164Z"/></g><g stroke-linejoin="miter" stroke-opacity="1.0" fill-opacity="0.0" stroke="rgb(255,165,0)" stroke-width="0.8072311333760342" fill="rgb(0,0,0)" stroke-linecap="butt" stroke-miterlimit="10.0"><path d="M 357.8115,85.4361 c 2.3049,2.6017 6.2826,2.8423 8.8843 0.5374c 2.6017,-2.3049 2.8423,-6.2826 0.5374 -8.8843c -2.3049,-2.6017 -6.2826,-2.8423 -8.8843 -0.5374c -2.6017,2.3049 -2.8423,6.2826 -0.5374 8.8843Z"/></g><g stroke-linejoin="miter" stroke-opacity="1.0" fill-opacity="0.0" stroke="rgb(255,165,0)" stroke-width="0.8072311333760342" fill="rgb(0,0,0)" stroke-linecap="butt" stroke-miterlimit="10.0"><path d="M 339.6933,91.5432 c 0.8318,3.3749 4.2421,5.4364 7.6170 4.6046c 3.3749,-0.8318 5.4364,-4.2421 4.6046 -7.6170c -0.8318,-3.3749 -4.2421,-5.4364 -7.6170 -4.6046c -3.3749,0.8318 -5.4364,4.2421 -4.6046 7.6170Z"/></g><g stroke-linejoin="miter" stroke-opacity="1.0" fill-opacity="0.0" stroke="rgb(255,165,0)" stroke-width="0.8072311333760342" fill="rgb(0,0,0)" stroke-linecap="butt" stroke-miterlimit="10.0"><path d="M 320.8124,88.5309 c -0.8318,3.3749 1.2297,6.7851 4.6046 7.6170c 3.3749,0.8318 6.7851,-1.2297 7.6170 -4.6046c 0.8318,-3.3749 -1.2297,-6.7851 -4.6046 -7.6170c -3.3749,-0.8318 -6.7851,1.2297 -7.6170 4.6046Z"/></g><g stroke-linejoin="miter" stroke-opacity="1.0" fill-opacity="0.0" stroke="rgb(255,165,0)" stroke-width="0.8072311333760342" fill="rgb(0,0,0)" stroke-linecap="butt" stroke-miterlimit="10.0"><path d="M 305.4940,77.0891 c -2.3049,2.6017 -2.0643,6.5794 0.5374 8.8843c 2.6017,2.3049 6.5794,2.0643 8.8843 -0.5374c 2.3049,-2.6017 2.0643,-6.5794 -0.5374 -8.8843c -2.6017,-2.3049 -6.5794,-2.0643 -8.8843 0.5374Z"/></g><g stroke-linejoin="miter" stroke-opacity="1.0" fill-opacity="0.0" stroke="rgb(255,165,0)" stroke-width="0.8072311333760342" fill="rgb(0,0,0)" stroke-linecap="butt" stroke-miterlimit="10.0"><path d="M 297.2475,59.8392 c -3.2500,1.2326 -4.8855,4.8664 -3.6529 8.1164c 1.2326,3.2500 4.8664,4.8855 8.1164 3.6529c 3.2500,-1.2326 4.8855,-4.8664 3.6529 -8.1164c -1.2326,-3.2500 -4.8664,-4.8855 -8.1164 -3.6529Z"/></g><g stroke-linejoin="miter" stroke-opacity="1.0" fill-opacity="0.0" stroke="rgb(255,165,0)" stroke-width="0.8072311333760342" fill="rgb(0,0,0)" stroke-linecap="butt" stroke-miterlimit="10.0"><path d="M 297.9620,40.7328 c -3.4506,-0.4190 -6.5874,2.0386 -7.0064 5.4892c -0.4190,3.4506 2.0386,6.5874 5.4892 7.0064c 3.4506,0.4190 6.5874,-2.0386 7.0064 -5.4892c 0.4190,-3.4506 -2.0386,-6.5874 -5.4892 -7.0064Z"/></g><g stroke-linejoin="miter" stroke-opacity="1.0" fill-opacity="0.0" stroke="rgb(255,165,0)" stroke-width="0.8072311333760342" fill="rgb(0,0,0)" stroke-linecap="butt" stroke-miterlimit="10.0"><path d="M 307.4739,24.1469 c -2.8606,-1.9745 -6.7803,-1.2562 -8.7548 1.6044c -1.9745,2.8606 -1.2562,6.7803 1.6044 8.7548c 2.8606,1.9745 6.7803,1.2562 8.7548 -1.6044c 1.9745,-2.8606 1.2562,-6.7803 -1.6044 -8.7548Z"/></g><g stroke-linejoin="miter" stroke-opacity="1.0" fill-opacity="0.0" stroke="rgb(255,165,0)" stroke-width="0.8072311333760342" fill="rgb(0,0,0)" stroke-linecap="butt" stroke-miterlimit="10.0"><path d="M 323.6041,13.8813 c -1.6153,-3.0778 -5.4198,-4.2633 -8.4976 -2.6480c -3.0778,1.6153 -4.2633,5.4198 -2.6480 8.4976c 1.6153,3.0778 5.4198,4.2633 8.4976 2.6480c 3.0778,-1.6153 4.2633,-5.4198 2.6480 -8.4976Z"/></g><g stroke-linejoin="miter" stroke-opacity="1.0" fill-opacity="0.0" stroke="rgb(255,165,0)" stroke-width="0.8072311333760342" fill="rgb(0,0,0)" stroke-linecap="butt" stroke-miterlimit="10.0"><path d="M 342.6573,12.2876 c 0.0000,-3.4759 -2.8178,-6.2937 -6.2937 -6.2937c -3.4759,-0.0000 -6.2937,2.8178 -6.2937 6.2937c -0.0000,3.4759 2.8178,6.2937 6.2937 6.2937c 3.4759,0.0000 6.2937,-2.8178 6.2937 -6.2937Z"/></g><g stroke-linejoin="miter" stroke-opacity="1.0" fill-opacity="1.0" stroke="rgb(255,255,89)" stroke-width="0.8072311333760342" fill="rgb(255,255,89)" stroke-linecap="butt" stroke-miterlimit="10.0"><defs><clipPath id="myClip3"><path d="M 244.5353,52.4147 l -0.0414,-2.7163 l -0.2069,-2.7087 l -0.3717,-2.6911 l -0.5351,-2.6634 l -0.6964,-2.6258 l -0.8552,-2.5785 l -1.0108,-2.5216 l -1.1627,-2.4552 l -1.3102,-2.3798 l -1.4528,-2.2955 l -1.5901,-2.2027 l -1.7214,-2.1016 l -1.8463,-1.9928 l -1.9644,-1.8765 l -2.0751,-1.7533 l -2.1782,-1.6235 l -2.2731,-1.4877 l -2.3595,-1.3463 l -2.4372,-1.2000 l -2.5059,-1.0492 l -2.5652,-0.8945 l -2.6149,-0.7364 l -2.6549,-0.5756 l -2.6851,-0.4127 l -2.7053,-0.2482 l -2.7154,-0.0828 l -2.7154,0.0828 l -2.7053,0.2482 l -2.6851,0.4127 l -2.6549,0.5756 l -2.6149,0.7364 l -2.5652,0.8945 l -2.5059,1.0492 l -2.4372,1.2000 l -2.3595,1.3463 l -2.2731,1.4877 l -2.1782,1.6235 l -2.0751,1.7533 l -1.9644,1.8765 l -1.8463,1.9928 l -1.7214,2.1016 l -1.5901,2.2027 l -1.4528,2.2955 l -1.3102,2.3798 l -1.1627,2.4552 l -1.0108,2.5216 l -0.8552,2.5785 l -0.6964,2.6258 l -0.5351,2.6634 l -0.3717,2.6911 l -0.2069,2.7087 l -0.0414,2.7163 l 0.1242,2.7138 l 0.2895,2.7012 l 0.4536,2.6785 l 0.6160,2.6459 l 0.7762,2.6034 l 0.9335,2.5512 l 1.0873,2.4896 l 1.2370,2.4186 l 1.3822,2.3387 l 1.5222,2.2501 l 1.6565,2.1531 l 1.7847,2.0481 l 1.9062,1.9355 l 2.0207,1.8157 l 2.1276,1.6892 l 2.2267,1.5563 l 2.3174,1.4177 l 2.3995,1.2738 l 2.4727,1.1251 l 2.5367,0.9723 l 2.5912,0.8158 l 2.6362,0.6563 l 2.6713,0.4944 l 2.6964,0.3306 l 2.7116,0.1656 l 2.7166,0.0000 l 2.7116,-0.1656 l 2.6964,-0.3306 l 2.6713,-0.4944 l 2.6362,-0.6563 l 2.5912,-0.8158 l 2.5367,-0.9723 l 2.4727,-1.1251 l 2.3995,-1.2738 l 2.3174,-1.4177 l 2.2267,-1.5563 l 2.1276,-1.6892 l 2.0207,-1.8157 l 1.9062,-1.9355 l 1.7847,-2.0481 l 1.6565,-2.1531 l 1.5222,-2.2501 l 1.3822,-2.3387 l 1.2370,-2.4186 l 1.0873,-2.4896 l 0.9335,-2.5512 l 0.7762,-2.6034 l 0.6160,-2.6459 l 0.4536,-2.6785 l 0.2895,-2.7012 Z"/></clipPath></defs><g clip-path="url(#myClip3)"><path d="M 244.5353,96.2656 l -0.0000,-89.0602 h -29.6902 l -0.0000,89.0602 Z"/></g></g><g stroke-linejoin="miter" stroke-opacity="1.0" fill-opacity="1.0" stroke="rgb(89,89,89)" stroke-width="0.8072311333760342" fill="rgb(89,89,89)" stroke-linecap="butt" stroke-miterlimit="10.0"><defs><clipPath id="myClip4"><path d="M 244.5353,52.4147 l -0.0414,-2.7163 l -0.2069,-2.7087 l -0.3717,-2.6911 l -0.5351,-2.6634 l -0.6964,-2.6258 l -0.8552,-2.5785 l -1.0108,-2.5216 l -1.1627,-2.4552 l -1.3102,-2.3798 l -1.4528,-2.2955 l -1.5901,-2.2027 l -1.7214,-2.1016 l -1.8463,-1.9928 l -1.9644,-1.8765 l -2.0751,-1.7533 l -2.1782,-1.6235 l -2.2731,-1.4877 l -2.3595,-1.3463 l -2.4372,-1.2000 l -2.5059,-1.0492 l -2.5652,-0.8945 l -2.6149,-0.7364 l -2.6549,-0.5756 l -2.6851,-0.4127 l -2.7053,-0.2482 l -2.7154,-0.0828 l -2.7154,0.0828 l -2.7053,0.2482 l -2.6851,0.4127 l -2.6549,0.5756 l -2.6149,0.7364 l -2.5652,0.8945 l -2.5059,1.0492 l -2.4372,1.2000 l -2.3595,1.3463 l -2.2731,1.4877 l -2.1782,1.6235 l -2.0751,1.7533 l -1.9644,1.8765 l -1.8463,1.9928 l -1.7214,2.1016 l -1.5901,2.2027 l -1.4528,2.2955 l -1.3102,2.3798 l -1.1627,2.4552 l -1.0108,2.5216 l -0.8552,2.5785 l -0.6964,2.6258 l -0.5351,2.6634 l -0.3717,2.6911 l -0.2069,2.7087 l -0.0414,2.7163 l 0.1242,2.7138 l 0.2895,2.7012 l 0.4536,2.6785 l 0.6160,2.6459 l 0.7762,2.6034 l 0.9335,2.5512 l 1.0873,2.4896 l 1.2370,2.4186 l 1.3822,2.3387 l 1.5222,2.2501 l 1.6565,2.1531 l 1.7847,2.0481 l 1.9062,1.9355 l 2.0207,1.8157 l 2.1276,1.6892 l 2.2267,1.5563 l 2.3174,1.4177 l 2.3995,1.2738 l 2.4727,1.1251 l 2.5367,0.9723 l 2.5912,0.8158 l 2.6362,0.6563 l 2.6713,0.4944 l 2.6964,0.3306 l 2.7116,0.1656 l 2.7166,0.0000 l 2.7116,-0.1656 l 2.6964,-0.3306 l 2.6713,-0.4944 l 2.6362,-0.6563 l 2.5912,-0.8158 l 2.5367,-0.9723 l 2.4727,-1.1251 l 2.3995,-1.2738 l 2.3174,-1.4177 l 2.2267,-1.5563 l 2.1276,-1.6892 l 2.0207,-1.8157 l 1.9062,-1.9355 l 1.7847,-2.0481 l 1.6565,-2.1531 l 1.5222,-2.2501 l 1.3822,-2.3387 l 1.2370,-2.4186 l 1.0873,-2.4896 l 0.9335,-2.5512 l 0.7762,-2.6034 l 0.6160,-2.6459 l 0.4536,-2.6785 l 0.2895,-2.7012 Z"/></clipPath></defs><g clip-path="url(#myClip4)"><path d="M 214.8451,96.2656 l -0.0000,-89.0602 h -29.6902 l -0.0000,89.0602 Z"/></g></g><g stroke-linejoin="miter" stroke-opacity="1.0" fill-opacity="1.0" stroke="rgb(255,89,89)" stroke-width="0.8072311333760342" fill="rgb(255,89,89)" stroke-linecap="butt" stroke-miterlimit="10.0"><defs><clipPath id="myClip5"><path d="M 244.5353,52.4147 l -0.0414,-2.7163 l -0.2069,-2.7087 l -0.3717,-2.6911 l -0.5351,-2.6634 l -0.6964,-2.6258 l -0.8552,-2.5785 l -1.0108,-2.5216 l -1.1627,-2.4552 l -1.3102,-2.3798 l -1.4528,-2.2955 l -1.5901,-2.2027 l -1.7214,-2.1016 l -1.8463,-1.9928 l -1.9644,-1.8765 l -2.0751,-1.7533 l -2.1782,-1.6235 l -2.2731,-1.4877 l -2.3595,-1.3463 l -2.4372,-1.2000 l -2.5059,-1.0492 l -2.5652,-0.8945 l -2.6149,-0.7364 l -2.6549,-0.5756 l -2.6851,-0.4127 l -2.7053,-0.2482 l -2.7154,-0.0828 l -2.7154,0.0828 l -2.7053,0.2482 l -2.6851,0.4127 l -2.6549,0.5756 l -2.6149,0.7364 l -2.5652,0.8945 l -2.5059,1.0492 l -2.4372,1.2000 l -2.3595,1.3463 l -2.2731,1.4877 l -2.1782,1.6235 l -2.0751,1.7533 l -1.9644,1.8765 l -1.8463,1.9928 l -1.7214,2.1016 l -1.5901,2.2027 l -1.4528,2.2955 l -1.3102,2.3798 l -1.1627,2.4552 l -1.0108,2.5216 l -0.8552,2.5785 l -0.6964,2.6258 l -0.5351,2.6634 l -0.3717,2.6911 l -0.2069,2.7087 l -0.0414,2.7163 l 0.1242,2.7138 l 0.2895,2.7012 l 0.4536,2.6785 l 0.6160,2.6459 l 0.7762,2.6034 l 0.9335,2.5512 l 1.0873,2.4896 l 1.2370,2.4186 l 1.3822,2.3387 l 1.5222,2.2501 l 1.6565,2.1531 l 1.7847,2.0481 l 1.9062,1.9355 l 2.0207,1.8157 l 2.1276,1.6892 l 2.2267,1.5563 l 2.3174,1.4177 l 2.3995,1.2738 l 2.4727,1.1251 l 2.5367,0.9723 l 2.5912,0.8158 l 2.6362,0.6563 l 2.6713,0.4944 l 2.6964,0.3306 l 2.7116,0.1656 l 2.7166,0.0000 l 2.7116,-0.1656 l 2.6964,-0.3306 l 2.6713,-0.4944 l 2.6362,-0.6563 l 2.5912,-0.8158 l 2.5367,-0.9723 l 2.4727,-1.1251 l 2.3995,-1.2738 l 2.3174,-1.4177 l 2.2267,-1.5563 l 2.1276,-1.6892 l 2.0207,-1.8157 l 1.9062,-1.9355 l 1.7847,-2.0481 l 1.6565,-2.1531 l 1.5222,-2.2501 l 1.3822,-2.3387 l 1.2370,-2.4186 l 1.0873,-2.4896 l 0.9335,-2.5512 l 0.7762,-2.6034 l 0.6160,-2.6459 l 0.4536,-2.6785 l 0.2895,-2.7012 Z"/></clipPath></defs><g clip-path="url(#myClip5)"><path d="M 185.1549,96.2656 l -0.0000,-89.0602 h -29.6902 l -0.0000,89.0602 Z"/></g></g><g stroke-linejoin="miter" stroke-opacity="1.0" fill-opacity="1.0" stroke="rgb(0,0,0)" stroke-width="0.0" fill="rgb(0,128,0)" stroke-linecap="butt" stroke-miterlimit="10.0"><path d="M 203.5640,8.2369 l 0.1104,-1.8077 l -1.8077,-0.1104 l -0.1104,1.8077 Z"/></g><g stroke-linejoin="miter" stroke-opacity="1.0" fill-opacity="1.0" stroke="rgb(0,0,0)" stroke-width="0.0" fill="rgb(0,128,0)" stroke-linecap="butt" stroke-miterlimit="10.0"><path d="M 206.2092,8.5351 l 0.2204,-1.7976 l -1.7976,-0.2204 l -0.2204,1.7976 Z"/></g><g stroke-linejoin="miter" stroke-opacity="1.0" fill-opacity="1.0" stroke="rgb(0,0,0)" stroke-width="0.0" fill="rgb(0,128,0)" stroke-linecap="butt" stroke-miterlimit="10.0"><path d="M 208.8314,8.9940 l 0.3296,-1.7808 l -1.7808,-0.3296 l -0.3296,1.7808 Z"/></g><g stroke-linejoin="miter" stroke-opacity="1.0" fill-opacity="1.0" stroke="rgb(0,0,0)" stroke-width="0.0" fill="rgb(0,128,0)" stroke-linecap="butt" stroke-miterlimit="10.0"><path d="M 211.4206,9.6119 l 0.4375,-1.7574 l -1.7574,-0.4375 l -0.4375,1.7574 Z"/></g><g stroke-linejoin="miter" stroke-opacity="1.0" fill-opacity="1.0" stroke="rgb(0,0,0)" stroke-width="0.0" fill="rgb(0,128,0)" stroke-linecap="butt" stroke-miterlimit="10.0"><path d="M 213.9674,10.3865 l 0.5439,-1.7275 l -1.7275,-0.5439 l -0.5439,1.7275 Z"/></g><g stroke-linejoin="miter" stroke-opacity="1.0" fill-opacity="1.0" stroke="rgb(0,0,0)" stroke-width="0.0" fill="rgb(0,128,0)" stroke-linecap="butt" stroke-miterlimit="10.0"><path d="M 216.4622,11.3149 l 0.6482,-1.6911 l -1.6911,-0.6482 l -0.6482,1.6911 Z"/></g><g stroke-linejoin="miter" stroke-opacity="1.0" fill-opacity="1.0" stroke="rgb(0,0,0)" stroke-width="0.0" fill="rgb(0,128,0)" stroke-linecap="butt" stroke-miterlimit="10.0"><path d="M 218.8958,12.3937 l 0.7501,-1.6485 l -1.6485,-0.7501 l -0.7501,1.6485 Z"/></g><g stroke-linejoin="miter" stroke-opacity="1.0" fill-opacity="1.0" stroke="rgb(0,0,0)" stroke-width="0.0" fill="rgb(0,128,0)" stroke-linecap="butt" stroke-miterlimit="10.0"><path d="M 221.2591,13.6188 l 0.8492,-1.5997 l -1.5997,-0.8492 l -0.8492,1.5997 Z"/></g><g stroke-linejoin="miter" stroke-opacity="1.0" fill-opacity="1.0" stroke="rgb(0,0,0)" stroke-width="0.0" fill="rgb(0,128,0)" stroke-linecap="butt" stroke-miterlimit="10.0"><path d="M 223.5433,14.9857 l 0.9451,-1.5449 l -1.5449,-0.9451 l -0.9451,1.5449 Z"/></g><g stroke-linejoin="miter" stroke-opacity="1.0" fill-opacity="1.0" stroke="rgb(0,0,0)" stroke-width="0.0" fill="rgb(0,128,0)" stroke-linecap="butt" stroke-miterlimit="10.0"><path d="M 225.7399,16.4894 l 1.0375,-1.4844 l -1.4844,-1.0375 l -1.0375,1.4844 Z"/></g><g stroke-linejoin="miter" stroke-opacity="1.0" fill-opacity="1.0" stroke="rgb(0,0,0)" stroke-width="0.0" fill="rgb(0,128,0)" stroke-linecap="butt" stroke-miterlimit="10.0"><path d="M 227.8408,18.1242 l 1.1261,-1.4184 l -1.4184,-1.1261 l -1.1261,1.4184 Z"/></g><g stroke-linejoin="miter" stroke-opacity="1.0" fill-opacity="1.0" stroke="rgb(0,0,0)" stroke-width="0.0" fill="rgb(0,128,0)" stroke-linecap="butt" stroke-miterlimit="10.0"><path d="M 229.8381,19.8840 l 1.2105,-1.3471 l -1.3471,-1.2105 l -1.2105,1.3471 Z"/></g><g stroke-linejoin="miter" stroke-opacity="1.0" fill-opacity="1.0" stroke="rgb(0,0,0)" stroke-width="0.0" fill="rgb(0,128,0)" stroke-linecap="butt" stroke-miterlimit="10.0"><path d="M 231.7243,21.7622 l 1.2904,-1.2708 l -1.2708,-1.2904 l -1.2904,1.2708 Z"/></g><g stroke-linejoin="miter" stroke-opacity="1.0" fill-opacity="1.0" stroke="rgb(0,0,0)" stroke-width="0.0" fill="rgb(0,128,0)" stroke-linecap="butt" stroke-miterlimit="10.0"><path d="M 233.4926,23.7520 l 1.3654,-1.1898 l -1.1898,-1.3654 l -1.3654,1.1898 Z"/></g><g stroke-linejoin="miter" stroke-opacity="1.0" fill-opacity="1.0" stroke="rgb(0,0,0)" stroke-width="0.0" fill="rgb(0,128,0)" stroke-linecap="butt" stroke-miterlimit="10.0"><path d="M 235.1363,25.8459 l 1.4354,-1.1043 l -1.1043,-1.4354 l -1.4354,1.1043 Z"/></g><g stroke-linejoin="miter" stroke-opacity="1.0" fill-opacity="1.0" stroke="rgb(0,0,0)" stroke-width="0.0" fill="rgb(0,128,0)" stroke-linecap="butt" stroke-miterlimit="10.0"><path d="M 236.6493,28.0361 l 1.5001,-1.0148 l -1.0148,-1.5001 l -1.5001,1.0148 Z"/></g><g stroke-linejoin="miter" stroke-opacity="1.0" fill-opacity="1.0" stroke="rgb(0,0,0)" stroke-width="0.0" fill="rgb(0,128,0)" stroke-linecap="butt" stroke-miterlimit="10.0"><path d="M 238.0259,30.3145 l 1.5592,-0.9214 l -0.9214,-1.5592 l -1.5592,0.9214 Z"/></g><g stroke-linejoin="miter" stroke-opacity="1.0" fill-opacity="1.0" stroke="rgb(0,0,0)" stroke-width="0.0" fill="rgb(0,128,0)" stroke-linecap="butt" stroke-miterlimit="10.0"><path d="M 239.2611,32.6726 l 1.6124,-0.8247 l -0.8247,-1.6124 l -1.6124,0.8247 Z"/></g><g stroke-linejoin="miter" stroke-opacity="1.0" fill-opacity="1.0" stroke="rgb(0,0,0)" stroke-width="0.0" fill="rgb(0,128,0)" stroke-linecap="butt" stroke-miterlimit="10.0"><path d="M 240.3502,35.1015 l 1.6597,-0.7248 l -0.7248,-1.6597 l -1.6597,0.7248 Z"/></g><g stroke-linejoin="miter" stroke-opacity="1.0" fill-opacity="1.0" stroke="rgb(0,0,0)" stroke-width="0.0" fill="rgb(0,128,0)" stroke-linecap="butt" stroke-miterlimit="10.0"><path d="M 241.2892,37.5924 l 1.7008,-0.6223 l -0.6223,-1.7008 l -1.7008,0.6223 Z"/></g><g stroke-linejoin="miter" stroke-opacity="1.0" fill-opacity="1.0" stroke="rgb(0,0,0)" stroke-width="0.0" fill="rgb(0,128,0)" stroke-linecap="butt" stroke-miterlimit="10.0"><path d="M 242.0747,40.1358 l 1.7356,-0.5175 l -0.5175,-1.7356 l -1.7356,0.5175 Z"/></g><g stroke-linejoin="miter" stroke-opacity="1.0" fill-opacity="1.0" stroke="rgb(0,0,0)" stroke-width="0.0" fill="rgb(0,128,0)" stroke-linecap="butt" stroke-miterlimit="10.0"><path d="M 242.7036,42.7225 l 1.7639,-0.4107 l -0.4107,-1.7639 l -1.7639,0.4107 Z"/></g><g stroke-linejoin="miter" stroke-opacity="1.0" fill-opacity="1.0" stroke="rgb(0,0,0)" stroke-width="0.0" fill="rgb(0,128,0)" stroke-linecap="butt" stroke-miterlimit="10.0"><path d="M 243.1736,45.3426 l 1.7857,-0.3024 l -0.3024,-1.7857 l -1.7857,0.3024 Z"/></g><g stroke-linejoin="miter" stroke-opacity="1.0" fill-opacity="1.0" stroke="rgb(0,0,0)" stroke-width="0.0" fill="rgb(0,128,0)" stroke-linecap="butt" stroke-miterlimit="10.0"><path d="M 243.4830,47.9865 l 1.8008,-0.1930 l -0.1930,-1.8008 l -1.8008,0.1930 Z"/></g><g stroke-linejoin="miter" stroke-opacity="1.0" fill-opacity="1.0" stroke="rgb(0,0,0)" stroke-width="0.0" fill="rgb(0,128,0)" stroke-linecap="butt" stroke-miterlimit="10.0"><path d="M 243.6307,50.6444 l 1.8092,-0.0828 l -0.0828,-1.8092 l -1.8092,0.0828 Z"/></g><g stroke-linejoin="miter" stroke-opacity="1.0" fill-opacity="1.0" stroke="rgb(0,0,0)" stroke-width="0.0" fill="rgb(0,128,0)" stroke-linecap="butt" stroke-miterlimit="10.0"><path d="M 243.6161,53.3063 l 1.8109,0.0276 l 0.0276,-1.8109 l -1.8109,-0.0276 Z"/></g><g stroke-linejoin="miter" stroke-opacity="1.0" fill-opacity="1.0" stroke="rgb(0,0,0)" stroke-width="0.0" fill="rgb(0,128,0)" stroke-linecap="butt" stroke-miterlimit="10.0"><path d="M 243.4392,55.9624 l 1.8058,0.1380 l 0.1380,-1.8058 l -1.8058,-0.1380 Z"/></g><g stroke-linejoin="miter" stroke-opacity="1.0" fill-opacity="1.0" stroke="rgb(0,0,0)" stroke-width="0.0" fill="rgb(0,128,0)" stroke-linecap="butt" stroke-miterlimit="10.0"><path d="M 243.1007,58.6028 l 1.7941,0.2478 l 0.2478,-1.7941 l -1.7941,-0.2478 Z"/></g><g stroke-linejoin="miter" stroke-opacity="1.0" fill-opacity="1.0" stroke="rgb(0,0,0)" stroke-width="0.0" fill="rgb(0,128,0)" stroke-linecap="butt" stroke-miterlimit="10.0"><path d="M 242.6018,61.2176 l 1.7756,0.3567 l 0.3567,-1.7756 l -1.7756,-0.3567 Z"/></g><g stroke-linejoin="miter" stroke-opacity="1.0" fill-opacity="1.0" stroke="rgb(0,0,0)" stroke-width="0.0" fill="rgb(0,128,0)" stroke-linecap="butt" stroke-miterlimit="10.0"><path d="M 241.9445,63.7971 l 1.7506,0.4643 l 0.4643,-1.7506 l -1.7506,-0.4643 Z"/></g><g stroke-linejoin="miter" stroke-opacity="1.0" fill-opacity="1.0" stroke="rgb(0,0,0)" stroke-width="0.0" fill="rgb(0,128,0)" stroke-linecap="butt" stroke-miterlimit="10.0"><path d="M 241.1312,66.3318 l 1.7190,0.5702 l 0.5702,-1.7190 l -1.7190,-0.5702 Z"/></g><g stroke-linejoin="miter" stroke-opacity="1.0" fill-opacity="1.0" stroke="rgb(0,0,0)" stroke-width="0.0" fill="rgb(0,128,0)" stroke-linecap="butt" stroke-miterlimit="10.0"><path d="M 240.1648,68.8122 l 1.6810,0.6739 l 0.6739,-1.6810 l -1.6810,-0.6739 Z"/></g><g stroke-linejoin="miter" stroke-opacity="1.0" fill-opacity="1.0" stroke="rgb(0,0,0)" stroke-width="0.0" fill="rgb(0,128,0)" stroke-linecap="butt" stroke-miterlimit="10.0"><path d="M 239.0491,71.2290 l 1.6368,0.7751 l 0.7751,-1.6368 l -1.6368,-0.7751 Z"/></g><g stroke-linejoin="miter" stroke-opacity="1.0" fill-opacity="1.0" stroke="rgb(0,0,0)" stroke-width="0.0" fill="rgb(0,128,0)" stroke-linecap="butt" stroke-miterlimit="10.0"><path d="M 237.7880,73.5733 l 1.5865,0.8735 l 0.8735,-1.5865 l -1.5865,-0.8735 Z"/></g><g stroke-linejoin="miter" stroke-opacity="1.0" fill-opacity="1.0" stroke="rgb(0,0,0)" stroke-width="0.0" fill="rgb(0,128,0)" stroke-linecap="butt" stroke-miterlimit="10.0"><path d="M 236.3864,75.8364 l 1.5303,0.9686 l 0.9686,-1.5303 l -1.5303,-0.9686 Z"/></g><g stroke-linejoin="miter" stroke-opacity="1.0" fill-opacity="1.0" stroke="rgb(0,0,0)" stroke-width="0.0" fill="rgb(0,128,0)" stroke-linecap="butt" stroke-miterlimit="10.0"><path d="M 234.8494,78.0099 l 1.4684,1.0601 l 1.0601,-1.4684 l -1.4684,-1.0601 Z"/></g><g stroke-linejoin="miter" stroke-opacity="1.0" fill-opacity="1.0" stroke="rgb(0,0,0)" stroke-width="0.0" fill="rgb(0,128,0)" stroke-linecap="butt" stroke-miterlimit="10.0"><path d="M 233.1828,80.0855 l 1.4011,1.1476 l 1.1476,-1.4011 l -1.4011,-1.1476 Z"/></g><g stroke-linejoin="miter" stroke-opacity="1.0" fill-opacity="1.0" stroke="rgb(0,0,0)" stroke-width="0.0" fill="rgb(0,128,0)" stroke-linecap="butt" stroke-miterlimit="10.0"><path d="M 231.3928,82.0558 l 1.3285,1.2309 l 1.2309,-1.3285 l -1.3285,-1.2309 Z"/></g><g stroke-linejoin="miter" stroke-opacity="1.0" fill-opacity="1.0" stroke="rgb(0,0,0)" stroke-width="0.0" fill="rgb(0,128,0)" stroke-linecap="butt" stroke-miterlimit="10.0"><path d="M 229.4859,83.9132 l 1.2510,1.3096 l 1.3096,-1.2510 l -1.2510,-1.3096 Z"/></g><g stroke-linejoin="miter" stroke-opacity="1.0" fill-opacity="1.0" stroke="rgb(0,0,0)" stroke-width="0.0" fill="rgb(0,128,0)" stroke-linecap="butt" stroke-miterlimit="10.0"><path d="M 227.4694,85.6509 l 1.1688,1.3834 l 1.3834,-1.1688 l -1.1688,-1.3834 Z"/></g><g stroke-linejoin="miter" stroke-opacity="1.0" fill-opacity="1.0" stroke="rgb(0,0,0)" stroke-width="0.0" fill="rgb(0,128,0)" stroke-linecap="butt" stroke-miterlimit="10.0"><path d="M 225.3507,87.2625 l 1.0823,1.4521 l 1.4521,-1.0823 l -1.0823,-1.4521 Z"/></g><g stroke-linejoin="miter" stroke-opacity="1.0" fill-opacity="1.0" stroke="rgb(0,0,0)" stroke-width="0.0" fill="rgb(0,128,0)" stroke-linecap="butt" stroke-miterlimit="10.0"><path d="M 223.1377,88.7419 l 0.9918,1.5154 l 1.5154,-0.9918 l -0.9918,-1.5154 Z"/></g><g stroke-linejoin="miter" stroke-opacity="1.0" fill-opacity="1.0" stroke="rgb(0,0,0)" stroke-width="0.0" fill="rgb(0,128,0)" stroke-linecap="butt" stroke-miterlimit="10.0"><path d="M 220.8386,90.0836 l 0.8976,1.5730 l 1.5730,-0.8976 l -0.8976,-1.5730 Z"/></g><g stroke-linejoin="miter" stroke-opacity="1.0" fill-opacity="1.0" stroke="rgb(0,0,0)" stroke-width="0.0" fill="rgb(0,128,0)" stroke-linecap="butt" stroke-miterlimit="10.0"><path d="M 218.4620,91.2827 l 0.8000,1.6248 l 1.6248,-0.8000 l -0.8000,-1.6248 Z"/></g><g stroke-linejoin="miter" stroke-opacity="1.0" fill-opacity="1.0" stroke="rgb(0,0,0)" stroke-width="0.0" fill="rgb(0,128,0)" stroke-linecap="butt" stroke-miterlimit="10.0"><path d="M 216.0167,92.3346 l 0.6994,1.6706 l 1.6706,-0.6994 l -0.6994,-1.6706 Z"/></g><g stroke-linejoin="miter" stroke-opacity="1.0" fill-opacity="1.0" stroke="rgb(0,0,0)" stroke-width="0.0" fill="rgb(0,128,0)" stroke-linecap="butt" stroke-miterlimit="10.0"><path d="M 213.5118,93.2356 l 0.5963,1.7101 l 1.7101,-0.5963 l -0.5963,-1.7101 Z"/></g><g stroke-linejoin="miter" stroke-opacity="1.0" fill-opacity="1.0" stroke="rgb(0,0,0)" stroke-width="0.0" fill="rgb(0,128,0)" stroke-linecap="butt" stroke-miterlimit="10.0"><path d="M 210.9566,93.9821 l 0.4909,1.7433 l 1.7433,-0.4909 l -0.4909,-1.7433 Z"/></g><g stroke-linejoin="miter" stroke-opacity="1.0" fill-opacity="1.0" stroke="rgb(0,0,0)" stroke-width="0.0" fill="rgb(0,128,0)" stroke-linecap="butt" stroke-miterlimit="10.0"><path d="M 208.3607,94.5715 l 0.3837,1.7700 l 1.7700,-0.3837 l -0.3837,-1.7700 Z"/></g><g stroke-linejoin="miter" stroke-opacity="1.0" fill-opacity="1.0" stroke="rgb(0,0,0)" stroke-width="0.0" fill="rgb(0,128,0)" stroke-linecap="butt" stroke-miterlimit="10.0"><path d="M 205.7337,95.0015 l 0.2751,1.7901 l 1.7901,-0.2751 l -0.2751,-1.7901 Z"/></g><g stroke-linejoin="miter" stroke-opacity="1.0" fill-opacity="1.0" stroke="rgb(0,0,0)" stroke-width="0.0" fill="rgb(0,128,0)" stroke-linecap="butt" stroke-miterlimit="10.0"><path d="M 203.0854,95.2706 l 0.1655,1.8035 l 1.8035,-0.1655 l -0.1655,-1.8035 Z"/></g><g stroke-linejoin="miter" stroke-opacity="1.0" fill-opacity="1.0" stroke="rgb(0,0,0)" stroke-width="0.0" fill="rgb(0,128,0)" stroke-linecap="butt" stroke-miterlimit="10.0"><path d="M 200.4256,95.3777 l 0.0552,1.8102 l 1.8102,-0.0552 l -0.0552,-1.8102 Z"/></g><g stroke-linejoin="miter" stroke-opacity="1.0" fill-opacity="1.0" stroke="rgb(0,0,0)" stroke-width="0.0" fill="rgb(0,128,0)" stroke-linecap="butt" stroke-miterlimit="10.0"><path d="M 197.7642,95.3225 l -0.0552,1.8102 l 1.8102,0.0552 l 0.0552,-1.8102 Z"/></g><g stroke-linejoin="miter" stroke-opacity="1.0" fill-opacity="1.0" stroke="rgb(0,0,0)" stroke-width="0.0" fill="rgb(0,128,0)" stroke-linecap="butt" stroke-miterlimit="10.0"><path d="M 195.1111,95.1051 l -0.1655,1.8035 l 1.8035,0.1655 l 0.1655,-1.8035 Z"/></g><g stroke-linejoin="miter" stroke-opacity="1.0" fill-opacity="1.0" stroke="rgb(0,0,0)" stroke-width="0.0" fill="rgb(0,128,0)" stroke-linecap="butt" stroke-miterlimit="10.0"><path d="M 192.4762,94.7264 l -0.2751,1.7901 l 1.7901,0.2751 l 0.2751,-1.7901 Z"/></g><g stroke-linejoin="miter" stroke-opacity="1.0" fill-opacity="1.0" stroke="rgb(0,0,0)" stroke-width="0.0" fill="rgb(0,128,0)" stroke-linecap="butt" stroke-miterlimit="10.0"><path d="M 189.8693,94.1877 l -0.3837,1.7700 l 1.7700,0.3837 l 0.3837,-1.7700 Z"/></g><g stroke-linejoin="miter" stroke-opacity="1.0" fill-opacity="1.0" stroke="rgb(0,0,0)" stroke-width="0.0" fill="rgb(0,128,0)" stroke-linecap="butt" stroke-miterlimit="10.0"><path d="M 187.3001,93.4912 l -0.4909,1.7433 l 1.7433,0.4909 l 0.4909,-1.7433 Z"/></g><g stroke-linejoin="miter" stroke-opacity="1.0" fill-opacity="1.0" stroke="rgb(0,0,0)" stroke-width="0.0" fill="rgb(0,128,0)" stroke-linecap="butt" stroke-miterlimit="10.0"><path d="M 184.7781,92.6393 l -0.5963,1.7101 l 1.7101,0.5963 l 0.5963,-1.7101 Z"/></g><g stroke-linejoin="miter" stroke-opacity="1.0" fill-opacity="1.0" stroke="rgb(0,0,0)" stroke-width="0.0" fill="rgb(0,128,0)" stroke-linecap="butt" stroke-miterlimit="10.0"><path d="M 182.3128,91.6352 l -0.6994,1.6706 l 1.6706,0.6994 l 0.6994,-1.6706 Z"/></g><g stroke-linejoin="miter" stroke-opacity="1.0" fill-opacity="1.0" stroke="rgb(0,0,0)" stroke-width="0.0" fill="rgb(0,128,0)" stroke-linecap="butt" stroke-miterlimit="10.0"><path d="M 179.9132,90.4827 l -0.8000,1.6248 l 1.6248,0.8000 l 0.8000,-1.6248 Z"/></g><g stroke-linejoin="miter" stroke-opacity="1.0" fill-opacity="1.0" stroke="rgb(0,0,0)" stroke-width="0.0" fill="rgb(0,128,0)" stroke-linecap="butt" stroke-miterlimit="10.0"><path d="M 177.5884,89.1861 l -0.8976,1.5730 l 1.5730,0.8976 l 0.8976,-1.5730 Z"/></g><g stroke-linejoin="miter" stroke-opacity="1.0" fill-opacity="1.0" stroke="rgb(0,0,0)" stroke-width="0.0" fill="rgb(0,128,0)" stroke-linecap="butt" stroke-miterlimit="10.0"><path d="M 175.3469,87.7501 l -0.9918,1.5154 l 1.5154,0.9918 l 0.9918,-1.5154 Z"/></g><g stroke-linejoin="miter" stroke-opacity="1.0" fill-opacity="1.0" stroke="rgb(0,0,0)" stroke-width="0.0" fill="rgb(0,128,0)" stroke-linecap="butt" stroke-miterlimit="10.0"><path d="M 173.1972,86.1802 l -1.0823,1.4521 l 1.4521,1.0823 l 1.0823,-1.4521 Z"/></g><g stroke-linejoin="miter" stroke-opacity="1.0" fill-opacity="1.0" stroke="rgb(0,0,0)" stroke-width="0.0" fill="rgb(0,128,0)" stroke-linecap="butt" stroke-miterlimit="10.0"><path d="M 171.1472,84.4821 l -1.1688,1.3834 l 1.3834,1.1688 l 1.1688,-1.3834 Z"/></g><g stroke-linejoin="miter" stroke-opacity="1.0" fill-opacity="1.0" stroke="rgb(0,0,0)" stroke-width="0.0" fill="rgb(0,128,0)" stroke-linecap="butt" stroke-miterlimit="10.0"><path d="M 169.2045,82.6622 l -1.2510,1.3096 l 1.3096,1.2510 l 1.2510,-1.3096 Z"/></g><g stroke-linejoin="miter" stroke-opacity="1.0" fill-opacity="1.0" stroke="rgb(0,0,0)" stroke-width="0.0" fill="rgb(0,128,0)" stroke-linecap="butt" stroke-miterlimit="10.0"><path d="M 167.3763,80.7273 l -1.3285,1.2309 l 1.2309,1.3285 l 1.3285,-1.2309 Z"/></g><g stroke-linejoin="miter" stroke-opacity="1.0" fill-opacity="1.0" stroke="rgb(0,0,0)" stroke-width="0.0" fill="rgb(0,128,0)" stroke-linecap="butt" stroke-miterlimit="10.0"><path d="M 165.6696,78.6845 l -1.4011,1.1476 l 1.1476,1.4011 l 1.4011,-1.1476 Z"/></g><g stroke-linejoin="miter" stroke-opacity="1.0" fill-opacity="1.0" stroke="rgb(0,0,0)" stroke-width="0.0" fill="rgb(0,128,0)" stroke-linecap="butt" stroke-miterlimit="10.0"><path d="M 164.0905,76.5414 l -1.4684,1.0601 l 1.0601,1.4684 l 1.4684,-1.0601 Z"/></g><g stroke-linejoin="miter" stroke-opacity="1.0" fill-opacity="1.0" stroke="rgb(0,0,0)" stroke-width="0.0" fill="rgb(0,128,0)" stroke-linecap="butt" stroke-miterlimit="10.0"><path d="M 162.6450,74.3061 l -1.5303,0.9686 l 0.9686,1.5303 l 1.5303,-0.9686 Z"/></g><g stroke-linejoin="miter" stroke-opacity="1.0" fill-opacity="1.0" stroke="rgb(0,0,0)" stroke-width="0.0" fill="rgb(0,128,0)" stroke-linecap="butt" stroke-miterlimit="10.0"><path d="M 161.3385,71.9868 l -1.5865,0.8735 l 0.8735,1.5865 l 1.5865,-0.8735 Z"/></g><g stroke-linejoin="miter" stroke-opacity="1.0" fill-opacity="1.0" stroke="rgb(0,0,0)" stroke-width="0.0" fill="rgb(0,128,0)" stroke-linecap="butt" stroke-miterlimit="10.0"><path d="M 160.1758,69.5922 l -1.6368,0.7751 l 0.7751,1.6368 l 1.6368,-0.7751 Z"/></g><g stroke-linejoin="miter" stroke-opacity="1.0" fill-opacity="1.0" stroke="rgb(0,0,0)" stroke-width="0.0" fill="rgb(0,128,0)" stroke-linecap="butt" stroke-miterlimit="10.0"><path d="M 159.1613,67.1311 l -1.6810,0.6739 l 0.6739,1.6810 l 1.6810,-0.6739 Z"/></g><g stroke-linejoin="miter" stroke-opacity="1.0" fill-opacity="1.0" stroke="rgb(0,0,0)" stroke-width="0.0" fill="rgb(0,128,0)" stroke-linecap="butt" stroke-miterlimit="10.0"><path d="M 158.2987,64.6128 l -1.7190,0.5702 l 0.5702,1.7190 l 1.7190,-0.5702 Z"/></g><g stroke-linejoin="miter" stroke-opacity="1.0" fill-opacity="1.0" stroke="rgb(0,0,0)" stroke-width="0.0" fill="rgb(0,128,0)" stroke-linecap="butt" stroke-miterlimit="10.0"><path d="M 157.5912,62.0466 l -1.7506,0.4643 l 0.4643,1.7506 l 1.7506,-0.4643 Z"/></g><g stroke-linejoin="miter" stroke-opacity="1.0" fill-opacity="1.0" stroke="rgb(0,0,0)" stroke-width="0.0" fill="rgb(0,128,0)" stroke-linecap="butt" stroke-miterlimit="10.0"><path d="M 157.0414,59.4420 l -1.7756,0.3567 l 0.3567,1.7756 l 1.7756,-0.3567 Z"/></g><g stroke-linejoin="miter" stroke-opacity="1.0" fill-opacity="1.0" stroke="rgb(0,0,0)" stroke-width="0.0" fill="rgb(0,128,0)" stroke-linecap="butt" stroke-miterlimit="10.0"><path d="M 156.6515,56.8087 l -1.7941,0.2478 l 0.2478,1.7941 l 1.7941,-0.2478 Z"/></g><g stroke-linejoin="miter" stroke-opacity="1.0" fill-opacity="1.0" stroke="rgb(0,0,0)" stroke-width="0.0" fill="rgb(0,128,0)" stroke-linecap="butt" stroke-miterlimit="10.0"><path d="M 156.4229,54.1566 l -1.8058,0.1380 l 0.1380,1.8058 l 1.8058,-0.1380 Z"/></g><g stroke-linejoin="miter" stroke-opacity="1.0" fill-opacity="1.0" stroke="rgb(0,0,0)" stroke-width="0.0" fill="rgb(0,128,0)" stroke-linecap="butt" stroke-miterlimit="10.0"><path d="M 156.3563,51.4954 l -1.8109,0.0276 l 0.0276,1.8109 l 1.8109,-0.0276 Z"/></g><g stroke-linejoin="miter" stroke-opacity="1.0" fill-opacity="1.0" stroke="rgb(0,0,0)" stroke-width="0.0" fill="rgb(0,128,0)" stroke-linecap="butt" stroke-miterlimit="10.0"><path d="M 156.4521,48.8352 l -1.8092,-0.0828 l -0.0828,1.8092 l 1.8092,0.0828 Z"/></g><g stroke-linejoin="miter" stroke-opacity="1.0" fill-opacity="1.0" stroke="rgb(0,0,0)" stroke-width="0.0" fill="rgb(0,128,0)" stroke-linecap="butt" stroke-miterlimit="10.0"><path d="M 156.7100,46.1857 l -1.8008,-0.1930 l -0.1930,1.8008 l 1.8008,0.1930 Z"/></g><g stroke-linejoin="miter" stroke-opacity="1.0" fill-opacity="1.0" stroke="rgb(0,0,0)" stroke-width="0.0" fill="rgb(0,128,0)" stroke-linecap="butt" stroke-miterlimit="10.0"><path d="M 157.1288,43.5569 l -1.7857,-0.3024 l -0.3024,1.7857 l 1.7857,0.3024 Z"/></g><g stroke-linejoin="miter" stroke-opacity="1.0" fill-opacity="1.0" stroke="rgb(0,0,0)" stroke-width="0.0" fill="rgb(0,128,0)" stroke-linecap="butt" stroke-miterlimit="10.0"><path d="M 157.7071,40.9585 l -1.7639,-0.4107 l -0.4107,1.7639 l 1.7639,0.4107 Z"/></g><g stroke-linejoin="miter" stroke-opacity="1.0" fill-opacity="1.0" stroke="rgb(0,0,0)" stroke-width="0.0" fill="rgb(0,128,0)" stroke-linecap="butt" stroke-miterlimit="10.0"><path d="M 158.4428,38.4003 l -1.7356,-0.5175 l -0.5175,1.7356 l 1.7356,0.5175 Z"/></g><g stroke-linejoin="miter" stroke-opacity="1.0" fill-opacity="1.0" stroke="rgb(0,0,0)" stroke-width="0.0" fill="rgb(0,128,0)" stroke-linecap="butt" stroke-miterlimit="10.0"><path d="M 159.3331,35.8916 l -1.7008,-0.6223 l -0.6223,1.7008 l 1.7008,0.6223 Z"/></g><g stroke-linejoin="miter" stroke-opacity="1.0" fill-opacity="1.0" stroke="rgb(0,0,0)" stroke-width="0.0" fill="rgb(0,128,0)" stroke-linecap="butt" stroke-miterlimit="10.0"><path d="M 160.3746,33.4418 l -1.6597,-0.7248 l -0.7248,1.6597 l 1.6597,0.7248 Z"/></g><g stroke-linejoin="miter" stroke-opacity="1.0" fill-opacity="1.0" stroke="rgb(0,0,0)" stroke-width="0.0" fill="rgb(0,128,0)" stroke-linecap="butt" stroke-miterlimit="10.0"><path d="M 161.5636,31.0601 l -1.6124,-0.8247 l -0.8247,1.6124 l 1.6124,0.8247 Z"/></g><g stroke-linejoin="miter" stroke-opacity="1.0" fill-opacity="1.0" stroke="rgb(0,0,0)" stroke-width="0.0" fill="rgb(0,128,0)" stroke-linecap="butt" stroke-miterlimit="10.0"><path d="M 162.8955,28.7553 l -1.5592,-0.9214 l -0.9214,1.5592 l 1.5592,0.9214 Z"/></g><g stroke-linejoin="miter" stroke-opacity="1.0" fill-opacity="1.0" stroke="rgb(0,0,0)" stroke-width="0.0" fill="rgb(0,128,0)" stroke-linecap="butt" stroke-miterlimit="10.0"><path d="M 164.3655,26.5361 l -1.5001,-1.0148 l -1.0148,1.5001 l 1.5001,1.0148 Z"/></g><g stroke-linejoin="miter" stroke-opacity="1.0" fill-opacity="1.0" stroke="rgb(0,0,0)" stroke-width="0.0" fill="rgb(0,128,0)" stroke-linecap="butt" stroke-miterlimit="10.0"><path d="M 165.9680,24.4105 l -1.4354,-1.1043 l -1.1043,1.4354 l 1.4354,1.1043 Z"/></g><g stroke-linejoin="miter" stroke-opacity="1.0" fill-opacity="1.0" stroke="rgb(0,0,0)" stroke-width="0.0" fill="rgb(0,128,0)" stroke-linecap="butt" stroke-miterlimit="10.0"><path d="M 167.6972,22.3866 l -1.3654,-1.1898 l -1.1898,1.3654 l 1.3654,1.1898 Z"/></g><g stroke-linejoin="miter" stroke-opacity="1.0" fill-opacity="1.0" stroke="rgb(0,0,0)" stroke-width="0.0" fill="rgb(0,128,0)" stroke-linecap="butt" stroke-miterlimit="10.0"><path d="M 169.5465,20.4719 l -1.2904,-1.2708 l -1.2708,1.2904 l 1.2904,1.2708 Z"/></g><g stroke-linejoin="miter" stroke-opacity="1.0" fill-opacity="1.0" stroke="rgb(0,0,0)" stroke-width="0.0" fill="rgb(0,128,0)" stroke-linecap="butt" stroke-miterlimit="10.0"><path d="M 171.5091,18.6735 l -1.2105,-1.3471 l -1.3471,1.2105 l 1.2105,1.3471 Z"/></g><g stroke-linejoin="miter" stroke-opacity="1.0" fill-opacity="1.0" stroke="rgb(0,0,0)" stroke-width="0.0" fill="rgb(0,128,0)" stroke-linecap="butt" stroke-miterlimit="10.0"><path d="M 173.5777,16.9980 l -1.1261,-1.4184 l -1.4184,1.1261 l 1.1261,1.4184 Z"/></g><g stroke-linejoin="miter" stroke-opacity="1.0" fill-opacity="1.0" stroke="rgb(0,0,0)" stroke-width="0.0" fill="rgb(0,128,0)" stroke-linecap="butt" stroke-miterlimit="10.0"><path d="M 175.7445,15.4518 l -1.0375,-1.4844 l -1.4844,1.0375 l 1.0375,1.4844 Z"/></g><g stroke-linejoin="miter" stroke-opacity="1.0" fill-opacity="1.0" stroke="rgb(0,0,0)" stroke-width="0.0" fill="rgb(0,128,0)" stroke-linecap="butt" stroke-miterlimit="10.0"><path d="M 178.0016,14.0406 l -0.9451,-1.5449 l -1.5449,0.9451 l 0.9451,1.5449 Z"/></g><g stroke-linejoin="miter" stroke-opacity="1.0" fill-opacity="1.0" stroke="rgb(0,0,0)" stroke-width="0.0" fill="rgb(0,128,0)" stroke-linecap="butt" stroke-miterlimit="10.0"><path d="M 180.3406,12.7696 l -0.8492,-1.5997 l -1.5997,0.8492 l 0.8492,1.5997 Z"/></g><g stroke-linejoin="miter" stroke-opacity="1.0" fill-opacity="1.0" stroke="rgb(0,0,0)" stroke-width="0.0" fill="rgb(0,128,0)" stroke-linecap="butt" stroke-miterlimit="10.0"><path d="M 182.7527,11.6436 l -0.7501,-1.6485 l -1.6485,0.7501 l 0.7501,1.6485 Z"/></g><g stroke-linejoin="miter" stroke-opacity="1.0" fill-opacity="1.0" stroke="rgb(0,0,0)" stroke-width="0.0" fill="rgb(0,128,0)" stroke-linecap="butt" stroke-miterlimit="10.0"><path d="M 185.2289,10.6667 l -0.6482,-1.6911 l -1.6911,0.6482 l 0.6482,1.6911 Z"/></g><g stroke-linejoin="miter" stroke-opacity="1.0" fill-opacity="1.0" stroke="rgb(0,0,0)" stroke-width="0.0" fill="rgb(0,128,0)" stroke-linecap="butt" stroke-miterlimit="10.0"><path d="M 187.7601,9.8426 l -0.5439,-1.7275 l -1.7275,0.5439 l 0.5439,1.7275 Z"/></g><g stroke-linejoin="miter" stroke-opacity="1.0" fill-opacity="1.0" stroke="rgb(0,0,0)" stroke-width="0.0" fill="rgb(0,128,0)" stroke-linecap="butt" stroke-miterlimit="10.0"><path d="M 190.3368,9.1743 l -0.4375,-1.7574 l -1.7574,0.4375 l 0.4375,1.7574 Z"/></g><g stroke-linejoin="miter" stroke-opacity="1.0" fill-opacity="1.0" stroke="rgb(0,0,0)" stroke-width="0.0" fill="rgb(0,128,0)" stroke-linecap="butt" stroke-miterlimit="10.0"><path d="M 192.9495,8.6644 l -0.3296,-1.7808 l -1.7808,0.3296 l 0.3296,1.7808 Z"/></g><g stroke-linejoin="miter" stroke-opacity="1.0" fill-opacity="1.0" stroke="rgb(0,0,0)" stroke-width="0.0" fill="rgb(0,128,0)" stroke-linecap="butt" stroke-miterlimit="10.0"><path d="M 195.5884,8.3147 l -0.2204,-1.7976 l -1.7976,0.2204 l 0.2204,1.7976 Z"/></g><g stroke-linejoin="miter" stroke-opacity="1.0" fill-opacity="1.0" stroke="rgb(0,0,0)" stroke-width="0.0" fill="rgb(0,128,0)" stroke-linecap="butt" stroke-miterlimit="10.0"><path d="M 198.2437,8.1265 l -0.1104,-1.8077 l -1.8077,0.1104 l 0.1104,1.8077 Z"/></g><g stroke-linejoin="miter" stroke-opacity="1.0" fill-opacity="1.0" stroke="rgb(0,0,0)" stroke-width="0.0" fill="rgb(0,128,0)" stroke-linecap="butt" stroke-miterlimit="10.0"><path d="M 200.9055,8.1005 l -0.0000,-1.8111 h -1.8111 l -0.0000,1.8111 Z"/></g><g stroke-linejoin="miter" stroke-opacity="1.0" fill-opacity="1.0" stroke="rgb(0,0,0)" stroke-width="0.0" fill="rgb(89,89,255)" stroke-linecap="butt" stroke-miterlimit="10.0"><path d="M 95.8249,41.2768 l -32.1886,-23.3864 l -32.1886,23.3864 l 12.2949,37.8399 l 39.7872,-0.0000 Z"/></g><g stroke-linejoin="miter" stroke-opacity="1.0" fill-opacity="1.0" stroke="rgb(0,0,0)" stroke-width="0.8072311333760342" fill="rgb(0,0,0)" stroke-linecap="butt" stroke-miterlimit="10.0"><path d="M 99.9232,53.8901 c 6.9661,-2.2634 10.7784,-9.7455 8.5150 -16.7116c -2.2634,-6.9661 -9.7455,-10.7784 -16.7116 -8.5150c -6.9661,2.2634 -10.7784,9.7455 -8.5150 16.7116c 2.2634,6.9661 9.7455,10.7784 16.7116 8.5150Z"/></g><g stroke-linejoin="miter" stroke-opacity="1.0" fill-opacity="1.0" stroke="rgb(0,0,0)" stroke-width="0.8072311333760342" fill="rgb(0,0,0)" stroke-linecap="butt" stroke-miterlimit="10.0"><path d="M 72.8005,86.9121 c 4.3053,5.9257 12.5992,7.2394 18.5250 2.9341c 5.9257,-4.3053 7.2394,-12.5992 2.9341 -18.5250c -4.3053,-5.9257 -12.5992,-7.2394 -18.5250 -2.9341c -5.9257,4.3053 -7.2394,12.5992 -2.9341 18.5250Z"/></g><g stroke-linejoin="miter" stroke-opacity="1.0" fill-opacity="1.0" stroke="rgb(0,0,0)" stroke-width="0.8072311333760342" fill="rgb(0,0,0)" stroke-linecap="butt" stroke-miterlimit="10.0"><path d="M 33.0132,71.3212 c -4.3053,5.9257 -2.9917,14.2197 2.9341 18.5250c 5.9257,4.3053 14.2197,2.9917 18.5250 -2.9341c 4.3053,-5.9257 2.9917,-14.2197 -2.9341 -18.5250c -5.9257,-4.3053 -14.2197,-2.9917 -18.5250 2.9341Z"/></g><g stroke-linejoin="miter" stroke-opacity="1.0" fill-opacity="1.0" stroke="rgb(0,0,0)" stroke-width="0.8072311333760342" fill="rgb(0,0,0)" stroke-linecap="butt" stroke-miterlimit="10.0"><path d="M 35.5461,28.6635 c -6.9661,-2.2634 -14.4482,1.5489 -16.7116 8.5150c -2.2634,6.9661 1.5489,14.4482 8.5150 16.7116c 6.9661,2.2634 14.4482,-1.5489 16.7116 -8.5150c 2.2634,-6.9661 -1.5489,-14.4482 -8.5150 -16.7116Z"/></g><g stroke-linejoin="miter" stroke-opacity="1.0" fill-opacity="1.0" stroke="rgb(0,0,0)" stroke-width="0.8072311333760342" fill="rgb(0,0,0)" stroke-linecap="butt" stroke-miterlimit="10.0"><path d="M 76.8988,17.8904 c 0.0000,-7.3246 -5.9378,-13.2624 -13.2624 -13.2624c -7.3246,-0.0000 -13.2624,5.9378 -13.2624 13.2624c -0.0000,7.3246 5.9378,13.2624 13.2624 13.2624c 7.3246,0.0000 13.2624,-5.9378 13.2624 -13.2624Z"/></g></svg>