<svg xmlns="http://www.w3.org/2000/svg" height="300.0000" stroke-opacity="1" viewBox="0 0 200 300" font-size="1" width="200.0000" xmlns:xlink="http://www.w3.org/1999/xlink" stroke="rgb(0,0,0)" version="1.1"><defs></defs><g stroke-linejoin="miter" stroke-opacity="1.0" fill-opacity="0.0" stroke="rgb(0,0,255)" stroke-width="0.5" fill="rgb(0,0,0)" stroke-linecap="butt" stroke-miterlimit="10.0"><path d="M 183.3333,233.3333 v -166.6667 "/></g><g stroke-linejoin="miter" stroke-opacity="1.0" fill-opacity="0.0" stroke="rgb(0,0,255)" stroke-width="0.5" fill="rgb(0,0,0)" stroke-linecap="butt" stroke-miterlimit="10.0"><path d="M 150.0000,233.3333 v -166.6667 "/></g><g stroke-linejoin="miter" stroke-opacity="1.0" fill-opacity="0.0" stroke="rgb(0,0,255)" stroke-width="0.5" fill="rgb(0,0,0)" stroke-linecap="butt" stroke-miterlimit="10.0"><path d="M 116.6667,233.3333 v -166.6667 "/></g><g stroke-linejoin="miter" stroke-opacity="1.0" fill-opacity="0.0" stroke="rgb(0,0,255)" stroke-width="0.5" fill="rgb(0,0,0)" stroke-linecap="butt" stroke-miterlimit="10.0"><path d="M 83.3333,233.3333 v -166.6667 "/></g><g stroke-linejoin="miter" stroke-opacity="1.0" fill-opacity="0.0" stroke="rgb(0,0,255)" stroke-width="0.5" fill="rgb(0,0,0)" stroke-linecap="butt" stroke-miterlimit="10.0"><path d="M 50.0000,233.3333 v -166.6667 "/></g><g stroke-linejoin="miter" stroke-opacity="1.0" fill-opacity="0.0" stroke="rgb(0,0,255)" stroke-width="0.5" fill="rgb(0,0,0)" stroke-linecap="butt" stroke-miterlimit="10.0"><path d="M 16.6667,233.3333 v -166.6667 "/></g><g stroke-linejoin="miter" stroke-opacity="1.0" fill-opacity="0.0" stroke="rgb(255,0,0)" stroke-width="0.5" fill="rgb(0,0,0)" stroke-linecap="butt" stroke-miterlimit="10.0"><path d="M 16.6667,66.6667 h 166.6667 "/></g><g stroke-linejoin="miter" stroke-opacity="1.0" fill-opacity="0.0" stroke="rgb(255,0,0)" stroke-width="0.5" fill="rgb(0,0,0)" stroke-linecap="butt" stroke-miterlimit="10.0"><path d="M 16.6667,100.0000 h 166.6667 "/></g><g stroke-linejoin="miter" stroke-opacity="1.0" fill-opacity="0.0" stroke="rgb(255,0,0)" stroke-width="0.5" fill="rgb(0,0,0)" stroke-linecap="butt" stroke-miterlimit="10.0"><path d="M 16.6667,133.3333 h 166.6667 "/></g><g stroke-linejoin="miter" stroke-opacity="1.0" fill-opacity="0.0" stroke="rgb(255,0,0)" stroke-width="0.5" fill="rgb(0,0,0)" stroke-linecap="butt" stroke-miterlimit="10.0"><path d="M 16.6667,166.6667 h 166.6667 "/></g><g stroke-linejoin="miter" stroke-opacity="1.0" fill-opacity="0.0" stroke="rgb(255,0,0)" stroke-width="0.5" fill="rgb(0,0,0)" stroke-linecap="butt" stroke-miterlimit="10.0"><path d="M 16.6667,200.0000 h 166.6667 "/></g><g stroke-linejoin="miter" stroke-opacity="1.0" fill-opacity="0.0" stroke="rgb(255,0,0)" stroke-width="0.5" fill="rgb(0,0,0)" stroke-linecap="butt" stroke-miterlimit="10.0"><path d="M 16.6667,233.3333 h 166.6667 "/></g><g stroke-linejoin="miter" stroke-opacity="1.0" fill-opacity="1.0" opacity="0.5" stroke="rgb(0,0,0)" stroke-width="0.0" fill="rgb(255,0,0)" stroke-linecap="butt" stroke-miterlimit="10.0"><path d="M 19.1667,233.3333 c 0.0000,-1.3807 -1.1193,-2.5000 -2.5000 -2.5000c -1.3807,-0.0000 -2.5000,1.1193 -2.5000 2.5000c -0.0000,1.3807 1.1193,2.5000 2.5000 2.5000c 1.3807,0.0000 2.5000,-1.1193 2.5000 -2.5000Z"/></g><g stroke-linejoin="miter" stroke-opacity="1.0" fill-opacity="1.0" opacity="0.5" stroke="rgb(0,0,0)" stroke-width="0.0" fill="rgb(255,0,0)" stroke-linecap="butt" stroke-miterlimit="10.0"><path d="M 19.1667,200.0000 c 0.0000,-1.3807 -1.1193,-2.5000 -2.5000 -2.5000c -1.3807,-0.0000 -2.5000,1.1193 -2.5000 2.5000c -0.0000,1.3807 1.1193,2.5000 2.5000 2.5000c 1.3807,0.0000 2.5000,-1.1193 2.5000 -2.5000Z"/></g><g stroke-linejoin="miter" stroke-opacity="1.0" fill-opacity="1.0" opacity="0.5" stroke="rgb(0,0,0)" stroke-width="0.0" fill="rgb(255,0,0)" stroke-linecap="butt" stroke-miterlimit="10.0"><path d="M 19.1667,166.6667 c 0.0000,-1.3807 -1.1193,-2.5000 -2.5000 -2.5000c -1.3807,-0.0000 -2.5000,1.1193 -2.5000 2.5000c -0.0000,1.3807 1.1193,2.5000 2.5000 2.5000c 1.3807,0.0000 2.5000,-1.1193 2.5000 -2.5000Z"/></g><g stroke-linejoin="miter" stroke-opacity="1.0" fill-opacity="1.0" opacity="0.5" stroke="rgb(0,0,0)" stroke-width="0.0" fill="rgb(255,0,0)" stroke-linecap="butt" stroke-miterlimit="10.0"><path d="M 19.1667,133.3333 c 0.0000,-1.3807 -1.1193,-2.5000 -2.5000 -2.5000c -1.3807,-0.0000 -2.5000,1.1193 -2.5000 2.5000c -0.0000,1.3807 1.1193,2.5000 2.5000 2.5000c 1.3807,0.0000 2.5000,-1.1193 2.5000 -2.5000Z"/></g><g stroke-linejoin="miter" stroke-opacity="1.0" fill-opacity="1.0" opacity="0.5" stroke="rgb(0,0,0)" stroke-width="0.0" fill="rgb(255,0,0)" stroke-linecap="butt" stroke-miterlimit="10.0"><path d="M 19.1667,100.0000 c 0.0000,-1.3807 -1.1193,-2.5000 -2.5000 -2.5000c -1.3807,-0.0000 -2.5000,1.1193 -2.5000 2.5000c -0.0000,1.3807 1.1193,2.5000 2.5000 2.5000c 1.3807,0.0000 2.5000,-1.1193 2.5000 -2.5000Z"/></g><g stroke-linejoin="miter" stroke-opacity="1.0" fill-opacity="1.0" opacity="0.5" stroke="rgb(0,0,0)" stroke-width="0.0" fill="rgb(255,0,0)" stroke-linecap="butt" stroke-miterlimit="10.0"><path d="M 19.1667,66.6667 c 0.0000,-1.3807 -1.1193,-2.5000 -2.5000 -2.5000c -1.3807,-0.0000 -2.5000,1.1193 -2.5000 2.5000c -0.0000,1.3807 1.1193,2.5000 2.5000 2.5000c 1.3807,0.0000 2.5000,-1.1193 2.5000 -2.5000Z"/></g><g stroke-linejoin="miter" stroke-opacity="1.0" fill-opacity="1.0" opacity="0.5" stroke="rgb(0,0,0)" stroke-width="0.0" fill="rgb(255,0,0)" stroke-linecap="butt" stroke-miterlimit="10.0"><path d="M 185.8333,66.6667 c 0.0000,-1.3807 -1.1193,-2.5000 -2.5000 -2.5000c -1.3807,-0.0000 -2.5000,1.1193 -2.5000 2.5000c -0.0000,1.3807 1.1193,2.5000 2.5000 2.5000c 1.3807,0.0000 2.5000,-1.1193 2.5000 -2.5000Z"/></g><g stroke-linejoin="miter" stroke-opacity="1.0" fill-opacity="1.0" opacity="0.5" stroke="rgb(0,0,0)" stroke-width="0.0" fill="rgb(255,0,0)" stroke-linecap="butt" stroke-miterlimit="10.0"><path d="M 152.5000,66.6667 c 0.0000,-1.3807 -1.1193,-2.5000 -2.5000 -2.5000c -1.3807,-0.0000 -2.5000,1.1193 -2.5000 2.5000c -0.0000,1.3807 1.1193,2.5000 2.5000 2.5000c 1.3807,0.0000 2.5000,-1.1193 2.5000 -2.5000Z"/></g><g stroke-linejoin="miter" stroke-opacity="1.0" fill-opacity="1.0" opacity="0.5" stroke="rgb(0,0,0)" stroke-width="0.0" fill="rgb(255,0,0)" stroke-linecap="butt" stroke-miterlimit="10.0"><path d="M 119.1667,66.6667 c 0.0000,-1.3807 -1.1193,-2.5000 -2.5000 -2.5000c -1.3807,-0.0000 -2.5000,1.1193 -2.5000 2.5000c -0.0000,1.3807 1.1193,2.5000 2.5000 2.5000c 1.3807,0.0000 2.5000,-1.1193 2.5000 -2.5000Z"/></g><g stroke-linejoin="miter" stroke-opacity="1.0" fill-opacity="1.0" opacity="0.5" stroke="rgb(0,0,0)" stroke-width="0.0" fill="rgb(255,0,0)" stroke-linecap="butt" stroke-miterlimit="10.0"><path d="M 85.8333,66.6667 c 0.0000,-1.3807 -1.1193,-2.5000 -2.5000 -2.5000c -1.3807,-0.0000 -2.5000,1.1193 -2.5000 2.5000c -0.0000,1.3807 1.1193,2.5000 2.5000 2.5000c 1.3807,0.0000 2.5000,-1.1193 2.5000 -2.5000Z"/></g><g stroke-linejoin="miter" stroke-opacity="1.0" fill-opacity="1.0" opacity="0.5" stroke="rgb(0,0,0)" stroke-width="0.0" fill="rgb(255,0,0)" stroke-linecap="butt" stroke-miterlimit="10.0"><path d="M 52.5000,66.6667 c 0.0000,-1.3807 -1.1193,-2.5000 -2.5000 -2.5000c -1.3807,-0.0000 -2.5000,1.1193 -2.5000 2.5000c -0.0000,1.3807 1.1193,2.5000 2.5000 2.5000c 1.3807,0.0000 2.5000,-1.1193 2.5000 -2.5000Z"/></g><g stroke-linejoin="miter" stroke-opacity="1.0" fill-opacity="1.0" opacity="0.5" stroke="rgb(0,0,0)" stroke-width="0.0" fill="rgb(255,0,0)" stroke-linecap="butt" stroke-miterlimit="10.0"><path d="M 19.1667,66.6667 c 0.0000,-1.3807 -1.1193,-2.5000 -2.5000 -2.5000c -1.3807,-0.0000 -2.5000,1.1193 -2.5000 2.5000c -0.0000,1.3807 1.1193,2.5000 2.5000 2.5000c 1.3807,0.0000 2.5000,-1.1193 2.5000 -2.5000Z"/></g><g stroke-linejoin="miter" stroke-opacity="1.0" fill-opacity="1.0" opacity="0.5" stroke="rgb(0,0,0)" stroke-width="0.0" fill="rgb(255,0,0)" stroke-linecap="butt" stroke-miterlimit="10.0"><path d="M 185.8333,233.3333 c 0.0000,-1.3807 -1.1193,-2.5000 -2.5000 -2.5000c -1.3807,-0.0000 -2.5000,1.1193 -2.5000 2.5000c -0.0000,1.3807 1.1193,2.5000 2.5000 2.5000c 1.3807,0.0000 2.5000,-1.1193 2.5000 -2.5000Z"/></g><g stroke-linejoin="miter" stroke-opacity="1.0" fill-opacity="1.0" opacity="0.5" stroke="rgb(0,0,0)" stroke-width="0.0" fill="rgb(255,0,0)" stroke-linecap="butt" stroke-miterlimit="10.0"><path d="M 185.8333,200.0000 c 0.0000,-1.3807 -1.1193,-2.5000 -2.5000 -2.5000c -1.3807,-0.0000 -2.5000,1.1193 -2.5000 2.5000c -0.0000,1.3807 1.1193,2.5000 2.5000 2.5000c 1.3807,0.0000 2.5000,-1.1193 2.5000 -2.5000Z"/></g><g stroke-linejoin="miter" stroke-opacity="1.0" fill-opacity="1.0" opacity="0.5" stroke="rgb(0,0,0)" stroke-width="0.0" fill="rgb(255,0,0)" stroke-linecap="butt" stroke-miterlimit="10.0"><path d="M 185.8333,166.6667 c 0.0000,-1.3807 -1.1193,-2.5000 -2.5000 -2.5000c -1.3807,-0.0000 -2.5000,1.1193 -2.5000 2.5000c -0.0000,1.3807 1.1193,2.5000 2.5000 2.5000c 1.3807,0.0000 2.5000,-1.1193 2.5000 -2.5000Z"/></g><g stroke-linejoin="miter" stroke-opacity="1.0" fill-opacity="1.0" opacity="0.5" stroke="rgb(0,0,0)" stroke-width="0.0" fill="rgb(255,0,0)" stroke-linecap="butt" stroke-miterlimit="10.0"><path d="M 185.8333,133.3333 c 0.0000,-1.3807 -1.1193,-2.5000 -2.5000 -2.5000c -1.3807,-0.0000 -2.5000,1.1193 -2.5000 2.5000c -0.0000,1.3807 1.1193,2.5000 2.5000 2.5000c 1.3807,0.0000 2.5000,-1.1193 2.5000 -2.5000Z"/></g><g stroke-linejoin="miter" stroke-opacity="1.0" fill-opacity="1.0" opacity="0.5" stroke="rgb(0,0,0)" stroke-width="0.0" fill="rgb(255,0,0)" stroke-linecap="butt" stroke-miterlimit="10.0"><path d="M 185.8333,100.0000 c 0.0000,-1.3807 -1.1193,-2.5000 -2.5000 -2.5000c -1.3807,-0.0000 -2.5000,1.1193 -2.5000 2.5000c -0.0000,1.3807 1.1193,2.5000 2.5000 2.5000c 1.3807,0.0000 2.5000,-1.1193 2.5000 -2.5000Z"/></g><g stroke-linejoin="miter" stroke-opacity="1.0" fill-opacity="1.0" opacity="0.5" stroke="rgb(0,0,0)" stroke-width="0.0" fill="rgb(255,0,0)" stroke-linecap="butt" stroke-miterlimit="10.0"><path d="M 185.8333,66.6667 c 0.0000,-1.3807 -1.1193,-2.5000 -2.5000 -2.5000c -1.3807,-0.0000 -2.5000,1.1193 -2.5000 2.5000c -0.0000,1.3807 1.1193,2.5000 2.5000 2.5000c 1.3807,0.0000 2.5000,-1.1193 2.5000 -2.5000Z"/></g><g stroke-linejoin="miter" stroke-opacity="1.0" fill-opacity="1.0" opacity="0.5" stroke="rgb(0,0,0)" stroke-width="0.0" fill="rgb(255,0,0)" stroke-linecap="butt" stroke-miterlimit="10.0"><path d="M 185.8333,233.3333 c 0.0000,-1.3807 -1.1193,-2.5000 -2.5000 -2.5000c -1.3807,-0.0000 -2.5000,1.1193 -2.5000 2.5000c -0.0000,1.3807 1.1193,2.5000 2.5000 2.5000c 1.3807,0.0000 2.5000,-1.1193 2.5000 -2.5000Z"/></g><g stroke-linejoin="miter" stroke-opacity="1.0" fill-opacity="1.0" opacity="0.5" stroke="rgb(0,0,0)" stroke-width="0.0" fill="rgb(255,0,0)" stroke-linecap="butt" stroke-miterlimit="10.0"><path d="M 152.5000,233.3333 c 0.0000,-1.3807 -1.1193,-2.5000 -2.5000 -2.5000c -1.3807,-0.0000 -2.5000,1.1193 -2.5000 2.5000c -0.0000,1.3807 1.1193,2.5000 2.5000 2.5000c 1.3807,0.0000 2.5000,-1.1193 2.5000 -2.5000Z"/></g><g stroke-linejoin="miter" stroke-opacity="1.0" fill-opacity="1.0" opacity="0.5" stroke="rgb(0,0,0)" stroke-width="0.0" fill="rgb(255,0,0)" stroke-linecap="butt" stroke-miterlimit="10.0"><path d="M 119.1667,233.3333 c 0.0000,-1.3807 -1.1193,-2.5000 -2.5000 -2.5000c -1.3807,-0.0000 -2.5000,1.1193 -2.5000 2.5000c -0.0000,1.3807 1.1193,2.5000 2.5000 2.5000c 1.3807,0.0000 2.5000,-1.1193 2.5000 -2.5000Z"/></g><g stroke-linejoin="miter" stroke-opacity="1.0" fill-opacity="1.0" opacity="0.5" stroke="rgb(0,0,0)" stroke-width="0.0" fill="rgb(255,0,0)" stroke-linecap="butt" stroke-miterlimit="10.0"><path d="M 85.8333,233.3333 c 0.0000,-1.3807 -1.1193,-2.5000 -2.5000 -2.5000c -1.3807,-0.0000 -2.5000,1.1193 -2.5000 2.5000c -0.0000,1.3807 1.1193,2.5000 2.5000 2.5000c 1.3807,0.0000 2.5000,-1.1193 2.5000 -2.5000Z"/></g><g stroke-linejoin="miter" stroke-opacity="1.0" fill-opacity="1.0" opacity="0.5" stroke="rgb(0,0,0)" stroke-width="0.0" fill="rgb(255,0,0)" stroke-linecap="butt" stroke-miterlimit="10.0"><path d="M 52.5000,233.3333 c 0.0000,-1.3807 -1.1193,-2.5000 -2.5000 -2.5000c -1.3807,-0.0000 -2.5000,1.1193 -2.5000 2.5000c -0.0000,1.3807 1.1193,2.5000 2.5000 2.5000c 1.3807,0.0000 2.5000,-1.1193 2.5000 -2.5000Z"/></g><g stroke-linejoin="miter" stroke-opacity="1.0" fill-opacity="1.0" opacity="0.5" stroke="rgb(0,0,0)" stroke-width="0.0" fill="rgb(255,0,0)" stroke-linecap="butt" stroke-miterlimit="10.0"><path d="M 19.1667,233.3333 c 0.0000,-1.3807 -1.1193,-2.5000 -2.5000 -2.5000c -1.3807,-0.0000 -2.5000,1.1193 -2.5000 2.5000c -0.0000,1.3807 1.1193,2.5000 2.5000 2.5000c 1.3807,0.0000 2.5000,-1.1193 2.5000 -2.5000Z"/></g><g stroke-linejoin="miter" stroke-opacity="1.0" fill-opacity="1.0" opacity="0.5" stroke="rgb(0,0,0)" stroke-width="0.0" fill="rgb(0,0,255)" stroke-linecap="butt" stroke-miterlimit="10.0"><path d="M 152.5000,200.0000 c 0.0000,-1.3807 -1.1193,-2.5000 -2.5000 -2.5000c -1.3807,-0.0000 -2.5000,1.1193 -2.5000 2.5000c -0.0000,1.3807 1.1193,2.5000 2.5000 2.5000c 1.3807,0.0000 2.5000,-1.1193 2.5000 -2.5000Z"/></g><g stroke-linejoin="miter" stroke-opacity="1.0" fill-opacity="1.0" opacity="0.5" stroke="rgb(0,0,0)" stroke-width="0.0" fill="rgb(0,0,255)" stroke-linecap="butt" stroke-miterlimit="10.0"><path d="M 152.5000,166.6667 c 0.0000,-1.3807 -1.1193,-2.5000 -2.5000 -2.5000c -1.3807,-0.0000 -2.5000,1.1193 -2.5000 2.5000c -0.0000,1.3807 1.1193,2.5000 2.5000 2.5000c 1.3807,0.0000 2.5000,-1.1193 2.5000 -2.5000Z"/></g><g stroke-linejoin="miter" stroke-opacity="1.0" fill-opacity="1.0" opacity="0.5" stroke="rgb(0,0,0)" stroke-width="0.0" fill="rgb(0,0,255)" stroke-linecap="butt" stroke-miterlimit="10.0"><path d="M 152.5000,133.3333 c 0.0000,-1.3807 -1.1193,-2.5000 -2.5000 -2.5000c -1.3807,-0.0000 -2.5000,1.1193 -2.5000 2.5000c -0.0000,1.3807 1.1193,2.5000 2.5000 2.5000c 1.3807,0.0000 2.5000,-1.1193 2.5000 -2.5000Z"/></g><g stroke-linejoin="miter" stroke-opacity="1.0" fill-opacity="1.0" opacity="0.5" stroke="rgb(0,0,0)" stroke-width="0.0" fill="rgb(0,0,255)" stroke-linecap="butt" stroke-miterlimit="10.0"><path d="M 152.5000,100.0000 c 0.0000,-1.3807 -1.1193,-2.5000 -2.5000 -2.5000c -1.3807,-0.0000 -2.5000,1.1193 -2.5000 2.5000c -0.0000,1.3807 1.1193,2.5000 2.5000 2.5000c 1.3807,0.0000 2.5000,-1.1193 2.5000 -2.5000Z"/></g><g stroke-linejoin="miter" stroke-opacity="1.0" fill-opacity="1.0" opacity="0.5" stroke="rgb(0,0,0)" stroke-width="0.0" fill="rgb(0,0,255)" stroke-linecap="butt" stroke-miterlimit="10.0"><path d="M 119.1667,200.0000 c 0.0000,-1.3807 -1.1193,-2.5000 -2.5000 -2.5000c -1.3807,-0.0000 -2.5000,1.1193 -2.5000 2.5000c -0.0000,1.3807 1.1193,2.5000 2.5000 2.5000c 1.3807,0.0000 2.5000,-1.1193 2.5000 -2.5000Z"/></g><g stroke-linejoin="miter" stroke-opacity="1.0" fill-opacity="1.0" opacity="0.5" stroke="rgb(0,0,0)" stroke-width="0.0" fill="rgb(0,0,255)" stroke-linecap="butt" stroke-miterlimit="10.0"><path d="M 119.1667,166.6667 c 0.0000,-1.3807 -1.1193,-2.5000 -2.5000 -2.5000c -1.3807,-0.0000 -2.5000,1.1193 -2.5000 2.5000c -0.0000,1.3807 1.1193,2.5000 2.5000 2.5000c 1.3807,0.0000 2.5000,-1.1193 2.5000 -2.5000Z"/></g><g stroke-linejoin="miter" stroke-opacity="1.0" fill-opacity="1.0" opacity="0.5" stroke="rgb(0,0,0)" stroke-width="0.0" fill="rgb(0,0,255)" stroke-linecap="butt" stroke-miterlimit="10.0"><path d="M 119.1667,133.3333 c 0.0000,-1.3807 -1.1193,-2.5000 -2.5000 -2.5000c -1.3807,-0.0000 -2.5000,1.1193 -2.5000 2.5000c -0.0000,1.3807 1.1193,2.5000 2.5000 2.5000c 1.3807,0.0000 2.5000,-1.1193 2.5000 -2.5000Z"/></g><g stroke-linejoin="miter" stroke-opacity="1.0" fill-opacity="1.0" opacity="0.5" stroke="rgb(0,0,0)" stroke-width="0.0" fill="rgb(0,0,255)" stroke-linecap="butt" stroke-miterlimit="10.0"><path d="M 119.1667,100.0000 c 0.0000,-1.3807 -1.1193,-2.5000 -2.5000 -2.5000c -1.3807,-0.0000 -2.5000,1.1193 -2.5000 2.5000c -0.0000,1.3807 1.1193,2.5000 2.5000 2.5000c 1.3807,0.0000 2.5000,-1.1193 2.5000 -2.5000Z"/></g><g stroke-linejoin="miter" stroke-opacity="1.0" fill-opacity="1.0" opacity="0.5" stroke="rgb(0,0,0)" stroke-width="0.0" fill="rgb(0,0,255)" stroke-linecap="butt" stroke-miterlimit="10.0"><path d="M 85.8333,200.0000 c 0.0000,-1.3807 -1.1193,-2.5000 -2.5000 -2.5000c -1.3807,-0.0000 -2.5000,1.1193 -2.5000 2.5000c -0.0000,1.3807 1.1193,2.5000 2.5000 2.5000c 1.3807,0.0000 2.5000,-1.1193 2.5000 -2.5000Z"/></g><g stroke-linejoin="miter" stroke-opacity="1.0" fill-opacity="1.0" opacity="0.5" stroke="rgb(0,0,0)" stroke-width="0.0" fill="rgb(0,0,255)" stroke-linecap="butt" stroke-miterlimit="10.0"><path d="M 85.8333,166.6667 c 0.0000,-1.3807 -1.1193,-2.5000 -2.5000 -2.5000c -1.3807,-0.0000 -2.5000,1.1193 -2.5000 2.5000c -0.0000,1.3807 1.1193,2.5000 2.5000 2.5000c 1.3807,0.0000 2.5000,-1.1193 2.5000 -2.5000Z"/></g><g stroke-linejoin="miter" stroke-opacity="1.0" fill-opacity="1.0" opacity="0.5" stroke="rgb(0,0,0)" stroke-width="0.0" fill="rgb(0,0,255)" stroke-linecap="butt" stroke-miterlimit="10.0"><path d="M 85.8333,133.3333 c 0.0000,-1.3807 -1.1193,-2.5000 -2.5000 -2.5000c -1.3807,-0.0000 -2.5000,1.1193 -2.5000 2.5000c -0.0000,1.3807 1.1193,2.5000 2.5000 2.5000c 1.3807,0.0000 2.5000,-1.1193 2.5000 -2.5000Z"/></g><g stroke-linejoin="miter" stroke-opacity="1.0" fill-opacity="1.0" opacity="0.5" stroke="rgb(0,0,0)" stroke-width="0.0" fill="rgb(0,0,255)" stroke-linecap="butt" stroke-miterlimit="10.0"><path d="M 85.8333,100.0000 c 0.0000,-1.3807 -1.1193,-2.5000 -2.5000 -2.5000c -1.3807,-0.0000 -2.5000,1.1193 -2.5000 2.5000c -0.0000,1.3807 1.1193,2.5000 2.5000 2.5000c 1.3807,0.0000 2.5000,-1.1193 2.5000 -2.5000Z"/></g><g stroke-linejoin="miter" stroke-opacity="1.0" fill-opacity="1.0" opacity="0.5" stroke="rgb(0,0,0)" stroke-width="0.0" fill="rgb(0,0,255)" stroke-linecap="butt" stroke-miterlimit="10.0"><path d="M 52.5000,200.0000 c 0.0000,-1.3807 -1.1193,-2.5000 -2.5000 -2.5000c -1.3807,-0.0000 -2.5000,1.1193 -2.5000 2.5000c -0.0000,1.3807 1.1193,2.5000 2.5000 2.5000c 1.3807,0.0000 2.5000,-1.1193 2.5000 -2.5000Z"/></g><g stroke-linejoin="miter" stroke-opacity="1.0" fill-opacity="1.0" opacity="0.5" stroke="rgb(0,0,0)" stroke-width="0.0" fill="rgb(0,0,255)" stroke-linecap="butt" stroke-miterlimit="10.0"><path d="M 52.5000,166.6667 c 0.0000,-1.3807 -1.1193,-2.5000 -2.5000 -2.5000c -1.3807,-0.0000 -2.5000,1.1193 -2.5000 2.5000c -0.0000,1.3807 1.1193,2.5000 2.5000 2.5000c 1.3807,0.0000 2.5000,-1.1193 2.5000 -2.5000Z"/></g><g stroke-linejoin="miter" stroke-opacity="1.0" fill-opacity="1.0" opacity="0.5" stroke="rgb(0,0,0)" stroke-width="0.0" fill="rgb(0,0,255)" stroke-linecap="butt" stroke-miterlimit="10.0"><path d="M 52.5000,133.3333 c 0.0000,-1.3807 -1.1193,-2.5000 -2.5000 -2.5000c -1.3807,-0.0000 -2.5000,1.1193 -2.5000 2.5000c -0.0000,1.3807 1.1193,2.5000 2.5000 2.5000c 1.3807,0.0000 2.5000,-1.1193 2.5000 -2.5000Z"/></g><g stroke-linejoin="miter" stroke-opacity="1.0" fill-opacity="1.0" opacity="0.5" stroke="rgb(0,0,0)" stroke-width="0.0" fill="rgb(0,0,255)" stroke-linecap="butt" stroke-miterlimit="10.0"><path d="M 52.5000,100.0000 c 0.0000,-1.3807 -1.1193,-2.5000 -2.5000 -2.5000c -1.3807,-0.0000 -2.5000,1.1193 -2.5000 2.5000c -0.0000,1.3807 1.1193,2.5000 2.5000 2.5000c 1.3807,0.0000 2.5000,-1.1193 2.5000 -2.5000Z"/></g><g stroke-linejoin="miter" stroke-opacity="1.0" fill-opacity="0.0" stroke="rgb(0,0,0)" stroke-width="0.7999999999999999" fill="rgb(0,0,0)" stroke-dashoffset="0.0" stroke-linecap="butt" stroke-miterlimit="10.0" stroke-dasharray="5.999999999999999,5.999999999999999"><path d="M 133.3333,83.3333 h -33.3333 "/></g><g stroke-linejoin="miter" stroke-opacity="1.0" fill-opacity="0.0" stroke="rgb(0,0,0)" stroke-width="0.7999999999999999" fill="rgb(0,0,0)" stroke-dashoffset="0.0" stroke-linecap="butt" stroke-miterlimit="10.0" stroke-dasharray="5.999999999999999,5.999999999999999"><path d="M 133.3333,50.0000 v 33.3333 "/></g><g stroke-linejoin="miter" stroke-opacity="1.0" fill-opacity="0.0" stroke="rgb(0,0,0)" stroke-width="0.7999999999999999" fill="rgb(0,0,0)" stroke-dashoffset="0.0" stroke-linecap="butt" stroke-miterlimit="10.0" stroke-dasharray="5.999999999999999,5.999999999999999"><path d="M 166.6667,50.0000 h -33.3333 "/></g><g stroke-linejoin="miter" stroke-opacity="1.0" fill-opacity="0.0" stroke="rgb(0,0,0)" stroke-width="0.7999999999999999" fill="rgb(0,0,0)" stroke-dashoffset="0.0" stroke-linecap="butt" stroke-miterlimit="10.0" stroke-dasharray="5.999999999999999,5.999999999999999"><path d="M 166.6667,83.3333 v -33.3333 "/></g><g stroke-linejoin="miter" stroke-opacity="1.0" fill-opacity="0.0" stroke="rgb(0,0,0)" stroke-width="0.7999999999999999" fill="rgb(0,0,0)" stroke-dashoffset="0.0" stroke-linecap="butt" stroke-miterlimit="10.0" stroke-dasharray="5.999999999999999,5.999999999999999"><path d="M 200.0000,83.3333 h -33.3333 "/></g><g stroke-linejoin="miter" stroke-opacity="1.0" fill-opacity="0.0" stroke="rgb(0,0,0)" stroke-width="0.7999999999999999" fill="rgb(0,0,0)" stroke-dashoffset="0.0" stroke-linecap="butt" stroke-miterlimit="10.0" stroke-dasharray="5.999999999999999,5.999999999999999"><path d="M 200.0000,116.6667 v -33.3333 "/></g><g stroke-linejoin="miter" stroke-opacity="1.0" fill-opacity="0.0" stroke="rgb(0,0,0)" stroke-width="0.7999999999999999" fill="rgb(0,0,0)" stroke-dashoffset="0.0" stroke-linecap="butt" stroke-miterlimit="10.0" stroke-dasharray="5.999999999999999,5.999999999999999"><path d="M 166.6667,116.6667 h 33.3333 "/></g><g stroke-linejoin="miter" stroke-opacity="1.0" fill-opacity="0.0" stroke="rgb(0,0,0)" stroke-width="0.7999999999999999" fill="rgb(0,0,0)" stroke-dashoffset="0.0" stroke-linecap="butt" stroke-miterlimit="10.0" stroke-dasharray="5.999999999999999,5.999999999999999"><path d="M 166.6667,150.0000 v -33.3333 "/></g><g stroke-linejoin="miter" stroke-opacity="1.0" fill-opacity="0.0" stroke="rgb(0,0,0)" stroke-width="0.7999999999999999" fill="rgb(0,0,0)" stroke-dashoffset="0.0" stroke-linecap="butt" stroke-miterlimit="10.0" stroke-dasharray="5.999999999999999,5.999999999999999"><path d="M 133.3333,150.0000 h 33.3333 "/></g><g stroke-linejoin="miter" stroke-opacity="1.0" fill-opacity="0.0" stroke="rgb(0,0,0)" stroke-width="0.7999999999999999" fill="rgb(0,0,0)" stroke-dashoffset="0.0" stroke-linecap="butt" stroke-miterlimit="10.0" stroke-dasharray="5.999999999999999,5.999999999999999"><path d="M 133.3333,116.6667 v 33.3333 "/></g><g stroke-linejoin="miter" stroke-opacity="1.0" fill-opacity="0.0" stroke="rgb(0,0,0)" stroke-width="0.7999999999999999" fill="rgb(0,0,0)" stroke-dashoffset="0.0" stroke-linecap="butt" stroke-miterlimit="10.0" stroke-dasharray="5.999999999999999,5.999999999999999"><path d="M 100.0000,116.6667 h 33.3333 "/></g><g stroke-linejoin="miter" stroke-opacity="1.0" fill-opacity="0.0" stroke="rgb(0,0,0)" stroke-width="0.7999999999999999" fill="rgb(0,0,0)" stroke-dashoffset="0.0" stroke-linecap="butt" stroke-miterlimit="10.0" stroke-dasharray="5.999999999999999,5.999999999999999"><path d="M 100.0000,83.3333 v 33.3333 "/></g><g stroke-linejoin="miter" stroke-opacity="1.0" fill-opacity="1.0" font-size="9.999999999999998px" stroke="rgb(0,0,0)" stroke-width="0.7999999999999999" fill="rgb(255,0,0)" stroke-linecap="butt" stroke-miterlimit="10.0"><text dominant-baseline="middle" transform="matrix(1.0000,0.0000,0.0000,1.0000,150.0000,71.6667)" stroke="none" text-anchor="middle">u_40</text></g><g stroke-linejoin="miter" stroke-opacity="1.0" fill-opacity="1.0" opacity="0.0" stroke="rgb(0,0,0)" stroke-width="0.0" fill="rgb(255,0,0)" stroke-linecap="butt" stroke-miterlimit="10.0"><path d="M 155.0000,66.6667 c 0.0000,-2.7614 -2.2386,-5.0000 -5.0000 -5.0000c -2.7614,-0.0000 -5.0000,2.2386 -5.0000 5.0000c -0.0000,2.7614 2.2386,5.0000 5.0000 5.0000c 2.7614,0.0000 5.0000,-2.2386 5.0000 -5.0000Z"/></g><g stroke-linejoin="miter" stroke-opacity="1.0" fill-opacity="1.0" font-size="9.999999999999998px" stroke="rgb(0,0,0)" stroke-width="0.7999999999999999" fill="rgb(255,0,0)" stroke-linecap="butt" stroke-miterlimit="10.0"><text dominant-baseline="middle" transform="matrix(1.0000,0.0000,0.0000,1.0000,183.3333,105.0000)" stroke="none" text-anchor="middle">u_51</text></g><g stroke-linejoin="miter" stroke-opacity="1.0" fill-opacity="1.0" opacity="0.0" stroke="rgb(0,0,0)" stroke-width="0.0" fill="rgb(255,0,0)" stroke-linecap="butt" stroke-miterlimit="10.0"><path d="M 188.3333,100.0000 c 0.0000,-2.7614 -2.2386,-5.0000 -5.0000 -5.0000c -2.7614,-0.0000 -5.0000,2.2386 -5.0000 5.0000c -0.0000,2.7614 2.2386,5.0000 5.0000 5.0000c 2.7614,0.0000 5.0000,-2.2386 5.0000 -5.0000Z"/></g><g stroke-linejoin="miter" stroke-opacity="1.0" fill-opacity="1.0" font-size="9.999999999999998px" stroke="rgb(0,0,0)" stroke-width="0.7999999999999999" fill="rgb(0,0,255)" stroke-linecap="butt" stroke-miterlimit="10.0"><text dominant-baseline="middle" transform="matrix(1.0000,0.0000,0.0000,1.0000,150.0000,105.0000)" stroke="none" text-anchor="middle">u_41</text></g><g stroke-linejoin="miter" stroke-opacity="1.0" fill-opacity="1.0" opacity="0.0" stroke="rgb(0,0,0)" stroke-width="0.0" fill="rgb(0,0,255)" stroke-linecap="butt" stroke-miterlimit="10.0"><path d="M 155.0000,100.0000 c 0.0000,-2.7614 -2.2386,-5.0000 -5.0000 -5.0000c -2.7614,-0.0000 -5.0000,2.2386 -5.0000 5.0000c -0.0000,2.7614 2.2386,5.0000 5.0000 5.0000c 2.7614,0.0000 5.0000,-2.2386 5.0000 -5.0000Z"/></g><g stroke-linejoin="miter" stroke-opacity="1.0" fill-opacity="1.0" font-size="9.999999999999998px" stroke="rgb(0,0,0)" stroke-width="0.7999999999999999" fill="rgb(0,0,255)" stroke-linecap="butt" stroke-miterlimit="10.0"><text dominant-baseline="middle" transform="matrix(1.0000,0.0000,0.0000,1.0000,116.6667,105.0000)" stroke="none" text-anchor="middle">u_31</text></g><g stroke-linejoin="miter" stroke-opacity="1.0" fill-opacity="1.0" opacity="0.0" stroke="rgb(0,0,0)" stroke-width="0.0" fill="rgb(0,0,255)" stroke-linecap="butt" stroke-miterlimit="10.0"><path d="M 121.6667,100.0000 c 0.0000,-2.7614 -2.2386,-5.0000 -5.0000 -5.0000c -2.7614,-0.0000 -5.0000,2.2386 -5.0000 5.0000c -0.0000,2.7614 2.2386,5.0000 5.0000 5.0000c 2.7614,0.0000 5.0000,-2.2386 5.0000 -5.0000Z"/></g><g stroke-linejoin="miter" stroke-opacity="1.0" fill-opacity="1.0" font-size="9.999999999999998px" stroke="rgb(0,0,0)" stroke-width="0.7999999999999999" fill="rgb(0,0,255)" stroke-linecap="butt" stroke-miterlimit="10.0"><text dominant-baseline="middle" transform="matrix(1.0000,0.0000,0.0000,1.0000,150.0000,138.3333)" stroke="none" text-anchor="middle">u_42</text></g><g stroke-linejoin="miter" stroke-opacity="1.0" fill-opacity="1.0" opacity="0.0" stroke="rgb(0,0,0)" stroke-width="0.0" fill="rgb(0,0,255)" stroke-linecap="butt" stroke-miterlimit="10.0"><path d="M 155.0000,133.3333 c 0.0000,-2.7614 -2.2386,-5.0000 -5.0000 -5.0000c -2.7614,-0.0000 -5.0000,2.2386 -5.0000 5.0000c -0.0000,2.7614 2.2386,5.0000 5.0000 5.0000c 2.7614,0.0000 5.0000,-2.2386 5.0000 -5.0000Z"/></g></svg>