<?xml version="1.0" encoding="UTF-8"?>
<!DOCTYPE svg PUBLIC "-//W3C//DTD SVG 1.1//EN"
    "http://www.w3.org/Graphics/SVG/1.1/DTD/svg11.dtd"><svg xmlns="http://www.w3.org/2000/svg" height="234.69387755102034" stroke-opacity="1" viewBox="0 0 400 235" font-size="1" width="400.0" xmlns:xlink="http://www.w3.org/1999/xlink" stroke="rgb(0,0,0)" version="1.1"><defs></defs><defs></defs><g stroke-linejoin="miter" stroke-opacity="1.0" fill-opacity="0.0" stroke="rgb(0,0,0)" stroke-width="1.2255777479729837" fill="rgb(0,0,0)" stroke-linecap="butt" stroke-miterlimit="10.0"><path d="M 257.1428571428572,142.85714285714278 l -4.531522549490435e-15,-10.204081632653054 l -10.204081632653052,3.398641912117826e-15 v 10.204081632653052 l -10.204081632653052,3.398641912117826e-15 l -5.664403186863043e-16,10.204081632653054 l 10.204081632653054,3.398641912117826e-15 l 1.699320956058913e-15,10.204081632653054 l -10.204081632653052,3.398641912117826e-15 v 10.204081632653054 l 10.204081632653054,5.664403186863043e-16 l 5.097962868176739e-15,-10.204081632653054 l 10.204081632653054,2.8322015934315215e-15 v 10.204081632653054 l 10.20408163265305,3.398641912117826e-15 l 1.699320956058913e-15,10.204081632653054 l -10.204081632653052,3.398641912117826e-15 l 1.699320956058913e-15,10.204081632653054 l 10.204081632653054,1.699320956058913e-15 l 5.097962868176739e-15,-10.204081632653054 l 10.204081632653054,3.398641912117826e-15 l 5.097962868176739e-15,-10.204081632653054 l -10.204081632653054,-9.06304509898087e-15 l 3.398641912117826e-15,-10.204081632653054 l 10.204081632653054,3.398641912117826e-15 v 10.204081632653054 l 10.204081632653054,1.699320956058913e-15 l 6.230843505549348e-15,-10.204081632653054 l 10.204081632653054,3.398641912117826e-15 v 10.204081632653054 l 10.204081632653054,3.398641912117826e-15 l 1.699320956058913e-15,10.204081632653054 l -10.204081632653054,2.8322015934315215e-15 l -5.664403186863043e-16,10.204081632653054 l 10.204081632653054,2.8322015934315215e-15 l 6.230843505549348e-15,-10.204081632653054 l 10.204081632653056,2.8322015934315215e-15 l 7.363724142921956e-15,-10.204081632653054 l -10.204081632653056,-9.629485417667174e-15 l 5.097962868176739e-15,-10.204081632653056 l 10.204081632653056,2.8322015934315215e-15 l 5.664403186863043e-15,-10.204081632653056 l -10.204081632653054,-7.363724142921956e-15 l -1.2461687011098696e-14,10.204081632653054 l -10.204081632653054,-9.06304509898087e-15 l 5.664403186863043e-15,-10.204081632653056 l -10.204081632653054,-9.06304509898087e-15 l 5.097962868176739e-15,-10.204081632653056 l 10.204081632653054,2.8322015934315215e-15 l 1.1328806373726087e-15,10.204081632653054 l 10.204081632653054,1.699320956058913e-15 l 6.230843505549348e-15,-10.204081632653052 l 10.204081632653054,3.398641912117826e-15 l 6.230843505549348e-15,-10.204081632653054 l -10.204081632653054,-9.06304509898087e-15 l 4.531522549490435e-15,-10.204081632653054 l 10.204081632653054,3.398641912117826e-15 v 10.204081632653054 l 10.204081632653054,1.699320956058913e-15 l 6.230843505549348e-15,-10.204081632653054 l 10.204081632653054,4.531522549490435e-15 v 10.204081632653054 l 10.204081632653054,3.398641912117826e-15 l 1.1328806373726087e-15,10.204081632653054 l -10.204081632653054,2.8322015934315215e-15 l 6.797283824235652e-15,10.204081632653047 l 10.204081632653049,-5.097962868176739e-15 l -5.664403186863043e-16,-10.204081632653045 l 10.204081632653047,-3.965082230804131e-15 l 1.1328806373726087e-15,-10.204081632653047 l -10.204081632653047,-2.2657612747452174e-15 l -2.2657612747452174e-15,-10.204081632653047 l 10.204081632653047,-3.965082230804131e-15 l -1.1328806373726087e-15,-10.204081632653047 l -10.204081632653047,-1.1328806373726087e-15 l -4.531522549490435e-15,10.204081632653047 l -10.204081632653047,-2.2657612747452174e-15 l -1.1328806373726087e-15,-10.204081632653047 l -10.204081632653043,-2.2657612747452174e-15 l -2.2657612747452174e-15,-10.204081632653047 l 10.204081632653049,-5.097962868176739e-15 l -1.699320956058913e-15,-10.204081632653047 l -10.204081632653049,-5.664403186863043e-16 l -4.531522549490435e-15,10.204081632653047 l -10.204081632653047,-1.699320956058913e-15 l -4.531522549490435e-15,10.204081632653047 l 10.204081632653047,8.496604780294565e-15 l -3.398641912117826e-15,10.204081632653047 l -10.204081632653047,-1.699320956058913e-15 l -5.664403186863043e-16,-10.20408163265305 l -10.204081632653049,-5.664403186863043e-16 l -5.664403186863043e-15,10.204081632653049 l -10.204081632653047,-3.398641912117826e-15 l -5.664403186863043e-16,-10.20408163265305 l -10.204081632653047,-2.2657612747452174e-15 l -1.699320956058913e-15,-10.204081632653047 l 10.204081632653047,-3.398641912117826e-15 l 6.797283824235652e-15,10.204081632653047 l 10.204081632653045,-5.664403186863043e-15 l -5.664403186863043e-16,-10.204081632653045 l 10.204081632653047,-3.965082230804131e-15 l -5.664403186863043e-16,-10.204081632653045 l -10.204081632653047,-2.2657612747452174e-15 l -2.2657612747452174e-15,-10.204081632653047 l 10.204081632653047,-3.965082230804131e-15 l -1.1328806373726087e-15,-10.204081632653047 l -10.204081632653045,5.664403186863043e-16 l -4.531522549490435e-15,10.204081632653047 l -10.204081632653047,-1.699320956058913e-15 l -1.1328806373726087e-15,-10.204081632653047 l -10.204081632653047,-1.699320956058913e-15 l -2.2657612747452174e-15,-10.204081632653047 l 10.204081632653045,-5.664403186863043e-15 l 7.363724142921956e-15,10.204081632653045 l 10.204081632653045,-5.664403186863043e-15 l -5.664403186863043e-16,-10.204081632653043 l 10.204081632653045,-3.965082230804131e-15 l -1.699320956058913e-15,-10.204081632653047 l -10.204081632653047,-1.699320956058913e-15 l -3.398641912117826e-15,-10.204081632653047 l 10.204081632653045,-3.965082230804131e-15 l 7.363724142921956e-15,10.204081632653045 l 10.204081632653045,-5.664403186863043e-15 l -5.664403186863043e-16,-10.204081632653045 l 10.204081632653047,-3.398641912117826e-15 l 7.363724142921956e-15,10.204081632653045 l 10.204081632653043,-4.531522549490435e-15 l 7.363724142921956e-15,10.204081632653045 l -10.204081632653045,8.496604780294565e-15 "/></g><defs></defs><g stroke-linejoin="miter" stroke-opacity="1.0" fill-opacity="0.0" stroke="rgb(0,0,0)" stroke-width="1.2255777479729837" fill="rgb(0,0,0)" stroke-linecap="butt" stroke-miterlimit="10.0"><path d="M 138.77551020408163,142.85714285714278 l 40.81632653061225,40.81632653061224 l 40.816326530612244,-40.816326530612244 l -40.81632653061222,-40.816326530612265 l 40.81632653061225,-40.81632653061224 "/></g><defs></defs><g stroke-linejoin="miter" stroke-opacity="1.0" fill-opacity="0.0" stroke="rgb(0,0,0)" stroke-width="1.2255777479729837" fill="rgb(0,0,0)" stroke-linecap="butt" stroke-miterlimit="10.0"><path d="M 122.44897959183672,61.22448979591829 l 4.457397042646995e-15,72.79481799569326 "/></g><defs></defs><g stroke-linejoin="miter" stroke-opacity="1.0" fill-opacity="1.0" stroke="rgb(0,0,0)" stroke-width="0.0" fill="rgb(0,0,0)" stroke-linecap="butt" stroke-miterlimit="10.0"></g><defs></defs><g stroke-linejoin="miter" stroke-opacity="1.0" fill-opacity="1.0" stroke="rgb(0,0,0)" stroke-width="0.0" fill="rgb(0,0,0)" stroke-linecap="butt" stroke-miterlimit="10.0"></g><defs></defs><g stroke-linejoin="miter" stroke-opacity="1.0" fill-opacity="1.0" stroke="rgb(0,0,0)" stroke-width="0.0" fill="rgb(0,0,0)" stroke-linecap="butt" stroke-miterlimit="10.0"><path d="M 121.83619071785023,144.74311308637516 l 3.949713499111039,-12.15596821277291 l -3.94971349911104,2.076487270439601 Z"/></g><defs></defs><g stroke-linejoin="miter" stroke-opacity="1.0" fill-opacity="1.0" stroke="rgb(0,0,0)" stroke-width="0.0" fill="rgb(0,0,0)" stroke-linecap="butt" stroke-miterlimit="10.0"><path d="M 121.83619071785023,134.66363214404186 l -3.945348779082284e-17,-0.6443243524302991 l 1.2255777479729837,-7.50449933080668e-17 Z"/></g><defs></defs><g stroke-linejoin="miter" stroke-opacity="1.0" fill-opacity="0.0" stroke="rgb(0,0,0)" stroke-width="1.2255777479729837" fill="rgb(0,0,0)" stroke-linecap="butt" stroke-miterlimit="10.0"><path d="M 40.81632653061223,142.85714285714278 h 72.79481799569326 "/></g><defs></defs><g stroke-linejoin="miter" stroke-opacity="1.0" fill-opacity="1.0" stroke="rgb(0,0,0)" stroke-width="0.0" fill="rgb(0,0,0)" stroke-linecap="butt" stroke-miterlimit="10.0"></g><defs></defs><g stroke-linejoin="miter" stroke-opacity="1.0" fill-opacity="1.0" stroke="rgb(0,0,0)" stroke-width="0.0" fill="rgb(0,0,0)" stroke-linecap="butt" stroke-miterlimit="10.0"></g><defs></defs><g stroke-linejoin="miter" stroke-opacity="1.0" fill-opacity="1.0" stroke="rgb(0,0,0)" stroke-width="0.0" fill="rgb(0,0,0)" stroke-linecap="butt" stroke-miterlimit="10.0"><path d="M 124.3349498210691,143.46993173112926 l -12.15596821277291,-3.94971349911104 l 2.0764872704396007,3.94971349911104 Z"/></g><defs></defs><g stroke-linejoin="miter" stroke-opacity="1.0" fill-opacity="1.0" stroke="rgb(0,0,0)" stroke-width="0.0" fill="rgb(0,0,0)" stroke-linecap="butt" stroke-miterlimit="10.0"><path d="M 114.25546887873578,143.46993173112926 h -0.6443243524302991 v -1.2255777479729837 Z"/></g></svg>