<?xml version="1.0" encoding="UTF-8"?>
<!DOCTYPE svg PUBLIC "-//W3C//DTD SVG 1.1//EN"
    "http://www.w3.org/Graphics/SVG/1.1/DTD/svg11.dtd">
<svg xmlns="http://www.w3.org/2000/svg" xmlns:xlink="http://www.w3.org/1999/xlink" version="1.1" width="200.0" height="100.0" font-size="1" viewBox="0 0 200 100"><g><g fill="rgb(0,0,0)" fill-opacity="0.0"><g stroke="rgb(0,0,0)" stroke-opacity="1.0" stroke-width="0.565685424949238" stroke-linecap="butt" stroke-linejoin="miter" font-size="100.0em" stroke-miterlimit="10.0"><g><path d="M 200.0,100.0 l -1.1102230246251565e-14,-100.0 h -100.0 l -1.1102230246251565e-14,100.0 Z" /><g><g><g fill="rgb(255,255,89)" fill-opacity="1.0" stroke-width="0.0"><g fill="rgb(255,255,89)" fill-opacity="1.0"><g fill="rgb(255,255,89)" fill-opacity="1.0"><path d="M 161.04899379850616,63.22872769316131 l -11.048993798506164,19.137418631526113 l -11.048993798506164,-19.13741863152611 Z" /></g></g></g><g><g fill="rgb(89,89,255)" fill-opacity="1.0" stroke-width="0.0"><g fill="rgb(89,89,255)" fill-opacity="1.0"><g fill="rgb(89,89,255)" fill-opacity="1.0"><path d="M 159.90867003435454,57.86392617777975 l 5.890173781772905,2.6224743290975576 l -0.6739575011154115,6.412277292269173 l -6.306702424435174,1.340530982813936 l -3.2237989541168925,-5.58378358191786 Z" /></g></g></g><g fill="rgb(0,0,0)" fill-opacity="1.0" stroke-width="0.0"><g fill="rgb(0,0,0)" fill-opacity="1.0"><g fill="rgb(0,0,0)" fill-opacity="1.0"><path d="M 157.80643589287615,58.31076983871773 c -0.2467849394946078,-1.1610318569121467 0.494358623628266,-2.302292862921764 1.6553904805404125 -2.5490778024163716c 1.1610318569121467,-0.2467849394946079 2.302292862921764,0.4943586236282659 2.5490778024163716 1.655390480540412c 0.24678493949460795,1.1610318569121467 -0.49435862362826577,2.302292862921764 -1.655390480540412 2.549077802416371c -1.1610318569121467,0.24678493949460803 -2.302292862921764,-0.49435862362826566 -2.5490778024163716 -1.6553904805404116Z" /></g></g></g><g fill="rgb(0,0,0)" fill-opacity="1.0" stroke-width="0.0"><g fill="rgb(0,0,0)" fill-opacity="1.0"><g fill="rgb(0,0,0)" fill-opacity="1.0"><path d="M 155.36973243608816,64.79285096413228 c -1.1804676534021865,-0.12407214996670367 -2.0368454136846257,-1.1816106110593418 -1.9127732637179218 -2.362078264461528c 0.1240721499667036,-1.1804676534021865 1.1816106110593418,-2.0368454136846257 2.3620782644615277 -1.9127732637179218c 1.1804676534021865,0.12407214996670353 2.0368454136846257,1.1816106110593418 1.9127732637179218 2.3620782644615277c -0.12407214996670345,1.1804676534021865 -1.1816106110593416,2.0368454136846257 -2.3620782644615277 1.9127732637179227Z" /></g></g></g><g fill="rgb(0,0,0)" fill-opacity="1.0" stroke-width="0.0"><g fill="rgb(0,0,0)" fill-opacity="1.0"><g fill="rgb(0,0,0)" fill-opacity="1.0"><path d="M 160.78157515116783,69.1133668916596 c -0.4827841929277738,1.0843510511754495 -1.7531983191147045,1.572017343819558 -2.8375493702901537 1.089233150891784c -1.0843510511754495,-0.48278419292777375 -1.572017343819558,-1.7531983191147043 -1.0892331508917843 -2.8375493702901537c 0.4827841929277737,-1.0843510511754495 1.7531983191147043,-1.572017343819558 2.8375493702901533 -1.0892331508917843c 1.0843510511754495,0.4827841929277736 1.572017343819558,1.7531983191147043 1.0892331508917845 2.837549370290154Z" /></g></g></g><g fill="rgb(0,0,0)" fill-opacity="1.0" stroke-width="0.0"><g fill="rgb(0,0,0)" fill-opacity="1.0"><g fill="rgb(0,0,0)" fill-opacity="1.0"><path d="M 166.56298134764356,65.30151145839221 c 0.8820906129416354,0.7942379553298082 0.9533092634525531,2.153170760444158 0.15907130812274484 3.035261373385793c -0.7942379553298082,0.8820906129416354 -2.153170760444158,0.9533092634525531 -3.035261373385793 0.15907130812274506c -0.8820906129416355,-0.7942379553298081 -0.9533092634525532,-2.1531707604441577 -0.15907130812274528 -3.0352613733857927c 0.7942379553298081,-0.8820906129416355 2.1531707604441577,-0.9533092634525533 3.0352613733857936 -0.1590713081227455Z" /></g></g></g><g fill="rgb(0,0,0)" fill-opacity="1.0" stroke-width="0.0"><g fill="rgb(0,0,0)" fill-opacity="1.0"><g fill="rgb(0,0,0)" fill-opacity="1.0"><path d="M 164.72424416475513,58.625139312904686 c 1.0279461728829324,-0.5934849996264073 2.3423758457185104,-0.24128463028261016 2.9358608453449175 0.7866615426003221c 0.5934849996264074,1.0279461728829324 0.24128463028261027,2.3423758457185104 -0.7866615426003218 2.9358608453449175c -1.0279461728829324,0.5934849996264074 -2.3423758457185104,0.24128463028261038 -2.9358608453449175 -0.7866615426003216c -0.5934849996264076,-1.0279461728829324 -0.2412846302826105,-2.3423758457185104 0.7866615426003216 -2.935860845344918Z" /></g></g></g></g><g><g fill="rgb(89,89,255)" fill-opacity="1.0" stroke-width="0.0"><g fill="rgb(89,89,255)" fill-opacity="1.0"><g fill="rgb(89,89,255)" fill-opacity="1.0"><path d="M 134.87511368498798,66.8986777991465 l -0.6739575011154137,-6.412277292269173 l 5.890173781772903,-2.62247432909756 l 4.314285097894574,4.791499022262803 l -3.2237989541168885,5.583783581917862 Z" /></g></g></g><g fill="rgb(0,0,0)" fill-opacity="1.0" stroke-width="0.0"><g fill="rgb(0,0,0)" fill-opacity="1.0"><g fill="rgb(0,0,0)" fill-opacity="1.0"><path d="M 136.31320871761952,68.49584413990077 c -0.8820906129416346,0.7942379553298091 -2.2410234180559847,0.7230193048188931 -3.0352613733857936 -0.15907130812274128c -0.7942379553298091,-0.8820906129416346 -0.7230193048188931,-2.2410234180559847 0.15907130812274128 -3.0352613733857936c 0.8820906129416345,-0.7942379553298092 2.2410234180559843,-0.7230193048188932 3.035261373385793 0.15907130812274106c 0.7942379553298092,0.8820906129416345 0.7230193048188933,2.2410234180559843 -0.15907130812274106 3.035261373385794Z" /></g></g></g><g fill="rgb(0,0,0)" fill-opacity="1.0" stroke-width="0.0"><g fill="rgb(0,0,0)" fill-opacity="1.0"><g fill="rgb(0,0,0)" fill-opacity="1.0"><path d="M 143.14520737001413,67.36505067226125 c 0.48278419292777497,1.0843510511754493 -4.8820997163318e-3,2.354765177362381 -1.0892331508917807 2.8375493702901555c -1.0843510511754493,0.482784192927775 -2.354765177362381,-4.882099716331689e-3 -2.8375493702901555 -1.0892331508917805c -0.4827841929277751,-1.0843510511754493 4.882099716331578e-3,-2.354765177362381 1.0892331508917803 -2.8375493702901555c 1.0843510511754493,-0.4827841929277752 2.3547651773623803,4.882099716331467e-3 2.837549370290156 1.0892331508917805Z" /></g></g></g><g fill="rgb(0,0,0)" fill-opacity="1.0" stroke-width="0.0"><g fill="rgb(0,0,0)" fill-opacity="1.0"><g fill="rgb(0,0,0)" fill-opacity="1.0"><path d="M 144.18096256316824,60.51799943595283 c 1.180467653402186,-0.12407214996670483 2.2380061144948256,0.7323056103157328 2.3620782644615304 1.9127732637179187c 0.1240721499667049,1.180467653402186 -0.7323056103157327,2.2380061144948256 -1.9127732637179182 2.3620782644615304c -1.180467653402186,0.12407214996670497 -2.2380061144948256,-0.7323056103157326 -2.3620782644615304 -1.9127732637179182c -0.12407214996670506,-1.180467653402186 0.7323056103157325,-2.2380061144948256 1.9127732637179182 -2.3620782644615304Z" /></g></g></g><g fill="rgb(0,0,0)" fill-opacity="1.0" stroke-width="0.0"><g fill="rgb(0,0,0)" fill-opacity="1.0"><g fill="rgb(0,0,0)" fill-opacity="1.0"><path d="M 137.98909582416707,57.41708251684178 c 0.24678493949460678,-1.1610318569121467 1.3880459455042229,-1.9021754200350216 2.5490778024163694 -1.655390480540415c 1.1610318569121467,0.2467849394946067 1.9021754200350216,1.3880459455042227 1.655390480540415 2.549077802416369c -0.24678493949460664,1.1610318569121467 -1.3880459455042224,1.9021754200350216 -2.549077802416369 1.6553904805404152c -1.1610318569121467,-0.24678493949460656 -1.9021754200350216,-1.3880459455042224 -1.6553904805404156 -2.5490778024163694Z" /></g></g></g><g fill="rgb(0,0,0)" fill-opacity="1.0" stroke-width="0.0"><g fill="rgb(0,0,0)" fill-opacity="1.0"><g fill="rgb(0,0,0)" fill-opacity="1.0"><path d="M 133.12655653250027,62.34766170084994 c -1.0279461728829329,-0.5934849996264066 -1.3801465422267312,-1.9079146724619842 -0.7866615426003247 -2.9358608453449166c 0.5934849996264064,-1.0279461728829329 1.9079146724619842,-1.3801465422267314 2.9358608453449166 -0.786661542600325c 1.0279461728829329,0.5934849996264064 1.3801465422267314,1.907914672461984 0.786661542600325 2.9358608453449166c -0.5934849996264063,1.0279461728829329 -1.907914672461984,1.3801465422267314 -2.9358608453449166 0.7866615426003252Z" /></g></g></g></g><g><g fill="rgb(89,89,255)" fill-opacity="1.0" stroke-width="0.0"><g fill="rgb(89,89,255)" fill-opacity="1.0"><g fill="rgb(89,89,255)" fill-opacity="1.0"><path d="M 155.21621628065748,84.0609977340838 l -5.216216280657491,3.7898029631716126 l -5.21621628065749,-3.789802963171614 l 1.9924173265406009,-6.132030005076737 l 6.44759790823378,2.3860905504153803e-16 Z" /></g></g></g><g fill="rgb(0,0,0)" fill-opacity="1.0" stroke-width="0.0"><g fill="rgb(0,0,0)" fill-opacity="1.0"><g fill="rgb(0,0,0)" fill-opacity="1.0"><path d="M 155.88035538950433,82.01698773239156 c 1.128875552436242,0.3667939015823379 1.7466647944277178,1.5792735581028707 1.3798708928453798 2.7081491105391127c -0.3667939015823378,1.128875552436242 -1.5792735581028707,1.7466647944277178 -2.7081491105391122 1.37987089284538c -1.128875552436242,-0.36679390158233777 -1.7466647944277178,-1.5792735581028707 -1.3798708928453802 -2.7081491105391122c 0.36679390158233766,-1.128875552436242 1.5792735581028705,-1.7466647944277178 2.7081491105391127 -1.3798708928453807Z" /></g></g></g><g fill="rgb(0,0,0)" fill-opacity="1.0" stroke-width="0.0"><g fill="rgb(0,0,0)" fill-opacity="1.0"><g fill="rgb(0,0,0)" fill-opacity="1.0"><path d="M 151.4850601938977,76.66570007461652 c 0.6976834604744115,-0.960278901208745 2.041727513400957,-1.1731545663030378 3.002006414609702 -0.4754711058286263c 0.960278901208745,0.6976834604744114 1.1731545663030378,2.041727513400957 0.4754711058286265 3.002006414609702c -0.6976834604744114,0.9602789012087452 -2.0417275134009567,1.173154566303038 -3.002006414609702 0.47547110582862673c -0.9602789012087452,-0.6976834604744113 -1.173154566303038,-2.0417275134009567 -0.4754711058286265 -3.002006414609702Z" /></g></g></g><g fill="rgb(0,0,0)" fill-opacity="1.0" stroke-width="0.0"><g fill="rgb(0,0,0)" fill-opacity="1.0"><g fill="rgb(0,0,0)" fill-opacity="1.0"><path d="M 145.03746228566393,79.19223538339759 c -0.6976834604744119,-0.9602789012087448 -0.48480779538011987,-2.3043229541352903 0.47547110582862473 -3.002006414609702c 0.9602789012087448,-0.697683460474412 2.3043229541352903,-0.48480779538012 3.002006414609702 0.4754711058286245c 0.697683460474412,0.9602789012087447 0.48480779538012,2.3043229541352903 -0.4754711058286245 3.002006414609702c -0.9602789012087447,0.6976834604744121 -2.30432295413529,0.4848077953801201 -3.002006414609702 -0.47547110582862473Z" /></g></g></g><g fill="rgb(0,0,0)" fill-opacity="1.0" stroke-width="0.0"><g fill="rgb(0,0,0)" fill-opacity="1.0"><g fill="rgb(0,0,0)" fill-opacity="1.0"><path d="M 145.44792282818938,86.10500773577604 c -1.128875552436242,0.3667939015823381 -2.3413552089567755,-0.25099534040913707 -2.7081491105391136 -1.379870892845379c -0.36679390158233816,-1.128875552436242 0.25099534040913696,-2.3413552089567755 1.3798708928453784 -2.7081491105391136c 1.128875552436242,-0.3667939015823382 2.3413552089567755,0.25099534040913685 2.708149110539113 1.3798708928453784c 0.3667939015823383,1.128875552436242 -0.25099534040913674,2.3413552089567755 -1.379870892845378 2.7081491105391144Z" /></g></g></g><g fill="rgb(0,0,0)" fill-opacity="1.0" stroke-width="0.0"><g fill="rgb(0,0,0)" fill-opacity="1.0"><g fill="rgb(0,0,0)" fill-opacity="1.0"><path d="M 152.1491993027446,87.85080069725541 c 0.0,1.1869699992528135 -0.9622293034917798,2.1491993027445937 -2.1491993027445933 2.1491993027445937c -1.1869699992528135,7.268095051344472e-17 -2.1491993027445937,-0.9622293034917797 -2.1491993027445937 -2.149199302744593c -1.4536190102688944e-16,-1.1869699992528135 0.9622293034917796,-2.1491993027445937 2.149199302744593 -2.1491993027445937c 1.1869699992528135,-2.1804285154033416e-16 2.1491993027445937,0.9622293034917795 2.1491993027445937 2.149199302744593Z" /></g></g></g></g></g><g></g><g fill="rgb(255,255,89)" fill-opacity="1.0" stroke-width="0.0"><g fill="rgb(255,255,89)" fill-opacity="1.0"><g fill="rgb(255,255,89)" fill-opacity="1.0"><path d="M 161.04899379850616,36.77127230683869 l -11.048993798506164,-19.137418631526113 l -11.048993798506164,19.13741863152611 Z" /></g></g></g><g><g fill="rgb(89,89,255)" fill-opacity="1.0" stroke-width="0.0"><g fill="rgb(89,89,255)" fill-opacity="1.0"><g fill="rgb(89,89,255)" fill-opacity="1.0"><path d="M 159.90867003435454,42.13607382222025 l 5.890173781772905,-2.6224743290975576 l -0.6739575011154115,-6.412277292269173 l -6.306702424435174,-1.340530982813936 l -3.2237989541168925,5.58378358191786 Z" /></g></g></g><g fill="rgb(0,0,0)" fill-opacity="1.0" stroke-width="0.0"><g fill="rgb(0,0,0)" fill-opacity="1.0"><g fill="rgb(0,0,0)" fill-opacity="1.0"><path d="M 157.80643589287615,41.68923016128227 c -0.2467849394946078,1.1610318569121467 0.494358623628266,2.302292862921764 1.6553904805404125 2.5490778024163716c 1.1610318569121467,0.2467849394946079 2.302292862921764,-0.4943586236282659 2.5490778024163716 -1.655390480540412c 0.24678493949460795,-1.1610318569121467 -0.49435862362826577,-2.302292862921764 -1.655390480540412 -2.549077802416371c -1.1610318569121467,-0.24678493949460803 -2.302292862921764,0.49435862362826566 -2.5490778024163716 1.6553904805404116Z" /></g></g></g><g fill="rgb(0,0,0)" fill-opacity="1.0" stroke-width="0.0"><g fill="rgb(0,0,0)" fill-opacity="1.0"><g fill="rgb(0,0,0)" fill-opacity="1.0"><path d="M 155.36973243608816,35.207149035867715 c -1.1804676534021865,0.12407214996670367 -2.0368454136846257,1.1816106110593418 -1.9127732637179218 2.362078264461528c 0.1240721499667036,1.1804676534021865 1.1816106110593418,2.0368454136846257 2.3620782644615277 1.9127732637179218c 1.1804676534021865,-0.12407214996670353 2.0368454136846257,-1.1816106110593418 1.9127732637179218 -2.3620782644615277c -0.12407214996670345,-1.1804676534021865 -1.1816106110593416,-2.0368454136846257 -2.3620782644615277 -1.9127732637179227Z" /></g></g></g><g fill="rgb(0,0,0)" fill-opacity="1.0" stroke-width="0.0"><g fill="rgb(0,0,0)" fill-opacity="1.0"><g fill="rgb(0,0,0)" fill-opacity="1.0"><path d="M 160.78157515116783,30.886633108340398 c -0.4827841929277738,-1.0843510511754495 -1.7531983191147045,-1.572017343819558 -2.8375493702901537 -1.089233150891784c -1.0843510511754495,0.48278419292777375 -1.572017343819558,1.7531983191147043 -1.0892331508917843 2.8375493702901537c 0.4827841929277737,1.0843510511754495 1.7531983191147043,1.572017343819558 2.8375493702901533 1.0892331508917843c 1.0843510511754495,-0.4827841929277736 1.572017343819558,-1.7531983191147043 1.0892331508917845 -2.837549370290154Z" /></g></g></g><g fill="rgb(0,0,0)" fill-opacity="1.0" stroke-width="0.0"><g fill="rgb(0,0,0)" fill-opacity="1.0"><g fill="rgb(0,0,0)" fill-opacity="1.0"><path d="M 166.56298134764356,34.69848854160779 c 0.8820906129416354,-0.7942379553298082 0.9533092634525531,-2.153170760444158 0.15907130812274484 -3.035261373385793c -0.7942379553298082,-0.8820906129416354 -2.153170760444158,-0.9533092634525531 -3.035261373385793 -0.15907130812274506c -0.8820906129416355,0.7942379553298081 -0.9533092634525532,2.1531707604441577 -0.15907130812274528 3.0352613733857927c 0.7942379553298081,0.8820906129416355 2.1531707604441577,0.9533092634525533 3.0352613733857936 0.1590713081227455Z" /></g></g></g><g fill="rgb(0,0,0)" fill-opacity="1.0" stroke-width="0.0"><g fill="rgb(0,0,0)" fill-opacity="1.0"><g fill="rgb(0,0,0)" fill-opacity="1.0"><path d="M 164.72424416475513,41.374860687095314 c 1.0279461728829324,0.5934849996264073 2.3423758457185104,0.24128463028261016 2.9358608453449175 -0.7866615426003221c 0.5934849996264074,-1.0279461728829324 0.24128463028261027,-2.3423758457185104 -0.7866615426003218 -2.9358608453449175c -1.0279461728829324,-0.5934849996264074 -2.3423758457185104,-0.24128463028261038 -2.9358608453449175 0.7866615426003216c -0.5934849996264076,1.0279461728829324 -0.2412846302826105,2.3423758457185104 0.7866615426003216 2.935860845344918Z" /></g></g></g></g><g><g fill="rgb(89,89,255)" fill-opacity="1.0" stroke-width="0.0"><g fill="rgb(89,89,255)" fill-opacity="1.0"><g fill="rgb(89,89,255)" fill-opacity="1.0"><path d="M 134.87511368498798,33.10132220085351 l -0.6739575011154137,6.412277292269173 l 5.890173781772903,2.62247432909756 l 4.314285097894574,-4.791499022262803 l -3.2237989541168885,-5.583783581917862 Z" /></g></g></g><g fill="rgb(0,0,0)" fill-opacity="1.0" stroke-width="0.0"><g fill="rgb(0,0,0)" fill-opacity="1.0"><g fill="rgb(0,0,0)" fill-opacity="1.0"><path d="M 136.31320871761952,31.504155860099242 c -0.8820906129416346,-0.7942379553298091 -2.2410234180559847,-0.7230193048188931 -3.0352613733857936 0.15907130812274128c -0.7942379553298091,0.8820906129416346 -0.7230193048188931,2.2410234180559847 0.15907130812274128 3.0352613733857936c 0.8820906129416345,0.7942379553298092 2.2410234180559843,0.7230193048188932 3.035261373385793 -0.15907130812274106c 0.7942379553298092,-0.8820906129416345 0.7230193048188933,-2.2410234180559843 -0.15907130812274106 -3.035261373385794Z" /></g></g></g><g fill="rgb(0,0,0)" fill-opacity="1.0" stroke-width="0.0"><g fill="rgb(0,0,0)" fill-opacity="1.0"><g fill="rgb(0,0,0)" fill-opacity="1.0"><path d="M 143.14520737001413,32.63494932773877 c 0.48278419292777497,-1.0843510511754493 -4.8820997163318e-3,-2.354765177362381 -1.0892331508917807 -2.8375493702901555c -1.0843510511754493,-0.482784192927775 -2.354765177362381,4.882099716331689e-3 -2.8375493702901555 1.0892331508917805c -0.4827841929277751,1.0843510511754493 4.882099716331578e-3,2.354765177362381 1.0892331508917803 2.8375493702901555c 1.0843510511754493,0.4827841929277752 2.3547651773623803,-4.882099716331467e-3 2.837549370290156 -1.0892331508917805Z" /></g></g></g><g fill="rgb(0,0,0)" fill-opacity="1.0" stroke-width="0.0"><g fill="rgb(0,0,0)" fill-opacity="1.0"><g fill="rgb(0,0,0)" fill-opacity="1.0"><path d="M 144.18096256316824,39.48200056404717 c 1.180467653402186,0.12407214996670483 2.2380061144948256,-0.7323056103157328 2.3620782644615304 -1.9127732637179187c 0.1240721499667049,-1.180467653402186 -0.7323056103157327,-2.2380061144948256 -1.9127732637179182 -2.3620782644615304c -1.180467653402186,-0.12407214996670497 -2.2380061144948256,0.7323056103157326 -2.3620782644615304 1.9127732637179182c -0.12407214996670506,1.180467653402186 0.7323056103157325,2.2380061144948256 1.9127732637179182 2.3620782644615304Z" /></g></g></g><g fill="rgb(0,0,0)" fill-opacity="1.0" stroke-width="0.0"><g fill="rgb(0,0,0)" fill-opacity="1.0"><g fill="rgb(0,0,0)" fill-opacity="1.0"><path d="M 137.98909582416707,42.58291748315822 c 0.24678493949460678,1.1610318569121467 1.3880459455042229,1.9021754200350216 2.5490778024163694 1.655390480540415c 1.1610318569121467,-0.2467849394946067 1.9021754200350216,-1.3880459455042227 1.655390480540415 -2.549077802416369c -0.24678493949460664,-1.1610318569121467 -1.3880459455042224,-1.9021754200350216 -2.549077802416369 -1.6553904805404152c -1.1610318569121467,0.24678493949460656 -1.9021754200350216,1.3880459455042224 -1.6553904805404156 2.5490778024163694Z" /></g></g></g><g fill="rgb(0,0,0)" fill-opacity="1.0" stroke-width="0.0"><g fill="rgb(0,0,0)" fill-opacity="1.0"><g fill="rgb(0,0,0)" fill-opacity="1.0"><path d="M 133.12655653250027,37.65233829915006 c -1.0279461728829329,0.5934849996264066 -1.3801465422267312,1.9079146724619842 -0.7866615426003247 2.9358608453449166c 0.5934849996264064,1.0279461728829329 1.9079146724619842,1.3801465422267314 2.9358608453449166 0.786661542600325c 1.0279461728829329,-0.5934849996264064 1.3801465422267314,-1.907914672461984 0.786661542600325 -2.9358608453449166c -0.5934849996264063,-1.0279461728829329 -1.907914672461984,-1.3801465422267314 -2.9358608453449166 -0.7866615426003252Z" /></g></g></g></g><g><g fill="rgb(89,89,255)" fill-opacity="1.0" stroke-width="0.0"><g fill="rgb(89,89,255)" fill-opacity="1.0"><g fill="rgb(89,89,255)" fill-opacity="1.0"><path d="M 155.21621628065748,15.939002265916207 l -5.216216280657491,-3.7898029631716126 l -5.21621628065749,3.789802963171614 l 1.9924173265406009,6.132030005076737 l 6.44759790823378,-2.3860905504153803e-16 Z" /></g></g></g><g fill="rgb(0,0,0)" fill-opacity="1.0" stroke-width="0.0"><g fill="rgb(0,0,0)" fill-opacity="1.0"><g fill="rgb(0,0,0)" fill-opacity="1.0"><path d="M 155.88035538950433,17.983012267608455 c 1.128875552436242,-0.3667939015823379 1.7466647944277178,-1.5792735581028707 1.3798708928453798 -2.7081491105391127c -0.3667939015823378,-1.128875552436242 -1.5792735581028707,-1.7466647944277178 -2.7081491105391122 -1.37987089284538c -1.128875552436242,0.36679390158233777 -1.7466647944277178,1.5792735581028707 -1.3798708928453802 2.7081491105391122c 0.36679390158233766,1.128875552436242 1.5792735581028705,1.7466647944277178 2.7081491105391127 1.3798708928453807Z" /></g></g></g><g fill="rgb(0,0,0)" fill-opacity="1.0" stroke-width="0.0"><g fill="rgb(0,0,0)" fill-opacity="1.0"><g fill="rgb(0,0,0)" fill-opacity="1.0"><path d="M 151.4850601938977,23.334299925383483 c 0.6976834604744115,0.960278901208745 2.041727513400957,1.1731545663030378 3.002006414609702 0.4754711058286263c 0.960278901208745,-0.6976834604744114 1.1731545663030378,-2.041727513400957 0.4754711058286265 -3.002006414609702c -0.6976834604744114,-0.9602789012087452 -2.0417275134009567,-1.173154566303038 -3.002006414609702 -0.47547110582862673c -0.9602789012087452,0.6976834604744113 -1.173154566303038,2.0417275134009567 -0.4754711058286265 3.002006414609702Z" /></g></g></g><g fill="rgb(0,0,0)" fill-opacity="1.0" stroke-width="0.0"><g fill="rgb(0,0,0)" fill-opacity="1.0"><g fill="rgb(0,0,0)" fill-opacity="1.0"><path d="M 145.03746228566393,20.807764616602405 c -0.6976834604744119,0.9602789012087448 -0.48480779538011987,2.3043229541352903 0.47547110582862473 3.002006414609702c 0.9602789012087448,0.697683460474412 2.3043229541352903,0.48480779538012 3.002006414609702 -0.4754711058286245c 0.697683460474412,-0.9602789012087447 0.48480779538012,-2.3043229541352903 -0.4754711058286245 -3.002006414609702c -0.9602789012087447,-0.6976834604744121 -2.30432295413529,-0.4848077953801201 -3.002006414609702 0.47547110582862473Z" /></g></g></g><g fill="rgb(0,0,0)" fill-opacity="1.0" stroke-width="0.0"><g fill="rgb(0,0,0)" fill-opacity="1.0"><g fill="rgb(0,0,0)" fill-opacity="1.0"><path d="M 145.44792282818938,13.89499226422396 c -1.128875552436242,-0.3667939015823381 -2.3413552089567755,0.25099534040913707 -2.7081491105391136 1.379870892845379c -0.36679390158233816,1.128875552436242 0.25099534040913696,2.3413552089567755 1.3798708928453784 2.7081491105391136c 1.128875552436242,0.3667939015823382 2.3413552089567755,-0.25099534040913685 2.708149110539113 -1.3798708928453784c 0.3667939015823383,-1.128875552436242 -0.25099534040913674,-2.3413552089567755 -1.379870892845378 -2.7081491105391144Z" /></g></g></g><g fill="rgb(0,0,0)" fill-opacity="1.0" stroke-width="0.0"><g fill="rgb(0,0,0)" fill-opacity="1.0"><g fill="rgb(0,0,0)" fill-opacity="1.0"><path d="M 152.1491993027446,12.149199302744593 c 0.0,-1.1869699992528135 -0.9622293034917798,-2.1491993027445937 -2.1491993027445933 -2.1491993027445937c -1.1869699992528135,-7.268095051344472e-17 -2.1491993027445937,0.9622293034917797 -2.1491993027445937 2.149199302744593c -1.4536190102688944e-16,1.1869699992528135 0.9622293034917796,2.1491993027445937 2.149199302744593 2.1491993027445937c 1.1869699992528135,2.1804285154033416e-16 2.1491993027445937,-0.9622293034917795 2.1491993027445937 -2.149199302744593Z" /></g></g></g></g></g></g><path d="M 100.00000000000001,100.0 l -1.1102230246251565e-14,-100.0 h -100.0 l -1.1102230246251565e-14,100.0 Z" /><g><path d="M 90.0,50.00000000000001 c 0.0,-22.091389993231743 -17.90861000676826,-40.00000000000001 -40.0 -40.00000000000001c -22.091389993231743,-1.3527075021963561e-15 -40.00000000000001,17.90861000676826 -40.00000000000001 39.99999999999999c -2.7054150043927122e-15,22.091389993231743 17.908610006768257,40.00000000000001 39.999999999999986 40.00000000000001c 22.091389993231743,4.058122506589068e-15 40.00000000000001,-17.908610006768253 40.000000000000014 -39.99999999999999Z" /></g></g></g></g></svg>