<?xml version="1.0" encoding="UTF-8"?>
<!DOCTYPE svg PUBLIC "-//W3C//DTD SVG 1.1//EN"
    "http://www.w3.org/Graphics/SVG/1.1/DTD/svg11.dtd"><svg xmlns="http://www.w3.org/2000/svg" height="186.49538102064614" stroke-opacity="1" viewBox="0 0 300 186" font-size="1" width="300.0" xmlns:xlink="http://www.w3.org/1999/xlink" stroke="rgb(0,0,0)" version="1.1"><g><defs></defs><g stroke-linejoin="miter" stroke-opacity="1.0" fill-opacity="0.0" stroke="rgb(0,0,0)" stroke-width="0.9461383772467437" fill="rgb(0,0,0)" stroke-linecap="butt" stroke-miterlimit="10.0"><path d="M 126.59430122116689,39.00623509388283 l 108.88738127544096,109.63537339107454 "/></g><defs></defs><g stroke-linejoin="miter" stroke-opacity="1.0" fill-opacity="0.0" stroke="rgb(0,0,0)" stroke-width="0.9461383772467437" fill="rgb(0,0,0)" stroke-linecap="butt" stroke-miterlimit="10.0"><path d="M 126.59430122116689,39.00623509388283 l -64.11126187245591,109.63537339107454 "/></g><defs></defs><g stroke-linejoin="miter" stroke-opacity="1.0" fill-opacity="0.0" stroke="rgb(0,0,0)" stroke-width="0.9461383772467437" fill="rgb(0,0,0)" stroke-linecap="butt" stroke-miterlimit="10.0"><path d="M 126.59430122116689,39.00623509388283 l -108.88738127544096,109.63537339107454 "/></g><defs></defs><g stroke-linejoin="miter" stroke-opacity="1.0" fill-opacity="0.0" stroke="rgb(0,0,0)" stroke-width="0.9461383772467437" fill="rgb(0,0,0)" stroke-linecap="butt" stroke-miterlimit="10.0"><path d="M 286.3636363636364,178.01831824698039 l -50.88195386702851,-88.13012928606905 l -50.8819538670285,88.13012928606906 Z"/></g><defs></defs><g stroke-linejoin="miter" stroke-opacity="1.0" fill-opacity="0.0" stroke="rgb(0,0,0)" stroke-width="0.9461383772467437" fill="rgb(0,0,0)" stroke-linecap="butt" stroke-miterlimit="10.0"><path d="M 164.24694708276797,148.64160848495737 c 0.0,-11.24053086494152 -9.112250681869872,-20.352781546811396 -20.352781546811393 -20.352781546811396c -11.24053086494152,-6.882840072233831e-16 -20.352781546811396,9.112250681869872 -20.352781546811396 20.35278154681139c -1.3765680144467663e-15,11.24053086494152 9.11225068186987,20.352781546811396 20.352781546811386 20.352781546811396c 11.24053086494152,2.0648520216701495e-15 20.352781546811396,-9.112250681869869 20.3527815468114 -20.35278154681139Z"/></g><defs></defs><g stroke-linejoin="miter" stroke-opacity="1.0" fill-opacity="0.0" stroke="rgb(0,0,0)" stroke-width="0.9461383772467437" fill="rgb(0,0,0)" stroke-linecap="butt" stroke-miterlimit="10.0"><path d="M 123.54138398914516,148.64160848495737 c 0.0,-11.24053086494152 -9.112250681869872,-20.352781546811396 -20.352781546811393 -20.352781546811396c -11.24053086494152,-6.882840072233831e-16 -20.352781546811396,9.112250681869872 -20.352781546811396 20.35278154681139c -1.3765680144467663e-15,11.24053086494152 9.11225068186987,20.352781546811396 20.352781546811386 20.352781546811396c 11.24053086494152,2.0648520216701495e-15 20.352781546811396,-9.112250681869869 20.3527815468114 -20.35278154681139Z"/></g><defs></defs><g stroke-linejoin="miter" stroke-opacity="1.0" fill-opacity="0.0" stroke="rgb(0,0,0)" stroke-width="0.9461383772467437" fill="rgb(0,0,0)" stroke-linecap="butt" stroke-miterlimit="10.0"><path d="M 82.83582089552237,148.64160848495737 c 0.0,-11.24053086494152 -9.112250681869872,-20.352781546811396 -20.352781546811393 -20.352781546811396c -11.24053086494152,-6.882840072233831e-16 -20.352781546811396,9.112250681869872 -20.352781546811396 20.35278154681139c -1.3765680144467663e-15,11.24053086494152 9.11225068186987,20.352781546811396 20.352781546811386 20.352781546811396c 11.24053086494152,2.0648520216701495e-15 20.352781546811396,-9.112250681869869 20.3527815468114 -20.35278154681139Z"/></g><defs></defs><g stroke-linejoin="miter" stroke-opacity="1.0" fill-opacity="0.0" stroke="rgb(0,0,0)" stroke-width="0.9461383772467437" fill="rgb(0,0,0)" stroke-linecap="butt" stroke-miterlimit="10.0"><path d="M 21.77747625508821,148.64160848495737 c 0.0,-2.2481061729883045 -1.8224501363739747,-4.07055630936228 -4.070556309362279 -4.07055630936228c -2.2481061729883045,-1.3765680144467663e-16 -4.07055630936228,1.8224501363739742 -4.07055630936228 4.070556309362279c -2.7531360288935327e-16,2.2481061729883045 1.8224501363739742,4.07055630936228 4.070556309362278 4.07055630936228c 2.2481061729883045,4.1297040433403e-16 4.07055630936228,-1.822450136373974 4.070556309362281 -4.070556309362279Z"/></g><defs></defs><g stroke-linejoin="miter" stroke-opacity="1.0" fill-opacity="0.0" stroke="rgb(0,0,0)" stroke-width="0.9461383772467437" fill="rgb(0,0,0)" stroke-linecap="butt" stroke-miterlimit="10.0"><path d="M 136.7706919945726,69.53540741409992 l -2.259612668843602e-15,-61.058344640434186 h -20.352781546811396 l -2.259612668843602e-15,61.058344640434186 Z"/></g></g></svg>