<?xml version="1.0" encoding="UTF-8"?>
<!DOCTYPE svg PUBLIC "-//W3C//DTD SVG 1.1//EN"
    "http://www.w3.org/Graphics/SVG/1.1/DTD/svg11.dtd"><svg xmlns="http://www.w3.org/2000/svg" height="79.03060718216092" stroke-opacity="1" viewBox="0 0 300 79" font-size="1" width="300.0" xmlns:xlink="http://www.w3.org/1999/xlink" stroke="rgb(0,0,0)" version="1.1"><g><defs></defs><g stroke-linejoin="miter" stroke-opacity="1.0" fill-opacity="0.0" stroke="rgb(0,0,0)" stroke-width="0.6159114501893695" fill="rgb(0,0,0)" stroke-linecap="butt" stroke-miterlimit="10.0"><path d="M 149.99999999999997,9.57946753723163 l 47.612004278616126,19.957224035899223 "/></g><defs></defs><g stroke-linejoin="miter" stroke-opacity="1.0" fill-opacity="0.0" stroke="rgb(0,0,0)" stroke-width="0.6159114501893695" fill="rgb(0,0,0)" stroke-linecap="butt" stroke-miterlimit="10.0"><path d="M 149.99999999999997,9.57946753723163 l -47.61200427861609,19.957224035899223 "/></g><defs></defs><g stroke-linejoin="miter" stroke-opacity="1.0" fill-opacity="0.0" stroke="rgb(0,0,0)" stroke-width="0.6159114501893695" fill="rgb(0,0,0)" stroke-linecap="butt" stroke-miterlimit="10.0"><path d="M 197.6120042786161,29.536691573130852 l 43.43044051131755,19.957224035899223 "/></g><defs></defs><g stroke-linejoin="miter" stroke-opacity="1.0" fill-opacity="0.0" stroke="rgb(0,0,0)" stroke-width="0.6159114501893695" fill="rgb(0,0,0)" stroke-linecap="butt" stroke-miterlimit="10.0"><path d="M 197.6120042786161,29.536691573130852 l -13.917704548157525,19.957224035899223 "/></g><defs></defs><g stroke-linejoin="miter" stroke-opacity="1.0" fill-opacity="0.0" stroke="rgb(0,0,0)" stroke-width="0.6159114501893695" fill="rgb(0,0,0)" stroke-linecap="butt" stroke-miterlimit="10.0"><path d="M 241.04244478993365,49.493915609030076 l 39.33402436293295,19.957224035899223 "/></g><defs></defs><g stroke-linejoin="miter" stroke-opacity="1.0" fill-opacity="0.0" stroke="rgb(0,0,0)" stroke-width="0.6159114501893695" fill="rgb(0,0,0)" stroke-linecap="butt" stroke-miterlimit="10.0"><path d="M 241.04244478993365,49.493915609030076 l 4.1748810043134625,19.957224035899223 "/></g><defs></defs><g stroke-linejoin="miter" stroke-opacity="1.0" fill-opacity="1.0" stroke="rgb(0,0,0)" stroke-width="0.6159114501893695" fill="rgb(255,255,255)" stroke-linecap="butt" stroke-miterlimit="10.0"><path d="M 286.3636363636363,69.4511396449293 c 0.0,-3.30662114519511 -2.680546065574656,-5.987167210769766 -5.9871672107697655 -5.987167210769766c -3.30662114519511,-2.0247215007280735e-16 -5.987167210769766,2.680546065574656 -5.987167210769766 5.987167210769765c -4.049443001456147e-16,3.30662114519511 2.680546065574655,5.987167210769766 5.987167210769765 5.987167210769766c 3.30662114519511,6.07416450218422e-16 5.987167210769766,-2.680546065574655 5.987167210769766 -5.987167210769765Z"/></g><defs></defs><g stroke-linejoin="miter" stroke-opacity="1.0" fill-opacity="1.0" font-size="9.978612017949612px" stroke="rgb(0,0,0)" stroke-width="0.6159114501893695" fill="rgb(0,0,0)" stroke-linecap="butt" stroke-miterlimit="10.0"><text dominant-baseline="middle" transform="matrix(1.0,0.0,0.0,1.0,280.37646915286655,69.4511396449293)" stroke="none" text-anchor="middle">1</text></g><defs></defs><g stroke-linejoin="miter" stroke-opacity="1.0" fill-opacity="1.0" stroke="rgb(0,0,0)" stroke-width="0.6159114501893695" fill="rgb(255,255,255)" stroke-linecap="butt" stroke-miterlimit="10.0"><path d="M 251.2044930050169,69.4511396449293 c 0.0,-3.30662114519511 -2.680546065574656,-5.987167210769766 -5.9871672107697655 -5.987167210769766c -3.30662114519511,-2.0247215007280735e-16 -5.987167210769766,2.680546065574656 -5.987167210769766 5.987167210769765c -4.049443001456147e-16,3.30662114519511 2.680546065574655,5.987167210769766 5.987167210769765 5.987167210769766c 3.30662114519511,6.07416450218422e-16 5.987167210769766,-2.680546065574655 5.987167210769766 -5.987167210769765Z"/></g><defs></defs><g stroke-linejoin="miter" stroke-opacity="1.0" fill-opacity="1.0" font-size="9.978612017949612px" stroke="rgb(0,0,0)" stroke-width="0.6159114501893695" fill="rgb(0,0,0)" stroke-linecap="butt" stroke-miterlimit="10.0"><text dominant-baseline="middle" transform="matrix(1.0,0.0,0.0,1.0,245.21732579424713,69.4511396449293)" stroke="none" text-anchor="middle">1</text></g><defs></defs><g stroke-linejoin="miter" stroke-opacity="1.0" fill-opacity="1.0" stroke="rgb(0,0,0)" stroke-width="0.6159114501893695" fill="rgb(255,255,255)" stroke-linecap="butt" stroke-miterlimit="10.0"><path d="M 247.02961200070342,49.493915609030076 c 0.0,-3.30662114519511 -2.680546065574656,-5.987167210769766 -5.9871672107697655 -5.987167210769766c -3.30662114519511,-2.0247215007280735e-16 -5.987167210769766,2.680546065574656 -5.987167210769766 5.987167210769765c -4.049443001456147e-16,3.30662114519511 2.680546065574655,5.987167210769766 5.987167210769765 5.987167210769766c 3.30662114519511,6.07416450218422e-16 5.987167210769766,-2.680546065574655 5.987167210769766 -5.987167210769765Z"/></g><defs></defs><g stroke-linejoin="miter" stroke-opacity="1.0" fill-opacity="1.0" font-size="9.978612017949612px" stroke="rgb(0,0,0)" stroke-width="0.6159114501893695" fill="rgb(0,0,0)" stroke-linecap="butt" stroke-miterlimit="10.0"><text dominant-baseline="middle" transform="matrix(1.0,0.0,0.0,1.0,241.04244478993365,49.493915609030076)" stroke="none" text-anchor="middle">2</text></g><defs></defs><g stroke-linejoin="miter" stroke-opacity="1.0" fill-opacity="0.0" stroke="rgb(0,0,0)" stroke-width="0.6159114501893695" fill="rgb(0,0,0)" stroke-linecap="butt" stroke-miterlimit="10.0"><path d="M 183.69429973045857,49.493915609030076 l 22.339618399128625,19.957224035899223 "/></g><defs></defs><g stroke-linejoin="miter" stroke-opacity="1.0" fill-opacity="0.0" stroke="rgb(0,0,0)" stroke-width="0.6159114501893695" fill="rgb(0,0,0)" stroke-linecap="butt" stroke-miterlimit="10.0"><path d="M 183.69429973045857,49.493915609030076 l -15.68842514407656,19.957224035899223 "/></g><defs></defs><g stroke-linejoin="miter" stroke-opacity="1.0" fill-opacity="1.0" stroke="rgb(0,0,0)" stroke-width="0.6159114501893695" fill="rgb(255,255,255)" stroke-linecap="butt" stroke-miterlimit="10.0"><path d="M 212.02108534035696,69.4511396449293 c 0.0,-3.30662114519511 -2.680546065574656,-5.987167210769766 -5.9871672107697655 -5.987167210769766c -3.30662114519511,-2.0247215007280735e-16 -5.987167210769766,2.680546065574656 -5.987167210769766 5.987167210769765c -4.049443001456147e-16,3.30662114519511 2.680546065574655,5.987167210769766 5.987167210769765 5.987167210769766c 3.30662114519511,6.07416450218422e-16 5.987167210769766,-2.680546065574655 5.987167210769766 -5.987167210769765Z"/></g><defs></defs><g stroke-linejoin="miter" stroke-opacity="1.0" fill-opacity="1.0" font-size="9.978612017949612px" stroke="rgb(0,0,0)" stroke-width="0.6159114501893695" fill="rgb(0,0,0)" stroke-linecap="butt" stroke-miterlimit="10.0"><text dominant-baseline="middle" transform="matrix(1.0,0.0,0.0,1.0,206.0339181295872,69.4511396449293)" stroke="none" text-anchor="middle">1</text></g><defs></defs><g stroke-linejoin="miter" stroke-opacity="1.0" fill-opacity="1.0" stroke="rgb(0,0,0)" stroke-width="0.6159114501893695" fill="rgb(255,255,255)" stroke-linecap="butt" stroke-miterlimit="10.0"><path d="M 173.9930417971518,69.4511396449293 c 0.0,-3.30662114519511 -2.680546065574656,-5.987167210769766 -5.9871672107697655 -5.987167210769766c -3.30662114519511,-2.0247215007280735e-16 -5.987167210769766,2.680546065574656 -5.987167210769766 5.987167210769765c -4.049443001456147e-16,3.30662114519511 2.680546065574655,5.987167210769766 5.987167210769765 5.987167210769766c 3.30662114519511,6.07416450218422e-16 5.987167210769766,-2.680546065574655 5.987167210769766 -5.987167210769765Z"/></g><defs></defs><g stroke-linejoin="miter" stroke-opacity="1.0" fill-opacity="1.0" font-size="9.978612017949612px" stroke="rgb(0,0,0)" stroke-width="0.6159114501893695" fill="rgb(0,0,0)" stroke-linecap="butt" stroke-miterlimit="10.0"><text dominant-baseline="middle" transform="matrix(1.0,0.0,0.0,1.0,168.00587458638202,69.4511396449293)" stroke="none" text-anchor="middle">1</text></g><defs></defs><g stroke-linejoin="miter" stroke-opacity="1.0" fill-opacity="1.0" stroke="rgb(0,0,0)" stroke-width="0.6159114501893695" fill="rgb(255,255,255)" stroke-linecap="butt" stroke-miterlimit="10.0"><path d="M 189.68146694122834,49.493915609030076 c 0.0,-3.30662114519511 -2.680546065574656,-5.987167210769766 -5.9871672107697655 -5.987167210769766c -3.30662114519511,-2.0247215007280735e-16 -5.987167210769766,2.680546065574656 -5.987167210769766 5.987167210769765c -4.049443001456147e-16,3.30662114519511 2.680546065574655,5.987167210769766 5.987167210769765 5.987167210769766c 3.30662114519511,6.07416450218422e-16 5.987167210769766,-2.680546065574655 5.987167210769766 -5.987167210769765Z"/></g><defs></defs><g stroke-linejoin="miter" stroke-opacity="1.0" fill-opacity="1.0" font-size="9.978612017949612px" stroke="rgb(0,0,0)" stroke-width="0.6159114501893695" fill="rgb(0,0,0)" stroke-linecap="butt" stroke-miterlimit="10.0"><text dominant-baseline="middle" transform="matrix(1.0,0.0,0.0,1.0,183.69429973045857,49.493915609030076)" stroke="none" text-anchor="middle">2</text></g><defs></defs><g stroke-linejoin="miter" stroke-opacity="1.0" fill-opacity="1.0" stroke="rgb(0,0,0)" stroke-width="0.6159114501893695" fill="rgb(255,255,255)" stroke-linecap="butt" stroke-miterlimit="10.0"><path d="M 203.59917148938587,29.536691573130852 c 0.0,-3.30662114519511 -2.680546065574656,-5.987167210769766 -5.9871672107697655 -5.987167210769766c -3.30662114519511,-2.0247215007280735e-16 -5.987167210769766,2.680546065574656 -5.987167210769766 5.987167210769765c -4.049443001456147e-16,3.30662114519511 2.680546065574655,5.987167210769766 5.987167210769765 5.987167210769766c 3.30662114519511,6.07416450218422e-16 5.987167210769766,-2.680546065574655 5.987167210769766 -5.987167210769765Z"/></g><defs></defs><g stroke-linejoin="miter" stroke-opacity="1.0" fill-opacity="1.0" font-size="9.978612017949612px" stroke="rgb(0,0,0)" stroke-width="0.6159114501893695" fill="rgb(0,0,0)" stroke-linecap="butt" stroke-miterlimit="10.0"><text dominant-baseline="middle" transform="matrix(1.0,0.0,0.0,1.0,197.6120042786161,29.536691573130852)" stroke="none" text-anchor="middle">3</text></g><defs></defs><g stroke-linejoin="miter" stroke-opacity="1.0" fill-opacity="0.0" stroke="rgb(0,0,0)" stroke-width="0.6159114501893695" fill="rgb(0,0,0)" stroke-linecap="butt" stroke-miterlimit="10.0"><path d="M 102.38799572138389,29.536691573130852 l 13.917704548157438,19.957224035899223 "/></g><defs></defs><g stroke-linejoin="miter" stroke-opacity="1.0" fill-opacity="0.0" stroke="rgb(0,0,0)" stroke-width="0.6159114501893695" fill="rgb(0,0,0)" stroke-linecap="butt" stroke-miterlimit="10.0"><path d="M 102.38799572138389,29.536691573130852 l -43.43044051131755,19.957224035899223 "/></g><defs></defs><g stroke-linejoin="miter" stroke-opacity="1.0" fill-opacity="0.0" stroke="rgb(0,0,0)" stroke-width="0.6159114501893695" fill="rgb(0,0,0)" stroke-linecap="butt" stroke-miterlimit="10.0"><path d="M 116.30570026954133,49.493915609030076 l 15.68842514407663,19.957224035899223 "/></g><defs></defs><g stroke-linejoin="miter" stroke-opacity="1.0" fill-opacity="0.0" stroke="rgb(0,0,0)" stroke-width="0.6159114501893695" fill="rgb(0,0,0)" stroke-linecap="butt" stroke-miterlimit="10.0"><path d="M 116.30570026954133,49.493915609030076 l -22.33961839912857,19.957224035899223 "/></g><defs></defs><g stroke-linejoin="miter" stroke-opacity="1.0" fill-opacity="1.0" stroke="rgb(0,0,0)" stroke-width="0.6159114501893695" fill="rgb(255,255,255)" stroke-linecap="butt" stroke-miterlimit="10.0"><path d="M 137.98129262438772,69.4511396449293 c 0.0,-3.30662114519511 -2.680546065574656,-5.987167210769766 -5.9871672107697655 -5.987167210769766c -3.30662114519511,-2.0247215007280735e-16 -5.987167210769766,2.680546065574656 -5.987167210769766 5.987167210769765c -4.049443001456147e-16,3.30662114519511 2.680546065574655,5.987167210769766 5.987167210769765 5.987167210769766c 3.30662114519511,6.07416450218422e-16 5.987167210769766,-2.680546065574655 5.987167210769766 -5.987167210769765Z"/></g><defs></defs><g stroke-linejoin="miter" stroke-opacity="1.0" fill-opacity="1.0" font-size="9.978612017949612px" stroke="rgb(0,0,0)" stroke-width="0.6159114501893695" fill="rgb(0,0,0)" stroke-linecap="butt" stroke-miterlimit="10.0"><text dominant-baseline="middle" transform="matrix(1.0,0.0,0.0,1.0,131.99412541361795,69.4511396449293)" stroke="none" text-anchor="middle">1</text></g><defs></defs><g stroke-linejoin="miter" stroke-opacity="1.0" fill-opacity="1.0" stroke="rgb(0,0,0)" stroke-width="0.6159114501893695" fill="rgb(255,255,255)" stroke-linecap="butt" stroke-miterlimit="10.0"><path d="M 99.95324908118252,69.4511396449293 c 0.0,-3.30662114519511 -2.680546065574656,-5.987167210769766 -5.9871672107697655 -5.987167210769766c -3.30662114519511,-2.0247215007280735e-16 -5.987167210769766,2.680546065574656 -5.987167210769766 5.987167210769765c -4.049443001456147e-16,3.30662114519511 2.680546065574655,5.987167210769766 5.987167210769765 5.987167210769766c 3.30662114519511,6.07416450218422e-16 5.987167210769766,-2.680546065574655 5.987167210769766 -5.987167210769765Z"/></g><defs></defs><g stroke-linejoin="miter" stroke-opacity="1.0" fill-opacity="1.0" font-size="9.978612017949612px" stroke="rgb(0,0,0)" stroke-width="0.6159114501893695" fill="rgb(0,0,0)" stroke-linecap="butt" stroke-miterlimit="10.0"><text dominant-baseline="middle" transform="matrix(1.0,0.0,0.0,1.0,93.96608187041275,69.4511396449293)" stroke="none" text-anchor="middle">1</text></g><defs></defs><g stroke-linejoin="miter" stroke-opacity="1.0" fill-opacity="1.0" stroke="rgb(0,0,0)" stroke-width="0.6159114501893695" fill="rgb(255,255,255)" stroke-linecap="butt" stroke-miterlimit="10.0"><path d="M 122.2928674803111,49.493915609030076 c 0.0,-3.30662114519511 -2.680546065574656,-5.987167210769766 -5.9871672107697655 -5.987167210769766c -3.30662114519511,-2.0247215007280735e-16 -5.987167210769766,2.680546065574656 -5.987167210769766 5.987167210769765c -4.049443001456147e-16,3.30662114519511 2.680546065574655,5.987167210769766 5.987167210769765 5.987167210769766c 3.30662114519511,6.07416450218422e-16 5.987167210769766,-2.680546065574655 5.987167210769766 -5.987167210769765Z"/></g><defs></defs><g stroke-linejoin="miter" stroke-opacity="1.0" fill-opacity="1.0" font-size="9.978612017949612px" stroke="rgb(0,0,0)" stroke-width="0.6159114501893695" fill="rgb(0,0,0)" stroke-linecap="butt" stroke-miterlimit="10.0"><text dominant-baseline="middle" transform="matrix(1.0,0.0,0.0,1.0,116.30570026954133,49.493915609030076)" stroke="none" text-anchor="middle">2</text></g><defs></defs><g stroke-linejoin="miter" stroke-opacity="1.0" fill-opacity="0.0" stroke="rgb(0,0,0)" stroke-width="0.6159114501893695" fill="rgb(0,0,0)" stroke-linecap="butt" stroke-miterlimit="10.0"><path d="M 58.95755521006634,49.493915609030076 l -4.174881004313471,19.957224035899223 "/></g><defs></defs><g stroke-linejoin="miter" stroke-opacity="1.0" fill-opacity="0.0" stroke="rgb(0,0,0)" stroke-width="0.6159114501893695" fill="rgb(0,0,0)" stroke-linecap="butt" stroke-miterlimit="10.0"><path d="M 58.95755521006634,49.493915609030076 l -39.33402436293296,19.957224035899223 "/></g><defs></defs><g stroke-linejoin="miter" stroke-opacity="1.0" fill-opacity="1.0" stroke="rgb(0,0,0)" stroke-width="0.6159114501893695" fill="rgb(255,255,255)" stroke-linecap="butt" stroke-miterlimit="10.0"><path d="M 60.76984141652264,69.4511396449293 c 0.0,-3.30662114519511 -2.680546065574656,-5.987167210769766 -5.9871672107697655 -5.987167210769766c -3.30662114519511,-2.0247215007280735e-16 -5.987167210769766,2.680546065574656 -5.987167210769766 5.987167210769765c -4.049443001456147e-16,3.30662114519511 2.680546065574655,5.987167210769766 5.987167210769765 5.987167210769766c 3.30662114519511,6.07416450218422e-16 5.987167210769766,-2.680546065574655 5.987167210769766 -5.987167210769765Z"/></g><defs></defs><g stroke-linejoin="miter" stroke-opacity="1.0" fill-opacity="1.0" font-size="9.978612017949612px" stroke="rgb(0,0,0)" stroke-width="0.6159114501893695" fill="rgb(0,0,0)" stroke-linecap="butt" stroke-miterlimit="10.0"><text dominant-baseline="middle" transform="matrix(1.0,0.0,0.0,1.0,54.78267420575287,69.4511396449293)" stroke="none" text-anchor="middle">1</text></g><defs></defs><g stroke-linejoin="miter" stroke-opacity="1.0" fill-opacity="1.0" stroke="rgb(0,0,0)" stroke-width="0.6159114501893695" fill="rgb(255,255,255)" stroke-linecap="butt" stroke-miterlimit="10.0"><path d="M 25.610698057903146,69.4511396449293 c 0.0,-3.30662114519511 -2.680546065574656,-5.987167210769766 -5.9871672107697655 -5.987167210769766c -3.30662114519511,-2.0247215007280735e-16 -5.987167210769766,2.680546065574656 -5.987167210769766 5.987167210769765c -4.049443001456147e-16,3.30662114519511 2.680546065574655,5.987167210769766 5.987167210769765 5.987167210769766c 3.30662114519511,6.07416450218422e-16 5.987167210769766,-2.680546065574655 5.987167210769766 -5.987167210769765Z"/></g><defs></defs><g stroke-linejoin="miter" stroke-opacity="1.0" fill-opacity="1.0" font-size="9.978612017949612px" stroke="rgb(0,0,0)" stroke-width="0.6159114501893695" fill="rgb(0,0,0)" stroke-linecap="butt" stroke-miterlimit="10.0"><text dominant-baseline="middle" transform="matrix(1.0,0.0,0.0,1.0,19.62353084713338,69.4511396449293)" stroke="none" text-anchor="middle">1</text></g><defs></defs><g stroke-linejoin="miter" stroke-opacity="1.0" fill-opacity="1.0" stroke="rgb(0,0,0)" stroke-width="0.6159114501893695" fill="rgb(255,255,255)" stroke-linecap="butt" stroke-miterlimit="10.0"><path d="M 64.9447224208361,49.493915609030076 c 0.0,-3.30662114519511 -2.680546065574656,-5.987167210769766 -5.9871672107697655 -5.987167210769766c -3.30662114519511,-2.0247215007280735e-16 -5.987167210769766,2.680546065574656 -5.987167210769766 5.987167210769765c -4.049443001456147e-16,3.30662114519511 2.680546065574655,5.987167210769766 5.987167210769765 5.987167210769766c 3.30662114519511,6.07416450218422e-16 5.987167210769766,-2.680546065574655 5.987167210769766 -5.987167210769765Z"/></g><defs></defs><g stroke-linejoin="miter" stroke-opacity="1.0" fill-opacity="1.0" font-size="9.978612017949612px" stroke="rgb(0,0,0)" stroke-width="0.6159114501893695" fill="rgb(0,0,0)" stroke-linecap="butt" stroke-miterlimit="10.0"><text dominant-baseline="middle" transform="matrix(1.0,0.0,0.0,1.0,58.95755521006634,49.493915609030076)" stroke="none" text-anchor="middle">2</text></g><defs></defs><g stroke-linejoin="miter" stroke-opacity="1.0" fill-opacity="1.0" stroke="rgb(0,0,0)" stroke-width="0.6159114501893695" fill="rgb(255,255,255)" stroke-linecap="butt" stroke-miterlimit="10.0"><path d="M 108.37516293215366,29.536691573130852 c 0.0,-3.30662114519511 -2.680546065574656,-5.987167210769766 -5.9871672107697655 -5.987167210769766c -3.30662114519511,-2.0247215007280735e-16 -5.987167210769766,2.680546065574656 -5.987167210769766 5.987167210769765c -4.049443001456147e-16,3.30662114519511 2.680546065574655,5.987167210769766 5.987167210769765 5.987167210769766c 3.30662114519511,6.07416450218422e-16 5.987167210769766,-2.680546065574655 5.987167210769766 -5.987167210769765Z"/></g><defs></defs><g stroke-linejoin="miter" stroke-opacity="1.0" fill-opacity="1.0" font-size="9.978612017949612px" stroke="rgb(0,0,0)" stroke-width="0.6159114501893695" fill="rgb(0,0,0)" stroke-linecap="butt" stroke-miterlimit="10.0"><text dominant-baseline="middle" transform="matrix(1.0,0.0,0.0,1.0,102.38799572138389,29.536691573130852)" stroke="none" text-anchor="middle">3</text></g><defs></defs><g stroke-linejoin="miter" stroke-opacity="1.0" fill-opacity="1.0" stroke="rgb(0,0,0)" stroke-width="0.6159114501893695" fill="rgb(255,255,255)" stroke-linecap="butt" stroke-miterlimit="10.0"><path d="M 155.98716721076974,9.57946753723163 c 0.0,-3.30662114519511 -2.680546065574656,-5.987167210769766 -5.9871672107697655 -5.987167210769766c -3.30662114519511,-2.0247215007280735e-16 -5.987167210769766,2.680546065574656 -5.987167210769766 5.987167210769765c -4.049443001456147e-16,3.30662114519511 2.680546065574655,5.987167210769766 5.987167210769765 5.987167210769766c 3.30662114519511,6.07416450218422e-16 5.987167210769766,-2.680546065574655 5.987167210769766 -5.987167210769765Z"/></g><defs></defs><g stroke-linejoin="miter" stroke-opacity="1.0" fill-opacity="1.0" font-size="9.978612017949612px" stroke="rgb(0,0,0)" stroke-width="0.6159114501893695" fill="rgb(0,0,0)" stroke-linecap="butt" stroke-miterlimit="10.0"><text dominant-baseline="middle" transform="matrix(1.0,0.0,0.0,1.0,149.99999999999997,9.57946753723163)" stroke="none" text-anchor="middle">4</text></g></g></svg>