<?xml version="1.0" encoding="UTF-8"?>
<!DOCTYPE svg PUBLIC "-//W3C//DTD SVG 1.1//EN"
    "http://www.w3.org/Graphics/SVG/1.1/DTD/svg11.dtd"><svg xmlns="http://www.w3.org/2000/svg" height="400.0" stroke-opacity="1" viewBox="0 0 400 400" font-size="1" width="400.0000000003188" xmlns:xlink="http://www.w3.org/1999/xlink" stroke="rgb(0,0,0)" version="1.1"><defs></defs><defs></defs><g stroke-linejoin="miter" stroke-opacity="1.0" fill-opacity="0.0" stroke="rgb(0,0,0)" stroke-width="1.6000000000006376" fill="rgb(0,0,0)" stroke-linecap="butt" stroke-miterlimit="10.0"><path d="M 342.85714285706626,247.61904761900263 h 19.04761904761096 h 19.04761904761096 l 1.1663302849017461e-15,19.04761904761096 h 19.04761904761096 l 1.1663302849017461e-15,19.04761904761096 l -19.04761904761096,2.3326605698034922e-15 l -19.04761904761096,2.3326605698034922e-15 l -19.04761904761096,2.3326605698034922e-15 l -19.04761904761096,2.3326605698034922e-15 l -3.4989908547052377e-15,-19.04761904761096 l -19.04761904761096,2.3326605698034922e-15 l -3.4989908547052377e-15,-19.04761904761096 l 19.04761904761096,-4.6653211396069844e-15 l 19.04761904761096,-4.6653211396069844e-15 l 5.83165142450873e-15,19.04761904761096 l 5.83165142450873e-15,19.04761904761096 l -19.04761904761096,6.9979817094104754e-15 l 5.83165142450873e-15,19.04761904761096 l -19.04761904761096,6.9979817094104754e-15 l -8.164311994312221e-15,-19.04761904761096 l -8.164311994312221e-15,-19.04761904761096 l -19.04761904761096,6.9979817094104754e-15 l -19.04761904761096,6.9979817094104754e-15 l -8.164311994312221e-15,-19.04761904761096 l -19.04761904761096,6.9979817094104754e-15 l -8.164311994312221e-15,-19.04761904761096 l 19.04761904761096,-9.330642279213969e-15 l 19.04761904761096,-9.330642279213969e-15 l 1.0496972564115715e-14,19.04761904761096 l 1.0496972564115715e-14,19.04761904761096 l -19.04761904761096,1.166330284901746e-14 l 1.0496972564115715e-14,19.04761904761096 l -19.04761904761096,1.166330284901746e-14 l -4.666500150343342e-14,-19.04761904761096 l -4.666500150343342e-14,-19.04761904761096 l 19.04761904761096,-1.3995963418820951e-14 l 19.04761904761096,-1.3995963418820951e-14 l -1.8673074665791516e-14,19.04761904761096 l 19.04761904761096,-1.3995963418820951e-14 l -1.8673074665791516e-14,19.04761904761096 l -19.04761904761096,-5.134211275040399e-14 l -19.04761904761096,-5.134211275040399e-14 l -19.04761904761096,-5.134211275040399e-14 l -19.04761904761096,-5.134211275040399e-14 l 8.401115083501646e-14,-19.04761904761096 l -19.04761904761096,-5.134211275040399e-14 l 8.401115083501646e-14,-19.04761904761096 l 19.04761904761096,1.1668018891962893e-13 l 19.04761904761096,1.1668018891962893e-13 l 19.04761904761096,1.1668018891962893e-13 l 19.04761904761096,1.1668018891962893e-13 l -1.493492270042414e-13,19.04761904761096 l 19.04761904761096,1.1668018891962893e-13 l -1.493492270042414e-13,19.04761904761096 l -19.04761904761096,-1.8201826508885388e-13 l -19.04761904761096,-1.8201826508885388e-13 l -19.04761904761096,-1.8201826508885388e-13 l -19.04761904761096,-1.8201826508885388e-13 l 2.1468730317346635e-13,-19.04761904761096 l -19.04761904761096,-1.8201826508885388e-13 l 2.1468730317346635e-13,-19.04761904761096 l 19.04761904761096,2.473563412580788e-13 l 19.04761904761096,2.473563412580788e-13 l -2.8002537934269127e-13,19.04761904761096 l -2.8002537934269127e-13,19.04761904761096 l -19.04761904761096,-3.1269441742730375e-13 l -2.8002537934269127e-13,19.04761904761096 l -19.04761904761096,-3.1269441742730375e-13 l 3.453634555119162e-13,-19.04761904761096 l 3.453634555119162e-13,-19.04761904761096 l -19.04761904761096,-3.1269441742730375e-13 l -19.04761904761096,-3.1269441742730375e-13 l 3.453634555119162e-13,-19.04761904761096 l -19.04761904761096,-3.1269441742730375e-13 l 3.453634555119162e-13,-19.04761904761096 l 19.04761904761096,3.780324935965287e-13 l 19.04761904761096,3.780324935965287e-13 l -4.1070153168114117e-13,19.04761904761096 l -4.1070153168114117e-13,19.04761904761096 l -19.04761904761096,-4.433705697657536e-13 l -4.1070153168114117e-13,19.04761904761096 l -19.04761904761096,-4.433705697657536e-13 l 4.760396078503661e-13,-19.04761904761096 l 4.760396078503661e-13,-19.04761904761096 l 19.04761904761096,5.087086459349786e-13 l 19.04761904761096,5.087086459349786e-13 l -5.413776840195911e-13,19.04761904761096 l 19.04761904761096,5.087086459349786e-13 l -5.413776840195911e-13,19.04761904761096 l -19.04761904761096,-5.740467221042035e-13 l -19.04761904761096,-5.740467221042035e-13 l -19.04761904761096,-5.740467221042035e-13 l -19.04761904761096,-5.740467221042035e-13 l 6.06715760188816e-13,-19.04761904761096 l -19.04761904761096,-5.740467221042035e-13 l 6.06715760188816e-13,-19.04761904761096 l 19.04761904761096,6.393847982734285e-13 l 19.04761904761096,6.393847982734285e-13 l -6.72053836358041e-13,19.04761904761096 l -6.72053836358041e-13,19.04761904761096 l -19.04761904761096,-7.047228744426534e-13 l -6.72053836358041e-13,19.04761904761096 l -19.04761904761096,-7.047228744426534e-13 l 7.373919125272659e-13,-19.04761904761096 l 7.373919125272659e-13,-19.04761904761096 l 7.373919125272659e-13,-19.04761904761096 l 7.373919125272659e-13,-19.04761904761096 l 19.04761904761096,7.700609506118784e-13 l 7.373919125272659e-13,-19.04761904761096 l 19.04761904761096,7.700609506118784e-13 l -8.027299886964909e-13,19.04761904761096 l -8.027299886964909e-13,19.04761904761096 l -19.04761904761096,-8.353990267811032e-13 l -19.04761904761096,-8.353990267811032e-13 l 8.680680648657157e-13,-19.04761904761096 l -19.04761904761096,-8.353990267811032e-13 l 8.680680648657157e-13,-19.04761904761096 l 19.04761904761096,9.007371029503282e-13 l 19.04761904761096,9.007371029503282e-13 l 8.680680648657157e-13,-19.04761904761096 l 8.680680648657157e-13,-19.04761904761096 l 19.04761904761096,9.007371029503282e-13 l 8.680680648657157e-13,-19.04761904761096 l 19.04761904761096,9.007371029503282e-13 l -9.334061410349405e-13,19.04761904761096 l -9.334061410349405e-13,19.04761904761096 l -19.04761904761096,-8.307337056414962e-13 l -19.04761904761096,-8.307337056414962e-13 l 7.280612702480518e-13,-19.04761904761096 l -19.04761904761096,-8.307337056414962e-13 l 7.280612702480518e-13,-19.04761904761096 l 19.04761904761096,6.253888348546075e-13 l 19.04761904761096,6.253888348546075e-13 l -5.227163994611631e-13,19.04761904761096 l -5.227163994611631e-13,19.04761904761096 l -19.04761904761096,-4.200439640677187e-13 l -5.227163994611631e-13,19.04761904761096 l -19.04761904761096,-4.200439640677187e-13 l 3.1737152867427434e-13,-19.04761904761096 l 3.1737152867427434e-13,-19.04761904761096 l 3.1737152867427434e-13,-19.04761904761096 l 3.1737152867427434e-13,-19.04761904761096 l 19.04761904761096,2.146990932808299e-13 l 3.1737152867427434e-13,-19.04761904761096 l 19.04761904761096,2.146990932808299e-13 l -1.1202665788738554e-13,19.04761904761096 l -1.1202665788738554e-13,19.04761904761096 l 19.04761904761096,2.146990932808299e-13 l 19.04761904761096,2.146990932808299e-13 l -1.1202665788738554e-13,19.04761904761096 l 19.04761904761096,2.146990932808299e-13 l -1.1202665788738554e-13,19.04761904761096 l -19.04761904761096,-9.354222493941133e-15 l -19.04761904761096,-9.354222493941133e-15 l -19.04761904761096,-9.354222493941133e-15 l -19.04761904761096,-9.354222493941133e-15 l -9.331821289950326e-14,-19.04761904761096 l -19.04761904761096,-9.354222493941133e-15 l -9.331821289950326e-14,-19.04761904761096 l 19.04761904761096,-1.9599064829294767e-13 l 19.04761904761096,-1.9599064829294767e-13 l 2.98663083686392e-13,19.04761904761096 l 2.98663083686392e-13,19.04761904761096 l -19.04761904761096,4.013355190798364e-13 l 2.98663083686392e-13,19.04761904761096 l -19.04761904761096,4.013355190798364e-13 l -5.040079544732808e-13,-19.04761904761096 l -5.040079544732808e-13,-19.04761904761096 l -19.04761904761096,4.013355190798364e-13 l -19.04761904761096,4.013355190798364e-13 l -5.040079544732808e-13,-19.04761904761096 l -19.04761904761096,4.013355190798364e-13 l -5.040079544732808e-13,-19.04761904761096 l 19.04761904761096,-6.066803898667253e-13 l 19.04761904761096,-6.066803898667253e-13 l 7.093528252601696e-13,19.04761904761096 l 7.093528252601696e-13,19.04761904761096 l -19.04761904761096,8.12025260653614e-13 l 7.093528252601696e-13,19.04761904761096 l -19.04761904761096,8.12025260653614e-13 l -9.146976960470584e-13,-19.04761904761096 l -9.146976960470584e-13,-19.04761904761096 l 19.04761904761096,-1.0173701314405028e-12 l 19.04761904761096,-1.0173701314405028e-12 l 1.1200425668339472e-12,19.04761904761096 l 19.04761904761096,-1.0173701314405028e-12 l 1.1200425668339472e-12,19.04761904761096 l -19.04761904761096,1.2227150022273914e-12 l -19.04761904761096,1.2227150022273914e-12 l -19.04761904761096,1.2227150022273914e-12 l -19.04761904761096,1.2227150022273914e-12 l -1.3253874376208358e-12,-19.04761904761096 l -19.04761904761096,1.2227150022273914e-12 l -1.3253874376208358e-12,-19.04761904761096 l 19.04761904761096,-1.4280598730142802e-12 l 19.04761904761096,-1.4280598730142802e-12 l 1.5307323084077247e-12,19.04761904761096 l 1.5307323084077247e-12,19.04761904761096 l -19.04761904761096,1.633404743801169e-12 l 1.5307323084077247e-12,19.04761904761096 l -19.04761904761096,1.633404743801169e-12 l -1.7360771791946135e-12,-19.04761904761096 l -1.7360771791946135e-12,-19.04761904761096 l -1.7360771791946135e-12,-19.04761904761096 l -1.7360771791946135e-12,-19.04761904761096 l 19.04761904761096,-1.8387496145880577e-12 l -1.7360771791946135e-12,-19.04761904761096 l 19.04761904761096,-1.8387496145880577e-12 l 1.9414220499815023e-12,19.04761904761096 l 1.9414220499815023e-12,19.04761904761096 l -19.04761904761096,2.0440944853749465e-12 l -19.04761904761096,2.0440944853749465e-12 l -2.146766920768391e-12,-19.04761904761096 l -19.04761904761096,2.0440944853749465e-12 l -2.146766920768391e-12,-19.04761904761096 l 19.04761904761096,-2.2494393561618354e-12 l 19.04761904761096,-2.2494393561618354e-12 l -2.146766920768391e-12,-19.04761904761096 l -2.146766920768391e-12,-19.04761904761096 l 19.04761904761096,-2.2494393561618354e-12 l -2.146766920768391e-12,-19.04761904761096 l 19.04761904761096,-2.2494393561618354e-12 l 2.35211179155528e-12,19.04761904761096 l 2.35211179155528e-12,19.04761904761096 l -19.04761904761096,2.4547842269487242e-12 l -19.04761904761096,2.4547842269487242e-12 l -2.557456662342169e-12,-19.04761904761096 l -19.04761904761096,2.4547842269487242e-12 l -2.557456662342169e-12,-19.04761904761096 l 19.04761904761096,-2.660129097735613e-12 l 19.04761904761096,-2.660129097735613e-12 l 2.7628015331290577e-12,19.04761904761096 l 2.7628015331290577e-12,19.04761904761096 l -19.04761904761096,2.865473968522502e-12 l 2.7628015331290577e-12,19.04761904761096 l -19.04761904761096,2.865473968522502e-12 l -2.9681464039159465e-12,-19.04761904761096 l -2.9681464039159465e-12,-19.04761904761096 l -2.9681464039159465e-12,-19.04761904761096 l -2.9681464039159465e-12,-19.04761904761096 l 19.04761904761096,-3.0708188393093907e-12 l -2.9681464039159465e-12,-19.04761904761096 l 19.04761904761096,-3.0708188393093907e-12 l 3.1734912747028353e-12,19.04761904761096 l 3.1734912747028353e-12,19.04761904761096 l -19.04761904761096,3.0054807631401658e-12 l -19.04761904761096,3.0054807631401658e-12 l -3.1081531985336104e-12,-19.04761904761096 l -19.04761904761096,3.0054807631401658e-12 l -3.1081531985336104e-12,-19.04761904761096 l 19.04761904761096,-3.2108256339270546e-12 l 19.04761904761096,-3.2108256339270546e-12 l 19.04761904761096,-3.2108256339270546e-12 l 19.04761904761096,-3.2108256339270546e-12 l 3.3134980693204992e-12,19.04761904761096 l 19.04761904761096,-3.2108256339270546e-12 l 3.3134980693204992e-12,19.04761904761096 l -19.04761904761096,3.416170504713943e-12 l -19.04761904761096,3.416170504713943e-12 l -3.518842940107388e-12,-19.04761904761096 l -3.518842940107388e-12,-19.04761904761096 l 19.04761904761096,-3.621515375500832e-12 l -3.518842940107388e-12,-19.04761904761096 l 19.04761904761096,-3.621515375500832e-12 l 3.7241878108942765e-12,19.04761904761096 l 3.7241878108942765e-12,19.04761904761096 l 19.04761904761096,-3.621515375500832e-12 l 19.04761904761096,-3.621515375500832e-12 l 3.7241878108942765e-12,19.04761904761096 l 19.04761904761096,-3.621515375500832e-12 l 3.7241878108942765e-12,19.04761904761096 l -19.04761904761096,3.826860246287721e-12 l -19.04761904761096,3.826860246287721e-12 l -3.929532681681166e-12,-19.04761904761096 l -3.929532681681166e-12,-19.04761904761096 l 19.04761904761096,-4.03220511707461e-12 l -3.929532681681166e-12,-19.04761904761096 l 19.04761904761096,-4.03220511707461e-12 l 4.134877552468054e-12,19.04761904761096 l 4.134877552468054e-12,19.04761904761096 l -19.04761904761096,4.237549987861498e-12 l -19.04761904761096,4.237549987861498e-12 l -4.3402224232549426e-12,-19.04761904761096 l -19.04761904761096,4.237549987861498e-12 l -4.3402224232549426e-12,-19.04761904761096 l 19.04761904761096,-4.442894858648387e-12 l 19.04761904761096,-4.442894858648387e-12 l 19.04761904761096,-4.442894858648387e-12 l 19.04761904761096,-4.442894858648387e-12 l 4.545567294041832e-12,19.04761904761096 l 19.04761904761096,-4.442894858648387e-12 l 4.545567294041832e-12,19.04761904761096 l -19.04761904761096,4.648239729435276e-12 l -19.04761904761096,4.648239729435276e-12 l -19.04761904761096,4.648239729435276e-12 l -19.04761904761096,4.648239729435276e-12 l -4.75091216482872e-12,-19.04761904761096 l -19.04761904761096,4.648239729435276e-12 l -4.75091216482872e-12,-19.04761904761096 l 19.04761904761096,-4.8535846002221645e-12 l 19.04761904761096,-4.8535846002221645e-12 l 19.04761904761096,-4.8535846002221645e-12 l 19.04761904761096,-4.8535846002221645e-12 l 4.9562570356156095e-12,19.04761904761096 l 19.04761904761096,-4.8535846002221645e-12 l 4.9562570356156095e-12,19.04761904761096 l -19.04761904761096,5.058929471009054e-12 l -19.04761904761096,5.058929471009054e-12 l -5.161601906402498e-12,-19.04761904761096 l -5.161601906402498e-12,-19.04761904761096 l 19.04761904761096,-5.264274341795942e-12 l -5.161601906402498e-12,-19.04761904761096 l 19.04761904761096,-5.264274341795942e-12 l 5.366946777189387e-12,19.04761904761096 l 5.366946777189387e-12,19.04761904761096 l 19.04761904761096,-5.264274341795942e-12 l 19.04761904761096,-5.264274341795942e-12 l 5.366946777189387e-12,19.04761904761096 l 19.04761904761096,-5.264274341795942e-12 l 5.366946777189387e-12,19.04761904761096 l -19.04761904761096,5.469619212582831e-12 l -19.04761904761096,5.469619212582831e-12 l -5.5722916479762756e-12,-19.04761904761096 l -5.5722916479762756e-12,-19.04761904761096 l 19.04761904761096,-5.67496408336972e-12 l -5.5722916479762756e-12,-19.04761904761096 l 19.04761904761096,-5.67496408336972e-12 l 5.777636518763165e-12,19.04761904761096 l 5.777636518763165e-12,19.04761904761096 l -19.04761904761096,5.880308954156609e-12 l -19.04761904761096,5.880308954156609e-12 l -5.9829813895500525e-12,-19.04761904761096 l -19.04761904761096,5.880308954156609e-12 l -5.9829813895500525e-12,-19.04761904761096 l 19.04761904761096,-6.0856538249434975e-12 l 19.04761904761096,-6.0856538249434975e-12 l 19.04761904761096,-6.0856538249434975e-12 l 19.04761904761096,-6.0856538249434975e-12 l 6.188326260336942e-12,19.04761904761096 l 19.04761904761096,-6.0856538249434975e-12 l 6.188326260336942e-12,19.04761904761096 l -19.04761904761096,6.290998695730387e-12 l -19.04761904761096,6.290998695730387e-12 l -6.39367113112383e-12,-19.04761904761096 l -6.39367113112383e-12,-19.04761904761096 l 19.04761904761096,-6.496343566517275e-12 l -6.39367113112383e-12,-19.04761904761096 l 19.04761904761096,-6.496343566517275e-12 l 6.599016001910719e-12,19.04761904761096 l 6.599016001910719e-12,19.04761904761096 l 6.599016001910719e-12,19.04761904761096 l 6.599016001910719e-12,19.04761904761096 l -19.04761904761096,6.701688437304164e-12 l 6.599016001910719e-12,19.04761904761096 l -19.04761904761096,6.701688437304164e-12 l -6.804360872697608e-12,-19.04761904761096 l -6.804360872697608e-12,-19.04761904761096 l 19.04761904761096,-6.907033308091053e-12 l 19.04761904761096,-6.907033308091053e-12 l 7.009705743484497e-12,19.04761904761096 l 19.04761904761096,-6.907033308091053e-12 l 7.009705743484497e-12,19.04761904761096 l -19.04761904761096,7.112378178877942e-12 l -19.04761904761096,7.112378178877942e-12 l 7.009705743484497e-12,19.04761904761096 l 7.009705743484497e-12,19.04761904761096 l -19.04761904761096,7.112378178877942e-12 l 7.009705743484497e-12,19.04761904761096 l -19.04761904761096,7.112378178877942e-12 l -7.2150506142713855e-12,-19.04761904761096 l -7.2150506142713855e-12,-19.04761904761096 l 19.04761904761096,-7.31772304966483e-12 l 19.04761904761096,-7.31772304966483e-12 l 7.420395485058276e-12,19.04761904761096 l 19.04761904761096,-7.31772304966483e-12 l 7.420395485058276e-12,19.04761904761096 l -19.04761904761096,7.52306792045172e-12 l -19.04761904761096,7.52306792045172e-12 l -7.625740355845162e-12,-19.04761904761096 l -7.625740355845162e-12,-19.04761904761096 l 19.04761904761096,-7.728412791238608e-12 l -7.625740355845162e-12,-19.04761904761096 l 19.04761904761096,-7.728412791238608e-12 l 7.831085226632052e-12,19.04761904761096 l 7.831085226632052e-12,19.04761904761096 l 7.831085226632052e-12,19.04761904761096 l 7.831085226632052e-12,19.04761904761096 l -19.04761904761096,7.933757662025497e-12 l 7.831085226632052e-12,19.04761904761096 l -19.04761904761096,7.933757662025497e-12 l -8.03643009741894e-12,-19.04761904761096 l -8.03643009741894e-12,-19.04761904761096 l -8.03643009741894e-12,-19.04761904761096 l -8.03643009741894e-12,-19.04761904761096 l 19.04761904761096,-8.139102532812385e-12 l -8.03643009741894e-12,-19.04761904761096 l 19.04761904761096,-8.139102532812385e-12 l 8.24177496820583e-12,19.04761904761096 l 8.24177496820583e-12,19.04761904761096 l 8.24177496820583e-12,19.04761904761096 l 8.24177496820583e-12,19.04761904761096 l -19.04761904761096,8.344447403599275e-12 l 8.24177496820583e-12,19.04761904761096 l -19.04761904761096,8.344447403599275e-12 l -8.447119838992718e-12,-19.04761904761096 l -8.447119838992718e-12,-19.04761904761096 l 19.04761904761096,-8.549792274386163e-12 l 19.04761904761096,-8.549792274386163e-12 l 8.652464709779608e-12,19.04761904761096 l 19.04761904761096,-8.549792274386163e-12 l 8.652464709779608e-12,19.04761904761096 l -19.04761904761096,8.755137145173052e-12 l -19.04761904761096,8.755137145173052e-12 l 8.652464709779608e-12,19.04761904761096 l 8.652464709779608e-12,19.04761904761096 l -19.04761904761096,8.755137145173052e-12 l 8.652464709779608e-12,19.04761904761096 l -19.04761904761096,8.755137145173052e-12 l -8.857809580566496e-12,-19.04761904761096 l -8.857809580566496e-12,-19.04761904761096 l 19.04761904761096,-8.960482015959942e-12 l 19.04761904761096,-8.960482015959942e-12 l 9.063154451353385e-12,19.04761904761096 l 19.04761904761096,-8.960482015959942e-12 l 9.063154451353385e-12,19.04761904761096 l -19.04761904761096,9.165826886746829e-12 l -19.04761904761096,9.165826886746829e-12 l -9.268499322140273e-12,-19.04761904761096 l -9.268499322140273e-12,-19.04761904761096 l 19.04761904761096,-9.371171757533719e-12 l -9.268499322140273e-12,-19.04761904761096 l 19.04761904761096,-9.371171757533719e-12 l 9.473844192927163e-12,19.04761904761096 l 9.473844192927163e-12,19.04761904761096 l 9.473844192927163e-12,19.04761904761096 l 9.473844192927163e-12,19.04761904761096 l -19.04761904761096,9.576516628320607e-12 l 9.473844192927163e-12,19.04761904761096 l -19.04761904761096,9.576516628320607e-12 l -9.679189063714051e-12,-19.04761904761096 l -9.679189063714051e-12,-19.04761904761096 l 19.04761904761096,-9.781861499107497e-12 l 19.04761904761096,-9.781861499107497e-12 l 9.884533934500942e-12,19.04761904761096 l 19.04761904761096,-9.781861499107497e-12 l 9.884533934500942e-12,19.04761904761096 l -19.04761904761096,9.987206369894384e-12 l -19.04761904761096,9.987206369894384e-12 l -19.04761904761096,9.987206369894384e-12 l -19.04761904761096,9.987206369894384e-12 l -1.0089878805287828e-11,-19.04761904761096 l -19.04761904761096,9.987206369894384e-12 l -1.0089878805287828e-11,-19.04761904761096 l 19.04761904761096,-1.0192551240681273e-11 l 19.04761904761096,-1.0192551240681273e-11 l 1.0295223676074718e-11,19.04761904761096 l 1.0295223676074718e-11,19.04761904761096 l -19.04761904761096,1.0397896111468163e-11 l 1.0295223676074718e-11,19.04761904761096 l -19.04761904761096,1.0397896111468163e-11 l -1.0500568546861607e-11,-19.04761904761096 l -1.0500568546861607e-11,-19.04761904761096 l -19.04761904761096,1.0397896111468163e-11 l -19.04761904761096,1.0397896111468163e-11 l -1.0500568546861607e-11,-19.04761904761096 l -19.04761904761096,1.0397896111468163e-11 l -1.0500568546861607e-11,-19.04761904761096 l 19.04761904761096,-1.0603240982255051e-11 l 19.04761904761096,-1.0603240982255051e-11 l 1.0705913417648497e-11,19.04761904761096 l 1.0705913417648497e-11,19.04761904761096 l -19.04761904761096,1.080858585304194e-11 l 1.0705913417648497e-11,19.04761904761096 l -19.04761904761096,1.080858585304194e-11 l -1.0911258288435384e-11,-19.04761904761096 l -1.0911258288435384e-11,-19.04761904761096 l 19.04761904761096,-1.1013930723828828e-11 l 19.04761904761096,-1.1013930723828828e-11 l 1.1116603159222274e-11,19.04761904761096 l 19.04761904761096,-1.1013930723828828e-11 l 1.1116603159222274e-11,19.04761904761096 l -19.04761904761096,1.1219275594615718e-11 l -19.04761904761096,1.1219275594615718e-11 l -19.04761904761096,1.1219275594615718e-11 l -19.04761904761096,1.1219275594615718e-11 l -1.1321948030009162e-11,-19.04761904761096 l -19.04761904761096,1.1219275594615718e-11 l -1.1321948030009162e-11,-19.04761904761096 l 19.04761904761096,-1.1424620465402606e-11 l 19.04761904761096,-1.1424620465402606e-11 l -1.1321948030009162e-11,-19.04761904761096 l -1.1321948030009162e-11,-19.04761904761096 l 19.04761904761096,-1.1424620465402606e-11 l -1.1321948030009162e-11,-19.04761904761096 l 19.04761904761096,-1.1424620465402606e-11 l 1.1527292900796052e-11,19.04761904761096 l 1.1527292900796052e-11,19.04761904761096 l 1.1527292900796052e-11,19.04761904761096 l 1.1527292900796052e-11,19.04761904761096 l -19.04761904761096,1.1629965336189495e-11 l 1.1527292900796052e-11,19.04761904761096 l -19.04761904761096,1.1629965336189495e-11 l -1.1732637771582939e-11,-19.04761904761096 l -1.1732637771582939e-11,-19.04761904761096 l 19.04761904761096,-1.1835310206976383e-11 l 19.04761904761096,-1.1835310206976383e-11 l 1.1937982642369827e-11,19.04761904761096 l 19.04761904761096,-1.1835310206976383e-11 l 1.1937982642369827e-11,19.04761904761096 l -19.04761904761096,1.2040655077763273e-11 l -19.04761904761096,1.2040655077763273e-11 l 1.1937982642369827e-11,19.04761904761096 l 1.1937982642369827e-11,19.04761904761096 l -19.04761904761096,1.2040655077763273e-11 l 1.1937982642369827e-11,19.04761904761096 l -19.04761904761096,1.2040655077763273e-11 l -1.2143327513156717e-11,-19.04761904761096 l -1.2143327513156717e-11,-19.04761904761096 l 19.04761904761096,-1.2245999948550162e-11 l 19.04761904761096,-1.2245999948550162e-11 l 1.2348672383943606e-11,19.04761904761096 l 19.04761904761096,-1.2245999948550162e-11 l 1.2348672383943606e-11,19.04761904761096 l -19.04761904761096,1.245134481933705e-11 l -19.04761904761096,1.245134481933705e-11 l -1.2554017254730494e-11,-19.04761904761096 l -1.2554017254730494e-11,-19.04761904761096 l 19.04761904761096,-1.2656689690123939e-11 l -1.2554017254730494e-11,-19.04761904761096 l 19.04761904761096,-1.2656689690123939e-11 l 1.2759362125517383e-11,19.04761904761096 l 1.2759362125517383e-11,19.04761904761096 l 1.2759362125517383e-11,19.04761904761096 l 1.2759362125517383e-11,19.04761904761096 l -19.04761904761096,1.2862034560910829e-11 l 1.2759362125517383e-11,19.04761904761096 l -19.04761904761096,1.2862034560910829e-11 l -1.2964706996304273e-11,-19.04761904761096 l -1.2964706996304273e-11,-19.04761904761096 l 19.04761904761096,-1.3067379431697717e-11 l 19.04761904761096,-1.3067379431697717e-11 l 1.3170051867091161e-11,19.04761904761096 l 19.04761904761096,-1.3067379431697717e-11 l 1.3170051867091161e-11,19.04761904761096 l -19.04761904761096,1.3272724302484604e-11 l -19.04761904761096,1.3272724302484604e-11 l -19.04761904761096,1.3272724302484604e-11 l -19.04761904761096,1.3272724302484604e-11 l -1.337539673787805e-11,-19.04761904761096 l -19.04761904761096,1.3272724302484604e-11 l -1.337539673787805e-11,-19.04761904761096 l 19.04761904761096,-1.3478069173271494e-11 l 19.04761904761096,-1.3478069173271494e-11 l 1.3580741608664938e-11,19.04761904761096 l 1.3580741608664938e-11,19.04761904761096 l -19.04761904761096,1.3683414044058382e-11 l 1.3580741608664938e-11,19.04761904761096 l -19.04761904761096,1.3683414044058382e-11 l -1.3786086479451828e-11,-19.04761904761096 l -1.3786086479451828e-11,-19.04761904761096 l -19.04761904761096,1.3683414044058382e-11 l -19.04761904761096,1.3683414044058382e-11 l -1.3786086479451828e-11,-19.04761904761096 l -19.04761904761096,1.3683414044058382e-11 l -1.3786086479451828e-11,-19.04761904761096 l 19.04761904761096,-1.3888758914845272e-11 l 19.04761904761096,-1.3888758914845272e-11 l 1.3991431350238717e-11,19.04761904761096 l 1.3991431350238717e-11,19.04761904761096 l -19.04761904761096,1.4094103785632159e-11 l 1.3991431350238717e-11,19.04761904761096 l -19.04761904761096,1.4094103785632159e-11 l -1.4196776221025605e-11,-19.04761904761096 l -1.4196776221025605e-11,-19.04761904761096 l 19.04761904761096,-1.429944865641905e-11 l 19.04761904761096,-1.429944865641905e-11 l 1.4402121091812493e-11,19.04761904761096 l 19.04761904761096,-1.429944865641905e-11 l 1.4402121091812493e-11,19.04761904761096 l -19.04761904761096,1.4504793527205938e-11 l -19.04761904761096,1.4504793527205938e-11 l -19.04761904761096,1.4504793527205938e-11 l -19.04761904761096,1.4504793527205938e-11 l -1.4607465962599383e-11,-19.04761904761096 l -19.04761904761096,1.4504793527205938e-11 l -1.4607465962599383e-11,-19.04761904761096 l 19.04761904761096,-1.4710138397992826e-11 l 19.04761904761096,-1.4710138397992826e-11 l 1.4812810833386272e-11,19.04761904761096 l 1.4812810833386272e-11,19.04761904761096 l -19.04761904761096,1.4915483268779715e-11 l 1.4812810833386272e-11,19.04761904761096 l -19.04761904761096,1.4915483268779715e-11 l -1.501815570417316e-11,-19.04761904761096 l -1.501815570417316e-11,-19.04761904761096 l -1.501815570417316e-11,-19.04761904761096 l -1.501815570417316e-11,-19.04761904761096 l 19.04761904761096,-1.5120828139566603e-11 l -1.501815570417316e-11,-19.04761904761096 l 19.04761904761096,-1.5120828139566603e-11 l 1.522350057496005e-11,19.04761904761096 l 1.522350057496005e-11,19.04761904761096 l -19.04761904761096,1.5326173010353495e-11 l -19.04761904761096,1.5326173010353495e-11 l -1.5428845445746937e-11,-19.04761904761096 l -19.04761904761096,1.5326173010353495e-11 l -1.5428845445746937e-11,-19.04761904761096 l 19.04761904761096,-1.5531517881140383e-11 l 19.04761904761096,-1.5531517881140383e-11 l -1.5428845445746937e-11,-19.04761904761096 l -1.5428845445746937e-11,-19.04761904761096 l 19.04761904761096,-1.5531517881140383e-11 l -1.5428845445746937e-11,-19.04761904761096 l 19.04761904761096,-1.5531517881140383e-11 l 1.5634190316533826e-11,19.04761904761096 l 1.5634190316533826e-11,19.04761904761096 l -19.04761904761096,1.573686275192727e-11 l -19.04761904761096,1.573686275192727e-11 l -1.5839535187320714e-11,-19.04761904761096 l -19.04761904761096,1.573686275192727e-11 l -1.5839535187320714e-11,-19.04761904761096 l 19.04761904761096,-1.594220762271416e-11 l 19.04761904761096,-1.594220762271416e-11 l 1.6044880058107603e-11,19.04761904761096 l 1.6044880058107603e-11,19.04761904761096 l -19.04761904761096,1.6147552493501048e-11 l 1.6044880058107603e-11,19.04761904761096 l -19.04761904761096,1.6147552493501048e-11 l -1.6250224928894494e-11,-19.04761904761096 l -1.6250224928894494e-11,-19.04761904761096 l -1.6250224928894494e-11,-19.04761904761096 l -1.6250224928894494e-11,-19.04761904761096 l 19.04761904761096,-1.6352897364287937e-11 l -1.6250224928894494e-11,-19.04761904761096 l 19.04761904761096,-1.6352897364287937e-11 l 1.6455569799681383e-11,19.04761904761096 l 1.6455569799681383e-11,19.04761904761096 l 1.6455569799681383e-11,19.04761904761096 l 1.6455569799681383e-11,19.04761904761096 l -19.04761904761096,1.6558242235074825e-11 l 1.6455569799681383e-11,19.04761904761096 l -19.04761904761096,1.6558242235074825e-11 l -1.666091467046827e-11,-19.04761904761096 l -1.666091467046827e-11,-19.04761904761096 l -1.666091467046827e-11,-19.04761904761096 l -1.666091467046827e-11,-19.04761904761096 l 19.04761904761096,-1.6763587105861714e-11 l -1.666091467046827e-11,-19.04761904761096 l 19.04761904761096,-1.6763587105861714e-11 l 1.686625954125516e-11,19.04761904761096 l 1.686625954125516e-11,19.04761904761096 l -19.04761904761096,1.6968931976648602e-11 l -19.04761904761096,1.6968931976648602e-11 l -1.7071604412042048e-11,-19.04761904761096 l -19.04761904761096,1.6968931976648602e-11 l -1.7071604412042048e-11,-19.04761904761096 l 19.04761904761096,-1.7174276847435494e-11 l 19.04761904761096,-1.7174276847435494e-11 l -1.7071604412042048e-11,-19.04761904761096 l -1.7071604412042048e-11,-19.04761904761096 l 19.04761904761096,-1.7174276847435494e-11 l -1.7071604412042048e-11,-19.04761904761096 l 19.04761904761096,-1.7174276847435494e-11 l 1.7276949282828936e-11,19.04761904761096 l 1.7276949282828936e-11,19.04761904761096 l -19.04761904761096,1.737962171822238e-11 l -19.04761904761096,1.737962171822238e-11 l -1.7482294153615828e-11,-19.04761904761096 l -19.04761904761096,1.737962171822238e-11 l -1.7482294153615828e-11,-19.04761904761096 l 19.04761904761096,-1.758496658900927e-11 l 19.04761904761096,-1.758496658900927e-11 l 1.7687639024402716e-11,19.04761904761096 l 1.7687639024402716e-11,19.04761904761096 l -19.04761904761096,1.779031145979616e-11 l 1.7687639024402716e-11,19.04761904761096 l -19.04761904761096,1.779031145979616e-11 l -1.7892983895189602e-11,-19.04761904761096 l -1.7892983895189602e-11,-19.04761904761096 l -1.7892983895189602e-11,-19.04761904761096 l -1.7892983895189602e-11,-19.04761904761096 l 19.04761904761096,-1.7995656330583047e-11 l -1.7892983895189602e-11,-19.04761904761096 l 19.04761904761096,-1.7995656330583047e-11 l 1.809832876597649e-11,19.04761904761096 l 1.809832876597649e-11,19.04761904761096 l -19.04761904761096,1.8201001201369936e-11 l -19.04761904761096,1.8201001201369936e-11 l -1.830367363676338e-11,-19.04761904761096 l -19.04761904761096,1.8201001201369936e-11 l -1.830367363676338e-11,-19.04761904761096 l 19.04761904761096,-1.8406346072156828e-11 l 19.04761904761096,-1.8406346072156828e-11 l 19.04761904761096,-1.8406346072156828e-11 l 19.04761904761096,-1.8406346072156828e-11 l 1.850901850755027e-11,19.04761904761096 l 19.04761904761096,-1.8406346072156828e-11 l 1.850901850755027e-11,19.04761904761096 l -19.04761904761096,1.8611690942943713e-11 l -19.04761904761096,1.8611690942943713e-11 l -1.871436337833716e-11,-19.04761904761096 l -1.871436337833716e-11,-19.04761904761096 l 19.04761904761096,-1.88170358137306e-11 l -1.871436337833716e-11,-19.04761904761096 l 19.04761904761096,-1.88170358137306e-11 l 1.8919708249124047e-11,19.04761904761096 l 1.8919708249124047e-11,19.04761904761096 l 19.04761904761096,-1.88170358137306e-11 l 19.04761904761096,-1.88170358137306e-11 l 1.8919708249124047e-11,19.04761904761096 l 19.04761904761096,-1.88170358137306e-11 l 1.8919708249124047e-11,19.04761904761096 l -19.04761904761096,1.902238068451749e-11 l -19.04761904761096,1.902238068451749e-11 l -1.912505311991094e-11,-19.04761904761096 l -1.912505311991094e-11,-19.04761904761096 l 19.04761904761096,-1.922772555530438e-11 l -1.912505311991094e-11,-19.04761904761096 l 19.04761904761096,-1.922772555530438e-11 l 1.9330397990697827e-11,19.04761904761096 l 1.9330397990697827e-11,19.04761904761096 l -19.04761904761096,1.943307042609127e-11 l -19.04761904761096,1.943307042609127e-11 l -1.9535742861484712e-11,-19.04761904761096 l -19.04761904761096,1.943307042609127e-11 l -1.9535742861484712e-11,-19.04761904761096 l 19.04761904761096,-1.9638415296878158e-11 l 19.04761904761096,-1.9638415296878158e-11 l 19.04761904761096,-1.9638415296878158e-11 l 19.04761904761096,-1.9638415296878158e-11 l 1.97410877322716e-11,19.04761904761096 l 19.04761904761096,-1.9638415296878158e-11 l 1.97410877322716e-11,19.04761904761096 l -19.04761904761096,1.9843760167665047e-11 l -19.04761904761096,1.9843760167665047e-11 l -19.04761904761096,1.9843760167665047e-11 l -19.04761904761096,1.9843760167665047e-11 l -1.994643260305849e-11,-19.04761904761096 l -19.04761904761096,1.9843760167665047e-11 l -1.994643260305849e-11,-19.04761904761096 l 19.04761904761096,-2.0049105038451938e-11 l 19.04761904761096,-2.0049105038451938e-11 l 19.04761904761096,-2.0049105038451938e-11 l 19.04761904761096,-2.0049105038451938e-11 l 2.015177747384538e-11,19.04761904761096 l 19.04761904761096,-2.0049105038451938e-11 l 2.015177747384538e-11,19.04761904761096 l -19.04761904761096,2.0254449909238823e-11 l -19.04761904761096,2.0254449909238823e-11 l -2.035712234463227e-11,-19.04761904761096 l -2.035712234463227e-11,-19.04761904761096 l 19.04761904761096,-2.0459794780025712e-11 l -2.035712234463227e-11,-19.04761904761096 l 19.04761904761096,-2.0459794780025712e-11 l 2.0562467215419158e-11,19.04761904761096 l 2.0562467215419158e-11,19.04761904761096 l 19.04761904761096,-2.0459794780025712e-11 l 19.04761904761096,-2.0459794780025712e-11 l 2.0562467215419158e-11,19.04761904761096 l 19.04761904761096,-2.0459794780025712e-11 l 2.0562467215419158e-11,19.04761904761096 l -19.04761904761096,2.06651396508126e-11 l -19.04761904761096,2.06651396508126e-11 l -2.0767812086206046e-11,-19.04761904761096 l -2.0767812086206046e-11,-19.04761904761096 l 19.04761904761096,-2.087048452159949e-11 l -2.0767812086206046e-11,-19.04761904761096 l 19.04761904761096,-2.087048452159949e-11 l 2.0973156956992938e-11,19.04761904761096 l 2.0973156956992938e-11,19.04761904761096 l -19.04761904761096,2.107582939238638e-11 l -19.04761904761096,2.107582939238638e-11 l -2.1178501827779823e-11,-19.04761904761096 l -19.04761904761096,2.107582939238638e-11 l -2.1178501827779823e-11,-19.04761904761096 l 19.04761904761096,-2.128117426317327e-11 l 19.04761904761096,-2.128117426317327e-11 l 19.04761904761096,-2.128117426317327e-11 l 19.04761904761096,-2.128117426317327e-11 l 2.138384669856671e-11,19.04761904761096 l 19.04761904761096,-2.128117426317327e-11 l 2.138384669856671e-11,19.04761904761096 l -19.04761904761096,2.1486519133960157e-11 l -19.04761904761096,2.1486519133960157e-11 l -2.15891915693536e-11,-19.04761904761096 l -2.15891915693536e-11,-19.04761904761096 l 19.04761904761096,-2.1691864004747046e-11 l -2.15891915693536e-11,-19.04761904761096 l 19.04761904761096,-2.1691864004747046e-11 l 2.179453644014049e-11,19.04761904761096 l 2.179453644014049e-11,19.04761904761096 l 2.179453644014049e-11,19.04761904761096 l 2.179453644014049e-11,19.04761904761096 l -19.04761904761096,2.1897208875533934e-11 l 2.179453644014049e-11,19.04761904761096 l -19.04761904761096,2.1897208875533934e-11 l -2.199988131092738e-11,-19.04761904761096 l -2.199988131092738e-11,-19.04761904761096 l 19.04761904761096,-2.2102553746320823e-11 l 19.04761904761096,-2.2102553746320823e-11 l 2.2205226181714268e-11,19.04761904761096 l 19.04761904761096,-2.2102553746320823e-11 l 2.2205226181714268e-11,19.04761904761096 l -19.04761904761096,2.230789861710771e-11 l -19.04761904761096,2.230789861710771e-11 l 2.2205226181714268e-11,19.04761904761096 l 2.2205226181714268e-11,19.04761904761096 l -19.04761904761096,2.230789861710771e-11 l 2.2205226181714268e-11,19.04761904761096 l -19.04761904761096,2.230789861710771e-11 l -2.2410571052501157e-11,-19.04761904761096 l -2.2410571052501157e-11,-19.04761904761096 l 19.04761904761096,-2.25132434878946e-11 l 19.04761904761096,-2.25132434878946e-11 l 2.261591592328805e-11,19.04761904761096 l 19.04761904761096,-2.25132434878946e-11 l 2.261591592328805e-11,19.04761904761096 l -19.04761904761096,2.271858835868149e-11 l -19.04761904761096,2.271858835868149e-11 l -2.2821260794074934e-11,-19.04761904761096 l -2.2821260794074934e-11,-19.04761904761096 l 19.04761904761096,-2.292393322946838e-11 l -2.2821260794074934e-11,-19.04761904761096 l 19.04761904761096,-2.292393322946838e-11 l 2.3026605664861822e-11,19.04761904761096 l 2.3026605664861822e-11,19.04761904761096 l 2.3026605664861822e-11,19.04761904761096 l 2.3026605664861822e-11,19.04761904761096 l -19.04761904761096,2.3129278100255268e-11 l 2.3026605664861822e-11,19.04761904761096 l -19.04761904761096,2.3129278100255268e-11 l -2.323195053564871e-11,-19.04761904761096 l -2.323195053564871e-11,-19.04761904761096 l -19.04761904761096,2.3129278100255268e-11 l -19.04761904761096,2.3129278100255268e-11 l -2.323195053564871e-11,-19.04761904761096 l -19.04761904761096,2.3129278100255268e-11 l -2.323195053564871e-11,-19.04761904761096 l 19.04761904761096,-2.3334622971042156e-11 l 19.04761904761096,-2.3334622971042156e-11 l 19.04761904761096,-2.3334622971042156e-11 l 19.04761904761096,-2.3334622971042156e-11 l 2.34372954064356e-11,19.04761904761096 l 19.04761904761096,-2.3334622971042156e-11 l 2.34372954064356e-11,19.04761904761096 l -19.04761904761096,2.353996784182904e-11 l -19.04761904761096,2.353996784182904e-11 l -2.364264027722249e-11,-19.04761904761096 l -2.364264027722249e-11,-19.04761904761096 l 19.04761904761096,-2.3745312712615933e-11 l -2.364264027722249e-11,-19.04761904761096 l 19.04761904761096,-2.3745312712615933e-11 l 2.384798514800938e-11,19.04761904761096 l 2.384798514800938e-11,19.04761904761096 l 19.04761904761096,-2.3745312712615933e-11 l 19.04761904761096,-2.3745312712615933e-11 l 2.384798514800938e-11,19.04761904761096 l 19.04761904761096,-2.3745312712615933e-11 l 2.384798514800938e-11,19.04761904761096 l -19.04761904761096,2.3950657583402822e-11 l -19.04761904761096,2.3950657583402822e-11 l -2.4053330018796267e-11,-19.04761904761096 l -2.4053330018796267e-11,-19.04761904761096 l 19.04761904761096,-2.415600245418971e-11 l -2.4053330018796267e-11,-19.04761904761096 l 19.04761904761096,-2.415600245418971e-11 l 2.4258674889583156e-11,19.04761904761096 l 2.4258674889583156e-11,19.04761904761096 l -19.04761904761096,2.43613473249766e-11 l -19.04761904761096,2.43613473249766e-11 l -2.4464019760370044e-11,-19.04761904761096 l -19.04761904761096,2.43613473249766e-11 l -2.4464019760370044e-11,-19.04761904761096 l 19.04761904761096,-2.456669219576349e-11 l 19.04761904761096,-2.456669219576349e-11 l 19.04761904761096,-2.456669219576349e-11 l 19.04761904761096,-2.456669219576349e-11 l 2.4669364631156933e-11,19.04761904761096 l 19.04761904761096,-2.456669219576349e-11 l 2.4669364631156933e-11,19.04761904761096 l -19.04761904761096,2.477203706655038e-11 l -19.04761904761096,2.477203706655038e-11 l -2.487470950194382e-11,-19.04761904761096 l -2.487470950194382e-11,-19.04761904761096 l 19.04761904761096,-2.4977381937337267e-11 l -2.487470950194382e-11,-19.04761904761096 l 19.04761904761096,-2.4977381937337267e-11 l 2.508005437273071e-11,19.04761904761096 l 2.508005437273071e-11,19.04761904761096 l 2.508005437273071e-11,19.04761904761096 l 2.508005437273071e-11,19.04761904761096 l -19.04761904761096,2.518272680812416e-11 l 2.508005437273071e-11,19.04761904761096 l -19.04761904761096,2.518272680812416e-11 l -2.52853992435176e-11,-19.04761904761096 l -2.52853992435176e-11,-19.04761904761096 l 19.04761904761096,-2.5388071678911044e-11 l 19.04761904761096,-2.5388071678911044e-11 l 2.549074411430449e-11,19.04761904761096 l 19.04761904761096,-2.5388071678911044e-11 l 2.549074411430449e-11,19.04761904761096 l -19.04761904761096,2.5593416549697932e-11 l -19.04761904761096,2.5593416549697932e-11 l 2.549074411430449e-11,19.04761904761096 l 2.549074411430449e-11,19.04761904761096 l -19.04761904761096,2.5593416549697932e-11 l 2.549074411430449e-11,19.04761904761096 l -19.04761904761096,2.5593416549697932e-11 l -2.5696088985091378e-11,-19.04761904761096 l -2.5696088985091378e-11,-19.04761904761096 l 19.04761904761096,-2.579876142048482e-11 l 19.04761904761096,-2.579876142048482e-11 l 2.5901433855878267e-11,19.04761904761096 l 19.04761904761096,-2.579876142048482e-11 l 2.5901433855878267e-11,19.04761904761096 l -19.04761904761096,2.600410629127171e-11 l -19.04761904761096,2.600410629127171e-11 l -2.6106778726665152e-11,-19.04761904761096 l -2.6106778726665152e-11,-19.04761904761096 l 19.04761904761096,-2.62094511620586e-11 l -2.6106778726665152e-11,-19.04761904761096 l 19.04761904761096,-2.62094511620586e-11 l 2.6312123597452043e-11,19.04761904761096 l 2.6312123597452043e-11,19.04761904761096 l 2.6312123597452043e-11,19.04761904761096 l 2.6312123597452043e-11,19.04761904761096 l -19.04761904761096,2.641479603284549e-11 l 2.6312123597452043e-11,19.04761904761096 l -19.04761904761096,2.641479603284549e-11 l -2.6517468468238932e-11,-19.04761904761096 l -2.6517468468238932e-11,-19.04761904761096 l 19.04761904761096,-2.6620140903632378e-11 l 19.04761904761096,-2.6620140903632378e-11 l 2.672281333902582e-11,19.04761904761096 l 19.04761904761096,-2.6620140903632378e-11 l 2.672281333902582e-11,19.04761904761096 l -19.04761904761096,2.6825485774419266e-11 l -19.04761904761096,2.6825485774419266e-11 l -19.04761904761096,2.6825485774419266e-11 l -19.04761904761096,2.6825485774419266e-11 l -2.692815820981271e-11,-19.04761904761096 l -19.04761904761096,2.6825485774419266e-11 l -2.692815820981271e-11,-19.04761904761096 l 19.04761904761096,-2.703083064520615e-11 l 19.04761904761096,-2.703083064520615e-11 l 2.71335030805996e-11,19.04761904761096 l 2.71335030805996e-11,19.04761904761096 l -19.04761904761096,2.7236175515993043e-11 l 2.71335030805996e-11,19.04761904761096 l -19.04761904761096,2.7236175515993043e-11 l -2.733884795138649e-11,-19.04761904761096 l -2.733884795138649e-11,-19.04761904761096 l -19.04761904761096,2.7236175515993043e-11 l -19.04761904761096,2.7236175515993043e-11 l -2.733884795138649e-11,-19.04761904761096 l -19.04761904761096,2.7236175515993043e-11 l -2.733884795138649e-11,-19.04761904761096 l 19.04761904761096,-2.744152038677993e-11 l 19.04761904761096,-2.744152038677993e-11 l 2.7544192822173377e-11,19.04761904761096 l 2.7544192822173377e-11,19.04761904761096 l -19.04761904761096,2.764686525756682e-11 l 2.7544192822173377e-11,19.04761904761096 l -19.04761904761096,2.764686525756682e-11 l -2.7749537692960262e-11,-19.04761904761096 l -2.7749537692960262e-11,-19.04761904761096 l 19.04761904761096,-2.7852210128353708e-11 l 19.04761904761096,-2.7852210128353708e-11 l 2.7954882563747154e-11,19.04761904761096 l 19.04761904761096,-2.7852210128353708e-11 l 2.7954882563747154e-11,19.04761904761096 l -19.04761904761096,2.6974823211316145e-11 l -19.04761904761096,2.6974823211316145e-11 l -19.04761904761096,2.6974823211316145e-11 l -19.04761904761096,2.6974823211316145e-11 l -2.5994763858885132e-11,-19.04761904761096 l -19.04761904761096,2.6974823211316145e-11 l -2.5994763858885132e-11,-19.04761904761096 l 19.04761904761096,-2.5014704506454123e-11 l 19.04761904761096,-2.5014704506454123e-11 l 19.04761904761096,-2.5014704506454123e-11 l 19.04761904761096,-2.5014704506454123e-11 l 2.403464515402311e-11,19.04761904761096 l 19.04761904761096,-2.5014704506454123e-11 l 2.403464515402311e-11,19.04761904761096 l -19.04761904761096,2.3054585801592104e-11 l -19.04761904761096,2.3054585801592104e-11 l -19.04761904761096,2.3054585801592104e-11 l -19.04761904761096,2.3054585801592104e-11 l -2.2074526449161092e-11,-19.04761904761096 l -19.04761904761096,2.3054585801592104e-11 l -2.2074526449161092e-11,-19.04761904761096 l 19.04761904761096,-2.109446709673008e-11 l 19.04761904761096,-2.109446709673008e-11 l 2.011440774429907e-11,19.04761904761096 l 2.011440774429907e-11,19.04761904761096 l -19.04761904761096,1.9134348391868058e-11 l 2.011440774429907e-11,19.04761904761096 l -19.04761904761096,1.9134348391868058e-11 l -1.8154289039437048e-11,-19.04761904761096 l -1.8154289039437048e-11,-19.04761904761096 l -19.04761904761096,1.9134348391868058e-11 l -19.04761904761096,1.9134348391868058e-11 l -1.8154289039437048e-11,-19.04761904761096 l -19.04761904761096,1.9134348391868058e-11 l -1.8154289039437048e-11,-19.04761904761096 l 19.04761904761096,-1.717422968700604e-11 l 19.04761904761096,-1.717422968700604e-11 l 1.6194170334575026e-11,19.04761904761096 l 1.6194170334575026e-11,19.04761904761096 l -19.04761904761096,1.5214110982144017e-11 l 1.6194170334575026e-11,19.04761904761096 l -19.04761904761096,1.5214110982144017e-11 l -1.4234051629713006e-11,-19.04761904761096 l -1.4234051629713006e-11,-19.04761904761096 l 19.04761904761096,-1.3253992277281997e-11 l 19.04761904761096,-1.3253992277281997e-11 l 1.2273932924850986e-11,19.04761904761096 l 19.04761904761096,-1.3253992277281997e-11 l 1.2273932924850986e-11,19.04761904761096 l -19.04761904761096,1.1293873572419975e-11 l -19.04761904761096,1.1293873572419975e-11 l -19.04761904761096,1.1293873572419975e-11 l -19.04761904761096,1.1293873572419975e-11 l -1.0313814219988964e-11,-19.04761904761096 l -19.04761904761096,1.1293873572419975e-11 l -1.0313814219988964e-11,-19.04761904761096 l 19.04761904761096,-9.333754867557953e-12 l 19.04761904761096,-9.333754867557953e-12 l 8.353695515126942e-12,19.04761904761096 l 8.353695515126942e-12,19.04761904761096 l -19.04761904761096,7.373636162695933e-12 l 8.353695515126942e-12,19.04761904761096 l -19.04761904761096,7.373636162695933e-12 l -6.393576810264922e-12,-19.04761904761096 l -6.393576810264922e-12,-19.04761904761096 l -6.393576810264922e-12,-19.04761904761096 l -6.393576810264922e-12,-19.04761904761096 l 19.04761904761096,-5.413517457833912e-12 l -6.393576810264922e-12,-19.04761904761096 l 19.04761904761096,-5.413517457833912e-12 l 4.433458105402901e-12,19.04761904761096 l 4.433458105402901e-12,19.04761904761096 l -19.04761904761096,3.4533987529718906e-12 l -19.04761904761096,3.4533987529718906e-12 l -2.47333940054088e-12,-19.04761904761096 l -19.04761904761096,3.4533987529718906e-12 l -2.47333940054088e-12,-19.04761904761096 l 19.04761904761096,-1.4932800481098694e-12 l 19.04761904761096,-1.4932800481098694e-12 l -2.47333940054088e-12,-19.04761904761096 l -2.47333940054088e-12,-19.04761904761096 l 19.04761904761096,-1.4932800481098694e-12 l -2.47333940054088e-12,-19.04761904761096 l 19.04761904761096,-1.4932800481098694e-12 l 5.13220695678859e-13,19.04761904761096 l 5.13220695678859e-13,19.04761904761096 l -19.04761904761096,-4.668386567521515e-13 l -19.04761904761096,-4.668386567521515e-13 l 1.4468980091831621e-12,-19.04761904761096 l -19.04761904761096,-4.668386567521515e-13 l 1.4468980091831621e-12,-19.04761904761096 l 19.04761904761096,2.426957361614173e-12 l 19.04761904761096,2.426957361614173e-12 l -3.407016714045183e-12,19.04761904761096 l -3.407016714045183e-12,19.04761904761096 l -19.04761904761096,-4.387076066476194e-12 l -3.407016714045183e-12,19.04761904761096 l -19.04761904761096,-4.387076066476194e-12 l 5.367135418907204e-12,-19.04761904761096 l 5.367135418907204e-12,-19.04761904761096 l 5.367135418907204e-12,-19.04761904761096 l 5.367135418907204e-12,-19.04761904761096 l 19.04761904761096,6.347194771338214e-12 l 5.367135418907204e-12,-19.04761904761096 l 19.04761904761096,6.347194771338214e-12 l -7.327254123769226e-12,19.04761904761096 l -7.327254123769226e-12,19.04761904761096 l -7.327254123769226e-12,19.04761904761096 l -7.327254123769226e-12,19.04761904761096 l -19.04761904761096,-8.307313476200235e-12 l -7.327254123769226e-12,19.04761904761096 l -19.04761904761096,-8.307313476200235e-12 l 9.287372828631246e-12,-19.04761904761096 l 9.287372828631246e-12,-19.04761904761096 l 9.287372828631246e-12,-19.04761904761096 l 9.287372828631246e-12,-19.04761904761096 l 19.04761904761096,1.0267432181062257e-11 l 9.287372828631246e-12,-19.04761904761096 l 19.04761904761096,1.0267432181062257e-11 l -1.1247491533493266e-11,19.04761904761096 l -1.1247491533493266e-11,19.04761904761096 l -19.04761904761096,-1.2227550885924277e-11 l -19.04761904761096,-1.2227550885924277e-11 l 1.320761023835529e-11,-19.04761904761096 l -19.04761904761096,-1.2227550885924277e-11 l 1.320761023835529e-11,-19.04761904761096 l 19.04761904761096,1.4187669590786299e-11 l 19.04761904761096,1.4187669590786299e-11 l 1.320761023835529e-11,-19.04761904761096 l 1.320761023835529e-11,-19.04761904761096 l 19.04761904761096,1.4187669590786299e-11 l 1.320761023835529e-11,-19.04761904761096 l 19.04761904761096,1.4187669590786299e-11 l -1.516772894321731e-11,19.04761904761096 l -1.516772894321731e-11,19.04761904761096 l -19.04761904761096,-1.614778829564832e-11 l -19.04761904761096,-1.614778829564832e-11 l 1.7127847648079332e-11,-19.04761904761096 l -19.04761904761096,-1.614778829564832e-11 l 1.7127847648079332e-11,-19.04761904761096 l 19.04761904761096,1.810790700051034e-11 l 19.04761904761096,1.810790700051034e-11 l -1.9087966352941353e-11,19.04761904761096 l -1.9087966352941353e-11,19.04761904761096 l -19.04761904761096,-2.0068025705372363e-11 l -1.9087966352941353e-11,19.04761904761096 l -19.04761904761096,-2.0068025705372363e-11 l 2.1048085057803372e-11,-19.04761904761096 l 2.1048085057803372e-11,-19.04761904761096 l 2.1048085057803372e-11,-19.04761904761096 l 2.1048085057803372e-11,-19.04761904761096 l 19.04761904761096,2.202814441023438e-11 l 2.1048085057803372e-11,-19.04761904761096 l 19.04761904761096,2.202814441023438e-11 l -2.3008203762665394e-11,19.04761904761096 l -2.3008203762665394e-11,19.04761904761096 l -19.04761904761096,-2.3988263115096403e-11 l -19.04761904761096,-2.3988263115096403e-11 l 2.4968322467527416e-11,-19.04761904761096 l -19.04761904761096,-2.3988263115096403e-11 l 2.4968322467527416e-11,-19.04761904761096 l 19.04761904761096,2.5948381819958428e-11 l 19.04761904761096,2.5948381819958428e-11 l 19.04761904761096,2.5948381819958428e-11 l 19.04761904761096,2.5948381819958428e-11 l -2.6928441172389434e-11,19.04761904761096 l 19.04761904761096,2.5948381819958428e-11 l -2.6928441172389434e-11,19.04761904761096 l -19.04761904761096,-2.7908500524820447e-11 l -19.04761904761096,-2.7908500524820447e-11 l 2.8888559877251456e-11,-19.04761904761096 l 2.8888559877251456e-11,-19.04761904761096 l 19.04761904761096,2.9868619229682465e-11 l 2.8888559877251456e-11,-19.04761904761096 l 19.04761904761096,2.9868619229682465e-11 l -3.0848678582113475e-11,19.04761904761096 l -3.0848678582113475e-11,19.04761904761096 l 19.04761904761096,2.9868619229682465e-11 l 19.04761904761096,2.9868619229682465e-11 l -3.0848678582113475e-11,19.04761904761096 l 19.04761904761096,2.9868619229682465e-11 l -3.0848678582113475e-11,19.04761904761096 l -19.04761904761096,-3.182873793454449e-11 l -19.04761904761096,-3.182873793454449e-11 l 3.28087972869755e-11,-19.04761904761096 l 3.28087972869755e-11,-19.04761904761096 l 19.04761904761096,3.378885663940651e-11 l 3.28087972869755e-11,-19.04761904761096 l 19.04761904761096,3.378885663940651e-11 l -3.476891599183752e-11,19.04761904761096 l -3.476891599183752e-11,19.04761904761096 l -19.04761904761096,-3.5748975344268534e-11 l -19.04761904761096,-3.5748975344268534e-11 l 3.6729034696699543e-11,-19.04761904761096 l -19.04761904761096,-3.5748975344268534e-11 l 3.6729034696699543e-11,-19.04761904761096 l 19.04761904761096,3.770909404913055e-11 l 19.04761904761096,3.770909404913055e-11 l 19.04761904761096,3.770909404913055e-11 l 19.04761904761096,3.770909404913055e-11 l -3.8689153401561556e-11,19.04761904761096 l 19.04761904761096,3.770909404913055e-11 l -3.8689153401561556e-11,19.04761904761096 l -19.04761904761096,-3.966921275399258e-11 l -19.04761904761096,-3.966921275399258e-11 l -3.8689153401561556e-11,19.04761904761096 l -3.8689153401561556e-11,19.04761904761096 l -19.04761904761096,-3.966921275399258e-11 l -3.8689153401561556e-11,19.04761904761096 l -19.04761904761096,-3.966921275399258e-11 l 4.064927210642358e-11,-19.04761904761096 l 4.064927210642358e-11,-19.04761904761096 l 4.064927210642358e-11,-19.04761904761096 l 4.064927210642358e-11,-19.04761904761096 l 19.04761904761096,4.162933145885459e-11 l 4.064927210642358e-11,-19.04761904761096 l 19.04761904761096,4.162933145885459e-11 l -4.2609390811285606e-11,19.04761904761096 l -4.2609390811285606e-11,19.04761904761096 l -19.04761904761096,-4.3589450163716615e-11 l -19.04761904761096,-4.3589450163716615e-11 l 4.4569509516147624e-11,-19.04761904761096 l -19.04761904761096,-4.3589450163716615e-11 l 4.4569509516147624e-11,-19.04761904761096 l 19.04761904761096,4.5549568868578634e-11 l 19.04761904761096,4.5549568868578634e-11 l 4.4569509516147624e-11,-19.04761904761096 l 4.4569509516147624e-11,-19.04761904761096 l 19.04761904761096,4.5549568868578634e-11 l 4.4569509516147624e-11,-19.04761904761096 l 19.04761904761096,4.5549568868578634e-11 l -4.652962822100965e-11,19.04761904761096 l -4.652962822100965e-11,19.04761904761096 l -19.04761904761096,-4.750968757344066e-11 l -19.04761904761096,-4.750968757344066e-11 l 4.848974692587167e-11,-19.04761904761096 l -19.04761904761096,-4.750968757344066e-11 l 4.848974692587167e-11,-19.04761904761096 l 19.04761904761096,4.9469806278302684e-11 l 19.04761904761096,4.9469806278302684e-11 l -5.044986563073369e-11,19.04761904761096 l -5.044986563073369e-11,19.04761904761096 l -19.04761904761096,-5.1429924983164696e-11 l -5.044986563073369e-11,19.04761904761096 l -19.04761904761096,-5.1429924983164696e-11 l 5.2409984335595705e-11,-19.04761904761096 l 5.2409984335595705e-11,-19.04761904761096 l 5.2409984335595705e-11,-19.04761904761096 l 5.2409984335595705e-11,-19.04761904761096 l 19.04761904761096,5.339004368802672e-11 l 5.2409984335595705e-11,-19.04761904761096 l 19.04761904761096,5.339004368802672e-11 l -5.437010304045773e-11,19.04761904761096 l -5.437010304045773e-11,19.04761904761096 l -19.04761904761096,-5.535016239288874e-11 l -19.04761904761096,-5.535016239288874e-11 l 5.6330221745319755e-11,-19.04761904761096 l -19.04761904761096,-5.535016239288874e-11 l 5.6330221745319755e-11,-19.04761904761096 l 19.04761904761096,5.7310281097750765e-11 l 19.04761904761096,5.7310281097750765e-11 l 19.04761904761096,5.7310281097750765e-11 l 19.04761904761096,5.7310281097750765e-11 l -5.829034045018177e-11,19.04761904761096 l 19.04761904761096,5.7310281097750765e-11 l -5.829034045018177e-11,19.04761904761096 l -19.04761904761096,-5.927039980261278e-11 l -19.04761904761096,-5.927039980261278e-11 l 6.02504591550438e-11,-19.04761904761096 l 6.02504591550438e-11,-19.04761904761096 l 19.04761904761096,6.123051850747481e-11 l 6.02504591550438e-11,-19.04761904761096 l 19.04761904761096,6.123051850747481e-11 l -6.221057785990582e-11,19.04761904761096 l -6.221057785990582e-11,19.04761904761096 l 19.04761904761096,6.123051850747481e-11 l 19.04761904761096,6.123051850747481e-11 l -6.221057785990582e-11,19.04761904761096 l 19.04761904761096,6.123051850747481e-11 l -6.221057785990582e-11,19.04761904761096 l -19.04761904761096,-6.319063721233683e-11 l -19.04761904761096,-6.319063721233683e-11 l 6.417069656476784e-11,-19.04761904761096 l 6.417069656476784e-11,-19.04761904761096 l 19.04761904761096,6.515075591719885e-11 l 6.417069656476784e-11,-19.04761904761096 l 19.04761904761096,6.515075591719885e-11 l -6.613081526962985e-11,19.04761904761096 l -6.613081526962985e-11,19.04761904761096 l -19.04761904761096,-6.711087462206088e-11 l -19.04761904761096,-6.711087462206088e-11 l 6.809093397449187e-11,-19.04761904761096 l -19.04761904761096,-6.711087462206088e-11 l 6.809093397449187e-11,-19.04761904761096 l 19.04761904761096,6.907099332692288e-11 l 19.04761904761096,6.907099332692288e-11 l 19.04761904761096,6.907099332692288e-11 l 19.04761904761096,6.907099332692288e-11 l -7.005105267935389e-11,19.04761904761096 l 19.04761904761096,6.907099332692288e-11 l -7.005105267935389e-11,19.04761904761096 l -19.04761904761096,-7.103111203178491e-11 l -19.04761904761096,-7.103111203178491e-11 l 7.201117138421592e-11,-19.04761904761096 l 7.201117138421592e-11,-19.04761904761096 l 19.04761904761096,7.299123073664693e-11 l 7.201117138421592e-11,-19.04761904761096 l 19.04761904761096,7.299123073664693e-11 l -7.397129008907794e-11,19.04761904761096 l -7.397129008907794e-11,19.04761904761096 l -7.397129008907794e-11,19.04761904761096 l -7.397129008907794e-11,19.04761904761096 l -19.04761904761096,-7.495134944150895e-11 l -7.397129008907794e-11,19.04761904761096 l -19.04761904761096,-7.495134944150895e-11 l 7.593140879393996e-11,-19.04761904761096 l 7.593140879393996e-11,-19.04761904761096 l 19.04761904761096,7.691146814637098e-11 l 19.04761904761096,7.691146814637098e-11 l -7.789152749880198e-11,19.04761904761096 l 19.04761904761096,7.691146814637098e-11 l -7.789152749880198e-11,19.04761904761096 l -19.04761904761096,-7.887158685123299e-11 l -19.04761904761096,-7.887158685123299e-11 l -7.789152749880198e-11,19.04761904761096 l -7.789152749880198e-11,19.04761904761096 l -19.04761904761096,-7.887158685123299e-11 l -7.789152749880198e-11,19.04761904761096 l -19.04761904761096,-7.887158685123299e-11 l 7.985164620366401e-11,-19.04761904761096 l 7.985164620366401e-11,-19.04761904761096 l 19.04761904761096,8.083170555609501e-11 l 19.04761904761096,8.083170555609501e-11 l -8.181176490852603e-11,19.04761904761096 l 19.04761904761096,8.083170555609501e-11 l -8.181176490852603e-11,19.04761904761096 l -19.04761904761096,-8.279182426095704e-11 l -19.04761904761096,-8.279182426095704e-11 l 8.377188361338805e-11,-19.04761904761096 l 8.377188361338805e-11,-19.04761904761096 l 19.04761904761096,8.475194296581906e-11 l 8.377188361338805e-11,-19.04761904761096 l 19.04761904761096,8.475194296581906e-11 l -8.573200231825007e-11,19.04761904761096 l -8.573200231825007e-11,19.04761904761096 l -8.573200231825007e-11,19.04761904761096 l -8.573200231825007e-11,19.04761904761096 l -19.04761904761096,-8.671206167068108e-11 l -8.573200231825007e-11,19.04761904761096 l -19.04761904761096,-8.671206167068108e-11 l 8.76921210231121e-11,-19.04761904761096 l 8.76921210231121e-11,-19.04761904761096 l 8.76921210231121e-11,-19.04761904761096 l 8.76921210231121e-11,-19.04761904761096 l 19.04761904761096,8.86721803755431e-11 l 8.76921210231121e-11,-19.04761904761096 l 19.04761904761096,8.86721803755431e-11 l -8.96522397279741e-11,19.04761904761096 l -8.96522397279741e-11,19.04761904761096 l -8.96522397279741e-11,19.04761904761096 l -8.96522397279741e-11,19.04761904761096 l -19.04761904761096,-9.063229908040513e-11 l -8.96522397279741e-11,19.04761904761096 l -19.04761904761096,-9.063229908040513e-11 l 9.161235843283612e-11,-19.04761904761096 l 9.161235843283612e-11,-19.04761904761096 l 19.04761904761096,9.259241778526714e-11 l 19.04761904761096,9.259241778526714e-11 l -9.357247713769815e-11,19.04761904761096 l 19.04761904761096,9.259241778526714e-11 l -9.357247713769815e-11,19.04761904761096 l -19.04761904761096,-9.455253649012916e-11 l -19.04761904761096,-9.455253649012916e-11 l -9.357247713769815e-11,19.04761904761096 l -9.357247713769815e-11,19.04761904761096 l -19.04761904761096,-9.455253649012916e-11 l -9.357247713769815e-11,19.04761904761096 l -19.04761904761096,-9.455253649012916e-11 l 9.553259584256017e-11,-19.04761904761096 l 9.553259584256017e-11,-19.04761904761096 l 19.04761904761096,9.65126551949912e-11 l 19.04761904761096,9.65126551949912e-11 l -9.749271454742219e-11,19.04761904761096 l 19.04761904761096,9.65126551949912e-11 l -9.749271454742219e-11,19.04761904761096 l -19.04761904761096,-9.847277389985321e-11 l -19.04761904761096,-9.847277389985321e-11 l 9.945283325228421e-11,-19.04761904761096 l 9.945283325228421e-11,-19.04761904761096 l 19.04761904761096,1.0043289260471522e-10 l 9.945283325228421e-11,-19.04761904761096 l 19.04761904761096,1.0043289260471522e-10 l -1.0141295195714624e-10,19.04761904761096 l -1.0141295195714624e-10,19.04761904761096 l -1.0141295195714624e-10,19.04761904761096 l -1.0141295195714624e-10,19.04761904761096 l -19.04761904761096,-1.0239301130957724e-10 l -1.0141295195714624e-10,19.04761904761096 l -19.04761904761096,-1.0239301130957724e-10 l 1.0337307066200826e-10,-19.04761904761096 l 1.0337307066200826e-10,-19.04761904761096 "/></g></svg>