<svg xmlns="http://www.w3.org/2000/svg" height="100.0000" stroke-opacity="1" viewBox="0 0 200 100" font-size="1" width="200.0000" xmlns:xlink="http://www.w3.org/1999/xlink" stroke="rgb(0,0,0)" version="1.1"><defs></defs><g stroke-linejoin="miter" stroke-opacity="1.0" fill-opacity="0.0" stroke="rgb(0,0,0)" stroke-width="0.565685424949238" fill="rgb(0,0,0)" stroke-linecap="butt" stroke-miterlimit="10.0"><path d="M 200.0000,100.0000 l -0.0000,-100.0000 h -100.0000 l -0.0000,100.0000 Z"/></g><g stroke-linejoin="miter" stroke-opacity="1.0" fill-opacity="1.0" stroke="rgb(0,0,0)" stroke-width="0.0" fill="rgb(255,255,89)" stroke-linecap="butt" stroke-miterlimit="10.0"><path d="M 161.0490,63.2287 l -11.0490,19.1374 l -11.0490,-19.1374 Z"/></g><g stroke-linejoin="miter" stroke-opacity="1.0" fill-opacity="1.0" stroke="rgb(0,0,0)" stroke-width="0.0" fill="rgb(89,89,255)" stroke-linecap="butt" stroke-miterlimit="10.0"><path d="M 159.9087,57.8639 l 5.8902,2.6225 l -0.6740,6.4123 l -6.3067,1.3405 l -3.2238,-5.5838 Z"/></g><g stroke-linejoin="miter" stroke-opacity="1.0" fill-opacity="1.0" stroke="rgb(0,0,0)" stroke-width="0.0" fill="rgb(0,0,0)" stroke-linecap="butt" stroke-miterlimit="10.0"><path d="M 157.8064,58.3108 c -0.2468,-1.1610 0.4944,-2.3023 1.6554 -2.5491c 1.1610,-0.2468 2.3023,0.4944 2.5491 1.6554c 0.2468,1.1610 -0.4944,2.3023 -1.6554 2.5491c -1.1610,0.2468 -2.3023,-0.4944 -2.5491 -1.6554Z"/></g><g stroke-linejoin="miter" stroke-opacity="1.0" fill-opacity="1.0" stroke="rgb(0,0,0)" stroke-width="0.0" fill="rgb(0,0,0)" stroke-linecap="butt" stroke-miterlimit="10.0"><path d="M 155.3697,64.7929 c -1.1805,-0.1241 -2.0368,-1.1816 -1.9128 -2.3621c 0.1241,-1.1805 1.1816,-2.0368 2.3621 -1.9128c 1.1805,0.1241 2.0368,1.1816 1.9128 2.3621c -0.1241,1.1805 -1.1816,2.0368 -2.3621 1.9128Z"/></g><g stroke-linejoin="miter" stroke-opacity="1.0" fill-opacity="1.0" stroke="rgb(0,0,0)" stroke-width="0.0" fill="rgb(0,0,0)" stroke-linecap="butt" stroke-miterlimit="10.0"><path d="M 160.7816,69.1134 c -0.4828,1.0844 -1.7532,1.5720 -2.8375 1.0892c -1.0844,-0.4828 -1.5720,-1.7532 -1.0892 -2.8375c 0.4828,-1.0844 1.7532,-1.5720 2.8375 -1.0892c 1.0844,0.4828 1.5720,1.7532 1.0892 2.8375Z"/></g><g stroke-linejoin="miter" stroke-opacity="1.0" fill-opacity="1.0" stroke="rgb(0,0,0)" stroke-width="0.0" fill="rgb(0,0,0)" stroke-linecap="butt" stroke-miterlimit="10.0"><path d="M 166.5630,65.3015 c 0.8821,0.7942 0.9533,2.1532 0.1591 3.0353c -0.7942,0.8821 -2.1532,0.9533 -3.0353 0.1591c -0.8821,-0.7942 -0.9533,-2.1532 -0.1591 -3.0353c 0.7942,-0.8821 2.1532,-0.9533 3.0353 -0.1591Z"/></g><g stroke-linejoin="miter" stroke-opacity="1.0" fill-opacity="1.0" stroke="rgb(0,0,0)" stroke-width="0.0" fill="rgb(0,0,0)" stroke-linecap="butt" stroke-miterlimit="10.0"><path d="M 164.7242,58.6251 c 1.0279,-0.5935 2.3424,-0.2413 2.9359 0.7867c 0.5935,1.0279 0.2413,2.3424 -0.7867 2.9359c -1.0279,0.5935 -2.3424,0.2413 -2.9359 -0.7867c -0.5935,-1.0279 -0.2413,-2.3424 0.7867 -2.9359Z"/></g><g stroke-linejoin="miter" stroke-opacity="1.0" fill-opacity="1.0" stroke="rgb(0,0,0)" stroke-width="0.0" fill="rgb(89,89,255)" stroke-linecap="butt" stroke-miterlimit="10.0"><path d="M 134.8751,66.8987 l -0.6740,-6.4123 l 5.8902,-2.6225 l 4.3143,4.7915 l -3.2238,5.5838 Z"/></g><g stroke-linejoin="miter" stroke-opacity="1.0" fill-opacity="1.0" stroke="rgb(0,0,0)" stroke-width="0.0" fill="rgb(0,0,0)" stroke-linecap="butt" stroke-miterlimit="10.0"><path d="M 136.3132,68.4958 c -0.8821,0.7942 -2.2410,0.7230 -3.0353 -0.1591c -0.7942,-0.8821 -0.7230,-2.2410 0.1591 -3.0353c 0.8821,-0.7942 2.2410,-0.7230 3.0353 0.1591c 0.7942,0.8821 0.7230,2.2410 -0.1591 3.0353Z"/></g><g stroke-linejoin="miter" stroke-opacity="1.0" fill-opacity="1.0" stroke="rgb(0,0,0)" stroke-width="0.0" fill="rgb(0,0,0)" stroke-linecap="butt" stroke-miterlimit="10.0"><path d="M 143.1452,67.3651 c 0.4828,1.0844 -0.0049,2.3548 -1.0892 2.8375c -1.0844,0.4828 -2.3548,-0.0049 -2.8375 -1.0892c -0.4828,-1.0844 0.0049,-2.3548 1.0892 -2.8375c 1.0844,-0.4828 2.3548,0.0049 2.8375 1.0892Z"/></g><g stroke-linejoin="miter" stroke-opacity="1.0" fill-opacity="1.0" stroke="rgb(0,0,0)" stroke-width="0.0" fill="rgb(0,0,0)" stroke-linecap="butt" stroke-miterlimit="10.0"><path d="M 144.1810,60.5180 c 1.1805,-0.1241 2.2380,0.7323 2.3621 1.9128c 0.1241,1.1805 -0.7323,2.2380 -1.9128 2.3621c -1.1805,0.1241 -2.2380,-0.7323 -2.3621 -1.9128c -0.1241,-1.1805 0.7323,-2.2380 1.9128 -2.3621Z"/></g><g stroke-linejoin="miter" stroke-opacity="1.0" fill-opacity="1.0" stroke="rgb(0,0,0)" stroke-width="0.0" fill="rgb(0,0,0)" stroke-linecap="butt" stroke-miterlimit="10.0"><path d="M 137.9891,57.4171 c 0.2468,-1.1610 1.3880,-1.9022 2.5491 -1.6554c 1.1610,0.2468 1.9022,1.3880 1.6554 2.5491c -0.2468,1.1610 -1.3880,1.9022 -2.5491 1.6554c -1.1610,-0.2468 -1.9022,-1.3880 -1.6554 -2.5491Z"/></g><g stroke-linejoin="miter" stroke-opacity="1.0" fill-opacity="1.0" stroke="rgb(0,0,0)" stroke-width="0.0" fill="rgb(0,0,0)" stroke-linecap="butt" stroke-miterlimit="10.0"><path d="M 133.1266,62.3477 c -1.0279,-0.5935 -1.3801,-1.9079 -0.7867 -2.9359c 0.5935,-1.0279 1.9079,-1.3801 2.9359 -0.7867c 1.0279,0.5935 1.3801,1.9079 0.7867 2.9359c -0.5935,1.0279 -1.9079,1.3801 -2.9359 0.7867Z"/></g><g stroke-linejoin="miter" stroke-opacity="1.0" fill-opacity="1.0" stroke="rgb(0,0,0)" stroke-width="0.0" fill="rgb(89,89,255)" stroke-linecap="butt" stroke-miterlimit="10.0"><path d="M 155.2162,84.0610 l -5.2162,3.7898 l -5.2162,-3.7898 l 1.9924,-6.1320 l 6.4476,0.0000 Z"/></g><g stroke-linejoin="miter" stroke-opacity="1.0" fill-opacity="1.0" stroke="rgb(0,0,0)" stroke-width="0.0" fill="rgb(0,0,0)" stroke-linecap="butt" stroke-miterlimit="10.0"><path d="M 155.8804,82.0170 c 1.1289,0.3668 1.7467,1.5793 1.3799 2.7081c -0.3668,1.1289 -1.5793,1.7467 -2.7081 1.3799c -1.1289,-0.3668 -1.7467,-1.5793 -1.3799 -2.7081c 0.3668,-1.1289 1.5793,-1.7467 2.7081 -1.3799Z"/></g><g stroke-linejoin="miter" stroke-opacity="1.0" fill-opacity="1.0" stroke="rgb(0,0,0)" stroke-width="0.0" fill="rgb(0,0,0)" stroke-linecap="butt" stroke-miterlimit="10.0"><path d="M 151.4851,76.6657 c 0.6977,-0.9603 2.0417,-1.1732 3.0020 -0.4755c 0.9603,0.6977 1.1732,2.0417 0.4755 3.0020c -0.6977,0.9603 -2.0417,1.1732 -3.0020 0.4755c -0.9603,-0.6977 -1.1732,-2.0417 -0.4755 -3.0020Z"/></g><g stroke-linejoin="miter" stroke-opacity="1.0" fill-opacity="1.0" stroke="rgb(0,0,0)" stroke-width="0.0" fill="rgb(0,0,0)" stroke-linecap="butt" stroke-miterlimit="10.0"><path d="M 145.0375,79.1922 c -0.6977,-0.9603 -0.4848,-2.3043 0.4755 -3.0020c 0.9603,-0.6977 2.3043,-0.4848 3.0020 0.4755c 0.6977,0.9603 0.4848,2.3043 -0.4755 3.0020c -0.9603,0.6977 -2.3043,0.4848 -3.0020 -0.4755Z"/></g><g stroke-linejoin="miter" stroke-opacity="1.0" fill-opacity="1.0" stroke="rgb(0,0,0)" stroke-width="0.0" fill="rgb(0,0,0)" stroke-linecap="butt" stroke-miterlimit="10.0"><path d="M 145.4479,86.1050 c -1.1289,0.3668 -2.3414,-0.2510 -2.7081 -1.3799c -0.3668,-1.1289 0.2510,-2.3414 1.3799 -2.7081c 1.1289,-0.3668 2.3414,0.2510 2.7081 1.3799c 0.3668,1.1289 -0.2510,2.3414 -1.3799 2.7081Z"/></g><g stroke-linejoin="miter" stroke-opacity="1.0" fill-opacity="1.0" stroke="rgb(0,0,0)" stroke-width="0.0" fill="rgb(0,0,0)" stroke-linecap="butt" stroke-miterlimit="10.0"><path d="M 152.1492,87.8508 c 0.0000,1.1870 -0.9622,2.1492 -2.1492 2.1492c -1.1870,0.0000 -2.1492,-0.9622 -2.1492 -2.1492c -0.0000,-1.1870 0.9622,-2.1492 2.1492 -2.1492c 1.1870,-0.0000 2.1492,0.9622 2.1492 2.1492Z"/></g><g stroke-linejoin="miter" stroke-opacity="1.0" fill-opacity="1.0" stroke="rgb(0,0,0)" stroke-width="0.0" fill="rgb(255,255,89)" stroke-linecap="butt" stroke-miterlimit="10.0"><path d="M 161.0490,36.7713 l -11.0490,-19.1374 l -11.0490,19.1374 Z"/></g><g stroke-linejoin="miter" stroke-opacity="1.0" fill-opacity="1.0" stroke="rgb(0,0,0)" stroke-width="0.0" fill="rgb(89,89,255)" stroke-linecap="butt" stroke-miterlimit="10.0"><path d="M 159.9087,42.1361 l 5.8902,-2.6225 l -0.6740,-6.4123 l -6.3067,-1.3405 l -3.2238,5.5838 Z"/></g><g stroke-linejoin="miter" stroke-opacity="1.0" fill-opacity="1.0" stroke="rgb(0,0,0)" stroke-width="0.0" fill="rgb(0,0,0)" stroke-linecap="butt" stroke-miterlimit="10.0"><path d="M 157.8064,41.6892 c -0.2468,1.1610 0.4944,2.3023 1.6554 2.5491c 1.1610,0.2468 2.3023,-0.4944 2.5491 -1.6554c 0.2468,-1.1610 -0.4944,-2.3023 -1.6554 -2.5491c -1.1610,-0.2468 -2.3023,0.4944 -2.5491 1.6554Z"/></g><g stroke-linejoin="miter" stroke-opacity="1.0" fill-opacity="1.0" stroke="rgb(0,0,0)" stroke-width="0.0" fill="rgb(0,0,0)" stroke-linecap="butt" stroke-miterlimit="10.0"><path d="M 155.3697,35.2071 c -1.1805,0.1241 -2.0368,1.1816 -1.9128 2.3621c 0.1241,1.1805 1.1816,2.0368 2.3621 1.9128c 1.1805,-0.1241 2.0368,-1.1816 1.9128 -2.3621c -0.1241,-1.1805 -1.1816,-2.0368 -2.3621 -1.9128Z"/></g><g stroke-linejoin="miter" stroke-opacity="1.0" fill-opacity="1.0" stroke="rgb(0,0,0)" stroke-width="0.0" fill="rgb(0,0,0)" stroke-linecap="butt" stroke-miterlimit="10.0"><path d="M 160.7816,30.8866 c -0.4828,-1.0844 -1.7532,-1.5720 -2.8375 -1.0892c -1.0844,0.4828 -1.5720,1.7532 -1.0892 2.8375c 0.4828,1.0844 1.7532,1.5720 2.8375 1.0892c 1.0844,-0.4828 1.5720,-1.7532 1.0892 -2.8375Z"/></g><g stroke-linejoin="miter" stroke-opacity="1.0" fill-opacity="1.0" stroke="rgb(0,0,0)" stroke-width="0.0" fill="rgb(0,0,0)" stroke-linecap="butt" stroke-miterlimit="10.0"><path d="M 166.5630,34.6985 c 0.8821,-0.7942 0.9533,-2.1532 0.1591 -3.0353c -0.7942,-0.8821 -2.1532,-0.9533 -3.0353 -0.1591c -0.8821,0.7942 -0.9533,2.1532 -0.1591 3.0353c 0.7942,0.8821 2.1532,0.9533 3.0353 0.1591Z"/></g><g stroke-linejoin="miter" stroke-opacity="1.0" fill-opacity="1.0" stroke="rgb(0,0,0)" stroke-width="0.0" fill="rgb(0,0,0)" stroke-linecap="butt" stroke-miterlimit="10.0"><path d="M 164.7242,41.3749 c 1.0279,0.5935 2.3424,0.2413 2.9359 -0.7867c 0.5935,-1.0279 0.2413,-2.3424 -0.7867 -2.9359c -1.0279,-0.5935 -2.3424,-0.2413 -2.9359 0.7867c -0.5935,1.0279 -0.2413,2.3424 0.7867 2.9359Z"/></g><g stroke-linejoin="miter" stroke-opacity="1.0" fill-opacity="1.0" stroke="rgb(0,0,0)" stroke-width="0.0" fill="rgb(89,89,255)" stroke-linecap="butt" stroke-miterlimit="10.0"><path d="M 134.8751,33.1013 l -0.6740,6.4123 l 5.8902,2.6225 l 4.3143,-4.7915 l -3.2238,-5.5838 Z"/></g><g stroke-linejoin="miter" stroke-opacity="1.0" fill-opacity="1.0" stroke="rgb(0,0,0)" stroke-width="0.0" fill="rgb(0,0,0)" stroke-linecap="butt" stroke-miterlimit="10.0"><path d="M 136.3132,31.5042 c -0.8821,-0.7942 -2.2410,-0.7230 -3.0353 0.1591c -0.7942,0.8821 -0.7230,2.2410 0.1591 3.0353c 0.8821,0.7942 2.2410,0.7230 3.0353 -0.1591c 0.7942,-0.8821 0.7230,-2.2410 -0.1591 -3.0353Z"/></g><g stroke-linejoin="miter" stroke-opacity="1.0" fill-opacity="1.0" stroke="rgb(0,0,0)" stroke-width="0.0" fill="rgb(0,0,0)" stroke-linecap="butt" stroke-miterlimit="10.0"><path d="M 143.1452,32.6349 c 0.4828,-1.0844 -0.0049,-2.3548 -1.0892 -2.8375c -1.0844,-0.4828 -2.3548,0.0049 -2.8375 1.0892c -0.4828,1.0844 0.0049,2.3548 1.0892 2.8375c 1.0844,0.4828 2.3548,-0.0049 2.8375 -1.0892Z"/></g><g stroke-linejoin="miter" stroke-opacity="1.0" fill-opacity="1.0" stroke="rgb(0,0,0)" stroke-width="0.0" fill="rgb(0,0,0)" stroke-linecap="butt" stroke-miterlimit="10.0"><path d="M 144.1810,39.4820 c 1.1805,0.1241 2.2380,-0.7323 2.3621 -1.9128c 0.1241,-1.1805 -0.7323,-2.2380 -1.9128 -2.3621c -1.1805,-0.1241 -2.2380,0.7323 -2.3621 1.9128c -0.1241,1.1805 0.7323,2.2380 1.9128 2.3621Z"/></g><g stroke-linejoin="miter" stroke-opacity="1.0" fill-opacity="1.0" stroke="rgb(0,0,0)" stroke-width="0.0" fill="rgb(0,0,0)" stroke-linecap="butt" stroke-miterlimit="10.0"><path d="M 137.9891,42.5829 c 0.2468,1.1610 1.3880,1.9022 2.5491 1.6554c 1.1610,-0.2468 1.9022,-1.3880 1.6554 -2.5491c -0.2468,-1.1610 -1.3880,-1.9022 -2.5491 -1.6554c -1.1610,0.2468 -1.9022,1.3880 -1.6554 2.5491Z"/></g><g stroke-linejoin="miter" stroke-opacity="1.0" fill-opacity="1.0" stroke="rgb(0,0,0)" stroke-width="0.0" fill="rgb(0,0,0)" stroke-linecap="butt" stroke-miterlimit="10.0"><path d="M 133.1266,37.6523 c -1.0279,0.5935 -1.3801,1.9079 -0.7867 2.9359c 0.5935,1.0279 1.9079,1.3801 2.9359 0.7867c 1.0279,-0.5935 1.3801,-1.9079 0.7867 -2.9359c -0.5935,-1.0279 -1.9079,-1.3801 -2.9359 -0.7867Z"/></g><g stroke-linejoin="miter" stroke-opacity="1.0" fill-opacity="1.0" stroke="rgb(0,0,0)" stroke-width="0.0" fill="rgb(89,89,255)" stroke-linecap="butt" stroke-miterlimit="10.0"><path d="M 155.2162,15.9390 l -5.2162,-3.7898 l -5.2162,3.7898 l 1.9924,6.1320 l 6.4476,-0.0000 Z"/></g><g stroke-linejoin="miter" stroke-opacity="1.0" fill-opacity="1.0" stroke="rgb(0,0,0)" stroke-width="0.0" fill="rgb(0,0,0)" stroke-linecap="butt" stroke-miterlimit="10.0"><path d="M 155.8804,17.9830 c 1.1289,-0.3668 1.7467,-1.5793 1.3799 -2.7081c -0.3668,-1.1289 -1.5793,-1.7467 -2.7081 -1.3799c -1.1289,0.3668 -1.7467,1.5793 -1.3799 2.7081c 0.3668,1.1289 1.5793,1.7467 2.7081 1.3799Z"/></g><g stroke-linejoin="miter" stroke-opacity="1.0" fill-opacity="1.0" stroke="rgb(0,0,0)" stroke-width="0.0" fill="rgb(0,0,0)" stroke-linecap="butt" stroke-miterlimit="10.0"><path d="M 151.4851,23.3343 c 0.6977,0.9603 2.0417,1.1732 3.0020 0.4755c 0.9603,-0.6977 1.1732,-2.0417 0.4755 -3.0020c -0.6977,-0.9603 -2.0417,-1.1732 -3.0020 -0.4755c -0.9603,0.6977 -1.1732,2.0417 -0.4755 3.0020Z"/></g><g stroke-linejoin="miter" stroke-opacity="1.0" fill-opacity="1.0" stroke="rgb(0,0,0)" stroke-width="0.0" fill="rgb(0,0,0)" stroke-linecap="butt" stroke-miterlimit="10.0"><path d="M 145.0375,20.8078 c -0.6977,0.9603 -0.4848,2.3043 0.4755 3.0020c 0.9603,0.6977 2.3043,0.4848 3.0020 -0.4755c 0.6977,-0.9603 0.4848,-2.3043 -0.4755 -3.0020c -0.9603,-0.6977 -2.3043,-0.4848 -3.0020 0.4755Z"/></g><g stroke-linejoin="miter" stroke-opacity="1.0" fill-opacity="1.0" stroke="rgb(0,0,0)" stroke-width="0.0" fill="rgb(0,0,0)" stroke-linecap="butt" stroke-miterlimit="10.0"><path d="M 145.4479,13.8950 c -1.1289,-0.3668 -2.3414,0.2510 -2.7081 1.3799c -0.3668,1.1289 0.2510,2.3414 1.3799 2.7081c 1.1289,0.3668 2.3414,-0.2510 2.7081 -1.3799c 0.3668,-1.1289 -0.2510,-2.3414 -1.3799 -2.7081Z"/></g><g stroke-linejoin="miter" stroke-opacity="1.0" fill-opacity="1.0" stroke="rgb(0,0,0)" stroke-width="0.0" fill="rgb(0,0,0)" stroke-linecap="butt" stroke-miterlimit="10.0"><path d="M 152.1492,12.1492 c 0.0000,-1.1870 -0.9622,-2.1492 -2.1492 -2.1492c -1.1870,-0.0000 -2.1492,0.9622 -2.1492 2.1492c -0.0000,1.1870 0.9622,2.1492 2.1492 2.1492c 1.1870,0.0000 2.1492,-0.9622 2.1492 -2.1492Z"/></g><g stroke-linejoin="miter" stroke-opacity="1.0" fill-opacity="0.0" stroke="rgb(0,0,0)" stroke-width="0.565685424949238" fill="rgb(0,0,0)" stroke-linecap="butt" stroke-miterlimit="10.0"><path d="M 100.0000,100.0000 l -0.0000,-100.0000 h -100.0000 l -0.0000,100.0000 Z"/></g><g stroke-linejoin="miter" stroke-opacity="1.0" fill-opacity="0.0" stroke="rgb(0,0,0)" stroke-width="0.565685424949238" fill="rgb(0,0,0)" stroke-linecap="butt" stroke-miterlimit="10.0"><path d="M 90.0000,50.0000 c 0.0000,-22.0914 -17.9086,-40.0000 -40.0000 -40.0000c -22.0914,-0.0000 -40.0000,17.9086 -40.0000 40.0000c -0.0000,22.0914 17.9086,40.0000 40.0000 40.0000c 22.0914,0.0000 40.0000,-17.9086 40.0000 -40.0000Z"/></g></svg>