<?xml version="1.0" encoding="UTF-8"?>
<!DOCTYPE svg PUBLIC "-//W3C//DTD SVG 1.1//EN"
    "http://www.w3.org/Graphics/SVG/1.1/DTD/svg11.dtd">
<svg xmlns="http://www.w3.org/2000/svg" xmlns:xlink="http://www.w3.org/1999/xlink" version="1.1" width="400.0" height="215.38461538461553" font-size="1" viewBox="0 0 400 215"><g><g stroke="rgb(0,0,0)" stroke-opacity="1.0" fill="rgb(0,0,0)" fill-opacity="0.0" stroke-width="1.0e-2" stroke-linecap="butt" stroke-linejoin="miter" font-size="1.0em" stroke-miterlimit="10.0"><g transform="matrix(6.153846153846155,0.0,0.0,6.153846153846155,98.46153846153848,107.69230769230776)"><g fill="rgb(0,0,0)" fill-opacity="1.0"><path d="M 25.999999999999996,17.500000000000007 c 0.466666666666667,-5.133333333333333 0.9333333333333333,-10.266666666666666 3.0 -12.0c 2.066666666666666,-1.7333333333333352 5.7333333333333325,-6.66666666666691e-2 9.0 -3.0c 3.2666666666666657,-2.9333333333333336 6.133333333333333,-10.466666666666667 8.999999999999995 -18.00000000000001l 2.0,-2.0 c -2.866666666666662,7.533333333333344 -5.733333333333329,15.066666666666677 -8.999999999999995 18.00000000000001c -3.2666666666666675,2.933333333333331 -6.933333333333334,1.2666666666666648 -9.0 3.0c -2.0666666666666664,1.7333333333333343 -2.533333333333333,6.866666666666667 -3.0 12.0l -2.0,2.0 h -1.7763568394002505e-15 Z" /></g><g fill="rgb(0,0,0)" fill-opacity="1.0"><path d="M 13.999999999999998,0.5000000000000018 c 0.0,-8.284271247461902 -6.715728752538096,-15.0 -14.999999999999996 -15.0c -8.284271247461902,-5.072653133236334e-16 -15.0,6.715728752538095 -15.0 14.999999999999995c -1.0145306266472668e-15,8.284271247461902 6.715728752538094,15.0 14.999999999999993 15.0c 8.284271247461902,1.5217959399709002e-15 15.0,-6.715728752538094 15.000000000000004 -14.999999999999995l 2.0,-1.0 c -3.552713678800501e-15,8.2842712474619 -6.7157287525381015,14.999999999999996 -15.000000000000004 14.999999999999995c -8.284271247461898,0.0 -14.999999999999995,-6.715728752538098 -14.999999999999993 -15.0c 0.0,-8.284271247461898 6.715728752538098,-14.999999999999995 15.0 -14.999999999999995c 8.2842712474619,0.0 14.999999999999996,6.715728752538098 14.999999999999996 15.0l -2.0,1.0 h -0.0 Z" /></g></g></g></g></svg>