<svg xmlns="http://www.w3.org/2000/svg" height="376.4706" stroke-opacity="1" viewBox="0 0 400 376" font-size="1" width="400.0000" xmlns:xlink="http://www.w3.org/1999/xlink" stroke="rgb(0,0,0)" version="1.1"><defs></defs><g stroke-linejoin="miter" stroke-opacity="1.0" fill-opacity="1.0" stroke="rgb(0,0,0)" stroke-width="1.552228000232531" fill="rgb(255,165,0)" stroke-linecap="butt" stroke-miterlimit="10.0"><path d="M 388.2353,317.6471 l -0.0000,-23.5294 h -23.5294 l -0.0000,23.5294 Z"/></g><g stroke-linejoin="miter" stroke-opacity="1.0" fill-opacity="1.0" stroke="rgb(0,0,0)" stroke-width="1.552228000232531" fill="rgb(255,165,0)" stroke-linecap="butt" stroke-miterlimit="10.0"><path d="M 282.3529,211.7647 l -0.0000,-23.5294 h -23.5294 l -0.0000,23.5294 Z"/></g><g stroke-linejoin="miter" stroke-opacity="1.0" fill-opacity="1.0" stroke="rgb(0,0,0)" stroke-width="1.552228000232531" fill="rgb(255,165,0)" stroke-linecap="butt" stroke-miterlimit="10.0"><path d="M 200.0000,129.4118 l -0.0000,-23.5294 h -23.5294 l -0.0000,23.5294 Z"/></g><g stroke-linejoin="miter" stroke-opacity="1.0" fill-opacity="1.0" stroke="rgb(0,0,0)" stroke-width="1.552228000232531" fill="rgb(255,165,0)" stroke-linecap="butt" stroke-miterlimit="10.0"><path d="M 141.1765,70.5882 l -0.0000,-23.5294 h -23.5294 l -0.0000,23.5294 Z"/></g><g stroke-linejoin="miter" stroke-opacity="1.0" fill-opacity="1.0" stroke="rgb(0,0,0)" stroke-width="1.552228000232531" fill="rgb(255,165,0)" stroke-linecap="butt" stroke-miterlimit="10.0"><path d="M 105.8824,35.2941 l -0.0000,-23.5294 h -23.5294 l -0.0000,23.5294 Z"/></g><g stroke-linejoin="miter" stroke-opacity="1.0" fill-opacity="1.0" stroke="rgb(0,0,0)" stroke-width="1.552228000232531" fill="rgb(0,0,255)" stroke-linecap="butt" stroke-miterlimit="10.0"><path d="M 129.4118,305.8824 c 0.0000,-32.4873 -26.3362,-58.8235 -58.8235 -58.8235c -32.4873,-0.0000 -58.8235,26.3362 -58.8235 58.8235c -0.0000,32.4873 26.3362,58.8235 58.8235 58.8235c 32.4873,0.0000 58.8235,-26.3362 58.8235 -58.8235Z"/></g><g stroke-linejoin="miter" stroke-opacity="1.0" fill-opacity="1.0" stroke="rgb(0,0,0)" stroke-width="1.552228000232531" fill="rgb(0,0,255)" stroke-linecap="butt" stroke-miterlimit="10.0"><path d="M 117.6471,200.0000 c 0.0000,-25.9899 -21.0690,-47.0588 -47.0588 -47.0588c -25.9899,-0.0000 -47.0588,21.0690 -47.0588 47.0588c -0.0000,25.9899 21.0690,47.0588 47.0588 47.0588c 25.9899,0.0000 47.0588,-21.0690 47.0588 -47.0588Z"/></g><g stroke-linejoin="miter" stroke-opacity="1.0" fill-opacity="1.0" stroke="rgb(0,0,0)" stroke-width="1.552228000232531" fill="rgb(0,0,255)" stroke-linecap="butt" stroke-miterlimit="10.0"><path d="M 105.8824,117.6471 c 0.0000,-19.4924 -15.8017,-35.2941 -35.2941 -35.2941c -19.4924,-0.0000 -35.2941,15.8017 -35.2941 35.2941c -0.0000,19.4924 15.8017,35.2941 35.2941 35.2941c 19.4924,0.0000 35.2941,-15.8017 35.2941 -35.2941Z"/></g><g stroke-linejoin="miter" stroke-opacity="1.0" fill-opacity="1.0" stroke="rgb(0,0,0)" stroke-width="1.552228000232531" fill="rgb(0,0,255)" stroke-linecap="butt" stroke-miterlimit="10.0"><path d="M 94.1176,58.8235 c 0.0000,-12.9949 -10.5345,-23.5294 -23.5294 -23.5294c -12.9949,-0.0000 -23.5294,10.5345 -23.5294 23.5294c -0.0000,12.9949 10.5345,23.5294 23.5294 23.5294c 12.9949,0.0000 23.5294,-10.5345 23.5294 -23.5294Z"/></g><g stroke-linejoin="miter" stroke-opacity="1.0" fill-opacity="1.0" stroke="rgb(0,0,0)" stroke-width="1.552228000232531" fill="rgb(0,0,255)" stroke-linecap="butt" stroke-miterlimit="10.0"><path d="M 82.3529,23.5294 c 0.0000,-6.4975 -5.2672,-11.7647 -11.7647 -11.7647c -6.4975,-0.0000 -11.7647,5.2672 -11.7647 11.7647c -0.0000,6.4975 5.2672,11.7647 11.7647 11.7647c 6.4975,0.0000 11.7647,-5.2672 11.7647 -11.7647Z"/></g></svg>