<?xml version="1.0" encoding="UTF-8"?>
<!DOCTYPE svg PUBLIC "-//W3C//DTD SVG 1.1//EN"
    "http://www.w3.org/Graphics/SVG/1.1/DTD/svg11.dtd"><svg xmlns="http://www.w3.org/2000/svg" height="132.09468407578487" stroke-opacity="1" viewBox="0 0 400 132" font-size="1" width="400.0" xmlns:xlink="http://www.w3.org/1999/xlink" stroke="rgb(0,0,0)" version="1.1"><defs></defs><defs></defs><g stroke-linejoin="miter" stroke-opacity="1.0" fill-opacity="0.0" stroke="rgb(0,0,0)" stroke-width="0.9194596119922959" fill="rgb(0,0,0)" stroke-linecap="butt" stroke-miterlimit="10.0"><path d="M 260.9625668449198,93.8342533892648 h -7.130124777183604 l 3.565062388591804,-6.1748691891938625 h -7.130124777183604 l 3.565062388591804,-6.174869189193861 l 3.5650623885917994,6.174869189193862 l 3.565062388591804,-6.174869189193861 h -7.130124777183604 l 3.565062388591804,-6.1748691891938625 h -7.130124777183604 l 3.565062388591804,-6.174869189193861 l 3.5650623885918002,6.1748691891938625 l 3.565062388591804,-6.174869189193861 l 3.5650623885917994,6.174869189193862 l -7.130124777183604,-3.5622129132357964e-15 l 3.5650623885917994,6.174869189193862 l 3.565062388591804,-6.174869189193861 l 3.5650623885918002,6.1748691891938625 l 3.565062388591804,-6.174869189193861 h -7.130124777183604 l 3.565062388591804,-6.1748691891938625 h -7.130124777183604 l 3.565062388591804,-6.174869189193861 l 3.5650623885917994,6.174869189193862 l 3.565062388591804,-6.174869189193861 h -7.130124777183604 l 3.565062388591804,-6.1748691891938625 h -7.130124777183604 l 3.565062388591804,-6.174869189193861 l 3.5650623885918002,6.174869189193863 l 3.565062388591804,-6.174869189193861 l 3.5650623885917985,6.1748691891938625 l -7.130124777183604,-4.89804275569922e-15 l 3.5650623885917985,6.1748691891938625 l 3.565062388591804,-6.174869189193861 l 3.5650623885918002,6.174869189193863 l 3.565062388591804,-6.174869189193861 l 3.565062388591799,6.174869189193862 l -7.130124777183604,-4.007489527390271e-15 l 3.565062388591799,6.174869189193862 l -7.130124777183604,-4.89804275569922e-15 l 3.5650623885918065,-6.174869189193859 l -7.130124777183604,-4.89804275569922e-15 l 3.565062388591799,6.174869189193862 l -7.130124777183604,-4.007489527390271e-15 l 3.565062388591799,6.174869189193862 l 3.565062388591804,-6.174869189193861 l 3.5650623885918002,6.174869189193863 l 3.565062388591804,-6.174869189193861 l 3.5650623885917985,6.1748691891938625 l -7.130124777183604,-4.89804275569922e-15 l 3.5650623885917985,6.1748691891938625 l 3.565062388591804,-6.174869189193861 l 3.5650623885918002,6.174869189193863 l 3.565062388591804,-6.174869189193861 h -7.130124777183604 l 3.565062388591804,-6.1748691891938625 h -7.130124777183604 l 3.565062388591804,-6.174869189193861 l 3.5650623885917994,6.174869189193862 l 3.565062388591804,-6.174869189193861 h -7.130124777183604 l 3.565062388591804,-6.1748691891938625 h -7.130124777183604 l 3.565062388591804,-6.174869189193861 l 3.5650623885918002,6.1748691891938625 l 3.565062388591804,-6.174869189193861 l 3.5650623885917994,6.174869189193862 l -7.130124777183604,-3.5622129132357964e-15 l 3.5650623885917994,6.174869189193862 l 3.565062388591804,-6.174869189193861 l 3.5650623885918002,6.1748691891938625 l 3.565062388591804,-6.174869189193861 h -7.130124777183604 l 3.565062388591804,-6.1748691891938625 h -7.130124777183604 l 3.565062388591804,-6.174869189193861 l 3.5650623885917994,6.174869189193862 l 3.565062388591804,-6.174869189193861 h -7.130124777183604 l 3.565062388591804,-6.1748691891938625 h -7.130124777183604 l 3.5650623885918034,-6.17486918919386 l 3.5650623885918002,6.174869189193865 l 3.5650623885918034,-6.17486918919386 l 3.5650623885917985,6.174869189193863 l -7.130124777183603,-4.7864618385043116e-15 l 3.5650623885917985,6.174869189193863 l 3.5650623885918034,-6.17486918919386 l 3.5650623885918002,6.174869189193865 l 3.5650623885918034,-6.17486918919386 l 3.565062388591799,6.174869189193863 l -7.130124777183604,-4.27230069241245e-15 l 3.565062388591799,6.174869189193863 l -7.130124777183603,-4.7864618385043116e-15 l 3.5650623885918065,-6.174869189193858 l -7.130124777183603,-4.7864618385043116e-15 l 3.565062388591799,6.174869189193863 l -7.130124777183604,-4.27230069241245e-15 l 3.565062388591799,6.174869189193863 l 3.5650623885918034,-6.17486918919386 l 3.5650623885918002,6.174869189193865 l 3.5650623885918034,-6.17486918919386 l 3.5650623885917985,6.174869189193863 l -7.130124777183603,-4.7864618385043116e-15 l 3.5650623885917985,6.174869189193863 l 3.5650623885918034,-6.17486918919386 l 3.5650623885918002,6.174869189193865 l 3.5650623885918034,-6.17486918919386 l 3.5650623885917985,6.174869189193863 l -7.130124777183605,-4.865932356067762e-15 l 3.5650623885917985,6.174869189193863 l -7.130124777183603,-6.0533366604796926e-15 l 3.565062388591808,-6.174869189193857 l -7.130124777183603,-6.0533366604796926e-15 l 3.5650623885917985,6.174869189193863 l -7.130124777183605,-4.865932356067762e-15 l 3.5650623885917985,6.174869189193863 l -7.130124777183603,-5.365814381373344e-15 l 3.5650623885918074,-6.174869189193858 l -7.130124777183603,-5.365814381373344e-15 l 3.565062388591808,-6.174869189193857 l 3.5650623885917954,6.174869189193865 l 3.565062388591808,-6.174869189193857 l -7.130124777183603,-5.365814381373344e-15 l 3.5650623885918074,-6.174869189193858 l -7.130124777183603,-5.365814381373344e-15 l 3.5650623885917985,6.174869189193863 l -7.130124777183605,-4.865932356067762e-15 l 3.5650623885917985,6.174869189193863 l -7.130124777183603,-6.0533366604796926e-15 l 3.565062388591808,-6.174869189193857 l -7.130124777183603,-6.0533366604796926e-15 l 3.5650623885917985,6.174869189193863 l -7.130124777183605,-4.865932356067762e-15 l 3.5650623885917985,6.174869189193863 l 3.5650623885918034,-6.17486918919386 l 3.5650623885918002,6.174869189193865 l 3.5650623885918034,-6.17486918919386 l 3.5650623885917985,6.174869189193863 l -7.130124777183603,-4.7864618385043116e-15 l 3.5650623885917985,6.174869189193863 l 3.5650623885918034,-6.17486918919386 l 3.5650623885918002,6.174869189193865 l 3.5650623885918034,-6.17486918919386 l 3.565062388591799,6.174869189193863 l -7.130124777183604,-4.27230069241245e-15 l 3.565062388591799,6.174869189193863 l -7.130124777183603,-4.7864618385043116e-15 l 3.5650623885918065,-6.174869189193858 l -7.130124777183603,-4.7864618385043116e-15 l 3.565062388591799,6.174869189193863 l -7.130124777183604,-4.27230069241245e-15 l 3.565062388591799,6.174869189193863 l 3.5650623885918034,-6.17486918919386 l 3.5650623885918002,6.174869189193865 l 3.5650623885918034,-6.17486918919386 l 3.5650623885917985,6.174869189193863 l -7.130124777183603,-4.7864618385043116e-15 l 3.5650623885917985,6.174869189193863 l 3.5650623885918034,-6.17486918919386 l 3.5650623885918002,6.174869189193865 l 3.5650623885918034,-6.17486918919386 h -7.130124777183604 l 3.565062388591804,-6.1748691891938625 h -7.130124777183604 l 3.565062388591804,-6.174869189193861 l 3.5650623885917994,6.174869189193862 l 3.565062388591804,-6.174869189193861 h -7.130124777183604 l 3.565062388591804,-6.1748691891938625 h -7.130124777183604 l 3.565062388591804,-6.174869189193861 l 3.5650623885918002,6.1748691891938625 l 3.565062388591804,-6.174869189193861 l 3.5650623885917994,6.174869189193862 l -7.130124777183604,-3.5622129132357964e-15 l 3.5650623885917994,6.174869189193862 l 3.565062388591804,-6.174869189193861 l 3.5650623885918002,6.1748691891938625 l 3.565062388591804,-6.174869189193861 h -7.130124777183604 l 3.565062388591804,-6.1748691891938625 h -7.130124777183604 l 3.565062388591804,-6.174869189193861 l 3.5650623885917994,6.174869189193862 l 3.565062388591804,-6.174869189193861 h -7.130124777183604 l 3.565062388591804,-6.1748691891938625 h -7.130124777183604 l 3.565062388591804,-6.174869189193861 l 3.5650623885918002,6.174869189193863 l 3.565062388591804,-6.174869189193861 l 3.5650623885917985,6.1748691891938625 l -7.130124777183604,-4.89804275569922e-15 l 3.5650623885917985,6.1748691891938625 l 3.565062388591804,-6.174869189193861 l 3.5650623885918002,6.174869189193863 l 3.565062388591804,-6.174869189193861 l 3.565062388591799,6.174869189193862 l -7.130124777183604,-4.007489527390271e-15 l 3.565062388591799,6.174869189193862 l -7.130124777183604,-4.89804275569922e-15 l 3.5650623885918065,-6.174869189193859 l -7.130124777183604,-4.89804275569922e-15 l 3.565062388591799,6.174869189193862 l -7.130124777183604,-4.007489527390271e-15 l 3.565062388591799,6.174869189193862 l 3.565062388591804,-6.174869189193861 l 3.5650623885918002,6.174869189193863 l 3.565062388591804,-6.174869189193861 l 3.5650623885917985,6.1748691891938625 l -7.130124777183604,-4.89804275569922e-15 l 3.5650623885917985,6.1748691891938625 l 3.565062388591804,-6.174869189193861 l 3.5650623885918002,6.174869189193863 l 3.565062388591804,-6.174869189193861 h -7.130124777183604 l 3.565062388591804,-6.1748691891938625 h -7.130124777183604 l 3.565062388591804,-6.174869189193861 l 3.5650623885917994,6.174869189193862 l 3.565062388591804,-6.174869189193861 h -7.130124777183604 l 3.565062388591804,-6.1748691891938625 h -7.130124777183604 l 3.565062388591804,-6.174869189193861 l 3.5650623885918002,6.1748691891938625 l 3.565062388591804,-6.174869189193861 l 3.5650623885917994,6.174869189193862 l -7.130124777183604,-3.5622129132357964e-15 l 3.5650623885917994,6.174869189193862 l 3.565062388591804,-6.174869189193861 l 3.5650623885918002,6.1748691891938625 l 3.565062388591804,-6.174869189193861 h -7.130124777183604 l 3.565062388591804,-6.1748691891938625 h -7.130124777183604 l 3.565062388591804,-6.174869189193861 l 3.5650623885917994,6.174869189193862 l 3.565062388591804,-6.174869189193861 h -7.130124777183604 l 3.565062388591804,-6.1748691891938625 h -7.130124777183604 "/></g><defs></defs><g stroke-linejoin="miter" stroke-opacity="1.0" fill-opacity="0.0" stroke="rgb(0,0,0)" stroke-width="0.9194596119922959" fill="rgb(0,0,0)" stroke-linecap="butt" stroke-miterlimit="10.0"><path d="M 141.1764705882353,93.8342533892648 l 1.7811064566178982e-15,-37.04921513516315 l 32.0855614973262,18.524607567581583 l 1.7811064566178982e-15,-37.04921513516315 l 32.085561497326196,18.524607567581587 l -32.08556149732621,18.524607567581565 l 32.085561497326196,18.524607567581587 l 1.7811064566178982e-15,-37.04921513516315 l 32.0855614973262,18.524607567581583 l 1.7811064566178982e-15,-37.04921513516315 "/></g><defs></defs><g stroke-linejoin="miter" stroke-opacity="1.0" fill-opacity="0.0" stroke="rgb(0,0,0)" stroke-width="0.9194596119922959" fill="rgb(0,0,0)" stroke-linecap="butt" stroke-miterlimit="10.0"><path d="M 96.25668449197862,93.8342533892648 l 28.770377122591455,-49.83175492924569 "/></g><defs></defs><g stroke-linejoin="miter" stroke-opacity="1.0" fill-opacity="1.0" stroke="rgb(0,0,0)" stroke-width="0.0" fill="rgb(0,0,0)" stroke-linecap="butt" stroke-miterlimit="10.0"></g><defs></defs><g stroke-linejoin="miter" stroke-opacity="1.0" fill-opacity="1.0" stroke="rgb(0,0,0)" stroke-width="0.0" fill="rgb(0,0,0)" stroke-linecap="butt" stroke-miterlimit="10.0"></g><defs></defs><g stroke-linejoin="miter" stroke-opacity="1.0" fill-opacity="1.0" stroke="rgb(0,0,0)" stroke-width="0.0" fill="rgb(0,0,0)" stroke-linecap="butt" stroke-miterlimit="10.0"><path d="M 129.44783510790592,37.26495377279996 l -7.126043653177288,6.416318525163785 l 3.345102112891662,0.1324643230586504 Z"/></g><defs></defs><g stroke-linejoin="miter" stroke-opacity="1.0" fill-opacity="1.0" stroke="rgb(0,0,0)" stroke-width="0.0" fill="rgb(0,0,0)" stroke-linecap="butt" stroke-miterlimit="10.0"><path d="M 125.66689356762029,43.8137366210224 l -0.24169426218066803,0.4186267419947901 l -0.7962753817391114,-0.4597298059961479 Z"/></g><defs></defs><g stroke-linejoin="miter" stroke-opacity="1.0" fill-opacity="0.0" stroke="rgb(0,0,0)" stroke-width="0.9194596119922959" fill="rgb(0,0,0)" stroke-linecap="butt" stroke-miterlimit="10.0"><path d="M 64.17112299465242,38.26043068652008 l 28.770377122591455,49.83175492924569 "/></g><defs></defs><g stroke-linejoin="miter" stroke-opacity="1.0" fill-opacity="1.0" stroke="rgb(0,0,0)" stroke-width="0.0" fill="rgb(0,0,0)" stroke-linecap="butt" stroke-miterlimit="10.0"></g><defs></defs><g stroke-linejoin="miter" stroke-opacity="1.0" fill-opacity="1.0" stroke="rgb(0,0,0)" stroke-width="0.0" fill="rgb(0,0,0)" stroke-linecap="butt" stroke-miterlimit="10.0"></g><defs></defs><g stroke-linejoin="miter" stroke-opacity="1.0" fill-opacity="1.0" stroke="rgb(0,0,0)" stroke-width="0.0" fill="rgb(0,0,0)" stroke-linecap="butt" stroke-miterlimit="10.0"><path d="M 96.56599822884061,95.28946010898107 l -1.9936730149758946,-9.37949409471029 l -1.7872685253097316,2.830711246487855 Z"/></g><defs></defs><g stroke-linejoin="miter" stroke-opacity="1.0" fill-opacity="1.0" stroke="rgb(0,0,0)" stroke-width="0.0" fill="rgb(0,0,0)" stroke-linecap="butt" stroke-miterlimit="10.0"><path d="M 92.78505668855499,88.74067726075863 l -0.24169426218066803,-0.4186267419947901 l 0.7962753817391114,-0.4597298059961479 Z"/></g><defs></defs><g stroke-linejoin="miter" stroke-opacity="1.0" fill-opacity="0.0" stroke="rgb(0,0,0)" stroke-width="0.9194596119922959" fill="rgb(0,0,0)" stroke-linecap="butt" stroke-miterlimit="10.0"><path d="M 32.08556149732621,93.8342533892648 l 28.770377122591455,-49.83175492924569 "/></g><defs></defs><g stroke-linejoin="miter" stroke-opacity="1.0" fill-opacity="1.0" stroke="rgb(0,0,0)" stroke-width="0.0" fill="rgb(0,0,0)" stroke-linecap="butt" stroke-miterlimit="10.0"></g><defs></defs><g stroke-linejoin="miter" stroke-opacity="1.0" fill-opacity="1.0" stroke="rgb(0,0,0)" stroke-width="0.0" fill="rgb(0,0,0)" stroke-linecap="butt" stroke-miterlimit="10.0"></g><defs></defs><g stroke-linejoin="miter" stroke-opacity="1.0" fill-opacity="1.0" stroke="rgb(0,0,0)" stroke-width="0.0" fill="rgb(0,0,0)" stroke-linecap="butt" stroke-miterlimit="10.0"><path d="M 65.27671211325351,37.26495377279996 l -7.126043653177288,6.416318525163785 l 3.345102112891662,0.1324643230586504 Z"/></g><defs></defs><g stroke-linejoin="miter" stroke-opacity="1.0" fill-opacity="1.0" stroke="rgb(0,0,0)" stroke-width="0.0" fill="rgb(0,0,0)" stroke-linecap="butt" stroke-miterlimit="10.0"><path d="M 61.495770572967885,43.8137366210224 l -0.24169426218066803,0.4186267419947901 l -0.7962753817391114,-0.4597298059961479 Z"/></g></svg>