<svg xmlns="http://www.w3.org/2000/svg" height="162.7707" stroke-opacity="1" viewBox="0 0 400 163" font-size="1" width="400.0000" xmlns:xlink="http://www.w3.org/1999/xlink" stroke="rgb(0,0,0)" version="1.1"><defs></defs><g stroke-linejoin="miter" stroke-opacity="1.0" fill-opacity="0.0" stroke="rgb(0,0,0)" stroke-width="1.0206529706904566" fill="rgb(0,0,0)" stroke-linecap="butt" stroke-miterlimit="10.0"><path d="M 257.7912,132.0454 l -3.0257,1.7469 l -3.0257,1.7469 l -0.0000,-3.4938 l -0.0000,-3.4938 l -3.0257,1.7469 l -3.0257,1.7469 l -0.0000,-3.4938 l -0.0000,-3.4938 l 3.0257,1.7469 l 3.0257,1.7469 l -0.0000,-3.4938 l -0.0000,-3.4938 l -3.0257,1.7469 l -3.0257,1.7469 l -0.0000,-3.4938 l -0.0000,-3.4938 l -3.0257,1.7469 l -3.0257,1.7469 l -0.0000,-3.4938 v -3.4938 l 3.0257,1.7469 l 3.0257,1.7469 l 0.0000,-3.4938 l -0.0000,-3.4938 l 3.0257,1.7469 l 3.0257,1.7469 l -3.0257,1.7469 l -3.0257,1.7469 l 3.0257,1.7469 l 3.0257,1.7469 l -0.0000,-3.4938 l -0.0000,-3.4938 l 3.0257,1.7469 l 3.0257,1.7469 l -0.0000,-3.4938 l -0.0000,-3.4938 l -3.0257,1.7469 l -3.0257,1.7469 l -0.0000,-3.4938 l -0.0000,-3.4938 l -3.0257,1.7469 l -3.0257,1.7469 l -0.0000,-3.4938 l -0.0000,-3.4938 l 3.0257,1.7469 l 3.0257,1.7469 l -0.0000,-3.4938 l -0.0000,-3.4938 l -3.0257,1.7469 l -3.0257,1.7469 l -0.0000,-3.4938 l -0.0000,-3.4938 l -3.0257,1.7469 l -3.0257,1.7469 l -0.0000,-3.4938 l 0.0000,-3.4938 l 3.0257,1.7469 l 3.0257,1.7469 l 0.0000,-3.4938 l -0.0000,-3.4938 l 3.0257,1.7469 l 3.0257,1.7469 l -3.0257,1.7469 l -3.0257,1.7469 l 3.0257,1.7469 l 3.0257,1.7469 l -0.0000,-3.4938 l 0.0000,-3.4938 l 3.0257,1.7469 l 3.0257,1.7469 l -0.0000,-3.4938 l -0.0000,-3.4938 l 3.0257,1.7469 l 3.0257,1.7469 l -3.0257,1.7469 l -3.0257,1.7469 l 3.0257,1.7469 l 3.0257,1.7469 l -3.0257,1.7469 l -3.0257,1.7469 l -0.0000,-3.4938 l -0.0000,-3.4938 l -3.0257,1.7469 l -3.0257,1.7469 l 3.0257,1.7469 l 3.0257,1.7469 l -3.0257,1.7469 l -3.0257,1.7469 l 3.0257,1.7469 l 3.0257,1.7469 l 0.0000,-3.4938 l 0.0000,-3.4938 l 3.0257,1.7469 l 3.0257,1.7469 l 0.0000,-3.4938 l 0.0000,-3.4938 l 3.0257,1.7469 l 3.0257,1.7469 l -3.0257,1.7469 l -3.0257,1.7469 l 3.0257,1.7469 l 3.0257,1.7469 l 0.0000,-3.4938 l 0.0000,-3.4938 l 3.0257,1.7469 l 3.0257,1.7469 l 0.0000,-3.4938 l 0.0000,-3.4938 l -3.0257,1.7469 l -3.0257,1.7469 l 0.0000,-3.4938 l 0.0000,-3.4938 l -3.0257,1.7469 l -3.0257,1.7469 v -3.4938 l 0.0000,-3.4938 l 3.0257,1.7469 l 3.0257,1.7469 l 0.0000,-3.4938 l -0.0000,-3.4938 l -3.0257,1.7469 l -3.0257,1.7469 l 0.0000,-3.4938 l 0.0000,-3.4938 l -3.0257,1.7469 l -3.0257,1.7469 l -0.0000,-3.4938 l 0.0000,-3.4938 l 3.0257,1.7469 l 3.0257,1.7469 l 0.0000,-3.4938 l 0.0000,-3.4938 l 3.0257,1.7469 l 3.0257,1.7469 l -3.0257,1.7469 l -3.0257,1.7469 l 3.0257,1.7469 l 3.0257,1.7469 l 0.0000,-3.4938 l 0.0000,-3.4938 l 3.0257,1.7469 l 3.0257,1.7469 l 0.0000,-3.4938 l 0.0000,-3.4938 l -3.0257,1.7469 l -3.0257,1.7469 l 0.0000,-3.4938 l 0.0000,-3.4938 l -3.0257,1.7469 l -3.0257,1.7469 l 0.0000,-3.4938 l 0.0000,-3.4938 l 3.0257,1.7469 l 3.0257,1.7469 l 0.0000,-3.4938 l 0.0000,-3.4938 l -3.0257,1.7469 l -3.0257,1.7469 l 0.0000,-3.4938 l 0.0000,-3.4938 l -3.0257,1.7469 l -3.0257,1.7469 l -0.0000,-3.4938 l 0.0000,-3.4938 l 3.0257,1.7469 l 3.0257,1.7469 l 0.0000,-3.4938 l -0.0000,-3.4938 l 3.0257,1.7469 l 3.0257,1.7469 l -3.0257,1.7469 l -3.0257,1.7469 l 3.0257,1.7469 l 3.0257,1.7469 l -0.0000,-3.4938 l 0.0000,-3.4938 l 3.0257,1.7469 l 3.0257,1.7469 l -0.0000,-3.4938 l -0.0000,-3.4938 l 3.0257,1.7469 l 3.0257,1.7469 l -3.0257,1.7469 l -3.0257,1.7469 l 3.0257,1.7469 l 3.0257,1.7469 l -3.0257,1.7469 l -3.0257,1.7469 l -0.0000,-3.4938 l -0.0000,-3.4938 l -3.0257,1.7469 l -3.0257,1.7469 l 3.0257,1.7469 l 3.0257,1.7469 l -3.0257,1.7469 l -3.0257,1.7469 l 3.0257,1.7469 l 3.0257,1.7469 l -0.0000,-3.4938 l -0.0000,-3.4938 l 3.0257,1.7469 l 3.0257,1.7469 l -0.0000,-3.4938 l -0.0000,-3.4938 l 3.0257,1.7469 l 3.0257,1.7469 l -3.0257,1.7469 l -3.0257,1.7469 l 3.0257,1.7469 l 3.0257,1.7469 l -0.0000,-3.4938 l -0.0000,-3.4938 l 3.0257,1.7469 l 3.0257,1.7469 l -0.0000,-3.4938 l -0.0000,-3.4938 l 3.0257,1.7469 l 3.0257,1.7469 l -3.0257,1.7469 l -3.0257,1.7469 l 3.0257,1.7469 l 3.0257,1.7469 l -3.0257,1.7469 l -3.0257,1.7469 l -0.0000,-3.4938 l -0.0000,-3.4938 l -3.0257,1.7469 l -3.0257,1.7469 l 3.0257,1.7469 l 3.0257,1.7469 l -3.0257,1.7469 l -3.0257,1.7469 l 3.0257,1.7469 l 3.0257,1.7469 l -3.0257,1.7469 l -3.0257,1.7469 l -0.0000,-3.4938 l -0.0000,-3.4938 l -3.0257,1.7469 l -3.0257,1.7469 l -0.0000,-3.4938 l -0.0000,-3.4938 l 3.0257,1.7469 l 3.0257,1.7469 l -0.0000,-3.4938 l -0.0000,-3.4938 l -3.0257,1.7469 l -3.0257,1.7469 l -0.0000,-3.4938 l -0.0000,-3.4938 l -3.0257,1.7469 l -3.0257,1.7469 l 3.0257,1.7469 l 3.0257,1.7469 l -3.0257,1.7469 l -3.0257,1.7469 l 3.0257,1.7469 l 3.0257,1.7469 l -3.0257,1.7469 l -3.0257,1.7469 l -0.0000,-3.4938 l -0.0000,-3.4938 l -3.0257,1.7469 l -3.0257,1.7469 l 3.0257,1.7469 l 3.0257,1.7469 l -3.0257,1.7469 l -3.0257,1.7469 l 3.0257,1.7469 l 3.0257,1.7469 l -0.0000,-3.4938 l -0.0000,-3.4938 l 3.0257,1.7469 l 3.0257,1.7469 l -0.0000,-3.4938 l -0.0000,-3.4938 l 3.0257,1.7469 l 3.0257,1.7469 l -3.0257,1.7469 l -3.0257,1.7469 l 3.0257,1.7469 l 3.0257,1.7469 l -0.0000,-3.4938 l -0.0000,-3.4938 l 3.0257,1.7469 l 3.0257,1.7469 l -0.0000,-3.4938 l -0.0000,-3.4938 l 3.0257,1.7469 l 3.0257,1.7469 l -3.0257,1.7469 l -3.0257,1.7469 l 3.0257,1.7469 l 3.0257,1.7469 l -3.0257,1.7469 l -3.0257,1.7469 l -0.0000,-3.4938 l -0.0000,-3.4938 l -3.0257,1.7469 l -3.0257,1.7469 l 3.0257,1.7469 l 3.0257,1.7469 l -3.0257,1.7469 l -3.0257,1.7469 l 3.0257,1.7469 l 3.0257,1.7469 l -0.0000,-3.4938 l -0.0000,-3.4938 l 3.0257,1.7469 l 3.0257,1.7469 l -0.0000,-3.4938 l -0.0000,-3.4938 l 3.0257,1.7469 l 3.0257,1.7469 l -3.0257,1.7469 l -3.0257,1.7469 l 3.0257,1.7469 l 3.0257,1.7469 l -0.0000,-3.4938 l -0.0000,-3.4938 l 3.0257,1.7469 l 3.0257,1.7469 l -0.0000,-3.4938 l -0.0000,-3.4938 l -3.0257,1.7469 l -3.0257,1.7469 l -0.0000,-3.4938 l -0.0000,-3.4938 l -3.0257,1.7469 l -3.0257,1.7469 l -0.0000,-3.4938 l -0.0000,-3.4938 l 3.0257,1.7469 l 3.0257,1.7469 l -0.0000,-3.4938 l -0.0000,-3.4938 l -3.0257,1.7469 l -3.0257,1.7469 l -0.0000,-3.4938 l -0.0000,-3.4938 l -3.0257,1.7469 l -3.0257,1.7469 l -0.0000,-3.4938 l -0.0000,-3.4938 l 3.0257,1.7469 l 3.0257,1.7469 l -0.0000,-3.4938 l -0.0000,-3.4938 l 3.0257,1.7469 l 3.0257,1.7469 l -3.0257,1.7469 l -3.0257,1.7469 l 3.0257,1.7469 l 3.0257,1.7469 l -0.0000,-3.4938 l -0.0000,-3.4938 l 3.0257,1.7469 l 3.0257,1.7469 l -0.0000,-3.4938 l -0.0000,-3.4938 l -3.0257,1.7469 l -3.0257,1.7469 l -0.0000,-3.4938 l -0.0000,-3.4938 l -3.0257,1.7469 l -3.0257,1.7469 l -0.0000,-3.4938 l -0.0000,-3.4938 l 3.0257,1.7469 l 3.0257,1.7469 l -0.0000,-3.4938 l -0.0000,-3.4938 l -3.0257,1.7469 l -3.0257,1.7469 l -0.0000,-3.4938 l -0.0000,-3.4938 l -3.0257,1.7469 l -3.0257,1.7469 l -0.0000,-3.4938 l -0.0000,-3.4938 l 3.0257,1.7469 l 3.0257,1.7469 l -0.0000,-3.4938 l -0.0000,-3.4938 l 3.0257,1.7469 l 3.0257,1.7469 l -3.0257,1.7469 l -3.0257,1.7469 l 3.0257,1.7469 l 3.0257,1.7469 l -0.0000,-3.4938 l -0.0000,-3.4938 l 3.0257,1.7469 l 3.0257,1.7469 l -0.0000,-3.4938 l -0.0000,-3.4938 l 3.0257,1.7469 l 3.0257,1.7469 l -3.0257,1.7469 l -3.0257,1.7469 l 3.0257,1.7469 l 3.0257,1.7469 l -3.0257,1.7469 l -3.0257,1.7469 l -0.0000,-3.4938 l -0.0000,-3.4938 l -3.0257,1.7469 l -3.0257,1.7469 l 3.0257,1.7469 l 3.0257,1.7469 l -3.0257,1.7469 l -3.0257,1.7469 l 3.0257,1.7469 l 3.0257,1.7469 l -0.0000,-3.4938 l -0.0000,-3.4938 l 3.0257,1.7469 l 3.0257,1.7469 l -0.0000,-3.4938 l -0.0000,-3.4938 l 3.0257,1.7469 l 3.0257,1.7469 l -3.0257,1.7469 l -3.0257,1.7469 l 3.0257,1.7469 l 3.0257,1.7469 l -0.0000,-3.4938 l -0.0000,-3.4938 l 3.0257,1.7469 l 3.0257,1.7469 l -0.0000,-3.4938 l -0.0000,-3.4938 l -3.0257,1.7469 l -3.0257,1.7469 l -0.0000,-3.4938 l -0.0000,-3.4938 l -3.0257,1.7469 l -3.0257,1.7469 l -0.0000,-3.4938 l -0.0000,-3.4938 l 3.0257,1.7469 l 3.0257,1.7469 l -0.0000,-3.4938 l -0.0000,-3.4938 l -3.0257,1.7469 l -3.0257,1.7469 l -0.0000,-3.4938 l -0.0000,-3.4938 l -3.0257,1.7469 l -3.0257,1.7469 l -0.0000,-3.4938 l -0.0000,-3.4938 l 3.0257,1.7469 l 3.0257,1.7469 l -0.0000,-3.4938 l -0.0000,-3.4938 l 3.0257,1.7469 l 3.0257,1.7469 l -3.0257,1.7469 l -3.0257,1.7469 l 3.0257,1.7469 l 3.0257,1.7469 l -0.0000,-3.4938 l -0.0000,-3.4938 l 3.0257,1.7469 l 3.0257,1.7469 l -0.0000,-3.4938 l -0.0000,-3.4938 l -3.0257,1.7469 l -3.0257,1.7469 l -0.0000,-3.4938 l -0.0000,-3.4938 l -3.0257,1.7469 l -3.0257,1.7469 l -0.0000,-3.4938 l -0.0000,-3.4938 l 3.0257,1.7469 l 3.0257,1.7469 l -0.0000,-3.4938 l -0.0000,-3.4938 l -3.0257,1.7469 l -3.0257,1.7469 l -0.0000,-3.4938 l -0.0000,-3.4938 l -3.0257,1.7469 l -3.0257,1.7469 l -0.0000,-3.4938 l -0.0000,-3.4938 l 3.0257,1.7469 l 3.0257,1.7469 l -0.0000,-3.4938 l -0.0000,-3.4938 l 3.0257,1.7469 l 3.0257,1.7469 l -3.0257,1.7469 l -3.0257,1.7469 l 3.0257,1.7469 l 3.0257,1.7469 l -0.0000,-3.4938 l -0.0000,-3.4938 l 3.0257,1.7469 l 3.0257,1.7469 l -0.0000,-3.4938 l -0.0000,-3.4938 l 3.0257,1.7469 l 3.0257,1.7469 l -3.0257,1.7469 l -3.0257,1.7469 l 3.0257,1.7469 l 3.0257,1.7469 l -3.0257,1.7469 l -3.0257,1.7469 l -0.0000,-3.4938 l -0.0000,-3.4938 l -3.0257,1.7469 l -3.0257,1.7469 l 3.0257,1.7469 l 3.0257,1.7469 l -3.0257,1.7469 l -3.0257,1.7469 l 3.0257,1.7469 l 3.0257,1.7469 l -0.0000,-3.4938 l -0.0000,-3.4938 l 3.0257,1.7469 l 3.0257,1.7469 l -0.0000,-3.4938 l -0.0000,-3.4938 l 3.0257,1.7469 l 3.0257,1.7469 l -3.0257,1.7469 l -3.0257,1.7469 l 3.0257,1.7469 l 3.0257,1.7469 l -0.0000,-3.4938 l -0.0000,-3.4938 l 3.0257,1.7469 l 3.0257,1.7469 l -0.0000,-3.4938 l -0.0000,-3.4938 l 3.0257,1.7469 l 3.0257,1.7469 l -3.0257,1.7469 l -3.0257,1.7469 l 3.0257,1.7469 l 3.0257,1.7469 l -3.0257,1.7469 l -3.0257,1.7469 l -0.0000,-3.4938 l -0.0000,-3.4938 l -3.0257,1.7469 l -3.0257,1.7469 l 3.0257,1.7469 l 3.0257,1.7469 l -3.0257,1.7469 l -3.0257,1.7469 l 3.0257,1.7469 l 3.0257,1.7469 l -3.0257,1.7469 l -3.0257,1.7469 l -0.0000,-3.4938 l -0.0000,-3.4938 l -3.0257,1.7469 l -3.0257,1.7469 l -0.0000,-3.4938 l -0.0000,-3.4938 l 3.0257,1.7469 l 3.0257,1.7469 l -0.0000,-3.4938 l -0.0000,-3.4938 l -3.0257,1.7469 l -3.0257,1.7469 l -0.0000,-3.4938 l -0.0000,-3.4938 l -3.0257,1.7469 l -3.0257,1.7469 l 3.0257,1.7469 l 3.0257,1.7469 l -3.0257,1.7469 l -3.0257,1.7469 l 3.0257,1.7469 l 3.0257,1.7469 l -3.0257,1.7469 l -3.0257,1.7469 l -0.0000,-3.4938 l -0.0000,-3.4938 l -3.0257,1.7469 l -3.0257,1.7469 l 3.0257,1.7469 l 3.0257,1.7469 l -3.0257,1.7469 l -3.0257,1.7469 l 3.0257,1.7469 l 3.0257,1.7469 l -0.0000,-3.4938 l 0.0000,-3.4938 l 3.0257,1.7469 l 3.0257,1.7469 l 0.0000,-3.4938 l -0.0000,-3.4938 l 3.0257,1.7469 l 3.0257,1.7469 l -3.0257,1.7469 l -3.0257,1.7469 l 3.0257,1.7469 l 3.0257,1.7469 l -0.0000,-3.4938 l 0.0000,-3.4938 l 3.0257,1.7469 l 3.0257,1.7469 l 0.0000,-3.4938 l -0.0000,-3.4938 l 3.0257,1.7469 l 3.0257,1.7469 l -3.0257,1.7469 l -3.0257,1.7469 l 3.0257,1.7469 l 3.0257,1.7469 l -3.0257,1.7469 l -3.0257,1.7469 l -0.0000,-3.4938 l -0.0000,-3.4938 l -3.0257,1.7469 l -3.0257,1.7469 l 3.0257,1.7469 l 3.0257,1.7469 l -3.0257,1.7469 l -3.0257,1.7469 l 3.0257,1.7469 l 3.0257,1.7469 l -0.0000,-3.4938 l 0.0000,-3.4938 l 3.0257,1.7469 l 3.0257,1.7469 l 0.0000,-3.4938 l 0.0000,-3.4938 l 3.0257,1.7469 l 3.0257,1.7469 l -3.0257,1.7469 l -3.0257,1.7469 l 3.0257,1.7469 l 3.0257,1.7469 l 0.0000,-3.4938 l 0.0000,-3.4938 l 3.0257,1.7469 l 3.0257,1.7469 l 0.0000,-3.4938 l -0.0000,-3.4938 l 3.0257,1.7469 l 3.0257,1.7469 l -3.0257,1.7469 l -3.0257,1.7469 l 3.0257,1.7469 l 3.0257,1.7469 l -3.0257,1.7469 l -3.0257,1.7469 l -0.0000,-3.4938 l -0.0000,-3.4938 l -3.0257,1.7469 l -3.0257,1.7469 l 3.0257,1.7469 l 3.0257,1.7469 l -3.0257,1.7469 l -3.0257,1.7469 l 3.0257,1.7469 l 3.0257,1.7469 l -3.0257,1.7469 l -3.0257,1.7469 l -0.0000,-3.4938 l -0.0000,-3.4938 l -3.0257,1.7469 l -3.0257,1.7469 l -0.0000,-3.4938 l -0.0000,-3.4938 l 3.0257,1.7469 l 3.0257,1.7469 l -0.0000,-3.4938 l -0.0000,-3.4938 l -3.0257,1.7469 l -3.0257,1.7469 l -0.0000,-3.4938 l -0.0000,-3.4938 l -3.0257,1.7469 l -3.0257,1.7469 l 3.0257,1.7469 l 3.0257,1.7469 l -3.0257,1.7469 l -3.0257,1.7469 l 3.0257,1.7469 l 3.0257,1.7469 l -3.0257,1.7469 l -3.0257,1.7469 l -0.0000,-3.4938 l -0.0000,-3.4938 l -3.0257,1.7469 l -3.0257,1.7469 l 3.0257,1.7469 l 3.0257,1.7469 l -3.0257,1.7469 l -3.0257,1.7469 l 3.0257,1.7469 l 3.0257,1.7469 l -3.0257,1.7469 l -3.0257,1.7469 l -0.0000,-3.4938 l -0.0000,-3.4938 l -3.0257,1.7469 l -3.0257,1.7469 l -0.0000,-3.4938 l -0.0000,-3.4938 l 3.0257,1.7469 l 3.0257,1.7469 l -0.0000,-3.4938 l -0.0000,-3.4938 l -3.0257,1.7469 l -3.0257,1.7469 l -0.0000,-3.4938 l -0.0000,-3.4938 l -3.0257,1.7469 l -3.0257,1.7469 l -0.0000,-3.4938 l -0.0000,-3.4938 l 3.0257,1.7469 l 3.0257,1.7469 l -0.0000,-3.4938 l -0.0000,-3.4938 l 3.0257,1.7469 l 3.0257,1.7469 l -3.0257,1.7469 "/></g><g stroke-linejoin="miter" stroke-opacity="1.0" fill-opacity="0.0" stroke="rgb(0,0,0)" stroke-width="1.0206529706904566" fill="rgb(0,0,0)" stroke-linecap="butt" stroke-miterlimit="10.0"><path d="M 119.8185,132.0454 l -0.0000,-31.4442 l 0.0000,-31.4442 l 27.2315,15.7221 l 27.2315,15.7221 l 0.0000,-31.4442 l -0.0000,-31.4442 l 27.2315,15.7221 l 27.2315,15.7221 l -27.2315,15.7221 "/></g><g stroke-linejoin="miter" stroke-opacity="1.0" fill-opacity="0.0" stroke="rgb(0,0,0)" stroke-width="1.0206529706904566" fill="rgb(0,0,0)" stroke-linecap="butt" stroke-miterlimit="10.0"><path d="M 81.6944,37.7129 l 23.5514,40.7923 "/></g><g stroke-linejoin="miter" stroke-opacity="1.0" fill-opacity="1.0" stroke="rgb(0,0,0)" stroke-width="0.0" fill="rgb(0,0,0)" stroke-linecap="butt" stroke-miterlimit="10.0"></g><g stroke-linejoin="miter" stroke-opacity="1.0" fill-opacity="1.0" stroke="rgb(0,0,0)" stroke-width="0.0" fill="rgb(0,0,0)" stroke-linecap="butt" stroke-miterlimit="10.0"></g><g stroke-linejoin="miter" stroke-opacity="1.0" fill-opacity="1.0" stroke="rgb(0,0,0)" stroke-width="0.0" fill="rgb(0,0,0)" stroke-linecap="butt" stroke-miterlimit="10.0"><path d="M 109.2692,86.4945 l -2.2131,-10.4118 l -1.9840,3.1423 Z"/></g><g stroke-linejoin="miter" stroke-opacity="1.0" fill-opacity="1.0" stroke="rgb(0,0,0)" stroke-width="0.0" fill="rgb(0,0,0)" stroke-linecap="butt" stroke-miterlimit="10.0"><path d="M 105.0722,79.2250 l -0.2683,-0.4647 l 0.8839,-0.5103 Z"/></g><g stroke-linejoin="miter" stroke-opacity="1.0" fill-opacity="0.0" stroke="rgb(0,0,0)" stroke-width="1.0206529706904566" fill="rgb(0,0,0)" stroke-linecap="butt" stroke-miterlimit="10.0"><path d="M 81.6944,37.7129 l -23.5514,40.7923 "/></g><g stroke-linejoin="miter" stroke-opacity="1.0" fill-opacity="1.0" stroke="rgb(0,0,0)" stroke-width="0.0" fill="rgb(0,0,0)" stroke-linecap="butt" stroke-miterlimit="10.0"></g><g stroke-linejoin="miter" stroke-opacity="1.0" fill-opacity="1.0" stroke="rgb(0,0,0)" stroke-width="0.0" fill="rgb(0,0,0)" stroke-linecap="butt" stroke-miterlimit="10.0"></g><g stroke-linejoin="miter" stroke-opacity="1.0" fill-opacity="1.0" stroke="rgb(0,0,0)" stroke-width="0.0" fill="rgb(0,0,0)" stroke-linecap="butt" stroke-miterlimit="10.0"><path d="M 53.2357,85.9842 l 7.9103,-7.1225 l -3.7133,-0.1470 Z"/></g><g stroke-linejoin="miter" stroke-opacity="1.0" fill-opacity="1.0" stroke="rgb(0,0,0)" stroke-width="0.0" fill="rgb(0,0,0)" stroke-linecap="butt" stroke-miterlimit="10.0"><path d="M 57.4327,78.7147 l 0.2683,-0.4647 l 0.8839,0.5103 Z"/></g><g stroke-linejoin="miter" stroke-opacity="1.0" fill-opacity="0.0" stroke="rgb(0,0,0)" stroke-width="1.0206529706904566" fill="rgb(0,0,0)" stroke-linecap="butt" stroke-miterlimit="10.0"><path d="M 27.2315,132.0454 l 23.5514,-40.7923 "/></g><g stroke-linejoin="miter" stroke-opacity="1.0" fill-opacity="1.0" stroke="rgb(0,0,0)" stroke-width="0.0" fill="rgb(0,0,0)" stroke-linecap="butt" stroke-miterlimit="10.0"></g><g stroke-linejoin="miter" stroke-opacity="1.0" fill-opacity="1.0" stroke="rgb(0,0,0)" stroke-width="0.0" fill="rgb(0,0,0)" stroke-linecap="butt" stroke-miterlimit="10.0"></g><g stroke-linejoin="miter" stroke-opacity="1.0" fill-opacity="1.0" stroke="rgb(0,0,0)" stroke-width="0.0" fill="rgb(0,0,0)" stroke-linecap="butt" stroke-miterlimit="10.0"><path d="M 55.6902,83.7741 l -7.9103,7.1225 l 3.7133,0.1470 Z"/></g><g stroke-linejoin="miter" stroke-opacity="1.0" fill-opacity="1.0" stroke="rgb(0,0,0)" stroke-width="0.0" fill="rgb(0,0,0)" stroke-linecap="butt" stroke-miterlimit="10.0"><path d="M 51.4931,91.0436 l -0.2683,0.4647 l -0.8839,-0.5103 Z"/></g></svg>