<svg xmlns="http://www.w3.org/2000/svg" height="212.3766" stroke-opacity="1" viewBox="0 0 600 212" font-size="1" width="600.0000" xmlns:xlink="http://www.w3.org/1999/xlink" stroke="rgb(0,0,0)" version="1.1"><defs></defs><g stroke-linejoin="miter" stroke-opacity="1.0" fill-opacity="0.0" stroke="rgb(0,0,0)" stroke-width="1.4278708574223051" fill="rgb(0,0,0)" stroke-linecap="butt" stroke-miterlimit="10.0"><path d="M 425.9188,194.9685 v -6.7004 v -6.7004 l 5.8027,-3.3502 l 5.8027,3.3502 l -3.8685,-0.0000 l -3.8685,-0.0000 l -1.9342,3.3502 l 1.9342,3.3502 l 5.8027,-3.3502 l -1.9342,3.3502 l -1.9342,3.3502 l 5.8027,-3.3502 l 5.8027,-3.3502 l 5.8027,3.3502 l 5.8027,3.3502 l 5.8027,-3.3502 l -0.0000,-6.7004 l -1.9342,3.3502 l -1.9342,3.3502 l -3.8685,0.0000 l -1.9342,-3.3502 l 5.8027,-3.3502 l -3.8685,0.0000 l -3.8685,0.0000 l 5.8027,-3.3502 l 5.8027,-3.3502 l 5.8027,-3.3502 l 5.8027,-3.3502 l -0.0000,-6.7004 l -5.8027,-3.3502 l 1.9342,3.3502 l 1.9342,3.3502 l -1.9342,3.3502 l -3.8685,0.0000 l -0.0000,-6.7004 l -1.9342,3.3502 l -1.9342,3.3502 l -0.0000,-6.7004 l -0.0000,-6.7004 l -0.0000,-6.7004 l -0.0000,-6.7004 l -5.8027,-3.3502 l -5.8027,3.3502 l 3.8685,-0.0000 l 3.8685,-0.0000 l 1.9342,3.3502 l -1.9342,3.3502 l -5.8027,-3.3502 l 1.9342,3.3502 l 1.9342,3.3502 l -5.8027,-3.3502 l -5.8027,-3.3502 l -1.9342,3.3502 l -1.9342,3.3502 l 1.9342,3.3502 l 3.8685,-0.0000 l -1.9342,-1.1167 l -1.9342,-1.1167 l -0.0000,-2.2335 l 1.9342,-1.1167 l 1.9342,3.3502 l -0.0000,-2.2335 l -0.0000,-2.2335 l 1.9342,3.3502 l 1.9342,3.3502 l 3.8685,-0.0000 l 3.8685,-0.0000 l 1.9342,3.3502 l -1.9342,3.3502 l -0.0000,-2.2335 l -0.0000,-2.2335 l -1.9342,-1.1167 l -1.9342,1.1167 l 1.9342,3.3502 l -1.9342,-1.1167 l -1.9342,-1.1167 l 1.9342,3.3502 l 1.9342,3.3502 l 1.9342,3.3502 l 1.9342,3.3502 l -1.9342,3.3502 l -3.8685,0.0000 l 1.9342,-1.1167 l 1.9342,-1.1167 l -0.0000,-2.2335 l -1.9342,-1.1167 l -1.9342,3.3502 l -0.0000,-2.2335 l -0.0000,-2.2335 l -1.9342,3.3502 l -1.9342,3.3502 l -1.9342,3.3502 l -1.9342,3.3502 l -3.8685,0.0000 l -1.9342,-3.3502 l 1.9342,1.1167 l 1.9342,1.1167 l 1.9342,-1.1167 l -0.0000,-2.2335 l -3.8685,0.0000 l 1.9342,-1.1167 l 1.9342,-1.1167 l -3.8685,0.0000 l -3.8685,0.0000 l 5.8027,-3.3502 l 5.8027,-3.3502 l -0.0000,-6.7004 l -5.8027,-3.3502 l 1.9342,3.3502 l 1.9342,3.3502 l -1.9342,3.3502 l -3.8685,0.0000 l -0.0000,-6.7004 l -1.9342,3.3502 l -1.9342,3.3502 l -0.0000,-6.7004 l -0.0000,-6.7004 l -3.8685,0.0000 l -3.8685,0.0000 l -1.9342,3.3502 l 1.9342,3.3502 l -0.0000,-2.2335 l -0.0000,-2.2335 l 1.9342,-1.1167 l 1.9342,1.1167 l -1.9342,3.3502 l 1.9342,-1.1167 l 1.9342,-1.1167 l -1.9342,3.3502 l -1.9342,3.3502 l 1.9342,3.3502 l 1.9342,3.3502 l -1.9342,3.3502 l -3.8685,0.0000 l 1.9342,-1.1167 l 1.9342,-1.1167 l -0.0000,-2.2335 l -1.9342,-1.1167 l -1.9342,3.3502 l -0.0000,-2.2335 l -0.0000,-2.2335 l -1.9342,3.3502 l -1.9342,3.3502 l -5.8027,-3.3502 l -5.8027,-3.3502 l -0.0000,-6.7004 l 5.8027,-3.3502 l -1.9342,3.3502 l -1.9342,3.3502 l 1.9342,3.3502 l 3.8685,-0.0000 l -0.0000,-6.7004 l 1.9342,3.3502 l 1.9342,3.3502 l -0.0000,-6.7004 l -0.0000,-6.7004 l 5.8027,-3.3502 l 5.8027,-3.3502 l -0.0000,-6.7004 l -5.8027,-3.3502 l 1.9342,3.3502 l 1.9342,3.3502 l -1.9342,3.3502 l -3.8685,0.0000 l -0.0000,-6.7004 l -1.9342,3.3502 l -1.9342,3.3502 l -0.0000,-6.7004 l -0.0000,-6.7004 l 0.0000,-6.7004 l 0.0000,-6.7004 l -5.8027,-3.3502 l -5.8027,3.3502 l 3.8685,0.0000 l 3.8685,0.0000 l 1.9342,3.3502 l -1.9342,3.3502 l -5.8027,-3.3502 l 1.9342,3.3502 l 1.9342,3.3502 l -5.8027,-3.3502 l -5.8027,-3.3502 l -5.8027,3.3502 l -5.8027,3.3502 l -5.8027,-3.3502 l 0.0000,-6.7004 l 1.9342,3.3502 l 1.9342,3.3502 l 3.8685,0.0000 l 1.9342,-3.3502 l -5.8027,-3.3502 l 3.8685,0.0000 l 3.8685,0.0000 l -5.8027,-3.3502 l -5.8027,-3.3502 l -5.8027,-3.3502 l -5.8027,-3.3502 l 0.0000,-6.7004 l 5.8027,-3.3502 l -1.9342,3.3502 l -1.9342,3.3502 l 1.9342,3.3502 l 3.8685,0.0000 l 0.0000,-6.7004 l 1.9342,3.3502 l 1.9342,3.3502 l 0.0000,-6.7004 l 0.0000,-6.7004 l 0.0000,-6.7004 l 0.0000,-6.7004 l 5.8027,-3.3502 l 5.8027,3.3502 l -3.8685,-0.0000 l -3.8685,-0.0000 l -1.9342,3.3502 l 1.9342,3.3502 l 5.8027,-3.3502 l -1.9342,3.3502 l -1.9342,3.3502 l 5.8027,-3.3502 l 5.8027,-3.3502 l 1.9342,3.3502 l 1.9342,3.3502 l -1.9342,3.3502 l -3.8685,-0.0000 l 1.9342,-1.1167 l 1.9342,-1.1167 l 0.0000,-2.2335 l -1.9342,-1.1167 l -1.9342,3.3502 l 0.0000,-2.2335 l 0.0000,-2.2335 l -1.9342,3.3502 l -1.9342,3.3502 l -3.8685,-0.0000 l -3.8685,-0.0000 l -1.9342,3.3502 l 1.9342,3.3502 l 0.0000,-2.2335 l 0.0000,-2.2335 l 1.9342,-1.1167 l 1.9342,1.1167 l -1.9342,3.3502 l 1.9342,-1.1167 l 1.9342,-1.1167 l -1.9342,3.3502 l -1.9342,3.3502 l -1.9342,3.3502 l -1.9342,3.3502 l 1.9342,3.3502 l 3.8685,0.0000 l -1.9342,-1.1167 l -1.9342,-1.1167 l 0.0000,-2.2335 l 1.9342,-1.1167 l 1.9342,3.3502 l 0.0000,-2.2335 l 0.0000,-2.2335 l 1.9342,3.3502 l 1.9342,3.3502 l 1.9342,3.3502 l 1.9342,3.3502 l 3.8685,0.0000 l 1.9342,-3.3502 l -1.9342,1.1167 l -1.9342,1.1167 l -1.9342,-1.1167 l 0.0000,-2.2335 l 3.8685,0.0000 l -1.9342,-1.1167 l -1.9342,-1.1167 l 3.8685,0.0000 l 3.8685,0.0000 l -5.8027,-3.3502 l -5.8027,-3.3502 l 0.0000,-6.7004 l 5.8027,-3.3502 l -1.9342,3.3502 l -1.9342,3.3502 l 1.9342,3.3502 l 3.8685,0.0000 l 0.0000,-6.7004 l 1.9342,3.3502 l 1.9342,3.3502 l 0.0000,-6.7004 l 0.0000,-6.7004 l 3.8685,0.0000 l 3.8685,0.0000 l 1.9342,3.3502 l -1.9342,3.3502 l 0.0000,-2.2335 l 0.0000,-2.2335 l -1.9342,-1.1167 l -1.9342,1.1167 l 1.9342,3.3502 l -1.9342,-1.1167 l -1.9342,-1.1167 l 1.9342,3.3502 l 1.9342,3.3502 l -1.9342,3.3502 l -1.9342,3.3502 l 1.9342,3.3502 l 3.8685,0.0000 l -1.9342,-1.1167 l -1.9342,-1.1167 l 0.0000,-2.2335 l 1.9342,-1.1167 l 1.9342,3.3502 l 0.0000,-2.2335 l 0.0000,-2.2335 l 1.9342,3.3502 l 1.9342,3.3502 l 5.8027,-3.3502 l 5.8027,-3.3502 l 0.0000,-6.7004 l -5.8027,-3.3502 l 1.9342,3.3502 l 1.9342,3.3502 l -1.9342,3.3502 l -3.8685,-0.0000 l 0.0000,-6.7004 l -1.9342,3.3502 l -1.9342,3.3502 l 0.0000,-6.7004 l 0.0000,-6.7004 l -5.8027,-3.3502 l -5.8027,-3.3502 l 0.0000,-6.7004 l 5.8027,-3.3502 l -1.9342,3.3502 l -1.9342,3.3502 l 1.9342,3.3502 l 3.8685,0.0000 l 0.0000,-6.7004 l 1.9342,3.3502 l 1.9342,3.3502 l 0.0000,-6.7004 l 0.0000,-6.7004 l 5.8027,-3.3502 l 5.8027,-3.3502 l 0.0000,-6.7004 l -5.8027,-3.3502 l 1.9342,3.3502 l 1.9342,3.3502 l -1.9342,3.3502 l -3.8685,-0.0000 l 0.0000,-6.7004 l -1.9342,3.3502 l -1.9342,3.3502 l 0.0000,-6.7004 l 0.0000,-6.7004 l -5.8027,-3.3502 l -5.8027,-3.3502 l 0.0000,-6.7004 l 5.8027,-3.3502 l -1.9342,3.3502 l -1.9342,3.3502 l 1.9342,3.3502 l 3.8685,0.0000 l 0.0000,-6.7004 l 1.9342,3.3502 l 1.9342,3.3502 l 0.0000,-6.7004 l 0.0000,-6.7004 l 0.0000,-6.7004 l 0.0000,-6.7004 l 5.8027,-3.3502 l 5.8027,3.3502 l -3.8685,-0.0000 l -3.8685,-0.0000 l -1.9342,3.3502 l 1.9342,3.3502 l 5.8027,-3.3502 l -1.9342,3.3502 l -1.9342,3.3502 l 5.8027,-3.3502 l 5.8027,-3.3502 l 5.8027,-3.3502 l 5.8027,-3.3502 l 5.8027,3.3502 l -0.0000,6.7004 l -1.9342,-3.3502 l -1.9342,-3.3502 l -3.8685,-0.0000 l -1.9342,3.3502 l 5.8027,3.3502 l -3.8685,-0.0000 l -3.8685,-0.0000 l 5.8027,3.3502 l 5.8027,3.3502 l -1.9342,3.3502 l -1.9342,3.3502 l -3.8685,-0.0000 l -1.9342,-3.3502 l 1.9342,1.1167 l 1.9342,1.1167 l 1.9342,-1.1167 l 0.0000,-2.2335 l -3.8685,-0.0000 l 1.9342,-1.1167 l 1.9342,-1.1167 l -3.8685,-0.0000 l -3.8685,-0.0000 l -1.9342,-3.3502 l -1.9342,-3.3502 l -3.8685,-0.0000 l -1.9342,3.3502 l 1.9342,-1.1167 l 1.9342,-1.1167 l 1.9342,1.1167 l -0.0000,2.2335 l -3.8685,-0.0000 l 1.9342,1.1167 l 1.9342,1.1167 l -3.8685,-0.0000 l -3.8685,-0.0000 l -3.8685,-0.0000 l -3.8685,-0.0000 l -1.9342,3.3502 l 1.9342,3.3502 l 0.0000,-2.2335 l 0.0000,-2.2335 l 1.9342,-1.1167 l 1.9342,1.1167 l -1.9342,3.3502 l 1.9342,-1.1167 l 1.9342,-1.1167 l -1.9342,3.3502 l -1.9342,3.3502 l -1.9342,3.3502 l -1.9342,3.3502 l 1.9342,3.3502 l 3.8685,0.0000 l -1.9342,-1.1167 l -1.9342,-1.1167 l 0.0000,-2.2335 l 1.9342,-1.1167 l 1.9342,3.3502 l 0.0000,-2.2335 l 0.0000,-2.2335 l 1.9342,3.3502 l 1.9342,3.3502 l 0.0000,-6.7004 l 0.0000,-6.7004 l 5.8027,-3.3502 l 5.8027,3.3502 l -3.8685,-0.0000 l -3.8685,-0.0000 l -1.9342,3.3502 l 1.9342,3.3502 l 5.8027,-3.3502 l -1.9342,3.3502 l -1.9342,3.3502 l 5.8027,-3.3502 l 5.8027,-3.3502 l 1.9342,3.3502 l 1.9342,3.3502 l -1.9342,3.3502 l -3.8685,-0.0000 l 1.9342,-1.1167 l 1.9342,-1.1167 l 0.0000,-2.2335 l -1.9342,-1.1167 l -1.9342,3.3502 l 0.0000,-2.2335 l 0.0000,-2.2335 l -1.9342,3.3502 l -1.9342,3.3502 l -3.8685,-0.0000 l -3.8685,-0.0000 l -1.9342,3.3502 l 1.9342,3.3502 l 0.0000,-2.2335 l 0.0000,-2.2335 l 1.9342,-1.1167 l 1.9342,1.1167 l -1.9342,3.3502 l 1.9342,-1.1167 l 1.9342,-1.1167 l -1.9342,3.3502 l -1.9342,3.3502 l 5.8027,3.3502 l 5.8027,3.3502 l 5.8027,-3.3502 l 0.0000,-6.7004 l -1.9342,3.3502 l -1.9342,3.3502 l -3.8685,-0.0000 l -1.9342,-3.3502 l 5.8027,-3.3502 l -3.8685,-0.0000 l -3.8685,-0.0000 l 5.8027,-3.3502 l 5.8027,-3.3502 l 0.0000,-6.7004 l 0.0000,-6.7004 l 5.8027,-3.3502 l 5.8027,3.3502 l -3.8685,-0.0000 l -3.8685,-0.0000 l -1.9342,3.3502 l 1.9342,3.3502 l 5.8027,-3.3502 l -1.9342,3.3502 l -1.9342,3.3502 l 5.8027,-3.3502 l 5.8027,-3.3502 l 5.8027,3.3502 l 5.8027,3.3502 l 5.8027,-3.3502 l 0.0000,-6.7004 l -1.9342,3.3502 l -1.9342,3.3502 l -3.8685,-0.0000 l -1.9342,-3.3502 l 5.8027,-3.3502 l -3.8685,-0.0000 l -3.8685,-0.0000 l 5.8027,-3.3502 l 5.8027,-3.3502 l 0.0000,-6.7004 l 0.0000,-6.7004 l 5.8027,-3.3502 l 5.8027,3.3502 l -3.8685,-0.0000 l -3.8685,-0.0000 l -1.9342,3.3502 l 1.9342,3.3502 l 5.8027,-3.3502 l -1.9342,3.3502 l -1.9342,3.3502 l 5.8027,-3.3502 l 5.8027,-3.3502 l 5.8027,-3.3502 l 5.8027,-3.3502 l 5.8027,3.3502 l -0.0000,6.7004 l -1.9342,-3.3502 l -1.9342,-3.3502 l -3.8685,-0.0000 l -1.9342,3.3502 l 5.8027,3.3502 l -3.8685,-0.0000 l -3.8685,-0.0000 l 5.8027,3.3502 l 5.8027,3.3502 l 5.8027,3.3502 l 5.8027,3.3502 l -0.0000,6.7004 l -5.8027,3.3502 l 1.9342,-3.3502 l 1.9342,-3.3502 l -1.9342,-3.3502 l -3.8685,-0.0000 l -0.0000,6.7004 l -1.9342,-3.3502 l -1.9342,-3.3502 l -0.0000,6.7004 l -0.0000,6.7004 l -3.8685,-0.0000 l -3.8685,-0.0000 l -1.9342,-3.3502 l 1.9342,-3.3502 l -0.0000,2.2335 l -0.0000,2.2335 l 1.9342,1.1167 l 1.9342,-1.1167 l -1.9342,-3.3502 l 1.9342,1.1167 l 1.9342,1.1167 l -1.9342,-3.3502 l -1.9342,-3.3502 l 1.9342,-3.3502 l 1.9342,-3.3502 l -1.9342,-3.3502 l -3.8685,-0.0000 l 1.9342,1.1167 l 1.9342,1.1167 l -0.0000,2.2335 l -1.9342,1.1167 l -1.9342,-3.3502 l -0.0000,2.2335 l -0.0000,2.2335 l -1.9342,-3.3502 l -1.9342,-3.3502 l -1.9342,-3.3502 l -1.9342,-3.3502 l -3.8685,-0.0000 l -1.9342,3.3502 l 1.9342,-1.1167 l 1.9342,-1.1167 l 1.9342,1.1167 l -0.0000,2.2335 l -3.8685,-0.0000 l 1.9342,1.1167 l 1.9342,1.1167 l -3.8685,-0.0000 l -3.8685,-0.0000 l -3.8685,-0.0000 l -3.8685,-0.0000 l -1.9342,3.3502 l 1.9342,3.3502 l 0.0000,-2.2335 l 0.0000,-2.2335 l 1.9342,-1.1167 l 1.9342,1.1167 l -1.9342,3.3502 l 1.9342,-1.1167 l 1.9342,-1.1167 l -1.9342,3.3502 l -1.9342,3.3502 l 5.8027,-3.3502 l 5.8027,-3.3502 l 5.8027,3.3502 l -0.0000,6.7004 l -1.9342,-3.3502 l -1.9342,-3.3502 l -3.8685,-0.0000 l -1.9342,3.3502 l 5.8027,3.3502 l -3.8685,-0.0000 l -3.8685,-0.0000 l 5.8027,3.3502 l 5.8027,3.3502 l -1.9342,3.3502 l -1.9342,3.3502 l -3.8685,-0.0000 l -1.9342,-3.3502 l 1.9342,1.1167 l 1.9342,1.1167 l 1.9342,-1.1167 l 0.0000,-2.2335 l -3.8685,-0.0000 l 1.9342,-1.1167 l 1.9342,-1.1167 l -3.8685,-0.0000 l -3.8685,-0.0000 l -1.9342,-3.3502 l -1.9342,-3.3502 l -3.8685,-0.0000 l -1.9342,3.3502 l 1.9342,-1.1167 l 1.9342,-1.1167 l 1.9342,1.1167 l -0.0000,2.2335 l -3.8685,-0.0000 l 1.9342,1.1167 l 1.9342,1.1167 l -3.8685,-0.0000 l -3.8685,-0.0000 l -0.0000,6.7004 l -0.0000,6.7004 l 5.8027,3.3502 l 5.8027,-3.3502 l -3.8685,-0.0000 l -3.8685,-0.0000 l -1.9342,-3.3502 l 1.9342,-3.3502 l 5.8027,3.3502 l -1.9342,-3.3502 l -1.9342,-3.3502 l 5.8027,3.3502 l 5.8027,3.3502 l 5.8027,-3.3502 l 5.8027,-3.3502 l 5.8027,3.3502 l -0.0000,6.7004 l -1.9342,-3.3502 l -1.9342,-3.3502 l -3.8685,-0.0000 l -1.9342,3.3502 l 5.8027,3.3502 l -3.8685,-0.0000 l -3.8685,-0.0000 l 5.8027,3.3502 l 5.8027,3.3502 l -3.8685,-0.0000 l -3.8685,-0.0000 l -1.9342,3.3502 l 1.9342,3.3502 v -2.2335 v -2.2335 l 1.9342,-1.1167 l 1.9342,1.1167 l -1.9342,3.3502 l 1.9342,-1.1167 l 1.9342,-1.1167 l -1.9342,3.3502 l -1.9342,3.3502 l 1.9342,3.3502 l 1.9342,3.3502 l -1.9342,3.3502 l -3.8685,-0.0000 l 1.9342,-1.1167 l 1.9342,-1.1167 l 0.0000,-2.2335 l -1.9342,-1.1167 l -1.9342,3.3502 l 0.0000,-2.2335 l 0.0000,-2.2335 l -1.9342,3.3502 l -1.9342,3.3502 l -1.9342,3.3502 l -1.9342,3.3502 l -3.8685,-0.0000 l -1.9342,-3.3502 l 1.9342,1.1167 l 1.9342,1.1167 l 1.9342,-1.1167 l 0.0000,-2.2335 l -3.8685,-0.0000 l 1.9342,-1.1167 l 1.9342,-1.1167 l -3.8685,-0.0000 l -3.8685,-0.0000 l -3.8685,-0.0000 l -3.8685,-0.0000 l -1.9342,-3.3502 l 1.9342,-3.3502 l -0.0000,2.2335 l -0.0000,2.2335 l 1.9342,1.1167 l 1.9342,-1.1167 l -1.9342,-3.3502 l 1.9342,1.1167 l 1.9342,1.1167 l -1.9342,-3.3502 l -1.9342,-3.3502 l 1.9342,-1.1167 l 1.9342,-1.1167 l 1.9342,1.1167 l -0.0000,2.2335 l -0.6447,-1.1167 l -0.6447,-1.1167 l -1.2895,-0.0000 l -0.6447,1.1167 l 1.9342,1.1167 l -1.2895,-0.0000 l -1.2895,-0.0000 l 1.9342,1.1167 l 1.9342,1.1167 l -0.0000,2.2335 l -0.0000,2.2335 l 1.9342,1.1167 l 1.9342,-1.1167 l -1.2895,-0.0000 l -1.2895,-0.0000 l -0.6447,-1.1167 l 0.6447,-1.1167 l 1.9342,1.1167 l -0.6447,-1.1167 l -0.6447,-1.1167 l 1.9342,1.1167 l 1.9342,1.1167 l 1.9342,1.1167 l 1.9342,1.1167 l 1.9342,-1.1167 l 0.0000,-2.2335 l -0.6447,1.1167 l -0.6447,1.1167 l -1.2895,-0.0000 l -0.6447,-1.1167 l 1.9342,-1.1167 l -1.2895,-0.0000 l -1.2895,-0.0000 l 1.9342,-1.1167 l 1.9342,-1.1167 l 1.9342,-1.1167 l 1.9342,-1.1167 l 0.0000,-2.2335 l -1.9342,-1.1167 l 0.6447,1.1167 l 0.6447,1.1167 l -0.6447,1.1167 l -1.2895,-0.0000 l 0.0000,-2.2335 l -0.6447,1.1167 l -0.6447,1.1167 l 0.0000,-2.2335 l 0.0000,-2.2335 l -1.9342,3.3502 l -1.9342,3.3502 l -3.8685,-0.0000 l -1.9342,-3.3502 l 1.9342,1.1167 l 1.9342,1.1167 l 1.9342,-1.1167 l 0.0000,-2.2335 l -3.8685,-0.0000 l 1.9342,-1.1167 l 1.9342,-1.1167 l -3.8685,-0.0000 l -3.8685,-0.0000 l 0.0000,-2.2335 l 0.0000,-2.2335 l 1.9342,-1.1167 l 1.9342,1.1167 l -1.2895,-0.0000 l -1.2895,-0.0000 l -0.6447,1.1167 l 0.6447,1.1167 l 1.9342,-1.1167 l -0.6447,1.1167 l -0.6447,1.1167 l 1.9342,-1.1167 l 1.9342,-1.1167 l 1.9342,1.1167 l 1.9342,1.1167 l 1.9342,-1.1167 l 0.0000,-2.2335 l -0.6447,1.1167 l -0.6447,1.1167 l -1.2895,-0.0000 l -0.6447,-1.1167 l 1.9342,-1.1167 l -1.2895,-0.0000 l -1.2895,-0.0000 l 1.9342,-1.1167 l 1.9342,-1.1167 l -1.9342,-3.3502 l -1.9342,-3.3502 l -3.8685,-0.0000 l -1.9342,3.3502 l 1.9342,-1.1167 l 1.9342,-1.1167 l 1.9342,1.1167 l -0.0000,2.2335 l -3.8685,-0.0000 l 1.9342,1.1167 l 1.9342,1.1167 l -3.8685,-0.0000 l -3.8685,-0.0000 l -1.9342,3.3502 l -1.9342,3.3502 l -3.8685,-0.0000 l -1.9342,-3.3502 l 1.9342,1.1167 l 1.9342,1.1167 l 1.9342,-1.1167 l 0.0000,-2.2335 l -3.8685,-0.0000 l 1.9342,-1.1167 l 1.9342,-1.1167 l -3.8685,-0.0000 l -3.8685,-0.0000 l -3.8685,-0.0000 l -3.8685,-0.0000 l -1.9342,-3.3502 l 1.9342,-3.3502 l -0.0000,2.2335 l -0.0000,2.2335 l 1.9342,1.1167 l 1.9342,-1.1167 l -1.9342,-3.3502 l 1.9342,1.1167 l 1.9342,1.1167 l -1.9342,-3.3502 l -1.9342,-3.3502 l 1.9342,-3.3502 l 1.9342,-3.3502 l -1.9342,-3.3502 l -3.8685,0.0000 l 1.9342,1.1167 l 1.9342,1.1167 l 0.0000,2.2335 l -1.9342,1.1167 l -1.9342,-3.3502 l 0.0000,2.2335 l 0.0000,2.2335 l -1.9342,-3.3502 l -1.9342,-3.3502 l -1.9342,-3.3502 l -1.9342,-3.3502 l -3.8685,0.0000 l -1.9342,3.3502 l 1.9342,-1.1167 l 1.9342,-1.1167 l 1.9342,1.1167 l 0.0000,2.2335 l -3.8685,0.0000 l 1.9342,1.1167 l 1.9342,1.1167 l -3.8685,0.0000 l -3.8685,0.0000 l -3.8685,0.0000 l -3.8685,0.0000 l -1.9342,3.3502 l 1.9342,3.3502 l -0.0000,-2.2335 l -0.0000,-2.2335 l 1.9342,-1.1167 l 1.9342,1.1167 l -1.9342,3.3502 l 1.9342,-1.1167 l 1.9342,-1.1167 l -1.9342,3.3502 l -1.9342,3.3502 l 1.9342,1.1167 l 1.9342,1.1167 l 1.9342,-1.1167 l -0.0000,-2.2335 l -0.6447,1.1167 l -0.6447,1.1167 l -1.2895,0.0000 l -0.6447,-1.1167 l 1.9342,-1.1167 l -1.2895,0.0000 l -1.2895,0.0000 l 1.9342,-1.1167 l 1.9342,-1.1167 l 0.0000,-2.2335 l 0.0000,-2.2335 l 1.9342,-1.1167 l 1.9342,1.1167 l -1.2895,-0.0000 l -1.2895,-0.0000 l -0.6447,1.1167 l 0.6447,1.1167 l 1.9342,-1.1167 l -0.6447,1.1167 l -0.6447,1.1167 l 1.9342,-1.1167 l 1.9342,-1.1167 l 1.9342,-1.1167 l 1.9342,-1.1167 l 1.9342,1.1167 l 0.0000,2.2335 l -0.6447,-1.1167 l -0.6447,-1.1167 l -1.2895,0.0000 l -0.6447,1.1167 l 1.9342,1.1167 l -1.2895,0.0000 l -1.2895,0.0000 l 1.9342,1.1167 l 1.9342,1.1167 l 1.9342,1.1167 l 1.9342,1.1167 l -0.0000,2.2335 l -1.9342,1.1167 l 0.6447,-1.1167 l 0.6447,-1.1167 l -0.6447,-1.1167 h -1.2895 l -0.0000,2.2335 l -0.6447,-1.1167 l -0.6447,-1.1167 l -0.0000,2.2335 l -0.0000,2.2335 l -1.9342,-3.3502 l -1.9342,-3.3502 l -3.8685,0.0000 l -1.9342,3.3502 l 1.9342,-1.1167 l 1.9342,-1.1167 l 1.9342,1.1167 l 0.0000,2.2335 l -3.8685,0.0000 l 1.9342,1.1167 l 1.9342,1.1167 l -3.8685,0.0000 l -3.8685,0.0000 l 0.0000,2.2335 l 0.0000,2.2335 l 1.9342,1.1167 l 1.9342,-1.1167 l -1.2895,0.0000 l -1.2895,0.0000 l -0.6447,-1.1167 l 0.6447,-1.1167 l 1.9342,1.1167 l -0.6447,-1.1167 l -0.6447,-1.1167 l 1.9342,1.1167 l 1.9342,1.1167 l 1.9342,-1.1167 l 1.9342,-1.1167 l 1.9342,1.1167 l 0.0000,2.2335 l -0.6447,-1.1167 l -0.6447,-1.1167 l -1.2895,0.0000 l -0.6447,1.1167 l 1.9342,1.1167 l -1.2895,0.0000 l -1.2895,0.0000 l 1.9342,1.1167 l 1.9342,1.1167 l -1.9342,3.3502 l -1.9342,3.3502 l -3.8685,-0.0000 l -1.9342,-3.3502 l 1.9342,1.1167 l 1.9342,1.1167 l 1.9342,-1.1167 l -0.0000,-2.2335 l -3.8685,-0.0000 l 1.9342,-1.1167 l 1.9342,-1.1167 l -3.8685,-0.0000 l -3.8685,-0.0000 l -1.9342,-3.3502 l -1.9342,-3.3502 l -3.8685,0.0000 l -1.9342,3.3502 l 1.9342,-1.1167 l 1.9342,-1.1167 l 1.9342,1.1167 l 0.0000,2.2335 l -3.8685,0.0000 l 1.9342,1.1167 l 1.9342,1.1167 l -3.8685,0.0000 l -3.8685,0.0000 l -1.9342,3.3502 l -1.9342,3.3502 l -3.8685,-0.0000 l -1.9342,-3.3502 l 1.9342,1.1167 l 1.9342,1.1167 l 1.9342,-1.1167 l 0.0000,-2.2335 l -3.8685,-0.0000 l 1.9342,-1.1167 l 1.9342,-1.1167 l -3.8685,-0.0000 l -3.8685,-0.0000 l -1.9342,-3.3502 l -1.9342,-3.3502 l -3.8685,0.0000 l -1.9342,3.3502 l 1.9342,-1.1167 l 1.9342,-1.1167 l 1.9342,1.1167 l 0.0000,2.2335 l -3.8685,0.0000 l 1.9342,1.1167 l 1.9342,1.1167 l -3.8685,0.0000 l -3.8685,0.0000 l -3.8685,0.0000 l -3.8685,0.0000 l -1.9342,3.3502 l 1.9342,3.3502 l -0.0000,-2.2335 l -0.0000,-2.2335 l 1.9342,-1.1167 l 1.9342,1.1167 l -1.9342,3.3502 l 1.9342,-1.1167 l 1.9342,-1.1167 l -1.9342,3.3502 l -1.9342,3.3502 l -1.9342,3.3502 l -1.9342,3.3502 l 1.9342,3.3502 l 3.8685,-0.0000 l -1.9342,-1.1167 l -1.9342,-1.1167 l -0.0000,-2.2335 l 1.9342,-1.1167 l 1.9342,3.3502 l -0.0000,-2.2335 l -0.0000,-2.2335 l 1.9342,3.3502 l 1.9342,3.3502 l 1.9342,-1.1167 l 1.9342,-1.1167 l -0.0000,-2.2335 l -1.9342,-1.1167 l 0.6447,1.1167 l 0.6447,1.1167 l -0.6447,1.1167 l -1.2895,0.0000 l -0.0000,-2.2335 l -0.6447,1.1167 l -0.6447,1.1167 l -0.0000,-2.2335 l -0.0000,-2.2335 l -1.9342,-1.1167 l -1.9342,-1.1167 l 0.0000,-2.2335 l 1.9342,-1.1167 l -0.6447,1.1167 l -0.6447,1.1167 l 0.6447,1.1167 l 1.2895,-0.0000 l 0.0000,-2.2335 l 0.6447,1.1167 l 0.6447,1.1167 l 0.0000,-2.2335 l 0.0000,-2.2335 l -0.0000,-2.2335 l -0.0000,-2.2335 l 1.9342,-1.1167 l 1.9342,1.1167 l -1.2895,0.0000 l -1.2895,0.0000 l -0.6447,1.1167 l 0.6447,1.1167 l 1.9342,-1.1167 l -0.6447,1.1167 l -0.6447,1.1167 l 1.9342,-1.1167 l 1.9342,-1.1167 l 1.9342,-1.1167 l 1.9342,-1.1167 l 1.9342,1.1167 l -0.0000,2.2335 l -0.6447,-1.1167 l -0.6447,-1.1167 l -1.2895,-0.0000 l -0.6447,1.1167 l 1.9342,1.1167 l -1.2895,-0.0000 l -1.2895,-0.0000 l 1.9342,1.1167 l 1.9342,1.1167 l -3.8685,0.0000 l -3.8685,0.0000 l -1.9342,3.3502 l 1.9342,3.3502 l -0.0000,-2.2335 l -0.0000,-2.2335 l 1.9342,-1.1167 l 1.9342,1.1167 l -1.9342,3.3502 l 1.9342,-1.1167 l 1.9342,-1.1167 l -1.9342,3.3502 l -1.9342,3.3502 l 1.9342,1.1167 l 1.9342,1.1167 l 1.9342,-1.1167 l -0.0000,-2.2335 l -0.6447,1.1167 l -0.6447,1.1167 l -1.2895,0.0000 l -0.6447,-1.1167 l 1.9342,-1.1167 l -1.2895,0.0000 l -1.2895,0.0000 l 1.9342,-1.1167 l 1.9342,-1.1167 l -0.0000,-2.2335 l -0.0000,-2.2335 l 1.9342,-1.1167 l 1.9342,1.1167 l -1.2895,0.0000 l -1.2895,0.0000 l -0.6447,1.1167 l 0.6447,1.1167 l 1.9342,-1.1167 l -0.6447,1.1167 l -0.6447,1.1167 l 1.9342,-1.1167 l 1.9342,-1.1167 l 1.9342,3.3502 l 1.9342,3.3502 l -1.9342,3.3502 l -3.8685,0.0000 l 1.9342,-1.1167 l 1.9342,-1.1167 l 0.0000,-2.2335 l -1.9342,-1.1167 l -1.9342,3.3502 l 0.0000,-2.2335 l 0.0000,-2.2335 l -1.9342,3.3502 l -1.9342,3.3502 l -3.8685,0.0000 l -3.8685,0.0000 l -1.9342,3.3502 l 1.9342,3.3502 l -0.0000,-2.2335 l -0.0000,-2.2335 l 1.9342,-1.1167 l 1.9342,1.1167 l -1.9342,3.3502 l 1.9342,-1.1167 l 1.9342,-1.1167 l -1.9342,3.3502 l -1.9342,3.3502 l 1.9342,3.3502 l 1.9342,3.3502 l -1.9342,3.3502 l -3.8685,0.0000 l 1.9342,-1.1167 l 1.9342,-1.1167 l 0.0000,-2.2335 l -1.9342,-1.1167 l -1.9342,3.3502 l 0.0000,-2.2335 l 0.0000,-2.2335 l -1.9342,3.3502 l -1.9342,3.3502 l -3.8685,0.0000 l -3.8685,0.0000 l -1.9342,3.3502 l 1.9342,3.3502 l -0.0000,-2.2335 l -0.0000,-2.2335 l 1.9342,-1.1167 l 1.9342,1.1167 l -1.9342,3.3502 l 1.9342,-1.1167 l 1.9342,-1.1167 l -1.9342,3.3502 l -1.9342,3.3502 l -1.9342,3.3502 l -1.9342,3.3502 l 1.9342,3.3502 l 3.8685,-0.0000 l -1.9342,-1.1167 l -1.9342,-1.1167 l -0.0000,-2.2335 l 1.9342,-1.1167 l 1.9342,3.3502 l -0.0000,-2.2335 l -0.0000,-2.2335 l 1.9342,3.3502 l 1.9342,3.3502 l 1.9342,3.3502 l 1.9342,3.3502 l 3.8685,-0.0000 l 1.9342,-3.3502 l -1.9342,1.1167 l -1.9342,1.1167 l -1.9342,-1.1167 l -0.0000,-2.2335 l 3.8685,-0.0000 l -1.9342,-1.1167 l -1.9342,-1.1167 l 3.8685,-0.0000 l 3.8685,-0.0000 l -0.0000,-2.2335 l -0.0000,-2.2335 l -1.9342,-1.1167 l -1.9342,1.1167 l 1.2895,-0.0000 l 1.2895,-0.0000 l 0.6447,1.1167 l -0.6447,1.1167 l -1.9342,-1.1167 l 0.6447,1.1167 l 0.6447,1.1167 l -1.9342,-1.1167 l -1.9342,-1.1167 l -1.9342,1.1167 l -1.9342,1.1167 l -1.9342,-1.1167 l -0.0000,-2.2335 l 0.6447,1.1167 l 0.6447,1.1167 h 1.2895 l 0.6447,-1.1167 l -1.9342,-1.1167 h 1.2895 h 1.2895 l -1.9342,-1.1167 l -1.9342,-1.1167 l -1.9342,-1.1167 l -1.9342,-1.1167 l -0.0000,-2.2335 l 1.9342,-1.1167 l -0.6447,1.1167 l -0.6447,1.1167 l 0.6447,1.1167 l 1.2895,-0.0000 l -0.0000,-2.2335 l 0.6447,1.1167 l 0.6447,1.1167 l -0.0000,-2.2335 l -0.0000,-2.2335 l -0.0000,-2.2335 l -0.0000,-2.2335 l 1.9342,-1.1167 l 1.9342,1.1167 l -1.2895,0.0000 l -1.2895,0.0000 l -0.6447,1.1167 l 0.6447,1.1167 l 1.9342,-1.1167 l -0.6447,1.1167 l -0.6447,1.1167 l 1.9342,-1.1167 l 1.9342,-1.1167 l -1.9342,3.3502 l -1.9342,3.3502 l 1.9342,3.3502 l 3.8685,-0.0000 l -1.9342,-1.1167 l -1.9342,-1.1167 l -0.0000,-2.2335 l 1.9342,-1.1167 l 1.9342,3.3502 l -0.0000,-2.2335 l -0.0000,-2.2335 l 1.9342,3.3502 l 1.9342,3.3502 l 1.9342,-1.1167 l 1.9342,-1.1167 l -0.0000,-2.2335 l -1.9342,-1.1167 l 0.6447,1.1167 l 0.6447,1.1167 l -0.6447,1.1167 l -1.2895,0.0000 l -0.0000,-2.2335 l -0.6447,1.1167 l -0.6447,1.1167 l -0.0000,-2.2335 l -0.0000,-2.2335 l -1.9342,-1.1167 l -1.9342,-1.1167 l -0.0000,-2.2335 l 1.9342,-1.1167 l -0.6447,1.1167 l -0.6447,1.1167 l 0.6447,1.1167 l 1.2895,-0.0000 l -0.0000,-2.2335 l 0.6447,1.1167 l 0.6447,1.1167 l -0.0000,-2.2335 l -0.0000,-2.2335 l 3.8685,-0.0000 l 3.8685,-0.0000 l 1.9342,3.3502 l -1.9342,3.3502 l -0.0000,-2.2335 l -0.0000,-2.2335 l -1.9342,-1.1167 l -1.9342,1.1167 l 1.9342,3.3502 l -1.9342,-1.1167 l -1.9342,-1.1167 l 1.9342,3.3502 l 1.9342,3.3502 l -1.9342,3.3502 l -1.9342,3.3502 l 1.9342,3.3502 l 3.8685,-0.0000 l -1.9342,-1.1167 l -1.9342,-1.1167 l -0.0000,-2.2335 l 1.9342,-1.1167 l 1.9342,3.3502 l -0.0000,-2.2335 l -0.0000,-2.2335 l 1.9342,3.3502 l 1.9342,3.3502 l 5.8027,-3.3502 l 5.8027,-3.3502 l 0.0000,-6.7004 l -5.8027,-3.3502 l 1.9342,3.3502 l 1.9342,3.3502 l -1.9342,3.3502 l -3.8685,-0.0000 l 0.0000,-6.7004 l -1.9342,3.3502 l -1.9342,3.3502 l 0.0000,-6.7004 l 0.0000,-6.7004 l -5.8027,-3.3502 l -5.8027,-3.3502 l 0.0000,-6.7004 l 5.8027,-3.3502 l -1.9342,3.3502 l -1.9342,3.3502 l 1.9342,3.3502 l 3.8685,0.0000 l 0.0000,-6.7004 l 1.9342,3.3502 l 1.9342,3.3502 l 0.0000,-6.7004 l 0.0000,-6.7004 l 0.0000,-6.7004 l 0.0000,-6.7004 l 5.8027,-3.3502 l 5.8027,3.3502 l -3.8685,-0.0000 l -3.8685,-0.0000 l -1.9342,3.3502 l 1.9342,3.3502 l 5.8027,-3.3502 l -1.9342,3.3502 l -1.9342,3.3502 l 5.8027,-3.3502 l 5.8027,-3.3502 l 5.8027,-3.3502 l 5.8027,-3.3502 l 5.8027,3.3502 l -0.0000,6.7004 l -1.9342,-3.3502 l -1.9342,-3.3502 l -3.8685,-0.0000 l -1.9342,3.3502 l 5.8027,3.3502 l -3.8685,-0.0000 l -3.8685,-0.0000 l 5.8027,3.3502 l 5.8027,3.3502 l -1.9342,3.3502 l -1.9342,3.3502 l -3.8685,-0.0000 l -1.9342,-3.3502 l 1.9342,1.1167 l 1.9342,1.1167 l 1.9342,-1.1167 l 0.0000,-2.2335 l -3.8685,-0.0000 l 1.9342,-1.1167 l 1.9342,-1.1167 l -3.8685,-0.0000 l -3.8685,-0.0000 l -1.9342,-3.3502 l -1.9342,-3.3502 l -3.8685,-0.0000 l -1.9342,3.3502 l 1.9342,-1.1167 l 1.9342,-1.1167 l 1.9342,1.1167 l -0.0000,2.2335 l -3.8685,-0.0000 l 1.9342,1.1167 l 1.9342,1.1167 l -3.8685,-0.0000 l -3.8685,-0.0000 l -3.8685,-0.0000 l -3.8685,-0.0000 l -1.9342,3.3502 l 1.9342,3.3502 l 0.0000,-2.2335 l 0.0000,-2.2335 l 1.9342,-1.1167 l 1.9342,1.1167 l -1.9342,3.3502 l 1.9342,-1.1167 l 1.9342,-1.1167 l -1.9342,3.3502 l -1.9342,3.3502 l -1.9342,3.3502 l -1.9342,3.3502 l 1.9342,3.3502 l 3.8685,0.0000 l -1.9342,-1.1167 l -1.9342,-1.1167 l 0.0000,-2.2335 l 1.9342,-1.1167 l 1.9342,3.3502 l 0.0000,-2.2335 l 0.0000,-2.2335 l 1.9342,3.3502 l 1.9342,3.3502 l 0.0000,-6.7004 l 0.0000,-6.7004 l 5.8027,-3.3502 l 5.8027,3.3502 l -3.8685,-0.0000 l -3.8685,-0.0000 l -1.9342,3.3502 l 1.9342,3.3502 l 5.8027,-3.3502 l -1.9342,3.3502 l -1.9342,3.3502 l 5.8027,-3.3502 l 5.8027,-3.3502 l 1.9342,3.3502 l 1.9342,3.3502 l -1.9342,3.3502 l -3.8685,-0.0000 l 1.9342,-1.1167 l 1.9342,-1.1167 l 0.0000,-2.2335 l -1.9342,-1.1167 l -1.9342,3.3502 l 0.0000,-2.2335 l 0.0000,-2.2335 l -1.9342,3.3502 l -1.9342,3.3502 l -3.8685,-0.0000 l -3.8685,-0.0000 l -1.9342,3.3502 l 1.9342,3.3502 l 0.0000,-2.2335 l 0.0000,-2.2335 l 1.9342,-1.1167 l 1.9342,1.1167 l -1.9342,3.3502 l 1.9342,-1.1167 l 1.9342,-1.1167 l -1.9342,3.3502 l -1.9342,3.3502 l 5.8027,3.3502 l 5.8027,3.3502 l 5.8027,-3.3502 l 0.0000,-6.7004 l -1.9342,3.3502 l -1.9342,3.3502 l -3.8685,-0.0000 l -1.9342,-3.3502 l 5.8027,-3.3502 l -3.8685,-0.0000 l -3.8685,-0.0000 l 5.8027,-3.3502 l 5.8027,-3.3502 l 0.0000,-6.7004 l 0.0000,-6.7004 l 5.8027,-3.3502 l 5.8027,3.3502 l -3.8685,-0.0000 l -3.8685,-0.0000 l -1.9342,3.3502 l 1.9342,3.3502 l 5.8027,-3.3502 l -1.9342,3.3502 l -1.9342,3.3502 l 5.8027,-3.3502 l 5.8027,-3.3502 l -1.9342,3.3502 l -1.9342,3.3502 l 1.9342,3.3502 l 3.8685,0.0000 l -1.9342,-1.1167 l -1.9342,-1.1167 l -0.0000,-2.2335 l 1.9342,-1.1167 l 1.9342,3.3502 l -0.0000,-2.2335 l -0.0000,-2.2335 l 1.9342,3.3502 l 1.9342,3.3502 l 3.8685,0.0000 l 3.8685,0.0000 l 1.9342,3.3502 l -1.9342,3.3502 l 0.0000,-2.2335 l 0.0000,-2.2335 l -1.9342,-1.1167 l -1.9342,1.1167 l 1.9342,3.3502 l -1.9342,-1.1167 l -1.9342,-1.1167 l 1.9342,3.3502 l 1.9342,3.3502 l 1.9342,3.3502 l 1.9342,3.3502 l -1.9342,3.3502 l -3.8685,-0.0000 l 1.9342,-1.1167 l 1.9342,-1.1167 l 0.0000,-2.2335 l -1.9342,-1.1167 l -1.9342,3.3502 l 0.0000,-2.2335 l 0.0000,-2.2335 l -1.9342,3.3502 l -1.9342,3.3502 l -1.9342,3.3502 l -1.9342,3.3502 l -3.8685,-0.0000 l -1.9342,-3.3502 l 1.9342,1.1167 l 1.9342,1.1167 l 1.9342,-1.1167 l 0.0000,-2.2335 l -3.8685,-0.0000 l 1.9342,-1.1167 l 1.9342,-1.1167 l -3.8685,-0.0000 l -3.8685,-0.0000 l 0.0000,-2.2335 l 0.0000,-2.2335 l 1.9342,-1.1167 l 1.9342,1.1167 l -1.2895,-0.0000 l -1.2895,-0.0000 l -0.6447,1.1167 l 0.6447,1.1167 l 1.9342,-1.1167 l -0.6447,1.1167 l -0.6447,1.1167 l 1.9342,-1.1167 l 1.9342,-1.1167 l 1.9342,1.1167 l 1.9342,1.1167 l 1.9342,-1.1167 l 0.0000,-2.2335 l -0.6447,1.1167 l -0.6447,1.1167 l -1.2895,-0.0000 l -0.6447,-1.1167 l 1.9342,-1.1167 l -1.2895,-0.0000 l -1.2895,-0.0000 l 1.9342,-1.1167 l 1.9342,-1.1167 l 1.9342,-1.1167 l 1.9342,-1.1167 l 0.0000,-2.2335 l -1.9342,-1.1167 l 0.6447,1.1167 l 0.6447,1.1167 l -0.6447,1.1167 l -1.2895,-0.0000 l 0.0000,-2.2335 l -0.6447,1.1167 l -0.6447,1.1167 l 0.0000,-2.2335 l 0.0000,-2.2335 l 0.0000,-2.2335 l 0.0000,-2.2335 l -1.9342,-1.1167 l -1.9342,1.1167 l 1.2895,0.0000 l 1.2895,0.0000 l 0.6447,1.1167 l -0.6447,1.1167 l -1.9342,-1.1167 l 0.6447,1.1167 l 0.6447,1.1167 l -1.9342,-1.1167 l -1.9342,-1.1167 l 1.9342,3.3502 l 1.9342,3.3502 l -1.9342,3.3502 l -3.8685,-0.0000 l 1.9342,-1.1167 l 1.9342,-1.1167 l 0.0000,-2.2335 l -1.9342,-1.1167 l -1.9342,3.3502 l 0.0000,-2.2335 l 0.0000,-2.2335 l -1.9342,3.3502 l -1.9342,3.3502 l -1.9342,-1.1167 l -1.9342,-1.1167 l 0.0000,-2.2335 l 1.9342,-1.1167 l -0.6447,1.1167 l -0.6447,1.1167 l 0.6447,1.1167 l 1.2895,0.0000 l 0.0000,-2.2335 l 0.6447,1.1167 l 0.6447,1.1167 l 0.0000,-2.2335 l 0.0000,-2.2335 l 1.9342,-1.1167 l 1.9342,-1.1167 l 0.0000,-2.2335 l -1.9342,-1.1167 l 0.6447,1.1167 l 0.6447,1.1167 l -0.6447,1.1167 l -1.2895,-0.0000 l 0.0000,-2.2335 l -0.6447,1.1167 l -0.6447,1.1167 l 0.0000,-2.2335 l 0.0000,-2.2335 l -3.8685,-0.0000 l -3.8685,-0.0000 l -1.9342,3.3502 l 1.9342,3.3502 l 0.0000,-2.2335 l 0.0000,-2.2335 l 1.9342,-1.1167 l 1.9342,1.1167 l -1.9342,3.3502 l 1.9342,-1.1167 l 1.9342,-1.1167 l -1.9342,3.3502 l -1.9342,3.3502 l 1.9342,3.3502 l 1.9342,3.3502 l -1.9342,3.3502 l -3.8685,-0.0000 l 1.9342,-1.1167 l 1.9342,-1.1167 l 0.0000,-2.2335 l -1.9342,-1.1167 l -1.9342,3.3502 l 0.0000,-2.2335 l 0.0000,-2.2335 l -1.9342,3.3502 l -1.9342,3.3502 l -1.9342,3.3502 l -1.9342,3.3502 l -3.8685,-0.0000 l -1.9342,-3.3502 l 1.9342,1.1167 l 1.9342,1.1167 l 1.9342,-1.1167 l 0.0000,-2.2335 l -3.8685,-0.0000 l 1.9342,-1.1167 l 1.9342,-1.1167 l -3.8685,-0.0000 l -3.8685,-0.0000 l -1.9342,-3.3502 l -1.9342,-3.3502 l -3.8685,0.0000 l -1.9342,3.3502 l 1.9342,-1.1167 l 1.9342,-1.1167 l 1.9342,1.1167 l 0.0000,2.2335 l -3.8685,0.0000 l 1.9342,1.1167 l 1.9342,1.1167 l -3.8685,0.0000 l -3.8685,0.0000 l -3.8685,0.0000 l -3.8685,0.0000 l -1.9342,3.3502 l 1.9342,3.3502 l -0.0000,-2.2335 l -0.0000,-2.2335 l 1.9342,-1.1167 l 1.9342,1.1167 l -1.9342,3.3502 l 1.9342,-1.1167 l 1.9342,-1.1167 l -1.9342,3.3502 l -1.9342,3.3502 l -1.9342,3.3502 l -1.9342,3.3502 l 1.9342,3.3502 l 3.8685,-0.0000 l -1.9342,-1.1167 l -1.9342,-1.1167 l -0.0000,-2.2335 l 1.9342,-1.1167 l 1.9342,3.3502 l -0.0000,-2.2335 l -0.0000,-2.2335 l 1.9342,3.3502 l 1.9342,3.3502 l 1.9342,-1.1167 l 1.9342,-1.1167 l -0.0000,-2.2335 l -1.9342,-1.1167 l 0.6447,1.1167 l 0.6447,1.1167 l -0.6447,1.1167 l -1.2895,0.0000 l -0.0000,-2.2335 l -0.6447,1.1167 l -0.6447,1.1167 l -0.0000,-2.2335 l -0.0000,-2.2335 l -1.9342,-1.1167 l -1.9342,-1.1167 l 0.0000,-2.2335 l 1.9342,-1.1167 l -0.6447,1.1167 l -0.6447,1.1167 l 0.6447,1.1167 l 1.2895,-0.0000 l 0.0000,-2.2335 l 0.6447,1.1167 l 0.6447,1.1167 l 0.0000,-2.2335 l 0.0000,-2.2335 l -0.0000,-2.2335 l -0.0000,-2.2335 l 1.9342,-1.1167 l 1.9342,1.1167 l -1.2895,0.0000 l -1.2895,0.0000 l -0.6447,1.1167 l 0.6447,1.1167 l 1.9342,-1.1167 l -0.6447,1.1167 l -0.6447,1.1167 l 1.9342,-1.1167 l 1.9342,-1.1167 l 1.9342,-1.1167 l 1.9342,-1.1167 l 1.9342,1.1167 l -0.0000,2.2335 l -0.6447,-1.1167 l -0.6447,-1.1167 l -1.2895,-0.0000 l -0.6447,1.1167 l 1.9342,1.1167 l -1.2895,-0.0000 l -1.2895,-0.0000 l 1.9342,1.1167 l 1.9342,1.1167 l -3.8685,0.0000 l -3.8685,0.0000 l -1.9342,3.3502 l 1.9342,3.3502 l -0.0000,-2.2335 l -0.0000,-2.2335 l 1.9342,-1.1167 l 1.9342,1.1167 l -1.9342,3.3502 l 1.9342,-1.1167 l 1.9342,-1.1167 l -1.9342,3.3502 l -1.9342,3.3502 l 1.9342,1.1167 l 1.9342,1.1167 l 1.9342,-1.1167 l -0.0000,-2.2335 l -0.6447,1.1167 l -0.6447,1.1167 l -1.2895,0.0000 l -0.6447,-1.1167 l 1.9342,-1.1167 l -1.2895,0.0000 l -1.2895,0.0000 l 1.9342,-1.1167 l 1.9342,-1.1167 l -0.0000,-2.2335 l -0.0000,-2.2335 l 1.9342,-1.1167 l 1.9342,1.1167 l -1.2895,0.0000 l -1.2895,0.0000 l -0.6447,1.1167 l 0.6447,1.1167 l 1.9342,-1.1167 l -0.6447,1.1167 l -0.6447,1.1167 l 1.9342,-1.1167 l 1.9342,-1.1167 l 1.9342,3.3502 l 1.9342,3.3502 l -1.9342,3.3502 l -3.8685,0.0000 l 1.9342,-1.1167 l 1.9342,-1.1167 l 0.0000,-2.2335 l -1.9342,-1.1167 l -1.9342,3.3502 l 0.0000,-2.2335 l 0.0000,-2.2335 l -1.9342,3.3502 l -1.9342,3.3502 l -3.8685,0.0000 l -3.8685,0.0000 l -1.9342,3.3502 l 1.9342,3.3502 l -0.0000,-2.2335 l -0.0000,-2.2335 l 1.9342,-1.1167 l 1.9342,1.1167 l -1.9342,3.3502 l 1.9342,-1.1167 l 1.9342,-1.1167 l -1.9342,3.3502 l -1.9342,3.3502 l 5.8027,-3.3502 l 5.8027,-3.3502 l 5.8027,3.3502 l -0.0000,6.7004 l -1.9342,-3.3502 l -1.9342,-3.3502 l -3.8685,-0.0000 l -1.9342,3.3502 l 5.8027,3.3502 l -3.8685,-0.0000 l -3.8685,-0.0000 l 5.8027,3.3502 l 5.8027,3.3502 l 0.0000,6.7004 l 0.0000,6.7004 l 5.8027,3.3502 l 5.8027,-3.3502 l -3.8685,0.0000 l -3.8685,0.0000 l -1.9342,-3.3502 l 1.9342,-3.3502 l 5.8027,3.3502 l -1.9342,-3.3502 l -1.9342,-3.3502 l 5.8027,3.3502 l 5.8027,3.3502 l 5.8027,3.3502 l 5.8027,3.3502 l 5.8027,-3.3502 l -0.0000,-6.7004 l -1.9342,3.3502 l -1.9342,3.3502 l -3.8685,0.0000 l -1.9342,-3.3502 l 5.8027,-3.3502 l -3.8685,0.0000 l -3.8685,0.0000 l 5.8027,-3.3502 l 5.8027,-3.3502 l 5.8027,-3.3502 l 5.8027,-3.3502 l -0.0000,-6.7004 l -5.8027,-3.3502 l 1.9342,3.3502 l 1.9342,3.3502 l -1.9342,3.3502 l -3.8685,0.0000 l -0.0000,-6.7004 l -1.9342,3.3502 l -1.9342,3.3502 l -0.0000,-6.7004 l -0.0000,-6.7004 l -3.8685,0.0000 l -3.8685,0.0000 l -1.9342,3.3502 l 1.9342,3.3502 l -0.0000,-2.2335 l -0.0000,-2.2335 l 1.9342,-1.1167 l 1.9342,1.1167 l -1.9342,3.3502 l 1.9342,-1.1167 l 1.9342,-1.1167 l -1.9342,3.3502 l -1.9342,3.3502 l 1.9342,3.3502 l 1.9342,3.3502 l -1.9342,3.3502 l -3.8685,0.0000 l 1.9342,-1.1167 l 1.9342,-1.1167 l 0.0000,-2.2335 l -1.9342,-1.1167 l -1.9342,3.3502 l 0.0000,-2.2335 l 0.0000,-2.2335 l -1.9342,3.3502 l -1.9342,3.3502 l -1.9342,3.3502 l -1.9342,3.3502 l -3.8685,0.0000 l -1.9342,-3.3502 l 1.9342,1.1167 l 1.9342,1.1167 l 1.9342,-1.1167 l -0.0000,-2.2335 l -3.8685,0.0000 l 1.9342,-1.1167 l 1.9342,-1.1167 l -3.8685,0.0000 l -3.8685,0.0000 l -3.8685,-0.0000 l -3.8685,-0.0000 l -1.9342,-3.3502 l 1.9342,-3.3502 l -0.0000,2.2335 l -0.0000,2.2335 l 1.9342,1.1167 l 1.9342,-1.1167 l -1.9342,-3.3502 l 1.9342,1.1167 l 1.9342,1.1167 l -1.9342,-3.3502 l -1.9342,-3.3502 l 5.8027,3.3502 l 5.8027,3.3502 l 5.8027,-3.3502 l -0.0000,-6.7004 l -1.9342,3.3502 l -1.9342,3.3502 l -3.8685,0.0000 l -1.9342,-3.3502 l 5.8027,-3.3502 l -3.8685,0.0000 l -3.8685,0.0000 l 5.8027,-3.3502 l 5.8027,-3.3502 l -1.9342,-3.3502 l -1.9342,-3.3502 l -3.8685,0.0000 l -1.9342,3.3502 l 1.9342,-1.1167 l 1.9342,-1.1167 l 1.9342,1.1167 l 0.0000,2.2335 l -3.8685,0.0000 l 1.9342,1.1167 l 1.9342,1.1167 l -3.8685,0.0000 l -3.8685,0.0000 l -1.9342,3.3502 l -1.9342,3.3502 l -3.8685,0.0000 l -1.9342,-3.3502 l 1.9342,1.1167 l 1.9342,1.1167 l 1.9342,-1.1167 l -0.0000,-2.2335 l -3.8685,0.0000 l 1.9342,-1.1167 l 1.9342,-1.1167 l -3.8685,0.0000 l -3.8685,0.0000 l 0.0000,-6.7004 l 0.0000,-6.7004 l 5.8027,-3.3502 l 5.8027,3.3502 h -3.8685 h -3.8685 l -1.9342,3.3502 l 1.9342,3.3502 l 5.8027,-3.3502 l -1.9342,3.3502 l -1.9342,3.3502 l 5.8027,-3.3502 l 5.8027,-3.3502 l 5.8027,3.3502 l 5.8027,3.3502 l 5.8027,-3.3502 l -0.0000,-6.7004 l -1.9342,3.3502 l -1.9342,3.3502 l -3.8685,0.0000 l -1.9342,-3.3502 l 5.8027,-3.3502 l -3.8685,0.0000 l -3.8685,0.0000 l 5.8027,-3.3502 l 5.8027,-3.3502 l 5.8027,-3.3502 l 5.8027,-3.3502 l 0.0000,-6.7004 l -5.8027,-3.3502 l 1.9342,3.3502 l 1.9342,3.3502 l -1.9342,3.3502 l -3.8685,-0.0000 l 0.0000,-6.7004 l -1.9342,3.3502 l -1.9342,3.3502 l 0.0000,-6.7004 l 0.0000,-6.7004 l -5.8027,-3.3502 l -5.8027,-3.3502 l 0.0000,-6.7004 l 5.8027,-3.3502 l -1.9342,3.3502 l -1.9342,3.3502 l 1.9342,3.3502 l 3.8685,0.0000 l 0.0000,-6.7004 l 1.9342,3.3502 l 1.9342,3.3502 l 0.0000,-6.7004 l 0.0000,-6.7004 l 0.0000,-6.7004 l 0.0000,-6.7004 l 5.8027,-3.3502 l 5.8027,3.3502 l -3.8685,-0.0000 l -3.8685,-0.0000 l -1.9342,3.3502 l 1.9342,3.3502 l 5.8027,-3.3502 l -1.9342,3.3502 l -1.9342,3.3502 l 5.8027,-3.3502 l 5.8027,-3.3502 l 5.8027,-3.3502 l 5.8027,-3.3502 l 5.8027,3.3502 l -0.0000,6.7004 l -1.9342,-3.3502 l -1.9342,-3.3502 l -3.8685,-0.0000 l -1.9342,3.3502 l 5.8027,3.3502 l -3.8685,-0.0000 l -3.8685,-0.0000 l 5.8027,3.3502 l 5.8027,3.3502 l -1.9342,3.3502 l -1.9342,3.3502 l -3.8685,-0.0000 l -1.9342,-3.3502 l 1.9342,1.1167 l 1.9342,1.1167 l 1.9342,-1.1167 l 0.0000,-2.2335 l -3.8685,-0.0000 l 1.9342,-1.1167 l 1.9342,-1.1167 l -3.8685,-0.0000 l -3.8685,-0.0000 l -1.9342,-3.3502 l -1.9342,-3.3502 l -3.8685,-0.0000 l -1.9342,3.3502 l 1.9342,-1.1167 l 1.9342,-1.1167 l 1.9342,1.1167 l -0.0000,2.2335 l -3.8685,-0.0000 l 1.9342,1.1167 l 1.9342,1.1167 l -3.8685,-0.0000 l -3.8685,-0.0000 l -3.8685,-0.0000 l -3.8685,-0.0000 l -1.9342,3.3502 l 1.9342,3.3502 l 0.0000,-2.2335 l 0.0000,-2.2335 l 1.9342,-1.1167 l 1.9342,1.1167 l -1.9342,3.3502 l 1.9342,-1.1167 l 1.9342,-1.1167 l -1.9342,3.3502 l -1.9342,3.3502 l -1.9342,3.3502 l -1.9342,3.3502 l 1.9342,3.3502 l 3.8685,0.0000 l -1.9342,-1.1167 l -1.9342,-1.1167 l 0.0000,-2.2335 l 1.9342,-1.1167 l 1.9342,3.3502 l 0.0000,-2.2335 l 0.0000,-2.2335 l 1.9342,3.3502 l 1.9342,3.3502 l 0.0000,-6.7004 l 0.0000,-6.7004 l 5.8027,-3.3502 l 5.8027,3.3502 l -3.8685,-0.0000 l -3.8685,-0.0000 l -1.9342,3.3502 l 1.9342,3.3502 l 5.8027,-3.3502 l -1.9342,3.3502 l -1.9342,3.3502 l 5.8027,-3.3502 l 5.8027,-3.3502 l 1.9342,3.3502 l 1.9342,3.3502 l -1.9342,3.3502 l -3.8685,-0.0000 l 1.9342,-1.1167 l 1.9342,-1.1167 l 0.0000,-2.2335 l -1.9342,-1.1167 l -1.9342,3.3502 l 0.0000,-2.2335 l 0.0000,-2.2335 l -1.9342,3.3502 l -1.9342,3.3502 l -3.8685,-0.0000 l -3.8685,-0.0000 l -1.9342,3.3502 l 1.9342,3.3502 l 0.0000,-2.2335 l 0.0000,-2.2335 l 1.9342,-1.1167 l 1.9342,1.1167 l -1.9342,3.3502 l 1.9342,-1.1167 l 1.9342,-1.1167 l -1.9342,3.3502 l -1.9342,3.3502 l 5.8027,3.3502 l 5.8027,3.3502 l 5.8027,-3.3502 l 0.0000,-6.7004 l -1.9342,3.3502 l -1.9342,3.3502 l -3.8685,-0.0000 l -1.9342,-3.3502 l 5.8027,-3.3502 l -3.8685,-0.0000 l -3.8685,-0.0000 l 5.8027,-3.3502 l 5.8027,-3.3502 l 0.0000,-6.7004 l 0.0000,-6.7004 l 5.8027,-3.3502 l 5.8027,3.3502 l -3.8685,-0.0000 l -3.8685,-0.0000 l -1.9342,3.3502 l 1.9342,3.3502 l 5.8027,-3.3502 l -1.9342,3.3502 l -1.9342,3.3502 l 5.8027,-3.3502 l 5.8027,-3.3502 "/></g><g stroke-linejoin="miter" stroke-opacity="1.0" fill-opacity="0.0" stroke="rgb(0,0,0)" stroke-width="1.4278708574223051" fill="rgb(0,0,0)" stroke-linecap="butt" stroke-miterlimit="10.0"><path d="M 215.8607,194.9685 l 17.4081,-10.0506 l 17.4081,-10.0506 l -0.0000,-20.1012 l -17.4081,-10.0506 l 5.8027,10.0506 l 5.8027,10.0506 l -5.8027,10.0506 l -11.6054,0.0000 l -0.0000,-20.1012 l -5.8027,10.0506 l -5.8027,10.0506 l -0.0000,-20.1012 l -0.0000,-20.1012 l -17.4081,-10.0506 l -17.4081,-10.0506 l 0.0000,-20.1012 l 17.4081,-10.0506 l -5.8027,10.0506 l -5.8027,10.0506 l 5.8027,10.0506 h 11.6054 l 0.0000,-20.1012 l 5.8027,10.0506 l 5.8027,10.0506 l 0.0000,-20.1012 l 0.0000,-20.1012 l 0.0000,-20.1012 l 0.0000,-20.1012 l 17.4081,-10.0506 l 17.4081,10.0506 l -11.6054,-0.0000 l -11.6054,-0.0000 l -5.8027,10.0506 l 5.8027,10.0506 l 17.4081,-10.0506 l -5.8027,10.0506 l -5.8027,10.0506 l 17.4081,-10.0506 l 17.4081,-10.0506 l 17.4081,-10.0506 l 17.4081,-10.0506 l 17.4081,10.0506 v 20.1012 l -5.8027,-10.0506 l -5.8027,-10.0506 l -11.6054,-0.0000 l -5.8027,10.0506 l 17.4081,10.0506 l -11.6054,-0.0000 l -11.6054,-0.0000 l 17.4081,10.0506 l 17.4081,10.0506 l -5.8027,10.0506 l -5.8027,10.0506 l -11.6054,-0.0000 l -5.8027,-10.0506 l 5.8027,3.3502 l 5.8027,3.3502 l 5.8027,-3.3502 l 0.0000,-6.7004 l -11.6054,-0.0000 l 5.8027,-3.3502 l 5.8027,-3.3502 l -11.6054,-0.0000 l -11.6054,-0.0000 l -5.8027,-10.0506 l -5.8027,-10.0506 l -11.6054,0.0000 l -5.8027,10.0506 l 5.8027,-3.3502 l 5.8027,-3.3502 l 5.8027,3.3502 v 6.7004 l -11.6054,0.0000 l 5.8027,3.3502 l 5.8027,3.3502 l -11.6054,0.0000 l -11.6054,0.0000 l -11.6054,-0.0000 l -11.6054,-0.0000 l -5.8027,10.0506 l 5.8027,10.0506 l 0.0000,-6.7004 l 0.0000,-6.7004 l 5.8027,-3.3502 l 5.8027,3.3502 l -5.8027,10.0506 l 5.8027,-3.3502 l 5.8027,-3.3502 l -5.8027,10.0506 l -5.8027,10.0506 l -5.8027,10.0506 l -5.8027,10.0506 l 5.8027,10.0506 l 11.6054,-0.0000 l -5.8027,-3.3502 l -5.8027,-3.3502 l -0.0000,-6.7004 l 5.8027,-3.3502 l 5.8027,10.0506 l -0.0000,-6.7004 l -0.0000,-6.7004 l 5.8027,10.0506 l 5.8027,10.0506 l 0.0000,-20.1012 l 0.0000,-20.1012 l 17.4081,-10.0506 l 17.4081,10.0506 l -11.6054,-0.0000 l -11.6054,-0.0000 l -5.8027,10.0506 l 5.8027,10.0506 l 17.4081,-10.0506 l -5.8027,10.0506 l -5.8027,10.0506 l 17.4081,-10.0506 l 17.4081,-10.0506 l 5.8027,10.0506 l 5.8027,10.0506 l -5.8027,10.0506 l -11.6054,-0.0000 l 5.8027,-3.3502 l 5.8027,-3.3502 l 0.0000,-6.7004 l -5.8027,-3.3502 l -5.8027,10.0506 l 0.0000,-6.7004 l 0.0000,-6.7004 l -5.8027,10.0506 l -5.8027,10.0506 l -11.6054,-0.0000 l -11.6054,-0.0000 l -5.8027,10.0506 l 5.8027,10.0506 l 0.0000,-6.7004 l 0.0000,-6.7004 l 5.8027,-3.3502 l 5.8027,3.3502 l -5.8027,10.0506 l 5.8027,-3.3502 l 5.8027,-3.3502 l -5.8027,10.0506 l -5.8027,10.0506 l 17.4081,10.0506 l 17.4081,10.0506 l 17.4081,-10.0506 v -20.1012 l -5.8027,10.0506 l -5.8027,10.0506 l -11.6054,0.0000 l -5.8027,-10.0506 l 17.4081,-10.0506 l -11.6054,0.0000 l -11.6054,0.0000 l 17.4081,-10.0506 l 17.4081,-10.0506 l 0.0000,-20.1012 l 0.0000,-20.1012 l 17.4081,-10.0506 l 17.4081,10.0506 l -11.6054,-0.0000 l -11.6054,-0.0000 l -5.8027,10.0506 l 5.8027,10.0506 l 17.4081,-10.0506 l -5.8027,10.0506 l -5.8027,10.0506 l 17.4081,-10.0506 l 17.4081,-10.0506 "/></g><g stroke-linejoin="miter" stroke-opacity="1.0" fill-opacity="0.0" stroke="rgb(0,0,0)" stroke-width="1.4278708574223051" fill="rgb(0,0,0)" stroke-linecap="butt" stroke-miterlimit="10.0"><path d="M 121.8569,134.6649 l 43.3073,-25.0035 "/></g><g stroke-linejoin="miter" stroke-opacity="1.0" fill-opacity="1.0" stroke="rgb(0,0,0)" stroke-width="0.0" fill="rgb(0,0,0)" stroke-linecap="butt" stroke-miterlimit="10.0"></g><g stroke-linejoin="miter" stroke-opacity="1.0" fill-opacity="1.0" stroke="rgb(0,0,0)" stroke-width="0.0" fill="rgb(0,0,0)" stroke-linecap="butt" stroke-miterlimit="10.0"></g><g stroke-linejoin="miter" stroke-opacity="1.0" fill-opacity="1.0" stroke="rgb(0,0,0)" stroke-width="0.0" fill="rgb(0,0,0)" stroke-linecap="butt" stroke-miterlimit="10.0"><path d="M 176.3411,104.0328 l -14.5658,3.0961 l 4.3959,2.7755 Z"/></g><g stroke-linejoin="miter" stroke-opacity="1.0" fill-opacity="1.0" stroke="rgb(0,0,0)" stroke-width="0.0" fill="rgb(0,0,0)" stroke-linecap="butt" stroke-miterlimit="10.0"><path d="M 166.1712,109.9044 l -0.6501,0.3753 l -0.7139,-1.2366 Z"/></g><g stroke-linejoin="miter" stroke-opacity="1.0" fill-opacity="0.0" stroke="rgb(0,0,0)" stroke-width="1.4278708574223051" fill="rgb(0,0,0)" stroke-linecap="butt" stroke-miterlimit="10.0"><path d="M 69.6325,164.8167 l 43.3073,-25.0035 "/></g><g stroke-linejoin="miter" stroke-opacity="1.0" fill-opacity="1.0" stroke="rgb(0,0,0)" stroke-width="0.0" fill="rgb(0,0,0)" stroke-linecap="butt" stroke-miterlimit="10.0"></g><g stroke-linejoin="miter" stroke-opacity="1.0" fill-opacity="1.0" stroke="rgb(0,0,0)" stroke-width="0.0" fill="rgb(0,0,0)" stroke-linecap="butt" stroke-miterlimit="10.0"></g><g stroke-linejoin="miter" stroke-opacity="1.0" fill-opacity="1.0" stroke="rgb(0,0,0)" stroke-width="0.0" fill="rgb(0,0,0)" stroke-linecap="butt" stroke-miterlimit="10.0"><path d="M 124.1167,134.1846 l -14.5658,3.0961 l 4.3959,2.7755 Z"/></g><g stroke-linejoin="miter" stroke-opacity="1.0" fill-opacity="1.0" stroke="rgb(0,0,0)" stroke-width="0.0" fill="rgb(0,0,0)" stroke-linecap="butt" stroke-miterlimit="10.0"><path d="M 113.9468,140.0562 l -0.6501,0.3753 l -0.7139,-1.2366 Z"/></g><g stroke-linejoin="miter" stroke-opacity="1.0" fill-opacity="0.0" stroke="rgb(0,0,0)" stroke-width="1.4278708574223051" fill="rgb(0,0,0)" stroke-linecap="butt" stroke-miterlimit="10.0"><path d="M 87.0406,134.6649 l -12.2598,21.2346 "/></g><g stroke-linejoin="miter" stroke-opacity="1.0" fill-opacity="1.0" stroke="rgb(0,0,0)" stroke-width="0.0" fill="rgb(0,0,0)" stroke-linecap="butt" stroke-miterlimit="10.0"></g><g stroke-linejoin="miter" stroke-opacity="1.0" fill-opacity="1.0" stroke="rgb(0,0,0)" stroke-width="0.0" fill="rgb(0,0,0)" stroke-linecap="butt" stroke-miterlimit="10.0"></g><g stroke-linejoin="miter" stroke-opacity="1.0" fill-opacity="1.0" stroke="rgb(0,0,0)" stroke-width="0.0" fill="rgb(0,0,0)" stroke-linecap="butt" stroke-miterlimit="10.0"><path d="M 67.9156,166.3626 l 11.0664,-9.9642 l -5.1948,-0.2057 Z"/></g><g stroke-linejoin="miter" stroke-opacity="1.0" fill-opacity="1.0" stroke="rgb(0,0,0)" stroke-width="0.0" fill="rgb(0,0,0)" stroke-linecap="butt" stroke-miterlimit="10.0"><path d="M 73.7872,156.1927 l 0.3753,-0.6501 l 1.2366,0.7139 Z"/></g><g stroke-linejoin="miter" stroke-opacity="1.0" fill-opacity="0.0" stroke="rgb(0,0,0)" stroke-width="1.4278708574223051" fill="rgb(0,0,0)" stroke-linecap="butt" stroke-miterlimit="10.0"><path d="M 104.4487,104.5132 l -12.2598,21.2346 "/></g><g stroke-linejoin="miter" stroke-opacity="1.0" fill-opacity="1.0" stroke="rgb(0,0,0)" stroke-width="0.0" fill="rgb(0,0,0)" stroke-linecap="butt" stroke-miterlimit="10.0"></g><g stroke-linejoin="miter" stroke-opacity="1.0" fill-opacity="1.0" stroke="rgb(0,0,0)" stroke-width="0.0" fill="rgb(0,0,0)" stroke-linecap="butt" stroke-miterlimit="10.0"></g><g stroke-linejoin="miter" stroke-opacity="1.0" fill-opacity="1.0" stroke="rgb(0,0,0)" stroke-width="0.0" fill="rgb(0,0,0)" stroke-linecap="butt" stroke-miterlimit="10.0"><path d="M 85.3237,136.2109 l 11.0664,-9.9642 l -5.1948,-0.2057 Z"/></g><g stroke-linejoin="miter" stroke-opacity="1.0" fill-opacity="1.0" stroke="rgb(0,0,0)" stroke-width="0.0" fill="rgb(0,0,0)" stroke-linecap="butt" stroke-miterlimit="10.0"><path d="M 91.1953,126.0410 l 0.3753,-0.6501 l 1.2366,0.7139 Z"/></g><g stroke-linejoin="miter" stroke-opacity="1.0" fill-opacity="0.0" stroke="rgb(0,0,0)" stroke-width="1.4278708574223051" fill="rgb(0,0,0)" stroke-linecap="butt" stroke-miterlimit="10.0"><path d="M 52.2244,134.6649 l 43.3073,-25.0035 "/></g><g stroke-linejoin="miter" stroke-opacity="1.0" fill-opacity="1.0" stroke="rgb(0,0,0)" stroke-width="0.0" fill="rgb(0,0,0)" stroke-linecap="butt" stroke-miterlimit="10.0"></g><g stroke-linejoin="miter" stroke-opacity="1.0" fill-opacity="1.0" stroke="rgb(0,0,0)" stroke-width="0.0" fill="rgb(0,0,0)" stroke-linecap="butt" stroke-miterlimit="10.0"></g><g stroke-linejoin="miter" stroke-opacity="1.0" fill-opacity="1.0" stroke="rgb(0,0,0)" stroke-width="0.0" fill="rgb(0,0,0)" stroke-linecap="butt" stroke-miterlimit="10.0"><path d="M 106.7086,104.0328 l -14.5658,3.0961 l 4.3959,2.7755 Z"/></g><g stroke-linejoin="miter" stroke-opacity="1.0" fill-opacity="1.0" stroke="rgb(0,0,0)" stroke-width="0.0" fill="rgb(0,0,0)" stroke-linecap="butt" stroke-miterlimit="10.0"><path d="M 96.5387,109.9044 l -0.6501,0.3753 l -0.7139,-1.2366 Z"/></g><g stroke-linejoin="miter" stroke-opacity="1.0" fill-opacity="0.0" stroke="rgb(0,0,0)" stroke-width="1.4278708574223051" fill="rgb(0,0,0)" stroke-linecap="butt" stroke-miterlimit="10.0"><path d="M 34.8162,104.5132 l 12.2598,21.2346 "/></g><g stroke-linejoin="miter" stroke-opacity="1.0" fill-opacity="1.0" stroke="rgb(0,0,0)" stroke-width="0.0" fill="rgb(0,0,0)" stroke-linecap="butt" stroke-miterlimit="10.0"></g><g stroke-linejoin="miter" stroke-opacity="1.0" fill-opacity="1.0" stroke="rgb(0,0,0)" stroke-width="0.0" fill="rgb(0,0,0)" stroke-linecap="butt" stroke-miterlimit="10.0"></g><g stroke-linejoin="miter" stroke-opacity="1.0" fill-opacity="1.0" stroke="rgb(0,0,0)" stroke-width="0.0" fill="rgb(0,0,0)" stroke-linecap="butt" stroke-miterlimit="10.0"><path d="M 52.7047,136.9248 l -3.0961,-14.5658 l -2.7755,4.3959 Z"/></g><g stroke-linejoin="miter" stroke-opacity="1.0" fill-opacity="1.0" stroke="rgb(0,0,0)" stroke-width="0.0" fill="rgb(0,0,0)" stroke-linecap="butt" stroke-miterlimit="10.0"><path d="M 46.8331,126.7549 l -0.3753,-0.6501 l 1.2366,-0.7139 Z"/></g><g stroke-linejoin="miter" stroke-opacity="1.0" fill-opacity="0.0" stroke="rgb(0,0,0)" stroke-width="1.4278708574223051" fill="rgb(0,0,0)" stroke-linecap="butt" stroke-miterlimit="10.0"><path d="M 52.2244,74.3614 l -12.2598,21.2346 "/></g><g stroke-linejoin="miter" stroke-opacity="1.0" fill-opacity="1.0" stroke="rgb(0,0,0)" stroke-width="0.0" fill="rgb(0,0,0)" stroke-linecap="butt" stroke-miterlimit="10.0"></g><g stroke-linejoin="miter" stroke-opacity="1.0" fill-opacity="1.0" stroke="rgb(0,0,0)" stroke-width="0.0" fill="rgb(0,0,0)" stroke-linecap="butt" stroke-miterlimit="10.0"></g><g stroke-linejoin="miter" stroke-opacity="1.0" fill-opacity="1.0" stroke="rgb(0,0,0)" stroke-width="0.0" fill="rgb(0,0,0)" stroke-linecap="butt" stroke-miterlimit="10.0"><path d="M 33.0993,106.0591 l 11.0664,-9.9642 l -5.1948,-0.2057 Z"/></g><g stroke-linejoin="miter" stroke-opacity="1.0" fill-opacity="1.0" stroke="rgb(0,0,0)" stroke-width="0.0" fill="rgb(0,0,0)" stroke-linecap="butt" stroke-miterlimit="10.0"><path d="M 38.9709,95.8892 l 0.3753,-0.6501 l 1.2366,0.7139 Z"/></g><g stroke-linejoin="miter" stroke-opacity="1.0" fill-opacity="0.0" stroke="rgb(0,0,0)" stroke-width="1.4278708574223051" fill="rgb(0,0,0)" stroke-linecap="butt" stroke-miterlimit="10.0"><path d="M 87.0406,74.3614 l -24.5196,0.0000 "/></g><g stroke-linejoin="miter" stroke-opacity="1.0" fill-opacity="1.0" stroke="rgb(0,0,0)" stroke-width="0.0" fill="rgb(0,0,0)" stroke-linecap="butt" stroke-miterlimit="10.0"></g><g stroke-linejoin="miter" stroke-opacity="1.0" fill-opacity="1.0" stroke="rgb(0,0,0)" stroke-width="0.0" fill="rgb(0,0,0)" stroke-linecap="butt" stroke-miterlimit="10.0"></g><g stroke-linejoin="miter" stroke-opacity="1.0" fill-opacity="1.0" stroke="rgb(0,0,0)" stroke-width="0.0" fill="rgb(0,0,0)" stroke-linecap="butt" stroke-miterlimit="10.0"><path d="M 50.0271,73.6475 l 14.1624,4.6017 l -2.4192,-4.6017 Z"/></g><g stroke-linejoin="miter" stroke-opacity="1.0" fill-opacity="1.0" stroke="rgb(0,0,0)" stroke-width="0.0" fill="rgb(0,0,0)" stroke-linecap="butt" stroke-miterlimit="10.0"><path d="M 61.7703,73.6475 l 0.7507,-0.0000 l 0.0000,1.4279 Z"/></g><g stroke-linejoin="miter" stroke-opacity="1.0" fill-opacity="0.0" stroke="rgb(0,0,0)" stroke-width="1.4278708574223051" fill="rgb(0,0,0)" stroke-linecap="butt" stroke-miterlimit="10.0"><path d="M 121.8569,74.3614 l -24.5196,0.0000 "/></g><g stroke-linejoin="miter" stroke-opacity="1.0" fill-opacity="1.0" stroke="rgb(0,0,0)" stroke-width="0.0" fill="rgb(0,0,0)" stroke-linecap="butt" stroke-miterlimit="10.0"></g><g stroke-linejoin="miter" stroke-opacity="1.0" fill-opacity="1.0" stroke="rgb(0,0,0)" stroke-width="0.0" fill="rgb(0,0,0)" stroke-linecap="butt" stroke-miterlimit="10.0"></g><g stroke-linejoin="miter" stroke-opacity="1.0" fill-opacity="1.0" stroke="rgb(0,0,0)" stroke-width="0.0" fill="rgb(0,0,0)" stroke-linecap="butt" stroke-miterlimit="10.0"><path d="M 84.8434,73.6475 l 14.1624,4.6017 l -2.4192,-4.6017 Z"/></g><g stroke-linejoin="miter" stroke-opacity="1.0" fill-opacity="1.0" stroke="rgb(0,0,0)" stroke-width="0.0" fill="rgb(0,0,0)" stroke-linecap="butt" stroke-miterlimit="10.0"><path d="M 96.5865,73.6475 l 0.7507,-0.0000 l 0.0000,1.4279 Z"/></g><g stroke-linejoin="miter" stroke-opacity="1.0" fill-opacity="0.0" stroke="rgb(0,0,0)" stroke-width="1.4278708574223051" fill="rgb(0,0,0)" stroke-linecap="butt" stroke-miterlimit="10.0"><path d="M 69.6325,44.2097 l 43.3073,25.0035 "/></g><g stroke-linejoin="miter" stroke-opacity="1.0" fill-opacity="1.0" stroke="rgb(0,0,0)" stroke-width="0.0" fill="rgb(0,0,0)" stroke-linecap="butt" stroke-miterlimit="10.0"></g><g stroke-linejoin="miter" stroke-opacity="1.0" fill-opacity="1.0" stroke="rgb(0,0,0)" stroke-width="0.0" fill="rgb(0,0,0)" stroke-linecap="butt" stroke-miterlimit="10.0"></g><g stroke-linejoin="miter" stroke-opacity="1.0" fill-opacity="1.0" stroke="rgb(0,0,0)" stroke-width="0.0" fill="rgb(0,0,0)" stroke-linecap="butt" stroke-miterlimit="10.0"><path d="M 123.4028,76.0784 l -9.9642,-11.0664 l -0.2057,5.1948 Z"/></g><g stroke-linejoin="miter" stroke-opacity="1.0" fill-opacity="1.0" stroke="rgb(0,0,0)" stroke-width="0.0" fill="rgb(0,0,0)" stroke-linecap="butt" stroke-miterlimit="10.0"><path d="M 113.2329,70.2068 l -0.6501,-0.3753 l 0.7139,-1.2366 Z"/></g><g stroke-linejoin="miter" stroke-opacity="1.0" fill-opacity="0.0" stroke="rgb(0,0,0)" stroke-width="1.4278708574223051" fill="rgb(0,0,0)" stroke-linecap="butt" stroke-miterlimit="10.0"><path d="M 17.4081,74.3614 l 43.3073,-25.0035 "/></g><g stroke-linejoin="miter" stroke-opacity="1.0" fill-opacity="1.0" stroke="rgb(0,0,0)" stroke-width="0.0" fill="rgb(0,0,0)" stroke-linecap="butt" stroke-miterlimit="10.0"></g><g stroke-linejoin="miter" stroke-opacity="1.0" fill-opacity="1.0" stroke="rgb(0,0,0)" stroke-width="0.0" fill="rgb(0,0,0)" stroke-linecap="butt" stroke-miterlimit="10.0"></g><g stroke-linejoin="miter" stroke-opacity="1.0" fill-opacity="1.0" stroke="rgb(0,0,0)" stroke-width="0.0" fill="rgb(0,0,0)" stroke-linecap="butt" stroke-miterlimit="10.0"><path d="M 71.8924,43.7293 l -14.5658,3.0961 l 4.3959,2.7755 Z"/></g><g stroke-linejoin="miter" stroke-opacity="1.0" fill-opacity="1.0" stroke="rgb(0,0,0)" stroke-width="0.0" fill="rgb(0,0,0)" stroke-linecap="butt" stroke-miterlimit="10.0"><path d="M 61.7224,49.6009 l -0.6501,0.3753 l -0.7139,-1.2366 Z"/></g><g stroke-linejoin="miter" stroke-opacity="1.0" fill-opacity="0.0" stroke="rgb(0,0,0)" stroke-width="1.4278708574223051" fill="rgb(0,0,0)" stroke-linecap="butt" stroke-miterlimit="10.0"><path d="M 17.4081,134.6649 l 0.0000,-50.0069 "/></g><g stroke-linejoin="miter" stroke-opacity="1.0" fill-opacity="1.0" stroke="rgb(0,0,0)" stroke-width="0.0" fill="rgb(0,0,0)" stroke-linecap="butt" stroke-miterlimit="10.0"></g><g stroke-linejoin="miter" stroke-opacity="1.0" fill-opacity="1.0" stroke="rgb(0,0,0)" stroke-width="0.0" fill="rgb(0,0,0)" stroke-linecap="butt" stroke-miterlimit="10.0"></g><g stroke-linejoin="miter" stroke-opacity="1.0" fill-opacity="1.0" stroke="rgb(0,0,0)" stroke-width="0.0" fill="rgb(0,0,0)" stroke-linecap="butt" stroke-miterlimit="10.0"><path d="M 18.1221,72.1642 l -4.6017,14.1624 l 4.6017,-2.4192 Z"/></g><g stroke-linejoin="miter" stroke-opacity="1.0" fill-opacity="1.0" stroke="rgb(0,0,0)" stroke-width="0.0" fill="rgb(0,0,0)" stroke-linecap="butt" stroke-miterlimit="10.0"><path d="M 18.1221,83.9074 l -0.0000,0.7507 l -1.4279,-0.0000 Z"/></g><g stroke-linejoin="miter" stroke-opacity="1.0" fill-opacity="0.0" stroke="rgb(0,0,0)" stroke-width="1.4278708574223051" fill="rgb(0,0,0)" stroke-linecap="butt" stroke-miterlimit="10.0"><path d="M 17.4081,194.9685 l 0.0000,-50.0069 "/></g><g stroke-linejoin="miter" stroke-opacity="1.0" fill-opacity="1.0" stroke="rgb(0,0,0)" stroke-width="0.0" fill="rgb(0,0,0)" stroke-linecap="butt" stroke-miterlimit="10.0"></g><g stroke-linejoin="miter" stroke-opacity="1.0" fill-opacity="1.0" stroke="rgb(0,0,0)" stroke-width="0.0" fill="rgb(0,0,0)" stroke-linecap="butt" stroke-miterlimit="10.0"></g><g stroke-linejoin="miter" stroke-opacity="1.0" fill-opacity="1.0" stroke="rgb(0,0,0)" stroke-width="0.0" fill="rgb(0,0,0)" stroke-linecap="butt" stroke-miterlimit="10.0"><path d="M 18.1221,132.4677 l -4.6017,14.1624 l 4.6017,-2.4192 Z"/></g><g stroke-linejoin="miter" stroke-opacity="1.0" fill-opacity="1.0" stroke="rgb(0,0,0)" stroke-width="0.0" fill="rgb(0,0,0)" stroke-linecap="butt" stroke-miterlimit="10.0"><path d="M 18.1221,144.2109 l -0.0000,0.7507 l -1.4279,-0.0000 Z"/></g></svg>