<svg xmlns="http://www.w3.org/2000/svg" height="400.0000" stroke-opacity="1" viewBox="0 0 400 400" font-size="1" width="400.0000" xmlns:xlink="http://www.w3.org/1999/xlink" stroke="rgb(0,0,0)" version="1.1"><defs></defs><g stroke-linejoin="miter" stroke-opacity="1.0" fill-opacity="0.0" stroke="rgb(0,0,0)" stroke-width="1.6" fill="rgb(0,0,0)" stroke-linecap="butt" stroke-miterlimit="10.0"><path d="M 159.4445,374.8301 c 0.0000,-1.4932 -1.2105,-2.7037 -2.7037 -2.7037c -1.4932,-0.0000 -2.7037,1.2105 -2.7037 2.7037c -0.0000,1.4932 1.2105,2.7037 2.7037 2.7037c 1.4932,0.0000 2.7037,-1.2105 2.7037 -2.7037Z"/></g><g stroke-linejoin="miter" stroke-opacity="1.0" fill-opacity="0.0" stroke="rgb(0,0,0)" stroke-width="1.6" fill="rgb(0,0,0)" stroke-linecap="butt" stroke-miterlimit="10.0"><path d="M 147.8989,388.5051 c 0.0000,-1.9183 -1.5551,-3.4734 -3.4734 -3.4734c -1.9183,-0.0000 -3.4734,1.5551 -3.4734 3.4734c -0.0000,1.9183 1.5551,3.4734 3.4734 3.4734c 1.9183,0.0000 3.4734,-1.5551 3.4734 -3.4734Z"/></g><g stroke-linejoin="miter" stroke-opacity="1.0" fill-opacity="0.0" stroke="rgb(0,0,0)" stroke-width="1.6" fill="rgb(0,0,0)" stroke-linecap="butt" stroke-miterlimit="10.0"><path d="M 181.1459,397.0260 c 0.0000,-1.0413 -0.8441,-1.8854 -1.8854 -1.8854c -1.0413,-0.0000 -1.8854,0.8441 -1.8854 1.8854c -0.0000,1.0413 0.8441,1.8854 1.8854 1.8854c 1.0413,0.0000 1.8854,-0.8441 1.8854 -1.8854Z"/></g><g stroke-linejoin="miter" stroke-opacity="1.0" fill-opacity="0.0" stroke="rgb(0,0,0)" stroke-width="1.6" fill="rgb(0,0,0)" stroke-linecap="butt" stroke-miterlimit="10.0"><path d="M 177.6026,395.5839 c 0.0000,-1.5462 -1.2535,-2.7997 -2.7997 -2.7997c -1.5462,-0.0000 -2.7997,1.2535 -2.7997 2.7997c -0.0000,1.5462 1.2535,2.7997 2.7997 2.7997c 1.5462,0.0000 2.7997,-1.2535 2.7997 -2.7997Z"/></g><g stroke-linejoin="miter" stroke-opacity="1.0" fill-opacity="0.0" stroke="rgb(0,0,0)" stroke-width="1.6" fill="rgb(0,0,0)" stroke-linecap="butt" stroke-miterlimit="10.0"><path d="M 172.5551,392.7850 c 0.0000,-2.5262 -2.0479,-4.5742 -4.5742 -4.5742c -2.5262,-0.0000 -4.5742,2.0479 -4.5742 4.5742c -0.0000,2.5262 2.0479,4.5742 4.5742 4.5742c 2.5262,0.0000 4.5742,-2.0479 4.5742 -4.5742Z"/></g><g stroke-linejoin="miter" stroke-opacity="1.0" fill-opacity="0.0" stroke="rgb(0,0,0)" stroke-width="1.6" fill="rgb(0,0,0)" stroke-linecap="butt" stroke-miterlimit="10.0"><path d="M 165.1254,386.2476 c 0.0000,-4.8152 -3.9035,-8.7187 -8.7187 -8.7187c -4.8152,-0.0000 -8.7187,3.9035 -8.7187 8.7187c -0.0000,4.8152 3.9035,8.7187 8.7187 8.7187c 4.8152,0.0000 8.7187,-3.9035 8.7187 -8.7187Z"/></g><g stroke-linejoin="miter" stroke-opacity="1.0" fill-opacity="0.0" stroke="rgb(0,0,0)" stroke-width="1.6" fill="rgb(0,0,0)" stroke-linecap="butt" stroke-miterlimit="10.0"><path d="M 155.4298,350.5357 c 0.0000,-1.2308 -0.9977,-2.2285 -2.2285 -2.2285c -1.2308,-0.0000 -2.2285,0.9977 -2.2285 2.2285c -0.0000,1.2308 0.9977,2.2285 2.2285 2.2285c 1.2308,0.0000 2.2285,-0.9977 2.2285 -2.2285Z"/></g><g stroke-linejoin="miter" stroke-opacity="1.0" fill-opacity="0.0" stroke="rgb(0,0,0)" stroke-width="1.6" fill="rgb(0,0,0)" stroke-linecap="butt" stroke-miterlimit="10.0"><path d="M 144.4565,342.2149 c 0.0000,-1.3337 -1.0812,-2.4149 -2.4149 -2.4149c -1.3337,-0.0000 -2.4149,1.0812 -2.4149 2.4149c -0.0000,1.3337 1.0812,2.4149 2.4149 2.4149c 1.3337,0.0000 2.4149,-1.0812 2.4149 -2.4149Z"/></g><g stroke-linejoin="miter" stroke-opacity="1.0" fill-opacity="0.0" stroke="rgb(0,0,0)" stroke-width="1.6" fill="rgb(0,0,0)" stroke-linecap="butt" stroke-miterlimit="10.0"><path d="M 159.3976,335.6274 c 0.0000,-1.6017 -1.2984,-2.9002 -2.9002 -2.9002c -1.6017,-0.0000 -2.9002,1.2984 -2.9002 2.9002c -0.0000,1.6017 1.2984,2.9002 2.9002 2.9002c 1.6017,0.0000 2.9002,-1.2984 2.9002 -2.9002Z"/></g><g stroke-linejoin="miter" stroke-opacity="1.0" fill-opacity="0.0" stroke="rgb(0,0,0)" stroke-width="1.6" fill="rgb(0,0,0)" stroke-linecap="butt" stroke-miterlimit="10.0"><path d="M 156.7947,342.5406 c 0.0000,-3.4088 -2.7634,-6.1722 -6.1722 -6.1722c -3.4088,-0.0000 -6.1722,2.7634 -6.1722 6.1722c -0.0000,3.4088 2.7634,6.1722 6.1722 6.1722c 3.4088,0.0000 6.1722,-2.7634 6.1722 -6.1722Z"/></g><g stroke-linejoin="miter" stroke-opacity="1.0" fill-opacity="0.0" stroke="rgb(0,0,0)" stroke-width="1.6" fill="rgb(0,0,0)" stroke-linecap="butt" stroke-miterlimit="10.0"><path d="M 115.4209,377.7978 c 0.0000,-1.1977 -0.9710,-2.1687 -2.1687 -2.1687c -1.1977,-0.0000 -2.1687,0.9710 -2.1687 2.1687c -0.0000,1.1977 0.9710,2.1687 2.1687 2.1687c 1.1977,0.0000 2.1687,-0.9710 2.1687 -2.1687Z"/></g><g stroke-linejoin="miter" stroke-opacity="1.0" fill-opacity="0.0" stroke="rgb(0,0,0)" stroke-width="1.6" fill="rgb(0,0,0)" stroke-linecap="butt" stroke-miterlimit="10.0"><path d="M 113.1064,373.0797 c 0.0000,-2.3995 -1.9452,-4.3447 -4.3447 -4.3447c -2.3995,-0.0000 -4.3447,1.9452 -4.3447 4.3447c -0.0000,2.3995 1.9452,4.3447 4.3447 4.3447c 2.3995,0.0000 4.3447,-1.9452 4.3447 -4.3447Z"/></g><g stroke-linejoin="miter" stroke-opacity="1.0" fill-opacity="0.0" stroke="rgb(0,0,0)" stroke-width="1.6" fill="rgb(0,0,0)" stroke-linecap="butt" stroke-miterlimit="10.0"><path d="M 117.1133,349.8059 c 0.0000,-1.9903 -1.6135,-3.6038 -3.6038 -3.6038c -1.9903,-0.0000 -3.6038,1.6135 -3.6038 3.6038c -0.0000,1.9903 1.6135,3.6038 3.6038 3.6038c 1.9903,0.0000 3.6038,-1.6135 3.6038 -3.6038Z"/></g><g stroke-linejoin="miter" stroke-opacity="1.0" fill-opacity="0.0" stroke="rgb(0,0,0)" stroke-width="1.6" fill="rgb(0,0,0)" stroke-linecap="butt" stroke-miterlimit="10.0"><path d="M 87.7049,360.6106 c 0.0000,-1.4095 -1.1426,-2.5522 -2.5522 -2.5522c -1.4095,-0.0000 -2.5522,1.1426 -2.5522 2.5522c -0.0000,1.4095 1.1426,2.5522 2.5522 2.5522c 1.4095,0.0000 2.5522,-1.1426 2.5522 -2.5522Z"/></g><g stroke-linejoin="miter" stroke-opacity="1.0" fill-opacity="0.0" stroke="rgb(0,0,0)" stroke-width="1.6" fill="rgb(0,0,0)" stroke-linecap="butt" stroke-miterlimit="10.0"><path d="M 92.9739,347.2480 c 0.0000,-1.2576 -1.0195,-2.2772 -2.2772 -2.2772c -1.2576,-0.0000 -2.2772,1.0195 -2.2772 2.2772c -0.0000,1.2576 1.0195,2.2772 2.2772 2.2772c 1.2576,0.0000 2.2772,-1.0195 2.2772 -2.2772Z"/></g><g stroke-linejoin="miter" stroke-opacity="1.0" fill-opacity="0.0" stroke="rgb(0,0,0)" stroke-width="1.6" fill="rgb(0,0,0)" stroke-linecap="butt" stroke-miterlimit="10.0"><path d="M 51.0526,328.4479 c 0.0000,-1.0413 -0.8441,-1.8854 -1.8854 -1.8854c -1.0413,-0.0000 -1.8854,0.8441 -1.8854 1.8854c -0.0000,1.0413 0.8441,1.8854 1.8854 1.8854c 1.0413,0.0000 1.8854,-0.8441 1.8854 -1.8854Z"/></g><g stroke-linejoin="miter" stroke-opacity="1.0" fill-opacity="0.0" stroke="rgb(0,0,0)" stroke-width="1.6" fill="rgb(0,0,0)" stroke-linecap="butt" stroke-miterlimit="10.0"><path d="M 54.6190,331.3188 c 0.0000,-1.2950 -1.0498,-2.3449 -2.3449 -2.3449c -1.2950,-0.0000 -2.3449,1.0498 -2.3449 2.3449c -0.0000,1.2950 1.0498,2.3449 2.3449 2.3449c 1.2950,0.0000 2.3449,-1.0498 2.3449 -2.3449Z"/></g><g stroke-linejoin="miter" stroke-opacity="1.0" fill-opacity="0.0" stroke="rgb(0,0,0)" stroke-width="1.6" fill="rgb(0,0,0)" stroke-linecap="butt" stroke-miterlimit="10.0"><path d="M 59.3192,334.7941 c 0.0000,-1.6531 -1.3401,-2.9932 -2.9932 -2.9932c -1.6531,-0.0000 -2.9932,1.3401 -2.9932 2.9932c -0.0000,1.6531 1.3401,2.9932 2.9932 2.9932c 1.6531,0.0000 2.9932,-1.3401 2.9932 -2.9932Z"/></g><g stroke-linejoin="miter" stroke-opacity="1.0" fill-opacity="0.0" stroke="rgb(0,0,0)" stroke-width="1.6" fill="rgb(0,0,0)" stroke-linecap="butt" stroke-miterlimit="10.0"><path d="M 65.7509,339.0598 c 0.0000,-2.1807 -1.7678,-3.9485 -3.9485 -3.9485c -2.1807,-0.0000 -3.9485,1.7678 -3.9485 3.9485c -0.0000,2.1807 1.7678,3.9485 3.9485 3.9485c 2.1807,0.0000 3.9485,-1.7678 3.9485 -3.9485Z"/></g><g stroke-linejoin="miter" stroke-opacity="1.0" fill-opacity="0.0" stroke="rgb(0,0,0)" stroke-width="1.6" fill="rgb(0,0,0)" stroke-linecap="butt" stroke-miterlimit="10.0"><path d="M 74.9854,344.3544 c 0.0000,-3.0019 -2.4335,-5.4354 -5.4354 -5.4354c -3.0019,-0.0000 -5.4354,2.4335 -5.4354 5.4354c -0.0000,3.0019 2.4335,5.4354 5.4354 5.4354c 3.0019,0.0000 5.4354,-2.4335 5.4354 -5.4354Z"/></g><g stroke-linejoin="miter" stroke-opacity="1.0" fill-opacity="0.0" stroke="rgb(0,0,0)" stroke-width="1.6" fill="rgb(0,0,0)" stroke-linecap="butt" stroke-miterlimit="10.0"><path d="M 89.1033,350.9191 c 0.0000,-4.3748 -3.5464,-7.9212 -7.9212 -7.9212c -4.3748,-0.0000 -7.9212,3.5464 -7.9212 7.9212c -0.0000,4.3748 3.5464,7.9212 7.9212 7.9212c 4.3748,0.0000 7.9212,-3.5464 7.9212 -7.9212Z"/></g><g stroke-linejoin="miter" stroke-opacity="1.0" fill-opacity="0.0" stroke="rgb(0,0,0)" stroke-width="1.6" fill="rgb(0,0,0)" stroke-linecap="butt" stroke-miterlimit="10.0"><path d="M 112.5607,358.6612 c 0.0000,-6.8988 -5.5926,-12.4913 -12.4913 -12.4913c -6.8988,-0.0000 -12.4913,5.5926 -12.4913 12.4913c -0.0000,6.8988 5.5926,12.4913 12.4913 12.4913c 6.8988,0.0000 12.4913,-5.5926 12.4913 -12.4913Z"/></g><g stroke-linejoin="miter" stroke-opacity="1.0" fill-opacity="0.0" stroke="rgb(0,0,0)" stroke-width="1.6" fill="rgb(0,0,0)" stroke-linecap="butt" stroke-miterlimit="10.0"><path d="M 155.9612,365.2677 c 0.0000,-12.1610 -9.8584,-22.0194 -22.0194 -22.0194c -12.1610,-0.0000 -22.0194,9.8584 -22.0194 22.0194c -0.0000,12.1610 9.8584,22.0194 22.0194 22.0194c 12.1610,0.0000 22.0194,-9.8584 22.0194 -22.0194Z"/></g><g stroke-linejoin="miter" stroke-opacity="1.0" fill-opacity="0.0" stroke="rgb(0,0,0)" stroke-width="1.6" fill="rgb(0,0,0)" stroke-linecap="butt" stroke-miterlimit="10.0"><path d="M 245.9629,374.8301 c 0.0000,-1.4932 -1.2105,-2.7037 -2.7037 -2.7037c -1.4932,-0.0000 -2.7037,1.2105 -2.7037 2.7037c -0.0000,1.4932 1.2105,2.7037 2.7037 2.7037c 1.4932,0.0000 2.7037,-1.2105 2.7037 -2.7037Z"/></g><g stroke-linejoin="miter" stroke-opacity="1.0" fill-opacity="0.0" stroke="rgb(0,0,0)" stroke-width="1.6" fill="rgb(0,0,0)" stroke-linecap="butt" stroke-miterlimit="10.0"><path d="M 259.0479,388.5051 c 0.0000,-1.9183 -1.5551,-3.4734 -3.4734 -3.4734c -1.9183,-0.0000 -3.4734,1.5551 -3.4734 3.4734c -0.0000,1.9183 1.5551,3.4734 3.4734 3.4734c 1.9183,0.0000 3.4734,-1.5551 3.4734 -3.4734Z"/></g><g stroke-linejoin="miter" stroke-opacity="1.0" fill-opacity="0.0" stroke="rgb(0,0,0)" stroke-width="1.6" fill="rgb(0,0,0)" stroke-linecap="butt" stroke-miterlimit="10.0"><path d="M 222.6249,397.0260 c 0.0000,-1.0413 -0.8441,-1.8854 -1.8854 -1.8854c -1.0413,-0.0000 -1.8854,0.8441 -1.8854 1.8854c -0.0000,1.0413 0.8441,1.8854 1.8854 1.8854c 1.0413,0.0000 1.8854,-0.8441 1.8854 -1.8854Z"/></g><g stroke-linejoin="miter" stroke-opacity="1.0" fill-opacity="0.0" stroke="rgb(0,0,0)" stroke-width="1.6" fill="rgb(0,0,0)" stroke-linecap="butt" stroke-miterlimit="10.0"><path d="M 227.9968,395.5839 c 0.0000,-1.5462 -1.2535,-2.7997 -2.7997 -2.7997c -1.5462,-0.0000 -2.7997,1.2535 -2.7997 2.7997c -0.0000,1.5462 1.2535,2.7997 2.7997 2.7997c 1.5462,0.0000 2.7997,-1.2535 2.7997 -2.7997Z"/></g><g stroke-linejoin="miter" stroke-opacity="1.0" fill-opacity="0.0" stroke="rgb(0,0,0)" stroke-width="1.6" fill="rgb(0,0,0)" stroke-linecap="butt" stroke-miterlimit="10.0"><path d="M 236.5932,392.7850 c 0.0000,-2.5262 -2.0479,-4.5742 -4.5742 -4.5742c -2.5262,-0.0000 -4.5742,2.0479 -4.5742 4.5742c -0.0000,2.5262 2.0479,4.5742 4.5742 4.5742c 2.5262,0.0000 4.5742,-2.0479 4.5742 -4.5742Z"/></g><g stroke-linejoin="miter" stroke-opacity="1.0" fill-opacity="0.0" stroke="rgb(0,0,0)" stroke-width="1.6" fill="rgb(0,0,0)" stroke-linecap="butt" stroke-miterlimit="10.0"><path d="M 252.3119,386.2476 c 0.0000,-4.8152 -3.9035,-8.7187 -8.7187 -8.7187c -4.8152,-0.0000 -8.7187,3.9035 -8.7187 8.7187c -0.0000,4.8152 3.9035,8.7187 8.7187 8.7187c 4.8152,0.0000 8.7187,-3.9035 8.7187 -8.7187Z"/></g><g stroke-linejoin="miter" stroke-opacity="1.0" fill-opacity="0.0" stroke="rgb(0,0,0)" stroke-width="1.6" fill="rgb(0,0,0)" stroke-linecap="butt" stroke-miterlimit="10.0"><path d="M 249.0272,350.5357 c 0.0000,-1.2308 -0.9977,-2.2285 -2.2285 -2.2285c -1.2308,-0.0000 -2.2285,0.9977 -2.2285 2.2285c -0.0000,1.2308 0.9977,2.2285 2.2285 2.2285c 1.2308,0.0000 2.2285,-0.9977 2.2285 -2.2285Z"/></g><g stroke-linejoin="miter" stroke-opacity="1.0" fill-opacity="0.0" stroke="rgb(0,0,0)" stroke-width="1.6" fill="rgb(0,0,0)" stroke-linecap="butt" stroke-miterlimit="10.0"><path d="M 260.3734,342.2149 c 0.0000,-1.3337 -1.0812,-2.4149 -2.4149 -2.4149c -1.3337,-0.0000 -2.4149,1.0812 -2.4149 2.4149c -0.0000,1.3337 1.0812,2.4149 2.4149 2.4149c 1.3337,0.0000 2.4149,-1.0812 2.4149 -2.4149Z"/></g><g stroke-linejoin="miter" stroke-opacity="1.0" fill-opacity="0.0" stroke="rgb(0,0,0)" stroke-width="1.6" fill="rgb(0,0,0)" stroke-linecap="butt" stroke-miterlimit="10.0"><path d="M 246.4027,335.6274 c 0.0000,-1.6017 -1.2984,-2.9002 -2.9002 -2.9002c -1.6017,-0.0000 -2.9002,1.2984 -2.9002 2.9002c -0.0000,1.6017 1.2984,2.9002 2.9002 2.9002c 1.6017,0.0000 2.9002,-1.2984 2.9002 -2.9002Z"/></g><g stroke-linejoin="miter" stroke-opacity="1.0" fill-opacity="0.0" stroke="rgb(0,0,0)" stroke-width="1.6" fill="rgb(0,0,0)" stroke-linecap="butt" stroke-miterlimit="10.0"><path d="M 255.5497,342.5406 c 0.0000,-3.4088 -2.7634,-6.1722 -6.1722 -6.1722c -3.4088,-0.0000 -6.1722,2.7634 -6.1722 6.1722c -0.0000,3.4088 2.7634,6.1722 6.1722 6.1722c 3.4088,0.0000 6.1722,-2.7634 6.1722 -6.1722Z"/></g><g stroke-linejoin="miter" stroke-opacity="1.0" fill-opacity="0.0" stroke="rgb(0,0,0)" stroke-width="1.6" fill="rgb(0,0,0)" stroke-linecap="butt" stroke-miterlimit="10.0"><path d="M 288.9165,377.7978 c 0.0000,-1.1977 -0.9710,-2.1687 -2.1687 -2.1687c -1.1977,-0.0000 -2.1687,0.9710 -2.1687 2.1687c -0.0000,1.1977 0.9710,2.1687 2.1687 2.1687c 1.1977,0.0000 2.1687,-0.9710 2.1687 -2.1687Z"/></g><g stroke-linejoin="miter" stroke-opacity="1.0" fill-opacity="0.0" stroke="rgb(0,0,0)" stroke-width="1.6" fill="rgb(0,0,0)" stroke-linecap="butt" stroke-miterlimit="10.0"><path d="M 295.5829,373.0797 c 0.0000,-2.3995 -1.9452,-4.3447 -4.3447 -4.3447c -2.3995,-0.0000 -4.3447,1.9452 -4.3447 4.3447c -0.0000,2.3995 1.9452,4.3447 4.3447 4.3447c 2.3995,0.0000 4.3447,-1.9452 4.3447 -4.3447Z"/></g><g stroke-linejoin="miter" stroke-opacity="1.0" fill-opacity="0.0" stroke="rgb(0,0,0)" stroke-width="1.6" fill="rgb(0,0,0)" stroke-linecap="butt" stroke-miterlimit="10.0"><path d="M 290.0943,349.8059 c 0.0000,-1.9903 -1.6135,-3.6038 -3.6038 -3.6038c -1.9903,-0.0000 -3.6038,1.6135 -3.6038 3.6038c -0.0000,1.9903 1.6135,3.6038 3.6038 3.6038c 1.9903,0.0000 3.6038,-1.6135 3.6038 -3.6038Z"/></g><g stroke-linejoin="miter" stroke-opacity="1.0" fill-opacity="0.0" stroke="rgb(0,0,0)" stroke-width="1.6" fill="rgb(0,0,0)" stroke-linecap="butt" stroke-miterlimit="10.0"><path d="M 317.3994,360.6106 c 0.0000,-1.4095 -1.1426,-2.5522 -2.5522 -2.5522c -1.4095,-0.0000 -2.5522,1.1426 -2.5522 2.5522c -0.0000,1.4095 1.1426,2.5522 2.5522 2.5522c 1.4095,0.0000 2.5522,-1.1426 2.5522 -2.5522Z"/></g><g stroke-linejoin="miter" stroke-opacity="1.0" fill-opacity="0.0" stroke="rgb(0,0,0)" stroke-width="1.6" fill="rgb(0,0,0)" stroke-linecap="butt" stroke-miterlimit="10.0"><path d="M 311.5804,347.2480 c 0.0000,-1.2576 -1.0195,-2.2772 -2.2772 -2.2772c -1.2576,-0.0000 -2.2772,1.0195 -2.2772 2.2772c -0.0000,1.2576 1.0195,2.2772 2.2772 2.2772c 1.2576,0.0000 2.2772,-1.0195 2.2772 -2.2772Z"/></g><g stroke-linejoin="miter" stroke-opacity="1.0" fill-opacity="0.0" stroke="rgb(0,0,0)" stroke-width="1.6" fill="rgb(0,0,0)" stroke-linecap="butt" stroke-miterlimit="10.0"><path d="M 352.7182,328.4479 c 0.0000,-1.0413 -0.8441,-1.8854 -1.8854 -1.8854c -1.0413,-0.0000 -1.8854,0.8441 -1.8854 1.8854c -0.0000,1.0413 0.8441,1.8854 1.8854 1.8854c 1.0413,0.0000 1.8854,-0.8441 1.8854 -1.8854Z"/></g><g stroke-linejoin="miter" stroke-opacity="1.0" fill-opacity="0.0" stroke="rgb(0,0,0)" stroke-width="1.6" fill="rgb(0,0,0)" stroke-linecap="butt" stroke-miterlimit="10.0"><path d="M 350.0707,331.3188 c 0.0000,-1.2950 -1.0498,-2.3449 -2.3449 -2.3449c -1.2950,-0.0000 -2.3449,1.0498 -2.3449 2.3449c -0.0000,1.2950 1.0498,2.3449 2.3449 2.3449c 1.2950,0.0000 2.3449,-1.0498 2.3449 -2.3449Z"/></g><g stroke-linejoin="miter" stroke-opacity="1.0" fill-opacity="0.0" stroke="rgb(0,0,0)" stroke-width="1.6" fill="rgb(0,0,0)" stroke-linecap="butt" stroke-miterlimit="10.0"><path d="M 346.6672,334.7941 c 0.0000,-1.6531 -1.3401,-2.9932 -2.9932 -2.9932c -1.6531,-0.0000 -2.9932,1.3401 -2.9932 2.9932c -0.0000,1.6531 1.3401,2.9932 2.9932 2.9932c 1.6531,0.0000 2.9932,-1.3401 2.9932 -2.9932Z"/></g><g stroke-linejoin="miter" stroke-opacity="1.0" fill-opacity="0.0" stroke="rgb(0,0,0)" stroke-width="1.6" fill="rgb(0,0,0)" stroke-linecap="butt" stroke-miterlimit="10.0"><path d="M 342.1461,339.0598 c 0.0000,-2.1807 -1.7678,-3.9485 -3.9485 -3.9485c -2.1807,-0.0000 -3.9485,1.7678 -3.9485 3.9485c -0.0000,2.1807 1.7678,3.9485 3.9485 3.9485c 2.1807,0.0000 3.9485,-1.7678 3.9485 -3.9485Z"/></g><g stroke-linejoin="miter" stroke-opacity="1.0" fill-opacity="0.0" stroke="rgb(0,0,0)" stroke-width="1.6" fill="rgb(0,0,0)" stroke-linecap="butt" stroke-miterlimit="10.0"><path d="M 335.8854,344.3544 c 0.0000,-3.0019 -2.4335,-5.4354 -5.4354 -5.4354c -3.0019,-0.0000 -5.4354,2.4335 -5.4354 5.4354c -0.0000,3.0019 2.4335,5.4354 5.4354 5.4354c 3.0019,0.0000 5.4354,-2.4335 5.4354 -5.4354Z"/></g><g stroke-linejoin="miter" stroke-opacity="1.0" fill-opacity="0.0" stroke="rgb(0,0,0)" stroke-width="1.6" fill="rgb(0,0,0)" stroke-linecap="butt" stroke-miterlimit="10.0"><path d="M 326.7391,350.9191 c 0.0000,-4.3748 -3.5464,-7.9212 -7.9212 -7.9212c -4.3748,-0.0000 -7.9212,3.5464 -7.9212 7.9212c -0.0000,4.3748 3.5464,7.9212 7.9212 7.9212c 4.3748,0.0000 7.9212,-3.5464 7.9212 -7.9212Z"/></g><g stroke-linejoin="miter" stroke-opacity="1.0" fill-opacity="0.0" stroke="rgb(0,0,0)" stroke-width="1.6" fill="rgb(0,0,0)" stroke-linecap="butt" stroke-miterlimit="10.0"><path d="M 312.4220,358.6612 c 0.0000,-6.8988 -5.5926,-12.4913 -12.4913 -12.4913c -6.8988,-0.0000 -12.4913,5.5926 -12.4913 12.4913c -0.0000,6.8988 5.5926,12.4913 12.4913 12.4913c 6.8988,0.0000 12.4913,-5.5926 12.4913 -12.4913Z"/></g><g stroke-linejoin="miter" stroke-opacity="1.0" fill-opacity="0.0" stroke="rgb(0,0,0)" stroke-width="1.6" fill="rgb(0,0,0)" stroke-linecap="butt" stroke-miterlimit="10.0"><path d="M 288.0776,365.2677 c 0.0000,-12.1610 -9.8584,-22.0194 -22.0194 -22.0194c -12.1610,-0.0000 -22.0194,9.8584 -22.0194 22.0194c -0.0000,12.1610 9.8584,22.0194 22.0194 22.0194c 12.1610,0.0000 22.0194,-9.8584 22.0194 -22.0194Z"/></g><g stroke-linejoin="miter" stroke-opacity="1.0" fill-opacity="0.0" stroke="rgb(0,0,0)" stroke-width="1.6" fill="rgb(0,0,0)" stroke-linecap="butt" stroke-miterlimit="10.0"><path d="M 184.6229,311.6089 c 0.0000,-1.2132 -0.9835,-2.1967 -2.1967 -2.1967c -1.2132,-0.0000 -2.1967,0.9835 -2.1967 2.1967c -0.0000,1.2132 0.9835,2.1967 2.1967 2.1967c 1.2132,0.0000 2.1967,-0.9835 2.1967 -2.1967Z"/></g><g stroke-linejoin="miter" stroke-opacity="1.0" fill-opacity="0.0" stroke="rgb(0,0,0)" stroke-width="1.6" fill="rgb(0,0,0)" stroke-linecap="butt" stroke-miterlimit="10.0"><path d="M 191.6973,307.8556 c 0.0000,-2.2927 -1.8586,-4.1514 -4.1514 -4.1514c -2.2927,-0.0000 -4.1514,1.8586 -4.1514 4.1514c -0.0000,2.2927 1.8586,4.1514 4.1514 4.1514c 2.2927,0.0000 4.1514,-1.8586 4.1514 -4.1514Z"/></g><g stroke-linejoin="miter" stroke-opacity="1.0" fill-opacity="0.0" stroke="rgb(0,0,0)" stroke-width="1.6" fill="rgb(0,0,0)" stroke-linecap="butt" stroke-miterlimit="10.0"><path d="M 219.7706,311.6089 c 0.0000,-1.2132 -0.9835,-2.1967 -2.1967 -2.1967c -1.2132,-0.0000 -2.1967,0.9835 -2.1967 2.1967c -0.0000,1.2132 0.9835,2.1967 2.1967 2.1967c 1.2132,0.0000 2.1967,-0.9835 2.1967 -2.1967Z"/></g><g stroke-linejoin="miter" stroke-opacity="1.0" fill-opacity="0.0" stroke="rgb(0,0,0)" stroke-width="1.6" fill="rgb(0,0,0)" stroke-linecap="butt" stroke-miterlimit="10.0"><path d="M 216.6055,307.8556 c 0.0000,-2.2927 -1.8586,-4.1514 -4.1514 -4.1514c -2.2927,-0.0000 -4.1514,1.8586 -4.1514 4.1514c -0.0000,2.2927 1.8586,4.1514 4.1514 4.1514c 2.2927,0.0000 4.1514,-1.8586 4.1514 -4.1514Z"/></g><g stroke-linejoin="miter" stroke-opacity="1.0" fill-opacity="0.0" stroke="rgb(0,0,0)" stroke-width="1.6" fill="rgb(0,0,0)" stroke-linecap="butt" stroke-miterlimit="10.0"><path d="M 202.7560,276.3762 c 0.0000,-1.5221 -1.2339,-2.7560 -2.7560 -2.7560c -1.5221,-0.0000 -2.7560,1.2339 -2.7560 2.7560c -0.0000,1.5221 1.2339,2.7560 2.7560 2.7560c 1.5221,0.0000 2.7560,-1.2339 2.7560 -2.7560Z"/></g><g stroke-linejoin="miter" stroke-opacity="1.0" fill-opacity="0.0" stroke="rgb(0,0,0)" stroke-width="1.6" fill="rgb(0,0,0)" stroke-linecap="butt" stroke-miterlimit="10.0"><path d="M 204.8486,283.9808 c 0.0000,-2.6778 -2.1708,-4.8486 -4.8486 -4.8486c -2.6778,-0.0000 -4.8486,2.1708 -4.8486 4.8486c -0.0000,2.6778 2.1708,4.8486 4.8486 4.8486c 2.6778,0.0000 4.8486,-2.1708 4.8486 -4.8486Z"/></g><g stroke-linejoin="miter" stroke-opacity="1.0" fill-opacity="0.0" stroke="rgb(0,0,0)" stroke-width="1.6" fill="rgb(0,0,0)" stroke-linecap="butt" stroke-miterlimit="10.0"><path d="M 210.7834,299.6129 c 0.0000,-5.9555 -4.8279,-10.7834 -10.7834 -10.7834c -5.9555,-0.0000 -10.7834,4.8279 -10.7834 10.7834c -0.0000,5.9555 4.8279,10.7834 10.7834 10.7834c 5.9555,0.0000 10.7834,-4.8279 10.7834 -10.7834Z"/></g><g stroke-linejoin="miter" stroke-opacity="1.0" fill-opacity="0.0" stroke="rgb(0,0,0)" stroke-width="1.6" fill="rgb(0,0,0)" stroke-linecap="butt" stroke-miterlimit="10.0"><path d="M 244.8018,355.1982 c 0.0000,-24.7434 -20.0585,-44.8018 -44.8018 -44.8018c -24.7434,-0.0000 -44.8018,20.0585 -44.8018 44.8018c -0.0000,24.7434 20.0585,44.8018 44.8018 44.8018c 24.7434,0.0000 44.8018,-20.0585 44.8018 -44.8018Z"/></g><g stroke-linejoin="miter" stroke-opacity="1.0" fill-opacity="0.0" stroke="rgb(0,0,0)" stroke-width="1.6" fill="rgb(0,0,0)" stroke-linecap="butt" stroke-miterlimit="10.0"><path d="M 29.6667,150.0485 c 0.0000,-1.4932 -1.2105,-2.7037 -2.7037 -2.7037c -1.4932,-0.0000 -2.7037,1.2105 -2.7037 2.7037c -0.0000,1.4932 1.2105,2.7037 2.7037 2.7037c 1.4932,0.0000 2.7037,-1.2105 2.7037 -2.7037Z"/></g><g stroke-linejoin="miter" stroke-opacity="1.0" fill-opacity="0.0" stroke="rgb(0,0,0)" stroke-width="1.6" fill="rgb(0,0,0)" stroke-linecap="butt" stroke-miterlimit="10.0"><path d="M 12.4359,153.8764 c 0.0000,-1.9183 -1.5551,-3.4734 -3.4734 -3.4734c -1.9183,-0.0000 -3.4734,1.5551 -3.4734 3.4734c -0.0000,1.9183 1.5551,3.4734 3.4734 3.4734c 1.9183,0.0000 3.4734,-1.5551 3.4734 -3.4734Z"/></g><g stroke-linejoin="miter" stroke-opacity="1.0" fill-opacity="0.0" stroke="rgb(0,0,0)" stroke-width="1.6" fill="rgb(0,0,0)" stroke-linecap="butt" stroke-miterlimit="10.0"><path d="M 20.8861,119.4479 c 0.0000,-1.0413 -0.8441,-1.8854 -1.8854 -1.8854c -1.0413,-0.0000 -1.8854,0.8441 -1.8854 1.8854c -0.0000,1.0413 0.8441,1.8854 1.8854 1.8854c 1.0413,0.0000 1.8854,-0.8441 1.8854 -1.8854Z"/></g><g stroke-linejoin="miter" stroke-opacity="1.0" fill-opacity="0.0" stroke="rgb(0,0,0)" stroke-width="1.6" fill="rgb(0,0,0)" stroke-linecap="butt" stroke-miterlimit="10.0"><path d="M 20.8205,124.0294 c 0.0000,-1.5462 -1.2535,-2.7997 -2.7997 -2.7997c -1.5462,-0.0000 -2.7997,1.2535 -2.7997 2.7997c -0.0000,1.5462 1.2535,2.7997 2.7997 2.7997c 1.5462,0.0000 2.7997,-1.2535 2.7997 -2.7997Z"/></g><g stroke-linejoin="miter" stroke-opacity="1.0" fill-opacity="0.0" stroke="rgb(0,0,0)" stroke-width="1.6" fill="rgb(0,0,0)" stroke-linecap="butt" stroke-miterlimit="10.0"><path d="M 21.6079,131.3369 c 0.0000,-2.5262 -2.0479,-4.5742 -4.5742 -4.5742c -2.5262,-0.0000 -4.5742,2.0479 -4.5742 4.5742c -0.0000,2.5262 2.0479,4.5742 4.5742 4.5742c 2.5262,0.0000 4.5742,-2.0479 4.5742 -4.5742Z"/></g><g stroke-linejoin="miter" stroke-opacity="1.0" fill-opacity="0.0" stroke="rgb(0,0,0)" stroke-width="1.6" fill="rgb(0,0,0)" stroke-linecap="butt" stroke-miterlimit="10.0"><path d="M 25.6268,144.6291 c 0.0000,-4.8152 -3.9035,-8.7187 -8.7187 -8.7187c -4.8152,-0.0000 -8.7187,3.9035 -8.7187 8.7187c -0.0000,4.8152 3.9035,8.7187 8.7187 8.7187c 4.8152,0.0000 8.7187,-3.9035 8.7187 -8.7187Z"/></g><g stroke-linejoin="miter" stroke-opacity="1.0" fill-opacity="0.0" stroke="rgb(0,0,0)" stroke-width="1.6" fill="rgb(0,0,0)" stroke-linecap="butt" stroke-miterlimit="10.0"><path d="M 48.4614,165.2610 c 0.0000,-1.2308 -0.9977,-2.2285 -2.2285 -2.2285c -1.2308,-0.0000 -2.2285,0.9977 -2.2285 2.2285c -0.0000,1.2308 0.9977,2.2285 2.2285 2.2285c 1.2308,0.0000 2.2285,-0.9977 2.2285 -2.2285Z"/></g><g stroke-linejoin="miter" stroke-opacity="1.0" fill-opacity="0.0" stroke="rgb(0,0,0)" stroke-width="1.6" fill="rgb(0,0,0)" stroke-linecap="butt" stroke-miterlimit="10.0"><path d="M 50.2740,179.0860 c 0.0000,-1.3337 -1.0812,-2.4149 -2.4149 -2.4149c -1.3337,-0.0000 -2.4149,1.0812 -2.4149 2.4149c -0.0000,1.3337 1.0812,2.4149 2.4149 2.4149c 1.3337,0.0000 2.4149,-1.0812 2.4149 -2.4149Z"/></g><g stroke-linejoin="miter" stroke-opacity="1.0" fill-opacity="0.0" stroke="rgb(0,0,0)" stroke-width="1.6" fill="rgb(0,0,0)" stroke-linecap="butt" stroke-miterlimit="10.0"><path d="M 63.6921,169.8606 c 0.0000,-1.6017 -1.2984,-2.9002 -2.9002 -2.9002c -1.6017,-0.0000 -2.9002,1.2984 -2.9002 2.9002c -0.0000,1.6017 1.2984,2.9002 2.9002 2.9002c 1.6017,0.0000 2.9002,-1.2984 2.9002 -2.9002Z"/></g><g stroke-linejoin="miter" stroke-opacity="1.0" fill-opacity="0.0" stroke="rgb(0,0,0)" stroke-width="1.6" fill="rgb(0,0,0)" stroke-linecap="butt" stroke-miterlimit="10.0"><path d="M 58.0396,171.4919 c 0.0000,-3.4088 -2.7634,-6.1722 -6.1722 -6.1722c -3.4088,-0.0000 -6.1722,2.7634 -6.1722 6.1722c -0.0000,3.4088 2.7634,6.1722 6.1722 6.1722c 3.4088,0.0000 6.1722,-2.7634 6.1722 -6.1722Z"/></g><g stroke-linejoin="miter" stroke-opacity="1.0" fill-opacity="0.0" stroke="rgb(0,0,0)" stroke-width="1.6" fill="rgb(0,0,0)" stroke-linecap="butt" stroke-miterlimit="10.0"><path d="M 4.8174,186.2269 c 0.0000,-1.1977 -0.9710,-2.1687 -2.1687 -2.1687c -1.1977,-0.0000 -2.1687,0.9710 -2.1687 2.1687c -0.0000,1.1977 0.9710,2.1687 2.1687 2.1687c 1.1977,0.0000 2.1687,-0.9710 2.1687 -2.1687Z"/></g><g stroke-linejoin="miter" stroke-opacity="1.0" fill-opacity="0.0" stroke="rgb(0,0,0)" stroke-width="1.6" fill="rgb(0,0,0)" stroke-linecap="butt" stroke-miterlimit="10.0"><path d="M 8.8341,192.4748 c 0.0000,-2.3995 -1.9452,-4.3447 -4.3447 -4.3447c -2.3995,-0.0000 -4.3447,1.9452 -4.3447 4.3447c -0.0000,2.3995 1.9452,4.3447 4.3447 4.3447c 2.3995,0.0000 4.3447,-1.9452 4.3447 -4.3447Z"/></g><g stroke-linejoin="miter" stroke-opacity="1.0" fill-opacity="0.0" stroke="rgb(0,0,0)" stroke-width="1.6" fill="rgb(0,0,0)" stroke-linecap="butt" stroke-miterlimit="10.0"><path d="M 30.6228,200.0000 c 0.0000,-1.9903 -1.6135,-3.6038 -3.6038 -3.6038c -1.9903,-0.0000 -3.6038,1.6135 -3.6038 3.6038c -0.0000,1.9903 1.6135,3.6038 3.6038 3.6038c 1.9903,0.0000 3.6038,-1.6135 3.6038 -3.6038Z"/></g><g stroke-linejoin="miter" stroke-opacity="1.0" fill-opacity="0.0" stroke="rgb(0,0,0)" stroke-width="1.6" fill="rgb(0,0,0)" stroke-linecap="butt" stroke-miterlimit="10.0"><path d="M 6.0357,219.1554 c 0.0000,-1.4095 -1.1426,-2.5522 -2.5522 -2.5522c -1.4095,-0.0000 -2.5522,1.1426 -2.5522 2.5522c -0.0000,1.4095 1.1426,2.5522 2.5522 2.5522c 1.4095,0.0000 2.5522,-1.1426 2.5522 -2.5522Z"/></g><g stroke-linejoin="miter" stroke-opacity="1.0" fill-opacity="0.0" stroke="rgb(0,0,0)" stroke-width="1.6" fill="rgb(0,0,0)" stroke-linecap="butt" stroke-miterlimit="10.0"><path d="M 20.1051,221.0354 c 0.0000,-1.2576 -1.0195,-2.2772 -2.2772 -2.2772c -1.2576,-0.0000 -2.2772,1.0195 -2.2772 2.2772c -0.0000,1.2576 1.0195,2.2772 2.2772 2.2772c 1.2576,0.0000 2.2772,-1.0195 2.2772 -2.2772Z"/></g><g stroke-linejoin="miter" stroke-opacity="1.0" fill-opacity="0.0" stroke="rgb(0,0,0)" stroke-width="1.6" fill="rgb(0,0,0)" stroke-linecap="butt" stroke-miterlimit="10.0"><path d="M 15.2299,266.4010 c 0.0000,-1.0413 -0.8441,-1.8854 -1.8854 -1.8854c -1.0413,-0.0000 -1.8854,0.8441 -1.8854 1.8854c -0.0000,1.0413 0.8441,1.8854 1.8854 1.8854c 1.0413,0.0000 1.8854,-0.8441 1.8854 -1.8854Z"/></g><g stroke-linejoin="miter" stroke-opacity="1.0" fill-opacity="0.0" stroke="rgb(0,0,0)" stroke-width="1.6" fill="rgb(0,0,0)" stroke-linecap="butt" stroke-miterlimit="10.0"><path d="M 14.7565,262.2749 c 0.0000,-1.2950 -1.0498,-2.3449 -2.3449 -2.3449c -1.2950,-0.0000 -2.3449,1.0498 -2.3449 2.3449c -0.0000,1.2950 1.0498,2.3449 2.3449 2.3449c 1.2950,0.0000 2.3449,-1.0498 2.3449 -2.3449Z"/></g><g stroke-linejoin="miter" stroke-opacity="1.0" fill-opacity="0.0" stroke="rgb(0,0,0)" stroke-width="1.6" fill="rgb(0,0,0)" stroke-linecap="butt" stroke-miterlimit="10.0"><path d="M 14.4211,257.0283 c 0.0000,-1.6531 -1.3401,-2.9932 -2.9932 -2.9932c -1.6531,-0.0000 -2.9932,1.3401 -2.9932 2.9932c -0.0000,1.6531 1.3401,2.9932 2.9932 2.9932c 1.6531,0.0000 2.9932,-1.3401 2.9932 -2.9932Z"/></g><g stroke-linejoin="miter" stroke-opacity="1.0" fill-opacity="0.0" stroke="rgb(0,0,0)" stroke-width="1.6" fill="rgb(0,0,0)" stroke-linecap="butt" stroke-miterlimit="10.0"><path d="M 14.4204,250.1527 c 0.0000,-2.1807 -1.7678,-3.9485 -3.9485 -3.9485c -2.1807,-0.0000 -3.9485,1.7678 -3.9485 3.9485c -0.0000,2.1807 1.7678,3.9485 3.9485 3.9485c 2.1807,0.0000 3.9485,-1.7678 3.9485 -3.9485Z"/></g><g stroke-linejoin="miter" stroke-opacity="1.0" fill-opacity="0.0" stroke="rgb(0,0,0)" stroke-width="1.6" fill="rgb(0,0,0)" stroke-linecap="butt" stroke-miterlimit="10.0"><path d="M 15.1959,240.7958 c 0.0000,-3.0019 -2.4335,-5.4354 -5.4354 -5.4354c -3.0019,-0.0000 -5.4354,2.4335 -5.4354 5.4354c -0.0000,3.0019 2.4335,5.4354 5.4354 5.4354c 3.0019,0.0000 5.4354,-2.4335 5.4354 -5.4354Z"/></g><g stroke-linejoin="miter" stroke-opacity="1.0" fill-opacity="0.0" stroke="rgb(0,0,0)" stroke-width="1.6" fill="rgb(0,0,0)" stroke-linecap="butt" stroke-miterlimit="10.0"><path d="M 17.8125,227.4398 c 0.0000,-4.3748 -3.5464,-7.9212 -7.9212 -7.9212c -4.3748,-0.0000 -7.9212,3.5464 -7.9212 7.9212c -0.0000,4.3748 3.5464,7.9212 7.9212 7.9212c 4.3748,0.0000 7.9212,-3.5464 7.9212 -7.9212Z"/></g><g stroke-linejoin="miter" stroke-opacity="1.0" fill-opacity="0.0" stroke="rgb(0,0,0)" stroke-width="1.6" fill="rgb(0,0,0)" stroke-linecap="butt" stroke-miterlimit="10.0"><path d="M 25.1214,207.2119 c 0.0000,-6.8988 -5.5926,-12.4913 -12.4913 -12.4913c -6.8988,-0.0000 -12.4913,5.5926 -12.4913 12.4913c -0.0000,6.8988 5.5926,12.4913 12.4913 12.4913c 6.8988,0.0000 12.4913,-5.5926 12.4913 -12.4913Z"/></g><g stroke-linejoin="miter" stroke-opacity="1.0" fill-opacity="0.0" stroke="rgb(0,0,0)" stroke-width="1.6" fill="rgb(0,0,0)" stroke-linecap="butt" stroke-miterlimit="10.0"><path d="M 45.8643,174.5742 c 0.0000,-12.1610 -9.8584,-22.0194 -22.0194 -22.0194c -12.1610,-0.0000 -22.0194,9.8584 -22.0194 22.0194c -0.0000,12.1610 9.8584,22.0194 22.0194 22.0194c 12.1610,0.0000 22.0194,-9.8584 22.0194 -22.0194Z"/></g><g stroke-linejoin="miter" stroke-opacity="1.0" fill-opacity="0.0" stroke="rgb(0,0,0)" stroke-width="1.6" fill="rgb(0,0,0)" stroke-linecap="butt" stroke-miterlimit="10.0"><path d="M 72.9260,75.1213 c 0.0000,-1.4932 -1.2105,-2.7037 -2.7037 -2.7037c -1.4932,-0.0000 -2.7037,1.2105 -2.7037 2.7037c -0.0000,1.4932 1.2105,2.7037 2.7037 2.7037c 1.4932,0.0000 2.7037,-1.2105 2.7037 -2.7037Z"/></g><g stroke-linejoin="miter" stroke-opacity="1.0" fill-opacity="0.0" stroke="rgb(0,0,0)" stroke-width="1.6" fill="rgb(0,0,0)" stroke-linecap="butt" stroke-miterlimit="10.0"><path d="M 68.0105,57.6185 c 0.0000,-1.9183 -1.5551,-3.4734 -3.4734 -3.4734c -1.9183,-0.0000 -3.4734,1.5551 -3.4734 3.4734c -0.0000,1.9183 1.5551,3.4734 3.4734 3.4734c 1.9183,0.0000 3.4734,-1.5551 3.4734 -3.4734Z"/></g><g stroke-linejoin="miter" stroke-opacity="1.0" fill-opacity="0.0" stroke="rgb(0,0,0)" stroke-width="1.6" fill="rgb(0,0,0)" stroke-linecap="butt" stroke-miterlimit="10.0"><path d="M 41.6256,83.5260 c 0.0000,-1.0413 -0.8441,-1.8854 -1.8854 -1.8854c -1.0413,-0.0000 -1.8854,0.8441 -1.8854 1.8854c -0.0000,1.0413 0.8441,1.8854 1.8854 1.8854c 1.0413,0.0000 1.8854,-0.8441 1.8854 -1.8854Z"/></g><g stroke-linejoin="miter" stroke-opacity="1.0" fill-opacity="0.0" stroke="rgb(0,0,0)" stroke-width="1.6" fill="rgb(0,0,0)" stroke-linecap="butt" stroke-miterlimit="10.0"><path d="M 46.0176,80.3867 c 0.0000,-1.5462 -1.2535,-2.7997 -2.7997 -2.7997c -1.5462,-0.0000 -2.7997,1.2535 -2.7997 2.7997c -0.0000,1.5462 1.2535,2.7997 2.7997 2.7997c 1.5462,0.0000 2.7997,-1.2535 2.7997 -2.7997Z"/></g><g stroke-linejoin="miter" stroke-opacity="1.0" fill-opacity="0.0" stroke="rgb(0,0,0)" stroke-width="1.6" fill="rgb(0,0,0)" stroke-linecap="butt" stroke-miterlimit="10.0"><path d="M 53.6270,75.8782 c 0.0000,-2.5262 -2.0479,-4.5742 -4.5742 -4.5742c -2.5262,-0.0000 -4.5742,2.0479 -4.5742 4.5742c -0.0000,2.5262 2.0479,4.5742 4.5742 4.5742c 2.5262,0.0000 4.5742,-2.0479 4.5742 -4.5742Z"/></g><g stroke-linejoin="miter" stroke-opacity="1.0" fill-opacity="0.0" stroke="rgb(0,0,0)" stroke-width="1.6" fill="rgb(0,0,0)" stroke-linecap="butt" stroke-miterlimit="10.0"><path d="M 69.2201,69.1233 c 0.0000,-4.8152 -3.9035,-8.7187 -8.7187 -8.7187c -4.8152,-0.0000 -8.7187,3.9035 -8.7187 8.7187c -0.0000,4.8152 3.9035,8.7187 8.7187 8.7187c 4.8152,0.0000 8.7187,-3.9035 8.7187 -8.7187Z"/></g><g stroke-linejoin="miter" stroke-opacity="1.0" fill-opacity="0.0" stroke="rgb(0,0,0)" stroke-width="1.6" fill="rgb(0,0,0)" stroke-linecap="butt" stroke-miterlimit="10.0"><path d="M 95.2601,84.2033 c 0.0000,-1.2308 -0.9977,-2.2285 -2.2285 -2.2285c -1.2308,-0.0000 -2.2285,0.9977 -2.2285 2.2285c -0.0000,1.2308 0.9977,2.2285 2.2285 2.2285c 1.2308,0.0000 2.2285,-0.9977 2.2285 -2.2285Z"/></g><g stroke-linejoin="miter" stroke-opacity="1.0" fill-opacity="0.0" stroke="rgb(0,0,0)" stroke-width="1.6" fill="rgb(0,0,0)" stroke-linecap="butt" stroke-miterlimit="10.0"><path d="M 108.2324,78.6990 c 0.0000,-1.3337 -1.0812,-2.4149 -2.4149 -2.4149c -1.3337,-0.0000 -2.4149,1.0812 -2.4149 2.4149c -0.0000,1.3337 1.0812,2.4149 2.4149 2.4149c 1.3337,0.0000 2.4149,-1.0812 2.4149 -2.4149Z"/></g><g stroke-linejoin="miter" stroke-opacity="1.0" fill-opacity="0.0" stroke="rgb(0,0,0)" stroke-width="1.6" fill="rgb(0,0,0)" stroke-linecap="butt" stroke-miterlimit="10.0"><path d="M 107.1946,94.5120 c 0.0000,-1.6017 -1.2984,-2.9002 -2.9002 -2.9002c -1.6017,-0.0000 -2.9002,1.2984 -2.9002 2.9002c -0.0000,1.6017 1.2984,2.9002 2.9002 2.9002c 1.6017,0.0000 2.9002,-1.2984 2.9002 -2.9002Z"/></g><g stroke-linejoin="miter" stroke-opacity="1.0" fill-opacity="0.0" stroke="rgb(0,0,0)" stroke-width="1.6" fill="rgb(0,0,0)" stroke-linecap="butt" stroke-miterlimit="10.0"><path d="M 107.4172,85.9675 c 0.0000,-3.4088 -2.7634,-6.1722 -6.1722 -6.1722c -3.4088,-0.0000 -6.1722,2.7634 -6.1722 6.1722c -0.0000,3.4088 2.7634,6.1722 6.1722 6.1722c 3.4088,0.0000 6.1722,-2.7634 6.1722 -6.1722Z"/></g><g stroke-linejoin="miter" stroke-opacity="1.0" fill-opacity="0.0" stroke="rgb(0,0,0)" stroke-width="1.6" fill="rgb(0,0,0)" stroke-linecap="butt" stroke-miterlimit="10.0"><path d="M 91.5652,35.9753 c 0.0000,-1.1977 -0.9710,-2.1687 -2.1687 -2.1687c -1.1977,-0.0000 -2.1687,0.9710 -2.1687 2.1687c -0.0000,1.1977 0.9710,2.1687 2.1687 2.1687c 1.1977,0.0000 2.1687,-0.9710 2.1687 -2.1687Z"/></g><g stroke-linejoin="miter" stroke-opacity="1.0" fill-opacity="0.0" stroke="rgb(0,0,0)" stroke-width="1.6" fill="rgb(0,0,0)" stroke-linecap="butt" stroke-miterlimit="10.0"><path d="M 100.0724,34.4455 c 0.0000,-2.3995 -1.9452,-4.3447 -4.3447 -4.3447c -2.3995,-0.0000 -4.3447,1.9452 -4.3447 4.3447c -0.0000,2.3995 1.9452,4.3447 4.3447 4.3447c 2.3995,0.0000 4.3447,-1.9452 4.3447 -4.3447Z"/></g><g stroke-linejoin="miter" stroke-opacity="1.0" fill-opacity="0.0" stroke="rgb(0,0,0)" stroke-width="1.6" fill="rgb(0,0,0)" stroke-linecap="butt" stroke-miterlimit="10.0"><path d="M 117.1133,50.1941 c 0.0000,-1.9903 -1.6135,-3.6038 -3.6038 -3.6038c -1.9903,-0.0000 -3.6038,1.6135 -3.6038 3.6038c -0.0000,1.9903 1.6135,3.6038 3.6038 3.6038c 1.9903,0.0000 3.6038,-1.6135 3.6038 -3.6038Z"/></g><g stroke-linejoin="miter" stroke-opacity="1.0" fill-opacity="0.0" stroke="rgb(0,0,0)" stroke-width="1.6" fill="rgb(0,0,0)" stroke-linecap="butt" stroke-miterlimit="10.0"><path d="M 120.8830,20.2341 c 0.0000,-1.4095 -1.1426,-2.5522 -2.5522 -2.5522c -1.4095,-0.0000 -2.5522,1.1426 -2.5522 2.5522c -0.0000,1.4095 1.1426,2.5522 2.5522 2.5522c 1.4095,0.0000 2.5522,-1.1426 2.5522 -2.5522Z"/></g><g stroke-linejoin="miter" stroke-opacity="1.0" fill-opacity="0.0" stroke="rgb(0,0,0)" stroke-width="1.6" fill="rgb(0,0,0)" stroke-linecap="butt" stroke-miterlimit="10.0"><path d="M 129.4083,31.7166 c 0.0000,-1.2576 -1.0195,-2.2772 -2.2772 -2.2772c -1.2576,-0.0000 -2.2772,1.0195 -2.2772 2.2772c -0.0000,1.2576 1.0195,2.2772 2.2772 2.2772c 1.2576,0.0000 2.2772,-1.0195 2.2772 -2.2772Z"/></g><g stroke-linejoin="miter" stroke-opacity="1.0" fill-opacity="0.0" stroke="rgb(0,0,0)" stroke-width="1.6" fill="rgb(0,0,0)" stroke-linecap="butt" stroke-miterlimit="10.0"><path d="M 166.0626,5.1510 c 0.0000,-1.0413 -0.8441,-1.8854 -1.8854 -1.8854c -1.0413,-0.0000 -1.8854,0.8441 -1.8854 1.8854c -0.0000,1.0413 0.8441,1.8854 1.8854 1.8854c 1.0413,0.0000 1.8854,-0.8441 1.8854 -1.8854Z"/></g><g stroke-linejoin="miter" stroke-opacity="1.0" fill-opacity="0.0" stroke="rgb(0,0,0)" stroke-width="1.6" fill="rgb(0,0,0)" stroke-linecap="butt" stroke-miterlimit="10.0"><path d="M 162.4823,6.4063 c 0.0000,-1.2950 -1.0498,-2.3449 -2.3449 -2.3449c -1.2950,-0.0000 -2.3449,1.0498 -2.3449 2.3449c -0.0000,1.2950 1.0498,2.3449 2.3449 2.3449c 1.2950,0.0000 2.3449,-1.0498 2.3449 -2.3449Z"/></g><g stroke-linejoin="miter" stroke-opacity="1.0" fill-opacity="0.0" stroke="rgb(0,0,0)" stroke-width="1.6" fill="rgb(0,0,0)" stroke-linecap="butt" stroke-miterlimit="10.0"><path d="M 158.0951,8.1776 c 0.0000,-1.6531 -1.3401,-2.9932 -2.9932 -2.9932c -1.6531,-0.0000 -2.9932,1.3401 -2.9932 2.9932c -0.0000,1.6531 1.3401,2.9932 2.9932 2.9932c 1.6531,0.0000 2.9932,-1.3401 2.9932 -2.9932Z"/></g><g stroke-linejoin="miter" stroke-opacity="1.0" fill-opacity="0.0" stroke="rgb(0,0,0)" stroke-width="1.6" fill="rgb(0,0,0)" stroke-linecap="butt" stroke-miterlimit="10.0"><path d="M 152.6180,10.7875 c 0.0000,-2.1807 -1.7678,-3.9485 -3.9485 -3.9485c -2.1807,-0.0000 -3.9485,1.7678 -3.9485 3.9485c -0.0000,2.1807 1.7678,3.9485 3.9485 3.9485c 2.1807,0.0000 3.9485,-1.7678 3.9485 -3.9485Z"/></g><g stroke-linejoin="miter" stroke-opacity="1.0" fill-opacity="0.0" stroke="rgb(0,0,0)" stroke-width="1.6" fill="rgb(0,0,0)" stroke-linecap="butt" stroke-miterlimit="10.0"><path d="M 145.6458,14.8498 c 0.0000,-3.0019 -2.4335,-5.4354 -5.4354 -5.4354c -3.0019,-0.0000 -5.4354,2.4335 -5.4354 5.4354c -0.0000,3.0019 2.4335,5.4354 5.4354 5.4354c 3.0019,0.0000 5.4354,-2.4335 5.4354 -5.4354Z"/></g><g stroke-linejoin="miter" stroke-opacity="1.0" fill-opacity="0.0" stroke="rgb(0,0,0)" stroke-width="1.6" fill="rgb(0,0,0)" stroke-linecap="butt" stroke-miterlimit="10.0"><path d="M 136.6304,21.6411 c 0.0000,-4.3748 -3.5464,-7.9212 -7.9212 -7.9212c -4.3748,-0.0000 -7.9212,3.5464 -7.9212 7.9212c -0.0000,4.3748 3.5464,7.9212 7.9212 7.9212c 4.3748,0.0000 7.9212,-3.5464 7.9212 -7.9212Z"/></g><g stroke-linejoin="miter" stroke-opacity="1.0" fill-opacity="0.0" stroke="rgb(0,0,0)" stroke-width="1.6" fill="rgb(0,0,0)" stroke-linecap="butt" stroke-miterlimit="10.0"><path d="M 125.0520,34.1269 c 0.0000,-6.8988 -5.5926,-12.4913 -12.4913 -12.4913c -6.8988,-0.0000 -12.4913,5.5926 -12.4913 12.4913c -0.0000,6.8988 5.5926,12.4913 12.4913 12.4913c 6.8988,0.0000 12.4913,-5.5926 12.4913 -12.4913Z"/></g><g stroke-linejoin="miter" stroke-opacity="1.0" fill-opacity="0.0" stroke="rgb(0,0,0)" stroke-width="1.6" fill="rgb(0,0,0)" stroke-linecap="butt" stroke-miterlimit="10.0"><path d="M 111.9224,60.1581 c 0.0000,-12.1610 -9.8584,-22.0194 -22.0194 -22.0194c -12.1610,-0.0000 -22.0194,9.8584 -22.0194 22.0194c -0.0000,12.1610 9.8584,22.0194 22.0194 22.0194c 12.1610,0.0000 22.0194,-9.8584 22.0194 -22.0194Z"/></g><g stroke-linejoin="miter" stroke-opacity="1.0" fill-opacity="0.0" stroke="rgb(0,0,0)" stroke-width="1.6" fill="rgb(0,0,0)" stroke-linecap="butt" stroke-miterlimit="10.0"><path d="M 96.7537,159.4150 c 0.0000,-1.2132 -0.9835,-2.1967 -2.1967 -2.1967c -1.2132,-0.0000 -2.1967,0.9835 -2.1967 2.1967c -0.0000,1.2132 0.9835,2.1967 2.1967 2.1967c 1.2132,0.0000 2.1967,-0.9835 2.1967 -2.1967Z"/></g><g stroke-linejoin="miter" stroke-opacity="1.0" fill-opacity="0.0" stroke="rgb(0,0,0)" stroke-width="1.6" fill="rgb(0,0,0)" stroke-linecap="butt" stroke-miterlimit="10.0"><path d="M 104.5186,156.8577 c 0.0000,-2.2927 -1.8586,-4.1514 -4.1514 -4.1514c -2.2927,-0.0000 -4.1514,1.8586 -4.1514 4.1514c -0.0000,2.2927 1.8586,4.1514 4.1514 4.1514c 2.2927,0.0000 4.1514,-1.8586 4.1514 -4.1514Z"/></g><g stroke-linejoin="miter" stroke-opacity="1.0" fill-opacity="0.0" stroke="rgb(0,0,0)" stroke-width="1.6" fill="rgb(0,0,0)" stroke-linecap="butt" stroke-miterlimit="10.0"><path d="M 114.3275,128.9762 c 0.0000,-1.2132 -0.9835,-2.1967 -2.1967 -2.1967c -1.2132,-0.0000 -2.1967,0.9835 -2.1967 2.1967c -0.0000,1.2132 0.9835,2.1967 2.1967 2.1967c 1.2132,0.0000 2.1967,-0.9835 2.1967 -2.1967Z"/></g><g stroke-linejoin="miter" stroke-opacity="1.0" fill-opacity="0.0" stroke="rgb(0,0,0)" stroke-width="1.6" fill="rgb(0,0,0)" stroke-linecap="butt" stroke-miterlimit="10.0"><path d="M 116.9727,135.2866 c 0.0000,-2.2927 -1.8586,-4.1514 -4.1514 -4.1514c -2.2927,-0.0000 -4.1514,1.8586 -4.1514 4.1514c -0.0000,2.2927 1.8586,4.1514 4.1514 4.1514c 2.2927,0.0000 4.1514,-1.8586 4.1514 -4.1514Z"/></g><g stroke-linejoin="miter" stroke-opacity="1.0" fill-opacity="0.0" stroke="rgb(0,0,0)" stroke-width="1.6" fill="rgb(0,0,0)" stroke-linecap="butt" stroke-miterlimit="10.0"><path d="M 136.6122,161.8119 c 0.0000,-1.5221 -1.2339,-2.7560 -2.7560 -2.7560c -1.5221,-0.0000 -2.7560,1.2339 -2.7560 2.7560c -0.0000,1.5221 1.2339,2.7560 2.7560 2.7560c 1.5221,0.0000 2.7560,-1.2339 2.7560 -2.7560Z"/></g><g stroke-linejoin="miter" stroke-opacity="1.0" fill-opacity="0.0" stroke="rgb(0,0,0)" stroke-width="1.6" fill="rgb(0,0,0)" stroke-linecap="butt" stroke-miterlimit="10.0"><path d="M 132.1191,158.0096 c 0.0000,-2.6778 -2.1708,-4.8486 -4.8486 -4.8486c -2.6778,-0.0000 -4.8486,2.1708 -4.8486 4.8486c -0.0000,2.6778 2.1708,4.8486 4.8486 4.8486c 2.6778,0.0000 4.8486,-2.1708 4.8486 -4.8486Z"/></g><g stroke-linejoin="miter" stroke-opacity="1.0" fill-opacity="0.0" stroke="rgb(0,0,0)" stroke-width="1.6" fill="rgb(0,0,0)" stroke-linecap="butt" stroke-miterlimit="10.0"><path d="M 124.5161,150.1936 c 0.0000,-5.9555 -4.8279,-10.7834 -10.7834 -10.7834c -5.9555,-0.0000 -10.7834,4.8279 -10.7834 10.7834c -0.0000,5.9555 4.8279,10.7834 10.7834 10.7834c 5.9555,0.0000 10.7834,-4.8279 10.7834 -10.7834Z"/></g><g stroke-linejoin="miter" stroke-opacity="1.0" fill-opacity="0.0" stroke="rgb(0,0,0)" stroke-width="1.6" fill="rgb(0,0,0)" stroke-linecap="butt" stroke-miterlimit="10.0"><path d="M 110.3963,122.4009 c 0.0000,-24.7434 -20.0585,-44.8018 -44.8018 -44.8018c -24.7434,-0.0000 -44.8018,20.0585 -44.8018 44.8018c -0.0000,24.7434 20.0585,44.8018 44.8018 44.8018c 24.7434,0.0000 44.8018,-20.0585 44.8018 -44.8018Z"/></g><g stroke-linejoin="miter" stroke-opacity="1.0" fill-opacity="0.0" stroke="rgb(0,0,0)" stroke-width="1.6" fill="rgb(0,0,0)" stroke-linecap="butt" stroke-miterlimit="10.0"><path d="M 375.7407,150.0485 c 0.0000,-1.4932 -1.2105,-2.7037 -2.7037 -2.7037c -1.4932,-0.0000 -2.7037,1.2105 -2.7037 2.7037c -0.0000,1.4932 1.2105,2.7037 2.7037 2.7037c 1.4932,0.0000 2.7037,-1.2105 2.7037 -2.7037Z"/></g><g stroke-linejoin="miter" stroke-opacity="1.0" fill-opacity="0.0" stroke="rgb(0,0,0)" stroke-width="1.6" fill="rgb(0,0,0)" stroke-linecap="butt" stroke-miterlimit="10.0"><path d="M 394.5109,153.8764 c 0.0000,-1.9183 -1.5551,-3.4734 -3.4734 -3.4734c -1.9183,-0.0000 -3.4734,1.5551 -3.4734 3.4734c -0.0000,1.9183 1.5551,3.4734 3.4734 3.4734c 1.9183,0.0000 3.4734,-1.5551 3.4734 -3.4734Z"/></g><g stroke-linejoin="miter" stroke-opacity="1.0" fill-opacity="0.0" stroke="rgb(0,0,0)" stroke-width="1.6" fill="rgb(0,0,0)" stroke-linecap="butt" stroke-miterlimit="10.0"><path d="M 382.8847,119.4479 c 0.0000,-1.0413 -0.8441,-1.8854 -1.8854 -1.8854c -1.0413,-0.0000 -1.8854,0.8441 -1.8854 1.8854c -0.0000,1.0413 0.8441,1.8854 1.8854 1.8854c 1.0413,0.0000 1.8854,-0.8441 1.8854 -1.8854Z"/></g><g stroke-linejoin="miter" stroke-opacity="1.0" fill-opacity="0.0" stroke="rgb(0,0,0)" stroke-width="1.6" fill="rgb(0,0,0)" stroke-linecap="butt" stroke-miterlimit="10.0"><path d="M 384.7789,124.0294 c 0.0000,-1.5462 -1.2535,-2.7997 -2.7997 -2.7997c -1.5462,-0.0000 -2.7997,1.2535 -2.7997 2.7997c -0.0000,1.5462 1.2535,2.7997 2.7997 2.7997c 1.5462,0.0000 2.7997,-1.2535 2.7997 -2.7997Z"/></g><g stroke-linejoin="miter" stroke-opacity="1.0" fill-opacity="0.0" stroke="rgb(0,0,0)" stroke-width="1.6" fill="rgb(0,0,0)" stroke-linecap="butt" stroke-miterlimit="10.0"><path d="M 387.5404,131.3369 c 0.0000,-2.5262 -2.0479,-4.5742 -4.5742 -4.5742c -2.5262,-0.0000 -4.5742,2.0479 -4.5742 4.5742c -0.0000,2.5262 2.0479,4.5742 4.5742 4.5742c 2.5262,0.0000 4.5742,-2.0479 4.5742 -4.5742Z"/></g><g stroke-linejoin="miter" stroke-opacity="1.0" fill-opacity="0.0" stroke="rgb(0,0,0)" stroke-width="1.6" fill="rgb(0,0,0)" stroke-linecap="butt" stroke-miterlimit="10.0"><path d="M 391.8105,144.6291 c 0.0000,-4.8152 -3.9035,-8.7187 -8.7187 -8.7187c -4.8152,-0.0000 -8.7187,3.9035 -8.7187 8.7187c -0.0000,4.8152 3.9035,8.7187 8.7187 8.7187c 4.8152,0.0000 8.7187,-3.9035 8.7187 -8.7187Z"/></g><g stroke-linejoin="miter" stroke-opacity="1.0" fill-opacity="0.0" stroke="rgb(0,0,0)" stroke-width="1.6" fill="rgb(0,0,0)" stroke-linecap="butt" stroke-miterlimit="10.0"><path d="M 355.9956,165.2610 c 0.0000,-1.2308 -0.9977,-2.2285 -2.2285 -2.2285c -1.2308,-0.0000 -2.2285,0.9977 -2.2285 2.2285c -0.0000,1.2308 0.9977,2.2285 2.2285 2.2285c 1.2308,0.0000 2.2285,-0.9977 2.2285 -2.2285Z"/></g><g stroke-linejoin="miter" stroke-opacity="1.0" fill-opacity="0.0" stroke="rgb(0,0,0)" stroke-width="1.6" fill="rgb(0,0,0)" stroke-linecap="butt" stroke-miterlimit="10.0"><path d="M 354.5559,179.0860 c 0.0000,-1.3337 -1.0812,-2.4149 -2.4149 -2.4149c -1.3337,-0.0000 -2.4149,1.0812 -2.4149 2.4149c -0.0000,1.3337 1.0812,2.4149 2.4149 2.4149c 1.3337,0.0000 2.4149,-1.0812 2.4149 -2.4149Z"/></g><g stroke-linejoin="miter" stroke-opacity="1.0" fill-opacity="0.0" stroke="rgb(0,0,0)" stroke-width="1.6" fill="rgb(0,0,0)" stroke-linecap="butt" stroke-miterlimit="10.0"><path d="M 342.1082,169.8606 c 0.0000,-1.6017 -1.2984,-2.9002 -2.9002 -2.9002c -1.6017,-0.0000 -2.9002,1.2984 -2.9002 2.9002c -0.0000,1.6017 1.2984,2.9002 2.9002 2.9002c 1.6017,0.0000 2.9002,-1.2984 2.9002 -2.9002Z"/></g><g stroke-linejoin="miter" stroke-opacity="1.0" fill-opacity="0.0" stroke="rgb(0,0,0)" stroke-width="1.6" fill="rgb(0,0,0)" stroke-linecap="butt" stroke-miterlimit="10.0"><path d="M 354.3047,171.4919 c 0.0000,-3.4088 -2.7634,-6.1722 -6.1722 -6.1722c -3.4088,-0.0000 -6.1722,2.7634 -6.1722 6.1722c -0.0000,3.4088 2.7634,6.1722 6.1722 6.1722c 3.4088,0.0000 6.1722,-2.7634 6.1722 -6.1722Z"/></g><g stroke-linejoin="miter" stroke-opacity="1.0" fill-opacity="0.0" stroke="rgb(0,0,0)" stroke-width="1.6" fill="rgb(0,0,0)" stroke-linecap="butt" stroke-miterlimit="10.0"><path d="M 399.5200,186.2269 c 0.0000,-1.1977 -0.9710,-2.1687 -2.1687 -2.1687c -1.1977,-0.0000 -2.1687,0.9710 -2.1687 2.1687c -0.0000,1.1977 0.9710,2.1687 2.1687 2.1687c 1.1977,0.0000 2.1687,-0.9710 2.1687 -2.1687Z"/></g><g stroke-linejoin="miter" stroke-opacity="1.0" fill-opacity="0.0" stroke="rgb(0,0,0)" stroke-width="1.6" fill="rgb(0,0,0)" stroke-linecap="butt" stroke-miterlimit="10.0"><path d="M 399.8552,192.4748 c 0.0000,-2.3995 -1.9452,-4.3447 -4.3447 -4.3447c -2.3995,-0.0000 -4.3447,1.9452 -4.3447 4.3447c -0.0000,2.3995 1.9452,4.3447 4.3447 4.3447c 2.3995,0.0000 4.3447,-1.9452 4.3447 -4.3447Z"/></g><g stroke-linejoin="miter" stroke-opacity="1.0" fill-opacity="0.0" stroke="rgb(0,0,0)" stroke-width="1.6" fill="rgb(0,0,0)" stroke-linecap="butt" stroke-miterlimit="10.0"><path d="M 376.5848,200.0000 c 0.0000,-1.9903 -1.6135,-3.6038 -3.6038 -3.6038c -1.9903,-0.0000 -3.6038,1.6135 -3.6038 3.6038c -0.0000,1.9903 1.6135,3.6038 3.6038 3.6038c 1.9903,0.0000 3.6038,-1.6135 3.6038 -3.6038Z"/></g><g stroke-linejoin="miter" stroke-opacity="1.0" fill-opacity="0.0" stroke="rgb(0,0,0)" stroke-width="1.6" fill="rgb(0,0,0)" stroke-linecap="butt" stroke-miterlimit="10.0"><path d="M 399.0686,219.1554 c 0.0000,-1.4095 -1.1426,-2.5522 -2.5522 -2.5522c -1.4095,-0.0000 -2.5522,1.1426 -2.5522 2.5522c -0.0000,1.4095 1.1426,2.5522 2.5522 2.5522c 1.4095,0.0000 2.5522,-1.1426 2.5522 -2.5522Z"/></g><g stroke-linejoin="miter" stroke-opacity="1.0" fill-opacity="0.0" stroke="rgb(0,0,0)" stroke-width="1.6" fill="rgb(0,0,0)" stroke-linecap="butt" stroke-miterlimit="10.0"><path d="M 384.4492,221.0354 c 0.0000,-1.2576 -1.0195,-2.2772 -2.2772 -2.2772c -1.2576,-0.0000 -2.2772,1.0195 -2.2772 2.2772c -0.0000,1.2576 1.0195,2.2772 2.2772 2.2772c 1.2576,0.0000 2.2772,-1.0195 2.2772 -2.2772Z"/></g><g stroke-linejoin="miter" stroke-opacity="1.0" fill-opacity="0.0" stroke="rgb(0,0,0)" stroke-width="1.6" fill="rgb(0,0,0)" stroke-linecap="butt" stroke-miterlimit="10.0"><path d="M 388.5410,266.4010 c 0.0000,-1.0413 -0.8441,-1.8854 -1.8854 -1.8854c -1.0413,-0.0000 -1.8854,0.8441 -1.8854 1.8854c -0.0000,1.0413 0.8441,1.8854 1.8854 1.8854c 1.0413,0.0000 1.8854,-0.8441 1.8854 -1.8854Z"/></g><g stroke-linejoin="miter" stroke-opacity="1.0" fill-opacity="0.0" stroke="rgb(0,0,0)" stroke-width="1.6" fill="rgb(0,0,0)" stroke-linecap="butt" stroke-miterlimit="10.0"><path d="M 389.9332,262.2749 c 0.0000,-1.2950 -1.0498,-2.3449 -2.3449 -2.3449c -1.2950,-0.0000 -2.3449,1.0498 -2.3449 2.3449c -0.0000,1.2950 1.0498,2.3449 2.3449 2.3449c 1.2950,0.0000 2.3449,-1.0498 2.3449 -2.3449Z"/></g><g stroke-linejoin="miter" stroke-opacity="1.0" fill-opacity="0.0" stroke="rgb(0,0,0)" stroke-width="1.6" fill="rgb(0,0,0)" stroke-linecap="butt" stroke-miterlimit="10.0"><path d="M 391.5653,257.0283 c 0.0000,-1.6531 -1.3401,-2.9932 -2.9932 -2.9932c -1.6531,-0.0000 -2.9932,1.3401 -2.9932 2.9932c -0.0000,1.6531 1.3401,2.9932 2.9932 2.9932c 1.6531,0.0000 2.9932,-1.3401 2.9932 -2.9932Z"/></g><g stroke-linejoin="miter" stroke-opacity="1.0" fill-opacity="0.0" stroke="rgb(0,0,0)" stroke-width="1.6" fill="rgb(0,0,0)" stroke-linecap="butt" stroke-miterlimit="10.0"><path d="M 393.4766,250.1527 c 0.0000,-2.1807 -1.7678,-3.9485 -3.9485 -3.9485c -2.1807,-0.0000 -3.9485,1.7678 -3.9485 3.9485c -0.0000,2.1807 1.7678,3.9485 3.9485 3.9485c 2.1807,0.0000 3.9485,-1.7678 3.9485 -3.9485Z"/></g><g stroke-linejoin="miter" stroke-opacity="1.0" fill-opacity="0.0" stroke="rgb(0,0,0)" stroke-width="1.6" fill="rgb(0,0,0)" stroke-linecap="butt" stroke-miterlimit="10.0"><path d="M 395.6749,240.7958 c 0.0000,-3.0019 -2.4335,-5.4354 -5.4354 -5.4354c -3.0019,-0.0000 -5.4354,2.4335 -5.4354 5.4354c -0.0000,3.0019 2.4335,5.4354 5.4354 5.4354c 3.0019,0.0000 5.4354,-2.4335 5.4354 -5.4354Z"/></g><g stroke-linejoin="miter" stroke-opacity="1.0" fill-opacity="0.0" stroke="rgb(0,0,0)" stroke-width="1.6" fill="rgb(0,0,0)" stroke-linecap="butt" stroke-miterlimit="10.0"><path d="M 398.0299,227.4398 c 0.0000,-4.3748 -3.5464,-7.9212 -7.9212 -7.9212c -4.3748,-0.0000 -7.9212,3.5464 -7.9212 7.9212c -0.0000,4.3748 3.5464,7.9212 7.9212 7.9212c 4.3748,0.0000 7.9212,-3.5464 7.9212 -7.9212Z"/></g><g stroke-linejoin="miter" stroke-opacity="1.0" fill-opacity="0.0" stroke="rgb(0,0,0)" stroke-width="1.6" fill="rgb(0,0,0)" stroke-linecap="butt" stroke-miterlimit="10.0"><path d="M 399.8613,207.2119 c 0.0000,-6.8988 -5.5926,-12.4913 -12.4913 -12.4913c -6.8988,-0.0000 -12.4913,5.5926 -12.4913 12.4913c -0.0000,6.8988 5.5926,12.4913 12.4913 12.4913c 6.8988,0.0000 12.4913,-5.5926 12.4913 -12.4913Z"/></g><g stroke-linejoin="miter" stroke-opacity="1.0" fill-opacity="0.0" stroke="rgb(0,0,0)" stroke-width="1.6" fill="rgb(0,0,0)" stroke-linecap="butt" stroke-miterlimit="10.0"><path d="M 398.1745,174.5742 c 0.0000,-12.1610 -9.8584,-22.0194 -22.0194 -22.0194c -12.1610,-0.0000 -22.0194,9.8584 -22.0194 22.0194c -0.0000,12.1610 9.8584,22.0194 22.0194 22.0194c 12.1610,0.0000 22.0194,-9.8584 22.0194 -22.0194Z"/></g><g stroke-linejoin="miter" stroke-opacity="1.0" fill-opacity="0.0" stroke="rgb(0,0,0)" stroke-width="1.6" fill="rgb(0,0,0)" stroke-linecap="butt" stroke-miterlimit="10.0"><path d="M 332.4814,75.1213 c 0.0000,-1.4932 -1.2105,-2.7037 -2.7037 -2.7037c -1.4932,-0.0000 -2.7037,1.2105 -2.7037 2.7037c -0.0000,1.4932 1.2105,2.7037 2.7037 2.7037c 1.4932,0.0000 2.7037,-1.2105 2.7037 -2.7037Z"/></g><g stroke-linejoin="miter" stroke-opacity="1.0" fill-opacity="0.0" stroke="rgb(0,0,0)" stroke-width="1.6" fill="rgb(0,0,0)" stroke-linecap="butt" stroke-miterlimit="10.0"><path d="M 338.9363,57.6185 c 0.0000,-1.9183 -1.5551,-3.4734 -3.4734 -3.4734c -1.9183,-0.0000 -3.4734,1.5551 -3.4734 3.4734c -0.0000,1.9183 1.5551,3.4734 3.4734 3.4734c 1.9183,0.0000 3.4734,-1.5551 3.4734 -3.4734Z"/></g><g stroke-linejoin="miter" stroke-opacity="1.0" fill-opacity="0.0" stroke="rgb(0,0,0)" stroke-width="1.6" fill="rgb(0,0,0)" stroke-linecap="butt" stroke-miterlimit="10.0"><path d="M 362.1452,83.5260 c 0.0000,-1.0413 -0.8441,-1.8854 -1.8854 -1.8854c -1.0413,-0.0000 -1.8854,0.8441 -1.8854 1.8854c -0.0000,1.0413 0.8441,1.8854 1.8854 1.8854c 1.0413,0.0000 1.8854,-0.8441 1.8854 -1.8854Z"/></g><g stroke-linejoin="miter" stroke-opacity="1.0" fill-opacity="0.0" stroke="rgb(0,0,0)" stroke-width="1.6" fill="rgb(0,0,0)" stroke-linecap="butt" stroke-miterlimit="10.0"><path d="M 359.5818,80.3867 c 0.0000,-1.5462 -1.2535,-2.7997 -2.7997 -2.7997c -1.5462,-0.0000 -2.7997,1.2535 -2.7997 2.7997c -0.0000,1.5462 1.2535,2.7997 2.7997 2.7997c 1.5462,0.0000 2.7997,-1.2535 2.7997 -2.7997Z"/></g><g stroke-linejoin="miter" stroke-opacity="1.0" fill-opacity="0.0" stroke="rgb(0,0,0)" stroke-width="1.6" fill="rgb(0,0,0)" stroke-linecap="butt" stroke-miterlimit="10.0"><path d="M 355.5213,75.8782 c 0.0000,-2.5262 -2.0479,-4.5742 -4.5742 -4.5742c -2.5262,-0.0000 -4.5742,2.0479 -4.5742 4.5742c -0.0000,2.5262 2.0479,4.5742 4.5742 4.5742c 2.5262,0.0000 4.5742,-2.0479 4.5742 -4.5742Z"/></g><g stroke-linejoin="miter" stroke-opacity="1.0" fill-opacity="0.0" stroke="rgb(0,0,0)" stroke-width="1.6" fill="rgb(0,0,0)" stroke-linecap="butt" stroke-miterlimit="10.0"><path d="M 348.2172,69.1233 c 0.0000,-4.8152 -3.9035,-8.7187 -8.7187 -8.7187c -4.8152,-0.0000 -8.7187,3.9035 -8.7187 8.7187c -0.0000,4.8152 3.9035,8.7187 8.7187 8.7187c 4.8152,0.0000 8.7187,-3.9035 8.7187 -8.7187Z"/></g><g stroke-linejoin="miter" stroke-opacity="1.0" fill-opacity="0.0" stroke="rgb(0,0,0)" stroke-width="1.6" fill="rgb(0,0,0)" stroke-linecap="butt" stroke-miterlimit="10.0"><path d="M 309.1969,84.2033 c 0.0000,-1.2308 -0.9977,-2.2285 -2.2285 -2.2285c -1.2308,-0.0000 -2.2285,0.9977 -2.2285 2.2285c -0.0000,1.2308 0.9977,2.2285 2.2285 2.2285c 1.2308,0.0000 2.2285,-0.9977 2.2285 -2.2285Z"/></g><g stroke-linejoin="miter" stroke-opacity="1.0" fill-opacity="0.0" stroke="rgb(0,0,0)" stroke-width="1.6" fill="rgb(0,0,0)" stroke-linecap="butt" stroke-miterlimit="10.0"><path d="M 296.5974,78.6990 c 0.0000,-1.3337 -1.0812,-2.4149 -2.4149 -2.4149c -1.3337,-0.0000 -2.4149,1.0812 -2.4149 2.4149c -0.0000,1.3337 1.0812,2.4149 2.4149 2.4149c 1.3337,0.0000 2.4149,-1.0812 2.4149 -2.4149Z"/></g><g stroke-linejoin="miter" stroke-opacity="1.0" fill-opacity="0.0" stroke="rgb(0,0,0)" stroke-width="1.6" fill="rgb(0,0,0)" stroke-linecap="butt" stroke-miterlimit="10.0"><path d="M 298.6057,94.5120 c 0.0000,-1.6017 -1.2984,-2.9002 -2.9002 -2.9002c -1.6017,-0.0000 -2.9002,1.2984 -2.9002 2.9002c -0.0000,1.6017 1.2984,2.9002 2.9002 2.9002c 1.6017,0.0000 2.9002,-1.2984 2.9002 -2.9002Z"/></g><g stroke-linejoin="miter" stroke-opacity="1.0" fill-opacity="0.0" stroke="rgb(0,0,0)" stroke-width="1.6" fill="rgb(0,0,0)" stroke-linecap="butt" stroke-miterlimit="10.0"><path d="M 304.9272,85.9675 c 0.0000,-3.4088 -2.7634,-6.1722 -6.1722 -6.1722c -3.4088,-0.0000 -6.1722,2.7634 -6.1722 6.1722c -0.0000,3.4088 2.7634,6.1722 6.1722 6.1722c 3.4088,0.0000 6.1722,-2.7634 6.1722 -6.1722Z"/></g><g stroke-linejoin="miter" stroke-opacity="1.0" fill-opacity="0.0" stroke="rgb(0,0,0)" stroke-width="1.6" fill="rgb(0,0,0)" stroke-linecap="butt" stroke-miterlimit="10.0"><path d="M 312.7722,35.9753 c 0.0000,-1.1977 -0.9710,-2.1687 -2.1687 -2.1687c -1.1977,-0.0000 -2.1687,0.9710 -2.1687 2.1687c -0.0000,1.1977 0.9710,2.1687 2.1687 2.1687c 1.1977,0.0000 2.1687,-0.9710 2.1687 -2.1687Z"/></g><g stroke-linejoin="miter" stroke-opacity="1.0" fill-opacity="0.0" stroke="rgb(0,0,0)" stroke-width="1.6" fill="rgb(0,0,0)" stroke-linecap="butt" stroke-miterlimit="10.0"><path d="M 308.6170,34.4455 c 0.0000,-2.3995 -1.9452,-4.3447 -4.3447 -4.3447c -2.3995,-0.0000 -4.3447,1.9452 -4.3447 4.3447c -0.0000,2.3995 1.9452,4.3447 4.3447 4.3447c 2.3995,0.0000 4.3447,-1.9452 4.3447 -4.3447Z"/></g><g stroke-linejoin="miter" stroke-opacity="1.0" fill-opacity="0.0" stroke="rgb(0,0,0)" stroke-width="1.6" fill="rgb(0,0,0)" stroke-linecap="butt" stroke-miterlimit="10.0"><path d="M 290.0943,50.1941 c 0.0000,-1.9903 -1.6135,-3.6038 -3.6038 -3.6038c -1.9903,-0.0000 -3.6038,1.6135 -3.6038 3.6038c -0.0000,1.9903 1.6135,3.6038 3.6038 3.6038c 1.9903,0.0000 3.6038,-1.6135 3.6038 -3.6038Z"/></g><g stroke-linejoin="miter" stroke-opacity="1.0" fill-opacity="0.0" stroke="rgb(0,0,0)" stroke-width="1.6" fill="rgb(0,0,0)" stroke-linecap="butt" stroke-miterlimit="10.0"><path d="M 284.2213,20.2341 c 0.0000,-1.4095 -1.1426,-2.5522 -2.5522 -2.5522c -1.4095,-0.0000 -2.5522,1.1426 -2.5522 2.5522c -0.0000,1.4095 1.1426,2.5522 2.5522 2.5522c 1.4095,0.0000 2.5522,-1.1426 2.5522 -2.5522Z"/></g><g stroke-linejoin="miter" stroke-opacity="1.0" fill-opacity="0.0" stroke="rgb(0,0,0)" stroke-width="1.6" fill="rgb(0,0,0)" stroke-linecap="butt" stroke-miterlimit="10.0"><path d="M 275.1460,31.7166 c 0.0000,-1.2576 -1.0195,-2.2772 -2.2772 -2.2772c -1.2576,-0.0000 -2.2772,1.0195 -2.2772 2.2772c -0.0000,1.2576 1.0195,2.2772 2.2772 2.2772c 1.2576,0.0000 2.2772,-1.0195 2.2772 -2.2772Z"/></g><g stroke-linejoin="miter" stroke-opacity="1.0" fill-opacity="0.0" stroke="rgb(0,0,0)" stroke-width="1.6" fill="rgb(0,0,0)" stroke-linecap="butt" stroke-miterlimit="10.0"><path d="M 237.7082,5.1510 c 0.0000,-1.0413 -0.8441,-1.8854 -1.8854 -1.8854c -1.0413,-0.0000 -1.8854,0.8441 -1.8854 1.8854c -0.0000,1.0413 0.8441,1.8854 1.8854 1.8854c 1.0413,0.0000 1.8854,-0.8441 1.8854 -1.8854Z"/></g><g stroke-linejoin="miter" stroke-opacity="1.0" fill-opacity="0.0" stroke="rgb(0,0,0)" stroke-width="1.6" fill="rgb(0,0,0)" stroke-linecap="butt" stroke-miterlimit="10.0"><path d="M 242.2074,6.4063 c 0.0000,-1.2950 -1.0498,-2.3449 -2.3449 -2.3449c -1.2950,-0.0000 -2.3449,1.0498 -2.3449 2.3449c -0.0000,1.2950 1.0498,2.3449 2.3449 2.3449c 1.2950,0.0000 2.3449,-1.0498 2.3449 -2.3449Z"/></g><g stroke-linejoin="miter" stroke-opacity="1.0" fill-opacity="0.0" stroke="rgb(0,0,0)" stroke-width="1.6" fill="rgb(0,0,0)" stroke-linecap="butt" stroke-miterlimit="10.0"><path d="M 247.8913,8.1776 c 0.0000,-1.6531 -1.3401,-2.9932 -2.9932 -2.9932c -1.6531,-0.0000 -2.9932,1.3401 -2.9932 2.9932c -0.0000,1.6531 1.3401,2.9932 2.9932 2.9932c 1.6531,0.0000 2.9932,-1.3401 2.9932 -2.9932Z"/></g><g stroke-linejoin="miter" stroke-opacity="1.0" fill-opacity="0.0" stroke="rgb(0,0,0)" stroke-width="1.6" fill="rgb(0,0,0)" stroke-linecap="butt" stroke-miterlimit="10.0"><path d="M 255.2790,10.7875 c 0.0000,-2.1807 -1.7678,-3.9485 -3.9485 -3.9485c -2.1807,-0.0000 -3.9485,1.7678 -3.9485 3.9485c -0.0000,2.1807 1.7678,3.9485 3.9485 3.9485c 2.1807,0.0000 3.9485,-1.7678 3.9485 -3.9485Z"/></g><g stroke-linejoin="miter" stroke-opacity="1.0" fill-opacity="0.0" stroke="rgb(0,0,0)" stroke-width="1.6" fill="rgb(0,0,0)" stroke-linecap="butt" stroke-miterlimit="10.0"><path d="M 265.2250,14.8498 c 0.0000,-3.0019 -2.4335,-5.4354 -5.4354 -5.4354c -3.0019,-0.0000 -5.4354,2.4335 -5.4354 5.4354c -0.0000,3.0019 2.4335,5.4354 5.4354 5.4354c 3.0019,0.0000 5.4354,-2.4335 5.4354 -5.4354Z"/></g><g stroke-linejoin="miter" stroke-opacity="1.0" fill-opacity="0.0" stroke="rgb(0,0,0)" stroke-width="1.6" fill="rgb(0,0,0)" stroke-linecap="butt" stroke-miterlimit="10.0"><path d="M 279.2120,21.6411 c 0.0000,-4.3748 -3.5464,-7.9212 -7.9212 -7.9212c -4.3748,-0.0000 -7.9212,3.5464 -7.9212 7.9212c -0.0000,4.3748 3.5464,7.9212 7.9212 7.9212c 4.3748,0.0000 7.9212,-3.5464 7.9212 -7.9212Z"/></g><g stroke-linejoin="miter" stroke-opacity="1.0" fill-opacity="0.0" stroke="rgb(0,0,0)" stroke-width="1.6" fill="rgb(0,0,0)" stroke-linecap="butt" stroke-miterlimit="10.0"><path d="M 299.9306,34.1269 c 0.0000,-6.8988 -5.5926,-12.4913 -12.4913 -12.4913c -6.8988,-0.0000 -12.4913,5.5926 -12.4913 12.4913c -0.0000,6.8988 5.5926,12.4913 12.4913 12.4913c 6.8988,0.0000 12.4913,-5.5926 12.4913 -12.4913Z"/></g><g stroke-linejoin="miter" stroke-opacity="1.0" fill-opacity="0.0" stroke="rgb(0,0,0)" stroke-width="1.6" fill="rgb(0,0,0)" stroke-linecap="butt" stroke-miterlimit="10.0"><path d="M 332.1163,60.1581 c 0.0000,-12.1610 -9.8584,-22.0194 -22.0194 -22.0194c -12.1610,-0.0000 -22.0194,9.8584 -22.0194 22.0194c -0.0000,12.1610 9.8584,22.0194 22.0194 22.0194c 12.1610,0.0000 22.0194,-9.8584 22.0194 -22.0194Z"/></g><g stroke-linejoin="miter" stroke-opacity="1.0" fill-opacity="0.0" stroke="rgb(0,0,0)" stroke-width="1.6" fill="rgb(0,0,0)" stroke-linecap="butt" stroke-miterlimit="10.0"><path d="M 307.6398,159.4150 c 0.0000,-1.2132 -0.9835,-2.1967 -2.1967 -2.1967c -1.2132,-0.0000 -2.1967,0.9835 -2.1967 2.1967c -0.0000,1.2132 0.9835,2.1967 2.1967 2.1967c 1.2132,0.0000 2.1967,-0.9835 2.1967 -2.1967Z"/></g><g stroke-linejoin="miter" stroke-opacity="1.0" fill-opacity="0.0" stroke="rgb(0,0,0)" stroke-width="1.6" fill="rgb(0,0,0)" stroke-linecap="butt" stroke-miterlimit="10.0"><path d="M 303.7841,156.8577 c 0.0000,-2.2927 -1.8586,-4.1514 -4.1514 -4.1514c -2.2927,-0.0000 -4.1514,1.8586 -4.1514 4.1514c -0.0000,2.2927 1.8586,4.1514 4.1514 4.1514c 2.2927,0.0000 4.1514,-1.8586 4.1514 -4.1514Z"/></g><g stroke-linejoin="miter" stroke-opacity="1.0" fill-opacity="0.0" stroke="rgb(0,0,0)" stroke-width="1.6" fill="rgb(0,0,0)" stroke-linecap="butt" stroke-miterlimit="10.0"><path d="M 290.0659,128.9762 c 0.0000,-1.2132 -0.9835,-2.1967 -2.1967 -2.1967c -1.2132,-0.0000 -2.1967,0.9835 -2.1967 2.1967c -0.0000,1.2132 0.9835,2.1967 2.1967 2.1967c 1.2132,0.0000 2.1967,-0.9835 2.1967 -2.1967Z"/></g><g stroke-linejoin="miter" stroke-opacity="1.0" fill-opacity="0.0" stroke="rgb(0,0,0)" stroke-width="1.6" fill="rgb(0,0,0)" stroke-linecap="butt" stroke-miterlimit="10.0"><path d="M 291.3300,135.2866 c 0.0000,-2.2927 -1.8586,-4.1514 -4.1514 -4.1514c -2.2927,-0.0000 -4.1514,1.8586 -4.1514 4.1514c -0.0000,2.2927 1.8586,4.1514 4.1514 4.1514c 2.2927,0.0000 4.1514,-1.8586 4.1514 -4.1514Z"/></g><g stroke-linejoin="miter" stroke-opacity="1.0" fill-opacity="0.0" stroke="rgb(0,0,0)" stroke-width="1.6" fill="rgb(0,0,0)" stroke-linecap="butt" stroke-miterlimit="10.0"><path d="M 268.8997,161.8119 c 0.0000,-1.5221 -1.2339,-2.7560 -2.7560 -2.7560c -1.5221,-0.0000 -2.7560,1.2339 -2.7560 2.7560c -0.0000,1.5221 1.2339,2.7560 2.7560 2.7560c 1.5221,0.0000 2.7560,-1.2339 2.7560 -2.7560Z"/></g><g stroke-linejoin="miter" stroke-opacity="1.0" fill-opacity="0.0" stroke="rgb(0,0,0)" stroke-width="1.6" fill="rgb(0,0,0)" stroke-linecap="butt" stroke-miterlimit="10.0"><path d="M 277.5782,158.0096 c 0.0000,-2.6778 -2.1708,-4.8486 -4.8486 -4.8486c -2.6778,-0.0000 -4.8486,2.1708 -4.8486 4.8486c -0.0000,2.6778 2.1708,4.8486 4.8486 4.8486c 2.6778,0.0000 4.8486,-2.1708 4.8486 -4.8486Z"/></g><g stroke-linejoin="miter" stroke-opacity="1.0" fill-opacity="0.0" stroke="rgb(0,0,0)" stroke-width="1.6" fill="rgb(0,0,0)" stroke-linecap="butt" stroke-miterlimit="10.0"><path d="M 297.0507,150.1936 c 0.0000,-5.9555 -4.8279,-10.7834 -10.7834 -10.7834c -5.9555,-0.0000 -10.7834,4.8279 -10.7834 10.7834c -0.0000,5.9555 4.8279,10.7834 10.7834 10.7834c 5.9555,0.0000 10.7834,-4.8279 10.7834 -10.7834Z"/></g><g stroke-linejoin="miter" stroke-opacity="1.0" fill-opacity="0.0" stroke="rgb(0,0,0)" stroke-width="1.6" fill="rgb(0,0,0)" stroke-linecap="butt" stroke-miterlimit="10.0"><path d="M 379.2074,122.4009 c 0.0000,-24.7434 -20.0585,-44.8018 -44.8018 -44.8018c -24.7434,-0.0000 -44.8018,20.0585 -44.8018 44.8018c -0.0000,24.7434 20.0585,44.8018 44.8018 44.8018c 24.7434,0.0000 44.8018,-20.0585 44.8018 -44.8018Z"/></g><g stroke-linejoin="miter" stroke-opacity="1.0" fill-opacity="0.0" stroke="rgb(0,0,0)" stroke-width="1.6" fill="rgb(0,0,0)" stroke-linecap="butt" stroke-miterlimit="10.0"><path d="M 400.0000,200.0000 c 0.0000,-110.4569 -89.5431,-200.0000 -200.0000 -200.0000c -110.4569,-0.0000 -200.0000,89.5431 -200.0000 200.0000c -0.0000,110.4569 89.5431,200.0000 200.0000 200.0000c 110.4569,0.0000 200.0000,-89.5431 200.0000 -200.0000Z"/></g><g stroke-linejoin="miter" stroke-opacity="1.0" fill-opacity="0.0" stroke="rgb(0,0,0)" stroke-width="1.6" fill="rgb(0,0,0)" stroke-linecap="butt" stroke-miterlimit="10.0"><path d="M 201.9810,234.3111 c 0.0000,-1.0940 -0.8869,-1.9810 -1.9810 -1.9810c -1.0940,-0.0000 -1.9810,0.8869 -1.9810 1.9810c -0.0000,1.0940 0.8869,1.9810 1.9810 1.9810c 1.0940,0.0000 1.9810,-0.8869 1.9810 -1.9810Z"/></g><g stroke-linejoin="miter" stroke-opacity="1.0" fill-opacity="0.0" stroke="rgb(0,0,0)" stroke-width="1.6" fill="rgb(0,0,0)" stroke-linecap="butt" stroke-miterlimit="10.0"><path d="M 203.1580,229.1722 c 0.0000,-1.7441 -1.4139,-3.1580 -3.1580 -3.1580c -1.7441,-0.0000 -3.1580,1.4139 -3.1580 3.1580c -0.0000,1.7441 1.4139,3.1580 3.1580 3.1580c 1.7441,0.0000 3.1580,-1.4139 3.1580 -3.1580Z"/></g><g stroke-linejoin="miter" stroke-opacity="1.0" fill-opacity="0.0" stroke="rgb(0,0,0)" stroke-width="1.6" fill="rgb(0,0,0)" stroke-linecap="butt" stroke-miterlimit="10.0"><path d="M 195.9453,215.2162 c 0.0000,-1.1197 -0.9077,-2.0273 -2.0273 -2.0273c -1.1197,-0.0000 -2.0273,0.9077 -2.0273 2.0273c -0.0000,1.1197 0.9077,2.0273 2.0273 2.0273c 1.1197,0.0000 2.0273,-0.9077 2.0273 -2.0273Z"/></g><g stroke-linejoin="miter" stroke-opacity="1.0" fill-opacity="0.0" stroke="rgb(0,0,0)" stroke-width="1.6" fill="rgb(0,0,0)" stroke-linecap="butt" stroke-miterlimit="10.0"><path d="M 208.1093,215.2162 c 0.0000,-1.1197 -0.9077,-2.0273 -2.0273 -2.0273c -1.1197,-0.0000 -2.0273,0.9077 -2.0273 2.0273c -0.0000,1.1197 0.9077,2.0273 2.0273 2.0273c 1.1197,0.0000 2.0273,-0.9077 2.0273 -2.0273Z"/></g><g stroke-linejoin="miter" stroke-opacity="1.0" fill-opacity="0.0" stroke="rgb(0,0,0)" stroke-width="1.6" fill="rgb(0,0,0)" stroke-linecap="butt" stroke-miterlimit="10.0"><path d="M 205.8274,220.1868 c 0.0000,-3.2184 -2.6090,-5.8274 -5.8274 -5.8274c -3.2184,-0.0000 -5.8274,2.6090 -5.8274 5.8274c -0.0000,3.2184 2.6090,5.8274 5.8274 5.8274c 3.2184,0.0000 5.8274,-2.6090 5.8274 -5.8274Z"/></g><g stroke-linejoin="miter" stroke-opacity="1.0" fill-opacity="0.0" stroke="rgb(0,0,0)" stroke-width="1.6" fill="rgb(0,0,0)" stroke-linecap="butt" stroke-miterlimit="10.0"><path d="M 172.2667,182.8444 c 0.0000,-1.0940 -0.8869,-1.9810 -1.9810 -1.9810c -1.0940,-0.0000 -1.9810,0.8869 -1.9810 1.9810c -0.0000,1.0940 0.8869,1.9810 1.9810 1.9810c 1.0940,0.0000 1.9810,-0.8869 1.9810 -1.9810Z"/></g><g stroke-linejoin="miter" stroke-opacity="1.0" fill-opacity="0.0" stroke="rgb(0,0,0)" stroke-width="1.6" fill="rgb(0,0,0)" stroke-linecap="butt" stroke-miterlimit="10.0"><path d="M 177.8941,185.4139 c 0.0000,-1.7441 -1.4139,-3.1580 -3.1580 -3.1580c -1.7441,-0.0000 -3.1580,1.4139 -3.1580 3.1580c -0.0000,1.7441 1.4139,3.1580 3.1580 3.1580c 1.7441,0.0000 3.1580,-1.4139 3.1580 -3.1580Z"/></g><g stroke-linejoin="miter" stroke-opacity="1.0" fill-opacity="0.0" stroke="rgb(0,0,0)" stroke-width="1.6" fill="rgb(0,0,0)" stroke-linecap="butt" stroke-miterlimit="10.0"><path d="M 185.8087,197.6590 c 0.0000,-1.1197 -0.9077,-2.0273 -2.0273 -2.0273c -1.1197,-0.0000 -2.0273,0.9077 -2.0273 2.0273c -0.0000,1.1197 0.9077,2.0273 2.0273 2.0273c 1.1197,0.0000 2.0273,-0.9077 2.0273 -2.0273Z"/></g><g stroke-linejoin="miter" stroke-opacity="1.0" fill-opacity="0.0" stroke="rgb(0,0,0)" stroke-width="1.6" fill="rgb(0,0,0)" stroke-linecap="butt" stroke-miterlimit="10.0"><path d="M 191.8907,187.1248 c 0.0000,-1.1197 -0.9077,-2.0273 -2.0273 -2.0273c -1.1197,-0.0000 -2.0273,0.9077 -2.0273 2.0273c -0.0000,1.1197 0.9077,2.0273 2.0273 2.0273c 1.1197,0.0000 2.0273,-0.9077 2.0273 -2.0273Z"/></g><g stroke-linejoin="miter" stroke-opacity="1.0" fill-opacity="0.0" stroke="rgb(0,0,0)" stroke-width="1.6" fill="rgb(0,0,0)" stroke-linecap="butt" stroke-miterlimit="10.0"><path d="M 188.3452,189.9066 c 0.0000,-3.2184 -2.6090,-5.8274 -5.8274 -5.8274c -3.2184,-0.0000 -5.8274,2.6090 -5.8274 5.8274c -0.0000,3.2184 2.6090,5.8274 5.8274 5.8274c 3.2184,0.0000 5.8274,-2.6090 5.8274 -5.8274Z"/></g><g stroke-linejoin="miter" stroke-opacity="1.0" fill-opacity="0.0" stroke="rgb(0,0,0)" stroke-width="1.6" fill="rgb(0,0,0)" stroke-linecap="butt" stroke-miterlimit="10.0"><path d="M 231.6952,182.8444 c 0.0000,-1.0940 -0.8869,-1.9810 -1.9810 -1.9810c -1.0940,-0.0000 -1.9810,0.8869 -1.9810 1.9810c -0.0000,1.0940 0.8869,1.9810 1.9810 1.9810c 1.0940,0.0000 1.9810,-0.8869 1.9810 -1.9810Z"/></g><g stroke-linejoin="miter" stroke-opacity="1.0" fill-opacity="0.0" stroke="rgb(0,0,0)" stroke-width="1.6" fill="rgb(0,0,0)" stroke-linecap="butt" stroke-miterlimit="10.0"><path d="M 228.4218,185.4139 c 0.0000,-1.7441 -1.4139,-3.1580 -3.1580 -3.1580c -1.7441,-0.0000 -3.1580,1.4139 -3.1580 3.1580c -0.0000,1.7441 1.4139,3.1580 3.1580 3.1580c 1.7441,0.0000 3.1580,-1.4139 3.1580 -3.1580Z"/></g><g stroke-linejoin="miter" stroke-opacity="1.0" fill-opacity="0.0" stroke="rgb(0,0,0)" stroke-width="1.6" fill="rgb(0,0,0)" stroke-linecap="butt" stroke-miterlimit="10.0"><path d="M 218.2459,197.6590 c 0.0000,-1.1197 -0.9077,-2.0273 -2.0273 -2.0273c -1.1197,-0.0000 -2.0273,0.9077 -2.0273 2.0273c -0.0000,1.1197 0.9077,2.0273 2.0273 2.0273c 1.1197,0.0000 2.0273,-0.9077 2.0273 -2.0273Z"/></g><g stroke-linejoin="miter" stroke-opacity="1.0" fill-opacity="0.0" stroke="rgb(0,0,0)" stroke-width="1.6" fill="rgb(0,0,0)" stroke-linecap="butt" stroke-miterlimit="10.0"><path d="M 212.1640,187.1248 c 0.0000,-1.1197 -0.9077,-2.0273 -2.0273 -2.0273c -1.1197,-0.0000 -2.0273,0.9077 -2.0273 2.0273c -0.0000,1.1197 0.9077,2.0273 2.0273 2.0273c 1.1197,0.0000 2.0273,-0.9077 2.0273 -2.0273Z"/></g><g stroke-linejoin="miter" stroke-opacity="1.0" fill-opacity="0.0" stroke="rgb(0,0,0)" stroke-width="1.6" fill="rgb(0,0,0)" stroke-linecap="butt" stroke-miterlimit="10.0"><path d="M 223.3097,189.9066 c 0.0000,-3.2184 -2.6090,-5.8274 -5.8274 -5.8274c -3.2184,-0.0000 -5.8274,2.6090 -5.8274 5.8274c -0.0000,3.2184 2.6090,5.8274 5.8274 5.8274c 3.2184,0.0000 5.8274,-2.6090 5.8274 -5.8274Z"/></g><g stroke-linejoin="miter" stroke-opacity="1.0" fill-opacity="0.0" stroke="rgb(0,0,0)" stroke-width="1.6" fill="rgb(0,0,0)" stroke-linecap="butt" stroke-miterlimit="10.0"><path d="M 214.3594,200.0000 c 0.0000,-7.9305 -6.4289,-14.3594 -14.3594 -14.3594c -7.9305,-0.0000 -14.3594,6.4289 -14.3594 14.3594c -0.0000,7.9305 6.4289,14.3594 14.3594 14.3594c 7.9305,0.0000 14.3594,-6.4289 14.3594 -14.3594Z"/></g><g stroke-linejoin="miter" stroke-opacity="1.0" fill-opacity="0.0" stroke="rgb(0,0,0)" stroke-width="1.6" fill="rgb(0,0,0)" stroke-linecap="butt" stroke-miterlimit="10.0"><path d="M 292.8203,92.8203 c 0.0000,-51.2632 -41.5571,-92.8203 -92.8203 -92.8203c -51.2632,-0.0000 -92.8203,41.5571 -92.8203 92.8203c -0.0000,51.2632 41.5571,92.8203 92.8203 92.8203c 51.2632,0.0000 92.8203,-41.5571 92.8203 -92.8203Z"/></g><g stroke-linejoin="miter" stroke-opacity="1.0" fill-opacity="0.0" stroke="rgb(0,0,0)" stroke-width="1.6" fill="rgb(0,0,0)" stroke-linecap="butt" stroke-miterlimit="10.0"><path d="M 385.6406,253.5898 c 0.0000,-51.2632 -41.5571,-92.8203 -92.8203 -92.8203c -51.2632,-0.0000 -92.8203,41.5571 -92.8203 92.8203c -0.0000,51.2632 41.5571,92.8203 92.8203 92.8203c 51.2632,0.0000 92.8203,-41.5571 92.8203 -92.8203Z"/></g><g stroke-linejoin="miter" stroke-opacity="1.0" fill-opacity="0.0" stroke="rgb(0,0,0)" stroke-width="1.6" fill="rgb(0,0,0)" stroke-linecap="butt" stroke-miterlimit="10.0"><path d="M 200.0000,253.5898 c 0.0000,-51.2632 -41.5571,-92.8203 -92.8203 -92.8203c -51.2632,-0.0000 -92.8203,41.5571 -92.8203 92.8203c -0.0000,51.2632 41.5571,92.8203 92.8203 92.8203c 51.2632,0.0000 92.8203,-41.5571 92.8203 -92.8203Z"/></g></svg>