<svg xmlns="http://www.w3.org/2000/svg" height="346.4102" stroke-opacity="1" viewBox="0 0 300 346" font-size="1" width="300.0000" xmlns:xlink="http://www.w3.org/1999/xlink" stroke="rgb(0,0,0)" version="1.1"><defs></defs><g stroke-linejoin="miter" stroke-opacity="1.0" fill-opacity="0.0" stroke="rgb(0,0,0)" stroke-width="1.28948391818825" fill="rgb(0,0,0)" stroke-linecap="butt" stroke-miterlimit="10.0"><path d="M 13.6364,94.4755 l 3.3670,0.0000 l 1.6835,-2.9159 l 1.6835,2.9159 l 3.3670,0.0000 l 1.6835,-2.9159 l -1.6835,-2.9159 l 3.3670,0.0000 l 1.6835,-2.9159 l 1.6835,2.9159 l 3.3670,0.0000 l -1.6835,2.9159 l 1.6835,2.9159 l 3.3670,0.0000 l 1.6835,-2.9159 l 1.6835,2.9159 l 3.3670,0.0000 l 1.6835,-2.9159 l -1.6835,-2.9159 l 3.3670,0.0000 l 1.6835,-2.9159 l -1.6835,-2.9159 l -3.3670,-0.0000 l 1.6835,-2.9159 l -1.6835,-2.9159 l 3.3670,0.0000 l 1.6835,-2.9159 l 1.6835,2.9159 l 3.3670,0.0000 l 1.6835,-2.9159 l -1.6835,-2.9159 l 3.3670,0.0000 l 1.6835,-2.9159 l 1.6835,2.9159 l 3.3670,-0.0000 l -1.6835,2.9159 l 1.6835,2.9159 l 3.3670,-0.0000 l 1.6835,-2.9159 l 1.6835,2.9159 l 3.3670,-0.0000 l -1.6835,2.9159 l 1.6835,2.9159 l -3.3670,0.0000 l -1.6835,2.9159 l 1.6835,2.9159 l 3.3670,-0.0000 l -1.6835,2.9159 l 1.6835,2.9159 l 3.3670,0.0000 l 1.6835,-2.9159 l 1.6835,2.9159 l 3.3670,0.0000 l 1.6835,-2.9159 l -1.6835,-2.9159 l 3.3670,0.0000 l 1.6835,-2.9159 l 1.6835,2.9159 l 3.3670,0.0000 l -1.6835,2.9159 l 1.6835,2.9159 l 3.3670,0.0000 l 1.6835,-2.9159 l 1.6835,2.9159 l 3.3670,0.0000 l 1.6835,-2.9159 l -1.6835,-2.9159 h 3.3670 l 1.6835,-2.9159 l -1.6835,-2.9159 l -3.3670,-0.0000 l 1.6835,-2.9159 l -1.6835,-2.9159 h 3.3670 l 1.6835,-2.9159 l 1.6835,2.9159 h 3.3670 l 1.6835,-2.9159 l -1.6835,-2.9159 h 3.3670 l 1.6835,-2.9159 l -1.6835,-2.9159 l -3.3670,-0.0000 l 1.6835,-2.9159 l -1.6835,-2.9159 l -3.3670,-0.0000 l -1.6835,2.9159 l -1.6835,-2.9159 l -3.3670,-0.0000 l 1.6835,-2.9159 l -1.6835,-2.9159 l 3.3670,0.0000 l 1.6835,-2.9159 l -1.6835,-2.9159 l -3.3670,-0.0000 l 1.6835,-2.9159 l -1.6835,-2.9159 l 3.3670,-0.0000 l 1.6835,-2.9159 l 1.6835,2.9159 l 3.3670,-0.0000 l 1.6835,-2.9159 l -1.6835,-2.9159 l 3.3670,-0.0000 l 1.6835,-2.9159 l 1.6835,2.9159 l 3.3670,-0.0000 l -1.6835,2.9159 l 1.6835,2.9159 l 3.3670,-0.0000 l 1.6835,-2.9159 l 1.6835,2.9159 l 3.3670,-0.0000 l 1.6835,-2.9159 l -1.6835,-2.9159 h 3.3670 l 1.6835,-2.9159 l -1.6835,-2.9159 l -3.3670,-0.0000 l 1.6835,-2.9159 l -1.6835,-2.9159 h 3.3670 l 1.6835,-2.9159 l 1.6835,2.9159 h 3.3670 l 1.6835,-2.9159 l -1.6835,-2.9159 h 3.3670 l 1.6835,-2.9159 l 1.6835,2.9159 h 3.3670 l -1.6835,2.9159 l 1.6835,2.9159 h 3.3670 l 1.6835,-2.9159 l 1.6835,2.9159 h 3.3670 l -1.6835,2.9159 l 1.6835,2.9159 l -3.3670,0.0000 l -1.6835,2.9159 l 1.6835,2.9159 h 3.3670 l -1.6835,2.9159 l 1.6835,2.9159 l 3.3670,0.0000 l 1.6835,-2.9159 l 1.6835,2.9159 l 3.3670,0.0000 l 1.6835,-2.9159 l -1.6835,-2.9159 l 3.3670,0.0000 l 1.6835,-2.9159 l 1.6835,2.9159 l 3.3670,0.0000 l -1.6835,2.9159 l 1.6835,2.9159 l 3.3670,0.0000 l 1.6835,-2.9159 l 1.6835,2.9159 l 3.3670,0.0000 l -1.6835,2.9159 l 1.6835,2.9159 l -3.3670,0.0000 l -1.6835,2.9159 l 1.6835,2.9159 l 3.3670,-0.0000 l -1.6835,2.9159 l 1.6835,2.9159 l -3.3670,0.0000 l -1.6835,2.9159 l -1.6835,-2.9159 l -3.3670,0.0000 l -1.6835,2.9159 l 1.6835,2.9159 l -3.3670,0.0000 l -1.6835,2.9159 l 1.6835,2.9159 h 3.3670 l -1.6835,2.9159 l 1.6835,2.9159 h 3.3670 l 1.6835,-2.9159 l 1.6835,2.9159 h 3.3670 l -1.6835,2.9159 l 1.6835,2.9159 l -3.3670,0.0000 l -1.6835,2.9159 l 1.6835,2.9159 h 3.3670 l -1.6835,2.9159 l 1.6835,2.9159 l 3.3670,0.0000 l 1.6835,-2.9159 l 1.6835,2.9159 l 3.3670,0.0000 l 1.6835,-2.9159 l -1.6835,-2.9159 l 3.3670,0.0000 l 1.6835,-2.9159 l 1.6835,2.9159 l 3.3670,0.0000 l -1.6835,2.9159 l 1.6835,2.9159 l 3.3670,0.0000 l 1.6835,-2.9159 l 1.6835,2.9159 l 3.3670,0.0000 l 1.6835,-2.9159 l -1.6835,-2.9159 l 3.3670,0.0000 l 1.6835,-2.9159 l -1.6835,-2.9159 l -3.3670,-0.0000 l 1.6835,-2.9159 l -1.6835,-2.9159 l 3.3670,0.0000 l 1.6835,-2.9159 l 1.6835,2.9159 l 3.3670,0.0000 l 1.6835,-2.9159 l -1.6835,-2.9159 l 3.3670,0.0000 l 1.6835,-2.9159 l 1.6835,2.9159 l 3.3670,-0.0000 l -1.6835,2.9159 l 1.6835,2.9159 l 3.3670,-0.0000 l 1.6835,-2.9159 l 1.6835,2.9159 l 3.3670,-0.0000 l -1.6835,2.9159 l 1.6835,2.9159 l -3.3670,0.0000 l -1.6835,2.9159 l 1.6835,2.9159 l 3.3670,-0.0000 l -1.6835,2.9159 l 1.6835,2.9159 l 3.3670,0.0000 l 1.6835,-2.9159 l 1.6835,2.9159 l 3.3670,0.0000 l 1.6835,-2.9159 l -1.6835,-2.9159 l 3.3670,0.0000 l 1.6835,-2.9159 l 1.6835,2.9159 l 3.3670,0.0000 l -1.6835,2.9159 l 1.6835,2.9159 l 3.3670,0.0000 l 1.6835,-2.9159 l 1.6835,2.9159 l 3.3670,0.0000 l -1.6835,2.9159 l 1.6835,2.9159 l -3.3670,0.0000 l -1.6835,2.9159 l 1.6835,2.9159 l 3.3670,-0.0000 l -1.6835,2.9159 l 1.6835,2.9159 l -3.3670,0.0000 l -1.6835,2.9159 l -1.6835,-2.9159 l -3.3670,0.0000 l -1.6835,2.9159 l 1.6835,2.9159 l -3.3670,0.0000 l -1.6835,2.9159 l 1.6835,2.9159 l 3.3670,0.0000 l -1.6835,2.9159 l 1.6835,2.9159 l 3.3670,0.0000 l 1.6835,-2.9159 l 1.6835,2.9159 l 3.3670,0.0000 l -1.6835,2.9159 l 1.6835,2.9159 l -3.3670,0.0000 l -1.6835,2.9159 l 1.6835,2.9159 l 3.3670,0.0000 l -1.6835,2.9159 l 1.6835,2.9159 l -3.3670,0.0000 l -1.6835,2.9159 l -1.6835,-2.9159 l -3.3670,0.0000 l -1.6835,2.9159 l 1.6835,2.9159 l -3.3670,0.0000 l -1.6835,2.9159 l -1.6835,-2.9159 l -3.3670,0.0000 l 1.6835,-2.9159 l -1.6835,-2.9159 l -3.3670,0.0000 l -1.6835,2.9159 l -1.6835,-2.9159 l -3.3670,0.0000 l -1.6835,2.9159 l 1.6835,2.9159 l -3.3670,0.0000 l -1.6835,2.9159 l 1.6835,2.9159 l 3.3670,-0.0000 l -1.6835,2.9159 l 1.6835,2.9159 l -3.3670,0.0000 l -1.6835,2.9159 l -1.6835,-2.9159 l -3.3670,0.0000 l -1.6835,2.9159 l 1.6835,2.9159 l -3.3670,0.0000 l -1.6835,2.9159 l 1.6835,2.9159 l 3.3670,0.0000 l -1.6835,2.9159 l 1.6835,2.9159 l 3.3670,0.0000 l 1.6835,-2.9159 l 1.6835,2.9159 l 3.3670,0.0000 l -1.6835,2.9159 l 1.6835,2.9159 l -3.3670,0.0000 l -1.6835,2.9159 l 1.6835,2.9159 l 3.3670,0.0000 l -1.6835,2.9159 l 1.6835,2.9159 l 3.3670,0.0000 l 1.6835,-2.9159 l 1.6835,2.9159 l 3.3670,0.0000 l 1.6835,-2.9159 l -1.6835,-2.9159 l 3.3670,0.0000 l 1.6835,-2.9159 l 1.6835,2.9159 l 3.3670,0.0000 l -1.6835,2.9159 l 1.6835,2.9159 l 3.3670,0.0000 l 1.6835,-2.9159 l 1.6835,2.9159 l 3.3670,0.0000 l -1.6835,2.9159 l 1.6835,2.9159 l -3.3670,0.0000 l -1.6835,2.9159 l 1.6835,2.9159 l 3.3670,-0.0000 l -1.6835,2.9159 l 1.6835,2.9159 l -3.3670,0.0000 l -1.6835,2.9159 l -1.6835,-2.9159 l -3.3670,0.0000 l -1.6835,2.9159 l 1.6835,2.9159 l -3.3670,0.0000 l -1.6835,2.9159 l 1.6835,2.9159 l 3.3670,0.0000 l -1.6835,2.9159 l 1.6835,2.9159 l 3.3670,0.0000 l 1.6835,-2.9159 l 1.6835,2.9159 l 3.3670,0.0000 l -1.6835,2.9159 l 1.6835,2.9159 l -3.3670,0.0000 l -1.6835,2.9159 l 1.6835,2.9159 l 3.3670,0.0000 l -1.6835,2.9159 l 1.6835,2.9159 l -3.3670,0.0000 l -1.6835,2.9159 l -1.6835,-2.9159 l -3.3670,0.0000 l -1.6835,2.9159 l 1.6835,2.9159 l -3.3670,0.0000 l -1.6835,2.9159 l -1.6835,-2.9159 l -3.3670,0.0000 l 1.6835,-2.9159 l -1.6835,-2.9159 l -3.3670,0.0000 l -1.6835,2.9159 l -1.6835,-2.9159 l -3.3670,0.0000 l -1.6835,2.9159 l 1.6835,2.9159 l -3.3670,0.0000 l -1.6835,2.9159 l 1.6835,2.9159 h 3.3670 l -1.6835,2.9159 l 1.6835,2.9159 l -3.3670,0.0000 l -1.6835,2.9159 l -1.6835,-2.9159 l -3.3670,0.0000 l -1.6835,2.9159 l 1.6835,2.9159 l -3.3670,0.0000 l -1.6835,2.9159 l -1.6835,-2.9159 l -3.3670,0.0000 l 1.6835,-2.9159 l -1.6835,-2.9159 l -3.3670,0.0000 l -1.6835,2.9159 l -1.6835,-2.9159 l -3.3670,0.0000 l 1.6835,-2.9159 l -1.6835,-2.9159 l 3.3670,-0.0000 l 1.6835,-2.9159 l -1.6835,-2.9159 l -3.3670,0.0000 l 1.6835,-2.9159 l -1.6835,-2.9159 l -3.3670,0.0000 l -1.6835,2.9159 l -1.6835,-2.9159 l -3.3670,0.0000 l -1.6835,2.9159 l 1.6835,2.9159 l -3.3670,0.0000 l -1.6835,2.9159 l -1.6835,-2.9159 l -3.3670,0.0000 l 1.6835,-2.9159 l -1.6835,-2.9159 l -3.3670,0.0000 l -1.6835,2.9159 l -1.6835,-2.9159 l -3.3670,0.0000 l -1.6835,2.9159 l 1.6835,2.9159 l -3.3670,0.0000 l -1.6835,2.9159 l 1.6835,2.9159 l 3.3670,-0.0000 l -1.6835,2.9159 l 1.6835,2.9159 l -3.3670,0.0000 l -1.6835,2.9159 l -1.6835,-2.9159 l -3.3670,0.0000 l -1.6835,2.9159 l 1.6835,2.9159 l -3.3670,0.0000 l -1.6835,2.9159 l 1.6835,2.9159 l 3.3670,0.0000 l -1.6835,2.9159 l 1.6835,2.9159 l 3.3670,0.0000 l 1.6835,-2.9159 l 1.6835,2.9159 l 3.3670,0.0000 l -1.6835,2.9159 l 1.6835,2.9159 l -3.3670,0.0000 l -1.6835,2.9159 l 1.6835,2.9159 l 3.3670,0.0000 l -1.6835,2.9159 l 1.6835,2.9159 l -3.3670,0.0000 l -1.6835,2.9159 l -1.6835,-2.9159 l -3.3670,0.0000 l -1.6835,2.9159 l 1.6835,2.9159 l -3.3670,0.0000 l -1.6835,2.9159 l -1.6835,-2.9159 l -3.3670,0.0000 l 1.6835,-2.9159 l -1.6835,-2.9159 l -3.3670,0.0000 l -1.6835,2.9159 l -1.6835,-2.9159 l -3.3670,0.0000 l -1.6835,2.9159 l 1.6835,2.9159 l -3.3670,0.0000 l -1.6835,2.9159 l 1.6835,2.9159 l 3.3670,-0.0000 l -1.6835,2.9159 l 1.6835,2.9159 l -3.3670,0.0000 l -1.6835,2.9159 l -1.6835,-2.9159 l -3.3670,0.0000 l -1.6835,2.9159 l 1.6835,2.9159 l -3.3670,0.0000 l -1.6835,2.9159 l -1.6835,-2.9159 l -3.3670,0.0000 l 1.6835,-2.9159 l -1.6835,-2.9159 l -3.3670,0.0000 l -1.6835,2.9159 l -1.6835,-2.9159 l -3.3670,0.0000 l 1.6835,-2.9159 l -1.6835,-2.9159 l 3.3670,-0.0000 l 1.6835,-2.9159 l -1.6835,-2.9159 l -3.3670,0.0000 l 1.6835,-2.9159 l -1.6835,-2.9159 l -3.3670,0.0000 l -1.6835,2.9159 l -1.6835,-2.9159 l -3.3670,0.0000 l -1.6835,2.9159 l 1.6835,2.9159 l -3.3670,0.0000 l -1.6835,2.9159 l -1.6835,-2.9159 l -3.3670,0.0000 l 1.6835,-2.9159 l -1.6835,-2.9159 l -3.3670,0.0000 l -1.6835,2.9159 l -1.6835,-2.9159 l -3.3670,0.0000 l 1.6835,-2.9159 l -1.6835,-2.9159 l 3.3670,-0.0000 l 1.6835,-2.9159 l -1.6835,-2.9159 l -3.3670,0.0000 l 1.6835,-2.9159 l -1.6835,-2.9159 l 3.3670,-0.0000 l 1.6835,-2.9159 l 1.6835,2.9159 l 3.3670,-0.0000 l 1.6835,-2.9159 l -1.6835,-2.9159 l 3.3670,-0.0000 l 1.6835,-2.9159 l -1.6835,-2.9159 l -3.3670,0.0000 l 1.6835,-2.9159 l -1.6835,-2.9159 l -3.3670,0.0000 l -1.6835,2.9159 l -1.6835,-2.9159 l -3.3670,0.0000 l 1.6835,-2.9159 l -1.6835,-2.9159 l 3.3670,-0.0000 l 1.6835,-2.9159 l -1.6835,-2.9159 l -3.3670,0.0000 l 1.6835,-2.9159 l -1.6835,-2.9159 l -3.3670,0.0000 l -1.6835,2.9159 l -1.6835,-2.9159 l -3.3670,0.0000 l -1.6835,2.9159 l 1.6835,2.9159 l -3.3670,0.0000 l -1.6835,2.9159 l -1.6835,-2.9159 l -3.3670,0.0000 l 1.6835,-2.9159 l -1.6835,-2.9159 l -3.3670,0.0000 l -1.6835,2.9159 l -1.6835,-2.9159 l -3.3670,0.0000 l -1.6835,2.9159 l 1.6835,2.9159 l -3.3670,0.0000 l -1.6835,2.9159 l 1.6835,2.9159 l 3.3670,0.0000 l -1.6835,2.9159 l 1.6835,2.9159 l -3.3670,0.0000 l -1.6835,2.9159 l -1.6835,-2.9159 l -3.3670,0.0000 l -1.6835,2.9159 l 1.6835,2.9159 l -3.3670,0.0000 l -1.6835,2.9159 l -1.6835,-2.9159 l -3.3670,0.0000 l 1.6835,-2.9159 l -1.6835,-2.9159 l -3.3670,0.0000 l -1.6835,2.9159 l -1.6835,-2.9159 l -3.3670,0.0000 l 1.6835,-2.9159 l -1.6835,-2.9159 l 3.3670,-0.0000 l 1.6835,-2.9159 l -1.6835,-2.9159 l -3.3670,0.0000 l 1.6835,-2.9159 l -1.6835,-2.9159 l -3.3670,0.0000 l -1.6835,2.9159 l -1.6835,-2.9159 l -3.3670,0.0000 l -1.6835,2.9159 l 1.6835,2.9159 l -3.3670,0.0000 l -1.6835,2.9159 l -1.6835,-2.9159 l -3.3670,0.0000 l 1.6835,-2.9159 l -1.6835,-2.9159 l -3.3670,0.0000 l -1.6835,2.9159 l -1.6835,-2.9159 l -3.3670,0.0000 l 1.6835,-2.9159 l -1.6835,-2.9159 l 3.3670,-0.0000 l 1.6835,-2.9159 l -1.6835,-2.9159 l -3.3670,0.0000 l 1.6835,-2.9159 l -1.6835,-2.9159 l 3.3670,-0.0000 l 1.6835,-2.9159 l 1.6835,2.9159 l 3.3670,-0.0000 l 1.6835,-2.9159 l -1.6835,-2.9159 l 3.3670,-0.0000 l 1.6835,-2.9159 l -1.6835,-2.9159 l -3.3670,0.0000 l 1.6835,-2.9159 l -1.6835,-2.9159 l -3.3670,0.0000 l -1.6835,2.9159 l -1.6835,-2.9159 l -3.3670,0.0000 l 1.6835,-2.9159 l -1.6835,-2.9159 l 3.3670,-0.0000 l 1.6835,-2.9159 l -1.6835,-2.9159 l -3.3670,0.0000 l 1.6835,-2.9159 l -1.6835,-2.9159 l 3.3670,-0.0000 l 1.6835,-2.9159 l 1.6835,2.9159 l 3.3670,-0.0000 l 1.6835,-2.9159 l -1.6835,-2.9159 l 3.3670,-0.0000 l 1.6835,-2.9159 l 1.6835,2.9159 l 3.3670,-0.0000 l -1.6835,2.9159 l 1.6835,2.9159 l 3.3670,-0.0000 l 1.6835,-2.9159 l 1.6835,2.9159 l 3.3670,-0.0000 l 1.6835,-2.9159 l -1.6835,-2.9159 l 3.3670,-0.0000 l 1.6835,-2.9159 l -1.6835,-2.9159 l -3.3670,0.0000 l 1.6835,-2.9159 l -1.6835,-2.9159 l 3.3670,-0.0000 l 1.6835,-2.9159 l 1.6835,2.9159 l 3.3670,-0.0000 l 1.6835,-2.9159 l -1.6835,-2.9159 l 3.3670,-0.0000 l 1.6835,-2.9159 l -1.6835,-2.9159 l -3.3670,0.0000 l 1.6835,-2.9159 l -1.6835,-2.9159 l -3.3670,0.0000 l -1.6835,2.9159 l -1.6835,-2.9159 l -3.3670,0.0000 l 1.6835,-2.9159 l -1.6835,-2.9159 l 3.3670,-0.0000 l 1.6835,-2.9159 l -1.6835,-2.9159 l -3.3670,0.0000 l 1.6835,-2.9159 l -1.6835,-2.9159 l -3.3670,0.0000 l -1.6835,2.9159 l -1.6835,-2.9159 l -3.3670,0.0000 l -1.6835,2.9159 l 1.6835,2.9159 l -3.3670,0.0000 l -1.6835,2.9159 l -1.6835,-2.9159 l -3.3670,0.0000 l 1.6835,-2.9159 l -1.6835,-2.9159 l -3.3670,0.0000 l -1.6835,2.9159 l -1.6835,-2.9159 l -3.3670,0.0000 l 1.6835,-2.9159 l -1.6835,-2.9159 l 3.3670,-0.0000 l 1.6835,-2.9159 l -1.6835,-2.9159 l -3.3670,0.0000 l 1.6835,-2.9159 l -1.6835,-2.9159 l 3.3670,-0.0000 l 1.6835,-2.9159 l 1.6835,2.9159 l 3.3670,-0.0000 l 1.6835,-2.9159 l -1.6835,-2.9159 l 3.3670,-0.0000 l 1.6835,-2.9159 l -1.6835,-2.9159 l -3.3670,0.0000 l 1.6835,-2.9159 l -1.6835,-2.9159 l -3.3670,0.0000 l -1.6835,2.9159 l -1.6835,-2.9159 l -3.3670,0.0000 l 1.6835,-2.9159 l -1.6835,-2.9159 l 3.3670,-0.0000 l 1.6835,-2.9159 l -1.6835,-2.9159 l -3.3670,0.0000 l 1.6835,-2.9159 Z"/></g></svg>