<svg xmlns="http://www.w3.org/2000/svg" height="275.0000" stroke-opacity="1" viewBox="0 0 600 275" font-size="1" width="600.0000" xmlns:xlink="http://www.w3.org/1999/xlink" stroke="rgb(0,0,0)" version="1.1"><defs></defs><g stroke-linejoin="miter" stroke-opacity="1.0" fill-opacity="0.0" stroke="rgb(0,0,0)" stroke-width="1.6248076809271919" fill="rgb(0,0,0)" stroke-linecap="butt" stroke-miterlimit="10.0"><path d="M 431.2500,231.2500 l 0.0000,-2.5000 v -2.5000 l 2.5000,-0.0000 v 2.5000 l 2.5000,-0.0000 h 2.5000 l -0.0000,2.5000 h 2.5000 l 0.0000,-2.5000 l 0.0000,-2.5000 l 0.0000,-2.5000 l 2.5000,0.0000 l 0.0000,-2.5000 l -2.5000,-0.0000 l -2.5000,-0.0000 l -0.0000,2.5000 l -0.0000,2.5000 h -2.5000 l 0.0000,-2.5000 h -2.5000 l 0.0000,-2.5000 l 2.5000,0.0000 l 0.0000,-2.5000 l -2.5000,-0.0000 l -2.5000,-0.0000 l -2.5000,-0.0000 l -2.5000,-0.0000 v -2.5000 l 2.5000,0.0000 v -2.5000 h -2.5000 v -2.5000 h -2.5000 v 2.5000 l -0.0000,2.5000 l -2.5000,-0.0000 l -2.5000,-0.0000 v -2.5000 l 2.5000,0.0000 v -2.5000 l 0.0000,-2.5000 v -2.5000 h 2.5000 v 2.5000 h 2.5000 l 2.5000,-0.0000 l 0.0000,2.5000 l 2.5000,-0.0000 l -0.0000,-2.5000 v -2.5000 l 0.0000,-2.5000 v -2.5000 h 2.5000 v 2.5000 h 2.5000 v -2.5000 h 2.5000 v -2.5000 h -2.5000 l -2.5000,-0.0000 l 0.0000,-2.5000 v -2.5000 h 2.5000 v 2.5000 h 2.5000 l 2.5000,0.0000 h 2.5000 v 2.5000 h -2.5000 v 2.5000 l 0.0000,2.5000 l -2.5000,0.0000 l 0.0000,2.5000 l 2.5000,-0.0000 h 2.5000 v 2.5000 l 0.0000,2.5000 l -2.5000,0.0000 l -0.0000,-2.5000 l -2.5000,0.0000 h -2.5000 v -2.5000 h -2.5000 v 2.5000 l -0.0000,2.5000 v 2.5000 l -2.5000,-0.0000 v 2.5000 l 2.5000,0.0000 l 2.5000,0.0000 l 0.0000,-2.5000 v -2.5000 h 2.5000 v 2.5000 h 2.5000 v 2.5000 l -2.5000,-0.0000 v 2.5000 l 2.5000,0.0000 l 2.5000,0.0000 l 0.0000,-2.5000 v -2.5000 h 2.5000 v 2.5000 h 2.5000 v -2.5000 h 2.5000 v -2.5000 h -2.5000 l -2.5000,-0.0000 l 0.0000,-2.5000 v -2.5000 h 2.5000 v 2.5000 h 2.5000 l 2.5000,0.0000 h 2.5000 v 2.5000 h -2.5000 v 2.5000 l 0.0000,2.5000 l -2.5000,0.0000 l 0.0000,2.5000 l 2.5000,-0.0000 h 2.5000 h 2.5000 l 2.5000,-0.0000 l 0.0000,2.5000 l -2.5000,0.0000 l 0.0000,2.5000 v 2.5000 h -2.5000 v 2.5000 h 2.5000 l 2.5000,0.0000 h 2.5000 l -0.0000,2.5000 h 2.5000 l 0.0000,-2.5000 l 0.0000,-2.5000 l -2.5000,-0.0000 h -2.5000 v -2.5000 h 2.5000 v -2.5000 h 2.5000 l -0.0000,2.5000 h 2.5000 l 0.0000,-2.5000 l 0.0000,-2.5000 l 2.5000,0.0000 l 2.5000,0.0000 l -0.0000,2.5000 l -2.5000,-0.0000 l -0.0000,2.5000 h 2.5000 l -0.0000,2.5000 h 2.5000 l 0.0000,-2.5000 l 0.0000,-2.5000 l 2.5000,0.0000 l 2.5000,0.0000 l -0.0000,2.5000 l -2.5000,-0.0000 l -0.0000,2.5000 l -0.0000,2.5000 l -0.0000,2.5000 h -2.5000 l 0.0000,-2.5000 h -2.5000 h -2.5000 v -2.5000 h -2.5000 v 2.5000 l -0.0000,2.5000 h 2.5000 l 2.5000,-0.0000 l 0.0000,2.5000 l -2.5000,0.0000 l 0.0000,2.5000 v 2.5000 h -2.5000 v 2.5000 h 2.5000 l 2.5000,0.0000 h 2.5000 l -0.0000,2.5000 h 2.5000 l 0.0000,-2.5000 l 0.0000,-2.5000 l -2.5000,-0.0000 h -2.5000 v -2.5000 h 2.5000 v -2.5000 h 2.5000 l -0.0000,2.5000 h 2.5000 l 0.0000,-2.5000 l 0.0000,-2.5000 l 0.0000,-2.5000 v -2.5000 h 2.5000 v 2.5000 h 2.5000 h 2.5000 l -0.0000,2.5000 h 2.5000 l 0.0000,-2.5000 l 0.0000,-2.5000 l 0.0000,-2.5000 l 2.5000,0.0000 l 0.0000,-2.5000 l -2.5000,-0.0000 l -2.5000,-0.0000 l -0.0000,2.5000 l -0.0000,2.5000 h -2.5000 l 0.0000,-2.5000 h -2.5000 l 0.0000,-2.5000 l 2.5000,0.0000 l 0.0000,-2.5000 l -2.5000,-0.0000 l -2.5000,-0.0000 l -2.5000,-0.0000 l -2.5000,-0.0000 l 0.0000,-2.5000 l 2.5000,0.0000 l 0.0000,-2.5000 h -2.5000 l 0.0000,-2.5000 h -2.5000 l -0.0000,2.5000 l -0.0000,2.5000 l -2.5000,-0.0000 l -2.5000,-0.0000 l 0.0000,-2.5000 l 2.5000,0.0000 l 0.0000,-2.5000 l 0.0000,-2.5000 l 0.0000,-2.5000 h 2.5000 l -0.0000,2.5000 h 2.5000 h 2.5000 v 2.5000 h 2.5000 v -2.5000 l 0.0000,-2.5000 l 0.0000,-2.5000 l -0.0000,-2.5000 h 2.5000 l 0.0000,2.5000 h 2.5000 h 2.5000 l -0.0000,2.5000 h 2.5000 l 0.0000,-2.5000 l 0.0000,-2.5000 l 0.0000,-2.5000 l 2.5000,0.0000 l 0.0000,-2.5000 l -2.5000,-0.0000 l -2.5000,-0.0000 l -0.0000,2.5000 l -0.0000,2.5000 h -2.5000 l 0.0000,-2.5000 h -2.5000 l 0.0000,-2.5000 l 2.5000,0.0000 l 0.0000,-2.5000 l -2.5000,-0.0000 l -2.5000,-0.0000 l 0.0000,-2.5000 l 0.0000,-2.5000 l 2.5000,0.0000 l -0.0000,2.5000 l 2.5000,0.0000 l 0.0000,-2.5000 l 2.5000,0.0000 l 0.0000,-2.5000 l -2.5000,-0.0000 l -2.5000,-0.0000 l 0.0000,-2.5000 l 0.0000,-2.5000 l 2.5000,0.0000 l -0.0000,2.5000 l 2.5000,0.0000 l 2.5000,0.0000 l 2.5000,0.0000 l -0.0000,2.5000 l -2.5000,-0.0000 l -0.0000,2.5000 v 2.5000 h -2.5000 v 2.5000 h 2.5000 l 2.5000,0.0000 l 0.0000,-2.5000 l -0.0000,-2.5000 h 2.5000 l 0.0000,2.5000 h 2.5000 h 2.5000 l -0.0000,2.5000 h 2.5000 l 0.0000,-2.5000 l 0.0000,-2.5000 l 0.0000,-2.5000 l 2.5000,0.0000 l 0.0000,-2.5000 l -2.5000,-0.0000 l -2.5000,-0.0000 l -0.0000,2.5000 l -0.0000,2.5000 h -2.5000 l 0.0000,-2.5000 h -2.5000 l 0.0000,-2.5000 l 2.5000,0.0000 l 0.0000,-2.5000 l -2.5000,-0.0000 l -2.5000,-0.0000 l -2.5000,-0.0000 h -2.5000 v -2.5000 h 2.5000 v -2.5000 l 0.0000,-2.5000 l 2.5000,0.0000 l 0.0000,-2.5000 l -2.5000,-0.0000 l -2.5000,-0.0000 l -2.5000,-0.0000 l 0.0000,-2.5000 l -2.5000,-0.0000 l -0.0000,2.5000 l -0.0000,2.5000 l 2.5000,0.0000 l 2.5000,0.0000 l -0.0000,2.5000 l -2.5000,-0.0000 l -0.0000,2.5000 l -2.5000,-0.0000 l 0.0000,-2.5000 l -2.5000,-0.0000 l -0.0000,2.5000 l -0.0000,2.5000 l -0.0000,2.5000 l -0.0000,2.5000 l -2.5000,-0.0000 l 0.0000,-2.5000 l -2.5000,-0.0000 l -0.0000,2.5000 l -2.5000,-0.0000 l -0.0000,2.5000 l 2.5000,0.0000 l 2.5000,0.0000 l -0.0000,2.5000 l -0.0000,2.5000 l -2.5000,-0.0000 l 0.0000,-2.5000 l -2.5000,-0.0000 l -2.5000,-0.0000 l -2.5000,-0.0000 l 0.0000,-2.5000 l 2.5000,0.0000 l 0.0000,-2.5000 v -2.5000 h 2.5000 v -2.5000 h -2.5000 l -2.5000,-0.0000 l -0.0000,2.5000 v 2.5000 h -2.5000 v -2.5000 h -2.5000 h -2.5000 l 0.0000,-2.5000 h -2.5000 l -0.0000,2.5000 l -0.0000,2.5000 l -0.0000,2.5000 l -2.5000,-0.0000 l -0.0000,2.5000 l 2.5000,0.0000 l 2.5000,0.0000 l 0.0000,-2.5000 l 0.0000,-2.5000 h 2.5000 l -0.0000,2.5000 h 2.5000 l -0.0000,2.5000 l -2.5000,-0.0000 l -0.0000,2.5000 l 2.5000,0.0000 l 2.5000,0.0000 l 2.5000,0.0000 l 2.5000,0.0000 l -0.0000,2.5000 l -2.5000,-0.0000 l -0.0000,2.5000 h 2.5000 l -0.0000,2.5000 h 2.5000 l 0.0000,-2.5000 l 0.0000,-2.5000 l 2.5000,0.0000 l 2.5000,0.0000 l -0.0000,2.5000 l -2.5000,-0.0000 l -0.0000,2.5000 l -0.0000,2.5000 l -0.0000,2.5000 h -2.5000 l 0.0000,-2.5000 h -2.5000 h -2.5000 v -2.5000 h -2.5000 v 2.5000 l -0.0000,2.5000 l -0.0000,2.5000 l -0.0000,2.5000 h -2.5000 l 0.0000,-2.5000 h -2.5000 v 2.5000 h -2.5000 v 2.5000 h 2.5000 l 2.5000,0.0000 l -0.0000,2.5000 l -0.0000,2.5000 h -2.5000 l 0.0000,-2.5000 h -2.5000 l -2.5000,-0.0000 h -2.5000 v -2.5000 h 2.5000 v -2.5000 l -0.0000,-2.5000 l 2.5000,-0.0000 l -0.0000,-2.5000 l -2.5000,0.0000 h -2.5000 l 0.0000,-2.5000 v -2.5000 h 2.5000 v 2.5000 h 2.5000 h 2.5000 l -0.0000,2.5000 h 2.5000 l 0.0000,-2.5000 l 0.0000,-2.5000 l 0.0000,-2.5000 l 2.5000,0.0000 l 0.0000,-2.5000 l -2.5000,-0.0000 l -2.5000,-0.0000 l -0.0000,2.5000 l -0.0000,2.5000 h -2.5000 l 0.0000,-2.5000 h -2.5000 l 0.0000,-2.5000 l 2.5000,0.0000 l 0.0000,-2.5000 l -2.5000,-0.0000 l -2.5000,-0.0000 l -0.0000,2.5000 l -0.0000,2.5000 h -2.5000 l 0.0000,-2.5000 h -2.5000 v 2.5000 h -2.5000 v 2.5000 h 2.5000 l 2.5000,0.0000 l -0.0000,2.5000 l -0.0000,2.5000 h -2.5000 l 0.0000,-2.5000 h -2.5000 l -2.5000,-0.0000 h -2.5000 v -2.5000 h 2.5000 v -2.5000 l -0.0000,-2.5000 l 2.5000,-0.0000 l -0.0000,-2.5000 l -2.5000,0.0000 h -2.5000 l 0.0000,-2.5000 l -0.0000,-2.5000 h 2.5000 l 0.0000,2.5000 h 2.5000 h 2.5000 l -0.0000,2.5000 h 2.5000 l 0.0000,-2.5000 l 0.0000,-2.5000 l 0.0000,-2.5000 l 2.5000,0.0000 l 0.0000,-2.5000 l -2.5000,-0.0000 l -2.5000,-0.0000 l -0.0000,2.5000 l -0.0000,2.5000 h -2.5000 l 0.0000,-2.5000 h -2.5000 l 0.0000,-2.5000 l 2.5000,0.0000 l 0.0000,-2.5000 l -2.5000,-0.0000 l -2.5000,-0.0000 l 0.0000,-2.5000 l 0.0000,-2.5000 l 2.5000,0.0000 l -0.0000,2.5000 l 2.5000,0.0000 l 0.0000,-2.5000 l 2.5000,0.0000 l 0.0000,-2.5000 l -2.5000,-0.0000 l -2.5000,-0.0000 l 0.0000,-2.5000 l 0.0000,-2.5000 l 2.5000,0.0000 l -0.0000,2.5000 l 2.5000,0.0000 l 2.5000,0.0000 l 2.5000,0.0000 l -0.0000,2.5000 l -2.5000,-0.0000 l -0.0000,2.5000 v 2.5000 h -2.5000 v 2.5000 h 2.5000 l 2.5000,0.0000 l 0.0000,-2.5000 l -0.0000,-2.5000 h 2.5000 l 0.0000,2.5000 h 2.5000 h 2.5000 l -0.0000,2.5000 h 2.5000 l 0.0000,-2.5000 l 0.0000,-2.5000 l 0.0000,-2.5000 l 2.5000,0.0000 l 0.0000,-2.5000 l -2.5000,-0.0000 l -2.5000,-0.0000 l -0.0000,2.5000 l -0.0000,2.5000 h -2.5000 l 0.0000,-2.5000 h -2.5000 l 0.0000,-2.5000 l 2.5000,0.0000 l 0.0000,-2.5000 l -2.5000,-0.0000 l -2.5000,-0.0000 l -2.5000,-0.0000 h -2.5000 v -2.5000 h 2.5000 v -2.5000 l 0.0000,-2.5000 l 2.5000,0.0000 l 0.0000,-2.5000 l -2.5000,-0.0000 l -2.5000,-0.0000 l -2.5000,-0.0000 l 0.0000,-2.5000 l -2.5000,-0.0000 l -0.0000,2.5000 l -0.0000,2.5000 l 2.5000,0.0000 l 2.5000,0.0000 l -0.0000,2.5000 l -2.5000,-0.0000 l -0.0000,2.5000 l -2.5000,-0.0000 l 0.0000,-2.5000 l -2.5000,-0.0000 l -0.0000,2.5000 l -0.0000,2.5000 l -0.0000,2.5000 l -0.0000,2.5000 l -2.5000,-0.0000 l 0.0000,-2.5000 l -2.5000,-0.0000 l -0.0000,2.5000 l -2.5000,-0.0000 l -0.0000,2.5000 l 2.5000,0.0000 l 2.5000,0.0000 l -0.0000,2.5000 l -0.0000,2.5000 l -2.5000,-0.0000 l 0.0000,-2.5000 l -2.5000,-0.0000 l -2.5000,-0.0000 l -2.5000,-0.0000 l 0.0000,-2.5000 l 2.5000,0.0000 l 0.0000,-2.5000 v -2.5000 h 2.5000 v -2.5000 h -2.5000 l -2.5000,-0.0000 l -2.5000,-0.0000 l -2.5000,0.0000 l -0.0000,-2.5000 l 2.5000,-0.0000 l -0.0000,-2.5000 v -2.5000 l 2.5000,0.0000 v -2.5000 l -2.5000,-0.0000 l -2.5000,-0.0000 l -2.5000,-0.0000 l 0.0000,-2.5000 l -2.5000,-0.0000 l -0.0000,2.5000 l -0.0000,2.5000 l 2.5000,0.0000 l 2.5000,0.0000 v 2.5000 l -2.5000,-0.0000 v 2.5000 l -2.5000,-0.0000 l 0.0000,-2.5000 l -2.5000,-0.0000 l -0.0000,2.5000 l -0.0000,2.5000 l -0.0000,2.5000 l -0.0000,2.5000 h -2.5000 l 0.0000,-2.5000 h -2.5000 l 0.0000,2.5000 h -2.5000 l 0.0000,2.5000 h 2.5000 l 2.5000,0.0000 l -0.0000,2.5000 l -0.0000,2.5000 h -2.5000 l 0.0000,-2.5000 h -2.5000 l -2.5000,-0.0000 h -2.5000 l -0.0000,-2.5000 h 2.5000 l -0.0000,-2.5000 l -0.0000,-2.5000 l 2.5000,-0.0000 l -0.0000,-2.5000 l -2.5000,0.0000 h -2.5000 l -2.5000,-0.0000 h -2.5000 l -0.0000,-2.5000 h 2.5000 l -0.0000,-2.5000 l -2.5000,0.0000 l -0.0000,-2.5000 l -2.5000,0.0000 l 0.0000,2.5000 l -0.0000,2.5000 l -2.5000,-0.0000 h -2.5000 l -0.0000,-2.5000 h 2.5000 l -0.0000,-2.5000 l 0.0000,-2.5000 l -0.0000,-2.5000 l 2.5000,-0.0000 l 0.0000,2.5000 l 2.5000,-0.0000 l 2.5000,-0.0000 l 0.0000,2.5000 l 2.5000,-0.0000 l -0.0000,-2.5000 l -0.0000,-2.5000 h 2.5000 l 2.5000,-0.0000 l 0.0000,2.5000 l -2.5000,0.0000 l 0.0000,2.5000 l 0.0000,2.5000 h -2.5000 l 0.0000,2.5000 h 2.5000 l 2.5000,0.0000 h 2.5000 l -0.0000,2.5000 h 2.5000 l 0.0000,-2.5000 l 0.0000,-2.5000 l -2.5000,-0.0000 h -2.5000 l -0.0000,-2.5000 h 2.5000 l -0.0000,-2.5000 h 2.5000 l -0.0000,2.5000 h 2.5000 l 0.0000,-2.5000 l 0.0000,-2.5000 l -2.5000,-0.0000 h -2.5000 l -0.0000,-2.5000 h 2.5000 l -0.0000,-2.5000 l -2.5000,0.0000 l -0.0000,-2.5000 l -2.5000,0.0000 l 0.0000,2.5000 l -0.0000,2.5000 l -2.5000,-0.0000 h -2.5000 l -0.0000,-2.5000 h 2.5000 l -0.0000,-2.5000 l 0.0000,-2.5000 l -0.0000,-2.5000 l 2.5000,-0.0000 l 0.0000,2.5000 l 2.5000,-0.0000 l 2.5000,-0.0000 l 0.0000,2.5000 l 2.5000,-0.0000 l -0.0000,-2.5000 l -0.0000,-2.5000 l -2.5000,0.0000 l -2.5000,0.0000 l -0.0000,-2.5000 l 2.5000,-0.0000 l -0.0000,-2.5000 l -0.0000,-2.5000 l 2.5000,-0.0000 l -0.0000,-2.5000 l -2.5000,0.0000 h -2.5000 l -2.5000,0.0000 l -0.0000,-2.5000 l -2.5000,0.0000 l 0.0000,2.5000 v 2.5000 h 2.5000 l 2.5000,-0.0000 l 0.0000,2.5000 l -2.5000,0.0000 l 0.0000,2.5000 l -2.5000,0.0000 l -0.0000,-2.5000 l -2.5000,0.0000 l 0.0000,2.5000 v 2.5000 l -2.5000,-0.0000 h -2.5000 l -0.0000,-2.5000 h 2.5000 l -0.0000,-2.5000 l -2.5000,0.0000 l -0.0000,-2.5000 l -2.5000,0.0000 l 0.0000,2.5000 l -0.0000,2.5000 l -2.5000,-0.0000 h -2.5000 l -0.0000,-2.5000 h 2.5000 l -0.0000,-2.5000 l 0.0000,-2.5000 l -0.0000,-2.5000 l 2.5000,-0.0000 l 0.0000,2.5000 l 2.5000,-0.0000 l 2.5000,-0.0000 l 0.0000,2.5000 l 2.5000,-0.0000 l -0.0000,-2.5000 l -0.0000,-2.5000 l -2.5000,0.0000 l -2.5000,0.0000 l -0.0000,-2.5000 l 2.5000,-0.0000 l -0.0000,-2.5000 l -0.0000,-2.5000 l 2.5000,-0.0000 l -0.0000,-2.5000 l -2.5000,0.0000 h -2.5000 l -2.5000,0.0000 l -0.0000,-2.5000 l -2.5000,0.0000 l 0.0000,2.5000 v 2.5000 h 2.5000 l 2.5000,-0.0000 l 0.0000,2.5000 l -2.5000,0.0000 l 0.0000,2.5000 l -2.5000,0.0000 l -0.0000,-2.5000 l -2.5000,0.0000 l 0.0000,2.5000 v 2.5000 l 0.0000,2.5000 l 0.0000,2.5000 l -2.5000,0.0000 l -0.0000,-2.5000 l -2.5000,0.0000 l -2.5000,0.0000 l -0.0000,-2.5000 l -2.5000,0.0000 l 0.0000,2.5000 l -0.0000,2.5000 l 0.0000,2.5000 h -2.5000 l 0.0000,2.5000 h 2.5000 l 2.5000,0.0000 l 0.0000,-2.5000 l -0.0000,-2.5000 l 2.5000,-0.0000 l 0.0000,2.5000 l 2.5000,-0.0000 l 0.0000,2.5000 h -2.5000 l 0.0000,2.5000 h 2.5000 l 2.5000,0.0000 l 2.5000,0.0000 l 2.5000,0.0000 v 2.5000 l -2.5000,-0.0000 v 2.5000 l 2.5000,-0.0000 v 2.5000 l 2.5000,-0.0000 v -2.5000 l 0.0000,-2.5000 l 2.5000,0.0000 l 2.5000,0.0000 v 2.5000 l -2.5000,-0.0000 v 2.5000 l -0.0000,2.5000 v 2.5000 l -2.5000,0.0000 v -2.5000 l -2.5000,0.0000 l -2.5000,0.0000 l -0.0000,-2.5000 l -2.5000,0.0000 l 0.0000,2.5000 v 2.5000 l -2.5000,-0.0000 l -2.5000,0.0000 l -0.0000,-2.5000 l 2.5000,-0.0000 l -0.0000,-2.5000 v -2.5000 l 2.5000,0.0000 v -2.5000 l -2.5000,-0.0000 l -2.5000,-0.0000 l -2.5000,-0.0000 l 0.0000,-2.5000 l -2.5000,-0.0000 l -0.0000,2.5000 l -0.0000,2.5000 l 2.5000,0.0000 l 2.5000,0.0000 v 2.5000 l -2.5000,-0.0000 v 2.5000 l -2.5000,-0.0000 l 0.0000,-2.5000 l -2.5000,-0.0000 l -0.0000,2.5000 l -0.0000,2.5000 l -0.0000,2.5000 l -0.0000,2.5000 h -2.5000 l 0.0000,-2.5000 h -2.5000 l 0.0000,2.5000 h -2.5000 l 0.0000,2.5000 h 2.5000 l 2.5000,0.0000 l -0.0000,2.5000 l -0.0000,2.5000 h -2.5000 l 0.0000,-2.5000 h -2.5000 l -2.5000,-0.0000 h -2.5000 l -0.0000,-2.5000 h 2.5000 l -0.0000,-2.5000 l -0.0000,-2.5000 l 2.5000,-0.0000 l -0.0000,-2.5000 l -2.5000,0.0000 h -2.5000 l -2.5000,-0.0000 h -2.5000 l -0.0000,-2.5000 h 2.5000 l -0.0000,-2.5000 l -2.5000,0.0000 l -0.0000,-2.5000 l -2.5000,0.0000 l 0.0000,2.5000 l -0.0000,2.5000 l -2.5000,-0.0000 h -2.5000 l -0.0000,-2.5000 h 2.5000 l -0.0000,-2.5000 l 0.0000,-2.5000 l -0.0000,-2.5000 l 2.5000,-0.0000 l 0.0000,2.5000 l 2.5000,-0.0000 l 2.5000,-0.0000 l 0.0000,2.5000 l 2.5000,-0.0000 l -0.0000,-2.5000 l -0.0000,-2.5000 h 2.5000 l 2.5000,-0.0000 l 0.0000,2.5000 l -2.5000,0.0000 l 0.0000,2.5000 l 0.0000,2.5000 h -2.5000 l 0.0000,2.5000 h 2.5000 l 2.5000,0.0000 h 2.5000 l -0.0000,2.5000 h 2.5000 l 0.0000,-2.5000 l 0.0000,-2.5000 l -2.5000,-0.0000 h -2.5000 l -0.0000,-2.5000 h 2.5000 l -0.0000,-2.5000 h 2.5000 l -0.0000,2.5000 h 2.5000 l 0.0000,-2.5000 l 0.0000,-2.5000 l -2.5000,-0.0000 h -2.5000 l -0.0000,-2.5000 h 2.5000 l -0.0000,-2.5000 l -2.5000,0.0000 l -0.0000,-2.5000 l -2.5000,0.0000 l 0.0000,2.5000 l -0.0000,2.5000 l -2.5000,-0.0000 h -2.5000 l -0.0000,-2.5000 h 2.5000 l -0.0000,-2.5000 l 0.0000,-2.5000 l -0.0000,-2.5000 l 2.5000,-0.0000 l 0.0000,2.5000 l 2.5000,-0.0000 l 2.5000,-0.0000 l 0.0000,2.5000 l 2.5000,-0.0000 l -0.0000,-2.5000 l -0.0000,-2.5000 v -2.5000 l -0.0000,-2.5000 l 2.5000,-0.0000 l 0.0000,2.5000 l 2.5000,-0.0000 l 2.5000,-0.0000 v 2.5000 l 2.5000,-0.0000 v -2.5000 l 0.0000,-2.5000 v -2.5000 l 2.5000,0.0000 v -2.5000 l -2.5000,-0.0000 l -2.5000,-0.0000 l -0.0000,2.5000 v 2.5000 l -2.5000,0.0000 v -2.5000 l -2.5000,0.0000 v -2.5000 l 2.5000,0.0000 v -2.5000 l -2.5000,-0.0000 l -2.5000,-0.0000 l -2.5000,-0.0000 h -2.5000 l -0.0000,-2.5000 h 2.5000 l -0.0000,-2.5000 l -2.5000,0.0000 l -0.0000,-2.5000 l -2.5000,0.0000 l 0.0000,2.5000 l -0.0000,2.5000 l -2.5000,-0.0000 h -2.5000 l -0.0000,-2.5000 h 2.5000 l -0.0000,-2.5000 l 0.0000,-2.5000 l -0.0000,-2.5000 l 2.5000,-0.0000 l 0.0000,2.5000 l 2.5000,-0.0000 l 2.5000,-0.0000 l 0.0000,2.5000 l 2.5000,-0.0000 l -0.0000,-2.5000 l -0.0000,-2.5000 v -2.5000 l -0.0000,-2.5000 l 2.5000,-0.0000 l 0.0000,2.5000 l 2.5000,-0.0000 l -0.0000,-2.5000 l 2.5000,-0.0000 l -0.0000,-2.5000 l -2.5000,0.0000 h -2.5000 v -2.5000 l -0.0000,-2.5000 l 2.5000,-0.0000 l 0.0000,2.5000 l 2.5000,-0.0000 h 2.5000 l 2.5000,-0.0000 l 0.0000,2.5000 l -2.5000,0.0000 l 0.0000,2.5000 l 0.0000,2.5000 l -2.5000,0.0000 l 0.0000,2.5000 l 2.5000,-0.0000 l 2.5000,-0.0000 l 0.0000,2.5000 l 0.0000,2.5000 l -2.5000,0.0000 l -0.0000,-2.5000 l -2.5000,0.0000 l -2.5000,0.0000 l -0.0000,-2.5000 l -2.5000,0.0000 l 0.0000,2.5000 l -0.0000,2.5000 l 0.0000,2.5000 h -2.5000 l 0.0000,2.5000 h 2.5000 l 2.5000,0.0000 l 0.0000,-2.5000 l -0.0000,-2.5000 l 2.5000,-0.0000 l 0.0000,2.5000 l 2.5000,-0.0000 l 0.0000,2.5000 h -2.5000 l 0.0000,2.5000 h 2.5000 l 2.5000,0.0000 v -2.5000 l -0.0000,-2.5000 l 2.5000,-0.0000 l 0.0000,2.5000 l 2.5000,-0.0000 l -0.0000,-2.5000 l 2.5000,-0.0000 l -0.0000,-2.5000 l -2.5000,0.0000 h -2.5000 v -2.5000 l -0.0000,-2.5000 l 2.5000,-0.0000 l 0.0000,2.5000 l 2.5000,-0.0000 h 2.5000 l 2.5000,-0.0000 l 0.0000,2.5000 l -2.5000,0.0000 l 0.0000,2.5000 l 0.0000,2.5000 l -2.5000,0.0000 l 0.0000,2.5000 l 2.5000,-0.0000 l 2.5000,-0.0000 l 2.5000,-0.0000 l 2.5000,-0.0000 l 0.0000,2.5000 l -2.5000,0.0000 l 0.0000,2.5000 l 0.0000,2.5000 l -2.5000,0.0000 l 0.0000,2.5000 l 2.5000,-0.0000 l 2.5000,-0.0000 l 2.5000,-0.0000 l 0.0000,2.5000 l 2.5000,-0.0000 l -0.0000,-2.5000 l -0.0000,-2.5000 l -2.5000,0.0000 l -2.5000,0.0000 l -0.0000,-2.5000 l 2.5000,-0.0000 l -0.0000,-2.5000 l 2.5000,-0.0000 l 0.0000,2.5000 l 2.5000,-0.0000 l -0.0000,-2.5000 l -0.0000,-2.5000 h 2.5000 l 2.5000,-0.0000 l 0.0000,2.5000 l -2.5000,0.0000 l 0.0000,2.5000 l 2.5000,-0.0000 l 0.0000,2.5000 l 2.5000,-0.0000 l -0.0000,-2.5000 v -2.5000 h 2.5000 l 2.5000,-0.0000 l 0.0000,2.5000 l -2.5000,0.0000 l 0.0000,2.5000 v 2.5000 l 0.0000,2.5000 l -2.5000,0.0000 l -0.0000,-2.5000 l -2.5000,0.0000 l -2.5000,0.0000 l -0.0000,-2.5000 l -2.5000,0.0000 l 0.0000,2.5000 l 0.0000,2.5000 l 2.5000,-0.0000 l 2.5000,-0.0000 l 0.0000,2.5000 l -2.5000,0.0000 l 0.0000,2.5000 l 0.0000,2.5000 l -2.5000,0.0000 l 0.0000,2.5000 l 2.5000,-0.0000 l 2.5000,-0.0000 l 2.5000,-0.0000 l 0.0000,2.5000 l 2.5000,-0.0000 l -0.0000,-2.5000 l -0.0000,-2.5000 l -2.5000,0.0000 l -2.5000,0.0000 l -0.0000,-2.5000 l 2.5000,-0.0000 l -0.0000,-2.5000 l 2.5000,-0.0000 l 0.0000,2.5000 l 2.5000,-0.0000 l -0.0000,-2.5000 l -0.0000,-2.5000 l -0.0000,-2.5000 l -0.0000,-2.5000 l 2.5000,-0.0000 l 0.0000,2.5000 l 2.5000,-0.0000 l 2.5000,-0.0000 l 0.0000,2.5000 l 2.5000,-0.0000 l -0.0000,-2.5000 v -2.5000 l -0.0000,-2.5000 l 2.5000,-0.0000 l -0.0000,-2.5000 l -2.5000,0.0000 h -2.5000 v 2.5000 l 0.0000,2.5000 l -2.5000,0.0000 l -0.0000,-2.5000 l -2.5000,0.0000 l -0.0000,-2.5000 l 2.5000,-0.0000 l -0.0000,-2.5000 l -2.5000,0.0000 h -2.5000 l -2.5000,-0.0000 h -2.5000 l -0.0000,-2.5000 h 2.5000 l -0.0000,-2.5000 l -2.5000,0.0000 l -0.0000,-2.5000 l -2.5000,0.0000 l 0.0000,2.5000 l -0.0000,2.5000 l -2.5000,-0.0000 h -2.5000 l -0.0000,-2.5000 h 2.5000 l -0.0000,-2.5000 l 0.0000,-2.5000 l -0.0000,-2.5000 l 2.5000,-0.0000 l 0.0000,2.5000 l 2.5000,-0.0000 l 2.5000,-0.0000 l 0.0000,2.5000 l 2.5000,-0.0000 l -0.0000,-2.5000 l -0.0000,-2.5000 l 0.0000,-2.5000 l -0.0000,-2.5000 l 2.5000,-0.0000 l 0.0000,2.5000 l 2.5000,-0.0000 h 2.5000 l -0.0000,2.5000 h 2.5000 l 0.0000,-2.5000 l 0.0000,-2.5000 l 0.0000,-2.5000 l 2.5000,0.0000 l 0.0000,-2.5000 l -2.5000,-0.0000 l -2.5000,-0.0000 l -0.0000,2.5000 l -0.0000,2.5000 h -2.5000 l 0.0000,-2.5000 h -2.5000 l 0.0000,-2.5000 l 2.5000,0.0000 l 0.0000,-2.5000 l -2.5000,-0.0000 l -2.5000,-0.0000 l -2.5000,-0.0000 l -2.5000,-0.0000 v -2.5000 l 2.5000,0.0000 v -2.5000 l -2.5000,0.0000 v -2.5000 l -2.5000,0.0000 v 2.5000 l -0.0000,2.5000 l -2.5000,-0.0000 l -2.5000,-0.0000 v -2.5000 l 2.5000,0.0000 v -2.5000 l 0.0000,-2.5000 v -2.5000 l 2.5000,-0.0000 v 2.5000 l 2.5000,-0.0000 l 2.5000,-0.0000 l 0.0000,2.5000 l 2.5000,-0.0000 l -0.0000,-2.5000 v -2.5000 l 0.0000,-2.5000 v -2.5000 l 2.5000,-0.0000 v 2.5000 l 2.5000,-0.0000 l -0.0000,-2.5000 l 2.5000,-0.0000 l -0.0000,-2.5000 l -2.5000,0.0000 l -2.5000,-0.0000 l 0.0000,-2.5000 v -2.5000 l 2.5000,-0.0000 v 2.5000 l 2.5000,-0.0000 l 2.5000,0.0000 l 2.5000,-0.0000 l 0.0000,2.5000 l -2.5000,0.0000 l 0.0000,2.5000 l 0.0000,2.5000 l -2.5000,0.0000 l 0.0000,2.5000 l 2.5000,-0.0000 l 2.5000,-0.0000 v 2.5000 l 0.0000,2.5000 l -2.5000,0.0000 l -0.0000,-2.5000 l -2.5000,0.0000 l -2.5000,0.0000 v -2.5000 l -2.5000,0.0000 v 2.5000 l -0.0000,2.5000 v 2.5000 l -2.5000,-0.0000 v 2.5000 l 2.5000,0.0000 l 2.5000,0.0000 l 0.0000,-2.5000 v -2.5000 l 2.5000,-0.0000 v 2.5000 l 2.5000,-0.0000 v 2.5000 l -2.5000,-0.0000 v 2.5000 l 2.5000,0.0000 l 2.5000,0.0000 l 0.0000,-2.5000 v -2.5000 l 2.5000,-0.0000 v 2.5000 l 2.5000,-0.0000 l -0.0000,-2.5000 l 2.5000,-0.0000 l -0.0000,-2.5000 l -2.5000,0.0000 l -2.5000,-0.0000 l 0.0000,-2.5000 v -2.5000 l 2.5000,-0.0000 v 2.5000 l 2.5000,-0.0000 l 2.5000,0.0000 l 2.5000,-0.0000 l 0.0000,2.5000 l -2.5000,0.0000 l 0.0000,2.5000 l 0.0000,2.5000 l -2.5000,0.0000 l 0.0000,2.5000 l 2.5000,-0.0000 l 2.5000,-0.0000 l -0.0000,-2.5000 l -0.0000,-2.5000 l 2.5000,-0.0000 l 0.0000,2.5000 l 2.5000,-0.0000 l 2.5000,-0.0000 l 0.0000,2.5000 l 2.5000,-0.0000 l -0.0000,-2.5000 v -2.5000 l -0.0000,-2.5000 l 2.5000,-0.0000 l -0.0000,-2.5000 l -2.5000,0.0000 h -2.5000 v 2.5000 l 0.0000,2.5000 l -2.5000,0.0000 l -0.0000,-2.5000 l -2.5000,0.0000 l -0.0000,-2.5000 l 2.5000,-0.0000 l -0.0000,-2.5000 l -2.5000,0.0000 h -2.5000 l 0.0000,-2.5000 v -2.5000 l 2.5000,-0.0000 v 2.5000 l 2.5000,-0.0000 l -0.0000,-2.5000 l 2.5000,-0.0000 l -0.0000,-2.5000 l -2.5000,0.0000 l -2.5000,-0.0000 l 0.0000,-2.5000 v -2.5000 l 2.5000,-0.0000 v 2.5000 l 2.5000,-0.0000 l 2.5000,0.0000 l 2.5000,-0.0000 l 0.0000,2.5000 l -2.5000,0.0000 l 0.0000,2.5000 l 0.0000,2.5000 l -2.5000,0.0000 l 0.0000,2.5000 l 2.5000,-0.0000 l 2.5000,-0.0000 l -0.0000,-2.5000 l -0.0000,-2.5000 l 2.5000,-0.0000 l 0.0000,2.5000 l 2.5000,-0.0000 l 2.5000,-0.0000 l 0.0000,2.5000 l 2.5000,-0.0000 l -0.0000,-2.5000 v -2.5000 l -0.0000,-2.5000 l 2.5000,-0.0000 l -0.0000,-2.5000 l -2.5000,0.0000 h -2.5000 v 2.5000 l 0.0000,2.5000 l -2.5000,0.0000 l -0.0000,-2.5000 l -2.5000,0.0000 l -0.0000,-2.5000 l 2.5000,-0.0000 l -0.0000,-2.5000 l -2.5000,0.0000 h -2.5000 l -2.5000,0.0000 l -2.5000,0.0000 l -0.0000,-2.5000 l 2.5000,-0.0000 l -0.0000,-2.5000 l -0.0000,-2.5000 l 2.5000,-0.0000 l -0.0000,-2.5000 l -2.5000,0.0000 l -2.5000,-0.0000 l -2.5000,0.0000 v -2.5000 l -2.5000,0.0000 v 2.5000 l -0.0000,2.5000 l 2.5000,0.0000 l 2.5000,-0.0000 l 0.0000,2.5000 l -2.5000,0.0000 l 0.0000,2.5000 l -2.5000,0.0000 v -2.5000 l -2.5000,0.0000 v 2.5000 l -0.0000,2.5000 l -0.0000,2.5000 l -0.0000,2.5000 h -2.5000 l 0.0000,-2.5000 h -2.5000 l 0.0000,2.5000 h -2.5000 l 0.0000,2.5000 h 2.5000 l 2.5000,0.0000 l -0.0000,2.5000 l -0.0000,2.5000 h -2.5000 l 0.0000,-2.5000 h -2.5000 l -2.5000,-0.0000 h -2.5000 l -0.0000,-2.5000 h 2.5000 l -0.0000,-2.5000 l -0.0000,-2.5000 l 2.5000,-0.0000 l -0.0000,-2.5000 l -2.5000,0.0000 h -2.5000 l 0.0000,-2.5000 l -0.0000,-2.5000 l 2.5000,-0.0000 l 0.0000,2.5000 l 2.5000,-0.0000 h 2.5000 l -0.0000,2.5000 h 2.5000 l 0.0000,-2.5000 l 0.0000,-2.5000 l 0.0000,-2.5000 l 2.5000,0.0000 l 0.0000,-2.5000 l -2.5000,-0.0000 l -2.5000,-0.0000 l -0.0000,2.5000 l -0.0000,2.5000 h -2.5000 l 0.0000,-2.5000 h -2.5000 l 0.0000,-2.5000 l 2.5000,0.0000 l 0.0000,-2.5000 l -2.5000,-0.0000 l -2.5000,-0.0000 l -2.5000,-0.0000 l -2.5000,-0.0000 v -2.5000 l 2.5000,0.0000 v -2.5000 l -2.5000,0.0000 v -2.5000 l -2.5000,0.0000 v 2.5000 l -0.0000,2.5000 l -2.5000,-0.0000 l -2.5000,-0.0000 v -2.5000 l 2.5000,0.0000 v -2.5000 l 0.0000,-2.5000 v -2.5000 l 2.5000,-0.0000 v 2.5000 l 2.5000,-0.0000 l 2.5000,-0.0000 l 0.0000,2.5000 l 2.5000,-0.0000 l -0.0000,-2.5000 v -2.5000 l 0.0000,-2.5000 v -2.5000 l 2.5000,-0.0000 v 2.5000 l 2.5000,-0.0000 l -0.0000,-2.5000 l 2.5000,-0.0000 l -0.0000,-2.5000 l -2.5000,0.0000 l -2.5000,-0.0000 l 0.0000,-2.5000 v -2.5000 l 2.5000,-0.0000 v 2.5000 l 2.5000,-0.0000 l 2.5000,0.0000 l 2.5000,-0.0000 l 0.0000,2.5000 l -2.5000,0.0000 l 0.0000,2.5000 l 0.0000,2.5000 l -2.5000,0.0000 l 0.0000,2.5000 l 2.5000,-0.0000 l 2.5000,-0.0000 v 2.5000 l 0.0000,2.5000 l -2.5000,0.0000 l -0.0000,-2.5000 l -2.5000,0.0000 l -2.5000,0.0000 v -2.5000 l -2.5000,0.0000 v 2.5000 l -0.0000,2.5000 v 2.5000 l -2.5000,-0.0000 v 2.5000 l 2.5000,0.0000 l 2.5000,0.0000 l 0.0000,-2.5000 v -2.5000 l 2.5000,-0.0000 v 2.5000 l 2.5000,-0.0000 v 2.5000 l -2.5000,-0.0000 v 2.5000 l 2.5000,0.0000 l 2.5000,0.0000 l 0.0000,-2.5000 v -2.5000 l 2.5000,-0.0000 v 2.5000 l 2.5000,-0.0000 l -0.0000,-2.5000 l 2.5000,-0.0000 l -0.0000,-2.5000 l -2.5000,0.0000 l -2.5000,-0.0000 l 0.0000,-2.5000 v -2.5000 l 2.5000,-0.0000 v 2.5000 l 2.5000,-0.0000 l 2.5000,0.0000 l 2.5000,-0.0000 l 0.0000,2.5000 l -2.5000,0.0000 l 0.0000,2.5000 l 0.0000,2.5000 l -2.5000,0.0000 l 0.0000,2.5000 l 2.5000,-0.0000 l 2.5000,-0.0000 h 2.5000 l 2.5000,-0.0000 l 0.0000,2.5000 l -2.5000,0.0000 l 0.0000,2.5000 l 0.0000,2.5000 h -2.5000 l 0.0000,2.5000 h 2.5000 l 2.5000,0.0000 h 2.5000 l -0.0000,2.5000 h 2.5000 l 0.0000,-2.5000 l 0.0000,-2.5000 l -2.5000,-0.0000 h -2.5000 l -0.0000,-2.5000 h 2.5000 l -0.0000,-2.5000 h 2.5000 l -0.0000,2.5000 h 2.5000 l 0.0000,-2.5000 l 0.0000,-2.5000 l 0.0000,-2.5000 v -2.5000 l 2.5000,-0.0000 v 2.5000 l 2.5000,-0.0000 l -0.0000,-2.5000 l 2.5000,-0.0000 l -0.0000,-2.5000 l -2.5000,0.0000 l -2.5000,-0.0000 l 0.0000,-2.5000 v -2.5000 l 2.5000,-0.0000 v 2.5000 l 2.5000,-0.0000 l 2.5000,0.0000 l 2.5000,-0.0000 l 0.0000,2.5000 l -2.5000,0.0000 l 0.0000,2.5000 l 0.0000,2.5000 l -2.5000,0.0000 l 0.0000,2.5000 l 2.5000,-0.0000 l 2.5000,-0.0000 h 2.5000 l 2.5000,-0.0000 l 0.0000,2.5000 l -2.5000,0.0000 l 0.0000,2.5000 l 2.5000,-0.0000 l 0.0000,2.5000 l 2.5000,-0.0000 l -0.0000,-2.5000 v -2.5000 h 2.5000 l 2.5000,-0.0000 l 0.0000,2.5000 l -2.5000,0.0000 l 0.0000,2.5000 v 2.5000 l 0.0000,2.5000 l -2.5000,0.0000 l -0.0000,-2.5000 l -2.5000,0.0000 l -2.5000,0.0000 l -0.0000,-2.5000 l -2.5000,0.0000 l 0.0000,2.5000 l 0.0000,2.5000 l -2.5000,0.0000 l -2.5000,0.0000 l -0.0000,-2.5000 l 2.5000,-0.0000 l -0.0000,-2.5000 l -0.0000,-2.5000 l 2.5000,-0.0000 l -0.0000,-2.5000 l -2.5000,0.0000 l -2.5000,-0.0000 l -2.5000,0.0000 v -2.5000 l -2.5000,0.0000 v 2.5000 l -0.0000,2.5000 l 2.5000,0.0000 l 2.5000,-0.0000 l 0.0000,2.5000 l -2.5000,0.0000 l 0.0000,2.5000 l -2.5000,0.0000 v -2.5000 l -2.5000,0.0000 v 2.5000 l -0.0000,2.5000 h 2.5000 l 2.5000,-0.0000 l 0.0000,2.5000 l -2.5000,0.0000 l 0.0000,2.5000 l 2.5000,-0.0000 l 0.0000,2.5000 l 2.5000,-0.0000 l -0.0000,-2.5000 v -2.5000 h 2.5000 l 2.5000,-0.0000 l 0.0000,2.5000 l -2.5000,0.0000 l 0.0000,2.5000 v 2.5000 l 0.0000,2.5000 l -2.5000,0.0000 l -0.0000,-2.5000 l -2.5000,0.0000 l -2.5000,0.0000 l -0.0000,-2.5000 l -2.5000,0.0000 l 0.0000,2.5000 l 0.0000,2.5000 l 0.0000,2.5000 l 0.0000,2.5000 l -2.5000,0.0000 l -0.0000,-2.5000 l -2.5000,0.0000 l -2.5000,0.0000 l -0.0000,-2.5000 l -2.5000,0.0000 l 0.0000,2.5000 l 0.0000,2.5000 l 0.0000,2.5000 l -2.5000,0.0000 l 0.0000,2.5000 l 2.5000,-0.0000 l 2.5000,-0.0000 l -0.0000,-2.5000 l -0.0000,-2.5000 l 2.5000,-0.0000 l 0.0000,2.5000 l 2.5000,-0.0000 l 0.0000,2.5000 l -2.5000,0.0000 l 0.0000,2.5000 l 2.5000,-0.0000 l 2.5000,-0.0000 v 2.5000 l 0.0000,2.5000 l -2.5000,0.0000 l -0.0000,-2.5000 l -2.5000,0.0000 l 0.0000,2.5000 l -2.5000,0.0000 l 0.0000,2.5000 l 2.5000,-0.0000 h 2.5000 v 2.5000 l 0.0000,2.5000 l -2.5000,0.0000 l -0.0000,-2.5000 l -2.5000,0.0000 h -2.5000 l -2.5000,0.0000 l -0.0000,-2.5000 l 2.5000,-0.0000 l -0.0000,-2.5000 l -0.0000,-2.5000 l 2.5000,-0.0000 l -0.0000,-2.5000 l -2.5000,0.0000 l -2.5000,0.0000 l 0.0000,2.5000 l 0.0000,2.5000 l -2.5000,0.0000 l -0.0000,-2.5000 l -2.5000,0.0000 l -2.5000,0.0000 l -0.0000,-2.5000 l -2.5000,0.0000 l 0.0000,2.5000 l 0.0000,2.5000 l 0.0000,2.5000 l -2.5000,0.0000 l 0.0000,2.5000 l 2.5000,-0.0000 l 2.5000,-0.0000 l -0.0000,-2.5000 l -0.0000,-2.5000 l 2.5000,-0.0000 l 0.0000,2.5000 l 2.5000,-0.0000 l 0.0000,2.5000 l -2.5000,0.0000 l 0.0000,2.5000 l 2.5000,-0.0000 l 2.5000,-0.0000 l 2.5000,-0.0000 l 2.5000,-0.0000 l 0.0000,2.5000 l -2.5000,0.0000 l 0.0000,2.5000 l 0.0000,2.5000 l -2.5000,0.0000 l 0.0000,2.5000 l 2.5000,-0.0000 h 2.5000 l 2.5000,-0.0000 l 0.0000,2.5000 l 2.5000,-0.0000 l -0.0000,-2.5000 v -2.5000 h -2.5000 l -2.5000,0.0000 l -0.0000,-2.5000 l 2.5000,-0.0000 l -0.0000,-2.5000 l 2.5000,-0.0000 l 0.0000,2.5000 l 2.5000,-0.0000 l -0.0000,-2.5000 v -2.5000 l 0.0000,-2.5000 v -2.5000 l 2.5000,-0.0000 v 2.5000 l 2.5000,-0.0000 l -0.0000,-2.5000 l 2.5000,-0.0000 l -0.0000,-2.5000 l -2.5000,0.0000 l -2.5000,-0.0000 l 0.0000,-2.5000 v -2.5000 l 2.5000,-0.0000 v 2.5000 l 2.5000,-0.0000 l 2.5000,0.0000 l 2.5000,-0.0000 l 0.0000,2.5000 l -2.5000,0.0000 l 0.0000,2.5000 l 0.0000,2.5000 l -2.5000,0.0000 l 0.0000,2.5000 l 2.5000,-0.0000 l 2.5000,-0.0000 l 0.0000,2.5000 l 0.0000,2.5000 l -2.5000,0.0000 l -0.0000,-2.5000 l -2.5000,0.0000 l -2.5000,0.0000 l -0.0000,-2.5000 l -2.5000,0.0000 l 0.0000,2.5000 l -0.0000,2.5000 l 0.0000,2.5000 h -2.5000 l 0.0000,2.5000 h 2.5000 l 2.5000,0.0000 l 0.0000,-2.5000 l -0.0000,-2.5000 l 2.5000,-0.0000 l 0.0000,2.5000 l 2.5000,-0.0000 l 0.0000,2.5000 h -2.5000 l 0.0000,2.5000 h 2.5000 l 2.5000,0.0000 h 2.5000 l 2.5000,-0.0000 l 0.0000,2.5000 l -2.5000,0.0000 l 0.0000,2.5000 l 2.5000,-0.0000 l 0.0000,2.5000 l 2.5000,-0.0000 l -0.0000,-2.5000 v -2.5000 h 2.5000 l 2.5000,-0.0000 l 0.0000,2.5000 l -2.5000,0.0000 l 0.0000,2.5000 v 2.5000 l 0.0000,2.5000 l -2.5000,0.0000 l -0.0000,-2.5000 l -2.5000,0.0000 l -2.5000,0.0000 l -0.0000,-2.5000 l -2.5000,0.0000 l 0.0000,2.5000 l 0.0000,2.5000 l 0.0000,2.5000 l 0.0000,2.5000 l -2.5000,0.0000 l -0.0000,-2.5000 l -2.5000,0.0000 l 0.0000,2.5000 l -2.5000,0.0000 l 0.0000,2.5000 l 2.5000,-0.0000 l 2.5000,-0.0000 l 0.0000,2.5000 l 0.0000,2.5000 l -2.5000,0.0000 l -0.0000,-2.5000 l -2.5000,0.0000 l -2.5000,0.0000 l -2.5000,0.0000 l -0.0000,-2.5000 l 2.5000,-0.0000 l -0.0000,-2.5000 l -0.0000,-2.5000 l 2.5000,-0.0000 l -0.0000,-2.5000 l -2.5000,0.0000 l -2.5000,0.0000 l -0.0000,-2.5000 l -0.0000,-2.5000 l 2.5000,-0.0000 l 0.0000,2.5000 l 2.5000,-0.0000 l 2.5000,-0.0000 l 0.0000,2.5000 l 2.5000,-0.0000 l -0.0000,-2.5000 v -2.5000 l -0.0000,-2.5000 l 2.5000,-0.0000 l -0.0000,-2.5000 l -2.5000,0.0000 h -2.5000 v 2.5000 l 0.0000,2.5000 l -2.5000,0.0000 l -0.0000,-2.5000 l -2.5000,0.0000 l -0.0000,-2.5000 l 2.5000,-0.0000 l -0.0000,-2.5000 l -2.5000,0.0000 h -2.5000 l 0.0000,2.5000 l 0.0000,2.5000 l -2.5000,0.0000 l -0.0000,-2.5000 l -2.5000,0.0000 l 0.0000,2.5000 l -2.5000,0.0000 l 0.0000,2.5000 l 2.5000,-0.0000 l 2.5000,-0.0000 l 0.0000,2.5000 l 0.0000,2.5000 l -2.5000,0.0000 l -0.0000,-2.5000 l -2.5000,0.0000 l -2.5000,0.0000 l -2.5000,0.0000 l -0.0000,-2.5000 l 2.5000,-0.0000 l -0.0000,-2.5000 l -0.0000,-2.5000 l 2.5000,-0.0000 l -0.0000,-2.5000 l -2.5000,0.0000 l -2.5000,0.0000 l -2.5000,0.0000 l -2.5000,0.0000 l -0.0000,-2.5000 l 2.5000,-0.0000 l -0.0000,-2.5000 l -0.0000,-2.5000 l 2.5000,-0.0000 l -0.0000,-2.5000 l -2.5000,0.0000 h -2.5000 l -2.5000,0.0000 l -0.0000,-2.5000 l -2.5000,0.0000 l 0.0000,2.5000 v 2.5000 h 2.5000 l 2.5000,-0.0000 l 0.0000,2.5000 l -2.5000,0.0000 l 0.0000,2.5000 l -2.5000,0.0000 l -0.0000,-2.5000 l -2.5000,0.0000 l 0.0000,2.5000 v 2.5000 l -2.5000,-0.0000 h -2.5000 l -0.0000,-2.5000 h 2.5000 l -0.0000,-2.5000 l -2.5000,0.0000 l -0.0000,-2.5000 l -2.5000,0.0000 l 0.0000,2.5000 l -0.0000,2.5000 l -2.5000,-0.0000 h -2.5000 l -0.0000,-2.5000 h 2.5000 l -0.0000,-2.5000 l 0.0000,-2.5000 l -0.0000,-2.5000 l 2.5000,-0.0000 l 0.0000,2.5000 l 2.5000,-0.0000 l 2.5000,-0.0000 l 0.0000,2.5000 l 2.5000,-0.0000 l -0.0000,-2.5000 l -0.0000,-2.5000 l -2.5000,0.0000 l -2.5000,0.0000 l -0.0000,-2.5000 l 2.5000,-0.0000 l -0.0000,-2.5000 l -0.0000,-2.5000 l 2.5000,-0.0000 l -0.0000,-2.5000 l -2.5000,0.0000 h -2.5000 l -2.5000,0.0000 l -0.0000,-2.5000 l -2.5000,0.0000 l 0.0000,2.5000 v 2.5000 h 2.5000 l 2.5000,-0.0000 l 0.0000,2.5000 l -2.5000,0.0000 l 0.0000,2.5000 l -2.5000,0.0000 l -0.0000,-2.5000 l -2.5000,0.0000 l 0.0000,2.5000 v 2.5000 l 0.0000,2.5000 l 0.0000,2.5000 l -2.5000,0.0000 l -0.0000,-2.5000 l -2.5000,0.0000 l -2.5000,0.0000 l -0.0000,-2.5000 l -2.5000,0.0000 l 0.0000,2.5000 l -0.0000,2.5000 l 0.0000,2.5000 h -2.5000 l 0.0000,2.5000 h 2.5000 l 2.5000,0.0000 l 0.0000,-2.5000 l -0.0000,-2.5000 l 2.5000,-0.0000 l 0.0000,2.5000 l 2.5000,-0.0000 l 0.0000,2.5000 h -2.5000 l 0.0000,2.5000 h 2.5000 l 2.5000,0.0000 l 2.5000,0.0000 l 2.5000,0.0000 v 2.5000 l -2.5000,-0.0000 v 2.5000 l 2.5000,-0.0000 v 2.5000 l 2.5000,-0.0000 v -2.5000 l 0.0000,-2.5000 l 2.5000,0.0000 l 2.5000,0.0000 v 2.5000 l -2.5000,-0.0000 v 2.5000 l -0.0000,2.5000 v 2.5000 l -2.5000,0.0000 v -2.5000 l -2.5000,0.0000 l -2.5000,0.0000 l -0.0000,-2.5000 l -2.5000,0.0000 l 0.0000,2.5000 v 2.5000 l 0.0000,2.5000 l 0.0000,2.5000 l -2.5000,0.0000 l -0.0000,-2.5000 l -2.5000,0.0000 l -2.5000,0.0000 l -0.0000,-2.5000 l -2.5000,0.0000 l 0.0000,2.5000 l -0.0000,2.5000 l 0.0000,2.5000 h -2.5000 l 0.0000,2.5000 h 2.5000 l 2.5000,0.0000 l 0.0000,-2.5000 l -0.0000,-2.5000 l 2.5000,-0.0000 l 0.0000,2.5000 l 2.5000,-0.0000 l 0.0000,2.5000 h -2.5000 l 0.0000,2.5000 h 2.5000 l 2.5000,0.0000 l -0.0000,2.5000 l -0.0000,2.5000 h -2.5000 l 0.0000,-2.5000 h -2.5000 l 0.0000,2.5000 h -2.5000 l 0.0000,2.5000 h 2.5000 l 2.5000,0.0000 l -0.0000,2.5000 l -0.0000,2.5000 h -2.5000 l 0.0000,-2.5000 h -2.5000 l -2.5000,-0.0000 h -2.5000 l -0.0000,-2.5000 h 2.5000 l -0.0000,-2.5000 l -0.0000,-2.5000 l 2.5000,-0.0000 l -0.0000,-2.5000 l -2.5000,0.0000 h -2.5000 l 0.0000,2.5000 l 0.0000,2.5000 l -2.5000,0.0000 l -0.0000,-2.5000 l -2.5000,0.0000 l -2.5000,0.0000 l -0.0000,-2.5000 l -2.5000,0.0000 l 0.0000,2.5000 l -0.0000,2.5000 l 0.0000,2.5000 h -2.5000 l 0.0000,2.5000 h 2.5000 l 2.5000,0.0000 l 0.0000,-2.5000 l -0.0000,-2.5000 l 2.5000,-0.0000 l 0.0000,2.5000 l 2.5000,-0.0000 l 0.0000,2.5000 h -2.5000 l 0.0000,2.5000 h 2.5000 l 2.5000,0.0000 h 2.5000 l 2.5000,-0.0000 l 0.0000,2.5000 l -2.5000,0.0000 l 0.0000,2.5000 l 0.0000,2.5000 h -2.5000 l 0.0000,2.5000 h 2.5000 l 2.5000,0.0000 h 2.5000 l -0.0000,2.5000 h 2.5000 l 0.0000,-2.5000 l 0.0000,-2.5000 l -2.5000,-0.0000 h -2.5000 l -0.0000,-2.5000 h 2.5000 l -0.0000,-2.5000 h 2.5000 l -0.0000,2.5000 h 2.5000 l 0.0000,-2.5000 l 0.0000,-2.5000 l 0.0000,-2.5000 l 0.0000,-2.5000 l 2.5000,0.0000 l -0.0000,2.5000 l 2.5000,0.0000 v -2.5000 l 2.5000,0.0000 v -2.5000 l -2.5000,-0.0000 l -2.5000,-0.0000 l 0.0000,-2.5000 l 0.0000,-2.5000 l 2.5000,0.0000 l -0.0000,2.5000 l 2.5000,0.0000 l 2.5000,0.0000 l 2.5000,0.0000 v 2.5000 l -2.5000,-0.0000 v 2.5000 l 0.0000,2.5000 l -2.5000,0.0000 l 0.0000,2.5000 l 2.5000,-0.0000 l 2.5000,0.0000 v -2.5000 l -0.0000,-2.5000 l 2.5000,-0.0000 l 0.0000,2.5000 l 2.5000,-0.0000 l 2.5000,-0.0000 v 2.5000 l 2.5000,-0.0000 v -2.5000 l 0.0000,-2.5000 v -2.5000 l 2.5000,0.0000 v -2.5000 l -2.5000,-0.0000 l -2.5000,-0.0000 l -0.0000,2.5000 v 2.5000 l -2.5000,0.0000 v -2.5000 l -2.5000,0.0000 v -2.5000 l 2.5000,0.0000 v -2.5000 l -2.5000,-0.0000 l -2.5000,-0.0000 l -2.5000,-0.0000 h -2.5000 l -0.0000,-2.5000 h 2.5000 l -0.0000,-2.5000 l -2.5000,0.0000 l -0.0000,-2.5000 l -2.5000,0.0000 l 0.0000,2.5000 l -0.0000,2.5000 l -2.5000,-0.0000 h -2.5000 l -0.0000,-2.5000 h 2.5000 l -0.0000,-2.5000 l 0.0000,-2.5000 l -0.0000,-2.5000 l 2.5000,-0.0000 l 0.0000,2.5000 l 2.5000,-0.0000 l 2.5000,-0.0000 l 0.0000,2.5000 l 2.5000,-0.0000 l -0.0000,-2.5000 l -0.0000,-2.5000 v -2.5000 l -0.0000,-2.5000 l 2.5000,-0.0000 l 0.0000,2.5000 l 2.5000,-0.0000 l -0.0000,-2.5000 l 2.5000,-0.0000 l -0.0000,-2.5000 l -2.5000,0.0000 h -2.5000 v -2.5000 l -0.0000,-2.5000 l 2.5000,-0.0000 l 0.0000,2.5000 l 2.5000,-0.0000 h 2.5000 l 2.5000,-0.0000 l 0.0000,2.5000 l -2.5000,0.0000 l 0.0000,2.5000 l 0.0000,2.5000 l -2.5000,0.0000 l 0.0000,2.5000 l 2.5000,-0.0000 l 2.5000,-0.0000 l 0.0000,2.5000 l 0.0000,2.5000 l -2.5000,0.0000 l -0.0000,-2.5000 l -2.5000,0.0000 l -2.5000,0.0000 l -0.0000,-2.5000 l -2.5000,0.0000 l 0.0000,2.5000 l -0.0000,2.5000 l 0.0000,2.5000 h -2.5000 l 0.0000,2.5000 h 2.5000 l 2.5000,0.0000 l 0.0000,-2.5000 l -0.0000,-2.5000 l 2.5000,-0.0000 l 0.0000,2.5000 l 2.5000,-0.0000 l 0.0000,2.5000 h -2.5000 l 0.0000,2.5000 h 2.5000 l 2.5000,0.0000 v -2.5000 l -0.0000,-2.5000 l 2.5000,-0.0000 l 0.0000,2.5000 l 2.5000,-0.0000 l -0.0000,-2.5000 l 2.5000,-0.0000 l -0.0000,-2.5000 l -2.5000,0.0000 h -2.5000 v -2.5000 l -0.0000,-2.5000 l 2.5000,-0.0000 l 0.0000,2.5000 l 2.5000,-0.0000 h 2.5000 l 2.5000,-0.0000 l 0.0000,2.5000 l -2.5000,0.0000 l 0.0000,2.5000 l 0.0000,2.5000 l -2.5000,0.0000 l 0.0000,2.5000 l 2.5000,-0.0000 l 2.5000,-0.0000 l 0.0000,2.5000 l 0.0000,2.5000 l -2.5000,0.0000 l -0.0000,-2.5000 l -2.5000,0.0000 l -2.5000,0.0000 l -0.0000,-2.5000 l -2.5000,0.0000 l 0.0000,2.5000 l -0.0000,2.5000 l 0.0000,2.5000 h -2.5000 l 0.0000,2.5000 h 2.5000 l 2.5000,0.0000 l 0.0000,-2.5000 l -0.0000,-2.5000 l 2.5000,-0.0000 l 0.0000,2.5000 l 2.5000,-0.0000 l 0.0000,2.5000 h -2.5000 l 0.0000,2.5000 h 2.5000 l 2.5000,0.0000 l -0.0000,2.5000 l -0.0000,2.5000 h -2.5000 l 0.0000,-2.5000 h -2.5000 l 0.0000,2.5000 h -2.5000 l 0.0000,2.5000 h 2.5000 l 2.5000,0.0000 l -0.0000,2.5000 l -0.0000,2.5000 h -2.5000 l 0.0000,-2.5000 h -2.5000 l -2.5000,-0.0000 h -2.5000 l -0.0000,-2.5000 h 2.5000 l -0.0000,-2.5000 l -0.0000,-2.5000 l 2.5000,-0.0000 l -0.0000,-2.5000 l -2.5000,0.0000 h -2.5000 l 0.0000,2.5000 l 0.0000,2.5000 l -2.5000,0.0000 l -0.0000,-2.5000 l -2.5000,0.0000 l -2.5000,0.0000 l -0.0000,-2.5000 l -2.5000,0.0000 l 0.0000,2.5000 l -0.0000,2.5000 l 0.0000,2.5000 h -2.5000 l 0.0000,2.5000 h 2.5000 l 2.5000,0.0000 l 0.0000,-2.5000 l -0.0000,-2.5000 l 2.5000,-0.0000 l 0.0000,2.5000 l 2.5000,-0.0000 l 0.0000,2.5000 h -2.5000 l 0.0000,2.5000 h 2.5000 l 2.5000,0.0000 h 2.5000 l 2.5000,-0.0000 l 0.0000,2.5000 l -2.5000,0.0000 l 0.0000,2.5000 l 0.0000,2.5000 h -2.5000 l 0.0000,2.5000 h 2.5000 l 2.5000,0.0000 h 2.5000 l -0.0000,2.5000 h 2.5000 l 0.0000,-2.5000 l 0.0000,-2.5000 l -2.5000,-0.0000 h -2.5000 l -0.0000,-2.5000 h 2.5000 l -0.0000,-2.5000 h 2.5000 l -0.0000,2.5000 h 2.5000 l 0.0000,-2.5000 l 0.0000,-2.5000 l 0.0000,-2.5000 l 0.0000,-2.5000 l 2.5000,0.0000 l -0.0000,2.5000 l 2.5000,0.0000 v -2.5000 l 2.5000,0.0000 v -2.5000 l -2.5000,-0.0000 l -2.5000,-0.0000 l 0.0000,-2.5000 l 0.0000,-2.5000 l 2.5000,0.0000 l -0.0000,2.5000 l 2.5000,0.0000 l 2.5000,0.0000 l 2.5000,0.0000 v 2.5000 l -2.5000,-0.0000 v 2.5000 l 0.0000,2.5000 l -2.5000,0.0000 l 0.0000,2.5000 l 2.5000,-0.0000 l 2.5000,0.0000 l 0.0000,-2.5000 l -0.0000,-2.5000 l 2.5000,-0.0000 l 0.0000,2.5000 l 2.5000,-0.0000 h 2.5000 l -0.0000,2.5000 h 2.5000 l 0.0000,-2.5000 l 0.0000,-2.5000 l 0.0000,-2.5000 l 2.5000,0.0000 l 0.0000,-2.5000 l -2.5000,-0.0000 l -2.5000,-0.0000 l -0.0000,2.5000 l -0.0000,2.5000 h -2.5000 l 0.0000,-2.5000 h -2.5000 l 0.0000,-2.5000 l 2.5000,0.0000 l 0.0000,-2.5000 l -2.5000,-0.0000 l -2.5000,-0.0000 l -2.5000,-0.0000 l -2.5000,-0.0000 v -2.5000 l 2.5000,0.0000 v -2.5000 l -2.5000,0.0000 v -2.5000 l -2.5000,0.0000 v 2.5000 l -0.0000,2.5000 l -2.5000,-0.0000 l -2.5000,-0.0000 v -2.5000 l 2.5000,0.0000 v -2.5000 l 0.0000,-2.5000 v -2.5000 l 2.5000,-0.0000 v 2.5000 l 2.5000,-0.0000 l 2.5000,-0.0000 l 0.0000,2.5000 l 2.5000,-0.0000 l -0.0000,-2.5000 v -2.5000 l 0.0000,-2.5000 v -2.5000 l 2.5000,-0.0000 v 2.5000 l 2.5000,-0.0000 l -0.0000,-2.5000 l 2.5000,-0.0000 l -0.0000,-2.5000 l -2.5000,0.0000 l -2.5000,-0.0000 l 0.0000,-2.5000 v -2.5000 l 2.5000,-0.0000 v 2.5000 l 2.5000,-0.0000 l 2.5000,0.0000 l 2.5000,-0.0000 l 0.0000,2.5000 l -2.5000,0.0000 l 0.0000,2.5000 l 0.0000,2.5000 l -2.5000,0.0000 l 0.0000,2.5000 l 2.5000,-0.0000 l 2.5000,-0.0000 v 2.5000 l 0.0000,2.5000 l -2.5000,0.0000 l -0.0000,-2.5000 l -2.5000,0.0000 l -2.5000,0.0000 v -2.5000 l -2.5000,0.0000 v 2.5000 l -0.0000,2.5000 v 2.5000 l -2.5000,-0.0000 v 2.5000 l 2.5000,0.0000 l 2.5000,0.0000 l 0.0000,-2.5000 v -2.5000 l 2.5000,-0.0000 v 2.5000 l 2.5000,-0.0000 v 2.5000 l -2.5000,-0.0000 v 2.5000 l 2.5000,0.0000 l 2.5000,0.0000 l 0.0000,-2.5000 v -2.5000 l 2.5000,-0.0000 v 2.5000 l 2.5000,-0.0000 l -0.0000,-2.5000 l 2.5000,-0.0000 l -0.0000,-2.5000 l -2.5000,0.0000 l -2.5000,-0.0000 l 0.0000,-2.5000 v -2.5000 l 2.5000,-0.0000 v 2.5000 l 2.5000,-0.0000 l 2.5000,0.0000 l 2.5000,-0.0000 l 0.0000,2.5000 l -2.5000,0.0000 l 0.0000,2.5000 l 0.0000,2.5000 l -2.5000,0.0000 l 0.0000,2.5000 l 2.5000,-0.0000 l 2.5000,-0.0000 l -0.0000,-2.5000 l -0.0000,-2.5000 l 2.5000,-0.0000 l 0.0000,2.5000 l 2.5000,-0.0000 l 2.5000,-0.0000 l 0.0000,2.5000 l 2.5000,-0.0000 l -0.0000,-2.5000 v -2.5000 l -0.0000,-2.5000 l 2.5000,-0.0000 l -0.0000,-2.5000 l -2.5000,0.0000 h -2.5000 v 2.5000 l 0.0000,2.5000 l -2.5000,0.0000 l -0.0000,-2.5000 l -2.5000,0.0000 l -0.0000,-2.5000 l 2.5000,-0.0000 l -0.0000,-2.5000 l -2.5000,0.0000 h -2.5000 l 0.0000,-2.5000 v -2.5000 l 2.5000,-0.0000 v 2.5000 l 2.5000,-0.0000 l -0.0000,-2.5000 l 2.5000,-0.0000 l -0.0000,-2.5000 l -2.5000,0.0000 l -2.5000,-0.0000 l 0.0000,-2.5000 v -2.5000 l 2.5000,-0.0000 v 2.5000 l 2.5000,-0.0000 l 2.5000,0.0000 l 2.5000,-0.0000 l 0.0000,2.5000 l -2.5000,0.0000 l 0.0000,2.5000 l 0.0000,2.5000 l -2.5000,0.0000 l 0.0000,2.5000 l 2.5000,-0.0000 l 2.5000,-0.0000 l -0.0000,-2.5000 l -0.0000,-2.5000 l 2.5000,-0.0000 l 0.0000,2.5000 l 2.5000,-0.0000 l 2.5000,-0.0000 l 0.0000,2.5000 l 2.5000,-0.0000 l -0.0000,-2.5000 v -2.5000 l -0.0000,-2.5000 l 2.5000,-0.0000 l -0.0000,-2.5000 l -2.5000,0.0000 h -2.5000 v 2.5000 l 0.0000,2.5000 l -2.5000,0.0000 l -0.0000,-2.5000 l -2.5000,0.0000 l -0.0000,-2.5000 l 2.5000,-0.0000 l -0.0000,-2.5000 l -2.5000,0.0000 h -2.5000 l -2.5000,0.0000 l -2.5000,0.0000 l -0.0000,-2.5000 l 2.5000,-0.0000 l -0.0000,-2.5000 l -0.0000,-2.5000 l 2.5000,-0.0000 l -0.0000,-2.5000 l -2.5000,0.0000 l -2.5000,-0.0000 l -2.5000,0.0000 v -2.5000 l -2.5000,0.0000 v 2.5000 l -0.0000,2.5000 l 2.5000,0.0000 l 2.5000,-0.0000 l 0.0000,2.5000 l -2.5000,0.0000 l 0.0000,2.5000 l -2.5000,0.0000 v -2.5000 l -2.5000,0.0000 v 2.5000 l -0.0000,2.5000 l -0.0000,2.5000 l -0.0000,2.5000 h -2.5000 l 0.0000,-2.5000 h -2.5000 l 0.0000,2.5000 h -2.5000 l 0.0000,2.5000 h 2.5000 l 2.5000,0.0000 l -0.0000,2.5000 l -0.0000,2.5000 h -2.5000 l 0.0000,-2.5000 h -2.5000 l -2.5000,-0.0000 h -2.5000 l -0.0000,-2.5000 h 2.5000 l -0.0000,-2.5000 l -0.0000,-2.5000 l 2.5000,-0.0000 l -0.0000,-2.5000 l -2.5000,0.0000 h -2.5000 l 0.0000,-2.5000 l -0.0000,-2.5000 l 2.5000,-0.0000 l 0.0000,2.5000 l 2.5000,-0.0000 h 2.5000 l -0.0000,2.5000 h 2.5000 l 0.0000,-2.5000 l 0.0000,-2.5000 l 0.0000,-2.5000 l 2.5000,0.0000 l 0.0000,-2.5000 l -2.5000,-0.0000 l -2.5000,-0.0000 l -0.0000,2.5000 l -0.0000,2.5000 h -2.5000 l 0.0000,-2.5000 h -2.5000 l 0.0000,-2.5000 l 2.5000,0.0000 l 0.0000,-2.5000 l -2.5000,-0.0000 l -2.5000,-0.0000 l -2.5000,-0.0000 l -2.5000,-0.0000 v -2.5000 l 2.5000,0.0000 v -2.5000 l -2.5000,0.0000 v -2.5000 l -2.5000,0.0000 v 2.5000 l -0.0000,2.5000 l -2.5000,-0.0000 l -2.5000,-0.0000 v -2.5000 l 2.5000,0.0000 v -2.5000 l 0.0000,-2.5000 v -2.5000 l 2.5000,-0.0000 v 2.5000 l 2.5000,-0.0000 l 2.5000,-0.0000 l 0.0000,2.5000 l 2.5000,-0.0000 l -0.0000,-2.5000 v -2.5000 l 0.0000,-2.5000 v -2.5000 l 2.5000,-0.0000 v 2.5000 l 2.5000,-0.0000 l -0.0000,-2.5000 l 2.5000,-0.0000 l -0.0000,-2.5000 l -2.5000,0.0000 l -2.5000,-0.0000 l 0.0000,-2.5000 v -2.5000 l 2.5000,-0.0000 v 2.5000 l 2.5000,-0.0000 l 2.5000,0.0000 l 2.5000,-0.0000 l 0.0000,2.5000 l -2.5000,0.0000 l 0.0000,2.5000 l 0.0000,2.5000 l -2.5000,0.0000 l 0.0000,2.5000 l 2.5000,-0.0000 l 2.5000,-0.0000 v 2.5000 l 0.0000,2.5000 l -2.5000,0.0000 l -0.0000,-2.5000 l -2.5000,0.0000 l -2.5000,0.0000 v -2.5000 l -2.5000,0.0000 v 2.5000 l -0.0000,2.5000 v 2.5000 l -2.5000,-0.0000 v 2.5000 l 2.5000,0.0000 l 2.5000,0.0000 l 0.0000,-2.5000 v -2.5000 l 2.5000,-0.0000 v 2.5000 l 2.5000,-0.0000 v 2.5000 l -2.5000,-0.0000 v 2.5000 l 2.5000,0.0000 l 2.5000,0.0000 l 0.0000,-2.5000 v -2.5000 l 2.5000,-0.0000 v 2.5000 l 2.5000,-0.0000 l -0.0000,-2.5000 l 2.5000,-0.0000 l -0.0000,-2.5000 l -2.5000,0.0000 l -2.5000,-0.0000 l 0.0000,-2.5000 v -2.5000 l 2.5000,-0.0000 v 2.5000 l 2.5000,-0.0000 l 2.5000,0.0000 l 2.5000,-0.0000 l 0.0000,2.5000 l -2.5000,0.0000 l 0.0000,2.5000 l 0.0000,2.5000 l -2.5000,0.0000 l 0.0000,2.5000 l 2.5000,-0.0000 l 2.5000,-0.0000 h 2.5000 l 2.5000,-0.0000 l 0.0000,2.5000 l -2.5000,0.0000 l 0.0000,2.5000 l 0.0000,2.5000 h -2.5000 l 0.0000,2.5000 h 2.5000 l 2.5000,0.0000 h 2.5000 l -0.0000,2.5000 h 2.5000 l 0.0000,-2.5000 l 0.0000,-2.5000 l -2.5000,-0.0000 h -2.5000 l -0.0000,-2.5000 h 2.5000 l -0.0000,-2.5000 h 2.5000 l -0.0000,2.5000 h 2.5000 l 0.0000,-2.5000 l 0.0000,-2.5000 l 0.0000,-2.5000 v -2.5000 l 2.5000,-0.0000 v 2.5000 l 2.5000,-0.0000 l -0.0000,-2.5000 l 2.5000,-0.0000 l -0.0000,-2.5000 l -2.5000,0.0000 l -2.5000,-0.0000 l 0.0000,-2.5000 v -2.5000 l 2.5000,-0.0000 v 2.5000 l 2.5000,-0.0000 l 2.5000,0.0000 l 2.5000,-0.0000 l 0.0000,2.5000 l -2.5000,0.0000 l 0.0000,2.5000 l 0.0000,2.5000 l -2.5000,0.0000 l 0.0000,2.5000 l 2.5000,-0.0000 l 2.5000,-0.0000 h 2.5000 l 2.5000,-0.0000 l 0.0000,2.5000 l -2.5000,0.0000 l 0.0000,2.5000 l 2.5000,-0.0000 l 0.0000,2.5000 l 2.5000,-0.0000 l -0.0000,-2.5000 v -2.5000 h 2.5000 l 2.5000,-0.0000 l 0.0000,2.5000 l -2.5000,0.0000 l 0.0000,2.5000 v 2.5000 l 0.0000,2.5000 l -2.5000,0.0000 l -0.0000,-2.5000 l -2.5000,0.0000 l -2.5000,0.0000 l -0.0000,-2.5000 l -2.5000,0.0000 l 0.0000,2.5000 l 0.0000,2.5000 l -2.5000,0.0000 l -2.5000,0.0000 l -0.0000,-2.5000 l 2.5000,-0.0000 l -0.0000,-2.5000 l -0.0000,-2.5000 l 2.5000,-0.0000 l -0.0000,-2.5000 l -2.5000,0.0000 l -2.5000,-0.0000 l -2.5000,0.0000 v -2.5000 l -2.5000,0.0000 v 2.5000 l -0.0000,2.5000 l 2.5000,0.0000 l 2.5000,-0.0000 l 0.0000,2.5000 l -2.5000,0.0000 l 0.0000,2.5000 l -2.5000,0.0000 v -2.5000 l -2.5000,0.0000 v 2.5000 l -0.0000,2.5000 h 2.5000 l 2.5000,-0.0000 l 0.0000,2.5000 l -2.5000,0.0000 l 0.0000,2.5000 l 2.5000,-0.0000 l 0.0000,2.5000 l 2.5000,-0.0000 l -0.0000,-2.5000 v -2.5000 h 2.5000 l 2.5000,-0.0000 l 0.0000,2.5000 l -2.5000,0.0000 l 0.0000,2.5000 v 2.5000 l 0.0000,2.5000 l -2.5000,0.0000 l -0.0000,-2.5000 l -2.5000,0.0000 l -2.5000,0.0000 l -0.0000,-2.5000 l -2.5000,0.0000 l 0.0000,2.5000 l 0.0000,2.5000 l 0.0000,2.5000 l 0.0000,2.5000 l -2.5000,0.0000 l -0.0000,-2.5000 l -2.5000,0.0000 l -2.5000,0.0000 l -0.0000,-2.5000 l -2.5000,0.0000 l 0.0000,2.5000 l 0.0000,2.5000 l 0.0000,2.5000 l -2.5000,0.0000 l 0.0000,2.5000 l 2.5000,-0.0000 l 2.5000,-0.0000 l -0.0000,-2.5000 l -0.0000,-2.5000 l 2.5000,-0.0000 l 0.0000,2.5000 l 2.5000,-0.0000 l 0.0000,2.5000 l -2.5000,0.0000 l 0.0000,2.5000 l 2.5000,-0.0000 l 2.5000,-0.0000 v 2.5000 l 0.0000,2.5000 l -2.5000,0.0000 l -0.0000,-2.5000 l -2.5000,0.0000 l 0.0000,2.5000 l -2.5000,0.0000 l 0.0000,2.5000 l 2.5000,-0.0000 h 2.5000 v 2.5000 l 0.0000,2.5000 l -2.5000,0.0000 l -0.0000,-2.5000 l -2.5000,0.0000 h -2.5000 l -2.5000,0.0000 l -0.0000,-2.5000 l 2.5000,-0.0000 l -0.0000,-2.5000 l -0.0000,-2.5000 l 2.5000,-0.0000 l -0.0000,-2.5000 l -2.5000,0.0000 l -2.5000,0.0000 l 0.0000,2.5000 l 0.0000,2.5000 l -2.5000,0.0000 l -0.0000,-2.5000 l -2.5000,0.0000 l -2.5000,0.0000 l -0.0000,-2.5000 l -2.5000,0.0000 l 0.0000,2.5000 l 0.0000,2.5000 l 0.0000,2.5000 l -2.5000,0.0000 l 0.0000,2.5000 l 2.5000,-0.0000 l 2.5000,-0.0000 l -0.0000,-2.5000 l -0.0000,-2.5000 l 2.5000,-0.0000 l 0.0000,2.5000 l 2.5000,-0.0000 l 0.0000,2.5000 l -2.5000,0.0000 l 0.0000,2.5000 l 2.5000,-0.0000 l 2.5000,-0.0000 l 2.5000,-0.0000 l 2.5000,-0.0000 l 0.0000,2.5000 l -2.5000,0.0000 l 0.0000,2.5000 l 0.0000,2.5000 l -2.5000,0.0000 l 0.0000,2.5000 l 2.5000,-0.0000 h 2.5000 l 2.5000,-0.0000 l 0.0000,2.5000 l 2.5000,-0.0000 l -0.0000,-2.5000 v -2.5000 h -2.5000 l -2.5000,0.0000 l -0.0000,-2.5000 l 2.5000,-0.0000 l -0.0000,-2.5000 l 2.5000,-0.0000 l 0.0000,2.5000 l 2.5000,-0.0000 l -0.0000,-2.5000 v -2.5000 l 0.0000,-2.5000 v -2.5000 l 2.5000,-0.0000 v 2.5000 l 2.5000,-0.0000 l -0.0000,-2.5000 l 2.5000,-0.0000 l -0.0000,-2.5000 l -2.5000,0.0000 l -2.5000,-0.0000 l 0.0000,-2.5000 v -2.5000 l 2.5000,-0.0000 v 2.5000 l 2.5000,-0.0000 l 2.5000,0.0000 l 2.5000,-0.0000 l 0.0000,2.5000 l -2.5000,0.0000 l 0.0000,2.5000 l 0.0000,2.5000 l -2.5000,0.0000 l 0.0000,2.5000 l 2.5000,-0.0000 l 2.5000,-0.0000 "/></g><g stroke-linejoin="miter" stroke-opacity="1.0" fill-opacity="0.0" stroke="rgb(0,0,0)" stroke-width="1.6248076809271919" fill="rgb(0,0,0)" stroke-linecap="butt" stroke-miterlimit="10.0"><path d="M 218.7500,231.2500 l 25.0000,-12.5000 l 25.0000,-12.5000 l -12.5000,-25.0000 l -25.0000,12.5000 l -12.5000,-25.0000 l -12.5000,-25.0000 l -25.0000,12.5000 l -12.5000,-25.0000 l 25.0000,-12.5000 l 25.0000,-12.5000 l 25.0000,-12.5000 l -12.5000,-25.0000 l 25.0000,-12.5000 l 12.5000,25.0000 l 12.5000,25.0000 l -25.0000,12.5000 l -25.0000,12.5000 l 12.5000,25.0000 l 25.0000,-12.5000 l 12.5000,25.0000 l 25.0000,-12.5000 l -12.5000,-25.0000 l 25.0000,-12.5000 l 12.5000,25.0000 l 12.5000,25.0000 "/></g><g stroke-linejoin="miter" stroke-opacity="1.0" fill-opacity="0.0" stroke="rgb(0,0,0)" stroke-width="1.6248076809271919" fill="rgb(0,0,0)" stroke-linecap="butt" stroke-miterlimit="10.0"><path d="M 156.2500,168.7500 l -50.7833,0.0000 "/></g><g stroke-linejoin="miter" stroke-opacity="1.0" fill-opacity="1.0" stroke="rgb(0,0,0)" stroke-width="0.0" fill="rgb(0,0,0)" stroke-linecap="butt" stroke-miterlimit="10.0"></g><g stroke-linejoin="miter" stroke-opacity="1.0" fill-opacity="1.0" stroke="rgb(0,0,0)" stroke-width="0.0" fill="rgb(0,0,0)" stroke-linecap="butt" stroke-miterlimit="10.0"></g><g stroke-linejoin="miter" stroke-opacity="1.0" fill-opacity="1.0" stroke="rgb(0,0,0)" stroke-width="0.0" fill="rgb(0,0,0)" stroke-linecap="butt" stroke-miterlimit="10.0"><path d="M 91.2497,167.9376 l 16.1158,5.2363 l -2.7529,-5.2363 Z"/></g><g stroke-linejoin="miter" stroke-opacity="1.0" fill-opacity="1.0" stroke="rgb(0,0,0)" stroke-width="0.0" fill="rgb(0,0,0)" stroke-linecap="butt" stroke-miterlimit="10.0"><path d="M 104.6125,167.9376 l 0.8542,-0.0000 l 0.0000,1.6248 Z"/></g><g stroke-linejoin="miter" stroke-opacity="1.0" fill-opacity="0.0" stroke="rgb(0,0,0)" stroke-width="1.6248076809271919" fill="rgb(0,0,0)" stroke-linecap="butt" stroke-miterlimit="10.0"><path d="M 93.7500,106.2500 l 0.0000,50.7833 "/></g><g stroke-linejoin="miter" stroke-opacity="1.0" fill-opacity="1.0" stroke="rgb(0,0,0)" stroke-width="0.0" fill="rgb(0,0,0)" stroke-linecap="butt" stroke-miterlimit="10.0"></g><g stroke-linejoin="miter" stroke-opacity="1.0" fill-opacity="1.0" stroke="rgb(0,0,0)" stroke-width="0.0" fill="rgb(0,0,0)" stroke-linecap="butt" stroke-miterlimit="10.0"></g><g stroke-linejoin="miter" stroke-opacity="1.0" fill-opacity="1.0" stroke="rgb(0,0,0)" stroke-width="0.0" fill="rgb(0,0,0)" stroke-linecap="butt" stroke-miterlimit="10.0"><path d="M 92.9376,171.2503 l 5.2363,-16.1158 l -5.2363,2.7529 Z"/></g><g stroke-linejoin="miter" stroke-opacity="1.0" fill-opacity="1.0" stroke="rgb(0,0,0)" stroke-width="0.0" fill="rgb(0,0,0)" stroke-linecap="butt" stroke-miterlimit="10.0"><path d="M 92.9376,157.8875 l -0.0000,-0.8542 l 1.6248,-0.0000 Z"/></g><g stroke-linejoin="miter" stroke-opacity="1.0" fill-opacity="0.0" stroke="rgb(0,0,0)" stroke-width="1.6248076809271919" fill="rgb(0,0,0)" stroke-linecap="butt" stroke-miterlimit="10.0"><path d="M 93.7500,106.2500 l -50.7833,0.0000 "/></g><g stroke-linejoin="miter" stroke-opacity="1.0" fill-opacity="1.0" stroke="rgb(0,0,0)" stroke-width="0.0" fill="rgb(0,0,0)" stroke-linecap="butt" stroke-miterlimit="10.0"></g><g stroke-linejoin="miter" stroke-opacity="1.0" fill-opacity="1.0" stroke="rgb(0,0,0)" stroke-width="0.0" fill="rgb(0,0,0)" stroke-linecap="butt" stroke-miterlimit="10.0"></g><g stroke-linejoin="miter" stroke-opacity="1.0" fill-opacity="1.0" stroke="rgb(0,0,0)" stroke-width="0.0" fill="rgb(0,0,0)" stroke-linecap="butt" stroke-miterlimit="10.0"><path d="M 28.7497,105.4376 l 16.1158,5.2363 l -2.7529,-5.2363 Z"/></g><g stroke-linejoin="miter" stroke-opacity="1.0" fill-opacity="1.0" stroke="rgb(0,0,0)" stroke-width="0.0" fill="rgb(0,0,0)" stroke-linecap="butt" stroke-miterlimit="10.0"><path d="M 42.1125,105.4376 l 0.8542,-0.0000 l 0.0000,1.6248 Z"/></g><g stroke-linejoin="miter" stroke-opacity="1.0" fill-opacity="0.0" stroke="rgb(0,0,0)" stroke-width="1.6248076809271919" fill="rgb(0,0,0)" stroke-linecap="butt" stroke-miterlimit="10.0"><path d="M 31.2500,106.2500 l 0.0000,50.7833 "/></g><g stroke-linejoin="miter" stroke-opacity="1.0" fill-opacity="1.0" stroke="rgb(0,0,0)" stroke-width="0.0" fill="rgb(0,0,0)" stroke-linecap="butt" stroke-miterlimit="10.0"></g><g stroke-linejoin="miter" stroke-opacity="1.0" fill-opacity="1.0" stroke="rgb(0,0,0)" stroke-width="0.0" fill="rgb(0,0,0)" stroke-linecap="butt" stroke-miterlimit="10.0"></g><g stroke-linejoin="miter" stroke-opacity="1.0" fill-opacity="1.0" stroke="rgb(0,0,0)" stroke-width="0.0" fill="rgb(0,0,0)" stroke-linecap="butt" stroke-miterlimit="10.0"><path d="M 30.4376,171.2503 l 5.2363,-16.1158 l -5.2363,2.7529 Z"/></g><g stroke-linejoin="miter" stroke-opacity="1.0" fill-opacity="1.0" stroke="rgb(0,0,0)" stroke-width="0.0" fill="rgb(0,0,0)" stroke-linecap="butt" stroke-miterlimit="10.0"><path d="M 30.4376,157.8875 l -0.0000,-0.8542 l 1.6248,-0.0000 Z"/></g><g stroke-linejoin="miter" stroke-opacity="1.0" fill-opacity="0.0" stroke="rgb(0,0,0)" stroke-width="1.6248076809271919" fill="rgb(0,0,0)" stroke-linecap="butt" stroke-miterlimit="10.0"><path d="M 31.2500,231.2500 l 0.0000,-50.7833 "/></g><g stroke-linejoin="miter" stroke-opacity="1.0" fill-opacity="1.0" stroke="rgb(0,0,0)" stroke-width="0.0" fill="rgb(0,0,0)" stroke-linecap="butt" stroke-miterlimit="10.0"></g><g stroke-linejoin="miter" stroke-opacity="1.0" fill-opacity="1.0" stroke="rgb(0,0,0)" stroke-width="0.0" fill="rgb(0,0,0)" stroke-linecap="butt" stroke-miterlimit="10.0"></g><g stroke-linejoin="miter" stroke-opacity="1.0" fill-opacity="1.0" stroke="rgb(0,0,0)" stroke-width="0.0" fill="rgb(0,0,0)" stroke-linecap="butt" stroke-miterlimit="10.0"><path d="M 32.0624,166.2497 l -5.2363,16.1158 l 5.2363,-2.7529 Z"/></g><g stroke-linejoin="miter" stroke-opacity="1.0" fill-opacity="1.0" stroke="rgb(0,0,0)" stroke-width="0.0" fill="rgb(0,0,0)" stroke-linecap="butt" stroke-miterlimit="10.0"><path d="M 32.0624,179.6125 l -0.0000,0.8542 l -1.6248,-0.0000 Z"/></g></svg>