<?xml version="1.0" encoding="UTF-8"?>
<!DOCTYPE svg PUBLIC "-//W3C//DTD SVG 1.1//EN"
    "http://www.w3.org/Graphics/SVG/1.1/DTD/svg11.dtd">
<svg xmlns="http://www.w3.org/2000/svg" xmlns:xlink="http://www.w3.org/1999/xlink" version="1.1" width="400.0" height="400.0" font-size="1" viewBox="0 0 400 400"><g><g fill="rgb(0,0,0)" fill-opacity="0.0"><g stroke="rgb(0,0,0)" stroke-opacity="1.0" stroke-width="1.6" stroke-linecap="butt" stroke-linejoin="miter" font-size="233.03027798233563em" stroke-miterlimit="10.0"><g fill="rgb(0,0,0)" fill-opacity="0.0" stroke-width="0.6000000000000002"><g fill="rgb(0,0,0)" fill-opacity="0.0"><g fill="rgb(0,0,0)" fill-opacity="0.0"><path d="M 211.45622631391882,374.4477621777013 c 0.0,-1.876701298743333 -1.5213669972186832,-3.3980682959620165 -3.3980682959620157 -3.3980682959620165c -1.876701298743333,-1.1491481192308516e-16 -3.3980682959620165,1.521366997218683 -3.3980682959620165 3.398068295962015c -2.2982962384617033e-16,1.876701298743333 1.521366997218683,3.3980682959620165 3.398068295962015 3.3980682959620165c 1.876701298743333,3.447444357692555e-16 3.3980682959620165,-1.5213669972186827 3.398068295962017 -3.398068295962015Z" /></g></g></g><g fill="rgb(0,0,0)" fill-opacity="0.0" stroke-width="0.6000000000000002"><g fill="rgb(0,0,0)" fill-opacity="0.0"><g fill="rgb(0,0,0)" fill-opacity="0.0"><path d="M 192.8070171368956,397.3061418537093 c 0.0,-1.3574981632457481 -1.1004696942075896,-2.457967857453338 -2.4579678574533377 -2.457967857453338c -1.3574981632457481,-8.312278902336583e-17 -2.457967857453338,1.1004696942075896 -2.457967857453338 2.4579678574533372c -1.6624557804673166e-16,1.3574981632457481 1.1004696942075893,2.457967857453338 2.4579678574533372 2.457967857453338c 1.3574981632457481,2.4936836707009752e-16 2.457967857453338,-1.100469694207589 2.457967857453338 -2.4579678574533372Z" /></g></g></g><g fill="rgb(0,0,0)" fill-opacity="0.0" stroke-width="0.6000000000000002"><g fill="rgb(0,0,0)" fill-opacity="0.0"><g fill="rgb(0,0,0)" fill-opacity="0.0"><path d="M 201.6732019381527,395.4159242673976 c 0.0,-2.5199173904050625 -2.0427966645767257,-4.562714054981789 -4.562714054981788 -4.562714054981789c -2.5199173904050625,-1.5430043831376552e-16 -4.562714054981789,2.0427966645767257 -4.562714054981789 4.562714054981787c -3.0860087662753105e-16,2.5199173904050625 2.0427966645767253,4.562714054981789 4.562714054981787 4.562714054981789c 2.5199173904050625,4.629013149412966e-16 4.562714054981789,-2.0427966645767253 4.562714054981789 -4.562714054981787Z" /></g></g></g><g fill="rgb(0,0,0)" fill-opacity="0.0" stroke-width="0.6000000000000002"><g fill="rgb(0,0,0)" fill-opacity="0.0"><g fill="rgb(0,0,0)" fill-opacity="0.0"><path d="M 239.9999999999997,393.1446379035706 c 0.0,-1.8901062754743148 -1.5322338779581255,-3.4223401534324407 -3.42234015343244 -3.4223401534324407c -1.8901062754743148,-1.1573563001539724e-16 -3.4223401534324407,1.5322338779581253 -3.4223401534324407 3.4223401534324394c -2.314712600307945e-16,1.8901062754743148 1.532233877958125,3.4223401534324407 3.4223401534324394 3.4223401534324407c 1.8901062754743148,3.4720689004619174e-16 3.4223401534324407,-1.532233877958125 3.422340153432441 -3.4223401534324394Z" /></g></g></g><g fill="rgb(0,0,0)" fill-opacity="0.0" stroke-width="0.6000000000000002"><g fill="rgb(0,0,0)" fill-opacity="0.0"><g fill="rgb(0,0,0)" fill-opacity="0.0"><path d="M 233.18866401337704,392.3664016610917 c 0.0,-3.1348308261544755 -2.541282496031065,-5.676113322185541 -5.67611332218554 -5.676113322185541c -3.1348308261544755,-1.9195302685592657e-16 -5.676113322185541,2.541282496031065 -5.676113322185541 5.6761133221855395c -3.8390605371185313e-16,3.1348308261544755 2.5412824960310645,5.676113322185541 5.676113322185539 5.676113322185541c 3.1348308261544755,5.758590805677797e-16 5.676113322185541,-2.541282496031064 5.676113322185544 -5.6761133221855395Z" /></g></g></g><g fill="rgb(0,0,0)" fill-opacity="0.0" stroke-width="0.6000000000000002"><g fill="rgb(0,0,0)" fill-opacity="0.0"><g fill="rgb(0,0,0)" fill-opacity="0.0"><path d="M 222.26834218422565,388.58625284492916 c 0.0,-6.1205776255437545 -4.961708509315028,-11.082286134858784 -11.082286134858782 -11.082286134858784c -6.1205776255437545,-3.7477728990275326e-16 -11.082286134858784,4.961708509315027 -11.082286134858784 11.08228613485878c -7.495545798055065e-16,6.1205776255437545 4.961708509315027,11.082286134858784 11.082286134858778 11.082286134858784c 6.1205776255437545,1.1243318697082598e-15 11.082286134858784,-4.961708509315026 11.082286134858789 -11.08228613485878Z" /></g></g></g><g fill="rgb(0,0,0)" fill-opacity="0.0" stroke-width="0.6000000000000002"><g fill="rgb(0,0,0)" fill-opacity="0.0"><g fill="rgb(0,0,0)" fill-opacity="0.0"><path d="M 200.2427097480393,345.6949050086612 c 0.0,-1.524815631996822 -1.2361073021670999,-2.760922934163922 -2.7609229341639216 -2.760922934163922c -1.524815631996822,-9.336802915073781e-17 -2.760922934163922,1.2361073021670996 -2.760922934163922 2.760922934163921c -1.8673605830147563e-16,1.524815631996822 1.2361073021670996,2.760922934163922 2.7609229341639208 2.760922934163922c 1.524815631996822,2.801040874522135e-16 2.760922934163922,-1.2361073021670994 2.7609229341639234 -2.760922934163921Z" /></g></g></g><g fill="rgb(0,0,0)" fill-opacity="0.0" stroke-width="0.6000000000000002"><g fill="rgb(0,0,0)" fill-opacity="0.0"><g fill="rgb(0,0,0)" fill-opacity="0.0"><path d="M 185.09322647976688,337.63824570330996 c 0.0,-1.6846763154243247 -1.3656999912552787,-3.050376306679604 -3.050376306679603 -3.050376306679604c -1.6846763154243247,-1.031566728641878e-16 -3.050376306679604,1.3656999912552787 -3.050376306679604 3.050376306679603c -2.063133457283756e-16,1.6846763154243247 1.3656999912552785,3.050376306679604 3.0503763066796026 3.050376306679604c 1.6846763154243247,3.094700185925634e-16 3.050376306679604,-1.3656999912552783 3.0503763066796044 -3.050376306679603Z" /></g></g></g><g fill="rgb(0,0,0)" fill-opacity="0.0" stroke-width="0.6000000000000002"><g fill="rgb(0,0,0)" fill-opacity="0.0"><g fill="rgb(0,0,0)" fill-opacity="0.0"><path d="M 202.08364377046973,327.0316004092549 c 0.0,-1.9389467884001164 -1.5718269365563704,-3.510773724956487 -3.5107737249564863 -3.510773724956487c -1.9389467884001164,-1.1872624890656214e-16 -3.510773724956487,1.5718269365563702 -3.510773724956487 3.510773724956486c -2.3745249781312427e-16,1.9389467884001164 1.57182693655637,3.510773724956487 3.5107737249564854 3.510773724956487c 1.9389467884001164,3.5617874671968643e-16 3.510773724956487,-1.5718269365563697 3.510773724956488 -3.510773724956486Z" /></g></g></g><g fill="rgb(0,0,0)" fill-opacity="0.0" stroke-width="0.6000000000000002"><g fill="rgb(0,0,0)" fill-opacity="0.0"><g fill="rgb(0,0,0)" fill-opacity="0.0"><path d="M 200.2998329703569,336.48250921750645 c 0.0,-4.216499387732121 -3.4181481179684305,-7.634647505700552 -7.63464750570055 -7.634647505700552c -4.216499387732121,-2.581861239396458e-16 -7.634647505700552,3.41814811796843 -7.634647505700552 7.634647505700549c -5.163722478792916e-16,4.216499387732121 3.4181481179684297,7.634647505700552 7.634647505700548 7.634647505700552c 4.216499387732121,7.745583718189373e-16 7.634647505700552,-3.418148117968429 7.634647505700554 -7.634647505700549Z" /></g></g></g><g fill="rgb(0,0,0)" fill-opacity="0.0" stroke-width="0.6000000000000002"><g fill="rgb(0,0,0)" fill-opacity="0.0"><g fill="rgb(0,0,0)" fill-opacity="0.0"><path d="M 138.75526062322157,386.8508515077938 c 0.0,-1.4120183221815097 -1.144667015615917,-2.5566853377974272 -2.556685337797427 -2.5566853377974272c -1.4120183221815097,-8.64611859298501e-17 -2.5566853377974272,1.144667015615917 -2.5566853377974272 2.5566853377974263c -1.729223718597002e-16,1.4120183221815097 1.1446670156159169,2.5566853377974272 2.556685337797426 2.5566853377974272c 1.4120183221815097,2.593835577895503e-16 2.5566853377974272,-1.1446670156159169 2.5566853377974286 -2.5566853377974263Z" /></g></g></g><g fill="rgb(0,0,0)" fill-opacity="0.0" stroke-width="0.6000000000000002"><g fill="rgb(0,0,0)" fill-opacity="0.0"><g fill="rgb(0,0,0)" fill-opacity="0.0"><path d="M 155.50461803903002,391.1103124222028 c 0.0,-1.6907793800062125 -1.3706475026376153,-3.0614268826438282 -3.0614268826438273 -3.0614268826438282c -1.6907793800062125,-1.0353037778944772e-16 -3.0614268826438282,1.3706475026376153 -3.0614268826438282 3.0614268826438273c -2.0706075557889544e-16,1.6907793800062125 1.370647502637615,3.0614268826438282 3.061426882643827 3.0614268826438282c 1.6907793800062125,3.1059113336834316e-16 3.0614268826438282,-1.3706475026376148 3.0614268826438287 -3.0614268826438273Z" /></g></g></g><g fill="rgb(0,0,0)" fill-opacity="0.0" stroke-width="0.6000000000000002"><g fill="rgb(0,0,0)" fill-opacity="0.0"><g fill="rgb(0,0,0)" fill-opacity="0.0"><path d="M 151.04829775301295,385.81733279663706 c 0.0,-3.411574209895855 -2.7656273350337806,-6.177201544929636 -6.177201544929634 -6.177201544929636c -3.411574209895855,-2.0889867181013095e-16 -6.177201544929636,2.76562733503378 -6.177201544929636 6.177201544929634c -4.177973436202619e-16,3.411574209895855 2.7656273350337797,6.177201544929636 6.177201544929633 6.177201544929636c 3.411574209895855,6.266960154303929e-16 6.177201544929636,-2.765627335033779 6.177201544929637 -6.177201544929634Z" /></g></g></g><g fill="rgb(0,0,0)" fill-opacity="0.0" stroke-width="0.6000000000000002"><g fill="rgb(0,0,0)" fill-opacity="0.0"><g fill="rgb(0,0,0)" fill-opacity="0.0"><path d="M 151.16959905534316,352.69437233154974 c 0.0,-2.7255375423938197 -2.2094847323093245,-4.935022274703145 -4.935022274703144 -4.935022274703145c -2.7255375423938197,-1.6689104136242673e-16 -4.935022274703145,2.2094847323093245 -4.935022274703145 4.935022274703143c -3.3378208272485345e-16,2.7255375423938197 2.209484732309324,4.935022274703145 4.935022274703143 4.935022274703145c 2.7255375423938197,5.006731240872802e-16 4.935022274703145,-2.2094847323093236 4.935022274703145 -4.935022274703143Z" /></g></g></g><g fill="rgb(0,0,0)" fill-opacity="0.0" stroke-width="0.6000000000000002"><g fill="rgb(0,0,0)" fill-opacity="0.0"><g fill="rgb(0,0,0)" fill-opacity="0.0"><path d="M 111.85243402683147,373.2976214146422 c 0.0,-2.10636745282489 -1.707548201138449,-3.8139156539633396 -3.8139156539633388 -3.8139156539633396c -2.10636745282489,-1.2897780794650824e-16 -3.8139156539633396,1.707548201138449 -3.8139156539633396 3.8139156539633383c -2.579556158930165e-16,2.10636745282489 1.7075482011384489,3.8139156539633396 3.813915653963338 3.8139156539633396c 2.10636745282489,3.8693342383952475e-16 3.8139156539633396,-1.7075482011384486 3.8139156539633405 -3.8139156539633383Z" /></g></g></g><g fill="rgb(0,0,0)" fill-opacity="0.0" stroke-width="0.6000000000000002"><g fill="rgb(0,0,0)" fill-opacity="0.0"><g fill="rgb(0,0,0)" fill-opacity="0.0"><path d="M 117.20561574541354,352.8263913158989 c 0.0,-1.8230501556094207 -1.4778741523095622,-3.3009243079189834 -3.3009243079189825 -3.3009243079189834c -1.8230501556094207,-1.1162962688760806e-16 -3.3009243079189834,1.477874152309562 -3.3009243079189834 3.3009243079189825c -2.2325925377521613e-16,1.8230501556094207 1.477874152309562,3.3009243079189834 3.300924307918982 3.3009243079189834c 1.8230501556094207,3.3488888066282416e-16 3.3009243079189834,-1.4778741523095618 3.300924307918984 -3.3009243079189825Z" /></g></g></g><g fill="rgb(0,0,0)" fill-opacity="0.0" stroke-width="0.6000000000000002"><g fill="rgb(0,0,0)" fill-opacity="0.0"><g fill="rgb(0,0,0)" fill-opacity="0.0"><path d="M 88.65932406917113,361.2805393880131 c 0.0,-1.4118774889473111 -1.1445528477220894,-2.556430336669401 -2.5564303366694006 -2.556430336669401c -1.4118774889473111,-8.645256238137636e-17 -2.556430336669401,1.1445528477220894 -2.556430336669401 2.5564303366694c -1.7290512476275272e-16,1.4118774889473111 1.1445528477220892,2.556430336669401 2.5564303366693997 2.556430336669401c 1.4118774889473111,2.593576871441291e-16 2.556430336669401,-1.144552847722089 2.5564303366694014 -2.5564303366694Z" /></g></g></g><g fill="rgb(0,0,0)" fill-opacity="0.0" stroke-width="0.6000000000000002"><g fill="rgb(0,0,0)" fill-opacity="0.0"><g fill="rgb(0,0,0)" fill-opacity="0.0"><path d="M 48.33364806165227,323.56798016116755 c 0.0,-1.3571077337339876 -1.1001531885525178,-2.4572609222865056 -2.457260922286505 -2.4572609222865056c -1.3571077337339876,-8.309888211077232e-17 -2.4572609222865056,1.1001531885525178 -2.4572609222865056 2.4572609222865047c -1.6619776422154464e-16,1.3571077337339876 1.1001531885525175,2.4572609222865056 2.4572609222865047 2.4572609222865056c 1.3571077337339876,2.4929664633231694e-16 2.4572609222865056,-1.1001531885525173 2.4572609222865065 -2.4572609222865047Z" /></g></g></g><g fill="rgb(0,0,0)" fill-opacity="0.0" stroke-width="0.6000000000000002"><g fill="rgb(0,0,0)" fill-opacity="0.0"><g fill="rgb(0,0,0)" fill-opacity="0.0"><path d="M 52.7082108105079,327.41128360036146 c 0.0,-1.6471082633420409 -1.3352450677008214,-2.9823533310428627 -2.9823533310428623 -2.9823533310428627c -1.6471082633420409,-1.008562931275493e-16 -2.9823533310428627,1.3352450677008212 -2.9823533310428627 2.982353331042862c -2.017125862550986e-16,1.6471082633420409 1.3352450677008212,2.9823533310428627 2.9823533310428614 2.9823533310428627c 1.6471082633420409,3.025688793826479e-16 2.9823533310428627,-1.335245067700821 2.982353331042863 -2.982353331042862Z" /></g></g></g><g fill="rgb(0,0,0)" fill-opacity="0.0" stroke-width="0.6000000000000002"><g fill="rgb(0,0,0)" fill-opacity="0.0"><g fill="rgb(0,0,0)" fill-opacity="0.0"><path d="M 58.32905729745269,331.93219803262934 c 0.0,-2.039310795569117 -1.653188039848504,-3.692498835417622 -3.692498835417621 -3.692498835417622c -2.039310795569117,-1.248717719130181e-16 -3.692498835417622,1.6531880398485037 -3.692498835417622 3.6924988354176205c -2.497435438260362e-16,2.039310795569117 1.6531880398485035,3.692498835417622 3.69249883541762 3.692498835417622c 2.039310795569117,3.746153157390543e-16 3.692498835417622,-1.6531880398485033 3.6924988354176227 -3.6924988354176205Z" /></g></g></g><g fill="rgb(0,0,0)" fill-opacity="0.0" stroke-width="0.6000000000000002"><g fill="rgb(0,0,0)" fill-opacity="0.0"><g fill="rgb(0,0,0)" fill-opacity="0.0"><path d="M 65.75957551202887,337.2895581035437 c 0.0,-2.5868368077621025 -2.0970455709467895,-4.683882378708892 -4.6838823787088915 -4.683882378708892c -2.5868368077621025,-1.5839807082712078e-16 -4.683882378708892,2.097045570946789 -4.683882378708892 4.683882378708891c -3.1679614165424156e-16,2.5868368077621025 2.097045570946789,4.683882378708892 4.683882378708891 4.683882378708892c 2.5868368077621025,4.751942124813623e-16 4.683882378708892,-2.0970455709467886 4.683882378708894 -4.683882378708891Z" /></g></g></g><g fill="rgb(0,0,0)" fill-opacity="0.0" stroke-width="0.6000000000000002"><g fill="rgb(0,0,0)" fill-opacity="0.0"><g fill="rgb(0,0,0)" fill-opacity="0.0"><path d="M 75.92711617911733,343.6589422665969 c 0.0,-3.3811549102624197 -2.740967620367518,-6.122122530629938 -6.1221225306299365 -6.122122530629938c -3.3811549102624197,-2.070360269137114e-16 -6.122122530629938,2.7409676203675177 -6.122122530629938 6.1221225306299365c -4.140720538274228e-16,3.3811549102624197 2.7409676203675173,6.122122530629938 6.122122530629936 6.122122530629938c 3.3811549102624197,6.211080807411342e-16 6.122122530629938,-2.740967620367517 6.122122530629939 -6.1221225306299365Z" /></g></g></g><g fill="rgb(0,0,0)" fill-opacity="0.0" stroke-width="0.6000000000000002"><g fill="rgb(0,0,0)" fill-opacity="0.0"><g fill="rgb(0,0,0)" fill-opacity="0.0"><path d="M 90.43763740934266,351.1680154345465 c 0.0,-4.588945111526858 -3.7200750323985323,-8.309020143925391 -8.30902014392539 -8.309020143925391c -4.588945111526858,-2.80991847114713e-16 -8.309020143925391,3.7200750323985314 -8.309020143925391 8.309020143925387c -5.61983694229426e-16,4.588945111526858 3.720075032398531,8.309020143925391 8.309020143925387 8.309020143925391c 4.588945111526858,8.429755413441391e-16 8.309020143925391,-3.7200750323985305 8.309020143925395 -8.309020143925387Z" /></g></g></g><g fill="rgb(0,0,0)" fill-opacity="0.0" stroke-width="0.6000000000000002"><g fill="rgb(0,0,0)" fill-opacity="0.0"><g fill="rgb(0,0,0)" fill-opacity="0.0"><path d="M 112.22772229005184,359.6461526194849 c 0.0,-6.533951891699001 -5.296814562925798,-11.8307664546248 -11.830766454624799 -11.8307664546248c -6.533951891699001,-4.0008916349759874e-16 -11.8307664546248,5.296814562925797 -11.8307664546248 11.830766454624797c -8.001783269951975e-16,6.533951891699001 5.296814562925797,11.8307664546248 11.830766454624795 11.8307664546248c 6.533951891699001,1.2002674904927962e-15 11.8307664546248,-5.296814562925796 11.830766454624806 -11.830766454624797Z" /></g></g></g><g fill="rgb(0,0,0)" fill-opacity="0.0" stroke-width="0.6000000000000002"><g fill="rgb(0,0,0)" fill-opacity="0.0"><g fill="rgb(0,0,0)" fill-opacity="0.0"><path d="M 146.91808406570397,367.69553099229483 c 0.0,-9.886100510681436 -8.014267938221588,-17.900368448903027 -17.900368448903023 -17.900368448903027c -9.886100510681436,-6.053490673227518e-16 -17.900368448903027,8.014267938221588 -17.900368448903027 17.90036844890302c -1.2106981346455035e-15,9.886100510681436 8.014267938221586,17.900368448903027 17.90036844890302 17.900368448903027c 9.886100510681436,1.8160472019682554e-15 17.900368448903027,-8.014267938221586 17.900368448903027 -17.90036844890302Z" /></g></g></g><g fill="rgb(0,0,0)" fill-opacity="0.0" stroke-width="0.6000000000000002"><g fill="rgb(0,0,0)" fill-opacity="0.0"><g fill="rgb(0,0,0)" fill-opacity="0.0"><path d="M 205.08513756224107,369.2092354477868 c 0.0,-16.069121722345095 -13.026596975787125,-29.095718698132224 -29.095718698132217 -29.095718698132224c -16.069121722345095,-9.839499241189561e-16 -29.095718698132224,13.026596975787124 -29.095718698132224 29.095718698132213c -1.9678998482379122e-15,16.069121722345095 13.026596975787124,29.095718698132224 29.09571869813221 29.095718698132224c 16.069121722345095,2.9518497723568684e-15 29.095718698132224,-13.026596975787122 29.09571869813223 -29.095718698132213Z" /></g></g></g><g fill="rgb(0,0,0)" fill-opacity="0.0" stroke-width="0.6000000000000002"><g fill="rgb(0,0,0)" fill-opacity="0.0"><g fill="rgb(0,0,0)" fill-opacity="0.0"><path d="M 305.02354554274103,347.7637507266914 c 0.0,-1.5216742619993255 -1.2335607186253055,-2.7552349806246315 -2.755234980624631 -2.7552349806246315c -1.5216742619993255,-9.317567571511925e-17 -2.7552349806246315,1.2335607186253055 -2.7552349806246315 2.7552349806246306c -1.863513514302385e-16,1.5216742619993255 1.2335607186253053,2.7552349806246315 2.75523498062463 2.7552349806246315c 1.5216742619993255,2.7952702714535774e-16 2.7552349806246315,-1.233560718625305 2.755234980624632 -2.7552349806246306Z" /></g></g></g><g fill="rgb(0,0,0)" fill-opacity="0.0" stroke-width="0.6000000000000002"><g fill="rgb(0,0,0)" fill-opacity="0.0"><g fill="rgb(0,0,0)" fill-opacity="0.0"><path d="M 321.9932972923196,356.7660653621995 c 0.0,-1.918798630630963 -1.5554936275181817,-3.474292258149145 -3.474292258149144 -3.474292258149145c -1.918798630630963,-1.1749253006052666e-16 -3.474292258149145,1.5554936275181814 -3.474292258149145 3.4742922581491436c -2.349850601210533e-16,1.918798630630963 1.5554936275181812,3.474292258149145 3.4742922581491436 3.474292258149145c 1.918798630630963,3.5247759018157995e-16 3.474292258149145,-1.555493627518181 3.4742922581491453 -3.4742922581491436Z" /></g></g></g><g fill="rgb(0,0,0)" fill-opacity="0.0" stroke-width="0.6000000000000002"><g fill="rgb(0,0,0)" fill-opacity="0.0"><g fill="rgb(0,0,0)" fill-opacity="0.0"><path d="M 294.4103662064083,374.4944997963593 c 0.0,-1.6694453049171236 -1.353352817661131,-3.022798122578255 -3.022798122578254 -3.022798122578255c -1.6694453049171236,-1.0222404245091663e-16 -3.022798122578255,1.3533528176611307 -3.022798122578255 3.022798122578254c -2.0444808490183326e-16,1.6694453049171236 1.3533528176611307,3.022798122578255 3.0227981225782536 3.022798122578255c 1.6694453049171236,3.0667212735274987e-16 3.022798122578255,-1.3533528176611305 3.0227981225782554 -3.022798122578254Z" /></g></g></g><g fill="rgb(0,0,0)" fill-opacity="0.0" stroke-width="0.6000000000000002"><g fill="rgb(0,0,0)" fill-opacity="0.0"><g fill="rgb(0,0,0)" fill-opacity="0.0"><path d="M 302.0708665560152,369.20923544778685 c 0.0,-2.6781869537241825 -2.1710994959645213,-4.849286449688704 -4.849286449688703 -4.849286449688704c -2.6781869537241825,-1.6399165401982603e-16 -4.849286449688704,2.171099495964521 -4.849286449688704 4.8492864496887025c -3.2798330803965206e-16,2.6781869537241825 2.1710994959645205,4.849286449688704 4.8492864496887025 4.849286449688704c 2.6781869537241825,4.919749620594781e-16 4.849286449688704,-2.1710994959645205 4.849286449688704 -4.8492864496887025Z" /></g></g></g><g fill="rgb(0,0,0)" fill-opacity="0.0" stroke-width="0.6000000000000002"><g fill="rgb(0,0,0)" fill-opacity="0.0"><g fill="rgb(0,0,0)" fill-opacity="0.0"><path d="M 315.2078093629166,358.7728535261049 c 0.0,-4.944776926109585 -4.00853371233289,-8.953310638442476 -8.953310638442474 -8.953310638442476c -4.944776926109585,-3.027802617528895e-16 -8.953310638442476,4.00853371233289 -8.953310638442476 8.953310638442472c -6.05560523505779e-16,4.944776926109585 4.0085337123328895,8.953310638442476 8.953310638442472 8.953310638442476c 4.944776926109585,9.083407852586686e-16 8.953310638442476,-4.008533712332889 8.953310638442476 -8.953310638442472Z" /></g></g></g><g fill="rgb(0,0,0)" fill-opacity="0.0" stroke-width="0.6000000000000002"><g fill="rgb(0,0,0)" fill-opacity="0.0"><g fill="rgb(0,0,0)" fill-opacity="0.0"><path d="M 294.9817449046813,309.77136442003535 c 0.0,-1.5815405848928412 -1.2820919622259892,-2.8636325471188306 -2.86363254711883 -2.8636325471188306c -1.5815405848928412,-9.684143075053253e-17 -2.8636325471188306,1.282091962225989 -2.8636325471188306 2.8636325471188298c -1.9368286150106507e-16,1.5815405848928412 1.2820919622259888,2.8636325471188306 2.8636325471188293 2.8636325471188306c 1.5815405848928412,2.905242922515976e-16 2.8636325471188306,-1.2820919622259885 2.863632547118831 -2.8636325471188298Z" /></g></g></g><g fill="rgb(0,0,0)" fill-opacity="0.0" stroke-width="0.6000000000000002"><g fill="rgb(0,0,0)" fill-opacity="0.0"><g fill="rgb(0,0,0)" fill-opacity="0.0"><path d="M 305.33096324310304,315.07414753907574 c 0.0,-3.340860619529819 -2.708302643720482,-6.049163263250302 -6.0491632632503 -6.049163263250302c -3.340860619529819,-2.045687132052318e-16 -6.049163263250302,2.7083026437204816 -6.049163263250302 6.0491632632503c -4.091374264104636e-16,3.340860619529819 2.708302643720481,6.049163263250302 6.049163263250299 6.049163263250302c 3.340860619529819,6.137061396156954e-16 6.049163263250302,-2.708302643720481 6.0491632632503025 -6.0491632632503Z" /></g></g></g><g fill="rgb(0,0,0)" fill-opacity="0.0" stroke-width="0.6000000000000002"><g fill="rgb(0,0,0)" fill-opacity="0.0"><g fill="rgb(0,0,0)" fill-opacity="0.0"><path d="M 349.5226585405307,331.31018609348797 c 0.0,-2.191583118581905 -1.7766291473793625,-3.9682122659612675 -3.9682122659612666 -3.9682122659612675c -2.191583118581905,-1.3419576256183517e-16 -3.9682122659612675,1.7766291473793623 -3.9682122659612675 3.968212265961266c -2.6839152512367035e-16,2.191583118581905 1.776629147379362,3.9682122659612675 3.9682122659612658 3.9682122659612675c 2.191583118581905,4.0258728768550557e-16 3.9682122659612675,-1.7766291473793618 3.9682122659612684 -3.968212265961266Z" /></g></g></g><g fill="rgb(0,0,0)" fill-opacity="0.0" stroke-width="0.6000000000000002"><g fill="rgb(0,0,0)" fill-opacity="0.0"><g fill="rgb(0,0,0)" fill-opacity="0.0"><path d="M 338.1597536447212,312.49186914949826 c 0.0,-1.8070711661709087 -1.46492062198647,-3.2719917881573792 -3.2719917881573783 -3.2719917881573792c -1.8070711661709087,-1.106511959741339e-16 -3.2719917881573792,1.4649206219864699 -3.2719917881573792 3.2719917881573783c -2.213023919482678e-16,1.8070711661709087 1.4649206219864699,3.2719917881573792 3.271991788157378 3.2719917881573792c 1.8070711661709087,3.3195358792240173e-16 3.2719917881573792,-1.4649206219864697 3.2719917881573797 -3.2719917881573783Z" /></g></g></g><g fill="rgb(0,0,0)" fill-opacity="0.0" stroke-width="0.6000000000000002"><g fill="rgb(0,0,0)" fill-opacity="0.0"><g fill="rgb(0,0,0)" fill-opacity="0.0"><path d="M 380.1735752231074,286.27255757862633 c 0.0,-1.3165940123296243 -1.0673103281994167,-2.383904340529041 -2.3839043405290408 -2.383904340529041c -1.3165940123296243,-8.061813214880225e-17 -2.383904340529041,1.0673103281994167 -2.383904340529041 2.3839043405290403c -1.612362642976045e-16,1.3165940123296243 1.0673103281994165,2.383904340529041 2.3839043405290403 2.383904340529041c 1.3165940123296243,2.4185439644640676e-16 2.383904340529041,-1.0673103281994163 2.383904340529041 -2.3839043405290403Z" /></g></g></g><g fill="rgb(0,0,0)" fill-opacity="0.0" stroke-width="0.6000000000000002"><g fill="rgb(0,0,0)" fill-opacity="0.0"><g fill="rgb(0,0,0)" fill-opacity="0.0"><path d="M 377.7827300298445,290.8382117439769 c 0.0,-1.7614652913318651 -1.427949755655282,-3.1894150469871474 -3.1894150469871465 -3.1894150469871474c -1.7614652913318651,-1.0785864154193642e-16 -3.1894150469871474,1.4279497556552818 -3.1894150469871474 3.1894150469871465c -2.1571728308387284e-16,1.7614652913318651 1.4279497556552816,3.1894150469871474 3.189415046987146 3.1894150469871474c 1.7614652913318651,3.2357592462580927e-16 3.1894150469871474,-1.4279497556552814 3.189415046987148 -3.1894150469871465Z" /></g></g></g><g fill="rgb(0,0,0)" fill-opacity="0.0" stroke-width="0.6000000000000002"><g fill="rgb(0,0,0)" fill-opacity="0.0"><g fill="rgb(0,0,0)" fill-opacity="0.0"><path d="M 374.3231199698004,296.85822939505215 c 0.0,-2.472820356967101 -2.0046169753595877,-4.477437332326689 -4.477437332326688 -4.477437332326689c -2.472820356967101,-1.5141657675130876e-16 -4.477437332326689,2.0046169753595877 -4.477437332326689 4.477437332326687c -3.028331535026175e-16,2.472820356967101 2.0046169753595873,4.477437332326689 4.477437332326687 4.477437332326689c 2.472820356967101,4.542497302539262e-16 4.477437332326689,-2.0046169753595873 4.477437332326691 -4.477437332326687Z" /></g></g></g><g fill="rgb(0,0,0)" fill-opacity="0.0" stroke-width="0.6000000000000002"><g fill="rgb(0,0,0)" fill-opacity="0.0"><g fill="rgb(0,0,0)" fill-opacity="0.0"><path d="M 368.9501951710084,305.0655075929754 c 0.0,-3.7092305354506507 -3.006925463039382,-6.716155998490033 -6.716155998490032 -6.716155998490033c -3.7092305354506507,-2.271248651269631e-16 -6.716155998490033,3.0069254630393814 -6.716155998490033 6.716155998490031c -4.542497302539262e-16,3.7092305354506507 3.006925463039381,6.716155998490033 6.716155998490031 6.716155998490033c 3.7092305354506507,6.813745953808894e-16 6.716155998490033,-3.0069254630393805 6.716155998490034 -6.716155998490031Z" /></g></g></g><g fill="rgb(0,0,0)" fill-opacity="0.0" stroke-width="0.6000000000000002"><g fill="rgb(0,0,0)" fill-opacity="0.0"><g fill="rgb(0,0,0)" fill-opacity="0.0"><path d="M 359.7404629965094,316.57728369669945 c 0.0,-6.123225152838028 -4.963854754246196,-11.087079907084226 -11.087079907084224 -11.087079907084226c -6.123225152838028,-3.749394041940827e-16 -11.087079907084226,4.963854754246196 -11.087079907084226 11.087079907084222c -7.498788083881654e-16,6.123225152838028 4.963854754246195,11.087079907084226 11.08707990708422 11.087079907084226c 6.123225152838028,1.1248182125822481e-15 11.087079907084226,-4.963854754246194 11.087079907084227 -11.087079907084222Z" /></g></g></g><g fill="rgb(0,0,0)" fill-opacity="0.0" stroke-width="0.6000000000000002"><g fill="rgb(0,0,0)" fill-opacity="0.0"><g fill="rgb(0,0,0)" fill-opacity="0.0"><path d="M 341.60196397723206,332.19929078599904 c 0.0,-11.690253178642301 -9.476822649947765,-21.167075828590068 -21.167075828590065 -21.167075828590068c -11.690253178642301,-7.158215568223232e-16 -21.167075828590068,9.476822649947763 -21.167075828590068 21.16707582859006c -1.4316431136446464e-15,11.690253178642301 9.476822649947763,21.167075828590068 21.167075828590058 21.167075828590068c 11.690253178642301,2.1474646704669697e-15 21.167075828590068,-9.476822649947762 21.16707582859007 -21.16707582859006Z" /></g></g></g><g fill="rgb(0,0,0)" fill-opacity="0.0" stroke-width="0.6000000000000002"><g fill="rgb(0,0,0)" fill-opacity="0.0"><g fill="rgb(0,0,0)" fill-opacity="0.0"><path d="M 227.31566680912886,295.6026161078857 c 0.0,-1.3471853429020368 -1.092109501496222,-2.439294844398259 -2.4392948443982587 -2.439294844398259c -1.3471853429020368,-8.249131090216043e-17 -2.439294844398259,1.0921095014962219 -2.439294844398259 2.4392948443982583c -1.6498262180432087e-16,1.3471853429020368 1.0921095014962219,2.439294844398259 2.4392948443982583 2.439294844398259c 1.3471853429020368,2.474739327064813e-16 2.439294844398259,-1.0921095014962217 2.43929484439826 -2.4392948443982583Z" /></g></g></g><g fill="rgb(0,0,0)" fill-opacity="0.0" stroke-width="0.6000000000000002"><g fill="rgb(0,0,0)" fill-opacity="0.0"><g fill="rgb(0,0,0)" fill-opacity="0.0"><path d="M 234.55414648390186,290.88345505695185 c 0.0,-2.5063848722944293 -2.0318263911205467,-4.5382112634149765 -4.538211263414976 -4.5382112634149765c -2.5063848722944293,-1.5347181056433603e-16 -4.5382112634149765,2.0318263911205463 -4.5382112634149765 4.538211263414975c -3.0694362112867206e-16,2.5063848722944293 2.0318263911205463,4.5382112634149765 4.538211263414975 4.5382112634149765c 2.5063848722944293,4.60415431693008e-16 4.5382112634149765,-2.031826391120546 4.5382112634149765 -4.538211263414975Z" /></g></g></g><g fill="rgb(0,0,0)" fill-opacity="0.0" stroke-width="0.6000000000000002"><g fill="rgb(0,0,0)" fill-opacity="0.0"><g fill="rgb(0,0,0)" fill-opacity="0.0"><path d="M 260.5809842106536,287.71007260725276 c 0.0,-2.3680341075109177 -1.9196709363752753,-4.287705043886193 -4.287705043886192 -4.287705043886193c -2.3680341075109177,-1.4500026950175022e-16 -4.287705043886193,1.919670936375275 -4.287705043886193 4.2877050438861914c -2.9000053900350043e-16,2.3680341075109177 1.9196709363752749,4.287705043886193 4.2877050438861914 4.287705043886193c 2.3680341075109177,4.3500080850525065e-16 4.287705043886193,-1.9196709363752746 4.287705043886195 -4.2877050438861914Z" /></g></g></g><g fill="rgb(0,0,0)" fill-opacity="0.0" stroke-width="0.6000000000000002"><g fill="rgb(0,0,0)" fill-opacity="0.0"><g fill="rgb(0,0,0)" fill-opacity="0.0"><path d="M 243.40296817102578,256.55389275166505 c 0.0,-1.5661728541810138 -1.269633955007273,-2.8358068091882873 -2.835806809188287 -2.8358068091882873c -1.5661728541810138,-9.590042863921265e-17 -2.8358068091882873,1.269633955007273 -2.8358068091882873 2.8358068091882864c -1.918008572784253e-16,1.5661728541810138 1.2696339550072728,2.8358068091882873 2.835806809188286 2.8358068091882873c 1.5661728541810138,2.8770128591763795e-16 2.8358068091882873,-1.2696339550072726 2.8358068091882878 -2.8358068091882864Z" /></g></g></g><g fill="rgb(0,0,0)" fill-opacity="0.0" stroke-width="0.6000000000000002"><g fill="rgb(0,0,0)" fill-opacity="0.0"><g fill="rgb(0,0,0)" fill-opacity="0.0"><path d="M 246.03452714382652,264.4062328890935 c 0.0,-2.777314428312873 -2.2514581915426883,-5.028772619855562 -5.028772619855561 -5.028772619855562c -2.777314428312873,-1.7006146124295602e-16 -5.028772619855562,2.2514581915426883 -5.028772619855562 5.02877261985556c -3.4012292248591204e-16,2.777314428312873 2.251458191542688,5.028772619855562 5.028772619855559 5.028772619855562c 2.777314428312873,5.10184383728868e-16 5.028772619855562,-2.2514581915426874 5.0287726198555625 -5.02877261985556Z" /></g></g></g><g fill="rgb(0,0,0)" fill-opacity="0.0" stroke-width="0.6000000000000002"><g fill="rgb(0,0,0)" fill-opacity="0.0"><g fill="rgb(0,0,0)" fill-opacity="0.0"><path d="M 253.63777261362466,280.7507657008131 c 0.0,-6.27661153013753 -5.088198981216495,-11.364810511354026 -11.364810511354024 -11.364810511354026c -6.27661153013753,-3.8433161099371485e-16 -11.364810511354026,5.088198981216494 -11.364810511354026 11.364810511354023c -7.686632219874297e-16,6.27661153013753 5.088198981216493,11.364810511354026 11.36481051135402 11.364810511354026c 6.27661153013753,1.1529948329811446e-15 11.364810511354026,-5.088198981216493 11.364810511354031 -11.364810511354023Z" /></g></g></g><g fill="rgb(0,0,0)" fill-opacity="0.0" stroke-width="0.6000000000000002"><g fill="rgb(0,0,0)" fill-opacity="0.0"><g fill="rgb(0,0,0)" fill-opacity="0.0"><path d="M 299.88318308316866,341.5314815695889 c 0.0,-27.560473990132937 -22.342178579174455,-49.9026525693074 -49.902652569307385 -49.9026525693074c -27.560473990132937,-1.6875923127500092e-15 -49.9026525693074,22.34217857917445 -49.9026525693074 49.902652569307385c -3.3751846255000184e-15,27.560473990132937 22.342178579174448,49.9026525693074 49.90265256930738 49.9026525693074c 27.560473990132937,5.062776938250028e-15 49.9026525693074,-22.342178579174448 49.902652569307406 -49.902652569307385Z" /></g></g></g><g fill="rgb(0,0,0)" fill-opacity="0.0" stroke-width="0.6000000000000002"><g fill="rgb(0,0,0)" fill-opacity="0.0"><g fill="rgb(0,0,0)" fill-opacity="0.0"><path d="M 80.97040374897733,75.46718266649083 c 0.0,-1.876701298743333 -1.5213669972186832,-3.3980682959620165 -3.3980682959620157 -3.3980682959620165c -1.876701298743333,-1.1491481192308516e-16 -3.3980682959620165,1.521366997218683 -3.3980682959620165 3.398068295962015c -2.2982962384617033e-16,1.876701298743333 1.521366997218683,3.3980682959620165 3.398068295962015 3.3980682959620165c 1.876701298743333,3.447444357692555e-16 3.3980682959620165,-1.5213669972186827 3.398068295962017 -3.398068295962015Z" /></g></g></g><g fill="rgb(0,0,0)" fill-opacity="0.0" stroke-width="0.6000000000000002"><g fill="rgb(0,0,0)" fill-opacity="0.0"><g fill="rgb(0,0,0)" fill-opacity="0.0"><path d="M 51.22806854758326,72.90801749231682 c 0.0,-1.3574981632457481 -1.1004696942075896,-2.457967857453338 -2.4579678574533377 -2.457967857453338c -1.3574981632457481,-8.312278902336583e-17 -2.457967857453338,1.1004696942075896 -2.457967857453338 2.4579678574533372c -1.6624557804673166e-16,1.3574981632457481 1.1004696942075893,2.457967857453338 2.4579678574533372 2.457967857453338c 1.3574981632457481,2.4936836707009752e-16 2.457967857453338,-1.100469694207589 2.457967857453338 -2.4579678574533372Z" /></g></g></g><g fill="rgb(0,0,0)" fill-opacity="0.0" stroke-width="0.6000000000000002"><g fill="rgb(0,0,0)" fill-opacity="0.0"><g fill="rgb(0,0,0)" fill-opacity="0.0"><path d="M 59.3165234227208,69.23579677766753 c 0.0,-2.5199173904050625 -2.0427966645767257,-4.562714054981789 -4.562714054981788 -4.562714054981789c -2.5199173904050625,-1.5430043831376552e-16 -4.562714054981789,2.0427966645767257 -4.562714054981789 4.562714054981787c -3.0860087662753105e-16,2.5199173904050625 2.0427966645767253,4.562714054981789 4.562714054981787 4.562714054981789c 2.5199173904050625,4.629013149412966e-16 4.562714054981789,-2.0427966645767253 4.562714054981789 -4.562714054981787Z" /></g></g></g><g fill="rgb(0,0,0)" fill-opacity="0.0" stroke-width="0.6000000000000002"><g fill="rgb(0,0,0)" fill-opacity="0.0"><g fill="rgb(0,0,0)" fill-opacity="0.0"><path d="M 86.67916112622633,41.842463026973434 c 0.0,-1.8901062754743148 -1.5322338779581255,-3.4223401534324407 -3.42234015343244 -3.4223401534324407c -1.8901062754743148,-1.1573563001539724e-16 -3.4223401534324407,1.5322338779581253 -3.4223401534324407 3.4223401534324394c -2.314712600307945e-16,1.8901062754743148 1.532233877958125,3.4223401534324407 3.4223401534324394 3.4223401534324407c 1.8901062754743148,3.4720689004619174e-16 3.4223401534324407,-1.532233877958125 3.422340153432441 -3.4223401534324394Z" /></g></g></g><g fill="rgb(0,0,0)" fill-opacity="0.0" stroke-width="0.6000000000000002"><g fill="rgb(0,0,0)" fill-opacity="0.0"><g fill="rgb(0,0,0)" fill-opacity="0.0"><path d="M 83.33927230767873,49.01831149386658 c 0.0,-3.1348308261544755 -2.541282496031065,-5.676113322185541 -5.67611332218554 -5.676113322185541c -3.1348308261544755,-1.9195302685592657e-16 -5.676113322185541,2.541282496031065 -5.676113322185541 5.6761133221855395c -3.8390605371185313e-16,3.1348308261544755 2.5412824960310645,5.676113322185541 5.676113322185539 5.676113322185541c 3.1348308261544755,5.758590805677797e-16 5.676113322185541,-2.541282496031064 5.676113322185544 -5.6761133221855395Z" /></g></g></g><g fill="rgb(0,0,0)" fill-opacity="0.0" stroke-width="0.6000000000000002"><g fill="rgb(0,0,0)" fill-opacity="0.0"><g fill="rgb(0,0,0)" fill-opacity="0.0"><path d="M 80.41507965803316,63.5595962935694 c 0.0,-6.1205776255437545 -4.961708509315028,-11.082286134858784 -11.082286134858782 -11.082286134858784c -6.1205776255437545,-3.7477728990275326e-16 -11.082286134858784,4.961708509315027 -11.082286134858784 11.08228613485878c -7.495545798055065e-16,6.1205776255437545 4.961708509315027,11.082286134858784 11.082286134858778 11.082286134858784c 6.1205776255437545,1.1243318697082598e-15 11.082286134858784,-4.961708509315026 11.082286134858789 -11.08228613485878Z" /></g></g></g><g fill="rgb(0,0,0)" fill-opacity="0.0" stroke-width="0.6000000000000002"><g fill="rgb(0,0,0)" fill-opacity="0.0"><g fill="rgb(0,0,0)" fill-opacity="0.0"><path d="M 94.22326907614465,102.77384900074276 c 0.0,-1.524815631996822 -1.2361073021670999,-2.760922934163922 -2.7609229341639216 -2.760922934163922c -1.524815631996822,-9.336802915073781e-17 -2.760922934163922,1.2361073021670996 -2.760922934163922 2.760922934163921c -1.8673605830147563e-16,1.524815631996822 1.2361073021670996,2.760922934163922 2.7609229341639208 2.760922934163922c 1.524815631996822,2.801040874522135e-16 2.760922934163922,-1.2361073021670994 2.7609229341639234 -2.760922934163921Z" /></g></g></g><g fill="rgb(0,0,0)" fill-opacity="0.0" stroke-width="0.6000000000000002"><g fill="rgb(0,0,0)" fill-opacity="0.0"><g fill="rgb(0,0,0)" fill-opacity="0.0"><path d="M 89.92148571136323,119.57239265734776 c 0.0,-1.6846763154243247 -1.3656999912552787,-3.050376306679604 -3.050376306679603 -3.050376306679604c -1.6846763154243247,-1.031566728641878e-16 -3.050376306679604,1.3656999912552787 -3.050376306679604 3.050376306679603c -2.063133457283756e-16,1.6846763154243247 1.3656999912552785,3.050376306679604 3.0503763066796026 3.050376306679604c 1.6846763154243247,3.094700185925634e-16 3.050376306679604,-1.3656999912552783 3.0503763066796044 -3.050376306679603Z" /></g></g></g><g fill="rgb(0,0,0)" fill-opacity="0.0" stroke-width="0.6000000000000002"><g fill="rgb(0,0,0)" fill-opacity="0.0"><g fill="rgb(0,0,0)" fill-opacity="0.0"><path d="M 109.39921743161844,114.66490068858259 c 0.0,-1.9389467884001164 -1.5718269365563704,-3.510773724956487 -3.5107737249564863 -3.510773724956487c -1.9389467884001164,-1.1872624890656214e-16 -3.510773724956487,1.5718269365563702 -3.510773724956487 3.510773724956486c -2.3745249781312427e-16,1.9389467884001164 1.57182693655637,3.510773724956487 3.5107737249564854 3.510773724956487c 1.9389467884001164,3.5617874671968643e-16 3.510773724956487,-1.5718269365563697 3.510773724956488 -3.510773724956486Z" /></g></g></g><g fill="rgb(0,0,0)" fill-opacity="0.0" stroke-width="0.6000000000000002"><g fill="rgb(0,0,0)" fill-opacity="0.0"><g fill="rgb(0,0,0)" fill-opacity="0.0"><path d="M 102.57634489738983,112.56986858276359 c 0.0,-4.216499387732121 -3.4181481179684305,-7.634647505700552 -7.63464750570055 -7.634647505700552c -4.216499387732121,-2.581861239396458e-16 -7.634647505700552,3.41814811796843 -7.634647505700552 7.634647505700549c -5.163722478792916e-16,4.216499387732121 3.4181481179684297,7.634647505700552 7.634647505700548 7.634647505700552c 4.216499387732121,7.745583718189373e-16 7.634647505700552,-3.418148117968429 7.634647505700554 -7.634647505700549Z" /></g></g></g><g fill="rgb(0,0,0)" fill-opacity="0.0" stroke-width="0.6000000000000002"><g fill="rgb(0,0,0)" fill-opacity="0.0"><g fill="rgb(0,0,0)" fill-opacity="0.0"><path d="M 22.170409219658843,119.7213982867915 c 0.0,-1.4120183221815097 -1.144667015615917,-2.5566853377974272 -2.556685337797427 -2.5566853377974272c -1.4120183221815097,-8.64611859298501e-17 -2.5566853377974272,1.144667015615917 -2.5566853377974272 2.5566853377974263c -1.729223718597002e-16,1.4120183221815097 1.1446670156159169,2.5566853377974272 2.556685337797426 2.5566853377974272c 1.4120183221815097,2.593835577895503e-16 2.5566853377974272,-1.1446670156159169 2.5566853377974286 -2.5566853377974263Z" /></g></g></g><g fill="rgb(0,0,0)" fill-opacity="0.0" stroke-width="0.6000000000000002"><g fill="rgb(0,0,0)" fill-opacity="0.0"><g fill="rgb(0,0,0)" fill-opacity="0.0"><path d="M 30.598401227161816,104.91421576672701 c 0.0,-1.6907793800062125 -1.3706475026376153,-3.0614268826438282 -3.0614268826438273 -3.0614268826438282c -1.6907793800062125,-1.0353037778944772e-16 -3.0614268826438282,1.3706475026376153 -3.0614268826438282 3.0614268826438273c -2.0706075557889544e-16,1.6907793800062125 1.370647502637615,3.0614268826438282 3.061426882643827 3.0614268826438282c 1.6907793800062125,3.1059113336834316e-16 3.0614268826438282,-1.3706475026376148 3.0614268826438287 -3.0614268826438273Z" /></g></g></g><g fill="rgb(0,0,0)" fill-opacity="0.0" stroke-width="0.6000000000000002"><g fill="rgb(0,0,0)" fill-opacity="0.0"><g fill="rgb(0,0,0)" fill-opacity="0.0"><path d="M 32.44602809036389,114.06539363531022 c 0.0,-3.411574209895855 -2.7656273350337806,-6.177201544929636 -6.177201544929634 -6.177201544929636c -3.411574209895855,-2.0889867181013095e-16 -6.177201544929636,2.76562733503378 -6.177201544929636 6.177201544929634c -4.177973436202619e-16,3.411574209895855 2.7656273350337797,6.177201544929636 6.177201544929633 6.177201544929636c 3.411574209895855,6.266960154303929e-16 6.177201544929636,-2.765627335033779 6.177201544929637 -6.177201544929634Z" /></g></g></g><g fill="rgb(0,0,0)" fill-opacity="0.0" stroke-width="0.6000000000000002"><g fill="rgb(0,0,0)" fill-opacity="0.0"><g fill="rgb(0,0,0)" fill-opacity="0.0"><path d="M 56.41717138104275,135.58928628239477 c 0.0,-2.7255375423938197 -2.2094847323093245,-4.935022274703145 -4.935022274703144 -4.935022274703145c -2.7255375423938197,-1.6689104136242673e-16 -4.935022274703145,2.2094847323093245 -4.935022274703145 4.935022274703143c -3.3378208272485345e-16,2.7255375423938197 2.209484732309324,4.935022274703145 4.935022274703143 4.935022274703145c 2.7255375423938197,5.006731240872802e-16 4.935022274703145,-2.2094847323093236 4.935022274703145 -4.935022274703143Z" /></g></g></g><g fill="rgb(0,0,0)" fill-opacity="0.0" stroke-width="0.6000000000000002"><g fill="rgb(0,0,0)" fill-opacity="0.0"><g fill="rgb(0,0,0)" fill-opacity="0.0"><path d="M 14.21619328536996,149.58488953030295 c 0.0,-2.10636745282489 -1.707548201138449,-3.8139156539633396 -3.8139156539633388 -3.8139156539633396c -2.10636745282489,-1.2897780794650824e-16 -3.8139156539633396,1.707548201138449 -3.8139156539633396 3.8139156539633383c -2.579556158930165e-16,2.10636745282489 1.7075482011384489,3.8139156539633396 3.813915653963338 3.8139156539633396c 2.10636745282489,3.8693342383952475e-16 3.8139156539633396,-1.7075482011384486 3.8139156539633405 -3.8139156539633383Z" /></g></g></g><g fill="rgb(0,0,0)" fill-opacity="0.0" stroke-width="0.6000000000000002"><g fill="rgb(0,0,0)" fill-opacity="0.0"><g fill="rgb(0,0,0)" fill-opacity="0.0"><path d="M 32.701953462687534,159.20417686011058 c 0.0,-1.8230501556094207 -1.4778741523095622,-3.3009243079189834 -3.3009243079189825 -3.3009243079189834c -1.8230501556094207,-1.1162962688760806e-16 -3.3009243079189834,1.477874152309562 -3.3009243079189834 3.3009243079189825c -2.2325925377521613e-16,1.8230501556094207 1.477874152309562,3.3009243079189834 3.300924307918982 3.3009243079189834c 1.8230501556094207,3.3488888066282416e-16 3.3009243079189834,-1.4778741523095618 3.300924307918984 -3.3009243079189825Z" /></g></g></g><g fill="rgb(0,0,0)" fill-opacity="0.0" stroke-width="0.6000000000000002"><g fill="rgb(0,0,0)" fill-opacity="0.0"><g fill="rgb(0,0,0)" fill-opacity="0.0"><path d="M 6.853553295750267,173.83997096130955 c 0.0,-1.4118774889473111 -1.1445528477220894,-2.556430336669401 -2.5564303366694006 -2.556430336669401c -1.4118774889473111,-8.645256238137636e-17 -2.556430336669401,1.1445528477220894 -2.556430336669401 2.5564303366694c -1.7290512476275272e-16,1.4118774889473111 1.1445528477220892,2.556430336669401 2.5564303366693997 2.556430336669401c 1.4118774889473111,2.593576871441291e-16 2.556430336669401,-1.144552847722089 2.5564303366694014 -2.5564303366694Z" /></g></g></g><g fill="rgb(0,0,0)" fill-opacity="0.0" stroke-width="0.6000000000000002"><g fill="rgb(0,0,0)" fill-opacity="0.0"><g fill="rgb(0,0,0)" fill-opacity="0.0"><path d="M 7.051664567238956,228.97907306063428 c 0.0,-1.3571077337339876 -1.1001531885525178,-2.4572609222865056 -2.457260922286505 -2.4572609222865056c -1.3571077337339876,-8.309888211077232e-17 -2.4572609222865056,1.1001531885525178 -2.4572609222865056 2.4572609222865047c -1.6619776422154464e-16,1.3571077337339876 1.1001531885525175,2.4572609222865056 2.4572609222865047 2.4572609222865056c 1.3571077337339876,2.4929664633231694e-16 2.4572609222865056,-1.1001531885525173 2.4572609222865065 -2.4572609222865047Z" /></g></g></g><g fill="rgb(0,0,0)" fill-opacity="0.0" stroke-width="0.6000000000000002"><g fill="rgb(0,0,0)" fill-opacity="0.0"><g fill="rgb(0,0,0)" fill-opacity="0.0"><path d="M 7.3764401786563845,223.5431484469436 c 0.0,-1.6471082633420409 -1.3352450677008214,-2.9823533310428627 -2.9823533310428623 -2.9823533310428627c -1.6471082633420409,-1.008562931275493e-16 -2.9823533310428627,1.3352450677008212 -2.9823533310428627 2.982353331042862c -2.017125862550986e-16,1.6471082633420409 1.3352450677008212,2.9823533310428627 2.9823533310428614 2.9823533310428627c 1.6471082633420409,3.025688793826479e-16 2.9823533310428627,-1.335245067700821 2.982353331042863 -2.982353331042862Z" /></g></g></g><g fill="rgb(0,0,0)" fill-opacity="0.0" stroke-width="0.6000000000000002"><g fill="rgb(0,0,0)" fill-opacity="0.0"><g fill="rgb(0,0,0)" fill-opacity="0.0"><path d="M 8.111073135773038,216.86834119813406 c 0.0,-2.039310795569117 -1.653188039848504,-3.692498835417622 -3.692498835417621 -3.692498835417622c -2.039310795569117,-1.248717719130181e-16 -3.692498835417622,1.6531880398485037 -3.692498835417622 3.6924988354176205c -2.497435438260362e-16,2.039310795569117 1.6531880398485035,3.692498835417622 3.69249883541762 3.692498835417622c 2.039310795569117,3.746153157390543e-16 3.692498835417622,-1.6531880398485033 3.6924988354176227 -3.6924988354176205Z" /></g></g></g><g fill="rgb(0,0,0)" fill-opacity="0.0" stroke-width="0.6000000000000002"><g fill="rgb(0,0,0)" fill-opacity="0.0"><g fill="rgb(0,0,0)" fill-opacity="0.0"><path d="M 9.552986967522164,208.50408482332384 c 0.0,-2.5868368077621025 -2.0970455709467895,-4.683882378708892 -4.6838823787088915 -4.683882378708892c -2.5868368077621025,-1.5839807082712078e-16 -4.683882378708892,2.097045570946789 -4.683882378708892 4.683882378708891c -3.1679614165424156e-16,2.5868368077621025 2.097045570946789,4.683882378708892 4.683882378708891 4.683882378708892c 2.5868368077621025,4.751942124813623e-16 4.683882378708892,-2.0970455709467886 4.683882378708894 -4.683882378708891Z" /></g></g></g><g fill="rgb(0,0,0)" fill-opacity="0.0" stroke-width="0.6000000000000002"><g fill="rgb(0,0,0)" fill-opacity="0.0"><g fill="rgb(0,0,0)" fill-opacity="0.0"><path d="M 12.257041860565963,197.7724747324842 c 0.0,-3.3811549102624197 -2.740967620367518,-6.122122530629938 -6.1221225306299365 -6.122122530629938c -3.3811549102624197,-2.070360269137114e-16 -6.122122530629938,2.7409676203675177 -6.122122530629938 6.1221225306299365c -4.140720538274228e-16,3.3811549102624197 2.7409676203675173,6.122122530629938 6.122122530629936 6.122122530629938c 3.3811549102624197,6.211080807411342e-16 6.122122530629938,-2.740967620367517 6.122122530629939 -6.1221225306299365Z" /></g></g></g><g fill="rgb(0,0,0)" fill-opacity="0.0" stroke-width="0.6000000000000002"><g fill="rgb(0,0,0)" fill-opacity="0.0"><g fill="rgb(0,0,0)" fill-opacity="0.0"><path d="M 17.318260142799186,183.63047488856222 c 0.0,-4.588945111526858 -3.7200750323985323,-8.309020143925391 -8.30902014392539 -8.309020143925391c -4.588945111526858,-2.80991847114713e-16 -8.309020143925391,3.7200750323985314 -8.309020143925391 8.309020143925387c -5.61983694229426e-16,4.588945111526858 3.720075032398531,8.309020143925391 8.309020143925387 8.309020143925391c 4.588945111526858,8.429755413441391e-16 8.309020143925391,-3.7200750323985305 8.309020143925395 -8.309020143925387Z" /></g></g></g><g fill="rgb(0,0,0)" fill-opacity="0.0" stroke-width="0.6000000000000002"><g fill="rgb(0,0,0)" fill-opacity="0.0"><g fill="rgb(0,0,0)" fill-opacity="0.0"><path d="M 27.046203816753227,164.47077451189995 c 0.0,-6.533951891699001 -5.296814562925798,-11.8307664546248 -11.830766454624799 -11.8307664546248c -6.533951891699001,-4.0008916349759874e-16 -11.8307664546248,5.296814562925797 -11.8307664546248 11.830766454624797c -8.001783269951975e-16,6.533951891699001 5.296814562925797,11.8307664546248 11.830766454624795 11.8307664546248c 6.533951891699001,1.2002674904927962e-15 11.8307664546248,-5.296814562925796 11.830766454624806 -11.830766454624797Z" /></g></g></g><g fill="rgb(0,0,0)" fill-opacity="0.0" stroke-width="0.6000000000000002"><g fill="rgb(0,0,0)" fill-opacity="0.0"><g fill="rgb(0,0,0)" fill-opacity="0.0"><path d="M 46.67602075184699,138.01210951514219 c 0.0,-9.886100510681436 -8.014267938221588,-17.900368448903027 -17.900368448903023 -17.900368448903027c -9.886100510681436,-6.053490673227518e-16 -17.900368448903027,8.014267938221588 -17.900368448903027 17.90036844890302c -1.2106981346455035e-15,9.886100510681436 8.014267938221586,17.900368448903027 17.90036844890302 17.900368448903027c 9.886100510681436,1.8160472019682554e-15 17.900368448903027,-8.014267938221586 17.900368448903027 -17.90036844890302Z" /></g></g></g><g fill="rgb(0,0,0)" fill-opacity="0.0" stroke-width="0.6000000000000002"><g fill="rgb(0,0,0)" fill-opacity="0.0"><g fill="rgb(0,0,0)" fill-opacity="0.0"><path d="M 88.70226276971212,102.54256878112099 c 0.0,-16.069121722345095 -13.026596975787125,-29.095718698132224 -29.095718698132217 -29.095718698132224c -16.069121722345095,-9.839499241189561e-16 -29.095718698132224,13.026596975787124 -29.095718698132224 29.095718698132213c -1.9678998482379122e-15,16.069121722345095 13.026596975787124,29.095718698132224 29.09571869813221 29.095718698132224c 16.069121722345095,2.9518497723568684e-15 29.095718698132224,-13.026596975787122 29.09571869813223 -29.095718698132213Z" /></g></g></g><g fill="rgb(0,0,0)" fill-opacity="0.0" stroke-width="0.6000000000000002"><g fill="rgb(0,0,0)" fill-opacity="0.0"><g fill="rgb(0,0,0)" fill-opacity="0.0"><path d="M 163.95551453475989,24.536285610465796 c 0.0,-1.5216742619993255 -1.2335607186253055,-2.7552349806246315 -2.755234980624631 -2.7552349806246315c -1.5216742619993255,-9.317567571511925e-17 -2.7552349806246315,1.2335607186253055 -2.7552349806246315 2.7552349806246306c -1.863513514302385e-16,1.5216742619993255 1.2335607186253053,2.7552349806246315 2.75523498062463 2.7552349806246315c 1.5216742619993255,2.7952702714535774e-16 2.7552349806246315,-1.233560718625305 2.755234980624632 -2.7552349806246306Z" /></g></g></g><g fill="rgb(0,0,0)" fill-opacity="0.0" stroke-width="0.6000000000000002"><g fill="rgb(0,0,0)" fill-opacity="0.0"><g fill="rgb(0,0,0)" fill-opacity="0.0"><path d="M 169.12443793375712,6.4995056561142235 c 0.0,-1.918798630630963 -1.5554936275181817,-3.474292258149145 -3.474292258149144 -3.474292258149145c -1.918798630630963,-1.1749253006052666e-16 -3.474292258149145,1.5554936275181814 -3.474292258149145 3.4742922581491436c -2.349850601210533e-16,1.918798630630963 1.5554936275181812,3.474292258149145 3.4742922581491436 3.474292258149145c 1.918798630630963,3.5247759018157995e-16 3.474292258149145,-1.555493627518181 3.4742922581491453 -3.4742922581491436Z" /></g></g></g><g fill="rgb(0,0,0)" fill-opacity="0.0" stroke-width="0.6000000000000002"><g fill="rgb(0,0,0)" fill-opacity="0.0"><g fill="rgb(0,0,0)" fill-opacity="0.0"><path d="M 137.224863832339,14.337268406942627 c 0.0,-1.6694453049171236 -1.353352817661131,-3.022798122578255 -3.022798122578254 -3.022798122578255c -1.6694453049171236,-1.0222404245091663e-16 -3.022798122578255,1.3533528176611307 -3.022798122578255 3.022798122578254c -2.0444808490183326e-16,1.6694453049171236 1.3533528176611307,3.022798122578255 3.0227981225782536 3.022798122578255c 1.6694453049171236,3.0667212735274987e-16 3.022798122578255,-1.3533528176611305 3.0227981225782554 -3.022798122578254Z" /></g></g></g><g fill="rgb(0,0,0)" fill-opacity="0.0" stroke-width="0.6000000000000002"><g fill="rgb(0,0,0)" fill-opacity="0.0"><g fill="rgb(0,0,0)" fill-opacity="0.0"><path d="M 146.89370016597655,13.65367989223239 c 0.0,-2.6781869537241825 -2.1710994959645213,-4.849286449688704 -4.849286449688703 -4.849286449688704c -2.6781869537241825,-1.6399165401982603e-16 -4.849286449688704,2.171099495964521 -4.849286449688704 4.8492864496887025c -3.2798330803965206e-16,2.6781869537241825 2.1710994959645205,4.849286449688704 4.8492864496887025 4.849286449688704c 2.6781869537241825,4.919749620594781e-16 4.849286449688704,-2.1710994959645205 4.849286449688704 -4.8492864496887025Z" /></g></g></g><g fill="rgb(0,0,0)" fill-opacity="0.0" stroke-width="0.6000000000000002"><g fill="rgb(0,0,0)" fill-opacity="0.0"><g fill="rgb(0,0,0)" fill-opacity="0.0"><path d="M 164.7921906370829,14.127374268730108 c 0.0,-4.944776926109585 -4.00853371233289,-8.953310638442476 -8.953310638442474 -8.953310638442476c -4.944776926109585,-3.027802617528895e-16 -8.953310638442476,4.00853371233289 -8.953310638442476 8.953310638442472c -6.05560523505779e-16,4.944776926109585 4.0085337123328895,8.953310638442476 8.953310638442472 8.953310638442476c 4.944776926109585,9.083407852586686e-16 8.953310638442476,-4.008533712332889 8.953310638442476 -8.953310638442472Z" /></g></g></g><g fill="rgb(0,0,0)" fill-opacity="0.0" stroke-width="0.6000000000000002"><g fill="rgb(0,0,0)" fill-opacity="0.0"><g fill="rgb(0,0,0)" fill-opacity="0.0"><path d="M 185.0182550953182,57.81335655357958 c 0.0,-1.5815405848928412 -1.2820919622259892,-2.8636325471188306 -2.86363254711883 -2.8636325471188306c -1.5815405848928412,-9.684143075053253e-17 -2.8636325471188306,1.282091962225989 -2.8636325471188306 2.8636325471188298c -1.9368286150106507e-16,1.5815405848928412 1.2820919622259888,2.8636325471188306 2.8636325471188293 2.8636325471188306c 1.5815405848928412,2.905242922515976e-16 2.8636325471188306,-1.2820919622259885 2.863632547118831 -2.8636325471188298Z" /></g></g></g><g fill="rgb(0,0,0)" fill-opacity="0.0" stroke-width="0.6000000000000002"><g fill="rgb(0,0,0)" fill-opacity="0.0"><g fill="rgb(0,0,0)" fill-opacity="0.0"><path d="M 189.18702858869722,48.954961507166075 c 0.0,-3.340860619529819 -2.708302643720482,-6.049163263250302 -6.0491632632503 -6.049163263250302c -3.340860619529819,-2.045687132052318e-16 -6.049163263250302,2.7083026437204816 -6.049163263250302 6.0491632632503c -4.091374264104636e-16,3.340860619529819 2.708302643720481,6.049163263250302 6.049163263250299 6.049163263250302c 3.340860619529819,6.137061396156954e-16 6.049163263250302,-2.708302643720481 6.0491632632503025 -6.0491632632503Z" /></g></g></g><g fill="rgb(0,0,0)" fill-opacity="0.0" stroke-width="0.6000000000000002"><g fill="rgb(0,0,0)" fill-opacity="0.0"><g fill="rgb(0,0,0)" fill-opacity="0.0"><path d="M 206.66701696592506,3.986790609932598 c 0.0,-2.191583118581905 -1.7766291473793625,-3.9682122659612675 -3.9682122659612666 -3.9682122659612675c -2.191583118581905,-1.3419576256183517e-16 -3.9682122659612675,1.7766291473793623 -3.9682122659612675 3.968212265961266c -2.6839152512367035e-16,2.191583118581905 1.776629147379362,3.9682122659612675 3.9682122659612658 3.9682122659612675c 2.191583118581905,4.0258728768550557e-16 3.9682122659612675,-1.7766291473793618 3.9682122659612684 -3.968212265961266Z" /></g></g></g><g fill="rgb(0,0,0)" fill-opacity="0.0" stroke-width="0.6000000000000002"><g fill="rgb(0,0,0)" fill-opacity="0.0"><g fill="rgb(0,0,0)" fill-opacity="0.0"><path d="M 212.51526897947775,24.60418833340026 c 0.0,-1.8070711661709087 -1.46492062198647,-3.2719917881573792 -3.2719917881573783 -3.2719917881573792c -1.8070711661709087,-1.106511959741339e-16 -3.2719917881573792,1.4649206219864699 -3.2719917881573792 3.2719917881573783c -2.213023919482678e-16,1.8070711661709087 1.4649206219864699,3.2719917881573792 3.271991788157378 3.2719917881573792c 1.8070711661709087,3.3195358792240173e-16 3.2719917881573792,-1.4649206219864697 3.2719917881573797 -3.2719917881573783Z" /></g></g></g><g fill="rgb(0,0,0)" fill-opacity="0.0" stroke-width="0.6000000000000002"><g fill="rgb(0,0,0)" fill-opacity="0.0"><g fill="rgb(0,0,0)" fill-opacity="0.0"><path d="M 260.0247964604437,10.977120910421803 c 0.0,-1.3165940123296243 -1.0673103281994167,-2.383904340529041 -2.3839043405290408 -2.383904340529041c -1.3165940123296243,-8.061813214880225e-17 -2.383904340529041,1.0673103281994167 -2.383904340529041 2.3839043405290403c -1.612362642976045e-16,1.3165940123296243 1.0673103281994165,2.383904340529041 2.3839043405290403 2.383904340529041c 1.3165940123296243,2.4185439644640676e-16 2.383904340529041,-1.0673103281994163 2.383904340529041 -2.3839043405290403Z" /></g></g></g><g fill="rgb(0,0,0)" fill-opacity="0.0" stroke-width="0.6000000000000002"><g fill="rgb(0,0,0)" fill-opacity="0.0"><g fill="rgb(0,0,0)" fill-opacity="0.0"><path d="M 255.309192225538,10.216082935341802 c 0.0,-1.7614652913318651 -1.427949755655282,-3.1894150469871474 -3.1894150469871465 -3.1894150469871474c -1.7614652913318651,-1.0785864154193642e-16 -3.1894150469871474,1.4279497556552818 -3.1894150469871474 3.1894150469871465c -2.1571728308387284e-16,1.7614652913318651 1.4279497556552816,3.1894150469871474 3.189415046987146 3.1894150469871474c 1.7614652913318651,3.2357592462580927e-16 3.1894150469871474,-1.4279497556552814 3.189415046987148 -3.1894150469871465Z" /></g></g></g><g fill="rgb(0,0,0)" fill-opacity="0.0" stroke-width="0.6000000000000002"><g fill="rgb(0,0,0)" fill-opacity="0.0"><g fill="rgb(0,0,0)" fill-opacity="0.0"><path d="M 248.9548746646531,9.603492467737283 c 0.0,-2.472820356967101 -2.0046169753595877,-4.477437332326689 -4.477437332326688 -4.477437332326689c -2.472820356967101,-1.5141657675130876e-16 -4.477437332326689,2.0046169753595877 -4.477437332326689 4.477437332326687c -3.028331535026175e-16,2.472820356967101 2.0046169753595873,4.477437332326689 4.477437332326687 4.477437332326689c 2.472820356967101,4.542497302539262e-16 4.477437332326689,-2.0046169753595873 4.477437332326691 -4.477437332326687Z" /></g></g></g><g fill="rgb(0,0,0)" fill-opacity="0.0" stroke-width="0.6000000000000002"><g fill="rgb(0,0,0)" fill-opacity="0.0"><g fill="rgb(0,0,0)" fill-opacity="0.0"><path d="M 239.99999999999972,9.60349246773734 c 0.0,-3.7092305354506507 -3.006925463039382,-6.716155998490033 -6.716155998490032 -6.716155998490033c -3.7092305354506507,-2.271248651269631e-16 -6.716155998490033,3.0069254630393814 -6.716155998490033 6.716155998490031c -4.542497302539262e-16,3.7092305354506507 3.006925463039381,6.716155998490033 6.716155998490031 6.716155998490033c 3.7092305354506507,6.813745953808894e-16 6.716155998490033,-3.0069254630393805 6.716155998490034 -6.716155998490031Z" /></g></g></g><g fill="rgb(0,0,0)" fill-opacity="0.0" stroke-width="0.6000000000000002"><g fill="rgb(0,0,0)" fill-opacity="0.0"><g fill="rgb(0,0,0)" fill-opacity="0.0"><path d="M 226.69550411149868,11.732986235274893 c 0.0,-6.123225152838028 -4.963854754246196,-11.087079907084226 -11.087079907084224 -11.087079907084226c -6.123225152838028,-3.749394041940827e-16 -11.087079907084226,4.963854754246196 -11.087079907084226 11.087079907084222c -7.498788083881654e-16,6.123225152838028 4.963854754246195,11.087079907084226 11.08707990708422 11.087079907084226c 6.123225152838028,1.1248182125822481e-15 11.087079907084226,-4.963854754246194 11.087079907084227 -11.087079907084222Z" /></g></g></g><g fill="rgb(0,0,0)" fill-opacity="0.0" stroke-width="0.6000000000000002"><g fill="rgb(0,0,0)" fill-opacity="0.0"><g fill="rgb(0,0,0)" fill-opacity="0.0"><path d="M 206.13267867425563,21.80016366476994 c 0.0,-11.690253178642301 -9.476822649947765,-21.167075828590068 -21.167075828590065 -21.167075828590068c -11.690253178642301,-7.158215568223232e-16 -21.167075828590068,9.476822649947763 -21.167075828590068 21.16707582859006c -1.4316431136446464e-15,11.690253178642301 9.476822649947763,21.167075828590068 21.167075828590058 21.167075828590068c 11.690253178642301,2.1474646704669697e-15 21.167075828590068,-9.476822649947762 21.16707582859007 -21.16707582859006Z" /></g></g></g><g fill="rgb(0,0,0)" fill-opacity="0.0" stroke-width="0.6000000000000002"><g fill="rgb(0,0,0)" fill-opacity="0.0"><g fill="rgb(0,0,0)" fill-opacity="0.0"><path d="M 149.25823178838456,116.7505638395569 c 0.0,-1.3471853429020368 -1.092109501496222,-2.439294844398259 -2.4392948443982587 -2.439294844398259c -1.3471853429020368,-8.249131090216043e-17 -2.439294844398259,1.0921095014962219 -2.439294844398259 2.4392948443982583c -1.6498262180432087e-16,1.3471853429020368 1.0921095014962219,2.439294844398259 2.4392948443982583 2.439294844398259c 1.3471853429020368,2.474739327064813e-16 2.439294844398259,-1.0921095014962217 2.43929484439826 -2.4392948443982583Z" /></g></g></g><g fill="rgb(0,0,0)" fill-opacity="0.0" stroke-width="0.6000000000000002"><g fill="rgb(0,0,0)" fill-opacity="0.0"><g fill="rgb(0,0,0)" fill-opacity="0.0"><path d="M 158.3121972585302,116.19120332882925 c 0.0,-2.5063848722944293 -2.0318263911205467,-4.5382112634149765 -4.538211263414976 -4.5382112634149765c -2.5063848722944293,-1.5347181056433603e-16 -4.5382112634149765,2.0318263911205463 -4.5382112634149765 4.538211263414975c -3.0694362112867206e-16,2.5063848722944293 2.0318263911205463,4.5382112634149765 4.538211263414975 4.5382112634149765c 2.5063848722944293,4.60415431693008e-16 4.5382112634149765,-2.031826391120546 4.5382112634149765 -4.538211263414975Z" /></g></g></g><g fill="rgb(0,0,0)" fill-opacity="0.0" stroke-width="0.6000000000000002"><g fill="rgb(0,0,0)" fill-opacity="0.0"><g fill="rgb(0,0,0)" fill-opacity="0.0"><path d="M 178.25704736803863,99.08223656322943 c 0.0,-2.3680341075109177 -1.9196709363752753,-4.287705043886193 -4.287705043886192 -4.287705043886193c -2.3680341075109177,-1.4500026950175022e-16 -4.287705043886193,1.919670936375275 -4.287705043886193 4.2877050438861914c -2.9000053900350043e-16,2.3680341075109177 1.9196709363752749,4.287705043886193 4.2877050438861914 4.287705043886193c 2.3680341075109177,4.3500080850525065e-16 4.287705043886193,-1.9196709363752746 4.287705043886195 -4.2877050438861914Z" /></g></g></g><g fill="rgb(0,0,0)" fill-opacity="0.0" stroke-width="0.6000000000000002"><g fill="rgb(0,0,0)" fill-opacity="0.0"><g fill="rgb(0,0,0)" fill-opacity="0.0"><path d="M 188.95547743461066,131.79901890165047 c 0.0,-1.5661728541810138 -1.269633955007273,-2.8358068091882873 -2.835806809188287 -2.8358068091882873c -1.5661728541810138,-9.590042863921265e-17 -2.8358068091882873,1.269633955007273 -2.8358068091882873 2.8358068091882864c -1.918008572784253e-16,1.5661728541810138 1.2696339550072728,2.8358068091882873 2.835806809188286 2.8358068091882873c 1.5661728541810138,2.8770128591763795e-16 2.8358068091882873,-1.2696339550072726 2.8358068091882878 -2.8358068091882864Z" /></g></g></g><g fill="rgb(0,0,0)" fill-opacity="0.0" stroke-width="0.6000000000000002"><g fill="rgb(0,0,0)" fill-opacity="0.0"><g fill="rgb(0,0,0)" fill-opacity="0.0"><path d="M 185.68925570555976,126.13784578983649 c 0.0,-2.777314428312873 -2.2514581915426883,-5.028772619855562 -5.028772619855561 -5.028772619855562c -2.777314428312873,-1.7006146124295602e-16 -5.028772619855562,2.2514581915426883 -5.028772619855562 5.02877261985556c -3.4012292248591204e-16,2.777314428312873 2.251458191542688,5.028772619855562 5.028772619855559 5.028772619855562c 2.777314428312873,5.10184383728868e-16 5.028772619855562,-2.2514581915426874 5.0287726198555625 -5.02877261985556Z" /></g></g></g><g fill="rgb(0,0,0)" fill-opacity="0.0" stroke-width="0.6000000000000002"><g fill="rgb(0,0,0)" fill-opacity="0.0"><g fill="rgb(0,0,0)" fill-opacity="0.0"><path d="M 180.90298534095888,114.09443153406235 c 0.0,-6.27661153013753 -5.088198981216495,-11.364810511354026 -11.364810511354024 -11.364810511354026c -6.27661153013753,-3.8433161099371485e-16 -11.364810511354026,5.088198981216494 -11.364810511354026 11.364810511354023c -7.686632219874297e-16,6.27661153013753 5.088198981216493,11.364810511354026 11.36481051135402 11.364810511354026c 6.27661153013753,1.1529948329811446e-15 11.364810511354026,-5.088198981216493 11.364810511354031 -11.364810511354023Z" /></g></g></g><g fill="rgb(0,0,0)" fill-opacity="0.0" stroke-width="0.6000000000000002"><g fill="rgb(0,0,0)" fill-opacity="0.0"><g fill="rgb(0,0,0)" fill-opacity="0.0"><path d="M 180.11681691683089,67.11226223606849 c 0.0,-27.560473990132937 -22.342178579174455,-49.9026525693074 -49.902652569307385 -49.9026525693074c -27.560473990132937,-1.6875923127500092e-15 -49.9026525693074,22.34217857917445 -49.9026525693074 49.902652569307385c -3.3751846255000184e-15,27.560473990132937 22.342178579174448,49.9026525693074 49.90265256930738 49.9026525693074c 27.560473990132937,5.062776938250028e-15 49.9026525693074,-22.342178579174448 49.902652569307406 -49.902652569307385Z" /></g></g></g><g fill="rgb(0,0,0)" fill-opacity="0.0" stroke-width="0.6000000000000002"><g fill="rgb(0,0,0)" fill-opacity="0.0"><g fill="rgb(0,0,0)" fill-opacity="0.0"><path d="M 390.6489959147429,140.00673003097373 c 0.0,-1.587808072920499 -1.287172765147118,-2.8749808380676174 -2.874980838067617 -2.8749808380676174c -1.587808072920499,-9.722520370812081e-17 -2.8749808380676174,1.2871727651471179 -2.8749808380676174 2.8749808380676165c -1.9445040741624162e-16,1.587808072920499 1.2871727651471179,2.8749808380676174 2.874980838067616 2.8749808380676174c 1.587808072920499,2.9167561112436245e-16 2.8749808380676174,-1.2871727651471176 2.874980838067618 -2.8749808380676165Z" /></g></g></g><g fill="rgb(0,0,0)" fill-opacity="0.0" stroke-width="0.6000000000000002"><g fill="rgb(0,0,0)" fill-opacity="0.0"><g fill="rgb(0,0,0)" fill-opacity="0.0"><path d="M 393.0348012125424,148.42166055711158 c 0.0,-3.062274887792549 -2.4824642865749396,-5.544739174367489 -5.544739174367488 -5.544739174367489c -3.062274887792549,-1.8751025697222325e-16 -5.544739174367489,2.482464286574939 -5.544739174367489 5.544739174367487c -3.750205139444465e-16,3.062274887792549 2.482464286574939,5.544739174367489 5.5447391743674865 5.544739174367489c 3.062274887792549,5.625307709166698e-16 5.544739174367489,-2.4824642865749387 5.544739174367492 -5.544739174367487Z" /></g></g></g><g fill="rgb(0,0,0)" fill-opacity="0.0" stroke-width="0.6000000000000002"><g fill="rgb(0,0,0)" fill-opacity="0.0"><g fill="rgb(0,0,0)" fill-opacity="0.0"><path d="M 368.22007350488957,165.75462042543614 c 0.0,-2.3604663739644676 -1.9135360761985263,-4.274002450162994 -4.274002450162993 -4.274002450162994c -2.3604663739644676,-1.4453687946852722e-16 -4.274002450162994,1.913536076198526 -4.274002450162994 4.2740024501629925c -2.8907375893705445e-16,2.3604663739644676 1.9135360761985258,4.274002450162994 4.2740024501629925 4.274002450162994c 2.3604663739644676,4.3361063840558165e-16 4.274002450162994,-1.9135360761985256 4.274002450162996 -4.2740024501629925Z" /></g></g></g><g fill="rgb(0,0,0)" fill-opacity="0.0" stroke-width="0.6000000000000002"><g fill="rgb(0,0,0)" fill-opacity="0.0"><g fill="rgb(0,0,0)" fill-opacity="0.0"><path d="M 398.87612309209385,178.97725403179132 c 0.0,-1.5557599272341058 -1.261192609859762,-2.816952537093868 -2.8169525370938677 -2.816952537093868c -1.5557599272341058,-9.526282075644834e-17 -2.816952537093868,1.261192609859762 -2.816952537093868 2.8169525370938673c -1.9052564151289668e-16,1.5557599272341058 1.2611926098597617,2.816952537093868 2.816952537093867 2.816952537093868c 1.5557599272341058,2.8578846226934504e-16 2.816952537093868,-1.2611926098597614 2.8169525370938686 -2.8169525370938673Z" /></g></g></g><g fill="rgb(0,0,0)" fill-opacity="0.0" stroke-width="0.6000000000000002"><g fill="rgb(0,0,0)" fill-opacity="0.0"><g fill="rgb(0,0,0)" fill-opacity="0.0"><path d="M 383.90068599933153,184.89235616292444 c 0.0,-1.351601264755451 -1.095689313464477,-2.447290578219928 -2.4472905782199277 -2.447290578219928c -1.351601264755451,-8.276170813031385e-17 -2.447290578219928,1.095689313464477 -2.447290578219928 2.4472905782199272c -1.655234162606277e-16,1.351601264755451 1.0956893134644767,2.447290578219928 2.4472905782199272 2.447290578219928c 1.351601264755451,2.4828512439094158e-16 2.447290578219928,-1.0956893134644765 2.447290578219928 -2.4472905782199272Z" /></g></g></g><g fill="rgb(0,0,0)" fill-opacity="0.0" stroke-width="0.6000000000000002"><g fill="rgb(0,0,0)" fill-opacity="0.0"><g fill="rgb(0,0,0)" fill-opacity="0.0"><path d="M 399.2098601319994,217.63952325555405 c 0.0,-1.495394179823079 -1.2122565026939216,-2.707650682517001 -2.7076506825170004 -2.707650682517001c -1.495394179823079,-9.156648478919575e-17 -2.707650682517001,1.2122565026939214 -2.707650682517001 2.707650682517c -1.831329695783915e-16,1.495394179823079 1.2122565026939212,2.707650682517001 2.7076506825169995 2.707650682517001c 1.495394179823079,2.746994543675873e-16 2.707650682517001,-1.2122565026939212 2.7076506825170013 -2.707650682517Z" /></g></g></g><g fill="rgb(0,0,0)" fill-opacity="0.0" stroke-width="0.6000000000000002"><g fill="rgb(0,0,0)" fill-opacity="0.0"><g fill="rgb(0,0,0)" fill-opacity="0.0"><path d="M 399.67697404166216,211.256912698925 c 0.0,-2.0413693903318895 -1.6548568606325176,-3.6962262509644073 -3.6962262509644064 -3.6962262509644073c -2.0413693903318895,-1.2499782448736659e-16 -3.6962262509644073,1.6548568606325174 -3.6962262509644073 3.696226250964406c -2.4999564897473317e-16,2.0413693903318895 1.6548568606325171,3.6962262509644073 3.6962262509644055 3.6962262509644073c 2.0413693903318895,3.749934734620998e-16 3.6962262509644073,-1.654856860632517 3.696226250964408 -3.696226250964406Z" /></g></g></g><g fill="rgb(0,0,0)" fill-opacity="0.0" stroke-width="0.6000000000000002"><g fill="rgb(0,0,0)" fill-opacity="0.0"><g fill="rgb(0,0,0)" fill-opacity="0.0"><path d="M 399.98610400716626,202.325939161782 c 0.0,-2.9452628476000413 -2.387607285972174,-5.332870133572216 -5.332870133572215 -5.332870133572216c -2.9452628476000413,-1.8034533594805046e-16 -5.332870133572216,2.387607285972174 -5.332870133572216 5.332870133572214c -3.606906718961009e-16,2.9452628476000413 2.3876072859721735,5.332870133572216 5.3328701335722135 5.332870133572216c 2.9452628476000413,5.410360078441515e-16 5.332870133572216,-2.387607285972173 5.332870133572219 -5.332870133572214Z" /></g></g></g><g fill="rgb(0,0,0)" fill-opacity="0.0" stroke-width="0.6000000000000002"><g fill="rgb(0,0,0)" fill-opacity="0.0"><g fill="rgb(0,0,0)" fill-opacity="0.0"><path d="M 399.6884882217834,189.07635971763312 c 0.0,-4.593412331688823 -3.7236964298624087,-8.317108761551232 -8.31710876155123 -8.317108761551232c -4.593412331688823,-2.812653854583348e-16 -8.317108761551232,3.7236964298624082 -8.317108761551232 8.317108761551228c -5.625307709166696e-16,4.593412331688823 3.723696429862408,8.317108761551232 8.317108761551228 8.317108761551232c 4.593412331688823,8.437961563750045e-16 8.317108761551232,-3.7236964298624073 8.317108761551236 -8.317108761551228Z" /></g></g></g><g fill="rgb(0,0,0)" fill-opacity="0.0" stroke-width="0.6000000000000002"><g fill="rgb(0,0,0)" fill-opacity="0.0"><g fill="rgb(0,0,0)" fill-opacity="0.0"><path d="M 397.20610860228606,167.93110094626462 c 0.0,-8.039123737156133 -6.5169974297222275,-14.556121166878363 -14.55612116687836 -14.556121166878363c -8.039123737156133,-4.922543576328883e-16 -14.556121166878363,6.516997429722227 -14.556121166878363 14.556121166878357c -9.845087152657766e-16,8.039123737156133 6.516997429722226,14.556121166878363 14.556121166878356 14.556121166878363c 8.039123737156133,1.476763072898665e-15 14.556121166878363,-6.516997429722225 14.556121166878366 -14.556121166878357Z" /></g></g></g><g fill="rgb(0,0,0)" fill-opacity="0.0" stroke-width="0.6000000000000002"><g fill="rgb(0,0,0)" fill-opacity="0.0"><g fill="rgb(0,0,0)" fill-opacity="0.0"><path d="M 374.5491032215642,103.11724155739489 c 0.0,-1.587808072920499 -1.287172765147118,-2.8749808380676174 -2.874980838067617 -2.8749808380676174c -1.587808072920499,-9.722520370812081e-17 -2.8749808380676174,1.2871727651471179 -2.8749808380676174 2.8749808380676165c -1.9445040741624162e-16,1.587808072920499 1.2871727651471179,2.8749808380676174 2.874980838067616 2.8749808380676174c 1.587808072920499,2.9167561112436245e-16 2.8749808380676174,-1.2871727651471176 2.874980838067618 -2.8749808380676165Z" /></g></g></g><g fill="rgb(0,0,0)" fill-opacity="0.0" stroke-width="0.6000000000000002"><g fill="rgb(0,0,0)" fill-opacity="0.0"><g fill="rgb(0,0,0)" fill-opacity="0.0"><path d="M 370.8558445150725,97.60328660645962 c 0.0,-3.062274887792549 -2.4824642865749396,-5.544739174367489 -5.544739174367488 -5.544739174367489c -3.062274887792549,-1.8751025697222325e-16 -5.544739174367489,2.482464286574939 -5.544739174367489 5.544739174367487c -3.750205139444465e-16,3.062274887792549 2.482464286574939,5.544739174367489 5.5447391743674865 5.544739174367489c 3.062274887792549,5.625307709166698e-16 5.544739174367489,-2.4824642865749387 5.544739174367492 -5.544739174367487Z" /></g></g></g><g fill="rgb(0,0,0)" fill-opacity="0.0" stroke-width="0.6000000000000002"><g fill="rgb(0,0,0)" fill-opacity="0.0"><g fill="rgb(0,0,0)" fill-opacity="0.0"><path d="M 340.8664578238464,103.07961323088048 c 0.0,-2.3604663739644676 -1.9135360761985263,-4.274002450162994 -4.274002450162993 -4.274002450162994c -2.3604663739644676,-1.4453687946852722e-16 -4.274002450162994,1.913536076198526 -4.274002450162994 4.2740024501629925c -2.8907375893705445e-16,2.3604663739644676 1.9135360761985258,4.274002450162994 4.2740024501629925 4.274002450162994c 2.3604663739644676,4.3361063840558165e-16 4.274002450162994,-1.9135360761985256 4.274002450162996 -4.2740024501629925Z" /></g></g></g><g fill="rgb(0,0,0)" fill-opacity="0.0" stroke-width="0.6000000000000002"><g fill="rgb(0,0,0)" fill-opacity="0.0"><g fill="rgb(0,0,0)" fill-opacity="0.0"><path d="M 351.5513204689169,70.54250889701473 c 0.0,-1.5557599272341058 -1.261192609859762,-2.816952537093868 -2.8169525370938677 -2.816952537093868c -1.5557599272341058,-9.526282075644834e-17 -2.816952537093868,1.261192609859762 -2.816952537093868 2.8169525370938673c -1.9052564151289668e-16,1.5557599272341058 1.2611926098597617,2.816952537093868 2.816952537093867 2.816952537093868c 1.5557599272341058,2.8578846226934504e-16 2.816952537093868,-1.2611926098597614 2.8169525370938686 -2.8169525370938673Z" /></g></g></g><g fill="rgb(0,0,0)" fill-opacity="0.0" stroke-width="0.6000000000000002"><g fill="rgb(0,0,0)" fill-opacity="0.0"><g fill="rgb(0,0,0)" fill-opacity="0.0"><path d="M 336.91270689750894,77.22937066937178 c 0.0,-1.351601264755451 -1.095689313464477,-2.447290578219928 -2.4472905782199277 -2.447290578219928c -1.351601264755451,-8.276170813031385e-17 -2.447290578219928,1.095689313464477 -2.447290578219928 2.4472905782199272c -1.655234162606277e-16,1.351601264755451 1.0956893134644767,2.447290578219928 2.4472905782199272 2.447290578219928c 1.351601264755451,2.4828512439094158e-16 2.447290578219928,-1.0956893134644765 2.447290578219928 -2.4472905782199272Z" /></g></g></g><g fill="rgb(0,0,0)" fill-opacity="0.0" stroke-width="0.6000000000000002"><g fill="rgb(0,0,0)" fill-opacity="0.0"><g fill="rgb(0,0,0)" fill-opacity="0.0"><path d="M 323.39564102152343,43.927324341691985 c 0.0,-1.495394179823079 -1.2122565026939216,-2.707650682517001 -2.7076506825170004 -2.707650682517001c -1.495394179823079,-9.156648478919575e-17 -2.707650682517001,1.2122565026939214 -2.707650682517001 2.707650682517c -1.831329695783915e-16,1.495394179823079 1.2122565026939212,2.707650682517001 2.7076506825169995 2.707650682517001c 1.495394179823079,2.746994543675873e-16 2.707650682517001,-1.2122565026939212 2.7076506825170013 -2.707650682517Z" /></g></g></g><g fill="rgb(0,0,0)" fill-opacity="0.0" stroke-width="0.6000000000000002"><g fill="rgb(0,0,0)" fill-opacity="0.0"><g fill="rgb(0,0,0)" fill-opacity="0.0"><path d="M 328.70943002314556,48.64984152394345 c 0.0,-2.0413693903318895 -1.6548568606325176,-3.6962262509644073 -3.6962262509644064 -3.6962262509644073c -2.0413693903318895,-1.2499782448736659e-16 -3.6962262509644073,1.6548568606325174 -3.6962262509644073 3.696226250964406c -2.4999564897473317e-16,2.0413693903318895 1.6548568606325171,3.6962262509644073 3.6962262509644055 3.6962262509644073c 2.0413693903318895,3.749934734620998e-16 3.6962262509644073,-1.654856860632517 3.696226250964408 -3.696226250964406Z" /></g></g></g><g fill="rgb(0,0,0)" fill-opacity="0.0" stroke-width="0.6000000000000002"><g fill="rgb(0,0,0)" fill-opacity="0.0"><g fill="rgb(0,0,0)" fill-opacity="0.0"><path d="M 335.99166240429963,55.696252810998345 c 0.0,-2.9452628476000413 -2.387607285972174,-5.332870133572216 -5.332870133572215 -5.332870133572216c -2.9452628476000413,-1.8034533594805046e-16 -5.332870133572216,2.387607285972174 -5.332870133572216 5.332870133572214c -3.606906718961009e-16,2.9452628476000413 2.3876072859721735,5.332870133572216 5.3328701335722135 5.332870133572216c 2.9452628476000413,5.410360078441515e-16 5.332870133572216,-2.387607285972173 5.332870133572219 -5.332870133572214Z" /></g></g></g><g fill="rgb(0,0,0)" fill-opacity="0.0" stroke-width="0.6000000000000002"><g fill="rgb(0,0,0)" fill-opacity="0.0"><g fill="rgb(0,0,0)" fill-opacity="0.0"><path d="M 346.45899214785555,67.11226223606846 c 0.0,-4.593412331688823 -3.7236964298624087,-8.317108761551232 -8.31710876155123 -8.317108761551232c -4.593412331688823,-2.812653854583348e-16 -8.317108761551232,3.7236964298624082 -8.317108761551232 8.317108761551228c -5.625307709166696e-16,4.593412331688823 3.723696429862408,8.317108761551232 8.317108761551228 8.317108761551232c 4.593412331688823,8.437961563750045e-16 8.317108761551232,-3.7236964298624073 8.317108761551236 -8.317108761551228Z" /></g></g></g><g fill="rgb(0,0,0)" fill-opacity="0.0" stroke-width="0.6000000000000002"><g fill="rgb(0,0,0)" fill-opacity="0.0"><g fill="rgb(0,0,0)" fill-opacity="0.0"><path d="M 362.271417801778,87.88566845966182 c 0.0,-8.039123737156133 -6.5169974297222275,-14.556121166878363 -14.55612116687836 -14.556121166878363c -8.039123737156133,-4.922543576328883e-16 -14.556121166878363,6.516997429722227 -14.556121166878363 14.556121166878357c -9.845087152657766e-16,8.039123737156133 6.516997429722226,14.556121166878363 14.556121166878356 14.556121166878363c 8.039123737156133,1.476763072898665e-15 14.556121166878363,-6.516997429722225 14.556121166878366 -14.556121166878357Z" /></g></g></g><g fill="rgb(0,0,0)" fill-opacity="0.0" stroke-width="0.6000000000000002"><g fill="rgb(0,0,0)" fill-opacity="0.0"><g fill="rgb(0,0,0)" fill-opacity="0.0"><path d="M 332.78100597946997,153.52262073815544 c 0.0,-1.7080511558807006 -1.3846490434349703,-3.0927001993156713 -3.0927001993156704 -3.0927001993156713c -1.7080511558807006,-1.0458796904146184e-16 -3.0927001993156713,1.3846490434349703 -3.0927001993156713 3.0927001993156704c -2.0917593808292368e-16,1.7080511558807006 1.38464904343497,3.0927001993156713 3.09270019931567 3.0927001993156713c 1.7080511558807006,3.137639071243855e-16 3.0927001993156713,-1.3846490434349699 3.0927001993156717 -3.0927001993156704Z" /></g></g></g><g fill="rgb(0,0,0)" fill-opacity="0.0" stroke-width="0.6000000000000002"><g fill="rgb(0,0,0)" fill-opacity="0.0"><g fill="rgb(0,0,0)" fill-opacity="0.0"><path d="M 325.35852550111235,136.51558141995253 c 0.0,-1.7080511558807006 -1.3846490434349703,-3.0927001993156713 -3.0927001993156704 -3.0927001993156713c -1.7080511558807006,-1.0458796904146184e-16 -3.0927001993156713,1.3846490434349703 -3.0927001993156713 3.0927001993156704c -2.0917593808292368e-16,1.7080511558807006 1.38464904343497,3.0927001993156713 3.09270019931567 3.0927001993156713c 1.7080511558807006,3.137639071243855e-16 3.0927001993156713,-1.3846490434349699 3.0927001993156717 -3.0927001993156704Z" /></g></g></g><g fill="rgb(0,0,0)" fill-opacity="0.0" stroke-width="0.6000000000000002"><g fill="rgb(0,0,0)" fill-opacity="0.0"><g fill="rgb(0,0,0)" fill-opacity="0.0"><path d="M 312.9414005156433,152.3663648987085 c 0.0,-2.098147038338014 -1.7008842385184169,-3.7990312768564314 -3.7990312768564305 -3.7990312768564314c -2.098147038338014,-1.284744527320574e-16 -3.7990312768564314,1.7008842385184166 -3.7990312768564314 3.79903127685643c -2.569489054641148e-16,2.098147038338014 1.7008842385184164,3.7990312768564314 3.7990312768564296 3.7990312768564314c 2.098147038338014,3.8542335819617216e-16 3.7990312768564314,-1.7008842385184162 3.7990312768564323 -3.79903127685643Z" /></g></g></g><g fill="rgb(0,0,0)" fill-opacity="0.0" stroke-width="0.6000000000000002"><g fill="rgb(0,0,0)" fill-opacity="0.0"><g fill="rgb(0,0,0)" fill-opacity="0.0"><path d="M 328.29212776079595,147.57667358201053 c 0.0,-4.515036638185165 -3.660160376703371,-8.175197014888537 -8.175197014888536 -8.175197014888537c -4.515036638185165,-2.7646625834932445e-16 -8.175197014888537,3.6601603767033706 -8.175197014888537 8.175197014888534c -5.529325166986489e-16,4.515036638185165 3.66016037670337,8.175197014888537 8.175197014888534 8.175197014888537c 4.515036638185165,8.293987750479733e-16 8.175197014888537,-3.6601603767033697 8.175197014888537 -8.175197014888534Z" /></g></g></g><g fill="rgb(0,0,0)" fill-opacity="0.0" stroke-width="0.6000000000000002"><g fill="rgb(0,0,0)" fill-opacity="0.0"><g fill="rgb(0,0,0)" fill-opacity="0.0"><path d="M 385.8395686563293,132.15329738802768 c 0.0,-16.78020201891495 -13.60304145115369,-30.383243470068642 -30.383243470068635 -30.383243470068642c -16.78020201891495,-1.0274910345755073e-15 -30.383243470068642,13.603041451153688 -30.383243470068642 30.38324347006863c -2.0549820691510146e-15,16.78020201891495 13.603041451153686,30.383243470068642 30.383243470068628 30.383243470068642c 16.78020201891495,3.0824731037265217e-15 30.383243470068642,-13.603041451153684 30.38324347006865 -30.38324347006863Z" /></g></g></g><g fill="rgb(0,0,0)" fill-opacity="0.0" stroke-width="0.6000000000000002"><g fill="rgb(0,0,0)" fill-opacity="0.0"><g fill="rgb(0,0,0)" fill-opacity="0.0"><path d="M 400.00000000000006,200.00000000000003 c 0.0,-110.45694996615872 -89.54305003384131,-200.00000000000006 -200.0 -200.00000000000006c -110.45694996615872,-6.763537510981781e-15 -200.00000000000006,89.5430500338413 -200.00000000000006 200.0c -1.3527075021963561e-14,110.45694996615872 89.5430500338413,200.00000000000006 199.99999999999997 200.00000000000006c 110.45694996615872,2.029061253294534e-14 200.00000000000006,-89.54305003384128 200.00000000000009 -200.0Z" /></g></g></g><g fill="rgb(0,0,0)" fill-opacity="0.0" stroke-width="0.6000000000000002"><g fill="rgb(0,0,0)" fill-opacity="0.0"><g fill="rgb(0,0,0)" fill-opacity="0.0"><path d="M 243.70401551529298,209.21588966902638 c 0.0,-1.7047260685275532 -1.381953527550085,-3.0866795960776385 -3.0866795960776376 -3.0866795960776385c -1.7047260685275532,-1.0438436616226597e-16 -3.0866795960776385,1.381953527550085 -3.0866795960776385 3.0866795960776376c -2.0876873232453194e-16,1.7047260685275532 1.3819535275500847,3.0866795960776385 3.086679596077637 3.0866795960776385c 1.7047260685275532,3.131530984867979e-16 3.0866795960776385,-1.3819535275500845 3.086679596077639 -3.0866795960776376Z" /></g></g></g><g fill="rgb(0,0,0)" fill-opacity="0.0" stroke-width="0.6000000000000002"><g fill="rgb(0,0,0)" fill-opacity="0.0"><g fill="rgb(0,0,0)" fill-opacity="0.0"><path d="M 246.7658912413124,200.5059040134398 c 0.0,-3.1139154596588834 -2.5243272414349103,-5.6382427010937946 -5.638242701093794 -5.6382427010937946c -3.1139154596588834,-1.9067233002433552e-16 -5.6382427010937946,2.5243272414349103 -5.6382427010937946 5.638242701093793c -3.8134466004867104e-16,3.1139154596588834 2.52432724143491,5.6382427010937946 5.638242701093792 5.6382427010937946c 3.1139154596588834,5.720169900730066e-16 5.6382427010937946,-2.5243272414349094 5.638242701093797 -5.638242701093793Z" /></g></g></g><g fill="rgb(0,0,0)" fill-opacity="0.0" stroke-width="0.6000000000000002"><g fill="rgb(0,0,0)" fill-opacity="0.0"><g fill="rgb(0,0,0)" fill-opacity="0.0"><path d="M 223.9492661003961,163.95207240470157 c 0.0,-1.7047260685275532 -1.381953527550085,-3.0866795960776385 -3.0866795960776376 -3.0866795960776385c -1.7047260685275532,-1.0438436616226597e-16 -3.0866795960776385,1.381953527550085 -3.0866795960776385 3.0866795960776376c -2.0876873232453194e-16,1.7047260685275532 1.3819535275500847,3.0866795960776385 3.086679596077637 3.0866795960776385c 1.7047260685275532,3.131530984867979e-16 3.0866795960776385,-1.3819535275500845 3.086679596077639 -3.0866795960776376Z" /></g></g></g><g fill="rgb(0,0,0)" fill-opacity="0.0" stroke-width="0.6000000000000002"><g fill="rgb(0,0,0)" fill-opacity="0.0"><g fill="rgb(0,0,0)" fill-opacity="0.0"><path d="M 233.23410875868726,169.5006952562863 c 0.0,-3.1139154596588834 -2.5243272414349103,-5.6382427010937946 -5.638242701093794 -5.6382427010937946c -3.1139154596588834,-1.9067233002433552e-16 -5.6382427010937946,2.5243272414349103 -5.6382427010937946 5.638242701093793c -3.8134466004867104e-16,3.1139154596588834 2.52432724143491,5.6382427010937946 5.638242701093792 5.6382427010937946c 3.1139154596588834,5.720169900730066e-16 5.6382427010937946,-2.5243272414349094 5.638242701093797 -5.638242701093793Z" /></g></g></g><g fill="rgb(0,0,0)" fill-opacity="0.0" stroke-width="0.6000000000000002"><g fill="rgb(0,0,0)" fill-opacity="0.0"><g fill="rgb(0,0,0)" fill-opacity="0.0"><path d="M 270.142084107873,170.60554811202957 c 0.0,-1.5413901278606925 -1.2495435858312691,-2.790933713691962 -2.7909337136919614 -2.790933713691962c -1.5413901278606925,-9.438292431609632e-17 -2.790933713691962,1.249543585831269 -2.790933713691962 2.790933713691961c -1.8876584863219264e-16,1.5413901278606925 1.2495435858312687,2.790933713691962 2.7909337136919605 2.790933713691962c 1.5413901278606925,2.83148772948289e-16 2.790933713691962,-1.2495435858312687 2.7909337136919623 -2.790933713691961Z" /></g></g></g><g fill="rgb(0,0,0)" fill-opacity="0.0" stroke-width="0.6000000000000002"><g fill="rgb(0,0,0)" fill-opacity="0.0"><g fill="rgb(0,0,0)" fill-opacity="0.0"><path d="M 265.23207070952606,173.82459415663357 c 0.0,-2.903184970734083 -2.353496427083886,-5.256681397817969 -5.256681397817968 -5.256681397817969c -2.903184970734083,-1.7776880908710984e-16 -5.256681397817969,2.3534964270838854 -5.256681397817969 5.256681397817967c -3.555376181742197e-16,2.903184970734083 2.3534964270838854,5.256681397817969 5.2566813978179665 5.256681397817969c 2.903184970734083,5.333064272613295e-16 5.256681397817969,-2.353496427083885 5.256681397817972 -5.256681397817967Z" /></g></g></g><g fill="rgb(0,0,0)" fill-opacity="0.0" stroke-width="0.6000000000000002"><g fill="rgb(0,0,0)" fill-opacity="0.0"><g fill="rgb(0,0,0)" fill-opacity="0.0"><path d="M 256.2909331369573,181.3575777614132 c 0.0,-7.4976949433789235 -6.078082670752253,-13.575777614131178 -13.575777614131175 -13.575777614131178c -7.4976949433789235,-4.591014056696148e-16 -13.575777614131178,6.078082670752252 -13.575777614131178 13.575777614131173c -9.182028113392295e-16,7.4976949433789235 6.078082670752251,13.575777614131178 13.575777614131173 13.575777614131178c 7.4976949433789235,1.3773042170088441e-15 13.575777614131178,-6.07808267075225 13.57577761413118 -13.575777614131173Z" /></g></g></g><g fill="rgb(0,0,0)" fill-opacity="0.0" stroke-width="0.6000000000000002"><g fill="rgb(0,0,0)" fill-opacity="0.0"><g fill="rgb(0,0,0)" fill-opacity="0.0"><path d="M 333.21211119293406,91.0100926607789 c 0.0,-42.89968959282483 -34.77706973462037,-77.67675932744521 -77.6767593274452 -77.67675932744521c -42.89968959282483,-2.6268483772133973e-15 -77.67675932744521,34.77706973462037 -77.67675932744521 77.67675932744518c -5.253696754426795e-15,42.89968959282483 34.77706973462036,77.67675932744521 77.67675932744518 77.67675932744521c 42.89968959282483,7.880545131640192e-15 77.67675932744521,-34.77706973462036 77.67675932744524 -77.67675932744518Z" /></g></g></g><g fill="rgb(0,0,0)" fill-opacity="0.0" stroke-width="0.6000000000000002"><g fill="rgb(0,0,0)" fill-opacity="0.0"><g fill="rgb(0,0,0)" fill-opacity="0.0"><path d="M 395.35351865489025,233.3939444035328 c 0.0,-42.89968959282483 -34.77706973462037,-77.67675932744521 -77.6767593274452 -77.67675932744521c -42.89968959282483,-2.6268483772133973e-15 -77.67675932744521,34.77706973462037 -77.67675932744521 77.67675932744518c -5.253696754426795e-15,42.89968959282483 34.77706973462036,77.67675932744521 77.67675932744518 77.67675932744521c 42.89968959282483,7.880545131640192e-15 77.67675932744521,-34.77706973462036 77.67675932744524 -77.67675932744518Z" /></g></g></g><g fill="rgb(0,0,0)" fill-opacity="0.0" stroke-width="0.6000000000000002"><g fill="rgb(0,0,0)" fill-opacity="0.0"><g fill="rgb(0,0,0)" fill-opacity="0.0"><path d="M 239.99999999999983,233.3939444035328 c 0.0,-64.34953438923725 -52.16560460193056,-116.51513899116782 -116.51513899116779 -116.51513899116782c -64.34953438923725,-3.940272565820096e-15 -116.51513899116782,52.16560460193055 -116.51513899116782 116.51513899116777c -7.880545131640192e-15,64.34953438923725 52.165604601930546,116.51513899116782 116.51513899116776 116.51513899116782c 64.34953438923725,1.1820817697460287e-14 116.51513899116782,-52.16560460193054 116.51513899116785 -116.51513899116777Z" /></g></g></g></g></g></g></svg>