<?xml version="1.0" encoding="UTF-8"?>
<!DOCTYPE svg PUBLIC "-//W3C//DTD SVG 1.1//EN"
    "http://www.w3.org/Graphics/SVG/1.1/DTD/svg11.dtd"><svg xmlns="http://www.w3.org/2000/svg" height="233.33333333333331" stroke-opacity="1" viewBox="0 0 300 233" font-size="1" width="300.0" xmlns:xlink="http://www.w3.org/1999/xlink" stroke="rgb(0,0,0)" version="1.1"><g><defs></defs><g stroke-linejoin="miter" stroke-opacity="1.0" fill-opacity="0.0" stroke="rgb(0,0,0)" stroke-width="1.0583005244258363" fill="rgb(0,0,0)" stroke-linecap="butt" stroke-miterlimit="10.0"><path d="M 150.0,25.75757575757575 l 60.6060606060606,60.6060606060606 "/></g><defs></defs><g stroke-linejoin="miter" stroke-opacity="1.0" fill-opacity="0.0" stroke="rgb(0,0,0)" stroke-width="1.0583005244258363" fill="rgb(0,0,0)" stroke-linecap="butt" stroke-miterlimit="10.0"><path d="M 150.0,25.75757575757575 l -60.6060606060606,60.6060606060606 "/></g><defs></defs><g stroke-linejoin="miter" stroke-opacity="1.0" fill-opacity="0.0" stroke="rgb(0,0,0)" stroke-width="1.0583005244258363" fill="rgb(0,0,0)" stroke-linecap="butt" stroke-miterlimit="10.0"><path d="M 210.6060606060606,86.36363636363635 v 60.6060606060606 "/></g><defs></defs><g stroke-linejoin="miter" stroke-opacity="1.0" fill-opacity="0.0" stroke="rgb(0,0,0)" stroke-width="1.0583005244258363" fill="rgb(0,0,0)" stroke-linecap="butt" stroke-miterlimit="10.0"><path d="M 210.6060606060606,146.96969696969694 l 60.6060606060606,60.6060606060606 "/></g><defs></defs><g stroke-linejoin="miter" stroke-opacity="1.0" fill-opacity="0.0" stroke="rgb(0,0,0)" stroke-width="1.0583005244258363" fill="rgb(0,0,0)" stroke-linecap="butt" stroke-miterlimit="10.0"><path d="M 210.6060606060606,146.96969696969694 v 60.6060606060606 "/></g><defs></defs><g stroke-linejoin="miter" stroke-opacity="1.0" fill-opacity="0.0" stroke="rgb(0,0,0)" stroke-width="1.0583005244258363" fill="rgb(0,0,0)" stroke-linecap="butt" stroke-miterlimit="10.0"><path d="M 210.6060606060606,146.96969696969694 l -60.6060606060606,60.6060606060606 "/></g><defs></defs><g stroke-linejoin="miter" stroke-opacity="1.0" fill-opacity="1.0" stroke="rgb(0,0,0)" stroke-width="1.0583005244258363" fill="rgb(255,255,255)" stroke-linecap="butt" stroke-miterlimit="10.0"><path d="M 286.3636363636363,207.57575757575756 c 0.0,-8.367950755012021 -6.783564396503127,-15.15151515151515 -15.151515151515147 -15.15151515151515c -8.367950755012021,-5.123892053774075e-16 -15.15151515151515,6.7835643965031265 -15.15151515151515 15.151515151515145c -1.024778410754815e-15,8.367950755012021 6.783564396503126,15.15151515151515 15.151515151515143 15.15151515151515c 8.367950755012021,1.5371676161322224e-15 15.15151515151515,-6.783564396503125 15.151515151515154 -15.151515151515145Z"/></g><defs></defs><g stroke-linejoin="miter" stroke-opacity="1.0" fill-opacity="1.0" font-size="15.15151515151515px" stroke="rgb(0,0,0)" stroke-width="1.0583005244258363" fill="rgb(0,0,0)" stroke-linecap="butt" stroke-miterlimit="10.0"><text dominant-baseline="middle" transform="matrix(1.0,0.0,0.0,1.0,271.2121212121212,207.57575757575756)" stroke="none" text-anchor="middle">J</text></g><defs></defs><g stroke-linejoin="miter" stroke-opacity="1.0" fill-opacity="1.0" stroke="rgb(0,0,0)" stroke-width="1.0583005244258363" fill="rgb(255,255,255)" stroke-linecap="butt" stroke-miterlimit="10.0"><path d="M 225.75757575757575,207.57575757575756 c 0.0,-8.367950755012021 -6.783564396503127,-15.15151515151515 -15.151515151515147 -15.15151515151515c -8.367950755012021,-5.123892053774075e-16 -15.15151515151515,6.7835643965031265 -15.15151515151515 15.151515151515145c -1.024778410754815e-15,8.367950755012021 6.783564396503126,15.15151515151515 15.151515151515143 15.15151515151515c 8.367950755012021,1.5371676161322224e-15 15.15151515151515,-6.783564396503125 15.151515151515154 -15.151515151515145Z"/></g><defs></defs><g stroke-linejoin="miter" stroke-opacity="1.0" fill-opacity="1.0" font-size="15.15151515151515px" stroke="rgb(0,0,0)" stroke-width="1.0583005244258363" fill="rgb(0,0,0)" stroke-linecap="butt" stroke-miterlimit="10.0"><text dominant-baseline="middle" transform="matrix(1.0,0.0,0.0,1.0,210.6060606060606,207.57575757575756)" stroke="none" text-anchor="middle">I</text></g><defs></defs><g stroke-linejoin="miter" stroke-opacity="1.0" fill-opacity="1.0" stroke="rgb(0,0,0)" stroke-width="1.0583005244258363" fill="rgb(255,255,255)" stroke-linecap="butt" stroke-miterlimit="10.0"><path d="M 165.15151515151516,207.57575757575756 c 0.0,-8.367950755012021 -6.783564396503127,-15.15151515151515 -15.151515151515147 -15.15151515151515c -8.367950755012021,-5.123892053774075e-16 -15.15151515151515,6.7835643965031265 -15.15151515151515 15.151515151515145c -1.024778410754815e-15,8.367950755012021 6.783564396503126,15.15151515151515 15.151515151515143 15.15151515151515c 8.367950755012021,1.5371676161322224e-15 15.15151515151515,-6.783564396503125 15.151515151515154 -15.151515151515145Z"/></g><defs></defs><g stroke-linejoin="miter" stroke-opacity="1.0" fill-opacity="1.0" font-size="15.15151515151515px" stroke="rgb(0,0,0)" stroke-width="1.0583005244258363" fill="rgb(0,0,0)" stroke-linecap="butt" stroke-miterlimit="10.0"><text dominant-baseline="middle" transform="matrix(1.0,0.0,0.0,1.0,150.0,207.57575757575756)" stroke="none" text-anchor="middle">H</text></g><defs></defs><g stroke-linejoin="miter" stroke-opacity="1.0" fill-opacity="1.0" stroke="rgb(0,0,0)" stroke-width="1.0583005244258363" fill="rgb(255,255,255)" stroke-linecap="butt" stroke-miterlimit="10.0"><path d="M 225.75757575757575,146.96969696969694 c 0.0,-8.367950755012021 -6.783564396503127,-15.15151515151515 -15.151515151515147 -15.15151515151515c -8.367950755012021,-5.123892053774075e-16 -15.15151515151515,6.7835643965031265 -15.15151515151515 15.151515151515145c -1.024778410754815e-15,8.367950755012021 6.783564396503126,15.15151515151515 15.151515151515143 15.15151515151515c 8.367950755012021,1.5371676161322224e-15 15.15151515151515,-6.783564396503125 15.151515151515154 -15.151515151515145Z"/></g><defs></defs><g stroke-linejoin="miter" stroke-opacity="1.0" fill-opacity="1.0" font-size="15.15151515151515px" stroke="rgb(0,0,0)" stroke-width="1.0583005244258363" fill="rgb(0,0,0)" stroke-linecap="butt" stroke-miterlimit="10.0"><text dominant-baseline="middle" transform="matrix(1.0,0.0,0.0,1.0,210.6060606060606,146.96969696969694)" stroke="none" text-anchor="middle">G</text></g><defs></defs><g stroke-linejoin="miter" stroke-opacity="1.0" fill-opacity="1.0" stroke="rgb(0,0,0)" stroke-width="1.0583005244258363" fill="rgb(255,255,255)" stroke-linecap="butt" stroke-miterlimit="10.0"><path d="M 225.75757575757575,86.36363636363635 c 0.0,-8.367950755012021 -6.783564396503127,-15.15151515151515 -15.151515151515147 -15.15151515151515c -8.367950755012021,-5.123892053774075e-16 -15.15151515151515,6.7835643965031265 -15.15151515151515 15.151515151515145c -1.024778410754815e-15,8.367950755012021 6.783564396503126,15.15151515151515 15.151515151515143 15.15151515151515c 8.367950755012021,1.5371676161322224e-15 15.15151515151515,-6.783564396503125 15.151515151515154 -15.151515151515145Z"/></g><defs></defs><g stroke-linejoin="miter" stroke-opacity="1.0" fill-opacity="1.0" font-size="15.15151515151515px" stroke="rgb(0,0,0)" stroke-width="1.0583005244258363" fill="rgb(0,0,0)" stroke-linecap="butt" stroke-miterlimit="10.0"><text dominant-baseline="middle" transform="matrix(1.0,0.0,0.0,1.0,210.6060606060606,86.36363636363635)" stroke="none" text-anchor="middle">F</text></g><defs></defs><g stroke-linejoin="miter" stroke-opacity="1.0" fill-opacity="0.0" stroke="rgb(0,0,0)" stroke-width="1.0583005244258363" fill="rgb(0,0,0)" stroke-linecap="butt" stroke-miterlimit="10.0"><path d="M 89.3939393939394,86.36363636363635 l 60.6060606060606,60.6060606060606 "/></g><defs></defs><g stroke-linejoin="miter" stroke-opacity="1.0" fill-opacity="0.0" stroke="rgb(0,0,0)" stroke-width="1.0583005244258363" fill="rgb(0,0,0)" stroke-linecap="butt" stroke-miterlimit="10.0"><path d="M 89.3939393939394,86.36363636363635 v 60.6060606060606 "/></g><defs></defs><g stroke-linejoin="miter" stroke-opacity="1.0" fill-opacity="0.0" stroke="rgb(0,0,0)" stroke-width="1.0583005244258363" fill="rgb(0,0,0)" stroke-linecap="butt" stroke-miterlimit="10.0"><path d="M 89.3939393939394,86.36363636363635 l -60.6060606060606,60.6060606060606 "/></g><defs></defs><g stroke-linejoin="miter" stroke-opacity="1.0" fill-opacity="1.0" stroke="rgb(0,0,0)" stroke-width="1.0583005244258363" fill="rgb(255,255,255)" stroke-linecap="butt" stroke-miterlimit="10.0"><path d="M 165.15151515151516,146.96969696969694 c 0.0,-8.367950755012021 -6.783564396503127,-15.15151515151515 -15.151515151515147 -15.15151515151515c -8.367950755012021,-5.123892053774075e-16 -15.15151515151515,6.7835643965031265 -15.15151515151515 15.151515151515145c -1.024778410754815e-15,8.367950755012021 6.783564396503126,15.15151515151515 15.151515151515143 15.15151515151515c 8.367950755012021,1.5371676161322224e-15 15.15151515151515,-6.783564396503125 15.151515151515154 -15.151515151515145Z"/></g><defs></defs><g stroke-linejoin="miter" stroke-opacity="1.0" fill-opacity="1.0" font-size="15.15151515151515px" stroke="rgb(0,0,0)" stroke-width="1.0583005244258363" fill="rgb(0,0,0)" stroke-linecap="butt" stroke-miterlimit="10.0"><text dominant-baseline="middle" transform="matrix(1.0,0.0,0.0,1.0,150.0,146.96969696969694)" stroke="none" text-anchor="middle">E</text></g><defs></defs><g stroke-linejoin="miter" stroke-opacity="1.0" fill-opacity="1.0" stroke="rgb(0,0,0)" stroke-width="1.0583005244258363" fill="rgb(255,255,255)" stroke-linecap="butt" stroke-miterlimit="10.0"><path d="M 104.54545454545456,146.96969696969694 c 0.0,-8.367950755012021 -6.783564396503127,-15.15151515151515 -15.151515151515147 -15.15151515151515c -8.367950755012021,-5.123892053774075e-16 -15.15151515151515,6.7835643965031265 -15.15151515151515 15.151515151515145c -1.024778410754815e-15,8.367950755012021 6.783564396503126,15.15151515151515 15.151515151515143 15.15151515151515c 8.367950755012021,1.5371676161322224e-15 15.15151515151515,-6.783564396503125 15.151515151515154 -15.151515151515145Z"/></g><defs></defs><g stroke-linejoin="miter" stroke-opacity="1.0" fill-opacity="1.0" font-size="15.15151515151515px" stroke="rgb(0,0,0)" stroke-width="1.0583005244258363" fill="rgb(0,0,0)" stroke-linecap="butt" stroke-miterlimit="10.0"><text dominant-baseline="middle" transform="matrix(1.0,0.0,0.0,1.0,89.3939393939394,146.96969696969694)" stroke="none" text-anchor="middle">D</text></g><defs></defs><g stroke-linejoin="miter" stroke-opacity="1.0" fill-opacity="1.0" stroke="rgb(0,0,0)" stroke-width="1.0583005244258363" fill="rgb(255,255,255)" stroke-linecap="butt" stroke-miterlimit="10.0"><path d="M 43.939393939393945,146.96969696969694 c 0.0,-8.367950755012021 -6.783564396503127,-15.15151515151515 -15.151515151515147 -15.15151515151515c -8.367950755012021,-5.123892053774075e-16 -15.15151515151515,6.7835643965031265 -15.15151515151515 15.151515151515145c -1.024778410754815e-15,8.367950755012021 6.783564396503126,15.15151515151515 15.151515151515143 15.15151515151515c 8.367950755012021,1.5371676161322224e-15 15.15151515151515,-6.783564396503125 15.151515151515154 -15.151515151515145Z"/></g><defs></defs><g stroke-linejoin="miter" stroke-opacity="1.0" fill-opacity="1.0" font-size="15.15151515151515px" stroke="rgb(0,0,0)" stroke-width="1.0583005244258363" fill="rgb(0,0,0)" stroke-linecap="butt" stroke-miterlimit="10.0"><text dominant-baseline="middle" transform="matrix(1.0,0.0,0.0,1.0,28.787878787878796,146.96969696969694)" stroke="none" text-anchor="middle">C</text></g><defs></defs><g stroke-linejoin="miter" stroke-opacity="1.0" fill-opacity="1.0" stroke="rgb(0,0,0)" stroke-width="1.0583005244258363" fill="rgb(255,255,255)" stroke-linecap="butt" stroke-miterlimit="10.0"><path d="M 104.54545454545456,86.36363636363635 c 0.0,-8.367950755012021 -6.783564396503127,-15.15151515151515 -15.151515151515147 -15.15151515151515c -8.367950755012021,-5.123892053774075e-16 -15.15151515151515,6.7835643965031265 -15.15151515151515 15.151515151515145c -1.024778410754815e-15,8.367950755012021 6.783564396503126,15.15151515151515 15.151515151515143 15.15151515151515c 8.367950755012021,1.5371676161322224e-15 15.15151515151515,-6.783564396503125 15.151515151515154 -15.151515151515145Z"/></g><defs></defs><g stroke-linejoin="miter" stroke-opacity="1.0" fill-opacity="1.0" font-size="15.15151515151515px" stroke="rgb(0,0,0)" stroke-width="1.0583005244258363" fill="rgb(0,0,0)" stroke-linecap="butt" stroke-miterlimit="10.0"><text dominant-baseline="middle" transform="matrix(1.0,0.0,0.0,1.0,89.3939393939394,86.36363636363635)" stroke="none" text-anchor="middle">B</text></g><defs></defs><g stroke-linejoin="miter" stroke-opacity="1.0" fill-opacity="1.0" stroke="rgb(0,0,0)" stroke-width="1.0583005244258363" fill="rgb(255,255,255)" stroke-linecap="butt" stroke-miterlimit="10.0"><path d="M 165.15151515151516,25.75757575757575 c 0.0,-8.367950755012021 -6.783564396503127,-15.15151515151515 -15.151515151515147 -15.15151515151515c -8.367950755012021,-5.123892053774075e-16 -15.15151515151515,6.7835643965031265 -15.15151515151515 15.151515151515145c -1.024778410754815e-15,8.367950755012021 6.783564396503126,15.15151515151515 15.151515151515143 15.15151515151515c 8.367950755012021,1.5371676161322224e-15 15.15151515151515,-6.783564396503125 15.151515151515154 -15.151515151515145Z"/></g><defs></defs><g stroke-linejoin="miter" stroke-opacity="1.0" fill-opacity="1.0" font-size="15.15151515151515px" stroke="rgb(0,0,0)" stroke-width="1.0583005244258363" fill="rgb(0,0,0)" stroke-linecap="butt" stroke-miterlimit="10.0"><text dominant-baseline="middle" transform="matrix(1.0,0.0,0.0,1.0,150.0,25.75757575757575)" stroke="none" text-anchor="middle">A</text></g></g></svg>