<?xml version="1.0" encoding="UTF-8"?>
<!DOCTYPE svg PUBLIC "-//W3C//DTD SVG 1.1//EN"
    "http://www.w3.org/Graphics/SVG/1.1/DTD/svg11.dtd">
<svg xmlns="http://www.w3.org/2000/svg" xmlns:xlink="http://www.w3.org/1999/xlink" version="1.1" width="400.0" height="101.81595354555577" font-size="1" viewBox="0 0 400 102"><g><g stroke="rgb(0,0,0)" stroke-opacity="1.0" fill="rgb(0,0,0)" fill-opacity="0.0" stroke-width="1.0e-2" stroke-linecap="butt" stroke-linejoin="miter" font-size="1.0em" stroke-miterlimit="10.0"><g transform="matrix(90.9090909090909,0.0,0.0,90.9090909090909,200.00000000000003,50.90797677277788)"><g><g><g><g clip-path="url(#myClip1)"><clipPath id="myClip1"><path d="M 1.9307627368790132,-4.32017835797613e-2 l -7.364818725667792e-2,-0.19419430990828557 l -0.15545882687829046,-0.13772450265866143 l -0.2016557227440451,-4.970367161012122e-2 l -0.201655722744045,4.9703671610121236e-2 l -0.15545882687829046,0.13772450265866146 l -7.364818725667784e-2,0.19419430990828568 l 2.5034364508567712e-2,0.2061765410530551 l 0.11798184506169807,0.17092621133924238 l 0.18390110674656063,9.651874649175761e-2 l 0.20769084112437378,1.1529157691002266e-17 l 0.1839011067465603,-9.651874649175723e-2 l 0.11798184506169833,-0.17092621133924218 l 2.5034364508567844e-2,-0.20617654105305588 Z" /></clipPath><g stroke="rgb(255,255,255)" stroke-opacity="1.0" fill="rgb(255,255,255)" fill-opacity="1.0"><path d="M 1.9307627368790132,0.4367242737608991 l -4.7824270863362866e-17,-0.8552439830611234 h -0.43076273687901334 l -4.7824270863362866e-17,0.8552439830611234 h 0.43076273687901345 Z" /></g><g stroke="rgb(255,255,255)" stroke-opacity="1.0" fill="rgb(255,255,255)" fill-opacity="1.0"><path d="M 1.4999999999999998,0.4367242737608991 l -4.7824270863362866e-17,-0.8552439830611234 h -0.43076273687901334 l -4.7824270863362866e-17,0.8552439830611234 h 0.43076273687901345 Z" /></g></g></g><g stroke="rgb(255,165,0)" stroke-opacity="1.0"><path d="M 1.7629560916595648,-0.34294768064945585 c 1.7768610586727338e-2,-3.385525891104339e-2 4.727805492775721e-3,-7.570467382604529e-2 -2.9127453418267668e-2 -9.347328441277261e-2c -3.385525891104339e-2,-1.776861058672734e-2 -7.570467382604529e-2,-4.727805492775725e-3 -9.347328441277261e-2 2.912745341826766e-2c -1.776861058672734e-2,3.385525891104339e-2 -4.727805492775728e-3,7.570467382604527e-2 2.9127453418267654e-2 9.347328441277261e-2c 3.385525891104339e-2,1.7768610586727344e-2 7.570467382604527e-2,4.7278054927757315e-3 9.347328441277263e-2 -2.9127453418267668e-2Z" /></g><g stroke="rgb(255,165,0)" stroke-opacity="1.0"><path d="M 1.8964418313095681,-0.18042068970829916 c 3.14666466230063e-2,-2.1719857928158472e-2 3.936798002067326e-2,-6.483603884397393e-2 1.764812209251479e-2 -9.630268546698023e-2c -2.171985792815847e-2,-3.14666466230063e-2 -6.483603884397393e-2,-3.9367980020673266e-2 -9.630268546698022e-2 -1.7648122092514797e-2c -3.14666466230063e-2,2.171985792815847e-2 -3.9367980020673266e-2,6.483603884397393e-2 -1.7648122092514804e-2 9.63026854669802e-2c 2.1719857928158465e-2,3.146664662300631e-2 6.483603884397393e-2,3.9367980020673266e-2 9.630268546698023e-2 1.7648122092514817e-2Z" /></g><g stroke="rgb(255,165,0)" stroke-opacity="1.0"><path d="M 1.939107525048536,2.5523730104590477e-2 c 3.795605313215495e-2,-4.608699246595754e-3 6.498942476142486e-2,-3.911424872171934e-2 6.0380725514829106e-2 -7.707030185387428e-2c -4.608699246595752e-3,-3.795605313215495e-2 -3.911424872171934e-2,-6.498942476142486e-2 -7.707030185387427e-2 -6.0380725514829106e-2c -3.795605313215495e-2,4.60869924659575e-3 -6.498942476142486e-2,3.9114248721719334e-2 -6.0380725514829106e-2 7.707030185387427e-2c 4.608699246595747e-3,3.795605313215495e-2 3.911424872171933e-2,6.498942476142486e-2 7.707030185387427e-2 6.0380725514829134e-2Z" /></g><g stroke="rgb(255,165,0)" stroke-opacity="1.0"><path d="M 1.8811789766182194,0.22770619410938925 c 3.575018528875369e-2,1.3558256891515262e-2 7.57225754968059e-2,-4.431855595115528e-3 8.928083238832116e-2 -4.0182040883869216e-2c 1.3558256891515264e-2,-3.575018528875369e-2 -4.431855595115525e-3,-7.572257549680589e-2 -4.01820408838692e-2 -8.928083238832116e-2c -3.575018528875369e-2,-1.3558256891515267e-2 -7.572257549680589e-2,4.431855595115521e-3 -8.928083238832116e-2 4.01820408838692e-2c -1.3558256891515269e-2,3.575018528875369e-2 4.431855595115518e-3,7.572257549680589e-2 4.01820408838692e-2 8.928083238832116e-2Z" /></g><g stroke="rgb(255,165,0)" stroke-opacity="1.0"><path d="M 1.7359269183493171,0.37980913636542357 c 2.535438083213645e-2,2.8619179770488418e-2 6.91085967418289e-2,3.126582223867941e-2 9.772777651231732e-2 5.911441406542962e-3c 2.8619179770488418e-2,-2.5354380832136446e-2 3.126582223867941e-2,-6.91085967418289e-2 5.911441406542969e-3 -9.772777651231732e-2c -2.5354380832136446e-2,-2.861917977048842e-2 -6.91085967418289e-2,-3.1265822238679415e-2 -9.772777651231732e-2 -5.911441406542976e-3c -2.861917977048842e-2,2.5354380832136442e-2 -3.126582223867942e-2,6.91085967418289e-2 -5.911441406542969e-3 9.772777651231734e-2Z" /></g><g stroke="rgb(255,165,0)" stroke-opacity="1.0"><path d="M 1.5366268463141715,0.44698760584100095 c 9.150193280289216e-3,3.71237934625476e-2 4.666267132217447e-2,5.9800876991597224e-2 8.378646478472207e-2 5.065068371130801e-2c 3.71237934625476e-2,-9.150193280289215e-3 5.9800876991597224e-2,-4.666267132217447e-2 5.0650683711308014e-2 -8.378646478472206e-2c -9.150193280289211e-3,-3.71237934625476e-2 -4.6662671322174464e-2,-5.9800876991597224e-2 -8.378646478472206e-2 -5.0650683711308014e-2c -3.71237934625476e-2,9.15019328028921e-3 -5.9800876991597224e-2,4.666267132217446e-2 -5.065068371130803e-2 8.378646478472207e-2Z" /></g><g stroke="rgb(255,165,0)" stroke-opacity="1.0"><path d="M 1.3289360051897976,0.4138518247675868 c -9.150193280289227e-3,3.712379346254759e-2 1.352689024876037e-2,7.463627150443286e-2 5.065068371130796e-2 8.378646478472208e-2c 3.712379346254759e-2,9.150193280289229e-3 7.463627150443286e-2,-1.3526890248760366e-2 8.378646478472207e-2 -5.0650683711307945e-2c 9.150193280289232e-3,-3.712379346254759e-2 -1.3526890248760363e-2,-7.463627150443286e-2 -5.0650683711307945e-2 -8.378646478472207e-2c -3.712379346254759e-2,-9.150193280289234e-3 -7.463627150443285e-2,1.352689024876036e-2 -8.378646478472208e-2 5.065068371130793e-2Z" /></g><g stroke="rgb(255,165,0)" stroke-opacity="1.0"><path d="M 1.1604338637318223,0.2879928012596493 c -2.5354380832136446e-2,2.861917977048843e-2 -2.2707738363945452e-2,7.237339568018089e-2 5.911441406542969e-3 9.772777651231734e-2c 2.861917977048843e-2,2.535438083213645e-2 7.237339568018089e-2,2.2707738363945455e-2 9.772777651231733e-2 -5.911441406542969e-3c 2.535438083213645e-2,-2.8619179770488428e-2 2.270773836394546e-2,-7.237339568018089e-2 -5.911441406542962e-3 -9.772777651231732e-2c -2.8619179770488428e-2,-2.5354380832136453e-2 -7.237339568018089e-2,-2.2707738363945462e-2 -9.772777651231734e-2 5.911441406542942e-3Z" /></g><g stroke="rgb(255,165,0)" stroke-opacity="1.0"><path d="M 1.069722231877328,9.824332083719876e-2 c -3.575018528875369e-2,1.3558256891515253e-2 -5.37402977753845e-2,5.353064709956745e-2 -4.0182040883869244e-2 8.928083238832113e-2c 1.3558256891515252e-2,3.575018528875369e-2 5.3530647099567445e-2,5.37402977753845e-2 8.928083238832112e-2 4.0182040883869244e-2c 3.575018528875369e-2,-1.3558256891515248e-2 5.37402977753845e-2,-5.353064709956744e-2 4.018204088386925e-2 -8.928083238832112e-2c -1.3558256891515246e-2,-3.575018528875369e-2 -5.353064709956744e-2,-5.37402977753845e-2 -8.928083238832113e-2 -4.0182040883869244e-2Z" /></g><g stroke="rgb(255,165,0)" stroke-opacity="1.0"><path d="M 1.077582051290509,-0.11192729726411285 c -3.795605313215495e-2,-4.608699246595746e-3 -7.246160260727855e-2,2.2424672382674156e-2 -7.707030185387428e-2 6.0380725514829106e-2c -4.608699246595749e-3,3.795605313215495e-2 2.2424672382674152e-2,7.246160260727855e-2 6.038072551482909e-2 7.707030185387428e-2c 3.795605313215495e-2,4.608699246595751e-3 7.246160260727855e-2,-2.242467238267415e-2 7.707030185387428e-2 -6.038072551482909e-2c 4.608699246595753e-3,-3.795605313215495e-2 -2.2424672382674146e-2,-7.246160260727853e-2 -6.038072551482909e-2 -7.707030185387431e-2Z" /></g><g stroke="rgb(255,165,0)" stroke-opacity="1.0"><path d="M 1.182212732064897,-0.29437149726779427 c -3.146664662300629e-2,-2.171985792815848e-2 -7.458282753882176e-2,-1.3818524530491538e-2 -9.630268546698023e-2 1.7648122092514748e-2c -2.1719857928158483e-2,3.146664662300629e-2 -1.3818524530491542e-2,7.458282753882176e-2 1.764812209251474e-2 9.630268546698023e-2c 3.146664662300629e-2,2.1719857928158483e-2 7.458282753882176e-2,1.3818524530491545e-2 9.630268546698023e-2 -1.7648122092514734e-2c 2.1719857928158486e-2,-3.1466646623006286e-2 1.3818524530491549e-2,-7.458282753882176e-2 -1.7648122092514734e-2 -9.630268546698025e-2Z" /></g><g stroke="rgb(255,165,0)" stroke-opacity="1.0"><path d="M 1.3596446461714746,-0.40729351164396077 c -1.7768610586727348e-2,-3.385525891104339e-2 -5.961802550172923e-2,-4.689606400499501e-2 -9.347328441277261e-2 -2.9127453418267668e-2c -3.385525891104339e-2,1.7768610586727344e-2 -4.689606400499501e-2,5.961802550172923e-2 -2.9127453418267675e-2 9.347328441277261e-2c 1.7768610586727344e-2,3.385525891104339e-2 5.9618025501729226e-2,4.689606400499501e-2 9.347328441277261e-2 2.9127453418267675e-2c 3.385525891104339e-2,-1.776861058672734e-2 4.689606400499502e-2,-5.961802550172922e-2 2.9127453418267668e-2 -9.347328441277261e-2Z" /></g><g stroke="rgb(255,165,0)" stroke-opacity="1.0"><path d="M 1.569230280374791,-0.42482426775682947 c 0.0,-3.823482807750732e-2 -3.0995452297284003e-2,-6.923028037479133e-2 -6.923028037479131e-2 -6.923028037479133e-2c -3.823482807750732e-2,-2.3412079910534343e-18 -6.923028037479133e-2,3.0995452297284e-2 -6.923028037479133e-2 6.92302803747913e-2c -4.682415982106869e-18,3.823482807750732e-2 3.0995452297283996e-2,6.923028037479133e-2 6.92302803747913e-2 6.923028037479133e-2c 3.823482807750732e-2,7.023623973160303e-18 6.923028037479133e-2,-3.0995452297283992e-2 6.923028037479133e-2 -6.92302803747913e-2Z" /></g></g><g><g><g clip-path="url(#myClip2)"><clipPath id="myClip2"><path d="M 0.4898882854777038,1.6573878170719807e-2 l -4.5571012860804935e-4,-2.9879433438282095e-2 l -2.276431454942239e-3,-2.9796074811038378e-2 l -4.088684306747305e-3,-2.9601872828485098e-2 l -5.885726984385897e-3,-2.9297549934752525e-2 l -7.660874371066547e-3,-2.8884238230993425e-2 l -9.407522801919135e-3,-2.8363475263892046e-2 l -1.1119174630060428e-2,-2.773719830589001e-2 l -1.2789462398268165e-2,-2.700773714840491e-2 l -1.4412172526339667e-2,-2.61778054348539e-2 l -1.598126842601873e-2,-2.525049056572136e-2 l -1.7490912957499757e-2,-2.4229242213226834e-2 l -1.8935490143972302e-2,-2.311785948831719e-2 l -2.030962606342194e-2,-2.1920476807725207e-2 l -2.16082088399752e-2,-2.064154851366686e-2 l -2.2826407660412065e-2,-1.9285832303396484e-2 l -2.3959690745108904e-2,-1.785837153025974e-2 l -2.500384220655615e-2,-1.6364476442088816e-2 l -2.595497773273763e-2,-1.4809704426731235e-2 l -2.680955903702474e-2,-1.3199839338201496e-2 l -2.7564407020836592e-2,-1.154086998036541e-2 l -2.821671360009485e-2,-9.838967828195672e-3 l -2.8764052151481003e-2,-8.100464069479466e-3 l -2.9204386539634603e-2,-6.33182605238467e-3 l -2.953607869171043e-2,-4.539633226499203e-3 l -2.975789469111719e-2,-2.7305526668471615e-3 l -2.9869009367768148e-2,-9.113142719312454e-4 l -2.9869009367768023e-2,9.113142719316653e-4 l -2.9757894691117146e-2,2.730552666847743e-3 l -2.953607869171056e-2,4.5396332264997594e-3 l -2.9204386539634388e-2,6.331826052385067e-3 l -2.8764052151480864e-2,8.100464069479979e-3 l -2.8216713600094687e-2,9.838967828196148e-3 l -2.7564407020836314e-2,1.1540869980365886e-2 l -2.6809559037024425e-2,1.3199839338201878e-2 l -2.5954977732737288e-2,1.4809704426731492e-2 l -2.5003842206555913e-2,1.636447644208931e-2 l -2.3959690745108477e-2,1.785837153026004e-2 l -2.2826407660411666e-2,1.928583230339667e-2 l -2.160820883997486e-2,2.0641548513667136e-2 l -2.0309626063421553e-2,2.192047680772546e-2 l -1.8935490143971757e-2,2.3117859488317464e-2 l -1.7490912957499393e-2,2.422924221322694e-2 l -1.5981268426018318e-2,2.5250490565721512e-2 l -1.4412172526339289e-2,2.6177805434853985e-2 l -1.2789462398267707e-2,2.7007737148405046e-2 l -1.1119174630059982e-2,2.7737198305890068e-2 l -9.407522801918682e-3,2.836347526389209e-2 l -7.6608743710662045e-3,2.888423823099344e-2 l -5.885726984385414e-3,2.9297549934752514e-2 l -4.088684306747004e-3,2.960187282848505e-2 l -2.2764314549417585e-3,2.9796074811038315e-2 l -4.5571012860765156e-4,2.9879433438281793e-2 l 1.3667064693359328e-3,2.9851638610647976e-2 l 3.1840388294481227e-3,2.9712793726719925e-2 l 4.989526355986333e-3,2.9463415298586097e-2 l 6.776452516767216e-3,2.9104431030377968e-2 l 8.538169829106854e-3,2.8637176367152236e-2 l 1.0268124588893405e-2,2.8063389526944246e-2 l 1.1959881250796658e-2,2.7385205034486822e-2 l 1.3607146368919498e-2,2.6605145780635286e-2 l 1.520379200882919e-2,2.5726113637047333e-2 l 1.674387854387866e-2,2.4751378661034176e-2 l 1.822167675100263e-2,2.368456693072528e-2 l 1.963168912380978e-2,2.252964705582724e-2 l 2.096867032366221e-2,2.1290915414128683e-2 l 2.2227646692684858e-2,1.9972980168698966e-2 l 2.3403934756093366e-2,1.858074412521107e-2 l 2.4493158645033982e-2,1.7119386493190558e-2 l 2.5491266375099342e-2,1.5594343619010426e-2 l 2.6394544919977433e-2,1.4011288762327805e-2 l 2.7199634024153974e-2,1.2376110991184821e-2 l 2.7903538703282937e-2,1.0694893274289038e-2 l 2.8503640385725254e-2,8.973889851970136e-3 l 2.8997706653807555e-2,7.219502969994834e-3 l 2.9383899548562204e-2,5.438259062792756e-3 l 2.9660782407055396e-2,3.636784474690946e-3 l 2.982732520686788e-2,1.8217808094785437e-3 l 2.988290839784576e-2,2.8338425224753528e-18 l 2.982732520686788e-2,-1.8217808094785845e-3 l 2.9660782407055393e-2,-3.6367844746909646e-3 l 2.9383899548562194e-2,-5.438259062792724e-3 l 2.8997706653807572e-2,-7.219502969994834e-3 l 2.8503640385725258e-2,-8.97388985197015e-3 l 2.7903538703282882e-2,-1.069489327428913e-2 l 2.719963402415395e-2,-1.2376110991184845e-2 l 2.6394544919977468e-2,-1.4011288762327772e-2 l 2.549126637509931e-2,-1.5594343619010442e-2 l 2.4493158645034017e-2,-1.711938649319058e-2 l 2.3403934756093373e-2,-1.8580744125211126e-2 l 2.222764669268455e-2,-1.9972980168698643e-2 l 2.096867032366245e-2,-2.1290915414129044e-2 l 1.963168912380957e-2,-2.252964705582702e-2 l 1.8221676751002717e-2,-2.36845669307253e-2 l 1.6743878543878474e-2,-2.475137866103399e-2 l 1.5203792008829504e-2,-2.5726113637047705e-2 l 1.360714636891936e-2,-2.660514578063508e-2 l 1.195988125079664e-2,-2.7385205034486833e-2 l 1.0268124588893372e-2,-2.806338952694425e-2 l 8.538169829106825e-3,-2.8637176367152014e-2 l 6.776452516767215e-3,-2.910443103037818e-2 l 4.989526355986373e-3,-2.9463415298586097e-2 l 3.184038829448112e-3,-2.9712793726719925e-2 l 1.3667064693361755e-3,-2.985163861065394e-2 Z" /></clipPath><g stroke="rgb(255,255,89)" stroke-opacity="1.0" fill="rgb(255,255,89)" fill-opacity="1.0"><path d="M 0.4898882854777039,0.4989336006297323 l -3.6259016935432546e-17,-0.9796626367987897 h -0.32659219031846903 l -3.6259016935432546e-17,0.9796626367987897 h 0.32659219031846914 Z" /></g><g stroke="rgb(89,89,89)" stroke-opacity="1.0" fill="rgb(89,89,89)" fill-opacity="1.0"><path d="M 0.16329609515923477,0.4989336006297323 l -3.6259016935432546e-17,-0.9796626367987897 h -0.32659219031846903 l -3.6259016935432546e-17,0.9796626367987897 h 0.32659219031846914 Z" /></g><g stroke="rgb(255,89,89)" stroke-opacity="1.0" fill="rgb(255,89,89)" fill-opacity="1.0"><path d="M -0.16329609515923438,0.4989336006297323 l -3.6259016935432546e-17,-0.9796626367987897 h -0.32659219031846903 l -3.6259016935432546e-17,0.9796626367987897 h 0.32659219031846914 Z" /></g></g></g><g fill="rgb(0,128,0)" fill-opacity="1.0" stroke-width="0.0"><path d="M 3.9204190833564835e-2,-0.46938196067353033 l 1.214520539652396e-3,-1.9884883471245316e-2 l -1.9884883471245316e-2,-1.2145205396523983e-3 l -1.2145205396524004e-3,1.9884883471245316e-2 l 1.988488347124532e-2,1.2145205396523993e-3 Z" /></g><g fill="rgb(0,128,0)" fill-opacity="1.0" stroke-width="0.0"><path d="M 6.830157003634027e-2,-0.4661019210515495 l 2.424522983127316e-3,-1.9773854938036996e-2 l -1.9773854938036996e-2,-2.424522983127318e-3 l -2.42452298312732e-3,1.9773854938036996e-2 l 1.9773854938037003e-2,2.4245229831273175e-3 Z" /></g><g fill="rgb(0,128,0)" fill-opacity="1.0" stroke-width="0.0"><path d="M 9.714486291251932e-2,-0.4610540905818472 l 3.625506041861835e-3,-1.9589266365708187e-2 l -1.9589266365708187e-2,-3.625506041861837e-3 l -3.625506041861839e-3,1.9589266365708187e-2 l 1.9589266365708194e-2,3.6255060418618375e-3 Z" /></g><g fill="rgb(0,128,0)" fill-opacity="1.0" stroke-width="0.0"><path d="M 0.12562677051816817,-0.4542572475253131 l 4.813001979996605e-3,-1.933180443587177e-2 l -1.933180443587177e-2,-4.813001979996606e-3 l -4.813001979996608e-3,1.933180443587177e-2 l 1.9331804435871774e-2,4.8130019799966055e-3 Z" /></g><g fill="rgb(0,128,0)" fill-opacity="1.0" stroke-width="0.0"><path d="M 0.15364133828629645,-0.44573667658453575 l 5.982593234646794e-3,-1.900242692381689e-2 l -1.900242692381689e-2,-5.9825932346467955e-3 l -5.982593234646797e-3,1.900242692381689e-2 l 1.9002426923816894e-2,5.982593234646796e-3 Z" /></g><g fill="rgb(0,128,0)" fill-opacity="1.0" stroke-width="0.0"><path d="M 0.18108435018480404,-0.4355240748430477 l 7.129928849526104e-3,-1.8602359135521978e-2 l -1.8602359135521978e-2,-7.1299288495261055e-3 l -7.129928849526107e-3,1.8602359135521978e-2 l 1.860235913552198e-2,7.129928849526106e-3 Z" /></g><g fill="rgb(0,128,0)" fill-opacity="1.0" stroke-width="0.0"><path d="M 0.20785371640696554,-0.42365743385009313 l 8.250740660789936e-3,-1.8133089349436027e-2 l -1.8133089349436027e-2,-8.250740660789938e-3 l -8.25074066078994e-3,1.8133089349436027e-2 l 1.813308934943603e-2,8.250740660789936e-3 Z" /></g><g fill="rgb(0,128,0)" fill-opacity="1.0" stroke-width="0.0"><path d="M 0.23384985315221693,-0.4101808982895693 l 9.340859174885231e-3,-1.7596363279985015e-2 l -1.7596363279985015e-2,-9.340859174885233e-3 l -9.340859174885235e-3,1.7596363279985015e-2 l 1.7596363279985018e-2,9.340859174885235e-3 Z" /></g><g fill="rgb(0,128,0)" fill-opacity="1.0" stroke-width="0.0"><path d="M 0.2589760530844344,-0.3951446017589029 l 1.0396229079340354e-2,-1.6994177583399574e-2 l -1.6994177583399574e-2,-1.0396229079340355e-2 l -1.0396229079340357e-2,1.6994177583399574e-2 l 1.6994177583399578e-2,1.0396229079340357e-2 Z" /></g><g fill="rgb(0,128,0)" fill-opacity="1.0" stroke-width="0.0"><path d="M 0.2831388450895753,-0.3786044802687756 l 1.1412924328793784e-2,-1.6328772430022703e-2 l -1.6328772430022703e-2,-1.1412924328793785e-2 l -1.1412924328793787e-2,1.6328772430022703e-2 l 1.6328772430022707e-2,1.1412924328793785e-2 Z" /></g><g fill="rgb(0,128,0)" fill-opacity="1.0" stroke-width="0.0"><path d="M 0.3062483419943635,-0.36062206415748915 l 1.2387162750140807e-2,-1.5602623170728911e-2 l -1.560262317072891e-2,-1.2387162750140809e-2 l -1.238716275014081e-2,1.5602623170728908e-2 l 1.5602623170728913e-2,1.2387162750140812e-2 Z" /></g><g fill="rgb(0,128,0)" fill-opacity="1.0" stroke-width="0.0"><path d="M 0.3282185749524765,-0.34126424919406634 l 1.3315320112465827e-2,-1.4818431128456402e-2 l -1.48184311284564e-2,-1.3315320112465829e-2 l -1.331532011246583e-2,1.4818431128456398e-2 l 1.4818431128456403e-2,1.3315320112465834e-2 Z" /></g><g fill="rgb(0,128,0)" fill-opacity="1.0" stroke-width="0.0"><path d="M 0.34896781325430104,-0.3206030477215963 l 1.4193943609419436e-2,-1.3979113549108321e-2 l -1.397911354910832e-2,-1.4193943609419437e-2 l -1.4193943609419439e-2,1.3979113549108317e-2 l 1.3979113549108323e-2,1.419394360941944e-2 Z" /></g><g fill="rgb(0,128,0)" fill-opacity="1.0" stroke-width="0.0"><path d="M 0.36841886837053917,-0.29871532076658924 l 1.501976470388476e-2,-1.3087792749206422e-2 l -1.308779274920642e-2,-1.5019764703884761e-2 l -1.5019764703884763e-2,1.3087792749206418e-2 l 1.3087792749206423e-2,1.5019764703884763e-2 Z" /></g><g fill="rgb(0,128,0)" fill-opacity="1.0" stroke-width="0.0"><path d="M 0.38649938109860954,-0.27568249211090784 l 1.5789711287150312e-2,-1.2147784500668455e-2 l -1.2147784500668453e-2,-1.5789711287150312e-2 l -1.5789711287150312e-2,1.2147784500668451e-2 l 1.2147784500668453e-2,1.5789711287150315e-2 Z" /></g><g fill="rgb(0,128,0)" fill-opacity="1.0" stroke-width="0.0"><path d="M 0.40314209074363144,-0.25159024538995284 l 1.650091910735606e-2,-1.1162585695918952e-2 l -1.116258569591895e-2,-1.650091910735606e-2 l -1.650091910735606e-2,1.1162585695918948e-2 l 1.116258569591895e-2,1.6500919107356064e-2 Z" /></g><g fill="rgb(0,128,0)" fill-opacity="1.0" stroke-width="0.0"><path d="M 0.418285085332629,-0.22652820534390986 l 1.7150742424698575e-2,-1.013586133921963e-2 l -1.0135861339219628e-2,-1.7150742424698575e-2 l -1.7150742424698575e-2,1.0135861339219626e-2 l 1.0135861339219628e-2,1.715074242469858e-2 Z" /></g><g fill="rgb(0,128,0)" fill-opacity="1.0" stroke-width="0.0"><path d="M 0.431872031931136,-0.2005896044078302 l 1.7736763853756807e-2,-9.071430912612886e-3 l -9.071430912612885e-3,-1.7736763853756807e-2 l -1.7736763853756807e-2,9.071430912612883e-3 l 9.071430912612885e-3,1.773676385375681e-2 Z" /></g><g fill="rgb(0,128,0)" fill-opacity="1.0" stroke-width="0.0"><path d="M 0.44385238620541234,-0.17387093588084893 l 1.825680335632465e-2,-7.973254167197715e-3 l -7.973254167197713e-3,-1.825680335632465e-2 l -1.825680335632465e-2,7.973254167197711e-3 l 7.973254167197713e-3,1.8256803356324652e-2 Z" /></g><g fill="rgb(0,128,0)" fill-opacity="1.0" stroke-width="0.0"><path d="M 0.45418158045068563,-0.14647159496477422 l 1.8708926351296243e-2,-6.845416392595541e-3 l -6.845416392595539e-3,-1.8708926351296243e-2 l -1.8708926351296243e-2,6.845416392595538e-3 l 6.845416392595539e-3,1.8708926351296243e-2 Z" /></g><g fill="rgb(0,128,0)" fill-opacity="1.0" stroke-width="0.0"><path d="M 0.4628211893859398,-0.11849350900740799 l 1.9091450911434764e-2,-5.692113219404493e-3 l -5.6921132194044915e-3,-1.9091450911434764e-2 l -1.9091450911434764e-2,5.69211321940449e-3 l 5.6921132194044915e-3,1.9091450911434767e-2 Z" /></g><g fill="rgb(0,128,0)" fill-opacity="1.0" stroke-width="0.0"><path d="M 0.4697390730984842,-9.00407583261191e-2 l 1.9402954020252196e-2,-4.517635011178072e-3 l -4.5176350111780705e-3,-1.9402954020252196e-2 l -1.9402954020252196e-2,4.517635011178069e-3 l 4.517635011178071e-3,1.94029540202522e-2 Z" /></g><g fill="rgb(0,128,0)" fill-opacity="1.0" stroke-width="0.0"><path d="M 0.47490949660654025,-6.121918902222424e-2 l 1.9642276865724145e-2,-3.3263509039908427e-3 l -3.3263509039908406e-3,-1.9642276865724145e-2 l -1.9642276865724145e-2,3.3263509039908384e-3 l 3.3263509039908393e-3,1.964227686572415e-2 Z" /></g><g fill="rgb(0,128,0)" fill-opacity="1.0" stroke-width="0.0"><path d="M 0.4783132255950633,-3.2136019226540705e-2 l 1.9808529151146687e-2,-2.1226925529653335e-3 l -2.1226925529653313e-3,-1.9808529151146687e-2 l -1.9808529151146687e-2,2.122692552965329e-3 l 2.122692552965332e-3,1.980852915114669e-2 Z" /></g><g fill="rgb(0,128,0)" fill-opacity="1.0" stroke-width="0.0"><path d="M 0.4799375979686585,-2.899440240897177e-3 l 1.990109240709857e-2,-9.111376462238958e-4 l -9.111376462238936e-4,-1.990109240709857e-2 l -1.990109240709857e-2,9.111376462238915e-4 l 9.111376462238932e-4,1.9901092407098572e-2 Z" /></g><g fill="rgb(0,128,0)" fill-opacity="1.0" stroke-width="0.0"><path d="M 0.4797765709554071,2.6381785940615445e-2 l 1.9919622292188063e-2,3.0380675240522645e-4 l 3.0380675240522867e-4,-1.9919622292188063e-2 l -1.9919622292188063e-2,-3.038067524052309e-4 l -3.038067524052286e-4,1.991962229218807e-2 Z" /></g><g fill="rgb(0,128,0)" fill-opacity="1.0" stroke-width="0.0"><path d="M 0.47783074358637445,5.5598731233403934e-2 l 1.98640498740256e-2,1.5176209699612917e-3 l 1.517620969961294e-3,-1.98640498740256e-2 l -1.98640498740256e-2,-1.517620969961296e-3 l -1.5176209699612926e-3,1.9864049874025604e-2 Z" /></g><g fill="rgb(0,128,0)" fill-opacity="1.0" stroke-width="0.0"><path d="M 0.4741073544671757,8.464270668200438e-2 l 1.9734581885656743e-2,2.7257895378314336e-3 l 2.725789537831436e-3,-1.9734581885656743e-2 l -1.9734581885656743e-2,-2.725789537831438e-3 l -2.725789537831435e-3,1.9734581885656747e-2 Z" /></g><g fill="rgb(0,128,0)" fill-opacity="1.0" stroke-width="0.0"><path d="M 0.46862025484988756,0.11340566679013352 l 1.953169995650172e-2,3.923817989590407e-3 l 3.923817989590409e-3,-1.953169995650172e-2 l -1.953169995650172e-2,-3.923817989590412e-3 l -3.923817989590409e-3,1.9531699956501728e-2 Z" /></g><g fill="rgb(0,128,0)" fill-opacity="1.0" stroke-width="0.0"><path d="M 0.4613898571054799,0.14178061145703175 l 1.925615882066231e-2,5.107249580710906e-3 l 5.107249580710908e-3,-1.925615882066231e-2 l -1.925615882066231e-2,-5.107249580710909e-3 l -5.107249580710908e-3,1.9256158820662315e-2 Z" /></g><g fill="rgb(0,128,0)" fill-opacity="1.0" stroke-width="0.0"><path d="M 0.45244305878845614,0.16966198402486585 l 1.8908983509261436e-2,6.271681867945923e-3 l 6.271681867945925e-3,-1.8908983509261436e-2 l -1.8908983509261436e-2,-6.271681867945926e-3 l -6.271681867945925e-3,1.890898350926144e-2 Z" /></g><g fill="rgb(0,128,0)" fill-opacity="1.0" stroke-width="0.0"><path d="M 0.4418131425761829,0.19694606395642944 l 1.8491465537260054e-2,7.4127830867068015e-3 l 7.412783086706803e-3,-1.8491465537260054e-2 l -1.8491465537260054e-2,-7.412783086706805e-3 l -7.412783086706804e-3,1.8491465537260058e-2 Z" /></g><g fill="rgb(0,128,0)" fill-opacity="1.0" stroke-width="0.0"><path d="M 0.4295396524551455,0.22353135268235202 l 1.8005158098936686e-2,8.526308265511946e-3 l 8.526308265511947e-3,-1.8005158098936686e-2 l -1.8005158098936686e-2,-8.526308265511949e-3 l -8.526308265511949e-3,1.800515809893669e-2 Z" /></g><g fill="rgb(0,128,0)" fill-opacity="1.0" stroke-width="0.0"><path d="M 0.41566824661471935,0.2493189511824463 l 1.7451870289902666e-2,9.60811501755965e-3 l 9.608115017559652e-3,-1.7451870289902666e-2 l -1.7451870289902666e-2,-9.608115017559654e-3 l -9.608115017559652e-3,1.745187028990267e-2 Z" /></g><g fill="rgb(0,128,0)" fill-opacity="1.0" stroke-width="0.0"><path d="M 0.40025052759570784,0.2742129278965569 l 1.6833660377147664e-2,1.0654178950678996e-2 l 1.0654178950678998e-2,-1.6833660377147664e-2 l -1.6833660377147664e-2,-1.0654178950679e-2 l -1.0654178950678998e-2,1.6833660377147668e-2 Z" /></g><g fill="rgb(0,128,0)" fill-opacity="1.0" stroke-width="0.0"><path d="M 0.38334385032550056,0.29812067559626565 l 1.6152828142151285e-2,1.1660608638333084e-2 l 1.1660608638333085e-2,-1.6152828142151285e-2 l -1.6152828142151285e-2,-1.1660608638333087e-2 l -1.1660608638333084e-2,1.615282814215129e-2 Z" /></g><g fill="rgb(0,128,0)" fill-opacity="1.0" stroke-width="0.0"><path d="M 0.36501110875397674,0.32095325588986406 l 1.5411906325544912e-2,1.2623660095981334e-2 l 1.2623660095981336e-2,-1.541190632554491e-2 l -1.5411906325544908e-2,-1.2623660095981338e-2 l -1.2623660095981341e-2,1.5411906325544913e-2 Z" /></g><g fill="rgb(0,128,0)" fill-opacity="1.0" stroke-width="0.0"><path d="M 0.34532050188388136,0.34262573007901037 l 1.4613651205150246e-2,1.3539750708947836e-2 l 1.3539750708947838e-2,-1.4613651205150244e-2 l -1.4613651205150242e-2,-1.353975070894784e-2 l -1.3539750708947841e-2,1.4613651205150248e-2 Z" /></g><g fill="rgb(0,128,0)" fill-opacity="1.0" stroke-width="0.0"><path d="M 0.3243452800660536,0.3630574751362693 l 1.376103234244469e-2,1.4405472559983373e-2 l 1.4405472559983375e-2,-1.3761032342444688e-2 l -1.3761032342444687e-2,-1.4405472559983376e-2 l -1.4405472559983378e-2,1.3761032342444692e-2 Z" /></g><g fill="rgb(0,128,0)" fill-opacity="1.0" stroke-width="0.0"><path d="M 0.3021634725033135,0.38217248362806566 l 1.285722153559772e-2,1.5217605106941265e-2 l 1.5217605106941267e-2,-1.2857221535597717e-2 l -1.2857221535597716e-2,-1.5217605106941269e-2 l -1.5217605106941269e-2,1.2857221535597721e-2 Z" /></g><g fill="rgb(0,128,0)" fill-opacity="1.0" stroke-width="0.0"><path d="M 0.27885759697670015,0.3998996464673323 l 1.190558102017329e-2,1.59731271634058e-2 l 1.59731271634058e-2,-1.1905581020173289e-2 l -1.1905581020173287e-2,-1.59731271634058e-2 l -1.5973127163405806e-2,1.1905581020173289e-2 Z" /></g><g fill="rgb(0,128,0)" fill-opacity="1.0" stroke-width="0.0"><path d="M 0.2545143528739071,0.4161730174439836 l 1.0909650961392722e-2,1.6669228137704085e-2 l 1.6669228137704085e-2,-1.090965096139272e-2 l -1.0909650961392719e-2,-1.6669228137704085e-2 l -1.666922813770409e-2,1.090965096139272e-2 Z" /></g><g fill="rgb(0,128,0)" fill-opacity="1.0" stroke-width="0.0"><path d="M 0.2292242986618666,0.43093205854914773 l 9.873136284487589e-3,1.730331848849166e-2 l 1.730331848849166e-2,-9.873136284487587e-3 l -9.873136284487586e-3,-1.730331848849166e-2 l -1.7303318488491662e-2,9.873136284487587e-3 Z" /></g><g fill="rgb(0,128,0)" fill-opacity="1.0" stroke-width="0.0"><path d="M 0.20308151500330338,0.4441218651805366 l 8.799892892134472e-3,1.787303935801642e-2 l 1.787303935801642e-2,-8.79989289213447e-3 l -8.799892892134469e-3,-1.787303935801642e-2 l -1.7873039358016422e-2,8.79989289213447e-3 Z" /></g><g fill="rgb(0,128,0)" fill-opacity="1.0" stroke-width="0.0"><path d="M 0.17618325477049057,0.4556933703911723 l 7.693913320243775e-3,1.8376271347224336e-2 l 1.8376271347224336e-2,-7.6939133202437735e-3 l -7.693913320243772e-3,-1.8376271347224336e-2 l -1.837627134722434e-2,7.693913320243773e-3 Z" /></g><g fill="rgb(0,128,0)" fill-opacity="1.0" stroke-width="0.0"><path d="M 0.1486295812581782,0.46560352742165206 l 6.559311885463919e-3,1.8811142400063173e-2 l 1.8811142400063173e-2,-6.559311885463917e-3 l -6.559311885463916e-3,-1.8811142400063173e-2 l -1.8811142400063176e-2,6.559311885463917e-3 Z" /></g><g fill="rgb(0,128,0)" fill-opacity="1.0" stroke-width="0.0"><path d="M 0.12052299594156299,0.4738154698369214 l 5.40030937965314e-3,1.917603476765395e-2 l 1.917603476765395e-2,-5.400309379653139e-3 l -5.400309379653137e-3,-1.917603476765395e-2 l -1.9176034767653952e-2,5.400309379653138e-3 Z" /></g><g fill="rgb(0,128,0)" fill-opacity="1.0" stroke-width="0.0"><path d="M 9.196805716406893e-2,0.4802986486718335 l 4.2212173682565765e-3,1.9469591026423018e-2 l 1.9469591026423018e-2,-4.221217368256575e-3 l -4.221217368256573e-3,-1.9469591026423018e-2 l -1.946959102642302e-2,4.221217368256574e-3 Z" /></g><g fill="rgb(0,128,0)" fill-opacity="1.0" stroke-width="0.0"><path d="M 6.307099117344324e-2,0.4850289460753058 l 3.0264221509996537e-3,1.969071912780692e-2 l 1.969071912780692e-2,-3.0264221509996516e-3 l -3.0264221509996494e-3,-1.969071912780692e-2 l -1.9690719127806927e-2,3.026422150999651e-3 Z" /></g><g fill="rgb(0,128,0)" fill-opacity="1.0" stroke-width="0.0"><path d="M 3.393929695313627e-2,0.4879887650303105 l 1.8203684445649631e-3,1.9838596460744765e-2 l 1.9838596460744765e-2,-1.820368444564961e-3 l -1.8203684445649588e-3,-1.9838596460744765e-2 l -1.983859646074477e-2,1.8203684445649605e-3 Z" /></g><g fill="rgb(0,128,0)" fill-opacity="1.0" stroke-width="0.0"><path d="M 4.681346319023182e-3,0.48916709481593346 l 6.075428479542956e-4,1.9912672911845418e-2 l 1.9912672911845418e-2,-6.075428479542935e-4 l -6.075428479542913e-4,-1.9912672911845418e-2 l -1.991267291184542e-2,6.075428479542927e-4 Z" /></g><g fill="rgb(0,128,0)" fill-opacity="1.0" stroke-width="0.0"><path d="M -2.4594019230868278e-2,0.4885595519679792 l -6.075428479542962e-4,1.9912672911845418e-2 l 1.9912672911845418e-2,6.075428479542983e-4 l 6.075428479543005e-4,-1.9912672911845418e-2 l -1.991267291184542e-2,-6.075428479542996e-4 Z" /></g><g fill="rgb(0,128,0)" fill-opacity="1.0" stroke-width="0.0"><path d="M -5.3777893413880715e-2,0.48616839658574557 l -1.8203684445649633e-3,1.9838596460744765e-2 l 1.9838596460744765e-2,1.8203684445649655e-3 l 1.8203684445649677e-3,-1.9838596460744765e-2 l -1.983859646074477e-2,-1.820368444564964e-3 Z" /></g><g fill="rgb(0,128,0)" fill-opacity="1.0" stroke-width="0.0"><path d="M -8.276171030124985e-2,0.48200252392430615 l -3.026422150999654e-3,1.969071912780692e-2 l 1.969071912780692e-2,3.0264221509996563e-3 l 3.0264221509996585e-3,-1.969071912780692e-2 l -1.9690719127806924e-2,-3.026422150999658e-3 Z" /></g><g fill="rgb(0,128,0)" fill-opacity="1.0" stroke-width="0.0"><path d="M -0.11143764819049162,0.4760774313035769 l -4.221217368256577e-3,1.9469591026423018e-2 l 1.9469591026423018e-2,4.221217368256579e-3 l 4.221217368256581e-3,-1.9469591026423018e-2 l -1.946959102642302e-2,-4.221217368256577e-3 Z" /></g><g fill="rgb(0,128,0)" fill-opacity="1.0" stroke-width="0.0"><path d="M -0.13969903070921658,0.46841516045726816 l -5.400309379653141e-3,1.9176034767653945e-2 l 1.9176034767653945e-2,5.400309379653143e-3 l 5.400309379653145e-3,-1.9176034767653945e-2 l -1.917603476765395e-2,-5.400309379653145e-3 Z" /></g><g fill="rgb(0,128,0)" fill-opacity="1.0" stroke-width="0.0"><path d="M -0.16744072365824106,0.45904421553618807 l -6.55931188546392e-3,1.881114240006317e-2 l 1.881114240006317e-2,6.559311885463922e-3 l 6.5593118854639235e-3,-1.881114240006317e-2 l -1.8811142400063173e-2,-6.559311885463923e-3 Z" /></g><g fill="rgb(0,128,0)" fill-opacity="1.0" stroke-width="0.0"><path d="M -0.1945595261177148,0.4479994570709283 l -7.693913320243786e-3,1.837627134722433e-2 l 1.837627134722433e-2,7.693913320243787e-3 l 7.693913320243789e-3,-1.837627134722433e-2 l -1.8376271347224332e-2,-7.6939133202437865e-3 Z" /></g><g fill="rgb(0,128,0)" fill-opacity="1.0" stroke-width="0.0"><path d="M -0.2209545543613196,0.435321972288402 l -8.799892892134481e-3,1.7873039358016412e-2 l 1.7873039358016412e-2,8.799892892134483e-3 l 8.799892892134484e-3,-1.7873039358016412e-2 l -1.7873039358016415e-2,-8.799892892134484e-3 Z" /></g><g fill="rgb(0,128,0)" fill-opacity="1.0" stroke-width="0.0"><path d="M -0.2465276171503581,0.4210589222646599 l -9.873136284487596e-3,1.7303318488491655e-2 l 1.7303318488491655e-2,9.873136284487598e-3 l 9.8731362844876e-3,-1.7303318488491655e-2 l -1.730331848849166e-2,-9.873136284487598e-3 Z" /></g><g fill="rgb(0,128,0)" fill-opacity="1.0" stroke-width="0.0"><path d="M -0.27118358101161105,0.40526336648259076 l -1.090965096139273e-2,1.666922813770408e-2 l 1.666922813770408e-2,1.0909650961392731e-2 l 1.0909650961392733e-2,-1.666922813770408e-2 l -1.6669228137704082e-2,-1.090965096139273e-2 Z" /></g><g fill="rgb(0,128,0)" fill-opacity="1.0" stroke-width="0.0"><path d="M -0.29483072414010575,0.3879940654471588 l -1.1905581020173299e-2,1.597312716340579e-2 l 1.597312716340579e-2,1.19055810201733e-2 l 1.1905581020173302e-2,-1.597312716340579e-2 l -1.5973127163405793e-2,-1.1905581020173302e-2 Z" /></g><g fill="rgb(0,128,0)" fill-opacity="1.0" stroke-width="0.0"><path d="M -0.3173810776102546,0.36931526209246773 l -1.2857221535597726e-2,1.521760510694126e-2 l 1.5217605106941258e-2,1.2857221535597728e-2 l 1.285722153559773e-2,-1.5217605106941257e-2 l -1.5217605106941262e-2,-1.2857221535597731e-2 Z" /></g><g fill="rgb(0,128,0)" fill-opacity="1.0" stroke-width="0.0"><path d="M -0.3387507526260367,0.34929644279382444 l -1.376103234244469e-2,1.4405472559983371e-2 l 1.440547255998337e-2,1.3761032342444692e-2 l 1.3761032342444694e-2,-1.4405472559983368e-2 l -1.4405472559983373e-2,-1.3761032342444697e-2 Z" /></g><g fill="rgb(0,128,0)" fill-opacity="1.0" stroke-width="0.0"><path d="M -0.35886025259282867,0.32801207887386025 l -1.4613651205150239e-2,1.3539750708947843e-2 l 1.3539750708947841e-2,1.461365120515024e-2 l 1.4613651205150242e-2,-1.353975070894784e-2 l -1.3539750708947845e-2,-1.4613651205150244e-2 Z" /></g><g fill="rgb(0,128,0)" fill-opacity="1.0" stroke-width="0.0"><path d="M -0.3776347688499577,0.30554134956431905 l -1.541190632554491e-2,1.2623660095981332e-2 l 1.262366009598133e-2,1.5411906325544912e-2 l 1.5411906325544913e-2,-1.2623660095981329e-2 l -1.2623660095981334e-2,-1.5411906325544913e-2 Z" /></g><g fill="rgb(0,128,0)" fill-opacity="1.0" stroke-width="0.0"><path d="M -0.39500445896383307,0.2819678474541146 l -1.6152828142151278e-2,1.1660608638333096e-2 l 1.1660608638333094e-2,1.6152828142151278e-2 l 1.6152828142151278e-2,-1.1660608638333092e-2 l -1.1660608638333094e-2,-1.6152828142151285e-2 Z" /></g><g fill="rgb(0,128,0)" fill-opacity="1.0" stroke-width="0.0"><path d="M -0.4109047065463864,0.2573792675194093 l -1.683366037714766e-2,1.0654178950679005e-2 l 1.0654178950679003e-2,1.683366037714766e-2 l 1.683366037714766e-2,-1.0654178950679001e-2 l -1.0654178950679003e-2,-1.6833660377147664e-2 Z" /></g><g fill="rgb(0,128,0)" fill-opacity="1.0" stroke-width="0.0"><path d="M -0.4252763616322785,0.2318670808925437 l -1.7451870289902666e-2,9.608115017559656e-3 l 9.608115017559654e-3,1.7451870289902666e-2 l 1.7451870289902666e-2,-9.608115017559652e-3 l -9.608115017559654e-3,-1.745187028990267e-2 Z" /></g><g fill="rgb(0,128,0)" fill-opacity="1.0" stroke-width="0.0"><path d="M -0.43806596072065707,0.20552619458341523 l -1.800515809893669e-2,8.526308265511944e-3 l 8.526308265511942e-3,1.800515809893669e-2 l 1.800515809893669e-2,-8.52630826551194e-3 l -8.526308265511942e-3,-1.8005158098936692e-2 Z" /></g><g fill="rgb(0,128,0)" fill-opacity="1.0" stroke-width="0.0"><path d="M -0.44922592566288944,0.17845459841916916 l -1.8491465537260058e-2,7.4127830867067954e-3 l 7.412783086706794e-3,1.8491465537260058e-2 l 1.8491465537260058e-2,-7.412783086706792e-3 l -7.412783086706794e-3,-1.849146553726006e-2 Z" /></g><g fill="rgb(0,128,0)" fill-opacity="1.0" stroke-width="0.0"><path d="M -0.4587147406564016,0.1507530005156045 l -1.8908983509261436e-2,6.27168186794593e-3 l 6.271681867945928e-3,1.8908983509261436e-2 l 1.8908983509261436e-2,-6.271681867945926e-3 l -6.271681867945928e-3,-1.8908983509261443e-2 Z" /></g><g fill="rgb(0,128,0)" fill-opacity="1.0" stroke-width="0.0"><path d="M -0.4664971066861904,0.12252445263636942 l -1.925615882066231e-2,5.1072495807109085e-3 l 5.107249580710907e-3,1.925615882066231e-2 l 1.925615882066231e-2,-5.107249580710905e-3 l -5.107249580710908e-3,-1.9256158820662315e-2 Z" /></g><g fill="rgb(0,128,0)" fill-opacity="1.0" stroke-width="0.0"><path d="M -0.4725440728394775,9.387396683363167e-2 l -1.953169995650172e-2,3.923817989590407e-3 l 3.923817989590404e-3,1.953169995650172e-2 l 1.953169995650172e-2,-3.923817989590401e-3 l -3.923817989590404e-3,-1.9531699956501725e-2 Z" /></g><g fill="rgb(0,128,0)" fill-opacity="1.0" stroke-width="0.0"><path d="M -0.4768331440050068,6.49081247963475e-2 l -1.9734581885656747e-2,2.7257895378314328e-3 l 2.7257895378314306e-3,1.9734581885656747e-2 l 1.9734581885656747e-2,-2.7257895378314284e-3 l -2.7257895378314315e-3,-1.973458188565675e-2 Z" /></g><g fill="rgb(0,128,0)" fill-opacity="1.0" stroke-width="0.0"><path d="M -0.4793483645563353,3.5734681359378115e-2 l -1.98640498740256e-2,1.5176209699612868e-3 l 1.5176209699612846e-3,1.98640498740256e-2 l 1.98640498740256e-2,-1.5176209699612824e-3 l -1.5176209699612857e-3,-1.9864049874025604e-2 Z" /></g><g fill="rgb(0,128,0)" fill-opacity="1.0" stroke-width="0.0"><path d="M -0.48008037770781187,6.462163648427048e-3 l -1.9919622292188063e-2,3.038067524052172e-4 l 3.0380675240521495e-4,1.9919622292188063e-2 l 1.9919622292188063e-2,-3.0380675240521273e-4 l -3.0380675240521474e-4,-1.991962229218807e-2 Z" /></g><g fill="rgb(0,128,0)" fill-opacity="1.0" stroke-width="0.0"><path d="M -0.4790264603224342,-2.2800532647995763e-2 l -1.990109240709857e-2,-9.11137646223892e-4 l -9.111376462238942e-4,1.990109240709857e-2 l 1.990109240709857e-2,9.111376462238963e-4 l 9.111376462238932e-4,-1.9901092407098572e-2 Z" /></g><g fill="rgb(0,128,0)" fill-opacity="1.0" stroke-width="0.0"><path d="M -0.4761905330420975,-5.19445483776874e-2 l -1.9808529151146687e-2,-2.1226925529653296e-3 l -2.1226925529653318e-3,1.9808529151146687e-2 l 1.9808529151146687e-2,2.122692552965334e-3 l 2.122692552965332e-3,-1.980852915114669e-2 Z" /></g><g fill="rgb(0,128,0)" fill-opacity="1.0" stroke-width="0.0"><path d="M -0.47158314570254883,-8.086146588794851e-2 l -1.9642276865724145e-2,-3.326350903990843e-3 l -3.3263509039908453e-3,1.9642276865724145e-2 l 1.9642276865724145e-2,3.3263509039908475e-3 l 3.326350903990846e-3,-1.964227686572415e-2 Z" /></g><g fill="rgb(0,128,0)" fill-opacity="1.0" stroke-width="0.0"><path d="M -0.4652214380873056,-0.10944371234637161 l -1.940295402025219e-2,-4.517635011178082e-3 l -4.5176350111780835e-3,1.940295402025219e-2 l 1.940295402025219e-2,4.517635011178085e-3 l 4.517635011178085e-3,-1.9402954020252192e-2 Z" /></g><g fill="rgb(0,128,0)" fill-opacity="1.0" stroke-width="0.0"><path d="M -0.4571290761665348,-0.1375849599188431 l -1.909145091143476e-2,-5.692113219404503e-3 l -5.6921132194045045e-3,1.909145091143476e-2 l 1.909145091143476e-2,5.692113219404506e-3 l 5.692113219404504e-3,-1.9091450911434764e-2 Z" /></g><g fill="rgb(0,128,0)" fill-opacity="1.0" stroke-width="0.0"><path d="M -0.4473361640580896,-0.16518052131607047 l -1.8708926351296243e-2,-6.845416392595538e-3 l -6.845416392595539e-3,1.8708926351296243e-2 l 1.8708926351296243e-2,6.845416392595541e-3 l 6.845416392595539e-3,-1.8708926351296246e-2 Z" /></g><g fill="rgb(0,128,0)" fill-opacity="1.0" stroke-width="0.0"><path d="M -0.4358791320382141,-0.19212773923717366 l -1.825680335632465e-2,-7.973254167197715e-3 l -7.973254167197717e-3,1.825680335632465e-2 l 1.825680335632465e-2,7.973254167197718e-3 l 7.973254167197717e-3,-1.8256803356324652e-2 Z" /></g><g fill="rgb(0,128,0)" fill-opacity="1.0" stroke-width="0.0"><path d="M -0.42280060101852257,-0.2183263682615871 l -1.7736763853756807e-2,-9.071430912612886e-3 l -9.071430912612888e-3,1.7736763853756807e-2 l 1.7736763853756807e-2,9.07143091261289e-3 l 9.07143091261289e-3,-1.773676385375681e-2 Z" /></g><g fill="rgb(0,128,0)" fill-opacity="1.0" stroke-width="0.0"><path d="M -0.4081492239934088,-0.24367894776860863 l -1.715074242469857e-2,-1.0135861339219635e-2 l -1.0135861339219636e-2,1.715074242469857e-2 l 1.715074242469857e-2,1.0135861339219638e-2 l 1.0135861339219635e-2,-1.7150742424698575e-2 Z" /></g><g fill="rgb(0,128,0)" fill-opacity="1.0" stroke-width="0.0"><path d="M -0.3919795050477118,-0.2680911644973093 l -1.650091910735605e-2,-1.116258569591896e-2 l -1.1162585695918962e-2,1.650091910735605e-2 l 1.650091910735605e-2,1.1162585695918964e-2 l 1.1162585695918964e-2,-1.6500919107356054e-2 Z" /></g><g fill="rgb(0,128,0)" fill-opacity="1.0" stroke-width="0.0"><path d="M -0.3743515965979403,-0.2914722033980585 l -1.5789711287150298e-2,-1.2147784500668469e-2 l -1.214778450066847e-2,1.5789711287150298e-2 l 1.5789711287150298e-2,1.2147784500668472e-2 l 1.214778450066847e-2,-1.57897112871503e-2 Z" /></g><g fill="rgb(0,128,0)" fill-opacity="1.0" stroke-width="0.0"><path d="M -0.35533107562133215,-0.3137350854704742 l -1.5019764703884761e-2,-1.3087792749206423e-2 l -1.3087792749206425e-2,1.501976470388476e-2 l 1.5019764703884757e-2,1.3087792749206427e-2 l 1.308779274920643e-2,-1.5019764703884763e-2 Z" /></g><g fill="rgb(0,128,0)" fill-opacity="1.0" stroke-width="0.0"><path d="M -0.33498869970519213,-0.33479699133101587 l -1.4193943609419432e-2,-1.3979113549108324e-2 l -1.3979113549108326e-2,1.419394360941943e-2 l 1.4193943609419429e-2,1.3979113549108328e-2 l 1.397911354910833e-2,-1.4193943609419434e-2 Z" /></g><g fill="rgb(0,128,0)" fill-opacity="1.0" stroke-width="0.0"><path d="M -0.3134001438240199,-0.354579569306532 l -1.3315320112465836e-2,-1.4818431128456395e-2 l -1.4818431128456397e-2,1.3315320112465834e-2 l 1.3315320112465832e-2,1.4818431128456398e-2 l 1.48184311284564e-2,-1.3315320112465837e-2 Z" /></g><g fill="rgb(0,128,0)" fill-opacity="1.0" stroke-width="0.0"><path d="M -0.29064571882363416,-0.37300922690763 l -1.238716275014081e-2,-1.5602623170728908e-2 l -1.560262317072891e-2,1.2387162750140809e-2 l 1.2387162750140807e-2,1.5602623170728911e-2 l 1.5602623170728913e-2,-1.2387162750140812e-2 Z" /></g><g fill="rgb(0,128,0)" fill-opacity="1.0" stroke-width="0.0"><path d="M -0.26681007265955214,-0.3900174045975694 l -1.1412924328793785e-2,-1.6328772430022707e-2 l -1.6328772430022707e-2,1.1412924328793784e-2 l 1.1412924328793782e-2,1.6328772430022707e-2 l 1.632877243002271e-2,-1.1412924328793784e-2 Z" /></g><g fill="rgb(0,128,0)" fill-opacity="1.0" stroke-width="0.0"><path d="M -0.24198187550103434,-0.40554083083824327 l -1.0396229079340355e-2,-1.6994177583399578e-2 l -1.6994177583399578e-2,1.0396229079340354e-2 l 1.0396229079340352e-2,1.6994177583399578e-2 l 1.6994177583399578e-2,-1.0396229079340354e-2 Z" /></g><g fill="rgb(0,128,0)" fill-opacity="1.0" stroke-width="0.0"><path d="M -0.2162534898722316,-0.41952175746445447 l -9.340859174885242e-3,-1.7596363279985015e-2 l -1.7596363279985015e-2,9.34085917488524e-3 l 9.340859174885238e-3,1.7596363279985015e-2 l 1.7596363279985018e-2,-9.34085917488524e-3 Z" /></g><g fill="rgb(0,128,0)" fill-opacity="1.0" stroke-width="0.0"><path d="M -0.18972062705752912,-0.43190817451088304 l -8.250740660789943e-3,-1.8133089349436027e-2 l -1.8133089349436027e-2,8.250740660789941e-3 l 8.25074066078994e-3,1.8133089349436027e-2 l 1.813308934943603e-2,-8.250740660789941e-3 Z" /></g><g fill="rgb(0,128,0)" fill-opacity="1.0" stroke-width="0.0"><path d="M -0.16248199104928163,-0.44265400369257385 l -7.129928849526107e-3,-1.8602359135521978e-2 l -1.8602359135521978e-2,7.1299288495261055e-3 l 7.129928849526104e-3,1.8602359135521978e-2 l 1.860235913552198e-2,-7.129928849526106e-3 Z" /></g><g fill="rgb(0,128,0)" fill-opacity="1.0" stroke-width="0.0"><path d="M -0.13463891136247902,-0.4517192698191826 l -5.982593234646794e-3,-1.9002426923816894e-2 l -1.9002426923816894e-2,5.982593234646792e-3 l 5.98259323464679e-3,1.9002426923816894e-2 l 1.9002426923816897e-2,-5.982593234646793e-3 Z" /></g><g fill="rgb(0,128,0)" fill-opacity="1.0" stroke-width="0.0"><path d="M -0.10629496608229577,-0.4590702495053097 l -4.8130019799966e-3,-1.933180443587177e-2 l -1.933180443587177e-2,4.8130019799965985e-3 l 4.813001979996597e-3,1.933180443587177e-2 l 1.9331804435871777e-2,-4.8130019799965985e-3 Z" /></g><g fill="rgb(0,128,0)" fill-opacity="1.0" stroke-width="0.0"><path d="M -7.755559654681042e-2,-0.46467959662370906 l -3.625506041861828e-3,-1.9589266365708187e-2 l -1.9589266365708187e-2,3.6255060418618258e-3 l 3.6255060418618236e-3,1.9589266365708187e-2 l 1.958926636570819e-2,-3.625506041861827e-3 Z" /></g><g fill="rgb(0,128,0)" fill-opacity="1.0" stroke-width="0.0"><path d="M -4.8527715098302886e-2,-0.4685264440346768 l -2.4245229831273227e-3,-1.9773854938036996e-2 l -1.9773854938036996e-2,2.4245229831273206e-3 l 2.4245229831273184e-3,1.9773854938036996e-2 l 1.9773854938037e-2,-2.424522983127321e-3 Z" /></g><g fill="rgb(0,128,0)" fill-opacity="1.0" stroke-width="0.0"><path d="M -1.9319307362319047e-2,-0.4705964812131827 l -1.2145205396523993e-3,-1.9884883471245316e-2 l -1.9884883471245316e-2,1.2145205396523972e-3 l 1.214520539652395e-3,1.9884883471245316e-2 l 1.988488347124532e-2,-1.2145205396523959e-3 Z" /></g><g fill="rgb(0,128,0)" fill-opacity="1.0" stroke-width="0.0"><path d="M 9.96096946594884e-3,-0.470882007484962 l -2.2117795297368607e-18,-1.9921938931897233e-2 h -1.9921938931897233e-2 l -2.2117795297368607e-18,1.9921938931897233e-2 h 1.992193893189724e-2 Z" /></g></g><g><g fill="rgb(89,89,255)" fill-opacity="1.0" stroke-width="0.0"><path d="M -1.1459259293799182,-0.10594335723948829 l -0.354074070620082,-0.25724987036946295 l -0.35407407062008195,0.25724987036946306 l 0.13524426044184076,0.4162390338592956 l 0.4376596203564825,-1.6196659582282392e-17 l 0.13524426044184074,-0.4162390338592957 Z" /></g><g fill="rgb(0,0,0)" fill-opacity="1.0"><path d="M -1.100844509232638,3.280298738027711e-2 c 7.662749022826411e-2,-2.4897780848057556e-2 0.11856270532054258,-0.10720027453878136 9.366492447248503e-2 -0.18382776476704546c -2.4897780848057553e-2,-7.662749022826411e-2 -0.10720027453878136,-0.11856270532054258 -0.18382776476704543 -9.366492447248503e-2c -7.662749022826411e-2,2.4897780848057546e-2 -0.1185627053205426,0.10720027453878135 -9.366492447248505e-2 0.18382776476704543c 2.4897780848057542e-2,7.662749022826411e-2 0.10720027453878134,0.1185627053205426 0.18382776476704543 9.366492447248509e-2Z" /></g><g fill="rgb(0,0,0)" fill-opacity="1.0"><path d="M -1.3991948800284533,0.39604563340962845 c 4.735839343366765e-2,6.518323650466092e-2 0.13859141049185414,7.963312685054068e-2 0.20377464699651504 3.2274733416873036e-2c 6.518323650466092e-2,-4.735839343366764e-2 7.963312685054069e-2,-0.1385914104918541 3.227473341687305e-2 -0.203774646996515c -4.735839343366764e-2,-6.518323650466092e-2 -0.1385914104918541,-7.963312685054069e-2 -0.20377464699651499 -3.2274733416873064e-2c -6.518323650466093e-2,4.7358393433667635e-2 -7.963312685054069e-2,0.1385914104918541 -3.227473341687309e-2 0.20377464699651504Z" /></g><g fill="rgb(0,0,0)" fill-opacity="1.0"><path d="M -1.8368545003849355,0.22454571982998633 c -4.735839343366766e-2,6.51832365046609e-2 -3.290850308778795e-2,0.15641625356284738 3.227473341687294e-2 0.20377464699651504c 6.51832365046609e-2,4.735839343366767e-2 0.15641625356284738,3.2908503087787956e-2 0.20377464699651504 -3.2274733416872925e-2c 4.735839343366767e-2,-6.51832365046609e-2 3.2908503087787956e-2,-0.15641625356284738 -3.227473341687291e-2 -0.203774646996515c -6.518323650466089e-2,-4.735839343366768e-2 -0.15641625356284736,-3.290850308778796e-2 -0.20377464699651504 3.22747334168729e-2Z" /></g><g fill="rgb(0,0,0)" fill-opacity="1.0"><path d="M -1.808992650472802,-0.24468970185925348 c -7.662749022826411e-2,-2.4897780848057573e-2 -0.15892998391898794,1.7037434244220863e-2 -0.18382776476704552 9.366492447248496e-2c -2.4897780848057577e-2,7.662749022826411e-2 1.7037434244220856e-2,0.15892998391898794 9.366492447248494e-2 0.18382776476704552c 7.662749022826411e-2,2.4897780848057584e-2 0.15892998391898794,-1.703743424422085e-2 0.18382776476704552 -9.366492447248494e-2c 2.4897780848057587e-2,-7.662749022826411e-2 -1.7037434244220842e-2,-0.15892998391898794 -9.366492447248494e-2 -0.18382776476704554Z" /></g><g fill="rgb(0,0,0)" fill-opacity="1.0"><path d="M -1.3541134598811726,-0.3631932276089513 c 0.0,-8.057091131320666e-2 -6.531562880562083e-2,-0.1458865401188275 -0.14588654011882748 -0.1458865401188275c -8.057091131320666e-2,-4.933545432205191e-18 -0.1458865401188275,6.531562880562082e-2 -0.1458865401188275 0.14588654011882746c -9.867090864410381e-18,8.057091131320666e-2 6.531562880562082e-2,0.1458865401188275 0.14588654011882746 0.1458865401188275c 8.057091131320666e-2,1.480063629661557e-17 0.1458865401188275,-6.53156288056208e-2 0.14588654011882757 -0.14588654011882746Z" /></g></g></g></g></g></g></svg>