<?xml version="1.0" encoding="UTF-8"?>
<!DOCTYPE svg PUBLIC "-//W3C//DTD SVG 1.1//EN"
    "http://www.w3.org/Graphics/SVG/1.1/DTD/svg11.dtd">
<svg xmlns="http://www.w3.org/2000/svg" xmlns:xlink="http://www.w3.org/1999/xlink" version="1.1" width="400.0" height="151.39442231075694" font-size="1" viewBox="0 0 400 151"><g><g fill="rgb(0,0,0)" fill-opacity="0.0"><g stroke="rgb(0,0,0)" stroke-opacity="1.0" stroke-width="0.9843395261741983" stroke-linecap="butt" stroke-linejoin="miter" font-size="115.90003621876133em" stroke-miterlimit="10.0"><g><g><path d="M 211.59000362187612,119.15972473741394 l 3.621876131836289,-3.6218761318362893 l 3.6218761318362893,3.621876131836289 l 3.6218761318362893,3.621876131836289 l -3.621876131836289,3.6218761318362893 l 3.6218761318362893,3.621876131836289 l -3.621876131836289,3.6218761318362893 l -3.621876131836289,3.6218761318362898 l -3.6218761318362898,-3.621876131836289 l 3.6218761318362893,3.621876131836289 l -3.621876131836289,3.6218761318362893 l -3.621876131836289,3.6218761318362898 l -3.6218761318362898,-3.621876131836289 l -3.6218761318362893,3.621876131836289 l -3.621876131836289,-3.6218761318362893 l -3.621876131836289,-3.6218761318362893 l 3.6218761318362893,-3.621876131836289 l 3.6218761318362893,3.621876131836289 l -3.621876131836289,3.6218761318362893 l -3.621876131836289,3.6218761318362898 l -3.6218761318362898,-3.621876131836289 l -3.6218761318362893,3.621876131836289 l -3.621876131836289,-3.6218761318362893 l -3.621876131836289,-3.6218761318362893 l 3.6218761318362893,-3.621876131836289 l -3.6218761318362893,3.621876131836289 l -3.621876131836289,-3.6218761318362893 l -3.621876131836289,-3.6218761318362893 l 3.6218761318362893,-3.621876131836289 l -3.621876131836289,-3.6218761318362893 l 3.6218761318362893,-3.621876131836289 l 3.6218761318362893,-3.621876131836289 l 3.621876131836289,3.6218761318362893 l 3.6218761318362893,3.621876131836289 l -3.621876131836289,3.6218761318362893 l -3.621876131836289,3.6218761318362898 l -3.6218761318362898,-3.621876131836289 l -3.6218761318362893,3.621876131836289 l -3.621876131836289,-3.6218761318362893 l -3.621876131836289,-3.6218761318362893 l 3.6218761318362893,-3.621876131836289 l -3.6218761318362893,3.621876131836289 l -3.621876131836289,-3.6218761318362893 l -3.621876131836289,-3.6218761318362893 l 3.6218761318362893,-3.621876131836289 l -3.621876131836289,-3.6218761318362893 l 3.6218761318362893,-3.621876131836289 l 3.6218761318362893,-3.621876131836289 l 3.621876131836289,3.6218761318362893 l -3.6218761318362893,3.621876131836289 l -3.621876131836289,-3.6218761318362893 l -3.621876131836289,-3.6218761318362893 l 3.6218761318362893,-3.621876131836289 l -3.621876131836289,-3.6218761318362893 l 3.6218761318362893,-3.621876131836289 l 3.6218761318362893,-3.621876131836289 l 3.621876131836289,3.6218761318362893 l -3.621876131836289,-3.6218761318362893 l 3.6218761318362893,-3.621876131836289 l 3.621876131836289,-3.6218761318362893 l 3.6218761318362893,3.621876131836289 l 3.621876131836289,-3.6218761318362893 l 3.6218761318362893,3.621876131836289 l 3.6218761318362893,3.621876131836289 l -3.621876131836289,3.6218761318362893 l 3.6218761318362893,3.621876131836289 l -3.621876131836289,3.6218761318362893 l -3.621876131836289,3.6218761318362898 l -3.6218761318362898,-3.621876131836289 l -3.6218761318362893,3.621876131836289 l -3.621876131836289,-3.6218761318362893 l -3.621876131836289,-3.6218761318362893 l 3.6218761318362893,-3.621876131836289 l -3.6218761318362893,3.621876131836289 l -3.621876131836289,-3.6218761318362893 l -3.621876131836289,-3.6218761318362893 l 3.6218761318362893,-3.621876131836289 l -3.621876131836289,-3.6218761318362893 l 3.6218761318362893,-3.621876131836289 l 3.6218761318362893,-3.621876131836289 l 3.621876131836289,3.6218761318362893 l -3.6218761318362893,3.621876131836289 l -3.621876131836289,-3.6218761318362893 l -3.621876131836289,-3.6218761318362893 l 3.6218761318362893,-3.621876131836289 l -3.621876131836289,-3.6218761318362893 l 3.6218761318362893,-3.621876131836289 l 3.6218761318362893,-3.621876131836289 l 3.621876131836289,3.6218761318362893 l -3.621876131836289,-3.6218761318362893 l 3.6218761318362893,-3.621876131836289 l 3.621876131836289,-3.6218761318362893 l 3.6218761318362893,3.621876131836289 l 3.621876131836289,-3.6218761318362893 l 3.6218761318362893,3.621876131836289 l 3.6218761318362893,3.621876131836289 l -3.621876131836289,3.6218761318362893 l -3.6218761318362893,3.621876131836289 l -3.621876131836289,-3.6218761318362893 l -3.621876131836289,-3.6218761318362893 l 3.6218761318362893,-3.621876131836289 l -3.621876131836289,-3.6218761318362893 l 3.6218761318362893,-3.621876131836289 l 3.6218761318362893,-3.621876131836289 l 3.621876131836289,3.6218761318362893 l -3.621876131836289,-3.6218761318362893 l 3.6218761318362893,-3.621876131836289 l 3.621876131836289,-3.6218761318362893 l 3.6218761318362893,3.621876131836289 l 3.621876131836289,-3.6218761318362893 l 3.6218761318362893,3.621876131836289 l 3.6218761318362893,3.621876131836289 l -3.621876131836289,3.6218761318362893 l -3.621876131836289,-3.6218761318362893 l 3.6218761318362893,-3.621876131836289 l 3.621876131836289,-3.6218761318362893 l 3.6218761318362893,3.621876131836289 l 3.621876131836289,-3.6218761318362893 l 3.6218761318362893,3.621876131836289 l 3.6218761318362893,3.621876131836289 l -3.621876131836289,3.6218761318362893 l 3.621876131836289,-3.6218761318362893 l 3.6218761318362893,3.621876131836289 l 3.6218761318362893,3.621876131836289 l -3.621876131836289,3.6218761318362893 l 3.6218761318362893,3.621876131836289 l -3.621876131836289,3.6218761318362893 l -3.621876131836289,3.6218761318362898 l -3.6218761318362898,-3.621876131836289 l 3.6218761318362893,3.621876131836289 l -3.621876131836289,3.6218761318362893 l -3.621876131836289,3.6218761318362898 l -3.6218761318362898,-3.621876131836289 l -3.6218761318362893,3.621876131836289 l -3.621876131836289,-3.6218761318362893 l -3.621876131836289,-3.6218761318362893 l 3.6218761318362893,-3.621876131836289 l -3.6218761318362893,3.621876131836289 l -3.621876131836289,-3.6218761318362893 l -3.621876131836289,-3.6218761318362893 l 3.6218761318362893,-3.621876131836289 l -3.621876131836289,-3.6218761318362893 l 3.6218761318362893,-3.621876131836289 l 3.6218761318362893,-3.621876131836289 l 3.621876131836289,3.6218761318362893 l -3.6218761318362893,3.621876131836289 l -3.621876131836289,-3.6218761318362893 l -3.621876131836289,-3.6218761318362893 l 3.6218761318362893,-3.621876131836289 l -3.621876131836289,-3.6218761318362893 l 3.6218761318362893,-3.621876131836289 l 3.6218761318362893,-3.621876131836289 l 3.621876131836289,3.6218761318362893 l -3.621876131836289,-3.6218761318362893 l 3.6218761318362893,-3.621876131836289 l 3.621876131836289,-3.6218761318362893 l 3.6218761318362893,3.621876131836289 l 3.621876131836289,-3.6218761318362893 l 3.6218761318362893,3.621876131836289 l 3.6218761318362893,3.621876131836289 l -3.621876131836289,3.6218761318362893 l -3.6218761318362893,3.621876131836289 l -3.621876131836289,-3.6218761318362893 l -3.621876131836289,-3.6218761318362893 l 3.6218761318362893,-3.621876131836289 l -3.621876131836289,-3.6218761318362893 l 3.6218761318362893,-3.621876131836289 l 3.6218761318362893,-3.621876131836289 l 3.621876131836289,3.6218761318362893 l -3.621876131836289,-3.6218761318362893 l 3.6218761318362893,-3.621876131836289 l 3.621876131836289,-3.6218761318362893 l 3.6218761318362893,3.621876131836289 l 3.621876131836289,-3.6218761318362893 l 3.6218761318362893,3.621876131836289 l 3.6218761318362893,3.621876131836289 l -3.621876131836289,3.6218761318362893 l -3.621876131836289,-3.6218761318362893 l 3.6218761318362893,-3.621876131836289 l 3.621876131836289,-3.6218761318362893 l 3.6218761318362893,3.621876131836289 l 3.621876131836289,-3.6218761318362893 l 3.6218761318362893,3.621876131836289 l 3.6218761318362893,3.621876131836289 l -3.621876131836289,3.6218761318362893 l 3.621876131836289,-3.6218761318362893 l 3.6218761318362893,3.621876131836289 l 3.6218761318362893,3.621876131836289 l -3.621876131836289,3.6218761318362893 l 3.6218761318362893,3.621876131836289 l -3.621876131836289,3.6218761318362893 l -3.621876131836289,3.6218761318362898 l -3.6218761318362898,-3.621876131836289 l -3.6218761318362893,3.621876131836289 l -3.621876131836289,-3.6218761318362893 l -3.621876131836289,-3.6218761318362893 l 3.6218761318362893,-3.621876131836289 l -3.621876131836289,-3.6218761318362893 l 3.6218761318362893,-3.621876131836289 l 3.6218761318362893,-3.621876131836289 l 3.621876131836289,3.6218761318362893 l -3.621876131836289,-3.6218761318362893 l 3.6218761318362893,-3.621876131836289 l 3.621876131836289,-3.6218761318362893 l 3.6218761318362893,3.621876131836289 l 3.621876131836289,-3.6218761318362893 l 3.6218761318362893,3.621876131836289 l 3.6218761318362893,3.621876131836289 l -3.621876131836289,3.6218761318362893 l -3.621876131836289,-3.6218761318362893 l 3.6218761318362893,-3.621876131836289 l 3.621876131836289,-3.6218761318362893 l 3.6218761318362893,3.621876131836289 l 3.621876131836289,-3.6218761318362893 l 3.6218761318362893,3.621876131836289 l 3.6218761318362893,3.621876131836289 l -3.621876131836289,3.6218761318362893 l 3.621876131836289,-3.6218761318362893 l 3.6218761318362893,3.621876131836289 l 3.6218761318362893,3.621876131836289 l -3.621876131836289,3.6218761318362893 l 3.6218761318362893,3.621876131836289 l -3.621876131836289,3.6218761318362893 l -3.621876131836289,3.6218761318362898 l -3.6218761318362898,-3.621876131836289 l -3.621876131836289,-3.6218761318362893 l 3.6218761318362893,-3.621876131836289 l 3.621876131836289,-3.6218761318362893 l 3.6218761318362893,3.621876131836289 l 3.621876131836289,-3.6218761318362893 l 3.6218761318362893,3.621876131836289 l 3.6218761318362893,3.621876131836289 l -3.621876131836289,3.6218761318362893 l 3.621876131836289,-3.6218761318362893 l 3.6218761318362893,3.621876131836289 l 3.6218761318362893,3.621876131836289 l -3.621876131836289,3.6218761318362893 l 3.6218761318362893,3.621876131836289 l -3.621876131836289,3.6218761318362893 l -3.621876131836289,3.6218761318362898 l -3.6218761318362898,-3.621876131836289 l 3.621876131836289,-3.6218761318362893 l 3.6218761318362893,3.621876131836289 l 3.6218761318362893,3.621876131836289 l -3.621876131836289,3.6218761318362893 l 3.6218761318362893,3.621876131836289 l -3.621876131836289,3.6218761318362893 l -3.621876131836289,3.6218761318362898 l -3.6218761318362898,-3.621876131836289 l 3.6218761318362893,3.621876131836289 l -3.621876131836289,3.6218761318362893 l -3.621876131836289,3.6218761318362898 l -3.6218761318362898,-3.621876131836289 l -3.6218761318362893,3.621876131836289 l -3.621876131836289,-3.6218761318362893 l -3.621876131836289,-3.6218761318362893 l 3.6218761318362893,-3.621876131836289 l 3.6218761318362893,3.621876131836289 l -3.621876131836289,3.6218761318362893 l -3.621876131836289,3.6218761318362898 l -3.6218761318362898,-3.621876131836289 l -3.6218761318362893,3.621876131836289 l -3.621876131836289,-3.6218761318362893 l -3.621876131836289,-3.6218761318362893 l 3.6218761318362893,-3.621876131836289 l -3.6218761318362893,3.621876131836289 l -3.621876131836289,-3.6218761318362893 l -3.621876131836289,-3.6218761318362893 l 3.6218761318362893,-3.621876131836289 l -3.621876131836289,-3.6218761318362893 l 3.6218761318362893,-3.621876131836289 l 3.6218761318362893,-3.621876131836289 l 3.621876131836289,3.6218761318362893 l -3.6218761318362893,3.621876131836289 l -3.621876131836289,-3.6218761318362893 l -3.621876131836289,-3.6218761318362893 l 3.6218761318362893,-3.621876131836289 l -3.621876131836289,-3.6218761318362893 l 3.6218761318362893,-3.621876131836289 l 3.6218761318362893,-3.621876131836289 l 3.621876131836289,3.6218761318362893 l -3.621876131836289,-3.6218761318362893 l 3.6218761318362893,-3.621876131836289 l 3.621876131836289,-3.6218761318362893 l 3.6218761318362893,3.621876131836289 l 3.621876131836289,-3.6218761318362893 l 3.6218761318362893,3.621876131836289 l 3.6218761318362893,3.621876131836289 l -3.621876131836289,3.6218761318362893 l -3.6218761318362893,3.621876131836289 l -3.621876131836289,-3.6218761318362893 l -3.621876131836289,-3.6218761318362893 l 3.6218761318362893,-3.621876131836289 l -3.621876131836289,-3.6218761318362893 l 3.6218761318362893,-3.621876131836289 l 3.6218761318362893,-3.621876131836289 l 3.621876131836289,3.6218761318362893 l -3.621876131836289,-3.6218761318362893 l 3.6218761318362893,-3.621876131836289 l 3.621876131836289,-3.6218761318362893 l 3.6218761318362893,3.621876131836289 l 3.621876131836289,-3.6218761318362893 l 3.6218761318362893,3.621876131836289 l 3.6218761318362893,3.621876131836289 l -3.621876131836289,3.6218761318362893 l -3.621876131836289,-3.6218761318362893 l 3.6218761318362893,-3.621876131836289 l 3.621876131836289,-3.6218761318362893 l 3.6218761318362893,3.621876131836289 l 3.621876131836289,-3.6218761318362893 l 3.6218761318362893,3.621876131836289 l 3.6218761318362893,3.621876131836289 l -3.621876131836289,3.6218761318362893 l 3.621876131836289,-3.6218761318362893 l 3.6218761318362893,3.621876131836289 l 3.6218761318362893,3.621876131836289 l -3.621876131836289,3.6218761318362893 l 3.6218761318362893,3.621876131836289 l -3.621876131836289,3.6218761318362893 l -3.621876131836289,3.6218761318362898 l -3.6218761318362898,-3.621876131836289 l -3.6218761318362893,3.621876131836289 l -3.621876131836289,-3.6218761318362893 l -3.621876131836289,-3.6218761318362893 l 3.6218761318362893,-3.621876131836289 l -3.621876131836289,-3.6218761318362893 l 3.6218761318362893,-3.621876131836289 l 3.6218761318362893,-3.621876131836289 l 3.621876131836289,3.6218761318362893 l -3.621876131836289,-3.6218761318362893 l 3.6218761318362893,-3.621876131836289 l 3.621876131836289,-3.6218761318362893 l 3.6218761318362893,3.621876131836289 l 3.621876131836289,-3.6218761318362893 l 3.6218761318362893,3.621876131836289 l 3.6218761318362893,3.621876131836289 l -3.621876131836289,3.6218761318362893 l -3.621876131836289,-3.6218761318362893 l 3.6218761318362893,-3.621876131836289 l 3.621876131836289,-3.6218761318362893 l 3.6218761318362893,3.621876131836289 l 3.621876131836289,-3.6218761318362893 l 3.6218761318362893,3.621876131836289 l 3.6218761318362893,3.621876131836289 l -3.621876131836289,3.6218761318362893 l 3.621876131836289,-3.6218761318362893 l 3.6218761318362893,3.621876131836289 l 3.6218761318362893,3.621876131836289 l -3.621876131836289,3.6218761318362893 l 3.6218761318362893,3.621876131836289 l -3.621876131836289,3.6218761318362893 l -3.621876131836289,3.6218761318362898 l -3.6218761318362898,-3.621876131836289 l -3.621876131836289,-3.6218761318362893 l 3.6218761318362893,-3.621876131836289 l 3.621876131836289,-3.6218761318362893 l 3.6218761318362893,3.621876131836289 l 3.621876131836289,-3.6218761318362893 l 3.6218761318362893,3.621876131836289 l 3.6218761318362893,3.621876131836289 l -3.621876131836289,3.6218761318362893 l 3.621876131836289,-3.6218761318362893 l 3.6218761318362893,3.621876131836289 l 3.6218761318362893,3.621876131836289 l -3.621876131836289,3.6218761318362893 l 3.6218761318362893,3.621876131836289 l -3.621876131836289,3.6218761318362893 l -3.621876131836289,3.6218761318362898 l -3.6218761318362898,-3.621876131836289 l 3.621876131836289,-3.6218761318362893 l 3.6218761318362893,3.621876131836289 l 3.6218761318362893,3.621876131836289 l -3.621876131836289,3.6218761318362893 l 3.6218761318362893,3.621876131836289 l -3.621876131836289,3.6218761318362893 l -3.621876131836289,3.6218761318362898 l -3.6218761318362898,-3.621876131836289 l 3.6218761318362893,3.621876131836289 l -3.621876131836289,3.6218761318362893 l -3.621876131836289,3.6218761318362898 l -3.6218761318362898,-3.621876131836289 l -3.6218761318362893,3.621876131836289 l -3.621876131836289,-3.6218761318362893 l -3.621876131836289,-3.6218761318362893 l 3.6218761318362893,-3.621876131836289 l -3.6218761318362893,3.621876131836289 l -3.621876131836289,-3.6218761318362893 l -3.621876131836289,-3.6218761318362893 l 3.6218761318362893,-3.621876131836289 l -3.621876131836289,-3.6218761318362893 l 3.6218761318362893,-3.621876131836289 l 3.6218761318362893,-3.621876131836289 l 3.621876131836289,3.6218761318362893 l -3.621876131836289,-3.6218761318362893 l 3.6218761318362893,-3.621876131836289 l 3.621876131836289,-3.6218761318362893 l 3.6218761318362893,3.621876131836289 l 3.621876131836289,-3.6218761318362893 l 3.6218761318362893,3.621876131836289 l 3.6218761318362893,3.621876131836289 l -3.621876131836289,3.6218761318362893 l -3.621876131836289,-3.6218761318362893 l 3.6218761318362893,-3.621876131836289 l 3.621876131836289,-3.6218761318362893 l 3.6218761318362893,3.621876131836289 l 3.621876131836289,-3.6218761318362893 l 3.6218761318362893,3.621876131836289 l 3.6218761318362893,3.621876131836289 l -3.621876131836289,3.6218761318362893 l 3.621876131836289,-3.6218761318362893 l 3.6218761318362893,3.621876131836289 l 3.6218761318362893,3.621876131836289 l -3.621876131836289,3.6218761318362893 l 3.6218761318362893,3.621876131836289 l -3.621876131836289,3.6218761318362893 l -3.621876131836289,3.6218761318362898 l -3.6218761318362898,-3.621876131836289 l -3.621876131836289,-3.6218761318362893 l 3.6218761318362893,-3.621876131836289 l 3.621876131836289,-3.6218761318362893 l 3.6218761318362893,3.621876131836289 l 3.621876131836289,-3.6218761318362893 l 3.6218761318362893,3.621876131836289 l 3.6218761318362893,3.621876131836289 l -3.621876131836289,3.6218761318362893 l 3.621876131836289,-3.6218761318362893 l 3.6218761318362893,3.621876131836289 l 3.6218761318362893,3.621876131836289 l -3.621876131836289,3.6218761318362893 l 3.6218761318362893,3.621876131836289 l -3.621876131836289,3.6218761318362893 l -3.621876131836289,3.6218761318362898 l -3.6218761318362898,-3.621876131836289 l 3.621876131836289,-3.6218761318362893 l 3.6218761318362893,3.621876131836289 l 3.6218761318362893,3.621876131836289 l -3.621876131836289,3.6218761318362893 l 3.6218761318362893,3.621876131836289 l -3.621876131836289,3.6218761318362893 l -3.621876131836289,3.6218761318362898 l -3.6218761318362898,-3.621876131836289 l 3.6218761318362893,3.621876131836289 l -3.621876131836289,3.6218761318362893 l -3.621876131836289,3.6218761318362898 l -3.6218761318362898,-3.621876131836289 l -3.6218761318362893,3.621876131836289 l -3.621876131836289,-3.6218761318362893 l -3.621876131836289,-3.6218761318362893 l 3.6218761318362893,-3.621876131836289 l -3.621876131836289,-3.6218761318362893 l 3.6218761318362893,-3.621876131836289 l 3.621876131836289,-3.6218761318362893 l 3.6218761318362893,3.621876131836289 l 3.621876131836289,-3.6218761318362893 l 3.6218761318362893,3.621876131836289 l 3.6218761318362893,3.621876131836289 l -3.621876131836289,3.6218761318362893 l 3.621876131836289,-3.6218761318362893 l 3.6218761318362893,3.621876131836289 l 3.6218761318362893,3.621876131836289 l -3.621876131836289,3.6218761318362893 l 3.6218761318362893,3.621876131836289 l -3.621876131836289,3.6218761318362893 l -3.621876131836289,3.6218761318362898 l -3.6218761318362898,-3.621876131836289 l 3.621876131836289,-3.6218761318362893 l 3.6218761318362893,3.621876131836289 l 3.6218761318362893,3.621876131836289 l -3.621876131836289,3.6218761318362893 l 3.6218761318362893,3.621876131836289 l -3.621876131836289,3.6218761318362893 l -3.621876131836289,3.6218761318362898 l -3.6218761318362898,-3.621876131836289 l 3.6218761318362893,3.621876131836289 l -3.621876131836289,3.6218761318362893 l -3.621876131836289,3.6218761318362898 l -3.6218761318362898,-3.621876131836289 l -3.6218761318362893,3.621876131836289 l -3.621876131836289,-3.6218761318362893 l -3.621876131836289,-3.6218761318362893 l 3.6218761318362893,-3.621876131836289 l 3.621876131836289,-3.6218761318362893 l 3.6218761318362893,3.621876131836289 l 3.6218761318362893,3.621876131836289 l -3.621876131836289,3.6218761318362893 l 3.6218761318362893,3.621876131836289 l -3.621876131836289,3.6218761318362893 l -3.621876131836289,3.6218761318362898 l -3.6218761318362898,-3.621876131836289 l 3.6218761318362893,3.621876131836289 l -3.621876131836289,3.6218761318362893 l -3.621876131836289,3.6218761318362898 l -3.6218761318362898,-3.621876131836289 l -3.6218761318362893,3.621876131836289 l -3.621876131836289,-3.6218761318362893 l -3.621876131836289,-3.6218761318362893 l 3.6218761318362893,-3.621876131836289 l 3.6218761318362893,3.621876131836289 l -3.621876131836289,3.6218761318362893 l -3.621876131836289,3.6218761318362898 l -3.6218761318362898,-3.621876131836289 l -3.6218761318362893,3.621876131836289 l -3.621876131836289,-3.6218761318362893 l -3.621876131836289,-3.6218761318362893 l 3.6218761318362893,-3.621876131836289 l -3.6218761318362893,3.621876131836289 l -3.621876131836289,-3.6218761318362893 l -3.621876131836289,-3.6218761318362893 l 3.6218761318362893,-3.621876131836289 l -3.621876131836289,-3.6218761318362893 l 3.6218761318362893,-3.621876131836289 l 3.6218761318362893,-3.621876131836289 l 3.621876131836289,3.6218761318362893 " /></g><path d="M 18.181818181818215,119.15972473741394 l 57.95001810938065,-57.950018109380665 l 57.950018109380665,57.95001810938065 " /></g></g></g></g></svg>