<?xml version="1.0" encoding="UTF-8"?>
<!DOCTYPE svg PUBLIC "-//W3C//DTD SVG 1.1//EN"
    "http://www.w3.org/Graphics/SVG/1.1/DTD/svg11.dtd">
<svg xmlns="http://www.w3.org/2000/svg" xmlns:xlink="http://www.w3.org/1999/xlink" version="1.1" width="400.0" height="52.48638810814779" font-size="1" viewBox="0 0 400 52"><g><g transform="matrix(165.28925619834703,0.0,0.0,165.28925619834703,200.0,26.243194054073896)"><g stroke="rgb(0,0,0)" stroke-opacity="1.0" fill-opacity="0.0" stroke-width="1.0e-2" font-size="1.0em"><path d="M 9.999999999999942e-2,0.1443375672974065 h 1.2345679012345678e-2 l 6.172839506172841e-3,-1.0691671651659735e-2 l 6.172839506172841e-3,1.0691671651659735e-2 h 1.2345679012345678e-2 l 6.172839506172841e-3,-1.0691671651659735e-2 l -6.172839506172836e-3,-1.0691671651659736e-2 l 1.2345679012345678e-2,-8.673617379884035e-19 l 6.172839506172841e-3,-1.0691671651659735e-2 l 6.172839506172841e-3,1.0691671651659735e-2 l 1.2345679012345678e-2,8.673617379884035e-19 l -6.172839506172836e-3,1.0691671651659736e-2 l 6.172839506172841e-3,1.0691671651659735e-2 h 1.2345679012345678e-2 l 6.172839506172841e-3,-1.0691671651659735e-2 l 6.172839506172841e-3,1.0691671651659735e-2 h 1.2345679012345678e-2 l 6.172839506172841e-3,-1.0691671651659735e-2 l -6.172839506172836e-3,-1.0691671651659736e-2 l 1.2345679012345678e-2,-8.673617379884035e-19 l 6.172839506172841e-3,-1.0691671651659735e-2 l -6.172839506172832e-3,-1.0691671651659742e-2 l -1.2345679012345678e-2,-1.0408340855860843e-17 l 6.172839506172845e-3,-1.0691671651659733e-2 l -6.172839506172832e-3,-1.0691671651659742e-2 h 1.2345679012345678e-2 l 6.172839506172841e-3,-1.0691671651659735e-2 l 6.172839506172841e-3,1.0691671651659735e-2 h 1.2345679012345678e-2 l 6.172839506172841e-3,-1.0691671651659735e-2 l -6.172839506172836e-3,-1.0691671651659736e-2 l 1.2345679012345678e-2,-8.673617379884035e-19 l 6.172839506172841e-3,-1.0691671651659735e-2 l 6.172839506172841e-3,1.0691671651659735e-2 l 1.2345679012345678e-2,8.673617379884035e-19 l -6.172839506172836e-3,1.0691671651659736e-2 l 6.172839506172841e-3,1.0691671651659735e-2 h 1.2345679012345678e-2 l 6.172839506172841e-3,-1.0691671651659735e-2 l 6.172839506172841e-3,1.0691671651659735e-2 h 1.2345679012345678e-2 l -6.172839506172832e-3,1.0691671651659742e-2 l 6.172839506172845e-3,1.0691671651659733e-2 l -1.2345679012345678e-2,1.0408340855860843e-17 l -6.172839506172832e-3,1.0691671651659742e-2 l 6.172839506172841e-3,1.0691671651659735e-2 l 1.2345679012345678e-2,8.673617379884035e-19 l -6.172839506172836e-3,1.0691671651659736e-2 l 6.172839506172841e-3,1.0691671651659735e-2 h 1.2345679012345678e-2 l 6.172839506172841e-3,-1.0691671651659735e-2 l 6.172839506172841e-3,1.0691671651659735e-2 h 1.2345679012345678e-2 l 6.172839506172841e-3,-1.0691671651659735e-2 l -6.172839506172836e-3,-1.0691671651659736e-2 l 1.2345679012345678e-2,-8.673617379884035e-19 l 6.172839506172841e-3,-1.0691671651659735e-2 l 6.172839506172841e-3,1.0691671651659735e-2 l 1.2345679012345678e-2,8.673617379884035e-19 l -6.172839506172836e-3,1.0691671651659736e-2 l 6.172839506172841e-3,1.0691671651659735e-2 h 1.2345679012345678e-2 l 6.172839506172841e-3,-1.0691671651659735e-2 l 6.172839506172841e-3,1.0691671651659735e-2 h 1.2345679012345678e-2 l 6.172839506172841e-3,-1.0691671651659735e-2 l -6.172839506172836e-3,-1.0691671651659736e-2 l 1.2345679012345678e-2,-8.673617379884035e-19 l 6.172839506172841e-3,-1.0691671651659735e-2 l -6.172839506172832e-3,-1.0691671651659742e-2 l -1.2345679012345678e-2,-1.0408340855860843e-17 l 6.172839506172845e-3,-1.0691671651659733e-2 l -6.172839506172832e-3,-1.0691671651659742e-2 h 1.2345679012345678e-2 l 6.172839506172841e-3,-1.0691671651659735e-2 l 6.172839506172841e-3,1.0691671651659735e-2 h 1.2345679012345678e-2 l 6.172839506172841e-3,-1.0691671651659735e-2 l -6.172839506172836e-3,-1.0691671651659736e-2 l 1.2345679012345678e-2,-8.673617379884035e-19 l 6.172839506172841e-3,-1.0691671651659735e-2 l -6.172839506172831e-3,-1.069167165165974e-2 l -1.2345679012345677e-2,-1.0408340855860843e-17 l 6.172839506172844e-3,-1.0691671651659731e-2 l -6.172839506172831e-3,-1.069167165165974e-2 l -1.2345679012345678e-2,-1.2477075303887167e-17 l -6.172839506172851e-3,1.0691671651659728e-2 l -6.1728395061728305e-3,-1.0691671651659742e-2 l -1.2345679012345678e-2,-1.2477075303887167e-17 l 6.1728395061728435e-3,-1.0691671651659731e-2 l -6.1728395061728305e-3,-1.0691671651659738e-2 l 1.2345679012345677e-2,3.469446951953614e-18 l 6.1728395061728435e-3,-1.0691671651659731e-2 l -6.172839506172831e-3,-1.069167165165974e-2 l -1.2345679012345677e-2,-1.0408340855860843e-17 l 6.172839506172844e-3,-1.0691671651659731e-2 l -6.172839506172831e-3,-1.069167165165974e-2 h 1.2345679012345678e-2 l 6.172839506172841e-3,-1.0691671651659735e-2 l 6.172839506172841e-3,1.0691671651659735e-2 h 1.2345679012345678e-2 l 6.172839506172841e-3,-1.0691671651659735e-2 l -6.172839506172836e-3,-1.0691671651659736e-2 l 1.2345679012345678e-2,-8.673617379884035e-19 l 6.172839506172841e-3,-1.0691671651659735e-2 l 6.172839506172841e-3,1.0691671651659735e-2 l 1.2345679012345678e-2,8.673617379884035e-19 l -6.172839506172836e-3,1.0691671651659736e-2 l 6.172839506172841e-3,1.0691671651659735e-2 h 1.2345679012345678e-2 l 6.172839506172841e-3,-1.0691671651659735e-2 l 6.172839506172841e-3,1.0691671651659735e-2 h 1.2345679012345678e-2 l 6.172839506172841e-3,-1.0691671651659735e-2 l -6.172839506172836e-3,-1.0691671651659736e-2 l 1.2345679012345678e-2,-8.673617379884035e-19 l 6.172839506172841e-3,-1.0691671651659735e-2 l -6.172839506172832e-3,-1.0691671651659742e-2 l -1.2345679012345678e-2,-1.0408340855860843e-17 l 6.172839506172845e-3,-1.0691671651659733e-2 l -6.172839506172832e-3,-1.0691671651659742e-2 h 1.2345679012345678e-2 l 6.172839506172841e-3,-1.0691671651659735e-2 l 6.172839506172841e-3,1.0691671651659735e-2 h 1.2345679012345678e-2 l 6.172839506172841e-3,-1.0691671651659735e-2 l -6.172839506172836e-3,-1.0691671651659736e-2 l 1.2345679012345678e-2,-8.673617379884035e-19 l 6.172839506172841e-3,-1.0691671651659735e-2 l 6.172839506172841e-3,1.0691671651659735e-2 l 1.2345679012345678e-2,8.673617379884035e-19 l -6.172839506172836e-3,1.0691671651659736e-2 l 6.172839506172841e-3,1.0691671651659735e-2 h 1.2345679012345678e-2 l 6.172839506172841e-3,-1.0691671651659735e-2 l 6.172839506172841e-3,1.0691671651659735e-2 h 1.2345679012345678e-2 l -6.172839506172832e-3,1.0691671651659742e-2 l 6.172839506172845e-3,1.0691671651659733e-2 l -1.2345679012345678e-2,1.0408340855860843e-17 l -6.172839506172832e-3,1.0691671651659742e-2 l 6.172839506172841e-3,1.0691671651659735e-2 l 1.2345679012345678e-2,8.673617379884035e-19 l -6.172839506172836e-3,1.0691671651659736e-2 l 6.172839506172841e-3,1.0691671651659735e-2 h 1.2345679012345678e-2 l 6.172839506172841e-3,-1.0691671651659735e-2 l 6.172839506172841e-3,1.0691671651659735e-2 h 1.2345679012345678e-2 l 6.172839506172841e-3,-1.0691671651659735e-2 l -6.172839506172836e-3,-1.0691671651659736e-2 l 1.2345679012345678e-2,-8.673617379884035e-19 l 6.172839506172841e-3,-1.0691671651659735e-2 l 6.172839506172841e-3,1.0691671651659735e-2 l 1.2345679012345678e-2,8.673617379884035e-19 l -6.172839506172836e-3,1.0691671651659736e-2 l 6.172839506172841e-3,1.0691671651659735e-2 h 1.2345679012345678e-2 l 6.172839506172841e-3,-1.0691671651659735e-2 l 6.172839506172841e-3,1.0691671651659735e-2 h 1.2345679012345678e-2 l -6.172839506172831e-3,1.069167165165974e-2 l 6.172839506172844e-3,1.0691671651659731e-2 l -1.2345679012345677e-2,1.0408340855860843e-17 l -6.172839506172831e-3,1.069167165165974e-2 l 6.1728395061728435e-3,1.0691671651659731e-2 l 1.2345679012345677e-2,-3.469446951953614e-18 l -6.1728395061728305e-3,1.0691671651659738e-2 l 6.1728395061728435e-3,1.0691671651659731e-2 l -1.2345679012345678e-2,1.2477075303887167e-17 l -6.1728395061728305e-3,1.0691671651659742e-2 l -6.172839506172851e-3,-1.0691671651659728e-2 l -1.2345679012345678e-2,1.2477075303887167e-17 l -6.172839506172831e-3,1.069167165165974e-2 l 6.172839506172844e-3,1.0691671651659731e-2 l -1.2345679012345677e-2,1.0408340855860843e-17 l -6.172839506172831e-3,1.069167165165974e-2 l 6.172839506172841e-3,1.0691671651659735e-2 l 1.2345679012345678e-2,8.673617379884035e-19 l -6.172839506172836e-3,1.0691671651659736e-2 l 6.172839506172841e-3,1.0691671651659735e-2 h 1.2345679012345678e-2 l 6.172839506172841e-3,-1.0691671651659735e-2 l 6.172839506172841e-3,1.0691671651659735e-2 h 1.2345679012345678e-2 l -6.172839506172832e-3,1.0691671651659742e-2 l 6.172839506172845e-3,1.0691671651659733e-2 l -1.2345679012345678e-2,1.0408340855860843e-17 l -6.172839506172832e-3,1.0691671651659742e-2 l 6.172839506172841e-3,1.0691671651659735e-2 l 1.2345679012345678e-2,8.673617379884035e-19 l -6.172839506172836e-3,1.0691671651659736e-2 l 6.172839506172841e-3,1.0691671651659735e-2 h 1.2345679012345678e-2 l 6.172839506172841e-3,-1.0691671651659735e-2 l 6.172839506172841e-3,1.0691671651659735e-2 h 1.2345679012345678e-2 l 6.172839506172841e-3,-1.0691671651659735e-2 l -6.172839506172836e-3,-1.0691671651659736e-2 l 1.2345679012345678e-2,-8.673617379884035e-19 l 6.172839506172841e-3,-1.0691671651659735e-2 l 6.172839506172841e-3,1.0691671651659735e-2 l 1.2345679012345678e-2,8.673617379884035e-19 l -6.172839506172836e-3,1.0691671651659736e-2 l 6.172839506172841e-3,1.0691671651659735e-2 h 1.2345679012345678e-2 l 6.172839506172841e-3,-1.0691671651659735e-2 l 6.172839506172841e-3,1.0691671651659735e-2 h 1.2345679012345678e-2 l 6.172839506172841e-3,-1.0691671651659735e-2 l -6.172839506172836e-3,-1.0691671651659736e-2 l 1.2345679012345678e-2,-8.673617379884035e-19 l 6.172839506172841e-3,-1.0691671651659735e-2 l -6.172839506172832e-3,-1.0691671651659742e-2 l -1.2345679012345678e-2,-1.0408340855860843e-17 l 6.172839506172845e-3,-1.0691671651659733e-2 l -6.172839506172832e-3,-1.0691671651659742e-2 h 1.2345679012345678e-2 l 6.172839506172841e-3,-1.0691671651659735e-2 l 6.172839506172841e-3,1.0691671651659735e-2 h 1.2345679012345678e-2 l 6.172839506172841e-3,-1.0691671651659735e-2 l -6.172839506172836e-3,-1.0691671651659736e-2 l 1.2345679012345678e-2,-8.673617379884035e-19 l 6.172839506172841e-3,-1.0691671651659735e-2 l 6.172839506172841e-3,1.0691671651659735e-2 l 1.2345679012345678e-2,8.673617379884035e-19 l -6.172839506172836e-3,1.0691671651659736e-2 l 6.172839506172841e-3,1.0691671651659735e-2 h 1.2345679012345678e-2 l 6.172839506172841e-3,-1.0691671651659735e-2 l 6.172839506172841e-3,1.0691671651659735e-2 h 1.2345679012345678e-2 l -6.172839506172832e-3,1.0691671651659742e-2 l 6.172839506172845e-3,1.0691671651659733e-2 l -1.2345679012345678e-2,1.0408340855860843e-17 l -6.172839506172832e-3,1.0691671651659742e-2 l 6.172839506172841e-3,1.0691671651659735e-2 l 1.2345679012345678e-2,8.673617379884035e-19 l -6.172839506172836e-3,1.0691671651659736e-2 l 6.172839506172841e-3,1.0691671651659735e-2 h 1.2345679012345678e-2 l 6.172839506172841e-3,-1.0691671651659735e-2 l 6.172839506172841e-3,1.0691671651659735e-2 h 1.2345679012345678e-2 l 6.172839506172841e-3,-1.0691671651659735e-2 l -6.172839506172836e-3,-1.0691671651659736e-2 l 1.2345679012345678e-2,-8.673617379884035e-19 l 6.172839506172841e-3,-1.0691671651659735e-2 l 6.172839506172841e-3,1.0691671651659735e-2 l 1.2345679012345678e-2,8.673617379884035e-19 l -6.172839506172836e-3,1.0691671651659736e-2 l 6.172839506172841e-3,1.0691671651659735e-2 h 1.2345679012345678e-2 l 6.172839506172841e-3,-1.0691671651659735e-2 l 6.172839506172841e-3,1.0691671651659735e-2 h 1.2345679012345678e-2 " /></g></g><g transform="matrix(165.28925619834703,0.0,0.0,165.28925619834703,200.0,26.243194054073896)"><g stroke="rgb(0,0,0)" stroke-opacity="1.0" fill-opacity="0.0" stroke-width="1.0e-2" font-size="1.0em"><path d="M -1.1000000000000005,0.1443375672974065 h 0.3333333333333333 l 0.16666666666666669,-0.28867513459481287 l 0.16666666666666669,0.28867513459481287 h 0.3333333333333333 " /></g></g></g></svg>