<?xml version="1.0" encoding="UTF-8"?>
<!DOCTYPE svg PUBLIC "-//W3C//DTD SVG 1.1//EN"
    "http://www.w3.org/Graphics/SVG/1.1/DTD/svg11.dtd">
<svg xmlns="http://www.w3.org/2000/svg" xmlns:xlink="http://www.w3.org/1999/xlink" version="1.1" width="300.0" height="186.49538102064614" font-size="1" viewBox="0 0 300 186"><g><g fill="rgb(0,0,0)" fill-opacity="0.0"><g stroke="rgb(0,0,0)" stroke-opacity="1.0" stroke-width="0.9461383772467437" stroke-linecap="butt" stroke-linejoin="miter" font-size="20.3527815468114em" stroke-miterlimit="10.0"><g><path d="M 126.5943012211669,39.006235093882836 l 108.88738127544099,109.63537339107455 " /><path d="M 126.5943012211669,39.006235093882836 l -64.11126187245591,109.63537339107455 " /><path d="M 126.5943012211669,39.006235093882836 l -108.88738127544099,109.63537339107455 " /><g><path d="M 286.3636363636364,178.01831824698039 l -50.88195386702852,-88.13012928606906 l -50.88195386702849,88.13012928606906 Z" /></g><g><g><path d="M 164.24694708276797,148.64160848495737 c 0.0,-11.240530864941524 -9.112250681869874,-20.3527815468114 -20.352781546811396 -20.3527815468114c -11.240530864941524,-6.882840072233832e-16 -20.3527815468114,9.112250681869874 -20.3527815468114 20.352781546811393c -1.3765680144467665e-15,11.240530864941524 9.112250681869872,20.3527815468114 20.35278154681139 20.3527815468114c 11.240530864941524,2.06485202167015e-15 20.3527815468114,-9.11225068186987 20.35278154681141 -20.352781546811393Z" /></g><g><path d="M 123.54138398914517,148.64160848495737 c 0.0,-11.240530864941524 -9.112250681869874,-20.3527815468114 -20.352781546811396 -20.3527815468114c -11.240530864941524,-6.882840072233832e-16 -20.3527815468114,9.112250681869874 -20.3527815468114 20.352781546811393c -1.3765680144467665e-15,11.240530864941524 9.112250681869872,20.3527815468114 20.35278154681139 20.3527815468114c 11.240530864941524,2.06485202167015e-15 20.3527815468114,-9.11225068186987 20.35278154681141 -20.352781546811393Z" /></g><g><path d="M 82.83582089552239,148.64160848495737 c 0.0,-11.240530864941524 -9.112250681869874,-20.3527815468114 -20.352781546811396 -20.3527815468114c -11.240530864941524,-6.882840072233832e-16 -20.3527815468114,9.112250681869874 -20.3527815468114 20.352781546811393c -1.3765680144467665e-15,11.240530864941524 9.112250681869872,20.3527815468114 20.35278154681139 20.3527815468114c 11.240530864941524,2.06485202167015e-15 20.3527815468114,-9.11225068186987 20.35278154681141 -20.352781546811393Z" /></g></g><g><path d="M 21.777476255088196,148.64160848495737 c 0.0,-2.248106172988305 -1.8224501363739751,-4.0705563093622805 -4.07055630936228 -4.0705563093622805c -2.248106172988305,-1.3765680144467668e-16 -4.0705563093622805,1.822450136373975 -4.0705563093622805 4.070556309362279c -2.7531360288935337e-16,2.248106172988305 1.8224501363739747,4.0705563093622805 4.070556309362279 4.0705563093622805c 2.248106172988305,4.1297040433403003e-16 4.0705563093622805,-1.8224501363739745 4.0705563093622805 -4.070556309362279Z" /></g><g><path d="M 136.77069199457262,69.53540741409994 l -2.2596126688436025e-15,-61.0583446404342 h -20.3527815468114 l -2.2596126688436025e-15,61.0583446404342 Z" /></g></g></g></g></g></svg>