<?xml version="1.0" encoding="UTF-8"?>
<!DOCTYPE svg PUBLIC "-//W3C//DTD SVG 1.1//EN"
    "http://www.w3.org/Graphics/SVG/1.1/DTD/svg11.dtd"><svg xmlns="http://www.w3.org/2000/svg" height="101.81595354555576" stroke-opacity="1" viewBox="0 0 400 102" font-size="1" width="400.0" xmlns:xlink="http://www.w3.org/1999/xlink" stroke="rgb(0,0,0)" version="1.1"><g><defs></defs><g stroke-linejoin="miter" stroke-opacity="1.0" fill-opacity="1.0" stroke="rgb(255,255,255)" stroke-width="0.8072311333760342" fill="rgb(255,255,255)" stroke-linecap="butt" stroke-miterlimit="10.0"><defs><clipPath id="myClip1"><path d="M 375.5238851708194,46.980541901890476 l -6.695289750607083,-17.654028173480505 l -14.132620625299133,-12.52040933260559 l -18.332338431276828,-4.5185156009201055 l -18.332338431276824,4.518515600920113 l -14.132620625299126,12.520409332605592 l -6.695289750607076,17.654028173480512 l 2.2758513189607013,18.7433219139141 l 10.725622278336202,15.53874648538568 l 16.718282431505497,8.774431499250676 l 18.880985556761253,6.987368297577131e-16 l 16.718282431505482,-8.774431499250657 l 10.725622278336212,-15.538746485385653 Z"/></clipPath></defs><g clip-path="url(#myClip1)"><path d="M 375.5238851708194,90.61018347831416 l -4.347660987578443e-15,-77.74945300555666 h -39.16024880718304 l -4.347660987578443e-15,77.74945300555666 Z"/></g></g><defs></defs><g stroke-linejoin="miter" stroke-opacity="1.0" fill-opacity="1.0" stroke="rgb(255,255,255)" stroke-width="0.8072311333760342" fill="rgb(255,255,255)" stroke-linecap="butt" stroke-miterlimit="10.0"><defs><clipPath id="myClip2"><path d="M 375.5238851708194,46.980541901890476 l -6.695289750607083,-17.654028173480505 l -14.132620625299133,-12.52040933260559 l -18.332338431276828,-4.5185156009201055 l -18.332338431276824,4.518515600920113 l -14.132620625299126,12.520409332605592 l -6.695289750607076,17.654028173480512 l 2.2758513189607013,18.7433219139141 l 10.725622278336202,15.53874648538568 l 16.718282431505497,8.774431499250676 l 18.880985556761253,6.987368297577131e-16 l 16.718282431505482,-8.774431499250657 l 10.725622278336212,-15.538746485385653 Z"/></clipPath></defs><g clip-path="url(#myClip2)"><path d="M 336.3636363636364,90.61018347831416 l -4.347660987578443e-15,-77.74945300555666 h -39.16024880718304 l -4.347660987578443e-15,77.74945300555666 Z"/></g></g><defs></defs><g stroke-linejoin="miter" stroke-opacity="1.0" fill-opacity="0.0" stroke="rgb(255,165,0)" stroke-width="0.8072311333760342" fill="rgb(0,0,0)" stroke-linecap="butt" stroke-miterlimit="10.0"><path d="M 360.26873560541503,19.73091489555461 c 1.6153282351570306,-3.077750810094854 0.42980049934324704,-6.882243075095024 -2.647950310751606 -8.497571310252056c -3.077750810094854,-1.615328235157031 -6.882243075095024,-0.4298004993432474 -8.497571310252056 2.6479503107516056c -1.615328235157031,3.077750810094854 -0.42980049934324777,6.882243075095024 2.6479503107516047 8.497571310252056c 3.077750810094854,1.6153282351570313 6.882243075095024,0.4298004993432481 8.497571310252056 -2.6479503107516056Z"/></g><defs></defs><g stroke-linejoin="miter" stroke-opacity="1.0" fill-opacity="0.0" stroke="rgb(255,165,0)" stroke-width="0.8072311333760342" fill="rgb(0,0,0)" stroke-linecap="butt" stroke-miterlimit="10.0"><path d="M 372.40380284632437,34.506095890205216 c 2.8606042384551182,-1.9745325389234973 3.5789072746066597,-5.894185349452175 1.604374735683163 -8.754789587907291c -1.9745325389234971,-2.8606042384551182 -5.894185349452175,-3.5789072746066597 -8.754789587907291 -1.6043747356831637c -2.8606042384551182,1.9745325389234971 -3.5789072746066606,5.894185349452175 -1.6043747356831637 8.754789587907291c 1.974532538923497,2.8606042384551182 5.894185349452175,3.5789072746066606 8.754789587907291 1.6043747356831641Z"/></g><defs></defs><g stroke-linejoin="miter" stroke-opacity="1.0" fill-opacity="0.0" stroke="rgb(255,165,0)" stroke-width="0.8072311333760342" fill="rgb(0,0,0)" stroke-linecap="butt" stroke-miterlimit="10.0"><path d="M 376.28250227713966,53.228315873195186 c 3.450550284741359,-0.4189726587814322 5.908129523765896,-3.5558407928835765 5.489156864984464 -7.006391077624935c -0.418972658781432,-3.450550284741359 -3.5558407928835765,-5.908129523765896 -7.006391077624934 -5.489156864984464c -3.450550284741359,0.4189726587814317 -5.908129523765896,3.5558407928835756 -5.489156864984464 7.006391077624934c 0.4189726587814316,3.450550284741359 3.555840792883575,5.908129523765896 7.006391077624934 5.489156864984465Z"/></g><defs></defs><g stroke-linejoin="miter" stroke-opacity="1.0" fill-opacity="0.0" stroke="rgb(255,165,0)" stroke-width="0.8072311333760342" fill="rgb(0,0,0)" stroke-linecap="butt" stroke-miterlimit="10.0"><path d="M 371.01627060165634,71.60853987363144 c 3.2500168444321536,1.2325688083195694 6.883870499709627,-0.40289596319232035 8.116439308029197 -3.6529128076244737c 1.2325688083195696,-3.2500168444321536 -0.40289596319232,-6.883870499709627 -3.652912807624473 -8.116439308029197c -3.2500168444321536,-1.2325688083195696 -6.883870499709627,0.40289596319231963 -8.116439308029197 3.6529128076244723c -1.2325688083195698,3.2500168444321536 0.4028959631923193,6.883870499709627 3.652912807624473 8.116439308029198Z"/></g><defs></defs><g stroke-linejoin="miter" stroke-opacity="1.0" fill-opacity="0.0" stroke="rgb(255,165,0)" stroke-width="0.8072311333760342" fill="rgb(0,0,0)" stroke-linecap="butt" stroke-miterlimit="10.0"><path d="M 357.81153803175613,85.43608007872548 c 2.3049437120124043,2.6017436154989477 6.282599703802628,2.842347476243584 8.884343319301575 0.5374037642311793c 2.6017436154989477,-2.3049437120124043 2.842347476243584,-6.282599703802628 0.5374037642311801 -8.884343319301575c -2.304943712012404,-2.601743615498948 -6.282599703802627,-2.8423474762435843 -8.884343319301573 -0.5374037642311807c -2.601743615498948,2.304943712012404 -2.8423474762435843,6.282599703802627 -0.5374037642311826 8.884343319301577Z"/></g><defs></defs><g stroke-linejoin="miter" stroke-opacity="1.0" fill-opacity="0.0" stroke="rgb(255,165,0)" stroke-width="0.8072311333760342" fill="rgb(0,0,0)" stroke-linecap="butt" stroke-miterlimit="10.0"><path d="M 339.69334966492477,91.54321366741432 c 0.8318357527535652,3.3748903147770553 4.242061029288588,5.436443362872474 7.616951344065643 4.604607610118909c 3.3748903147770553,-0.8318357527535651 5.436443362872475,-4.242061029288588 4.60460761011891 -7.616951344065643c -0.8318357527535649,-3.3748903147770553 -4.242061029288588,-5.436443362872475 -7.616951344065641 -4.60460761011891c -3.3748903147770553,0.8318357527535645 -5.436443362872475,4.242061029288587 -4.604607610118911 7.616951344065644Z"/></g><defs></defs><g stroke-linejoin="miter" stroke-opacity="1.0" fill-opacity="0.0" stroke="rgb(255,165,0)" stroke-width="0.8072311333760342" fill="rgb(0,0,0)" stroke-linecap="butt" stroke-miterlimit="10.0"><path d="M 320.8123641081635,88.53086993346757 c -0.8318357527535659,3.3748903147770544 1.2297172953418525,6.785115591312078 4.604607610118906 7.616951344065644c 3.3748903147770544,0.831835752753566 6.785115591312078,-1.229717295341852 7.616951344065644 -4.604607610118905c 0.8318357527535664,-3.3748903147770544 -1.2297172953418516,-6.785115591312078 -4.604607610118904 -7.616951344065644c -3.3748903147770544,-0.8318357527535667 -6.785115591312078,1.2297172953418514 -7.616951344065646 4.604607610118905Z"/></g><defs></defs><g stroke-linejoin="miter" stroke-opacity="1.0" fill-opacity="0.0" stroke="rgb(255,165,0)" stroke-width="0.8072311333760342" fill="rgb(0,0,0)" stroke-linecap="butt" stroke-miterlimit="10.0"><path d="M 305.49398761198387,77.08914052365508 c -2.304943712012404,2.601743615498948 -2.064339851267768,6.579399607289171 0.5374037642311793 8.884343319301575c 2.601743615498948,2.304943712012404 6.579399607289171,2.064339851267769 8.884343319301575 -0.5374037642311786c 2.3049437120124043,-2.6017436154989477 2.064339851267769,-6.579399607289171 -0.5374037642311779 -8.884343319301573c -2.6017436154989477,-2.3049437120124043 -6.579399607289171,-2.0643398512677695 -8.884343319301577 0.5374037642311773Z"/></g><defs></defs><g stroke-linejoin="miter" stroke-opacity="1.0" fill-opacity="0.0" stroke="rgb(255,165,0)" stroke-width="0.8072311333760342" fill="rgb(0,0,0)" stroke-linecap="butt" stroke-miterlimit="10.0"><path d="M 297.2474756252117,59.839187757977754 c -3.2500168444321536,1.2325688083195685 -4.8854816159440455,4.86642246359704 -3.652912807624477 8.116439308029195c 1.2325688083195683,3.2500168444321536 4.86642246359704,4.8854816159440455 8.116439308029193 3.6529128076244777c 3.2500168444321536,-1.232568808319568 4.8854816159440455,-4.86642246359704 3.6529128076244786 -8.116439308029193c -1.232568808319568,-3.2500168444321536 -4.86642246359704,-4.8854816159440455 -8.116439308029195 -3.65291280762448Z"/></g><defs></defs><g stroke-linejoin="miter" stroke-opacity="1.0" fill-opacity="0.0" stroke="rgb(255,165,0)" stroke-width="0.8072311333760342" fill="rgb(0,0,0)" stroke-linecap="butt" stroke-miterlimit="10.0"><path d="M 297.96200466277355,40.73276793058579 c -3.450550284741359,-0.4189726587814315 -6.5874184188435025,2.038606580243105 -7.006391077624935 5.489156864984463c -0.41897265878143164,3.450550284741359 2.038606580243105,6.5874184188435025 5.489156864984463 7.006391077624935c 3.450550284741359,0.41897265878143186 6.5874184188435025,-2.0386065802431044 7.006391077624935 -5.489156864984462c 0.41897265878143203,-3.450550284741359 -2.038606580243104,-6.5874184188435025 -5.489156864984463 -7.0063910776249365Z"/></g><defs></defs><g stroke-linejoin="miter" stroke-opacity="1.0" fill-opacity="0.0" stroke="rgb(255,165,0)" stroke-width="0.8072311333760342" fill="rgb(0,0,0)" stroke-linecap="butt" stroke-miterlimit="10.0"><path d="M 307.4738847331725,24.146931566614757 c -2.860604238455117,-1.974532538923498 -6.780257048983795,-1.2562295027719586 -8.754789587907293 1.604374735683158c -1.9745325389234984,2.860604238455117 -1.2562295027719586,6.780257048983795 1.604374735683158 8.754789587907291c 2.860604238455117,1.9745325389234984 6.780257048983795,1.2562295027719588 8.754789587907291 -1.6043747356831572c 1.9745325389234987,-2.860604238455117 1.2562295027719592,-6.780257048983795 -1.6043747356831561 -8.754789587907291Z"/></g><defs></defs><g stroke-linejoin="miter" stroke-opacity="1.0" fill-opacity="0.0" stroke="rgb(255,165,0)" stroke-width="0.8072311333760342" fill="rgb(0,0,0)" stroke-linecap="butt" stroke-miterlimit="10.0"><path d="M 323.6040587428614,13.881293896054164 c -1.6153282351570313,-3.077750810094854 -5.419820500157202,-4.263278545908637 -8.497571310252056 -2.647950310751606c -3.077750810094854,1.615328235157031 -4.263278545908637,5.419820500157202 -2.6479503107516065 8.497571310252056c 1.615328235157031,3.077750810094854 5.419820500157202,4.263278545908638 8.497571310252056 2.647950310751607c 3.077750810094854,-1.6153282351570306 4.263278545908638,-5.4198205001572015 2.6479503107516074 -8.497571310252058Z"/></g><defs></defs><g stroke-linejoin="miter" stroke-opacity="1.0" fill-opacity="0.0" stroke="rgb(255,165,0)" stroke-width="0.8072311333760342" fill="rgb(0,0,0)" stroke-linecap="butt" stroke-miterlimit="10.0"><path d="M 342.65729821589014,12.287588794884286 c 0.0,-3.4758934615915744 -2.8177683906621818,-6.293661852253757 -6.293661852253756 -6.293661852253757c -3.4758934615915744,-2.1283709009576676e-16 -6.293661852253757,2.8177683906621818 -6.293661852253757 6.293661852253754c -4.256741801915335e-16,3.4758934615915744 2.8177683906621813,6.293661852253757 6.293661852253754 6.293661852253757c 3.4758934615915744,6.385112702873002e-16 6.293661852253757,-2.817768390662181 6.2936618522537575 -6.293661852253754Z"/></g><defs></defs><g stroke-linejoin="miter" stroke-opacity="1.0" fill-opacity="1.0" stroke="rgb(255,255,89)" stroke-width="0.8072311333760342" fill="rgb(255,255,89)" stroke-linecap="butt" stroke-miterlimit="10.0"><defs><clipPath id="myClip3"><path d="M 244.53529867979123,52.414692970116036 l -4.1428193509822665e-2,-2.7163121307529177 l -0.2069483140856581,-2.7087340737307617 l -0.3716985733406641,-2.6910793480440995 l -0.535066089489627,-2.6634136304320477 l -0.6964431246424133,-2.6258398391812205 l -0.8552293456290122,-2.5784977512629133 l -1.0108340572782206,-2.521563482353634 l -1.1626783998425605,-2.4552488316731735 l -1.310197502394515,-2.3798004940776303 l -1.4528425841835209,-2.295499142338305 l -1.5900829961363416,-2.202658383020621 l -1.721408194906573,-2.101623589847017 l -1.8463296421292608,-1.9927706188841097 l -1.9643826218159337,-1.876504410333351 l -2.075127969128363,-1.7532574821269464 l -2.178153704100809,-1.6234883209327036 l -2.2730765642323836,-1.4876796765535354 l -2.3595434302488756,-1.346336766066476 l -2.4372326397295216,-1.199985394381954 l -2.5058551837124172,-1.0491699982150373 l -2.5651557818268045,-0.8944516207450611 l -2.6149138319528182,-0.7364058244981332 l -2.654944230875873,-0.5756205502167882 l -2.685098062882766,-0.4126939296817457 l -2.7052631537379264,-0.24823206062246922 l -2.7153644879789223,-8.284675199374957e-2 l -2.715364487978921,8.284675199378759e-2 l -2.7052631537379224,0.2482320606225221 l -2.6850980628827603,0.41269392968179014 l -2.654944230875861,0.5756205502168306 l -2.614913831952806,0.73640582449818 l -2.56515578182679,0.8944516207451043 l -2.5058551837123924,1.0491699982150806 l -2.4372326397294932,1.199985394381989 l -2.359543430248841,1.3463367660664993 l -2.2730765642323587,1.4876796765535736 l -2.1781537041007706,1.6234883209327307 l -2.0751279691283333,1.7532574821269702 l -1.9643826218158964,1.876504410333376 l -1.8463296421292321,1.9927706188841328 l -1.7214081949065234,2.101623589847042 l -1.5900829961363083,2.2026583830206308 l -1.4528425841834833,2.2954991423383193 l -1.310197502394481,2.379800494077638 l -1.1626783998425185,2.4552488316731824 l -1.0108340572781802,2.5215634823536424 l -0.8552293456289711,2.5784977512629204 l -0.6964431246423822,2.6258398391812183 l -0.5350660894895831,2.663413630432047 l -0.3716985733406367,2.691079348044095 l -0.2069483140856144,2.7087340737307564 l -4.14281935097868e-2,2.7163121307529097 l 0.12424604266690328,2.713785328240705 l 0.2894580754043748,2.7011630660654475 l 0.4535933050896666,2.678492299871465 l 0.6160411378879285,2.6458573663980163 l 0.7761972571915325,2.6033796697410914 l 0.9334658717175822,2.551217229722204 l 1.0872619318906052,2.4895640940442565 l 1.2370133062653965,2.41864961642137 l 1.3821629098935877,2.3387376033679783 l 1.5221707767162294,2.2501253328212694 l 1.6565160682729665,2.1531424482477526 l 1.7846990112554284,2.0481497323479116 l 1.9062427566965834,1.9355377649208219 l 2.020695153880429,1.8157254698817111 l 2.1276304323721242,1.6891585568373637 l 2.22665078591218,1.5563078630173302 l 2.317387852281758,1.4176676017282206 l 2.3995040836343153,1.2737535238479822 l 2.4726940021958157,1.12510099919862 l 2.5366853366620816,0.9722630249353671 l 2.591240035065932,0.8158081683609214 l 2.6361551503461413,0.6563184518177121 l 2.671263595323835,0.4943871875266142 l 2.696434764277765,0.3306167704264496 l 2.7115750188061707,0.16561643722532216 l 2.7166280361677964,2.5762204749775935e-16 l 2.7115750188061707,-0.1656164372253259 l 2.696434764277763,-0.3306167704264513 l 2.6712635953238357,-0.49438718752661126 l 2.6361551503461427,-0.6563184518177121 l 2.5912400350659324,-0.8158081683609226 l 2.5366853366620803,-0.9722630249353754 l 2.4726940021958166,-1.1251009991986223 l 2.3995040836343122,-1.2737535238479794 l 2.3173878522817555,-1.417667601728222 l 2.226650785912183,-1.5563078630173253 l 2.1276304323721247,-1.689158556837375 l 2.0206951538804137,-1.8157254698816947 l 1.9062427566965863,-1.935537764920822 l 1.7846990112554222,-2.0481497323479103 l 1.6565160682729743,-2.1531424482477544 l 1.5221707767162185,-2.2501253328212725 l 1.3821629098935913,-2.338737603367973 l 1.237013306265403,-2.418649616421371 l 1.0872619318905972,-2.4895640940442574 l 0.9334658717175792,-2.5512172297222047 l 0.7761972571915295,-2.6033796697410923 l 0.6160411378879286,-2.6458573663980163 l 0.4535933050896703,-2.678492299871463 l 0.2894580754043738,-2.701163066065448 Z"/></clipPath></defs><g clip-path="url(#myClip3)"><path d="M 244.53529867979125,96.26557683002626 l -3.296274266857504e-15,-89.06023970898089 h -29.69019911986082 l -3.296274266857504e-15,89.06023970898089 Z"/></g></g><defs></defs><g stroke-linejoin="miter" stroke-opacity="1.0" fill-opacity="1.0" stroke="rgb(89,89,89)" stroke-width="0.8072311333760342" fill="rgb(89,89,89)" stroke-linecap="butt" stroke-miterlimit="10.0"><defs><clipPath id="myClip4"><path d="M 244.53529867979123,52.414692970116036 l -4.1428193509822665e-2,-2.7163121307529177 l -0.2069483140856581,-2.7087340737307617 l -0.3716985733406641,-2.6910793480440995 l -0.535066089489627,-2.6634136304320477 l -0.6964431246424133,-2.6258398391812205 l -0.8552293456290122,-2.5784977512629133 l -1.0108340572782206,-2.521563482353634 l -1.1626783998425605,-2.4552488316731735 l -1.310197502394515,-2.3798004940776303 l -1.4528425841835209,-2.295499142338305 l -1.5900829961363416,-2.202658383020621 l -1.721408194906573,-2.101623589847017 l -1.8463296421292608,-1.9927706188841097 l -1.9643826218159337,-1.876504410333351 l -2.075127969128363,-1.7532574821269464 l -2.178153704100809,-1.6234883209327036 l -2.2730765642323836,-1.4876796765535354 l -2.3595434302488756,-1.346336766066476 l -2.4372326397295216,-1.199985394381954 l -2.5058551837124172,-1.0491699982150373 l -2.5651557818268045,-0.8944516207450611 l -2.6149138319528182,-0.7364058244981332 l -2.654944230875873,-0.5756205502167882 l -2.685098062882766,-0.4126939296817457 l -2.7052631537379264,-0.24823206062246922 l -2.7153644879789223,-8.284675199374957e-2 l -2.715364487978921,8.284675199378759e-2 l -2.7052631537379224,0.2482320606225221 l -2.6850980628827603,0.41269392968179014 l -2.654944230875861,0.5756205502168306 l -2.614913831952806,0.73640582449818 l -2.56515578182679,0.8944516207451043 l -2.5058551837123924,1.0491699982150806 l -2.4372326397294932,1.199985394381989 l -2.359543430248841,1.3463367660664993 l -2.2730765642323587,1.4876796765535736 l -2.1781537041007706,1.6234883209327307 l -2.0751279691283333,1.7532574821269702 l -1.9643826218158964,1.876504410333376 l -1.8463296421292321,1.9927706188841328 l -1.7214081949065234,2.101623589847042 l -1.5900829961363083,2.2026583830206308 l -1.4528425841834833,2.2954991423383193 l -1.310197502394481,2.379800494077638 l -1.1626783998425185,2.4552488316731824 l -1.0108340572781802,2.5215634823536424 l -0.8552293456289711,2.5784977512629204 l -0.6964431246423822,2.6258398391812183 l -0.5350660894895831,2.663413630432047 l -0.3716985733406367,2.691079348044095 l -0.2069483140856144,2.7087340737307564 l -4.14281935097868e-2,2.7163121307529097 l 0.12424604266690328,2.713785328240705 l 0.2894580754043748,2.7011630660654475 l 0.4535933050896666,2.678492299871465 l 0.6160411378879285,2.6458573663980163 l 0.7761972571915325,2.6033796697410914 l 0.9334658717175822,2.551217229722204 l 1.0872619318906052,2.4895640940442565 l 1.2370133062653965,2.41864961642137 l 1.3821629098935877,2.3387376033679783 l 1.5221707767162294,2.2501253328212694 l 1.6565160682729665,2.1531424482477526 l 1.7846990112554284,2.0481497323479116 l 1.9062427566965834,1.9355377649208219 l 2.020695153880429,1.8157254698817111 l 2.1276304323721242,1.6891585568373637 l 2.22665078591218,1.5563078630173302 l 2.317387852281758,1.4176676017282206 l 2.3995040836343153,1.2737535238479822 l 2.4726940021958157,1.12510099919862 l 2.5366853366620816,0.9722630249353671 l 2.591240035065932,0.8158081683609214 l 2.6361551503461413,0.6563184518177121 l 2.671263595323835,0.4943871875266142 l 2.696434764277765,0.3306167704264496 l 2.7115750188061707,0.16561643722532216 l 2.7166280361677964,2.5762204749775935e-16 l 2.7115750188061707,-0.1656164372253259 l 2.696434764277763,-0.3306167704264513 l 2.6712635953238357,-0.49438718752661126 l 2.6361551503461427,-0.6563184518177121 l 2.5912400350659324,-0.8158081683609226 l 2.5366853366620803,-0.9722630249353754 l 2.4726940021958166,-1.1251009991986223 l 2.3995040836343122,-1.2737535238479794 l 2.3173878522817555,-1.417667601728222 l 2.226650785912183,-1.5563078630173253 l 2.1276304323721247,-1.689158556837375 l 2.0206951538804137,-1.8157254698816947 l 1.9062427566965863,-1.935537764920822 l 1.7846990112554222,-2.0481497323479103 l 1.6565160682729743,-2.1531424482477544 l 1.5221707767162185,-2.2501253328212725 l 1.3821629098935913,-2.338737603367973 l 1.237013306265403,-2.418649616421371 l 1.0872619318905972,-2.4895640940442574 l 0.9334658717175792,-2.5512172297222047 l 0.7761972571915295,-2.6033796697410923 l 0.6160411378879286,-2.6458573663980163 l 0.4535933050896703,-2.678492299871463 l 0.2894580754043738,-2.701163066065448 Z"/></clipPath></defs><g clip-path="url(#myClip4)"><path d="M 214.84509955993042,96.26557683002626 l -3.296274266857504e-15,-89.06023970898089 h -29.69019911986082 l -3.296274266857504e-15,89.06023970898089 Z"/></g></g><defs></defs><g stroke-linejoin="miter" stroke-opacity="1.0" fill-opacity="1.0" stroke="rgb(255,89,89)" stroke-width="0.8072311333760342" fill="rgb(255,89,89)" stroke-linecap="butt" stroke-miterlimit="10.0"><defs><clipPath id="myClip5"><path d="M 244.53529867979123,52.414692970116036 l -4.1428193509822665e-2,-2.7163121307529177 l -0.2069483140856581,-2.7087340737307617 l -0.3716985733406641,-2.6910793480440995 l -0.535066089489627,-2.6634136304320477 l -0.6964431246424133,-2.6258398391812205 l -0.8552293456290122,-2.5784977512629133 l -1.0108340572782206,-2.521563482353634 l -1.1626783998425605,-2.4552488316731735 l -1.310197502394515,-2.3798004940776303 l -1.4528425841835209,-2.295499142338305 l -1.5900829961363416,-2.202658383020621 l -1.721408194906573,-2.101623589847017 l -1.8463296421292608,-1.9927706188841097 l -1.9643826218159337,-1.876504410333351 l -2.075127969128363,-1.7532574821269464 l -2.178153704100809,-1.6234883209327036 l -2.2730765642323836,-1.4876796765535354 l -2.3595434302488756,-1.346336766066476 l -2.4372326397295216,-1.199985394381954 l -2.5058551837124172,-1.0491699982150373 l -2.5651557818268045,-0.8944516207450611 l -2.6149138319528182,-0.7364058244981332 l -2.654944230875873,-0.5756205502167882 l -2.685098062882766,-0.4126939296817457 l -2.7052631537379264,-0.24823206062246922 l -2.7153644879789223,-8.284675199374957e-2 l -2.715364487978921,8.284675199378759e-2 l -2.7052631537379224,0.2482320606225221 l -2.6850980628827603,0.41269392968179014 l -2.654944230875861,0.5756205502168306 l -2.614913831952806,0.73640582449818 l -2.56515578182679,0.8944516207451043 l -2.5058551837123924,1.0491699982150806 l -2.4372326397294932,1.199985394381989 l -2.359543430248841,1.3463367660664993 l -2.2730765642323587,1.4876796765535736 l -2.1781537041007706,1.6234883209327307 l -2.0751279691283333,1.7532574821269702 l -1.9643826218158964,1.876504410333376 l -1.8463296421292321,1.9927706188841328 l -1.7214081949065234,2.101623589847042 l -1.5900829961363083,2.2026583830206308 l -1.4528425841834833,2.2954991423383193 l -1.310197502394481,2.379800494077638 l -1.1626783998425185,2.4552488316731824 l -1.0108340572781802,2.5215634823536424 l -0.8552293456289711,2.5784977512629204 l -0.6964431246423822,2.6258398391812183 l -0.5350660894895831,2.663413630432047 l -0.3716985733406367,2.691079348044095 l -0.2069483140856144,2.7087340737307564 l -4.14281935097868e-2,2.7163121307529097 l 0.12424604266690328,2.713785328240705 l 0.2894580754043748,2.7011630660654475 l 0.4535933050896666,2.678492299871465 l 0.6160411378879285,2.6458573663980163 l 0.7761972571915325,2.6033796697410914 l 0.9334658717175822,2.551217229722204 l 1.0872619318906052,2.4895640940442565 l 1.2370133062653965,2.41864961642137 l 1.3821629098935877,2.3387376033679783 l 1.5221707767162294,2.2501253328212694 l 1.6565160682729665,2.1531424482477526 l 1.7846990112554284,2.0481497323479116 l 1.9062427566965834,1.9355377649208219 l 2.020695153880429,1.8157254698817111 l 2.1276304323721242,1.6891585568373637 l 2.22665078591218,1.5563078630173302 l 2.317387852281758,1.4176676017282206 l 2.3995040836343153,1.2737535238479822 l 2.4726940021958157,1.12510099919862 l 2.5366853366620816,0.9722630249353671 l 2.591240035065932,0.8158081683609214 l 2.6361551503461413,0.6563184518177121 l 2.671263595323835,0.4943871875266142 l 2.696434764277765,0.3306167704264496 l 2.7115750188061707,0.16561643722532216 l 2.7166280361677964,2.5762204749775935e-16 l 2.7115750188061707,-0.1656164372253259 l 2.696434764277763,-0.3306167704264513 l 2.6712635953238357,-0.49438718752661126 l 2.6361551503461427,-0.6563184518177121 l 2.5912400350659324,-0.8158081683609226 l 2.5366853366620803,-0.9722630249353754 l 2.4726940021958166,-1.1251009991986223 l 2.3995040836343122,-1.2737535238479794 l 2.3173878522817555,-1.417667601728222 l 2.226650785912183,-1.5563078630173253 l 2.1276304323721247,-1.689158556837375 l 2.0206951538804137,-1.8157254698816947 l 1.9062427566965863,-1.935537764920822 l 1.7846990112554222,-2.0481497323479103 l 1.6565160682729743,-2.1531424482477544 l 1.5221707767162185,-2.2501253328212725 l 1.3821629098935913,-2.338737603367973 l 1.237013306265403,-2.418649616421371 l 1.0872619318905972,-2.4895640940442574 l 0.9334658717175792,-2.5512172297222047 l 0.7761972571915295,-2.6033796697410923 l 0.6160411378879286,-2.6458573663980163 l 0.4535933050896703,-2.678492299871463 l 0.2894580754043738,-2.701163066065448 Z"/></clipPath></defs><g clip-path="url(#myClip5)"><path d="M 185.15490044006958,96.26557683002626 l -3.296274266857504e-15,-89.06023970898089 h -29.69019911986082 l -3.296274266857504e-15,89.06023970898089 Z"/></g></g><defs></defs><g stroke-linejoin="miter" stroke-opacity="1.0" fill-opacity="1.0" stroke="rgb(0,0,0)" stroke-width="0.0" fill="rgb(0,128,0)" stroke-linecap="butt" stroke-miterlimit="10.0"><path d="M 203.56401734850587,8.236889438820565 l 0.11041095815021783,-1.8077166792041195 l -1.8077166792041195,-0.11041095815021802 l -0.11041095815021822,1.8077166792041195 Z"/></g><defs></defs><g stroke-linejoin="miter" stroke-opacity="1.0" fill-opacity="1.0" stroke="rgb(0,0,0)" stroke-width="0.0" fill="rgb(0,128,0)" stroke-linecap="butt" stroke-miterlimit="10.0"><path d="M 206.20923363966727,8.535074859000643 l 0.22041118028430143,-1.7976231761851813 l -1.7976231761851813,-0.22041118028430162 l -0.22041118028430182,1.7976231761851813 Z"/></g><defs></defs><g stroke-linejoin="miter" stroke-opacity="1.0" fill-opacity="1.0" stroke="rgb(0,0,0)" stroke-width="0.0" fill="rgb(0,128,0)" stroke-linecap="butt" stroke-miterlimit="10.0"><path d="M 208.83135117386536,8.993968538064493 l 0.3295914583510759,-1.7808423968825624 l -1.7808423968825624,-0.32959145835107606 l -0.3295914583510763,1.7808423968825624 Z"/></g><defs></defs><g stroke-linejoin="miter" stroke-opacity="1.0" fill-opacity="1.0" stroke="rgb(0,0,0)" stroke-width="0.0" fill="rgb(0,128,0)" stroke-linecap="butt" stroke-miterlimit="10.0"><path d="M 211.4206155016516,9.611863361385769 l 0.4375456345451458,-1.7574367668974336 l -1.7574367668974336,-0.437545634545146 l -0.43754563454514617,1.7574367668974336 Z"/></g><defs></defs><g stroke-linejoin="miter" stroke-opacity="1.0" fill-opacity="1.0" stroke="rgb(0,0,0)" stroke-width="0.0" fill="rgb(0,128,0)" stroke-linecap="butt" stroke-miterlimit="10.0"><path d="M 213.9673943896633,10.386460719638258 l 0.5438721122406176,-1.7274933567106263 l -1.7274933567106263,-0.5438721122406177 l -0.543872112240618,1.7274933567106263 Z"/></g><defs></defs><g stroke-linejoin="miter" stroke-opacity="1.0" fill-opacity="1.0" stroke="rgb(0,0,0)" stroke-width="0.0" fill="rgb(0,128,0)" stroke-linecap="butt" stroke-miterlimit="10.0"><path d="M 216.46221365316399,11.314879059773531 l 0.6481753499569184,-1.6911235577747252 l -1.6911235577747252,-0.6481753499569186 l -0.6481753499569188,1.6911235577747252 Z"/></g><defs></defs><g stroke-linejoin="miter" stroke-opacity="1.0" fill-opacity="1.0" stroke="rgb(0,0,0)" stroke-width="0.0" fill="rgb(0,128,0)" stroke-linecap="butt" stroke-miterlimit="10.0"><path d="M 218.8957924006332,12.393664604587581 l 0.7500673327990851,-1.6484626681305479 l -1.6484626681305479,-0.7500673327990852 l -0.7500673327990854,1.6484626681305479 Z"/></g><defs></defs><g stroke-linejoin="miter" stroke-opacity="1.0" fill-opacity="1.0" stroke="rgb(0,0,0)" stroke-width="0.0" fill="rgb(0,128,0)" stroke-linecap="butt" stroke-miterlimit="10.0"><path d="M 221.25907755929242,13.618804200998843 l 0.8491690158986573,-1.5996693890895468 l -1.5996693890895468,-0.8491690158986576 l -0.8491690158986577,1.5996693890895468 Z"/></g><defs></defs><g stroke-linejoin="miter" stroke-opacity="1.0" fill-opacity="1.0" stroke="rgb(0,0,0)" stroke-width="0.0" fill="rgb(0,128,0)" stroke-linecap="butt" stroke-miterlimit="10.0"><path d="M 223.54327755313037,14.985740249241237 l 0.9451117344854867,-1.544925234854507 l -1.5449252348545066,-0.9451117344854868 l -0.9451117344854871,1.5449252348545064 Z"/></g><defs></defs><g stroke-linejoin="miter" stroke-opacity="1.0" fill-opacity="1.0" stroke="rgb(0,0,0)" stroke-width="0.0" fill="rgb(0,128,0)" stroke-linecap="butt" stroke-miterlimit="10.0"><path d="M 225.7398950081432,16.489387657434637 l 1.0375385753448894,-1.4844338572747915 l -1.4844338572747913,-1.0375385753448896 l -1.0375385753448898,1.4844338572747913 Z"/></g><defs></defs><g stroke-linejoin="miter" stroke-opacity="1.0" fill-opacity="1.0" stroke="rgb(0,0,0)" stroke-width="0.0" fill="rgb(0,128,0)" stroke-linecap="butt" stroke-miterlimit="10.0"><path d="M 227.8407583631239,18.124152758460674 l 1.1261057045582552,-1.4184202882480828 l -1.4184202882480828,-1.1261057045582554 l -1.1261057045582554,1.4184202882480825 Z"/></g><defs></defs><g stroke-linejoin="miter" stroke-opacity="1.0" fill-opacity="1.0" stroke="rgb(0,0,0)" stroke-width="0.0" fill="rgb(0,128,0)" stroke-linecap="butt" stroke-miterlimit="10.0"><path d="M 229.83805226840693,19.88395411877184 l 1.2104836465878024,-1.3471301025869455 l -1.3471301025869453,-1.2104836465878026 l -1.2104836465878028,1.3471301025869453 Z"/></g><defs></defs><g stroke-linejoin="miter" stroke-opacity="1.0" fill-opacity="1.0" stroke="rgb(0,0,0)" stroke-width="0.0" fill="rgb(0,128,0)" stroke-linecap="butt" stroke-miterlimit="10.0"><path d="M 231.7243466594819,21.76224516172366 l 1.2903585099472215,-1.270828504464393 l -1.2708285044643925,-1.2903585099472215 l -1.2903585099472217,1.2708285044643925 Z"/></g><defs></defs><g stroke-linejoin="miter" stroke-opacity="1.0" fill-opacity="1.0" stroke="rgb(0,0,0)" stroke-width="0.0" fill="rgb(0,128,0)" stroke-linecap="butt" stroke-miterlimit="10.0"><path d="M 233.49262439732172,23.752038521269753 l 1.3654331548986145,-1.1897993408369476 l -1.1897993408369472,-1.3654331548986145 l -1.365433154898615,1.1897993408369472 Z"/></g><defs></defs><g stroke-linejoin="miter" stroke-opacity="1.0" fill-opacity="1.0" stroke="rgb(0,0,0)" stroke-width="0.0" fill="rgb(0,128,0)" stroke-linecap="butt" stroke-miterlimit="10.0"><path d="M 235.13630737260084,25.845932035422614 l 1.435428298831846,-1.104344045515314 l -1.104344045515314,-1.4354282988318465 l -1.4354282988318467,1.1043440455153137 Z"/></g><defs></defs><g stroke-linejoin="miter" stroke-opacity="1.0" fill-opacity="1.0" stroke="rgb(0,0,0)" stroke-width="0.0" fill="rgb(0,128,0)" stroke-linecap="butt" stroke-miterlimit="10.0"><path d="M 236.64928097669375,28.036136282782156 l 1.500083555214187,-1.0147805178108136 l -1.0147805178108134,-1.5000835552141873 l -1.5000835552141873,1.0147805178108131 Z"/></g><defs></defs><g stroke-linejoin="miter" stroke-opacity="1.0" fill-opacity="1.0" stroke="rgb(0,0,0)" stroke-width="0.0" fill="rgb(0,128,0)" stroke-linecap="butt" stroke-miterlimit="10.0"><path d="M 238.0259168484208,30.314503559695158 l 1.5591584022453249,-0.9214419399290572 l -0.921441939929057,-1.5591584022453249 l -1.5591584022453253,0.9214419399290568 Z"/></g><defs></defs><g stroke-linejoin="miter" stroke-opacity="1.0" fill-opacity="1.0" stroke="rgb(0,0,0)" stroke-width="0.0" fill="rgb(0,128,0)" stroke-linecap="butt" stroke-miterlimit="10.0"><path d="M 239.26109381192143,32.672558190247855 l 1.6124330776142553,-0.8246755375102623 l -0.8246755375102622,-1.6124330776142553 l -1.6124330776142553,0.8246755375102619 Z"/></g><defs></defs><g stroke-linejoin="miter" stroke-opacity="1.0" fill-opacity="1.0" stroke="rgb(0,0,0)" stroke-width="0.0" fill="rgb(0,128,0)" stroke-linecap="butt" stroke-miterlimit="10.0"><path d="M 240.35021692776476,35.10152805633706 l 1.6597093960295135,-0.7248412879270649 l -0.7248412879270648,-1.6597093960295135 l -1.6597093960295135,0.7248412879270646 Z"/></g><defs></defs><g stroke-linejoin="miter" stroke-opacity="1.0" fill-opacity="1.0" stroke="rgb(0,0,0)" stroke-width="0.0" fill="rgb(0,128,0)" stroke-linecap="butt" stroke-miterlimit="10.0"><path d="M 241.28923458642592,37.59237723052567 l 1.7008114864814765,-0.6223105811450492 l -0.622310581145049,-1.7008114864814765 l -1.7008114864814765,0.6223105811450488 Z"/></g><defs></defs><g stroke-linejoin="miter" stroke-opacity="1.0" fill-opacity="1.0" stroke="rgb(0,0,0)" stroke-width="0.0" fill="rgb(0,128,0)" stroke-linecap="butt" stroke-miterlimit="10.0"><path d="M 242.07465358053994,40.13583959028623 l 1.7355864464940693,-0.5174648381276812 l -0.5174648381276811,-1.7355864464940693 l -1.7355864464940693,0.5174648381276807 Z"/></g><defs></defs><g stroke-linejoin="miter" stroke-opacity="1.0" fill-opacity="1.0" stroke="rgb(0,0,0)" stroke-width="0.0" fill="rgb(0,128,0)" stroke-linecap="butt" stroke-miterlimit="10.0"><path d="M 242.70355209986218,42.72245328858522 l 1.7639049109320177,-0.4106940919252793 l -0.4106940919252791,-1.7639049109320177 l -1.7639049109320177,0.4106940919252789 Z"/></g><defs></defs><g stroke-linejoin="miter" stroke-opacity="1.0" fill-opacity="1.0" stroke="rgb(0,0,0)" stroke-width="0.0" fill="rgb(0,128,0)" stroke-linecap="butt" stroke-miterlimit="10.0"><path d="M 243.17359060059457,45.342595952575664 l 1.7856615332476495,-0.30239553672644026 l -0.30239553672644004,-1.7856615332476495 l -1.7856615332476495,0.3023955367264399 Z"/></g><defs></defs><g stroke-linejoin="miter" stroke-opacity="1.0" fill-opacity="1.0" stroke="rgb(0,0,0)" stroke-width="0.0" fill="rgb(0,128,0)" stroke-linecap="butt" stroke-miterlimit="10.0"><path d="M 243.4830205086421,47.98652047945599 l 1.8007753773769715,-0.19297205026957576 l -0.19297205026957556,-1.8007753773769715 l -1.8007753773769715,0.19297205026957537 Z"/></g><defs></defs><g stroke-linejoin="miter" stroke-opacity="1.0" fill-opacity="1.0" stroke="rgb(0,0,0)" stroke-width="0.0" fill="rgb(0,128,0)" stroke-linecap="butt" stroke-miterlimit="10.0"><path d="M 243.6306907244235,50.64439129633267 l 1.8091902188271425,-8.283069511126326e-2 l -8.283069511126306e-2,-1.8091902188271425 l -1.8091902188271425,8.283069511126287e-2 Z"/></g><defs></defs><g stroke-linejoin="miter" stroke-opacity="1.0" fill-opacity="1.0" stroke="rgb(0,0,0)" stroke-width="0.0" fill="rgb(0,128,0)" stroke-linecap="butt" stroke-miterlimit="10.0"><path d="M 243.61605190503698,53.306320949197456 l 1.8108747538352785,2.761879567320241e-2 l 2.761879567320261e-2,-1.8108747538352785 l -1.8108747538352785,-2.761879567320281e-2 Z"/></g><defs></defs><g stroke-linejoin="miter" stroke-opacity="1.0" fill-opacity="1.0" stroke="rgb(0,0,0)" stroke-width="0.0" fill="rgb(0,128,0)" stroke-linecap="butt" stroke-miterlimit="10.0"><path d="M 243.4391585078522,55.9624068849055 l 1.8058227158205091,0.13796554272375378 l 0.137965542723754,-1.8058227158205091 l -1.8058227158205091,-0.1379655427237542 Z"/></g><defs></defs><g stroke-linejoin="miter" stroke-opacity="1.0" fill-opacity="1.0" stroke="rgb(0,0,0)" stroke-width="0.0" fill="rgb(0,128,0)" stroke-linecap="butt" stroke-miterlimit="10.0"><path d="M 243.10066858792504,58.60276828932372 l 1.7940528986960675,0.2477990488937667 l 0.2477990488937669,-1.7940528986960675 l -1.7940528986960675,-0.24779904889376708 Z"/></g><defs></defs><g stroke-linejoin="miter" stroke-opacity="1.0" fill-opacity="1.0" stroke="rgb(0,0,0)" stroke-width="0.0" fill="rgb(0,128,0)" stroke-linecap="butt" stroke-miterlimit="10.0"><path d="M 242.60184134998974,61.21758284460819 l 1.7756090869547019,0.3567107263264006 l 0.35671072632640083,-1.7756090869547019 l -1.7756090869547019,-0.35671072632640105 Z"/></g><defs></defs><g stroke-linejoin="miter" stroke-opacity="1.0" fill-opacity="1.0" stroke="rgb(0,0,0)" stroke-width="0.0" fill="rgb(0,128,0)" stroke-linecap="butt" stroke-miterlimit="10.0"><path d="M 241.9445324641345,63.797123268871665 l 1.7505598927874828,0.464295416428264 l 0.4642954164282642,-1.7505598927874828 l -1.7505598927874828,-0.4642954164282644 Z"/></g><defs></defs><g stroke-linejoin="miter" stroke-opacity="1.0" fill-opacity="1.0" stroke="rgb(0,0,0)" stroke-width="0.0" fill="rgb(0,128,0)" stroke-linecap="butt" stroke-miterlimit="10.0"><path d="M 241.1311871625869,66.33179350231113 l 1.7189985008419486,0.5701528970859929 l 0.5701528970859931,-1.7189985008419486 l -1.7189985008419486,-0.5701528970859933 Z"/></g><defs></defs><g stroke-linejoin="miter" stroke-opacity="1.0" fill-opacity="1.0" stroke="rgb(0,0,0)" stroke-width="0.0" fill="rgb(0,128,0)" stroke-linecap="butt" stroke-miterlimit="10.0"><path d="M 240.16483114328935,68.81216440518054 l 1.6810423215690957,0.6738893715187999 l 0.6738893715188001,-1.6810423215690957 l -1.6810423215690957,-0.6738893715188004 Z"/></g><defs></defs><g stroke-linejoin="miter" stroke-opacity="1.0" fill-opacity="1.0" stroke="rgb(0,0,0)" stroke-width="0.0" fill="rgb(0,128,0)" stroke-linecap="butt" stroke-miterlimit="10.0"><path d="M 239.0490593141041,71.22900883480986 l 1.6368325544487896,0.7751189332283587 l 0.7751189332283588,-1.6368325544487896 l -1.6368325544487896,-0.775118933228359 Z"/></g><defs></defs><g stroke-linejoin="miter" stroke-opacity="1.0" fill-opacity="1.0" stroke="rgb(0,0,0)" stroke-width="0.0" fill="rgb(0,128,0)" stroke-linecap="butt" stroke-miterlimit="10.0"><path d="M 237.7880224195199,73.57333597118208 l 1.586533662718424,0.8734650015963317 l 0.873465001596332,-1.586533662718424 l -1.586533662718424,-0.8734650015963321 Z"/></g><defs></defs><g stroke-linejoin="miter" stroke-opacity="1.0" fill-opacity="1.0" stroke="rgb(0,0,0)" stroke-width="0.0" fill="rgb(0,128,0)" stroke-linecap="butt" stroke-miterlimit="10.0"><path d="M 236.38641159960977,75.83642476337396 l 1.5303327615588789,0.9685617227889998 l 0.9685617227889999,-1.5303327615588784 l -1.5303327615588782,-0.9685617227890002 Z"/></g><defs></defs><g stroke-linejoin="miter" stroke-opacity="1.0" fill-opacity="1.0" stroke="rgb(0,0,0)" stroke-width="0.0" fill="rgb(0,128,0)" stroke-linecap="butt" stroke-miterlimit="10.0"><path d="M 234.84944093868185,78.00985637243839 l 1.468438922013753,1.060055330757553 l 1.060055330757553,-1.468438922013753 l -1.4684389220137528,-1.0600553307575533 Z"/></g><defs></defs><g stroke-linejoin="miter" stroke-opacity="1.0" fill-opacity="1.0" stroke="rgb(0,0,0)" stroke-width="0.0" fill="rgb(0,128,0)" stroke-linecap="butt" stroke-miterlimit="10.0"><path d="M 233.1828280685433,80.08554549003824 l 1.4010823932313556,1.1476054632710302 l 1.1476054632710304,-1.4010823932313554 l -1.4010823932313552,-1.1476054632710306 Z"/></g><defs></defs><g stroke-linejoin="miter" stroke-opacity="1.0" fill-opacity="1.0" stroke="rgb(0,0,0)" stroke-width="0.0" fill="rgb(0,128,0)" stroke-linecap="butt" stroke-miterlimit="10.0"><path d="M 231.39277289853464,82.05577041632428 l 1.3285137459227496,1.230886428086167 l 1.230886428086167,-1.3285137459227494 l -1.3285137459227492,-1.2308864280861673 Z"/></g><defs></defs><g stroke-linejoin="miter" stroke-opacity="1.0" fill-opacity="1.0" stroke="rgb(0,0,0)" stroke-width="0.0" fill="rgb(0,128,0)" stroke-linecap="butt" stroke-miterlimit="10.0"><path d="M 229.4859345514594,83.913201785166 l 1.2510029402222447,1.309588414543943 l 1.3095884145439431,-1.2510029402222445 l -1.2510029402222442,-1.3095884145439434 Z"/></g><defs></defs><g stroke-linejoin="miter" stroke-opacity="1.0" fill-opacity="1.0" stroke="rgb(0,0,0)" stroke-width="0.0" fill="rgb(0,128,0)" stroke-linecap="butt" stroke-miterlimit="10.0"><path d="M 227.46940659121032,85.65092982987476 l 1.1688383214179745,1.3834186460855695 l 1.3834186460855697,-1.1688383214179743 l -1.168838321417974,-1.3834186460855697 Z"/></g><defs></defs><g stroke-linejoin="miter" stroke-opacity="1.0" fill-opacity="1.0" stroke="rgb(0,0,0)" stroke-width="0.0" fill="rgb(0,128,0)" stroke-linecap="butt" stroke-miterlimit="10.0"><path d="M 225.35069063424547,87.26249008798989 l 1.082325547288481,1.452102469400527 l 1.4521024694005271,-1.0823255472884807 l -1.0823255472884805,-1.4521024694005276 Z"/></g><defs></defs><g stroke-linejoin="miter" stroke-opacity="1.0" fill-opacity="1.0" stroke="rgb(0,0,0)" stroke-width="0.0" fill="rgb(0,128,0)" stroke-linecap="butt" stroke-miterlimit="10.0"><path d="M 223.13766844308245,88.74188744950365 l 0.991786451035702,1.5153843761549164 l 1.5153843761549168,-0.9917864510357018 l -0.9917864510357017,-1.5153843761549168 Z"/></g><defs></defs><g stroke-linejoin="miter" stroke-opacity="1.0" fill-opacity="1.0" stroke="rgb(0,0,0)" stroke-width="0.0" fill="rgb(0,128,0)" stroke-linecap="butt" stroke-miterlimit="10.0"><path d="M 220.83857260562422,90.08361845906403 l 0.8975578440443263,1.5730289534992419 l 1.5730289534992419,-0.8975578440443261 l -0.8975578440443258,-1.5730289534992419 Z"/></g><defs></defs><g stroke-linejoin="miter" stroke-opacity="1.0" fill-opacity="1.0" stroke="rgb(0,0,0)" stroke-width="0.0" fill="rgb(0,128,0)" stroke-linecap="butt" stroke-miterlimit="10.0"><path d="M 218.4619559093912,91.2826917891903 l 0.7999902629213158,1.6248217598196744 l 1.6248217598196744,-0.7999902629213155 l -0.7999902629213154,-1.6248217598196744 Z"/></g><defs></defs><g stroke-linejoin="miter" stroke-opacity="1.0" fill-opacity="1.0" stroke="rgb(0,0,0)" stroke-width="0.0" fill="rgb(0,128,0)" stroke-linecap="butt" stroke-miterlimit="10.0"><path d="M 216.01665952459,92.33464680833897 l 0.6994466654767069,1.6705701224749396 l 1.6705701224749396,-0.6994466654767066 l -0.6994466654767065,-1.6705701224749396 Z"/></g><defs></defs><g stroke-linejoin="miter" stroke-opacity="1.0" fill-opacity="1.0" stroke="rgb(0,0,0)" stroke-width="0.0" fill="rgb(0,128,0)" stroke-linecap="butt" stroke-miterlimit="10.0"><path d="M 213.51178011437983,93.23557017474624 l 0.59630108049672,1.7101038545511975 l 1.7101038545511975,-0.5963010804967197 l -0.5963010804967196,-1.7101038545511975 Z"/></g><defs></defs><g stroke-linejoin="miter" stroke-opacity="1.0" fill-opacity="1.0" stroke="rgb(0,0,0)" stroke-width="0.0" fill="rgb(0,128,0)" stroke-linecap="butt" stroke-miterlimit="10.0"><path d="M 210.95663599468753,93.98211039431618 l 0.49093721633210374,1.7432758879685408 l 1.7432758879685408,-0.4909372163321035 l -0.49093721633210335,-1.7432758879685408 Z"/></g><defs></defs><g stroke-linejoin="miter" stroke-opacity="1.0" fill-opacity="1.0" stroke="rgb(0,0,0)" stroke-width="0.0" fill="rgb(0,128,0)" stroke-linecap="butt" stroke-miterlimit="10.0"><path d="M 208.3607324694608,94.5714902883991 l 0.38374703347787065,1.7699628205839106 l 1.7699628205839106,-0.3837470334778704 l -0.38374703347787026,-1.7699628205839106 Z"/></g><defs></defs><g stroke-linejoin="miter" stroke-opacity="1.0" fill-opacity="1.0" stroke="rgb(0,0,0)" stroke-width="0.0" fill="rgb(0,128,0)" stroke-linecap="butt" stroke-miterlimit="10.0"><path d="M 205.733726470313,95.0015173250784 l 0.275129286454514,1.7900653752551745 l 1.7900653752551745,-0.2751292864545138 l -0.2751292864545136,-1.7900653752551745 Z"/></g><defs></defs><g stroke-linejoin="miter" stroke-opacity="1.0" fill-opacity="1.0" stroke="rgb(0,0,0)" stroke-width="0.0" fill="rgb(0,128,0)" stroke-linecap="butt" stroke-miterlimit="10.0"><path d="M 203.08539063210327,95.27059177553338 l 0.16548804041499665,1.803508769158615 l 1.803508769158615,-0.16548804041499646 l -0.16548804041499626,-1.803508769158615 Z"/></g><defs></defs><g stroke-linejoin="miter" stroke-opacity="1.0" fill-opacity="1.0" stroke="rgb(0,0,0)" stroke-width="0.0" fill="rgb(0,128,0)" stroke-linecap="butt" stroke-miterlimit="10.0"><path d="M 200.425576938093,95.37771266513546 l 5.5231167995845064e-2,1.810242991985947 l 1.810242991985947,-5.5231167995844856e-2 l -5.523116799584466e-2,-1.810242991985947 Z"/></g><defs></defs><g stroke-linejoin="miter" stroke-opacity="1.0" fill-opacity="1.0" stroke="rgb(0,0,0)" stroke-width="0.0" fill="rgb(0,128,0)" stroke-linecap="butt" stroke-miterlimit="10.0"><path d="M 197.76418006992103,95.3224814971396 l -5.5231167995845105e-2,1.810242991985947 l 1.810242991985947,5.52311679958453e-2 l 5.52311679958455e-2,-1.810242991985947 Z"/></g><defs></defs><g stroke-linejoin="miter" stroke-opacity="1.0" fill-opacity="1.0" stroke="rgb(0,0,0)" stroke-width="0.0" fill="rgb(0,128,0)" stroke-linecap="butt" stroke-miterlimit="10.0"><path d="M 195.1111005987381,95.10510373511838 l -0.16548804041499665,1.803508769158615 l 1.803508769158615,0.16548804041499687 l 0.16548804041499707,-1.803508769158615 Z"/></g><defs></defs><g stroke-linejoin="miter" stroke-opacity="1.0" fill-opacity="1.0" stroke="rgb(0,0,0)" stroke-width="0.0" fill="rgb(0,128,0)" stroke-linecap="butt" stroke-miterlimit="10.0"><path d="M 192.47620815443182,94.72638803862388 l -0.275129286454514,1.7900653752551745 l 1.7900653752551745,0.2751292864545142 l 0.27512928645451445,-1.7900653752551745 Z"/></g><defs></defs><g stroke-linejoin="miter" stroke-opacity="1.0" fill-opacity="1.0" stroke="rgb(0,0,0)" stroke-width="0.0" fill="rgb(0,128,0)" stroke-linecap="butt" stroke-miterlimit="10.0"><path d="M 189.8693047099553,94.18774325492123 l -0.38374703347787065,1.7699628205839106 l 1.7699628205839106,0.3837470334778708 l 0.38374703347787104,-1.7699628205839106 Z"/></g><defs></defs><g stroke-linejoin="miter" stroke-opacity="1.0" fill-opacity="1.0" stroke="rgb(0,0,0)" stroke-width="0.0" fill="rgb(0,128,0)" stroke-linecap="butt" stroke-miterlimit="10.0"><path d="M 187.30008811734393,93.49117317798408 l -0.49093721633210374,1.7432758879685404 l 1.7432758879685404,0.4909372163321039 l 0.49093721633210413,-1.7432758879685404 Z"/></g><defs></defs><g stroke-linejoin="miter" stroke-opacity="1.0" fill-opacity="1.0" stroke="rgb(0,0,0)" stroke-width="0.0" fill="rgb(0,128,0)" stroke-linecap="butt" stroke-miterlimit="10.0"><path d="M 184.77811603106898,92.63926909424951 l -0.59630108049672,1.7101038545511973 l 1.7101038545511973,0.5963010804967201 l 0.5963010804967204,-1.7101038545511973 Z"/></g><defs></defs><g stroke-linejoin="miter" stroke-opacity="1.0" fill-opacity="1.0" stroke="rgb(0,0,0)" stroke-width="0.0" fill="rgb(0,128,0)" stroke-linecap="butt" stroke-miterlimit="10.0"><path d="M 182.31277035293502,91.63520014286227 l -0.6994466654767076,1.670570122474939 l 1.670570122474939,0.6994466654767078 l 0.699446665476708,-1.670570122474939 Z"/></g><defs></defs><g stroke-linejoin="miter" stroke-opacity="1.0" fill-opacity="1.0" stroke="rgb(0,0,0)" stroke-width="0.0" fill="rgb(0,128,0)" stroke-linecap="butt" stroke-miterlimit="10.0"><path d="M 179.9132223307891,90.48270152626897 l -0.7999902629213165,1.6248217598196737 l 1.6248217598196737,0.7999902629213166 l 0.7999902629213169,-1.6248217598196737 Z"/></g><defs></defs><g stroke-linejoin="miter" stroke-opacity="1.0" fill-opacity="1.0" stroke="rgb(0,0,0)" stroke-width="0.0" fill="rgb(0,128,0)" stroke-linecap="butt" stroke-miterlimit="10.0"><path d="M 177.58839844087652,89.18606061501968 l -0.8975578440443269,1.5730289534992412 l 1.5730289534992412,0.897557844044327 l 0.8975578440443273,-1.5730289534992412 Z"/></g><defs></defs><g stroke-linejoin="miter" stroke-opacity="1.0" fill-opacity="1.0" stroke="rgb(0,0,0)" stroke-width="0.0" fill="rgb(0,128,0)" stroke-linecap="butt" stroke-miterlimit="10.0"><path d="M 175.3469471807626,87.75010099846794 l -0.9917864510357026,1.5153843761549162 l 1.5153843761549162,0.9917864510357027 l 0.9917864510357031,-1.515384376154916 Z"/></g><defs></defs><g stroke-linejoin="miter" stroke-opacity="1.0" fill-opacity="1.0" stroke="rgb(0,0,0)" stroke-width="0.0" fill="rgb(0,128,0)" stroke-linecap="butt" stroke-miterlimit="10.0"><path d="M 173.197206896354,86.1801645407014 l -1.0823255472884816,1.4521024694005265 l 1.4521024694005262,1.0823255472884818 l 1.082325547288482,-1.4521024694005262 Z"/></g><defs></defs><g stroke-linejoin="miter" stroke-opacity="1.0" fill-opacity="1.0" stroke="rgb(0,0,0)" stroke-width="0.0" fill="rgb(0,128,0)" stroke-linecap="butt" stroke-miterlimit="10.0"><path d="M 171.14717476270408,84.48209150845675 l -1.1688383214179752,1.383418646085569 l 1.3834186460855689,1.1688383214179752 l 1.1688383214179756,-1.3834186460855686 Z"/></g><defs></defs><g stroke-linejoin="miter" stroke-opacity="1.0" fill-opacity="1.0" stroke="rgb(0,0,0)" stroke-width="0.0" fill="rgb(0,128,0)" stroke-linecap="butt" stroke-miterlimit="10.0"><path d="M 169.20447703399662,82.66219884494373 l -1.2510029402222445,1.309588414543943 l 1.3095884145439427,1.2510029402222447 l 1.251002940222245,-1.3095884145439425 Z"/></g><defs></defs><g stroke-linejoin="miter" stroke-opacity="1.0" fill-opacity="1.0" stroke="rgb(0,0,0)" stroke-width="0.0" fill="rgb(0,128,0)" stroke-linecap="butt" stroke-miterlimit="10.0"><path d="M 167.3763406733792,80.72725667040153 l -1.328513745922749,1.2308864280861673 l 1.230886428086167,1.3285137459227492 l 1.3285137459227494,-1.230886428086167 Z"/></g><defs></defs><g stroke-linejoin="miter" stroke-opacity="1.0" fill-opacity="1.0" stroke="rgb(0,0,0)" stroke-width="0.0" fill="rgb(0,128,0)" stroke-linecap="butt" stroke-miterlimit="10.0"><path d="M 165.66956646818562,78.68446309680687 l -1.4010823932313556,1.1476054632710302 l 1.14760546327103,1.4010823932313556 l 1.4010823932313559,-1.14760546327103 Z"/></g><defs></defs><g stroke-linejoin="miter" stroke-opacity="1.0" fill-opacity="1.0" stroke="rgb(0,0,0)" stroke-width="0.0" fill="rgb(0,128,0)" stroke-linecap="butt" stroke-miterlimit="10.0"><path d="M 164.0905037305606,76.54141745042465 l -1.4684389220137521,1.0600553307575542 l 1.060055330757554,1.4684389220137526 l 1.4684389220137526,-1.0600553307575538 Z"/></g><defs></defs><g stroke-linejoin="miter" stroke-opacity="1.0" fill-opacity="1.0" stroke="rgb(0,0,0)" stroke-width="0.0" fill="rgb(0,128,0)" stroke-linecap="butt" stroke-miterlimit="10.0"><path d="M 162.64502667760124,74.30609200181507 l -1.5303327615588782,0.9685617227890002 l 0.9685617227889999,1.5303327615588782 l 1.5303327615588784,-0.9685617227889998 Z"/></g><defs></defs><g stroke-linejoin="miter" stroke-opacity="1.0" fill-opacity="1.0" stroke="rgb(0,0,0)" stroke-width="0.0" fill="rgb(0,128,0)" stroke-linecap="butt" stroke-miterlimit="10.0"><path d="M 161.33851257888375,71.98680230846367 l -1.586533662718424,0.8734650015963323 l 0.8734650015963321,1.586533662718424 l 1.586533662718424,-0.873465001596332 Z"/></g><defs></defs><g stroke-linejoin="miter" stroke-opacity="1.0" fill-opacity="1.0" stroke="rgb(0,0,0)" stroke-width="0.0" fill="rgb(0,128,0)" stroke-linecap="butt" stroke-miterlimit="10.0"><path d="M 160.17582175266753,69.59217628036107 l -1.6368325544487898,0.7751189332283587 l 0.7751189332283583,1.6368325544487898 l 1.6368325544487898,-0.7751189332283582 Z"/></g><defs></defs><g stroke-linejoin="miter" stroke-opacity="1.0" fill-opacity="1.0" stroke="rgb(0,0,0)" stroke-width="0.0" fill="rgb(0,128,0)" stroke-linecap="butt" stroke-miterlimit="10.0"><path d="M 159.16127948519184,67.13112208361142 l -1.6810423215690962,0.6738893715187997 l 0.6738893715187995,1.6810423215690962 l 1.6810423215690962,-0.6738893715187992 Z"/></g><defs></defs><g stroke-linejoin="miter" stroke-opacity="1.0" fill-opacity="1.0" stroke="rgb(0,0,0)" stroke-width="0.0" fill="rgb(0,128,0)" stroke-linecap="butt" stroke-miterlimit="10.0"><path d="M 158.2986599403271,64.61279500146918 l -1.7189985008419486,0.5701528970859936 l 0.5701528970859935,1.7189985008419486 l 1.7189985008419486,-0.5701528970859933 Z"/></g><defs></defs><g stroke-linejoin="miter" stroke-opacity="1.0" fill-opacity="1.0" stroke="rgb(0,0,0)" stroke-width="0.0" fill="rgb(0,128,0)" stroke-linecap="butt" stroke-miterlimit="10.0"><path d="M 157.59117211943723,62.04656337608418 l -1.7505598927874828,0.4642954164282644 l 0.4642954164282642,1.7505598927874828 l 1.7505598927874828,-0.464295416428264 Z"/></g><defs></defs><g stroke-linejoin="miter" stroke-opacity="1.0" fill-opacity="1.0" stroke="rgb(0,0,0)" stroke-width="0.0" fill="rgb(0,128,0)" stroke-linecap="butt" stroke-miterlimit="10.0"><path d="M 157.04144792368385,59.44197375765348 l -1.7756090869547019,0.3567107263264006 l 0.35671072632640033,1.7756090869547019 l 1.7756090869547019,-0.3567107263264002 Z"/></g><defs></defs><g stroke-linejoin="miter" stroke-opacity="1.0" fill-opacity="1.0" stroke="rgb(0,0,0)" stroke-width="0.0" fill="rgb(0,128,0)" stroke-linecap="butt" stroke-miterlimit="10.0"><path d="M 156.6515323631812,56.80871539062764 l -1.7940528986960678,0.24779904889376664 l 0.24779904889376642,1.7940528986960678 l 1.7940528986960678,-0.24779904889376622 Z"/></g><defs></defs><g stroke-linejoin="miter" stroke-opacity="1.0" fill-opacity="1.0" stroke="rgb(0,0,0)" stroke-width="0.0" fill="rgb(0,128,0)" stroke-linecap="butt" stroke-miterlimit="10.0"><path d="M 156.42287594942405,54.15658416908497 l -1.8058227158205091,0.13796554272375336 l 0.13796554272375314,1.8058227158205091 l 1.8058227158205091,-0.13796554272375294 Z"/></g><defs></defs><g stroke-linejoin="miter" stroke-opacity="1.0" fill-opacity="1.0" stroke="rgb(0,0,0)" stroke-width="0.0" fill="rgb(0,128,0)" stroke-linecap="butt" stroke-miterlimit="10.0"><path d="M 156.35632929928983,51.49544619536214 l -1.8108747538352785,2.7618795673201565e-2 l 2.7618795673201364e-2,1.8108747538352785 l 1.8108747538352785,-2.7618795673201163e-2 Z"/></g><defs></defs><g stroke-linejoin="miter" stroke-opacity="1.0" fill-opacity="1.0" stroke="rgb(0,0,0)" stroke-width="0.0" fill="rgb(0,128,0)" stroke-linecap="butt" stroke-miterlimit="10.0"><path d="M 156.45213997068777,48.83520107750552 l -1.8091902188271425,-8.28306951112629e-2 l -8.28306951112631e-2,1.8091902188271425 l 1.8091902188271425,8.28306951112633e-2 Z"/></g><defs></defs><g stroke-linejoin="miter" stroke-opacity="1.0" fill-opacity="1.0" stroke="rgb(0,0,0)" stroke-width="0.0" fill="rgb(0,128,0)" stroke-linecap="butt" stroke-miterlimit="10.0"><path d="M 156.70995154162748,46.18574510207902 l -1.8007753773769715,-0.19297205026957542 l -0.19297205026957562,1.8007753773769715 l 1.8007753773769715,0.1929720502695758 Z"/></g><defs></defs><g stroke-linejoin="miter" stroke-opacity="1.0" fill-opacity="1.0" stroke="rgb(0,0,0)" stroke-width="0.0" fill="rgb(0,128,0)" stroke-linecap="butt" stroke-miterlimit="10.0"><path d="M 157.1288049361319,43.556934419328 l -1.7856615332476495,-0.30239553672644026 l -0.3023955367264405,1.7856615332476495 l 1.7856615332476495,0.3023955367264407 Z"/></g><defs></defs><g stroke-linejoin="miter" stroke-opacity="1.0" fill-opacity="1.0" stroke="rgb(0,0,0)" stroke-width="0.0" fill="rgb(0,128,0)" stroke-linecap="butt" stroke-miterlimit="10.0"><path d="M 157.7071419920631,40.95854837765318 l -1.763904910932017,-0.41069409192528006 l -0.4106940919252803,1.763904910932017 l 1.763904910932017,0.41069409192528056 Z"/></g><defs></defs><g stroke-linejoin="miter" stroke-opacity="1.0" fill-opacity="1.0" stroke="rgb(0,0,0)" stroke-width="0.0" fill="rgb(0,128,0)" stroke-linecap="butt" stroke-miterlimit="10.0"><path d="M 158.44281125758772,38.400253143792135 l -1.7355864464940691,-0.517464838127682 l -0.5174648381276822,1.7355864464940691 l 1.7355864464940691,0.5174648381276824 Z"/></g><defs></defs><g stroke-linejoin="miter" stroke-opacity="1.0" fill-opacity="1.0" stroke="rgb(0,0,0)" stroke-width="0.0" fill="rgb(0,128,0)" stroke-linecap="butt" stroke-miterlimit="10.0"><path d="M 159.3330759947191,35.89156574404419 l -1.7008114864814765,-0.6223105811450488 l -0.622310581145049,1.7008114864814765 l 1.7008114864814765,0.6223105811450492 Z"/></g><defs></defs><g stroke-linejoin="miter" stroke-opacity="1.0" fill-opacity="1.0" stroke="rgb(0,0,0)" stroke-width="0.0" fill="rgb(0,128,0)" stroke-linecap="butt" stroke-miterlimit="10.0"><path d="M 160.37462436016236,33.44181866030753 l -1.6597093960295135,-0.7248412879270649 l -0.7248412879270651,1.6597093960295135 l 1.6597093960295135,0.7248412879270655 Z"/></g><defs></defs><g stroke-linejoin="miter" stroke-opacity="1.0" fill-opacity="1.0" stroke="rgb(0,0,0)" stroke-width="0.0" fill="rgb(0,128,0)" stroke-linecap="butt" stroke-miterlimit="10.0"><path d="M 161.56358172558885,31.060125112633585 l -1.6124330776142553,-0.8246755375102623 l -0.8246755375102626,1.6124330776142553 l 1.6124330776142553,0.8246755375102627 Z"/></g><defs></defs><g stroke-linejoin="miter" stroke-opacity="1.0" fill-opacity="1.0" stroke="rgb(0,0,0)" stroke-width="0.0" fill="rgb(0,128,0)" stroke-linecap="butt" stroke-miterlimit="10.0"><path d="M 162.89552509150826,28.755345157449813 l -1.5591584022453246,-0.9214419399290575 l -0.9214419399290578,1.5591584022453244 l 1.5591584022453244,0.921441939929058 Z"/></g><defs></defs><g stroke-linejoin="miter" stroke-opacity="1.0" fill-opacity="1.0" stroke="rgb(0,0,0)" stroke-width="0.0" fill="rgb(0,128,0)" stroke-linecap="butt" stroke-miterlimit="10.0"><path d="M 164.36549954111712,26.536052727567935 l -1.5000835552141867,-1.0147805178108145 l -1.0147805178108147,1.5000835552141865 l 1.5000835552141865,1.0147805178108151 Z"/></g><defs></defs><g stroke-linejoin="miter" stroke-opacity="1.0" fill-opacity="1.0" stroke="rgb(0,0,0)" stroke-width="0.0" fill="rgb(0,128,0)" stroke-linecap="butt" stroke-miterlimit="10.0"><path d="M 165.9680366729145,24.41050373659073 l -1.4354282988318456,-1.1043440455153153 l -1.1043440455153155,1.4354282988318452 l 1.435428298831845,1.1043440455153157 Z"/></g><defs></defs><g stroke-linejoin="miter" stroke-opacity="1.0" fill-opacity="1.0" stroke="rgb(0,0,0)" stroke-width="0.0" fill="rgb(0,128,0)" stroke-linecap="butt" stroke-miterlimit="10.0"><path d="M 167.69717494351522,22.386605366371125 l -1.3654331548986145,-1.1897993408369476 l -1.1897993408369476,1.3654331548986143 l 1.365433154898614,1.1897993408369478 Z"/></g><defs></defs><g stroke-linejoin="miter" stroke-opacity="1.0" fill-opacity="1.0" stroke="rgb(0,0,0)" stroke-width="0.0" fill="rgb(0,128,0)" stroke-linecap="butt" stroke-miterlimit="10.0"><path d="M 169.5464818449825,20.471886651776426 l -1.290358509947221,-1.270828504464393 l -1.2708285044643932,1.290358509947221 l 1.2903585099472208,1.2708285044643934 Z"/></g><defs></defs><g stroke-linejoin="miter" stroke-opacity="1.0" fill-opacity="1.0" stroke="rgb(0,0,0)" stroke-width="0.0" fill="rgb(0,128,0)" stroke-linecap="butt" stroke-miterlimit="10.0"><path d="M 171.50907783417998,18.67347047218405 l -1.2104836465878033,-1.3471301025869449 l -1.347130102586945,1.210483646587803 l 1.2104836465878028,1.3471301025869453 Z"/></g><defs></defs><g stroke-linejoin="miter" stroke-opacity="1.0" fill-opacity="1.0" stroke="rgb(0,0,0)" stroke-width="0.0" fill="rgb(0,128,0)" stroke-linecap="butt" stroke-miterlimit="10.0"><path d="M 173.57766192512415,16.998047053902418 l -1.1261057045582554,-1.4184202882480825 l -1.4184202882480828,1.1261057045582554 l 1.1261057045582552,1.4184202882480828 Z"/></g><defs></defs><g stroke-linejoin="miter" stroke-opacity="1.0" fill-opacity="1.0" stroke="rgb(0,0,0)" stroke-width="0.0" fill="rgb(0,128,0)" stroke-linecap="butt" stroke-miterlimit="10.0"><path d="M 175.7445388491316,15.451849082089746 l -1.0375385753448896,-1.4844338572747913 l -1.4844338572747915,1.0375385753448894 l 1.0375385753448891,1.4844338572747915 Z"/></g><defs></defs><g stroke-linejoin="miter" stroke-opacity="1.0" fill-opacity="1.0" stroke="rgb(0,0,0)" stroke-width="0.0" fill="rgb(0,128,0)" stroke-linecap="butt" stroke-miterlimit="10.0"><path d="M 178.00164768172414,14.04062851475575 l -0.9451117344854868,-1.5449252348545066 l -1.544925234854507,0.9451117344854867 l 0.9451117344854865,1.544925234854507 Z"/></g><defs></defs><g stroke-linejoin="miter" stroke-opacity="1.0" fill-opacity="1.0" stroke="rgb(0,0,0)" stroke-width="0.0" fill="rgb(0,128,0)" stroke-linecap="butt" stroke-miterlimit="10.0"><path d="M 180.3405918297971,12.769635185100192 l -0.8491690158986583,-1.5996693890895468 l -1.5996693890895468,0.8491690158986581 l 0.849169015898658,1.5996693890895468 Z"/></g><defs></defs><g stroke-linejoin="miter" stroke-opacity="1.0" fill-opacity="1.0" stroke="rgb(0,0,0)" stroke-width="0.0" fill="rgb(0,128,0)" stroke-linecap="butt" stroke-miterlimit="10.0"><path d="M 182.75267026749734,11.643597271788503 l -0.7500673327990857,-1.6484626681305479 l -1.6484626681305479,0.7500673327990856 l 0.7500673327990854,1.6484626681305479 Z"/></g><defs></defs><g stroke-linejoin="miter" stroke-opacity="1.0" fill-opacity="1.0" stroke="rgb(0,0,0)" stroke-width="0.0" fill="rgb(0,128,0)" stroke-linecap="butt" stroke-miterlimit="10.0"><path d="M 185.22890990461073,10.666703709816613 l -0.648175349956919,-1.6911235577747252 l -1.6911235577747252,0.6481753499569186 l 0.6481753499569185,1.6911235577747252 Z"/></g><defs></defs><g stroke-linejoin="miter" stroke-opacity="1.0" fill-opacity="1.0" stroke="rgb(0,0,0)" stroke-width="0.0" fill="rgb(0,128,0)" stroke-linecap="butt" stroke-miterlimit="10.0"><path d="M 187.76009896704733,9.842588607397632 l -0.5438721122406177,-1.7274933567106268 l -1.7274933567106268,0.5438721122406175 l 0.5438721122406173,1.7274933567106268 Z"/></g><defs></defs><g stroke-linejoin="miter" stroke-opacity="1.0" fill-opacity="1.0" stroke="rgb(0,0,0)" stroke-width="0.0" fill="rgb(0,128,0)" stroke-linecap="butt" stroke-miterlimit="10.0"><path d="M 190.33682126524582,9.174317726840624 l -0.43754563454514545,-1.7574367668974336 l -1.7574367668974336,0.43754563454514533 l 0.43754563454514506,1.7574367668974336 Z"/></g><defs></defs><g stroke-linejoin="miter" stroke-opacity="1.0" fill-opacity="1.0" stroke="rgb(0,0,0)" stroke-width="0.0" fill="rgb(0,128,0)" stroke-linecap="butt" stroke-miterlimit="10.0"><path d="M 192.94949122301722,8.664377079713411 l -0.32959145835107534,-1.7808423968825624 l -1.7808423968825624,0.3295914583510751 l 0.32959145835107495,1.7808423968825624 Z"/></g><defs></defs><g stroke-linejoin="miter" stroke-opacity="1.0" fill-opacity="1.0" stroke="rgb(0,0,0)" stroke-width="0.0" fill="rgb(0,128,0)" stroke-linecap="butt" stroke-miterlimit="10.0"><path d="M 195.5883895365179,8.314663678716341 l -0.22041118028430207,-1.7976231761851813 l -1.7976231761851813,0.22041118028430187 l 0.22041118028430162,1.7976231761851813 Z"/></g><defs></defs><g stroke-linejoin="miter" stroke-opacity="1.0" fill-opacity="1.0" stroke="rgb(0,0,0)" stroke-width="0.0" fill="rgb(0,128,0)" stroke-linecap="butt" stroke-miterlimit="10.0"><path d="M 198.24369933069826,8.126478480670347 l -0.11041095815021812,-1.8077166792041195 l -1.8077166792041195,0.11041095815021792 l 0.11041095815021773,1.8077166792041195 Z"/></g><defs></defs><g stroke-linejoin="miter" stroke-opacity="1.0" fill-opacity="1.0" stroke="rgb(0,0,0)" stroke-width="0.0" fill="rgb(0,128,0)" stroke-linecap="butt" stroke-miterlimit="10.0"><path d="M 200.9055426787226,8.100521546872235 l -2.010708663397146e-16,-1.811085357445203 h -1.811085357445203 l -2.010708663397146e-16,1.811085357445203 Z"/></g><defs></defs><g stroke-linejoin="miter" stroke-opacity="1.0" fill-opacity="1.0" stroke="rgb(0,0,0)" stroke-width="0.0" fill="rgb(89,89,255)" stroke-linecap="butt" stroke-miterlimit="10.0"><path d="M 95.82491551091653,41.27676247827895 l -32.1885518745529,-23.38635185176936 l -32.1885518745529,23.386351851769355 l 12.29493276744006,37.83991216902686 l 39.78723821422567,7.362117991946541e-15 Z"/></g><defs></defs><g stroke-linejoin="miter" stroke-opacity="1.0" fill-opacity="1.0" stroke="rgb(0,0,0)" stroke-width="0.8072311333760342" fill="rgb(0,0,0)" stroke-linecap="butt" stroke-miterlimit="10.0"><path d="M 99.92322643339655,53.89006653462124 c 6.966135475296737,-2.2634346225506867 10.778427756412961,-9.745479503525578 8.514993133862273 -16.71161497882231c -2.2634346225506863,-6.966135475296737 -9.745479503525576,-10.778427756412961 -16.71161497882231 -8.514993133862276c -6.966135475296737,2.2634346225506854 -10.778427756412961,9.745479503525575 -8.514993133862276 16.711614978822308c 2.2634346225506854,6.966135475296737 9.745479503525575,10.778427756412961 16.711614978822315 8.51499313386228Z"/></g><defs></defs><g stroke-linejoin="miter" stroke-opacity="1.0" fill-opacity="1.0" stroke="rgb(0,0,0)" stroke-width="0.8072311333760342" fill="rgb(0,0,0)" stroke-linecap="butt" stroke-miterlimit="10.0"><path d="M 72.80046545195881,86.91212526456226 c 4.305308493969785,5.925748773150991 12.599219135623098,7.239375168230968 18.524967908774087 2.934066674261183c 5.925748773150991,-4.305308493969785 7.239375168230968,-12.599219135623098 2.9340666742611843 -18.524967908774087c -4.305308493969785,-5.925748773150991 -12.599219135623098,-7.239375168230968 -18.524967908774087 -2.9340666742611843c -5.925748773150991,4.305308493969785 -7.2393751682309695,12.599219135623098 -2.934066674261185 18.524967908774087Z"/></g><defs></defs><g stroke-linejoin="miter" stroke-opacity="1.0" fill-opacity="1.0" stroke="rgb(0,0,0)" stroke-width="0.8072311333760342" fill="rgb(0,0,0)" stroke-linecap="butt" stroke-miterlimit="10.0"><path d="M 33.01322723773315,71.32122403004935 c -4.305308493969787,5.92574877315099 -2.9916820988898127,14.219659414804305 2.934066674261174 18.524967908774087c 5.92574877315099,4.305308493969787 14.219659414804305,2.991682098889814 18.524967908774087 -2.934066674261174c 4.305308493969788,-5.925748773150988 2.991682098889815,-14.219659414804305 -2.934066674261173 -18.524967908774087c -5.925748773150988,-4.305308493969788 -14.219659414804305,-2.9916820988898154 -18.524967908774087 2.9340666742611745Z"/></g><defs></defs><g stroke-linejoin="miter" stroke-opacity="1.0" fill-opacity="1.0" stroke="rgb(0,0,0)" stroke-width="0.8072311333760342" fill="rgb(0,0,0)" stroke-linecap="butt" stroke-miterlimit="10.0"><path d="M 35.54612268429075,28.663458421936646 c -6.966135475296735,-2.2634346225506876 -14.448180356271628,1.5488576585655327 -16.711614978822315 8.514993133862268c -2.2634346225506885,6.966135475296735 1.548857658565532,14.448180356271628 8.514993133862264 16.711614978822315c 6.966135475296735,2.263434622550689 14.448180356271628,-1.5488576585655311 16.711614978822315 -8.514993133862262c 2.263434622550689,-6.966135475296735 -1.5488576585655305,-14.448180356271628 -8.514993133862264 -16.71161497882232Z"/></g><defs></defs><g stroke-linejoin="miter" stroke-opacity="1.0" fill-opacity="1.0" stroke="rgb(0,0,0)" stroke-width="0.8072311333760342" fill="rgb(0,0,0)" stroke-linecap="butt" stroke-miterlimit="10.0"><path d="M 76.89877637443885,17.890410626509585 c 0.0,-7.324628301200605 -5.93778443687462,-13.262412738075225 -13.262412738075223 -13.262412738075225c -7.324628301200605,-4.485041302004717e-16 -13.262412738075225,5.937784436874619 -13.262412738075225 13.26241273807522c -8.970082604009434e-16,7.324628301200605 5.937784436874619,13.262412738075225 13.26241273807522 13.262412738075225c 7.324628301200605,1.3455123906014153e-15 13.262412738075225,-5.937784436874617 13.262412738075227 -13.26241273807522Z"/></g></g></svg>