<?xml version="1.0" encoding="UTF-8"?>
<!DOCTYPE svg PUBLIC "-//W3C//DTD SVG 1.1//EN"
    "http://www.w3.org/Graphics/SVG/1.1/DTD/svg11.dtd">
<svg xmlns="http://www.w3.org/2000/svg" xmlns:xlink="http://www.w3.org/1999/xlink" version="1.1" width="300.0" height="233.33333333333331" font-size="1" viewBox="0 0 300 233"><g><g transform="matrix(15.15151515151515,0.0,0.0,15.15151515151515,150.0,116.66666666666666)"><g stroke="rgb(0,0,0)" stroke-opacity="1.0" fill-opacity="0.0" stroke-width="3.0e-2" font-size="1.0em"><path d="M 0.0,-6.0 l 4.0,4.0 " /></g></g><g transform="matrix(15.15151515151515,0.0,0.0,15.15151515151515,150.0,116.66666666666666)"><g stroke="rgb(0,0,0)" stroke-opacity="1.0" fill-opacity="0.0" stroke-width="3.0e-2" font-size="1.0em"><path d="M 0.0,-6.0 l -4.0,4.0 " /></g></g><g transform="matrix(15.15151515151515,0.0,0.0,15.15151515151515,150.0,116.66666666666666)"><g stroke="rgb(0,0,0)" stroke-opacity="1.0" fill-opacity="0.0" stroke-width="3.0e-2" font-size="1.0em"><path d="M 4.0,-2.0 v 4.0 " /></g></g><g transform="matrix(15.15151515151515,0.0,0.0,15.15151515151515,150.0,116.66666666666666)"><g stroke="rgb(0,0,0)" stroke-opacity="1.0" fill-opacity="0.0" stroke-width="3.0e-2" font-size="1.0em"><path d="M 4.0,2.0 l 4.0,4.0 " /></g></g><g transform="matrix(15.15151515151515,0.0,0.0,15.15151515151515,150.0,116.66666666666666)"><g stroke="rgb(0,0,0)" stroke-opacity="1.0" fill-opacity="0.0" stroke-width="3.0e-2" font-size="1.0em"><path d="M 4.0,2.0 v 4.0 " /></g></g><g transform="matrix(15.15151515151515,0.0,0.0,15.15151515151515,150.0,116.66666666666666)"><g stroke="rgb(0,0,0)" stroke-opacity="1.0" fill-opacity="0.0" stroke-width="3.0e-2" font-size="1.0em"><path d="M 4.0,2.0 l -4.0,4.0 " /></g></g><g transform="matrix(15.15151515151515,0.0,0.0,15.15151515151515,150.0,116.66666666666666)"><g stroke="rgb(0,0,0)" stroke-opacity="1.0" fill="rgb(255,255,255)" fill-opacity="1.0" stroke-width="3.0e-2" font-size="1.0em"><path d="M 9.0,6.0 c 0.0,-0.5522847498307935 -0.44771525016920644,-1.0 -0.9999999999999998 -1.0c -0.5522847498307935,-3.3817687554908895e-17 -1.0,0.4477152501692064 -1.0 0.9999999999999997c -6.763537510981779e-17,0.5522847498307935 0.4477152501692063,1.0 0.9999999999999996 1.0c 0.5522847498307935,1.0145306266472669e-16 1.0,-0.44771525016920627 1.0000000000000002 -0.9999999999999997Z" /></g></g><g transform="matrix(15.15151515151515,0.0,0.0,15.15151515151515,150.0,116.66666666666666)"><g stroke="rgb(0,0,0)" stroke-opacity="1.0" fill="rgb(0,0,0)" fill-opacity="1.0" stroke-width="3.0e-2" font-size="1.0em"><text transform="matrix(1.0,0.0,0.0,1.0,8.0,6.0)" dominant-baseline="middle" text-anchor="middle" stroke="none">J</text></g></g><g transform="matrix(15.15151515151515,0.0,0.0,15.15151515151515,150.0,116.66666666666666)"><g stroke="rgb(0,0,0)" stroke-opacity="1.0" fill="rgb(255,255,255)" fill-opacity="1.0" stroke-width="3.0e-2" font-size="1.0em"><path d="M 5.0,6.0 c 0.0,-0.5522847498307935 -0.44771525016920644,-1.0 -0.9999999999999998 -1.0c -0.5522847498307935,-3.3817687554908895e-17 -1.0,0.4477152501692064 -1.0 0.9999999999999997c -6.763537510981779e-17,0.5522847498307935 0.4477152501692063,1.0 0.9999999999999996 1.0c 0.5522847498307935,1.0145306266472669e-16 1.0,-0.44771525016920627 1.0000000000000002 -0.9999999999999997Z" /></g></g><g transform="matrix(15.15151515151515,0.0,0.0,15.15151515151515,150.0,116.66666666666666)"><g stroke="rgb(0,0,0)" stroke-opacity="1.0" fill="rgb(0,0,0)" fill-opacity="1.0" stroke-width="3.0e-2" font-size="1.0em"><text transform="matrix(1.0,0.0,0.0,1.0,4.0,6.0)" dominant-baseline="middle" text-anchor="middle" stroke="none">I</text></g></g><g transform="matrix(15.15151515151515,0.0,0.0,15.15151515151515,150.0,116.66666666666666)"><g stroke="rgb(0,0,0)" stroke-opacity="1.0" fill="rgb(255,255,255)" fill-opacity="1.0" stroke-width="3.0e-2" font-size="1.0em"><path d="M 1.0,6.0 c 0.0,-0.5522847498307935 -0.44771525016920644,-1.0 -0.9999999999999998 -1.0c -0.5522847498307935,-3.3817687554908895e-17 -1.0,0.4477152501692064 -1.0 0.9999999999999997c -6.763537510981779e-17,0.5522847498307935 0.4477152501692063,1.0 0.9999999999999996 1.0c 0.5522847498307935,1.0145306266472669e-16 1.0,-0.44771525016920627 1.0000000000000002 -0.9999999999999997Z" /></g></g><g transform="matrix(15.15151515151515,0.0,0.0,15.15151515151515,150.0,116.66666666666666)"><g stroke="rgb(0,0,0)" stroke-opacity="1.0" fill="rgb(0,0,0)" fill-opacity="1.0" stroke-width="3.0e-2" font-size="1.0em"><text transform="matrix(1.0,0.0,0.0,1.0,0.0,6.0)" dominant-baseline="middle" text-anchor="middle" stroke="none">H</text></g></g><g transform="matrix(15.15151515151515,0.0,0.0,15.15151515151515,150.0,116.66666666666666)"><g stroke="rgb(0,0,0)" stroke-opacity="1.0" fill="rgb(255,255,255)" fill-opacity="1.0" stroke-width="3.0e-2" font-size="1.0em"><path d="M 5.0,2.0 c 0.0,-0.5522847498307935 -0.44771525016920644,-1.0 -0.9999999999999998 -1.0c -0.5522847498307935,-3.3817687554908895e-17 -1.0,0.4477152501692064 -1.0 0.9999999999999997c -6.763537510981779e-17,0.5522847498307935 0.4477152501692063,1.0 0.9999999999999996 1.0c 0.5522847498307935,1.0145306266472669e-16 1.0,-0.44771525016920627 1.0000000000000002 -0.9999999999999997Z" /></g></g><g transform="matrix(15.15151515151515,0.0,0.0,15.15151515151515,150.0,116.66666666666666)"><g stroke="rgb(0,0,0)" stroke-opacity="1.0" fill="rgb(0,0,0)" fill-opacity="1.0" stroke-width="3.0e-2" font-size="1.0em"><text transform="matrix(1.0,0.0,0.0,1.0,4.0,2.0)" dominant-baseline="middle" text-anchor="middle" stroke="none">G</text></g></g><g transform="matrix(15.15151515151515,0.0,0.0,15.15151515151515,150.0,116.66666666666666)"><g stroke="rgb(0,0,0)" stroke-opacity="1.0" fill="rgb(255,255,255)" fill-opacity="1.0" stroke-width="3.0e-2" font-size="1.0em"><path d="M 5.0,-2.0 c 0.0,-0.5522847498307935 -0.44771525016920644,-1.0 -0.9999999999999998 -1.0c -0.5522847498307935,-3.3817687554908895e-17 -1.0,0.4477152501692064 -1.0 0.9999999999999997c -6.763537510981779e-17,0.5522847498307935 0.4477152501692063,1.0 0.9999999999999996 1.0c 0.5522847498307935,1.0145306266472669e-16 1.0,-0.44771525016920627 1.0000000000000002 -0.9999999999999997Z" /></g></g><g transform="matrix(15.15151515151515,0.0,0.0,15.15151515151515,150.0,116.66666666666666)"><g stroke="rgb(0,0,0)" stroke-opacity="1.0" fill="rgb(0,0,0)" fill-opacity="1.0" stroke-width="3.0e-2" font-size="1.0em"><text transform="matrix(1.0,0.0,0.0,1.0,4.0,-2.0)" dominant-baseline="middle" text-anchor="middle" stroke="none">F</text></g></g><g transform="matrix(15.15151515151515,0.0,0.0,15.15151515151515,150.0,116.66666666666666)"><g stroke="rgb(0,0,0)" stroke-opacity="1.0" fill-opacity="0.0" stroke-width="3.0e-2" font-size="1.0em"><path d="M -4.0,-2.0 l 4.0,4.0 " /></g></g><g transform="matrix(15.15151515151515,0.0,0.0,15.15151515151515,150.0,116.66666666666666)"><g stroke="rgb(0,0,0)" stroke-opacity="1.0" fill-opacity="0.0" stroke-width="3.0e-2" font-size="1.0em"><path d="M -4.0,-2.0 v 4.0 " /></g></g><g transform="matrix(15.15151515151515,0.0,0.0,15.15151515151515,150.0,116.66666666666666)"><g stroke="rgb(0,0,0)" stroke-opacity="1.0" fill-opacity="0.0" stroke-width="3.0e-2" font-size="1.0em"><path d="M -4.0,-2.0 l -4.0,4.0 " /></g></g><g transform="matrix(15.15151515151515,0.0,0.0,15.15151515151515,150.0,116.66666666666666)"><g stroke="rgb(0,0,0)" stroke-opacity="1.0" fill="rgb(255,255,255)" fill-opacity="1.0" stroke-width="3.0e-2" font-size="1.0em"><path d="M 1.0,2.0 c 0.0,-0.5522847498307935 -0.44771525016920644,-1.0 -0.9999999999999998 -1.0c -0.5522847498307935,-3.3817687554908895e-17 -1.0,0.4477152501692064 -1.0 0.9999999999999997c -6.763537510981779e-17,0.5522847498307935 0.4477152501692063,1.0 0.9999999999999996 1.0c 0.5522847498307935,1.0145306266472669e-16 1.0,-0.44771525016920627 1.0000000000000002 -0.9999999999999997Z" /></g></g><g transform="matrix(15.15151515151515,0.0,0.0,15.15151515151515,150.0,116.66666666666666)"><g stroke="rgb(0,0,0)" stroke-opacity="1.0" fill="rgb(0,0,0)" fill-opacity="1.0" stroke-width="3.0e-2" font-size="1.0em"><text transform="matrix(1.0,0.0,0.0,1.0,0.0,2.0)" dominant-baseline="middle" text-anchor="middle" stroke="none">E</text></g></g><g transform="matrix(15.15151515151515,0.0,0.0,15.15151515151515,150.0,116.66666666666666)"><g stroke="rgb(0,0,0)" stroke-opacity="1.0" fill="rgb(255,255,255)" fill-opacity="1.0" stroke-width="3.0e-2" font-size="1.0em"><path d="M -3.0,2.0 c 0.0,-0.5522847498307935 -0.44771525016920644,-1.0 -0.9999999999999998 -1.0c -0.5522847498307935,-3.3817687554908895e-17 -1.0,0.4477152501692064 -1.0 0.9999999999999997c -6.763537510981779e-17,0.5522847498307935 0.4477152501692063,1.0 0.9999999999999996 1.0c 0.5522847498307935,1.0145306266472669e-16 1.0,-0.44771525016920627 1.0000000000000002 -0.9999999999999997Z" /></g></g><g transform="matrix(15.15151515151515,0.0,0.0,15.15151515151515,150.0,116.66666666666666)"><g stroke="rgb(0,0,0)" stroke-opacity="1.0" fill="rgb(0,0,0)" fill-opacity="1.0" stroke-width="3.0e-2" font-size="1.0em"><text transform="matrix(1.0,0.0,0.0,1.0,-4.0,2.0)" dominant-baseline="middle" text-anchor="middle" stroke="none">D</text></g></g><g transform="matrix(15.15151515151515,0.0,0.0,15.15151515151515,150.0,116.66666666666666)"><g stroke="rgb(0,0,0)" stroke-opacity="1.0" fill="rgb(255,255,255)" fill-opacity="1.0" stroke-width="3.0e-2" font-size="1.0em"><path d="M -7.0,2.0 c 0.0,-0.5522847498307935 -0.44771525016920644,-1.0 -0.9999999999999998 -1.0c -0.5522847498307935,-3.3817687554908895e-17 -1.0,0.4477152501692064 -1.0 0.9999999999999997c -6.763537510981779e-17,0.5522847498307935 0.4477152501692063,1.0 0.9999999999999996 1.0c 0.5522847498307935,1.0145306266472669e-16 1.0,-0.44771525016920627 1.0000000000000002 -0.9999999999999997Z" /></g></g><g transform="matrix(15.15151515151515,0.0,0.0,15.15151515151515,150.0,116.66666666666666)"><g stroke="rgb(0,0,0)" stroke-opacity="1.0" fill="rgb(0,0,0)" fill-opacity="1.0" stroke-width="3.0e-2" font-size="1.0em"><text transform="matrix(1.0,0.0,0.0,1.0,-8.0,2.0)" dominant-baseline="middle" text-anchor="middle" stroke="none">C</text></g></g><g transform="matrix(15.15151515151515,0.0,0.0,15.15151515151515,150.0,116.66666666666666)"><g stroke="rgb(0,0,0)" stroke-opacity="1.0" fill="rgb(255,255,255)" fill-opacity="1.0" stroke-width="3.0e-2" font-size="1.0em"><path d="M -3.0,-2.0 c 0.0,-0.5522847498307935 -0.44771525016920644,-1.0 -0.9999999999999998 -1.0c -0.5522847498307935,-3.3817687554908895e-17 -1.0,0.4477152501692064 -1.0 0.9999999999999997c -6.763537510981779e-17,0.5522847498307935 0.4477152501692063,1.0 0.9999999999999996 1.0c 0.5522847498307935,1.0145306266472669e-16 1.0,-0.44771525016920627 1.0000000000000002 -0.9999999999999997Z" /></g></g><g transform="matrix(15.15151515151515,0.0,0.0,15.15151515151515,150.0,116.66666666666666)"><g stroke="rgb(0,0,0)" stroke-opacity="1.0" fill="rgb(0,0,0)" fill-opacity="1.0" stroke-width="3.0e-2" font-size="1.0em"><text transform="matrix(1.0,0.0,0.0,1.0,-4.0,-2.0)" dominant-baseline="middle" text-anchor="middle" stroke="none">B</text></g></g><g transform="matrix(15.15151515151515,0.0,0.0,15.15151515151515,150.0,116.66666666666666)"><g stroke="rgb(0,0,0)" stroke-opacity="1.0" fill="rgb(255,255,255)" fill-opacity="1.0" stroke-width="3.0e-2" font-size="1.0em"><path d="M 1.0,-6.0 c 0.0,-0.5522847498307935 -0.44771525016920644,-1.0 -0.9999999999999998 -1.0c -0.5522847498307935,-3.3817687554908895e-17 -1.0,0.4477152501692064 -1.0 0.9999999999999997c -6.763537510981779e-17,0.5522847498307935 0.4477152501692063,1.0 0.9999999999999996 1.0c 0.5522847498307935,1.0145306266472669e-16 1.0,-0.44771525016920627 1.0000000000000002 -0.9999999999999997Z" /></g></g><g transform="matrix(15.15151515151515,0.0,0.0,15.15151515151515,150.0,116.66666666666666)"><g stroke="rgb(0,0,0)" stroke-opacity="1.0" fill="rgb(0,0,0)" fill-opacity="1.0" stroke-width="3.0e-2" font-size="1.0em"><text transform="matrix(1.0,0.0,0.0,1.0,0.0,-6.0)" dominant-baseline="middle" text-anchor="middle" stroke="none">A</text></g></g></g></svg>