<?xml version="1.0" encoding="UTF-8"?>
<!DOCTYPE svg PUBLIC "-//W3C//DTD SVG 1.1//EN"
    "http://www.w3.org/Graphics/SVG/1.1/DTD/svg11.dtd"><svg xmlns="http://www.w3.org/2000/svg" height="168.67469879518077" stroke-opacity="1" viewBox="0 0 400 169" font-size="1" width="400.0" xmlns:xlink="http://www.w3.org/1999/xlink" stroke="rgb(0,0,0)" version="1.1"><defs></defs><defs></defs><g stroke-linejoin="miter" stroke-opacity="1.0" fill-opacity="0.0" stroke="rgb(0,0,0)" stroke-width="1.0389985910910358" fill="rgb(0,0,0)" stroke-linecap="butt" stroke-miterlimit="10.0"><path d="M 251.4056224899599,105.75635876840698 l 1.338688085676038,1.3386880856760375 l 1.3386880856760377,-1.338688085676038 l 5.944969342035645e-16,-2.677376171352076 l 1.3386880856760377,-1.338688085676038 l -1.338688085676038,-1.3386880856760377 l -2.677376171352076,-5.944969342035645e-16 l -2.6773761713520754,2.677376171352076 l -2.6773761713520754,2.9724846710178225e-16 l -5.944969342035645e-16,-2.6773761713520754 l 1.3386880856760377,-1.338688085676038 l -1.338688085676038,-1.3386880856760377 l -2.677376171352076,-5.944969342035645e-16 l -1.338688085676038,-1.3386880856760377 l -1.338688085676038,1.3386880856760377 l -5.944969342035645e-16,2.677376171352076 l 2.6773761713520754,2.677376171352076 v 2.6773761713520754 l -2.6773761713520754,2.9724846710178225e-16 l -2.6773761713520754,2.677376171352076 l 2.6773761713520767,2.677376171352076 l 5.354752342704152,1.188993868407129e-15 l 2.677376171352076,2.6773761713520767 l -5.944969342035645e-16,2.677376171352076 l -2.677376171352076,-5.944969342035645e-16 l -2.6773761713520767,2.677376171352076 l -2.677376171352076,-5.944969342035645e-16 v -2.6773761713520754 l 1.3386880856760377,-1.338688085676038 l -1.338688085676038,-1.3386880856760377 l -2.677376171352076,-5.944969342035645e-16 l -1.338688085676038,-1.3386880856760377 l -1.3386880856760377,1.338688085676038 l -5.944969342035645e-16,2.677376171352076 l 2.677376171352076,2.6773761713520754 v 2.6773761713520754 l -2.6773761713520754,2.9724846710178225e-16 l -1.338688085676038,-1.3386880856760377 l -1.338688085676038,1.3386880856760377 l -5.944969342035645e-16,2.677376171352076 l -1.338688085676038,1.3386880856760377 l 1.3386880856760377,1.338688085676038 l 2.677376171352076,5.944969342035645e-16 l 2.677376171352076,-2.6773761713520754 h 2.6773761713520754 v 2.6773761713520754 l 2.6773761713520754,2.677376171352076 l 2.6773761713520767,-2.677376171352076 l 1.188993868407129e-15,-5.354752342704152 l 2.677376171352077,-2.6773761713520754 l 2.677376171352076,5.944969342035645e-16 l -5.944969342035645e-16,2.677376171352076 l 2.6773761713520754,2.677376171352077 l -5.944969342035645e-16,2.677376171352076 h -2.6773761713520754 l -2.677376171352075,2.677376171352076 l 2.6773761713520754,2.677376171352076 l 5.354752342704152,1.188993868407129e-15 l 2.6773761713520754,2.677376171352076 l 2.677376171352076,-2.6773761713520754 l 1.188993868407129e-15,-5.354752342704152 l -5.354752342704151,-5.354752342704152 v -5.354752342704151 h 5.354752342704151 l 2.677376171352076,2.677376171352075 l 2.677376171352075,-2.677376171352076 v -5.354752342704151 l 2.677376171352076,-2.6773761713520754 h 2.6773761713520754 v 2.6773761713520754 l 2.6773761713520754,2.677376171352076 v 2.6773761713520754 l -2.677376171352075,2.9724846710178225e-16 l -2.677376171352075,2.677376171352076 l 2.677376171352076,2.677376171352075 l 5.35475234270415,-5.944969342035645e-16 l 2.6773761713520754,2.677376171352076 l 2.9724846710178225e-16,2.677376171352075 l -2.6773761713520754,5.944969342035645e-16 l -2.677376171352076,2.6773761713520754 l -2.6773761713520754,5.944969342035645e-16 l -7.431211677544557e-16,-2.677376171352075 l 1.3386880856760377,-1.338688085676038 l -1.338688085676038,-1.3386880856760377 l -2.677376171352076,-5.944969342035645e-16 l -1.338688085676038,-1.3386880856760377 l -1.338688085676038,1.3386880856760377 l -5.944969342035645e-16,2.677376171352076 l 2.6773761713520754,2.677376171352076 v 2.6773761713520754 l -2.6773761713520754,2.9724846710178225e-16 l -1.3386880856760377,-1.338688085676038 l -1.338688085676038,1.3386880856760377 l -5.944969342035645e-16,2.677376171352076 l -1.338688085676038,1.3386880856760377 l 1.3386880856760377,1.338688085676038 l 2.677376171352076,5.944969342035645e-16 l 2.677376171352076,-2.6773761713520754 h 2.6773761713520754 v 2.6773761713520754 l 2.6773761713520754,2.677376171352076 l 2.6773761713520767,-2.677376171352076 l 1.188993868407129e-15,-5.354752342704152 l 2.677376171352077,-2.6773761713520754 l 2.677376171352076,5.944969342035645e-16 l -5.944969342035645e-16,2.677376171352076 l 2.6773761713520754,2.677376171352077 l -5.944969342035645e-16,2.677376171352076 h -2.6773761713520754 l -1.338688085676038,-1.3386880856760377 l -1.338688085676038,1.3386880856760377 l -5.944969342035645e-16,2.677376171352076 l -1.338688085676038,1.3386880856760377 l 1.3386880856760377,1.338688085676038 l 2.677376171352076,5.944969342035645e-16 l 2.677376171352076,-2.6773761713520754 h 2.6773761713520754 v 2.6773761713520754 l -1.338688085676038,1.3386880856760377 l 1.3386880856760377,1.338688085676038 l 2.677376171352076,5.944969342035645e-16 l 1.3386880856760377,1.338688085676038 l 1.338688085676038,-1.3386880856760375 l 5.944969342035645e-16,-2.677376171352076 l -2.677376171352075,-2.677376171352076 v -2.677376171352076 h 2.6773761713520754 l 2.677376171352076,-2.6773761713520754 l -2.677376171352076,-2.6773761713520767 l -5.354752342704152,-1.188993868407129e-15 l -2.6773761713520754,-2.677376171352077 l 5.944969342035645e-16,-2.677376171352076 l 2.677376171352076,5.944969342035645e-16 l 2.677376171352077,-2.6773761713520754 l 2.677376171352076,5.944969342035645e-16 v 2.677376171352076 l 2.677376171352076,2.6773761713520754 l 2.677376171352076,-2.6773761713520754 l 1.188993868407129e-15,-5.354752342704152 l 2.677376171352076,-2.6773761713520754 l -2.6773761713520754,-2.677376171352076 l -5.354752342704152,-1.188993868407129e-15 l -5.354752342704152,5.354752342704151 h -5.354752342704152 l 5.944969342035645e-16,-5.354752342704151 l 2.6773761713520754,-2.6773761713520754 l -2.677376171352076,-2.6773761713520754 l -5.354752342704151,-5.944969342035645e-16 l -2.6773761713520754,-2.677376171352076 l 2.9724846710178225e-16,-2.6773761713520754 l 2.6773761713520754,2.9724846710178225e-16 l 2.677376171352076,-2.6773761713520754 l 2.6773761713520754,2.9724846710178225e-16 v 2.6773761713520754 l 2.6773761713520754,2.6773761713520754 l 2.6773761713520754,-2.6773761713520754 v -5.354752342704151 l 2.677376171352076,-2.6773761713520754 h 2.6773761713520754 l 2.9724846710178225e-16,2.6773761713520754 l 2.6773761713520754,2.677376171352076 l 2.9724846710178225e-16,2.6773761713520754 l -2.6773761713520754,5.944969342035645e-16 l -2.677376171352075,2.6773761713520767 l 2.677376171352076,2.6773761713520754 h 5.354752342704152 l 2.677376171352076,2.6773761713520754 l 2.6773761713520754,-2.6773761713520754 v -5.354752342704152 l -5.354752342704151,-5.354752342704151 l -1.4862423355089114e-15,-5.35475234270415 l 5.35475234270415,-1.4862423355089114e-15 l 2.6773761713520754,2.6773761713520754 l 2.6773761713520754,-2.677376171352076 v -5.354752342704152 l 2.6773761713520754,-2.677376171352076 l -2.677376171352076,-2.6773761713520754 h -5.354752342704152 l -5.354752342704151,5.354752342704152 l -5.354752342704152,5.944969342035645e-16 l -1.4862423355089114e-15,-5.35475234270415 l -5.354752342704152,-5.354752342704151 l -5.3547523427041535,5.3547523427041535 v 10.709504685408303 l -5.354752342704152,5.354752342704151 h -5.354752342704152 v -5.354752342704152 l -5.354752342704151,-5.354752342704152 v -5.354752342704152 l 5.354752342704152,-5.944969342035645e-16 l 2.6773761713520767,2.6773761713520767 l 2.677376171352076,-2.6773761713520754 l 1.7834908026106933e-15,-5.3547523427041535 l 2.677376171352076,-2.6773761713520754 l -2.6773761713520754,-2.677376171352076 l -5.3547523427041535,-1.7834908026106933e-15 l -5.354752342704152,5.354752342704151 l -5.3547523427041535,-5.944969342035645e-16 v -5.354752342704152 l 2.6773761713520754,-2.677376171352076 l -2.6773761713520767,-2.6773761713520767 h -5.354752342704152 l -2.6773761713520754,-2.677376171352076 v -2.677376171352076 h 2.677376171352076 l 2.677376171352076,-2.6773761713520754 h 2.677376171352076 v 2.6773761713520754 l 2.677376171352076,2.6773761713520754 l 2.6773761713520754,-2.677376171352076 v -5.354752342704151 l 2.677376171352076,-2.6773761713520754 h 2.6773761713520754 l 2.9724846710178225e-16,2.677376171352076 l 2.6773761713520754,2.677376171352076 l 2.9724846710178225e-16,2.677376171352076 l -2.677376171352076,2.9724846710178225e-16 l -2.6773761713520754,2.677376171352076 l 2.6773761713520754,2.677376171352076 l 5.3547523427041535,1.7834908026106933e-15 l 2.6773761713520754,2.677376171352076 l 2.677376171352076,-2.6773761713520754 l 1.7834908026106933e-15,-5.3547523427041535 l -5.354752342704151,-5.354752342704152 l 5.944969342035645e-16,-5.3547523427041535 h 5.354752342704151 l 2.677376171352076,2.6773761713520754 l 2.6773761713520754,-2.677376171352076 v -5.354752342704152 l 2.677376171352076,-2.6773761713520754 h 2.677376171352076 v 2.6773761713520754 l 2.6773761713520754,2.677376171352076 v 2.6773761713520754 l -2.677376171352076,2.9724846710178225e-16 l -2.6773761713520754,2.677376171352076 l 2.677376171352076,2.6773761713520754 l 5.354752342704152,-5.944969342035645e-16 l 2.6773761713520754,2.677376171352076 l 2.9724846710178225e-16,2.677376171352076 l -2.677376171352076,2.9724846710178225e-16 l -2.677376171352076,2.6773761713520754 l -2.677376171352076,2.9724846710178225e-16 l -2.9724846710178225e-16,-2.677376171352076 l 1.338688085676037,-1.3386880856760386 l -1.3386880856760386,-1.338688085676037 l -2.6773761713520754,6.316529925912873e-16 l -1.3386880856760386,-1.338688085676037 l -1.3386880856760373,1.3386880856760386 l 6.316529925912873e-16,2.6773761713520754 l 2.677376171352077,2.6773761713520745 l 1.2261499267948519e-15,2.6773761713520754 l -2.6773761713520754,1.3747741603457428e-15 l -1.3386880856760386,-1.3386880856760373 l -1.3386880856760373,1.3386880856760384 l 6.316529925912873e-16,2.6773761713520754 l -1.3386880856760373,1.3386880856760384 l 1.3386880856760384,1.3386880856760375 l 2.6773761713520754,-6.316529925912873e-16 l 2.677376171352075,-2.6773761713520767 l 2.6773761713520754,-1.2261499267948519e-15 l 1.2261499267948519e-15,2.6773761713520754 l 2.6773761713520767,2.6773761713520745 l 2.6773761713520754,-2.6773761713520767 l -1.2633059851825745e-15,-5.354752342704151 l 2.677376171352076,-2.677376171352076 l 2.6773761713520754,-6.316529925912873e-16 l 6.316529925912873e-16,2.6773761713520754 l 2.677376171352076,2.677376171352076 l 6.316529925912873e-16,2.6773761713520754 l -2.6773761713520754,1.2261499267948519e-15 l -1.3386880856760386,-1.338688085676037 l -1.3386880856760373,1.3386880856760386 l 6.316529925912873e-16,2.6773761713520754 l -1.3386880856760373,1.3386880856760386 l 1.3386880856760384,1.3386880856760373 l 2.6773761713520754,-6.316529925912873e-16 l 2.6773761713520745,-2.6773761713520767 l 2.6773761713520754,-1.2261499267948519e-15 l 1.2261499267948519e-15,2.6773761713520754 l -1.3386880856760373,1.3386880856760384 l 1.3386880856760384,1.3386880856760375 l 2.6773761713520754,-6.316529925912873e-16 l 1.3386880856760384,1.3386880856760375 l 1.3386880856760375,-1.3386880856760384 l -6.316529925912873e-16,-2.6773761713520754 l -2.6773761713520767,-2.677376171352075 l -9.289014596930697e-16,-2.677376171352076 l 2.6773761713520754,-1.2261499267948519e-15 l 2.677376171352075,-2.6773761713520767 l -2.6773761713520767,-2.6773761713520754 l -5.354752342704151,1.2633059851825745e-15 l -2.677376171352076,-2.677376171352076 l -6.316529925912873e-16,-2.6773761713520754 l 2.6773761713520754,-6.316529925912873e-16 l 2.677376171352076,-2.677376171352076 l 2.6773761713520754,-6.316529925912873e-16 l 9.289014596930697e-16,2.677376171352076 l 2.677376171352077,2.677376171352074 l 2.677376171352075,-2.6773761713520767 l -1.2633059851825745e-15,-5.354752342704151 l 2.677376171352075,-2.6773761713520767 l -2.6773761713520767,-2.677376171352075 l -5.354752342704151,1.2633059851825745e-15 l -5.35475234270415,5.3547523427041535 l -5.354752342704152,1.8578029193861394e-15 l -2.4522998535897037e-15,-5.354752342704151 l 2.677376171352073,-2.6773761713520767 l -2.677376171352077,-2.677376171352074 l -5.354752342704151,2.4522998535897037e-15 l -2.6773761713520767,-2.677376171352075 l -1.2261499267948519e-15,-2.6773761713520754 l 2.6773761713520754,-1.2261499267948519e-15 l 2.677376171352075,-2.6773761713520767 l 2.6773761713520754,-1.2261499267948519e-15 l 1.3747741603457428e-15,2.677376171352075 l 2.6773761713520767,2.677376171352073 l 2.677376171352073,-2.6773761713520767 l -2.7495483206914857e-15,-5.35475234270415 l 2.677376171352075,-2.6773761713520767 l 2.677376171352075,-1.3747741603457428e-15 l 1.3747741603457428e-15,2.6773761713520754 l 2.6773761713520767,2.677376171352075 l 1.3747741603457428e-15,2.6773761713520754 l -2.6773761713520754,1.523398393896634e-15 l -1.3386880856760384,-1.3386880856760368 l -1.338688085676037,1.3386880856760384 l 5.53511432224068e-16,2.6773761713520754 l -1.338688085676037,1.3386880856760384 l 1.338688085676038,1.338688085676037 l 2.6773761713520754,-5.53511432224068e-16 l 2.677376171352074,-2.677376171352076 l 2.677376171352075,-1.2966325999785237e-15 l 1.2966325999785237e-15,2.677376171352075 l -1.338688085676037,1.338688085676038 l 1.338688085676038,1.338688085676037 l 2.6773761713520754,-5.53511432224068e-16 l 1.338688085676038,1.338688085676037 l 1.338688085676037,-1.338688085676038 l -5.53511432224068e-16,-2.6773761713520754 l -2.677376171352076,-2.677376171352074 l -1.1480083664276327e-15,-2.6773761713520754 l 2.677376171352075,-1.2966325999785237e-15 l 2.677376171352074,-2.677376171352076 l -2.6773761713520767,-2.677376171352075 l -5.354752342704151,1.107022864448136e-15 l -2.677376171352076,-2.6773761713520754 l -5.53511432224068e-16,-2.6773761713520754 l 2.6773761713520754,-5.53511432224068e-16 l 2.6773761713520754,-2.677376171352076 l 2.6773761713520754,-5.53511432224068e-16 l 1.1480083664276327e-15,2.6773761713520754 l -1.3386880856760375,1.3386880856760384 l 1.338688085676038,1.3386880856760377 l 2.677376171352076,4.098550197949638e-17 l 1.338688085676038,1.3386880856760377 l 1.3386880856760377,-1.338688085676038 l 4.098550197949638e-17,-2.677376171352076 l -2.677376171352076,-2.6773761713520754 l -5.535114322240682e-16,-2.677376171352076 l 2.6773761713520754,-5.53511432224068e-16 l 1.3386880856760384,1.3386880856760373 l 1.3386880856760375,-1.3386880856760384 l -4.1254608585672427e-16,-2.6773761713520754 l 1.3386880856760377,-1.338688085676038 l 1.3386880856760377,-2.0627304292836214e-16 l 2.88244046887355e-16,1.3386880856760377 l 1.338688085676038,1.3386880856760377 l 2.88244046887355e-16,1.3386880856760377 l -1.3386880856760377,3.7021505084634784e-16 l -1.338688085676037,1.3386880856760384 l 1.3386880856760384,1.3386880856760373 l 2.6773761713520754,-7.174534401420538e-16 l 1.338688085676038,1.3386880856760377 l 3.587267200710269e-16,1.3386880856760377 l -1.3386880856760377,4.4069772403001974e-16 l -1.3386880856760377,1.338688085676038 l -1.3386880856760377,4.4069772403001974e-16 l -5.226687279890126e-16,-1.3386880856760377 l -1.3386880856760384,-1.3386880856760373 l -1.3386880856760377,1.338688085676038 l 1.2295650593848945e-16,2.677376171352076 l -1.3386880856760377,1.338688085676038 l 1.338688085676038,1.3386880856760377 l 2.677376171352076,-1.2295650593848945e-16 l 2.6773761713520754,-2.677376171352076 l 2.677376171352076,-7.174534401420539e-16 l 7.174534401420538e-16,2.6773761713520754 l -1.338688085676037,1.3386880856760384 l 1.3386880856760384,1.3386880856760373 l 2.6773761713520754,-5.7648809377471e-16 l 1.338688085676038,1.3386880856760377 l 2.88244046887355e-16,1.3386880856760377 l -1.3386880856760377,3.7021505084634784e-16 l -1.3386880856760377,1.338688085676038 l -1.3386880856760377,3.7021505084634784e-16 l -4.521860548053408e-16,-1.3386880856760377 l -1.3386880856760384,-1.338688085676037 l -1.338688085676037,1.3386880856760384 l 8.813954480600395e-16,2.6773761713520754 l -1.3386880856760377,1.338688085676038 l -1.3386880856760377,4.4069772403001974e-16 l -5.226687279890126e-16,-1.3386880856760377 l -1.338688085676038,-1.3386880856760377 l -5.226687279890126e-16,-1.3386880856760377 l 1.3386880856760377,-6.046397319480055e-16 l 1.3386880856760366,-1.3386880856760384 l -1.3386880856760384,-1.3386880856760368 l -2.6773761713520754,7.955950005092731e-16 l -1.3386880856760384,-1.3386880856760368 l -1.3386880856760368,1.338688085676038 l 7.955950005092731e-16,2.6773761713520754 l 2.677376171352076,2.6773761713520736 l 1.5387161682637284e-15,2.677376171352075 l -2.677376171352075,1.5387161682637284e-15 l -1.338688085676038,-1.3386880856760368 l -1.338688085676037,1.338688085676038 l 7.955950005092731e-16,2.6773761713520754 l -1.338688085676037,1.338688085676038 l 1.338688085676038,1.338688085676037 l 2.6773761713520754,-7.955950005092731e-16 l 2.677376171352074,-2.677376171352076 l 2.6773761713520754,-1.3900919347128376e-15 l 1.5387161682637284e-15,2.677376171352075 l 2.677376171352076,2.677376171352074 l 2.6773761713520745,-2.6773761713520767 l -1.5911900010185462e-15,-5.354752342704151 l 2.6773761713520754,-2.677376171352076 l 2.6773761713520754,-7.955950005092731e-16 l 7.955950005092731e-16,2.6773761713520754 l 2.677376171352076,2.6773761713520754 l 7.955950005092731e-16,2.6773761713520754 l -2.6773761713520754,1.3900919347128376e-15 l -1.3386880856760384,-1.3386880856760373 l -1.3386880856760377,1.338688085676038 l 2.0109806630570867e-16,2.677376171352076 l -1.3386880856760377,1.338688085676038 l 1.338688085676038,1.3386880856760377 l 2.677376171352076,-2.0109806630570867e-16 l 2.6773761713520754,-2.677376171352076 l 2.677376171352076,-7.955950005092732e-16 l 7.955950005092731e-16,2.6773761713520754 l -1.338688085676037,1.3386880856760384 l 1.3386880856760384,1.3386880856760373 l 2.6773761713520754,-6.546296541419293e-16 l 1.338688085676038,1.3386880856760377 l 3.2731482707096464e-16,1.3386880856760377 l -1.3386880856760377,4.0928583102995746e-16 l -1.3386880856760377,1.338688085676038 l -1.3386880856760377,4.0928583102995746e-16 l -4.912568349889503e-16,-1.3386880856760377 l -1.3386880856760384,-1.338688085676037 l -1.338688085676037,1.3386880856760384 l 9.595370084272588e-16,2.6773761713520754 l -1.3386880856760377,1.338688085676038 l -1.3386880856760377,4.797685042136294e-16 l -5.617395081726222e-16,-1.3386880856760377 l -1.338688085676038,-1.3386880856760377 l -5.617395081726222e-16,-1.3386880856760377 l 1.3386880856760377,-6.437105121316151e-16 l 1.338688085676037,-1.3386880856760384 l -1.338688085676038,-1.3386880856760377 l -2.677376171352076,3.6504007422369445e-16 l -1.338688085676038,-1.3386880856760377 l -1.3386880856760377,1.338688085676038 l 3.6504007422369445e-16,2.677376171352076 l 2.677376171352076,2.6773761713520754 l 9.59537008427259e-16,2.677376171352076 l -2.6773761713520754,9.595370084272588e-16 l -1.3386880856760384,-1.338688085676037 l -1.338688085676037,1.3386880856760384 l 8.185716620599149e-16,2.6773761713520754 l -1.3386880856760377,1.338688085676038 l -1.3386880856760377,4.0928583102995746e-16 l -4.912568349889503e-16,-1.3386880856760377 l -1.338688085676038,-1.3386880856760377 l -4.912568349889503e-16,-1.3386880856760377 l 1.3386880856760377,-5.732278389479432e-16 l 1.3386880856760368,-1.3386880856760384 l -1.3386880856760384,-1.338688085676037 l -2.6773761713520754,1.1234790163452443e-15 l -1.338688085676038,-1.3386880856760377 l -5.617395081726222e-16,-1.3386880856760377 l 1.3386880856760377,-6.437105121316151e-16 l 1.3386880856760377,-1.338688085676038 l 1.3386880856760377,-6.437105121316151e-16 l 7.256815160906079e-16,1.3386880856760377 l 1.3386880856760386,1.338688085676037 l 1.338688085676037,-1.3386880856760386 l -7.584389421215502e-16,-2.6773761713520754 l 1.338688085676037,-1.3386880856760386 l -1.3386880856760386,-1.338688085676037 l -2.6773761713520754,7.584389421215502e-16 l -2.677376171352074,2.677376171352077 l -2.6773761713520754,1.3529358763251147e-15 l -1.501560109876006e-15,-2.6773761713520754 l 1.338688085676037,-1.3386880856760386 l -1.3386880856760384,-1.338688085676037 l -2.6773761713520754,7.584389421215502e-16 l -1.3386880856760384,-1.338688085676037 l -1.3386880856760373,1.3386880856760384 l 7.584389421215502e-16,2.6773761713520754 l 2.6773761713520767,2.6773761713520745 l 1.3529358763251147e-15,2.6773761713520754 l -2.6773761713520754,1.3529358763251147e-15 l -2.677376171352074,2.6773761713520767 l 2.6773761713520767,2.677376171352075 l 5.354752342704151,-1.5168778842431005e-15 l 2.677376171352076,2.677376171352076 l 7.584389421215502e-16,2.6773761713520754 l -2.6773761713520754,7.584389421215502e-16 l -2.677376171352076,2.677376171352076 l -2.6773761713520754,7.584389421215502e-16 l -1.3529358763251147e-15,-2.6773761713520754 l 1.338688085676037,-1.3386880856760386 l -1.3386880856760386,-1.338688085676037 l -2.6773761713520754,7.584389421215502e-16 l -1.3386880856760386,-1.338688085676037 l -1.338688085676037,1.3386880856760384 l 7.584389421215502e-16,2.6773761713520754 l 2.6773761713520767,2.677376171352074 l 1.3529358763251147e-15,2.6773761713520754 l -2.6773761713520754,1.3529358763251147e-15 l -1.3386880856760384,-1.338688085676037 l -1.3386880856760373,1.3386880856760384 l 7.584389421215502e-16,2.6773761713520754 l -1.3386880856760373,1.3386880856760384 l 1.3386880856760384,1.3386880856760373 l 2.6773761713520754,-7.584389421215502e-16 l 2.6773761713520745,-2.6773761713520767 l 2.677376171352076,-1.0556874092233326e-15 l 1.3529358763251147e-15,2.6773761713520754 l 2.6773761713520767,2.6773761713520745 l 2.677376171352075,-2.6773761713520767 l -1.5168778842431005e-15,-5.354752342704151 l 2.677376171352076,-2.677376171352076 l 2.6773761713520754,-7.584389421215502e-16 l 7.584389421215502e-16,2.6773761713520754 l 2.677376171352076,2.677376171352076 l 7.584389421215502e-16,2.6773761713520754 l -2.677376171352076,1.0556874092233326e-15 l -2.677376171352074,2.677376171352077 l 2.6773761713520767,2.6773761713520745 l 5.354752342704151,-1.5168778842431005e-15 l 2.6773761713520767,2.6773761713520745 l 2.6773761713520745,-2.6773761713520767 l -1.5168778842431005e-15,-5.354752342704151 l -5.3547523427041535,-5.354752342704149 l -2.111374818446665e-15,-5.354752342704152 l 5.354752342704151,-2.7058717526502295e-15 l 2.6773761713520767,2.677376171352073 l 2.677376171352074,-2.677376171352077 l -2.7058717526502295e-15,-5.354752342704151 l 2.6773761713520745,-2.6773761713520767 l 2.6773761713520754,-1.3529358763251147e-15 l 1.3529358763251147e-15,2.6773761713520754 l 2.6773761713520767,2.6773761713520745 l 1.3529358763251147e-15,2.6773761713520754 l -2.677376171352075,1.5015601098760057e-15 l -2.677376171352073,2.6773761713520767 l 2.6773761713520767,2.677376171352073 l 5.35475234270415,-3.0031202197520115e-15 l 2.6773761713520767,2.6773761713520745 l 1.5015601098760057e-15,2.677376171352075 l -2.6773761713520754,1.501560109876006e-15 l -2.6773761713520745,2.6773761713520767 l -2.6773761713520754,1.501560109876006e-15 l -1.6501843434268971e-15,-2.6773761713520754 l 1.3386880856760366,-1.3386880856760384 l -1.3386880856760384,-1.3386880856760368 l -2.6773761713520754,6.802973817543311e-16 l -1.3386880856760384,-1.3386880856760368 l -1.3386880856760368,1.338688085676038 l 6.802973817543311e-16,2.6773761713520754 l 2.677376171352076,2.6773761713520736 l 1.4234185495087864e-15,2.677376171352075 l -2.677376171352075,1.4234185495087864e-15 l -1.338688085676038,-1.3386880856760368 l -1.338688085676037,1.338688085676038 l 6.802973817543311e-16,2.6773761713520754 l -1.338688085676037,1.338688085676038 l 1.338688085676038,1.338688085676037 l 2.6773761713520754,-6.802973817543311e-16 l 2.677376171352074,-2.677376171352076 l 2.6773761713520754,-1.2747943159578956e-15 l 1.4234185495087864e-15,2.677376171352075 l 2.677376171352076,2.677376171352074 l 2.6773761713520745,-2.6773761713520767 l -1.3605947635086622e-15,-5.354752342704151 l 2.677376171352075,-2.677376171352076 l 2.6773761713520754,-6.802973817543311e-16 l 6.802973817543311e-16,2.6773761713520754 l 2.677376171352076,2.677376171352075 l 6.802973817543311e-16,2.6773761713520754 l -2.6773761713520754,1.2747943159578956e-15 l -1.3386880856760384,-1.3386880856760373 l -1.3386880856760375,1.338688085676038 l 8.58004475507666e-17,2.677376171352076 l -1.3386880856760375,1.338688085676038 l 1.338688085676038,1.3386880856760375 l 2.677376171352076,-8.58004475507666e-17 l 2.677376171352075,-2.677376171352076 l 2.677376171352076,-6.802973817543311e-16 l 6.802973817543311e-16,2.6773761713520754 l -1.338688085676037,1.3386880856760384 l 1.3386880856760384,1.3386880856760373 l 2.6773761713520754,-5.393320353869872e-16 l 1.338688085676038,1.3386880856760375 l 2.696660176934936e-16,1.3386880856760377 l -1.3386880856760377,3.5163702165248647e-16 l -1.3386880856760375,1.338688085676038 l -1.3386880856760377,3.5163702165248647e-16 l -4.3360802561147934e-16,-1.3386880856760377 l -1.3386880856760384,-1.338688085676037 l -1.338688085676037,1.3386880856760384 l 8.442393896723167e-16,2.6773761713520754 l -1.3386880856760375,1.338688085676038 l -1.3386880856760377,4.2211969483615837e-16 l -5.040906987951513e-16,-1.3386880856760377 l -1.338688085676038,-1.3386880856760375 l -5.040906987951513e-16,-1.3386880856760377 l 1.3386880856760377,-5.860617027541441e-16 l 1.338688085676037,-1.3386880856760384 l -1.338688085676038,-1.3386880856760375 l -2.677376171352076,2.4974245546875243e-16 l -1.338688085676038,-1.3386880856760375 l -1.3386880856760375,1.338688085676038 l 2.4974245546875243e-16,2.677376171352076 l 2.677376171352076,2.677376171352075 l 8.442393896723168e-16,2.677376171352076 l -2.6773761713520754,8.442393896723167e-16 l -1.3386880856760384,-1.338688085676037 l -1.338688085676037,1.3386880856760384 l 7.032740433049729e-16,2.6773761713520754 l -1.3386880856760375,1.338688085676038 l -1.3386880856760377,3.5163702165248647e-16 l -4.3360802561147934e-16,-1.3386880856760377 l -1.338688085676038,-1.3386880856760375 l -4.3360802561147934e-16,-1.3386880856760377 l 1.3386880856760377,-5.155790295704722e-16 l 1.3386880856760368,-1.3386880856760384 l -1.3386880856760384,-1.338688085676037 l -2.6773761713520754,1.0081813975903026e-15 l -1.338688085676038,-1.3386880856760375 l -5.040906987951513e-16,-1.3386880856760377 l 1.3386880856760377,-5.860617027541441e-16 l 1.3386880856760375,-1.338688085676038 l 1.3386880856760377,-5.860617027541441e-16 l 6.680327067131369e-16,1.3386880856760377 l 1.3386880856760384,1.3386880856760366 l 1.3386880856760366,-1.3386880856760384 l -9.22380950039536e-16,-2.6773761713520754 l 1.3386880856760366,-1.3386880856760384 l -1.338688085676038,-1.3386880856760366 l -2.6773761713520754,9.22380950039536e-16 l -2.677376171352073,2.677376171352076 l -2.677376171352075,1.6655021177939917e-15 l -1.6655021177939917e-15,-2.677376171352075 l 1.3386880856760366,-1.338688085676038 l -1.338688085676038,-1.3386880856760368 l -2.6773761713520754,9.22380950039536e-16 l -1.338688085676038,-1.3386880856760368 l -1.3386880856760368,1.338688085676038 l 9.22380950039536e-16,2.6773761713520754 l 2.677376171352076,2.6773761713520736 l 1.5168778842431005e-15,2.6773761713520754 l -2.677376171352075,1.6655021177939917e-15 l -2.6773761713520736,2.677376171352076 l 2.6773761713520767,2.677376171352074 l 5.354752342704151,-1.844761900079072e-15 l 2.677376171352076,2.677376171352075 l 9.22380950039536e-16,2.6773761713520754 l -2.6773761713520754,9.22380950039536e-16 l -2.677376171352075,2.677376171352076 l -2.6773761713520754,9.22380950039536e-16 l -1.5168778842431005e-15,-2.6773761713520754 l 1.338688085676037,-1.3386880856760384 l -1.338688085676038,-1.3386880856760375 l -2.677376171352076,3.2788401583597166e-16 l -1.338688085676038,-1.3386880856760375 l -1.3386880856760375,1.338688085676038 l 3.2788401583597166e-16,2.677376171352076 l 2.677376171352076,2.677376171352075 l 9.223809500395362e-16,2.677376171352076 l -2.6773761713520754,9.22380950039536e-16 l -1.3386880856760384,-1.338688085676037 l -1.338688085676037,1.3386880856760384 l 7.814156036721923e-16,2.6773761713520754 l -1.3386880856760375,1.338688085676038 l -1.3386880856760377,3.9070780183609614e-16 l -4.726788057950889e-16,-1.3386880856760377 l -1.338688085676038,-1.3386880856760375 l -4.726788057950889e-16,-1.3386880856760377 l 1.3386880856760377,-5.546498097540818e-16 l 1.3386880856760368,-1.3386880856760384 l -1.3386880856760384,-1.338688085676037 l -2.6773761713520754,1.0863229579575217e-15 l -1.338688085676038,-1.3386880856760375 l -5.431614789787609e-16,-1.3386880856760377 l 1.3386880856760377,-6.251324829377538e-16 l 1.3386880856760375,-1.338688085676038 l 1.3386880856760377,-6.251324829377538e-16 l 7.071034868967465e-16,1.3386880856760377 l 1.3386880856760384,1.338688085676037 l 1.3386880856760375,-1.338688085676038 l -4.918260237539574e-16,-2.677376171352076 l 1.3386880856760375,-1.338688085676038 l -1.338688085676038,-1.3386880856760375 l -2.677376171352076,4.918260237539574e-16 l -2.677376171352075,2.677376171352076 l -2.677376171352076,1.0863229579575219e-15 l -1.0863229579575217e-15,-2.6773761713520754 l 1.3386880856760368,-1.3386880856760384 l -1.3386880856760384,-1.338688085676037 l -2.6773761713520754,9.453576115901778e-16 l -1.338688085676038,-1.3386880856760375 l -4.726788057950889e-16,-1.3386880856760377 l 1.3386880856760377,-5.546498097540818e-16 l 1.3386880856760375,-1.338688085676038 l 1.3386880856760377,-5.546498097540818e-16 l 6.366208137130747e-16,1.3386880856760377 l 1.3386880856760384,1.3386880856760366 l 1.3386880856760368,-1.3386880856760384 l -1.2502649658755076e-15,-2.6773761713520754 l 1.3386880856760375,-1.338688085676038 l 1.3386880856760377,-6.251324829377538e-16 l 7.071034868967465e-16,1.3386880856760377 l 1.338688085676038,1.3386880856760375 l 7.071034868967465e-16,1.3386880856760377 l -1.3386880856760377,7.890744908557395e-16 "/></g><defs></defs><g stroke-linejoin="miter" stroke-opacity="1.0" fill-opacity="0.0" stroke="rgb(0,0,0)" stroke-width="1.0389985910910358" fill="rgb(0,0,0)" stroke-linecap="butt" stroke-miterlimit="10.0"><path d="M 115.66265060240967,105.75635876840698 l 21.419009370816607,21.4190093708166 l 21.419009370816603,-21.419009370816607 v -42.838018741633206 l 21.419009370816607,-21.419009370816603 h 21.419009370816603 l 1.3115360633438859e-15,21.419009370816603 l 21.419009370816603,21.419009370816607 l 1.3115360633438859e-15,21.419009370816603 l -21.419009370816603,2.6230721266877717e-15 "/></g><defs></defs><g stroke-linejoin="miter" stroke-opacity="1.0" fill-opacity="0.0" stroke="rgb(0,0,0)" stroke-width="1.0389985910910358" fill="rgb(0,0,0)" stroke-linecap="butt" stroke-miterlimit="10.0"><path d="M 107.09504685408302,62.91834002677378 l 2.164295968887719e-15,35.34563549906122 "/></g><defs></defs><g stroke-linejoin="miter" stroke-opacity="1.0" fill-opacity="1.0" stroke="rgb(0,0,0)" stroke-width="0.0" fill="rgb(0,0,0)" stroke-linecap="butt" stroke-miterlimit="10.0"></g><defs></defs><g stroke-linejoin="miter" stroke-opacity="1.0" fill-opacity="1.0" stroke="rgb(0,0,0)" stroke-width="0.0" fill="rgb(0,0,0)" stroke-linecap="butt" stroke-miterlimit="10.0"></g><defs></defs><g stroke-linejoin="miter" stroke-opacity="1.0" fill-opacity="1.0" stroke="rgb(0,0,0)" stroke-width="0.0" fill="rgb(0,0,0)" stroke-linecap="butt" stroke-miterlimit="10.0"><path d="M 106.57554755853751,107.35521319788155 l 3.348418137957313,-10.305371378770237 l -3.3484181379573132,1.7603675915081762 Z"/></g><defs></defs><g stroke-linejoin="miter" stroke-opacity="1.0" fill-opacity="1.0" stroke="rgb(0,0,0)" stroke-width="0.0" fill="rgb(0,0,0)" stroke-linecap="butt" stroke-miterlimit="10.0"><path d="M 106.57554755853751,98.81020941061949 l -3.3447178929358247e-17,-0.5462338847845024 l 1.0389985910910358,-6.362031494491233e-17 Z"/></g><defs></defs><g stroke-linejoin="miter" stroke-opacity="1.0" fill-opacity="0.0" stroke="rgb(0,0,0)" stroke-width="1.0389985910910358" fill="rgb(0,0,0)" stroke-linecap="butt" stroke-miterlimit="10.0"><path d="M 64.25702811244982,62.91834002677378 h 35.34563549906122 "/></g><defs></defs><g stroke-linejoin="miter" stroke-opacity="1.0" fill-opacity="1.0" stroke="rgb(0,0,0)" stroke-width="0.0" fill="rgb(0,0,0)" stroke-linecap="butt" stroke-miterlimit="10.0"></g><defs></defs><g stroke-linejoin="miter" stroke-opacity="1.0" fill-opacity="1.0" stroke="rgb(0,0,0)" stroke-width="0.0" fill="rgb(0,0,0)" stroke-linecap="butt" stroke-miterlimit="10.0"></g><defs></defs><g stroke-linejoin="miter" stroke-opacity="1.0" fill-opacity="1.0" stroke="rgb(0,0,0)" stroke-width="0.0" fill="rgb(0,0,0)" stroke-linecap="butt" stroke-miterlimit="10.0"><path d="M 108.6939012835576,63.43783932231929 l -10.305371378770237,-3.3484181379573132 l 1.760367591508176,3.3484181379573132 Z"/></g><defs></defs><g stroke-linejoin="miter" stroke-opacity="1.0" fill-opacity="1.0" stroke="rgb(0,0,0)" stroke-width="0.0" fill="rgb(0,0,0)" stroke-linecap="butt" stroke-miterlimit="10.0"><path d="M 100.14889749629553,63.43783932231929 h -0.5462338847845024 v -1.0389985910910358 Z"/></g><defs></defs><g stroke-linejoin="miter" stroke-opacity="1.0" fill-opacity="0.0" stroke="rgb(0,0,0)" stroke-width="1.0389985910910358" fill="rgb(0,0,0)" stroke-linecap="butt" stroke-miterlimit="10.0"><path d="M 64.25702811244982,62.91834002677378 l -37.540103743562106,37.54010374356211 "/></g><defs></defs><g stroke-linejoin="miter" stroke-opacity="1.0" fill-opacity="1.0" stroke="rgb(0,0,0)" stroke-width="0.0" fill="rgb(0,0,0)" stroke-linecap="butt" stroke-miterlimit="10.0"></g><defs></defs><g stroke-linejoin="miter" stroke-opacity="1.0" fill-opacity="1.0" stroke="rgb(0,0,0)" stroke-width="0.0" fill="rgb(0,0,0)" stroke-linecap="butt" stroke-miterlimit="10.0"></g><defs></defs><g stroke-linejoin="miter" stroke-opacity="1.0" fill-opacity="1.0" stroke="rgb(0,0,0)" stroke-width="0.0" fill="rgb(0,0,0)" stroke-linecap="butt" stroke-miterlimit="10.0"><path d="M 19.921107086903113,106.51957810291674 l 9.654687156171844,-4.919308812976548 l -3.6124570329341106,-1.1229213102611868 Z"/></g><defs></defs><g stroke-linejoin="miter" stroke-opacity="1.0" fill-opacity="1.0" stroke="rgb(0,0,0)" stroke-width="0.0" fill="rgb(0,0,0)" stroke-linecap="butt" stroke-miterlimit="10.0"><path d="M 25.963337210140846,100.47734797967901 l 0.38624568404499293,-0.386245684044993 l 0.7346829494037402,0.7346829494037401 Z"/></g></svg>