<?xml version="1.0" encoding="UTF-8"?>
<!DOCTYPE svg PUBLIC "-//W3C//DTD SVG 1.1//EN"
    "http://www.w3.org/Graphics/SVG/1.1/DTD/svg11.dtd"><svg xmlns="http://www.w3.org/2000/svg" height="265.7342657342658" stroke-opacity="1" viewBox="0 0 400 266" font-size="1" width="400.0" xmlns:xlink="http://www.w3.org/1999/xlink" stroke="rgb(0,0,0)" version="1.1"><g><defs></defs><g stroke-linejoin="miter" stroke-opacity="1.0" fill-opacity="0.0" stroke="rgb(0,0,0)" stroke-width="1.3041086230446073" fill="rgb(0,0,0)" stroke-linecap="butt" stroke-miterlimit="10.0"><path d="M 235.6007628734902,209.1544818817547 l -3.52899880681868e-16,-6.357279084551808 l 6.357279084551808,-3.52899880681868e-16 l 6.35727908455181,1.058699642045604e-15 l 7.05799761363736e-16,6.357279084551811 l 6.357279084551808,-3.52899880681868e-16 l -1.058699642045604e-15,6.35727908455181 l 7.05799761363736e-16,6.357279084551811 l -6.357279084551809,2.470299164773076e-15 l 6.35727908455181,1.058699642045604e-15 l 7.05799761363736e-16,6.357279084551811 l 1.411599522727472e-15,6.35727908455181 l -6.35727908455181,1.411599522727472e-15 l 7.05799761363736e-16,6.357279084551811 l -6.35727908455181,1.411599522727472e-15 l -6.35727908455181,1.411599522727472e-15 l -3.176098926136812e-15,-6.35727908455181 l 6.3572790845518075,-1.058699642045604e-15 l 1.058699642045604e-15,6.3572790845518075 l 1.76449940340934e-15,6.357279084551808 l -6.35727908455181,1.411599522727472e-15 l 1.058699642045604e-15,6.3572790845518075 l -6.357279084551808,1.76449940340934e-15 l -6.35727908455181,1.411599522727472e-15 l -3.176098926136812e-15,-6.35727908455181 l 1.76449940340934e-15,6.357279084551808 l -6.35727908455181,1.411599522727472e-15 l -6.35727908455181,1.76449940340934e-15 l -1.76449940340934e-15,-6.35727908455181 l -6.35727908455181,1.411599522727472e-15 l -1.76449940340934e-15,-6.35727908455181 l -1.76449940340934e-15,-6.35727908455181 l 6.35727908455181,-3.176098926136812e-15 l 6.3572790845518075,-1.058699642045604e-15 l 1.058699642045604e-15,6.3572790845518075 l 3.52899880681868e-16,6.357279084551811 l -6.35727908455181,1.411599522727472e-15 l 1.058699642045604e-15,6.3572790845518075 l -6.357279084551811,3.52899880681868e-16 l -6.35727908455181,1.411599522727472e-15 l -3.176098926136812e-15,-6.35727908455181 l 3.52899880681868e-16,6.357279084551811 l -6.35727908455181,1.411599522727472e-15 l -6.35727908455181,1.76449940340934e-15 l -1.76449940340934e-15,-6.35727908455181 l -6.35727908455181,1.411599522727472e-15 l -1.76449940340934e-15,-6.35727908455181 l -1.76449940340934e-15,-6.35727908455181 l 6.35727908455181,-3.176098926136812e-15 l 1.058699642045604e-15,6.3572790845518075 l -6.3572790845518075,1.058699642045604e-15 l -6.35727908455181,1.411599522727472e-15 l -1.76449940340934e-15,-6.35727908455181 l -6.3572790845518075,1.058699642045604e-15 l -1.411599522727472e-15,-6.35727908455181 l -1.76449940340934e-15,-6.35727908455181 l 6.35727908455181,-3.176098926136812e-15 l -6.35727908455181,1.411599522727472e-15 l -1.76449940340934e-15,-6.35727908455181 l -1.76449940340934e-15,-6.35727908455181 l 6.35727908455181,-1.76449940340934e-15 l -1.76449940340934e-15,-6.35727908455181 l 6.35727908455181,-1.76449940340934e-15 l 6.35727908455181,-1.76449940340934e-15 l 3.176098926136812e-15,6.35727908455181 l 6.357279084551808,-1.76449940340934e-15 l 1.76449940340934e-15,6.357279084551808 l 3.52899880681868e-16,6.35727908455181 l -6.35727908455181,1.76449940340934e-15 l 1.76449940340934e-15,6.357279084551808 l -6.35727908455181,3.52899880681868e-16 l -6.35727908455181,1.76449940340934e-15 l -3.176098926136812e-15,-6.35727908455181 l 3.52899880681868e-16,6.35727908455181 l -6.35727908455181,1.76449940340934e-15 l -6.357279084551808,2.470299164773076e-15 l -2.470299164773076e-15,-6.357279084551808 l -6.35727908455181,1.76449940340934e-15 l -1.76449940340934e-15,-6.35727908455181 l -2.470299164773076e-15,-6.357279084551808 l 6.35727908455181,-4.234798568182416e-15 l 1.411599522727472e-15,6.357279084551809 l -6.357279084551809,1.411599522727472e-15 l -6.357279084551808,1.76449940340934e-15 l -2.470299164773076e-15,-6.357279084551808 l -6.357279084551809,1.411599522727472e-15 l -1.76449940340934e-15,-6.357279084551808 l -2.470299164773076e-15,-6.357279084551808 l 6.35727908455181,-4.234798568182416e-15 l -6.357279084551808,1.76449940340934e-15 l -2.470299164773076e-15,-6.357279084551808 l -3.176098926136812e-15,-6.35727908455181 l 6.35727908455181,-3.176098926136812e-15 l -2.470299164773076e-15,-6.357279084551808 l 6.35727908455181,-3.176098926136812e-15 l 6.35727908455181,-3.176098926136812e-15 l 4.234798568182416e-15,6.35727908455181 l 1.411599522727472e-15,6.357279084551809 l -6.357279084551809,1.411599522727472e-15 l -6.35727908455181,3.52899880681868e-16 l -1.76449940340934e-15,-6.35727908455181 l -6.357279084551809,1.411599522727472e-15 l -3.52899880681868e-16,-6.35727908455181 l -1.76449940340934e-15,-6.35727908455181 l 6.35727908455181,-4.234798568182416e-15 l -6.35727908455181,3.52899880681868e-16 l -1.76449940340934e-15,-6.35727908455181 l -3.176098926136812e-15,-6.35727908455181 l 6.35727908455181,-3.176098926136812e-15 l -1.76449940340934e-15,-6.35727908455181 l 6.35727908455181,-3.176098926136812e-15 l 6.35727908455181,-3.176098926136812e-15 l 4.234798568182416e-15,6.35727908455181 l -6.357279084551809,1.411599522727472e-15 l -1.411599522727472e-15,-6.357279084551809 l -2.470299164773076e-15,-6.357279084551808 l 6.35727908455181,-3.176098926136812e-15 l -1.411599522727472e-15,-6.357279084551809 l 6.357279084551808,-2.470299164773076e-15 l 6.35727908455181,-3.176098926136812e-15 l 4.234798568182416e-15,6.35727908455181 l -2.470299164773076e-15,-6.357279084551808 l 6.35727908455181,-3.176098926136812e-15 l 6.35727908455181,-3.176098926136812e-15 l 3.176098926136812e-15,6.35727908455181 l 6.35727908455181,-3.176098926136812e-15 l 3.176098926136812e-15,6.35727908455181 l 3.176098926136812e-15,6.35727908455181 l -6.35727908455181,4.234798568182416e-15 l 6.357279084551808,-3.52899880681868e-16 l 3.52899880681868e-16,6.357279084551808 v 6.357279084551811 l -6.357279084551811,1.411599522727472e-15 l 3.52899880681868e-16,6.357279084551808 h -6.357279084551811 l -6.357279084551811,1.411599522727472e-15 l -2.470299164773076e-15,-6.357279084551809 v 6.357279084551811 l -6.357279084551811,1.411599522727472e-15 l -6.357279084551811,2.117399284091208e-15 l -2.117399284091208e-15,-6.357279084551811 l -6.357279084551811,1.411599522727472e-15 l -2.117399284091208e-15,-6.357279084551811 l -2.117399284091208e-15,-6.357279084551811 l 6.35727908455181,-3.881898687500548e-15 l 1.76449940340934e-15,6.357279084551808 l -6.357279084551808,1.76449940340934e-15 l -6.357279084551808,2.117399284091208e-15 l -2.117399284091208e-15,-6.357279084551811 l -6.357279084551808,1.76449940340934e-15 l -2.117399284091208e-15,-6.357279084551808 l -2.117399284091208e-15,-6.357279084551811 l 6.35727908455181,-3.881898687500548e-15 l -6.357279084551808,2.117399284091208e-15 l -2.117399284091208e-15,-6.357279084551811 l -2.470299164773076e-15,-6.35727908455181 l 6.35727908455181,-2.470299164773076e-15 l -2.117399284091208e-15,-6.357279084551811 l 6.35727908455181,-2.470299164773076e-15 l 6.35727908455181,-2.470299164773076e-15 l 3.881898687500548e-15,6.35727908455181 l 1.76449940340934e-15,6.357279084551808 l -6.357279084551808,1.76449940340934e-15 l -6.357279084551811,1.058699642045604e-15 l -2.117399284091208e-15,-6.357279084551811 l -6.357279084551808,1.76449940340934e-15 l -1.058699642045604e-15,-6.357279084551811 l -2.117399284091208e-15,-6.357279084551811 l 6.35727908455181,-3.881898687500548e-15 l -6.357279084551811,1.058699642045604e-15 l -2.117399284091208e-15,-6.357279084551811 l -2.470299164773076e-15,-6.35727908455181 l 6.35727908455181,-2.470299164773076e-15 l -2.117399284091208e-15,-6.357279084551811 l 6.35727908455181,-2.470299164773076e-15 l 6.35727908455181,-2.470299164773076e-15 l 3.881898687500548e-15,6.35727908455181 l -6.357279084551808,1.76449940340934e-15 l -1.76449940340934e-15,-6.357279084551808 l -2.117399284091208e-15,-6.357279084551811 l 6.35727908455181,-2.470299164773076e-15 l -1.76449940340934e-15,-6.357279084551808 l 6.357279084551811,-2.117399284091208e-15 l 6.35727908455181,-2.470299164773076e-15 l 3.881898687500548e-15,6.35727908455181 l -2.117399284091208e-15,-6.357279084551811 l 6.35727908455181,-2.470299164773076e-15 l 6.35727908455181,-3.881898687500548e-15 l 3.881898687500548e-15,6.35727908455181 l 6.35727908455181,-2.470299164773076e-15 l 2.470299164773076e-15,6.35727908455181 l 3.881898687500548e-15,6.35727908455181 l -6.35727908455181,3.881898687500548e-15 l 2.117399284091208e-15,6.357279084551808 l -6.357279084551808,2.117399284091208e-15 l -6.357279084551811,7.05799761363736e-16 l -2.470299164773076e-15,-6.35727908455181 l -6.357279084551808,2.117399284091208e-15 l -7.05799761363736e-16,-6.357279084551811 l -2.470299164773076e-15,-6.35727908455181 l 6.35727908455181,-3.881898687500548e-15 l -6.357279084551811,7.05799761363736e-16 l -2.470299164773076e-15,-6.35727908455181 l -2.823199045454944e-15,-6.357279084551808 l 6.357279084551808,-2.823199045454944e-15 l -2.470299164773076e-15,-6.35727908455181 l 6.35727908455181,-3.881898687500548e-15 l 6.357279084551808,-2.823199045454944e-15 l 4.940598329546152e-15,6.357279084551811 l -6.35727908455181,1.76449940340934e-15 l -1.76449940340934e-15,-6.35727908455181 l -2.470299164773076e-15,-6.357279084551808 l 6.357279084551808,-2.823199045454944e-15 l -1.76449940340934e-15,-6.35727908455181 l 6.357279084551808,-2.470299164773076e-15 l 6.357279084551808,-2.823199045454944e-15 l 4.940598329546152e-15,6.357279084551811 l -2.470299164773076e-15,-6.357279084551808 l 6.357279084551808,-2.823199045454944e-15 l 6.35727908455181,-3.881898687500548e-15 l 3.881898687500548e-15,6.35727908455181 l 6.357279084551808,-2.823199045454944e-15 l 3.881898687500548e-15,6.35727908455181 l 3.881898687500548e-15,6.35727908455181 l -6.357279084551811,4.940598329546152e-15 l -6.35727908455181,1.76449940340934e-15 l -1.76449940340934e-15,-6.35727908455181 l -7.05799761363736e-16,-6.357279084551811 l 6.35727908455181,-3.881898687500548e-15 l -1.76449940340934e-15,-6.35727908455181 l 6.357279084551811,-7.05799761363736e-16 l 6.35727908455181,-3.881898687500548e-15 l 4.940598329546152e-15,6.357279084551811 l -7.05799761363736e-16,-6.357279084551811 l 6.35727908455181,-3.881898687500548e-15 l 6.35727908455181,-3.881898687500548e-15 l 3.881898687500548e-15,6.35727908455181 l 6.35727908455181,-3.881898687500548e-15 l 3.881898687500548e-15,6.35727908455181 l 3.881898687500548e-15,6.35727908455181 l -6.357279084551811,4.940598329546152e-15 l -1.76449940340934e-15,-6.35727908455181 l 6.35727908455181,-1.76449940340934e-15 l 6.357279084551808,-2.823199045454944e-15 l 3.881898687500548e-15,6.35727908455181 l 6.35727908455181,-1.76449940340934e-15 l 2.823199045454944e-15,6.357279084551808 l 3.881898687500548e-15,6.35727908455181 l -6.357279084551811,4.940598329546152e-15 l 6.357279084551808,-2.823199045454944e-15 l 3.881898687500548e-15,6.35727908455181 l 3.881898687500548e-15,6.35727908455181 l -6.35727908455181,3.881898687500548e-15 l 3.881898687500548e-15,6.35727908455181 l -6.35727908455181,3.881898687500548e-15 l -6.35727908455181,3.881898687500548e-15 l -4.940598329546152e-15,-6.357279084551811 l 6.3572790845518075,-1.058699642045604e-15 l 1.058699642045604e-15,6.3572790845518075 l -7.05799761363736e-16,6.357279084551809 l -6.35727908455181,1.411599522727472e-15 l 1.058699642045604e-15,6.3572790845518075 l -6.357279084551809,-7.05799761363736e-16 l -6.35727908455181,1.411599522727472e-15 l -2.823199045454944e-15,-6.357279084551808 l -7.05799761363736e-16,6.357279084551809 l -6.35727908455181,1.411599522727472e-15 l -6.35727908455181,1.76449940340934e-15 l -1.76449940340934e-15,-6.35727908455181 l -6.35727908455181,1.411599522727472e-15 l -1.76449940340934e-15,-6.35727908455181 l -1.76449940340934e-15,-6.35727908455181 l 6.357279084551809,-3.52899880681868e-15 l 1.411599522727472e-15,6.3572790845518075 l -6.3572790845518075,1.411599522727472e-15 l -6.3572790845518075,2.117399284091208e-15 l -1.76449940340934e-15,-6.35727908455181 l -6.3572790845518075,1.411599522727472e-15 l -2.117399284091208e-15,-6.3572790845518075 l -1.76449940340934e-15,-6.35727908455181 l 6.357279084551809,-3.52899880681868e-15 l -6.3572790845518075,2.117399284091208e-15 l -1.76449940340934e-15,-6.35727908455181 l -2.470299164773076e-15,-6.357279084551809 l 6.357279084551809,-2.470299164773076e-15 l -1.76449940340934e-15,-6.35727908455181 l 6.357279084551809,-2.470299164773076e-15 l 6.357279084551809,-2.470299164773076e-15 l 3.52899880681868e-15,6.357279084551809 l 1.411599522727472e-15,6.3572790845518075 l -6.3572790845518075,1.411599522727472e-15 l -6.357279084551811,7.05799761363736e-16 l -1.76449940340934e-15,-6.35727908455181 l -6.3572790845518075,1.411599522727472e-15 l -7.05799761363736e-16,-6.357279084551811 l -1.76449940340934e-15,-6.35727908455181 l 6.357279084551809,-3.52899880681868e-15 l -6.357279084551811,7.05799761363736e-16 l -1.76449940340934e-15,-6.35727908455181 l -2.470299164773076e-15,-6.357279084551809 l 6.357279084551809,-2.470299164773076e-15 l -1.76449940340934e-15,-6.35727908455181 l 6.357279084551809,-2.470299164773076e-15 l 6.357279084551809,-2.470299164773076e-15 l 3.52899880681868e-15,6.357279084551809 l -6.3572790845518075,1.411599522727472e-15 l -1.411599522727472e-15,-6.3572790845518075 l -1.76449940340934e-15,-6.35727908455181 l 6.357279084551809,-2.470299164773076e-15 l -1.411599522727472e-15,-6.3572790845518075 l 6.35727908455181,-1.76449940340934e-15 l 6.357279084551809,-2.470299164773076e-15 l 3.52899880681868e-15,6.357279084551809 l -1.76449940340934e-15,-6.35727908455181 l 6.357279084551809,-2.470299164773076e-15 l 6.357279084551809,-2.470299164773076e-15 l 2.470299164773076e-15,6.357279084551809 l 6.357279084551809,-2.470299164773076e-15 l 2.470299164773076e-15,6.357279084551809 l 2.470299164773076e-15,6.357279084551809 l -6.357279084551809,3.52899880681868e-15 l 2.117399284091208e-15,6.3572790845518075 l -6.3572790845518075,2.117399284091208e-15 l -6.35727908455181,1.058699642045604e-15 l -2.470299164773076e-15,-6.357279084551809 l -6.3572790845518075,2.117399284091208e-15 l -1.058699642045604e-15,-6.35727908455181 l -2.470299164773076e-15,-6.357279084551809 l 6.357279084551809,-3.52899880681868e-15 l -6.35727908455181,1.058699642045604e-15 l -2.470299164773076e-15,-6.357279084551809 l -2.823199045454944e-15,-6.3572790845518075 l 6.3572790845518075,-2.823199045454944e-15 l -2.470299164773076e-15,-6.357279084551809 l 6.357279084551809,-2.470299164773076e-15 l 6.3572790845518075,-2.823199045454944e-15 l 4.5876984488642835e-15,6.357279084551809 l -6.357279084551808,2.117399284091208e-15 l -2.117399284091208e-15,-6.357279084551808 l -2.117399284091208e-15,-6.3572790845518075 l 6.3572790845518075,-2.823199045454944e-15 l -2.117399284091208e-15,-6.357279084551808 l 6.3572790845518075,-2.117399284091208e-15 l 6.3572790845518075,-2.823199045454944e-15 l 4.5876984488642835e-15,6.357279084551809 l -2.117399284091208e-15,-6.3572790845518075 l 6.3572790845518075,-2.823199045454944e-15 l 6.357279084551809,-3.52899880681868e-15 l 3.52899880681868e-15,6.357279084551809 l 6.3572790845518075,-2.823199045454944e-15 l 3.52899880681868e-15,6.357279084551809 l 3.52899880681868e-15,6.357279084551809 l -6.357279084551809,4.5876984488642835e-15 l -6.357279084551808,2.117399284091208e-15 l -2.117399284091208e-15,-6.357279084551808 l -1.058699642045604e-15,-6.35727908455181 l 6.357279084551809,-2.470299164773076e-15 l -2.117399284091208e-15,-6.357279084551808 l 6.35727908455181,-1.058699642045604e-15 l 6.357279084551809,-2.470299164773076e-15 l 4.5876984488642835e-15,6.357279084551809 l -1.058699642045604e-15,-6.35727908455181 l 6.357279084551809,-2.470299164773076e-15 l 6.357279084551809,-3.52899880681868e-15 l 3.52899880681868e-15,6.357279084551809 l 6.357279084551809,-2.470299164773076e-15 l 3.52899880681868e-15,6.357279084551809 l 3.52899880681868e-15,6.357279084551809 l -6.357279084551809,4.5876984488642835e-15 l -2.117399284091208e-15,-6.357279084551808 l 6.357279084551808,-2.117399284091208e-15 l 6.3572790845518075,-2.823199045454944e-15 l 3.52899880681868e-15,6.357279084551809 l 6.357279084551808,-2.117399284091208e-15 l 2.823199045454944e-15,6.3572790845518075 l 3.52899880681868e-15,6.357279084551809 l -6.357279084551809,4.5876984488642835e-15 l 6.3572790845518075,-2.823199045454944e-15 l 3.52899880681868e-15,6.357279084551809 l 3.52899880681868e-15,6.357279084551809 l -6.357279084551809,3.52899880681868e-15 l 3.52899880681868e-15,6.357279084551809 l -6.357279084551809,3.52899880681868e-15 l -6.357279084551809,3.52899880681868e-15 l -4.5876984488642835e-15,-6.357279084551809 l 1.058699642045604e-15,6.3572790845518075 l -6.3572790845518075,1.058699642045604e-15 l -6.35727908455181,3.52899880681868e-16 l -2.117399284091208e-15,-6.357279084551811 l -6.3572790845518075,1.058699642045604e-15 l -3.52899880681868e-16,-6.35727908455181 l -2.117399284091208e-15,-6.357279084551811 l 6.357279084551808,-2.823199045454944e-15 l -6.35727908455181,3.52899880681868e-16 l -2.117399284091208e-15,-6.357279084551811 l -2.470299164773076e-15,-6.35727908455181 l 6.35727908455181,-2.470299164773076e-15 l -2.117399284091208e-15,-6.357279084551811 l 6.35727908455181,-2.470299164773076e-15 l 6.35727908455181,-2.470299164773076e-15 l 4.234798568182416e-15,6.35727908455181 l -6.3572790845518075,2.117399284091208e-15 l -2.117399284091208e-15,-6.3572790845518075 l -2.470299164773076e-15,-6.357279084551808 l 6.35727908455181,-2.470299164773076e-15 l -2.117399284091208e-15,-6.3572790845518075 l 6.357279084551808,-2.470299164773076e-15 l 6.35727908455181,-2.470299164773076e-15 l 4.234798568182416e-15,6.35727908455181 l -2.470299164773076e-15,-6.357279084551808 l 6.35727908455181,-2.470299164773076e-15 l 6.35727908455181,-3.176098926136812e-15 l 3.176098926136812e-15,6.35727908455181 l 6.35727908455181,-2.470299164773076e-15 l 3.176098926136812e-15,6.35727908455181 l 3.176098926136812e-15,6.35727908455181 l -6.35727908455181,4.234798568182416e-15 l -6.3572790845518075,2.117399284091208e-15 l -2.117399284091208e-15,-6.3572790845518075 l -1.411599522727472e-15,-6.357279084551811 l 6.35727908455181,-2.470299164773076e-15 l -2.117399284091208e-15,-6.3572790845518075 l 6.357279084551811,-1.411599522727472e-15 l 6.35727908455181,-2.470299164773076e-15 l 4.234798568182416e-15,6.35727908455181 l -1.411599522727472e-15,-6.357279084551811 l 6.35727908455181,-2.470299164773076e-15 l 6.35727908455181,-3.176098926136812e-15 l 3.176098926136812e-15,6.35727908455181 l 6.35727908455181,-2.470299164773076e-15 l 3.176098926136812e-15,6.35727908455181 l 3.176098926136812e-15,6.35727908455181 l -6.35727908455181,4.234798568182416e-15 l -2.117399284091208e-15,-6.3572790845518075 l 6.3572790845518075,-2.117399284091208e-15 l 6.35727908455181,-2.470299164773076e-15 l 3.176098926136812e-15,6.35727908455181 l 6.3572790845518075,-2.117399284091208e-15 l 2.470299164773076e-15,6.35727908455181 l 3.176098926136812e-15,6.35727908455181 l -6.35727908455181,4.234798568182416e-15 l 6.35727908455181,-2.470299164773076e-15 l 3.176098926136812e-15,6.35727908455181 l 4.234798568182416e-15,6.35727908455181 l -6.35727908455181,4.234798568182416e-15 l 3.176098926136812e-15,6.35727908455181 l -6.35727908455181,3.176098926136812e-15 l -6.35727908455181,4.234798568182416e-15 l -4.234798568182416e-15,-6.35727908455181 l -6.357279084551808,2.470299164773076e-15 l -2.470299164773076e-15,-6.357279084551808 l -1.411599522727472e-15,-6.35727908455181 l 6.35727908455181,-3.176098926136812e-15 l -2.470299164773076e-15,-6.357279084551808 l 6.35727908455181,-1.411599522727472e-15 l 6.35727908455181,-3.176098926136812e-15 l 4.234798568182416e-15,6.35727908455181 l -1.411599522727472e-15,-6.35727908455181 l 6.35727908455181,-3.176098926136812e-15 l 6.357279084551808,-3.176098926136812e-15 l 3.176098926136812e-15,6.357279084551808 l 6.35727908455181,-3.176098926136812e-15 l 4.234798568182416e-15,6.35727908455181 l 3.176098926136812e-15,6.357279084551808 l -6.35727908455181,5.29349821022802e-15 l -2.470299164773076e-15,-6.357279084551809 l 6.357279084551809,-2.470299164773076e-15 l 6.3572790845518075,-2.823199045454944e-15 l 3.176098926136812e-15,6.357279084551808 l 6.357279084551809,-2.470299164773076e-15 l 2.823199045454944e-15,6.3572790845518075 l 3.176098926136812e-15,6.357279084551808 l -6.35727908455181,5.29349821022802e-15 l 6.3572790845518075,-2.823199045454944e-15 l 3.176098926136812e-15,6.357279084551808 l 4.234798568182416e-15,6.35727908455181 l -6.35727908455181,4.234798568182416e-15 l 3.176098926136812e-15,6.357279084551808 l -6.35727908455181,4.234798568182416e-15 l -6.35727908455181,4.234798568182416e-15 l -5.29349821022802e-15,-6.35727908455181 l -2.470299164773076e-15,-6.357279084551809 l 6.357279084551809,-2.470299164773076e-15 l 6.35727908455181,-1.411599522727472e-15 l 4.234798568182416e-15,6.35727908455181 l 6.357279084551809,-2.470299164773076e-15 l 1.411599522727472e-15,6.35727908455181 l 4.234798568182416e-15,6.35727908455181 l -6.35727908455181,5.29349821022802e-15 l 6.35727908455181,-1.411599522727472e-15 l 4.234798568182416e-15,6.35727908455181 l 4.234798568182416e-15,6.35727908455181 l -6.35727908455181,4.234798568182416e-15 l 4.234798568182416e-15,6.35727908455181 l -6.35727908455181,4.234798568182416e-15 l -6.35727908455181,4.234798568182416e-15 l -5.29349821022802e-15,-6.35727908455181 l 6.357279084551809,-2.470299164773076e-15 l 2.470299164773076e-15,6.357279084551809 l 3.176098926136812e-15,6.357279084551808 l -6.35727908455181,4.234798568182416e-15 l 2.470299164773076e-15,6.357279084551809 l -6.357279084551808,3.176098926136812e-15 l -6.35727908455181,4.234798568182416e-15 l -5.29349821022802e-15,-6.35727908455181 l 3.176098926136812e-15,6.357279084551808 l -6.35727908455181,4.234798568182416e-15 l -6.35727908455181,4.234798568182416e-15 l -4.234798568182416e-15,-6.35727908455181 l -6.35727908455181,4.234798568182416e-15 l -4.234798568182416e-15,-6.35727908455181 l -4.234798568182416e-15,-6.35727908455181 l 6.35727908455181,-5.29349821022802e-15 "/></g><defs></defs><g stroke-linejoin="miter" stroke-opacity="1.0" fill-opacity="0.0" stroke="rgb(0,0,0)" stroke-width="1.3041086230446073" fill="rgb(0,0,0)" stroke-linecap="butt" stroke-miterlimit="10.0"><path d="M 18.181818181818187,209.1544818817547 l 6.228337185746234e-15,-101.716465352829 h 101.716465352829 "/></g></g></svg>