<svg xmlns="http://www.w3.org/2000/svg" height="132.0947" stroke-opacity="1" viewBox="0 0 400 132" font-size="1" width="400.0000" xmlns:xlink="http://www.w3.org/1999/xlink" stroke="rgb(0,0,0)" version="1.1"><defs></defs><g stroke-linejoin="miter" stroke-opacity="1.0" fill-opacity="0.0" stroke="rgb(0,0,0)" stroke-width="0.9194596119922958" fill="rgb(0,0,0)" stroke-linecap="butt" stroke-miterlimit="10.0"><path d="M 260.9626,93.8343 l -7.1301,0.0000 l 3.5651,-6.1749 l -7.1301,0.0000 l 3.5651,-6.1749 l 3.5651,6.1749 l 3.5651,-6.1749 l -7.1301,0.0000 l 3.5651,-6.1749 l -7.1301,0.0000 l 3.5651,-6.1749 l 3.5651,6.1749 l 3.5651,-6.1749 l 3.5651,6.1749 l -7.1301,0.0000 l 3.5651,6.1749 l 3.5651,-6.1749 l 3.5651,6.1749 l 3.5651,-6.1749 l -7.1301,0.0000 l 3.5651,-6.1749 l -7.1301,0.0000 l 3.5651,-6.1749 l 3.5651,6.1749 l 3.5651,-6.1749 l -7.1301,0.0000 l 3.5651,-6.1749 l -7.1301,0.0000 l 3.5651,-6.1749 l 3.5651,6.1749 l 3.5651,-6.1749 l 3.5651,6.1749 l -7.1301,0.0000 l 3.5651,6.1749 l 3.5651,-6.1749 l 3.5651,6.1749 l 3.5651,-6.1749 l 3.5651,6.1749 l -7.1301,0.0000 l 3.5651,6.1749 l -7.1301,0.0000 l 3.5651,-6.1749 l -7.1301,0.0000 l 3.5651,6.1749 l -7.1301,0.0000 l 3.5651,6.1749 l 3.5651,-6.1749 l 3.5651,6.1749 l 3.5651,-6.1749 l 3.5651,6.1749 l -7.1301,0.0000 l 3.5651,6.1749 l 3.5651,-6.1749 l 3.5651,6.1749 l 3.5651,-6.1749 l -7.1301,0.0000 l 3.5651,-6.1749 l -7.1301,0.0000 l 3.5651,-6.1749 l 3.5651,6.1749 l 3.5651,-6.1749 l -7.1301,0.0000 l 3.5651,-6.1749 l -7.1301,0.0000 l 3.5651,-6.1749 l 3.5651,6.1749 l 3.5651,-6.1749 l 3.5651,6.1749 l -7.1301,0.0000 l 3.5651,6.1749 l 3.5651,-6.1749 l 3.5651,6.1749 l 3.5651,-6.1749 l -7.1301,0.0000 l 3.5651,-6.1749 l -7.1301,0.0000 l 3.5651,-6.1749 l 3.5651,6.1749 l 3.5651,-6.1749 l -7.1301,0.0000 l 3.5651,-6.1749 l -7.1301,0.0000 l 3.5651,-6.1749 l 3.5651,6.1749 l 3.5651,-6.1749 l 3.5651,6.1749 l -7.1301,0.0000 l 3.5651,6.1749 l 3.5651,-6.1749 l 3.5651,6.1749 l 3.5651,-6.1749 l 3.5651,6.1749 l -7.1301,0.0000 l 3.5651,6.1749 l -7.1301,0.0000 l 3.5651,-6.1749 l -7.1301,0.0000 l 3.5651,6.1749 l -7.1301,0.0000 l 3.5651,6.1749 l 3.5651,-6.1749 l 3.5651,6.1749 l 3.5651,-6.1749 l 3.5651,6.1749 l -7.1301,0.0000 l 3.5651,6.1749 l 3.5651,-6.1749 l 3.5651,6.1749 l 3.5651,-6.1749 l 3.5651,6.1749 l -7.1301,0.0000 l 3.5651,6.1749 l -7.1301,0.0000 l 3.5651,-6.1749 l -7.1301,0.0000 l 3.5651,6.1749 l -7.1301,0.0000 l 3.5651,6.1749 l -7.1301,0.0000 l 3.5651,-6.1749 l -7.1301,0.0000 l 3.5651,-6.1749 l 3.5651,6.1749 l 3.5651,-6.1749 l -7.1301,0.0000 l 3.5651,-6.1749 l -7.1301,0.0000 l 3.5651,6.1749 l -7.1301,0.0000 l 3.5651,6.1749 l -7.1301,0.0000 l 3.5651,-6.1749 l -7.1301,0.0000 l 3.5651,6.1749 l -7.1301,0.0000 l 3.5651,6.1749 l 3.5651,-6.1749 l 3.5651,6.1749 l 3.5651,-6.1749 l 3.5651,6.1749 l -7.1301,0.0000 l 3.5651,6.1749 l 3.5651,-6.1749 l 3.5651,6.1749 l 3.5651,-6.1749 l 3.5651,6.1749 l -7.1301,0.0000 l 3.5651,6.1749 l -7.1301,0.0000 l 3.5651,-6.1749 l -7.1301,0.0000 l 3.5651,6.1749 l -7.1301,0.0000 l 3.5651,6.1749 l 3.5651,-6.1749 l 3.5651,6.1749 l 3.5651,-6.1749 l 3.5651,6.1749 l -7.1301,0.0000 l 3.5651,6.1749 l 3.5651,-6.1749 l 3.5651,6.1749 l 3.5651,-6.1749 l -7.1301,0.0000 l 3.5651,-6.1749 l -7.1301,0.0000 l 3.5651,-6.1749 l 3.5651,6.1749 l 3.5651,-6.1749 l -7.1301,0.0000 l 3.5651,-6.1749 l -7.1301,0.0000 l 3.5651,-6.1749 l 3.5651,6.1749 l 3.5651,-6.1749 l 3.5651,6.1749 l -7.1301,0.0000 l 3.5651,6.1749 l 3.5651,-6.1749 l 3.5651,6.1749 l 3.5651,-6.1749 l -7.1301,0.0000 l 3.5651,-6.1749 l -7.1301,0.0000 l 3.5651,-6.1749 l 3.5651,6.1749 l 3.5651,-6.1749 l -7.1301,0.0000 l 3.5651,-6.1749 l -7.1301,0.0000 l 3.5651,-6.1749 l 3.5651,6.1749 l 3.5651,-6.1749 l 3.5651,6.1749 l -7.1301,0.0000 l 3.5651,6.1749 l 3.5651,-6.1749 l 3.5651,6.1749 l 3.5651,-6.1749 l 3.5651,6.1749 l -7.1301,0.0000 l 3.5651,6.1749 l -7.1301,0.0000 l 3.5651,-6.1749 l -7.1301,0.0000 l 3.5651,6.1749 l -7.1301,0.0000 l 3.5651,6.1749 l 3.5651,-6.1749 l 3.5651,6.1749 l 3.5651,-6.1749 l 3.5651,6.1749 l -7.1301,0.0000 l 3.5651,6.1749 l 3.5651,-6.1749 l 3.5651,6.1749 l 3.5651,-6.1749 l -7.1301,0.0000 l 3.5651,-6.1749 l -7.1301,0.0000 l 3.5651,-6.1749 l 3.5651,6.1749 l 3.5651,-6.1749 l -7.1301,0.0000 l 3.5651,-6.1749 l -7.1301,0.0000 l 3.5651,-6.1749 l 3.5651,6.1749 l 3.5651,-6.1749 l 3.5651,6.1749 l -7.1301,0.0000 l 3.5651,6.1749 l 3.5651,-6.1749 l 3.5651,6.1749 l 3.5651,-6.1749 l -7.1301,0.0000 l 3.5651,-6.1749 l -7.1301,0.0000 l 3.5651,-6.1749 l 3.5651,6.1749 l 3.5651,-6.1749 l -7.1301,0.0000 l 3.5651,-6.1749 l -7.1301,0.0000 "/></g><g stroke-linejoin="miter" stroke-opacity="1.0" fill-opacity="0.0" stroke="rgb(0,0,0)" stroke-width="0.9194596119922958" fill="rgb(0,0,0)" stroke-linecap="butt" stroke-miterlimit="10.0"><path d="M 141.1765,93.8343 l 0.0000,-37.0492 l 32.0856,18.5246 l 0.0000,-37.0492 l 32.0856,18.5246 l -32.0856,18.5246 l 32.0856,18.5246 l 0.0000,-37.0492 l 32.0856,18.5246 l 0.0000,-37.0492 "/></g><g stroke-linejoin="miter" stroke-opacity="1.0" fill-opacity="0.0" stroke="rgb(0,0,0)" stroke-width="0.9194596119922958" fill="rgb(0,0,0)" stroke-linecap="butt" stroke-miterlimit="10.0"><path d="M 96.2567,93.8343 l 28.7704,-49.8318 "/></g><g stroke-linejoin="miter" stroke-opacity="1.0" fill-opacity="1.0" stroke="rgb(0,0,0)" stroke-width="0.0" fill="rgb(0,0,0)" stroke-linecap="butt" stroke-miterlimit="10.0"></g><g stroke-linejoin="miter" stroke-opacity="1.0" fill-opacity="1.0" stroke="rgb(0,0,0)" stroke-width="0.0" fill="rgb(0,0,0)" stroke-linecap="butt" stroke-miterlimit="10.0"></g><g stroke-linejoin="miter" stroke-opacity="1.0" fill-opacity="1.0" stroke="rgb(0,0,0)" stroke-width="0.0" fill="rgb(0,0,0)" stroke-linecap="butt" stroke-miterlimit="10.0"><path d="M 129.4478,37.2650 l -7.1260,6.4163 l 3.3451,0.1325 Z"/></g><g stroke-linejoin="miter" stroke-opacity="1.0" fill-opacity="1.0" stroke="rgb(0,0,0)" stroke-width="0.0" fill="rgb(0,0,0)" stroke-linecap="butt" stroke-miterlimit="10.0"><path d="M 125.6669,43.8137 l -0.2417,0.4186 l -0.7963,-0.4597 Z"/></g><g stroke-linejoin="miter" stroke-opacity="1.0" fill-opacity="0.0" stroke="rgb(0,0,0)" stroke-width="0.9194596119922958" fill="rgb(0,0,0)" stroke-linecap="butt" stroke-miterlimit="10.0"><path d="M 64.1711,38.2604 l 28.7704,49.8318 "/></g><g stroke-linejoin="miter" stroke-opacity="1.0" fill-opacity="1.0" stroke="rgb(0,0,0)" stroke-width="0.0" fill="rgb(0,0,0)" stroke-linecap="butt" stroke-miterlimit="10.0"></g><g stroke-linejoin="miter" stroke-opacity="1.0" fill-opacity="1.0" stroke="rgb(0,0,0)" stroke-width="0.0" fill="rgb(0,0,0)" stroke-linecap="butt" stroke-miterlimit="10.0"></g><g stroke-linejoin="miter" stroke-opacity="1.0" fill-opacity="1.0" stroke="rgb(0,0,0)" stroke-width="0.0" fill="rgb(0,0,0)" stroke-linecap="butt" stroke-miterlimit="10.0"><path d="M 96.5660,95.2895 l -1.9937,-9.3795 l -1.7873,2.8307 Z"/></g><g stroke-linejoin="miter" stroke-opacity="1.0" fill-opacity="1.0" stroke="rgb(0,0,0)" stroke-width="0.0" fill="rgb(0,0,0)" stroke-linecap="butt" stroke-miterlimit="10.0"><path d="M 92.7851,88.7407 l -0.2417,-0.4186 l 0.7963,-0.4597 Z"/></g><g stroke-linejoin="miter" stroke-opacity="1.0" fill-opacity="0.0" stroke="rgb(0,0,0)" stroke-width="0.9194596119922958" fill="rgb(0,0,0)" stroke-linecap="butt" stroke-miterlimit="10.0"><path d="M 32.0856,93.8343 l 28.7704,-49.8318 "/></g><g stroke-linejoin="miter" stroke-opacity="1.0" fill-opacity="1.0" stroke="rgb(0,0,0)" stroke-width="0.0" fill="rgb(0,0,0)" stroke-linecap="butt" stroke-miterlimit="10.0"></g><g stroke-linejoin="miter" stroke-opacity="1.0" fill-opacity="1.0" stroke="rgb(0,0,0)" stroke-width="0.0" fill="rgb(0,0,0)" stroke-linecap="butt" stroke-miterlimit="10.0"></g><g stroke-linejoin="miter" stroke-opacity="1.0" fill-opacity="1.0" stroke="rgb(0,0,0)" stroke-width="0.0" fill="rgb(0,0,0)" stroke-linecap="butt" stroke-miterlimit="10.0"><path d="M 65.2767,37.2650 l -7.1260,6.4163 l 3.3451,0.1325 Z"/></g><g stroke-linejoin="miter" stroke-opacity="1.0" fill-opacity="1.0" stroke="rgb(0,0,0)" stroke-width="0.0" fill="rgb(0,0,0)" stroke-linecap="butt" stroke-miterlimit="10.0"><path d="M 61.4958,43.8137 l -0.2417,0.4186 l -0.7963,-0.4597 Z"/></g></svg>