<?xml version="1.0" encoding="UTF-8"?>
<!DOCTYPE svg PUBLIC "-//W3C//DTD SVG 1.1//EN"
    "http://www.w3.org/Graphics/SVG/1.1/DTD/svg11.dtd">
<svg xmlns="http://www.w3.org/2000/svg" xmlns:xlink="http://www.w3.org/1999/xlink" version="1.1" width="300.0" height="79.0306071821609" font-size="1" viewBox="0 0 300 79"><g><g stroke="rgb(0,0,0)" stroke-opacity="1.0" fill="rgb(0,0,0)" fill-opacity="0.0" stroke-width="1.0e-2" stroke-linecap="butt" stroke-linejoin="miter" font-size="1.0em" stroke-miterlimit="10.0"><g transform="matrix(19.95722403589922,0.0,0.0,19.95722403589922,150.0,39.51530359108046)"><g><path d="M -8.881784197001252e-16,-1.5 l 2.385702750691742,1.0 " /><path d="M -8.881784197001252e-16,-1.5 l -2.38570275069174,1.0 " /><path d="M 2.385702750691741,-0.5 l 2.1761764278035116,1.0 " /><path d="M 2.385702750691741,-0.5 l -0.6973767756037734,1.0 " /><path d="M 4.561879178495253,0.5 l 1.9709166110566567,1.0 " /><path d="M 4.561879178495253,0.5 l 0.20919146855312398,1.0 " /><g><g fill="rgb(255,255,255)" fill-opacity="1.0"><path d="M 6.832795789551909,1.5 c 0.0,-0.16568542494923802 -0.13431457505076191,-0.3 -0.29999999999999993 -0.3c -0.16568542494923802,-1.0145306266472668e-17 -0.3,0.13431457505076191 -0.3 0.2999999999999999c -2.0290612532945336e-17,0.16568542494923802 0.1343145750507619,0.3 0.2999999999999999 0.3c 0.16568542494923802,3.0435918799418003e-17 0.3,-0.1343145750507619 0.3 -0.2999999999999999Z" /></g><g fill="rgb(0,0,0)" fill-opacity="1.0" font-size="0.5em"><text transform="matrix(1.0,0.0,0.0,1.0,6.532795789551909,1.5)" dominant-baseline="middle" text-anchor="middle" stroke="none">1</text></g></g><g><g fill="rgb(255,255,255)" fill-opacity="1.0"><path d="M 5.071070647048376,1.5 c 0.0,-0.16568542494923802 -0.13431457505076191,-0.3 -0.29999999999999993 -0.3c -0.16568542494923802,-1.0145306266472668e-17 -0.3,0.13431457505076191 -0.3 0.2999999999999999c -2.0290612532945336e-17,0.16568542494923802 0.1343145750507619,0.3 0.2999999999999999 0.3c 0.16568542494923802,3.0435918799418003e-17 0.3,-0.1343145750507619 0.3 -0.2999999999999999Z" /></g><g fill="rgb(0,0,0)" fill-opacity="1.0" font-size="0.5em"><text transform="matrix(1.0,0.0,0.0,1.0,4.771070647048377,1.5)" dominant-baseline="middle" text-anchor="middle" stroke="none">1</text></g></g><g><g fill="rgb(255,255,255)" fill-opacity="1.0"><path d="M 4.861879178495252,0.5 c 0.0,-0.16568542494923802 -0.13431457505076191,-0.3 -0.29999999999999993 -0.3c -0.16568542494923802,-1.0145306266472668e-17 -0.3,0.13431457505076191 -0.3 0.2999999999999999c -2.0290612532945336e-17,0.16568542494923802 0.1343145750507619,0.3 0.2999999999999999 0.3c 0.16568542494923802,3.0435918799418003e-17 0.3,-0.1343145750507619 0.3 -0.2999999999999999Z" /></g><g fill="rgb(0,0,0)" fill-opacity="1.0" font-size="0.5em"><text transform="matrix(1.0,0.0,0.0,1.0,4.561879178495253,0.5)" dominant-baseline="middle" text-anchor="middle" stroke="none">2</text></g></g><path d="M 1.6883259750879676,0.5 l 1.1193750372769244,1.0 " /><path d="M 1.6883259750879676,0.5 l -0.7861025719737418,1.0 " /><g><g fill="rgb(255,255,255)" fill-opacity="1.0"><path d="M 3.107701012364892,1.5 c 0.0,-0.16568542494923802 -0.13431457505076191,-0.3 -0.29999999999999993 -0.3c -0.16568542494923802,-1.0145306266472668e-17 -0.3,0.13431457505076191 -0.3 0.2999999999999999c -2.0290612532945336e-17,0.16568542494923802 0.1343145750507619,0.3 0.2999999999999999 0.3c 0.16568542494923802,3.0435918799418003e-17 0.3,-0.1343145750507619 0.3 -0.2999999999999999Z" /></g><g fill="rgb(0,0,0)" fill-opacity="1.0" font-size="0.5em"><text transform="matrix(1.0,0.0,0.0,1.0,2.807701012364892,1.5)" dominant-baseline="middle" text-anchor="middle" stroke="none">1</text></g></g><g><g fill="rgb(255,255,255)" fill-opacity="1.0"><path d="M 1.2022234031142258,1.5 c 0.0,-0.16568542494923802 -0.13431457505076191,-0.3 -0.29999999999999993 -0.3c -0.16568542494923802,-1.0145306266472668e-17 -0.3,0.13431457505076191 -0.3 0.2999999999999999c -2.0290612532945336e-17,0.16568542494923802 0.1343145750507619,0.3 0.2999999999999999 0.3c 0.16568542494923802,3.0435918799418003e-17 0.3,-0.1343145750507619 0.3 -0.2999999999999999Z" /></g><g fill="rgb(0,0,0)" fill-opacity="1.0" font-size="0.5em"><text transform="matrix(1.0,0.0,0.0,1.0,0.9022234031142258,1.5)" dominant-baseline="middle" text-anchor="middle" stroke="none">1</text></g></g><g><g fill="rgb(255,255,255)" fill-opacity="1.0"><path d="M 1.9883259750879676,0.5 c 0.0,-0.16568542494923802 -0.13431457505076191,-0.3 -0.29999999999999993 -0.3c -0.16568542494923802,-1.0145306266472668e-17 -0.3,0.13431457505076191 -0.3 0.2999999999999999c -2.0290612532945336e-17,0.16568542494923802 0.1343145750507619,0.3 0.2999999999999999 0.3c 0.16568542494923802,3.0435918799418003e-17 0.3,-0.1343145750507619 0.3 -0.2999999999999999Z" /></g><g fill="rgb(0,0,0)" fill-opacity="1.0" font-size="0.5em"><text transform="matrix(1.0,0.0,0.0,1.0,1.6883259750879676,0.5)" dominant-baseline="middle" text-anchor="middle" stroke="none">2</text></g></g><g><g fill="rgb(255,255,255)" fill-opacity="1.0"><path d="M 2.685702750691741,-0.5 c 0.0,-0.16568542494923802 -0.13431457505076191,-0.3 -0.29999999999999993 -0.3c -0.16568542494923802,-1.0145306266472668e-17 -0.3,0.13431457505076191 -0.3 0.2999999999999999c -2.0290612532945336e-17,0.16568542494923802 0.1343145750507619,0.3 0.2999999999999999 0.3c 0.16568542494923802,3.0435918799418003e-17 0.3,-0.1343145750507619 0.3 -0.2999999999999999Z" /></g><g fill="rgb(0,0,0)" fill-opacity="1.0" font-size="0.5em"><text transform="matrix(1.0,0.0,0.0,1.0,2.385702750691741,-0.5)" dominant-baseline="middle" text-anchor="middle" stroke="none">3</text></g></g><path d="M -2.385702750691741,-0.5 l 0.697376775603769,1.0 " /><path d="M -2.385702750691741,-0.5 l -2.176176427803512,1.0 " /><path d="M -1.688325975087972,0.5 l 0.7861025719737453,1.0 " /><path d="M -1.688325975087972,0.5 l -1.1193750372769218,1.0 " /><g><g fill="rgb(255,255,255)" fill-opacity="1.0"><path d="M -0.6022234031142266,1.5 c 0.0,-0.16568542494923802 -0.13431457505076191,-0.3 -0.29999999999999993 -0.3c -0.16568542494923802,-1.0145306266472668e-17 -0.3,0.13431457505076191 -0.3 0.2999999999999999c -2.0290612532945336e-17,0.16568542494923802 0.1343145750507619,0.3 0.2999999999999999 0.3c 0.16568542494923802,3.0435918799418003e-17 0.3,-0.1343145750507619 0.3 -0.2999999999999999Z" /></g><g fill="rgb(0,0,0)" fill-opacity="1.0" font-size="0.5em"><text transform="matrix(1.0,0.0,0.0,1.0,-0.9022234031142267,1.5)" dominant-baseline="middle" text-anchor="middle" stroke="none">1</text></g></g><g><g fill="rgb(255,255,255)" fill-opacity="1.0"><path d="M -2.507701012364894,1.5 c 0.0,-0.16568542494923802 -0.13431457505076191,-0.3 -0.29999999999999993 -0.3c -0.16568542494923802,-1.0145306266472668e-17 -0.3,0.13431457505076191 -0.3 0.2999999999999999c -2.0290612532945336e-17,0.16568542494923802 0.1343145750507619,0.3 0.2999999999999999 0.3c 0.16568542494923802,3.0435918799418003e-17 0.3,-0.1343145750507619 0.3 -0.2999999999999999Z" /></g><g fill="rgb(0,0,0)" fill-opacity="1.0" font-size="0.5em"><text transform="matrix(1.0,0.0,0.0,1.0,-2.8077010123648938,1.5)" dominant-baseline="middle" text-anchor="middle" stroke="none">1</text></g></g><g><g fill="rgb(255,255,255)" fill-opacity="1.0"><path d="M -1.388325975087972,0.5 c 0.0,-0.16568542494923802 -0.13431457505076191,-0.3 -0.29999999999999993 -0.3c -0.16568542494923802,-1.0145306266472668e-17 -0.3,0.13431457505076191 -0.3 0.2999999999999999c -2.0290612532945336e-17,0.16568542494923802 0.1343145750507619,0.3 0.2999999999999999 0.3c 0.16568542494923802,3.0435918799418003e-17 0.3,-0.1343145750507619 0.3 -0.2999999999999999Z" /></g><g fill="rgb(0,0,0)" fill-opacity="1.0" font-size="0.5em"><text transform="matrix(1.0,0.0,0.0,1.0,-1.688325975087972,0.5)" dominant-baseline="middle" text-anchor="middle" stroke="none">2</text></g></g><path d="M -4.5618791784952535,0.5 l -0.20919146855312398,1.0 " /><path d="M -4.5618791784952535,0.5 l -1.9709166110566567,1.0 " /><g><g fill="rgb(255,255,255)" fill-opacity="1.0"><path d="M -4.471070647048378,1.5 c 0.0,-0.16568542494923802 -0.13431457505076191,-0.3 -0.29999999999999993 -0.3c -0.16568542494923802,-1.0145306266472668e-17 -0.3,0.13431457505076191 -0.3 0.2999999999999999c -2.0290612532945336e-17,0.16568542494923802 0.1343145750507619,0.3 0.2999999999999999 0.3c 0.16568542494923802,3.0435918799418003e-17 0.3,-0.1343145750507619 0.3 -0.2999999999999999Z" /></g><g fill="rgb(0,0,0)" fill-opacity="1.0" font-size="0.5em"><text transform="matrix(1.0,0.0,0.0,1.0,-4.7710706470483775,1.5)" dominant-baseline="middle" text-anchor="middle" stroke="none">1</text></g></g><g><g fill="rgb(255,255,255)" fill-opacity="1.0"><path d="M -6.23279578955191,1.5 c 0.0,-0.16568542494923802 -0.13431457505076191,-0.3 -0.29999999999999993 -0.3c -0.16568542494923802,-1.0145306266472668e-17 -0.3,0.13431457505076191 -0.3 0.2999999999999999c -2.0290612532945336e-17,0.16568542494923802 0.1343145750507619,0.3 0.2999999999999999 0.3c 0.16568542494923802,3.0435918799418003e-17 0.3,-0.1343145750507619 0.3 -0.2999999999999999Z" /></g><g fill="rgb(0,0,0)" fill-opacity="1.0" font-size="0.5em"><text transform="matrix(1.0,0.0,0.0,1.0,-6.53279578955191,1.5)" dominant-baseline="middle" text-anchor="middle" stroke="none">1</text></g></g><g><g fill="rgb(255,255,255)" fill-opacity="1.0"><path d="M -4.261879178495254,0.5 c 0.0,-0.16568542494923802 -0.13431457505076191,-0.3 -0.29999999999999993 -0.3c -0.16568542494923802,-1.0145306266472668e-17 -0.3,0.13431457505076191 -0.3 0.2999999999999999c -2.0290612532945336e-17,0.16568542494923802 0.1343145750507619,0.3 0.2999999999999999 0.3c 0.16568542494923802,3.0435918799418003e-17 0.3,-0.1343145750507619 0.3 -0.2999999999999999Z" /></g><g fill="rgb(0,0,0)" fill-opacity="1.0" font-size="0.5em"><text transform="matrix(1.0,0.0,0.0,1.0,-4.5618791784952535,0.5)" dominant-baseline="middle" text-anchor="middle" stroke="none">2</text></g></g><g><g fill="rgb(255,255,255)" fill-opacity="1.0"><path d="M -2.085702750691741,-0.5 c 0.0,-0.16568542494923802 -0.13431457505076191,-0.3 -0.29999999999999993 -0.3c -0.16568542494923802,-1.0145306266472668e-17 -0.3,0.13431457505076191 -0.3 0.2999999999999999c -2.0290612532945336e-17,0.16568542494923802 0.1343145750507619,0.3 0.2999999999999999 0.3c 0.16568542494923802,3.0435918799418003e-17 0.3,-0.1343145750507619 0.3 -0.2999999999999999Z" /></g><g fill="rgb(0,0,0)" fill-opacity="1.0" font-size="0.5em"><text transform="matrix(1.0,0.0,0.0,1.0,-2.385702750691741,-0.5)" dominant-baseline="middle" text-anchor="middle" stroke="none">3</text></g></g><g><g fill="rgb(255,255,255)" fill-opacity="1.0"><path d="M 0.2999999999999991,-1.5 c 0.0,-0.16568542494923802 -0.13431457505076191,-0.3 -0.29999999999999993 -0.3c -0.16568542494923802,-1.0145306266472668e-17 -0.3,0.13431457505076191 -0.3 0.2999999999999999c -2.0290612532945336e-17,0.16568542494923802 0.1343145750507619,0.3 0.2999999999999999 0.3c 0.16568542494923802,3.0435918799418003e-17 0.3,-0.1343145750507619 0.3 -0.2999999999999999Z" /></g><g fill="rgb(0,0,0)" fill-opacity="1.0" font-size="0.5em"><text transform="matrix(1.0,0.0,0.0,1.0,-8.881784197001252e-16,-1.5)" dominant-baseline="middle" text-anchor="middle" stroke="none">4</text></g></g></g></g></g></g></svg>