<?xml version="1.0" encoding="UTF-8"?>
<!DOCTYPE svg PUBLIC "-//W3C//DTD SVG 1.1//EN"
    "http://www.w3.org/Graphics/SVG/1.1/DTD/svg11.dtd"><svg xmlns="http://www.w3.org/2000/svg" height="138.52813852813853" stroke-opacity="1" viewBox="0 0 400 139" font-size="1" width="400.0" xmlns:xlink="http://www.w3.org/1999/xlink" stroke="rgb(0,0,0)" version="1.1"><defs></defs><defs></defs><g stroke-linejoin="miter" stroke-opacity="1.0" fill-opacity="0.0" stroke="rgb(0,0,0)" stroke-width="0.9415838181383995" fill="rgb(0,0,0)" stroke-linecap="butt" stroke-miterlimit="10.0"><path d="M 235.4978354978355,103.89610389610391 l 8.65800865800866,-9.612320559525165e-16 l -9.612320559525165e-16,-8.65800865800866 l 8.65800865800866,-9.612320559525165e-16 l 9.612320559525165e-16,8.65800865800866 h 8.65800865800866 v -8.65800865800866 h -8.65800865800866 v -8.65800865800866 l 8.658008658008661,9.612320559525165e-16 l 9.612320559525165e-16,-8.658008658008661 l 8.658008658008661,9.612320559525165e-16 l -9.612320559525165e-16,8.658008658008661 l -8.65800865800866,-1.922464111905033e-15 l -1.922464111905033e-15,8.65800865800866 l 8.65800865800866,1.922464111905033e-15 l -1.922464111905033e-15,8.65800865800866 l 8.65800865800866,-9.612320559525165e-16 l -9.612320559525165e-16,-8.65800865800866 l 8.65800865800866,-9.612320559525165e-16 l 9.612320559525165e-16,8.65800865800866 h 8.65800865800866 v -8.65800865800866 h -8.65800865800866 v -8.65800865800866 l -8.658008658008661,9.612320559525165e-16 l 9.612320559525165e-16,8.658008658008661 l -8.658008658008661,9.612320559525165e-16 l -9.612320559525165e-16,-8.658008658008661 l 8.65800865800866,-9.612320559525165e-16 l -9.612320559525165e-16,-8.65800865800866 l -8.65800865800866,9.612320559525165e-16 l -9.612320559525165e-16,-8.65800865800866 h 8.65800865800866 v -8.65800865800866 h 8.65800865800866 v 8.65800865800866 l 8.658008658008661,-9.612320559525165e-16 l -9.612320559525165e-16,-8.658008658008661 l -8.658008658008661,9.612320559525165e-16 l -9.612320559525165e-16,-8.658008658008661 l 8.65800865800866,1.922464111905033e-15 l 1.922464111905033e-15,-8.65800865800866 l 8.65800865800866,1.922464111905033e-15 l -1.922464111905033e-15,8.65800865800866 h -8.65800865800866 v 8.65800865800866 h 8.65800865800866 v 8.65800865800866 l -8.658008658008661,-3.844928223810066e-15 l -3.844928223810066e-15,8.658008658008661 l -8.658008658008661,-3.844928223810066e-15 l 3.844928223810066e-15,-8.658008658008661 l -8.658008658008661,-2.8836961678575494e-15 l -2.8836961678575494e-15,8.658008658008661 l 8.658008658008661,2.8836961678575494e-15 l -2.8836961678575494e-15,8.658008658008661 l 8.65800865800866,1.922464111905033e-15 l 1.922464111905033e-15,-8.65800865800866 l 8.65800865800866,1.922464111905033e-15 l -1.922464111905033e-15,8.65800865800866 h -8.65800865800866 v 8.65800865800866 h 8.65800865800866 v 8.65800865800866 l 8.65800865800866,-9.612320559525165e-16 l -9.612320559525165e-16,-8.65800865800866 l 8.65800865800866,-9.612320559525165e-16 l 9.612320559525165e-16,8.65800865800866 h 8.658008658008658 v -8.658008658008658 h -8.658008658008658 v -8.658008658008658 l 8.658008658008661,9.612320559525165e-16 l 9.612320559525165e-16,-8.658008658008661 l 8.658008658008661,9.612320559525165e-16 l -9.612320559525165e-16,8.658008658008661 l -8.65800865800866,-1.922464111905033e-15 l -1.922464111905033e-15,8.65800865800866 l 8.65800865800866,1.922464111905033e-15 l -1.922464111905033e-15,8.65800865800866 l 8.65800865800866,-9.612320559525165e-16 l -9.612320559525165e-16,-8.65800865800866 l 8.65800865800866,-9.612320559525165e-16 l 9.612320559525165e-16,8.65800865800866 h 8.658008658008658 v -8.658008658008658 h -8.658008658008658 v -8.658008658008658 l -8.658008658008661,2.8836961678575494e-15 l 2.8836961678575494e-15,8.658008658008661 l -8.658008658008661,2.8836961678575494e-15 l -2.8836961678575494e-15,-8.658008658008661 l 8.65800865800866,-9.612320559525165e-16 l -9.612320559525165e-16,-8.65800865800866 l -8.65800865800866,9.612320559525165e-16 l -9.612320559525165e-16,-8.65800865800866 l -8.65800865800866,3.844928223810066e-15 l 3.844928223810066e-15,8.65800865800866 l -8.65800865800866,3.844928223810066e-15 l -3.844928223810066e-15,-8.65800865800866 l -8.658008658008661,2.8836961678575494e-15 l 2.8836961678575494e-15,8.658008658008661 l 8.658008658008661,-2.8836961678575494e-15 l 2.8836961678575494e-15,8.658008658008661 l -8.65800865800866,9.612320559525165e-16 l 9.612320559525165e-16,8.65800865800866 l -8.65800865800866,9.612320559525165e-16 l -9.612320559525165e-16,-8.65800865800866 l 8.65800865800866,-3.844928223810066e-15 l -3.844928223810066e-15,-8.65800865800866 l -8.65800865800866,3.844928223810066e-15 l -3.844928223810066e-15,-8.65800865800866 h 8.658008658008658 v -8.658008658008658 h 8.658008658008658 v 8.658008658008658 l 8.658008658008661,-9.612320559525165e-16 l -9.612320559525165e-16,-8.658008658008661 l -8.658008658008661,9.612320559525165e-16 l -9.612320559525165e-16,-8.658008658008661 l -8.65800865800866,9.612320559525165e-16 l 9.612320559525165e-16,8.65800865800866 l -8.65800865800866,9.612320559525165e-16 l -9.612320559525165e-16,-8.65800865800866 l 8.65800865800866,-3.844928223810066e-15 l -3.844928223810066e-15,-8.65800865800866 l -8.65800865800866,3.844928223810066e-15 l -3.844928223810066e-15,-8.65800865800866 "/></g><defs></defs><g stroke-linejoin="miter" stroke-opacity="1.0" fill-opacity="0.0" stroke="rgb(0,0,0)" stroke-width="0.9415838181383995" fill="rgb(0,0,0)" stroke-linecap="butt" stroke-miterlimit="10.0"><path d="M 117.74891774891773,103.89610389610391 l 34.63203463203463,-34.63203463203464 l 34.63203463203464,34.63203463203463 l 34.63203463203463,-34.63203463203464 l -34.63203463203464,-34.63203463203463 "/></g><defs></defs><g stroke-linejoin="miter" stroke-opacity="1.0" fill-opacity="0.0" stroke="rgb(0,0,0)" stroke-width="0.9415838181383995" fill="rgb(0,0,0)" stroke-linecap="butt" stroke-miterlimit="10.0"><path d="M 103.89610389610388,34.632034632034646 l 3.825438964686544e-15,62.47415936333584 "/></g><defs></defs><g stroke-linejoin="miter" stroke-opacity="1.0" fill-opacity="1.0" stroke="rgb(0,0,0)" stroke-width="0.0" fill="rgb(0,0,0)" stroke-linecap="butt" stroke-miterlimit="10.0"></g><defs></defs><g stroke-linejoin="miter" stroke-opacity="1.0" fill-opacity="1.0" stroke="rgb(0,0,0)" stroke-width="0.0" fill="rgb(0,0,0)" stroke-linecap="butt" stroke-miterlimit="10.0"></g><defs></defs><g stroke-linejoin="miter" stroke-opacity="1.0" fill-opacity="1.0" stroke="rgb(0,0,0)" stroke-width="0.0" fill="rgb(0,0,0)" stroke-linecap="butt" stroke-miterlimit="10.0"><path d="M 103.42531198703468,105.34505240408149 l 3.0344760446219614,-9.33915696648569 l -3.034476044621962,1.595318465637973 Z"/></g><defs></defs><g stroke-linejoin="miter" stroke-opacity="1.0" fill-opacity="1.0" stroke="rgb(0,0,0)" stroke-width="0.0" fill="rgb(0,0,0)" stroke-linecap="butt" stroke-miterlimit="10.0"><path d="M 103.42531198703468,97.60121390323377 l -3.0311227283949186e-17,-0.49501990786328015 l 0.9415838181383995,-5.765538045060673e-17 Z"/></g><defs></defs><g stroke-linejoin="miter" stroke-opacity="1.0" fill-opacity="0.0" stroke="rgb(0,0,0)" stroke-width="0.9415838181383995" fill="rgb(0,0,0)" stroke-linecap="butt" stroke-miterlimit="10.0"><path d="M 34.63203463203462,103.89610389610391 h 62.47415936333584 "/></g><defs></defs><g stroke-linejoin="miter" stroke-opacity="1.0" fill-opacity="1.0" stroke="rgb(0,0,0)" stroke-width="0.0" fill="rgb(0,0,0)" stroke-linecap="butt" stroke-miterlimit="10.0"></g><defs></defs><g stroke-linejoin="miter" stroke-opacity="1.0" fill-opacity="1.0" stroke="rgb(0,0,0)" stroke-width="0.0" fill="rgb(0,0,0)" stroke-linecap="butt" stroke-miterlimit="10.0"></g><defs></defs><g stroke-linejoin="miter" stroke-opacity="1.0" fill-opacity="1.0" stroke="rgb(0,0,0)" stroke-width="0.0" fill="rgb(0,0,0)" stroke-linecap="butt" stroke-miterlimit="10.0"><path d="M 105.34505240408146,104.36689580517312 l -9.33915696648569,-3.034476044621962 l 1.5953184656379729,3.034476044621962 Z"/></g><defs></defs><g stroke-linejoin="miter" stroke-opacity="1.0" fill-opacity="1.0" stroke="rgb(0,0,0)" stroke-width="0.0" fill="rgb(0,0,0)" stroke-linecap="butt" stroke-miterlimit="10.0"><path d="M 97.60121390323374,104.36689580517312 h -0.49501990786328015 v -0.9415838181383995 Z"/></g></svg>