<?xml version="1.0" encoding="UTF-8"?>
<!DOCTYPE svg PUBLIC "-//W3C//DTD SVG 1.1//EN"
    "http://www.w3.org/Graphics/SVG/1.1/DTD/svg11.dtd">
<svg xmlns="http://www.w3.org/2000/svg" xmlns:xlink="http://www.w3.org/1999/xlink" version="1.1" width="400.0" height="87.54208754208756" font-size="1" viewBox="0 0 400 88" stroke="rgb(0,0,0)" stroke-opacity="1"><g><g fill="rgb(0,0,0)" fill-opacity="0.0"><g stroke="rgb(0,0,0)" stroke-opacity="1.0" stroke-width="0.7485114296183862" stroke-linecap="butt" stroke-linejoin="miter" font-size="1.0em" stroke-miterlimit="10.0"><g><g><path d="M 216.52892561983472,83.56290174471994 h 6.1218243036424855 v -6.1218243036424855 h 6.1218243036424855 v 6.1218243036424855 h 6.1218243036424855 l 3.748536269199122e-16,-6.1218243036424855 l -6.1218243036424855,-3.748536269199122e-16 l 3.748536269199122e-16,-6.1218243036424855 l 6.1218243036424855,3.748536269199122e-16 l 3.748536269199122e-16,-6.1218243036424855 h 6.1218243036424855 v -6.1218243036424855 h 6.1218243036424855 v 6.1218243036424855 h 6.1218243036424855 l 3.748536269199122e-16,6.1218243036424855 l 6.1218243036424855,-3.748536269199122e-16 l 3.748536269199122e-16,6.1218243036424855 l -6.1218243036424855,3.748536269199122e-16 l 3.748536269199122e-16,6.1218243036424855 h 6.1218243036424855 v -6.1218243036424855 h 6.1218243036424855 v 6.1218243036424855 h 6.1218243036424855 l 3.748536269199122e-16,-6.1218243036424855 l -6.1218243036424855,-3.748536269199122e-16 l 3.748536269199122e-16,-6.1218243036424855 l 6.1218243036424855,3.748536269199122e-16 l 3.748536269199122e-16,-6.1218243036424855 l -6.1218243036424855,-7.497072538398244e-16 l -7.497072538398244e-16,6.1218243036424855 l -6.1218243036424855,-7.497072538398244e-16 l 7.497072538398244e-16,-6.1218243036424855 l -6.1218243036424855,-7.497072538398244e-16 l 3.748536269199122e-16,-6.1218243036424855 l -6.1218243036424855,-3.748536269199122e-16 l 3.748536269199122e-16,-6.1218243036424855 l 6.1218243036424855,3.748536269199122e-16 l 3.748536269199122e-16,-6.1218243036424855 l 6.1218243036424855,3.748536269199122e-16 l 3.748536269199122e-16,-6.1218243036424855 l 6.1218243036424855,3.748536269199122e-16 l -3.748536269199122e-16,6.1218243036424855 l 6.1218243036424855,3.748536269199122e-16 l 3.748536269199122e-16,-6.1218243036424855 l -6.1218243036424855,-3.748536269199122e-16 l 3.748536269199122e-16,-6.1218243036424855 l 6.1218243036424855,3.748536269199122e-16 l 3.748536269199122e-16,-6.1218243036424855 h 6.1218243036424855 v -6.1218243036424855 h 6.1218243036424855 v 6.1218243036424855 h 6.1218243036424855 l 3.748536269199122e-16,-6.1218243036424855 l -6.1218243036424855,-3.748536269199122e-16 l 3.748536269199122e-16,-6.1218243036424855 l 6.1218243036424855,3.748536269199122e-16 l 3.748536269199122e-16,-6.1218243036424855 h 6.1218243036424855 v -6.1218243036424855 h 6.1218243036424855 v 6.1218243036424855 h 6.1218243036424855 l 3.748536269199122e-16,6.1218243036424855 l 6.1218243036424855,-3.748536269199122e-16 l 3.748536269199122e-16,6.1218243036424855 l -6.1218243036424855,3.748536269199122e-16 l 3.748536269199122e-16,6.1218243036424855 h 6.1218243036424855 v -6.1218243036424855 h 6.1218243036424855 v 6.1218243036424855 h 6.1218243036424855 l 3.748536269199122e-16,6.1218243036424855 l 6.1218243036424855,-3.748536269199122e-16 l 3.748536269199122e-16,6.1218243036424855 l -6.1218243036424855,3.748536269199122e-16 l 3.748536269199122e-16,6.1218243036424855 l 6.1218243036424855,-3.748536269199122e-16 l -3.748536269199122e-16,-6.1218243036424855 l 6.1218243036424855,-3.748536269199122e-16 l 3.748536269199122e-16,6.1218243036424855 l 6.1218243036424855,-3.748536269199122e-16 l 3.748536269199122e-16,6.1218243036424855 l 6.1218243036424855,-3.748536269199122e-16 l 3.748536269199122e-16,6.1218243036424855 l -6.1218243036424855,3.748536269199122e-16 l 3.748536269199122e-16,6.1218243036424855 l -6.1218243036424855,7.497072538398244e-16 l 7.497072538398244e-16,6.1218243036424855 l -6.1218243036424855,7.497072538398244e-16 l -7.497072538398244e-16,-6.1218243036424855 l -6.1218243036424855,7.497072538398244e-16 l 3.748536269199122e-16,6.1218243036424855 l 6.1218243036424855,-3.748536269199122e-16 l 3.748536269199122e-16,6.1218243036424855 l -6.1218243036424855,3.748536269199122e-16 l 3.748536269199122e-16,6.1218243036424855 h 6.1218243036424855 v -6.1218243036424855 h 6.1218243036424855 v 6.1218243036424855 h 6.1218243036424855 l 3.748536269199122e-16,-6.1218243036424855 l -6.1218243036424855,-3.748536269199122e-16 l 3.748536269199122e-16,-6.1218243036424855 l 6.1218243036424855,3.748536269199122e-16 l 3.748536269199122e-16,-6.1218243036424855 h 6.1218243036424855 v -6.1218243036424855 h 6.1218243036424855 v 6.1218243036424855 h 6.1218243036424855 l 3.748536269199122e-16,6.1218243036424855 l 6.1218243036424855,-3.748536269199122e-16 l 3.748536269199122e-16,6.1218243036424855 l -6.1218243036424855,3.748536269199122e-16 l 3.748536269199122e-16,6.1218243036424855 h 6.1218243036424855 v -6.1218243036424855 h 6.1218243036424855 v 6.1218243036424855 h 6.1218243036424855 " /></g><path d="M 18.181818181818187,83.56290174471994 h 55.09641873278237 v -55.09641873278237 h 55.09641873278237 v 55.09641873278237 h 55.09641873278237 " /></g></g></g></g></svg>