<?xml version="1.0" encoding="UTF-8"?>
<!DOCTYPE svg PUBLIC "-//W3C//DTD SVG 1.1//EN"
    "http://www.w3.org/Graphics/SVG/1.1/DTD/svg11.dtd">
<svg xmlns="http://www.w3.org/2000/svg" xmlns:xlink="http://www.w3.org/1999/xlink" version="1.1" width="300.0" height="299.9999999999999" font-size="1" viewBox="0 0 300 300" stroke="rgb(0,0,0)" stroke-opacity="1"><g><g fill="rgb(0,0,0)" fill-opacity="0.0"><g stroke="rgb(0,0,0)" stroke-opacity="1.0" stroke-width="1.1999999999999997" stroke-linecap="butt" stroke-linejoin="miter" font-size="1.0em" stroke-miterlimit="10.0"><g stroke-width="0.0"><path d="M 17.573593128807232,149.99999999999994 l -21.21320343559643,-21.21320343559642 h -29.99999999999999 l -21.2132034355964,21.21320343559642 v 29.99999999999999 l 21.2132034355964,21.213203435596416 h 29.99999999999999 l 21.21320343559643,-21.213203435596416 " /></g><g stroke-width="0.0"><path d="M 17.573593128807232,47.57359312880713 l -21.21320343559643,-21.21320343559643 h -29.99999999999999 l -21.2132034355964,21.21320343559643 v 29.99999999999999 l 21.2132034355964,21.213203435596416 h 29.99999999999999 l 21.21320343559643,-21.213203435596416 " /></g><g stroke-width="0.0"><path d="M 273.6396103067893,26.360389693210706 h 29.99999999999999 v -29.99999999999999 h -29.99999999999999 " /></g><g stroke-width="0.0"><path d="M 222.42640687119285,282.42640687119274 l -21.213203435596416,21.21320343559643 v 29.99999999999999 l 21.213203435596416,21.2132034355964 h 29.99999999999999 l 21.21320343559643,-21.2132034355964 v -29.99999999999999 l -21.21320343559643,-21.21320343559643 " /></g><g stroke-width="0.0"><path d="M 120.00000000000004,282.42640687119274 l -21.213203435596416,21.21320343559643 v 29.99999999999999 l 21.213203435596416,21.2132034355964 h 29.99999999999999 l 21.21320343559642,-21.2132034355964 v -29.99999999999999 l -21.21320343559642,-21.21320343559643 " /></g><g stroke-width="0.0"><path d="M 17.573593128807232,282.42640687119274 l -21.21320343559643,21.21320343559643 v 29.99999999999999 l 21.21320343559643,21.2132034355964 h 29.99999999999999 l 21.213203435596416,-21.2132034355964 v -29.99999999999999 l -21.213203435596416,-21.21320343559643 " /></g><g stroke-width="0.0"><path d="M 17.573593128807232,252.42640687119274 l -21.21320343559643,-21.213203435596416 h -29.99999999999999 l -21.2132034355964,21.213203435596416 v 29.99999999999999 l 21.2132034355964,21.21320343559643 h 29.99999999999999 l 21.21320343559643,-21.21320343559643 " /></g><g stroke-width="0.0"><path d="M 47.57359312880722,252.42640687119274 h -29.99999999999999 v 29.99999999999999 h 29.99999999999999 " /></g><g stroke-width="0.0"><path d="M 120.00000000000004,252.42640687119274 l -21.213203435596416,-21.213203435596416 h -29.99999999999999 l -21.213203435596416,21.213203435596416 v 29.99999999999999 l 21.213203435596416,21.21320343559643 h 29.99999999999999 l 21.213203435596416,-21.21320343559643 " /></g><g stroke-width="0.0"><path d="M 150.00000000000003,252.42640687119274 h -29.99999999999999 v 29.99999999999999 h 29.99999999999999 " /></g><g stroke-width="0.0"><path d="M 222.42640687119285,252.42640687119274 l -21.213203435596416,-21.213203435596416 h -29.999999999999986 l -21.21320343559642,21.213203435596416 v 29.99999999999999 l 21.21320343559642,21.21320343559643 h 29.999999999999986 l 21.213203435596416,-21.21320343559643 " /></g><g stroke-width="0.0"><path d="M 252.42640687119285,252.42640687119274 h -29.99999999999999 v 29.99999999999999 h 29.99999999999999 " /></g><g stroke-width="0.0"><path d="M 273.6396103067893,231.21320343559634 l -21.21320343559643,21.213203435596416 v 29.99999999999999 l 21.21320343559643,21.21320343559643 h 29.99999999999999 l 21.2132034355964,-21.21320343559643 v -29.99999999999999 l -21.2132034355964,-21.213203435596416 " /></g><g stroke-width="0.0"><path d="M 273.6396103067893,201.21320343559634 v 29.99999999999999 h 29.99999999999999 v -29.99999999999999 " /></g><g stroke-width="0.0"><path d="M 273.6396103067893,128.78679656440352 l -21.21320343559643,21.21320343559642 v 29.99999999999999 l 21.21320343559643,21.213203435596416 h 29.99999999999999 l 21.2132034355964,-21.213203435596416 v -29.99999999999999 l -21.2132034355964,-21.21320343559642 " /></g><g stroke-width="0.0"><path d="M 273.6396103067893,98.78679656440355 v 29.999999999999986 h 29.99999999999999 v -29.999999999999986 " /></g><g stroke-width="0.0"><path d="M 252.42640687119285,77.57359312880712 l 21.21320343559643,21.213203435596416 h 29.99999999999999 l 21.2132034355964,-21.213203435596416 v -29.99999999999999 l -21.2132034355964,-21.21320343559643 h -29.99999999999999 l -21.21320343559643,21.21320343559643 " /></g><g stroke-width="0.0"><path d="M 222.42640687119285,47.57359312880713 v 29.99999999999999 h 29.99999999999999 v -29.99999999999999 " /></g><g stroke-width="0.0"><path d="M 201.21320343559643,26.360389693210706 l 21.213203435596416,21.21320343559643 h 29.99999999999999 l 21.21320343559643,-21.21320343559643 v -29.99999999999999 l -21.21320343559643,-21.2132034355964 h -29.99999999999999 l -21.213203435596416,21.2132034355964 " /></g><g stroke-width="0.0"><path d="M 171.21320343559645,26.360389693210706 h 29.999999999999986 v -29.99999999999999 h -29.999999999999986 " /></g><g stroke-width="0.0"><path d="M 98.78679656440363,26.360389693210706 l 21.213203435596416,21.21320343559643 h 29.99999999999999 l 21.21320343559642,-21.21320343559643 v -29.99999999999999 l -21.21320343559642,-21.2132034355964 h -29.99999999999999 l -21.213203435596416,21.2132034355964 " /></g><g stroke-width="0.0"><path d="M 68.78679656440363,26.360389693210706 h 29.99999999999999 v -29.99999999999999 h -29.99999999999999 " /></g><g stroke-width="0.0"><path d="M 47.57359312880722,47.57359312880713 l 21.213203435596416,-21.21320343559643 v -29.99999999999999 l -21.213203435596416,-21.2132034355964 h -29.99999999999999 l -21.21320343559643,21.2132034355964 v 29.99999999999999 l 21.21320343559643,21.21320343559643 " /></g><g stroke-width="0.0"><path d="M 47.57359312880722,77.57359312880712 v -29.99999999999999 h -29.99999999999999 v 29.99999999999999 " /></g><g stroke-width="0.0"><path d="M 47.57359312880722,149.99999999999994 l 21.213203435596416,-21.21320343559642 v -29.999999999999986 l -21.213203435596416,-21.213203435596416 h -29.99999999999999 l -21.21320343559643,21.213203435596416 v 29.999999999999986 l 21.21320343559643,21.21320343559642 " /></g><g stroke-width="0.0"><path d="M 47.57359312880722,179.99999999999994 v -29.99999999999999 h -29.99999999999999 v 29.99999999999999 " /></g><g stroke-width="0.0"><path d="M 68.78679656440363,201.21320343559634 l -21.213203435596416,-21.213203435596416 h -29.99999999999999 l -21.21320343559643,21.213203435596416 v 29.99999999999999 l 21.21320343559643,21.213203435596416 h 29.99999999999999 l 21.213203435596416,-21.213203435596416 " /></g><g stroke-width="0.0"><path d="M 98.78679656440363,201.21320343559634 h -29.99999999999999 v 29.99999999999999 h 29.99999999999999 " /></g><g stroke-width="0.0"><path d="M 171.21320343559645,201.21320343559634 l -21.21320343559642,-21.213203435596416 h -29.99999999999999 l -21.213203435596416,21.213203435596416 v 29.99999999999999 l 21.213203435596416,21.213203435596416 h 29.99999999999999 l 21.21320343559642,-21.213203435596416 " /></g><g stroke-width="0.0"><path d="M 201.21320343559643,201.21320343559634 h -29.999999999999986 v 29.99999999999999 h 29.999999999999986 " /></g><g stroke-width="0.0"><path d="M 222.42640687119285,179.99999999999994 l -21.213203435596416,21.213203435596416 v 29.99999999999999 l 21.213203435596416,21.213203435596416 h 29.99999999999999 l 21.21320343559643,-21.213203435596416 v -29.99999999999999 l -21.21320343559643,-21.213203435596416 " /></g><g stroke-width="0.0"><path d="M 222.42640687119285,149.99999999999994 v 29.99999999999999 h 29.99999999999999 v -29.99999999999999 " /></g><g stroke-width="0.0"><path d="M 201.21320343559643,128.78679656440352 l 21.213203435596416,21.21320343559642 h 29.99999999999999 l 21.21320343559643,-21.21320343559642 v -29.999999999999986 l -21.21320343559643,-21.213203435596416 h -29.99999999999999 l -21.213203435596416,21.213203435596416 " /></g><g stroke-width="0.0"><path d="M 171.21320343559645,98.78679656440355 v 29.999999999999986 h 29.999999999999986 v -29.999999999999986 " /></g><g stroke-width="0.0"><path d="M 150.00000000000003,77.57359312880712 l 21.21320343559642,21.213203435596416 h 29.999999999999986 l 21.213203435596416,-21.213203435596416 v -29.99999999999999 l -21.213203435596416,-21.21320343559643 h -29.999999999999986 l -21.21320343559642,21.21320343559643 " /></g><g stroke-width="0.0"><path d="M 120.00000000000004,77.57359312880712 h 29.99999999999999 v -29.99999999999999 h -29.99999999999999 " /></g><g stroke-width="0.0"><path d="M 98.78679656440363,98.78679656440355 l 21.213203435596416,-21.213203435596416 v -29.99999999999999 l -21.213203435596416,-21.21320343559643 h -29.99999999999999 l -21.213203435596416,21.21320343559643 v 29.99999999999999 l 21.213203435596416,21.213203435596416 " /></g><g stroke-width="0.0"><path d="M 98.78679656440363,128.78679656440352 v -29.999999999999986 h -29.99999999999999 v 29.999999999999986 " /></g><g stroke-width="0.0"><path d="M 120.00000000000004,149.99999999999994 l -21.213203435596416,-21.21320343559642 h -29.99999999999999 l -21.213203435596416,21.21320343559642 v 29.99999999999999 l 21.213203435596416,21.213203435596416 h 29.99999999999999 l 21.213203435596416,-21.213203435596416 " /></g><g stroke-width="0.0"><path d="M 150.00000000000003,149.99999999999994 v 29.99999999999999 l 21.21320343559642,21.213203435596416 h 29.999999999999986 l 21.213203435596416,-21.213203435596416 v -29.99999999999999 l -21.213203435596416,-21.21320343559642 h -29.999999999999986 " /></g><g stroke-width="0.0"><path d="M 150.00000000000003,149.99999999999994 h -29.99999999999999 v 29.99999999999999 h 29.99999999999999 " /></g><g stroke-width="0.0"><path d="M 150.00000000000003,149.99999999999994 l 21.21320343559642,-21.21320343559642 v -29.999999999999986 l -21.21320343559642,-21.213203435596416 h -29.99999999999999 l -21.213203435596416,21.213203435596416 v 29.999999999999986 l 21.213203435596416,21.21320343559642 " /></g><g><path d="M -3.6396103067891943,201.21320343559634 l 21.21320343559643,-21.213203435596416 " /></g><g><path d="M 17.573593128807232,179.99999999999994 v -29.99999999999999 " /></g><g><path d="M -3.6396103067891943,128.78679656440352 l 21.21320343559643,21.21320343559642 " /></g><g><path d="M -3.6396103067891943,98.78679656440355 l 21.21320343559643,-21.213203435596416 " /></g><g><path d="M 17.573593128807232,77.57359312880712 v -29.99999999999999 " /></g><g><path d="M -3.6396103067891943,26.360389693210706 l 21.21320343559643,21.21320343559643 " /></g><g><path d="M 273.6396103067893,26.360389693210706 h 29.99999999999999 " /></g><g><path d="M 273.6396103067893,26.360389693210706 v -29.99999999999999 " /></g><g><path d="M 252.42640687119285,47.57359312880713 l 21.21320343559643,-21.21320343559643 " /></g><g><path d="M 252.42640687119285,282.42640687119274 l 21.21320343559643,21.21320343559643 " /></g><g><path d="M 222.42640687119285,282.42640687119274 h 29.99999999999999 " /></g><g><path d="M 201.21320343559643,303.63961030678917 l 21.213203435596416,-21.21320343559643 " /></g><g><path d="M 150.00000000000003,282.42640687119274 l 21.21320343559642,21.21320343559643 " /></g><g><path d="M 120.00000000000004,282.42640687119274 h 29.99999999999999 " /></g><g><path d="M 98.78679656440363,303.63961030678917 l 21.213203435596416,-21.21320343559643 " /></g><g><path d="M 47.57359312880722,282.42640687119274 l 21.213203435596416,21.21320343559643 " /></g><g><path d="M 17.573593128807232,282.42640687119274 h 29.99999999999999 " /></g><g><path d="M -3.6396103067891943,303.63961030678917 l 21.21320343559643,-21.21320343559643 " /></g><g><path d="M 17.573593128807232,282.42640687119274 v -29.99999999999999 " /></g><g><path d="M -3.6396103067891943,231.21320343559634 l 21.21320343559643,21.213203435596416 " /></g><g><path d="M 47.57359312880722,282.42640687119274 v -29.99999999999999 " /></g><g><path d="M 17.573593128807232,252.42640687119274 h 29.99999999999999 " /></g><g><path d="M 47.57359312880722,252.42640687119274 l 21.213203435596416,-21.213203435596416 " /></g><g><path d="M 68.78679656440363,231.21320343559634 h 29.99999999999999 " /></g><g><path d="M 120.00000000000004,282.42640687119274 v -29.99999999999999 " /></g><g><path d="M 98.78679656440363,231.21320343559634 l 21.213203435596416,21.213203435596416 " /></g><g><path d="M 150.00000000000003,282.42640687119274 v -29.99999999999999 " /></g><g><path d="M 120.00000000000004,252.42640687119274 h 29.99999999999999 " /></g><g><path d="M 150.00000000000003,252.42640687119274 l 21.21320343559642,-21.213203435596416 " /></g><g><path d="M 171.21320343559645,231.21320343559634 h 29.999999999999986 " /></g><g><path d="M 222.42640687119285,282.42640687119274 v -29.99999999999999 " /></g><g><path d="M 201.21320343559643,231.21320343559634 l 21.213203435596416,21.213203435596416 " /></g><g><path d="M 252.42640687119285,282.42640687119274 v -29.99999999999999 " /></g><g><path d="M 222.42640687119285,252.42640687119274 h 29.99999999999999 " /></g><g><path d="M 273.6396103067893,231.21320343559634 h 29.99999999999999 " /></g><g><path d="M 252.42640687119285,252.42640687119274 l 21.21320343559643,-21.213203435596416 " /></g><g><path d="M 273.6396103067893,201.21320343559634 h 29.99999999999999 " /></g><g><path d="M 273.6396103067893,231.21320343559634 v -29.99999999999999 " /></g><g><path d="M 252.42640687119285,179.99999999999994 l 21.21320343559643,21.213203435596416 " /></g><g><path d="M 252.42640687119285,179.99999999999994 v -29.99999999999999 " /></g><g><path d="M 273.6396103067893,128.78679656440352 h 29.99999999999999 " /></g><g><path d="M 252.42640687119285,149.99999999999994 l 21.21320343559643,-21.21320343559642 " /></g><g><path d="M 273.6396103067893,98.78679656440355 h 29.99999999999999 " /></g><g><path d="M 273.6396103067893,128.78679656440352 v -29.999999999999986 " /></g><g><path d="M 252.42640687119285,77.57359312880712 l 21.21320343559643,21.213203435596416 " /></g><g><path d="M 252.42640687119285,77.57359312880712 v -29.99999999999999 " /></g><g><path d="M 222.42640687119285,77.57359312880712 h 29.99999999999999 " /></g><g><path d="M 201.21320343559643,98.78679656440355 l 21.213203435596416,-21.213203435596416 " /></g><g><path d="M 222.42640687119285,47.57359312880713 h 29.99999999999999 " /></g><g><path d="M 222.42640687119285,77.57359312880712 v -29.99999999999999 " /></g><g><path d="M 201.21320343559643,26.360389693210706 l 21.213203435596416,21.21320343559643 " /></g><g><path d="M 201.21320343559643,26.360389693210706 v -29.99999999999999 " /></g><g><path d="M 171.21320343559645,26.360389693210706 h 29.999999999999986 " /></g><g><path d="M 171.21320343559645,26.360389693210706 v -29.99999999999999 " /></g><g><path d="M 150.00000000000003,47.57359312880713 l 21.21320343559642,-21.21320343559643 " /></g><g><path d="M 120.00000000000004,47.57359312880713 h 29.99999999999999 " /></g><g><path d="M 98.78679656440363,26.360389693210706 l 21.213203435596416,21.21320343559643 " /></g><g><path d="M 98.78679656440363,26.360389693210706 v -29.99999999999999 " /></g><g><path d="M 68.78679656440363,26.360389693210706 h 29.99999999999999 " /></g><g><path d="M 68.78679656440363,26.360389693210706 v -29.99999999999999 " /></g><g><path d="M 47.57359312880722,47.57359312880713 l 21.213203435596416,-21.21320343559643 " /></g><g><path d="M 17.573593128807232,47.57359312880713 h 29.99999999999999 " /></g><g><path d="M 47.57359312880722,77.57359312880712 v -29.99999999999999 " /></g><g><path d="M 17.573593128807232,77.57359312880712 h 29.99999999999999 " /></g><g><path d="M 47.57359312880722,77.57359312880712 l 21.213203435596416,21.213203435596416 " /></g><g><path d="M 68.78679656440363,128.78679656440352 v -29.999999999999986 " /></g><g><path d="M 47.57359312880722,149.99999999999994 l 21.213203435596416,-21.21320343559642 " /></g><g><path d="M 17.573593128807232,149.99999999999994 h 29.99999999999999 " /></g><g><path d="M 47.57359312880722,179.99999999999994 v -29.99999999999999 " /></g><g><path d="M 17.573593128807232,179.99999999999994 h 29.99999999999999 " /></g><g><path d="M 68.78679656440363,231.21320343559634 v -29.99999999999999 " /></g><g><path d="M 47.57359312880722,179.99999999999994 l 21.213203435596416,21.213203435596416 " /></g><g><path d="M 98.78679656440363,231.21320343559634 v -29.99999999999999 " /></g><g><path d="M 68.78679656440363,201.21320343559634 h 29.99999999999999 " /></g><g><path d="M 98.78679656440363,201.21320343559634 l 21.213203435596416,-21.213203435596416 " /></g><g><path d="M 120.00000000000004,179.99999999999994 h 29.99999999999999 " /></g><g><path d="M 171.21320343559645,231.21320343559634 v -29.99999999999999 " /></g><g><path d="M 150.00000000000003,179.99999999999994 l 21.21320343559642,21.213203435596416 " /></g><g><path d="M 201.21320343559643,231.21320343559634 v -29.99999999999999 " /></g><g><path d="M 171.21320343559645,201.21320343559634 h 29.999999999999986 " /></g><g><path d="M 222.42640687119285,179.99999999999994 h 29.99999999999999 " /></g><g><path d="M 201.21320343559643,201.21320343559634 l 21.213203435596416,-21.213203435596416 " /></g><g><path d="M 222.42640687119285,149.99999999999994 h 29.99999999999999 " /></g><g><path d="M 222.42640687119285,179.99999999999994 v -29.99999999999999 " /></g><g><path d="M 201.21320343559643,128.78679656440352 l 21.213203435596416,21.21320343559642 " /></g><g><path d="M 201.21320343559643,128.78679656440352 v -29.999999999999986 " /></g><g><path d="M 171.21320343559645,128.78679656440352 h 29.999999999999986 " /></g><g><path d="M 171.21320343559645,98.78679656440355 h 29.999999999999986 " /></g><g><path d="M 171.21320343559645,128.78679656440352 v -29.999999999999986 " /></g><g><path d="M 150.00000000000003,77.57359312880712 l 21.21320343559642,21.213203435596416 " /></g><g><path d="M 150.00000000000003,77.57359312880712 v -29.99999999999999 " /></g><g><path d="M 120.00000000000004,77.57359312880712 h 29.99999999999999 " /></g><g><path d="M 120.00000000000004,77.57359312880712 v -29.99999999999999 " /></g><g><path d="M 98.78679656440363,98.78679656440355 l 21.213203435596416,-21.213203435596416 " /></g><g><path d="M 68.78679656440363,98.78679656440355 h 29.99999999999999 " /></g><g><path d="M 98.78679656440363,128.78679656440352 v -29.999999999999986 " /></g><g><path d="M 68.78679656440363,128.78679656440352 h 29.99999999999999 " /></g><g><path d="M 120.00000000000004,179.99999999999994 v -29.99999999999999 " /></g><g><path d="M 98.78679656440363,128.78679656440352 l 21.213203435596416,21.21320343559642 " /></g><g><path d="M 150.00000000000003,149.99999999999994 l 21.21320343559642,-21.21320343559642 " /></g><g><path d="M 150.00000000000003,179.99999999999994 v -29.99999999999999 " /></g><g><path d="M 120.00000000000004,149.99999999999994 h 29.99999999999999 " /></g></g></g></g></svg>