<?xml version="1.0" encoding="UTF-8"?>
<!DOCTYPE svg PUBLIC "-//W3C//DTD SVG 1.1//EN"
    "http://www.w3.org/Graphics/SVG/1.1/DTD/svg11.dtd">
<svg xmlns="http://www.w3.org/2000/svg" xmlns:xlink="http://www.w3.org/1999/xlink" version="1.1" width="400.0" height="120.99552168627056" font-size="1" viewBox="0 0 400 121"><g><g stroke="rgb(0,0,0)" stroke-opacity="1.0" fill-opacity="0.0" stroke-width="1.0e-2" stroke-linecap="butt" stroke-linejoin="miter" font-size="1.0em" stroke-miterlimit="10.0"><g transform="matrix(165.2892561983471,0.0,0.0,165.2892561983471,200.0,60.497760843135275)"><g fill-opacity="0.0"><g fill-opacity="0.0"><path d="M 9.999999999999987e-2,0.0 c 7.113821138211383e-3,1.5243902439024389e-3 1.4227642276422765e-2,3.0487804878048777e-3 1.5625e-2 0.0c 1.3973577235772347e-3,-3.0487804878048777e-3 -2.921747967479675e-3,-1.0670731707317074e-2 0.0 -1.5625e-2c 2.921747967479675e-3,-4.954268292682928e-3 1.3084349593495932e-2,-7.240853658536588e-3 1.5625e-2 0.0c 2.540650406504065e-3,7.240853658536585e-3 -2.5406504065040615e-3,2.4009146341463415e-2 0.0 3.125e-2c 2.540650406504065e-3,7.240853658536588e-3 1.2703252032520325e-2,4.954268292682928e-3 1.5625e-2 0.0c 2.921747967479675e-3,-4.954268292682926e-3 -1.3973577235772416e-3,-1.2576219512195121e-2 0.0 -1.5625e-2c 1.3973577235772347e-3,-3.0487804878048786e-3 8.51117886178862e-3,-1.5243902439024393e-3 1.5625e-2 0.0c 1.5243902439024393e-3,-7.113821138211383e-3 3.0487804878048786e-3,-1.4227642276422765e-2 9.567553118338697e-19 -1.5625e-2c -3.0487804878048777e-3,-1.397357723577235e-3 -1.0670731707317074e-2,2.921747967479674e-3 -1.5625e-2 -9.567553118338697e-19c -4.954268292682928e-3,-2.9217479674796755e-3 -7.2408536585365875e-3,-1.3084349593495932e-2 9.567553118338697e-19 -1.5625e-2c 7.240853658536585e-3,-2.5406504065040646e-3 2.4009146341463415e-2,2.540650406504063e-3 3.125e-2 1.9135106236677394e-18c 7.240853658536588e-3,-2.5406504065040646e-3 4.954268292682929e-3,-1.2703252032520325e-2 9.567553118338697e-19 -1.5625e-2c -4.954268292682926e-3,-2.9217479674796755e-3 -1.2576219512195121e-2,1.3973577235772408e-3 -1.5625e-2 -9.567553118338697e-19c -3.0487804878048786e-3,-1.397357723577235e-3 -1.5243902439024389e-3,-8.51117886178862e-3 9.567553118338697e-19 -1.5625e-2c 7.113821138211383e-3,1.5243902439024389e-3 1.4227642276422765e-2,3.0487804878048777e-3 1.5625e-2 0.0c 1.3973577235772347e-3,-3.0487804878048777e-3 -2.921747967479675e-3,-1.0670731707317074e-2 0.0 -1.5625e-2c 2.921747967479675e-3,-4.954268292682928e-3 1.3084349593495932e-2,-7.240853658536588e-3 1.5625e-2 0.0c 2.540650406504065e-3,7.240853658536585e-3 -2.5406504065040615e-3,2.4009146341463415e-2 0.0 3.125e-2c 2.540650406504065e-3,7.240853658536588e-3 1.2703252032520325e-2,4.954268292682928e-3 1.5625e-2 0.0c 2.921747967479675e-3,-4.954268292682926e-3 -1.3973577235772416e-3,-1.2576219512195121e-2 0.0 -1.5625e-2c 1.3973577235772347e-3,-3.0487804878048786e-3 8.51117886178862e-3,-1.5243902439024393e-3 1.5625e-2 0.0c -3.048780487804877e-3,1.4227642276422765e-2 -6.097560975609754e-3,2.845528455284553e-2 1.9135106236677394e-18 3.125e-2c 6.0975609756097554e-3,2.794715447154469e-3 2.1341463414634148e-2,-5.843495934959352e-3 3.125e-2 -1.9135106236677394e-18c 9.908536585365856e-3,5.843495934959349e-3 1.4481707317073178e-2,2.6168699186991863e-2 1.9135106236677394e-18 3.125e-2c -1.448170731707317e-2,5.081300813008131e-3 -4.801829268292683e-2,-5.08130081300812e-3 -6.25e-2 3.827021247335479e-18c -1.4481707317073177e-2,5.081300813008131e-3 -9.908536585365854e-3,2.540650406504065e-2 1.9135106236677394e-18 3.125e-2c 9.908536585365852e-3,5.843495934959349e-3 2.5152439024390242e-2,-2.794715447154485e-3 3.125e-2 -1.9135106236677394e-18c 6.097560975609757e-3,2.794715447154469e-3 3.0487804878048795e-3,1.702235772357724e-2 1.9135106236677394e-18 3.125e-2c 7.113821138211383e-3,1.5243902439024389e-3 1.4227642276422765e-2,3.0487804878048777e-3 1.5625e-2 0.0c 1.3973577235772347e-3,-3.0487804878048777e-3 -2.921747967479675e-3,-1.0670731707317074e-2 0.0 -1.5625e-2c 2.921747967479675e-3,-4.954268292682928e-3 1.3084349593495932e-2,-7.240853658536588e-3 1.5625e-2 0.0c 2.540650406504065e-3,7.240853658536585e-3 -2.5406504065040615e-3,2.4009146341463415e-2 0.0 3.125e-2c 2.540650406504065e-3,7.240853658536588e-3 1.2703252032520325e-2,4.954268292682928e-3 1.5625e-2 0.0c 2.921747967479675e-3,-4.954268292682926e-3 -1.3973577235772416e-3,-1.2576219512195121e-2 0.0 -1.5625e-2c 1.3973577235772347e-3,-3.0487804878048786e-3 8.51117886178862e-3,-1.5243902439024393e-3 1.5625e-2 0.0c 1.5243902439024393e-3,-7.113821138211383e-3 3.0487804878048786e-3,-1.4227642276422765e-2 9.567553118338697e-19 -1.5625e-2c -3.0487804878048777e-3,-1.397357723577235e-3 -1.0670731707317074e-2,2.921747967479674e-3 -1.5625e-2 -9.567553118338697e-19c -4.954268292682928e-3,-2.9217479674796755e-3 -7.2408536585365875e-3,-1.3084349593495932e-2 9.567553118338697e-19 -1.5625e-2c 7.240853658536585e-3,-2.5406504065040646e-3 2.4009146341463415e-2,2.540650406504063e-3 3.125e-2 1.9135106236677394e-18c 7.240853658536588e-3,-2.5406504065040646e-3 4.954268292682929e-3,-1.2703252032520325e-2 9.567553118338697e-19 -1.5625e-2c -4.954268292682926e-3,-2.9217479674796755e-3 -1.2576219512195121e-2,1.3973577235772408e-3 -1.5625e-2 -9.567553118338697e-19c -3.0487804878048786e-3,-1.397357723577235e-3 -1.5243902439024389e-3,-8.51117886178862e-3 9.567553118338697e-19 -1.5625e-2c 7.113821138211383e-3,1.5243902439024389e-3 1.4227642276422765e-2,3.0487804878048777e-3 1.5625e-2 0.0c 1.3973577235772347e-3,-3.0487804878048777e-3 -2.921747967479675e-3,-1.0670731707317074e-2 0.0 -1.5625e-2c 2.921747967479675e-3,-4.954268292682928e-3 1.3084349593495932e-2,-7.240853658536588e-3 1.5625e-2 0.0c 2.540650406504065e-3,7.240853658536585e-3 -2.5406504065040615e-3,2.4009146341463415e-2 0.0 3.125e-2c 2.540650406504065e-3,7.240853658536588e-3 1.2703252032520325e-2,4.954268292682928e-3 1.5625e-2 0.0c 2.921747967479675e-3,-4.954268292682926e-3 -1.3973577235772416e-3,-1.2576219512195121e-2 0.0 -1.5625e-2c 1.3973577235772347e-3,-3.0487804878048786e-3 8.51117886178862e-3,-1.5243902439024393e-3 1.5625e-2 0.0c 1.5243902439024393e-3,-7.113821138211383e-3 3.0487804878048786e-3,-1.4227642276422765e-2 9.567553118338697e-19 -1.5625e-2c -3.0487804878048777e-3,-1.397357723577235e-3 -1.0670731707317074e-2,2.921747967479674e-3 -1.5625e-2 -9.567553118338697e-19c -4.954268292682928e-3,-2.9217479674796755e-3 -7.2408536585365875e-3,-1.3084349593495932e-2 9.567553118338697e-19 -1.5625e-2c 7.240853658536585e-3,-2.5406504065040646e-3 2.4009146341463415e-2,2.540650406504063e-3 3.125e-2 1.9135106236677394e-18c 7.240853658536588e-3,-2.5406504065040646e-3 4.954268292682929e-3,-1.2703252032520325e-2 9.567553118338697e-19 -1.5625e-2c -4.954268292682926e-3,-2.9217479674796755e-3 -1.2576219512195121e-2,1.3973577235772408e-3 -1.5625e-2 -9.567553118338697e-19c -3.0487804878048786e-3,-1.397357723577235e-3 -1.5243902439024389e-3,-8.51117886178862e-3 9.567553118338697e-19 -1.5625e-2c -7.113821138211383e-3,-1.5243902439024397e-3 -1.4227642276422765e-2,-3.0487804878048795e-3 -1.5625e-2 -1.9135106236677394e-18c -1.3973577235772351e-3,3.0487804878048777e-3 2.9217479674796738e-3,1.0670731707317074e-2 -1.9135106236677394e-18 1.5625e-2c -2.9217479674796755e-3,4.954268292682928e-3 -1.3084349593495933e-2,7.240853658536587e-3 -1.5625e-2 -1.9135106236677394e-18c -2.540650406504064e-3,-7.240853658536585e-3 2.5406504065040646e-3,-2.4009146341463415e-2 3.827021247335479e-18 -3.125e-2c -2.540650406504064e-3,-7.240853658536588e-3 -1.2703252032520325e-2,-4.9542682926829295e-3 -1.5625e-2 -1.9135106236677394e-18c -2.9217479674796755e-3,4.954268292682926e-3 1.3973577235772401e-3,1.2576219512195121e-2 -1.9135106236677394e-18 1.5625e-2c -1.3973577235772351e-3,3.0487804878048786e-3 -8.51117886178862e-3,1.5243902439024382e-3 -1.5625e-2 -1.9135106236677394e-18c 1.5243902439024393e-3,-7.113821138211383e-3 3.0487804878048786e-3,-1.4227642276422765e-2 9.567553118338697e-19 -1.5625e-2c -3.0487804878048777e-3,-1.397357723577235e-3 -1.0670731707317074e-2,2.921747967479674e-3 -1.5625e-2 -9.567553118338697e-19c -4.954268292682928e-3,-2.9217479674796755e-3 -7.2408536585365875e-3,-1.3084349593495932e-2 9.567553118338697e-19 -1.5625e-2c 7.240853658536585e-3,-2.5406504065040646e-3 2.4009146341463415e-2,2.540650406504063e-3 3.125e-2 1.9135106236677394e-18c 7.240853658536588e-3,-2.5406504065040646e-3 4.954268292682929e-3,-1.2703252032520325e-2 9.567553118338697e-19 -1.5625e-2c -4.954268292682926e-3,-2.9217479674796755e-3 -1.2576219512195121e-2,1.3973577235772408e-3 -1.5625e-2 -9.567553118338697e-19c -3.0487804878048786e-3,-1.397357723577235e-3 -1.5243902439024389e-3,-8.51117886178862e-3 9.567553118338697e-19 -1.5625e-2c 1.4227642276422765e-2,3.0487804878048786e-3 2.845528455284553e-2,6.097560975609757e-3 3.125e-2 1.9135106236677394e-18c 2.79471544715447e-3,-6.0975609756097554e-3 -5.843495934959348e-3,-2.1341463414634148e-2 1.9135106236677394e-18 -3.125e-2c 5.843495934959351e-3,-9.908536585365856e-3 2.6168699186991863e-2,-1.4481707317073175e-2 3.125e-2 1.9135106236677394e-18c 5.081300813008129e-3,1.448170731707317e-2 -5.081300813008126e-3,4.801829268292683e-2 -3.827021247335479e-18 6.25e-2c 5.081300813008129e-3,1.4481707317073177e-2 2.540650406504065e-2,9.908536585365857e-3 3.125e-2 1.9135106236677394e-18c 5.843495934959351e-3,-9.908536585365852e-3 -2.7947154471544815e-3,-2.5152439024390242e-2 1.9135106236677394e-18 -3.125e-2c 2.79471544715447e-3,-6.097560975609757e-3 1.702235772357724e-2,-3.0487804878048777e-3 3.125e-2 1.9135106236677394e-18c 1.5243902439024393e-3,-7.113821138211383e-3 3.0487804878048786e-3,-1.4227642276422765e-2 9.567553118338697e-19 -1.5625e-2c -3.0487804878048777e-3,-1.397357723577235e-3 -1.0670731707317074e-2,2.921747967479674e-3 -1.5625e-2 -9.567553118338697e-19c -4.954268292682928e-3,-2.9217479674796755e-3 -7.2408536585365875e-3,-1.3084349593495932e-2 9.567553118338697e-19 -1.5625e-2c 7.240853658536585e-3,-2.5406504065040646e-3 2.4009146341463415e-2,2.540650406504063e-3 3.125e-2 1.9135106236677394e-18c 7.240853658536588e-3,-2.5406504065040646e-3 4.954268292682929e-3,-1.2703252032520325e-2 9.567553118338697e-19 -1.5625e-2c -4.954268292682926e-3,-2.9217479674796755e-3 -1.2576219512195121e-2,1.3973577235772408e-3 -1.5625e-2 -9.567553118338697e-19c -3.0487804878048786e-3,-1.397357723577235e-3 -1.5243902439024389e-3,-8.51117886178862e-3 9.567553118338697e-19 -1.5625e-2c -7.113821138211383e-3,-1.5243902439024397e-3 -1.4227642276422765e-2,-3.0487804878048795e-3 -1.5625e-2 -1.9135106236677394e-18c -1.3973577235772351e-3,3.0487804878048777e-3 2.9217479674796738e-3,1.0670731707317074e-2 -1.9135106236677394e-18 1.5625e-2c -2.9217479674796755e-3,4.954268292682928e-3 -1.3084349593495933e-2,7.240853658536587e-3 -1.5625e-2 -1.9135106236677394e-18c -2.540650406504064e-3,-7.240853658536585e-3 2.5406504065040646e-3,-2.4009146341463415e-2 3.827021247335479e-18 -3.125e-2c -2.540650406504064e-3,-7.240853658536588e-3 -1.2703252032520325e-2,-4.9542682926829295e-3 -1.5625e-2 -1.9135106236677394e-18c -2.9217479674796755e-3,4.954268292682926e-3 1.3973577235772401e-3,1.2576219512195121e-2 -1.9135106236677394e-18 1.5625e-2c -1.3973577235772351e-3,3.0487804878048786e-3 -8.51117886178862e-3,1.5243902439024382e-3 -1.5625e-2 -1.9135106236677394e-18c 1.5243902439024393e-3,-7.113821138211383e-3 3.0487804878048786e-3,-1.4227642276422765e-2 9.567553118338697e-19 -1.5625e-2c -3.0487804878048777e-3,-1.397357723577235e-3 -1.0670731707317074e-2,2.921747967479674e-3 -1.5625e-2 -9.567553118338697e-19c -4.954268292682928e-3,-2.9217479674796755e-3 -7.2408536585365875e-3,-1.3084349593495932e-2 9.567553118338697e-19 -1.5625e-2c 7.240853658536585e-3,-2.5406504065040646e-3 2.4009146341463415e-2,2.540650406504063e-3 3.125e-2 1.9135106236677394e-18c 7.240853658536588e-3,-2.5406504065040646e-3 4.954268292682929e-3,-1.2703252032520325e-2 9.567553118338697e-19 -1.5625e-2c -4.954268292682926e-3,-2.9217479674796755e-3 -1.2576219512195121e-2,1.3973577235772408e-3 -1.5625e-2 -9.567553118338697e-19c -3.0487804878048786e-3,-1.397357723577235e-3 -1.5243902439024389e-3,-8.51117886178862e-3 9.567553118338697e-19 -1.5625e-2c 7.113821138211383e-3,1.5243902439024389e-3 1.4227642276422765e-2,3.0487804878048777e-3 1.5625e-2 0.0c 1.3973577235772347e-3,-3.0487804878048777e-3 -2.921747967479675e-3,-1.0670731707317074e-2 0.0 -1.5625e-2c 2.921747967479675e-3,-4.954268292682928e-3 1.3084349593495932e-2,-7.240853658536588e-3 1.5625e-2 0.0c 2.540650406504065e-3,7.240853658536585e-3 -2.5406504065040615e-3,2.4009146341463415e-2 0.0 3.125e-2c 2.540650406504065e-3,7.240853658536588e-3 1.2703252032520325e-2,4.954268292682928e-3 1.5625e-2 0.0c 2.921747967479675e-3,-4.954268292682926e-3 -1.3973577235772416e-3,-1.2576219512195121e-2 0.0 -1.5625e-2c 1.3973577235772347e-3,-3.0487804878048786e-3 8.51117886178862e-3,-1.5243902439024393e-3 1.5625e-2 0.0c 1.5243902439024393e-3,-7.113821138211383e-3 3.0487804878048786e-3,-1.4227642276422765e-2 9.567553118338697e-19 -1.5625e-2c -3.0487804878048777e-3,-1.397357723577235e-3 -1.0670731707317074e-2,2.921747967479674e-3 -1.5625e-2 -9.567553118338697e-19c -4.954268292682928e-3,-2.9217479674796755e-3 -7.2408536585365875e-3,-1.3084349593495932e-2 9.567553118338697e-19 -1.5625e-2c 7.240853658536585e-3,-2.5406504065040646e-3 2.4009146341463415e-2,2.540650406504063e-3 3.125e-2 1.9135106236677394e-18c 7.240853658536588e-3,-2.5406504065040646e-3 4.954268292682929e-3,-1.2703252032520325e-2 9.567553118338697e-19 -1.5625e-2c -4.954268292682926e-3,-2.9217479674796755e-3 -1.2576219512195121e-2,1.3973577235772408e-3 -1.5625e-2 -9.567553118338697e-19c -3.0487804878048786e-3,-1.397357723577235e-3 -1.5243902439024389e-3,-8.51117886178862e-3 9.567553118338697e-19 -1.5625e-2c 7.113821138211383e-3,1.5243902439024389e-3 1.4227642276422765e-2,3.0487804878048777e-3 1.5625e-2 0.0c 1.3973577235772347e-3,-3.0487804878048777e-3 -2.921747967479675e-3,-1.0670731707317074e-2 0.0 -1.5625e-2c 2.921747967479675e-3,-4.954268292682928e-3 1.3084349593495932e-2,-7.240853658536588e-3 1.5625e-2 0.0c 2.540650406504065e-3,7.240853658536585e-3 -2.5406504065040615e-3,2.4009146341463415e-2 0.0 3.125e-2c 2.540650406504065e-3,7.240853658536588e-3 1.2703252032520325e-2,4.954268292682928e-3 1.5625e-2 0.0c 2.921747967479675e-3,-4.954268292682926e-3 -1.3973577235772416e-3,-1.2576219512195121e-2 0.0 -1.5625e-2c 1.3973577235772347e-3,-3.0487804878048786e-3 8.51117886178862e-3,-1.5243902439024393e-3 1.5625e-2 0.0c -3.048780487804877e-3,1.4227642276422765e-2 -6.097560975609754e-3,2.845528455284553e-2 1.9135106236677394e-18 3.125e-2c 6.0975609756097554e-3,2.794715447154469e-3 2.1341463414634148e-2,-5.843495934959352e-3 3.125e-2 -1.9135106236677394e-18c 9.908536585365856e-3,5.843495934959349e-3 1.4481707317073178e-2,2.6168699186991863e-2 1.9135106236677394e-18 3.125e-2c -1.448170731707317e-2,5.081300813008131e-3 -4.801829268292683e-2,-5.08130081300812e-3 -6.25e-2 3.827021247335479e-18c -1.4481707317073177e-2,5.081300813008131e-3 -9.908536585365854e-3,2.540650406504065e-2 1.9135106236677394e-18 3.125e-2c 9.908536585365852e-3,5.843495934959349e-3 2.5152439024390242e-2,-2.794715447154485e-3 3.125e-2 -1.9135106236677394e-18c 6.097560975609757e-3,2.794715447154469e-3 3.0487804878048795e-3,1.702235772357724e-2 1.9135106236677394e-18 3.125e-2c 7.113821138211383e-3,1.5243902439024389e-3 1.4227642276422765e-2,3.0487804878048777e-3 1.5625e-2 0.0c 1.3973577235772347e-3,-3.0487804878048777e-3 -2.921747967479675e-3,-1.0670731707317074e-2 0.0 -1.5625e-2c 2.921747967479675e-3,-4.954268292682928e-3 1.3084349593495932e-2,-7.240853658536588e-3 1.5625e-2 0.0c 2.540650406504065e-3,7.240853658536585e-3 -2.5406504065040615e-3,2.4009146341463415e-2 0.0 3.125e-2c 2.540650406504065e-3,7.240853658536588e-3 1.2703252032520325e-2,4.954268292682928e-3 1.5625e-2 0.0c 2.921747967479675e-3,-4.954268292682926e-3 -1.3973577235772416e-3,-1.2576219512195121e-2 0.0 -1.5625e-2c 1.3973577235772347e-3,-3.0487804878048786e-3 8.51117886178862e-3,-1.5243902439024393e-3 1.5625e-2 0.0c 1.5243902439024393e-3,-7.113821138211383e-3 3.0487804878048786e-3,-1.4227642276422765e-2 9.567553118338697e-19 -1.5625e-2c -3.0487804878048777e-3,-1.397357723577235e-3 -1.0670731707317074e-2,2.921747967479674e-3 -1.5625e-2 -9.567553118338697e-19c -4.954268292682928e-3,-2.9217479674796755e-3 -7.2408536585365875e-3,-1.3084349593495932e-2 9.567553118338697e-19 -1.5625e-2c 7.240853658536585e-3,-2.5406504065040646e-3 2.4009146341463415e-2,2.540650406504063e-3 3.125e-2 1.9135106236677394e-18c 7.240853658536588e-3,-2.5406504065040646e-3 4.954268292682929e-3,-1.2703252032520325e-2 9.567553118338697e-19 -1.5625e-2c -4.954268292682926e-3,-2.9217479674796755e-3 -1.2576219512195121e-2,1.3973577235772408e-3 -1.5625e-2 -9.567553118338697e-19c -3.0487804878048786e-3,-1.397357723577235e-3 -1.5243902439024389e-3,-8.51117886178862e-3 9.567553118338697e-19 -1.5625e-2c 7.113821138211383e-3,1.5243902439024389e-3 1.4227642276422765e-2,3.0487804878048777e-3 1.5625e-2 0.0c 1.3973577235772347e-3,-3.0487804878048777e-3 -2.921747967479675e-3,-1.0670731707317074e-2 0.0 -1.5625e-2c 2.921747967479675e-3,-4.954268292682928e-3 1.3084349593495932e-2,-7.240853658536588e-3 1.5625e-2 0.0c 2.540650406504065e-3,7.240853658536585e-3 -2.5406504065040615e-3,2.4009146341463415e-2 0.0 3.125e-2c 2.540650406504065e-3,7.240853658536588e-3 1.2703252032520325e-2,4.954268292682928e-3 1.5625e-2 0.0c 2.921747967479675e-3,-4.954268292682926e-3 -1.3973577235772416e-3,-1.2576219512195121e-2 0.0 -1.5625e-2c 1.3973577235772347e-3,-3.0487804878048786e-3 8.51117886178862e-3,-1.5243902439024393e-3 1.5625e-2 0.0c -3.048780487804877e-3,1.4227642276422765e-2 -6.097560975609754e-3,2.845528455284553e-2 1.9135106236677394e-18 3.125e-2c 6.0975609756097554e-3,2.794715447154469e-3 2.1341463414634148e-2,-5.843495934959352e-3 3.125e-2 -1.9135106236677394e-18c 9.908536585365856e-3,5.843495934959349e-3 1.4481707317073178e-2,2.6168699186991863e-2 1.9135106236677394e-18 3.125e-2c -1.448170731707317e-2,5.081300813008131e-3 -4.801829268292683e-2,-5.08130081300812e-3 -6.25e-2 3.827021247335479e-18c -1.4481707317073177e-2,5.081300813008131e-3 -9.908536585365854e-3,2.540650406504065e-2 1.9135106236677394e-18 3.125e-2c 9.908536585365852e-3,5.843495934959349e-3 2.5152439024390242e-2,-2.794715447154485e-3 3.125e-2 -1.9135106236677394e-18c 6.097560975609757e-3,2.794715447154469e-3 3.0487804878048795e-3,1.702235772357724e-2 1.9135106236677394e-18 3.125e-2c 1.4227642276422765e-2,3.048780487804877e-3 2.845528455284553e-2,6.097560975609754e-3 3.125e-2 -1.9135106236677394e-18c 2.794715447154469e-3,-6.0975609756097554e-3 -5.843495934959352e-3,-2.1341463414634148e-2 -1.9135106236677394e-18 -3.125e-2c 5.843495934959349e-3,-9.908536585365856e-3 2.6168699186991863e-2,-1.4481707317073178e-2 3.125e-2 -1.9135106236677394e-18c 5.081300813008131e-3,1.448170731707317e-2 -5.08130081300812e-3,4.801829268292683e-2 3.827021247335479e-18 6.25e-2c 5.081300813008131e-3,1.4481707317073177e-2 2.540650406504065e-2,9.908536585365854e-3 3.125e-2 -1.9135106236677394e-18c 5.843495934959349e-3,-9.908536585365852e-3 -2.794715447154485e-3,-2.5152439024390242e-2 -1.9135106236677394e-18 -3.125e-2c 2.794715447154469e-3,-6.097560975609757e-3 1.702235772357724e-2,-3.0487804878048795e-3 3.125e-2 -1.9135106236677394e-18c -3.048780487804877e-3,1.4227642276422765e-2 -6.097560975609754e-3,2.845528455284553e-2 1.9135106236677394e-18 3.125e-2c 6.0975609756097554e-3,2.794715447154469e-3 2.1341463414634148e-2,-5.843495934959352e-3 3.125e-2 -1.9135106236677394e-18c 9.908536585365856e-3,5.843495934959349e-3 1.4481707317073178e-2,2.6168699186991863e-2 1.9135106236677394e-18 3.125e-2c -1.448170731707317e-2,5.081300813008131e-3 -4.801829268292683e-2,-5.08130081300812e-3 -6.25e-2 3.827021247335479e-18c -1.4481707317073177e-2,5.081300813008131e-3 -9.908536585365854e-3,2.540650406504065e-2 1.9135106236677394e-18 3.125e-2c 9.908536585365852e-3,5.843495934959349e-3 2.5152439024390242e-2,-2.794715447154485e-3 3.125e-2 -1.9135106236677394e-18c 6.097560975609757e-3,2.794715447154469e-3 3.0487804878048795e-3,1.702235772357724e-2 1.9135106236677394e-18 3.125e-2c -2.845528455284553e-2,-6.097560975609752e-3 -5.691056910569106e-2,-1.2195121951219504e-2 -6.25e-2 7.654042494670958e-18c -5.589430894308937e-3,1.2195121951219511e-2 1.1686991869918706e-2,4.2682926829268296e-2 7.654042494670958e-18 6.25e-2c -1.1686991869918699e-2,1.981707317073171e-2 -5.233739837398372e-2,2.896341463414636e-2 -6.25e-2 7.654042494670958e-18c -1.0162601626016263e-2,-2.896341463414634e-2 1.0162601626016234e-2,-9.603658536585366e-2 -1.5308084989341915e-17 -0.125c -1.0162601626016263e-2,-2.8963414634146353e-2 -5.08130081300813e-2,-1.9817073170731704e-2 -6.25e-2 7.654042494670958e-18c -1.1686991869918699e-2,1.9817073170731704e-2 5.589430894308973e-3,5.0304878048780484e-2 7.654042494670958e-18 6.25e-2c -5.589430894308937e-3,1.2195121951219514e-2 -3.404471544715448e-2,6.0975609756097615e-3 -6.25e-2 7.654042494670958e-18c -3.048780487804877e-3,1.4227642276422765e-2 -6.097560975609754e-3,2.845528455284553e-2 1.9135106236677394e-18 3.125e-2c 6.0975609756097554e-3,2.794715447154469e-3 2.1341463414634148e-2,-5.843495934959352e-3 3.125e-2 -1.9135106236677394e-18c 9.908536585365856e-3,5.843495934959349e-3 1.4481707317073178e-2,2.6168699186991863e-2 1.9135106236677394e-18 3.125e-2c -1.448170731707317e-2,5.081300813008131e-3 -4.801829268292683e-2,-5.08130081300812e-3 -6.25e-2 3.827021247335479e-18c -1.4481707317073177e-2,5.081300813008131e-3 -9.908536585365854e-3,2.540650406504065e-2 1.9135106236677394e-18 3.125e-2c 9.908536585365852e-3,5.843495934959349e-3 2.5152439024390242e-2,-2.794715447154485e-3 3.125e-2 -1.9135106236677394e-18c 6.097560975609757e-3,2.794715447154469e-3 3.0487804878048795e-3,1.702235772357724e-2 1.9135106236677394e-18 3.125e-2c 1.4227642276422765e-2,3.048780487804877e-3 2.845528455284553e-2,6.097560975609754e-3 3.125e-2 -1.9135106236677394e-18c 2.794715447154469e-3,-6.0975609756097554e-3 -5.843495934959352e-3,-2.1341463414634148e-2 -1.9135106236677394e-18 -3.125e-2c 5.843495934959349e-3,-9.908536585365856e-3 2.6168699186991863e-2,-1.4481707317073178e-2 3.125e-2 -1.9135106236677394e-18c 5.081300813008131e-3,1.448170731707317e-2 -5.08130081300812e-3,4.801829268292683e-2 3.827021247335479e-18 6.25e-2c 5.081300813008131e-3,1.4481707317073177e-2 2.540650406504065e-2,9.908536585365854e-3 3.125e-2 -1.9135106236677394e-18c 5.843495934959349e-3,-9.908536585365852e-3 -2.794715447154485e-3,-2.5152439024390242e-2 -1.9135106236677394e-18 -3.125e-2c 2.794715447154469e-3,-6.097560975609757e-3 1.702235772357724e-2,-3.0487804878048795e-3 3.125e-2 -1.9135106236677394e-18c -3.048780487804877e-3,1.4227642276422765e-2 -6.097560975609754e-3,2.845528455284553e-2 1.9135106236677394e-18 3.125e-2c 6.0975609756097554e-3,2.794715447154469e-3 2.1341463414634148e-2,-5.843495934959352e-3 3.125e-2 -1.9135106236677394e-18c 9.908536585365856e-3,5.843495934959349e-3 1.4481707317073178e-2,2.6168699186991863e-2 1.9135106236677394e-18 3.125e-2c -1.448170731707317e-2,5.081300813008131e-3 -4.801829268292683e-2,-5.08130081300812e-3 -6.25e-2 3.827021247335479e-18c -1.4481707317073177e-2,5.081300813008131e-3 -9.908536585365854e-3,2.540650406504065e-2 1.9135106236677394e-18 3.125e-2c 9.908536585365852e-3,5.843495934959349e-3 2.5152439024390242e-2,-2.794715447154485e-3 3.125e-2 -1.9135106236677394e-18c 6.097560975609757e-3,2.794715447154469e-3 3.0487804878048795e-3,1.702235772357724e-2 1.9135106236677394e-18 3.125e-2c 7.113821138211383e-3,1.5243902439024389e-3 1.4227642276422765e-2,3.0487804878048777e-3 1.5625e-2 0.0c 1.3973577235772347e-3,-3.0487804878048777e-3 -2.921747967479675e-3,-1.0670731707317074e-2 0.0 -1.5625e-2c 2.921747967479675e-3,-4.954268292682928e-3 1.3084349593495932e-2,-7.240853658536588e-3 1.5625e-2 0.0c 2.540650406504065e-3,7.240853658536585e-3 -2.5406504065040615e-3,2.4009146341463415e-2 0.0 3.125e-2c 2.540650406504065e-3,7.240853658536588e-3 1.2703252032520325e-2,4.954268292682928e-3 1.5625e-2 0.0c 2.921747967479675e-3,-4.954268292682926e-3 -1.3973577235772416e-3,-1.2576219512195121e-2 0.0 -1.5625e-2c 1.3973577235772347e-3,-3.0487804878048786e-3 8.51117886178862e-3,-1.5243902439024393e-3 1.5625e-2 0.0c 1.5243902439024393e-3,-7.113821138211383e-3 3.0487804878048786e-3,-1.4227642276422765e-2 9.567553118338697e-19 -1.5625e-2c -3.0487804878048777e-3,-1.397357723577235e-3 -1.0670731707317074e-2,2.921747967479674e-3 -1.5625e-2 -9.567553118338697e-19c -4.954268292682928e-3,-2.9217479674796755e-3 -7.2408536585365875e-3,-1.3084349593495932e-2 9.567553118338697e-19 -1.5625e-2c 7.240853658536585e-3,-2.5406504065040646e-3 2.4009146341463415e-2,2.540650406504063e-3 3.125e-2 1.9135106236677394e-18c 7.240853658536588e-3,-2.5406504065040646e-3 4.954268292682929e-3,-1.2703252032520325e-2 9.567553118338697e-19 -1.5625e-2c -4.954268292682926e-3,-2.9217479674796755e-3 -1.2576219512195121e-2,1.3973577235772408e-3 -1.5625e-2 -9.567553118338697e-19c -3.0487804878048786e-3,-1.397357723577235e-3 -1.5243902439024389e-3,-8.51117886178862e-3 9.567553118338697e-19 -1.5625e-2c 7.113821138211383e-3,1.5243902439024389e-3 1.4227642276422765e-2,3.0487804878048777e-3 1.5625e-2 0.0c 1.3973577235772347e-3,-3.0487804878048777e-3 -2.921747967479675e-3,-1.0670731707317074e-2 0.0 -1.5625e-2c 2.921747967479675e-3,-4.954268292682928e-3 1.3084349593495932e-2,-7.240853658536588e-3 1.5625e-2 0.0c 2.540650406504065e-3,7.240853658536585e-3 -2.5406504065040615e-3,2.4009146341463415e-2 0.0 3.125e-2c 2.540650406504065e-3,7.240853658536588e-3 1.2703252032520325e-2,4.954268292682928e-3 1.5625e-2 0.0c 2.921747967479675e-3,-4.954268292682926e-3 -1.3973577235772416e-3,-1.2576219512195121e-2 0.0 -1.5625e-2c 1.3973577235772347e-3,-3.0487804878048786e-3 8.51117886178862e-3,-1.5243902439024393e-3 1.5625e-2 0.0c -3.048780487804877e-3,1.4227642276422765e-2 -6.097560975609754e-3,2.845528455284553e-2 1.9135106236677394e-18 3.125e-2c 6.0975609756097554e-3,2.794715447154469e-3 2.1341463414634148e-2,-5.843495934959352e-3 3.125e-2 -1.9135106236677394e-18c 9.908536585365856e-3,5.843495934959349e-3 1.4481707317073178e-2,2.6168699186991863e-2 1.9135106236677394e-18 3.125e-2c -1.448170731707317e-2,5.081300813008131e-3 -4.801829268292683e-2,-5.08130081300812e-3 -6.25e-2 3.827021247335479e-18c -1.4481707317073177e-2,5.081300813008131e-3 -9.908536585365854e-3,2.540650406504065e-2 1.9135106236677394e-18 3.125e-2c 9.908536585365852e-3,5.843495934959349e-3 2.5152439024390242e-2,-2.794715447154485e-3 3.125e-2 -1.9135106236677394e-18c 6.097560975609757e-3,2.794715447154469e-3 3.0487804878048795e-3,1.702235772357724e-2 1.9135106236677394e-18 3.125e-2c 7.113821138211383e-3,1.5243902439024389e-3 1.4227642276422765e-2,3.0487804878048777e-3 1.5625e-2 0.0c 1.3973577235772347e-3,-3.0487804878048777e-3 -2.921747967479675e-3,-1.0670731707317074e-2 0.0 -1.5625e-2c 2.921747967479675e-3,-4.954268292682928e-3 1.3084349593495932e-2,-7.240853658536588e-3 1.5625e-2 0.0c 2.540650406504065e-3,7.240853658536585e-3 -2.5406504065040615e-3,2.4009146341463415e-2 0.0 3.125e-2c 2.540650406504065e-3,7.240853658536588e-3 1.2703252032520325e-2,4.954268292682928e-3 1.5625e-2 0.0c 2.921747967479675e-3,-4.954268292682926e-3 -1.3973577235772416e-3,-1.2576219512195121e-2 0.0 -1.5625e-2c 1.3973577235772347e-3,-3.0487804878048786e-3 8.51117886178862e-3,-1.5243902439024393e-3 1.5625e-2 0.0c 1.5243902439024393e-3,-7.113821138211383e-3 3.0487804878048786e-3,-1.4227642276422765e-2 9.567553118338697e-19 -1.5625e-2c -3.0487804878048777e-3,-1.397357723577235e-3 -1.0670731707317074e-2,2.921747967479674e-3 -1.5625e-2 -9.567553118338697e-19c -4.954268292682928e-3,-2.9217479674796755e-3 -7.2408536585365875e-3,-1.3084349593495932e-2 9.567553118338697e-19 -1.5625e-2c 7.240853658536585e-3,-2.5406504065040646e-3 2.4009146341463415e-2,2.540650406504063e-3 3.125e-2 1.9135106236677394e-18c 7.240853658536588e-3,-2.5406504065040646e-3 4.954268292682929e-3,-1.2703252032520325e-2 9.567553118338697e-19 -1.5625e-2c -4.954268292682926e-3,-2.9217479674796755e-3 -1.2576219512195121e-2,1.3973577235772408e-3 -1.5625e-2 -9.567553118338697e-19c -3.0487804878048786e-3,-1.397357723577235e-3 -1.5243902439024389e-3,-8.51117886178862e-3 9.567553118338697e-19 -1.5625e-2c 7.113821138211383e-3,1.5243902439024389e-3 1.4227642276422765e-2,3.0487804878048777e-3 1.5625e-2 0.0c 1.3973577235772347e-3,-3.0487804878048777e-3 -2.921747967479675e-3,-1.0670731707317074e-2 0.0 -1.5625e-2c 2.921747967479675e-3,-4.954268292682928e-3 1.3084349593495932e-2,-7.240853658536588e-3 1.5625e-2 0.0c 2.540650406504065e-3,7.240853658536585e-3 -2.5406504065040615e-3,2.4009146341463415e-2 0.0 3.125e-2c 2.540650406504065e-3,7.240853658536588e-3 1.2703252032520325e-2,4.954268292682928e-3 1.5625e-2 0.0c 2.921747967479675e-3,-4.954268292682926e-3 -1.3973577235772416e-3,-1.2576219512195121e-2 0.0 -1.5625e-2c 1.3973577235772347e-3,-3.0487804878048786e-3 8.51117886178862e-3,-1.5243902439024393e-3 1.5625e-2 0.0c 1.5243902439024393e-3,-7.113821138211383e-3 3.0487804878048786e-3,-1.4227642276422765e-2 9.567553118338697e-19 -1.5625e-2c -3.0487804878048777e-3,-1.397357723577235e-3 -1.0670731707317074e-2,2.921747967479674e-3 -1.5625e-2 -9.567553118338697e-19c -4.954268292682928e-3,-2.9217479674796755e-3 -7.2408536585365875e-3,-1.3084349593495932e-2 9.567553118338697e-19 -1.5625e-2c 7.240853658536585e-3,-2.5406504065040646e-3 2.4009146341463415e-2,2.540650406504063e-3 3.125e-2 1.9135106236677394e-18c 7.240853658536588e-3,-2.5406504065040646e-3 4.954268292682929e-3,-1.2703252032520325e-2 9.567553118338697e-19 -1.5625e-2c -4.954268292682926e-3,-2.9217479674796755e-3 -1.2576219512195121e-2,1.3973577235772408e-3 -1.5625e-2 -9.567553118338697e-19c -3.0487804878048786e-3,-1.397357723577235e-3 -1.5243902439024389e-3,-8.51117886178862e-3 9.567553118338697e-19 -1.5625e-2c -7.113821138211383e-3,-1.5243902439024397e-3 -1.4227642276422765e-2,-3.0487804878048795e-3 -1.5625e-2 -1.9135106236677394e-18c -1.3973577235772351e-3,3.0487804878048777e-3 2.9217479674796738e-3,1.0670731707317074e-2 -1.9135106236677394e-18 1.5625e-2c -2.9217479674796755e-3,4.954268292682928e-3 -1.3084349593495933e-2,7.240853658536587e-3 -1.5625e-2 -1.9135106236677394e-18c -2.540650406504064e-3,-7.240853658536585e-3 2.5406504065040646e-3,-2.4009146341463415e-2 3.827021247335479e-18 -3.125e-2c -2.540650406504064e-3,-7.240853658536588e-3 -1.2703252032520325e-2,-4.9542682926829295e-3 -1.5625e-2 -1.9135106236677394e-18c -2.9217479674796755e-3,4.954268292682926e-3 1.3973577235772401e-3,1.2576219512195121e-2 -1.9135106236677394e-18 1.5625e-2c -1.3973577235772351e-3,3.0487804878048786e-3 -8.51117886178862e-3,1.5243902439024382e-3 -1.5625e-2 -1.9135106236677394e-18c 1.5243902439024393e-3,-7.113821138211383e-3 3.0487804878048786e-3,-1.4227642276422765e-2 9.567553118338697e-19 -1.5625e-2c -3.0487804878048777e-3,-1.397357723577235e-3 -1.0670731707317074e-2,2.921747967479674e-3 -1.5625e-2 -9.567553118338697e-19c -4.954268292682928e-3,-2.9217479674796755e-3 -7.2408536585365875e-3,-1.3084349593495932e-2 9.567553118338697e-19 -1.5625e-2c 7.240853658536585e-3,-2.5406504065040646e-3 2.4009146341463415e-2,2.540650406504063e-3 3.125e-2 1.9135106236677394e-18c 7.240853658536588e-3,-2.5406504065040646e-3 4.954268292682929e-3,-1.2703252032520325e-2 9.567553118338697e-19 -1.5625e-2c -4.954268292682926e-3,-2.9217479674796755e-3 -1.2576219512195121e-2,1.3973577235772408e-3 -1.5625e-2 -9.567553118338697e-19c -3.0487804878048786e-3,-1.397357723577235e-3 -1.5243902439024389e-3,-8.51117886178862e-3 9.567553118338697e-19 -1.5625e-2c 1.4227642276422765e-2,3.0487804878048786e-3 2.845528455284553e-2,6.097560975609757e-3 3.125e-2 1.9135106236677394e-18c 2.79471544715447e-3,-6.0975609756097554e-3 -5.843495934959348e-3,-2.1341463414634148e-2 1.9135106236677394e-18 -3.125e-2c 5.843495934959351e-3,-9.908536585365856e-3 2.6168699186991863e-2,-1.4481707317073175e-2 3.125e-2 1.9135106236677394e-18c 5.081300813008129e-3,1.448170731707317e-2 -5.081300813008126e-3,4.801829268292683e-2 -3.827021247335479e-18 6.25e-2c 5.081300813008129e-3,1.4481707317073177e-2 2.540650406504065e-2,9.908536585365857e-3 3.125e-2 1.9135106236677394e-18c 5.843495934959351e-3,-9.908536585365852e-3 -2.7947154471544815e-3,-2.5152439024390242e-2 1.9135106236677394e-18 -3.125e-2c 2.79471544715447e-3,-6.097560975609757e-3 1.702235772357724e-2,-3.0487804878048777e-3 3.125e-2 1.9135106236677394e-18c 1.5243902439024393e-3,-7.113821138211383e-3 3.0487804878048786e-3,-1.4227642276422765e-2 9.567553118338697e-19 -1.5625e-2c -3.0487804878048777e-3,-1.397357723577235e-3 -1.0670731707317074e-2,2.921747967479674e-3 -1.5625e-2 -9.567553118338697e-19c -4.954268292682928e-3,-2.9217479674796755e-3 -7.2408536585365875e-3,-1.3084349593495932e-2 9.567553118338697e-19 -1.5625e-2c 7.240853658536585e-3,-2.5406504065040646e-3 2.4009146341463415e-2,2.540650406504063e-3 3.125e-2 1.9135106236677394e-18c 7.240853658536588e-3,-2.5406504065040646e-3 4.954268292682929e-3,-1.2703252032520325e-2 9.567553118338697e-19 -1.5625e-2c -4.954268292682926e-3,-2.9217479674796755e-3 -1.2576219512195121e-2,1.3973577235772408e-3 -1.5625e-2 -9.567553118338697e-19c -3.0487804878048786e-3,-1.397357723577235e-3 -1.5243902439024389e-3,-8.51117886178862e-3 9.567553118338697e-19 -1.5625e-2c -7.113821138211383e-3,-1.5243902439024397e-3 -1.4227642276422765e-2,-3.0487804878048795e-3 -1.5625e-2 -1.9135106236677394e-18c -1.3973577235772351e-3,3.0487804878048777e-3 2.9217479674796738e-3,1.0670731707317074e-2 -1.9135106236677394e-18 1.5625e-2c -2.9217479674796755e-3,4.954268292682928e-3 -1.3084349593495933e-2,7.240853658536587e-3 -1.5625e-2 -1.9135106236677394e-18c -2.540650406504064e-3,-7.240853658536585e-3 2.5406504065040646e-3,-2.4009146341463415e-2 3.827021247335479e-18 -3.125e-2c -2.540650406504064e-3,-7.240853658536588e-3 -1.2703252032520325e-2,-4.9542682926829295e-3 -1.5625e-2 -1.9135106236677394e-18c -2.9217479674796755e-3,4.954268292682926e-3 1.3973577235772401e-3,1.2576219512195121e-2 -1.9135106236677394e-18 1.5625e-2c -1.3973577235772351e-3,3.0487804878048786e-3 -8.51117886178862e-3,1.5243902439024382e-3 -1.5625e-2 -1.9135106236677394e-18c 1.5243902439024393e-3,-7.113821138211383e-3 3.0487804878048786e-3,-1.4227642276422765e-2 9.567553118338697e-19 -1.5625e-2c -3.0487804878048777e-3,-1.397357723577235e-3 -1.0670731707317074e-2,2.921747967479674e-3 -1.5625e-2 -9.567553118338697e-19c -4.954268292682928e-3,-2.9217479674796755e-3 -7.2408536585365875e-3,-1.3084349593495932e-2 9.567553118338697e-19 -1.5625e-2c 7.240853658536585e-3,-2.5406504065040646e-3 2.4009146341463415e-2,2.540650406504063e-3 3.125e-2 1.9135106236677394e-18c 7.240853658536588e-3,-2.5406504065040646e-3 4.954268292682929e-3,-1.2703252032520325e-2 9.567553118338697e-19 -1.5625e-2c -4.954268292682926e-3,-2.9217479674796755e-3 -1.2576219512195121e-2,1.3973577235772408e-3 -1.5625e-2 -9.567553118338697e-19c -3.0487804878048786e-3,-1.397357723577235e-3 -1.5243902439024389e-3,-8.51117886178862e-3 9.567553118338697e-19 -1.5625e-2c 7.113821138211383e-3,1.5243902439024389e-3 1.4227642276422765e-2,3.0487804878048777e-3 1.5625e-2 0.0c 1.3973577235772347e-3,-3.0487804878048777e-3 -2.921747967479675e-3,-1.0670731707317074e-2 0.0 -1.5625e-2c 2.921747967479675e-3,-4.954268292682928e-3 1.3084349593495932e-2,-7.240853658536588e-3 1.5625e-2 0.0c 2.540650406504065e-3,7.240853658536585e-3 -2.5406504065040615e-3,2.4009146341463415e-2 0.0 3.125e-2c 2.540650406504065e-3,7.240853658536588e-3 1.2703252032520325e-2,4.954268292682928e-3 1.5625e-2 0.0c 2.921747967479675e-3,-4.954268292682926e-3 -1.3973577235772416e-3,-1.2576219512195121e-2 0.0 -1.5625e-2c 1.3973577235772347e-3,-3.0487804878048786e-3 8.51117886178862e-3,-1.5243902439024393e-3 1.5625e-2 0.0c 1.5243902439024393e-3,-7.113821138211383e-3 3.0487804878048786e-3,-1.4227642276422765e-2 9.567553118338697e-19 -1.5625e-2c -3.0487804878048777e-3,-1.397357723577235e-3 -1.0670731707317074e-2,2.921747967479674e-3 -1.5625e-2 -9.567553118338697e-19c -4.954268292682928e-3,-2.9217479674796755e-3 -7.2408536585365875e-3,-1.3084349593495932e-2 9.567553118338697e-19 -1.5625e-2c 7.240853658536585e-3,-2.5406504065040646e-3 2.4009146341463415e-2,2.540650406504063e-3 3.125e-2 1.9135106236677394e-18c 7.240853658536588e-3,-2.5406504065040646e-3 4.954268292682929e-3,-1.2703252032520325e-2 9.567553118338697e-19 -1.5625e-2c -4.954268292682926e-3,-2.9217479674796755e-3 -1.2576219512195121e-2,1.3973577235772408e-3 -1.5625e-2 -9.567553118338697e-19c -3.0487804878048786e-3,-1.397357723577235e-3 -1.5243902439024389e-3,-8.51117886178862e-3 9.567553118338697e-19 -1.5625e-2c 7.113821138211383e-3,1.5243902439024389e-3 1.4227642276422765e-2,3.0487804878048777e-3 1.5625e-2 0.0c 1.3973577235772347e-3,-3.0487804878048777e-3 -2.921747967479675e-3,-1.0670731707317074e-2 0.0 -1.5625e-2c 2.921747967479675e-3,-4.954268292682928e-3 1.3084349593495932e-2,-7.240853658536588e-3 1.5625e-2 0.0c 2.540650406504065e-3,7.240853658536585e-3 -2.5406504065040615e-3,2.4009146341463415e-2 0.0 3.125e-2c 2.540650406504065e-3,7.240853658536588e-3 1.2703252032520325e-2,4.954268292682928e-3 1.5625e-2 0.0c 2.921747967479675e-3,-4.954268292682926e-3 -1.3973577235772416e-3,-1.2576219512195121e-2 0.0 -1.5625e-2c 1.3973577235772347e-3,-3.0487804878048786e-3 8.51117886178862e-3,-1.5243902439024393e-3 1.5625e-2 0.0c -3.048780487804877e-3,1.4227642276422765e-2 -6.097560975609754e-3,2.845528455284553e-2 1.9135106236677394e-18 3.125e-2c 6.0975609756097554e-3,2.794715447154469e-3 2.1341463414634148e-2,-5.843495934959352e-3 3.125e-2 -1.9135106236677394e-18c 9.908536585365856e-3,5.843495934959349e-3 1.4481707317073178e-2,2.6168699186991863e-2 1.9135106236677394e-18 3.125e-2c -1.448170731707317e-2,5.081300813008131e-3 -4.801829268292683e-2,-5.08130081300812e-3 -6.25e-2 3.827021247335479e-18c -1.4481707317073177e-2,5.081300813008131e-3 -9.908536585365854e-3,2.540650406504065e-2 1.9135106236677394e-18 3.125e-2c 9.908536585365852e-3,5.843495934959349e-3 2.5152439024390242e-2,-2.794715447154485e-3 3.125e-2 -1.9135106236677394e-18c 6.097560975609757e-3,2.794715447154469e-3 3.0487804878048795e-3,1.702235772357724e-2 1.9135106236677394e-18 3.125e-2c 7.113821138211383e-3,1.5243902439024389e-3 1.4227642276422765e-2,3.0487804878048777e-3 1.5625e-2 0.0c 1.3973577235772347e-3,-3.0487804878048777e-3 -2.921747967479675e-3,-1.0670731707317074e-2 0.0 -1.5625e-2c 2.921747967479675e-3,-4.954268292682928e-3 1.3084349593495932e-2,-7.240853658536588e-3 1.5625e-2 0.0c 2.540650406504065e-3,7.240853658536585e-3 -2.5406504065040615e-3,2.4009146341463415e-2 0.0 3.125e-2c 2.540650406504065e-3,7.240853658536588e-3 1.2703252032520325e-2,4.954268292682928e-3 1.5625e-2 0.0c 2.921747967479675e-3,-4.954268292682926e-3 -1.3973577235772416e-3,-1.2576219512195121e-2 0.0 -1.5625e-2c 1.3973577235772347e-3,-3.0487804878048786e-3 8.51117886178862e-3,-1.5243902439024393e-3 1.5625e-2 0.0c 1.5243902439024393e-3,-7.113821138211383e-3 3.0487804878048786e-3,-1.4227642276422765e-2 9.567553118338697e-19 -1.5625e-2c -3.0487804878048777e-3,-1.397357723577235e-3 -1.0670731707317074e-2,2.921747967479674e-3 -1.5625e-2 -9.567553118338697e-19c -4.954268292682928e-3,-2.9217479674796755e-3 -7.2408536585365875e-3,-1.3084349593495932e-2 9.567553118338697e-19 -1.5625e-2c 7.240853658536585e-3,-2.5406504065040646e-3 2.4009146341463415e-2,2.540650406504063e-3 3.125e-2 1.9135106236677394e-18c 7.240853658536588e-3,-2.5406504065040646e-3 4.954268292682929e-3,-1.2703252032520325e-2 9.567553118338697e-19 -1.5625e-2c -4.954268292682926e-3,-2.9217479674796755e-3 -1.2576219512195121e-2,1.3973577235772408e-3 -1.5625e-2 -9.567553118338697e-19c -3.0487804878048786e-3,-1.397357723577235e-3 -1.5243902439024389e-3,-8.51117886178862e-3 9.567553118338697e-19 -1.5625e-2c 7.113821138211383e-3,1.5243902439024389e-3 1.4227642276422765e-2,3.0487804878048777e-3 1.5625e-2 0.0c 1.3973577235772347e-3,-3.0487804878048777e-3 -2.921747967479675e-3,-1.0670731707317074e-2 0.0 -1.5625e-2c 2.921747967479675e-3,-4.954268292682928e-3 1.3084349593495932e-2,-7.240853658536588e-3 1.5625e-2 0.0c 2.540650406504065e-3,7.240853658536585e-3 -2.5406504065040615e-3,2.4009146341463415e-2 0.0 3.125e-2c 2.540650406504065e-3,7.240853658536588e-3 1.2703252032520325e-2,4.954268292682928e-3 1.5625e-2 0.0c 2.921747967479675e-3,-4.954268292682926e-3 -1.3973577235772416e-3,-1.2576219512195121e-2 0.0 -1.5625e-2c 1.3973577235772347e-3,-3.0487804878048786e-3 8.51117886178862e-3,-1.5243902439024393e-3 1.5625e-2 0.0" /></g><path d="M -1.1,0.0 c 0.11382113821138212,2.4390243902439022e-2 0.22764227642276424,4.8780487804878044e-2 0.25 0.0c 2.2357723577235755e-2,-4.8780487804878044e-2 -4.67479674796748e-2,-0.17073170731707318 0.0 -0.25c 4.67479674796748e-2,-7.926829268292684e-2 0.2093495934959349,-0.11585365853658541 0.25 0.0c 4.065040650406504e-2,0.11585365853658536 -4.0650406504064984e-2,0.38414634146341464 0.0 0.5c 4.065040650406504e-2,0.11585365853658541 0.2032520325203252,7.926829268292684e-2 0.25 0.0c 4.67479674796748e-2,-7.926829268292682e-2 -2.2357723577235866e-2,-0.20121951219512194 0.0 -0.25c 2.2357723577235755e-2,-4.878048780487806e-2 0.13617886178861793,-2.439024390243903e-2 0.25 0.0" /></g></g></g></g></svg>