<?xml version="1.0" encoding="UTF-8"?>
<!DOCTYPE svg PUBLIC "-//W3C//DTD SVG 1.1//EN"
    "http://www.w3.org/Graphics/SVG/1.1/DTD/svg11.dtd">
<svg xmlns="http://www.w3.org/2000/svg" xmlns:xlink="http://www.w3.org/1999/xlink" version="1.1" width="200.0" height="470.9401076758498" font-size="1" viewBox="0 0 200 471" stroke="rgb(0,0,0)" stroke-opacity="1"><g><g fill="rgb(0,0,0)" fill-opacity="0.0"><g stroke="rgb(0,0,0)" stroke-opacity="1.0" stroke-width="1.2276026818815282" stroke-linecap="butt" stroke-linejoin="miter" font-size="1.0em" stroke-miterlimit="10.0"><g><path d="M 0.0,470.9401076758498 h 2.469135802469133 l 1.2345679012345667,-2.1383343303319444 l 1.2345679012345667,2.1383343303319444 h 2.469135802469133 l 1.2345679012345667,-2.1383343303319444 l -1.2345679012345658,-2.138334330331945 l 2.469135802469133,-1.734723475976805e-16 l 1.2345679012345667,-2.1383343303319444 l 1.2345679012345667,2.1383343303319444 l 2.469135802469133,1.734723475976805e-16 l -1.2345679012345658,2.138334330331945 l 1.2345679012345667,2.1383343303319444 h 2.469135802469133 l 1.2345679012345667,-2.1383343303319444 l 1.2345679012345667,2.1383343303319444 h 2.469135802469133 l 1.2345679012345667,-2.1383343303319444 l -1.2345679012345658,-2.138334330331945 l 2.469135802469133,-1.734723475976805e-16 l 1.2345679012345667,-2.1383343303319444 l -1.234567901234565,-2.1383343303319458 l -2.469135802469133,-2.081668171172166e-15 l 1.2345679012345676,-2.138334330331944 l -1.234567901234565,-2.1383343303319458 h 2.469135802469133 l 1.2345679012345667,-2.1383343303319444 l 1.2345679012345667,2.1383343303319444 h 2.469135802469133 l 1.2345679012345667,-2.1383343303319444 l -1.2345679012345658,-2.138334330331945 l 2.469135802469133,-1.734723475976805e-16 l 1.2345679012345667,-2.1383343303319444 l 1.2345679012345667,2.1383343303319444 l 2.469135802469133,1.734723475976805e-16 l -1.2345679012345658,2.138334330331945 l 1.2345679012345667,2.1383343303319444 h 2.469135802469133 l 1.2345679012345667,-2.1383343303319444 l 1.2345679012345667,2.1383343303319444 h 2.469135802469133 l -1.234567901234565,2.1383343303319458 l 1.2345679012345676,2.138334330331944 l -2.469135802469133,2.081668171172166e-15 l -1.234567901234565,2.1383343303319458 l 1.2345679012345667,2.1383343303319444 l 2.469135802469133,1.734723475976805e-16 l -1.2345679012345658,2.138334330331945 l 1.2345679012345667,2.1383343303319444 h 2.469135802469133 l 1.2345679012345667,-2.1383343303319444 l 1.2345679012345667,2.1383343303319444 h 2.469135802469133 l 1.2345679012345667,-2.1383343303319444 l -1.2345679012345658,-2.138334330331945 l 2.469135802469133,-1.734723475976805e-16 l 1.2345679012345667,-2.1383343303319444 l 1.2345679012345667,2.1383343303319444 l 2.469135802469133,1.734723475976805e-16 l -1.2345679012345658,2.138334330331945 l 1.2345679012345667,2.1383343303319444 h 2.469135802469133 l 1.2345679012345667,-2.1383343303319444 l 1.2345679012345667,2.1383343303319444 h 2.469135802469133 l 1.2345679012345667,-2.1383343303319444 l -1.2345679012345658,-2.138334330331945 l 2.469135802469133,-1.734723475976805e-16 l 1.2345679012345667,-2.1383343303319444 l -1.234567901234565,-2.1383343303319458 l -2.469135802469133,-2.081668171172166e-15 l 1.2345679012345676,-2.138334330331944 l -1.234567901234565,-2.1383343303319458 h 2.469135802469133 l 1.2345679012345667,-2.1383343303319444 l 1.2345679012345667,2.1383343303319444 h 2.469135802469133 l 1.2345679012345667,-2.1383343303319444 l -1.2345679012345658,-2.138334330331945 l 2.469135802469133,-1.734723475976805e-16 l 1.2345679012345667,-2.1383343303319444 l -1.234567901234565,-2.1383343303319458 l -2.4691358024691326,-2.081668171172166e-15 l 1.2345679012345674,-2.138334330331944 l -1.234567901234565,-2.1383343303319458 l -2.469135802469133,-2.4954150607774306e-15 l -1.234567901234569,2.138334330331943 l -1.2345679012345647,-2.1383343303319458 l -2.469135802469133,-2.4954150607774306e-15 l 1.2345679012345674,-2.138334330331944 l -1.2345679012345647,-2.1383343303319453 l 2.4691358024691326,6.93889390390722e-16 l 1.2345679012345674,-2.138334330331944 l -1.234567901234565,-2.1383343303319458 l -2.4691358024691326,-2.081668171172166e-15 l 1.2345679012345674,-2.138334330331944 l -1.234567901234565,-2.1383343303319458 h 2.469135802469133 l 1.2345679012345667,-2.1383343303319444 l 1.2345679012345667,2.1383343303319444 h 2.469135802469133 l 1.2345679012345667,-2.1383343303319444 l -1.2345679012345658,-2.138334330331945 l 2.469135802469133,-1.734723475976805e-16 l 1.2345679012345667,-2.1383343303319444 l 1.2345679012345667,2.1383343303319444 l 2.469135802469133,1.734723475976805e-16 l -1.2345679012345658,2.138334330331945 l 1.2345679012345667,2.1383343303319444 h 2.469135802469133 l 1.2345679012345667,-2.1383343303319444 l 1.2345679012345667,2.1383343303319444 h 2.469135802469133 l 1.2345679012345667,-2.1383343303319444 l -1.2345679012345658,-2.138334330331945 l 2.469135802469133,-1.734723475976805e-16 l 1.2345679012345667,-2.1383343303319444 l -1.234567901234565,-2.1383343303319458 l -2.469135802469133,-2.081668171172166e-15 l 1.2345679012345676,-2.138334330331944 l -1.234567901234565,-2.1383343303319458 h 2.469135802469133 l 1.2345679012345667,-2.1383343303319444 l 1.2345679012345667,2.1383343303319444 h 2.469135802469133 l 1.2345679012345667,-2.1383343303319444 l -1.2345679012345658,-2.138334330331945 l 2.469135802469133,-1.734723475976805e-16 l 1.2345679012345667,-2.1383343303319444 l 1.2345679012345667,2.1383343303319444 l 2.469135802469133,1.734723475976805e-16 l -1.2345679012345658,2.138334330331945 l 1.2345679012345667,2.1383343303319444 h 2.469135802469133 l 1.2345679012345667,-2.1383343303319444 l 1.2345679012345667,2.1383343303319444 h 2.469135802469133 l -1.234567901234565,2.1383343303319458 l 1.2345679012345676,2.138334330331944 l -2.469135802469133,2.081668171172166e-15 l -1.234567901234565,2.1383343303319458 l 1.2345679012345667,2.1383343303319444 l 2.469135802469133,1.734723475976805e-16 l -1.2345679012345658,2.138334330331945 l 1.2345679012345667,2.1383343303319444 h 2.469135802469133 l 1.2345679012345667,-2.1383343303319444 l 1.2345679012345667,2.1383343303319444 h 2.469135802469133 l 1.2345679012345667,-2.1383343303319444 l -1.2345679012345658,-2.138334330331945 l 2.469135802469133,-1.734723475976805e-16 l 1.2345679012345667,-2.1383343303319444 l 1.2345679012345667,2.1383343303319444 l 2.469135802469133,1.734723475976805e-16 l -1.2345679012345658,2.138334330331945 l 1.2345679012345667,2.1383343303319444 h 2.469135802469133 l 1.2345679012345667,-2.1383343303319444 l 1.2345679012345667,2.1383343303319444 h 2.469135802469133 l -1.234567901234565,2.1383343303319458 l 1.2345679012345674,2.138334330331944 l -2.4691358024691326,2.081668171172166e-15 l -1.234567901234565,2.1383343303319458 l 1.2345679012345674,2.138334330331944 l 2.4691358024691326,-6.93889390390722e-16 l -1.2345679012345647,2.1383343303319453 l 1.2345679012345674,2.138334330331944 l -2.469135802469133,2.4954150607774306e-15 l -1.2345679012345647,2.1383343303319458 l -1.234567901234569,-2.138334330331943 l -2.469135802469133,2.4954150607774306e-15 l -1.234567901234565,2.1383343303319458 l 1.2345679012345674,2.138334330331944 l -2.4691358024691326,2.081668171172166e-15 l -1.234567901234565,2.1383343303319458 l 1.2345679012345667,2.1383343303319444 l 2.469135802469133,1.734723475976805e-16 l -1.2345679012345658,2.138334330331945 l 1.2345679012345667,2.1383343303319444 h 2.469135802469133 l 1.2345679012345667,-2.1383343303319444 l 1.2345679012345667,2.1383343303319444 h 2.469135802469133 l -1.234567901234565,2.1383343303319458 l 1.2345679012345676,2.138334330331944 l -2.469135802469133,2.081668171172166e-15 l -1.234567901234565,2.1383343303319458 l 1.2345679012345667,2.1383343303319444 l 2.469135802469133,1.734723475976805e-16 l -1.2345679012345658,2.138334330331945 l 1.2345679012345667,2.1383343303319444 h 2.469135802469133 l 1.2345679012345667,-2.1383343303319444 l 1.2345679012345667,2.1383343303319444 h 2.469135802469133 l 1.2345679012345667,-2.1383343303319444 l -1.2345679012345658,-2.138334330331945 l 2.469135802469133,-1.734723475976805e-16 l 1.2345679012345667,-2.1383343303319444 l 1.2345679012345667,2.1383343303319444 l 2.469135802469133,1.734723475976805e-16 l -1.2345679012345658,2.138334330331945 l 1.2345679012345667,2.1383343303319444 h 2.469135802469133 l 1.2345679012345667,-2.1383343303319444 l 1.2345679012345667,2.1383343303319444 h 2.469135802469133 l 1.2345679012345667,-2.1383343303319444 l -1.2345679012345658,-2.138334330331945 l 2.469135802469133,-1.734723475976805e-16 l 1.2345679012345667,-2.1383343303319444 l -1.234567901234565,-2.1383343303319458 l -2.469135802469133,-2.081668171172166e-15 l 1.2345679012345676,-2.138334330331944 l -1.234567901234565,-2.1383343303319458 h 2.469135802469133 l 1.2345679012345667,-2.1383343303319444 l 1.2345679012345667,2.1383343303319444 h 2.469135802469133 l 1.2345679012345667,-2.1383343303319444 l -1.2345679012345658,-2.138334330331945 l 2.469135802469133,-1.734723475976805e-16 l 1.2345679012345667,-2.1383343303319444 l 1.2345679012345667,2.1383343303319444 l 2.469135802469133,1.734723475976805e-16 l -1.2345679012345658,2.138334330331945 l 1.2345679012345667,2.1383343303319444 h 2.469135802469133 l 1.2345679012345667,-2.1383343303319444 l 1.2345679012345667,2.1383343303319444 h 2.469135802469133 l -1.234567901234565,2.1383343303319458 l 1.2345679012345676,2.138334330331944 l -2.469135802469133,2.081668171172166e-15 l -1.234567901234565,2.1383343303319458 l 1.2345679012345667,2.1383343303319444 l 2.469135802469133,1.734723475976805e-16 l -1.2345679012345658,2.138334330331945 l 1.2345679012345667,2.1383343303319444 h 2.469135802469133 l 1.2345679012345667,-2.1383343303319444 l 1.2345679012345667,2.1383343303319444 h 2.469135802469133 l 1.2345679012345667,-2.1383343303319444 l -1.2345679012345658,-2.138334330331945 l 2.469135802469133,-1.734723475976805e-16 l 1.2345679012345667,-2.1383343303319444 l 1.2345679012345667,2.1383343303319444 l 2.469135802469133,1.734723475976805e-16 l -1.2345679012345658,2.138334330331945 l 1.2345679012345667,2.1383343303319444 h 2.469135802469133 l 1.2345679012345667,-2.1383343303319444 l 1.2345679012345667,2.1383343303319444 h 2.469135802469133 " /></g><g><g><path d="M 0.0,353.20508075688736 h 7.407407407407399 l 3.7037037037037,-6.415002990995834 l 3.7037037037037,6.415002990995834 h 7.407407407407399 l 3.7037037037037,-6.415002990995834 l -3.703703703703698,-6.415002990995835 h 7.407407407407399 l 3.7037037037037,-6.415002990995834 l 3.7037037037037,6.415002990995834 h 7.407407407407399 l -3.703703703703698,6.415002990995835 l 3.7037037037037,6.415002990995834 h 7.407407407407399 l 3.7037037037037,-6.415002990995834 l 3.7037037037037,6.415002990995834 h 7.407407407407399 l 3.7037037037037,-6.415002990995834 l -3.703703703703698,-6.415002990995835 h 7.407407407407399 l 3.7037037037037,-6.415002990995834 l -3.7037037037036944,-6.415002990995837 l -7.407407407407399,-6.2450045135164984e-15 l 3.703703703703703,-6.4150029909958315 l -3.7037037037036944,-6.415002990995837 h 7.407407407407399 l 3.7037037037037,-6.415002990995834 l 3.7037037037037,6.415002990995834 h 7.407407407407399 l 3.7037037037037,-6.415002990995834 l -3.703703703703698,-6.415002990995835 h 7.407407407407399 l 3.7037037037037,-6.415002990995834 l 3.7037037037037,6.415002990995834 h 7.407407407407399 l -3.703703703703698,6.415002990995835 l 3.7037037037037,6.415002990995834 h 7.407407407407399 l 3.7037037037037,-6.415002990995834 l 3.7037037037037,6.415002990995834 h 7.407407407407399 l -3.7037037037036944,6.415002990995837 l 3.703703703703703,6.4150029909958315 l -7.407407407407399,6.2450045135164984e-15 l -3.7037037037036944,6.415002990995837 l 3.7037037037037,6.415002990995834 h 7.407407407407399 l -3.703703703703698,6.415002990995835 l 3.7037037037037,6.415002990995834 h 7.407407407407399 l 3.7037037037037,-6.415002990995834 l 3.7037037037037,6.415002990995834 h 7.407407407407399 l 3.7037037037037,-6.415002990995834 l -3.703703703703698,-6.415002990995835 h 7.407407407407399 l 3.7037037037037,-6.415002990995834 l 3.7037037037037,6.415002990995834 h 7.407407407407399 l -3.703703703703698,6.415002990995835 l 3.7037037037037,6.415002990995834 h 7.407407407407399 l 3.7037037037037,-6.415002990995834 l 3.7037037037037,6.415002990995834 h 7.407407407407399 " /></g><path d="M 0.0,235.4700538379249 h 22.222222222222197 l 11.1111111111111,-19.245008972987502 l 11.1111111111111,19.245008972987502 h 22.222222222222197 l 11.1111111111111,-19.245008972987502 l -11.111111111111093,-19.245008972987506 h 22.222222222222197 l 11.1111111111111,-19.245008972987502 l 11.1111111111111,19.245008972987502 h 22.222222222222197 l -11.111111111111093,19.245008972987506 l 11.1111111111111,19.245008972987502 h 22.222222222222197 l 11.1111111111111,-19.245008972987502 l 11.1111111111111,19.245008972987502 h 22.222222222222197 " /></g><g><path d="M 0.0,117.73502691896245 h 66.66666666666659 l 33.3333333333333,-57.73502691896251 l 33.3333333333333,57.73502691896251 h 66.66666666666659 " /></g><path d="M 0.0,0.0 h 199.99999999999977 " /></g></g></g></svg>