<?xml version="1.0" encoding="UTF-8"?>
<!DOCTYPE svg PUBLIC "-//W3C//DTD SVG 1.1//EN"
    "http://www.w3.org/Graphics/SVG/1.1/DTD/svg11.dtd"><svg xmlns="http://www.w3.org/2000/svg" height="100.0" stroke-opacity="1" viewBox="0 0 200 100" font-size="1" width="200.0" xmlns:xlink="http://www.w3.org/1999/xlink" stroke="rgb(0,0,0)" version="1.1"><g><defs></defs><g stroke-linejoin="miter" stroke-opacity="1.0" fill-opacity="0.0" stroke="rgb(0,0,0)" stroke-width="0.565685424949238" fill="rgb(0,0,0)" stroke-linecap="butt" stroke-miterlimit="10.0"><path d="M 200.0,100.0 l -1.1102230246251565e-14,-100.0 h -100.0 l -1.1102230246251565e-14,100.0 Z"/></g><defs></defs><g stroke-linejoin="miter" stroke-opacity="1.0" fill-opacity="1.0" stroke="rgb(0,0,0)" stroke-width="0.0" fill="rgb(255,255,89)" stroke-linecap="butt" stroke-miterlimit="10.0"><path d="M 161.04899379850616,63.22872769316131 l -11.048993798506157,19.13741863152611 l -11.048993798506162,-19.137418631526106 Z"/></g><defs></defs><g stroke-linejoin="miter" stroke-opacity="1.0" fill-opacity="1.0" stroke="rgb(0,0,0)" stroke-width="0.0" fill="rgb(89,89,255)" stroke-linecap="butt" stroke-miterlimit="10.0"><path d="M 159.90867003435454,57.86392617777975 l 5.890173781772902,2.622474329097555 l -0.6739575011154093,6.412277292269169 l -6.30670242443517,1.3405309828139367 l -3.2237989541168917,-5.583783581917855 Z"/></g><defs></defs><g stroke-linejoin="miter" stroke-opacity="1.0" fill-opacity="1.0" stroke="rgb(0,0,0)" stroke-width="0.0" fill="rgb(0,0,0)" stroke-linecap="butt" stroke-miterlimit="10.0"><path d="M 157.80643589287615,58.31076983871773 c -0.24678493949460775,-1.161031856912146 0.4943586236282655,-2.302292862921762 1.655390480540411 -2.5490778024163694c 1.161031856912146,-0.24678493949460778 2.302292862921762,0.4943586236282652 2.5490778024163703 1.655390480540411c 0.24678493949460786,1.1610318569121458 -0.49435862362826494,2.302292862921762 -1.6553904805404105 2.5490778024163694c -1.1610318569121458,0.24678493949460792 -2.302292862921762,-0.49435862362826494 -2.5490778024163703 -1.655390480540411Z"/></g><defs></defs><g stroke-linejoin="miter" stroke-opacity="1.0" fill-opacity="1.0" stroke="rgb(0,0,0)" stroke-width="0.0" fill="rgb(0,0,0)" stroke-linecap="butt" stroke-miterlimit="10.0"><path d="M 155.36973243608816,64.79285096413228 c -1.1804676534021858,-0.12407214996670364 -2.036845413684624,-1.1816106110593412 -1.9127732637179207 -2.362078264461527c 0.12407214996670364,-1.1804676534021858 1.1816106110593412,-2.036845413684624 2.3620782644615264 -1.9127732637179207c 1.1804676534021854,0.12407214996670347 2.036845413684624,1.1816106110593412 1.9127732637179202 2.362078264461526c -0.12407214996670347,1.1804676534021854 -1.1816106110593412,2.036845413684624 -2.362078264461526 1.9127732637179218Z"/></g><defs></defs><g stroke-linejoin="miter" stroke-opacity="1.0" fill-opacity="1.0" stroke="rgb(0,0,0)" stroke-width="0.0" fill="rgb(0,0,0)" stroke-linecap="butt" stroke-miterlimit="10.0"><path d="M 160.78157515116783,69.1133668916596 c -0.4827841929277736,1.084351051175449 -1.7531983191147036,1.572017343819557 -2.837549370290152 1.0892331508917836c -1.084351051175449,-0.4827841929277736 -1.572017343819557,-1.7531983191147036 -1.0892331508917836 -2.837549370290152c 0.4827841929277734,-1.084351051175449 1.7531983191147036,-1.572017343819557 2.837549370290152 -1.089233150891784c 1.084351051175449,0.4827841929277734 1.572017343819557,1.7531983191147036 1.0892331508917836 2.8375493702901524Z"/></g><defs></defs><g stroke-linejoin="miter" stroke-opacity="1.0" fill-opacity="1.0" stroke="rgb(0,0,0)" stroke-width="0.0" fill="rgb(0,0,0)" stroke-linecap="butt" stroke-miterlimit="10.0"><path d="M 166.56298134764356,65.30151145839221 c 0.8820906129416349,0.7942379553298077 0.9533092634525524,2.153170760444157 0.15907130812274498 3.0352613733857914c -0.7942379553298077,0.8820906129416349 -2.153170760444157,0.9533092634525526 -3.0352613733857914 0.15907130812274523c -0.8820906129416349,-0.7942379553298077 -0.9533092634525526,-2.153170760444157 -0.15907130812274545 -3.0352613733857914c 0.7942379553298077,-0.8820906129416349 2.153170760444157,-0.9533092634525527 3.035261373385792 -0.15907130812274506Z"/></g><defs></defs><g stroke-linejoin="miter" stroke-opacity="1.0" fill-opacity="1.0" stroke="rgb(0,0,0)" stroke-width="0.0" fill="rgb(0,0,0)" stroke-linecap="butt" stroke-miterlimit="10.0"><path d="M 164.72424416475513,58.62513931290469 c 1.0279461728829318,-0.5934849996264069 2.342375845718509,-0.2412846302826102 2.9358608453449166 0.7866615426003214c 0.5934849996264071,1.0279461728829318 0.2412846302826102,2.342375845718509 -0.7866615426003212 2.9358608453449158c -1.0279461728829318,0.5934849996264071 -2.342375845718509,0.24128463028261032 -2.9358608453449158 -0.7866615426003212c -0.5934849996264072,-1.0279461728829318 -0.24128463028261046,-2.342375845718509 0.7866615426003203 -2.935860845344916Z"/></g><defs></defs><g stroke-linejoin="miter" stroke-opacity="1.0" fill-opacity="1.0" stroke="rgb(0,0,0)" stroke-width="0.0" fill="rgb(89,89,255)" stroke-linecap="butt" stroke-miterlimit="10.0"><path d="M 134.87511368498798,66.8986777991465 l -0.6739575011154151,-6.412277292269168 l 5.890173781772899,-2.6224743290975594 l 4.314285097894573,4.7914990222628 l -3.2237989541168854,5.583783581917859 Z"/></g><defs></defs><g stroke-linejoin="miter" stroke-opacity="1.0" fill-opacity="1.0" stroke="rgb(0,0,0)" stroke-width="0.0" fill="rgb(0,0,0)" stroke-linecap="butt" stroke-miterlimit="10.0"><path d="M 136.31320871761952,68.49584413990077 c -0.8820906129416342,0.7942379553298086 -2.2410234180559834,0.7230193048188926 -3.035261373385792 -0.1590713081227414c -0.7942379553298087,-0.8820906129416342 -0.7230193048188926,-2.2410234180559834 0.15907130812274117 -3.035261373385792c 0.8820906129416342,-0.7942379553298087 2.2410234180559834,-0.7230193048188929 3.0352613733857914 0.15907130812274092c 0.7942379553298087,0.882090612941634 0.7230193048188929,2.2410234180559834 -0.15907130812274062 3.0352613733857923Z"/></g><defs></defs><g stroke-linejoin="miter" stroke-opacity="1.0" fill-opacity="1.0" stroke="rgb(0,0,0)" stroke-width="0.0" fill="rgb(0,0,0)" stroke-linecap="butt" stroke-miterlimit="10.0"><path d="M 143.14520737001413,67.36505067226125 c 0.4827841929277747,1.0843510511754484 -4.882099716331707e-3,2.3547651773623794 -1.08923315089178 2.837549370290154c -1.0843510511754484,0.4827841929277747 -2.3547651773623794,-4.882099716331587e-3 -2.837549370290154 -1.0892331508917799c -0.48278419292777486,-1.0843510511754484 4.882099716331587e-3,-2.3547651773623794 1.0892331508917796 -2.8375493702901533c 1.0843510511754484,-0.48278419292777486 2.3547651773623794,4.882099716331348e-3 2.8375493702901546 1.089233150891779Z"/></g><defs></defs><g stroke-linejoin="miter" stroke-opacity="1.0" fill-opacity="1.0" stroke="rgb(0,0,0)" stroke-width="0.0" fill="rgb(0,0,0)" stroke-linecap="butt" stroke-miterlimit="10.0"><path d="M 144.18096256316824,60.517999435952845 c 1.1804676534021854,-0.12407214996670483 2.2380061144948242,0.7323056103157324 2.362078264461529 1.9127732637179176c 0.12407214996670483,1.1804676534021854 -0.7323056103157324,2.2380061144948242 -1.9127732637179176 2.362078264461529c -1.1804676534021854,0.12407214996670501 -2.2380061144948242,-0.732305610315732 -2.362078264461529 -1.9127732637179171c -0.12407214996670501,-1.1804676534021854 0.732305610315732,-2.2380061144948242 1.9127732637179176 -2.3620782644615295Z"/></g><defs></defs><g stroke-linejoin="miter" stroke-opacity="1.0" fill-opacity="1.0" stroke="rgb(0,0,0)" stroke-width="0.0" fill="rgb(0,0,0)" stroke-linecap="butt" stroke-miterlimit="10.0"><path d="M 137.98909582416707,57.41708251684179 c 0.24678493949460653,-1.161031856912146 1.3880459455042218,-1.9021754200350207 2.5490778024163676 -1.655390480540414c 1.161031856912146,0.24678493949460648 1.9021754200350207,1.3880459455042218 1.6553904805404145 2.5490778024163676c -0.24678493949460645,1.161031856912146 -1.3880459455042218,1.9021754200350207 -2.549077802416367 1.6553904805404145c -1.161031856912146,-0.24678493949460636 -1.9021754200350207,-1.3880459455042218 -1.6553904805404147 -2.549077802416368Z"/></g><defs></defs><g stroke-linejoin="miter" stroke-opacity="1.0" fill-opacity="1.0" stroke="rgb(0,0,0)" stroke-width="0.0" fill="rgb(0,0,0)" stroke-linecap="butt" stroke-miterlimit="10.0"><path d="M 133.12655653250027,62.347661700849955 c -1.0279461728829324,-0.5934849996264062 -1.3801465422267305,-1.907914672461983 -0.7866615426003245 -2.9358608453449153c 0.5934849996264061,-1.0279461728829324 1.907914672461983,-1.380146542226731 2.9358608453449153 -0.7866615426003247c 1.0279461728829324,0.5934849996264061 1.380146542226731,1.907914672461983 0.7866615426003248 2.9358608453449153c -0.593484999626406,1.0279461728829324 -1.9079146724619829,1.380146542226731 -2.9358608453449153 0.7866615426003247Z"/></g><defs></defs><g stroke-linejoin="miter" stroke-opacity="1.0" fill-opacity="1.0" stroke="rgb(0,0,0)" stroke-width="0.0" fill="rgb(89,89,255)" stroke-linecap="butt" stroke-miterlimit="10.0"><path d="M 155.21621628065748,84.0609977340838 l -5.216216280657487,3.7898029631716117 l -5.216216280657487,-3.7898029631716104 l 1.9924173265405982,-6.132030005076734 l 6.447597908233775,-1.1930452752076895e-15 Z"/></g><defs></defs><g stroke-linejoin="miter" stroke-opacity="1.0" fill-opacity="1.0" stroke="rgb(0,0,0)" stroke-width="0.0" fill="rgb(0,0,0)" stroke-linecap="butt" stroke-miterlimit="10.0"><path d="M 155.88035538950433,82.01698773239154 c 1.1288755524362415,0.36679390158233766 1.746664794427717,1.5792735581028698 1.3798708928453791 2.7081491105391113c -0.3667939015823376,1.1288755524362415 -1.5792735581028698,1.746664794427717 -2.7081491105391113 1.3798708928453793c -1.1288755524362415,-0.3667939015823375 -1.746664794427717,-1.5792735581028696 -1.3798708928453793 -2.708149110539111c 0.36679390158233743,-1.1288755524362415 1.5792735581028696,-1.746664794427717 2.708149110539112 -1.3798708928453802Z"/></g><defs></defs><g stroke-linejoin="miter" stroke-opacity="1.0" fill-opacity="1.0" stroke="rgb(0,0,0)" stroke-width="0.0" fill="rgb(0,0,0)" stroke-linecap="butt" stroke-miterlimit="10.0"><path d="M 151.48506019389774,76.66570007461652 c 0.6976834604744113,-0.9602789012087445 2.041727513400956,-1.173154566303037 3.0020064146097 -0.4754711058286258c 0.9602789012087445,0.6976834604744113 1.173154566303037,2.0417275134009554 0.47547110582862606 3.0020064146097c -0.6976834604744111,0.9602789012087446 -2.0417275134009554,1.173154566303037 -3.0020064146096996 0.47547110582862606c -0.9602789012087446,-0.6976834604744111 -1.1731545663030372,-2.0417275134009554 -0.4754711058286265 -3.0020064146097005Z"/></g><defs></defs><g stroke-linejoin="miter" stroke-opacity="1.0" fill-opacity="1.0" stroke="rgb(0,0,0)" stroke-width="0.0" fill="rgb(0,0,0)" stroke-linecap="butt" stroke-miterlimit="10.0"><path d="M 145.03746228566396,79.19223538339759 c -0.6976834604744114,-0.9602789012087443 -0.4848077953801196,-2.304322954135289 0.4754711058286244 -3.0020064146097c 0.9602789012087443,-0.6976834604744114 2.304322954135289,-0.4848077953801197 3.0020064146097 0.4754711058286244c 0.6976834604744117,0.9602789012087443 0.4848077953801198,2.304322954135289 -0.4754711058286241 3.0020064146097c -0.9602789012087443,0.6976834604744117 -2.304322954135289,0.48480779538012 -3.0020064146097 -0.4754711058286243Z"/></g><defs></defs><g stroke-linejoin="miter" stroke-opacity="1.0" fill-opacity="1.0" stroke="rgb(0,0,0)" stroke-width="0.0" fill="rgb(0,0,0)" stroke-linecap="butt" stroke-miterlimit="10.0"><path d="M 145.44792282818938,86.10500773577604 c -1.1288755524362413,0.3667939015823379 -2.3413552089567737,-0.2509953404091369 -2.7081491105391113 -1.379870892845378c -0.36679390158233793,-1.1288755524362413 0.2509953404091368,-2.3413552089567737 1.3798708928453778 -2.7081491105391113c 1.1288755524362413,-0.366793901582338 2.3413552089567737,0.2509953404091367 2.7081491105391113 1.3798708928453773c 0.36679390158233804,1.1288755524362413 -0.25099534040913657,2.3413552089567737 -1.3798708928453778 2.708149110539112Z"/></g><defs></defs><g stroke-linejoin="miter" stroke-opacity="1.0" fill-opacity="1.0" stroke="rgb(0,0,0)" stroke-width="0.0" fill="rgb(0,0,0)" stroke-linecap="butt" stroke-miterlimit="10.0"><path d="M 152.1491993027446,87.85080069725541 c 0.0,1.186969999252813 -0.9622293034917793,2.1491993027445924 -2.1491993027445924 2.1491993027445924c -1.186969999252813,7.268095051344468e-17 -2.1491993027445924,-0.9622293034917792 -2.1491993027445924 -2.149199302744592c -1.4536190102688937e-16,-1.186969999252813 0.9622293034917789,-2.1491993027445924 2.1491993027445915 -2.1491993027445924c 1.186969999252813,-2.1804285154033404e-16 2.1491993027445924,0.9622293034917789 2.1491993027445933 2.149199302744592Z"/></g><defs></defs><g stroke-linejoin="miter" stroke-opacity="1.0" fill-opacity="1.0" stroke="rgb(0,0,0)" stroke-width="0.0" fill="rgb(255,255,89)" stroke-linecap="butt" stroke-miterlimit="10.0"><path d="M 161.04899379850616,36.77127230683869 l -11.048993798506157,-19.13741863152611 l -11.048993798506162,19.137418631526106 Z"/></g><defs></defs><g stroke-linejoin="miter" stroke-opacity="1.0" fill-opacity="1.0" stroke="rgb(0,0,0)" stroke-width="0.0" fill="rgb(89,89,255)" stroke-linecap="butt" stroke-miterlimit="10.0"><path d="M 159.90867003435454,42.13607382222025 l 5.890173781772902,-2.622474329097555 l -0.6739575011154093,-6.412277292269169 l -6.30670242443517,-1.3405309828139367 l -3.2237989541168917,5.583783581917855 Z"/></g><defs></defs><g stroke-linejoin="miter" stroke-opacity="1.0" fill-opacity="1.0" stroke="rgb(0,0,0)" stroke-width="0.0" fill="rgb(0,0,0)" stroke-linecap="butt" stroke-miterlimit="10.0"><path d="M 157.80643589287615,41.68923016128227 c -0.24678493949460775,1.161031856912146 0.4943586236282655,2.302292862921762 1.655390480540411 2.5490778024163694c 1.161031856912146,0.24678493949460778 2.302292862921762,-0.4943586236282652 2.5490778024163703 -1.655390480540411c 0.24678493949460786,-1.1610318569121458 -0.49435862362826494,-2.302292862921762 -1.6553904805404105 -2.5490778024163694c -1.1610318569121458,-0.24678493949460792 -2.302292862921762,0.49435862362826494 -2.5490778024163703 1.655390480540411Z"/></g><defs></defs><g stroke-linejoin="miter" stroke-opacity="1.0" fill-opacity="1.0" stroke="rgb(0,0,0)" stroke-width="0.0" fill="rgb(0,0,0)" stroke-linecap="butt" stroke-miterlimit="10.0"><path d="M 155.36973243608816,35.207149035867715 c -1.1804676534021858,0.12407214996670364 -2.036845413684624,1.1816106110593412 -1.9127732637179207 2.362078264461527c 0.12407214996670364,1.1804676534021858 1.1816106110593412,2.036845413684624 2.3620782644615264 1.9127732637179207c 1.1804676534021854,-0.12407214996670347 2.036845413684624,-1.1816106110593412 1.9127732637179202 -2.362078264461526c -0.12407214996670347,-1.1804676534021854 -1.1816106110593412,-2.036845413684624 -2.362078264461526 -1.9127732637179218Z"/></g><defs></defs><g stroke-linejoin="miter" stroke-opacity="1.0" fill-opacity="1.0" stroke="rgb(0,0,0)" stroke-width="0.0" fill="rgb(0,0,0)" stroke-linecap="butt" stroke-miterlimit="10.0"><path d="M 160.78157515116783,30.8866331083404 c -0.4827841929277736,-1.084351051175449 -1.7531983191147036,-1.572017343819557 -2.837549370290152 -1.0892331508917836c -1.084351051175449,0.4827841929277736 -1.572017343819557,1.7531983191147036 -1.0892331508917836 2.837549370290152c 0.4827841929277734,1.084351051175449 1.7531983191147036,1.572017343819557 2.837549370290152 1.089233150891784c 1.084351051175449,-0.4827841929277734 1.572017343819557,-1.7531983191147036 1.0892331508917836 -2.8375493702901524Z"/></g><defs></defs><g stroke-linejoin="miter" stroke-opacity="1.0" fill-opacity="1.0" stroke="rgb(0,0,0)" stroke-width="0.0" fill="rgb(0,0,0)" stroke-linecap="butt" stroke-miterlimit="10.0"><path d="M 166.56298134764356,34.698488541607794 c 0.8820906129416349,-0.7942379553298077 0.9533092634525524,-2.153170760444157 0.15907130812274498 -3.0352613733857914c -0.7942379553298077,-0.8820906129416349 -2.153170760444157,-0.9533092634525526 -3.0352613733857914 -0.15907130812274523c -0.8820906129416349,0.7942379553298077 -0.9533092634525526,2.153170760444157 -0.15907130812274545 3.0352613733857914c 0.7942379553298077,0.8820906129416349 2.153170760444157,0.9533092634525527 3.035261373385792 0.15907130812274506Z"/></g><defs></defs><g stroke-linejoin="miter" stroke-opacity="1.0" fill-opacity="1.0" stroke="rgb(0,0,0)" stroke-width="0.0" fill="rgb(0,0,0)" stroke-linecap="butt" stroke-miterlimit="10.0"><path d="M 164.72424416475513,41.37486068709531 c 1.0279461728829318,0.5934849996264069 2.342375845718509,0.2412846302826102 2.9358608453449166 -0.7866615426003214c 0.5934849996264071,-1.0279461728829318 0.2412846302826102,-2.342375845718509 -0.7866615426003212 -2.9358608453449158c -1.0279461728829318,-0.5934849996264071 -2.342375845718509,-0.24128463028261032 -2.9358608453449158 0.7866615426003212c -0.5934849996264072,1.0279461728829318 -0.24128463028261046,2.342375845718509 0.7866615426003203 2.935860845344916Z"/></g><defs></defs><g stroke-linejoin="miter" stroke-opacity="1.0" fill-opacity="1.0" stroke="rgb(0,0,0)" stroke-width="0.0" fill="rgb(89,89,255)" stroke-linecap="butt" stroke-miterlimit="10.0"><path d="M 134.87511368498798,33.1013222008535 l -0.6739575011154151,6.412277292269168 l 5.890173781772899,2.6224743290975594 l 4.314285097894573,-4.7914990222628 l -3.2237989541168854,-5.583783581917859 Z"/></g><defs></defs><g stroke-linejoin="miter" stroke-opacity="1.0" fill-opacity="1.0" stroke="rgb(0,0,0)" stroke-width="0.0" fill="rgb(0,0,0)" stroke-linecap="butt" stroke-miterlimit="10.0"><path d="M 136.31320871761952,31.504155860099235 c -0.8820906129416342,-0.7942379553298086 -2.2410234180559834,-0.7230193048188926 -3.035261373385792 0.1590713081227414c -0.7942379553298087,0.8820906129416342 -0.7230193048188926,2.2410234180559834 0.15907130812274117 3.035261373385792c 0.8820906129416342,0.7942379553298087 2.2410234180559834,0.7230193048188929 3.0352613733857914 -0.15907130812274092c 0.7942379553298087,-0.882090612941634 0.7230193048188929,-2.2410234180559834 -0.15907130812274062 -3.0352613733857923Z"/></g><defs></defs><g stroke-linejoin="miter" stroke-opacity="1.0" fill-opacity="1.0" stroke="rgb(0,0,0)" stroke-width="0.0" fill="rgb(0,0,0)" stroke-linecap="butt" stroke-miterlimit="10.0"><path d="M 143.14520737001413,32.63494932773876 c 0.4827841929277747,-1.0843510511754484 -4.882099716331707e-3,-2.3547651773623794 -1.08923315089178 -2.837549370290154c -1.0843510511754484,-0.4827841929277747 -2.3547651773623794,4.882099716331587e-3 -2.837549370290154 1.0892331508917799c -0.48278419292777486,1.0843510511754484 4.882099716331587e-3,2.3547651773623794 1.0892331508917796 2.8375493702901533c 1.0843510511754484,0.48278419292777486 2.3547651773623794,-4.882099716331348e-3 2.8375493702901546 -1.089233150891779Z"/></g><defs></defs><g stroke-linejoin="miter" stroke-opacity="1.0" fill-opacity="1.0" stroke="rgb(0,0,0)" stroke-width="0.0" fill="rgb(0,0,0)" stroke-linecap="butt" stroke-miterlimit="10.0"><path d="M 144.18096256316824,39.482000564047155 c 1.1804676534021854,0.12407214996670483 2.2380061144948242,-0.7323056103157324 2.362078264461529 -1.9127732637179176c 0.12407214996670483,-1.1804676534021854 -0.7323056103157324,-2.2380061144948242 -1.9127732637179176 -2.362078264461529c -1.1804676534021854,-0.12407214996670501 -2.2380061144948242,0.732305610315732 -2.362078264461529 1.9127732637179171c -0.12407214996670501,1.1804676534021854 0.732305610315732,2.2380061144948242 1.9127732637179176 2.3620782644615295Z"/></g><defs></defs><g stroke-linejoin="miter" stroke-opacity="1.0" fill-opacity="1.0" stroke="rgb(0,0,0)" stroke-width="0.0" fill="rgb(0,0,0)" stroke-linecap="butt" stroke-miterlimit="10.0"><path d="M 137.98909582416707,42.58291748315821 c 0.24678493949460653,1.161031856912146 1.3880459455042218,1.9021754200350207 2.5490778024163676 1.655390480540414c 1.161031856912146,-0.24678493949460648 1.9021754200350207,-1.3880459455042218 1.6553904805404145 -2.5490778024163676c -0.24678493949460645,-1.161031856912146 -1.3880459455042218,-1.9021754200350207 -2.549077802416367 -1.6553904805404145c -1.161031856912146,0.24678493949460636 -1.9021754200350207,1.3880459455042218 -1.6553904805404147 2.549077802416368Z"/></g><defs></defs><g stroke-linejoin="miter" stroke-opacity="1.0" fill-opacity="1.0" stroke="rgb(0,0,0)" stroke-width="0.0" fill="rgb(0,0,0)" stroke-linecap="butt" stroke-miterlimit="10.0"><path d="M 133.12655653250027,37.652338299150045 c -1.0279461728829324,0.5934849996264062 -1.3801465422267305,1.907914672461983 -0.7866615426003245 2.9358608453449153c 0.5934849996264061,1.0279461728829324 1.907914672461983,1.380146542226731 2.9358608453449153 0.7866615426003247c 1.0279461728829324,-0.5934849996264061 1.380146542226731,-1.907914672461983 0.7866615426003248 -2.9358608453449153c -0.593484999626406,-1.0279461728829324 -1.9079146724619829,-1.380146542226731 -2.9358608453449153 -0.7866615426003247Z"/></g><defs></defs><g stroke-linejoin="miter" stroke-opacity="1.0" fill-opacity="1.0" stroke="rgb(0,0,0)" stroke-width="0.0" fill="rgb(89,89,255)" stroke-linecap="butt" stroke-miterlimit="10.0"><path d="M 155.21621628065748,15.939002265916209 l -5.216216280657487,-3.7898029631716117 l -5.216216280657487,3.7898029631716104 l 1.9924173265405982,6.132030005076734 l 6.447597908233775,1.1930452752076895e-15 Z"/></g><defs></defs><g stroke-linejoin="miter" stroke-opacity="1.0" fill-opacity="1.0" stroke="rgb(0,0,0)" stroke-width="0.0" fill="rgb(0,0,0)" stroke-linecap="butt" stroke-miterlimit="10.0"><path d="M 155.88035538950433,17.983012267608455 c 1.1288755524362415,-0.36679390158233766 1.746664794427717,-1.5792735581028698 1.3798708928453791 -2.7081491105391113c -0.3667939015823376,-1.1288755524362415 -1.5792735581028698,-1.746664794427717 -2.7081491105391113 -1.3798708928453793c -1.1288755524362415,0.3667939015823375 -1.746664794427717,1.5792735581028696 -1.3798708928453793 2.708149110539111c 0.36679390158233743,1.1288755524362415 1.5792735581028696,1.746664794427717 2.708149110539112 1.3798708928453802Z"/></g><defs></defs><g stroke-linejoin="miter" stroke-opacity="1.0" fill-opacity="1.0" stroke="rgb(0,0,0)" stroke-width="0.0" fill="rgb(0,0,0)" stroke-linecap="butt" stroke-miterlimit="10.0"><path d="M 151.48506019389774,23.334299925383483 c 0.6976834604744113,0.9602789012087445 2.041727513400956,1.173154566303037 3.0020064146097 0.4754711058286258c 0.9602789012087445,-0.6976834604744113 1.173154566303037,-2.0417275134009554 0.47547110582862606 -3.0020064146097c -0.6976834604744111,-0.9602789012087446 -2.0417275134009554,-1.173154566303037 -3.0020064146096996 -0.47547110582862606c -0.9602789012087446,0.6976834604744111 -1.1731545663030372,2.0417275134009554 -0.4754711058286265 3.0020064146097005Z"/></g><defs></defs><g stroke-linejoin="miter" stroke-opacity="1.0" fill-opacity="1.0" stroke="rgb(0,0,0)" stroke-width="0.0" fill="rgb(0,0,0)" stroke-linecap="butt" stroke-miterlimit="10.0"><path d="M 145.03746228566396,20.8077646166024 c -0.6976834604744114,0.9602789012087443 -0.4848077953801196,2.304322954135289 0.4754711058286244 3.0020064146097c 0.9602789012087443,0.6976834604744114 2.304322954135289,0.4848077953801197 3.0020064146097 -0.4754711058286244c 0.6976834604744117,-0.9602789012087443 0.4848077953801198,-2.304322954135289 -0.4754711058286241 -3.0020064146097c -0.9602789012087443,-0.6976834604744117 -2.304322954135289,-0.48480779538012 -3.0020064146097 0.4754711058286243Z"/></g><defs></defs><g stroke-linejoin="miter" stroke-opacity="1.0" fill-opacity="1.0" stroke="rgb(0,0,0)" stroke-width="0.0" fill="rgb(0,0,0)" stroke-linecap="butt" stroke-miterlimit="10.0"><path d="M 145.44792282818938,13.894992264223964 c -1.1288755524362413,-0.3667939015823379 -2.3413552089567737,0.2509953404091369 -2.7081491105391113 1.379870892845378c -0.36679390158233793,1.1288755524362413 0.2509953404091368,2.3413552089567737 1.3798708928453778 2.7081491105391113c 1.1288755524362413,0.366793901582338 2.3413552089567737,-0.2509953404091367 2.7081491105391113 -1.3798708928453773c 0.36679390158233804,-1.1288755524362413 -0.25099534040913657,-2.3413552089567737 -1.3798708928453778 -2.708149110539112Z"/></g><defs></defs><g stroke-linejoin="miter" stroke-opacity="1.0" fill-opacity="1.0" stroke="rgb(0,0,0)" stroke-width="0.0" fill="rgb(0,0,0)" stroke-linecap="butt" stroke-miterlimit="10.0"><path d="M 152.1491993027446,12.149199302744595 c 0.0,-1.186969999252813 -0.9622293034917793,-2.1491993027445924 -2.1491993027445924 -2.1491993027445924c -1.186969999252813,-7.268095051344468e-17 -2.1491993027445924,0.9622293034917792 -2.1491993027445924 2.149199302744592c -1.4536190102688937e-16,1.186969999252813 0.9622293034917789,2.1491993027445924 2.1491993027445915 2.1491993027445924c 1.186969999252813,2.1804285154033404e-16 2.1491993027445924,-0.9622293034917789 2.1491993027445933 -2.149199302744592Z"/></g><defs></defs><g stroke-linejoin="miter" stroke-opacity="1.0" fill-opacity="0.0" stroke="rgb(0,0,0)" stroke-width="0.565685424949238" fill="rgb(0,0,0)" stroke-linecap="butt" stroke-miterlimit="10.0"><path d="M 100.00000000000001,100.0 l -1.1102230246251565e-14,-100.0 h -100.0 l -1.1102230246251565e-14,100.0 Z"/></g><defs></defs><g stroke-linejoin="miter" stroke-opacity="1.0" fill-opacity="0.0" stroke="rgb(0,0,0)" stroke-width="0.565685424949238" fill="rgb(0,0,0)" stroke-linecap="butt" stroke-miterlimit="10.0"><path d="M 90.0,50.00000000000001 c 0.0,-22.091389993231743 -17.90861000676826,-40.00000000000001 -40.0 -40.00000000000001c -22.091389993231743,-1.3527075021963561e-15 -40.00000000000001,17.90861000676826 -40.00000000000001 40.0c -2.7054150043927122e-15,22.091389993231743 17.908610006768257,40.00000000000001 39.99999999999999 40.00000000000001c 22.091389993231743,4.058122506589069e-15 40.00000000000001,-17.908610006768257 40.00000000000001 -40.0Z"/></g></g></svg>