<svg xmlns="http://www.w3.org/2000/svg" height="400.0000" stroke-opacity="1" viewBox="0 0 377 400" font-size="1" width="376.7970" xmlns:xlink="http://www.w3.org/1999/xlink" stroke="rgb(0,0,0)" version="1.1"><defs></defs><g stroke-linejoin="miter" stroke-opacity="1.0" fill-opacity="0.0" stroke="rgb(0,0,0)" stroke-width="1.5529008061805674" fill="rgb(0,0,0)" stroke-linecap="butt" stroke-miterlimit="10.0"><path d="M 376.7970,143.8596 l 0.0000,-7.0175 l -6.0774,-3.5088 l -0.0000,7.0175 l -6.0774,3.5088 l -0.0000,-7.0175 l -0.0000,-7.0175 l 6.0774,-3.5088 l -0.0000,-7.0175 l -6.0774,-3.5088 l -6.0774,-3.5088 l -0.0000,7.0175 l 6.0774,3.5088 l -6.0774,3.5088 l -6.0774,-3.5088 l -6.0774,3.5088 l -0.0000,7.0175 l -0.0000,7.0175 l 6.0774,-3.5088 l 0.0000,-7.0175 l 6.0774,3.5088 l -0.0000,7.0175 l -6.0774,3.5088 l -0.0000,7.0175 l 6.0774,-3.5088 l 6.0774,3.5088 l -6.0774,3.5088 l -6.0774,3.5088 l -6.0774,-3.5088 l -0.0000,-7.0175 l -6.0774,-3.5088 l -0.0000,7.0175 l -6.0774,3.5088 l -0.0000,-7.0175 l -0.0000,-7.0175 l 6.0774,-3.5088 l -0.0000,-7.0175 l -6.0774,-3.5088 l -0.0000,7.0175 l -6.0774,3.5088 l -0.0000,-7.0175 l -0.0000,-7.0175 l 6.0774,-3.5088 l 6.0774,3.5088 l 6.0774,-3.5088 l 6.0774,-3.5088 l -6.0774,-3.5088 l -6.0774,3.5088 l -0.0000,-7.0175 l 6.0774,-3.5088 l -0.0000,-7.0175 l -6.0774,-3.5088 l -0.0000,7.0175 l -6.0774,3.5088 l -0.0000,-7.0175 l -0.0000,-7.0175 l 6.0774,-3.5088 l -0.0000,-7.0175 l -6.0774,-3.5088 l -6.0774,-3.5088 l -0.0000,7.0175 l 6.0774,3.5088 l -6.0774,3.5088 l -6.0774,-3.5088 l -0.0000,-7.0175 l -6.0774,-3.5088 l -6.0774,-3.5088 l -0.0000,7.0175 l 6.0774,3.5088 l -6.0774,3.5088 l -6.0774,-3.5088 l -6.0774,3.5088 l -0.0000,7.0175 l -0.0000,7.0175 l 6.0774,-3.5088 l 0.0000,-7.0175 l 6.0774,3.5088 l -0.0000,7.0175 l 6.0774,3.5088 l 6.0774,-3.5088 l -6.0774,-3.5088 l 0.0000,-7.0175 l 6.0774,3.5088 l 6.0774,3.5088 l -0.0000,7.0175 l -6.0774,3.5088 l -0.0000,7.0175 l 6.0774,-3.5088 l 6.0774,3.5088 l -6.0774,3.5088 l -6.0774,3.5088 l -6.0774,-3.5088 l -0.0000,-7.0175 l -6.0774,-3.5088 l -6.0774,-3.5088 l -0.0000,7.0175 l 6.0774,3.5088 l -6.0774,3.5088 l -6.0774,-3.5088 l -6.0774,3.5088 l -0.0000,7.0175 l 6.0774,-3.5088 l 6.0774,3.5088 l -6.0774,3.5088 l -6.0774,3.5088 l -6.0774,-3.5088 l -6.0774,3.5088 l -0.0000,7.0175 l -0.0000,7.0175 l 6.0774,-3.5088 l 0.0000,-7.0175 l 6.0774,3.5088 l -0.0000,7.0175 l -6.0774,3.5088 l -0.0000,7.0175 l -0.0000,7.0175 l 6.0774,-3.5088 l 0.0000,-7.0175 l 6.0774,3.5088 l -0.0000,7.0175 l 6.0774,3.5088 l 6.0774,-3.5088 l 6.0774,-3.5088 l -6.0774,-3.5088 l -6.0774,3.5088 l 0.0000,-7.0175 l 6.0774,-3.5088 l 0.0000,-7.0175 l -6.0774,-3.5088 l -0.0000,7.0175 l -6.0774,3.5088 l 0.0000,-7.0175 l 0.0000,-7.0175 l 6.0774,-3.5088 l 6.0774,3.5088 l 6.0774,-3.5088 l -6.0774,-3.5088 l 0.0000,-7.0175 l 6.0774,3.5088 l 6.0774,3.5088 l 0.0000,7.0175 l -6.0774,3.5088 l 0.0000,7.0175 l 0.0000,7.0175 l 6.0774,-3.5088 l 0.0000,-7.0175 l 6.0774,3.5088 l 0.0000,7.0175 l -6.0774,3.5088 l 0.0000,7.0175 l 6.0774,-3.5088 l 6.0774,3.5088 l -6.0774,3.5088 l -6.0774,3.5088 l -6.0774,-3.5088 l -6.0774,3.5088 l 0.0000,7.0175 l 0.0000,7.0175 l 6.0774,-3.5088 l 0.0000,-7.0175 l 6.0774,3.5088 l 0.0000,7.0175 l 6.0774,3.5088 l 6.0774,-3.5088 l 6.0774,-3.5088 l -6.0774,-3.5088 l -6.0774,3.5088 l 0.0000,-7.0175 l 6.0774,-3.5088 l 6.0774,3.5088 l 6.0774,-3.5088 l -6.0774,-3.5088 l 0.0000,-7.0175 l 6.0774,3.5088 l 6.0774,3.5088 l 0.0000,7.0175 l -6.0774,3.5088 l 0.0000,7.0175 l 6.0774,-3.5088 l 6.0774,3.5088 l -6.0774,3.5088 l -6.0774,3.5088 l -6.0774,-3.5088 l -6.0774,3.5088 l 0.0000,7.0175 l 6.0774,-3.5088 l 6.0774,3.5088 l -6.0774,3.5088 l -6.0774,3.5088 l -6.0774,-3.5088 l -0.0000,-7.0175 l -6.0774,-3.5088 l -6.0774,-3.5088 l 0.0000,7.0175 l 6.0774,3.5088 l -6.0774,3.5088 l -6.0774,-3.5088 l -0.0000,-7.0175 l -6.0774,-3.5088 l 0.0000,7.0175 l -6.0774,3.5088 l -0.0000,-7.0175 l -0.0000,-7.0175 l 6.0774,-3.5088 l -0.0000,-7.0175 l -6.0774,-3.5088 l -6.0774,-3.5088 l 0.0000,7.0175 l 6.0774,3.5088 l -6.0774,3.5088 l -6.0774,-3.5088 l -6.0774,3.5088 l 0.0000,7.0175 l 0.0000,7.0175 l 6.0774,-3.5088 l 0.0000,-7.0175 l 6.0774,3.5088 l 0.0000,7.0175 l -6.0774,3.5088 l 0.0000,7.0175 l 6.0774,-3.5088 l 6.0774,3.5088 l -6.0774,3.5088 l -6.0774,3.5088 l -6.0774,-3.5088 l -0.0000,-7.0175 l -6.0774,-3.5088 l 0.0000,7.0175 l -6.0774,3.5088 l -0.0000,-7.0175 l -0.0000,-7.0175 l 6.0774,-3.5088 l -0.0000,-7.0175 l -6.0774,-3.5088 l 0.0000,7.0175 l -6.0774,3.5088 l -0.0000,-7.0175 l -0.0000,-7.0175 l 6.0774,-3.5088 l 6.0774,3.5088 l 6.0774,-3.5088 l 6.0774,-3.5088 l -6.0774,-3.5088 l -6.0774,3.5088 l -0.0000,-7.0175 l 6.0774,-3.5088 l -0.0000,-7.0175 l -6.0774,-3.5088 l 0.0000,7.0175 l -6.0774,3.5088 l -0.0000,-7.0175 l -0.0000,-7.0175 l 6.0774,-3.5088 l -0.0000,-7.0175 l -6.0774,-3.5088 l -6.0774,-3.5088 l 0.0000,7.0175 l 6.0774,3.5088 l -6.0774,3.5088 l -6.0774,-3.5088 l -6.0774,3.5088 l 0.0000,7.0175 l 0.0000,7.0175 l 6.0774,-3.5088 l 0.0000,-7.0175 l 6.0774,3.5088 l 0.0000,7.0175 l -6.0774,3.5088 l 0.0000,7.0175 l 6.0774,-3.5088 l 6.0774,3.5088 l -6.0774,3.5088 l -6.0774,3.5088 l -6.0774,-3.5088 l -0.0000,-7.0175 l -6.0774,-3.5088 l 0.0000,7.0175 l -6.0774,3.5088 l -0.0000,-7.0175 l -0.0000,-7.0175 l 6.0774,-3.5088 l -0.0000,-7.0175 l -6.0774,-3.5088 l 0.0000,7.0175 l -6.0774,3.5088 l -0.0000,-7.0175 l -0.0000,-7.0175 l 6.0774,-3.5088 l 6.0774,3.5088 l 6.0774,-3.5088 l 6.0774,-3.5088 l -6.0774,-3.5088 l -6.0774,3.5088 l -0.0000,-7.0175 l 6.0774,-3.5088 l 6.0774,3.5088 l 6.0774,-3.5088 l -6.0774,-3.5088 l -0.0000,-7.0175 l 6.0774,3.5088 l 6.0774,3.5088 l 0.0000,7.0175 l 6.0774,3.5088 l 6.0774,-3.5088 l 6.0774,-3.5088 l -6.0774,-3.5088 l -6.0774,3.5088 l -0.0000,-7.0175 l 6.0774,-3.5088 l 6.0774,3.5088 l 6.0774,-3.5088 l 6.0774,-3.5088 l -6.0774,-3.5088 l -6.0774,3.5088 l -0.0000,-7.0175 l 6.0774,-3.5088 l -0.0000,-7.0175 l -6.0774,-3.5088 l -6.0774,-3.5088 l 0.0000,7.0175 l 6.0774,3.5088 l -6.0774,3.5088 l -6.0774,-3.5088 l -6.0774,3.5088 l 0.0000,7.0175 l 6.0774,-3.5088 l 6.0774,3.5088 l -6.0774,3.5088 l -6.0774,3.5088 l -6.0774,-3.5088 l -0.0000,-7.0175 l -6.0774,-3.5088 l 0.0000,7.0175 l -6.0774,3.5088 l -0.0000,-7.0175 l -0.0000,-7.0175 l 6.0774,-3.5088 l 6.0774,3.5088 l 6.0774,-3.5088 l 6.0774,-3.5088 l -6.0774,-3.5088 l -6.0774,3.5088 l -0.0000,-7.0175 l 6.0774,-3.5088 l -0.0000,-7.0175 l -6.0774,-3.5088 l 0.0000,7.0175 l -6.0774,3.5088 l -0.0000,-7.0175 l -0.0000,-7.0175 l 6.0774,-3.5088 l -0.0000,-7.0175 l -6.0774,-3.5088 l -6.0774,-3.5088 l 0.0000,7.0175 l 6.0774,3.5088 l -6.0774,3.5088 l -6.0774,-3.5088 l -6.0774,3.5088 l 0.0000,7.0175 l 0.0000,7.0175 l 6.0774,-3.5088 l 0.0000,-7.0175 l 6.0774,3.5088 l 0.0000,7.0175 l -6.0774,3.5088 l 0.0000,7.0175 l 6.0774,-3.5088 l 6.0774,3.5088 l -6.0774,3.5088 l -6.0774,3.5088 l -6.0774,-3.5088 l -0.0000,-7.0175 l -6.0774,-3.5088 l 0.0000,7.0175 l -6.0774,3.5088 l -0.0000,-7.0175 l -0.0000,-7.0175 l 6.0774,-3.5088 l -0.0000,-7.0175 l -6.0774,-3.5088 l 0.0000,7.0175 l -6.0774,3.5088 l -0.0000,-7.0175 l -0.0000,-7.0175 l 6.0774,-3.5088 l 6.0774,3.5088 l 6.0774,-3.5088 l 6.0774,-3.5088 l -6.0774,-3.5088 l -6.0774,3.5088 l -0.0000,-7.0175 l 6.0774,-3.5088 l -0.0000,-7.0175 l -6.0774,-3.5088 l 0.0000,7.0175 l -6.0774,3.5088 l -0.0000,-7.0175 l -0.0000,-7.0175 l 6.0774,-3.5088 l -0.0000,-7.0175 l -6.0774,-3.5088 l -6.0774,-3.5088 l 0.0000,7.0175 l 6.0774,3.5088 l -6.0774,3.5088 l -6.0774,-3.5088 l -0.0000,-7.0175 l -6.0774,-3.5088 l -6.0774,-3.5088 l 0.0000,7.0175 l 6.0774,3.5088 l -6.0774,3.5088 l -6.0774,-3.5088 l -6.0774,3.5088 l 0.0000,7.0175 l 0.0000,7.0175 l 6.0774,-3.5088 l 0.0000,-7.0175 l 6.0774,3.5088 l 0.0000,7.0175 l 6.0774,3.5088 l 6.0774,-3.5088 l -6.0774,-3.5088 l 0.0000,-7.0175 l 6.0774,3.5088 l 6.0774,3.5088 l 0.0000,7.0175 l -6.0774,3.5088 l 0.0000,7.0175 l 6.0774,-3.5088 l 6.0774,3.5088 l -6.0774,3.5088 l -6.0774,3.5088 l -6.0774,-3.5088 l -0.0000,-7.0175 l -6.0774,-3.5088 l -6.0774,-3.5088 l 0.0000,7.0175 l 6.0774,3.5088 l -6.0774,3.5088 l -6.0774,-3.5088 l -0.0000,-7.0175 l -6.0774,-3.5088 l 0.0000,7.0175 l -6.0774,3.5088 l -0.0000,-7.0175 l -0.0000,-7.0175 l 6.0774,-3.5088 l -0.0000,-7.0175 l -6.0774,-3.5088 l -6.0774,-3.5088 l 0.0000,7.0175 l 6.0774,3.5088 l -6.0774,3.5088 l -6.0774,-3.5088 l -0.0000,-7.0175 l -6.0774,-3.5088 l -6.0774,-3.5088 l 0.0000,7.0175 l 6.0774,3.5088 l -6.0774,3.5088 l -6.0774,-3.5088 l -6.0774,3.5088 l 0.0000,7.0175 l 0.0000,7.0175 l 6.0774,-3.5088 l 0.0000,-7.0175 l 6.0774,3.5088 l 0.0000,7.0175 l 6.0774,3.5088 l 6.0774,-3.5088 l -6.0774,-3.5088 l 0.0000,-7.0175 l 6.0774,3.5088 l 6.0774,3.5088 l 0.0000,7.0175 l -6.0774,3.5088 l 0.0000,7.0175 l 6.0774,-3.5088 l 6.0774,3.5088 l -6.0774,3.5088 l -6.0774,3.5088 l -6.0774,-3.5088 l -0.0000,-7.0175 l -6.0774,-3.5088 l -6.0774,-3.5088 l 0.0000,7.0175 l 6.0774,3.5088 l -6.0774,3.5088 l -6.0774,-3.5088 l -6.0774,3.5088 l 0.0000,7.0175 l 6.0774,-3.5088 l 6.0774,3.5088 l -6.0774,3.5088 l -6.0774,3.5088 l -6.0774,-3.5088 l -6.0774,3.5088 l 0.0000,7.0175 l 0.0000,7.0175 l 6.0774,-3.5088 l 0.0000,-7.0175 l 6.0774,3.5088 l 0.0000,7.0175 l -6.0774,3.5088 l 0.0000,7.0175 l 0.0000,7.0175 l 6.0774,-3.5088 l 0.0000,-7.0175 l 6.0774,3.5088 l 0.0000,7.0175 l 6.0774,3.5088 l 6.0774,-3.5088 l 6.0774,-3.5088 l -6.0774,-3.5088 l -6.0774,3.5088 l 0.0000,-7.0175 l 6.0774,-3.5088 l 0.0000,-7.0175 l -6.0774,-3.5088 l -0.0000,7.0175 l -6.0774,3.5088 l 0.0000,-7.0175 l 0.0000,-7.0175 l 6.0774,-3.5088 l 6.0774,3.5088 l 6.0774,-3.5088 l -6.0774,-3.5088 l 0.0000,-7.0175 l 6.0774,3.5088 l 6.0774,3.5088 l 0.0000,7.0175 l -6.0774,3.5088 l 0.0000,7.0175 l 0.0000,7.0175 l 6.0774,-3.5088 l 0.0000,-7.0175 l 6.0774,3.5088 l 0.0000,7.0175 l 6.0774,3.5088 l 6.0774,-3.5088 l -6.0774,-3.5088 l 0.0000,-7.0175 l 6.0774,3.5088 l 6.0774,3.5088 l 0.0000,7.0175 l 6.0774,3.5088 l 6.0774,-3.5088 l 6.0774,-3.5088 l -6.0774,-3.5088 l -6.0774,3.5088 l 0.0000,-7.0175 l 6.0774,-3.5088 l 0.0000,-7.0175 l -6.0774,-3.5088 l -6.0774,-3.5088 l -0.0000,7.0175 l 6.0774,3.5088 l -6.0774,3.5088 l -6.0774,-3.5088 l 0.0000,-7.0175 l -6.0774,-3.5088 l -0.0000,7.0175 l -6.0774,3.5088 l 0.0000,-7.0175 l 0.0000,-7.0175 l 6.0774,-3.5088 l 6.0774,3.5088 l 6.0774,-3.5088 l -6.0774,-3.5088 l 0.0000,-7.0175 l 6.0774,3.5088 l 6.0774,3.5088 l 0.0000,7.0175 l 6.0774,3.5088 l 6.0774,-3.5088 l -6.0774,-3.5088 l 0.0000,-7.0175 l 6.0774,3.5088 l 6.0774,3.5088 l 0.0000,7.0175 l -6.0774,3.5088 l 0.0000,7.0175 l 0.0000,7.0175 l 6.0774,-3.5088 l 0.0000,-7.0175 l 6.0774,3.5088 l 0.0000,7.0175 l -6.0774,3.5088 l 0.0000,7.0175 l 6.0774,-3.5088 l 6.0774,3.5088 l -6.0774,3.5088 l -6.0774,3.5088 l -6.0774,-3.5088 l -6.0774,3.5088 l 0.0000,7.0175 l 0.0000,7.0175 l 6.0774,-3.5088 l 0.0000,-7.0175 l 6.0774,3.5088 l 0.0000,7.0175 l 6.0774,3.5088 l 6.0774,-3.5088 l 6.0774,-3.5088 l -6.0774,-3.5088 l -6.0774,3.5088 l 0.0000,-7.0175 l 6.0774,-3.5088 l 6.0774,3.5088 l 6.0774,-3.5088 l -6.0774,-3.5088 l 0.0000,-7.0175 l 6.0774,3.5088 l 6.0774,3.5088 l 0.0000,7.0175 l -6.0774,3.5088 l 0.0000,7.0175 l 6.0774,-3.5088 l 6.0774,3.5088 l -6.0774,3.5088 l -6.0774,3.5088 l -6.0774,-3.5088 l -6.0774,3.5088 l 0.0000,7.0175 l 6.0774,-3.5088 l 6.0774,3.5088 l -6.0774,3.5088 l -6.0774,3.5088 l -6.0774,-3.5088 l -0.0000,-7.0175 l -6.0774,-3.5088 l -6.0774,-3.5088 l 0.0000,7.0175 l 6.0774,3.5088 l -6.0774,3.5088 l -6.0774,-3.5088 l -0.0000,-7.0175 l -6.0774,-3.5088 l 0.0000,7.0175 l -6.0774,3.5088 l -0.0000,-7.0175 l -0.0000,-7.0175 l 6.0774,-3.5088 l -0.0000,-7.0175 l -6.0774,-3.5088 l -6.0774,-3.5088 l 0.0000,7.0175 l 6.0774,3.5088 l -6.0774,3.5088 l -6.0774,-3.5088 l -0.0000,-7.0175 l -6.0774,-3.5088 l -6.0774,-3.5088 l 0.0000,7.0175 l 6.0774,3.5088 l -6.0774,3.5088 l -6.0774,-3.5088 l -6.0774,3.5088 l 0.0000,7.0175 l 0.0000,7.0175 l 6.0774,-3.5088 l 0.0000,-7.0175 l 6.0774,3.5088 l 0.0000,7.0175 l 6.0774,3.5088 l 6.0774,-3.5088 l -6.0774,-3.5088 l 0.0000,-7.0175 l 6.0774,3.5088 l 6.0774,3.5088 l 0.0000,7.0175 l -6.0774,3.5088 l 0.0000,7.0175 l 6.0774,-3.5088 l 6.0774,3.5088 l -6.0774,3.5088 l -6.0774,3.5088 l -6.0774,-3.5088 l -0.0000,-7.0175 l -6.0774,-3.5088 l -6.0774,-3.5088 l 0.0000,7.0175 l 6.0774,3.5088 l -6.0774,3.5088 l -6.0774,-3.5088 l -6.0774,3.5088 l 0.0000,7.0175 l 6.0774,-3.5088 l 6.0774,3.5088 l -6.0774,3.5088 l -6.0774,3.5088 l -6.0774,-3.5088 l -6.0774,3.5088 l 0.0000,7.0175 l 0.0000,7.0175 l 6.0774,-3.5088 l 0.0000,-7.0175 l 6.0774,3.5088 l 0.0000,7.0175 l 6.0774,3.5088 l 6.0774,-3.5088 l 6.0774,-3.5088 l -6.0774,-3.5088 l -6.0774,3.5088 l 0.0000,-7.0175 l 6.0774,-3.5088 l 6.0774,3.5088 l 6.0774,-3.5088 l -6.0774,-3.5088 l 0.0000,-7.0175 l 6.0774,3.5088 l 6.0774,3.5088 l 0.0000,7.0175 l -6.0774,3.5088 l 0.0000,7.0175 l 6.0774,-3.5088 l 6.0774,3.5088 l -6.0774,3.5088 l -6.0774,3.5088 l -6.0774,-3.5088 l -6.0774,3.5088 l 0.0000,7.0175 l 6.0774,-3.5088 l 6.0774,3.5088 l -6.0774,3.5088 l -6.0774,3.5088 l -6.0774,-3.5088 l -0.0000,-7.0175 l -6.0774,-3.5088 l -6.0774,-3.5088 l 0.0000,7.0175 l 6.0774,3.5088 l -6.0774,3.5088 l -6.0774,-3.5088 l -6.0774,3.5088 l 0.0000,7.0175 l 6.0774,-3.5088 l 6.0774,3.5088 l -6.0774,3.5088 l -6.0774,3.5088 l -6.0774,-3.5088 l -6.0774,3.5088 l 0.0000,7.0175 l 0.0000,7.0175 l 6.0774,-3.5088 l 0.0000,-7.0175 l 6.0774,3.5088 l 0.0000,7.0175 l -6.0774,3.5088 l 0.0000,7.0175 l 0.0000,7.0175 l 6.0774,-3.5088 l 0.0000,-7.0175 l 6.0774,3.5088 l 0.0000,7.0175 l 6.0774,3.5088 l 6.0774,-3.5088 l 6.0774,-3.5088 l -6.0774,-3.5088 l -6.0774,3.5088 l 0.0000,-7.0175 l 6.0774,-3.5088 l 0.0000,-7.0175 l -6.0774,-3.5088 l -0.0000,7.0175 l -6.0774,3.5088 l 0.0000,-7.0175 l 0.0000,-7.0175 l 6.0774,-3.5088 l 6.0774,3.5088 l 6.0774,-3.5088 l -6.0774,-3.5088 l 0.0000,-7.0175 l 6.0774,3.5088 l 6.0774,3.5088 l 0.0000,7.0175 l -6.0774,3.5088 l 0.0000,7.0175 l 0.0000,7.0175 l 6.0774,-3.5088 l 0.0000,-7.0175 l 6.0774,3.5088 l 0.0000,7.0175 l -6.0774,3.5088 l 0.0000,7.0175 l 6.0774,-3.5088 l 6.0774,3.5088 l -6.0774,3.5088 l -6.0774,3.5088 l -6.0774,-3.5088 l -6.0774,3.5088 l 0.0000,7.0175 l 0.0000,7.0175 l 6.0774,-3.5088 l 0.0000,-7.0175 l 6.0774,3.5088 l 0.0000,7.0175 l -6.0774,3.5088 l 0.0000,7.0175 l 0.0000,7.0175 l 6.0774,-3.5088 l 0.0000,-7.0175 l 6.0774,3.5088 l 0.0000,7.0175 l 6.0774,3.5088 l 6.0774,-3.5088 l 6.0774,-3.5088 l -6.0774,-3.5088 l -6.0774,3.5088 l 0.0000,-7.0175 l 6.0774,-3.5088 l 0.0000,-7.0175 l -6.0774,-3.5088 l -0.0000,7.0175 l -6.0774,3.5088 l 0.0000,-7.0175 l 0.0000,-7.0175 l 6.0774,-3.5088 l 6.0774,3.5088 l 6.0774,-3.5088 l -6.0774,-3.5088 l 0.0000,-7.0175 l 6.0774,3.5088 l 6.0774,3.5088 l 0.0000,7.0175 l -6.0774,3.5088 l 0.0000,7.0175 l 0.0000,7.0175 l 6.0774,-3.5088 l 0.0000,-7.0175 l 6.0774,3.5088 l 0.0000,7.0175 l 6.0774,3.5088 l 6.0774,-3.5088 l -6.0774,-3.5088 l 0.0000,-7.0175 l 6.0774,3.5088 l 6.0774,3.5088 l 0.0000,7.0175 l 6.0774,3.5088 l 6.0774,-3.5088 l 6.0774,-3.5088 l -6.0774,-3.5088 l -6.0774,3.5088 l 0.0000,-7.0175 l 6.0774,-3.5088 l 6.0774,3.5088 l 6.0774,-3.5088 l 6.0774,-3.5088 l -6.0774,-3.5088 l -6.0774,3.5088 l 0.0000,-7.0175 l 6.0774,-3.5088 l 0.0000,-7.0175 l -6.0774,-3.5088 l -6.0774,-3.5088 l -0.0000,7.0175 l 6.0774,3.5088 l -6.0774,3.5088 l -6.0774,-3.5088 l -6.0774,3.5088 l -0.0000,7.0175 l 6.0774,-3.5088 l 6.0774,3.5088 l -6.0774,3.5088 l -6.0774,3.5088 l -6.0774,-3.5088 l 0.0000,-7.0175 l -6.0774,-3.5088 l -0.0000,7.0175 l -6.0774,3.5088 l 0.0000,-7.0175 l 0.0000,-7.0175 l 6.0774,-3.5088 l 6.0774,3.5088 l 6.0774,-3.5088 l 6.0774,-3.5088 l -6.0774,-3.5088 l -6.0774,3.5088 l 0.0000,-7.0175 l 6.0774,-3.5088 l 0.0000,-7.0175 l -6.0774,-3.5088 l -0.0000,7.0175 l -6.0774,3.5088 l 0.0000,-7.0175 l 0.0000,-7.0175 l 6.0774,-3.5088 l 0.0000,-7.0175 l -6.0774,-3.5088 l -6.0774,-3.5088 l -0.0000,7.0175 l 6.0774,3.5088 l -6.0774,3.5088 l -6.0774,-3.5088 l -6.0774,3.5088 l -0.0000,7.0175 l -0.0000,7.0175 l 6.0774,-3.5088 l -0.0000,-7.0175 l 6.0774,3.5088 l -0.0000,7.0175 l -6.0774,3.5088 l -0.0000,7.0175 l 6.0774,-3.5088 l 6.0774,3.5088 l -6.0774,3.5088 l -6.0774,3.5088 l -6.0774,-3.5088 l 0.0000,-7.0175 l -6.0774,-3.5088 l -0.0000,7.0175 l -6.0774,3.5088 l 0.0000,-7.0175 l 0.0000,-7.0175 l 6.0774,-3.5088 l 0.0000,-7.0175 l -6.0774,-3.5088 l -0.0000,7.0175 l -6.0774,3.5088 l 0.0000,-7.0175 l 0.0000,-7.0175 l 6.0774,-3.5088 l 6.0774,3.5088 l 6.0774,-3.5088 l 6.0774,-3.5088 l -6.0774,-3.5088 l -6.0774,3.5088 l 0.0000,-7.0175 l 6.0774,-3.5088 l 6.0774,3.5088 l 6.0774,-3.5088 l -6.0774,-3.5088 l 0.0000,-7.0175 l 6.0774,3.5088 l 6.0774,3.5088 l 0.0000,7.0175 l 6.0774,3.5088 l 6.0774,-3.5088 l 6.0774,-3.5088 l -6.0774,-3.5088 l -6.0774,3.5088 l 0.0000,-7.0175 l 6.0774,-3.5088 l 0.0000,-7.0175 l -6.0774,-3.5088 l -6.0774,-3.5088 l -0.0000,7.0175 l 6.0774,3.5088 l -6.0774,3.5088 l -6.0774,-3.5088 l 0.0000,-7.0175 l -6.0774,-3.5088 l -0.0000,7.0175 l -6.0774,3.5088 l 0.0000,-7.0175 l 0.0000,-7.0175 l 6.0774,-3.5088 l 6.0774,3.5088 l 6.0774,-3.5088 l -6.0774,-3.5088 l 0.0000,-7.0175 l 6.0774,3.5088 l 6.0774,3.5088 l 0.0000,7.0175 l 6.0774,3.5088 l 6.0774,-3.5088 l -6.0774,-3.5088 l 0.0000,-7.0175 l 6.0774,3.5088 l 6.0774,3.5088 l 0.0000,7.0175 l -6.0774,3.5088 l 0.0000,7.0175 l 0.0000,7.0175 l 6.0774,-3.5088 l 0.0000,-7.0175 l 6.0774,3.5088 l 0.0000,7.0175 l -6.0774,3.5088 l 0.0000,7.0175 l 6.0774,-3.5088 l 6.0774,3.5088 l -6.0774,3.5088 l -6.0774,3.5088 l -6.0774,-3.5088 l -6.0774,3.5088 l 0.0000,7.0175 l 0.0000,7.0175 l 6.0774,-3.5088 l 0.0000,-7.0175 l 6.0774,3.5088 l 0.0000,7.0175 l -6.0774,3.5088 l 0.0000,7.0175 l 0.0000,7.0175 l 6.0774,-3.5088 l 0.0000,-7.0175 l 6.0774,3.5088 l 0.0000,7.0175 l 6.0774,3.5088 l 6.0774,-3.5088 l 6.0774,-3.5088 l -6.0774,-3.5088 l -6.0774,3.5088 l 0.0000,-7.0175 l 6.0774,-3.5088 l 0.0000,-7.0175 l -6.0774,-3.5088 l -0.0000,7.0175 l -6.0774,3.5088 l 0.0000,-7.0175 l 0.0000,-7.0175 l 6.0774,-3.5088 l 6.0774,3.5088 l 6.0774,-3.5088 l -6.0774,-3.5088 l 0.0000,-7.0175 l 6.0774,3.5088 l 6.0774,3.5088 l 0.0000,7.0175 l -6.0774,3.5088 l 0.0000,7.0175 l 0.0000,7.0175 l 6.0774,-3.5088 l 0.0000,-7.0175 l 6.0774,3.5088 l 0.0000,7.0175 l -6.0774,3.5088 l 0.0000,7.0175 l 6.0774,-3.5088 l 6.0774,3.5088 l -6.0774,3.5088 l -6.0774,3.5088 l -6.0774,-3.5088 l -6.0774,3.5088 l 0.0000,7.0175 l 0.0000,7.0175 l 6.0774,-3.5088 l 0.0000,-7.0175 l 6.0774,3.5088 l 0.0000,7.0175 l 6.0774,3.5088 l 6.0774,-3.5088 l 6.0774,-3.5088 l -6.0774,-3.5088 l -6.0774,3.5088 l 0.0000,-7.0175 l 6.0774,-3.5088 l 6.0774,3.5088 l 6.0774,-3.5088 l -6.0774,-3.5088 l 0.0000,-7.0175 l 6.0774,3.5088 l 6.0774,3.5088 l 0.0000,7.0175 l -6.0774,3.5088 l 0.0000,7.0175 l 6.0774,-3.5088 l 6.0774,3.5088 l -6.0774,3.5088 l -6.0774,3.5088 l -6.0774,-3.5088 l -6.0774,3.5088 l 0.0000,7.0175 l 6.0774,-3.5088 l 6.0774,3.5088 l -6.0774,3.5088 l -6.0774,3.5088 l -6.0774,-3.5088 l -0.0000,-7.0175 l -6.0774,-3.5088 l -6.0774,-3.5088 l 0.0000,7.0175 l 6.0774,3.5088 l -6.0774,3.5088 l -6.0774,-3.5088 l -6.0774,3.5088 l 0.0000,7.0175 l 6.0774,-3.5088 l 6.0774,3.5088 l -6.0774,3.5088 l -6.0774,3.5088 l -6.0774,-3.5088 l -6.0774,3.5088 l 0.0000,7.0175 l 0.0000,7.0175 l 6.0774,-3.5088 l 0.0000,-7.0175 l 6.0774,3.5088 l 0.0000,7.0175 l -6.0774,3.5088 l 0.0000,7.0175 l 0.0000,7.0175 l 6.0774,-3.5088 l 0.0000,-7.0175 l 6.0774,3.5088 l 0.0000,7.0175 l 6.0774,3.5088 l 6.0774,-3.5088 l 6.0774,-3.5088 l -6.0774,-3.5088 l -6.0774,3.5088 l 0.0000,-7.0175 l 6.0774,-3.5088 l 0.0000,-7.0175 l -6.0774,-3.5088 l -0.0000,7.0175 l -6.0774,3.5088 l 0.0000,-7.0175 l 0.0000,-7.0175 l 6.0774,-3.5088 l 6.0774,3.5088 l 6.0774,-3.5088 l -6.0774,-3.5088 l 0.0000,-7.0175 l 6.0774,3.5088 l 6.0774,3.5088 l 0.0000,7.0175 l -6.0774,3.5088 l 0.0000,7.0175 l 0.0000,7.0175 l 6.0774,-3.5088 l 0.0000,-7.0175 l 6.0774,3.5088 l 0.0000,7.0175 l 6.0774,3.5088 l 6.0774,-3.5088 l -6.0774,-3.5088 l 0.0000,-7.0175 l 6.0774,3.5088 l 6.0774,3.5088 l 0.0000,7.0175 l 6.0774,3.5088 l 6.0774,-3.5088 l 6.0774,-3.5088 l -6.0774,-3.5088 l -6.0774,3.5088 l 0.0000,-7.0175 l 6.0774,-3.5088 l 6.0774,3.5088 l 6.0774,-3.5088 l 6.0774,-3.5088 l -6.0774,-3.5088 l -6.0774,3.5088 l 0.0000,-7.0175 l 6.0774,-3.5088 l 0.0000,-7.0175 l -6.0774,-3.5088 l -6.0774,-3.5088 l -0.0000,7.0175 l 6.0774,3.5088 l -6.0774,3.5088 l -6.0774,-3.5088 l -6.0774,3.5088 l -0.0000,7.0175 l 6.0774,-3.5088 l 6.0774,3.5088 l -6.0774,3.5088 l -6.0774,3.5088 l -6.0774,-3.5088 l 0.0000,-7.0175 l -6.0774,-3.5088 l -0.0000,7.0175 l -6.0774,3.5088 l 0.0000,-7.0175 l 0.0000,-7.0175 l 6.0774,-3.5088 l 6.0774,3.5088 l 6.0774,-3.5088 l 6.0774,-3.5088 l -6.0774,-3.5088 l -6.0774,3.5088 l 0.0000,-7.0175 l 6.0774,-3.5088 l 6.0774,3.5088 l 6.0774,-3.5088 l -6.0774,-3.5088 l 0.0000,-7.0175 l 6.0774,3.5088 l 6.0774,3.5088 l 0.0000,7.0175 l 6.0774,3.5088 l 6.0774,-3.5088 l 6.0774,-3.5088 l -6.0774,-3.5088 l -6.0774,3.5088 l 0.0000,-7.0175 l 6.0774,-3.5088 l 0.0000,-7.0175 l -6.0774,-3.5088 l -6.0774,-3.5088 l -0.0000,7.0175 l 6.0774,3.5088 l -6.0774,3.5088 l -6.0774,-3.5088 l 0.0000,-7.0175 l -6.0774,-3.5088 l -0.0000,7.0175 l -6.0774,3.5088 l 0.0000,-7.0175 l 0.0000,-7.0175 l 6.0774,-3.5088 l 6.0774,3.5088 l 6.0774,-3.5088 l -6.0774,-3.5088 l 0.0000,-7.0175 l 6.0774,3.5088 l 6.0774,3.5088 l 0.0000,7.0175 l 6.0774,3.5088 l 6.0774,-3.5088 l -6.0774,-3.5088 l 0.0000,-7.0175 l 6.0774,3.5088 l 6.0774,3.5088 l 0.0000,7.0175 l -6.0774,3.5088 l 0.0000,7.0175 l 0.0000,7.0175 l 6.0774,-3.5088 l 0.0000,-7.0175 l 6.0774,3.5088 l 0.0000,7.0175 l -6.0774,3.5088 l 0.0000,7.0175 l 6.0774,-3.5088 l 6.0774,3.5088 l -6.0774,3.5088 l -6.0774,3.5088 l -6.0774,-3.5088 l -6.0774,3.5088 l 0.0000,7.0175 l 0.0000,7.0175 l 6.0774,-3.5088 l 0.0000,-7.0175 l 6.0774,3.5088 l 0.0000,7.0175 l 6.0774,3.5088 l 6.0774,-3.5088 l 6.0774,-3.5088 l -6.0774,-3.5088 l -6.0774,3.5088 l 0.0000,-7.0175 l 6.0774,-3.5088 l 6.0774,3.5088 l 6.0774,-3.5088 l -6.0774,-3.5088 l 0.0000,-7.0175 l 6.0774,3.5088 l 6.0774,3.5088 l 0.0000,7.0175 l -6.0774,3.5088 l 0.0000,7.0175 l 6.0774,-3.5088 l 6.0774,3.5088 l -6.0774,3.5088 l -6.0774,3.5088 l -6.0774,-3.5088 l -6.0774,3.5088 l 0.0000,7.0175 l 6.0774,-3.5088 l 6.0774,3.5088 l -6.0774,3.5088 l -6.0774,3.5088 l -6.0774,-3.5088 l -0.0000,-7.0175 l -6.0774,-3.5088 l -6.0774,-3.5088 l 0.0000,7.0175 l 6.0774,3.5088 l -6.0774,3.5088 l -6.0774,-3.5088 l -6.0774,3.5088 l 0.0000,7.0175 l 6.0774,-3.5088 l 6.0774,3.5088 l -6.0774,3.5088 l -6.0774,3.5088 l -6.0774,-3.5088 l -6.0774,3.5088 l 0.0000,7.0175 l 0.0000,7.0175 l 6.0774,-3.5088 l 0.0000,-7.0175 l 6.0774,3.5088 l 0.0000,7.0175 l 6.0774,3.5088 l 6.0774,-3.5088 l 6.0774,-3.5088 l -6.0774,-3.5088 l -6.0774,3.5088 l 0.0000,-7.0175 l 6.0774,-3.5088 l 6.0774,3.5088 l 6.0774,-3.5088 l -6.0774,-3.5088 l 0.0000,-7.0175 l 6.0774,3.5088 l 6.0774,3.5088 l 0.0000,7.0175 l -6.0774,3.5088 l 0.0000,7.0175 l 6.0774,-3.5088 l 6.0774,3.5088 l -6.0774,3.5088 l -6.0774,3.5088 l -6.0774,-3.5088 l -6.0774,3.5088 l 0.0000,7.0175 l 6.0774,-3.5088 l 6.0774,3.5088 l -6.0774,3.5088 l -6.0774,3.5088 l -6.0774,-3.5088 l -0.0000,-7.0175 l -6.0774,-3.5088 l -6.0774,-3.5088 l 0.0000,7.0175 l 6.0774,3.5088 l -6.0774,3.5088 l -6.0774,-3.5088 l -0.0000,-7.0175 l -6.0774,-3.5088 l 0.0000,7.0175 l -6.0774,3.5088 l -0.0000,-7.0175 l -0.0000,-7.0175 l 6.0774,-3.5088 l -0.0000,-7.0175 l -6.0774,-3.5088 l -6.0774,-3.5088 l 0.0000,7.0175 l 6.0774,3.5088 l -6.0774,3.5088 l -6.0774,-3.5088 l -0.0000,-7.0175 l -6.0774,-3.5088 l -6.0774,-3.5088 l 0.0000,7.0175 l 6.0774,3.5088 l -6.0774,3.5088 l -6.0774,-3.5088 l -6.0774,3.5088 l 0.0000,7.0175 l 0.0000,7.0175 l 6.0774,-3.5088 l 0.0000,-7.0175 l 6.0774,3.5088 l 0.0000,7.0175 l 6.0774,3.5088 l 6.0774,-3.5088 l -6.0774,-3.5088 l 0.0000,-7.0175 l 6.0774,3.5088 l 6.0774,3.5088 l 0.0000,7.0175 l -6.0774,3.5088 l 0.0000,7.0175 l 6.0774,-3.5088 l 6.0774,3.5088 l -6.0774,3.5088 l -6.0774,3.5088 l -6.0774,-3.5088 l -0.0000,-7.0175 l -6.0774,-3.5088 l -6.0774,-3.5088 l 0.0000,7.0175 l 6.0774,3.5088 l -6.0774,3.5088 l -6.0774,-3.5088 l -0.0000,-7.0175 l -6.0774,-3.5088 l 0.0000,7.0175 l -6.0774,3.5088 l -0.0000,-7.0175 l -0.0000,-7.0175 l 6.0774,-3.5088 l -0.0000,-7.0175 l -6.0774,-3.5088 l -6.0774,-3.5088 l 0.0000,7.0175 l 6.0774,3.5088 l -6.0774,3.5088 l -6.0774,-3.5088 l -6.0774,3.5088 l 0.0000,7.0175 l 0.0000,7.0175 l 6.0774,-3.5088 l 0.0000,-7.0175 l 6.0774,3.5088 l 0.0000,7.0175 l -6.0774,3.5088 l 0.0000,7.0175 l 6.0774,-3.5088 l 6.0774,3.5088 l -6.0774,3.5088 l -6.0774,3.5088 l -6.0774,-3.5088 l -0.0000,-7.0175 l -6.0774,-3.5088 l 0.0000,7.0175 l -6.0774,3.5088 l -0.0000,-7.0175 l -0.0000,-7.0175 l 6.0774,-3.5088 l -0.0000,-7.0175 l -6.0774,-3.5088 l 0.0000,7.0175 l -6.0774,3.5088 l -0.0000,-7.0175 l -0.0000,-7.0175 l 6.0774,-3.5088 l 6.0774,3.5088 l 6.0774,-3.5088 l 6.0774,-3.5088 l -6.0774,-3.5088 l -6.0774,3.5088 l -0.0000,-7.0175 l 6.0774,-3.5088 l -0.0000,-7.0175 l -6.0774,-3.5088 l 0.0000,7.0175 l -6.0774,3.5088 l -0.0000,-7.0175 l -0.0000,-7.0175 l 6.0774,-3.5088 l -0.0000,-7.0175 l -6.0774,-3.5088 l -6.0774,-3.5088 l 0.0000,7.0175 l 6.0774,3.5088 l -6.0774,3.5088 l -6.0774,-3.5088 l -0.0000,-7.0175 l -6.0774,-3.5088 l -6.0774,-3.5088 l 0.0000,7.0175 l 6.0774,3.5088 l -6.0774,3.5088 l -6.0774,-3.5088 l -6.0774,3.5088 l 0.0000,7.0175 l 0.0000,7.0175 l 6.0774,-3.5088 l 0.0000,-7.0175 l 6.0774,3.5088 l 0.0000,7.0175 l 6.0774,3.5088 l 6.0774,-3.5088 l -6.0774,-3.5088 l 0.0000,-7.0175 l 6.0774,3.5088 l 6.0774,3.5088 l 0.0000,7.0175 l -6.0774,3.5088 l 0.0000,7.0175 l 6.0774,-3.5088 l 6.0774,3.5088 l -6.0774,3.5088 l -6.0774,3.5088 l -6.0774,-3.5088 l -0.0000,-7.0175 l -6.0774,-3.5088 l -6.0774,-3.5088 l 0.0000,7.0175 l 6.0774,3.5088 l -6.0774,3.5088 l -6.0774,-3.5088 l -6.0774,3.5088 l 0.0000,7.0175 l 6.0774,-3.5088 l 6.0774,3.5088 l -6.0774,3.5088 l -6.0774,3.5088 l -6.0774,-3.5088 l -6.0774,3.5088 l 0.0000,7.0175 l 0.0000,7.0175 l 6.0774,-3.5088 l 0.0000,-7.0175 l 6.0774,3.5088 l 0.0000,7.0175 l -6.0774,3.5088 l 0.0000,7.0175 l 0.0000,7.0175 l 6.0774,-3.5088 l 0.0000,-7.0175 l 6.0774,3.5088 l 0.0000,7.0175 l 6.0774,3.5088 l 6.0774,-3.5088 l 6.0774,-3.5088 l -6.0774,-3.5088 l -6.0774,3.5088 l 0.0000,-7.0175 l 6.0774,-3.5088 l 0.0000,-7.0175 l -6.0774,-3.5088 l -0.0000,7.0175 l -6.0774,3.5088 l 0.0000,-7.0175 l 0.0000,-7.0175 l 6.0774,-3.5088 l 6.0774,3.5088 l 6.0774,-3.5088 l -6.0774,-3.5088 l 0.0000,-7.0175 l 6.0774,3.5088 l 6.0774,3.5088 l 0.0000,7.0175 l -6.0774,3.5088 l 0.0000,7.0175 l 0.0000,7.0175 l 6.0774,-3.5088 l 0.0000,-7.0175 l 6.0774,3.5088 l 0.0000,7.0175 l -6.0774,3.5088 l 0.0000,7.0175 l 6.0774,-3.5088 l 6.0774,3.5088 l -6.0774,3.5088 l -6.0774,3.5088 l -6.0774,-3.5088 l -6.0774,3.5088 l 0.0000,7.0175 l 0.0000,7.0175 l 6.0774,-3.5088 l 0.0000,-7.0175 l 6.0774,3.5088 l 0.0000,7.0175 l 6.0774,3.5088 l 6.0774,-3.5088 l 6.0774,-3.5088 l -6.0774,-3.5088 l -6.0774,3.5088 l 0.0000,-7.0175 l 6.0774,-3.5088 l 6.0774,3.5088 l 6.0774,-3.5088 l -6.0774,-3.5088 l 0.0000,-7.0175 l 6.0774,3.5088 l 6.0774,3.5088 l 0.0000,7.0175 l -6.0774,3.5088 l 0.0000,7.0175 l 6.0774,-3.5088 l 6.0774,3.5088 l -6.0774,3.5088 l -6.0774,3.5088 l -6.0774,-3.5088 l -6.0774,3.5088 l 0.0000,7.0175 l 6.0774,-3.5088 l 6.0774,3.5088 l -6.0774,3.5088 l -6.0774,3.5088 l -6.0774,-3.5088 l -0.0000,-7.0175 l -6.0774,-3.5088 l -6.0774,-3.5088 l 0.0000,7.0175 l 6.0774,3.5088 l -6.0774,3.5088 l -6.0774,-3.5088 l -0.0000,-7.0175 l -6.0774,-3.5088 l 0.0000,7.0175 l -6.0774,3.5088 l -0.0000,-7.0175 l -0.0000,-7.0175 l 6.0774,-3.5088 l -0.0000,-7.0175 l -6.0774,-3.5088 l -6.0774,-3.5088 l 0.0000,7.0175 l 6.0774,3.5088 l -6.0774,3.5088 l -6.0774,-3.5088 l -6.0774,3.5088 l 0.0000,7.0175 l 0.0000,7.0175 l 6.0774,-3.5088 l 0.0000,-7.0175 l 6.0774,3.5088 l 0.0000,7.0175 l -6.0774,3.5088 l 0.0000,7.0175 l 6.0774,-3.5088 l 6.0774,3.5088 l -6.0774,3.5088 l -6.0774,3.5088 l -6.0774,-3.5088 l -0.0000,-7.0175 l -6.0774,-3.5088 l 0.0000,7.0175 l -6.0774,3.5088 l -0.0000,-7.0175 l -0.0000,-7.0175 l 6.0774,-3.5088 l -0.0000,-7.0175 l -6.0774,-3.5088 l 0.0000,7.0175 l -6.0774,3.5088 l -0.0000,-7.0175 l -0.0000,-7.0175 l 6.0774,-3.5088 l 6.0774,3.5088 l 6.0774,-3.5088 l 6.0774,-3.5088 l -6.0774,-3.5088 l -6.0774,3.5088 l -0.0000,-7.0175 l 6.0774,-3.5088 l -0.0000,-7.0175 l -6.0774,-3.5088 l 0.0000,7.0175 l -6.0774,3.5088 l -0.0000,-7.0175 l -0.0000,-7.0175 l 6.0774,-3.5088 l -0.0000,-7.0175 l -6.0774,-3.5088 l -6.0774,-3.5088 l 0.0000,7.0175 l 6.0774,3.5088 l -6.0774,3.5088 l -6.0774,-3.5088 l -6.0774,3.5088 l 0.0000,7.0175 l 0.0000,7.0175 l 6.0774,-3.5088 l 0.0000,-7.0175 l 6.0774,3.5088 l 0.0000,7.0175 l -6.0774,3.5088 l 0.0000,7.0175 l 6.0774,-3.5088 l 6.0774,3.5088 l -6.0774,3.5088 l -6.0774,3.5088 l -6.0774,-3.5088 l -0.0000,-7.0175 l -6.0774,-3.5088 l 0.0000,7.0175 l -6.0774,3.5088 l -0.0000,-7.0175 l -0.0000,-7.0175 l 6.0774,-3.5088 l -0.0000,-7.0175 l -6.0774,-3.5088 l 0.0000,7.0175 l -6.0774,3.5088 l -0.0000,-7.0175 l -0.0000,-7.0175 l 6.0774,-3.5088 l 6.0774,3.5088 l 6.0774,-3.5088 l 6.0774,-3.5088 l -6.0774,-3.5088 l -6.0774,3.5088 l -0.0000,-7.0175 l 6.0774,-3.5088 l 6.0774,3.5088 l 6.0774,-3.5088 l -6.0774,-3.5088 l -0.0000,-7.0175 l 6.0774,3.5088 l 6.0774,3.5088 l 0.0000,7.0175 l 6.0774,3.5088 l 6.0774,-3.5088 l 6.0774,-3.5088 l -6.0774,-3.5088 l -6.0774,3.5088 l -0.0000,-7.0175 l 6.0774,-3.5088 l 6.0774,3.5088 l 6.0774,-3.5088 l 6.0774,-3.5088 l -6.0774,-3.5088 l -6.0774,3.5088 l -0.0000,-7.0175 l 6.0774,-3.5088 l -0.0000,-7.0175 l -6.0774,-3.5088 l -6.0774,-3.5088 l 0.0000,7.0175 l 6.0774,3.5088 l -6.0774,3.5088 l -6.0774,-3.5088 l -6.0774,3.5088 l 0.0000,7.0175 l 6.0774,-3.5088 l 6.0774,3.5088 l -6.0774,3.5088 l -6.0774,3.5088 l -6.0774,-3.5088 l -0.0000,-7.0175 l -6.0774,-3.5088 l 0.0000,7.0175 l -6.0774,3.5088 l -0.0000,-7.0175 l -0.0000,-7.0175 l 6.0774,-3.5088 l 6.0774,3.5088 l 6.0774,-3.5088 l 6.0774,-3.5088 l -6.0774,-3.5088 l -6.0774,3.5088 l -0.0000,-7.0175 l 6.0774,-3.5088 l -0.0000,-7.0175 l -6.0774,-3.5088 l 0.0000,7.0175 l -6.0774,3.5088 l -0.0000,-7.0175 l -0.0000,-7.0175 l 6.0774,-3.5088 l -0.0000,-7.0175 l -6.0774,-3.5088 l -6.0774,-3.5088 l 0.0000,7.0175 l 6.0774,3.5088 l -6.0774,3.5088 l -6.0774,-3.5088 l -6.0774,3.5088 l 0.0000,7.0175 l 0.0000,7.0175 l 6.0774,-3.5088 l 0.0000,-7.0175 l 6.0774,3.5088 l 0.0000,7.0175 l -6.0774,3.5088 l 0.0000,7.0175 l 6.0774,-3.5088 l 6.0774,3.5088 l -6.0774,3.5088 l -6.0774,3.5088 l -6.0774,-3.5088 l -0.0000,-7.0175 l -6.0774,-3.5088 l 0.0000,7.0175 l -6.0774,3.5088 l -0.0000,-7.0175 l -0.0000,-7.0175 l 6.0774,-3.5088 l -0.0000,-7.0175 l -6.0774,-3.5088 l 0.0000,7.0175 l -6.0774,3.5088 l -0.0000,-7.0175 l -0.0000,-7.0175 l 6.0774,-3.5088 l 6.0774,3.5088 l 6.0774,-3.5088 l 6.0774,-3.5088 l -6.0774,-3.5088 l -6.0774,3.5088 l -0.0000,-7.0175 l 6.0774,-3.5088 l -0.0000,-7.0175 l -6.0774,-3.5088 l 0.0000,7.0175 l -6.0774,3.5088 l -0.0000,-7.0175 l -0.0000,-7.0175 l 6.0774,-3.5088 l -0.0000,-7.0175 l -6.0774,-3.5088 l -6.0774,-3.5088 l 0.0000,7.0175 l 6.0774,3.5088 l -6.0774,3.5088 l -6.0774,-3.5088 l -0.0000,-7.0175 l -6.0774,-3.5088 l -6.0774,-3.5088 l 0.0000,7.0175 l 6.0774,3.5088 l -6.0774,3.5088 l -6.0774,-3.5088 l -6.0774,3.5088 l 0.0000,7.0175 l 0.0000,7.0175 l 6.0774,-3.5088 l 0.0000,-7.0175 l 6.0774,3.5088 l 0.0000,7.0175 l 6.0774,3.5088 l 6.0774,-3.5088 l -6.0774,-3.5088 l 0.0000,-7.0175 l 6.0774,3.5088 l 6.0774,3.5088 l 0.0000,7.0175 l -6.0774,3.5088 l 0.0000,7.0175 l 6.0774,-3.5088 l 6.0774,3.5088 l -6.0774,3.5088 l -6.0774,3.5088 l -6.0774,-3.5088 l -0.0000,-7.0175 l -6.0774,-3.5088 l -6.0774,-3.5088 l 0.0000,7.0175 l 6.0774,3.5088 l -6.0774,3.5088 l -6.0774,-3.5088 l -6.0774,3.5088 l 0.0000,7.0175 l 6.0774,-3.5088 l 6.0774,3.5088 l -6.0774,3.5088 l -6.0774,3.5088 l -6.0774,-3.5088 l -6.0774,3.5088 l 0.0000,7.0175 l 0.0000,7.0175 l 6.0774,-3.5088 l 0.0000,-7.0175 l 6.0774,3.5088 l 0.0000,7.0175 l -6.0774,3.5088 l 0.0000,7.0175 l 0.0000,7.0175 l 6.0774,-3.5088 l 0.0000,-7.0175 l 6.0774,3.5088 l 0.0000,7.0175 l 6.0774,3.5088 l 6.0774,-3.5088 l 6.0774,-3.5088 l -6.0774,-3.5088 l -6.0774,3.5088 l 0.0000,-7.0175 l 6.0774,-3.5088 l 0.0000,-7.0175 l -6.0774,-3.5088 l -0.0000,7.0175 l -6.0774,3.5088 l 0.0000,-7.0175 l 0.0000,-7.0175 l 6.0774,-3.5088 l 6.0774,3.5088 l 6.0774,-3.5088 l -6.0774,-3.5088 l 0.0000,-7.0175 l 6.0774,3.5088 l 6.0774,3.5088 l 0.0000,7.0175 l -6.0774,3.5088 l 0.0000,7.0175 l 0.0000,7.0175 l 6.0774,-3.5088 l 0.0000,-7.0175 l 6.0774,3.5088 l 0.0000,7.0175 l -6.0774,3.5088 l 0.0000,7.0175 l 6.0774,-3.5088 l 6.0774,3.5088 l -6.0774,3.5088 l -6.0774,3.5088 l -6.0774,-3.5088 l -6.0774,3.5088 l 0.0000,7.0175 l 0.0000,7.0175 l 6.0774,-3.5088 l 0.0000,-7.0175 l 6.0774,3.5088 l 0.0000,7.0175 l 6.0774,3.5088 l 6.0774,-3.5088 l 6.0774,-3.5088 l -6.0774,-3.5088 l -6.0774,3.5088 l 0.0000,-7.0175 l 6.0774,-3.5088 l 6.0774,3.5088 l 6.0774,-3.5088 l -6.0774,-3.5088 l 0.0000,-7.0175 l 6.0774,3.5088 l 6.0774,3.5088 l 0.0000,7.0175 l -6.0774,3.5088 l 0.0000,7.0175 l 6.0774,-3.5088 l 6.0774,3.5088 l -6.0774,3.5088 l -6.0774,3.5088 l -6.0774,-3.5088 l -6.0774,3.5088 l 0.0000,7.0175 l 6.0774,-3.5088 l 6.0774,3.5088 l -6.0774,3.5088 l -6.0774,3.5088 l -6.0774,-3.5088 l -0.0000,-7.0175 l -6.0774,-3.5088 l -6.0774,-3.5088 l 0.0000,7.0175 l 6.0774,3.5088 l -6.0774,3.5088 l -6.0774,-3.5088 l -0.0000,-7.0175 l -6.0774,-3.5088 l 0.0000,7.0175 l -6.0774,3.5088 l -0.0000,-7.0175 l -0.0000,-7.0175 l 6.0774,-3.5088 l -0.0000,-7.0175 l -6.0774,-3.5088 l -6.0774,-3.5088 l 0.0000,7.0175 l 6.0774,3.5088 l -6.0774,3.5088 l -6.0774,-3.5088 l -6.0774,3.5088 l 0.0000,7.0175 l 0.0000,7.0175 l 6.0774,-3.5088 l 0.0000,-7.0175 l 6.0774,3.5088 l 0.0000,7.0175 l -6.0774,3.5088 l 0.0000,7.0175 l 6.0774,-3.5088 l 6.0774,3.5088 l -6.0774,3.5088 l -6.0774,3.5088 l -6.0774,-3.5088 l -0.0000,-7.0175 l -6.0774,-3.5088 l 0.0000,7.0175 l -6.0774,3.5088 l -0.0000,-7.0175 l -0.0000,-7.0175 l 6.0774,-3.5088 l -0.0000,-7.0175 l -6.0774,-3.5088 l 0.0000,7.0175 l -6.0774,3.5088 l -0.0000,-7.0175 l -0.0000,-7.0175 l 6.0774,-3.5088 l 6.0774,3.5088 l 6.0774,-3.5088 l 6.0774,-3.5088 l -6.0774,-3.5088 l -6.0774,3.5088 l -0.0000,-7.0175 l 6.0774,-3.5088 l -0.0000,-7.0175 l -6.0774,-3.5088 l 0.0000,7.0175 l -6.0774,3.5088 l -0.0000,-7.0175 l -0.0000,-7.0175 l 6.0774,-3.5088 l -0.0000,-7.0175 l -6.0774,-3.5088 l -6.0774,-3.5088 l 0.0000,7.0175 l 6.0774,3.5088 l -6.0774,3.5088 l -6.0774,-3.5088 l -6.0774,3.5088 l 0.0000,7.0175 l 0.0000,7.0175 l 6.0774,-3.5088 l 0.0000,-7.0175 l 6.0774,3.5088 l 0.0000,7.0175 l -6.0774,3.5088 l 0.0000,7.0175 l 6.0774,-3.5088 l 6.0774,3.5088 l -6.0774,3.5088 l -6.0774,3.5088 l -6.0774,-3.5088 l -0.0000,-7.0175 l -6.0774,-3.5088 l 0.0000,7.0175 l -6.0774,3.5088 l -0.0000,-7.0175 l -0.0000,-7.0175 l 6.0774,-3.5088 l -0.0000,-7.0175 l -6.0774,-3.5088 l 0.0000,7.0175 l -6.0774,3.5088 l -0.0000,-7.0175 l -0.0000,-7.0175 l 6.0774,-3.5088 l 6.0774,3.5088 l 6.0774,-3.5088 l 6.0774,-3.5088 l -6.0774,-3.5088 l -6.0774,3.5088 l -0.0000,-7.0175 l 6.0774,-3.5088 l 6.0774,3.5088 l 6.0774,-3.5088 l -6.0774,-3.5088 l -0.0000,-7.0175 l 6.0774,3.5088 l 6.0774,3.5088 l 0.0000,7.0175 l 6.0774,3.5088 l 6.0774,-3.5088 l 6.0774,-3.5088 l -6.0774,-3.5088 l -6.0774,3.5088 l -0.0000,-7.0175 l 6.0774,-3.5088 l 6.0774,3.5088 l 6.0774,-3.5088 l 6.0774,-3.5088 l -6.0774,-3.5088 l -6.0774,3.5088 l -0.0000,-7.0175 l 6.0774,-3.5088 l -0.0000,-7.0175 l -6.0774,-3.5088 l -6.0774,-3.5088 l 0.0000,7.0175 l 6.0774,3.5088 l -6.0774,3.5088 l -6.0774,-3.5088 l -6.0774,3.5088 l 0.0000,7.0175 l 6.0774,-3.5088 l 6.0774,3.5088 l -6.0774,3.5088 l -6.0774,3.5088 l -6.0774,-3.5088 l -0.0000,-7.0175 l -6.0774,-3.5088 l 0.0000,7.0175 l -6.0774,3.5088 l -0.0000,-7.0175 l -0.0000,-7.0175 l 6.0774,-3.5088 l 6.0774,3.5088 l 6.0774,-3.5088 l 6.0774,-3.5088 l -6.0774,-3.5088 l -6.0774,3.5088 l -0.0000,-7.0175 l 6.0774,-3.5088 l 6.0774,3.5088 l 6.0774,-3.5088 l -6.0774,-3.5088 l -0.0000,-7.0175 l 6.0774,3.5088 l 6.0774,3.5088 l 0.0000,7.0175 l 6.0774,3.5088 l 6.0774,-3.5088 l 6.0774,-3.5088 l -6.0774,-3.5088 l -6.0774,3.5088 l -0.0000,-7.0175 l 6.0774,-3.5088 l -0.0000,-7.0175 l -6.0774,-3.5088 l -6.0774,-3.5088 l 0.0000,7.0175 l 6.0774,3.5088 l -6.0774,3.5088 l -6.0774,-3.5088 l -0.0000,-7.0175 l -6.0774,-3.5088 l 0.0000,7.0175 l -6.0774,3.5088 l -0.0000,-7.0175 l -0.0000,-7.0175 l 6.0774,-3.5088 l 6.0774,3.5088 l 6.0774,-3.5088 l -6.0774,-3.5088 l -0.0000,-7.0175 l 6.0774,3.5088 l 6.0774,3.5088 l 0.0000,7.0175 l 6.0774,3.5088 l 6.0774,-3.5088 l -6.0774,-3.5088 l -0.0000,-7.0175 l 6.0774,3.5088 l 6.0774,3.5088 l 0.0000,7.0175 l -6.0774,3.5088 l 0.0000,7.0175 l 0.0000,7.0175 l 6.0774,-3.5088 l -0.0000,-7.0175 l 6.0774,3.5088 l 0.0000,7.0175 l 6.0774,3.5088 l 6.0774,-3.5088 l -6.0774,-3.5088 l -0.0000,-7.0175 l 6.0774,3.5088 l 6.0774,3.5088 l 0.0000,7.0175 l 6.0774,3.5088 l 6.0774,-3.5088 l 6.0774,-3.5088 l -6.0774,-3.5088 l -6.0774,3.5088 l -0.0000,-7.0175 l 6.0774,-3.5088 l 6.0774,3.5088 l 6.0774,-3.5088 l 6.0774,-3.5088 l -6.0774,-3.5088 l -6.0774,3.5088 l -0.0000,-7.0175 l 6.0774,-3.5088 l -0.0000,-7.0175 l -6.0774,-3.5088 l -6.0774,-3.5088 l 0.0000,7.0175 l 6.0774,3.5088 l -6.0774,3.5088 l -6.0774,-3.5088 l -6.0774,3.5088 l 0.0000,7.0175 l 6.0774,-3.5088 l 6.0774,3.5088 l -6.0774,3.5088 l -6.0774,3.5088 l -6.0774,-3.5088 l -0.0000,-7.0175 l -6.0774,-3.5088 l 0.0000,7.0175 l -6.0774,3.5088 l -0.0000,-7.0175 l -0.0000,-7.0175 l 6.0774,-3.5088 l 6.0774,3.5088 l 6.0774,-3.5088 l 6.0774,-3.5088 l -6.0774,-3.5088 l -6.0774,3.5088 l -0.0000,-7.0175 l 6.0774,-3.5088 l 6.0774,3.5088 l 6.0774,-3.5088 l -6.0774,-3.5088 l -0.0000,-7.0175 l 6.0774,3.5088 l 6.0774,3.5088 l 0.0000,7.0175 l 6.0774,3.5088 l 6.0774,-3.5088 l 6.0774,-3.5088 l -6.0774,-3.5088 l -6.0774,3.5088 l -0.0000,-7.0175 l 6.0774,-3.5088 l 6.0774,3.5088 l 6.0774,-3.5088 l 6.0774,-3.5088 l -6.0774,-3.5088 l -6.0774,3.5088 l -0.0000,-7.0175 l 6.0774,-3.5088 l -0.0000,-7.0175 l -6.0774,-3.5088 l -6.0774,-3.5088 l 0.0000,7.0175 l 6.0774,3.5088 l -6.0774,3.5088 l -6.0774,-3.5088 l -6.0774,3.5088 l 0.0000,7.0175 l 6.0774,-3.5088 l 6.0774,3.5088 l -6.0774,3.5088 l -6.0774,3.5088 l -6.0774,-3.5088 l -0.0000,-7.0175 l -6.0774,-3.5088 l 0.0000,7.0175 l -6.0774,3.5088 l -0.0000,-7.0175 l -0.0000,-7.0175 l 6.0774,-3.5088 l 6.0774,3.5088 l 6.0774,-3.5088 l 6.0774,-3.5088 l -6.0774,-3.5088 l -6.0774,3.5088 l -0.0000,-7.0175 l 6.0774,-3.5088 l -0.0000,-7.0175 l -6.0774,-3.5088 l 0.0000,7.0175 l -6.0774,3.5088 l -0.0000,-7.0175 l -0.0000,-7.0175 l 6.0774,-3.5088 l -0.0000,-7.0175 l -6.0774,-3.5088 l -6.0774,-3.5088 l 0.0000,7.0175 l 6.0774,3.5088 l -6.0774,3.5088 l -6.0774,-3.5088 l -0.0000,-7.0175 l -6.0774,-3.5088 l -6.0774,-3.5088 l 0.0000,7.0175 l 6.0774,3.5088 l -6.0774,3.5088 l -6.0774,-3.5088 l -6.0774,3.5088 l 0.0000,7.0175 l 0.0000,7.0175 l 6.0774,-3.5088 l 0.0000,-7.0175 l 6.0774,3.5088 l 0.0000,7.0175 l 6.0774,3.5088 l 6.0774,-3.5088 l -6.0774,-3.5088 l 0.0000,-7.0175 l 6.0774,3.5088 l 6.0774,3.5088 l 0.0000,7.0175 l -6.0774,3.5088 l 0.0000,7.0175 l 6.0774,-3.5088 l 6.0774,3.5088 l -6.0774,3.5088 l -6.0774,3.5088 l -6.0774,-3.5088 l -0.0000,-7.0175 l -6.0774,-3.5088 l -6.0774,-3.5088 l 0.0000,7.0175 l 6.0774,3.5088 l -6.0774,3.5088 l -6.0774,-3.5088 l -6.0774,3.5088 l 0.0000,7.0175 l 6.0774,-3.5088 l 6.0774,3.5088 l -6.0774,3.5088 l -6.0774,3.5088 l -6.0774,-3.5088 l -6.0774,3.5088 l 0.0000,7.0175 l 0.0000,7.0175 l 6.0774,-3.5088 l 0.0000,-7.0175 l 6.0774,3.5088 l 0.0000,7.0175 l 6.0774,3.5088 l 6.0774,-3.5088 l 6.0774,-3.5088 l -6.0774,-3.5088 l -6.0774,3.5088 l 0.0000,-7.0175 l 6.0774,-3.5088 l 6.0774,3.5088 l 6.0774,-3.5088 l -6.0774,-3.5088 l 0.0000,-7.0175 l 6.0774,3.5088 l 6.0774,3.5088 l 0.0000,7.0175 l -6.0774,3.5088 l 0.0000,7.0175 l 6.0774,-3.5088 l 6.0774,3.5088 l -6.0774,3.5088 l -6.0774,3.5088 l -6.0774,-3.5088 l -6.0774,3.5088 l 0.0000,7.0175 l 6.0774,-3.5088 l 6.0774,3.5088 l -6.0774,3.5088 l -6.0774,3.5088 l -6.0774,-3.5088 l -0.0000,-7.0175 l -6.0774,-3.5088 l -6.0774,-3.5088 l 0.0000,7.0175 l 6.0774,3.5088 l -6.0774,3.5088 l -6.0774,-3.5088 l -0.0000,-7.0175 l -6.0774,-3.5088 l 0.0000,7.0175 l -6.0774,3.5088 l -0.0000,-7.0175 l -0.0000,-7.0175 l 6.0774,-3.5088 l -0.0000,-7.0175 l -6.0774,-3.5088 l -6.0774,-3.5088 l 0.0000,7.0175 l 6.0774,3.5088 l -6.0774,3.5088 l -6.0774,-3.5088 l -6.0774,3.5088 l 0.0000,7.0175 l 0.0000,7.0175 l 6.0774,-3.5088 l 0.0000,-7.0175 l 6.0774,3.5088 l 0.0000,7.0175 l -6.0774,3.5088 l 0.0000,7.0175 l 6.0774,-3.5088 l 6.0774,3.5088 l -6.0774,3.5088 l -6.0774,3.5088 l -6.0774,-3.5088 l -0.0000,-7.0175 l -6.0774,-3.5088 l 0.0000,7.0175 l -6.0774,3.5088 l -0.0000,-7.0175 l -0.0000,-7.0175 l 6.0774,-3.5088 l -0.0000,-7.0175 l -6.0774,-3.5088 l 0.0000,7.0175 l -6.0774,3.5088 l -0.0000,-7.0175 l -0.0000,-7.0175 l 6.0774,-3.5088 l 6.0774,3.5088 l 6.0774,-3.5088 l 6.0774,-3.5088 l -6.0774,-3.5088 l -6.0774,3.5088 l -0.0000,-7.0175 l 6.0774,-3.5088 l 6.0774,3.5088 l 6.0774,-3.5088 l -6.0774,-3.5088 l -0.0000,-7.0175 l 6.0774,3.5088 l 6.0774,3.5088 l 0.0000,7.0175 l 6.0774,3.5088 l 6.0774,-3.5088 l 6.0774,-3.5088 l -6.0774,-3.5088 l -6.0774,3.5088 l -0.0000,-7.0175 l 6.0774,-3.5088 l 6.0774,3.5088 l 6.0774,-3.5088 l 6.0774,-3.5088 l -6.0774,-3.5088 l -6.0774,3.5088 l -0.0000,-7.0175 l 6.0774,-3.5088 l -0.0000,-7.0175 l -6.0774,-3.5088 l -6.0774,-3.5088 l 0.0000,7.0175 l 6.0774,3.5088 l -6.0774,3.5088 l -6.0774,-3.5088 l -6.0774,3.5088 l 0.0000,7.0175 l 6.0774,-3.5088 l 6.0774,3.5088 l -6.0774,3.5088 l -6.0774,3.5088 l -6.0774,-3.5088 l -0.0000,-7.0175 l -6.0774,-3.5088 l 0.0000,7.0175 l -6.0774,3.5088 l -0.0000,-7.0175 l -0.0000,-7.0175 l 6.0774,-3.5088 l 6.0774,3.5088 l 6.0774,-3.5088 l 6.0774,-3.5088 l -6.0774,-3.5088 l -6.0774,3.5088 l -0.0000,-7.0175 l 6.0774,-3.5088 "/></g></svg>