<svg xmlns="http://www.w3.org/2000/svg" height="103.6681" stroke-opacity="1" viewBox="0 0 400 104" font-size="1" width="400.0000" xmlns:xlink="http://www.w3.org/1999/xlink" stroke="rgb(0,0,0)" version="1.1"><defs></defs><g stroke-linejoin="miter" stroke-opacity="1.0" fill-opacity="0.0" stroke="rgb(0,0,0)" stroke-width="0.8145401764942943" fill="rgb(0,0,0)" stroke-linecap="butt" stroke-miterlimit="10.0"><path d="M 205.5556,75.8903 l 2.0576,0.0000 l 1.0288,-1.7819 l 1.0288,1.7819 l 2.0576,0.0000 l 1.0288,-1.7819 l -1.0288,-1.7819 l 2.0576,0.0000 l 1.0288,-1.7819 l 1.0288,1.7819 l 2.0576,0.0000 l -1.0288,1.7819 l 1.0288,1.7819 l 2.0576,0.0000 l 1.0288,-1.7819 l 1.0288,1.7819 l 2.0576,0.0000 l 1.0288,-1.7819 l -1.0288,-1.7819 l 2.0576,0.0000 l 1.0288,-1.7819 l -1.0288,-1.7819 l -2.0576,-0.0000 l 1.0288,-1.7819 l -1.0288,-1.7819 l 2.0576,0.0000 l 1.0288,-1.7819 l 1.0288,1.7819 l 2.0576,0.0000 l 1.0288,-1.7819 l -1.0288,-1.7819 l 2.0576,0.0000 l 1.0288,-1.7819 l 1.0288,1.7819 l 2.0576,-0.0000 l -1.0288,1.7819 l 1.0288,1.7819 l 2.0576,-0.0000 l 1.0288,-1.7819 l 1.0288,1.7819 l 2.0576,-0.0000 l -1.0288,1.7819 l 1.0288,1.7819 l -2.0576,0.0000 l -1.0288,1.7819 l 1.0288,1.7819 l 2.0576,-0.0000 l -1.0288,1.7819 l 1.0288,1.7819 l 2.0576,0.0000 l 1.0288,-1.7819 l 1.0288,1.7819 l 2.0576,0.0000 l 1.0288,-1.7819 l -1.0288,-1.7819 l 2.0576,0.0000 l 1.0288,-1.7819 l 1.0288,1.7819 l 2.0576,0.0000 l -1.0288,1.7819 l 1.0288,1.7819 l 2.0576,0.0000 l 1.0288,-1.7819 l 1.0288,1.7819 l 2.0576,0.0000 l 1.0288,-1.7819 l -1.0288,-1.7819 h 2.0576 l 1.0288,-1.7819 l -1.0288,-1.7819 l -2.0576,-0.0000 l 1.0288,-1.7819 l -1.0288,-1.7819 h 2.0576 l 1.0288,-1.7819 l 1.0288,1.7819 h 2.0576 l 1.0288,-1.7819 l -1.0288,-1.7819 h 2.0576 l 1.0288,-1.7819 l -1.0288,-1.7819 l -2.0576,-0.0000 l 1.0288,-1.7819 l -1.0288,-1.7819 l -2.0576,-0.0000 l -1.0288,1.7819 l -1.0288,-1.7819 l -2.0576,-0.0000 l 1.0288,-1.7819 l -1.0288,-1.7819 l 2.0576,0.0000 l 1.0288,-1.7819 l -1.0288,-1.7819 l -2.0576,-0.0000 l 1.0288,-1.7819 l -1.0288,-1.7819 l 2.0576,-0.0000 l 1.0288,-1.7819 l 1.0288,1.7819 l 2.0576,-0.0000 l 1.0288,-1.7819 l -1.0288,-1.7819 l 2.0576,-0.0000 l 1.0288,-1.7819 l 1.0288,1.7819 l 2.0576,-0.0000 l -1.0288,1.7819 l 1.0288,1.7819 l 2.0576,-0.0000 l 1.0288,-1.7819 l 1.0288,1.7819 l 2.0576,-0.0000 l 1.0288,-1.7819 l -1.0288,-1.7819 h 2.0576 l 1.0288,-1.7819 l -1.0288,-1.7819 l -2.0576,-0.0000 l 1.0288,-1.7819 l -1.0288,-1.7819 h 2.0576 l 1.0288,-1.7819 l 1.0288,1.7819 h 2.0576 l 1.0288,-1.7819 l -1.0288,-1.7819 h 2.0576 l 1.0288,-1.7819 l 1.0288,1.7819 h 2.0576 l -1.0288,1.7819 l 1.0288,1.7819 h 2.0576 l 1.0288,-1.7819 l 1.0288,1.7819 h 2.0576 l -1.0288,1.7819 l 1.0288,1.7819 l -2.0576,0.0000 l -1.0288,1.7819 l 1.0288,1.7819 h 2.0576 l -1.0288,1.7819 l 1.0288,1.7819 l 2.0576,0.0000 l 1.0288,-1.7819 l 1.0288,1.7819 l 2.0576,0.0000 l 1.0288,-1.7819 l -1.0288,-1.7819 l 2.0576,0.0000 l 1.0288,-1.7819 l 1.0288,1.7819 l 2.0576,0.0000 l -1.0288,1.7819 l 1.0288,1.7819 l 2.0576,0.0000 l 1.0288,-1.7819 l 1.0288,1.7819 l 2.0576,0.0000 l -1.0288,1.7819 l 1.0288,1.7819 l -2.0576,0.0000 l -1.0288,1.7819 l 1.0288,1.7819 l 2.0576,-0.0000 l -1.0288,1.7819 l 1.0288,1.7819 l -2.0576,0.0000 l -1.0288,1.7819 l -1.0288,-1.7819 l -2.0576,0.0000 l -1.0288,1.7819 l 1.0288,1.7819 l -2.0576,0.0000 l -1.0288,1.7819 l 1.0288,1.7819 h 2.0576 l -1.0288,1.7819 l 1.0288,1.7819 h 2.0576 l 1.0288,-1.7819 l 1.0288,1.7819 h 2.0576 l -1.0288,1.7819 l 1.0288,1.7819 l -2.0576,0.0000 l -1.0288,1.7819 l 1.0288,1.7819 h 2.0576 l -1.0288,1.7819 l 1.0288,1.7819 l 2.0576,0.0000 l 1.0288,-1.7819 l 1.0288,1.7819 l 2.0576,0.0000 l 1.0288,-1.7819 l -1.0288,-1.7819 l 2.0576,0.0000 l 1.0288,-1.7819 l 1.0288,1.7819 l 2.0576,0.0000 l -1.0288,1.7819 l 1.0288,1.7819 l 2.0576,0.0000 l 1.0288,-1.7819 l 1.0288,1.7819 l 2.0576,0.0000 l 1.0288,-1.7819 l -1.0288,-1.7819 l 2.0576,0.0000 l 1.0288,-1.7819 l -1.0288,-1.7819 l -2.0576,-0.0000 l 1.0288,-1.7819 l -1.0288,-1.7819 l 2.0576,0.0000 l 1.0288,-1.7819 l 1.0288,1.7819 l 2.0576,0.0000 l 1.0288,-1.7819 l -1.0288,-1.7819 l 2.0576,0.0000 l 1.0288,-1.7819 l 1.0288,1.7819 l 2.0576,-0.0000 l -1.0288,1.7819 l 1.0288,1.7819 l 2.0576,-0.0000 l 1.0288,-1.7819 l 1.0288,1.7819 l 2.0576,-0.0000 l -1.0288,1.7819 l 1.0288,1.7819 l -2.0576,0.0000 l -1.0288,1.7819 l 1.0288,1.7819 l 2.0576,-0.0000 l -1.0288,1.7819 l 1.0288,1.7819 l 2.0576,0.0000 l 1.0288,-1.7819 l 1.0288,1.7819 l 2.0576,0.0000 l 1.0288,-1.7819 l -1.0288,-1.7819 l 2.0576,0.0000 l 1.0288,-1.7819 l 1.0288,1.7819 l 2.0576,0.0000 l -1.0288,1.7819 l 1.0288,1.7819 l 2.0576,0.0000 l 1.0288,-1.7819 l 1.0288,1.7819 l 2.0576,0.0000 "/></g><g stroke-linejoin="miter" stroke-opacity="1.0" fill-opacity="0.0" stroke="rgb(0,0,0)" stroke-width="0.8145401764942943" fill="rgb(0,0,0)" stroke-linecap="butt" stroke-miterlimit="10.0"><path d="M 27.7778,75.8903 h 55.5556 l 27.7778,-48.1125 l 27.7778,48.1125 h 55.5556 "/></g></svg>