<?xml version="1.0" encoding="UTF-8"?>
<!DOCTYPE svg PUBLIC "-//W3C//DTD SVG 1.1//EN"
    "http://www.w3.org/Graphics/SVG/1.1/DTD/svg11.dtd"><svg xmlns="http://www.w3.org/2000/svg" height="400.0" stroke-opacity="1" viewBox="0 0 606 400" font-size="1" width="606.4516129032265" xmlns:xlink="http://www.w3.org/1999/xlink" stroke="rgb(0,0,0)" version="1.1"><defs></defs><defs></defs><g stroke-linejoin="miter" stroke-opacity="1.0" fill-opacity="0.0" stroke="rgb(0,0,0)" stroke-width="1.9700990641540466" fill="rgb(0,0,0)" stroke-linecap="butt" stroke-miterlimit="10.0"><path d="M 477.4193548387104,270.967741935484 l 7.900947091273249e-16,-12.903225806451617 l -12.903225806451617,-1.5801894182546498e-15 l -2.3702841273819746e-15,12.903225806451617 l -12.903225806451617,-1.5801894182546498e-15 l -2.3702841273819746e-15,12.903225806451617 l 12.903225806451617,3.1603788365092997e-15 l -2.3702841273819746e-15,12.903225806451617 l -12.903225806451617,-1.5801894182546498e-15 l -2.3702841273819746e-15,12.903225806451617 l 12.903225806451617,3.1603788365092997e-15 l 3.950473545636625e-15,-12.903225806451617 l 12.903225806451617,3.1603788365092997e-15 l -2.3702841273819746e-15,12.903225806451617 l 12.903225806451617,3.1603788365092997e-15 l -2.3702841273819746e-15,12.903225806451617 l -12.903225806451617,-1.5801894182546498e-15 l -2.3702841273819746e-15,12.903225806451617 l 12.903225806451617,3.1603788365092997e-15 l 3.950473545636625e-15,-12.903225806451617 l 12.903225806451617,3.1603788365092997e-15 l 3.950473545636625e-15,-12.903225806451617 l -12.903225806451617,-4.74056825476395e-15 l 3.950473545636625e-15,-12.903225806451617 l 12.903225806451617,3.1603788365092997e-15 l -2.3702841273819746e-15,12.903225806451617 l 12.903225806451617,3.1603788365092997e-15 l 3.950473545636625e-15,-12.903225806451617 l 12.903225806451617,3.1603788365092997e-15 l -2.3702841273819746e-15,12.903225806451617 l 12.903225806451617,3.1603788365092997e-15 l -2.3702841273819746e-15,12.903225806451617 l -12.903225806451617,-1.5801894182546498e-15 l -2.3702841273819746e-15,12.903225806451617 l 12.903225806451617,3.1603788365092997e-15 l 3.950473545636625e-15,-12.903225806451617 l 12.903225806451617,3.1603788365092997e-15 l 3.950473545636625e-15,-12.903225806451617 l -12.903225806451617,-4.74056825476395e-15 l 3.950473545636625e-15,-12.903225806451617 l 12.903225806451617,3.1603788365092997e-15 l 3.950473545636625e-15,-12.903225806451617 l -12.903225806451617,-4.74056825476395e-15 l -5.530662963891274e-15,12.903225806451617 l -12.903225806451617,-4.74056825476395e-15 l 3.950473545636625e-15,-12.903225806451617 l -12.903225806451617,-4.74056825476395e-15 l 3.950473545636625e-15,-12.903225806451617 l 12.903225806451617,3.1603788365092997e-15 l -2.3702841273819746e-15,12.903225806451617 l 12.903225806451617,3.1603788365092997e-15 l 3.950473545636625e-15,-12.903225806451617 l 12.903225806451617,3.1603788365092997e-15 l 3.950473545636625e-15,-12.903225806451617 l -12.903225806451617,-4.74056825476395e-15 l 3.950473545636625e-15,-12.903225806451617 l 12.903225806451617,3.1603788365092997e-15 l -2.3702841273819746e-15,12.903225806451617 l 12.903225806451617,3.1603788365092997e-15 l 3.950473545636625e-15,-12.903225806451617 l 12.903225806451617,3.1603788365092997e-15 l -2.3702841273819746e-15,12.903225806451617 l 12.903225806451617,3.1603788365092997e-15 l -2.3702841273819746e-15,12.903225806451617 l -12.903225806451617,-1.5801894182546498e-15 l -2.3702841273819746e-15,12.903225806451617 l 12.903225806451617,3.1603788365092997e-15 l 3.950473545636625e-15,-12.903225806451617 l 12.903225806451617,3.1603788365092997e-15 l 3.950473545636625e-15,-12.903225806451617 l -12.903225806451617,-4.74056825476395e-15 l 3.950473545636625e-15,-12.903225806451617 l 12.903225806451617,3.1603788365092997e-15 l 3.950473545636625e-15,-12.903225806451617 l -12.903225806451617,-4.74056825476395e-15 l -5.530662963891274e-15,12.903225806451617 l -12.903225806451617,-4.74056825476395e-15 l 3.950473545636625e-15,-12.903225806451617 l -12.903225806451617,-4.74056825476395e-15 l 3.950473545636625e-15,-12.903225806451617 l 12.903225806451617,3.1603788365092997e-15 l 3.950473545636625e-15,-12.903225806451617 l -12.903225806451617,-4.74056825476395e-15 l -5.530662963891274e-15,12.903225806451617 l -12.903225806451617,-4.74056825476395e-15 l -5.530662963891274e-15,12.903225806451617 l 12.903225806451617,6.320757673018599e-15 l -5.530662963891274e-15,12.903225806451617 l -12.903225806451617,-4.74056825476395e-15 l 3.950473545636625e-15,-12.903225806451617 l -12.903225806451617,-4.74056825476395e-15 l -5.530662963891274e-15,12.903225806451617 l -12.903225806451617,-4.74056825476395e-15 l 3.950473545636625e-15,-12.903225806451617 l -12.903225806451617,-4.74056825476395e-15 l 3.950473545636625e-15,-12.903225806451617 l 12.903225806451617,3.1603788365092997e-15 l -2.3702841273819746e-15,12.903225806451617 l 12.903225806451617,3.1603788365092997e-15 l 3.950473545636625e-15,-12.903225806451617 l 12.903225806451617,3.1603788365092997e-15 l 3.950473545636625e-15,-12.903225806451617 l -12.903225806451617,-4.74056825476395e-15 l 3.950473545636625e-15,-12.903225806451617 l 12.903225806451617,3.1603788365092997e-15 l 3.950473545636625e-15,-12.903225806451617 l -12.903225806451617,-4.74056825476395e-15 l -5.530662963891274e-15,12.903225806451617 l -12.903225806451617,-4.74056825476395e-15 l 3.950473545636625e-15,-12.903225806451617 l -12.903225806451617,-4.74056825476395e-15 l 3.950473545636625e-15,-12.903225806451617 l 12.903225806451617,3.1603788365092997e-15 l -2.3702841273819746e-15,12.903225806451617 l 12.903225806451617,3.1603788365092997e-15 l 3.950473545636625e-15,-12.903225806451617 l 12.903225806451617,3.1603788365092997e-15 l 3.950473545636625e-15,-12.903225806451617 l -12.903225806451617,-4.74056825476395e-15 l 3.950473545636625e-15,-12.903225806451617 l 12.903225806451617,3.1603788365092997e-15 l -2.3702841273819746e-15,12.903225806451617 l 12.903225806451617,3.1603788365092997e-15 l 3.950473545636625e-15,-12.903225806451617 l 12.903225806451617,3.1603788365092997e-15 l -2.3702841273819746e-15,12.903225806451617 l 12.903225806451617,3.1603788365092997e-15 l -2.3702841273819746e-15,12.903225806451617 l -12.903225806451617,-1.5801894182546498e-15 l -2.3702841273819746e-15,12.903225806451617 l 12.903225806451617,3.1603788365092997e-15 l 3.950473545636625e-15,-12.903225806451617 l 12.903225806451617,3.1603788365092997e-15 l 3.950473545636625e-15,-12.903225806451617 l -12.903225806451617,-4.74056825476395e-15 l 3.950473545636625e-15,-12.903225806451617 l 12.903225806451617,3.1603788365092997e-15 l 3.950473545636625e-15,-12.903225806451617 l -12.903225806451617,-4.74056825476395e-15 l -5.530662963891274e-15,12.903225806451617 l -12.903225806451617,-4.74056825476395e-15 l 3.950473545636625e-15,-12.903225806451617 l -12.903225806451617,-4.74056825476395e-15 l 3.950473545636625e-15,-12.903225806451617 l 12.903225806451617,3.1603788365092997e-15 l 3.950473545636625e-15,-12.903225806451617 l -12.903225806451617,-4.74056825476395e-15 l -5.530662963891274e-15,12.903225806451617 l -12.903225806451617,-4.74056825476395e-15 l -5.530662963891274e-15,12.903225806451617 l 12.903225806451617,6.320757673018599e-15 l -5.530662963891274e-15,12.903225806451617 l -12.903225806451617,-4.74056825476395e-15 l 3.950473545636625e-15,-12.903225806451617 l -12.903225806451617,-4.74056825476395e-15 l -5.530662963891274e-15,12.903225806451617 l -12.903225806451617,-4.74056825476395e-15 l 3.950473545636625e-15,-12.903225806451617 l -12.903225806451617,-4.74056825476395e-15 l 3.950473545636625e-15,-12.903225806451617 l 12.903225806451617,3.1603788365092997e-15 l 3.950473545636625e-15,-12.903225806451617 l -12.903225806451617,-4.74056825476395e-15 l -5.530662963891274e-15,12.903225806451617 l -12.903225806451617,-4.74056825476395e-15 l -5.530662963891274e-15,12.903225806451617 l 12.903225806451617,6.320757673018599e-15 l -5.530662963891274e-15,12.903225806451617 l -12.903225806451617,-4.74056825476395e-15 l -5.530662963891274e-15,12.903225806451617 l 12.903225806451617,6.320757673018599e-15 l 7.110852382145924e-15,-12.903225806451617 l 12.903225806451617,6.320757673018599e-15 l -5.530662963891274e-15,12.903225806451617 l 12.903225806451617,6.320757673018599e-15 l -5.530662963891274e-15,12.903225806451617 l -12.903225806451617,-4.74056825476395e-15 l 3.950473545636625e-15,-12.903225806451617 l -12.903225806451617,-4.74056825476395e-15 l -5.530662963891274e-15,12.903225806451617 l -12.903225806451617,-4.74056825476395e-15 l -5.530662963891274e-15,12.903225806451617 l 12.903225806451617,6.320757673018599e-15 l -5.530662963891274e-15,12.903225806451617 l -12.903225806451617,-4.74056825476395e-15 l 3.950473545636625e-15,-12.903225806451617 l -12.903225806451617,-4.74056825476395e-15 l -5.530662963891274e-15,12.903225806451617 l -12.903225806451617,-4.74056825476395e-15 l 3.950473545636625e-15,-12.903225806451617 l -12.903225806451617,-4.74056825476395e-15 l 3.950473545636625e-15,-12.903225806451617 l 12.903225806451617,3.1603788365092997e-15 l -2.3702841273819746e-15,12.903225806451617 l 12.903225806451617,3.1603788365092997e-15 l 3.950473545636625e-15,-12.903225806451617 l 12.903225806451617,3.1603788365092997e-15 l 3.950473545636625e-15,-12.903225806451617 l -12.903225806451617,-4.74056825476395e-15 l 3.950473545636625e-15,-12.903225806451617 l 12.903225806451617,3.1603788365092997e-15 l 3.950473545636625e-15,-12.903225806451617 l -12.903225806451617,-4.74056825476395e-15 l -5.530662963891274e-15,12.903225806451617 l -12.903225806451617,-4.74056825476395e-15 l 3.950473545636625e-15,-12.903225806451617 l -12.903225806451617,-4.74056825476395e-15 l 3.950473545636625e-15,-12.903225806451617 l 12.903225806451617,3.1603788365092997e-15 l 3.950473545636625e-15,-12.903225806451617 l -12.903225806451617,-4.74056825476395e-15 l -5.530662963891274e-15,12.903225806451617 l -12.903225806451617,-4.74056825476395e-15 l -5.530662963891274e-15,12.903225806451617 l 12.903225806451617,6.320757673018599e-15 l -5.530662963891274e-15,12.903225806451617 l -12.903225806451617,-4.74056825476395e-15 l 3.950473545636625e-15,-12.903225806451617 l -12.903225806451617,-4.74056825476395e-15 l -5.530662963891274e-15,12.903225806451617 l -12.903225806451617,-4.74056825476395e-15 l 3.950473545636625e-15,-12.903225806451617 l -12.903225806451617,-4.74056825476395e-15 l 3.950473545636625e-15,-12.903225806451617 l 12.903225806451617,3.1603788365092997e-15 l -2.3702841273819746e-15,12.903225806451617 l 12.903225806451617,3.1603788365092997e-15 l 3.950473545636625e-15,-12.903225806451617 l 12.903225806451617,3.1603788365092997e-15 l 3.950473545636625e-15,-12.903225806451617 l -12.903225806451617,-4.74056825476395e-15 l 3.950473545636625e-15,-12.903225806451617 l 12.903225806451617,3.1603788365092997e-15 l 3.950473545636625e-15,-12.903225806451617 l -12.903225806451617,-4.74056825476395e-15 l -5.530662963891274e-15,12.903225806451617 l -12.903225806451617,-4.74056825476395e-15 l 3.950473545636625e-15,-12.903225806451617 l -12.903225806451617,-4.74056825476395e-15 l 3.950473545636625e-15,-12.903225806451617 l 12.903225806451617,3.1603788365092997e-15 l -2.3702841273819746e-15,12.903225806451617 l 12.903225806451617,3.1603788365092997e-15 l 3.950473545636625e-15,-12.903225806451617 l 12.903225806451617,3.1603788365092997e-15 l 3.950473545636625e-15,-12.903225806451617 l -12.903225806451617,-4.74056825476395e-15 l 3.950473545636625e-15,-12.903225806451617 l 12.903225806451617,3.1603788365092997e-15 l -2.3702841273819746e-15,12.903225806451617 l 12.903225806451617,3.1603788365092997e-15 l 3.950473545636625e-15,-12.903225806451617 l 12.903225806451617,3.1603788365092997e-15 l -2.3702841273819746e-15,12.903225806451617 l 12.903225806451617,3.1603788365092997e-15 l -2.3702841273819746e-15,12.903225806451617 l -12.903225806451617,-1.5801894182546498e-15 l -2.3702841273819746e-15,12.903225806451617 l 12.903225806451617,3.1603788365092997e-15 l 3.950473545636625e-15,-12.903225806451617 l 12.903225806451617,3.1603788365092997e-15 l 3.950473545636625e-15,-12.903225806451617 l -12.903225806451617,-4.74056825476395e-15 l 3.950473545636625e-15,-12.903225806451617 l 12.903225806451617,3.1603788365092997e-15 l 3.950473545636625e-15,-12.903225806451617 l -12.903225806451617,-4.74056825476395e-15 l -5.530662963891274e-15,12.903225806451617 l -12.903225806451617,-4.74056825476395e-15 l 3.950473545636625e-15,-12.903225806451617 l -12.903225806451617,-4.74056825476395e-15 l 3.950473545636625e-15,-12.903225806451617 l 12.903225806451617,3.1603788365092997e-15 l 3.950473545636625e-15,-12.903225806451617 l -12.903225806451617,-4.74056825476395e-15 l -5.530662963891274e-15,12.903225806451617 l -12.903225806451617,-4.74056825476395e-15 l -5.530662963891274e-15,12.903225806451617 l 12.903225806451617,6.320757673018599e-15 l -5.530662963891274e-15,12.903225806451617 l -12.903225806451617,-4.74056825476395e-15 l 3.950473545636625e-15,-12.903225806451617 l -12.903225806451617,-4.74056825476395e-15 l -5.530662963891274e-15,12.903225806451617 l -12.903225806451617,-4.74056825476395e-15 l 3.950473545636625e-15,-12.903225806451617 l -12.903225806451617,-4.74056825476395e-15 l 3.950473545636625e-15,-12.903225806451617 l 12.903225806451617,3.1603788365092997e-15 l 3.950473545636625e-15,-12.903225806451617 l -12.903225806451617,-4.74056825476395e-15 l -5.530662963891274e-15,12.903225806451617 l -12.903225806451617,-4.74056825476395e-15 l -5.530662963891274e-15,12.903225806451617 l 12.903225806451617,6.320757673018599e-15 l -5.530662963891274e-15,12.903225806451617 l -12.903225806451617,-4.74056825476395e-15 l -5.530662963891274e-15,12.903225806451617 l 12.903225806451617,6.320757673018599e-15 l 7.110852382145924e-15,-12.903225806451617 l 12.903225806451617,6.320757673018599e-15 l -5.530662963891274e-15,12.903225806451617 l 12.903225806451617,6.320757673018599e-15 l -5.530662963891274e-15,12.903225806451617 l -12.903225806451617,-4.74056825476395e-15 l 3.950473545636625e-15,-12.903225806451617 l -12.903225806451617,-4.74056825476395e-15 l -5.530662963891274e-15,12.903225806451617 l -12.903225806451617,-4.74056825476395e-15 l -5.530662963891274e-15,12.903225806451617 l 12.903225806451617,6.320757673018599e-15 l -5.530662963891274e-15,12.903225806451617 l -12.903225806451617,-4.74056825476395e-15 l 3.950473545636625e-15,-12.903225806451617 l -12.903225806451617,-4.74056825476395e-15 l -5.530662963891274e-15,12.903225806451617 l -12.903225806451617,-4.74056825476395e-15 l 3.950473545636625e-15,-12.903225806451617 l -12.903225806451617,-4.74056825476395e-15 l 3.950473545636625e-15,-12.903225806451617 l 12.903225806451617,3.1603788365092997e-15 l 3.950473545636625e-15,-12.903225806451617 l -12.903225806451617,-4.74056825476395e-15 l -5.530662963891274e-15,12.903225806451617 l -12.903225806451617,-4.74056825476395e-15 l -5.530662963891274e-15,12.903225806451617 l 12.903225806451617,6.320757673018599e-15 l -5.530662963891274e-15,12.903225806451617 l -12.903225806451617,-4.74056825476395e-15 l -5.530662963891274e-15,12.903225806451617 l 12.903225806451617,6.320757673018599e-15 l 7.110852382145924e-15,-12.903225806451617 l 12.903225806451617,6.320757673018599e-15 l -5.530662963891274e-15,12.903225806451617 l 12.903225806451617,6.320757673018599e-15 l -5.530662963891274e-15,12.903225806451617 l -12.903225806451617,-4.74056825476395e-15 l -5.530662963891274e-15,12.903225806451617 l 12.903225806451617,6.320757673018599e-15 l 7.110852382145924e-15,-12.903225806451617 l 12.903225806451617,6.320757673018599e-15 l 7.110852382145924e-15,-12.903225806451617 l -12.903225806451617,-7.90094709127325e-15 l 7.110852382145924e-15,-12.903225806451617 l 12.903225806451617,6.320757673018599e-15 l -5.530662963891274e-15,12.903225806451617 l 12.903225806451617,6.320757673018599e-15 l 7.110852382145924e-15,-12.903225806451617 l 12.903225806451617,6.320757673018599e-15 l -5.530662963891274e-15,12.903225806451617 l 12.903225806451617,6.320757673018599e-15 l -5.530662963891274e-15,12.903225806451617 l -12.903225806451617,-4.74056825476395e-15 l 3.950473545636625e-15,-12.903225806451617 l -12.903225806451617,-4.74056825476395e-15 l -5.530662963891274e-15,12.903225806451617 l -12.903225806451617,-4.74056825476395e-15 l -5.530662963891274e-15,12.903225806451617 l 12.903225806451617,6.320757673018599e-15 l -5.530662963891274e-15,12.903225806451617 l -12.903225806451617,-4.74056825476395e-15 l -5.530662963891274e-15,12.903225806451617 l 12.903225806451617,6.320757673018599e-15 l 7.110852382145924e-15,-12.903225806451617 l 12.903225806451617,6.320757673018599e-15 l -5.530662963891274e-15,12.903225806451617 l 12.903225806451617,6.320757673018599e-15 l -5.530662963891274e-15,12.903225806451617 l -12.903225806451617,-4.74056825476395e-15 l 3.950473545636625e-15,-12.903225806451617 l -12.903225806451617,-4.74056825476395e-15 l -5.530662963891274e-15,12.903225806451617 l -12.903225806451617,-4.74056825476395e-15 l -5.530662963891274e-15,12.903225806451617 l 12.903225806451617,6.320757673018599e-15 l -5.530662963891274e-15,12.903225806451617 l -12.903225806451617,-4.74056825476395e-15 l 3.950473545636625e-15,-12.903225806451617 l -12.903225806451617,-4.74056825476395e-15 l -5.530662963891274e-15,12.903225806451617 l -12.903225806451617,-4.74056825476395e-15 l 3.950473545636625e-15,-12.903225806451617 l -12.903225806451617,-4.74056825476395e-15 l 3.950473545636625e-15,-12.903225806451617 l 12.903225806451617,3.1603788365092997e-15 l -2.3702841273819746e-15,12.903225806451617 l 12.903225806451617,3.1603788365092997e-15 l 3.950473545636625e-15,-12.903225806451617 l 12.903225806451617,3.1603788365092997e-15 l 3.950473545636625e-15,-12.903225806451617 l -12.903225806451617,-4.74056825476395e-15 l 3.950473545636625e-15,-12.903225806451617 l 12.903225806451617,3.1603788365092997e-15 l 3.950473545636625e-15,-12.903225806451617 l -12.903225806451617,-4.74056825476395e-15 l -5.530662963891274e-15,12.903225806451617 l -12.903225806451617,-4.74056825476395e-15 l 3.950473545636625e-15,-12.903225806451617 l -12.903225806451617,-4.74056825476395e-15 l 3.950473545636625e-15,-12.903225806451617 l 12.903225806451617,3.1603788365092997e-15 l 3.950473545636625e-15,-12.903225806451617 l -12.903225806451617,-4.74056825476395e-15 l -5.530662963891274e-15,12.903225806451617 l -12.903225806451617,-4.74056825476395e-15 l -5.530662963891274e-15,12.903225806451617 l 12.903225806451617,6.320757673018599e-15 l -5.530662963891274e-15,12.903225806451617 l -12.903225806451617,-4.74056825476395e-15 l 3.950473545636625e-15,-12.903225806451617 l -12.903225806451617,-4.74056825476395e-15 l -5.530662963891274e-15,12.903225806451617 l -12.903225806451617,-4.74056825476395e-15 l 3.950473545636625e-15,-12.903225806451617 l -12.903225806451617,-4.74056825476395e-15 l 3.950473545636625e-15,-12.903225806451617 l 12.903225806451617,3.1603788365092997e-15 l 3.950473545636625e-15,-12.903225806451617 l -12.903225806451617,-4.74056825476395e-15 l -5.530662963891274e-15,12.903225806451617 l -12.903225806451617,-4.74056825476395e-15 l -5.530662963891274e-15,12.903225806451617 l 12.903225806451617,6.320757673018599e-15 l -5.530662963891274e-15,12.903225806451617 l -12.903225806451617,-4.74056825476395e-15 l -5.530662963891274e-15,12.903225806451617 l 12.903225806451617,6.320757673018599e-15 l 7.110852382145924e-15,-12.903225806451617 l 12.903225806451617,6.320757673018599e-15 l -5.530662963891274e-15,12.903225806451617 l 12.903225806451617,6.320757673018599e-15 l -5.530662963891274e-15,12.903225806451617 l -12.903225806451617,-4.74056825476395e-15 l 3.950473545636625e-15,-12.903225806451617 l -12.903225806451617,-4.74056825476395e-15 l -5.530662963891274e-15,12.903225806451617 l -12.903225806451617,-4.74056825476395e-15 l -5.530662963891274e-15,12.903225806451617 l 12.903225806451617,6.320757673018599e-15 l -5.530662963891274e-15,12.903225806451617 l -12.903225806451617,-4.74056825476395e-15 l 3.950473545636625e-15,-12.903225806451617 l -12.903225806451617,-4.74056825476395e-15 l -5.530662963891274e-15,12.903225806451617 l -12.903225806451617,-4.74056825476395e-15 l 3.950473545636625e-15,-12.903225806451617 l -12.903225806451617,-4.74056825476395e-15 l 3.950473545636625e-15,-12.903225806451617 l 12.903225806451617,3.1603788365092997e-15 l -2.3702841273819746e-15,12.903225806451617 l 12.903225806451617,3.1603788365092997e-15 l 3.950473545636625e-15,-12.903225806451617 l 12.903225806451617,3.1603788365092997e-15 l 3.950473545636625e-15,-12.903225806451617 l -12.903225806451617,-4.74056825476395e-15 l 3.950473545636625e-15,-12.903225806451617 l 12.903225806451617,3.1603788365092997e-15 l 3.950473545636625e-15,-12.903225806451617 l -12.903225806451617,-4.74056825476395e-15 l -5.530662963891274e-15,12.903225806451617 l -12.903225806451617,-4.74056825476395e-15 l 3.950473545636625e-15,-12.903225806451617 l -12.903225806451617,-4.74056825476395e-15 l 3.950473545636625e-15,-12.903225806451617 l 12.903225806451617,3.1603788365092997e-15 l 3.950473545636625e-15,-12.903225806451617 l -12.903225806451617,-4.74056825476395e-15 l -5.530662963891274e-15,12.903225806451617 l -12.903225806451617,-4.74056825476395e-15 l -5.530662963891274e-15,12.903225806451617 l 12.903225806451617,6.320757673018599e-15 l -5.530662963891274e-15,12.903225806451617 l -12.903225806451617,-4.74056825476395e-15 l 3.950473545636625e-15,-12.903225806451617 l -12.903225806451617,-4.74056825476395e-15 l -5.530662963891274e-15,12.903225806451617 l -12.903225806451617,-4.74056825476395e-15 l 3.950473545636625e-15,-12.903225806451617 l -12.903225806451617,-4.74056825476395e-15 l 3.950473545636625e-15,-12.903225806451617 l 12.903225806451617,3.1603788365092997e-15 l -2.3702841273819746e-15,12.903225806451617 l 12.903225806451617,3.1603788365092997e-15 l 3.950473545636625e-15,-12.903225806451617 l 12.903225806451617,3.1603788365092997e-15 l 3.950473545636625e-15,-12.903225806451617 l -12.903225806451617,-4.74056825476395e-15 l 3.950473545636625e-15,-12.903225806451617 l 12.903225806451617,3.1603788365092997e-15 l 3.950473545636625e-15,-12.903225806451617 l -12.903225806451617,-4.74056825476395e-15 l -5.530662963891274e-15,12.903225806451617 l -12.903225806451617,-4.74056825476395e-15 l 3.950473545636625e-15,-12.903225806451617 l -12.903225806451617,-4.74056825476395e-15 l 3.950473545636625e-15,-12.903225806451617 l 12.903225806451617,3.1603788365092997e-15 l -2.3702841273819746e-15,12.903225806451617 l 12.903225806451617,3.1603788365092997e-15 l 3.950473545636625e-15,-12.903225806451617 l 12.903225806451617,3.1603788365092997e-15 l 3.950473545636625e-15,-12.903225806451617 l -12.903225806451617,-4.74056825476395e-15 l 3.950473545636625e-15,-12.903225806451617 l 12.903225806451617,3.1603788365092997e-15 l -2.3702841273819746e-15,12.903225806451617 l 12.903225806451617,3.1603788365092997e-15 l 3.950473545636625e-15,-12.903225806451617 l 12.903225806451617,3.1603788365092997e-15 l -2.3702841273819746e-15,12.903225806451617 l 12.903225806451617,3.1603788365092997e-15 l -2.3702841273819746e-15,12.903225806451617 l -12.903225806451617,-1.5801894182546498e-15 l -2.3702841273819746e-15,12.903225806451617 l 12.903225806451617,3.1603788365092997e-15 l 3.950473545636625e-15,-12.903225806451617 l 12.903225806451617,3.1603788365092997e-15 l 3.950473545636625e-15,-12.903225806451617 l -12.903225806451617,-4.74056825476395e-15 l 3.950473545636625e-15,-12.903225806451617 l 12.903225806451617,3.1603788365092997e-15 l 3.950473545636625e-15,-12.903225806451617 l -12.903225806451617,-4.74056825476395e-15 l -5.530662963891274e-15,12.903225806451617 l -12.903225806451617,-4.74056825476395e-15 l 3.950473545636625e-15,-12.903225806451617 l -12.903225806451617,-4.74056825476395e-15 l 3.950473545636625e-15,-12.903225806451617 l 12.903225806451617,3.1603788365092997e-15 l 3.950473545636625e-15,-12.903225806451617 l -12.903225806451617,-4.74056825476395e-15 l -5.530662963891274e-15,12.903225806451617 l -12.903225806451617,-4.74056825476395e-15 l -5.530662963891274e-15,12.903225806451617 l 12.903225806451617,6.320757673018599e-15 l -5.530662963891274e-15,12.903225806451617 l -12.903225806451617,-4.74056825476395e-15 l 3.950473545636625e-15,-12.903225806451617 l -12.903225806451617,-4.74056825476395e-15 l -5.530662963891274e-15,12.903225806451617 l -12.903225806451617,-4.74056825476395e-15 l 3.950473545636625e-15,-12.903225806451617 l -12.903225806451617,-4.74056825476395e-15 l 3.950473545636625e-15,-12.903225806451617 l 12.903225806451617,3.1603788365092997e-15 l 3.950473545636625e-15,-12.903225806451617 l -12.903225806451617,-4.74056825476395e-15 l -5.530662963891274e-15,12.903225806451617 l -12.903225806451617,-4.74056825476395e-15 l -5.530662963891274e-15,12.903225806451617 l 12.903225806451617,6.320757673018599e-15 l -5.530662963891274e-15,12.903225806451617 l -12.903225806451617,-4.74056825476395e-15 l -5.530662963891274e-15,12.903225806451617 l 12.903225806451617,6.320757673018599e-15 l 7.110852382145924e-15,-12.903225806451617 l 12.903225806451617,6.320757673018599e-15 l -5.530662963891274e-15,12.903225806451617 l 12.903225806451617,6.320757673018599e-15 l -5.530662963891274e-15,12.903225806451617 l -12.903225806451617,-4.74056825476395e-15 l 3.950473545636625e-15,-12.903225806451617 l -12.903225806451617,-4.74056825476395e-15 l -5.530662963891274e-15,12.903225806451617 l -12.903225806451617,-4.74056825476395e-15 l -5.530662963891274e-15,12.903225806451617 l 12.903225806451617,6.320757673018599e-15 l -5.530662963891274e-15,12.903225806451617 l -12.903225806451617,-4.74056825476395e-15 l 3.950473545636625e-15,-12.903225806451617 l -12.903225806451617,-4.74056825476395e-15 l -5.530662963891274e-15,12.903225806451617 l -12.903225806451617,-4.74056825476395e-15 l 3.950473545636625e-15,-12.903225806451617 l -12.903225806451617,-4.74056825476395e-15 l 3.950473545636625e-15,-12.903225806451617 l 12.903225806451617,3.1603788365092997e-15 l 3.950473545636625e-15,-12.903225806451617 l -12.903225806451617,-4.74056825476395e-15 l -5.530662963891274e-15,12.903225806451617 l -12.903225806451617,-4.74056825476395e-15 l -5.530662963891274e-15,12.903225806451617 l 12.903225806451617,6.320757673018599e-15 l -5.530662963891274e-15,12.903225806451617 l -12.903225806451617,-4.74056825476395e-15 l -5.530662963891274e-15,12.903225806451617 l 12.903225806451617,6.320757673018599e-15 l 7.110852382145924e-15,-12.903225806451617 l 12.903225806451617,6.320757673018599e-15 l -5.530662963891274e-15,12.903225806451617 l 12.903225806451617,6.320757673018599e-15 l -5.530662963891274e-15,12.903225806451617 l -12.903225806451617,-4.74056825476395e-15 l -5.530662963891274e-15,12.903225806451617 l 12.903225806451617,6.320757673018599e-15 l 7.110852382145924e-15,-12.903225806451617 l 12.903225806451617,6.320757673018599e-15 l 7.110852382145924e-15,-12.903225806451617 l -12.903225806451617,-7.90094709127325e-15 l 7.110852382145924e-15,-12.903225806451617 l 12.903225806451617,6.320757673018599e-15 l -5.530662963891274e-15,12.903225806451617 l 12.903225806451617,6.320757673018599e-15 l 7.110852382145924e-15,-12.903225806451617 l 12.903225806451617,6.320757673018599e-15 l -5.530662963891274e-15,12.903225806451617 l 12.903225806451617,6.320757673018599e-15 l -5.530662963891274e-15,12.903225806451617 l -12.903225806451617,-4.74056825476395e-15 l 3.950473545636625e-15,-12.903225806451617 l -12.903225806451617,-4.74056825476395e-15 l -5.530662963891274e-15,12.903225806451617 l -12.903225806451617,-4.74056825476395e-15 l -5.530662963891274e-15,12.903225806451617 l 12.903225806451617,6.320757673018599e-15 l -5.530662963891274e-15,12.903225806451617 l -12.903225806451617,-4.74056825476395e-15 l -5.530662963891274e-15,12.903225806451617 l 12.903225806451617,6.320757673018599e-15 l 7.110852382145924e-15,-12.903225806451617 l 12.903225806451617,6.320757673018599e-15 l -5.530662963891274e-15,12.903225806451617 l 12.903225806451617,6.320757673018599e-15 l -5.530662963891274e-15,12.903225806451617 l -12.903225806451617,-4.74056825476395e-15 l 3.950473545636625e-15,-12.903225806451617 l -12.903225806451617,-4.74056825476395e-15 l -5.530662963891274e-15,12.903225806451617 l -12.903225806451617,-4.74056825476395e-15 l -5.530662963891274e-15,12.903225806451617 l 12.903225806451617,6.320757673018599e-15 l -5.530662963891274e-15,12.903225806451617 l -12.903225806451617,-4.74056825476395e-15 l 3.950473545636625e-15,-12.903225806451617 l -12.903225806451617,-4.74056825476395e-15 l -5.530662963891274e-15,12.903225806451617 l -12.903225806451617,-4.74056825476395e-15 l 3.950473545636625e-15,-12.903225806451617 l -12.903225806451617,-4.74056825476395e-15 l 3.950473545636625e-15,-12.903225806451617 l 12.903225806451617,3.1603788365092997e-15 l 3.950473545636625e-15,-12.903225806451617 l -12.903225806451617,-4.74056825476395e-15 l -5.530662963891274e-15,12.903225806451617 l -12.903225806451617,-4.74056825476395e-15 l -5.530662963891274e-15,12.903225806451617 l 12.903225806451617,6.320757673018599e-15 l -5.530662963891274e-15,12.903225806451617 l -12.903225806451617,-4.74056825476395e-15 l -5.530662963891274e-15,12.903225806451617 l 12.903225806451617,6.320757673018599e-15 l 7.110852382145924e-15,-12.903225806451617 l 12.903225806451617,6.320757673018599e-15 l -5.530662963891274e-15,12.903225806451617 l 12.903225806451617,6.320757673018599e-15 l -5.530662963891274e-15,12.903225806451617 l -12.903225806451617,-4.74056825476395e-15 l -5.530662963891274e-15,12.903225806451617 l 12.903225806451617,6.320757673018599e-15 l 7.110852382145924e-15,-12.903225806451617 l 12.903225806451617,6.320757673018599e-15 l 7.110852382145924e-15,-12.903225806451617 l -12.903225806451617,-7.90094709127325e-15 l 7.110852382145924e-15,-12.903225806451617 l 12.903225806451617,6.320757673018599e-15 l -5.530662963891274e-15,12.903225806451617 l 12.903225806451617,6.320757673018599e-15 l 7.110852382145924e-15,-12.903225806451617 l 12.903225806451617,6.320757673018599e-15 l -5.530662963891274e-15,12.903225806451617 l 12.903225806451617,6.320757673018599e-15 l -5.530662963891274e-15,12.903225806451617 l -12.903225806451617,-4.74056825476395e-15 l -5.530662963891274e-15,12.903225806451617 l 12.903225806451617,6.320757673018599e-15 l 7.110852382145924e-15,-12.903225806451617 l 12.903225806451617,6.320757673018599e-15 l 7.110852382145924e-15,-12.903225806451617 l -12.903225806451617,-7.90094709127325e-15 l 7.110852382145924e-15,-12.903225806451617 l 12.903225806451617,6.320757673018599e-15 l 7.110852382145924e-15,-12.903225806451617 l -12.903225806451617,-7.90094709127325e-15 l -3.161177521201672e-14,12.903225806451617 l -12.903225806451617,-3.0821680502889394e-14 l 3.003158579376207e-14,-12.903225806451617 l -12.903225806451617,-3.0821680502889394e-14 l 3.003158579376207e-14,-12.903225806451617 l 12.903225806451617,2.924149108463474e-14 l -2.845139637550742e-14,12.903225806451617 l 12.903225806451617,2.924149108463474e-14 l 3.003158579376207e-14,-12.903225806451617 l 12.903225806451617,2.924149108463474e-14 l 3.003158579376207e-14,-12.903225806451617 l -12.903225806451617,-3.0821680502889394e-14 l 3.003158579376207e-14,-12.903225806451617 l 12.903225806451617,2.924149108463474e-14 l -2.845139637550742e-14,12.903225806451617 l 12.903225806451617,2.924149108463474e-14 l 3.003158579376207e-14,-12.903225806451617 l 12.903225806451617,2.924149108463474e-14 l -2.845139637550742e-14,12.903225806451617 l 12.903225806451617,2.924149108463474e-14 l -2.845139637550742e-14,12.903225806451617 l -12.903225806451617,-2.766130166638009e-14 l 2.6871206957252767e-14,-12.903225806451617 l -12.903225806451617,-2.766130166638009e-14 l -2.845139637550742e-14,12.903225806451617 l -12.903225806451617,-2.766130166638009e-14 l -2.845139637550742e-14,12.903225806451617 l 12.903225806451617,2.924149108463474e-14 l -2.845139637550742e-14,12.903225806451617 l -12.903225806451617,-2.766130166638009e-14 l -2.845139637550742e-14,12.903225806451617 l 12.903225806451617,2.924149108463474e-14 l 3.003158579376207e-14,-12.903225806451617 l 12.903225806451617,2.924149108463474e-14 l -2.845139637550742e-14,12.903225806451617 l 12.903225806451617,2.924149108463474e-14 l -2.845139637550742e-14,12.903225806451617 l -12.903225806451617,-2.766130166638009e-14 l -2.845139637550742e-14,12.903225806451617 l 12.903225806451617,2.924149108463474e-14 l 3.003158579376207e-14,-12.903225806451617 l 12.903225806451617,2.924149108463474e-14 l 3.003158579376207e-14,-12.903225806451617 l -12.903225806451617,-3.0821680502889394e-14 l 3.003158579376207e-14,-12.903225806451617 l 12.903225806451617,2.924149108463474e-14 l -2.845139637550742e-14,12.903225806451617 l 12.903225806451617,2.924149108463474e-14 l 3.003158579376207e-14,-12.903225806451617 l 12.903225806451617,2.924149108463474e-14 l -2.845139637550742e-14,12.903225806451617 l 12.903225806451617,2.924149108463474e-14 l -2.845139637550742e-14,12.903225806451617 l -12.903225806451617,-2.766130166638009e-14 l 2.6871206957252767e-14,-12.903225806451617 l -12.903225806451617,-2.766130166638009e-14 l -2.845139637550742e-14,12.903225806451617 l -12.903225806451617,-2.766130166638009e-14 l -2.845139637550742e-14,12.903225806451617 l 12.903225806451617,2.924149108463474e-14 l -2.845139637550742e-14,12.903225806451617 l -12.903225806451617,-2.766130166638009e-14 l -2.845139637550742e-14,12.903225806451617 l 12.903225806451617,2.924149108463474e-14 l 3.003158579376207e-14,-12.903225806451617 l 12.903225806451617,2.924149108463474e-14 l -2.845139637550742e-14,12.903225806451617 l 12.903225806451617,2.924149108463474e-14 l -2.845139637550742e-14,12.903225806451617 l -12.903225806451617,-2.766130166638009e-14 l 2.6871206957252767e-14,-12.903225806451617 l -12.903225806451617,-2.766130166638009e-14 l -2.845139637550742e-14,12.903225806451617 l -12.903225806451617,-2.766130166638009e-14 l -2.845139637550742e-14,12.903225806451617 l 12.903225806451617,2.924149108463474e-14 l -2.845139637550742e-14,12.903225806451617 l -12.903225806451617,-2.766130166638009e-14 l 2.6871206957252767e-14,-12.903225806451617 l -12.903225806451617,-2.766130166638009e-14 l -2.845139637550742e-14,12.903225806451617 l -12.903225806451617,-2.766130166638009e-14 l 2.6871206957252767e-14,-12.903225806451617 l -12.903225806451617,-2.766130166638009e-14 l 2.6871206957252767e-14,-12.903225806451617 l 12.903225806451617,2.6081112248125444e-14 l -2.5291017538998114e-14,12.903225806451617 l 12.903225806451617,2.6081112248125444e-14 l 2.6871206957252767e-14,-12.903225806451617 l 12.903225806451617,2.6081112248125444e-14 l 2.6871206957252767e-14,-12.903225806451617 l -12.903225806451617,-2.766130166638009e-14 l 2.6871206957252767e-14,-12.903225806451617 l 12.903225806451617,2.6081112248125444e-14 l 2.6871206957252767e-14,-12.903225806451617 l -12.903225806451617,-2.766130166638009e-14 l -2.845139637550742e-14,12.903225806451617 l -12.903225806451617,-2.766130166638009e-14 l 2.6871206957252767e-14,-12.903225806451617 l -12.903225806451617,-2.766130166638009e-14 l 2.6871206957252767e-14,-12.903225806451617 l 12.903225806451617,2.6081112248125444e-14 l 2.6871206957252767e-14,-12.903225806451617 l -12.903225806451617,-2.766130166638009e-14 l -2.845139637550742e-14,12.903225806451617 l -12.903225806451617,-2.766130166638009e-14 l -2.845139637550742e-14,12.903225806451617 l 12.903225806451617,2.924149108463474e-14 l -2.845139637550742e-14,12.903225806451617 l -12.903225806451617,-2.766130166638009e-14 l 2.6871206957252767e-14,-12.903225806451617 l -12.903225806451617,-2.766130166638009e-14 l -2.845139637550742e-14,12.903225806451617 l -12.903225806451617,-2.766130166638009e-14 l 2.6871206957252767e-14,-12.903225806451617 l -12.903225806451617,-2.766130166638009e-14 l 2.6871206957252767e-14,-12.903225806451617 l 12.903225806451617,2.6081112248125444e-14 l 2.6871206957252767e-14,-12.903225806451617 l -12.903225806451617,-2.766130166638009e-14 l -2.845139637550742e-14,12.903225806451617 l -12.903225806451617,-2.766130166638009e-14 l -2.845139637550742e-14,12.903225806451617 l 12.903225806451617,2.924149108463474e-14 l -2.845139637550742e-14,12.903225806451617 l -12.903225806451617,-2.766130166638009e-14 l -2.845139637550742e-14,12.903225806451617 l 12.903225806451617,2.924149108463474e-14 l 3.003158579376207e-14,-12.903225806451617 l 12.903225806451617,2.924149108463474e-14 l -2.845139637550742e-14,12.903225806451617 l 12.903225806451617,2.924149108463474e-14 l -2.845139637550742e-14,12.903225806451617 l -12.903225806451617,-2.766130166638009e-14 l 2.6871206957252767e-14,-12.903225806451617 l -12.903225806451617,-2.766130166638009e-14 l -2.845139637550742e-14,12.903225806451617 l -12.903225806451617,-2.766130166638009e-14 l -2.845139637550742e-14,12.903225806451617 l 12.903225806451617,2.924149108463474e-14 l -2.845139637550742e-14,12.903225806451617 l -12.903225806451617,-2.766130166638009e-14 l 2.6871206957252767e-14,-12.903225806451617 l -12.903225806451617,-2.766130166638009e-14 l -2.845139637550742e-14,12.903225806451617 l -12.903225806451617,-2.766130166638009e-14 l 2.6871206957252767e-14,-12.903225806451617 l -12.903225806451617,-2.766130166638009e-14 l 2.6871206957252767e-14,-12.903225806451617 l 12.903225806451617,2.6081112248125444e-14 l 2.6871206957252767e-14,-12.903225806451617 l -12.903225806451617,-2.766130166638009e-14 l -2.845139637550742e-14,12.903225806451617 l -12.903225806451617,-2.766130166638009e-14 l -2.845139637550742e-14,12.903225806451617 l 12.903225806451617,2.924149108463474e-14 l -2.845139637550742e-14,12.903225806451617 l -12.903225806451617,-2.766130166638009e-14 l -2.845139637550742e-14,12.903225806451617 l 12.903225806451617,2.924149108463474e-14 l 3.003158579376207e-14,-12.903225806451617 l 12.903225806451617,2.924149108463474e-14 l -2.845139637550742e-14,12.903225806451617 l 12.903225806451617,2.924149108463474e-14 l -2.845139637550742e-14,12.903225806451617 l -12.903225806451617,-2.766130166638009e-14 l -2.845139637550742e-14,12.903225806451617 l 12.903225806451617,2.924149108463474e-14 l 3.003158579376207e-14,-12.903225806451617 l 12.903225806451617,2.924149108463474e-14 l 3.003158579376207e-14,-12.903225806451617 l -12.903225806451617,-3.0821680502889394e-14 l 3.003158579376207e-14,-12.903225806451617 l 12.903225806451617,2.924149108463474e-14 l -2.845139637550742e-14,12.903225806451617 l 12.903225806451617,2.924149108463474e-14 l 3.003158579376207e-14,-12.903225806451617 l 12.903225806451617,2.924149108463474e-14 l -2.845139637550742e-14,12.903225806451617 l 12.903225806451617,2.924149108463474e-14 l -2.845139637550742e-14,12.903225806451617 l -12.903225806451617,-2.766130166638009e-14 l 2.6871206957252767e-14,-12.903225806451617 l -12.903225806451617,-2.766130166638009e-14 l -2.845139637550742e-14,12.903225806451617 l -12.903225806451617,-2.766130166638009e-14 l -2.845139637550742e-14,12.903225806451617 l 12.903225806451617,2.924149108463474e-14 l -2.845139637550742e-14,12.903225806451617 l -12.903225806451617,-2.766130166638009e-14 l -2.845139637550742e-14,12.903225806451617 l 12.903225806451617,2.924149108463474e-14 l 3.003158579376207e-14,-12.903225806451617 l 12.903225806451617,2.924149108463474e-14 l -2.845139637550742e-14,12.903225806451617 l 12.903225806451617,2.924149108463474e-14 l -2.845139637550742e-14,12.903225806451617 l -12.903225806451617,-2.766130166638009e-14 l 2.6871206957252767e-14,-12.903225806451617 l -12.903225806451617,-2.766130166638009e-14 l -2.845139637550742e-14,12.903225806451617 l -12.903225806451617,-2.766130166638009e-14 l -2.845139637550742e-14,12.903225806451617 l 12.903225806451617,2.924149108463474e-14 l -2.845139637550742e-14,12.903225806451617 l -12.903225806451617,-2.766130166638009e-14 l 2.6871206957252767e-14,-12.903225806451617 l -12.903225806451617,-2.766130166638009e-14 l -2.845139637550742e-14,12.903225806451617 l -12.903225806451617,-2.766130166638009e-14 l 2.6871206957252767e-14,-12.903225806451617 l -12.903225806451617,-2.766130166638009e-14 l 2.6871206957252767e-14,-12.903225806451617 l 12.903225806451617,2.6081112248125444e-14 l -2.5291017538998114e-14,12.903225806451617 l 12.903225806451617,2.6081112248125444e-14 l 2.6871206957252767e-14,-12.903225806451617 l 12.903225806451617,2.6081112248125444e-14 l 2.6871206957252767e-14,-12.903225806451617 l -12.903225806451617,-2.766130166638009e-14 l 2.6871206957252767e-14,-12.903225806451617 l 12.903225806451617,2.6081112248125444e-14 l 2.6871206957252767e-14,-12.903225806451617 l -12.903225806451617,-2.766130166638009e-14 l -2.845139637550742e-14,12.903225806451617 l -12.903225806451617,-2.766130166638009e-14 l 2.6871206957252767e-14,-12.903225806451617 l -12.903225806451617,-2.766130166638009e-14 l 2.6871206957252767e-14,-12.903225806451617 l 12.903225806451617,2.6081112248125444e-14 l 2.6871206957252767e-14,-12.903225806451617 l -12.903225806451617,-2.766130166638009e-14 l -2.845139637550742e-14,12.903225806451617 l -12.903225806451617,-2.766130166638009e-14 l -2.845139637550742e-14,12.903225806451617 l 12.903225806451617,2.924149108463474e-14 l -2.845139637550742e-14,12.903225806451617 l -12.903225806451617,-2.766130166638009e-14 l 2.6871206957252767e-14,-12.903225806451617 l -12.903225806451617,-2.766130166638009e-14 l -2.845139637550742e-14,12.903225806451617 l -12.903225806451617,-2.766130166638009e-14 l 2.6871206957252767e-14,-12.903225806451617 l -12.903225806451617,-2.766130166638009e-14 l 2.6871206957252767e-14,-12.903225806451617 l 12.903225806451617,2.6081112248125444e-14 l 2.6871206957252767e-14,-12.903225806451617 l -12.903225806451617,-2.766130166638009e-14 l -2.845139637550742e-14,12.903225806451617 l -12.903225806451617,-2.766130166638009e-14 l -2.845139637550742e-14,12.903225806451617 l 12.903225806451617,2.924149108463474e-14 l -2.845139637550742e-14,12.903225806451617 l -12.903225806451617,-2.766130166638009e-14 l -2.845139637550742e-14,12.903225806451617 l 12.903225806451617,2.924149108463474e-14 l 3.003158579376207e-14,-12.903225806451617 l 12.903225806451617,2.924149108463474e-14 l -2.845139637550742e-14,12.903225806451617 l 12.903225806451617,2.924149108463474e-14 l -2.845139637550742e-14,12.903225806451617 l -12.903225806451617,-2.766130166638009e-14 l 2.6871206957252767e-14,-12.903225806451617 l -12.903225806451617,-2.766130166638009e-14 l -2.845139637550742e-14,12.903225806451617 l -12.903225806451617,-2.766130166638009e-14 l -2.845139637550742e-14,12.903225806451617 l 12.903225806451617,2.924149108463474e-14 l -2.845139637550742e-14,12.903225806451617 l -12.903225806451617,-2.766130166638009e-14 l 2.6871206957252767e-14,-12.903225806451617 l -12.903225806451617,-2.766130166638009e-14 l -2.845139637550742e-14,12.903225806451617 l -12.903225806451617,-2.766130166638009e-14 l 2.6871206957252767e-14,-12.903225806451617 l -12.903225806451617,-2.766130166638009e-14 l 2.6871206957252767e-14,-12.903225806451617 l 12.903225806451617,2.6081112248125444e-14 l -2.5291017538998114e-14,12.903225806451617 l 12.903225806451617,2.6081112248125444e-14 l 2.6871206957252767e-14,-12.903225806451617 l 12.903225806451617,2.6081112248125444e-14 l 2.6871206957252767e-14,-12.903225806451617 l -12.903225806451617,-2.766130166638009e-14 l 2.6871206957252767e-14,-12.903225806451617 l 12.903225806451617,2.6081112248125444e-14 l 2.6871206957252767e-14,-12.903225806451617 l -12.903225806451617,-2.766130166638009e-14 l -2.845139637550742e-14,12.903225806451617 l -12.903225806451617,-2.766130166638009e-14 l 2.6871206957252767e-14,-12.903225806451617 l -12.903225806451617,-2.766130166638009e-14 l 2.6871206957252767e-14,-12.903225806451617 l 12.903225806451617,2.6081112248125444e-14 l 2.6871206957252767e-14,-12.903225806451617 l -12.903225806451617,-2.766130166638009e-14 l -2.845139637550742e-14,12.903225806451617 l -12.903225806451617,-2.766130166638009e-14 l -2.845139637550742e-14,12.903225806451617 l 12.903225806451617,2.924149108463474e-14 l -2.845139637550742e-14,12.903225806451617 l -12.903225806451617,-2.766130166638009e-14 l 2.6871206957252767e-14,-12.903225806451617 l -12.903225806451617,-2.766130166638009e-14 l -2.845139637550742e-14,12.903225806451617 l -12.903225806451617,-2.766130166638009e-14 l 2.6871206957252767e-14,-12.903225806451617 l -12.903225806451617,-2.766130166638009e-14 l 2.6871206957252767e-14,-12.903225806451617 l 12.903225806451617,2.6081112248125444e-14 l -2.5291017538998114e-14,12.903225806451617 l 12.903225806451617,2.6081112248125444e-14 l 2.6871206957252767e-14,-12.903225806451617 l 12.903225806451617,2.6081112248125444e-14 l 2.6871206957252767e-14,-12.903225806451617 l -12.903225806451617,-2.766130166638009e-14 l 2.6871206957252767e-14,-12.903225806451617 l 12.903225806451617,2.6081112248125444e-14 l 2.6871206957252767e-14,-12.903225806451617 l -12.903225806451617,-2.766130166638009e-14 l -2.845139637550742e-14,12.903225806451617 l -12.903225806451617,-2.766130166638009e-14 l 2.6871206957252767e-14,-12.903225806451617 l -12.903225806451617,-2.766130166638009e-14 l 2.6871206957252767e-14,-12.903225806451617 l 12.903225806451617,2.6081112248125444e-14 l -2.5291017538998114e-14,12.903225806451617 l 12.903225806451617,2.6081112248125444e-14 l 2.6871206957252767e-14,-12.903225806451617 l 12.903225806451617,2.6081112248125444e-14 l 2.6871206957252767e-14,-12.903225806451617 l -12.903225806451617,-2.766130166638009e-14 l 2.6871206957252767e-14,-12.903225806451617 l 12.903225806451617,2.6081112248125444e-14 l -2.5291017538998114e-14,12.903225806451617 l 12.903225806451617,2.6081112248125444e-14 l 2.6871206957252767e-14,-12.903225806451617 l 12.903225806451617,2.6081112248125444e-14 l -2.5291017538998114e-14,12.903225806451617 l 12.903225806451617,2.6081112248125444e-14 l -2.5291017538998114e-14,12.903225806451617 l -12.903225806451617,-2.450092282987079e-14 "/></g></svg>