<?xml version="1.0" encoding="UTF-8"?>
<!DOCTYPE svg PUBLIC "-//W3C//DTD SVG 1.1//EN"
    "http://www.w3.org/Graphics/SVG/1.1/DTD/svg11.dtd"><svg xmlns="http://www.w3.org/2000/svg" height="55.87260669577023" stroke-opacity="1" viewBox="0 0 400 56" font-size="1" width="400.0" xmlns:xlink="http://www.w3.org/1999/xlink" stroke="rgb(0,0,0)" version="1.1"><g><defs></defs><g stroke-linejoin="miter" stroke-opacity="1.0" fill-opacity="0.0" stroke="rgb(0,0,0)" stroke-width="0.5979838483211144" fill="rgb(0,0,0)" stroke-linecap="butt" stroke-miterlimit="10.0"><path d="M 205.8651026392962,53.3329427550534 l 2.172260236776365,3.8706189252479726e-17 l 1.0861301183881829,-1.881232548679132 l 1.0861301183881829,1.881232548679132 l 2.172260236776365,3.8706189252479726e-17 l 1.0861301183881829,-1.881232548679132 l -1.0861301183881824,-1.8812325486791321 l 2.172260236776365,3.8706189252479726e-17 l 1.0861301183881829,-1.881232548679132 l 1.0861301183881829,1.881232548679132 l 2.172260236776365,3.8706189252479726e-17 l -1.0861301183881824,1.8812325486791321 l 1.0861301183881829,1.881232548679132 l 2.172260236776365,3.8706189252479726e-17 l 1.0861301183881829,-1.881232548679132 l 1.0861301183881829,1.881232548679132 l 2.172260236776365,3.8706189252479726e-17 l 1.0861301183881829,-1.8812325486791315 l -1.086130118388182,-1.8812325486791321 l 2.172260236776365,1.341690502453745e-16 l 1.0861301183881829,-1.8812325486791315 l -1.086130118388182,-1.8812325486791321 l -2.1722602367763653,-6.768000495734079e-16 l 1.0861301183881829,-1.8812325486791315 l -1.086130118388182,-1.8812325486791321 l 2.172260236776365,1.341690502453745e-16 l 1.0861301183881829,-1.8812325486791315 l 1.0861301183881824,1.881232548679132 l 2.172260236776365,1.341690502453745e-16 l 1.0861301183881829,-1.8812325486791315 l -1.086130118388182,-1.8812325486791321 l 2.172260236776365,1.341690502453745e-16 l 1.0861301183881829,-1.8812325486791315 l 1.0861301183881829,1.8812325486791315 l 2.172260236776365,-1.371464494186422e-16 l -1.086130118388182,1.8812325486791321 l 1.0861301183881829,1.8812325486791315 l 2.172260236776365,-1.371464494186422e-16 l 1.0861301183881824,-1.881232548679132 l 1.0861301183881829,1.8812325486791315 l 2.172260236776365,-1.371464494186422e-16 l -1.086130118388182,1.8812325486791321 l 1.0861301183881829,1.8812325486791315 l -2.1722602367763653,6.797774487466756e-16 l -1.086130118388182,1.8812325486791321 l 1.0861301183881829,1.8812325486791315 l 2.172260236776365,-1.371464494186422e-16 l -1.086130118388182,1.8812325486791321 l 1.0861301183881829,1.8812325486791315 l 2.172260236776365,3.8706189252479726e-17 l 1.0861301183881829,-1.881232548679132 l 1.0861301183881829,1.881232548679132 l 2.172260236776365,3.8706189252479726e-17 l 1.0861301183881829,-1.881232548679132 l -1.0861301183881824,-1.8812325486791321 l 2.172260236776365,3.8706189252479726e-17 l 1.0861301183881829,-1.881232548679132 l 1.0861301183881829,1.881232548679132 l 2.172260236776365,3.8706189252479726e-17 l -1.0861301183881824,1.8812325486791321 l 1.0861301183881829,1.881232548679132 l 2.172260236776365,3.8706189252479726e-17 l 1.0861301183881829,-1.881232548679132 l 1.0861301183881829,1.881232548679132 l 2.172260236776365,3.8706189252479726e-17 l 1.0861301183881826,-1.8812325486791315 l -1.086130118388182,-1.8812325486791321 h 2.1722602367763653 l 1.0861301183881826,-1.8812325486791315 l -1.086130118388182,-1.8812325486791321 l -2.1722602367763653,-6.104598742440376e-16 l 1.0861301183881826,-1.8812325486791315 l -1.086130118388182,-1.8812325486791321 h 2.1722602367763653 l 1.0861301183881826,-1.8812325486791315 l 1.0861301183881829,1.8812325486791321 h 2.1722602367763653 l 1.0861301183881826,-1.8812325486791315 l -1.086130118388182,-1.8812325486791321 h 2.1722602367763653 l 1.0861301183881826,-1.8812325486791315 l -1.086130118388182,-1.8812325486791321 l -2.1722602367763653,-8.139464989920502e-16 l 1.0861301183881829,-1.8812325486791315 l -1.086130118388182,-1.8812325486791321 l -2.1722602367763653,-8.139464989920502e-16 l -1.0861301183881835,1.8812325486791315 l -1.086130118388182,-1.8812325486791321 l -2.1722602367763653,-8.139464989920502e-16 l 1.0861301183881829,-1.8812325486791315 l -1.086130118388182,-1.8812325486791321 l 2.172260236776365,4.069732494960251e-16 l 1.0861301183881829,-1.8812325486791315 l -1.086130118388182,-1.8812325486791321 l -2.1722602367763653,-8.139464989920502e-16 l 1.0861301183881829,-1.8812325486791315 l -1.086130118388182,-1.8812325486791321 l 2.172260236776365,-2.0348662474801255e-16 l 1.0861301183881824,-1.8812325486791315 l 1.0861301183881829,1.881232548679132 l 2.172260236776365,-2.0348662474801255e-16 l 1.0861301183881824,-1.8812325486791315 l -1.0861301183881824,-1.881232548679132 l 2.172260236776365,-2.0348662474801255e-16 l 1.0861301183881824,-1.8812325486791315 l 1.0861301183881829,1.881232548679132 l 2.172260236776365,-2.0348662474801255e-16 l -1.0861301183881822,1.8812325486791321 l 1.0861301183881829,1.881232548679132 l 2.172260236776365,-2.0348662474801255e-16 l 1.0861301183881824,-1.8812325486791315 l 1.0861301183881829,1.881232548679132 l 2.172260236776365,-2.0348662474801255e-16 l 1.0861301183881826,-1.8812325486791315 l -1.086130118388182,-1.8812325486791321 h 2.1722602367763653 l 1.0861301183881826,-1.8812325486791315 l -1.086130118388182,-1.8812325486791321 l -2.1722602367763653,-6.104598742440376e-16 l 1.0861301183881826,-1.8812325486791315 l -1.086130118388182,-1.8812325486791321 h 2.1722602367763653 l 1.0861301183881826,-1.8812325486791315 l 1.0861301183881829,1.8812325486791321 h 2.1722602367763653 l 1.0861301183881826,-1.8812325486791315 l -1.086130118388182,-1.8812325486791321 h 2.1722602367763653 l 1.0861301183881826,-1.8812325486791315 l 1.0861301183881826,1.8812325486791315 h 2.1722602367763653 l -1.086130118388182,1.8812325486791321 l 1.0861301183881826,1.8812325486791315 h 2.1722602367763653 l 1.0861301183881829,-1.8812325486791321 l 1.0861301183881826,1.8812325486791315 h 2.1722602367763653 l -1.086130118388182,1.8812325486791321 l 1.0861301183881826,1.8812325486791315 l -2.1722602367763653,6.104598742440376e-16 l -1.086130118388182,1.8812325486791321 l 1.0861301183881826,1.8812325486791315 h 2.1722602367763653 l -1.086130118388182,1.8812325486791321 l 1.0861301183881826,1.8812325486791315 l 2.172260236776365,2.0348662474801255e-16 l 1.0861301183881829,-1.881232548679132 l 1.0861301183881824,1.8812325486791315 l 2.172260236776365,2.0348662474801255e-16 l 1.0861301183881829,-1.881232548679132 l -1.0861301183881822,-1.8812325486791321 l 2.172260236776365,2.0348662474801255e-16 l 1.0861301183881829,-1.881232548679132 l 1.0861301183881824,1.8812325486791315 l 2.172260236776365,2.0348662474801255e-16 l -1.0861301183881824,1.881232548679132 l 1.0861301183881824,1.8812325486791315 l 2.172260236776365,2.0348662474801255e-16 l 1.0861301183881829,-1.881232548679132 l 1.0861301183881824,1.8812325486791315 l 2.172260236776365,2.0348662474801255e-16 l -1.086130118388182,1.8812325486791321 l 1.0861301183881829,1.8812325486791315 l -2.1722602367763653,8.139464989920502e-16 l -1.086130118388182,1.8812325486791321 l 1.0861301183881829,1.8812325486791315 l 2.172260236776365,-4.069732494960251e-16 l -1.086130118388182,1.8812325486791321 l 1.0861301183881829,1.8812325486791315 l -2.1722602367763653,8.139464989920502e-16 l -1.086130118388182,1.8812325486791321 l -1.0861301183881835,-1.8812325486791315 l -2.1722602367763653,8.139464989920502e-16 l -1.086130118388182,1.8812325486791321 l 1.0861301183881829,1.8812325486791315 l -2.1722602367763653,8.139464989920502e-16 l -1.086130118388182,1.8812325486791321 l 1.0861301183881826,1.8812325486791315 h 2.1722602367763653 l -1.086130118388182,1.8812325486791321 l 1.0861301183881826,1.8812325486791315 h 2.1722602367763653 l 1.0861301183881829,-1.8812325486791321 l 1.0861301183881826,1.8812325486791315 h 2.1722602367763653 l -1.086130118388182,1.8812325486791321 l 1.0861301183881826,1.8812325486791315 l -2.1722602367763653,6.104598742440376e-16 l -1.086130118388182,1.8812325486791321 l 1.0861301183881826,1.8812325486791315 h 2.1722602367763653 l -1.086130118388182,1.8812325486791321 l 1.0861301183881826,1.8812325486791315 l 2.172260236776365,3.8706189252479726e-17 l 1.0861301183881829,-1.881232548679132 l 1.0861301183881829,1.881232548679132 l 2.172260236776365,3.8706189252479726e-17 l 1.0861301183881829,-1.881232548679132 l -1.0861301183881824,-1.8812325486791321 l 2.172260236776365,3.8706189252479726e-17 l 1.0861301183881829,-1.881232548679132 l 1.0861301183881829,1.881232548679132 l 2.172260236776365,3.8706189252479726e-17 l -1.0861301183881824,1.8812325486791321 l 1.0861301183881829,1.881232548679132 l 2.172260236776365,3.8706189252479726e-17 l 1.0861301183881829,-1.881232548679132 l 1.0861301183881829,1.881232548679132 l 2.172260236776365,3.8706189252479726e-17 l 1.0861301183881829,-1.8812325486791315 l -1.086130118388182,-1.8812325486791321 l 2.172260236776365,1.341690502453745e-16 l 1.0861301183881829,-1.8812325486791315 l -1.086130118388182,-1.8812325486791321 l -2.1722602367763653,-6.768000495734079e-16 l 1.0861301183881829,-1.8812325486791315 l -1.086130118388182,-1.8812325486791321 l 2.172260236776365,1.341690502453745e-16 l 1.0861301183881829,-1.8812325486791315 l 1.0861301183881824,1.881232548679132 l 2.172260236776365,1.341690502453745e-16 l 1.0861301183881829,-1.8812325486791315 l -1.086130118388182,-1.8812325486791321 l 2.172260236776365,1.341690502453745e-16 l 1.0861301183881829,-1.8812325486791315 l 1.0861301183881829,1.8812325486791315 l 2.172260236776365,-1.371464494186422e-16 l -1.086130118388182,1.8812325486791321 l 1.0861301183881829,1.8812325486791315 l 2.172260236776365,-1.371464494186422e-16 l 1.0861301183881824,-1.881232548679132 l 1.0861301183881829,1.8812325486791315 l 2.172260236776365,-1.371464494186422e-16 l -1.086130118388182,1.8812325486791321 l 1.0861301183881829,1.8812325486791315 l -2.1722602367763653,6.797774487466756e-16 l -1.086130118388182,1.8812325486791321 l 1.0861301183881829,1.8812325486791315 l 2.172260236776365,-1.371464494186422e-16 l -1.086130118388182,1.8812325486791321 l 1.0861301183881829,1.8812325486791315 l 2.172260236776365,3.8706189252479726e-17 l 1.0861301183881829,-1.881232548679132 l 1.0861301183881829,1.881232548679132 l 2.172260236776365,3.8706189252479726e-17 l 1.0861301183881829,-1.881232548679132 l -1.0861301183881824,-1.8812325486791321 l 2.172260236776365,3.8706189252479726e-17 l 1.0861301183881829,-1.881232548679132 l 1.0861301183881829,1.881232548679132 l 2.172260236776365,3.8706189252479726e-17 l -1.0861301183881824,1.8812325486791321 l 1.0861301183881829,1.881232548679132 l 2.172260236776365,3.8706189252479726e-17 l 1.0861301183881829,-1.881232548679132 l 1.0861301183881829,1.881232548679132 l 2.172260236776365,3.8706189252479726e-17 "/></g><defs></defs><g stroke-linejoin="miter" stroke-opacity="1.0" fill-opacity="0.0" stroke="rgb(0,0,0)" stroke-width="0.5979838483211144" fill="rgb(0,0,0)" stroke-linecap="butt" stroke-miterlimit="10.0"><path d="M 18.181818181818187,53.3329427550534 h 58.651026392961874 l 29.325513196480944,-50.793278814336574 l 29.325513196480944,50.793278814336574 h 58.651026392961874 "/></g></g></svg>