<svg xmlns="http://www.w3.org/2000/svg" height="190.2113" stroke-opacity="1" viewBox="0 0 200 190" font-size="1" width="200.0000" xmlns:xlink="http://www.w3.org/1999/xlink" stroke="rgb(0,0,0)" version="1.1"><defs></defs><g stroke-linejoin="miter" stroke-opacity="1.0" fill-opacity="0.0" stroke="rgb(0,0,0)" stroke-width="0.7801770122407466" fill="rgb(0,0,0)" stroke-linecap="butt" stroke-miterlimit="10.0"><path d="M 126.9672,178.1023 l 6.3661,-19.5928 l -6.3661,-19.5928 l -16.6667,-12.1090 l -20.6011,0.0000 l -16.6667,12.1090 l -6.3661,19.5928 l 6.3661,19.5928 l 16.6667,12.1090 l 20.6011,-0.0000 Z"/></g><g stroke-linejoin="miter" stroke-opacity="1.0" fill-opacity="0.0" stroke="rgb(0,0,0)" stroke-width="0.7801770122407466" fill="rgb(0,0,0)" stroke-linecap="butt" stroke-miterlimit="10.0"><path d="M 59.4153,173.5678 l 3.5773,-20.2882 l -10.3006,-17.8411 l -19.3587,-7.0460 l -19.3587,7.0460 l -10.3006,17.8411 l 3.5773,20.2882 l 15.7814,13.2422 l 20.6011,0.0000 Z"/></g><g stroke-linejoin="miter" stroke-opacity="1.0" fill-opacity="0.0" stroke="rgb(0,0,0)" stroke-width="0.7801770122407466" fill="rgb(0,0,0)" stroke-linecap="butt" stroke-miterlimit="10.0"><path d="M 191.5344,105.4062 l -0.0000,-20.6011 l -14.5672,-14.5672 l -20.6011,0.0000 l -14.5672,14.5672 l 0.0000,20.6011 l 14.5672,14.5672 l 20.6011,-0.0000 Z"/></g><g stroke-linejoin="miter" stroke-opacity="1.0" fill-opacity="0.0" stroke="rgb(0,0,0)" stroke-width="0.7801770122407466" fill="rgb(0,0,0)" stroke-linecap="butt" stroke-miterlimit="10.0"><path d="M 123.1452,100.3884 l -4.5842,-20.0846 l -18.5610,-8.9385 l -18.5610,8.9385 l -4.5842,20.0846 l 12.8446,16.1066 l 20.6011,-0.0000 Z"/></g><g stroke-linejoin="miter" stroke-opacity="1.0" fill-opacity="0.0" stroke="rgb(0,0,0)" stroke-width="0.7801770122407466" fill="rgb(0,0,0)" stroke-linecap="butt" stroke-miterlimit="10.0"><path d="M 43.6339,112.9468 l 10.3006,-17.8411 l -10.3006,-17.8411 l -20.6011,-0.0000 l -10.3006,17.8411 l 10.3006,17.8411 Z"/></g><g stroke-linejoin="miter" stroke-opacity="1.0" fill-opacity="0.0" stroke="rgb(0,0,0)" stroke-width="0.7801770122407466" fill="rgb(0,0,0)" stroke-linecap="butt" stroke-miterlimit="10.0"><path d="M 176.9672,45.8794 l 6.3661,-19.5928 l -16.6667,-12.1090 l -16.6667,12.1090 l 6.3661,19.5928 Z"/></g><g stroke-linejoin="miter" stroke-opacity="1.0" fill-opacity="0.0" stroke="rgb(0,0,0)" stroke-width="0.7801770122407466" fill="rgb(0,0,0)" stroke-linecap="butt" stroke-miterlimit="10.0"><path d="M 110.3006,42.0025 l -0.0000,-20.6011 l -20.6011,0.0000 l 0.0000,20.6011 Z"/></g><g stroke-linejoin="miter" stroke-opacity="1.0" fill-opacity="0.0" stroke="rgb(0,0,0)" stroke-width="0.7801770122407466" fill="rgb(0,0,0)" stroke-linecap="butt" stroke-miterlimit="10.0"><path d="M 43.6339,37.6489 l -10.3006,-17.8411 l -10.3006,17.8411 Z"/></g></svg>