<?xml version="1.0" encoding="UTF-8"?>
<!DOCTYPE svg PUBLIC "-//W3C//DTD SVG 1.1//EN"
    "http://www.w3.org/Graphics/SVG/1.1/DTD/svg11.dtd">
<svg xmlns="http://www.w3.org/2000/svg" xmlns:xlink="http://www.w3.org/1999/xlink" version="1.1" width="400.0" height="101.81595354555577" font-size="1" viewBox="0 0 400 102" stroke="rgb(0,0,0)" stroke-opacity="1"><g><g fill="rgb(0,0,0)" fill-opacity="0.0"><g stroke="rgb(0,0,0)" stroke-opacity="1.0" stroke-width="0.8072311333760344" stroke-linecap="butt" stroke-linejoin="miter" font-size="1.0em" stroke-miterlimit="10.0"><g><g><g><g clip-path="url(#myClip1)"><clipPath id="myClip1"><path d="M 375.5238851708194,46.98054190189048 l -6.695289750607084,-17.65402817348051 l -14.132620625299134,-12.52040933260559 l -18.33233843127683,-4.518515600920099 l -18.332338431276824,4.518515600920113 l -14.13262062529913,12.520409332605604 l -6.695289750607064,17.65402817348051 l 2.2758513189607124,18.743321913914098 l 10.72562227833621,15.538746485385674 l 16.71828243150548,8.774431499250666 l 18.88098555676125,6.987368297577131e-16 l 16.71828243150548,-8.774431499250657 l 10.72562227833621,-15.538746485385653 Z" /></clipPath><g stroke="rgb(255,255,255)" stroke-opacity="1.0" fill="rgb(255,255,255)" fill-opacity="1.0"><g fill="rgb(255,255,255)" fill-opacity="1.0"><g fill="rgb(255,255,255)" fill-opacity="1.0"><path d="M 375.5238851708194,90.61018347831416 l -4.347660987578442e-15,-77.74945300555667 h -39.16024880718303 l -4.347660987578442e-15,77.74945300555667 Z" /></g></g></g><g stroke="rgb(255,255,255)" stroke-opacity="1.0" fill="rgb(255,255,255)" fill-opacity="1.0"><g fill="rgb(255,255,255)" fill-opacity="1.0"><g fill="rgb(255,255,255)" fill-opacity="1.0"><path d="M 336.3636363636364,90.61018347831416 l -4.347660987578442e-15,-77.74945300555667 h -39.16024880718303 l -4.347660987578442e-15,77.74945300555667 Z" /></g></g></g></g></g><g stroke="rgb(255,165,0)" stroke-opacity="1.0"><path d="M 360.26873560541503,19.730914895554623 c 1.6153282351570308,-3.077750810094854 0.4298004993432474,-6.882243075095025 -2.647950310751606 -8.497571310252056c -3.077750810094854,-1.615328235157031 -6.882243075095025,-0.4298004993432478 -8.497571310252056 2.647950310751605c -1.6153282351570313,3.077750810094854 -0.42980049934324827,6.882243075095024 2.6479503107516043 8.497571310252056c 3.0777508100948534,1.6153282351570315 6.882243075095024,0.42980049934324827 8.497571310252058 -2.6479503107516056Z" /></g><g stroke="rgb(255,165,0)" stroke-opacity="1.0"><path d="M 372.40380284632437,34.50609589020523 c 2.860604238455118,-1.9745325389234973 3.5789072746066593,-5.894185349452176 1.6043747356831628 -8.754789587907293c -1.9745325389234971,-2.860604238455118 -5.894185349452175,-3.5789072746066597 -8.754789587907291 -1.6043747356831632c -2.8606042384551182,1.974532538923497 -3.57890727460666,5.894185349452175 -1.6043747356831637 8.754789587907291c 1.974532538923497,2.8606042384551182 5.894185349452174,3.57890727460666 8.754789587907293 1.6043747356831641Z" /></g><g stroke="rgb(255,165,0)" stroke-opacity="1.0"><path d="M 376.28250227713966,53.228315873195186 c 3.4505502847413587,-0.41897265878143214 5.908129523765895,-3.555840792883576 5.489156864984463 -7.006391077624934c -0.4189726587814319,-3.4505502847413587 -3.5558407928835756,-5.908129523765895 -7.006391077624934 -5.489156864984463c -3.4505502847413587,0.4189726587814317 -5.908129523765895,3.5558407928835756 -5.489156864984463 7.006391077624933c 0.41897265878143153,3.4505502847413587 3.555840792883575,5.908129523765895 7.006391077624934 5.489156864984464Z" /></g><g stroke="rgb(255,165,0)" stroke-opacity="1.0"><path d="M 371.01627060165634,71.60853987363144 c 3.2500168444321536,1.2325688083195692 6.8838704997096265,-0.40289596319232057 8.116439308029197 -3.652912807624474c 1.2325688083195694,-3.2500168444321536 -0.40289596319232013,-6.8838704997096265 -3.6529128076244732 -8.116439308029195c -3.2500168444321536,-1.2325688083195696 -6.8838704997096265,0.40289596319232013 -8.116439308029195 3.6529128076244723c -1.2325688083195698,3.250016844432153 0.4028959631923197,6.8838704997096265 3.652912807624471 8.116439308029197Z" /></g><g stroke="rgb(255,165,0)" stroke-opacity="1.0"><path d="M 357.81153803175613,85.43608007872548 c 2.3049437120124043,2.601743615498947 6.282599703802628,2.8423474762435825 8.884343319301575 0.5374037642311782c 2.601743615498947,-2.3049437120124043 2.8423474762435825,-6.282599703802627 0.5374037642311791 -8.884343319301573c -2.304943712012404,-2.6017436154989473 -6.282599703802626,-2.8423474762435825 -8.884343319301573 -0.5374037642311791c -2.6017436154989473,2.304943712012404 -2.842347476243583,6.282599703802626 -0.5374037642311809 8.884343319301575Z" /></g><g stroke="rgb(255,165,0)" stroke-opacity="1.0"><path d="M 339.69334966492477,91.54321366741432 c 0.8318357527535651,3.3748903147770544 4.242061029288587,5.436443362872474 7.616951344065641 4.60460761011891c 3.3748903147770544,-0.8318357527535649 5.436443362872474,-4.242061029288587 4.60460761011891 -7.616951344065641c -0.8318357527535647,-3.3748903147770544 -4.242061029288587,-5.436443362872474 -7.61695134406564 -4.60460761011891c -3.3748903147770544,0.8318357527535645 -5.436443362872474,4.242061029288587 -4.6046076101189115 7.616951344065641Z" /></g><g stroke="rgb(255,165,0)" stroke-opacity="1.0"><path d="M 320.8123641081635,88.53086993346759 c -0.831835752753566,3.374890314777054 1.2297172953418516,6.785115591312078 4.604607610118904 7.616951344065643c 3.374890314777054,0.8318357527535662 6.785115591312078,-1.2297172953418516 7.616951344065643 -4.604607610118904c 0.8318357527535665,-3.374890314777054 -1.2297172953418511,-6.785115591312077 -4.6046076101189035 -7.616951344065643c -3.374890314777054,-0.8318357527535667 -6.785115591312077,1.2297172953418507 -7.616951344065645 4.604607610118904Z" /></g><g stroke="rgb(255,165,0)" stroke-opacity="1.0"><path d="M 305.49398761198387,77.08914052365508 c -2.304943712012404,2.6017436154989477 -2.0643398512677686,6.579399607289171 0.5374037642311791 8.884343319301575c 2.6017436154989477,2.304943712012404 6.579399607289171,2.0643398512677686 8.884343319301575 -0.5374037642311782c 2.3049437120124043,-2.6017436154989473 2.064339851267769,-6.5793996072891705 -0.5374037642311782 -8.884343319301575c -2.6017436154989473,-2.3049437120124043 -6.5793996072891705,-2.064339851267769 -8.884343319301575 0.5374037642311791Z" /></g><g stroke="rgb(255,165,0)" stroke-opacity="1.0"><path d="M 297.2474756252117,59.83918775797777 c -3.2500168444321536,1.2325688083195685 -4.885481615944045,4.86642246359704 -3.652912807624477 8.116439308029193c 1.2325688083195683,3.2500168444321536 4.86642246359704,4.8854816159440455 8.116439308029193 3.6529128076244772c 3.2500168444321536,-1.232568808319568 4.8854816159440455,-4.86642246359704 3.6529128076244772 -8.116439308029193c -1.2325688083195678,-3.250016844432154 -4.86642246359704,-4.8854816159440455 -8.116439308029193 -3.652912807624478Z" /></g><g stroke="rgb(255,165,0)" stroke-opacity="1.0"><path d="M 297.96200466277355,40.73276793058581 c -3.4505502847413587,-0.4189726587814315 -6.5874184188435025,2.038606580243105 -7.006391077624934 5.489156864984462c -0.4189726587814317,3.4505502847413587 2.0386065802431044,6.5874184188435025 5.489156864984462 7.006391077624934c 3.4505502847413587,0.4189726587814319 6.5874184188435025,-2.0386065802431044 7.006391077624934 -5.489156864984461c 0.4189726587814321,-3.4505502847413587 -2.038606580243104,-6.5874184188435025 -5.489156864984462 -7.006391077624934Z" /></g><g stroke="rgb(255,165,0)" stroke-opacity="1.0"><path d="M 307.4738847331725,24.146931566614764 c -2.8606042384551174,-1.974532538923498 -6.780257048983795,-1.256229502771958 -8.754789587907293 1.6043747356831588c -1.9745325389234982,2.8606042384551174 -1.2562295027719586,6.780257048983795 1.604374735683158 8.754789587907293c 2.860604238455117,1.9745325389234984 6.780257048983795,1.2562295027719586 8.754789587907293 -1.604374735683157c 1.9745325389234984,-2.860604238455117 1.256229502771959,-6.780257048983795 -1.604374735683158 -8.754789587907295Z" /></g><g stroke="rgb(255,165,0)" stroke-opacity="1.0"><path d="M 323.6040587428614,13.88129389605417 c -1.6153282351570313,-3.0777508100948534 -5.419820500157202,-4.263278545908637 -8.497571310252056 -2.6479503107516056c -3.0777508100948534,1.615328235157031 -4.263278545908637,5.419820500157202 -2.647950310751606 8.497571310252054c 1.6153282351570308,3.0777508100948534 5.4198205001572015,4.263278545908637 8.497571310252054 2.6479503107516065c 3.077750810094854,-1.6153282351570306 4.263278545908637,-5.4198205001572015 2.6479503107516074 -8.497571310252056Z" /></g><g stroke="rgb(255,165,0)" stroke-opacity="1.0"><path d="M 342.65729821589014,12.287588794884293 c 0.0,-3.475893461591574 -2.8177683906621818,-6.293661852253757 -6.293661852253755 -6.293661852253757c -3.475893461591574,-2.1283709009576673e-16 -6.293661852253757,2.8177683906621813 -6.293661852253757 6.293661852253755c -4.2567418019153346e-16,3.475893461591574 2.8177683906621813,6.293661852253757 6.293661852253754 6.293661852253757c 3.475893461591574,6.385112702873001e-16 6.293661852253757,-2.817768390662181 6.2936618522537575 -6.293661852253755Z" /></g></g><g><g><g clip-path="url(#myClip2)"><clipPath id="myClip2"><path d="M 244.53529867979128,52.41469297011604 l -4.1428193509822665e-2,-2.7163121307529177 l -0.20694831408565814,-2.7087340737307617 l -0.3716985733406641,-2.6910793480441 l -0.5350660894896271,-2.6634136304320477 l -0.6964431246424134,-2.6258398391812205 l -0.8552293456290123,-2.5784977512629133 l -1.0108340572782206,-2.521563482353634 l -1.1626783998425605,-2.455248831673174 l -1.310197502394515,-2.3798004940776307 l -1.4528425841835209,-2.2954991423383055 l -1.5900829961363416,-2.2026583830206214 l -1.721408194906573,-2.1016235898470175 l -1.8463296421292672,-1.99277061888411 l -1.9643826218159275,-1.876504410333351 l -2.0751279691283697,-1.753257482126953 l -2.178153704100803,-1.6234883209326971 l -2.2730765642323836,-1.4876796765535354 l -2.3595434302488756,-1.346336766066476 l -2.4372326397295216,-1.1999853943819543 l -2.5058551837124177,-1.0491699982150373 l -2.5651557818268045,-0.8944516207450612 l -2.6149138319528182,-0.7364058244981332 l -2.654944230875873,-0.5756205502167882 l -2.6850980628827665,-0.4126939296817457 l -2.705263153737927,-0.24823206062246922 l -2.7153644879789227,-8.284675199374958e-2 l -2.715364487978921,8.28467519937876e-2 l -2.7052631537379224,0.2482320606225221 l -2.685098062882759,0.4126939296817902 l -2.6549442308758633,0.5756205502168306 l -2.614913831952806,0.73640582449818 l -2.56515578182679,0.8944516207451043 l -2.5058551837123924,1.0491699982150806 l -2.4372326397294932,1.199985394381989 l -2.3595434302488445,1.3463367660664993 l -2.273076564232356,1.4876796765535736 l -2.1781537041007706,1.6234883209327309 l -2.0751279691283333,1.7532574821269702 l -1.9643826218158964,1.8765044103333761 l -1.8463296421292323,1.9927706188841328 l -1.7214081949065236,2.1016235898470423 l -1.5900829961363085,2.2026583830206308 l -1.4528425841834836,2.2954991423383193 l -1.3101975023944807,2.379800494077635 l -1.1626783998425188,2.455248831673186 l -1.0108340572781802,2.5215634823536424 l -0.855229345628971,2.5784977512629172 l -0.6964431246423822,2.625839839181222 l -0.5350660894895831,2.663413630432047 l -0.3716985733406367,2.6910793480440955 l -0.20694831408561437,2.708734073730756 l -4.1428193509786805e-2,2.7163121307529106 l 0.12424604266690328,2.713785328240705 l 0.2894580754043748,2.701163066065448 l 0.4535933050896666,2.6784922998714635 l 0.6160411378879286,2.645857366398015 l 0.7761972571915325,2.6033796697410945 l 0.9334658717175823,2.551217229722204 l 1.0872619318906054,2.4895640940442565 l 1.2370133062653965,2.41864961642137 l 1.382162909893588,2.3387376033679783 l 1.5221707767162291,2.2501253328212694 l 1.6565160682729665,2.1531424482477526 l 1.7846990112554222,2.048149732347911 l 1.90624275669659,1.9355377649208219 l 2.020695153880429,1.8157254698817114 l 2.1276304323721242,1.6891585568373702 l 2.22665078591218,1.5563078630173237 l 2.3173878522817586,1.4176676017282206 l 2.3995040836343122,1.2737535238479822 l 2.472694002195816,1.12510099919862 l 2.536685336662085,0.9722630249353672 l 2.5912400350659324,0.8158081683609215 l 2.6361551503461413,0.6563184518177122 l 2.6712635953238366,0.4943871875266142 l 2.6964347642777633,0.3306167704264496 l 2.7115750188061707,0.16561643722532216 l 2.7166280361677964,2.5762204749775935e-16 l 2.7115750188061707,-0.1656164372253259 l 2.6964347642777633,-0.3306167704264513 l 2.6712635953238357,-0.4943871875266113 l 2.636155150346143,-0.6563184518177122 l 2.591240035065933,-0.8158081683609227 l 2.5366853366620803,-0.9722630249353754 l 2.4726940021958135,-1.1251009991986223 l 2.3995040836343153,-1.2737535238479794 l 2.3173878522817555,-1.417667601728222 l 2.226650785912183,-1.5563078630173255 l 2.1276304323721247,-1.6891585568373753 l 2.0206951538804137,-1.815725469881695 l 1.9062427566965865,-1.9355377649208223 l 1.7846990112554157,-2.048149732347911 l 1.6565160682729745,-2.1531424482477544 l 1.522170776716225,-2.250125332821272 l 1.3821629098935913,-2.3387376033679734 l 1.2370133062653965,-2.418649616421371 l 1.0872619318906036,-2.4895640940442574 l 0.9334658717175793,-2.5512172297222047 l 0.7761972571915294,-2.6033796697410923 l 0.6160411378879286,-2.6458573663980163 l 0.45359330508967033,-2.6784922998714635 l 0.2894580754043738,-2.701163066065448 Z" /></clipPath><g stroke="rgb(255,255,89)" stroke-opacity="1.0" fill="rgb(255,255,89)" fill-opacity="1.0"><g fill="rgb(255,255,89)" fill-opacity="1.0"><g fill="rgb(255,255,89)" fill-opacity="1.0"><path d="M 244.5352986797913,96.26557683002628 l -3.296274266857504e-15,-89.06023970898089 h -29.69019911986082 l -3.296274266857504e-15,89.06023970898089 Z" /></g></g></g><g stroke="rgb(89,89,89)" stroke-opacity="1.0" fill="rgb(89,89,89)" fill-opacity="1.0"><g fill="rgb(89,89,89)" fill-opacity="1.0"><g fill="rgb(89,89,89)" fill-opacity="1.0"><path d="M 214.84509955993047,96.26557683002628 l -3.296274266857504e-15,-89.06023970898089 h -29.69019911986082 l -3.296274266857504e-15,89.06023970898089 Z" /></g></g></g><g stroke="rgb(255,89,89)" stroke-opacity="1.0" fill="rgb(255,89,89)" fill-opacity="1.0"><g fill="rgb(255,89,89)" fill-opacity="1.0"><g fill="rgb(255,89,89)" fill-opacity="1.0"><path d="M 185.15490044006964,96.26557683002628 l -3.296274266857504e-15,-89.06023970898089 h -29.69019911986082 l -3.296274266857504e-15,89.06023970898089 Z" /></g></g></g></g></g><g fill="rgb(0,128,0)" fill-opacity="1.0" stroke-width="0.0"><g fill="rgb(0,128,0)" fill-opacity="1.0"><g fill="rgb(0,128,0)" fill-opacity="1.0"><path d="M 203.56401734850593,8.236889438820572 l 0.11041095815021783,-1.8077166792041195 l -1.8077166792041195,-0.11041095815021802 l -0.11041095815021822,1.8077166792041195 Z" /></g></g></g><g fill="rgb(0,128,0)" fill-opacity="1.0" stroke-width="0.0"><g fill="rgb(0,128,0)" fill-opacity="1.0"><g fill="rgb(0,128,0)" fill-opacity="1.0"><path d="M 206.20923363966733,8.53507485900065 l 0.22041118028430143,-1.7976231761851813 l -1.7976231761851813,-0.22041118028430162 l -0.22041118028430182,1.7976231761851813 Z" /></g></g></g><g fill="rgb(0,128,0)" fill-opacity="1.0" stroke-width="0.0"><g fill="rgb(0,128,0)" fill-opacity="1.0"><g fill="rgb(0,128,0)" fill-opacity="1.0"><path d="M 208.83135117386541,8.993968538064493 l 0.3295914583510759,-1.7808423968825624 l -1.7808423968825624,-0.3295914583510761 l -0.32959145835107634,1.7808423968825624 Z" /></g></g></g><g fill="rgb(0,128,0)" fill-opacity="1.0" stroke-width="0.0"><g fill="rgb(0,128,0)" fill-opacity="1.0"><g fill="rgb(0,128,0)" fill-opacity="1.0"><path d="M 211.42061550165167,9.611863361385776 l 0.4375456345451458,-1.7574367668974336 l -1.7574367668974336,-0.437545634545146 l -0.4375456345451462,1.7574367668974336 Z" /></g></g></g><g fill="rgb(0,128,0)" fill-opacity="1.0" stroke-width="0.0"><g fill="rgb(0,128,0)" fill-opacity="1.0"><g fill="rgb(0,128,0)" fill-opacity="1.0"><path d="M 213.96739438966335,10.386460719638258 l 0.5438721122406176,-1.7274933567106263 l -1.7274933567106263,-0.5438721122406178 l -0.543872112240618,1.7274933567106263 Z" /></g></g></g><g fill="rgb(0,128,0)" fill-opacity="1.0" stroke-width="0.0"><g fill="rgb(0,128,0)" fill-opacity="1.0"><g fill="rgb(0,128,0)" fill-opacity="1.0"><path d="M 216.46221365316404,11.314879059773538 l 0.6481753499569185,-1.6911235577747254 l -1.6911235577747254,-0.6481753499569187 l -0.648175349956919,1.6911235577747254 Z" /></g></g></g><g fill="rgb(0,128,0)" fill-opacity="1.0" stroke-width="0.0"><g fill="rgb(0,128,0)" fill-opacity="1.0"><g fill="rgb(0,128,0)" fill-opacity="1.0"><path d="M 218.89579240063327,12.393664604587595 l 0.7500673327990851,-1.6484626681305479 l -1.6484626681305479,-0.7500673327990853 l -0.7500673327990856,1.6484626681305479 Z" /></g></g></g><g fill="rgb(0,128,0)" fill-opacity="1.0" stroke-width="0.0"><g fill="rgb(0,128,0)" fill-opacity="1.0"><g fill="rgb(0,128,0)" fill-opacity="1.0"><path d="M 221.2590775592925,13.61880420099885 l 0.8491690158986573,-1.5996693890895468 l -1.5996693890895468,-0.8491690158986576 l -0.8491690158986578,1.5996693890895468 Z" /></g></g></g><g fill="rgb(0,128,0)" fill-opacity="1.0" stroke-width="0.0"><g fill="rgb(0,128,0)" fill-opacity="1.0"><g fill="rgb(0,128,0)" fill-opacity="1.0"><path d="M 223.54327755313042,14.985740249241244 l 0.9451117344854867,-1.5449252348545068 l -1.5449252348545068,-0.9451117344854869 l -0.9451117344854871,1.5449252348545068 Z" /></g></g></g><g fill="rgb(0,128,0)" fill-opacity="1.0" stroke-width="0.0"><g fill="rgb(0,128,0)" fill-opacity="1.0"><g fill="rgb(0,128,0)" fill-opacity="1.0"><path d="M 225.73989500814326,16.489387657434637 l 1.0375385753448894,-1.4844338572747915 l -1.4844338572747913,-1.0375385753448896 l -1.0375385753448898,1.484433857274791 Z" /></g></g></g><g fill="rgb(0,128,0)" fill-opacity="1.0" stroke-width="0.0"><g fill="rgb(0,128,0)" fill-opacity="1.0"><g fill="rgb(0,128,0)" fill-opacity="1.0"><path d="M 227.84075836312397,18.12415275846068 l 1.1261057045582552,-1.418420288248083 l -1.4184202882480828,-1.1261057045582554 l -1.1261057045582556,1.4184202882480825 Z" /></g></g></g><g fill="rgb(0,128,0)" fill-opacity="1.0" stroke-width="0.0"><g fill="rgb(0,128,0)" fill-opacity="1.0"><g fill="rgb(0,128,0)" fill-opacity="1.0"><path d="M 229.83805226840698,19.883954118771847 l 1.2104836465878024,-1.3471301025869458 l -1.3471301025869455,-1.2104836465878026 l -1.2104836465878028,1.3471301025869453 Z" /></g></g></g><g fill="rgb(0,128,0)" fill-opacity="1.0" stroke-width="0.0"><g fill="rgb(0,128,0)" fill-opacity="1.0"><g fill="rgb(0,128,0)" fill-opacity="1.0"><path d="M 231.72434665948197,21.762245161723666 l 1.2903585099472215,-1.270828504464393 l -1.2708285044643928,-1.2903585099472217 l -1.290358509947222,1.2708285044643925 Z" /></g></g></g><g fill="rgb(0,128,0)" fill-opacity="1.0" stroke-width="0.0"><g fill="rgb(0,128,0)" fill-opacity="1.0"><g fill="rgb(0,128,0)" fill-opacity="1.0"><path d="M 233.49262439732178,23.75203852126976 l 1.3654331548986145,-1.1897993408369476 l -1.1897993408369474,-1.3654331548986147 l -1.365433154898615,1.1897993408369472 Z" /></g></g></g><g fill="rgb(0,128,0)" fill-opacity="1.0" stroke-width="0.0"><g fill="rgb(0,128,0)" fill-opacity="1.0"><g fill="rgb(0,128,0)" fill-opacity="1.0"><path d="M 235.1363073726009,25.84593203542262 l 1.4354282988318463,-1.1043440455153142 l -1.104344045515314,-1.4354282988318465 l -1.4354282988318467,1.1043440455153137 Z" /></g></g></g><g fill="rgb(0,128,0)" fill-opacity="1.0" stroke-width="0.0"><g fill="rgb(0,128,0)" fill-opacity="1.0"><g fill="rgb(0,128,0)" fill-opacity="1.0"><path d="M 236.64928097669383,28.036136282782163 l 1.5000835552141871,-1.0147805178108138 l -1.0147805178108136,-1.5000835552141873 l -1.5000835552141876,1.0147805178108134 Z" /></g></g></g><g fill="rgb(0,128,0)" fill-opacity="1.0" stroke-width="0.0"><g fill="rgb(0,128,0)" fill-opacity="1.0"><g fill="rgb(0,128,0)" fill-opacity="1.0"><path d="M 238.02591684842085,30.314503559695165 l 1.559158402245325,-0.9214419399290572 l -0.921441939929057,-1.559158402245325 l -1.559158402245325,0.9214419399290568 Z" /></g></g></g><g fill="rgb(0,128,0)" fill-opacity="1.0" stroke-width="0.0"><g fill="rgb(0,128,0)" fill-opacity="1.0"><g fill="rgb(0,128,0)" fill-opacity="1.0"><path d="M 239.26109381192148,32.67255819024786 l 1.6124330776142555,-0.8246755375102625 l -0.8246755375102622,-1.6124330776142555 l -1.6124330776142555,0.824675537510262 Z" /></g></g></g><g fill="rgb(0,128,0)" fill-opacity="1.0" stroke-width="0.0"><g fill="rgb(0,128,0)" fill-opacity="1.0"><g fill="rgb(0,128,0)" fill-opacity="1.0"><path d="M 240.35021692776482,35.10152805633707 l 1.6597093960295137,-0.724841287927065 l -0.7248412879270648,-1.6597093960295137 l -1.6597093960295137,0.7248412879270646 Z" /></g></g></g><g fill="rgb(0,128,0)" fill-opacity="1.0" stroke-width="0.0"><g fill="rgb(0,128,0)" fill-opacity="1.0"><g fill="rgb(0,128,0)" fill-opacity="1.0"><path d="M 241.289234586426,37.59237723052568 l 1.7008114864814767,-0.6223105811450492 l -0.622310581145049,-1.7008114864814767 l -1.7008114864814767,0.6223105811450488 Z" /></g></g></g><g fill="rgb(0,128,0)" fill-opacity="1.0" stroke-width="0.0"><g fill="rgb(0,128,0)" fill-opacity="1.0"><g fill="rgb(0,128,0)" fill-opacity="1.0"><path d="M 242.07465358054,40.13583959028624 l 1.7355864464940696,-0.5174648381276813 l -0.5174648381276811,-1.7355864464940696 l -1.7355864464940696,0.5174648381276808 Z" /></g></g></g><g fill="rgb(0,128,0)" fill-opacity="1.0" stroke-width="0.0"><g fill="rgb(0,128,0)" fill-opacity="1.0"><g fill="rgb(0,128,0)" fill-opacity="1.0"><path d="M 242.70355209986224,42.72245328858523 l 1.7639049109320177,-0.41069409192527934 l -0.4106940919252791,-1.7639049109320177 l -1.7639049109320177,0.4106940919252789 Z" /></g></g></g><g fill="rgb(0,128,0)" fill-opacity="1.0" stroke-width="0.0"><g fill="rgb(0,128,0)" fill-opacity="1.0"><g fill="rgb(0,128,0)" fill-opacity="1.0"><path d="M 243.17359060059462,45.34259595257567 l 1.7856615332476498,-0.30239553672644026 l -0.30239553672644004,-1.7856615332476498 l -1.7856615332476498,0.3023955367264398 Z" /></g></g></g><g fill="rgb(0,128,0)" fill-opacity="1.0" stroke-width="0.0"><g fill="rgb(0,128,0)" fill-opacity="1.0"><g fill="rgb(0,128,0)" fill-opacity="1.0"><path d="M 243.48302050864217,47.986520479456 l 1.8007753773769717,-0.19297205026957578 l -0.1929720502695756,-1.8007753773769717 l -1.8007753773769717,0.1929720502695754 Z" /></g></g></g><g fill="rgb(0,128,0)" fill-opacity="1.0" stroke-width="0.0"><g fill="rgb(0,128,0)" fill-opacity="1.0"><g fill="rgb(0,128,0)" fill-opacity="1.0"><path d="M 243.63069072442354,50.64439129633268 l 1.8091902188271425,-8.283069511126326e-2 l -8.283069511126306e-2,-1.8091902188271425 l -1.8091902188271425,8.283069511126287e-2 Z" /></g></g></g><g fill="rgb(0,128,0)" fill-opacity="1.0" stroke-width="0.0"><g fill="rgb(0,128,0)" fill-opacity="1.0"><g fill="rgb(0,128,0)" fill-opacity="1.0"><path d="M 243.61605190503704,53.30632094919746 l 1.8108747538352787,2.7618795673202405e-2 l 2.7618795673202606e-2,-1.8108747538352787 l -1.8108747538352787,-2.7618795673202808e-2 Z" /></g></g></g><g fill="rgb(0,128,0)" fill-opacity="1.0" stroke-width="0.0"><g fill="rgb(0,128,0)" fill-opacity="1.0"><g fill="rgb(0,128,0)" fill-opacity="1.0"><path d="M 243.43915850785226,55.962406884905505 l 1.8058227158205091,0.1379655427237538 l 0.137965542723754,-1.8058227158205091 l -1.8058227158205091,-0.1379655427237542 Z" /></g></g></g><g fill="rgb(0,128,0)" fill-opacity="1.0" stroke-width="0.0"><g fill="rgb(0,128,0)" fill-opacity="1.0"><g fill="rgb(0,128,0)" fill-opacity="1.0"><path d="M 243.1006685879251,58.60276828932373 l 1.7940528986960678,0.2477990488937667 l 0.2477990488937669,-1.7940528986960678 l -1.7940528986960678,-0.24779904889376708 Z" /></g></g></g><g fill="rgb(0,128,0)" fill-opacity="1.0" stroke-width="0.0"><g fill="rgb(0,128,0)" fill-opacity="1.0"><g fill="rgb(0,128,0)" fill-opacity="1.0"><path d="M 242.6018413499898,61.2175828446082 l 1.775609086954702,0.3567107263264006 l 0.35671072632640083,-1.775609086954702 l -1.775609086954702,-0.35671072632640105 Z" /></g></g></g><g fill="rgb(0,128,0)" fill-opacity="1.0" stroke-width="0.0"><g fill="rgb(0,128,0)" fill-opacity="1.0"><g fill="rgb(0,128,0)" fill-opacity="1.0"><path d="M 241.94453246413457,63.79712326887167 l 1.7505598927874828,0.4642954164282641 l 0.46429541642826433,-1.7505598927874828 l -1.7505598927874828,-0.46429541642826455 Z" /></g></g></g><g fill="rgb(0,128,0)" fill-opacity="1.0" stroke-width="0.0"><g fill="rgb(0,128,0)" fill-opacity="1.0"><g fill="rgb(0,128,0)" fill-opacity="1.0"><path d="M 241.13118716258697,66.33179350231113 l 1.7189985008419488,0.5701528970859929 l 0.5701528970859931,-1.7189985008419488 l -1.7189985008419488,-0.5701528970859934 Z" /></g></g></g><g fill="rgb(0,128,0)" fill-opacity="1.0" stroke-width="0.0"><g fill="rgb(0,128,0)" fill-opacity="1.0"><g fill="rgb(0,128,0)" fill-opacity="1.0"><path d="M 240.1648311432894,68.81216440518054 l 1.6810423215690957,0.6738893715188 l 0.6738893715188002,-1.6810423215690957 l -1.6810423215690957,-0.6738893715188005 Z" /></g></g></g><g fill="rgb(0,128,0)" fill-opacity="1.0" stroke-width="0.0"><g fill="rgb(0,128,0)" fill-opacity="1.0"><g fill="rgb(0,128,0)" fill-opacity="1.0"><path d="M 239.04905931410417,71.22900883480987 l 1.6368325544487896,0.7751189332283586 l 0.7751189332283588,-1.6368325544487896 l -1.6368325544487896,-0.775118933228359 Z" /></g></g></g><g fill="rgb(0,128,0)" fill-opacity="1.0" stroke-width="0.0"><g fill="rgb(0,128,0)" fill-opacity="1.0"><g fill="rgb(0,128,0)" fill-opacity="1.0"><path d="M 237.78802241952,73.57333597118209 l 1.5865336627184243,0.8734650015963318 l 0.873465001596332,-1.5865336627184243 l -1.5865336627184243,-0.8734650015963322 Z" /></g></g></g><g fill="rgb(0,128,0)" fill-opacity="1.0" stroke-width="0.0"><g fill="rgb(0,128,0)" fill-opacity="1.0"><g fill="rgb(0,128,0)" fill-opacity="1.0"><path d="M 236.38641159960983,75.83642476337396 l 1.5303327615588787,0.9685617227889995 l 0.9685617227889998,-1.5303327615588787 l -1.5303327615588787,-0.968561722789 Z" /></g></g></g><g fill="rgb(0,128,0)" fill-opacity="1.0" stroke-width="0.0"><g fill="rgb(0,128,0)" fill-opacity="1.0"><g fill="rgb(0,128,0)" fill-opacity="1.0"><path d="M 234.8494409386819,78.0098563724384 l 1.4684389220137533,1.060055330757553 l 1.0600553307575533,-1.468438922013753 l -1.4684389220137528,-1.0600553307575535 Z" /></g></g></g><g fill="rgb(0,128,0)" fill-opacity="1.0" stroke-width="0.0"><g fill="rgb(0,128,0)" fill-opacity="1.0"><g fill="rgb(0,128,0)" fill-opacity="1.0"><path d="M 233.18282806854336,80.08554549003826 l 1.4010823932313556,1.1476054632710302 l 1.1476054632710304,-1.4010823932313554 l -1.4010823932313552,-1.1476054632710306 Z" /></g></g></g><g fill="rgb(0,128,0)" fill-opacity="1.0" stroke-width="0.0"><g fill="rgb(0,128,0)" fill-opacity="1.0"><g fill="rgb(0,128,0)" fill-opacity="1.0"><path d="M 231.3927728985347,82.05577041632428 l 1.3285137459227496,1.2308864280861669 l 1.230886428086167,-1.3285137459227494 l -1.3285137459227492,-1.2308864280861673 Z" /></g></g></g><g fill="rgb(0,128,0)" fill-opacity="1.0" stroke-width="0.0"><g fill="rgb(0,128,0)" fill-opacity="1.0"><g fill="rgb(0,128,0)" fill-opacity="1.0"><path d="M 229.48593455145945,83.91320178516601 l 1.2510029402222447,1.309588414543943 l 1.3095884145439431,-1.2510029402222445 l -1.2510029402222442,-1.3095884145439434 Z" /></g></g></g><g fill="rgb(0,128,0)" fill-opacity="1.0" stroke-width="0.0"><g fill="rgb(0,128,0)" fill-opacity="1.0"><g fill="rgb(0,128,0)" fill-opacity="1.0"><path d="M 227.46940659121037,85.65092982987476 l 1.1688383214179745,1.3834186460855695 l 1.3834186460855697,-1.1688383214179743 l -1.168838321417974,-1.38341864608557 Z" /></g></g></g><g fill="rgb(0,128,0)" fill-opacity="1.0" stroke-width="0.0"><g fill="rgb(0,128,0)" fill-opacity="1.0"><g fill="rgb(0,128,0)" fill-opacity="1.0"><path d="M 225.35069063424552,87.26249008798992 l 1.0823255472884812,1.4521024694005271 l 1.4521024694005273,-1.082325547288481 l -1.0823255472884807,-1.4521024694005276 Z" /></g></g></g><g fill="rgb(0,128,0)" fill-opacity="1.0" stroke-width="0.0"><g fill="rgb(0,128,0)" fill-opacity="1.0"><g fill="rgb(0,128,0)" fill-opacity="1.0"><path d="M 223.1376684430825,88.74188744950366 l 0.9917864510357021,1.5153843761549168 l 1.5153843761549168,-0.9917864510357018 l -0.9917864510357016,-1.5153843761549168 Z" /></g></g></g><g fill="rgb(0,128,0)" fill-opacity="1.0" stroke-width="0.0"><g fill="rgb(0,128,0)" fill-opacity="1.0"><g fill="rgb(0,128,0)" fill-opacity="1.0"><path d="M 220.83857260562428,90.08361845906404 l 0.8975578440443263,1.5730289534992419 l 1.5730289534992419,-0.897557844044326 l -0.8975578440443258,-1.5730289534992419 Z" /></g></g></g><g fill="rgb(0,128,0)" fill-opacity="1.0" stroke-width="0.0"><g fill="rgb(0,128,0)" fill-opacity="1.0"><g fill="rgb(0,128,0)" fill-opacity="1.0"><path d="M 218.46195590939126,91.2826917891903 l 0.7999902629213158,1.6248217598196744 l 1.6248217598196744,-0.7999902629213156 l -0.7999902629213154,-1.6248217598196744 Z" /></g></g></g><g fill="rgb(0,128,0)" fill-opacity="1.0" stroke-width="0.0"><g fill="rgb(0,128,0)" fill-opacity="1.0"><g fill="rgb(0,128,0)" fill-opacity="1.0"><path d="M 216.01665952459007,92.33464680833899 l 0.699446665476707,1.6705701224749396 l 1.6705701224749396,-0.6994466654767068 l -0.6994466654767065,-1.6705701224749396 Z" /></g></g></g><g fill="rgb(0,128,0)" fill-opacity="1.0" stroke-width="0.0"><g fill="rgb(0,128,0)" fill-opacity="1.0"><g fill="rgb(0,128,0)" fill-opacity="1.0"><path d="M 213.5117801143799,93.23557017474624 l 0.59630108049672,1.7101038545511975 l 1.7101038545511975,-0.5963010804967198 l -0.5963010804967196,-1.7101038545511975 Z" /></g></g></g><g fill="rgb(0,128,0)" fill-opacity="1.0" stroke-width="0.0"><g fill="rgb(0,128,0)" fill-opacity="1.0"><g fill="rgb(0,128,0)" fill-opacity="1.0"><path d="M 210.9566359946876,93.98211039431618 l 0.49093721633210374,1.7432758879685408 l 1.7432758879685408,-0.4909372163321036 l -0.4909372163321034,-1.7432758879685408 Z" /></g></g></g><g fill="rgb(0,128,0)" fill-opacity="1.0" stroke-width="0.0"><g fill="rgb(0,128,0)" fill-opacity="1.0"><g fill="rgb(0,128,0)" fill-opacity="1.0"><path d="M 208.36073246946086,94.5714902883991 l 0.3837470334778707,1.7699628205839106 l 1.7699628205839106,-0.3837470334778705 l -0.38374703347787026,-1.7699628205839106 Z" /></g></g></g><g fill="rgb(0,128,0)" fill-opacity="1.0" stroke-width="0.0"><g fill="rgb(0,128,0)" fill-opacity="1.0"><g fill="rgb(0,128,0)" fill-opacity="1.0"><path d="M 205.73372647031306,95.00151732507841 l 0.275129286454514,1.7900653752551745 l 1.7900653752551745,-0.2751292864545138 l -0.27512928645451357,-1.7900653752551745 Z" /></g></g></g><g fill="rgb(0,128,0)" fill-opacity="1.0" stroke-width="0.0"><g fill="rgb(0,128,0)" fill-opacity="1.0"><g fill="rgb(0,128,0)" fill-opacity="1.0"><path d="M 203.08539063210333,95.27059177553339 l 0.16548804041499665,1.8035087691586151 l 1.8035087691586151,-0.16548804041499646 l -0.16548804041499626,-1.8035087691586151 Z" /></g></g></g><g fill="rgb(0,128,0)" fill-opacity="1.0" stroke-width="0.0"><g fill="rgb(0,128,0)" fill-opacity="1.0"><g fill="rgb(0,128,0)" fill-opacity="1.0"><path d="M 200.42557693809306,95.37771266513546 l 5.523116799584506e-2,1.810242991985947 l 1.810242991985947,-5.5231167995844856e-2 l -5.5231167995844654e-2,-1.810242991985947 Z" /></g></g></g><g fill="rgb(0,128,0)" fill-opacity="1.0" stroke-width="0.0"><g fill="rgb(0,128,0)" fill-opacity="1.0"><g fill="rgb(0,128,0)" fill-opacity="1.0"><path d="M 197.76418006992108,95.3224814971396 l -5.5231167995845105e-2,1.810242991985947 l 1.810242991985947,5.523116799584531e-2 l 5.523116799584551e-2,-1.810242991985947 Z" /></g></g></g><g fill="rgb(0,128,0)" fill-opacity="1.0" stroke-width="0.0"><g fill="rgb(0,128,0)" fill-opacity="1.0"><g fill="rgb(0,128,0)" fill-opacity="1.0"><path d="M 195.11110059873815,95.10510373511839 l -0.16548804041499668,1.8035087691586151 l 1.8035087691586151,0.16548804041499687 l 0.16548804041499707,-1.8035087691586151 Z" /></g></g></g><g fill="rgb(0,128,0)" fill-opacity="1.0" stroke-width="0.0"><g fill="rgb(0,128,0)" fill-opacity="1.0"><g fill="rgb(0,128,0)" fill-opacity="1.0"><path d="M 192.47620815443187,94.7263880386239 l -0.275129286454514,1.7900653752551745 l 1.7900653752551745,0.27512928645451423 l 0.27512928645451445,-1.7900653752551745 Z" /></g></g></g><g fill="rgb(0,128,0)" fill-opacity="1.0" stroke-width="0.0"><g fill="rgb(0,128,0)" fill-opacity="1.0"><g fill="rgb(0,128,0)" fill-opacity="1.0"><path d="M 189.86930470995534,94.18774325492123 l -0.38374703347787065,1.7699628205839106 l 1.7699628205839106,0.38374703347787087 l 0.3837470334778711,-1.7699628205839106 Z" /></g></g></g><g fill="rgb(0,128,0)" fill-opacity="1.0" stroke-width="0.0"><g fill="rgb(0,128,0)" fill-opacity="1.0"><g fill="rgb(0,128,0)" fill-opacity="1.0"><path d="M 187.300088117344,93.49117317798408 l -0.4909372163321038,1.7432758879685406 l 1.7432758879685406,0.49093721633210397 l 0.49093721633210413,-1.7432758879685406 Z" /></g></g></g><g fill="rgb(0,128,0)" fill-opacity="1.0" stroke-width="0.0"><g fill="rgb(0,128,0)" fill-opacity="1.0"><g fill="rgb(0,128,0)" fill-opacity="1.0"><path d="M 184.77811603106903,92.63926909424953 l -0.59630108049672,1.7101038545511973 l 1.7101038545511973,0.5963010804967203 l 0.5963010804967205,-1.7101038545511973 Z" /></g></g></g><g fill="rgb(0,128,0)" fill-opacity="1.0" stroke-width="0.0"><g fill="rgb(0,128,0)" fill-opacity="1.0"><g fill="rgb(0,128,0)" fill-opacity="1.0"><path d="M 182.31277035293508,91.63520014286227 l -0.6994466654767078,1.670570122474939 l 1.670570122474939,0.699446665476708 l 0.6994466654767082,-1.670570122474939 Z" /></g></g></g><g fill="rgb(0,128,0)" fill-opacity="1.0" stroke-width="0.0"><g fill="rgb(0,128,0)" fill-opacity="1.0"><g fill="rgb(0,128,0)" fill-opacity="1.0"><path d="M 179.91322233078915,90.48270152626898 l -0.7999902629213165,1.6248217598196737 l 1.6248217598196737,0.7999902629213167 l 0.7999902629213169,-1.6248217598196737 Z" /></g></g></g><g fill="rgb(0,128,0)" fill-opacity="1.0" stroke-width="0.0"><g fill="rgb(0,128,0)" fill-opacity="1.0"><g fill="rgb(0,128,0)" fill-opacity="1.0"><path d="M 177.58839844087657,89.18606061501968 l -0.8975578440443268,1.5730289534992412 l 1.5730289534992412,0.897557844044327 l 0.8975578440443273,-1.5730289534992412 Z" /></g></g></g><g fill="rgb(0,128,0)" fill-opacity="1.0" stroke-width="0.0"><g fill="rgb(0,128,0)" fill-opacity="1.0"><g fill="rgb(0,128,0)" fill-opacity="1.0"><path d="M 175.34694718076267,87.75010099846794 l -0.9917864510357026,1.5153843761549162 l 1.5153843761549162,0.9917864510357028 l 0.9917864510357031,-1.5153843761549162 Z" /></g></g></g><g fill="rgb(0,128,0)" fill-opacity="1.0" stroke-width="0.0"><g fill="rgb(0,128,0)" fill-opacity="1.0"><g fill="rgb(0,128,0)" fill-opacity="1.0"><path d="M 173.19720689635406,86.1801645407014 l -1.0823255472884816,1.4521024694005267 l 1.4521024694005265,1.0823255472884818 l 1.082325547288482,-1.4521024694005262 Z" /></g></g></g><g fill="rgb(0,128,0)" fill-opacity="1.0" stroke-width="0.0"><g fill="rgb(0,128,0)" fill-opacity="1.0"><g fill="rgb(0,128,0)" fill-opacity="1.0"><path d="M 171.14717476270417,84.48209150845676 l -1.1688383214179752,1.383418646085569 l 1.3834186460855689,1.1688383214179754 l 1.1688383214179756,-1.3834186460855686 Z" /></g></g></g><g fill="rgb(0,128,0)" fill-opacity="1.0" stroke-width="0.0"><g fill="rgb(0,128,0)" fill-opacity="1.0"><g fill="rgb(0,128,0)" fill-opacity="1.0"><path d="M 169.20447703399668,82.66219884494373 l -1.2510029402222445,1.309588414543943 l 1.3095884145439427,1.2510029402222447 l 1.251002940222245,-1.3095884145439425 Z" /></g></g></g><g fill="rgb(0,128,0)" fill-opacity="1.0" stroke-width="0.0"><g fill="rgb(0,128,0)" fill-opacity="1.0"><g fill="rgb(0,128,0)" fill-opacity="1.0"><path d="M 167.37634067337922,80.72725667040154 l -1.328513745922749,1.2308864280861678 l 1.2308864280861675,1.3285137459227492 l 1.3285137459227494,-1.2308864280861673 Z" /></g></g></g><g fill="rgb(0,128,0)" fill-opacity="1.0" stroke-width="0.0"><g fill="rgb(0,128,0)" fill-opacity="1.0"><g fill="rgb(0,128,0)" fill-opacity="1.0"><path d="M 165.66956646818568,78.68446309680688 l -1.4010823932313554,1.1476054632710304 l 1.1476054632710302,1.4010823932313556 l 1.4010823932313559,-1.14760546327103 Z" /></g></g></g><g fill="rgb(0,128,0)" fill-opacity="1.0" stroke-width="0.0"><g fill="rgb(0,128,0)" fill-opacity="1.0"><g fill="rgb(0,128,0)" fill-opacity="1.0"><path d="M 164.09050373056067,76.54141745042466 l -1.4684389220137521,1.0600553307575542 l 1.060055330757554,1.4684389220137524 l 1.4684389220137526,-1.0600553307575538 Z" /></g></g></g><g fill="rgb(0,128,0)" fill-opacity="1.0" stroke-width="0.0"><g fill="rgb(0,128,0)" fill-opacity="1.0"><g fill="rgb(0,128,0)" fill-opacity="1.0"><path d="M 162.6450266776013,74.30609200181509 l -1.5303327615588784,0.9685617227890004 l 0.9685617227890002,1.5303327615588784 l 1.5303327615588784,-0.968561722789 Z" /></g></g></g><g fill="rgb(0,128,0)" fill-opacity="1.0" stroke-width="0.0"><g fill="rgb(0,128,0)" fill-opacity="1.0"><g fill="rgb(0,128,0)" fill-opacity="1.0"><path d="M 161.3385125788838,71.98680230846367 l -1.586533662718424,0.8734650015963324 l 0.8734650015963322,1.586533662718424 l 1.586533662718424,-0.873465001596332 Z" /></g></g></g><g fill="rgb(0,128,0)" fill-opacity="1.0" stroke-width="0.0"><g fill="rgb(0,128,0)" fill-opacity="1.0"><g fill="rgb(0,128,0)" fill-opacity="1.0"><path d="M 160.17582175266756,69.59217628036107 l -1.6368325544487898,0.7751189332283587 l 0.7751189332283585,1.6368325544487898 l 1.6368325544487898,-0.7751189332283582 Z" /></g></g></g><g fill="rgb(0,128,0)" fill-opacity="1.0" stroke-width="0.0"><g fill="rgb(0,128,0)" fill-opacity="1.0"><g fill="rgb(0,128,0)" fill-opacity="1.0"><path d="M 159.1612794851919,67.13112208361143 l -1.6810423215690962,0.6738893715187997 l 0.6738893715187995,1.6810423215690962 l 1.6810423215690962,-0.6738893715187992 Z" /></g></g></g><g fill="rgb(0,128,0)" fill-opacity="1.0" stroke-width="0.0"><g fill="rgb(0,128,0)" fill-opacity="1.0"><g fill="rgb(0,128,0)" fill-opacity="1.0"><path d="M 158.29865994032716,64.6127950014692 l -1.7189985008419488,0.5701528970859937 l 0.5701528970859935,1.7189985008419488 l 1.7189985008419488,-0.5701528970859933 Z" /></g></g></g><g fill="rgb(0,128,0)" fill-opacity="1.0" stroke-width="0.0"><g fill="rgb(0,128,0)" fill-opacity="1.0"><g fill="rgb(0,128,0)" fill-opacity="1.0"><path d="M 157.5911721194373,62.04656337608419 l -1.7505598927874828,0.46429541642826444 l 0.4642954164282642,1.7505598927874828 l 1.7505598927874828,-0.464295416428264 Z" /></g></g></g><g fill="rgb(0,128,0)" fill-opacity="1.0" stroke-width="0.0"><g fill="rgb(0,128,0)" fill-opacity="1.0"><g fill="rgb(0,128,0)" fill-opacity="1.0"><path d="M 157.0414479236839,59.441973757653486 l -1.775609086954702,0.3567107263264006 l 0.3567107263264004,1.775609086954702 l 1.775609086954702,-0.35671072632640016 Z" /></g></g></g><g fill="rgb(0,128,0)" fill-opacity="1.0" stroke-width="0.0"><g fill="rgb(0,128,0)" fill-opacity="1.0"><g fill="rgb(0,128,0)" fill-opacity="1.0"><path d="M 156.65153236318125,56.808715390627654 l -1.794052898696068,0.24779904889376664 l 0.24779904889376644,1.794052898696068 l 1.794052898696068,-0.24779904889376625 Z" /></g></g></g><g fill="rgb(0,128,0)" fill-opacity="1.0" stroke-width="0.0"><g fill="rgb(0,128,0)" fill-opacity="1.0"><g fill="rgb(0,128,0)" fill-opacity="1.0"><path d="M 156.4228759494241,54.15658416908498 l -1.8058227158205091,0.13796554272375336 l 0.13796554272375317,1.8058227158205091 l 1.8058227158205091,-0.13796554272375297 Z" /></g></g></g><g fill="rgb(0,128,0)" fill-opacity="1.0" stroke-width="0.0"><g fill="rgb(0,128,0)" fill-opacity="1.0"><g fill="rgb(0,128,0)" fill-opacity="1.0"><path d="M 156.35632929928988,51.49544619536215 l -1.8108747538352787,2.7618795673201562e-2 l 2.761879567320136e-2,1.8108747538352787 l 1.8108747538352787,-2.761879567320116e-2 Z" /></g></g></g><g fill="rgb(0,128,0)" fill-opacity="1.0" stroke-width="0.0"><g fill="rgb(0,128,0)" fill-opacity="1.0"><g fill="rgb(0,128,0)" fill-opacity="1.0"><path d="M 156.45213997068782,48.83520107750553 l -1.8091902188271425,-8.283069511126291e-2 l -8.28306951112631e-2,1.8091902188271425 l 1.8091902188271425,8.28306951112633e-2 Z" /></g></g></g><g fill="rgb(0,128,0)" fill-opacity="1.0" stroke-width="0.0"><g fill="rgb(0,128,0)" fill-opacity="1.0"><g fill="rgb(0,128,0)" fill-opacity="1.0"><path d="M 156.70995154162753,46.185745102079025 l -1.8007753773769717,-0.19297205026957542 l -0.19297205026957562,1.8007753773769717 l 1.8007753773769717,0.1929720502695758 Z" /></g></g></g><g fill="rgb(0,128,0)" fill-opacity="1.0" stroke-width="0.0"><g fill="rgb(0,128,0)" fill-opacity="1.0"><g fill="rgb(0,128,0)" fill-opacity="1.0"><path d="M 157.12880493613196,43.55693441932801 l -1.7856615332476495,-0.30239553672644026 l -0.3023955367264405,1.7856615332476495 l 1.7856615332476495,0.3023955367264407 Z" /></g></g></g><g fill="rgb(0,128,0)" fill-opacity="1.0" stroke-width="0.0"><g fill="rgb(0,128,0)" fill-opacity="1.0"><g fill="rgb(0,128,0)" fill-opacity="1.0"><path d="M 157.70714199206316,40.95854837765319 l -1.7639049109320173,-0.4106940919252801 l -0.41069409192528034,1.7639049109320173 l 1.7639049109320173,0.41069409192528056 Z" /></g></g></g><g fill="rgb(0,128,0)" fill-opacity="1.0" stroke-width="0.0"><g fill="rgb(0,128,0)" fill-opacity="1.0"><g fill="rgb(0,128,0)" fill-opacity="1.0"><path d="M 158.44281125758778,38.40025314379214 l -1.7355864464940693,-0.517464838127682 l -0.5174648381276822,1.7355864464940693 l 1.7355864464940693,0.5174648381276824 Z" /></g></g></g><g fill="rgb(0,128,0)" fill-opacity="1.0" stroke-width="0.0"><g fill="rgb(0,128,0)" fill-opacity="1.0"><g fill="rgb(0,128,0)" fill-opacity="1.0"><path d="M 159.33307599471914,35.8915657440442 l -1.7008114864814767,-0.6223105811450488 l -0.622310581145049,1.7008114864814767 l 1.7008114864814767,0.6223105811450492 Z" /></g></g></g><g fill="rgb(0,128,0)" fill-opacity="1.0" stroke-width="0.0"><g fill="rgb(0,128,0)" fill-opacity="1.0"><g fill="rgb(0,128,0)" fill-opacity="1.0"><path d="M 160.3746243601624,33.44181866030755 l -1.6597093960295135,-0.724841287927065 l -0.7248412879270653,1.6597093960295135 l 1.6597093960295135,0.7248412879270655 Z" /></g></g></g><g fill="rgb(0,128,0)" fill-opacity="1.0" stroke-width="0.0"><g fill="rgb(0,128,0)" fill-opacity="1.0"><g fill="rgb(0,128,0)" fill-opacity="1.0"><path d="M 161.5635817255889,31.060125112633592 l -1.6124330776142553,-0.8246755375102623 l -0.8246755375102626,1.6124330776142553 l 1.6124330776142553,0.8246755375102628 Z" /></g></g></g><g fill="rgb(0,128,0)" fill-opacity="1.0" stroke-width="0.0"><g fill="rgb(0,128,0)" fill-opacity="1.0"><g fill="rgb(0,128,0)" fill-opacity="1.0"><path d="M 162.89552509150832,28.755345157449817 l -1.5591584022453246,-0.9214419399290575 l -0.9214419399290578,1.5591584022453246 l 1.5591584022453246,0.921441939929058 Z" /></g></g></g><g fill="rgb(0,128,0)" fill-opacity="1.0" stroke-width="0.0"><g fill="rgb(0,128,0)" fill-opacity="1.0"><g fill="rgb(0,128,0)" fill-opacity="1.0"><path d="M 164.36549954111715,26.53605272756794 l -1.5000835552141867,-1.0147805178108147 l -1.014780517810815,1.5000835552141865 l 1.5000835552141862,1.0147805178108151 Z" /></g></g></g><g fill="rgb(0,128,0)" fill-opacity="1.0" stroke-width="0.0"><g fill="rgb(0,128,0)" fill-opacity="1.0"><g fill="rgb(0,128,0)" fill-opacity="1.0"><path d="M 165.96803667291456,24.410503736590734 l -1.4354282988318456,-1.1043440455153153 l -1.1043440455153155,1.4354282988318454 l 1.4354282988318452,1.1043440455153157 Z" /></g></g></g><g fill="rgb(0,128,0)" fill-opacity="1.0" stroke-width="0.0"><g fill="rgb(0,128,0)" fill-opacity="1.0"><g fill="rgb(0,128,0)" fill-opacity="1.0"><path d="M 167.69717494351528,22.386605366371132 l -1.3654331548986147,-1.1897993408369476 l -1.1897993408369478,1.3654331548986145 l 1.3654331548986143,1.189799340836948 Z" /></g></g></g><g fill="rgb(0,128,0)" fill-opacity="1.0" stroke-width="0.0"><g fill="rgb(0,128,0)" fill-opacity="1.0"><g fill="rgb(0,128,0)" fill-opacity="1.0"><path d="M 169.54648184498257,20.471886651776433 l -1.2903585099472212,-1.2708285044643932 l -1.2708285044643934,1.290358509947221 l 1.2903585099472208,1.2708285044643937 Z" /></g></g></g><g fill="rgb(0,128,0)" fill-opacity="1.0" stroke-width="0.0"><g fill="rgb(0,128,0)" fill-opacity="1.0"><g fill="rgb(0,128,0)" fill-opacity="1.0"><path d="M 171.50907783418003,18.673470472184057 l -1.2104836465878033,-1.3471301025869449 l -1.347130102586945,1.210483646587803 l 1.2104836465878028,1.3471301025869453 Z" /></g></g></g><g fill="rgb(0,128,0)" fill-opacity="1.0" stroke-width="0.0"><g fill="rgb(0,128,0)" fill-opacity="1.0"><g fill="rgb(0,128,0)" fill-opacity="1.0"><path d="M 173.5776619251242,16.998047053902425 l -1.1261057045582556,-1.4184202882480825 l -1.4184202882480828,1.1261057045582554 l 1.1261057045582552,1.418420288248083 Z" /></g></g></g><g fill="rgb(0,128,0)" fill-opacity="1.0" stroke-width="0.0"><g fill="rgb(0,128,0)" fill-opacity="1.0"><g fill="rgb(0,128,0)" fill-opacity="1.0"><path d="M 175.74453884913166,15.451849082089746 l -1.0375385753448896,-1.4844338572747913 l -1.4844338572747915,1.0375385753448894 l 1.0375385753448891,1.4844338572747917 Z" /></g></g></g><g fill="rgb(0,128,0)" fill-opacity="1.0" stroke-width="0.0"><g fill="rgb(0,128,0)" fill-opacity="1.0"><g fill="rgb(0,128,0)" fill-opacity="1.0"><path d="M 178.0016476817242,14.040628514755758 l -0.9451117344854869,-1.544925234854507 l -1.544925234854507,0.9451117344854867 l 0.9451117344854865,1.544925234854507 Z" /></g></g></g><g fill="rgb(0,128,0)" fill-opacity="1.0" stroke-width="0.0"><g fill="rgb(0,128,0)" fill-opacity="1.0"><g fill="rgb(0,128,0)" fill-opacity="1.0"><path d="M 180.34059182979715,12.7696351851002 l -0.8491690158986583,-1.5996693890895466 l -1.5996693890895466,0.8491690158986581 l 0.8491690158986579,1.5996693890895466 Z" /></g></g></g><g fill="rgb(0,128,0)" fill-opacity="1.0" stroke-width="0.0"><g fill="rgb(0,128,0)" fill-opacity="1.0"><g fill="rgb(0,128,0)" fill-opacity="1.0"><path d="M 182.75267026749736,11.64359727178851 l -0.7500673327990858,-1.6484626681305479 l -1.6484626681305479,0.7500673327990856 l 0.7500673327990853,1.6484626681305479 Z" /></g></g></g><g fill="rgb(0,128,0)" fill-opacity="1.0" stroke-width="0.0"><g fill="rgb(0,128,0)" fill-opacity="1.0"><g fill="rgb(0,128,0)" fill-opacity="1.0"><path d="M 185.2289099046108,10.66670370981662 l -0.648175349956919,-1.6911235577747254 l -1.6911235577747254,0.6481753499569187 l 0.6481753499569185,1.6911235577747254 Z" /></g></g></g><g fill="rgb(0,128,0)" fill-opacity="1.0" stroke-width="0.0"><g fill="rgb(0,128,0)" fill-opacity="1.0"><g fill="rgb(0,128,0)" fill-opacity="1.0"><path d="M 187.76009896704738,9.842588607397639 l -0.5438721122406177,-1.7274933567106265 l -1.7274933567106265,0.5438721122406175 l 0.5438721122406173,1.7274933567106265 Z" /></g></g></g><g fill="rgb(0,128,0)" fill-opacity="1.0" stroke-width="0.0"><g fill="rgb(0,128,0)" fill-opacity="1.0"><g fill="rgb(0,128,0)" fill-opacity="1.0"><path d="M 190.33682126524587,9.174317726840624 l -0.43754563454514556,-1.7574367668974338 l -1.7574367668974338,0.43754563454514533 l 0.4375456345451451,1.7574367668974338 Z" /></g></g></g><g fill="rgb(0,128,0)" fill-opacity="1.0" stroke-width="0.0"><g fill="rgb(0,128,0)" fill-opacity="1.0"><g fill="rgb(0,128,0)" fill-opacity="1.0"><path d="M 192.94949122301728,8.664377079713411 l -0.32959145835107534,-1.7808423968825626 l -1.7808423968825626,0.3295914583510751 l 0.3295914583510749,1.7808423968825626 Z" /></g></g></g><g fill="rgb(0,128,0)" fill-opacity="1.0" stroke-width="0.0"><g fill="rgb(0,128,0)" fill-opacity="1.0"><g fill="rgb(0,128,0)" fill-opacity="1.0"><path d="M 195.58838953651795,8.314663678716348 l -0.22041118028430204,-1.7976231761851813 l -1.7976231761851813,0.22041118028430184 l 0.22041118028430165,1.7976231761851813 Z" /></g></g></g><g fill="rgb(0,128,0)" fill-opacity="1.0" stroke-width="0.0"><g fill="rgb(0,128,0)" fill-opacity="1.0"><g fill="rgb(0,128,0)" fill-opacity="1.0"><path d="M 198.24369933069832,8.126478480670354 l -0.11041095815021812,-1.8077166792041195 l -1.8077166792041195,0.11041095815021792 l 0.11041095815021773,1.8077166792041195 Z" /></g></g></g><g fill="rgb(0,128,0)" fill-opacity="1.0" stroke-width="0.0"><g fill="rgb(0,128,0)" fill-opacity="1.0"><g fill="rgb(0,128,0)" fill-opacity="1.0"><path d="M 200.90554267872267,8.100521546872242 l -2.010708663397146e-16,-1.811085357445203 h -1.811085357445203 l -2.010708663397146e-16,1.811085357445203 Z" /></g></g></g></g><g><g fill="rgb(89,89,255)" fill-opacity="1.0" stroke-width="0.0"><g fill="rgb(89,89,255)" fill-opacity="1.0"><g fill="rgb(89,89,255)" fill-opacity="1.0"><path d="M 95.82491551091655,41.27676247827894 l -32.188551874552914,-23.38635185176936 l -32.18855187455291,23.38635185176937 l 12.29493276744007,37.839912169026874 l 39.78723821422568,-1.4724235983893085e-15 Z" /></g></g></g><g fill="rgb(0,0,0)" fill-opacity="1.0"><g fill="rgb(0,0,0)" fill-opacity="1.0"><g fill="rgb(0,0,0)" fill-opacity="1.0"><path d="M 99.9232264333966,53.890066534621255 c 6.966135475296738,-2.263434622550687 10.778427756412963,-9.74547950352558 8.514993133862276 -16.711614978822315c -2.2634346225506867,-6.966135475296738 -9.74547950352558,-10.778427756412963 -16.711614978822315 -8.514993133862276c -6.966135475296738,2.2634346225506863 -10.778427756412963,9.745479503525578 -8.514993133862276 16.711614978822315c 2.263434622550686,6.966135475296738 9.745479503525578,10.778427756412963 16.711614978822315 8.514993133862276Z" /></g></g></g><g fill="rgb(0,0,0)" fill-opacity="1.0"><g fill="rgb(0,0,0)" fill-opacity="1.0"><g fill="rgb(0,0,0)" fill-opacity="1.0"><path d="M 72.80046545195886,86.91212526456229 c 4.305308493969786,5.925748773150993 12.599219135623102,7.239375168230971 18.524967908774094 2.934066674261185c 5.925748773150993,-4.305308493969786 7.239375168230971,-12.599219135623102 2.934066674261186 -18.524967908774094c -4.305308493969785,-5.9257487731509935 -12.599219135623102,-7.239375168230971 -18.52496790877409 -2.934066674261187c -5.9257487731509935,4.305308493969785 -7.239375168230972,12.599219135623102 -2.9340666742611887 18.524967908774094Z" /></g></g></g><g fill="rgb(0,0,0)" fill-opacity="1.0"><g fill="rgb(0,0,0)" fill-opacity="1.0"><g fill="rgb(0,0,0)" fill-opacity="1.0"><path d="M 33.013227237733176,71.32122403004936 c -4.305308493969788,5.925748773150992 -2.9916820988898136,14.219659414804308 2.934066674261177 18.524967908774094c 5.925748773150992,4.305308493969788 14.219659414804308,2.9916820988898145 18.524967908774094 -2.9340666742611754c 4.305308493969789,-5.925748773150991 2.9916820988898145,-14.219659414804308 -2.9340666742611736 -18.524967908774094c -5.925748773150991,-4.305308493969789 -14.219659414804307,-2.9916820988898154 -18.524967908774098 2.9340666742611745Z" /></g></g></g><g fill="rgb(0,0,0)" fill-opacity="1.0"><g fill="rgb(0,0,0)" fill-opacity="1.0"><g fill="rgb(0,0,0)" fill-opacity="1.0"><path d="M 35.54612268429077,28.663458421936653 c -6.966135475296737,-2.2634346225506885 -14.448180356271632,1.5488576585655327 -16.71161497882232 8.514993133862268c -2.263434622550689,6.966135475296737 1.5488576585655318,14.448180356271632 8.514993133862268 16.71161497882232c 6.966135475296737,2.2634346225506894 14.44818035627163,-1.548857658565531 16.71161497882232 -8.514993133862266c 2.26343462255069,-6.966135475296737 -1.548857658565531,-14.44818035627163 -8.514993133862268 -16.711614978822322Z" /></g></g></g><g fill="rgb(0,0,0)" fill-opacity="1.0"><g fill="rgb(0,0,0)" fill-opacity="1.0"><g fill="rgb(0,0,0)" fill-opacity="1.0"><path d="M 76.89877637443888,17.890410626509578 c 0.0,-7.324628301200606 -5.9377844368746215,-13.262412738075229 -13.262412738075225 -13.262412738075229c -7.324628301200606,-4.485041302004719e-16 -13.262412738075229,5.937784436874621 -13.262412738075229 13.262412738075225c -8.970082604009438e-16,7.324628301200606 5.93778443687462,13.262412738075229 13.262412738075223 13.262412738075229c 7.324628301200606,1.3455123906014155e-15 13.262412738075229,-5.937784436874619 13.26241273807523 -13.262412738075225Z" /></g></g></g></g></g></g></g></g></svg>