<?xml version="1.0" encoding="UTF-8"?>
<!DOCTYPE svg PUBLIC "-//W3C//DTD SVG 1.1//EN"
    "http://www.w3.org/Graphics/SVG/1.1/DTD/svg11.dtd">
<svg xmlns="http://www.w3.org/2000/svg" xmlns:xlink="http://www.w3.org/1999/xlink" version="1.1" width="88.71119695091166" height="200.0" font-size="1" viewBox="0 0 89 200"><g><g fill="rgb(0,0,0)" fill-opacity="0.0"><g stroke="rgb(0,0,0)" stroke-opacity="1.0" stroke-width="0.5327999908435785" stroke-linecap="butt" stroke-linejoin="miter" font-size="3.27066542773286em" stroke-miterlimit="10.0"><g><g fill="rgb(89,89,255)" fill-opacity="1.0" stroke-width="0.0"><g fill="rgb(89,89,255)" fill-opacity="1.0"><g fill="rgb(89,89,255)" fill-opacity="1.0"><path d="M 76.10788544286169,163.8479514458178 l -31.752286967405883,23.069386843250737 l -31.752286967405876,-23.06938684325074 l 12.128294401008723,-37.32705201199934 h 39.24798513279432 Z" /></g></g></g><g><g fill="rgb(148,148,148)" fill-opacity="1.0" stroke-width="0.0"><g fill="rgb(148,148,148)" fill-opacity="1.0"><g fill="rgb(148,148,148)" fill-opacity="1.0"><path d="M 79.13995904311389,154.51618844281796 l 6.565507022567528,7.291734265462452 l -3.032073600252185,9.331763002999836 l -9.59758062281971,2.040028737537385 l -6.565507022567527,-7.291734265462448 l 3.0320736002521786,-9.331763002999834 Z" /></g></g></g><g fill="rgb(0,0,0)" fill-opacity="1.0" stroke-width="0.0"><g fill="rgb(0,0,0)" fill-opacity="1.0"><g fill="rgb(0,0,0)" fill-opacity="1.0"><path d="M 81.2111173674683,154.8518663347628 c 1.3423712115445179,-1.2086764678236752 3.410403961519651,-1.1002954639128781 4.619080429343326 0.24207574763163953c 1.2086764678236752,1.3423712115445179 1.1002954639128784,3.410403961519651 -0.24207574763163908 4.619080429343326c -1.3423712115445177,1.2086764678236754 -3.4104039615196506,1.1002954639128784 -4.619080429343326 -0.24207574763163908c -1.2086764678236754,-1.3423712115445177 -1.1002954639128786,-3.4104039615196506 0.24207574763163908 -4.6190804293433265Z" /></g></g></g><g fill="rgb(0,0,0)" fill-opacity="1.0" stroke-width="0.0"><g fill="rgb(0,0,0)" fill-opacity="1.0"><g fill="rgb(0,0,0)" fill-opacity="1.0"><path d="M 70.8686631643844,154.93038040217724 c -0.3755589203194897,-1.7668658044182846 0.7523181573424867,-3.5036441997995444 2.5191839617607705 -3.8792031201190342c 1.7668658044182846,-0.3755589203194898 3.5036441997995444,0.7523181573424865 3.879203120119034 2.5191839617607705c 0.3755589203194899,1.7668658044182846 -0.7523181573424863,3.5036441997995444 -2.51918396176077 3.879203120119034c -1.7668658044182846,0.37555892031949 -3.5036441997995444,-0.7523181573424861 -3.879203120119034 -2.51918396176077Z" /></g></g></g><g fill="rgb(0,0,0)" fill-opacity="1.0" stroke-width="0.0"><g fill="rgb(0,0,0)" fill-opacity="1.0"><g fill="rgb(0,0,0)" fill-opacity="1.0"><path d="M 65.76543123977781,163.92646551323224 c -1.7179301318640063,-0.558189336594609 -2.6580858041771624,-2.4033487358866648 -2.0998964675825533 -4.121278867750671c 0.5581893365946089,-1.7179301318640063 2.4033487358866648,-2.6580858041771624 4.121278867750671 -2.0998964675825538c 1.7179301318640063,0.5581893365946088 2.6580858041771624,2.4033487358866648 2.0998964675825538 4.12127886775067c -0.5581893365946087,1.7179301318640063 -2.4033487358866643,2.6580858041771624 -4.1212788677506715 2.099896467582555Z" /></g></g></g><g fill="rgb(0,0,0)" fill-opacity="1.0" stroke-width="0.0"><g fill="rgb(0,0,0)" fill-opacity="1.0"><g fill="rgb(0,0,0)" fill-opacity="1.0"><path d="M 71.0046535182551,172.84403655687285 c -1.342371211544517,1.2086764678236754 -3.4104039615196498,1.1002954639128792 -4.619080429343326 -0.24207574763163775c -1.2086764678236754,-1.342371211544517 -1.1002954639128792,-3.4104039615196498 0.2420757476316373 -4.619080429343325c 1.3423712115445168,-1.2086764678236757 3.4104039615196498,-1.1002954639128795 4.619080429343325 0.2420757476316373c 1.2086764678236757,1.3423712115445168 1.1002954639128797,3.4104039615196493 -0.24207574763163642 4.619080429343325Z" /></g></g></g><g fill="rgb(0,0,0)" fill-opacity="1.0" stroke-width="0.0"><g fill="rgb(0,0,0)" fill-opacity="1.0"><g fill="rgb(0,0,0)" fill-opacity="1.0"><path d="M 81.34710772133899,172.7655224894584 c 0.37555892031948906,1.7668658044182848 -0.7523181573424881,3.5036441997995444 -2.5191839617607723 3.8792031201190333c -1.7668658044182848,0.3755589203194892 -3.5036441997995444,-0.7523181573424879 -3.8792031201190333 -2.5191839617607723c -0.3755589203194893,-1.7668658044182848 0.7523181573424876,-3.5036441997995444 2.519183961760772 -3.8792031201190333c 1.7668658044182848,-0.3755589203194894 3.5036441997995444,0.7523181573424874 3.879203120119034 2.5191839617607723Z" /></g></g></g><g fill="rgb(0,0,0)" fill-opacity="1.0" stroke-width="0.0"><g fill="rgb(0,0,0)" fill-opacity="1.0"><g fill="rgb(0,0,0)" fill-opacity="1.0"><path d="M 86.45033964594559,163.76943737840338 c 1.7179301318640063,0.5581893365946092 2.658085804177162,2.403348735886665 2.0998964675825533 4.1212788677506715c -0.5581893365946091,1.7179301318640063 -2.403348735886665,2.6580858041771624 -4.1212788677506715 2.0998964675825533c -1.7179301318640063,-0.558189336594609 -2.6580858041771624,-2.4033487358866648 -2.0998964675825533 -4.121278867750671c 0.5581893365946089,-1.7179301318640063 2.4033487358866648,-2.6580858041771624 4.1212788677506715 -2.099896467582554Z" /></g></g></g></g><g><g fill="rgb(148,148,148)" fill-opacity="1.0" stroke-width="0.0"><g fill="rgb(148,148,148)" fill-opacity="1.0"><g fill="rgb(148,148,148)" fill-opacity="1.0"><path d="M 56.041519300001504,120.75355272300578 l 8.963704634922147,-3.9908984301004153 l 7.938071741851468,5.76734671081269 l -1.0256328930706773,9.758245140913104 l -8.963704634922145,3.9908984301004162 l -7.938071741851469,-5.767346710812684 Z" /></g></g></g><g fill="rgb(0,0,0)" fill-opacity="1.0" stroke-width="0.0"><g fill="rgb(0,0,0)" fill-opacity="1.0"><g fill="rgb(0,0,0)" fill-opacity="1.0"><path d="M 57.0007910667785,118.88749427559645 c -0.7347041136893719,-1.6501724572850336 7.429610988874957e-3,-3.5834969079848156 1.6576020682739085 -4.318201021674188c 1.6501724572850336,-0.734704113689372 3.5834969079848156,7.429610988874957e-3 4.318201021674188 1.657602068273908c 0.7347041136893722,1.6501724572850336 -7.429610988874735e-3,3.5834969079848156 -1.6576020682739077 4.318201021674187c -1.6501724572850334,0.7347041136893723 -3.5834969079848156,-7.429610988874513e-3 -4.318201021674188 -1.6576020682739072Z" /></g></g></g><g fill="rgb(0,0,0)" fill-opacity="1.0" stroke-width="0.0"><g fill="rgb(0,0,0)" fill-opacity="1.0"><g fill="rgb(0,0,0)" fill-opacity="1.0"><path d="M 53.87946826991631,128.74801492105217 c -1.7964433254789167,-0.1888138019225891 -3.099684551203401,-1.7981826858490075 -2.910870749280812 -3.594626011327924c 0.18881380192258898,-1.7964433254789167 1.7981826858490075,-3.0996845512034015 3.594626011327924 -2.910870749280812c 1.7964433254789167,0.18881380192258887 3.0996845512034015,1.7981826858490073 2.910870749280812 3.5946260113279234c -0.18881380192258876,1.7964433254789167 -1.798182685849007,3.0996845512034015 -3.594626011327924 2.9108707492808126Z" /></g></g></g><g fill="rgb(0,0,0)" fill-opacity="1.0" stroke-width="0.0"><g fill="rgb(0,0,0)" fill-opacity="1.0"><g fill="rgb(0,0,0)" fill-opacity="1.0"><path d="M 60.85826824499078,136.38142007927416 c -1.0617392117895443,1.4613586553624438 -3.107114162192275,1.7853142221358071 -4.568472817554719 0.7235750103462633c -1.4613586553624438,-1.0617392117895443 -1.7853142221358074,-3.107114162192275 -0.7235750103462635 -4.568472817554718c 1.0617392117895441,-1.461358655362444 3.1071141621922744,-1.7853142221358076 4.568472817554717 -0.7235750103462637c 1.461358655362444,1.0617392117895441 1.7853142221358076,3.1071141621922744 0.7235750103462655 4.568472817554719Z" /></g></g></g><g fill="rgb(0,0,0)" fill-opacity="1.0" stroke-width="0.0"><g fill="rgb(0,0,0)" fill-opacity="1.0"><g fill="rgb(0,0,0)" fill-opacity="1.0"><path d="M 70.95839101692744,134.1543045920405 c 0.7347041136893727,1.6501724572850334 -7.429610988873403e-3,3.583496907984816 -1.6576020682739068 4.318201021674189c -1.6501724572850334,0.7347041136893728 -3.583496907984816,-7.429610988873403e-3 -4.318201021674188 -1.6576020682739063c -0.7347041136893729,-1.6501724572850334 7.429610988873181e-3,-3.5834969079848156 1.6576020682739059 -4.318201021674188c 1.6501724572850331,-0.734704113689373 3.5834969079848156,7.429610988872959e-3 4.318201021674188 1.6576020682739054Z" /></g></g></g><g fill="rgb(0,0,0)" fill-opacity="1.0" stroke-width="0.0"><g fill="rgb(0,0,0)" fill-opacity="1.0"><g fill="rgb(0,0,0)" fill-opacity="1.0"><path d="M 74.07971381378964,124.29378394658478 c 1.7964433254789167,0.18881380192258984 3.0996845512034006,1.7981826858490089 2.910870749280811 3.594626011327925c -0.18881380192258973,1.7964433254789167 -1.7981826858490089,3.0996845512034006 -3.594626011327925 2.910870749280811c -1.7964433254789167,-0.18881380192258962 -3.0996845512034006,-1.7981826858490086 -2.910870749280811 -3.5946260113279247c 0.1888138019225895,-1.7964433254789167 1.7981826858490084,-3.0996845512034006 3.594626011327925 -2.9108707492808112Z" /></g></g></g><g fill="rgb(0,0,0)" fill-opacity="1.0" stroke-width="0.0"><g fill="rgb(0,0,0)" fill-opacity="1.0"><g fill="rgb(0,0,0)" fill-opacity="1.0"><path d="M 67.10091383871517,116.66037878836276 c 1.0617392117895443,-1.4613586553624436 3.107114162192275,-1.7853142221358067 4.568472817554718 -0.7235750103462626c 1.4613586553624436,1.0617392117895443 1.7853142221358067,3.107114162192275 0.7235750103462628 4.568472817554718c -1.0617392117895441,1.4613586553624438 -3.107114162192275,1.785314222135807 -4.568472817554717 0.723575010346263c -1.4613586553624438,-1.0617392117895441 -1.7853142221358071,-3.1071141621922744 -0.7235750103462637 -4.568472817554718Z" /></g></g></g></g><g><g fill="rgb(148,148,148)" fill-opacity="1.0" stroke-width="0.0"><g fill="rgb(148,148,148)" fill-opacity="1.0"><g fill="rgb(148,148,148)" fill-opacity="1.0"><path d="M 16.793534167207177,132.28824614463116 l -1.0256328930706715,-9.758245140913106 l 7.9380717418514735,-5.7673467108126815 l 8.963704634922143,3.990898430100422 l 1.0256328930706728,9.758245140913102 l -7.938071741851467,5.767346710812684 Z" /></g></g></g><g fill="rgb(0,0,0)" fill-opacity="1.0" stroke-width="0.0"><g fill="rgb(0,0,0)" fill-opacity="1.0"><g fill="rgb(0,0,0)" fill-opacity="1.0"><path d="M 15.315238399169104,130.79928070719353 c -1.7964433254789165,0.1888138019225903 -3.4058122094053362,-1.1144274238018927 -3.5946260113279265 -2.9108707492808086c -0.18881380192259042,-1.7964433254789165 1.1144274238018925,-3.4058122094053362 2.9108707492808086 -3.5946260113279265c 1.7964433254789165,-0.18881380192259054 3.4058122094053362,1.1144274238018923 3.5946260113279265 2.910870749280808c 0.18881380192259065,1.7964433254789165 -1.114427423801892,3.4058122094053362 -2.9108707492808086 3.594626011327927Z" /></g></g></g><g fill="rgb(0,0,0)" fill-opacity="1.0" stroke-width="0.0"><g fill="rgb(0,0,0)" fill-opacity="1.0"><g fill="rgb(0,0,0)" fill-opacity="1.0"><path d="M 23.728609023932286,136.81490354544076 c -0.734704113689371,1.650172457285034 -2.668028564389153,2.3923061819632827 -4.318201021674186 1.6576020682739119c -1.650172457285034,-0.7347041136893709 -2.392306181963283,-2.6680285643891524 -1.657602068273912 -4.318201021674186c 0.7347041136893708,-1.650172457285034 2.6680285643891524,-2.392306181963283 4.318201021674186 -1.6576020682739123c 1.6501724572850343,0.7347041136893707 2.392306181963283,2.668028564389152 1.6576020682739117 4.318201021674187Z" /></g></g></g><g fill="rgb(0,0,0)" fill-opacity="1.0" stroke-width="0.0"><g fill="rgb(0,0,0)" fill-opacity="1.0"><g fill="rgb(0,0,0)" fill-opacity="1.0"><path d="M 33.144976533821826,132.53652227206572 c 1.0617392117895448,1.4613586553624431 0.737783645016183,3.5067336057651737 -0.7235750103462599 4.568472817554718c -1.4613586553624431,1.0617392117895448 -3.5067336057651737,0.7377836450161832 -4.568472817554718 -0.7235750103462595c -1.061739211789545,-1.461358655362443 -0.7377836450161832,-3.5067336057651732 0.723575010346259 -4.568472817554718c 1.461358655362443,-1.061739211789545 3.5067336057651732,-0.7377836450161834 4.568472817554719 0.7235750103462593Z" /></g></g></g><g fill="rgb(0,0,0)" fill-opacity="1.0" stroke-width="0.0"><g fill="rgb(0,0,0)" fill-opacity="1.0"><g fill="rgb(0,0,0)" fill-opacity="1.0"><path d="M 34.1479734189482,122.24251816044342 c 1.7964433254789165,-0.18881380192259092 3.4058122094053367,1.1144274238018916 3.5946260113279274 2.9108707492808072c 0.18881380192259103,1.7964433254789165 -1.1144274238018914,3.4058122094053367 -2.9108707492808072 3.5946260113279274c -1.7964433254789165,0.18881380192259115 -3.4058122094053367,-1.1144274238018912 -3.5946260113279274 -2.9108707492808072c -0.18881380192259126,-1.7964433254789165 1.114427423801891,-3.4058122094053367 2.9108707492808072 -3.594626011327927Z" /></g></g></g><g fill="rgb(0,0,0)" fill-opacity="1.0" stroke-width="0.0"><g fill="rgb(0,0,0)" fill-opacity="1.0"><g fill="rgb(0,0,0)" fill-opacity="1.0"><path d="M 25.734602794185015,116.22689532219619 c 0.7347041136893716,-1.6501724572850338 2.6680285643891537,-2.392306181963282 4.318201021674187 -1.6576020682739103c 1.6501724572850338,0.7347041136893715 2.392306181963282,2.6680285643891537 1.6576020682739105 4.318201021674187c -0.7347041136893714,1.6501724572850338 -2.6680285643891533,2.3923061819632823 -4.318201021674186 1.6576020682739108c -1.650172457285034,-0.7347041136893713 -2.3923061819632823,-2.668028564389153 -1.6576020682739117 -4.318201021674188Z" /></g></g></g><g fill="rgb(0,0,0)" fill-opacity="1.0" stroke-width="0.0"><g fill="rgb(0,0,0)" fill-opacity="1.0"><g fill="rgb(0,0,0)" fill-opacity="1.0"><path d="M 16.318235284295472,120.50527659557123 c -1.0617392117895448,-1.4613586553624434 -0.7377836450161825,-3.5067336057651737 0.7235750103462606 -4.568472817554719c 1.4613586553624434,-1.0617392117895448 3.5067336057651737,-0.7377836450161828 4.568472817554718 0.7235750103462602c 1.061739211789545,1.4613586553624431 0.7377836450161828,3.5067336057651737 -0.7235750103462597 4.568472817554718c -1.4613586553624431,1.061739211789545 -3.5067336057651737,0.737783645016183 -4.568472817554719 -0.7235750103462593Z" /></g></g></g></g><g><g fill="rgb(148,148,148)" fill-opacity="1.0" stroke-width="0.0"><g fill="rgb(148,148,148)" fill-opacity="1.0"><g fill="rgb(148,148,148)" fill-opacity="1.0"><path d="M 15.635385108302113,173.17971444881766 l -9.597580622819708,-2.0400287375373916 l -3.0320736002521746,-9.331763002999837 l 6.56550702256753,-7.291734265462447 l 9.597580622819706,2.0400287375373893 l 3.0320736002521786,9.331763002999834 Z" /></g></g></g><g fill="rgb(0,0,0)" fill-opacity="1.0" stroke-width="0.0"><g fill="rgb(0,0,0)" fill-opacity="1.0"><g fill="rgb(0,0,0)" fill-opacity="1.0"><path d="M 13.762476311452453,174.12554164781668 c -0.3755589203194886,1.7668658044182846 -2.1123373157007475,2.894742882080262 -3.8792031201190316 2.5191839617607736c -1.7668658044182846,-0.3755589203194885 -2.894742882080262,-2.1123373157007475 -2.5191839617607736 -3.8792031201190316c 0.3755589203194884,-1.7668658044182846 2.112337315700747,-2.894742882080262 3.8792031201190307 -2.5191839617607736c 1.7668658044182846,0.3755589203194883 2.894742882080262,2.1123373157007466 2.519183961760775 3.8792031201190316Z" /></g></g></g><g fill="rgb(0,0,0)" fill-opacity="1.0" stroke-width="0.0"><g fill="rgb(0,0,0)" fill-opacity="1.0"><g fill="rgb(0,0,0)" fill-opacity="1.0"><path d="M 22.08354811436823,167.98288037989784 c 1.3423712115445183,1.2086764678236743 1.4507522154553172,3.276709217798807 0.24207574763164308 4.619080429343326c -1.2086764678236743,1.3423712115445183 -3.276709217798807,1.4507522154553172 -4.619080429343325 0.24207574763164352c -1.3423712115445185,-1.208676467823674 -1.4507522154553174,-3.276709217798807 -0.24207574763164352 -4.619080429343325c 1.208676467823674,-1.3423712115445185 3.276709217798807,-1.4507522154553176 4.619080429343326 -0.2420757476316444Z" /></g></g></g><g fill="rgb(0,0,0)" fill-opacity="1.0" stroke-width="0.0"><g fill="rgb(0,0,0)" fill-opacity="1.0"><g fill="rgb(0,0,0)" fill-opacity="1.0"><path d="M 20.924383310965712,157.70529017789903 c 1.7179301318640061,-0.5581893365946099 3.563089531156063,0.381966335718545 4.121278867750672 2.0998964675825507c 0.55818933659461,1.7179301318640061 -0.38196633571854477,3.563089531156063 -2.0998964675825507 4.121278867750672c -1.7179301318640061,0.5581893365946101 -3.5630895311560624,-0.38196633571854455 -4.121278867750672 -2.0998964675825498c -0.5581893365946102,-1.7179301318640061 0.3819663357185443,-3.5630895311560624 2.0998964675825507 -4.121278867750673Z" /></g></g></g><g fill="rgb(0,0,0)" fill-opacity="1.0" stroke-width="0.0"><g fill="rgb(0,0,0)" fill-opacity="1.0"><g fill="rgb(0,0,0)" fill-opacity="1.0"><path d="M 11.444146704647418,153.57036124381895 c 0.37555892031948795,-1.7668658044182848 2.1123373157007466,-2.894742882080263 3.8792031201190307 -2.519183961760775c 1.7668658044182848,0.37555892031948784 2.894742882080263,2.112337315700746 2.5191839617607754 3.8792031201190307c -0.37555892031948773,1.7668658044182848 -2.112337315700746,2.894742882080263 -3.8792031201190302 2.5191839617607754c -1.7668658044182848,-0.3755589203194876 -2.894742882080263,-2.1123373157007457 -2.5191839617607754 -3.879203120119031Z" /></g></g></g><g fill="rgb(0,0,0)" fill-opacity="1.0" stroke-width="0.0"><g fill="rgb(0,0,0)" fill-opacity="1.0"><g fill="rgb(0,0,0)" fill-opacity="1.0"><path d="M 3.123074901731644,159.7130225117378 c -1.342371211544518,-1.208676467823675 -1.450752215455316,-3.276709217798808 -0.2420757476316413 -4.619080429343326c 1.208676467823675,-1.342371211544518 3.2767092177988077,-1.4507522154553163 4.619080429343326 -0.24207574763164175c 1.3423712115445183,1.2086764678236748 1.4507522154553163,3.2767092177988077 0.24207574763164175 4.619080429343326c -1.2086764678236748,1.3423712115445183 -3.2767092177988077,1.4507522154553165 -4.619080429343326 0.24207574763164175Z" /></g></g></g><g fill="rgb(0,0,0)" fill-opacity="1.0" stroke-width="0.0"><g fill="rgb(0,0,0)" fill-opacity="1.0"><g fill="rgb(0,0,0)" fill-opacity="1.0"><path d="M 4.282239705134162,169.9906127137366 c -1.7179301318640061,0.5581893365946096 -3.5630895311560624,-0.38196633571854544 -4.1212788677506715 -2.0998964675825507c -0.5581893365946097,-1.7179301318640061 0.3819663357185452,-3.5630895311560624 2.0998964675825507 -4.1212788677506715c 1.7179301318640061,-0.5581893365946098 3.5630895311560624,0.381966335718545 4.1212788677506715 2.0998964675825507c 0.5581893365946099,1.7179301318640061 -0.38196633571854477,3.5630895311560624 -2.0998964675825507 4.1212788677506715Z" /></g></g></g></g><g><g fill="rgb(148,148,148)" fill-opacity="1.0" stroke-width="0.0"><g fill="rgb(148,148,148)" fill-opacity="1.0"><g fill="rgb(148,148,148)" fill-opacity="1.0"><path d="M 54.167594758654396,186.91733828906857 l -4.905998141599294,8.497438043088458 l -9.81199628319858,-6.5361025146861124e-15 l -4.905998141599286,-8.497438043088463 l 4.905998141599292,-8.497438043088458 l 9.811996283198576,7.262336127428989e-16 Z" /></g></g></g><g fill="rgb(0,0,0)" fill-opacity="1.0" stroke-width="0.0"><g fill="rgb(0,0,0)" fill-opacity="1.0"><g fill="rgb(0,0,0)" fill-opacity="1.0"><path d="M 54.488369232410705,188.9908570829717 c 1.5643351479432595,0.903169318767834 2.1003159525975574,2.9034769136193246 1.1971466338297239 4.467812061562584c -0.9031693187678339,1.5643351479432595 -2.9034769136193246,2.100315952597558 -4.467812061562583 1.1971466338297239c -1.5643351479432595,-0.9031693187678338 -2.100315952597558,-2.9034769136193246 -1.197146633829724 -4.467812061562583c 0.9031693187678337,-1.5643351479432597 2.903476913619324,-2.100315952597558 4.467812061562583 -1.1971466338297247Z" /></g></g></g><g fill="rgb(0,0,0)" fill-opacity="1.0" stroke-width="0.0"><g fill="rgb(0,0,0)" fill-opacity="1.0"><g fill="rgb(0,0,0)" fill-opacity="1.0"><path d="M 51.21770380467784,179.1788607997731 c 1.5643351479432588,-0.9031693187678347 3.5646427427947494,-0.3671885141135378 4.467812061562584 1.197146633829721c 0.9031693187678348,1.5643351479432588 0.3671885141135378,3.5646427427947494 -1.1971466338297205 4.467812061562584c -1.5643351479432588,0.9031693187678349 -3.5646427427947494,0.36718851411353803 -4.467812061562584 -1.19714663382972c -0.903169318767835,-1.5643351479432586 -0.36718851411353826,-3.5646427427947494 1.1971466338297203 -4.467812061562585Z" /></g></g></g><g fill="rgb(0,0,0)" fill-opacity="1.0" stroke-width="0.0"><g fill="rgb(0,0,0)" fill-opacity="1.0"><g fill="rgb(0,0,0)" fill-opacity="1.0"><path d="M 41.084933047722956,177.10534200587 c -2.2121268306342466e-16,-1.8063386375356676 1.4643267901971915,-3.27066542773286 3.2706654277328586 -3.2706654277328604c 1.8063386375356676,-3.3181902459513697e-16 3.27066542773286,1.4643267901971913 3.2706654277328604 3.2706654277328586c 4.4242536612684927e-16,1.8063386375356676 -1.4643267901971913,3.27066542773286 -3.270665427732858 3.2706654277328604c -1.8063386375356676,5.530317076585616e-16 -3.27066542773286,-1.464326790197191 -3.270665427732861 -3.2706654277328586Z" /></g></g></g><g fill="rgb(0,0,0)" fill-opacity="1.0" stroke-width="0.0"><g fill="rgb(0,0,0)" fill-opacity="1.0"><g fill="rgb(0,0,0)" fill-opacity="1.0"><path d="M 34.22282771850092,184.84381949516543 c -1.5643351479432595,-0.9031693187678335 -2.1003159525975583,-2.9034769136193237 -1.197146633829725 -4.467812061562583c 0.9031693187678334,-1.5643351479432595 2.9034769136193233,-2.1003159525975583 4.467812061562582 -1.197146633829725c 1.5643351479432595,0.9031693187678332 2.1003159525975583,2.9034769136193233 1.1971466338297252 4.467812061562582c -0.9031693187678331,1.5643351479432597 -2.903476913619323,2.1003159525975583 -4.467812061562583 1.1971466338297256Z" /></g></g></g><g fill="rgb(0,0,0)" fill-opacity="1.0" stroke-width="0.0"><g fill="rgb(0,0,0)" fill-opacity="1.0"><g fill="rgb(0,0,0)" fill-opacity="1.0"><path d="M 37.49349314623379,194.65581577836403 c -1.5643351479432595,0.903169318767834 -3.5646427427947502,0.36718851411353626 -4.467812061562584 -1.197146633829723c -0.9031693187678341,-1.5643351479432595 -0.3671885141135365,-3.56464274279475 1.1971466338297225 -4.467812061562584c 1.5643351479432595,-0.9031693187678342 3.56464274279475,-0.3671885141135365 4.467812061562584 1.197146633829722c 0.9031693187678344,1.5643351479432592 0.3671885141135367,3.56464274279475 -1.1971466338297225 4.467812061562585Z" /></g></g></g><g fill="rgb(0,0,0)" fill-opacity="1.0" stroke-width="0.0"><g fill="rgb(0,0,0)" fill-opacity="1.0"><g fill="rgb(0,0,0)" fill-opacity="1.0"><path d="M 47.62626390318867,196.72933457226713 c 0.0,1.8063386375356676 -1.464326790197192,3.27066542773286 -3.270665427732859 3.27066542773286c -1.8063386375356676,1.1060634153171232e-16 -3.27066542773286,-1.4643267901971917 -3.27066542773286 -3.270665427732859c -2.2121268306342463e-16,-1.8063386375356676 1.4643267901971917,-3.27066542773286 3.2706654277328586 -3.27066542773286c 1.8063386375356676,-3.3181902459513693e-16 3.27066542773286,1.4643267901971915 3.2706654277328604 3.270665427732859Z" /></g></g></g></g></g><g></g><g fill="rgb(89,89,255)" fill-opacity="1.0" stroke-width="0.0"><g fill="rgb(89,89,255)" fill-opacity="1.0"><g fill="rgb(89,89,255)" fill-opacity="1.0"><path d="M 76.10788544286169,36.15204855418216 l -31.752286967405883,-23.069386843250737 l -31.752286967405876,23.06938684325074 l 12.128294401008723,37.32705201199934 h 39.24798513279432 Z" /></g></g></g><g><g fill="rgb(148,148,148)" fill-opacity="1.0" stroke-width="0.0"><g fill="rgb(148,148,148)" fill-opacity="1.0"><g fill="rgb(148,148,148)" fill-opacity="1.0"><path d="M 79.13995904311389,45.48381155718201 l 6.565507022567528,-7.291734265462452 l -3.032073600252185,-9.331763002999836 l -9.59758062281971,-2.040028737537385 l -6.565507022567527,7.291734265462448 l 3.0320736002521786,9.331763002999834 Z" /></g></g></g><g fill="rgb(0,0,0)" fill-opacity="1.0" stroke-width="0.0"><g fill="rgb(0,0,0)" fill-opacity="1.0"><g fill="rgb(0,0,0)" fill-opacity="1.0"><path d="M 81.2111173674683,45.14813366523719 c 1.3423712115445179,1.2086764678236752 3.410403961519651,1.1002954639128781 4.619080429343326 -0.24207574763163953c 1.2086764678236752,-1.3423712115445179 1.1002954639128784,-3.410403961519651 -0.24207574763163908 -4.619080429343326c -1.3423712115445177,-1.2086764678236754 -3.4104039615196506,-1.1002954639128784 -4.619080429343326 0.24207574763163908c -1.2086764678236754,1.3423712115445177 -1.1002954639128786,3.4104039615196506 0.24207574763163908 4.6190804293433265Z" /></g></g></g><g fill="rgb(0,0,0)" fill-opacity="1.0" stroke-width="0.0"><g fill="rgb(0,0,0)" fill-opacity="1.0"><g fill="rgb(0,0,0)" fill-opacity="1.0"><path d="M 70.8686631643844,45.06961959782275 c -0.3755589203194897,1.7668658044182846 0.7523181573424867,3.5036441997995444 2.5191839617607705 3.8792031201190342c 1.7668658044182846,0.3755589203194898 3.5036441997995444,-0.7523181573424865 3.879203120119034 -2.5191839617607705c 0.3755589203194899,-1.7668658044182846 -0.7523181573424863,-3.5036441997995444 -2.51918396176077 -3.879203120119034c -1.7668658044182846,-0.37555892031949 -3.5036441997995444,0.7523181573424861 -3.879203120119034 2.51918396176077Z" /></g></g></g><g fill="rgb(0,0,0)" fill-opacity="1.0" stroke-width="0.0"><g fill="rgb(0,0,0)" fill-opacity="1.0"><g fill="rgb(0,0,0)" fill-opacity="1.0"><path d="M 65.76543123977781,36.073534486767734 c -1.7179301318640063,0.558189336594609 -2.6580858041771624,2.4033487358866648 -2.0998964675825533 4.121278867750671c 0.5581893365946089,1.7179301318640063 2.4033487358866648,2.6580858041771624 4.121278867750671 2.0998964675825538c 1.7179301318640063,-0.5581893365946088 2.6580858041771624,-2.4033487358866648 2.0998964675825538 -4.12127886775067c -0.5581893365946087,-1.7179301318640063 -2.4033487358866643,-2.6580858041771624 -4.1212788677506715 -2.099896467582555Z" /></g></g></g><g fill="rgb(0,0,0)" fill-opacity="1.0" stroke-width="0.0"><g fill="rgb(0,0,0)" fill-opacity="1.0"><g fill="rgb(0,0,0)" fill-opacity="1.0"><path d="M 71.0046535182551,27.15596344312716 c -1.342371211544517,-1.2086764678236754 -3.4104039615196498,-1.1002954639128792 -4.619080429343326 0.24207574763163775c -1.2086764678236754,1.342371211544517 -1.1002954639128792,3.4104039615196498 0.2420757476316373 4.619080429343325c 1.3423712115445168,1.2086764678236757 3.4104039615196498,1.1002954639128795 4.619080429343325 -0.2420757476316373c 1.2086764678236757,-1.3423712115445168 1.1002954639128797,-3.4104039615196493 -0.24207574763163642 -4.619080429343325Z" /></g></g></g><g fill="rgb(0,0,0)" fill-opacity="1.0" stroke-width="0.0"><g fill="rgb(0,0,0)" fill-opacity="1.0"><g fill="rgb(0,0,0)" fill-opacity="1.0"><path d="M 81.34710772133899,27.234477510541595 c 0.37555892031948906,-1.7668658044182848 -0.7523181573424881,-3.5036441997995444 -2.5191839617607723 -3.8792031201190333c -1.7668658044182848,-0.3755589203194892 -3.5036441997995444,0.7523181573424879 -3.8792031201190333 2.5191839617607723c -0.3755589203194893,1.7668658044182848 0.7523181573424876,3.5036441997995444 2.519183961760772 3.8792031201190333c 1.7668658044182848,0.3755589203194894 3.5036441997995444,-0.7523181573424874 3.879203120119034 -2.5191839617607723Z" /></g></g></g><g fill="rgb(0,0,0)" fill-opacity="1.0" stroke-width="0.0"><g fill="rgb(0,0,0)" fill-opacity="1.0"><g fill="rgb(0,0,0)" fill-opacity="1.0"><path d="M 86.45033964594559,36.23056262159661 c 1.7179301318640063,-0.5581893365946092 2.658085804177162,-2.403348735886665 2.0998964675825533 -4.1212788677506715c -0.5581893365946091,-1.7179301318640063 -2.403348735886665,-2.6580858041771624 -4.1212788677506715 -2.0998964675825533c -1.7179301318640063,0.558189336594609 -2.6580858041771624,2.4033487358866648 -2.0998964675825533 4.121278867750671c 0.5581893365946089,1.7179301318640063 2.4033487358866648,2.6580858041771624 4.1212788677506715 2.099896467582554Z" /></g></g></g></g><g><g fill="rgb(148,148,148)" fill-opacity="1.0" stroke-width="0.0"><g fill="rgb(148,148,148)" fill-opacity="1.0"><g fill="rgb(148,148,148)" fill-opacity="1.0"><path d="M 56.041519300001504,79.2464472769942 l 8.963704634922147,3.9908984301004153 l 7.938071741851468,-5.76734671081269 l -1.0256328930706773,-9.758245140913104 l -8.963704634922145,-3.9908984301004162 l -7.938071741851469,5.767346710812684 Z" /></g></g></g><g fill="rgb(0,0,0)" fill-opacity="1.0" stroke-width="0.0"><g fill="rgb(0,0,0)" fill-opacity="1.0"><g fill="rgb(0,0,0)" fill-opacity="1.0"><path d="M 57.0007910667785,81.11250572440353 c -0.7347041136893719,1.6501724572850336 7.429610988874957e-3,3.5834969079848156 1.6576020682739085 4.318201021674188c 1.6501724572850336,0.734704113689372 3.5834969079848156,-7.429610988874957e-3 4.318201021674188 -1.657602068273908c 0.7347041136893722,-1.6501724572850336 -7.429610988874735e-3,-3.5834969079848156 -1.6576020682739077 -4.318201021674187c -1.6501724572850334,-0.7347041136893723 -3.5834969079848156,7.429610988874513e-3 -4.318201021674188 1.6576020682739072Z" /></g></g></g><g fill="rgb(0,0,0)" fill-opacity="1.0" stroke-width="0.0"><g fill="rgb(0,0,0)" fill-opacity="1.0"><g fill="rgb(0,0,0)" fill-opacity="1.0"><path d="M 53.87946826991631,71.25198507894781 c -1.7964433254789167,0.1888138019225891 -3.099684551203401,1.7981826858490075 -2.910870749280812 3.594626011327924c 0.18881380192258898,1.7964433254789167 1.7981826858490075,3.0996845512034015 3.594626011327924 2.910870749280812c 1.7964433254789167,-0.18881380192258887 3.0996845512034015,-1.7981826858490073 2.910870749280812 -3.5946260113279234c -0.18881380192258876,-1.7964433254789167 -1.798182685849007,-3.0996845512034015 -3.594626011327924 -2.9108707492808126Z" /></g></g></g><g fill="rgb(0,0,0)" fill-opacity="1.0" stroke-width="0.0"><g fill="rgb(0,0,0)" fill-opacity="1.0"><g fill="rgb(0,0,0)" fill-opacity="1.0"><path d="M 60.85826824499078,63.618579920725814 c -1.0617392117895443,-1.4613586553624438 -3.107114162192275,-1.7853142221358071 -4.568472817554719 -0.7235750103462633c -1.4613586553624438,1.0617392117895443 -1.7853142221358074,3.107114162192275 -0.7235750103462635 4.568472817554718c 1.0617392117895441,1.461358655362444 3.1071141621922744,1.7853142221358076 4.568472817554717 0.7235750103462637c 1.461358655362444,-1.0617392117895441 1.7853142221358076,-3.1071141621922744 0.7235750103462655 -4.568472817554719Z" /></g></g></g><g fill="rgb(0,0,0)" fill-opacity="1.0" stroke-width="0.0"><g fill="rgb(0,0,0)" fill-opacity="1.0"><g fill="rgb(0,0,0)" fill-opacity="1.0"><path d="M 70.95839101692744,65.84569540795951 c 0.7347041136893727,-1.6501724572850334 -7.429610988873403e-3,-3.583496907984816 -1.6576020682739068 -4.318201021674189c -1.6501724572850334,-0.7347041136893728 -3.583496907984816,7.429610988873403e-3 -4.318201021674188 1.6576020682739063c -0.7347041136893729,1.6501724572850334 7.429610988873181e-3,3.5834969079848156 1.6576020682739059 4.318201021674188c 1.6501724572850331,0.734704113689373 3.5834969079848156,-7.429610988872959e-3 4.318201021674188 -1.6576020682739054Z" /></g></g></g><g fill="rgb(0,0,0)" fill-opacity="1.0" stroke-width="0.0"><g fill="rgb(0,0,0)" fill-opacity="1.0"><g fill="rgb(0,0,0)" fill-opacity="1.0"><path d="M 74.07971381378964,75.7062160534152 c 1.7964433254789167,-0.18881380192258984 3.0996845512034006,-1.7981826858490089 2.910870749280811 -3.594626011327925c -0.18881380192258973,-1.7964433254789167 -1.7981826858490089,-3.0996845512034006 -3.594626011327925 -2.910870749280811c -1.7964433254789167,0.18881380192258962 -3.0996845512034006,1.7981826858490086 -2.910870749280811 3.5946260113279247c 0.1888138019225895,1.7964433254789167 1.7981826858490084,3.0996845512034006 3.594626011327925 2.9108707492808112Z" /></g></g></g><g fill="rgb(0,0,0)" fill-opacity="1.0" stroke-width="0.0"><g fill="rgb(0,0,0)" fill-opacity="1.0"><g fill="rgb(0,0,0)" fill-opacity="1.0"><path d="M 67.10091383871517,83.33962121163722 c 1.0617392117895443,1.4613586553624436 3.107114162192275,1.7853142221358067 4.568472817554718 0.7235750103462626c 1.4613586553624436,-1.0617392117895443 1.7853142221358067,-3.107114162192275 0.7235750103462628 -4.568472817554718c -1.0617392117895441,-1.4613586553624438 -3.107114162192275,-1.785314222135807 -4.568472817554717 -0.723575010346263c -1.4613586553624438,1.0617392117895441 -1.7853142221358071,3.1071141621922744 -0.7235750103462637 4.568472817554718Z" /></g></g></g></g><g><g fill="rgb(148,148,148)" fill-opacity="1.0" stroke-width="0.0"><g fill="rgb(148,148,148)" fill-opacity="1.0"><g fill="rgb(148,148,148)" fill-opacity="1.0"><path d="M 16.793534167207177,67.71175385536881 l -1.0256328930706715,9.758245140913106 l 7.9380717418514735,5.7673467108126815 l 8.963704634922143,-3.990898430100422 l 1.0256328930706728,-9.758245140913102 l -7.938071741851467,-5.767346710812684 Z" /></g></g></g><g fill="rgb(0,0,0)" fill-opacity="1.0" stroke-width="0.0"><g fill="rgb(0,0,0)" fill-opacity="1.0"><g fill="rgb(0,0,0)" fill-opacity="1.0"><path d="M 15.315238399169104,69.20071929280645 c -1.7964433254789165,-0.1888138019225903 -3.4058122094053362,1.1144274238018927 -3.5946260113279265 2.9108707492808086c -0.18881380192259042,1.7964433254789165 1.1144274238018925,3.4058122094053362 2.9108707492808086 3.5946260113279265c 1.7964433254789165,0.18881380192259054 3.4058122094053362,-1.1144274238018923 3.5946260113279265 -2.910870749280808c 0.18881380192259065,-1.7964433254789165 -1.114427423801892,-3.4058122094053362 -2.9108707492808086 -3.594626011327927Z" /></g></g></g><g fill="rgb(0,0,0)" fill-opacity="1.0" stroke-width="0.0"><g fill="rgb(0,0,0)" fill-opacity="1.0"><g fill="rgb(0,0,0)" fill-opacity="1.0"><path d="M 23.728609023932286,63.18509645455921 c -0.734704113689371,-1.650172457285034 -2.668028564389153,-2.3923061819632827 -4.318201021674186 -1.6576020682739119c -1.650172457285034,0.7347041136893709 -2.392306181963283,2.6680285643891524 -1.657602068273912 4.318201021674186c 0.7347041136893708,1.650172457285034 2.6680285643891524,2.392306181963283 4.318201021674186 1.6576020682739123c 1.6501724572850343,-0.7347041136893707 2.392306181963283,-2.668028564389152 1.6576020682739117 -4.318201021674187Z" /></g></g></g><g fill="rgb(0,0,0)" fill-opacity="1.0" stroke-width="0.0"><g fill="rgb(0,0,0)" fill-opacity="1.0"><g fill="rgb(0,0,0)" fill-opacity="1.0"><path d="M 33.144976533821826,67.46347772793426 c 1.0617392117895448,-1.4613586553624431 0.737783645016183,-3.5067336057651737 -0.7235750103462599 -4.568472817554718c -1.4613586553624431,-1.0617392117895448 -3.5067336057651737,-0.7377836450161832 -4.568472817554718 0.7235750103462595c -1.061739211789545,1.461358655362443 -0.7377836450161832,3.5067336057651732 0.723575010346259 4.568472817554718c 1.461358655362443,1.061739211789545 3.5067336057651732,0.7377836450161834 4.568472817554719 -0.7235750103462593Z" /></g></g></g><g fill="rgb(0,0,0)" fill-opacity="1.0" stroke-width="0.0"><g fill="rgb(0,0,0)" fill-opacity="1.0"><g fill="rgb(0,0,0)" fill-opacity="1.0"><path d="M 34.1479734189482,77.75748183955655 c 1.7964433254789165,0.18881380192259092 3.4058122094053367,-1.1144274238018916 3.5946260113279274 -2.9108707492808072c 0.18881380192259103,-1.7964433254789165 -1.1144274238018914,-3.4058122094053367 -2.9108707492808072 -3.5946260113279274c -1.7964433254789165,-0.18881380192259115 -3.4058122094053367,1.1144274238018912 -3.5946260113279274 2.9108707492808072c -0.18881380192259126,1.7964433254789165 1.114427423801891,3.4058122094053367 2.9108707492808072 3.594626011327927Z" /></g></g></g><g fill="rgb(0,0,0)" fill-opacity="1.0" stroke-width="0.0"><g fill="rgb(0,0,0)" fill-opacity="1.0"><g fill="rgb(0,0,0)" fill-opacity="1.0"><path d="M 25.734602794185015,83.77310467780379 c 0.7347041136893716,1.6501724572850338 2.6680285643891537,2.392306181963282 4.318201021674187 1.6576020682739103c 1.6501724572850338,-0.7347041136893715 2.392306181963282,-2.6680285643891537 1.6576020682739105 -4.318201021674187c -0.7347041136893714,-1.6501724572850338 -2.6680285643891533,-2.3923061819632823 -4.318201021674186 -1.6576020682739108c -1.650172457285034,0.7347041136893713 -2.3923061819632823,2.668028564389153 -1.6576020682739117 4.318201021674188Z" /></g></g></g><g fill="rgb(0,0,0)" fill-opacity="1.0" stroke-width="0.0"><g fill="rgb(0,0,0)" fill-opacity="1.0"><g fill="rgb(0,0,0)" fill-opacity="1.0"><path d="M 16.318235284295472,79.49472340442874 c -1.0617392117895448,1.4613586553624434 -0.7377836450161825,3.5067336057651737 0.7235750103462606 4.568472817554719c 1.4613586553624434,1.0617392117895448 3.5067336057651737,0.7377836450161828 4.568472817554718 -0.7235750103462602c 1.061739211789545,-1.4613586553624431 0.7377836450161828,-3.5067336057651737 -0.7235750103462597 -4.568472817554718c -1.4613586553624431,-1.061739211789545 -3.5067336057651737,-0.737783645016183 -4.568472817554719 0.7235750103462593Z" /></g></g></g></g><g><g fill="rgb(148,148,148)" fill-opacity="1.0" stroke-width="0.0"><g fill="rgb(148,148,148)" fill-opacity="1.0"><g fill="rgb(148,148,148)" fill-opacity="1.0"><path d="M 15.635385108302113,26.820285551182323 l -9.597580622819708,2.0400287375373916 l -3.0320736002521746,9.331763002999837 l 6.56550702256753,7.291734265462447 l 9.597580622819706,-2.0400287375373893 l 3.0320736002521786,-9.331763002999834 Z" /></g></g></g><g fill="rgb(0,0,0)" fill-opacity="1.0" stroke-width="0.0"><g fill="rgb(0,0,0)" fill-opacity="1.0"><g fill="rgb(0,0,0)" fill-opacity="1.0"><path d="M 13.762476311452453,25.87445835218332 c -0.3755589203194886,-1.7668658044182846 -2.1123373157007475,-2.894742882080262 -3.8792031201190316 -2.5191839617607736c -1.7668658044182846,0.3755589203194885 -2.894742882080262,2.1123373157007475 -2.5191839617607736 3.8792031201190316c 0.3755589203194884,1.7668658044182846 2.112337315700747,2.894742882080262 3.8792031201190307 2.5191839617607736c 1.7668658044182846,-0.3755589203194883 2.894742882080262,-2.1123373157007466 2.519183961760775 -3.8792031201190316Z" /></g></g></g><g fill="rgb(0,0,0)" fill-opacity="1.0" stroke-width="0.0"><g fill="rgb(0,0,0)" fill-opacity="1.0"><g fill="rgb(0,0,0)" fill-opacity="1.0"><path d="M 22.08354811436823,32.01711962010212 c 1.3423712115445183,-1.2086764678236743 1.4507522154553172,-3.276709217798807 0.24207574763164308 -4.619080429343326c -1.2086764678236743,-1.3423712115445183 -3.276709217798807,-1.4507522154553172 -4.619080429343325 -0.24207574763164352c -1.3423712115445185,1.208676467823674 -1.4507522154553174,3.276709217798807 -0.24207574763164352 4.619080429343325c 1.208676467823674,1.3423712115445185 3.276709217798807,1.4507522154553176 4.619080429343326 0.2420757476316444Z" /></g></g></g><g fill="rgb(0,0,0)" fill-opacity="1.0" stroke-width="0.0"><g fill="rgb(0,0,0)" fill-opacity="1.0"><g fill="rgb(0,0,0)" fill-opacity="1.0"><path d="M 20.924383310965712,42.294709822100955 c 1.7179301318640061,0.5581893365946099 3.563089531156063,-0.381966335718545 4.121278867750672 -2.0998964675825507c 0.55818933659461,-1.7179301318640061 -0.38196633571854477,-3.563089531156063 -2.0998964675825507 -4.121278867750672c -1.7179301318640061,-0.5581893365946101 -3.5630895311560624,0.38196633571854455 -4.121278867750672 2.0998964675825498c -0.5581893365946102,1.7179301318640061 0.3819663357185443,3.5630895311560624 2.0998964675825507 4.121278867750673Z" /></g></g></g><g fill="rgb(0,0,0)" fill-opacity="1.0" stroke-width="0.0"><g fill="rgb(0,0,0)" fill-opacity="1.0"><g fill="rgb(0,0,0)" fill-opacity="1.0"><path d="M 11.444146704647418,46.42963875618099 c 0.37555892031948795,1.7668658044182848 2.1123373157007466,2.894742882080263 3.8792031201190307 2.519183961760775c 1.7668658044182848,-0.37555892031948784 2.894742882080263,-2.112337315700746 2.5191839617607754 -3.8792031201190307c -0.37555892031948773,-1.7668658044182848 -2.112337315700746,-2.894742882080263 -3.8792031201190302 -2.5191839617607754c -1.7668658044182848,0.3755589203194876 -2.894742882080263,2.1123373157007457 -2.5191839617607754 3.879203120119031Z" /></g></g></g><g fill="rgb(0,0,0)" fill-opacity="1.0" stroke-width="0.0"><g fill="rgb(0,0,0)" fill-opacity="1.0"><g fill="rgb(0,0,0)" fill-opacity="1.0"><path d="M 3.123074901731644,40.2869774882622 c -1.342371211544518,1.208676467823675 -1.450752215455316,3.276709217798808 -0.2420757476316413 4.619080429343326c 1.208676467823675,1.342371211544518 3.2767092177988077,1.4507522154553163 4.619080429343326 0.24207574763164175c 1.3423712115445183,-1.2086764678236748 1.4507522154553163,-3.2767092177988077 0.24207574763164175 -4.619080429343326c -1.2086764678236748,-1.3423712115445183 -3.2767092177988077,-1.4507522154553165 -4.619080429343326 -0.24207574763164175Z" /></g></g></g><g fill="rgb(0,0,0)" fill-opacity="1.0" stroke-width="0.0"><g fill="rgb(0,0,0)" fill-opacity="1.0"><g fill="rgb(0,0,0)" fill-opacity="1.0"><path d="M 4.282239705134162,30.009387286263365 c -1.7179301318640061,-0.5581893365946096 -3.5630895311560624,0.38196633571854544 -4.1212788677506715 2.0998964675825507c -0.5581893365946097,1.7179301318640061 0.3819663357185452,3.5630895311560624 2.0998964675825507 4.1212788677506715c 1.7179301318640061,0.5581893365946098 3.5630895311560624,-0.381966335718545 4.1212788677506715 -2.0998964675825507c 0.5581893365946099,-1.7179301318640061 -0.38196633571854477,-3.5630895311560624 -2.0998964675825507 -4.1212788677506715Z" /></g></g></g></g><g><g fill="rgb(148,148,148)" fill-opacity="1.0" stroke-width="0.0"><g fill="rgb(148,148,148)" fill-opacity="1.0"><g fill="rgb(148,148,148)" fill-opacity="1.0"><path d="M 54.167594758654396,13.082661710931411 l -4.905998141599294,-8.497438043088458 l -9.81199628319858,6.5361025146861124e-15 l -4.905998141599286,8.497438043088463 l 4.905998141599292,8.497438043088458 l 9.811996283198576,-7.262336127428989e-16 Z" /></g></g></g><g fill="rgb(0,0,0)" fill-opacity="1.0" stroke-width="0.0"><g fill="rgb(0,0,0)" fill-opacity="1.0"><g fill="rgb(0,0,0)" fill-opacity="1.0"><path d="M 54.488369232410705,11.009142917028282 c 1.5643351479432595,-0.903169318767834 2.1003159525975574,-2.9034769136193246 1.1971466338297239 -4.467812061562584c -0.9031693187678339,-1.5643351479432595 -2.9034769136193246,-2.100315952597558 -4.467812061562583 -1.1971466338297239c -1.5643351479432595,0.9031693187678338 -2.100315952597558,2.9034769136193246 -1.197146633829724 4.467812061562583c 0.9031693187678337,1.5643351479432597 2.903476913619324,2.100315952597558 4.467812061562583 1.1971466338297247Z" /></g></g></g><g fill="rgb(0,0,0)" fill-opacity="1.0" stroke-width="0.0"><g fill="rgb(0,0,0)" fill-opacity="1.0"><g fill="rgb(0,0,0)" fill-opacity="1.0"><path d="M 51.21770380467784,20.821139200226867 c 1.5643351479432588,0.9031693187678347 3.5646427427947494,0.3671885141135378 4.467812061562584 -1.197146633829721c 0.9031693187678348,-1.5643351479432588 0.3671885141135378,-3.5646427427947494 -1.1971466338297205 -4.467812061562584c -1.5643351479432588,-0.9031693187678349 -3.5646427427947494,-0.36718851411353803 -4.467812061562584 1.19714663382972c -0.903169318767835,1.5643351479432586 -0.36718851411353826,3.5646427427947494 1.1971466338297203 4.467812061562585Z" /></g></g></g><g fill="rgb(0,0,0)" fill-opacity="1.0" stroke-width="0.0"><g fill="rgb(0,0,0)" fill-opacity="1.0"><g fill="rgb(0,0,0)" fill-opacity="1.0"><path d="M 41.084933047722956,22.89465799413 c -2.2121268306342466e-16,1.8063386375356676 1.4643267901971915,3.27066542773286 3.2706654277328586 3.2706654277328604c 1.8063386375356676,3.3181902459513697e-16 3.27066542773286,-1.4643267901971913 3.2706654277328604 -3.2706654277328586c 4.4242536612684927e-16,-1.8063386375356676 -1.4643267901971913,-3.27066542773286 -3.270665427732858 -3.2706654277328604c -1.8063386375356676,-5.530317076585616e-16 -3.27066542773286,1.464326790197191 -3.270665427732861 3.2706654277328586Z" /></g></g></g><g fill="rgb(0,0,0)" fill-opacity="1.0" stroke-width="0.0"><g fill="rgb(0,0,0)" fill-opacity="1.0"><g fill="rgb(0,0,0)" fill-opacity="1.0"><path d="M 34.22282771850092,15.156180504834552 c -1.5643351479432595,0.9031693187678335 -2.1003159525975583,2.9034769136193237 -1.197146633829725 4.467812061562583c 0.9031693187678334,1.5643351479432595 2.9034769136193233,2.1003159525975583 4.467812061562582 1.197146633829725c 1.5643351479432595,-0.9031693187678332 2.1003159525975583,-2.9034769136193233 1.1971466338297252 -4.467812061562582c -0.9031693187678331,-1.5643351479432597 -2.903476913619323,-2.1003159525975583 -4.467812061562583 -1.1971466338297256Z" /></g></g></g><g fill="rgb(0,0,0)" fill-opacity="1.0" stroke-width="0.0"><g fill="rgb(0,0,0)" fill-opacity="1.0"><g fill="rgb(0,0,0)" fill-opacity="1.0"><path d="M 37.49349314623379,5.344184221635974 c -1.5643351479432595,-0.903169318767834 -3.5646427427947502,-0.36718851411353626 -4.467812061562584 1.197146633829723c -0.9031693187678341,1.5643351479432595 -0.3671885141135365,3.56464274279475 1.1971466338297225 4.467812061562584c 1.5643351479432595,0.9031693187678342 3.56464274279475,0.3671885141135365 4.467812061562584 -1.197146633829722c 0.9031693187678344,-1.5643351479432592 0.3671885141135367,-3.56464274279475 -1.1971466338297225 -4.467812061562585Z" /></g></g></g><g fill="rgb(0,0,0)" fill-opacity="1.0" stroke-width="0.0"><g fill="rgb(0,0,0)" fill-opacity="1.0"><g fill="rgb(0,0,0)" fill-opacity="1.0"><path d="M 47.62626390318867,3.2706654277328386 c 0.0,-1.8063386375356676 -1.464326790197192,-3.27066542773286 -3.270665427732859 -3.27066542773286c -1.8063386375356676,-1.1060634153171232e-16 -3.27066542773286,1.4643267901971917 -3.27066542773286 3.270665427732859c -2.2121268306342463e-16,1.8063386375356676 1.4643267901971917,3.27066542773286 3.2706654277328586 3.27066542773286c 1.8063386375356676,3.3181902459513693e-16 3.27066542773286,-1.4643267901971915 3.2706654277328604 -3.270665427732859Z" /></g></g></g></g></g></g></g></svg>