<?xml version="1.0" encoding="UTF-8"?>
<!DOCTYPE svg PUBLIC "-//W3C//DTD SVG 1.1//EN"
    "http://www.w3.org/Graphics/SVG/1.1/DTD/svg11.dtd"><svg xmlns="http://www.w3.org/2000/svg" height="400.0" stroke-opacity="1" viewBox="0 0 469 400" font-size="1" width="469.2116473414095" xmlns:xlink="http://www.w3.org/1999/xlink" stroke="rgb(0,0,0)" version="1.1"><defs></defs><defs></defs><g stroke-linejoin="miter" stroke-opacity="1.0" fill-opacity="0.0" stroke="rgb(0,0,0)" stroke-width="4.0" fill="rgb(0,0,0)" stroke-linecap="butt" stroke-miterlimit="10.0"><path d="M 0.0,399.99999999999983 h 7.3314319897095235 l 3.6657159948547626,-6.34920634920634 l -3.66571599485476,-6.349206349206342 l 3.6657159948547626,-6.34920634920634 h 7.3314319897095235 l 3.6657159948547626,6.34920634920634 l -3.66571599485476,6.349206349206342 l 3.6657159948547626,6.34920634920634 h 7.3314319897095235 l 3.6657159948547626,-6.34920634920634 h 7.3314319897095235 l 3.6657159948547626,6.34920634920634 h 7.3314319897095235 l 3.6657159948547626,-6.34920634920634 l -3.66571599485476,-6.349206349206342 l -7.3314319897095235,-8.978414719364279e-16 l -3.6657159948547626,-6.34920634920634 l 3.66571599485476,-6.349206349206342 l -3.6657159948547626,-6.34920634920634 l -7.3314319897095235,-8.978414719364279e-16 l -3.665715994854765,6.349206349206338 l -7.3314319897095235,-8.978414719364279e-16 l -3.6657159948547626,-6.34920634920634 l 3.66571599485476,-6.349206349206342 l 7.3314319897095235,-3.2558098393795747e-15 l 3.66571599485476,-6.349206349206342 l -3.6657159948547626,-6.34920634920634 l 3.66571599485476,-6.349206349206342 l 7.3314319897095235,-3.2558098393795747e-15 l 3.6657159948547657,6.349206349206338 l 7.3314319897095235,-3.2558098393795747e-15 l 3.66571599485476,-6.349206349206342 l -3.6657159948547626,-6.34920634920634 l -7.3314319897095235,-8.978414719364279e-16 l -3.6657159948547626,-6.34920634920634 l 3.66571599485476,-6.349206349206342 l 7.3314319897095235,-3.2558098393795747e-15 l 3.66571599485476,-6.349206349206342 l -3.6657159948547626,-6.34920634920634 l 3.66571599485476,-6.349206349206342 l 7.3314319897095235,-3.2558098393795747e-15 l 3.6657159948547657,6.349206349206338 l -3.6657159948547573,6.3492063492063435 l 3.6657159948547657,6.349206349206338 l 7.3314319897095235,-3.2558098393795747e-15 l 3.6657159948547657,6.349206349206338 l -3.6657159948547573,6.3492063492063435 l -7.3314319897095235,7.409461150695577e-15 l -3.6657159948547573,6.3492063492063435 l 3.6657159948547657,6.349206349206338 l 7.3314319897095235,-3.2558098393795747e-15 l 3.66571599485476,-6.349206349206342 l 7.3314319897095235,-3.2558098393795747e-15 l 3.6657159948547657,6.349206349206338 l -3.6657159948547573,6.3492063492063435 l 3.6657159948547657,6.349206349206338 l 7.3314319897095235,-3.2558098393795747e-15 l 3.6657159948547657,6.349206349206338 l -3.6657159948547573,6.3492063492063435 l -7.3314319897095235,7.409461150695577e-15 l -3.6657159948547706,-6.3492063492063355 l -7.3314319897095235,7.409461150695577e-15 l -3.6657159948547573,6.3492063492063435 l 3.6657159948547657,6.349206349206338 l -3.6657159948547573,6.3492063492063435 l -7.3314319897095235,7.409461150695577e-15 l -3.6657159948547573,6.3492063492063435 l 3.6657159948547657,6.349206349206338 l 7.3314319897095235,-3.2558098393795747e-15 l 3.66571599485476,-6.349206349206342 l 7.3314319897095235,-3.2558098393795747e-15 l 3.6657159948547657,6.349206349206338 l 7.3314319897095235,-3.2558098393795747e-15 l 3.66571599485476,-6.349206349206342 l -3.6657159948547626,-6.34920634920634 l 3.66571599485476,-6.349206349206342 l 7.3314319897095235,-3.2558098393795747e-15 l 3.6657159948547657,6.349206349206338 l -3.6657159948547573,6.3492063492063435 l 3.6657159948547657,6.349206349206338 l 7.3314319897095235,-3.2558098393795747e-15 l 3.66571599485476,-6.349206349206342 l 7.3314319897095235,-3.2558098393795747e-15 l 3.6657159948547657,6.349206349206338 l 7.3314319897095235,-3.2558098393795747e-15 l 3.66571599485476,-6.349206349206342 l -3.6657159948547626,-6.34920634920634 l -7.3314319897095235,-8.978414719364279e-16 l -3.6657159948547626,-6.34920634920634 l 3.66571599485476,-6.349206349206342 l 7.3314319897095235,-3.2558098393795747e-15 l 3.66571599485476,-6.349206349206342 l -3.6657159948547626,-6.34920634920634 l 3.66571599485476,-6.349206349206342 l 7.3314319897095235,-3.2558098393795747e-15 l 3.6657159948547657,6.349206349206338 l -3.6657159948547573,6.3492063492063435 l 3.6657159948547657,6.349206349206338 l 7.3314319897095235,-3.2558098393795747e-15 l 3.6657159948547657,6.349206349206338 l -3.6657159948547573,6.3492063492063435 l -7.3314319897095235,7.409461150695577e-15 l -3.6657159948547573,6.3492063492063435 l 3.6657159948547657,6.349206349206338 l 7.3314319897095235,-3.2558098393795747e-15 l 3.66571599485476,-6.349206349206342 l 7.3314319897095235,-3.2558098393795747e-15 l 3.6657159948547657,6.349206349206338 l 7.3314319897095235,-3.2558098393795747e-15 l 3.66571599485476,-6.349206349206342 l -3.6657159948547626,-6.34920634920634 l 3.66571599485476,-6.349206349206342 l 7.3314319897095235,-3.2558098393795747e-15 l 3.6657159948547657,6.349206349206338 l -3.6657159948547573,6.3492063492063435 l 3.6657159948547657,6.349206349206338 l 7.3314319897095235,-3.2558098393795747e-15 l 3.66571599485476,-6.349206349206342 l 7.3314319897095235,-3.2558098393795747e-15 l 3.6657159948547657,6.349206349206338 l 7.3314319897095235,-3.2558098393795747e-15 l 3.66571599485476,-6.349206349206342 l -3.6657159948547626,-6.34920634920634 l -7.3314319897095235,-8.978414719364279e-16 l -3.6657159948547626,-6.34920634920634 l 3.66571599485476,-6.349206349206342 l -3.6657159948547626,-6.34920634920634 l -7.3314319897095235,-8.978414719364279e-16 l -3.665715994854765,6.349206349206338 l -7.3314319897095235,-8.978414719364279e-16 l -3.6657159948547626,-6.34920634920634 l 3.66571599485476,-6.349206349206342 l 7.3314319897095235,-3.2558098393795747e-15 l 3.66571599485476,-6.349206349206342 l -3.6657159948547626,-6.34920634920634 l -7.3314319897095235,-8.978414719364279e-16 l -3.6657159948547626,-6.34920634920634 l 3.66571599485476,-6.349206349206342 l -3.6657159948547626,-6.34920634920634 l -7.3314319897095235,-8.978414719364279e-16 l -3.665715994854765,6.349206349206338 l 3.6657159948547564,6.3492063492063435 l -3.665715994854765,6.349206349206338 l -7.3314319897095235,-8.978414719364279e-16 l -3.6657159948547626,-6.34920634920634 l -7.3314319897095235,-8.978414719364279e-16 l -3.665715994854765,6.349206349206338 l -7.3314319897095235,-8.978414719364279e-16 l -3.6657159948547626,-6.34920634920634 l 3.66571599485476,-6.349206349206342 l 7.3314319897095235,-3.2558098393795747e-15 l 3.66571599485476,-6.349206349206342 l -3.6657159948547626,-6.34920634920634 l 3.66571599485476,-6.349206349206342 l 7.3314319897095235,-3.2558098393795747e-15 l 3.6657159948547657,6.349206349206338 l 7.3314319897095235,-3.2558098393795747e-15 l 3.66571599485476,-6.349206349206342 l -3.6657159948547626,-6.34920634920634 l -7.3314319897095235,-8.978414719364279e-16 l -3.6657159948547626,-6.34920634920634 l 3.66571599485476,-6.349206349206342 l -3.6657159948547626,-6.34920634920634 l -7.3314319897095235,-8.978414719364279e-16 l -3.665715994854765,6.349206349206338 l -7.3314319897095235,-8.978414719364279e-16 l -3.6657159948547626,-6.34920634920634 l 3.66571599485476,-6.349206349206342 l 7.3314319897095235,-3.2558098393795747e-15 l 3.66571599485476,-6.349206349206342 l -3.6657159948547626,-6.34920634920634 l -7.3314319897095235,-8.978414719364279e-16 l -3.6657159948547626,-6.34920634920634 l 3.66571599485476,-6.349206349206342 l -3.6657159948547626,-6.34920634920634 l -7.3314319897095235,-8.978414719364279e-16 l -3.665715994854765,6.349206349206338 l 3.6657159948547564,6.3492063492063435 l -3.665715994854765,6.349206349206338 l -7.3314319897095235,-8.978414719364279e-16 l -3.665715994854765,6.349206349206338 l 3.6657159948547564,6.3492063492063435 l 7.3314319897095235,8.307302622632005e-15 l 3.6657159948547564,6.3492063492063435 l -3.665715994854765,6.349206349206338 l -7.3314319897095235,-8.978414719364279e-16 l -3.6657159948547626,-6.34920634920634 l -7.3314319897095235,-8.978414719364279e-16 l -3.665715994854765,6.349206349206338 l -7.3314319897095235,-8.978414719364279e-16 l -3.6657159948547626,-6.34920634920634 l 3.66571599485476,-6.349206349206342 l -3.6657159948547626,-6.34920634920634 l -7.3314319897095235,-8.978414719364279e-16 l -3.665715994854765,6.349206349206338 l 3.6657159948547564,6.3492063492063435 l -3.665715994854765,6.349206349206338 l -7.3314319897095235,-8.978414719364279e-16 l -3.6657159948547626,-6.34920634920634 l -7.3314319897095235,-8.978414719364279e-16 l -3.665715994854765,6.349206349206338 l -7.3314319897095235,-8.978414719364279e-16 l -3.6657159948547626,-6.34920634920634 l 3.66571599485476,-6.349206349206342 l 7.3314319897095235,-3.2558098393795747e-15 l 3.66571599485476,-6.349206349206342 l -3.6657159948547626,-6.34920634920634 l 3.66571599485476,-6.349206349206342 l 7.3314319897095235,-3.2558098393795747e-15 l 3.6657159948547657,6.349206349206338 l 7.3314319897095235,-3.2558098393795747e-15 l 3.66571599485476,-6.349206349206342 l -3.6657159948547626,-6.34920634920634 l -7.3314319897095235,-8.978414719364279e-16 l -3.6657159948547626,-6.34920634920634 l 3.66571599485476,-6.349206349206342 l 7.3314319897095235,-3.2558098393795747e-15 l 3.66571599485476,-6.349206349206342 l -3.6657159948547626,-6.34920634920634 l 3.66571599485476,-6.349206349206342 l 7.3314319897095235,-3.2558098393795747e-15 l 3.6657159948547657,6.349206349206338 l -3.6657159948547573,6.3492063492063435 l 3.6657159948547657,6.349206349206338 l 7.3314319897095235,-3.2558098393795747e-15 l 3.66571599485476,-6.349206349206342 l 7.3314319897095235,-3.2558098393795747e-15 l 3.6657159948547657,6.349206349206338 l 7.3314319897095235,-3.2558098393795747e-15 l 3.66571599485476,-6.349206349206342 l -3.6657159948547626,-6.34920634920634 l -7.3314319897095235,-8.978414719364279e-16 l -3.6657159948547626,-6.34920634920634 l 3.66571599485476,-6.349206349206342 l -3.6657159948547626,-6.34920634920634 l -7.3314319897095235,-8.978414719364279e-16 l -3.665715994854765,6.349206349206338 l -7.3314319897095235,-8.978414719364279e-16 l -3.6657159948547626,-6.34920634920634 l 3.66571599485476,-6.349206349206342 l 7.3314319897095235,-3.2558098393795747e-15 l 3.66571599485476,-6.349206349206342 l -3.6657159948547626,-6.34920634920634 l 3.66571599485476,-6.349206349206342 l 7.3314319897095235,-3.2558098393795747e-15 l 3.6657159948547657,6.349206349206338 l 7.3314319897095235,-3.2558098393795747e-15 l 3.66571599485476,-6.349206349206342 l -3.6657159948547626,-6.34920634920634 l -7.3314319897095235,-8.978414719364279e-16 l -3.6657159948547626,-6.34920634920634 l 3.66571599485476,-6.349206349206342 l 7.3314319897095235,-3.2558098393795747e-15 l 3.66571599485476,-6.349206349206342 l -3.6657159948547626,-6.34920634920634 l 3.66571599485476,-6.349206349206342 l 7.3314319897095235,-3.2558098393795747e-15 l 3.6657159948547657,6.349206349206338 l -3.6657159948547573,6.3492063492063435 l 3.6657159948547657,6.349206349206338 l 7.3314319897095235,-3.2558098393795747e-15 l 3.6657159948547657,6.349206349206338 l -3.6657159948547573,6.3492063492063435 l -7.3314319897095235,7.409461150695577e-15 l -3.6657159948547573,6.3492063492063435 l 3.6657159948547657,6.349206349206338 l 7.3314319897095235,-3.2558098393795747e-15 l 3.66571599485476,-6.349206349206342 l 7.3314319897095235,-3.2558098393795747e-15 l 3.6657159948547657,6.349206349206338 l 7.3314319897095235,-3.2558098393795747e-15 l 3.66571599485476,-6.349206349206342 l -3.6657159948547626,-6.34920634920634 l 3.66571599485476,-6.349206349206342 l 7.3314319897095235,-3.2558098393795747e-15 l 3.6657159948547657,6.349206349206338 l -3.6657159948547573,6.3492063492063435 l 3.6657159948547657,6.349206349206338 l 7.3314319897095235,-3.2558098393795747e-15 l 3.66571599485476,-6.349206349206342 l 7.3314319897095235,-3.2558098393795747e-15 l 3.6657159948547657,6.349206349206338 l 7.3314319897095235,-3.2558098393795747e-15 l 3.66571599485476,-6.349206349206342 l -3.6657159948547626,-6.34920634920634 l -7.3314319897095235,-8.978414719364279e-16 l -3.6657159948547626,-6.34920634920634 l 3.66571599485476,-6.349206349206342 l -3.6657159948547626,-6.34920634920634 l -7.3314319897095235,-8.978414719364279e-16 l -3.665715994854765,6.349206349206338 l -7.3314319897095235,-8.978414719364279e-16 l -3.6657159948547626,-6.34920634920634 l 3.66571599485476,-6.349206349206342 l 7.3314319897095235,-3.2558098393795747e-15 l 3.66571599485476,-6.349206349206342 l -3.6657159948547626,-6.34920634920634 l -7.3314319897095235,-8.978414719364279e-16 l -3.6657159948547626,-6.34920634920634 l 3.66571599485476,-6.349206349206342 l -3.6657159948547626,-6.34920634920634 l -7.3314319897095235,-8.978414719364279e-16 l -3.665715994854765,6.349206349206338 l 3.6657159948547564,6.3492063492063435 l -3.665715994854765,6.349206349206338 l -7.3314319897095235,-8.978414719364279e-16 l -3.6657159948547626,-6.34920634920634 l -7.3314319897095235,-8.978414719364279e-16 l -3.665715994854765,6.349206349206338 l -7.3314319897095235,-8.978414719364279e-16 l -3.6657159948547626,-6.34920634920634 l 3.66571599485476,-6.349206349206342 l 7.3314319897095235,-3.2558098393795747e-15 l 3.66571599485476,-6.349206349206342 l -3.6657159948547626,-6.34920634920634 l 3.66571599485476,-6.349206349206342 l 7.3314319897095235,-3.2558098393795747e-15 l 3.6657159948547657,6.349206349206338 l 7.3314319897095235,-3.2558098393795747e-15 l 3.66571599485476,-6.349206349206342 l -3.6657159948547626,-6.34920634920634 l -7.3314319897095235,-8.978414719364279e-16 l -3.6657159948547626,-6.34920634920634 l 3.66571599485476,-6.349206349206342 l 7.3314319897095235,-3.2558098393795747e-15 l 3.66571599485476,-6.349206349206342 l -3.6657159948547626,-6.34920634920634 l 3.66571599485476,-6.349206349206342 l 7.3314319897095235,-3.2558098393795747e-15 l 3.6657159948547657,6.349206349206338 l -3.6657159948547573,6.3492063492063435 l 3.6657159948547657,6.349206349206338 l 7.3314319897095235,-3.2558098393795747e-15 l 3.66571599485476,-6.349206349206342 l 7.3314319897095235,-3.2558098393795747e-15 l 3.6657159948547657,6.349206349206338 l 7.3314319897095235,-3.2558098393795747e-15 l 3.66571599485476,-6.349206349206342 l -3.6657159948547626,-6.34920634920634 l -7.3314319897095235,-8.978414719364279e-16 l -3.6657159948547626,-6.34920634920634 l 3.66571599485476,-6.349206349206342 l -3.6657159948547626,-6.34920634920634 l -7.3314319897095235,-8.978414719364279e-16 l -3.665715994854765,6.349206349206338 l -7.3314319897095235,-8.978414719364279e-16 l -3.6657159948547626,-6.34920634920634 l 3.66571599485476,-6.349206349206342 l 7.3314319897095235,-3.2558098393795747e-15 l 3.66571599485476,-6.349206349206342 l -3.6657159948547626,-6.34920634920634 l 3.66571599485476,-6.349206349206342 l 7.3314319897095235,-3.2558098393795747e-15 l 3.6657159948547657,6.349206349206338 l 7.3314319897095235,-3.2558098393795747e-15 l 3.66571599485476,-6.349206349206342 l -3.6657159948547626,-6.34920634920634 l -7.3314319897095235,-8.978414719364279e-16 l -3.6657159948547626,-6.34920634920634 l 3.66571599485476,-6.349206349206342 l 7.3314319897095235,-3.2558098393795747e-15 l 3.66571599485476,-6.349206349206342 l -3.6657159948547626,-6.34920634920634 l 3.66571599485476,-6.349206349206342 l 7.3314319897095235,-3.2558098393795747e-15 l 3.6657159948547657,6.349206349206338 l -3.6657159948547573,6.3492063492063435 l 3.6657159948547657,6.349206349206338 l 7.3314319897095235,-3.2558098393795747e-15 l 3.6657159948547657,6.349206349206338 l -3.6657159948547573,6.3492063492063435 l -7.3314319897095235,7.409461150695577e-15 l -3.6657159948547573,6.3492063492063435 l 3.6657159948547657,6.349206349206338 l 7.3314319897095235,-3.2558098393795747e-15 l 3.66571599485476,-6.349206349206342 l 7.3314319897095235,-3.2558098393795747e-15 l 3.6657159948547657,6.349206349206338 l -3.6657159948547573,6.3492063492063435 l 3.6657159948547657,6.349206349206338 l 7.3314319897095235,-3.2558098393795747e-15 l 3.6657159948547657,6.349206349206338 l -3.6657159948547573,6.3492063492063435 l -7.3314319897095235,7.409461150695577e-15 l -3.6657159948547706,-6.3492063492063355 l -7.3314319897095235,7.409461150695577e-15 l -3.6657159948547573,6.3492063492063435 l 3.6657159948547657,6.349206349206338 l -3.6657159948547573,6.3492063492063435 l -7.3314319897095235,7.409461150695577e-15 l -3.6657159948547573,6.3492063492063435 l 3.6657159948547657,6.349206349206338 l 7.3314319897095235,-3.2558098393795747e-15 l 3.66571599485476,-6.349206349206342 l 7.3314319897095235,-3.2558098393795747e-15 l 3.6657159948547657,6.349206349206338 l 7.3314319897095235,-3.2558098393795747e-15 l 3.66571599485476,-6.349206349206342 l -3.6657159948547626,-6.34920634920634 l 3.66571599485476,-6.349206349206342 l 7.3314319897095235,-3.2558098393795747e-15 l 3.6657159948547657,6.349206349206338 l -3.6657159948547573,6.3492063492063435 l 3.6657159948547657,6.349206349206338 l 7.3314319897095235,-3.2558098393795747e-15 l 3.6657159948547657,6.349206349206338 l -3.6657159948547573,6.3492063492063435 l -7.3314319897095235,7.409461150695577e-15 l -3.6657159948547573,6.3492063492063435 l 3.6657159948547657,6.349206349206338 l 7.3314319897095235,-3.2558098393795747e-15 l 3.66571599485476,-6.349206349206342 l 7.3314319897095235,-3.2558098393795747e-15 l 3.6657159948547657,6.349206349206338 l -3.6657159948547573,6.3492063492063435 l 3.6657159948547657,6.349206349206338 l 7.3314319897095235,-3.2558098393795747e-15 l 3.6657159948547657,6.349206349206338 l -3.6657159948547573,6.3492063492063435 l -7.3314319897095235,7.409461150695577e-15 l -3.6657159948547706,-6.3492063492063355 l -7.3314319897095235,7.409461150695577e-15 l -3.6657159948547573,6.3492063492063435 l -7.3314319897095235,7.409461150695577e-15 l -3.6657159948547706,-6.3492063492063355 l 3.6657159948547506,-6.349206349206347 l -3.6657159948547706,-6.3492063492063355 l -7.3314319897095235,7.409461150695577e-15 l -3.6657159948547573,6.3492063492063435 l 3.6657159948547657,6.349206349206338 l -3.6657159948547573,6.3492063492063435 l -7.3314319897095235,7.409461150695577e-15 l -3.6657159948547573,6.3492063492063435 l 3.6657159948547657,6.349206349206338 l 7.3314319897095235,-3.2558098393795747e-15 l 3.6657159948547657,6.349206349206338 l -3.6657159948547573,6.3492063492063435 l -7.3314319897095235,7.409461150695577e-15 l -3.6657159948547706,-6.3492063492063355 l -7.3314319897095235,7.409461150695577e-15 l -3.6657159948547573,6.3492063492063435 l 3.6657159948547657,6.349206349206338 l -3.6657159948547573,6.3492063492063435 l -7.3314319897095235,7.409461150695577e-15 l -3.6657159948547573,6.3492063492063435 l 3.6657159948547657,6.349206349206338 l 7.3314319897095235,-3.2558098393795747e-15 l 3.66571599485476,-6.349206349206342 l 7.3314319897095235,-3.2558098393795747e-15 l 3.6657159948547657,6.349206349206338 l 7.3314319897095235,-3.2558098393795747e-15 l 3.66571599485476,-6.349206349206342 l -3.6657159948547626,-6.34920634920634 l 3.66571599485476,-6.349206349206342 l 7.3314319897095235,-3.2558098393795747e-15 l 3.6657159948547657,6.349206349206338 l -3.6657159948547573,6.3492063492063435 l 3.6657159948547657,6.349206349206338 l 7.3314319897095235,-3.2558098393795747e-15 l 3.66571599485476,-6.349206349206342 l 7.3314319897095235,-3.2558098393795747e-15 l 3.6657159948547657,6.349206349206338 l 7.3314319897095235,-3.2558098393795747e-15 l 3.66571599485476,-6.349206349206342 l -3.6657159948547626,-6.34920634920634 l -7.3314319897095235,-8.978414719364279e-16 l -3.6657159948547626,-6.34920634920634 l 3.66571599485476,-6.349206349206342 l 7.3314319897095235,-3.2558098393795747e-15 l 3.66571599485476,-6.349206349206342 l -3.6657159948547626,-6.34920634920634 l 3.66571599485476,-6.349206349206342 l 7.3314319897095235,-3.2558098393795747e-15 l 3.6657159948547657,6.349206349206338 l -3.6657159948547573,6.3492063492063435 l 3.6657159948547657,6.349206349206338 l 7.3314319897095235,-3.2558098393795747e-15 l 3.6657159948547657,6.349206349206338 l -3.6657159948547573,6.3492063492063435 l -7.3314319897095235,7.409461150695577e-15 l -3.6657159948547573,6.3492063492063435 l 3.6657159948547657,6.349206349206338 l 7.3314319897095235,-3.2558098393795747e-15 l 3.66571599485476,-6.349206349206342 l 7.3314319897095235,-3.2558098393795747e-15 l 3.6657159948547657,6.349206349206338 l -3.6657159948547573,6.3492063492063435 l 3.6657159948547657,6.349206349206338 l 7.3314319897095235,-3.2558098393795747e-15 l 3.6657159948547657,6.349206349206338 l -3.6657159948547573,6.3492063492063435 l -7.3314319897095235,7.409461150695577e-15 l -3.6657159948547706,-6.3492063492063355 l -7.3314319897095235,7.409461150695577e-15 l -3.6657159948547573,6.3492063492063435 l 3.6657159948547657,6.349206349206338 l -3.6657159948547573,6.3492063492063435 l -7.3314319897095235,7.409461150695577e-15 l -3.6657159948547573,6.3492063492063435 l 3.6657159948547657,6.349206349206338 l 7.3314319897095235,-3.2558098393795747e-15 l 3.66571599485476,-6.349206349206342 l 7.3314319897095235,-3.2558098393795747e-15 l 3.6657159948547657,6.349206349206338 l 7.3314319897095235,-3.2558098393795747e-15 l 3.66571599485476,-6.349206349206342 l -3.6657159948547626,-6.34920634920634 l 3.66571599485476,-6.349206349206342 l 7.3314319897095235,-3.2558098393795747e-15 l 3.6657159948547657,6.349206349206338 l -3.6657159948547573,6.3492063492063435 l 3.6657159948547657,6.349206349206338 l 7.3314319897095235,-3.2558098393795747e-15 l 3.6657159948547657,6.349206349206338 l -3.6657159948547573,6.3492063492063435 l -7.3314319897095235,7.409461150695577e-15 l -3.6657159948547573,6.3492063492063435 l 3.6657159948547657,6.349206349206338 l 7.3314319897095235,-3.2558098393795747e-15 l 3.66571599485476,-6.349206349206342 l 7.3314319897095235,-3.2558098393795747e-15 l 3.6657159948547657,6.349206349206338 l -3.6657159948547573,6.3492063492063435 l 3.6657159948547657,6.349206349206338 l 7.3314319897095235,-3.2558098393795747e-15 l 3.6657159948547657,6.349206349206338 l -3.6657159948547573,6.3492063492063435 l -7.3314319897095235,7.409461150695577e-15 l -3.6657159948547706,-6.3492063492063355 l -7.3314319897095235,7.409461150695577e-15 l -3.6657159948547573,6.3492063492063435 l -7.3314319897095235,7.409461150695577e-15 l -3.6657159948547706,-6.3492063492063355 l 3.6657159948547506,-6.349206349206347 l -3.6657159948547706,-6.3492063492063355 l -7.3314319897095235,7.409461150695577e-15 l -3.6657159948547573,6.3492063492063435 l 3.6657159948547657,6.349206349206338 l -3.6657159948547573,6.3492063492063435 l -7.3314319897095235,7.409461150695577e-15 l -3.6657159948547706,-6.3492063492063355 l -7.3314319897095235,7.409461150695577e-15 l -3.6657159948547573,6.3492063492063435 l -7.3314319897095235,7.409461150695577e-15 l -3.6657159948547706,-6.3492063492063355 l 3.6657159948547506,-6.349206349206347 l 7.3314319897095235,-1.4818922301391155e-14 l 3.6657159948547506,-6.349206349206347 l -3.6657159948547706,-6.3492063492063355 l -7.3314319897095235,7.409461150695577e-15 l -3.6657159948547706,-6.3492063492063355 l 3.6657159948547506,-6.349206349206347 l -3.6657159948547706,-6.3492063492063355 l -7.3314319897095235,7.409461150695577e-15 l -3.6657159948547573,6.3492063492063435 l 3.6657159948547657,6.349206349206338 l -3.6657159948547573,6.3492063492063435 l -7.3314319897095235,7.409461150695577e-15 l -3.6657159948547573,6.3492063492063435 l 3.6657159948547657,6.349206349206338 l 7.3314319897095235,-3.2558098393795747e-15 l 3.6657159948547657,6.349206349206338 l -3.6657159948547573,6.3492063492063435 l -7.3314319897095235,7.409461150695577e-15 l -3.6657159948547706,-6.3492063492063355 l -7.3314319897095235,7.409461150695577e-15 l -3.6657159948547573,6.3492063492063435 l 3.6657159948547657,6.349206349206338 l -3.6657159948547573,6.3492063492063435 l -7.3314319897095235,7.409461150695577e-15 l -3.6657159948547573,6.3492063492063435 l 3.6657159948547657,6.349206349206338 l 7.3314319897095235,-3.2558098393795747e-15 l 3.66571599485476,-6.349206349206342 l 7.3314319897095235,-3.2558098393795747e-15 l 3.6657159948547657,6.349206349206338 l -3.6657159948547573,6.3492063492063435 l 3.6657159948547657,6.349206349206338 l 7.3314319897095235,-3.2558098393795747e-15 l 3.6657159948547657,6.349206349206338 l -3.6657159948547573,6.3492063492063435 l -7.3314319897095235,7.409461150695577e-15 l -3.6657159948547706,-6.3492063492063355 l -7.3314319897095235,7.409461150695577e-15 l -3.6657159948547573,6.3492063492063435 l -7.3314319897095235,7.409461150695577e-15 l -3.6657159948547706,-6.3492063492063355 l 3.6657159948547506,-6.349206349206347 l -3.6657159948547706,-6.3492063492063355 l -7.3314319897095235,7.409461150695577e-15 l -3.6657159948547573,6.3492063492063435 l 3.6657159948547657,6.349206349206338 l -3.6657159948547573,6.3492063492063435 l -7.3314319897095235,7.409461150695577e-15 l -3.6657159948547573,6.3492063492063435 l 3.6657159948547657,6.349206349206338 l 7.3314319897095235,-3.2558098393795747e-15 l 3.6657159948547657,6.349206349206338 l -3.6657159948547573,6.3492063492063435 l -7.3314319897095235,7.409461150695577e-15 l -3.6657159948547706,-6.3492063492063355 l -7.3314319897095235,7.409461150695577e-15 l -3.6657159948547573,6.3492063492063435 l 3.6657159948547657,6.349206349206338 l -3.6657159948547573,6.3492063492063435 l -7.3314319897095235,7.409461150695577e-15 l -3.6657159948547573,6.3492063492063435 l 3.6657159948547657,6.349206349206338 l 7.3314319897095235,-3.2558098393795747e-15 l 3.66571599485476,-6.349206349206342 l 7.3314319897095235,-3.2558098393795747e-15 l 3.6657159948547657,6.349206349206338 l 7.3314319897095235,-3.2558098393795747e-15 l 3.66571599485476,-6.349206349206342 l -3.6657159948547626,-6.34920634920634 l 3.66571599485476,-6.349206349206342 l 7.3314319897095235,-3.2558098393795747e-15 l 3.6657159948547657,6.349206349206338 l -3.6657159948547573,6.3492063492063435 l 3.6657159948547657,6.349206349206338 l 7.3314319897095235,-3.2558098393795747e-15 l 3.66571599485476,-6.349206349206342 l 7.3314319897095235,-3.2558098393795747e-15 l 3.6657159948547657,6.349206349206338 l 7.3314319897095235,-3.2558098393795747e-15 l 3.66571599485476,-6.349206349206342 l -3.6657159948547626,-6.34920634920634 l -7.3314319897095235,-8.978414719364279e-16 l -3.6657159948547626,-6.34920634920634 l 3.66571599485476,-6.349206349206342 l 7.3314319897095235,-3.2558098393795747e-15 l 3.66571599485476,-6.349206349206342 l -3.6657159948547626,-6.34920634920634 l 3.66571599485476,-6.349206349206342 l 7.3314319897095235,-3.2558098393795747e-15 l 3.6657159948547657,6.349206349206338 l -3.6657159948547573,6.3492063492063435 l 3.6657159948547657,6.349206349206338 l 7.3314319897095235,-3.2558098393795747e-15 l 3.6657159948547657,6.349206349206338 l -3.6657159948547573,6.3492063492063435 l -7.3314319897095235,7.409461150695577e-15 l -3.6657159948547573,6.3492063492063435 l 3.6657159948547657,6.349206349206338 l 7.3314319897095235,-3.2558098393795747e-15 l 3.66571599485476,-6.349206349206342 l 7.3314319897095235,-3.2558098393795747e-15 l 3.6657159948547657,6.349206349206338 l 7.3314319897095235,-3.2558098393795747e-15 l 3.66571599485476,-6.349206349206342 l -3.6657159948547626,-6.34920634920634 l 3.66571599485476,-6.349206349206342 l 7.3314319897095235,-3.2558098393795747e-15 l 3.6657159948547657,6.349206349206338 l -3.6657159948547573,6.3492063492063435 l 3.6657159948547657,6.349206349206338 l 7.3314319897095235,-3.2558098393795747e-15 l 3.66571599485476,-6.349206349206342 l 7.3314319897095235,-3.2558098393795747e-15 l 3.6657159948547657,6.349206349206338 l 7.3314319897095235,-3.2558098393795747e-15 l 3.66571599485476,-6.349206349206342 l -3.6657159948547626,-6.34920634920634 l -7.3314319897095235,-8.978414719364279e-16 l -3.6657159948547626,-6.34920634920634 l 3.66571599485476,-6.349206349206342 l -3.6657159948547626,-6.34920634920634 l -7.3314319897095235,-8.978414719364279e-16 l -3.665715994854765,6.349206349206338 l -7.3314319897095235,-8.978414719364279e-16 l -3.6657159948547626,-6.34920634920634 l 3.66571599485476,-6.349206349206342 l 7.3314319897095235,-3.2558098393795747e-15 l 3.66571599485476,-6.349206349206342 l -3.6657159948547626,-6.34920634920634 l 3.66571599485476,-6.349206349206342 l 7.3314319897095235,-3.2558098393795747e-15 l 3.6657159948547657,6.349206349206338 l 7.3314319897095235,-3.2558098393795747e-15 l 3.66571599485476,-6.349206349206342 l -3.6657159948547626,-6.34920634920634 l -7.3314319897095235,-8.978414719364279e-16 l -3.6657159948547626,-6.34920634920634 l 3.66571599485476,-6.349206349206342 l 7.3314319897095235,-3.2558098393795747e-15 l 3.66571599485476,-6.349206349206342 l -3.6657159948547626,-6.34920634920634 l 3.66571599485476,-6.349206349206342 l 7.3314319897095235,-3.2558098393795747e-15 l 3.6657159948547657,6.349206349206338 l -3.6657159948547573,6.3492063492063435 l 3.6657159948547657,6.349206349206338 l 7.3314319897095235,-3.2558098393795747e-15 l 3.6657159948547657,6.349206349206338 l -3.6657159948547573,6.3492063492063435 l -7.3314319897095235,7.409461150695577e-15 l -3.6657159948547573,6.3492063492063435 l 3.6657159948547657,6.349206349206338 l 7.3314319897095235,-3.2558098393795747e-15 l 3.66571599485476,-6.349206349206342 l 7.3314319897095235,-3.2558098393795747e-15 l 3.6657159948547657,6.349206349206338 l -3.6657159948547573,6.3492063492063435 l 3.6657159948547657,6.349206349206338 l 7.3314319897095235,-3.2558098393795747e-15 l 3.6657159948547657,6.349206349206338 l -3.6657159948547573,6.3492063492063435 l -7.3314319897095235,7.409461150695577e-15 l -3.6657159948547706,-6.3492063492063355 l -7.3314319897095235,7.409461150695577e-15 l -3.6657159948547573,6.3492063492063435 l 3.6657159948547657,6.349206349206338 l -3.6657159948547573,6.3492063492063435 l -7.3314319897095235,7.409461150695577e-15 l -3.6657159948547573,6.3492063492063435 l 3.6657159948547657,6.349206349206338 l 7.3314319897095235,-3.2558098393795747e-15 l 3.66571599485476,-6.349206349206342 l 7.3314319897095235,-3.2558098393795747e-15 l 3.6657159948547657,6.349206349206338 l 7.3314319897095235,-3.2558098393795747e-15 l 3.66571599485476,-6.349206349206342 l -3.6657159948547626,-6.34920634920634 l 3.66571599485476,-6.349206349206342 l 7.3314319897095235,-3.2558098393795747e-15 l 3.6657159948547657,6.349206349206338 l -3.6657159948547573,6.3492063492063435 l 3.6657159948547657,6.349206349206338 l 7.3314319897095235,-3.2558098393795747e-15 "/></g></svg>