<svg xmlns="http://www.w3.org/2000/svg" height="186.4954" stroke-opacity="1" viewBox="0 0 300 186" font-size="1" width="300.0000" xmlns:xlink="http://www.w3.org/1999/xlink" stroke="rgb(0,0,0)" version="1.1"><defs></defs><g stroke-linejoin="miter" stroke-opacity="1.0" fill-opacity="0.0" stroke="rgb(0,0,0)" stroke-width="0.9461383772467437" fill="rgb(0,0,0)" stroke-linecap="butt" stroke-miterlimit="10.0"><path d="M 126.5943,39.0062 l 108.8874,109.6354 "/></g><g stroke-linejoin="miter" stroke-opacity="1.0" fill-opacity="0.0" stroke="rgb(0,0,0)" stroke-width="0.9461383772467437" fill="rgb(0,0,0)" stroke-linecap="butt" stroke-miterlimit="10.0"><path d="M 126.5943,39.0062 l -64.1113,109.6354 "/></g><g stroke-linejoin="miter" stroke-opacity="1.0" fill-opacity="0.0" stroke="rgb(0,0,0)" stroke-width="0.9461383772467437" fill="rgb(0,0,0)" stroke-linecap="butt" stroke-miterlimit="10.0"><path d="M 126.5943,39.0062 l -108.8874,109.6354 "/></g><g stroke-linejoin="miter" stroke-opacity="1.0" fill-opacity="0.0" stroke="rgb(0,0,0)" stroke-width="0.9461383772467437" fill="rgb(0,0,0)" stroke-linecap="butt" stroke-miterlimit="10.0"><path d="M 286.3636,178.0183 l -50.8820,-88.1301 l -50.8820,88.1301 Z"/></g><g stroke-linejoin="miter" stroke-opacity="1.0" fill-opacity="0.0" stroke="rgb(0,0,0)" stroke-width="0.9461383772467437" fill="rgb(0,0,0)" stroke-linecap="butt" stroke-miterlimit="10.0"><path d="M 164.2469,148.6416 c 0.0000,-11.2405 -9.1123,-20.3528 -20.3528 -20.3528c -11.2405,-0.0000 -20.3528,9.1123 -20.3528 20.3528c -0.0000,11.2405 9.1123,20.3528 20.3528 20.3528c 11.2405,0.0000 20.3528,-9.1123 20.3528 -20.3528Z"/></g><g stroke-linejoin="miter" stroke-opacity="1.0" fill-opacity="0.0" stroke="rgb(0,0,0)" stroke-width="0.9461383772467437" fill="rgb(0,0,0)" stroke-linecap="butt" stroke-miterlimit="10.0"><path d="M 123.5414,148.6416 c 0.0000,-11.2405 -9.1123,-20.3528 -20.3528 -20.3528c -11.2405,-0.0000 -20.3528,9.1123 -20.3528 20.3528c -0.0000,11.2405 9.1123,20.3528 20.3528 20.3528c 11.2405,0.0000 20.3528,-9.1123 20.3528 -20.3528Z"/></g><g stroke-linejoin="miter" stroke-opacity="1.0" fill-opacity="0.0" stroke="rgb(0,0,0)" stroke-width="0.9461383772467437" fill="rgb(0,0,0)" stroke-linecap="butt" stroke-miterlimit="10.0"><path d="M 82.8358,148.6416 c 0.0000,-11.2405 -9.1123,-20.3528 -20.3528 -20.3528c -11.2405,-0.0000 -20.3528,9.1123 -20.3528 20.3528c -0.0000,11.2405 9.1123,20.3528 20.3528 20.3528c 11.2405,0.0000 20.3528,-9.1123 20.3528 -20.3528Z"/></g><g stroke-linejoin="miter" stroke-opacity="1.0" fill-opacity="0.0" stroke="rgb(0,0,0)" stroke-width="0.9461383772467437" fill="rgb(0,0,0)" stroke-linecap="butt" stroke-miterlimit="10.0"><path d="M 21.7775,148.6416 c 0.0000,-2.2481 -1.8225,-4.0706 -4.0706 -4.0706c -2.2481,-0.0000 -4.0706,1.8225 -4.0706 4.0706c -0.0000,2.2481 1.8225,4.0706 4.0706 4.0706c 2.2481,0.0000 4.0706,-1.8225 4.0706 -4.0706Z"/></g><g stroke-linejoin="miter" stroke-opacity="1.0" fill-opacity="0.0" stroke="rgb(0,0,0)" stroke-width="0.9461383772467437" fill="rgb(0,0,0)" stroke-linecap="butt" stroke-miterlimit="10.0"><path d="M 136.7707,69.5354 l -0.0000,-61.0583 h -20.3528 l -0.0000,61.0583 Z"/></g></svg>