<?xml version="1.0" encoding="UTF-8"?>
<!DOCTYPE svg PUBLIC "-//W3C//DTD SVG 1.1//EN"
    "http://www.w3.org/Graphics/SVG/1.1/DTD/svg11.dtd">
<svg xmlns="http://www.w3.org/2000/svg" xmlns:xlink="http://www.w3.org/1999/xlink" version="1.1" width="300.0" height="299.9999999999999" font-size="1" viewBox="0 0 300 300"><g><g stroke="rgb(0,0,0)" stroke-opacity="1.0" fill-opacity="0.0" stroke-width="1.0e-2" stroke-linecap="butt" stroke-linejoin="miter" font-size="1.0em" stroke-miterlimit="10.0"><g transform="matrix(29.99999999999999,0.0,0.0,29.99999999999999,150.00000000000003,149.99999999999994)"><g fill-opacity="0.0" stroke-width="0.0"><path d="M 1.5,-4.330127018922193 l 0.5,-0.8660254037844393 l -0.5,-0.8660254037844384 h -1.0 l -0.5,0.8660254037844384 l 0.5,0.8660254037844393 " /></g><g fill-opacity="0.0" stroke-width="0.0"><path d="M 3.5,-4.330127018922193 l -0.5,-0.8660254037844393 h -1.0 l -0.5,0.8660254037844393 l 0.5,0.8660254037844384 h 1.0 " /></g><g fill-opacity="0.0" stroke-width="0.0"><path d="M 4.5,-4.330127018922193 l 0.5,-0.8660254037844393 l -0.5,-0.8660254037844384 h -1.0 l -0.5,0.8660254037844384 l 0.5,0.8660254037844393 " /></g><g fill-opacity="0.0" stroke-width="0.0"><path d="M 5.0,-3.4641016151377544 h 1.0 l 0.5,-0.8660254037844384 l -0.5,-0.8660254037844393 h -1.0 l -0.5,0.8660254037844393 " /></g><g fill-opacity="0.0" stroke-width="0.0"><path d="M 4.5,-2.598076211353316 l 0.5,-0.8660254037844384 l -0.5,-0.8660254037844384 h -1.0 l -0.5,0.8660254037844384 l 0.5,0.8660254037844384 " /></g><g fill-opacity="0.0" stroke-width="0.0"><path d="M 5.0,-1.7320508075688772 h 1.0 l 0.5,-0.8660254037844388 l -0.5,-0.8660254037844384 h -1.0 l -0.5,0.8660254037844384 " /></g><g fill-opacity="0.0" stroke-width="0.0"><path d="M 5.0,0.0 h 1.0 l 0.5,-0.8660254037844386 l -0.5,-0.8660254037844386 h -1.0 l -0.5,0.8660254037844386 " /></g><g fill-opacity="0.0" stroke-width="0.0"><path d="M 5.0,1.7320508075688772 h 1.0 l 0.5,-0.8660254037844386 l -0.5,-0.8660254037844386 h -1.0 l -0.5,0.8660254037844386 " /></g><g fill-opacity="0.0" stroke-width="0.0"><path d="M 5.0,3.4641016151377544 h 1.0 l 0.5,-0.8660254037844384 l -0.5,-0.8660254037844388 h -1.0 l -0.5,0.8660254037844388 " /></g><g fill-opacity="0.0" stroke-width="0.0"><path d="M 4.5,4.330127018922193 l 0.5,0.8660254037844393 h 1.0 l 0.5,-0.8660254037844393 l -0.5,-0.8660254037844384 h -1.0 " /></g><g fill-opacity="0.0" stroke-width="0.0"><path d="M 3.5,4.330127018922193 l -0.5,0.8660254037844393 l 0.5,0.8660254037844384 h 1.0 l 0.5,-0.8660254037844384 l -0.5,-0.8660254037844393 " /></g><g fill-opacity="0.0" stroke-width="0.0"><path d="M 3.0,3.4641016151377544 l 0.5,0.8660254037844384 h 1.0 l 0.5,-0.8660254037844384 l -0.5,-0.8660254037844384 h -1.0 " /></g><g fill-opacity="0.0" stroke-width="0.0"><path d="M 1.5,4.330127018922193 l 0.5,0.8660254037844393 h 1.0 l 0.5,-0.8660254037844393 l -0.5,-0.8660254037844384 h -1.0 " /></g><g fill-opacity="0.0" stroke-width="0.0"><path d="M 0.5,4.330127018922193 l -0.5,0.8660254037844393 l 0.5,0.8660254037844384 h 1.0 l 0.5,-0.8660254037844384 l -0.5,-0.8660254037844393 " /></g><g fill-opacity="0.0" stroke-width="0.0"><path d="M -2.5,4.330127018922193 l -0.5,0.8660254037844393 l 0.5,0.8660254037844384 h 1.0 l 0.5,-0.8660254037844384 l -0.5,-0.8660254037844393 " /></g><g fill-opacity="0.0" stroke-width="0.0"><path d="M -4.5,4.330127018922193 h -1.0 l -0.5,0.8660254037844393 l 0.5,0.8660254037844384 h 1.0 l 0.5,-0.8660254037844384 " /></g><g fill-opacity="0.0" stroke-width="0.0"><path d="M -4.0,3.4641016151377544 l -0.5,0.8660254037844384 l 0.5,0.8660254037844393 h 1.0 l 0.5,-0.8660254037844393 l -0.5,-0.8660254037844384 " /></g><g fill-opacity="0.0" stroke-width="0.0"><path d="M -4.5,2.598076211353316 h -1.0 l -0.5,0.8660254037844384 l 0.5,0.8660254037844384 h 1.0 l 0.5,-0.8660254037844384 " /></g><g fill-opacity="0.0" stroke-width="0.0"><path d="M -4.5,-4.330127018922193 l 0.5,-0.8660254037844393 l -0.5,-0.8660254037844384 h -1.0 l -0.5,0.8660254037844384 l 0.5,0.8660254037844393 " /></g><g fill-opacity="0.0" stroke-width="0.0"><path d="M -2.5,-4.330127018922193 h 1.0 l 0.5,-0.8660254037844393 l -0.5,-0.8660254037844384 h -1.0 l -0.5,0.8660254037844384 " /></g><g fill-opacity="0.0" stroke-width="0.0"><path d="M -4.0,-3.4641016151377544 h 1.0 l 0.5,-0.8660254037844384 l -0.5,-0.8660254037844393 h -1.0 l -0.5,0.8660254037844393 " /></g><g fill-opacity="0.0" stroke-width="0.0"><path d="M -4.5,-2.598076211353316 l 0.5,-0.8660254037844384 l -0.5,-0.8660254037844384 h -1.0 l -0.5,0.8660254037844384 l 0.5,0.8660254037844384 " /></g><g fill-opacity="0.0" stroke-width="0.0"><path d="M -4.5,-0.8660254037844386 l 0.5,-0.8660254037844386 l -0.5,-0.8660254037844388 h -1.0 l -0.5,0.8660254037844388 l 0.5,0.8660254037844386 " /></g><g fill-opacity="0.0" stroke-width="0.0"><path d="M -4.5,0.8660254037844386 l 0.5,-0.8660254037844386 l -0.5,-0.8660254037844386 h -1.0 l -0.5,0.8660254037844386 l 0.5,0.8660254037844386 " /></g><g fill-opacity="0.0" stroke-width="0.0"><path d="M -4.0,1.7320508075688772 l -0.5,-0.8660254037844386 h -1.0 l -0.5,0.8660254037844386 l 0.5,0.8660254037844388 h 1.0 " /></g><g fill-opacity="0.0" stroke-width="0.0"><path d="M -2.5,2.598076211353316 l -0.5,-0.8660254037844388 h -1.0 l -0.5,0.8660254037844388 l 0.5,0.8660254037844384 h 1.0 " /></g><g fill-opacity="0.0" stroke-width="0.0"><path d="M -1.0,3.4641016151377544 l -0.5,-0.8660254037844384 h -1.0 l -0.5,0.8660254037844384 l 0.5,0.8660254037844384 h 1.0 " /></g><g fill-opacity="0.0" stroke-width="0.0"><path d="M 0.0,3.4641016151377544 h -1.0 l -0.5,0.8660254037844384 l 0.5,0.8660254037844393 h 1.0 l 0.5,-0.8660254037844393 " /></g><g fill-opacity="0.0" stroke-width="0.0"><path d="M 1.5,2.598076211353316 h -1.0 l -0.5,0.8660254037844384 l 0.5,0.8660254037844384 h 1.0 l 0.5,-0.8660254037844384 " /></g><g fill-opacity="0.0" stroke-width="0.0"><path d="M 3.0,1.7320508075688772 h -1.0 l -0.5,0.8660254037844388 l 0.5,0.8660254037844384 h 1.0 l 0.5,-0.8660254037844384 " /></g><g fill-opacity="0.0" stroke-width="0.0"><path d="M 3.5,0.8660254037844386 l -0.5,0.8660254037844386 l 0.5,0.8660254037844388 h 1.0 l 0.5,-0.8660254037844388 l -0.5,-0.8660254037844386 " /></g><g fill-opacity="0.0" stroke-width="0.0"><path d="M 3.5,-0.8660254037844386 l -0.5,0.8660254037844386 l 0.5,0.8660254037844386 h 1.0 l 0.5,-0.8660254037844386 l -0.5,-0.8660254037844386 " /></g><g fill-opacity="0.0" stroke-width="0.0"><path d="M 3.0,-1.7320508075688772 l 0.5,0.8660254037844386 h 1.0 l 0.5,-0.8660254037844386 l -0.5,-0.8660254037844388 h -1.0 " /></g><g fill-opacity="0.0" stroke-width="0.0"><path d="M 1.5,-2.598076211353316 l 0.5,0.8660254037844388 h 1.0 l 0.5,-0.8660254037844388 l -0.5,-0.8660254037844384 h -1.0 " /></g><g fill-opacity="0.0" stroke-width="0.0"><path d="M 0.0,-3.4641016151377544 l 0.5,0.8660254037844384 h 1.0 l 0.5,-0.8660254037844384 l -0.5,-0.8660254037844384 h -1.0 " /></g><g fill-opacity="0.0" stroke-width="0.0"><path d="M -1.0,-3.4641016151377544 h 1.0 l 0.5,-0.8660254037844384 l -0.5,-0.8660254037844393 h -1.0 l -0.5,0.8660254037844393 " /></g><g fill-opacity="0.0" stroke-width="0.0"><path d="M -2.5,-2.598076211353316 h 1.0 l 0.5,-0.8660254037844384 l -0.5,-0.8660254037844384 h -1.0 l -0.5,0.8660254037844384 " /></g><g fill-opacity="0.0" stroke-width="0.0"><path d="M -3.0,-1.7320508075688772 l 0.5,-0.8660254037844388 l -0.5,-0.8660254037844384 h -1.0 l -0.5,0.8660254037844384 l 0.5,0.8660254037844388 " /></g><g fill-opacity="0.0" stroke-width="0.0"><path d="M -3.0,0.0 l 0.5,-0.8660254037844386 l -0.5,-0.8660254037844386 h -1.0 l -0.5,0.8660254037844386 l 0.5,0.8660254037844386 " /></g><g fill-opacity="0.0" stroke-width="0.0"><path d="M -2.5,0.8660254037844386 l -0.5,-0.8660254037844386 h -1.0 l -0.5,0.8660254037844386 l 0.5,0.8660254037844386 h 1.0 " /></g><g fill-opacity="0.0" stroke-width="0.0"><path d="M -1.0,1.7320508075688772 l -0.5,-0.8660254037844386 h -1.0 l -0.5,0.8660254037844386 l 0.5,0.8660254037844388 h 1.0 " /></g><g fill-opacity="0.0" stroke-width="0.0"><path d="M 0.0,1.7320508075688772 h -1.0 l -0.5,0.8660254037844388 l 0.5,0.8660254037844384 h 1.0 l 0.5,-0.8660254037844384 " /></g><g fill-opacity="0.0" stroke-width="0.0"><path d="M 1.5,0.8660254037844386 h -1.0 l -0.5,0.8660254037844386 l 0.5,0.8660254037844388 h 1.0 l 0.5,-0.8660254037844388 " /></g><g fill-opacity="0.0" stroke-width="0.0"><path d="M 2.0,0.0 l -0.5,0.8660254037844386 l 0.5,0.8660254037844386 h 1.0 l 0.5,-0.8660254037844386 l -0.5,-0.8660254037844386 " /></g><g fill-opacity="0.0" stroke-width="0.0"><path d="M 1.5,-0.8660254037844386 l 0.5,0.8660254037844386 h 1.0 l 0.5,-0.8660254037844386 l -0.5,-0.8660254037844386 h -1.0 " /></g><g fill-opacity="0.0" stroke-width="0.0"><path d="M 0.0,-1.7320508075688772 l 0.5,0.8660254037844386 h 1.0 l 0.5,-0.8660254037844386 l -0.5,-0.8660254037844388 h -1.0 " /></g><g fill-opacity="0.0" stroke-width="0.0"><path d="M -1.0,-1.7320508075688772 h 1.0 l 0.5,-0.8660254037844388 l -0.5,-0.8660254037844384 h -1.0 l -0.5,0.8660254037844384 " /></g><g fill-opacity="0.0" stroke-width="0.0"><path d="M -1.5,-0.8660254037844386 l 0.5,-0.8660254037844386 l -0.5,-0.8660254037844388 h -1.0 l -0.5,0.8660254037844388 l 0.5,0.8660254037844386 " /></g><g fill-opacity="0.0" stroke-width="0.0"><path d="M -1.0,0.0 l -0.5,-0.8660254037844386 h -1.0 l -0.5,0.8660254037844386 l 0.5,0.8660254037844386 h 1.0 " /></g><g fill-opacity="0.0" stroke-width="0.0"><path d="M 0.0,0.0 l 0.5,0.8660254037844386 h 1.0 l 0.5,-0.8660254037844386 l -0.5,-0.8660254037844386 h -1.0 " /></g><g fill-opacity="0.0" stroke-width="0.0"><path d="M 0.0,0.0 l 0.5,-0.8660254037844386 l -0.5,-0.8660254037844386 h -1.0 l -0.5,0.8660254037844386 l 0.5,0.8660254037844386 " /></g><g fill-opacity="0.0" stroke-width="0.0"><path d="M 0.0,0.0 h -1.0 l -0.5,0.8660254037844386 l 0.5,0.8660254037844386 h 1.0 l 0.5,-0.8660254037844386 " /></g><g fill-opacity="0.0" stroke-width="2.0e-2"><path d="M 0.0,-5.196152422706632 l 0.5,0.8660254037844393 " /></g><g fill-opacity="0.0" stroke-width="2.0e-2"><path d="M 1.5,-4.330127018922193 l 0.5,-0.8660254037844393 " /></g><g fill-opacity="0.0" stroke-width="2.0e-2"><path d="M 0.5,-4.330127018922193 h 1.0 " /></g><g fill-opacity="0.0" stroke-width="2.0e-2"><path d="M 1.5,-4.330127018922193 l 0.5,0.8660254037844384 " /></g><g fill-opacity="0.0" stroke-width="2.0e-2"><path d="M 3.0,-3.4641016151377544 l 0.5,0.8660254037844384 " /></g><g fill-opacity="0.0" stroke-width="2.0e-2"><path d="M 2.0,-3.4641016151377544 h 1.0 " /></g><g fill-opacity="0.0" stroke-width="2.0e-2"><path d="M 3.0,-5.196152422706632 l 0.5,0.8660254037844393 " /></g><g fill-opacity="0.0" stroke-width="2.0e-2"><path d="M 3.0,-3.4641016151377544 l 0.5,-0.8660254037844384 " /></g><g fill-opacity="0.0" stroke-width="2.0e-2"><path d="M 4.5,-4.330127018922193 l 0.5,-0.8660254037844393 " /></g><g fill-opacity="0.0" stroke-width="2.0e-2"><path d="M 3.5,-4.330127018922193 h 1.0 " /></g><g fill-opacity="0.0" stroke-width="2.0e-2"><path d="M 5.0,-3.4641016151377544 h 1.0 " /></g><g fill-opacity="0.0" stroke-width="2.0e-2"><path d="M 4.5,-4.330127018922193 l 0.5,0.8660254037844384 " /></g><g fill-opacity="0.0" stroke-width="2.0e-2"><path d="M 4.5,-2.598076211353316 l 0.5,-0.8660254037844384 " /></g><g fill-opacity="0.0" stroke-width="2.0e-2"><path d="M 3.5,-2.598076211353316 h 1.0 " /></g><g fill-opacity="0.0" stroke-width="2.0e-2"><path d="M 5.0,-1.7320508075688772 h 1.0 " /></g><g fill-opacity="0.0" stroke-width="2.0e-2"><path d="M 4.5,-2.598076211353316 l 0.5,0.8660254037844388 " /></g><g fill-opacity="0.0" stroke-width="2.0e-2"><path d="M 4.5,-0.8660254037844386 l 0.5,-0.8660254037844386 " /></g><g fill-opacity="0.0" stroke-width="2.0e-2"><path d="M 5.0,0.0 h 1.0 " /></g><g fill-opacity="0.0" stroke-width="2.0e-2"><path d="M 4.5,-0.8660254037844386 l 0.5,0.8660254037844386 " /></g><g fill-opacity="0.0" stroke-width="2.0e-2"><path d="M 4.5,0.8660254037844386 l 0.5,-0.8660254037844386 " /></g><g fill-opacity="0.0" stroke-width="2.0e-2"><path d="M 5.0,1.7320508075688772 h 1.0 " /></g><g fill-opacity="0.0" stroke-width="2.0e-2"><path d="M 4.5,0.8660254037844386 l 0.5,0.8660254037844386 " /></g><g fill-opacity="0.0" stroke-width="2.0e-2"><path d="M 4.5,2.598076211353316 l 0.5,-0.8660254037844388 " /></g><g fill-opacity="0.0" stroke-width="2.0e-2"><path d="M 3.5,2.598076211353316 h 1.0 " /></g><g fill-opacity="0.0" stroke-width="2.0e-2"><path d="M 5.0,3.4641016151377544 h 1.0 " /></g><g fill-opacity="0.0" stroke-width="2.0e-2"><path d="M 4.5,2.598076211353316 l 0.5,0.8660254037844384 " /></g><g fill-opacity="0.0" stroke-width="2.0e-2"><path d="M 4.5,4.330127018922193 l 0.5,-0.8660254037844384 " /></g><g fill-opacity="0.0" stroke-width="2.0e-2"><path d="M 4.5,4.330127018922193 l 0.5,0.8660254037844393 " /></g><g fill-opacity="0.0" stroke-width="2.0e-2"><path d="M 3.5,4.330127018922193 h 1.0 " /></g><g fill-opacity="0.0" stroke-width="2.0e-2"><path d="M 3.0,5.196152422706632 l 0.5,-0.8660254037844393 " /></g><g fill-opacity="0.0" stroke-width="2.0e-2"><path d="M 3.0,3.4641016151377544 l 0.5,-0.8660254037844384 " /></g><g fill-opacity="0.0" stroke-width="2.0e-2"><path d="M 3.0,3.4641016151377544 l 0.5,0.8660254037844384 " /></g><g fill-opacity="0.0" stroke-width="2.0e-2"><path d="M 2.0,3.4641016151377544 h 1.0 " /></g><g fill-opacity="0.0" stroke-width="2.0e-2"><path d="M 1.5,4.330127018922193 l 0.5,-0.8660254037844384 " /></g><g fill-opacity="0.0" stroke-width="2.0e-2"><path d="M 1.5,4.330127018922193 l 0.5,0.8660254037844393 " /></g><g fill-opacity="0.0" stroke-width="2.0e-2"><path d="M 0.5,4.330127018922193 h 1.0 " /></g><g fill-opacity="0.0" stroke-width="2.0e-2"><path d="M 0.0,5.196152422706632 l 0.5,-0.8660254037844393 " /></g><g fill-opacity="0.0" stroke-width="2.0e-2"><path d="M -1.5,4.330127018922193 l 0.5,0.8660254037844393 " /></g><g fill-opacity="0.0" stroke-width="2.0e-2"><path d="M -2.5,4.330127018922193 h 1.0 " /></g><g fill-opacity="0.0" stroke-width="2.0e-2"><path d="M -3.0,5.196152422706632 l 0.5,-0.8660254037844393 " /></g><g fill-opacity="0.0" stroke-width="2.0e-2"><path d="M -3.0,3.4641016151377544 l 0.5,0.8660254037844384 " /></g><g fill-opacity="0.0" stroke-width="2.0e-2"><path d="M -4.5,4.330127018922193 l 0.5,0.8660254037844393 " /></g><g fill-opacity="0.0" stroke-width="2.0e-2"><path d="M -5.5,4.330127018922193 h 1.0 " /></g><g fill-opacity="0.0" stroke-width="2.0e-2"><path d="M -4.0,3.4641016151377544 h 1.0 " /></g><g fill-opacity="0.0" stroke-width="2.0e-2"><path d="M -4.5,4.330127018922193 l 0.5,-0.8660254037844384 " /></g><g fill-opacity="0.0" stroke-width="2.0e-2"><path d="M -4.5,2.598076211353316 l 0.5,0.8660254037844384 " /></g><g fill-opacity="0.0" stroke-width="2.0e-2"><path d="M -5.5,2.598076211353316 h 1.0 " /></g><g fill-opacity="0.0" stroke-width="2.0e-2"><path d="M -4.5,-4.330127018922193 l 0.5,-0.8660254037844393 " /></g><g fill-opacity="0.0" stroke-width="2.0e-2"><path d="M -5.5,-4.330127018922193 h 1.0 " /></g><g fill-opacity="0.0" stroke-width="2.0e-2"><path d="M -1.5,-4.330127018922193 l 0.5,-0.8660254037844393 " /></g><g fill-opacity="0.0" stroke-width="2.0e-2"><path d="M -2.5,-4.330127018922193 h 1.0 " /></g><g fill-opacity="0.0" stroke-width="2.0e-2"><path d="M -3.0,-5.196152422706632 l 0.5,0.8660254037844393 " /></g><g fill-opacity="0.0" stroke-width="2.0e-2"><path d="M -3.0,-3.4641016151377544 l 0.5,-0.8660254037844384 " /></g><g fill-opacity="0.0" stroke-width="2.0e-2"><path d="M -4.0,-3.4641016151377544 h 1.0 " /></g><g fill-opacity="0.0" stroke-width="2.0e-2"><path d="M -4.5,-4.330127018922193 l 0.5,0.8660254037844384 " /></g><g fill-opacity="0.0" stroke-width="2.0e-2"><path d="M -4.5,-2.598076211353316 l 0.5,-0.8660254037844384 " /></g><g fill-opacity="0.0" stroke-width="2.0e-2"><path d="M -5.5,-2.598076211353316 h 1.0 " /></g><g fill-opacity="0.0" stroke-width="2.0e-2"><path d="M -4.5,-2.598076211353316 l 0.5,0.8660254037844388 " /></g><g fill-opacity="0.0" stroke-width="2.0e-2"><path d="M -4.5,-0.8660254037844386 l 0.5,-0.8660254037844386 " /></g><g fill-opacity="0.0" stroke-width="2.0e-2"><path d="M -5.5,-0.8660254037844386 h 1.0 " /></g><g fill-opacity="0.0" stroke-width="2.0e-2"><path d="M -4.5,-0.8660254037844386 l 0.5,0.8660254037844386 " /></g><g fill-opacity="0.0" stroke-width="2.0e-2"><path d="M -4.5,0.8660254037844386 l 0.5,-0.8660254037844386 " /></g><g fill-opacity="0.0" stroke-width="2.0e-2"><path d="M -5.5,0.8660254037844386 h 1.0 " /></g><g fill-opacity="0.0" stroke-width="2.0e-2"><path d="M -4.5,0.8660254037844386 l 0.5,0.8660254037844386 " /></g><g fill-opacity="0.0" stroke-width="2.0e-2"><path d="M -4.5,2.598076211353316 l 0.5,-0.8660254037844388 " /></g><g fill-opacity="0.0" stroke-width="2.0e-2"><path d="M -4.0,1.7320508075688772 h 1.0 " /></g><g fill-opacity="0.0" stroke-width="2.0e-2"><path d="M -3.0,1.7320508075688772 l 0.5,0.8660254037844388 " /></g><g fill-opacity="0.0" stroke-width="2.0e-2"><path d="M -3.0,3.4641016151377544 l 0.5,-0.8660254037844384 " /></g><g fill-opacity="0.0" stroke-width="2.0e-2"><path d="M -2.5,2.598076211353316 h 1.0 " /></g><g fill-opacity="0.0" stroke-width="2.0e-2"><path d="M -1.5,2.598076211353316 l 0.5,0.8660254037844384 " /></g><g fill-opacity="0.0" stroke-width="2.0e-2"><path d="M -1.5,4.330127018922193 l 0.5,-0.8660254037844384 " /></g><g fill-opacity="0.0" stroke-width="2.0e-2"><path d="M 0.0,3.4641016151377544 l 0.5,0.8660254037844384 " /></g><g fill-opacity="0.0" stroke-width="2.0e-2"><path d="M -1.0,3.4641016151377544 h 1.0 " /></g><g fill-opacity="0.0" stroke-width="2.0e-2"><path d="M 0.0,3.4641016151377544 l 0.5,-0.8660254037844384 " /></g><g fill-opacity="0.0" stroke-width="2.0e-2"><path d="M 1.5,2.598076211353316 l 0.5,0.8660254037844384 " /></g><g fill-opacity="0.0" stroke-width="2.0e-2"><path d="M 0.5,2.598076211353316 h 1.0 " /></g><g fill-opacity="0.0" stroke-width="2.0e-2"><path d="M 1.5,2.598076211353316 l 0.5,-0.8660254037844388 " /></g><g fill-opacity="0.0" stroke-width="2.0e-2"><path d="M 3.0,1.7320508075688772 l 0.5,0.8660254037844388 " /></g><g fill-opacity="0.0" stroke-width="2.0e-2"><path d="M 2.0,1.7320508075688772 h 1.0 " /></g><g fill-opacity="0.0" stroke-width="2.0e-2"><path d="M 3.5,0.8660254037844386 h 1.0 " /></g><g fill-opacity="0.0" stroke-width="2.0e-2"><path d="M 3.0,1.7320508075688772 l 0.5,-0.8660254037844386 " /></g><g fill-opacity="0.0" stroke-width="2.0e-2"><path d="M 3.0,0.0 l 0.5,0.8660254037844386 " /></g><g fill-opacity="0.0" stroke-width="2.0e-2"><path d="M 3.5,-0.8660254037844386 h 1.0 " /></g><g fill-opacity="0.0" stroke-width="2.0e-2"><path d="M 3.0,0.0 l 0.5,-0.8660254037844386 " /></g><g fill-opacity="0.0" stroke-width="2.0e-2"><path d="M 3.0,-1.7320508075688772 l 0.5,-0.8660254037844388 " /></g><g fill-opacity="0.0" stroke-width="2.0e-2"><path d="M 3.0,-1.7320508075688772 l 0.5,0.8660254037844386 " /></g><g fill-opacity="0.0" stroke-width="2.0e-2"><path d="M 2.0,-1.7320508075688772 h 1.0 " /></g><g fill-opacity="0.0" stroke-width="2.0e-2"><path d="M 1.5,-2.598076211353316 l 0.5,-0.8660254037844384 " /></g><g fill-opacity="0.0" stroke-width="2.0e-2"><path d="M 1.5,-2.598076211353316 l 0.5,0.8660254037844388 " /></g><g fill-opacity="0.0" stroke-width="2.0e-2"><path d="M 0.5,-2.598076211353316 h 1.0 " /></g><g fill-opacity="0.0" stroke-width="2.0e-2"><path d="M 0.0,-3.4641016151377544 l 0.5,-0.8660254037844384 " /></g><g fill-opacity="0.0" stroke-width="2.0e-2"><path d="M 0.0,-3.4641016151377544 l 0.5,0.8660254037844384 " /></g><g fill-opacity="0.0" stroke-width="2.0e-2"><path d="M -1.0,-3.4641016151377544 h 1.0 " /></g><g fill-opacity="0.0" stroke-width="2.0e-2"><path d="M -1.5,-4.330127018922193 l 0.5,0.8660254037844384 " /></g><g fill-opacity="0.0" stroke-width="2.0e-2"><path d="M -1.5,-2.598076211353316 l 0.5,-0.8660254037844384 " /></g><g fill-opacity="0.0" stroke-width="2.0e-2"><path d="M -2.5,-2.598076211353316 h 1.0 " /></g><g fill-opacity="0.0" stroke-width="2.0e-2"><path d="M -3.0,-3.4641016151377544 l 0.5,0.8660254037844384 " /></g><g fill-opacity="0.0" stroke-width="2.0e-2"><path d="M -3.0,-1.7320508075688772 l 0.5,-0.8660254037844388 " /></g><g fill-opacity="0.0" stroke-width="2.0e-2"><path d="M -4.0,-1.7320508075688772 h 1.0 " /></g><g fill-opacity="0.0" stroke-width="2.0e-2"><path d="M -3.0,-1.7320508075688772 l 0.5,0.8660254037844386 " /></g><g fill-opacity="0.0" stroke-width="2.0e-2"><path d="M -3.0,0.0 l 0.5,-0.8660254037844386 " /></g><g fill-opacity="0.0" stroke-width="2.0e-2"><path d="M -4.0,0.0 h 1.0 " /></g><g fill-opacity="0.0" stroke-width="2.0e-2"><path d="M -3.0,0.0 l 0.5,0.8660254037844386 " /></g><g fill-opacity="0.0" stroke-width="2.0e-2"><path d="M -3.0,1.7320508075688772 l 0.5,-0.8660254037844386 " /></g><g fill-opacity="0.0" stroke-width="2.0e-2"><path d="M -2.5,0.8660254037844386 h 1.0 " /></g><g fill-opacity="0.0" stroke-width="2.0e-2"><path d="M -1.5,0.8660254037844386 l 0.5,0.8660254037844386 " /></g><g fill-opacity="0.0" stroke-width="2.0e-2"><path d="M -1.5,2.598076211353316 l 0.5,-0.8660254037844388 " /></g><g fill-opacity="0.0" stroke-width="2.0e-2"><path d="M 0.0,1.7320508075688772 l 0.5,0.8660254037844388 " /></g><g fill-opacity="0.0" stroke-width="2.0e-2"><path d="M -1.0,1.7320508075688772 h 1.0 " /></g><g fill-opacity="0.0" stroke-width="2.0e-2"><path d="M 0.0,1.7320508075688772 l 0.5,-0.8660254037844386 " /></g><g fill-opacity="0.0" stroke-width="2.0e-2"><path d="M 1.5,0.8660254037844386 l 0.5,0.8660254037844386 " /></g><g fill-opacity="0.0" stroke-width="2.0e-2"><path d="M 0.5,0.8660254037844386 h 1.0 " /></g><g fill-opacity="0.0" stroke-width="2.0e-2"><path d="M 2.0,0.0 h 1.0 " /></g><g fill-opacity="0.0" stroke-width="2.0e-2"><path d="M 1.5,0.8660254037844386 l 0.5,-0.8660254037844386 " /></g><g fill-opacity="0.0" stroke-width="2.0e-2"><path d="M 1.5,-0.8660254037844386 l 0.5,-0.8660254037844386 " /></g><g fill-opacity="0.0" stroke-width="2.0e-2"><path d="M 1.5,-0.8660254037844386 l 0.5,0.8660254037844386 " /></g><g fill-opacity="0.0" stroke-width="2.0e-2"><path d="M 0.5,-0.8660254037844386 h 1.0 " /></g><g fill-opacity="0.0" stroke-width="2.0e-2"><path d="M 0.0,-1.7320508075688772 l 0.5,-0.8660254037844388 " /></g><g fill-opacity="0.0" stroke-width="2.0e-2"><path d="M 0.0,-1.7320508075688772 l 0.5,0.8660254037844386 " /></g><g fill-opacity="0.0" stroke-width="2.0e-2"><path d="M -1.0,-1.7320508075688772 h 1.0 " /></g><g fill-opacity="0.0" stroke-width="2.0e-2"><path d="M -1.5,-2.598076211353316 l 0.5,0.8660254037844388 " /></g><g fill-opacity="0.0" stroke-width="2.0e-2"><path d="M -1.5,-0.8660254037844386 l 0.5,-0.8660254037844386 " /></g><g fill-opacity="0.0" stroke-width="2.0e-2"><path d="M -2.5,-0.8660254037844386 h 1.0 " /></g><g fill-opacity="0.0" stroke-width="2.0e-2"><path d="M -1.5,-0.8660254037844386 l 0.5,0.8660254037844386 " /></g><g fill-opacity="0.0" stroke-width="2.0e-2"><path d="M -1.5,0.8660254037844386 l 0.5,-0.8660254037844386 " /></g><g fill-opacity="0.0" stroke-width="2.0e-2"><path d="M 0.0,0.0 l 0.5,-0.8660254037844386 " /></g><g fill-opacity="0.0" stroke-width="2.0e-2"><path d="M 0.0,0.0 l 0.5,0.8660254037844386 " /></g><g fill-opacity="0.0" stroke-width="2.0e-2"><path d="M -1.0,0.0 h 1.0 " /></g></g></g></g></svg>