<?xml version="1.0" encoding="UTF-8"?>
<!DOCTYPE svg PUBLIC "-//W3C//DTD SVG 1.1//EN"
    "http://www.w3.org/Graphics/SVG/1.1/DTD/svg11.dtd">
<svg xmlns="http://www.w3.org/2000/svg" xmlns:xlink="http://www.w3.org/1999/xlink" version="1.1" width="200.0" height="300.0" font-size="1" viewBox="0 0 200 300" stroke="rgb(0,0,0)" stroke-opacity="1"><g><g fill="rgb(0,0,0)" fill-opacity="0.0"><g stroke="rgb(0,0,0)" stroke-opacity="1.0" stroke-width="0.8000000000000002" stroke-linecap="butt" stroke-linejoin="miter" font-size="1.0em" stroke-miterlimit="10.0"><g><g><g><g><g></g><g><g><g></g></g><g></g></g><g><g></g></g><g></g></g><g><g><g><g></g></g><g></g></g><g><g></g></g><g></g></g><g><g><g></g></g><g></g></g><g><g></g></g><g></g></g><g><g><g></g><g><g></g><g><g><g></g></g><g></g></g><g><g></g></g><g></g></g><g><g><g><g></g></g><g></g></g><g><g></g></g><g></g></g><g><g><g></g></g><g></g></g><g><g></g></g><g></g></g><g></g><g><g></g><g><g><g></g></g><g></g></g><g><g></g></g><g></g></g><g><g><g><g></g></g><g></g></g><g><g></g></g><g></g></g><g><g><g></g></g><g></g></g><g><g></g></g><g></g></g><g><g></g><g><g></g><g><g><g></g></g><g></g></g><g><g></g></g><g></g></g><g><g><g><g></g></g><g></g></g><g><g></g></g><g></g></g><g><g><g></g></g><g></g></g><g><g></g></g><g></g></g><g></g><g><g></g><g><g><g></g></g><g></g></g><g><g></g></g><g></g></g><g><g><g><g></g></g><g></g></g><g><g></g></g><g></g></g><g><g><g></g></g><g></g></g><g><g></g></g><g></g></g><g><g><g><g></g><g><g></g><g><g><g></g></g><g></g></g><g><g></g></g><g></g></g><g><g><g><g></g></g><g></g></g><g><g></g></g><g></g></g><g><g><g></g></g><g></g></g><g><g></g></g><g></g></g><g></g><g><g></g><g><g><g></g></g><g></g></g><g><g></g></g><g></g></g><g><g><g><g></g></g><g></g></g><g><g></g></g><g></g></g><g><g><g></g></g><g></g></g><g><g></g></g><g></g></g><g><g></g><g><g></g><g><g><g></g></g><g></g></g><g><g></g></g><g></g></g><g><g><g><g></g></g><g></g></g><g><g></g></g><g></g></g><g><g><g></g></g><g></g></g><g><g></g></g><g></g></g><g></g><g><g></g><g><g><g></g></g><g></g></g><g><g></g></g><g></g></g><g><g><g><g></g></g><g></g></g><g><g></g></g><g></g></g><g><g><g></g></g><g></g></g><g><g></g></g><g></g></g><g><g><g></g><g><g></g><g><g><g></g></g><g></g></g><g><g></g></g><g></g></g><g><g><g><g></g></g><g></g></g><g><g></g></g><g></g></g><g><g><g></g></g><g></g></g><g><g></g></g><g></g></g><g></g><g><g></g><g><g><g></g></g><g></g></g><g><g></g></g><g></g></g><g><g><g><g></g></g><g></g></g><g><g></g></g><g></g></g><g><g><g></g></g><g></g></g><g><g></g></g><g></g></g><g><g></g><g><g></g><g><g><g></g></g><g></g></g><g><g></g></g><g></g></g><g><g><g><g></g></g><g></g></g><g><g></g></g><g></g></g><g><g><g></g></g><g></g></g><g><g></g></g><g></g></g><g></g><g><g></g><g><g><g></g></g><g></g></g><g><g></g></g><g></g></g><g><g><g><g></g></g><g></g></g><g><g></g></g><g></g></g><g><g><g></g></g><g></g></g><g><g></g></g><g></g></g><g><g stroke="rgb(0,0,255)" stroke-opacity="1.0" stroke-width="0.5"><path d="M 183.33333333333331,233.33333333333331 v -166.66666666666663 " /></g><g stroke="rgb(0,0,255)" stroke-opacity="1.0" stroke-width="0.5"><path d="M 150.0,233.33333333333331 v -166.66666666666663 " /></g><g stroke="rgb(0,0,255)" stroke-opacity="1.0" stroke-width="0.5"><path d="M 116.66666666666667,233.33333333333331 v -166.66666666666663 " /></g><g stroke="rgb(0,0,255)" stroke-opacity="1.0" stroke-width="0.5"><path d="M 83.33333333333334,233.33333333333331 v -166.66666666666663 " /></g><g stroke="rgb(0,0,255)" stroke-opacity="1.0" stroke-width="0.5"><path d="M 50.000000000000014,233.33333333333331 v -166.66666666666663 " /></g><g stroke="rgb(0,0,255)" stroke-opacity="1.0" stroke-width="0.5"><path d="M 16.666666666666686,233.33333333333331 v -166.66666666666663 " /></g></g><g><g stroke="rgb(255,0,0)" stroke-opacity="1.0" stroke-width="0.5"><path d="M 16.666666666666686,66.66666666666669 h 166.66666666666663 " /></g><g stroke="rgb(255,0,0)" stroke-opacity="1.0" stroke-width="0.5"><path d="M 16.666666666666686,100.0 h 166.66666666666663 " /></g><g stroke="rgb(255,0,0)" stroke-opacity="1.0" stroke-width="0.5"><path d="M 16.666666666666686,133.33333333333331 h 166.66666666666663 " /></g><g stroke="rgb(255,0,0)" stroke-opacity="1.0" stroke-width="0.5"><path d="M 16.666666666666686,166.66666666666666 h 166.66666666666663 " /></g><g stroke="rgb(255,0,0)" stroke-opacity="1.0" stroke-width="0.5"><path d="M 16.666666666666686,200.0 h 166.66666666666663 " /></g><g stroke="rgb(255,0,0)" stroke-opacity="1.0" stroke-width="0.5"><path d="M 16.666666666666686,233.33333333333331 h 166.66666666666663 " /></g></g><g fill="rgb(255,0,0)" fill-opacity="1.0" stroke-width="0.0" opacity="0.5"><g fill="rgb(255,0,0)" fill-opacity="1.0"><g fill="rgb(255,0,0)" fill-opacity="1.0"><path d="M 19.166666666666686,233.33333333333331 c 0.0,-1.3807118745769833 -1.1192881254230158,-2.4999999999999996 -2.499999999999999 -2.4999999999999996c -1.3807118745769833,-8.454421888727222e-17 -2.4999999999999996,1.1192881254230158 -2.4999999999999996 2.4999999999999987c -1.6908843777454444e-16,1.3807118745769833 1.1192881254230156,2.4999999999999996 2.4999999999999987 2.4999999999999996c 1.3807118745769833,2.5363265666181666e-16 2.4999999999999996,-1.1192881254230154 2.4999999999999996 -2.4999999999999987Z" /></g></g></g><g fill="rgb(255,0,0)" fill-opacity="1.0" stroke-width="0.0" opacity="0.5"><g fill="rgb(255,0,0)" fill-opacity="1.0"><g fill="rgb(255,0,0)" fill-opacity="1.0"><path d="M 19.166666666666686,199.99999999999997 c 0.0,-1.3807118745769833 -1.1192881254230158,-2.4999999999999996 -2.499999999999999 -2.4999999999999996c -1.3807118745769833,-8.454421888727222e-17 -2.4999999999999996,1.1192881254230158 -2.4999999999999996 2.4999999999999987c -1.6908843777454444e-16,1.3807118745769833 1.1192881254230156,2.4999999999999996 2.4999999999999987 2.4999999999999996c 1.3807118745769833,2.5363265666181666e-16 2.4999999999999996,-1.1192881254230154 2.4999999999999996 -2.4999999999999987Z" /></g></g></g><g fill="rgb(255,0,0)" fill-opacity="1.0" stroke-width="0.0" opacity="0.5"><g fill="rgb(255,0,0)" fill-opacity="1.0"><g fill="rgb(255,0,0)" fill-opacity="1.0"><path d="M 19.166666666666686,166.66666666666669 c 0.0,-1.3807118745769833 -1.1192881254230158,-2.4999999999999996 -2.499999999999999 -2.4999999999999996c -1.3807118745769833,-8.454421888727222e-17 -2.4999999999999996,1.1192881254230158 -2.4999999999999996 2.4999999999999987c -1.6908843777454444e-16,1.3807118745769833 1.1192881254230156,2.4999999999999996 2.4999999999999987 2.4999999999999996c 1.3807118745769833,2.5363265666181666e-16 2.4999999999999996,-1.1192881254230154 2.4999999999999996 -2.4999999999999987Z" /></g></g></g><g fill="rgb(255,0,0)" fill-opacity="1.0" stroke-width="0.0" opacity="0.5"><g fill="rgb(255,0,0)" fill-opacity="1.0"><g fill="rgb(255,0,0)" fill-opacity="1.0"><path d="M 19.166666666666686,133.33333333333331 c 0.0,-1.3807118745769833 -1.1192881254230158,-2.4999999999999996 -2.499999999999999 -2.4999999999999996c -1.3807118745769833,-8.454421888727222e-17 -2.4999999999999996,1.1192881254230158 -2.4999999999999996 2.4999999999999987c -1.6908843777454444e-16,1.3807118745769833 1.1192881254230156,2.4999999999999996 2.4999999999999987 2.4999999999999996c 1.3807118745769833,2.5363265666181666e-16 2.4999999999999996,-1.1192881254230154 2.4999999999999996 -2.4999999999999987Z" /></g></g></g><g fill="rgb(255,0,0)" fill-opacity="1.0" stroke-width="0.0" opacity="0.5"><g fill="rgb(255,0,0)" fill-opacity="1.0"><g fill="rgb(255,0,0)" fill-opacity="1.0"><path d="M 19.166666666666686,100.0 c 0.0,-1.3807118745769833 -1.1192881254230158,-2.4999999999999996 -2.499999999999999 -2.4999999999999996c -1.3807118745769833,-8.454421888727222e-17 -2.4999999999999996,1.1192881254230158 -2.4999999999999996 2.4999999999999987c -1.6908843777454444e-16,1.3807118745769833 1.1192881254230156,2.4999999999999996 2.4999999999999987 2.4999999999999996c 1.3807118745769833,2.5363265666181666e-16 2.4999999999999996,-1.1192881254230154 2.4999999999999996 -2.4999999999999987Z" /></g></g></g><g fill="rgb(255,0,0)" fill-opacity="1.0" stroke-width="0.0" opacity="0.5"><g fill="rgb(255,0,0)" fill-opacity="1.0"><g fill="rgb(255,0,0)" fill-opacity="1.0"><path d="M 19.166666666666686,66.66666666666669 c 0.0,-1.3807118745769833 -1.1192881254230158,-2.4999999999999996 -2.499999999999999 -2.4999999999999996c -1.3807118745769833,-8.454421888727222e-17 -2.4999999999999996,1.1192881254230158 -2.4999999999999996 2.4999999999999987c -1.6908843777454444e-16,1.3807118745769833 1.1192881254230156,2.4999999999999996 2.4999999999999987 2.4999999999999996c 1.3807118745769833,2.5363265666181666e-16 2.4999999999999996,-1.1192881254230154 2.4999999999999996 -2.4999999999999987Z" /></g></g></g><g fill="rgb(255,0,0)" fill-opacity="1.0" stroke-width="0.0" opacity="0.5"><g fill="rgb(255,0,0)" fill-opacity="1.0"><g fill="rgb(255,0,0)" fill-opacity="1.0"><path d="M 185.83333333333331,66.66666666666669 c 0.0,-1.3807118745769833 -1.1192881254230158,-2.4999999999999996 -2.499999999999999 -2.4999999999999996c -1.3807118745769833,-8.454421888727222e-17 -2.4999999999999996,1.1192881254230158 -2.4999999999999996 2.4999999999999987c -1.6908843777454444e-16,1.3807118745769833 1.1192881254230156,2.4999999999999996 2.4999999999999987 2.4999999999999996c 1.3807118745769833,2.5363265666181666e-16 2.4999999999999996,-1.1192881254230154 2.4999999999999996 -2.4999999999999987Z" /></g></g></g><g fill="rgb(255,0,0)" fill-opacity="1.0" stroke-width="0.0" opacity="0.5"><g fill="rgb(255,0,0)" fill-opacity="1.0"><g fill="rgb(255,0,0)" fill-opacity="1.0"><path d="M 152.5,66.66666666666669 c 0.0,-1.3807118745769833 -1.1192881254230158,-2.4999999999999996 -2.499999999999999 -2.4999999999999996c -1.3807118745769833,-8.454421888727222e-17 -2.4999999999999996,1.1192881254230158 -2.4999999999999996 2.4999999999999987c -1.6908843777454444e-16,1.3807118745769833 1.1192881254230156,2.4999999999999996 2.4999999999999987 2.4999999999999996c 1.3807118745769833,2.5363265666181666e-16 2.4999999999999996,-1.1192881254230154 2.4999999999999996 -2.4999999999999987Z" /></g></g></g><g fill="rgb(255,0,0)" fill-opacity="1.0" stroke-width="0.0" opacity="0.5"><g fill="rgb(255,0,0)" fill-opacity="1.0"><g fill="rgb(255,0,0)" fill-opacity="1.0"><path d="M 119.16666666666669,66.66666666666669 c 0.0,-1.3807118745769833 -1.1192881254230158,-2.4999999999999996 -2.499999999999999 -2.4999999999999996c -1.3807118745769833,-8.454421888727222e-17 -2.4999999999999996,1.1192881254230158 -2.4999999999999996 2.4999999999999987c -1.6908843777454444e-16,1.3807118745769833 1.1192881254230156,2.4999999999999996 2.4999999999999987 2.4999999999999996c 1.3807118745769833,2.5363265666181666e-16 2.4999999999999996,-1.1192881254230154 2.4999999999999996 -2.4999999999999987Z" /></g></g></g><g fill="rgb(255,0,0)" fill-opacity="1.0" stroke-width="0.0" opacity="0.5"><g fill="rgb(255,0,0)" fill-opacity="1.0"><g fill="rgb(255,0,0)" fill-opacity="1.0"><path d="M 85.83333333333331,66.66666666666669 c 0.0,-1.3807118745769833 -1.1192881254230158,-2.4999999999999996 -2.499999999999999 -2.4999999999999996c -1.3807118745769833,-8.454421888727222e-17 -2.4999999999999996,1.1192881254230158 -2.4999999999999996 2.4999999999999987c -1.6908843777454444e-16,1.3807118745769833 1.1192881254230156,2.4999999999999996 2.4999999999999987 2.4999999999999996c 1.3807118745769833,2.5363265666181666e-16 2.4999999999999996,-1.1192881254230154 2.4999999999999996 -2.4999999999999987Z" /></g></g></g><g fill="rgb(255,0,0)" fill-opacity="1.0" stroke-width="0.0" opacity="0.5"><g fill="rgb(255,0,0)" fill-opacity="1.0"><g fill="rgb(255,0,0)" fill-opacity="1.0"><path d="M 52.50000000000003,66.66666666666669 c 0.0,-1.3807118745769833 -1.1192881254230158,-2.4999999999999996 -2.499999999999999 -2.4999999999999996c -1.3807118745769833,-8.454421888727222e-17 -2.4999999999999996,1.1192881254230158 -2.4999999999999996 2.4999999999999987c -1.6908843777454444e-16,1.3807118745769833 1.1192881254230156,2.4999999999999996 2.4999999999999987 2.4999999999999996c 1.3807118745769833,2.5363265666181666e-16 2.4999999999999996,-1.1192881254230154 2.4999999999999996 -2.4999999999999987Z" /></g></g></g><g fill="rgb(255,0,0)" fill-opacity="1.0" stroke-width="0.0" opacity="0.5"><g fill="rgb(255,0,0)" fill-opacity="1.0"><g fill="rgb(255,0,0)" fill-opacity="1.0"><path d="M 19.166666666666686,66.66666666666669 c 0.0,-1.3807118745769833 -1.1192881254230158,-2.4999999999999996 -2.499999999999999 -2.4999999999999996c -1.3807118745769833,-8.454421888727222e-17 -2.4999999999999996,1.1192881254230158 -2.4999999999999996 2.4999999999999987c -1.6908843777454444e-16,1.3807118745769833 1.1192881254230156,2.4999999999999996 2.4999999999999987 2.4999999999999996c 1.3807118745769833,2.5363265666181666e-16 2.4999999999999996,-1.1192881254230154 2.4999999999999996 -2.4999999999999987Z" /></g></g></g><g fill="rgb(255,0,0)" fill-opacity="1.0" stroke-width="0.0" opacity="0.5"><g fill="rgb(255,0,0)" fill-opacity="1.0"><g fill="rgb(255,0,0)" fill-opacity="1.0"><path d="M 185.83333333333331,233.33333333333331 c 0.0,-1.3807118745769833 -1.1192881254230158,-2.4999999999999996 -2.499999999999999 -2.4999999999999996c -1.3807118745769833,-8.454421888727222e-17 -2.4999999999999996,1.1192881254230158 -2.4999999999999996 2.4999999999999987c -1.6908843777454444e-16,1.3807118745769833 1.1192881254230156,2.4999999999999996 2.4999999999999987 2.4999999999999996c 1.3807118745769833,2.5363265666181666e-16 2.4999999999999996,-1.1192881254230154 2.4999999999999996 -2.4999999999999987Z" /></g></g></g><g fill="rgb(255,0,0)" fill-opacity="1.0" stroke-width="0.0" opacity="0.5"><g fill="rgb(255,0,0)" fill-opacity="1.0"><g fill="rgb(255,0,0)" fill-opacity="1.0"><path d="M 185.83333333333331,199.99999999999997 c 0.0,-1.3807118745769833 -1.1192881254230158,-2.4999999999999996 -2.499999999999999 -2.4999999999999996c -1.3807118745769833,-8.454421888727222e-17 -2.4999999999999996,1.1192881254230158 -2.4999999999999996 2.4999999999999987c -1.6908843777454444e-16,1.3807118745769833 1.1192881254230156,2.4999999999999996 2.4999999999999987 2.4999999999999996c 1.3807118745769833,2.5363265666181666e-16 2.4999999999999996,-1.1192881254230154 2.4999999999999996 -2.4999999999999987Z" /></g></g></g><g fill="rgb(255,0,0)" fill-opacity="1.0" stroke-width="0.0" opacity="0.5"><g fill="rgb(255,0,0)" fill-opacity="1.0"><g fill="rgb(255,0,0)" fill-opacity="1.0"><path d="M 185.83333333333331,166.66666666666669 c 0.0,-1.3807118745769833 -1.1192881254230158,-2.4999999999999996 -2.499999999999999 -2.4999999999999996c -1.3807118745769833,-8.454421888727222e-17 -2.4999999999999996,1.1192881254230158 -2.4999999999999996 2.4999999999999987c -1.6908843777454444e-16,1.3807118745769833 1.1192881254230156,2.4999999999999996 2.4999999999999987 2.4999999999999996c 1.3807118745769833,2.5363265666181666e-16 2.4999999999999996,-1.1192881254230154 2.4999999999999996 -2.4999999999999987Z" /></g></g></g><g fill="rgb(255,0,0)" fill-opacity="1.0" stroke-width="0.0" opacity="0.5"><g fill="rgb(255,0,0)" fill-opacity="1.0"><g fill="rgb(255,0,0)" fill-opacity="1.0"><path d="M 185.83333333333331,133.33333333333331 c 0.0,-1.3807118745769833 -1.1192881254230158,-2.4999999999999996 -2.499999999999999 -2.4999999999999996c -1.3807118745769833,-8.454421888727222e-17 -2.4999999999999996,1.1192881254230158 -2.4999999999999996 2.4999999999999987c -1.6908843777454444e-16,1.3807118745769833 1.1192881254230156,2.4999999999999996 2.4999999999999987 2.4999999999999996c 1.3807118745769833,2.5363265666181666e-16 2.4999999999999996,-1.1192881254230154 2.4999999999999996 -2.4999999999999987Z" /></g></g></g><g fill="rgb(255,0,0)" fill-opacity="1.0" stroke-width="0.0" opacity="0.5"><g fill="rgb(255,0,0)" fill-opacity="1.0"><g fill="rgb(255,0,0)" fill-opacity="1.0"><path d="M 185.83333333333331,100.0 c 0.0,-1.3807118745769833 -1.1192881254230158,-2.4999999999999996 -2.499999999999999 -2.4999999999999996c -1.3807118745769833,-8.454421888727222e-17 -2.4999999999999996,1.1192881254230158 -2.4999999999999996 2.4999999999999987c -1.6908843777454444e-16,1.3807118745769833 1.1192881254230156,2.4999999999999996 2.4999999999999987 2.4999999999999996c 1.3807118745769833,2.5363265666181666e-16 2.4999999999999996,-1.1192881254230154 2.4999999999999996 -2.4999999999999987Z" /></g></g></g><g fill="rgb(255,0,0)" fill-opacity="1.0" stroke-width="0.0" opacity="0.5"><g fill="rgb(255,0,0)" fill-opacity="1.0"><g fill="rgb(255,0,0)" fill-opacity="1.0"><path d="M 185.83333333333331,66.66666666666669 c 0.0,-1.3807118745769833 -1.1192881254230158,-2.4999999999999996 -2.499999999999999 -2.4999999999999996c -1.3807118745769833,-8.454421888727222e-17 -2.4999999999999996,1.1192881254230158 -2.4999999999999996 2.4999999999999987c -1.6908843777454444e-16,1.3807118745769833 1.1192881254230156,2.4999999999999996 2.4999999999999987 2.4999999999999996c 1.3807118745769833,2.5363265666181666e-16 2.4999999999999996,-1.1192881254230154 2.4999999999999996 -2.4999999999999987Z" /></g></g></g><g fill="rgb(255,0,0)" fill-opacity="1.0" stroke-width="0.0" opacity="0.5"><g fill="rgb(255,0,0)" fill-opacity="1.0"><g fill="rgb(255,0,0)" fill-opacity="1.0"><path d="M 185.83333333333331,233.33333333333331 c 0.0,-1.3807118745769833 -1.1192881254230158,-2.4999999999999996 -2.499999999999999 -2.4999999999999996c -1.3807118745769833,-8.454421888727222e-17 -2.4999999999999996,1.1192881254230158 -2.4999999999999996 2.4999999999999987c -1.6908843777454444e-16,1.3807118745769833 1.1192881254230156,2.4999999999999996 2.4999999999999987 2.4999999999999996c 1.3807118745769833,2.5363265666181666e-16 2.4999999999999996,-1.1192881254230154 2.4999999999999996 -2.4999999999999987Z" /></g></g></g><g fill="rgb(255,0,0)" fill-opacity="1.0" stroke-width="0.0" opacity="0.5"><g fill="rgb(255,0,0)" fill-opacity="1.0"><g fill="rgb(255,0,0)" fill-opacity="1.0"><path d="M 152.5,233.33333333333331 c 0.0,-1.3807118745769833 -1.1192881254230158,-2.4999999999999996 -2.499999999999999 -2.4999999999999996c -1.3807118745769833,-8.454421888727222e-17 -2.4999999999999996,1.1192881254230158 -2.4999999999999996 2.4999999999999987c -1.6908843777454444e-16,1.3807118745769833 1.1192881254230156,2.4999999999999996 2.4999999999999987 2.4999999999999996c 1.3807118745769833,2.5363265666181666e-16 2.4999999999999996,-1.1192881254230154 2.4999999999999996 -2.4999999999999987Z" /></g></g></g><g fill="rgb(255,0,0)" fill-opacity="1.0" stroke-width="0.0" opacity="0.5"><g fill="rgb(255,0,0)" fill-opacity="1.0"><g fill="rgb(255,0,0)" fill-opacity="1.0"><path d="M 119.16666666666669,233.33333333333331 c 0.0,-1.3807118745769833 -1.1192881254230158,-2.4999999999999996 -2.499999999999999 -2.4999999999999996c -1.3807118745769833,-8.454421888727222e-17 -2.4999999999999996,1.1192881254230158 -2.4999999999999996 2.4999999999999987c -1.6908843777454444e-16,1.3807118745769833 1.1192881254230156,2.4999999999999996 2.4999999999999987 2.4999999999999996c 1.3807118745769833,2.5363265666181666e-16 2.4999999999999996,-1.1192881254230154 2.4999999999999996 -2.4999999999999987Z" /></g></g></g><g fill="rgb(255,0,0)" fill-opacity="1.0" stroke-width="0.0" opacity="0.5"><g fill="rgb(255,0,0)" fill-opacity="1.0"><g fill="rgb(255,0,0)" fill-opacity="1.0"><path d="M 85.83333333333331,233.33333333333331 c 0.0,-1.3807118745769833 -1.1192881254230158,-2.4999999999999996 -2.499999999999999 -2.4999999999999996c -1.3807118745769833,-8.454421888727222e-17 -2.4999999999999996,1.1192881254230158 -2.4999999999999996 2.4999999999999987c -1.6908843777454444e-16,1.3807118745769833 1.1192881254230156,2.4999999999999996 2.4999999999999987 2.4999999999999996c 1.3807118745769833,2.5363265666181666e-16 2.4999999999999996,-1.1192881254230154 2.4999999999999996 -2.4999999999999987Z" /></g></g></g><g fill="rgb(255,0,0)" fill-opacity="1.0" stroke-width="0.0" opacity="0.5"><g fill="rgb(255,0,0)" fill-opacity="1.0"><g fill="rgb(255,0,0)" fill-opacity="1.0"><path d="M 52.50000000000003,233.33333333333331 c 0.0,-1.3807118745769833 -1.1192881254230158,-2.4999999999999996 -2.499999999999999 -2.4999999999999996c -1.3807118745769833,-8.454421888727222e-17 -2.4999999999999996,1.1192881254230158 -2.4999999999999996 2.4999999999999987c -1.6908843777454444e-16,1.3807118745769833 1.1192881254230156,2.4999999999999996 2.4999999999999987 2.4999999999999996c 1.3807118745769833,2.5363265666181666e-16 2.4999999999999996,-1.1192881254230154 2.4999999999999996 -2.4999999999999987Z" /></g></g></g><g fill="rgb(255,0,0)" fill-opacity="1.0" stroke-width="0.0" opacity="0.5"><g fill="rgb(255,0,0)" fill-opacity="1.0"><g fill="rgb(255,0,0)" fill-opacity="1.0"><path d="M 19.166666666666686,233.33333333333331 c 0.0,-1.3807118745769833 -1.1192881254230158,-2.4999999999999996 -2.499999999999999 -2.4999999999999996c -1.3807118745769833,-8.454421888727222e-17 -2.4999999999999996,1.1192881254230158 -2.4999999999999996 2.4999999999999987c -1.6908843777454444e-16,1.3807118745769833 1.1192881254230156,2.4999999999999996 2.4999999999999987 2.4999999999999996c 1.3807118745769833,2.5363265666181666e-16 2.4999999999999996,-1.1192881254230154 2.4999999999999996 -2.4999999999999987Z" /></g></g></g><g fill="rgb(0,0,255)" fill-opacity="1.0" stroke-width="0.0" opacity="0.5"><g fill="rgb(0,0,255)" fill-opacity="1.0"><g fill="rgb(0,0,255)" fill-opacity="1.0"><path d="M 152.5,199.99999999999997 c 0.0,-1.3807118745769833 -1.1192881254230158,-2.4999999999999996 -2.499999999999999 -2.4999999999999996c -1.3807118745769833,-8.454421888727222e-17 -2.4999999999999996,1.1192881254230158 -2.4999999999999996 2.4999999999999987c -1.6908843777454444e-16,1.3807118745769833 1.1192881254230156,2.4999999999999996 2.4999999999999987 2.4999999999999996c 1.3807118745769833,2.5363265666181666e-16 2.4999999999999996,-1.1192881254230154 2.4999999999999996 -2.4999999999999987Z" /></g></g></g><g fill="rgb(0,0,255)" fill-opacity="1.0" stroke-width="0.0" opacity="0.5"><g fill="rgb(0,0,255)" fill-opacity="1.0"><g fill="rgb(0,0,255)" fill-opacity="1.0"><path d="M 152.5,166.66666666666669 c 0.0,-1.3807118745769833 -1.1192881254230158,-2.4999999999999996 -2.499999999999999 -2.4999999999999996c -1.3807118745769833,-8.454421888727222e-17 -2.4999999999999996,1.1192881254230158 -2.4999999999999996 2.4999999999999987c -1.6908843777454444e-16,1.3807118745769833 1.1192881254230156,2.4999999999999996 2.4999999999999987 2.4999999999999996c 1.3807118745769833,2.5363265666181666e-16 2.4999999999999996,-1.1192881254230154 2.4999999999999996 -2.4999999999999987Z" /></g></g></g><g fill="rgb(0,0,255)" fill-opacity="1.0" stroke-width="0.0" opacity="0.5"><g fill="rgb(0,0,255)" fill-opacity="1.0"><g fill="rgb(0,0,255)" fill-opacity="1.0"><path d="M 152.5,133.33333333333331 c 0.0,-1.3807118745769833 -1.1192881254230158,-2.4999999999999996 -2.499999999999999 -2.4999999999999996c -1.3807118745769833,-8.454421888727222e-17 -2.4999999999999996,1.1192881254230158 -2.4999999999999996 2.4999999999999987c -1.6908843777454444e-16,1.3807118745769833 1.1192881254230156,2.4999999999999996 2.4999999999999987 2.4999999999999996c 1.3807118745769833,2.5363265666181666e-16 2.4999999999999996,-1.1192881254230154 2.4999999999999996 -2.4999999999999987Z" /></g></g></g><g fill="rgb(0,0,255)" fill-opacity="1.0" stroke-width="0.0" opacity="0.5"><g fill="rgb(0,0,255)" fill-opacity="1.0"><g fill="rgb(0,0,255)" fill-opacity="1.0"><path d="M 152.5,100.0 c 0.0,-1.3807118745769833 -1.1192881254230158,-2.4999999999999996 -2.499999999999999 -2.4999999999999996c -1.3807118745769833,-8.454421888727222e-17 -2.4999999999999996,1.1192881254230158 -2.4999999999999996 2.4999999999999987c -1.6908843777454444e-16,1.3807118745769833 1.1192881254230156,2.4999999999999996 2.4999999999999987 2.4999999999999996c 1.3807118745769833,2.5363265666181666e-16 2.4999999999999996,-1.1192881254230154 2.4999999999999996 -2.4999999999999987Z" /></g></g></g><g fill="rgb(0,0,255)" fill-opacity="1.0" stroke-width="0.0" opacity="0.5"><g fill="rgb(0,0,255)" fill-opacity="1.0"><g fill="rgb(0,0,255)" fill-opacity="1.0"><path d="M 119.16666666666669,199.99999999999997 c 0.0,-1.3807118745769833 -1.1192881254230158,-2.4999999999999996 -2.499999999999999 -2.4999999999999996c -1.3807118745769833,-8.454421888727222e-17 -2.4999999999999996,1.1192881254230158 -2.4999999999999996 2.4999999999999987c -1.6908843777454444e-16,1.3807118745769833 1.1192881254230156,2.4999999999999996 2.4999999999999987 2.4999999999999996c 1.3807118745769833,2.5363265666181666e-16 2.4999999999999996,-1.1192881254230154 2.4999999999999996 -2.4999999999999987Z" /></g></g></g><g fill="rgb(0,0,255)" fill-opacity="1.0" stroke-width="0.0" opacity="0.5"><g fill="rgb(0,0,255)" fill-opacity="1.0"><g fill="rgb(0,0,255)" fill-opacity="1.0"><path d="M 119.16666666666669,166.66666666666669 c 0.0,-1.3807118745769833 -1.1192881254230158,-2.4999999999999996 -2.499999999999999 -2.4999999999999996c -1.3807118745769833,-8.454421888727222e-17 -2.4999999999999996,1.1192881254230158 -2.4999999999999996 2.4999999999999987c -1.6908843777454444e-16,1.3807118745769833 1.1192881254230156,2.4999999999999996 2.4999999999999987 2.4999999999999996c 1.3807118745769833,2.5363265666181666e-16 2.4999999999999996,-1.1192881254230154 2.4999999999999996 -2.4999999999999987Z" /></g></g></g><g fill="rgb(0,0,255)" fill-opacity="1.0" stroke-width="0.0" opacity="0.5"><g fill="rgb(0,0,255)" fill-opacity="1.0"><g fill="rgb(0,0,255)" fill-opacity="1.0"><path d="M 119.16666666666669,133.33333333333331 c 0.0,-1.3807118745769833 -1.1192881254230158,-2.4999999999999996 -2.499999999999999 -2.4999999999999996c -1.3807118745769833,-8.454421888727222e-17 -2.4999999999999996,1.1192881254230158 -2.4999999999999996 2.4999999999999987c -1.6908843777454444e-16,1.3807118745769833 1.1192881254230156,2.4999999999999996 2.4999999999999987 2.4999999999999996c 1.3807118745769833,2.5363265666181666e-16 2.4999999999999996,-1.1192881254230154 2.4999999999999996 -2.4999999999999987Z" /></g></g></g><g fill="rgb(0,0,255)" fill-opacity="1.0" stroke-width="0.0" opacity="0.5"><g fill="rgb(0,0,255)" fill-opacity="1.0"><g fill="rgb(0,0,255)" fill-opacity="1.0"><path d="M 119.16666666666669,100.0 c 0.0,-1.3807118745769833 -1.1192881254230158,-2.4999999999999996 -2.499999999999999 -2.4999999999999996c -1.3807118745769833,-8.454421888727222e-17 -2.4999999999999996,1.1192881254230158 -2.4999999999999996 2.4999999999999987c -1.6908843777454444e-16,1.3807118745769833 1.1192881254230156,2.4999999999999996 2.4999999999999987 2.4999999999999996c 1.3807118745769833,2.5363265666181666e-16 2.4999999999999996,-1.1192881254230154 2.4999999999999996 -2.4999999999999987Z" /></g></g></g><g fill="rgb(0,0,255)" fill-opacity="1.0" stroke-width="0.0" opacity="0.5"><g fill="rgb(0,0,255)" fill-opacity="1.0"><g fill="rgb(0,0,255)" fill-opacity="1.0"><path d="M 85.83333333333331,199.99999999999997 c 0.0,-1.3807118745769833 -1.1192881254230158,-2.4999999999999996 -2.499999999999999 -2.4999999999999996c -1.3807118745769833,-8.454421888727222e-17 -2.4999999999999996,1.1192881254230158 -2.4999999999999996 2.4999999999999987c -1.6908843777454444e-16,1.3807118745769833 1.1192881254230156,2.4999999999999996 2.4999999999999987 2.4999999999999996c 1.3807118745769833,2.5363265666181666e-16 2.4999999999999996,-1.1192881254230154 2.4999999999999996 -2.4999999999999987Z" /></g></g></g><g fill="rgb(0,0,255)" fill-opacity="1.0" stroke-width="0.0" opacity="0.5"><g fill="rgb(0,0,255)" fill-opacity="1.0"><g fill="rgb(0,0,255)" fill-opacity="1.0"><path d="M 85.83333333333331,166.66666666666669 c 0.0,-1.3807118745769833 -1.1192881254230158,-2.4999999999999996 -2.499999999999999 -2.4999999999999996c -1.3807118745769833,-8.454421888727222e-17 -2.4999999999999996,1.1192881254230158 -2.4999999999999996 2.4999999999999987c -1.6908843777454444e-16,1.3807118745769833 1.1192881254230156,2.4999999999999996 2.4999999999999987 2.4999999999999996c 1.3807118745769833,2.5363265666181666e-16 2.4999999999999996,-1.1192881254230154 2.4999999999999996 -2.4999999999999987Z" /></g></g></g><g fill="rgb(0,0,255)" fill-opacity="1.0" stroke-width="0.0" opacity="0.5"><g fill="rgb(0,0,255)" fill-opacity="1.0"><g fill="rgb(0,0,255)" fill-opacity="1.0"><path d="M 85.83333333333331,133.33333333333331 c 0.0,-1.3807118745769833 -1.1192881254230158,-2.4999999999999996 -2.499999999999999 -2.4999999999999996c -1.3807118745769833,-8.454421888727222e-17 -2.4999999999999996,1.1192881254230158 -2.4999999999999996 2.4999999999999987c -1.6908843777454444e-16,1.3807118745769833 1.1192881254230156,2.4999999999999996 2.4999999999999987 2.4999999999999996c 1.3807118745769833,2.5363265666181666e-16 2.4999999999999996,-1.1192881254230154 2.4999999999999996 -2.4999999999999987Z" /></g></g></g><g fill="rgb(0,0,255)" fill-opacity="1.0" stroke-width="0.0" opacity="0.5"><g fill="rgb(0,0,255)" fill-opacity="1.0"><g fill="rgb(0,0,255)" fill-opacity="1.0"><path d="M 85.83333333333331,100.0 c 0.0,-1.3807118745769833 -1.1192881254230158,-2.4999999999999996 -2.499999999999999 -2.4999999999999996c -1.3807118745769833,-8.454421888727222e-17 -2.4999999999999996,1.1192881254230158 -2.4999999999999996 2.4999999999999987c -1.6908843777454444e-16,1.3807118745769833 1.1192881254230156,2.4999999999999996 2.4999999999999987 2.4999999999999996c 1.3807118745769833,2.5363265666181666e-16 2.4999999999999996,-1.1192881254230154 2.4999999999999996 -2.4999999999999987Z" /></g></g></g><g fill="rgb(0,0,255)" fill-opacity="1.0" stroke-width="0.0" opacity="0.5"><g fill="rgb(0,0,255)" fill-opacity="1.0"><g fill="rgb(0,0,255)" fill-opacity="1.0"><path d="M 52.50000000000003,199.99999999999997 c 0.0,-1.3807118745769833 -1.1192881254230158,-2.4999999999999996 -2.499999999999999 -2.4999999999999996c -1.3807118745769833,-8.454421888727222e-17 -2.4999999999999996,1.1192881254230158 -2.4999999999999996 2.4999999999999987c -1.6908843777454444e-16,1.3807118745769833 1.1192881254230156,2.4999999999999996 2.4999999999999987 2.4999999999999996c 1.3807118745769833,2.5363265666181666e-16 2.4999999999999996,-1.1192881254230154 2.4999999999999996 -2.4999999999999987Z" /></g></g></g><g fill="rgb(0,0,255)" fill-opacity="1.0" stroke-width="0.0" opacity="0.5"><g fill="rgb(0,0,255)" fill-opacity="1.0"><g fill="rgb(0,0,255)" fill-opacity="1.0"><path d="M 52.50000000000003,166.66666666666669 c 0.0,-1.3807118745769833 -1.1192881254230158,-2.4999999999999996 -2.499999999999999 -2.4999999999999996c -1.3807118745769833,-8.454421888727222e-17 -2.4999999999999996,1.1192881254230158 -2.4999999999999996 2.4999999999999987c -1.6908843777454444e-16,1.3807118745769833 1.1192881254230156,2.4999999999999996 2.4999999999999987 2.4999999999999996c 1.3807118745769833,2.5363265666181666e-16 2.4999999999999996,-1.1192881254230154 2.4999999999999996 -2.4999999999999987Z" /></g></g></g><g fill="rgb(0,0,255)" fill-opacity="1.0" stroke-width="0.0" opacity="0.5"><g fill="rgb(0,0,255)" fill-opacity="1.0"><g fill="rgb(0,0,255)" fill-opacity="1.0"><path d="M 52.50000000000003,133.33333333333331 c 0.0,-1.3807118745769833 -1.1192881254230158,-2.4999999999999996 -2.499999999999999 -2.4999999999999996c -1.3807118745769833,-8.454421888727222e-17 -2.4999999999999996,1.1192881254230158 -2.4999999999999996 2.4999999999999987c -1.6908843777454444e-16,1.3807118745769833 1.1192881254230156,2.4999999999999996 2.4999999999999987 2.4999999999999996c 1.3807118745769833,2.5363265666181666e-16 2.4999999999999996,-1.1192881254230154 2.4999999999999996 -2.4999999999999987Z" /></g></g></g><g fill="rgb(0,0,255)" fill-opacity="1.0" stroke-width="0.0" opacity="0.5"><g fill="rgb(0,0,255)" fill-opacity="1.0"><g fill="rgb(0,0,255)" fill-opacity="1.0"><path d="M 52.50000000000003,100.0 c 0.0,-1.3807118745769833 -1.1192881254230158,-2.4999999999999996 -2.499999999999999 -2.4999999999999996c -1.3807118745769833,-8.454421888727222e-17 -2.4999999999999996,1.1192881254230158 -2.4999999999999996 2.4999999999999987c -1.6908843777454444e-16,1.3807118745769833 1.1192881254230156,2.4999999999999996 2.4999999999999987 2.4999999999999996c 1.3807118745769833,2.5363265666181666e-16 2.4999999999999996,-1.1192881254230154 2.4999999999999996 -2.4999999999999987Z" /></g></g></g><g stroke="rgb(0,0,0)" stroke-opacity="1.0" stroke-width="0.8000000000000002" stroke-dasharray="6.000000000000001,6.000000000000001" stroke-dashoffset="0.0"><path d="M 133.33333333333337,83.33333333333331 h -33.33333333333336 " /></g><g stroke="rgb(0,0,0)" stroke-opacity="1.0" stroke-width="0.8000000000000002" stroke-dasharray="6.000000000000001,6.000000000000001" stroke-dashoffset="0.0"><path d="M 133.33333333333337,50.0 v 33.33333333333332 " /></g><g stroke="rgb(0,0,0)" stroke-opacity="1.0" stroke-width="0.8000000000000002" stroke-dasharray="6.000000000000001,6.000000000000001" stroke-dashoffset="0.0"><path d="M 166.66666666666663,50.0 h -33.33333333333328 " /></g><g stroke="rgb(0,0,0)" stroke-opacity="1.0" stroke-width="0.8000000000000002" stroke-dasharray="6.000000000000001,6.000000000000001" stroke-dashoffset="0.0"><path d="M 166.66666666666663,83.33333333333331 v -33.33333333333332 " /></g><g stroke="rgb(0,0,0)" stroke-opacity="1.0" stroke-width="0.8000000000000002" stroke-dasharray="6.000000000000001,6.000000000000001" stroke-dashoffset="0.0"><path d="M 200.0,83.33333333333331 h -33.33333333333336 " /></g><g stroke="rgb(0,0,0)" stroke-opacity="1.0" stroke-width="0.8000000000000002" stroke-dasharray="6.000000000000001,6.000000000000001" stroke-dashoffset="0.0"><path d="M 200.0,116.66666666666663 v -33.33333333333332 " /></g><g stroke="rgb(0,0,0)" stroke-opacity="1.0" stroke-width="0.8000000000000002" stroke-dasharray="6.000000000000001,6.000000000000001" stroke-dashoffset="0.0"><path d="M 166.66666666666663,116.66666666666663 h 33.33333333333336 " /></g><g stroke="rgb(0,0,0)" stroke-opacity="1.0" stroke-width="0.8000000000000002" stroke-dasharray="6.000000000000001,6.000000000000001" stroke-dashoffset="0.0"><path d="M 166.66666666666663,150.0 v -33.33333333333336 " /></g><g stroke="rgb(0,0,0)" stroke-opacity="1.0" stroke-width="0.8000000000000002" stroke-dasharray="6.000000000000001,6.000000000000001" stroke-dashoffset="0.0"><path d="M 133.33333333333337,150.0 h 33.33333333333328 " /></g><g stroke="rgb(0,0,0)" stroke-opacity="1.0" stroke-width="0.8000000000000002" stroke-dasharray="6.000000000000001,6.000000000000001" stroke-dashoffset="0.0"><path d="M 133.33333333333337,116.66666666666663 v 33.33333333333336 " /></g><g stroke="rgb(0,0,0)" stroke-opacity="1.0" stroke-width="0.8000000000000002" stroke-dasharray="6.000000000000001,6.000000000000001" stroke-dashoffset="0.0"><path d="M 100.0,116.66666666666663 h 33.33333333333336 " /></g><g stroke="rgb(0,0,0)" stroke-opacity="1.0" stroke-width="0.8000000000000002" stroke-dasharray="6.000000000000001,6.000000000000001" stroke-dashoffset="0.0"><path d="M 100.0,83.33333333333331 v 33.33333333333332 " /></g><g fill="rgb(255,0,0)" fill-opacity="1.0"><g fill="rgb(255,0,0)" fill-opacity="1.0"><g fill="rgb(255,0,0)" fill-opacity="1.0"><g fill="rgb(0,0,0)" fill-opacity="1.0" font-size="6.0e-2em"><g fill="rgb(255,0,0)" fill-opacity="1.0"><text transform="matrix(166.66666666666663,0.0,0.0,166.66666666666663,150.0,71.66666666666669)" dominant-baseline="middle" text-anchor="middle" stroke="none">u_40</text></g></g><g stroke-width="0.0" opacity="0.0"><g fill="rgb(255,0,0)" fill-opacity="1.0"><g fill="rgb(255,0,0)" fill-opacity="1.0"><path d="M 155.0,66.66666666666669 c 0.0,-2.7614237491539666 -2.2385762508460316,-4.999999999999999 -4.999999999999998 -4.999999999999999c -2.7614237491539666,-1.6908843777454444e-16 -4.999999999999999,2.2385762508460316 -4.999999999999999 4.999999999999997c -3.381768755490889e-16,2.7614237491539666 2.238576250846031,4.999999999999999 4.999999999999997 4.999999999999999c 2.7614237491539666,5.072653133236333e-16 4.999999999999999,-2.2385762508460307 4.999999999999999 -4.999999999999997Z" /></g></g></g></g></g></g><g fill="rgb(255,0,0)" fill-opacity="1.0"><g fill="rgb(255,0,0)" fill-opacity="1.0"><g fill="rgb(255,0,0)" fill-opacity="1.0"><g fill="rgb(0,0,0)" fill-opacity="1.0" font-size="6.0e-2em"><g fill="rgb(255,0,0)" fill-opacity="1.0"><text transform="matrix(166.66666666666663,0.0,0.0,166.66666666666663,183.33333333333331,105.0)" dominant-baseline="middle" text-anchor="middle" stroke="none">u_51</text></g></g><g stroke-width="0.0" opacity="0.0"><g fill="rgb(255,0,0)" fill-opacity="1.0"><g fill="rgb(255,0,0)" fill-opacity="1.0"><path d="M 188.33333333333331,100.0 c 0.0,-2.7614237491539666 -2.2385762508460316,-4.999999999999999 -4.999999999999998 -4.999999999999999c -2.7614237491539666,-1.6908843777454444e-16 -4.999999999999999,2.2385762508460316 -4.999999999999999 4.999999999999997c -3.381768755490889e-16,2.7614237491539666 2.238576250846031,4.999999999999999 4.999999999999997 4.999999999999999c 2.7614237491539666,5.072653133236333e-16 4.999999999999999,-2.2385762508460307 4.999999999999999 -4.999999999999997Z" /></g></g></g></g></g></g><g fill="rgb(0,0,255)" fill-opacity="1.0"><g fill="rgb(0,0,255)" fill-opacity="1.0"><g fill="rgb(0,0,255)" fill-opacity="1.0"><g fill="rgb(0,0,0)" fill-opacity="1.0" font-size="6.0e-2em"><g fill="rgb(0,0,255)" fill-opacity="1.0"><text transform="matrix(166.66666666666663,0.0,0.0,166.66666666666663,150.0,105.0)" dominant-baseline="middle" text-anchor="middle" stroke="none">u_41</text></g></g><g stroke-width="0.0" opacity="0.0"><g fill="rgb(0,0,255)" fill-opacity="1.0"><g fill="rgb(0,0,255)" fill-opacity="1.0"><path d="M 155.0,100.0 c 0.0,-2.7614237491539666 -2.2385762508460316,-4.999999999999999 -4.999999999999998 -4.999999999999999c -2.7614237491539666,-1.6908843777454444e-16 -4.999999999999999,2.2385762508460316 -4.999999999999999 4.999999999999997c -3.381768755490889e-16,2.7614237491539666 2.238576250846031,4.999999999999999 4.999999999999997 4.999999999999999c 2.7614237491539666,5.072653133236333e-16 4.999999999999999,-2.2385762508460307 4.999999999999999 -4.999999999999997Z" /></g></g></g></g></g></g><g fill="rgb(0,0,255)" fill-opacity="1.0"><g fill="rgb(0,0,255)" fill-opacity="1.0"><g fill="rgb(0,0,255)" fill-opacity="1.0"><g fill="rgb(0,0,0)" fill-opacity="1.0" font-size="6.0e-2em"><g fill="rgb(0,0,255)" fill-opacity="1.0"><text transform="matrix(166.66666666666663,0.0,0.0,166.66666666666663,116.66666666666669,105.0)" dominant-baseline="middle" text-anchor="middle" stroke="none">u_31</text></g></g><g stroke-width="0.0" opacity="0.0"><g fill="rgb(0,0,255)" fill-opacity="1.0"><g fill="rgb(0,0,255)" fill-opacity="1.0"><path d="M 121.66666666666669,100.0 c 0.0,-2.7614237491539666 -2.2385762508460316,-4.999999999999999 -4.999999999999998 -4.999999999999999c -2.7614237491539666,-1.6908843777454444e-16 -4.999999999999999,2.2385762508460316 -4.999999999999999 4.999999999999997c -3.381768755490889e-16,2.7614237491539666 2.238576250846031,4.999999999999999 4.999999999999997 4.999999999999999c 2.7614237491539666,5.072653133236333e-16 4.999999999999999,-2.2385762508460307 4.999999999999999 -4.999999999999997Z" /></g></g></g></g></g></g><g fill="rgb(0,0,255)" fill-opacity="1.0"><g fill="rgb(0,0,255)" fill-opacity="1.0"><g fill="rgb(0,0,255)" fill-opacity="1.0"><g fill="rgb(0,0,0)" fill-opacity="1.0" font-size="6.0e-2em"><g fill="rgb(0,0,255)" fill-opacity="1.0"><text transform="matrix(166.66666666666663,0.0,0.0,166.66666666666663,150.0,138.33333333333331)" dominant-baseline="middle" text-anchor="middle" stroke="none">u_42</text></g></g><g stroke-width="0.0" opacity="0.0"><g fill="rgb(0,0,255)" fill-opacity="1.0"><g fill="rgb(0,0,255)" fill-opacity="1.0"><path d="M 155.0,133.33333333333331 c 0.0,-2.7614237491539666 -2.2385762508460316,-4.999999999999999 -4.999999999999998 -4.999999999999999c -2.7614237491539666,-1.6908843777454444e-16 -4.999999999999999,2.2385762508460316 -4.999999999999999 4.999999999999997c -3.381768755490889e-16,2.7614237491539666 2.238576250846031,4.999999999999999 4.999999999999997 4.999999999999999c 2.7614237491539666,5.072653133236333e-16 4.999999999999999,-2.2385762508460307 4.999999999999999 -4.999999999999997Z" /></g></g></g></g></g></g></g></g></g></svg>