<?xml version="1.0" encoding="UTF-8"?>
<!DOCTYPE svg PUBLIC "-//W3C//DTD SVG 1.1//EN"
    "http://www.w3.org/Graphics/SVG/1.1/DTD/svg11.dtd"><svg xmlns="http://www.w3.org/2000/svg" height="400.0" stroke-opacity="1" viewBox="0 0 400 400" font-size="1" width="400.0" xmlns:xlink="http://www.w3.org/1999/xlink" stroke="rgb(0,0,0)" version="1.1"><defs></defs><defs></defs><g stroke-linejoin="miter" stroke-opacity="1.0" fill-opacity="0.0" stroke="rgb(0,0,0)" stroke-width="3.0" fill="rgb(0,0,0)" stroke-linecap="butt" stroke-miterlimit="10.0"><path d="M 79.24528301886792,79.24528301886792 h 3.7735849056603774 l 2.310654338013874e-16,3.7735849056603774 h 3.7735849056603774 l 2.310654338013874e-16,-3.7735849056603774 l 2.310654338013874e-16,-3.7735849056603774 h 3.7735849056603774 l 2.310654338013874e-16,3.7735849056603774 h 3.7735849056603774 l 2.310654338013874e-16,3.7735849056603774 l -3.7735849056603774,4.621308676027748e-16 l 2.310654338013874e-16,3.7735849056603774 h 3.7735849056603774 h 3.7735849056603774 l 2.310654338013874e-16,3.7735849056603774 l -3.7735849056603774,4.621308676027748e-16 l 2.310654338013874e-16,3.7735849056603774 h 3.7735849056603774 l 2.310654338013874e-16,3.7735849056603774 h 3.7735849056603774 l 2.310654338013874e-16,-3.7735849056603774 l 2.310654338013874e-16,-3.7735849056603774 h 3.7735849056603774 l 2.310654338013874e-16,3.7735849056603774 h 3.7735849056603774 l 2.310654338013874e-16,-3.7735849056603774 h 3.7735849056603774 l 2.310654338013874e-16,-3.7735849056603774 l -3.7735849056603774,-4.621308676027748e-16 l -3.7735849056603774,-4.621308676027748e-16 l 2.310654338013874e-16,-3.7735849056603774 h 3.7735849056603774 l 2.310654338013874e-16,-3.7735849056603774 l 2.310654338013874e-16,-3.7735849056603774 h 3.7735849056603774 l 2.310654338013874e-16,-3.7735849056603774 l -3.7735849056603774,-4.621308676027748e-16 l -3.7735849056603774,-4.621308676027748e-16 l 2.310654338013874e-16,-3.7735849056603774 h 3.7735849056603774 l 2.310654338013874e-16,-3.7735849056603774 h 3.7735849056603774 l 2.310654338013874e-16,3.7735849056603774 h 3.7735849056603774 l 2.310654338013874e-16,-3.7735849056603774 l 2.310654338013874e-16,-3.7735849056603774 h 3.7735849056603774 l 2.310654338013874e-16,3.7735849056603774 h 3.7735849056603774 l 2.310654338013874e-16,3.7735849056603774 l -3.7735849056603774,4.621308676027748e-16 l 2.310654338013874e-16,3.7735849056603774 h 3.7735849056603774 h 3.7735849056603774 l 2.310654338013874e-16,3.7735849056603774 l -3.7735849056603774,4.621308676027748e-16 l 2.310654338013874e-16,3.7735849056603774 h 3.7735849056603774 l 2.310654338013874e-16,3.7735849056603774 h 3.7735849056603774 l 2.310654338013874e-16,-3.7735849056603774 l 2.310654338013874e-16,-3.7735849056603774 h 3.7735849056603774 l 2.310654338013874e-16,3.7735849056603774 h 3.7735849056603774 l 2.310654338013874e-16,3.7735849056603774 l -3.7735849056603774,4.621308676027748e-16 l 2.310654338013874e-16,3.7735849056603774 h 3.7735849056603774 h 3.7735849056603774 l 2.310654338013874e-16,3.7735849056603774 l -3.7735849056603774,4.621308676027748e-16 l 2.310654338013874e-16,3.7735849056603774 l -3.7735849056603774,4.621308676027748e-16 l -6.931963014041621e-16,-3.7735849056603774 l -3.7735849056603774,4.621308676027748e-16 l 2.310654338013874e-16,3.7735849056603774 l 2.310654338013874e-16,3.7735849056603774 l -3.7735849056603774,4.621308676027748e-16 l -6.931963014041621e-16,-3.7735849056603774 l -3.7735849056603774,4.621308676027748e-16 l 2.310654338013874e-16,3.7735849056603774 l -3.7735849056603774,4.621308676027748e-16 l 2.310654338013874e-16,3.7735849056603774 h 3.7735849056603774 h 3.7735849056603774 l 2.310654338013874e-16,3.7735849056603774 l -3.7735849056603774,4.621308676027748e-16 l 2.310654338013874e-16,3.7735849056603774 h 3.7735849056603774 l 2.310654338013874e-16,3.7735849056603774 h 3.7735849056603774 l 2.310654338013874e-16,-3.7735849056603774 l 2.310654338013874e-16,-3.7735849056603774 h 3.7735849056603774 l 2.310654338013874e-16,3.7735849056603774 h 3.7735849056603774 h 3.7735849056603774 l 2.310654338013874e-16,3.7735849056603774 h 3.7735849056603774 l 2.310654338013874e-16,-3.7735849056603774 l 2.310654338013874e-16,-3.7735849056603774 h 3.7735849056603774 l 2.310654338013874e-16,3.7735849056603774 h 3.7735849056603774 l 2.310654338013874e-16,3.7735849056603774 l -3.7735849056603774,4.621308676027748e-16 l 2.310654338013874e-16,3.7735849056603774 h 3.7735849056603774 h 3.7735849056603774 l 2.310654338013874e-16,3.7735849056603774 l -3.7735849056603774,4.621308676027748e-16 l 2.310654338013874e-16,3.7735849056603774 l -3.7735849056603774,4.621308676027748e-16 l -6.931963014041621e-16,-3.7735849056603774 l -3.7735849056603774,4.621308676027748e-16 l 2.310654338013874e-16,3.7735849056603774 l 2.310654338013874e-16,3.7735849056603774 l -3.7735849056603774,4.621308676027748e-16 l -6.931963014041621e-16,-3.7735849056603774 l -3.7735849056603774,4.621308676027748e-16 l 2.310654338013874e-16,3.7735849056603774 l -3.7735849056603774,4.621308676027748e-16 l 2.310654338013874e-16,3.7735849056603774 h 3.7735849056603774 h 3.7735849056603774 l 2.310654338013874e-16,3.7735849056603774 l -3.7735849056603774,4.621308676027748e-16 l 2.310654338013874e-16,3.7735849056603774 h 3.7735849056603774 l 2.310654338013874e-16,3.7735849056603774 h 3.7735849056603774 l 2.310654338013874e-16,-3.7735849056603774 l 2.310654338013874e-16,-3.7735849056603774 h 3.7735849056603774 l 2.310654338013874e-16,3.7735849056603774 h 3.7735849056603774 l 2.310654338013874e-16,3.7735849056603774 l -3.7735849056603774,4.621308676027748e-16 l 2.310654338013874e-16,3.7735849056603774 h 3.7735849056603774 h 3.7735849056603774 l 2.310654338013874e-16,3.7735849056603774 l -3.7735849056603774,4.621308676027748e-16 l 2.310654338013874e-16,3.7735849056603774 h 3.7735849056603774 l 2.310654338013874e-16,3.7735849056603774 h 3.7735849056603774 l 2.310654338013874e-16,-3.7735849056603774 l 2.310654338013874e-16,-3.7735849056603774 h 3.7735849056603774 l 2.310654338013874e-16,3.7735849056603774 h 3.7735849056603774 l 2.310654338013874e-16,-3.7735849056603774 h 3.7735849056603774 l 2.310654338013874e-16,-3.7735849056603774 l -3.7735849056603774,-4.621308676027748e-16 l -3.7735849056603774,-4.621308676027748e-16 l 2.310654338013874e-16,-3.7735849056603774 h 3.7735849056603774 l 2.310654338013874e-16,-3.7735849056603774 l 2.310654338013874e-16,-3.7735849056603774 h 3.7735849056603774 l 2.310654338013874e-16,-3.7735849056603774 l -3.7735849056603774,-4.621308676027748e-16 l -3.7735849056603774,-4.621308676027748e-16 l 2.310654338013874e-16,-3.7735849056603774 h 3.7735849056603774 l 2.310654338013874e-16,-3.7735849056603774 h 3.7735849056603774 l 2.310654338013874e-16,3.7735849056603774 h 3.7735849056603774 l 2.310654338013874e-16,-3.7735849056603774 l 2.310654338013874e-16,-3.7735849056603774 h 3.7735849056603774 l 2.310654338013874e-16,3.7735849056603774 h 3.7735849056603774 l 2.310654338013874e-16,3.7735849056603774 l -3.7735849056603774,4.621308676027748e-16 l 2.310654338013874e-16,3.7735849056603774 h 3.7735849056603774 h 3.7735849056603774 l 2.310654338013874e-16,3.7735849056603774 l -3.7735849056603774,4.621308676027748e-16 l 2.310654338013874e-16,3.7735849056603774 h 3.7735849056603774 l 2.310654338013874e-16,3.7735849056603774 h 3.7735849056603774 l 2.310654338013874e-16,-3.7735849056603774 l 2.310654338013874e-16,-3.7735849056603774 h 3.7735849056603774 l 2.310654338013874e-16,3.7735849056603774 h 3.7735849056603774 l 2.310654338013874e-16,-3.7735849056603774 h 3.7735849056603774 l 2.310654338013874e-16,-3.7735849056603774 l -3.7735849056603774,-4.621308676027748e-16 l -3.7735849056603774,-4.621308676027748e-16 l 2.310654338013874e-16,-3.7735849056603774 h 3.7735849056603774 l 2.310654338013874e-16,-3.7735849056603774 h 3.7735849056603774 l 2.310654338013874e-16,3.7735849056603774 h 3.7735849056603774 l 2.310654338013874e-16,-3.7735849056603774 l 2.310654338013874e-16,-3.7735849056603774 h 3.7735849056603774 l 2.310654338013874e-16,3.7735849056603774 h 3.7735849056603774 l 2.310654338013874e-16,-3.7735849056603774 h 3.7735849056603774 l 2.310654338013874e-16,-3.7735849056603774 l -3.7735849056603774,-4.621308676027748e-16 l -3.7735849056603774,-4.621308676027748e-16 l 2.310654338013874e-16,-3.7735849056603774 h 3.7735849056603774 l 2.310654338013874e-16,-3.7735849056603774 l -3.7735849056603774,-4.621308676027748e-16 l 2.310654338013874e-16,-3.7735849056603774 l -3.7735849056603774,-4.621308676027748e-16 l -6.931963014041621e-16,3.7735849056603774 l -6.931963014041621e-16,3.7735849056603774 l -3.7735849056603774,-4.621308676027748e-16 l 2.310654338013874e-16,-3.7735849056603774 l -3.7735849056603774,-4.621308676027748e-16 l -3.7735849056603774,-4.621308676027748e-16 l 2.310654338013874e-16,-3.7735849056603774 l -3.7735849056603774,-4.621308676027748e-16 l -6.931963014041621e-16,3.7735849056603774 l -6.931963014041621e-16,3.7735849056603774 l -3.7735849056603774,-4.621308676027748e-16 l 2.310654338013874e-16,-3.7735849056603774 l -3.7735849056603774,-4.621308676027748e-16 l 2.310654338013874e-16,-3.7735849056603774 h 3.7735849056603774 l 2.310654338013874e-16,-3.7735849056603774 l -3.7735849056603774,-4.621308676027748e-16 l -3.7735849056603774,-4.621308676027748e-16 l 2.310654338013874e-16,-3.7735849056603774 h 3.7735849056603774 l 2.310654338013874e-16,-3.7735849056603774 h 3.7735849056603774 l 2.310654338013874e-16,3.7735849056603774 h 3.7735849056603774 l 2.310654338013874e-16,-3.7735849056603774 l 2.310654338013874e-16,-3.7735849056603774 h 3.7735849056603774 l 2.310654338013874e-16,3.7735849056603774 h 3.7735849056603774 l 2.310654338013874e-16,-3.7735849056603774 h 3.7735849056603774 l 2.310654338013874e-16,-3.7735849056603774 l -3.7735849056603774,-4.621308676027748e-16 l -3.7735849056603774,-4.621308676027748e-16 l 2.310654338013874e-16,-3.7735849056603774 h 3.7735849056603774 l 2.310654338013874e-16,-3.7735849056603774 l 2.310654338013874e-16,-3.7735849056603774 h 3.7735849056603774 l 2.310654338013874e-16,-3.7735849056603774 l -3.7735849056603774,-4.621308676027748e-16 l -3.7735849056603774,-4.621308676027748e-16 l 2.310654338013874e-16,-3.7735849056603774 h 3.7735849056603774 l 2.310654338013874e-16,-3.7735849056603774 h 3.7735849056603774 l 2.310654338013874e-16,3.7735849056603774 h 3.7735849056603774 l 2.310654338013874e-16,-3.7735849056603774 l 2.310654338013874e-16,-3.7735849056603774 h 3.7735849056603774 l 2.310654338013874e-16,3.7735849056603774 h 3.7735849056603774 l 2.310654338013874e-16,-3.7735849056603774 h 3.7735849056603774 l 2.310654338013874e-16,-3.7735849056603774 l -3.7735849056603774,-4.621308676027748e-16 l -3.7735849056603774,-4.621308676027748e-16 l 2.310654338013874e-16,-3.7735849056603774 h 3.7735849056603774 l 2.310654338013874e-16,-3.7735849056603774 l -3.7735849056603774,-4.621308676027748e-16 l 2.310654338013874e-16,-3.7735849056603774 l -3.7735849056603774,-4.621308676027748e-16 l -6.931963014041621e-16,3.7735849056603774 l -6.931963014041621e-16,3.7735849056603774 l -3.7735849056603774,-4.621308676027748e-16 l 2.310654338013874e-16,-3.7735849056603774 l -3.7735849056603774,-4.621308676027748e-16 l -3.7735849056603774,-4.621308676027748e-16 l 2.310654338013874e-16,-3.7735849056603774 l -3.7735849056603774,-4.621308676027748e-16 l -6.931963014041621e-16,3.7735849056603774 l -6.931963014041621e-16,3.7735849056603774 l -3.7735849056603774,-4.621308676027748e-16 l 2.310654338013874e-16,-3.7735849056603774 l -3.7735849056603774,-4.621308676027748e-16 l 2.310654338013874e-16,-3.7735849056603774 h 3.7735849056603774 l 2.310654338013874e-16,-3.7735849056603774 l -3.7735849056603774,-4.621308676027748e-16 l -3.7735849056603774,-4.621308676027748e-16 l 2.310654338013874e-16,-3.7735849056603774 h 3.7735849056603774 l 2.310654338013874e-16,-3.7735849056603774 h 3.7735849056603774 l 2.310654338013874e-16,3.7735849056603774 h 3.7735849056603774 l 2.310654338013874e-16,-3.7735849056603774 l 2.310654338013874e-16,-3.7735849056603774 h 3.7735849056603774 l 2.310654338013874e-16,3.7735849056603774 h 3.7735849056603774 l 2.310654338013874e-16,-3.7735849056603774 h 3.7735849056603774 l 2.310654338013874e-16,-3.7735849056603774 l -3.7735849056603774,-4.621308676027748e-16 l -3.7735849056603774,-4.621308676027748e-16 l 2.310654338013874e-16,-3.7735849056603774 h 3.7735849056603774 l 2.310654338013874e-16,-3.7735849056603774 h 3.7735849056603774 l 2.310654338013874e-16,3.7735849056603774 h 3.7735849056603774 l 2.310654338013874e-16,-3.7735849056603774 l 2.310654338013874e-16,-3.7735849056603774 h 3.7735849056603774 l 2.310654338013874e-16,3.7735849056603774 h 3.7735849056603774 l 2.310654338013874e-16,3.7735849056603774 l -3.7735849056603774,4.621308676027748e-16 l 2.310654338013874e-16,3.7735849056603774 h 3.7735849056603774 h 3.7735849056603774 l 2.310654338013874e-16,3.7735849056603774 l -3.7735849056603774,4.621308676027748e-16 l 2.310654338013874e-16,3.7735849056603774 h 3.7735849056603774 l 2.310654338013874e-16,3.7735849056603774 h 3.7735849056603774 l 2.310654338013874e-16,-3.7735849056603774 l 2.310654338013874e-16,-3.7735849056603774 h 3.7735849056603774 l 2.310654338013874e-16,3.7735849056603774 h 3.7735849056603774 l 2.310654338013874e-16,-3.7735849056603774 h 3.7735849056603774 l 2.310654338013874e-16,-3.7735849056603774 l -3.7735849056603774,-4.621308676027748e-16 l -3.7735849056603774,-4.621308676027748e-16 l 2.310654338013874e-16,-3.7735849056603774 h 3.7735849056603774 l 2.310654338013874e-16,-3.7735849056603774 l 2.310654338013874e-16,-3.7735849056603774 h 3.7735849056603774 l 2.310654338013874e-16,-3.7735849056603774 l -3.7735849056603774,-4.621308676027748e-16 l -3.7735849056603774,-4.621308676027748e-16 l 2.310654338013874e-16,-3.7735849056603774 h 3.7735849056603774 l 2.310654338013874e-16,-3.7735849056603774 h 3.7735849056603774 l 2.310654338013874e-16,3.7735849056603774 h 3.7735849056603774 l 2.310654338013874e-16,-3.7735849056603774 l 2.310654338013874e-16,-3.7735849056603774 h 3.7735849056603774 l 2.310654338013874e-16,3.7735849056603774 h 3.7735849056603774 l 2.310654338013874e-16,3.7735849056603774 l -3.7735849056603774,4.621308676027748e-16 l 2.310654338013874e-16,3.7735849056603774 h 3.7735849056603774 h 3.7735849056603774 l 2.310654338013874e-16,3.7735849056603774 l -3.7735849056603774,4.621308676027748e-16 l 2.310654338013874e-16,3.7735849056603774 h 3.7735849056603774 l 2.310654338013874e-16,3.7735849056603774 h 3.7735849056603774 l 2.310654338013874e-16,-3.7735849056603774 l 2.310654338013874e-16,-3.7735849056603774 h 3.7735849056603774 l 2.310654338013874e-16,3.7735849056603774 h 3.7735849056603774 l 2.310654338013874e-16,3.7735849056603774 l -3.7735849056603774,4.621308676027748e-16 l 2.310654338013874e-16,3.7735849056603774 h 3.7735849056603774 h 3.7735849056603774 l 2.310654338013874e-16,3.7735849056603774 l -3.7735849056603774,4.621308676027748e-16 l 2.310654338013874e-16,3.7735849056603774 l -3.7735849056603774,4.621308676027748e-16 l -6.931963014041621e-16,-3.7735849056603774 l -3.7735849056603774,4.621308676027748e-16 l 2.310654338013874e-16,3.7735849056603774 l 2.310654338013874e-16,3.7735849056603774 l -3.7735849056603774,4.621308676027748e-16 l -6.931963014041621e-16,-3.7735849056603774 l -3.7735849056603774,4.621308676027748e-16 l 2.310654338013874e-16,3.7735849056603774 l -3.7735849056603774,4.621308676027748e-16 l 2.310654338013874e-16,3.7735849056603774 h 3.7735849056603774 h 3.7735849056603774 l 2.310654338013874e-16,3.7735849056603774 l -3.7735849056603774,4.621308676027748e-16 l 2.310654338013874e-16,3.7735849056603774 h 3.7735849056603774 l 2.310654338013874e-16,3.7735849056603774 h 3.7735849056603774 l 2.310654338013874e-16,-3.7735849056603774 l 2.310654338013874e-16,-3.7735849056603774 h 3.7735849056603774 l 2.310654338013874e-16,3.7735849056603774 h 3.7735849056603774 h 3.7735849056603774 l 2.310654338013874e-16,3.7735849056603774 h 3.7735849056603774 l 2.310654338013874e-16,-3.7735849056603774 l 2.310654338013874e-16,-3.7735849056603774 h 3.7735849056603774 l 2.310654338013874e-16,3.7735849056603774 h 3.7735849056603774 l 2.310654338013874e-16,3.7735849056603774 l -3.7735849056603774,4.621308676027748e-16 l 2.310654338013874e-16,3.7735849056603774 h 3.7735849056603774 h 3.7735849056603774 l 2.310654338013874e-16,3.7735849056603774 l -3.7735849056603774,4.621308676027748e-16 l 2.310654338013874e-16,3.7735849056603774 l -3.7735849056603774,4.621308676027748e-16 l -6.931963014041621e-16,-3.7735849056603774 l -3.7735849056603774,4.621308676027748e-16 l 2.310654338013874e-16,3.7735849056603774 l 2.310654338013874e-16,3.7735849056603774 l -3.7735849056603774,4.621308676027748e-16 l -6.931963014041621e-16,-3.7735849056603774 l -3.7735849056603774,4.621308676027748e-16 l 2.310654338013874e-16,3.7735849056603774 l -3.7735849056603774,4.621308676027748e-16 l 2.310654338013874e-16,3.7735849056603774 h 3.7735849056603774 h 3.7735849056603774 l 2.310654338013874e-16,3.7735849056603774 l -3.7735849056603774,4.621308676027748e-16 l 2.310654338013874e-16,3.7735849056603774 h 3.7735849056603774 l 2.310654338013874e-16,3.7735849056603774 h 3.7735849056603774 l 2.310654338013874e-16,-3.7735849056603774 l 2.310654338013874e-16,-3.7735849056603774 h 3.7735849056603774 l 2.310654338013874e-16,3.7735849056603774 h 3.7735849056603774 l 2.310654338013874e-16,3.7735849056603774 l -3.7735849056603774,4.621308676027748e-16 l 2.310654338013874e-16,3.7735849056603774 h 3.7735849056603774 h 3.7735849056603774 l 2.310654338013874e-16,3.7735849056603774 l -3.7735849056603774,4.621308676027748e-16 l 2.310654338013874e-16,3.7735849056603774 h 3.7735849056603774 l 2.310654338013874e-16,3.7735849056603774 h 3.7735849056603774 l 2.310654338013874e-16,-3.7735849056603774 l 2.310654338013874e-16,-3.7735849056603774 h 3.7735849056603774 l 2.310654338013874e-16,3.7735849056603774 h 3.7735849056603774 l 2.310654338013874e-16,-3.7735849056603774 h 3.7735849056603774 l 2.310654338013874e-16,-3.7735849056603774 l -3.7735849056603774,-4.621308676027748e-16 l -3.7735849056603774,-4.621308676027748e-16 l 2.310654338013874e-16,-3.7735849056603774 h 3.7735849056603774 l 2.310654338013874e-16,-3.7735849056603774 l 2.310654338013874e-16,-3.7735849056603774 h 3.7735849056603774 l 2.310654338013874e-16,-3.7735849056603774 l -3.7735849056603774,-4.621308676027748e-16 l -3.7735849056603774,-4.621308676027748e-16 l 2.310654338013874e-16,-3.7735849056603774 h 3.7735849056603774 l 2.310654338013874e-16,-3.7735849056603774 h 3.7735849056603774 l 2.310654338013874e-16,3.7735849056603774 h 3.7735849056603774 l 2.310654338013874e-16,-3.7735849056603774 l 2.310654338013874e-16,-3.7735849056603774 h 3.7735849056603774 l 2.310654338013874e-16,3.7735849056603774 h 3.7735849056603774 l 2.310654338013874e-16,3.7735849056603774 l -3.7735849056603774,4.621308676027748e-16 l 2.310654338013874e-16,3.7735849056603774 h 3.7735849056603774 h 3.7735849056603774 l 2.310654338013874e-16,3.7735849056603774 l -3.7735849056603774,4.621308676027748e-16 l 2.310654338013874e-16,3.7735849056603774 h 3.7735849056603774 l 2.310654338013874e-16,3.7735849056603774 h 3.7735849056603774 l 2.310654338013874e-16,-3.7735849056603774 l 2.310654338013874e-16,-3.7735849056603774 h 3.7735849056603774 l 2.310654338013874e-16,3.7735849056603774 h 3.7735849056603774 l 2.310654338013874e-16,3.7735849056603774 l -3.7735849056603774,4.621308676027748e-16 l 2.310654338013874e-16,3.7735849056603774 h 3.7735849056603774 h 3.7735849056603774 l 2.310654338013874e-16,3.7735849056603774 l -3.7735849056603774,4.621308676027748e-16 l 2.310654338013874e-16,3.7735849056603774 l -3.7735849056603774,4.621308676027748e-16 l -6.931963014041621e-16,-3.7735849056603774 l -3.7735849056603774,4.621308676027748e-16 l 2.310654338013874e-16,3.7735849056603774 l 2.310654338013874e-16,3.7735849056603774 l -3.7735849056603774,4.621308676027748e-16 l -6.931963014041621e-16,-3.7735849056603774 l -3.7735849056603774,4.621308676027748e-16 l 2.310654338013874e-16,3.7735849056603774 l -3.7735849056603774,4.621308676027748e-16 l 2.310654338013874e-16,3.7735849056603774 h 3.7735849056603774 h 3.7735849056603774 l 2.310654338013874e-16,3.7735849056603774 l -3.7735849056603774,4.621308676027748e-16 l 2.310654338013874e-16,3.7735849056603774 h 3.7735849056603774 l 2.310654338013874e-16,3.7735849056603774 h 3.7735849056603774 l 2.310654338013874e-16,-3.7735849056603774 l 2.310654338013874e-16,-3.7735849056603774 h 3.7735849056603774 l 2.310654338013874e-16,3.7735849056603774 h 3.7735849056603774 h 3.7735849056603774 l 2.310654338013874e-16,3.7735849056603774 h 3.7735849056603774 l 2.310654338013874e-16,-3.7735849056603774 l 2.310654338013874e-16,-3.7735849056603774 h 3.7735849056603774 l 2.310654338013874e-16,3.7735849056603774 h 3.7735849056603774 l 2.310654338013874e-16,3.7735849056603774 l -3.7735849056603774,4.621308676027748e-16 l 2.310654338013874e-16,3.7735849056603774 h 3.7735849056603774 h 3.7735849056603774 l 2.310654338013874e-16,3.7735849056603774 l -3.7735849056603774,4.621308676027748e-16 l 2.310654338013874e-16,3.7735849056603774 l -3.7735849056603774,4.621308676027748e-16 l -6.931963014041621e-16,-3.7735849056603774 l -3.7735849056603774,4.621308676027748e-16 l 2.310654338013874e-16,3.7735849056603774 l 2.310654338013874e-16,3.7735849056603774 l -3.7735849056603774,4.621308676027748e-16 l -6.931963014041621e-16,-3.7735849056603774 l -3.7735849056603774,4.621308676027748e-16 l 2.310654338013874e-16,3.7735849056603774 l -3.7735849056603774,4.621308676027748e-16 l 2.310654338013874e-16,3.7735849056603774 h 3.7735849056603774 h 3.7735849056603774 l 2.310654338013874e-16,3.7735849056603774 l -3.7735849056603774,4.621308676027748e-16 l 2.310654338013874e-16,3.7735849056603774 l -3.7735849056603774,4.621308676027748e-16 l -6.931963014041621e-16,-3.7735849056603774 l -3.7735849056603774,4.621308676027748e-16 l 2.310654338013874e-16,3.7735849056603774 l 2.310654338013874e-16,3.7735849056603774 l -3.7735849056603774,4.621308676027748e-16 l -6.931963014041621e-16,-3.7735849056603774 l -3.7735849056603774,4.621308676027748e-16 l -6.931963014041621e-16,-3.7735849056603774 l 3.7735849056603774,-9.242617352055496e-16 l -6.931963014041621e-16,-3.7735849056603774 l -3.7735849056603774,4.621308676027748e-16 l -3.7735849056603774,4.621308676027748e-16 l -6.931963014041621e-16,-3.7735849056603774 l 3.7735849056603774,-9.242617352055496e-16 l -6.931963014041621e-16,-3.7735849056603774 l -3.7735849056603774,4.621308676027748e-16 l -6.931963014041621e-16,-3.7735849056603774 l -3.7735849056603774,4.621308676027748e-16 l 2.310654338013874e-16,3.7735849056603774 l 2.310654338013874e-16,3.7735849056603774 l -3.7735849056603774,4.621308676027748e-16 l -6.931963014041621e-16,-3.7735849056603774 l -3.7735849056603774,4.621308676027748e-16 l 2.310654338013874e-16,3.7735849056603774 l -3.7735849056603774,4.621308676027748e-16 l 2.310654338013874e-16,3.7735849056603774 h 3.7735849056603774 h 3.7735849056603774 l 2.310654338013874e-16,3.7735849056603774 l -3.7735849056603774,4.621308676027748e-16 l 2.310654338013874e-16,3.7735849056603774 l 2.310654338013874e-16,3.7735849056603774 l -3.7735849056603774,4.621308676027748e-16 l 2.310654338013874e-16,3.7735849056603774 h 3.7735849056603774 h 3.7735849056603774 l 2.310654338013874e-16,3.7735849056603774 l -3.7735849056603774,4.621308676027748e-16 l 2.310654338013874e-16,3.7735849056603774 l -3.7735849056603774,4.621308676027748e-16 l -6.931963014041621e-16,-3.7735849056603774 l -3.7735849056603774,4.621308676027748e-16 l 2.310654338013874e-16,3.7735849056603774 l 2.310654338013874e-16,3.7735849056603774 l -3.7735849056603774,4.621308676027748e-16 l -6.931963014041621e-16,-3.7735849056603774 l -3.7735849056603774,4.621308676027748e-16 l -6.931963014041621e-16,-3.7735849056603774 l 3.7735849056603774,-9.242617352055496e-16 l -6.931963014041621e-16,-3.7735849056603774 l -3.7735849056603774,4.621308676027748e-16 l -3.7735849056603774,4.621308676027748e-16 l -6.931963014041621e-16,-3.7735849056603774 l 3.7735849056603774,-9.242617352055496e-16 l -6.931963014041621e-16,-3.7735849056603774 l -3.7735849056603774,4.621308676027748e-16 l -6.931963014041621e-16,-3.7735849056603774 l -3.7735849056603774,4.621308676027748e-16 l 2.310654338013874e-16,3.7735849056603774 l 2.310654338013874e-16,3.7735849056603774 l -3.7735849056603774,4.621308676027748e-16 l -6.931963014041621e-16,-3.7735849056603774 l -3.7735849056603774,4.621308676027748e-16 l 2.310654338013874e-16,3.7735849056603774 l -3.7735849056603774,4.621308676027748e-16 l 2.310654338013874e-16,3.7735849056603774 h 3.7735849056603774 h 3.7735849056603774 l 2.310654338013874e-16,3.7735849056603774 l -3.7735849056603774,4.621308676027748e-16 l 2.310654338013874e-16,3.7735849056603774 l -3.7735849056603774,4.621308676027748e-16 l -6.931963014041621e-16,-3.7735849056603774 l -3.7735849056603774,4.621308676027748e-16 l 2.310654338013874e-16,3.7735849056603774 l 2.310654338013874e-16,3.7735849056603774 l -3.7735849056603774,4.621308676027748e-16 l -6.931963014041621e-16,-3.7735849056603774 l -3.7735849056603774,4.621308676027748e-16 l 2.310654338013874e-16,3.7735849056603774 l -3.7735849056603774,4.621308676027748e-16 l 2.310654338013874e-16,3.7735849056603774 h 3.7735849056603774 h 3.7735849056603774 l 2.310654338013874e-16,3.7735849056603774 l -3.7735849056603774,4.621308676027748e-16 l 2.310654338013874e-16,3.7735849056603774 h 3.7735849056603774 l 2.310654338013874e-16,3.7735849056603774 h 3.7735849056603774 l 2.310654338013874e-16,-3.7735849056603774 l 2.310654338013874e-16,-3.7735849056603774 h 3.7735849056603774 l 2.310654338013874e-16,3.7735849056603774 h 3.7735849056603774 h 3.7735849056603774 l 2.310654338013874e-16,3.7735849056603774 h 3.7735849056603774 l 2.310654338013874e-16,-3.7735849056603774 l 2.310654338013874e-16,-3.7735849056603774 h 3.7735849056603774 l 2.310654338013874e-16,3.7735849056603774 h 3.7735849056603774 l 2.310654338013874e-16,3.7735849056603774 l -3.7735849056603774,4.621308676027748e-16 l 2.310654338013874e-16,3.7735849056603774 h 3.7735849056603774 h 3.7735849056603774 l 2.310654338013874e-16,3.7735849056603774 l -3.7735849056603774,4.621308676027748e-16 l 2.310654338013874e-16,3.7735849056603774 l -3.7735849056603774,4.621308676027748e-16 l -6.931963014041621e-16,-3.7735849056603774 l -3.7735849056603774,4.621308676027748e-16 l 2.310654338013874e-16,3.7735849056603774 l 2.310654338013874e-16,3.7735849056603774 l -3.7735849056603774,4.621308676027748e-16 l -6.931963014041621e-16,-3.7735849056603774 l -3.7735849056603774,4.621308676027748e-16 l 2.310654338013874e-16,3.7735849056603774 l -3.7735849056603774,4.621308676027748e-16 l 2.310654338013874e-16,3.7735849056603774 h 3.7735849056603774 h 3.7735849056603774 l 2.310654338013874e-16,3.7735849056603774 l -3.7735849056603774,4.621308676027748e-16 l 2.310654338013874e-16,3.7735849056603774 h 3.7735849056603774 l 2.310654338013874e-16,3.7735849056603774 h 3.7735849056603774 l 2.310654338013874e-16,-3.7735849056603774 l 2.310654338013874e-16,-3.7735849056603774 h 3.7735849056603774 l 2.310654338013874e-16,3.7735849056603774 h 3.7735849056603774 l 2.310654338013874e-16,3.7735849056603774 l -3.7735849056603774,4.621308676027748e-16 l 2.310654338013874e-16,3.7735849056603774 h 3.7735849056603774 h 3.7735849056603774 l 2.310654338013874e-16,3.7735849056603774 l -3.7735849056603774,4.621308676027748e-16 l 2.310654338013874e-16,3.7735849056603774 h 3.7735849056603774 l 2.310654338013874e-16,3.7735849056603774 h 3.7735849056603774 l 2.310654338013874e-16,-3.7735849056603774 l 2.310654338013874e-16,-3.7735849056603774 h 3.7735849056603774 l 2.310654338013874e-16,3.7735849056603774 h 3.7735849056603774 l 2.310654338013874e-16,-3.7735849056603774 h 3.7735849056603774 l 2.310654338013874e-16,-3.7735849056603774 l -3.7735849056603774,-4.621308676027748e-16 l -3.7735849056603774,-4.621308676027748e-16 l 2.310654338013874e-16,-3.7735849056603774 h 3.7735849056603774 l 2.310654338013874e-16,-3.7735849056603774 l 2.310654338013874e-16,-3.7735849056603774 h 3.7735849056603774 l 2.310654338013874e-16,-3.7735849056603774 l -3.7735849056603774,-4.621308676027748e-16 l -3.7735849056603774,-4.621308676027748e-16 l 2.310654338013874e-16,-3.7735849056603774 h 3.7735849056603774 l 2.310654338013874e-16,-3.7735849056603774 h 3.7735849056603774 l 2.310654338013874e-16,3.7735849056603774 h 3.7735849056603774 l 2.310654338013874e-16,-3.7735849056603774 l 2.310654338013874e-16,-3.7735849056603774 h 3.7735849056603774 l 2.310654338013874e-16,3.7735849056603774 h 3.7735849056603774 l 2.310654338013874e-16,3.7735849056603774 l -3.7735849056603774,4.621308676027748e-16 l 2.310654338013874e-16,3.7735849056603774 h 3.7735849056603774 h 3.7735849056603774 l 2.310654338013874e-16,3.7735849056603774 l -3.7735849056603774,4.621308676027748e-16 l 2.310654338013874e-16,3.7735849056603774 h 3.7735849056603774 l 2.310654338013874e-16,3.7735849056603774 h 3.7735849056603774 l 2.310654338013874e-16,-3.7735849056603774 l 2.310654338013874e-16,-3.7735849056603774 h 3.7735849056603774 l 2.310654338013874e-16,3.7735849056603774 h 3.7735849056603774 h 3.7735849056603774 l 2.310654338013874e-16,3.7735849056603774 h 3.7735849056603774 l 2.310654338013874e-16,-3.7735849056603774 l 2.310654338013874e-16,-3.7735849056603774 h 3.7735849056603774 l 2.310654338013874e-16,3.7735849056603774 h 3.7735849056603774 l 2.310654338013874e-16,3.7735849056603774 l -3.7735849056603774,4.621308676027748e-16 l 2.310654338013874e-16,3.7735849056603774 h 3.7735849056603774 h 3.7735849056603774 l 2.310654338013874e-16,3.7735849056603774 l -3.7735849056603774,4.621308676027748e-16 l 2.310654338013874e-16,3.7735849056603774 h 3.7735849056603774 l 2.310654338013874e-16,3.7735849056603774 h 3.7735849056603774 l 2.310654338013874e-16,-3.7735849056603774 l 2.310654338013874e-16,-3.7735849056603774 h 3.7735849056603774 l 2.310654338013874e-16,3.7735849056603774 h 3.7735849056603774 l 2.310654338013874e-16,-3.7735849056603774 h 3.7735849056603774 l 2.310654338013874e-16,-3.7735849056603774 l -3.7735849056603774,-4.621308676027748e-16 l -3.7735849056603774,-4.621308676027748e-16 l 2.310654338013874e-16,-3.7735849056603774 h 3.7735849056603774 l 2.310654338013874e-16,-3.7735849056603774 l 2.310654338013874e-16,-3.7735849056603774 h 3.7735849056603774 l 2.310654338013874e-16,-3.7735849056603774 l -3.7735849056603774,-4.621308676027748e-16 l -3.7735849056603774,-4.621308676027748e-16 l 2.310654338013874e-16,-3.7735849056603774 h 3.7735849056603774 l 2.310654338013874e-16,-3.7735849056603774 h 3.7735849056603774 l 2.310654338013874e-16,3.7735849056603774 h 3.7735849056603774 l 2.310654338013874e-16,-3.7735849056603774 l 2.310654338013874e-16,-3.7735849056603774 h 3.7735849056603774 l 2.310654338013874e-16,3.7735849056603774 h 3.7735849056603774 l 2.310654338013874e-16,3.7735849056603774 l -3.7735849056603774,4.621308676027748e-16 l 2.310654338013874e-16,3.7735849056603774 h 3.7735849056603774 h 3.7735849056603774 l 2.310654338013874e-16,3.7735849056603774 l -3.7735849056603774,4.621308676027748e-16 l 2.310654338013874e-16,3.7735849056603774 h 3.7735849056603774 l 2.310654338013874e-16,3.7735849056603774 h 3.7735849056603774 l 2.310654338013874e-16,-3.7735849056603774 l 2.310654338013874e-16,-3.7735849056603774 h 3.7735849056603774 l 2.310654338013874e-16,3.7735849056603774 h 3.7735849056603774 l 2.310654338013874e-16,3.7735849056603774 l -3.7735849056603774,4.621308676027748e-16 l 2.310654338013874e-16,3.7735849056603774 h 3.7735849056603774 h 3.7735849056603774 l 2.310654338013874e-16,3.7735849056603774 l -3.7735849056603774,4.621308676027748e-16 l 2.310654338013874e-16,3.7735849056603774 l -3.7735849056603774,4.621308676027748e-16 l -6.931963014041621e-16,-3.7735849056603774 l -3.7735849056603774,4.621308676027748e-16 l 2.310654338013874e-16,3.7735849056603774 l 2.310654338013874e-16,3.7735849056603774 l -3.7735849056603774,4.621308676027748e-16 l -6.931963014041621e-16,-3.7735849056603774 l -3.7735849056603774,4.621308676027748e-16 l 2.310654338013874e-16,3.7735849056603774 l -3.7735849056603774,4.621308676027748e-16 l 2.310654338013874e-16,3.7735849056603774 h 3.7735849056603774 h 3.7735849056603774 l 2.310654338013874e-16,3.7735849056603774 l -3.7735849056603774,4.621308676027748e-16 l 2.310654338013874e-16,3.7735849056603774 h 3.7735849056603774 l 2.310654338013874e-16,3.7735849056603774 h 3.7735849056603774 l 2.310654338013874e-16,-3.7735849056603774 l 2.310654338013874e-16,-3.7735849056603774 h 3.7735849056603774 l 2.310654338013874e-16,3.7735849056603774 h 3.7735849056603774 h 3.7735849056603774 l 2.310654338013874e-16,3.7735849056603774 h 3.7735849056603774 l 2.310654338013874e-16,-3.7735849056603774 l 2.310654338013874e-16,-3.7735849056603774 h 3.7735849056603774 l 2.310654338013874e-16,3.7735849056603774 h 3.7735849056603774 l 2.310654338013874e-16,3.7735849056603774 l -3.7735849056603774,4.621308676027748e-16 l 2.310654338013874e-16,3.7735849056603774 h 3.7735849056603774 h 3.7735849056603774 l 2.310654338013874e-16,3.7735849056603774 l -3.7735849056603774,4.621308676027748e-16 l 2.310654338013874e-16,3.7735849056603774 l -3.7735849056603774,4.621308676027748e-16 l -6.931963014041621e-16,-3.7735849056603774 l -3.7735849056603774,4.621308676027748e-16 l 2.310654338013874e-16,3.7735849056603774 l 2.310654338013874e-16,3.7735849056603774 l -3.7735849056603774,4.621308676027748e-16 l -6.931963014041621e-16,-3.7735849056603774 l -3.7735849056603774,4.621308676027748e-16 l 2.310654338013874e-16,3.7735849056603774 l -3.7735849056603774,4.621308676027748e-16 l 2.310654338013874e-16,3.7735849056603774 h 3.7735849056603774 h 3.7735849056603774 l 2.310654338013874e-16,3.7735849056603774 l -3.7735849056603774,4.621308676027748e-16 l 2.310654338013874e-16,3.7735849056603774 l -3.7735849056603774,4.621308676027748e-16 l -6.931963014041621e-16,-3.7735849056603774 l -3.7735849056603774,4.621308676027748e-16 l 2.310654338013874e-16,3.7735849056603774 l 2.310654338013874e-16,3.7735849056603774 l -3.7735849056603774,4.621308676027748e-16 l -6.931963014041621e-16,-3.7735849056603774 l -3.7735849056603774,4.621308676027748e-16 l -6.931963014041621e-16,-3.7735849056603774 l 3.7735849056603774,-9.242617352055496e-16 l -6.931963014041621e-16,-3.7735849056603774 l -3.7735849056603774,4.621308676027748e-16 l -3.7735849056603774,4.621308676027748e-16 l -6.931963014041621e-16,-3.7735849056603774 l 3.7735849056603774,-9.242617352055496e-16 l -6.931963014041621e-16,-3.7735849056603774 l -3.7735849056603774,4.621308676027748e-16 l -6.931963014041621e-16,-3.7735849056603774 l -3.7735849056603774,4.621308676027748e-16 l 2.310654338013874e-16,3.7735849056603774 l 2.310654338013874e-16,3.7735849056603774 l -3.7735849056603774,4.621308676027748e-16 l -6.931963014041621e-16,-3.7735849056603774 l -3.7735849056603774,4.621308676027748e-16 l 2.310654338013874e-16,3.7735849056603774 l -3.7735849056603774,4.621308676027748e-16 l 2.310654338013874e-16,3.7735849056603774 h 3.7735849056603774 h 3.7735849056603774 l 2.310654338013874e-16,3.7735849056603774 l -3.7735849056603774,4.621308676027748e-16 l 2.310654338013874e-16,3.7735849056603774 l 2.310654338013874e-16,3.7735849056603774 l -3.7735849056603774,4.621308676027748e-16 l 2.310654338013874e-16,3.7735849056603774 h 3.7735849056603774 h 3.7735849056603774 l 2.310654338013874e-16,3.7735849056603774 l -3.7735849056603774,4.621308676027748e-16 l 2.310654338013874e-16,3.7735849056603774 l -3.7735849056603774,4.621308676027748e-16 l -6.931963014041621e-16,-3.7735849056603774 l -3.7735849056603774,4.621308676027748e-16 l 2.310654338013874e-16,3.7735849056603774 l 2.310654338013874e-16,3.7735849056603774 l -3.7735849056603774,4.621308676027748e-16 l -6.931963014041621e-16,-3.7735849056603774 l -3.7735849056603774,4.621308676027748e-16 l -6.931963014041621e-16,-3.7735849056603774 l 3.7735849056603774,-9.242617352055496e-16 l -6.931963014041621e-16,-3.7735849056603774 l -3.7735849056603774,4.621308676027748e-16 l -3.7735849056603774,4.621308676027748e-16 l -6.931963014041621e-16,-3.7735849056603774 l 3.7735849056603774,-9.242617352055496e-16 l -6.931963014041621e-16,-3.7735849056603774 l -3.7735849056603774,4.621308676027748e-16 l -6.931963014041621e-16,-3.7735849056603774 l -3.7735849056603774,4.621308676027748e-16 l 2.310654338013874e-16,3.7735849056603774 l 2.310654338013874e-16,3.7735849056603774 l -3.7735849056603774,4.621308676027748e-16 l -6.931963014041621e-16,-3.7735849056603774 l -3.7735849056603774,4.621308676027748e-16 l 2.310654338013874e-16,3.7735849056603774 l -3.7735849056603774,4.621308676027748e-16 l 2.310654338013874e-16,3.7735849056603774 h 3.7735849056603774 h 3.7735849056603774 l 2.310654338013874e-16,3.7735849056603774 l -3.7735849056603774,4.621308676027748e-16 l 2.310654338013874e-16,3.7735849056603774 l -3.7735849056603774,4.621308676027748e-16 l -6.931963014041621e-16,-3.7735849056603774 l -3.7735849056603774,4.621308676027748e-16 l 2.310654338013874e-16,3.7735849056603774 l 2.310654338013874e-16,3.7735849056603774 l -3.7735849056603774,4.621308676027748e-16 l -6.931963014041621e-16,-3.7735849056603774 l -3.7735849056603774,4.621308676027748e-16 l 2.310654338013874e-16,3.7735849056603774 l -3.7735849056603774,4.621308676027748e-16 l 2.310654338013874e-16,3.7735849056603774 h 3.7735849056603774 h 3.7735849056603774 l 2.310654338013874e-16,3.7735849056603774 l -3.7735849056603774,4.621308676027748e-16 l 2.310654338013874e-16,3.7735849056603774 h 3.7735849056603774 l 2.310654338013874e-16,3.7735849056603774 h 3.7735849056603774 l 2.310654338013874e-16,-3.7735849056603774 l 2.310654338013874e-16,-3.7735849056603774 h 3.7735849056603774 l 2.310654338013874e-16,3.7735849056603774 h 3.7735849056603774 h 3.7735849056603774 l 2.310654338013874e-16,3.7735849056603774 h 3.7735849056603774 l 2.310654338013874e-16,-3.7735849056603774 l 2.310654338013874e-16,-3.7735849056603774 h 3.7735849056603774 l 2.310654338013874e-16,3.7735849056603774 h 3.7735849056603774 l 2.310654338013874e-16,3.7735849056603774 l -3.7735849056603774,4.621308676027748e-16 l 2.310654338013874e-16,3.7735849056603774 h 3.7735849056603774 h 3.7735849056603774 l 2.310654338013874e-16,3.7735849056603774 l -3.7735849056603774,4.621308676027748e-16 l 2.310654338013874e-16,3.7735849056603774 l -3.7735849056603774,4.621308676027748e-16 l -6.931963014041621e-16,-3.7735849056603774 l -3.7735849056603774,4.621308676027748e-16 l 2.310654338013874e-16,3.7735849056603774 l 2.310654338013874e-16,3.7735849056603774 l -3.7735849056603774,4.621308676027748e-16 l -6.931963014041621e-16,-3.7735849056603774 l -3.7735849056603774,4.621308676027748e-16 l 2.310654338013874e-16,3.7735849056603774 l -3.7735849056603774,4.621308676027748e-16 l 2.310654338013874e-16,3.7735849056603774 h 3.7735849056603774 h 3.7735849056603774 l 2.310654338013874e-16,3.7735849056603774 l -3.7735849056603774,4.621308676027748e-16 l 2.310654338013874e-16,3.7735849056603774 l -3.7735849056603774,4.621308676027748e-16 l -6.931963014041621e-16,-3.7735849056603774 l -3.7735849056603774,4.621308676027748e-16 l 2.310654338013874e-16,3.7735849056603774 l 2.310654338013874e-16,3.7735849056603774 l -3.7735849056603774,4.621308676027748e-16 l -6.931963014041621e-16,-3.7735849056603774 l -3.7735849056603774,4.621308676027748e-16 l -6.931963014041621e-16,-3.7735849056603774 l 3.7735849056603774,-9.242617352055496e-16 l -6.931963014041621e-16,-3.7735849056603774 l -3.7735849056603774,4.621308676027748e-16 l -3.7735849056603774,4.621308676027748e-16 l -6.931963014041621e-16,-3.7735849056603774 l 3.7735849056603774,-9.242617352055496e-16 l -6.931963014041621e-16,-3.7735849056603774 l -3.7735849056603774,4.621308676027748e-16 l -6.931963014041621e-16,-3.7735849056603774 l -3.7735849056603774,4.621308676027748e-16 l 2.310654338013874e-16,3.7735849056603774 l 2.310654338013874e-16,3.7735849056603774 l -3.7735849056603774,4.621308676027748e-16 l -6.931963014041621e-16,-3.7735849056603774 l -3.7735849056603774,4.621308676027748e-16 l 2.310654338013874e-16,3.7735849056603774 l -3.7735849056603774,4.621308676027748e-16 l 2.310654338013874e-16,3.7735849056603774 h 3.7735849056603774 h 3.7735849056603774 l 2.310654338013874e-16,3.7735849056603774 l -3.7735849056603774,4.621308676027748e-16 l 2.310654338013874e-16,3.7735849056603774 l 2.310654338013874e-16,3.7735849056603774 l -3.7735849056603774,4.621308676027748e-16 l 2.310654338013874e-16,3.7735849056603774 h 3.7735849056603774 h 3.7735849056603774 l 2.310654338013874e-16,3.7735849056603774 l -3.7735849056603774,4.621308676027748e-16 l 2.310654338013874e-16,3.7735849056603774 l -3.7735849056603774,4.621308676027748e-16 l -6.931963014041621e-16,-3.7735849056603774 l -3.7735849056603774,4.621308676027748e-16 l 2.310654338013874e-16,3.7735849056603774 l 2.310654338013874e-16,3.7735849056603774 l -3.7735849056603774,4.621308676027748e-16 l -6.931963014041621e-16,-3.7735849056603774 l -3.7735849056603774,4.621308676027748e-16 l -6.931963014041621e-16,-3.7735849056603774 l 3.7735849056603774,-9.242617352055496e-16 l -6.931963014041621e-16,-3.7735849056603774 l -3.7735849056603774,4.621308676027748e-16 l -3.7735849056603774,4.621308676027748e-16 l -6.931963014041621e-16,-3.7735849056603774 l 3.7735849056603774,-9.242617352055496e-16 l -6.931963014041621e-16,-3.7735849056603774 l -3.7735849056603774,4.621308676027748e-16 l -6.931963014041621e-16,-3.7735849056603774 l -3.7735849056603774,4.621308676027748e-16 l 2.310654338013874e-16,3.7735849056603774 l 2.310654338013874e-16,3.7735849056603774 l -3.7735849056603774,4.621308676027748e-16 l -6.931963014041621e-16,-3.7735849056603774 l -3.7735849056603774,4.621308676027748e-16 l -6.931963014041621e-16,-3.7735849056603774 l 3.7735849056603774,-9.242617352055496e-16 l -6.931963014041621e-16,-3.7735849056603774 l -3.7735849056603774,4.621308676027748e-16 l -3.7735849056603774,4.621308676027748e-16 l -6.931963014041621e-16,-3.7735849056603774 l 3.7735849056603774,-9.242617352055496e-16 l -6.931963014041621e-16,-3.7735849056603774 l 3.7735849056603774,-9.242617352055496e-16 l 1.155327169006937e-15,3.7735849056603774 l 3.7735849056603774,-9.242617352055496e-16 l -6.931963014041621e-16,-3.7735849056603774 l -6.931963014041621e-16,-3.7735849056603774 l 3.7735849056603774,-9.242617352055496e-16 l 1.155327169006937e-15,3.7735849056603774 l 3.7735849056603774,-9.242617352055496e-16 l -6.931963014041621e-16,-3.7735849056603774 l 3.7735849056603774,-9.242617352055496e-16 l -6.931963014041621e-16,-3.7735849056603774 l -3.7735849056603774,4.621308676027748e-16 l -3.7735849056603774,4.621308676027748e-16 l -6.931963014041621e-16,-3.7735849056603774 l 3.7735849056603774,-9.242617352055496e-16 l -6.931963014041621e-16,-3.7735849056603774 l -3.7735849056603774,4.621308676027748e-16 l -6.931963014041621e-16,-3.7735849056603774 l -3.7735849056603774,4.621308676027748e-16 l 2.310654338013874e-16,3.7735849056603774 l 2.310654338013874e-16,3.7735849056603774 l -3.7735849056603774,4.621308676027748e-16 l -6.931963014041621e-16,-3.7735849056603774 l -3.7735849056603774,4.621308676027748e-16 l -3.7735849056603774,4.621308676027748e-16 l -6.931963014041621e-16,-3.7735849056603774 l -3.7735849056603774,4.621308676027748e-16 l 2.310654338013874e-16,3.7735849056603774 l 2.310654338013874e-16,3.7735849056603774 l -3.7735849056603774,4.621308676027748e-16 l -6.931963014041621e-16,-3.7735849056603774 l -3.7735849056603774,4.621308676027748e-16 l -6.931963014041621e-16,-3.7735849056603774 l 3.7735849056603774,-9.242617352055496e-16 l -6.931963014041621e-16,-3.7735849056603774 l -3.7735849056603774,4.621308676027748e-16 l -3.7735849056603774,4.621308676027748e-16 l -6.931963014041621e-16,-3.7735849056603774 l 3.7735849056603774,-9.242617352055496e-16 l -6.931963014041621e-16,-3.7735849056603774 l 3.7735849056603774,-9.242617352055496e-16 l 1.155327169006937e-15,3.7735849056603774 l 3.7735849056603774,-9.242617352055496e-16 l -6.931963014041621e-16,-3.7735849056603774 l -6.931963014041621e-16,-3.7735849056603774 l 3.7735849056603774,-9.242617352055496e-16 l 1.155327169006937e-15,3.7735849056603774 l 3.7735849056603774,-9.242617352055496e-16 l -6.931963014041621e-16,-3.7735849056603774 l 3.7735849056603774,-9.242617352055496e-16 l -6.931963014041621e-16,-3.7735849056603774 l -3.7735849056603774,4.621308676027748e-16 l -3.7735849056603774,4.621308676027748e-16 l -6.931963014041621e-16,-3.7735849056603774 l 3.7735849056603774,-9.242617352055496e-16 l -6.931963014041621e-16,-3.7735849056603774 l -3.7735849056603774,4.621308676027748e-16 l -6.931963014041621e-16,-3.7735849056603774 l -3.7735849056603774,4.621308676027748e-16 l 2.310654338013874e-16,3.7735849056603774 l 2.310654338013874e-16,3.7735849056603774 l -3.7735849056603774,4.621308676027748e-16 l -6.931963014041621e-16,-3.7735849056603774 l -3.7735849056603774,4.621308676027748e-16 l -6.931963014041621e-16,-3.7735849056603774 l 3.7735849056603774,-9.242617352055496e-16 l -6.931963014041621e-16,-3.7735849056603774 l -3.7735849056603774,4.621308676027748e-16 l -3.7735849056603774,4.621308676027748e-16 l -6.931963014041621e-16,-3.7735849056603774 l 3.7735849056603774,-9.242617352055496e-16 l -6.931963014041621e-16,-3.7735849056603774 l -3.7735849056603774,4.621308676027748e-16 l -6.931963014041621e-16,-3.7735849056603774 l -3.7735849056603774,4.621308676027748e-16 l 2.310654338013874e-16,3.7735849056603774 l 2.310654338013874e-16,3.7735849056603774 l -3.7735849056603774,4.621308676027748e-16 l -6.931963014041621e-16,-3.7735849056603774 l -3.7735849056603774,4.621308676027748e-16 l 2.310654338013874e-16,3.7735849056603774 l -3.7735849056603774,4.621308676027748e-16 l 2.310654338013874e-16,3.7735849056603774 h 3.7735849056603774 h 3.7735849056603774 l 2.310654338013874e-16,3.7735849056603774 l -3.7735849056603774,4.621308676027748e-16 l 2.310654338013874e-16,3.7735849056603774 l 2.310654338013874e-16,3.7735849056603774 l -3.7735849056603774,4.621308676027748e-16 l 2.310654338013874e-16,3.7735849056603774 h 3.7735849056603774 h 3.7735849056603774 l 2.310654338013874e-16,3.7735849056603774 l -3.7735849056603774,4.621308676027748e-16 l 2.310654338013874e-16,3.7735849056603774 l -3.7735849056603774,4.621308676027748e-16 l -6.931963014041621e-16,-3.7735849056603774 l -3.7735849056603774,4.621308676027748e-16 l 2.310654338013874e-16,3.7735849056603774 l 2.310654338013874e-16,3.7735849056603774 l -3.7735849056603774,4.621308676027748e-16 l -6.931963014041621e-16,-3.7735849056603774 l -3.7735849056603774,4.621308676027748e-16 l -6.931963014041621e-16,-3.7735849056603774 l 3.7735849056603774,-9.242617352055496e-16 l -6.931963014041621e-16,-3.7735849056603774 l -3.7735849056603774,4.621308676027748e-16 l -3.7735849056603774,4.621308676027748e-16 l -6.931963014041621e-16,-3.7735849056603774 l 3.7735849056603774,-9.242617352055496e-16 l -6.931963014041621e-16,-3.7735849056603774 l -3.7735849056603774,4.621308676027748e-16 l -6.931963014041621e-16,-3.7735849056603774 l -3.7735849056603774,4.621308676027748e-16 l 2.310654338013874e-16,3.7735849056603774 l 2.310654338013874e-16,3.7735849056603774 l -3.7735849056603774,4.621308676027748e-16 l -6.931963014041621e-16,-3.7735849056603774 l -3.7735849056603774,4.621308676027748e-16 l 2.310654338013874e-16,3.7735849056603774 l -3.7735849056603774,4.621308676027748e-16 l 2.310654338013874e-16,3.7735849056603774 h 3.7735849056603774 h 3.7735849056603774 l 2.310654338013874e-16,3.7735849056603774 l -3.7735849056603774,4.621308676027748e-16 l 2.310654338013874e-16,3.7735849056603774 l -3.7735849056603774,4.621308676027748e-16 l -6.931963014041621e-16,-3.7735849056603774 l -3.7735849056603774,4.621308676027748e-16 l 2.310654338013874e-16,3.7735849056603774 l 2.310654338013874e-16,3.7735849056603774 l -3.7735849056603774,4.621308676027748e-16 l -6.931963014041621e-16,-3.7735849056603774 l -3.7735849056603774,4.621308676027748e-16 l 2.310654338013874e-16,3.7735849056603774 l -3.7735849056603774,4.621308676027748e-16 l 2.310654338013874e-16,3.7735849056603774 h 3.7735849056603774 h 3.7735849056603774 l 2.310654338013874e-16,3.7735849056603774 l -3.7735849056603774,4.621308676027748e-16 l 2.310654338013874e-16,3.7735849056603774 h 3.7735849056603774 l 2.310654338013874e-16,3.7735849056603774 h 3.7735849056603774 l 2.310654338013874e-16,-3.7735849056603774 l 2.310654338013874e-16,-3.7735849056603774 h 3.7735849056603774 l 2.310654338013874e-16,3.7735849056603774 h 3.7735849056603774 h 3.7735849056603774 l 2.310654338013874e-16,3.7735849056603774 h 3.7735849056603774 l 2.310654338013874e-16,-3.7735849056603774 l 2.310654338013874e-16,-3.7735849056603774 h 3.7735849056603774 l 2.310654338013874e-16,3.7735849056603774 h 3.7735849056603774 l 2.310654338013874e-16,3.7735849056603774 l -3.7735849056603774,4.621308676027748e-16 l 2.310654338013874e-16,3.7735849056603774 h 3.7735849056603774 h 3.7735849056603774 l 2.310654338013874e-16,3.7735849056603774 l -3.7735849056603774,4.621308676027748e-16 l 2.310654338013874e-16,3.7735849056603774 l -3.7735849056603774,4.621308676027748e-16 l -6.931963014041621e-16,-3.7735849056603774 l -3.7735849056603774,4.621308676027748e-16 l 2.310654338013874e-16,3.7735849056603774 l 2.310654338013874e-16,3.7735849056603774 l -3.7735849056603774,4.621308676027748e-16 l -6.931963014041621e-16,-3.7735849056603774 l -3.7735849056603774,4.621308676027748e-16 l 2.310654338013874e-16,3.7735849056603774 l -3.7735849056603774,4.621308676027748e-16 l 2.310654338013874e-16,3.7735849056603774 h 3.7735849056603774 h 3.7735849056603774 l 2.310654338013874e-16,3.7735849056603774 l -3.7735849056603774,4.621308676027748e-16 l 2.310654338013874e-16,3.7735849056603774 l 2.310654338013874e-16,3.7735849056603774 l -3.7735849056603774,4.621308676027748e-16 l 2.310654338013874e-16,3.7735849056603774 h 3.7735849056603774 h 3.7735849056603774 l 2.310654338013874e-16,3.7735849056603774 l -3.7735849056603774,4.621308676027748e-16 l 2.310654338013874e-16,3.7735849056603774 l -3.7735849056603774,4.621308676027748e-16 l -6.931963014041621e-16,-3.7735849056603774 l -3.7735849056603774,4.621308676027748e-16 l 2.310654338013874e-16,3.7735849056603774 l 2.310654338013874e-16,3.7735849056603774 l -3.7735849056603774,4.621308676027748e-16 l -6.931963014041621e-16,-3.7735849056603774 l -3.7735849056603774,4.621308676027748e-16 l 2.310654338013874e-16,3.7735849056603774 l -3.7735849056603774,4.621308676027748e-16 l 2.310654338013874e-16,3.7735849056603774 h 3.7735849056603774 h 3.7735849056603774 l 2.310654338013874e-16,3.7735849056603774 l -3.7735849056603774,4.621308676027748e-16 l 2.310654338013874e-16,3.7735849056603774 h 3.7735849056603774 l 2.310654338013874e-16,3.7735849056603774 h 3.7735849056603774 l 2.310654338013874e-16,-3.7735849056603774 l 2.310654338013874e-16,-3.7735849056603774 h 3.7735849056603774 l 2.310654338013874e-16,3.7735849056603774 h 3.7735849056603774 h 3.7735849056603774 l 2.310654338013874e-16,3.7735849056603774 h 3.7735849056603774 l 2.310654338013874e-16,-3.7735849056603774 l 2.310654338013874e-16,-3.7735849056603774 h 3.7735849056603774 l 2.310654338013874e-16,3.7735849056603774 h 3.7735849056603774 l 2.310654338013874e-16,3.7735849056603774 l -3.7735849056603774,4.621308676027748e-16 l 2.310654338013874e-16,3.7735849056603774 h 3.7735849056603774 h 3.7735849056603774 l 2.310654338013874e-16,3.7735849056603774 l -3.7735849056603774,4.621308676027748e-16 l 2.310654338013874e-16,3.7735849056603774 l -3.7735849056603774,4.621308676027748e-16 l -6.931963014041621e-16,-3.7735849056603774 l -3.7735849056603774,4.621308676027748e-16 l 2.310654338013874e-16,3.7735849056603774 l 2.310654338013874e-16,3.7735849056603774 l -3.7735849056603774,4.621308676027748e-16 l -6.931963014041621e-16,-3.7735849056603774 l -3.7735849056603774,4.621308676027748e-16 l 2.310654338013874e-16,3.7735849056603774 l -3.7735849056603774,4.621308676027748e-16 l 2.310654338013874e-16,3.7735849056603774 h 3.7735849056603774 h 3.7735849056603774 l 2.310654338013874e-16,3.7735849056603774 l -3.7735849056603774,4.621308676027748e-16 l 2.310654338013874e-16,3.7735849056603774 l -3.7735849056603774,4.621308676027748e-16 l -6.931963014041621e-16,-3.7735849056603774 l -3.7735849056603774,4.621308676027748e-16 l 2.310654338013874e-16,3.7735849056603774 l 2.310654338013874e-16,3.7735849056603774 l -3.7735849056603774,4.621308676027748e-16 l -6.931963014041621e-16,-3.7735849056603774 l -3.7735849056603774,4.621308676027748e-16 l -6.931963014041621e-16,-3.7735849056603774 l 3.7735849056603774,-9.242617352055496e-16 l -6.931963014041621e-16,-3.7735849056603774 l -3.7735849056603774,4.621308676027748e-16 l -3.7735849056603774,4.621308676027748e-16 l -6.931963014041621e-16,-3.7735849056603774 l 3.7735849056603774,-9.242617352055496e-16 l -6.931963014041621e-16,-3.7735849056603774 l -3.7735849056603774,4.621308676027748e-16 l -6.931963014041621e-16,-3.7735849056603774 l -3.7735849056603774,4.621308676027748e-16 l 2.310654338013874e-16,3.7735849056603774 l 2.310654338013874e-16,3.7735849056603774 l -3.7735849056603774,4.621308676027748e-16 l -6.931963014041621e-16,-3.7735849056603774 l -3.7735849056603774,4.621308676027748e-16 l 2.310654338013874e-16,3.7735849056603774 l -3.7735849056603774,4.621308676027748e-16 l 2.310654338013874e-16,3.7735849056603774 h 3.7735849056603774 h 3.7735849056603774 l 2.310654338013874e-16,3.7735849056603774 l -3.7735849056603774,4.621308676027748e-16 l 2.310654338013874e-16,3.7735849056603774 l 2.310654338013874e-16,3.7735849056603774 l -3.7735849056603774,4.621308676027748e-16 l 2.310654338013874e-16,3.7735849056603774 h 3.7735849056603774 h 3.7735849056603774 l 2.310654338013874e-16,3.7735849056603774 l -3.7735849056603774,4.621308676027748e-16 l 2.310654338013874e-16,3.7735849056603774 l -3.7735849056603774,4.621308676027748e-16 l -6.931963014041621e-16,-3.7735849056603774 l -3.7735849056603774,4.621308676027748e-16 l 2.310654338013874e-16,3.7735849056603774 l 2.310654338013874e-16,3.7735849056603774 l -3.7735849056603774,4.621308676027748e-16 l -6.931963014041621e-16,-3.7735849056603774 l -3.7735849056603774,4.621308676027748e-16 l -6.931963014041621e-16,-3.7735849056603774 l 3.7735849056603774,-9.242617352055496e-16 l -6.931963014041621e-16,-3.7735849056603774 l -3.7735849056603774,4.621308676027748e-16 l -3.7735849056603774,4.621308676027748e-16 l -6.931963014041621e-16,-3.7735849056603774 l 3.7735849056603774,-9.242617352055496e-16 l -6.931963014041621e-16,-3.7735849056603774 l -3.7735849056603774,4.621308676027748e-16 l -6.931963014041621e-16,-3.7735849056603774 l -3.7735849056603774,4.621308676027748e-16 l 2.310654338013874e-16,3.7735849056603774 l 2.310654338013874e-16,3.7735849056603774 l -3.7735849056603774,4.621308676027748e-16 l -6.931963014041621e-16,-3.7735849056603774 l -3.7735849056603774,4.621308676027748e-16 l -6.931963014041621e-16,-3.7735849056603774 l 3.7735849056603774,-9.242617352055496e-16 l -6.931963014041621e-16,-3.7735849056603774 l -3.7735849056603774,4.621308676027748e-16 l -3.7735849056603774,4.621308676027748e-16 l -6.931963014041621e-16,-3.7735849056603774 l 3.7735849056603774,-9.242617352055496e-16 l -6.931963014041621e-16,-3.7735849056603774 l 3.7735849056603774,-9.242617352055496e-16 l 1.155327169006937e-15,3.7735849056603774 l 3.7735849056603774,-9.242617352055496e-16 l -6.931963014041621e-16,-3.7735849056603774 l -6.931963014041621e-16,-3.7735849056603774 l 3.7735849056603774,-9.242617352055496e-16 l 1.155327169006937e-15,3.7735849056603774 l 3.7735849056603774,-9.242617352055496e-16 l -6.931963014041621e-16,-3.7735849056603774 l 3.7735849056603774,-9.242617352055496e-16 l -6.931963014041621e-16,-3.7735849056603774 l -3.7735849056603774,4.621308676027748e-16 l -3.7735849056603774,4.621308676027748e-16 l -6.931963014041621e-16,-3.7735849056603774 l 3.7735849056603774,-9.242617352055496e-16 l -6.931963014041621e-16,-3.7735849056603774 l -3.7735849056603774,4.621308676027748e-16 l -6.931963014041621e-16,-3.7735849056603774 l -3.7735849056603774,4.621308676027748e-16 l 2.310654338013874e-16,3.7735849056603774 l 2.310654338013874e-16,3.7735849056603774 l -3.7735849056603774,4.621308676027748e-16 l -6.931963014041621e-16,-3.7735849056603774 l -3.7735849056603774,4.621308676027748e-16 l -3.7735849056603774,4.621308676027748e-16 l -6.931963014041621e-16,-3.7735849056603774 l -3.7735849056603774,4.621308676027748e-16 l 2.310654338013874e-16,3.7735849056603774 l 2.310654338013874e-16,3.7735849056603774 l -3.7735849056603774,4.621308676027748e-16 l -6.931963014041621e-16,-3.7735849056603774 l -3.7735849056603774,4.621308676027748e-16 l -6.931963014041621e-16,-3.7735849056603774 l 3.7735849056603774,-9.242617352055496e-16 l -6.931963014041621e-16,-3.7735849056603774 l -3.7735849056603774,4.621308676027748e-16 l -3.7735849056603774,4.621308676027748e-16 l -6.931963014041621e-16,-3.7735849056603774 l 3.7735849056603774,-9.242617352055496e-16 l -6.931963014041621e-16,-3.7735849056603774 l 3.7735849056603774,-9.242617352055496e-16 l 1.155327169006937e-15,3.7735849056603774 l 3.7735849056603774,-9.242617352055496e-16 l -6.931963014041621e-16,-3.7735849056603774 l -6.931963014041621e-16,-3.7735849056603774 l 3.7735849056603774,-9.242617352055496e-16 l 1.155327169006937e-15,3.7735849056603774 l 3.7735849056603774,-9.242617352055496e-16 l -6.931963014041621e-16,-3.7735849056603774 l 3.7735849056603774,-9.242617352055496e-16 l -6.931963014041621e-16,-3.7735849056603774 l -3.7735849056603774,4.621308676027748e-16 l -3.7735849056603774,4.621308676027748e-16 l -6.931963014041621e-16,-3.7735849056603774 l 3.7735849056603774,-9.242617352055496e-16 l -6.931963014041621e-16,-3.7735849056603774 l -3.7735849056603774,4.621308676027748e-16 l -6.931963014041621e-16,-3.7735849056603774 l -3.7735849056603774,4.621308676027748e-16 l 2.310654338013874e-16,3.7735849056603774 l 2.310654338013874e-16,3.7735849056603774 l -3.7735849056603774,4.621308676027748e-16 l -6.931963014041621e-16,-3.7735849056603774 l -3.7735849056603774,4.621308676027748e-16 l -6.931963014041621e-16,-3.7735849056603774 l 3.7735849056603774,-9.242617352055496e-16 l -6.931963014041621e-16,-3.7735849056603774 l -3.7735849056603774,4.621308676027748e-16 l -3.7735849056603774,4.621308676027748e-16 l -6.931963014041621e-16,-3.7735849056603774 l 3.7735849056603774,-9.242617352055496e-16 l -6.931963014041621e-16,-3.7735849056603774 l -3.7735849056603774,4.621308676027748e-16 l -6.931963014041621e-16,-3.7735849056603774 l -3.7735849056603774,4.621308676027748e-16 l 2.310654338013874e-16,3.7735849056603774 l 2.310654338013874e-16,3.7735849056603774 l -3.7735849056603774,4.621308676027748e-16 l -6.931963014041621e-16,-3.7735849056603774 l -3.7735849056603774,4.621308676027748e-16 l 2.310654338013874e-16,3.7735849056603774 l -3.7735849056603774,4.621308676027748e-16 l 2.310654338013874e-16,3.7735849056603774 h 3.7735849056603774 h 3.7735849056603774 l 2.310654338013874e-16,3.7735849056603774 l -3.7735849056603774,4.621308676027748e-16 l 2.310654338013874e-16,3.7735849056603774 l 2.310654338013874e-16,3.7735849056603774 l -3.7735849056603774,4.621308676027748e-16 l 2.310654338013874e-16,3.7735849056603774 h 3.7735849056603774 h 3.7735849056603774 l 2.310654338013874e-16,3.7735849056603774 l -3.7735849056603774,4.621308676027748e-16 l 2.310654338013874e-16,3.7735849056603774 l -3.7735849056603774,4.621308676027748e-16 l -6.931963014041621e-16,-3.7735849056603774 l -3.7735849056603774,4.621308676027748e-16 l 2.310654338013874e-16,3.7735849056603774 l 2.310654338013874e-16,3.7735849056603774 l -3.7735849056603774,4.621308676027748e-16 l -6.931963014041621e-16,-3.7735849056603774 l -3.7735849056603774,4.621308676027748e-16 l -6.931963014041621e-16,-3.7735849056603774 l 3.7735849056603774,-9.242617352055496e-16 l -6.931963014041621e-16,-3.7735849056603774 l -3.7735849056603774,4.621308676027748e-16 l -3.7735849056603774,4.621308676027748e-16 l -6.931963014041621e-16,-3.7735849056603774 l 3.7735849056603774,-9.242617352055496e-16 l -6.931963014041621e-16,-3.7735849056603774 l -3.7735849056603774,4.621308676027748e-16 l -6.931963014041621e-16,-3.7735849056603774 l -3.7735849056603774,4.621308676027748e-16 l 2.310654338013874e-16,3.7735849056603774 l 2.310654338013874e-16,3.7735849056603774 l -3.7735849056603774,4.621308676027748e-16 l -6.931963014041621e-16,-3.7735849056603774 l -3.7735849056603774,4.621308676027748e-16 l -6.931963014041621e-16,-3.7735849056603774 l 3.7735849056603774,-9.242617352055496e-16 l -6.931963014041621e-16,-3.7735849056603774 l -3.7735849056603774,4.621308676027748e-16 l -3.7735849056603774,4.621308676027748e-16 l -6.931963014041621e-16,-3.7735849056603774 l 3.7735849056603774,-9.242617352055496e-16 l -6.931963014041621e-16,-3.7735849056603774 l 3.7735849056603774,-9.242617352055496e-16 l 1.155327169006937e-15,3.7735849056603774 l 3.7735849056603774,-9.242617352055496e-16 l -6.931963014041621e-16,-3.7735849056603774 l -6.931963014041621e-16,-3.7735849056603774 l 3.7735849056603774,-9.242617352055496e-16 l 1.155327169006937e-15,3.7735849056603774 l 3.7735849056603774,-9.242617352055496e-16 l -6.931963014041621e-16,-3.7735849056603774 l 3.7735849056603774,-9.242617352055496e-16 l -6.931963014041621e-16,-3.7735849056603774 l -3.7735849056603774,4.621308676027748e-16 l -3.7735849056603774,4.621308676027748e-16 l -6.931963014041621e-16,-3.7735849056603774 l 3.7735849056603774,-9.242617352055496e-16 l -6.931963014041621e-16,-3.7735849056603774 l -3.7735849056603774,4.621308676027748e-16 l -6.931963014041621e-16,-3.7735849056603774 l -3.7735849056603774,4.621308676027748e-16 l 2.310654338013874e-16,3.7735849056603774 l 2.310654338013874e-16,3.7735849056603774 l -3.7735849056603774,4.621308676027748e-16 l -6.931963014041621e-16,-3.7735849056603774 l -3.7735849056603774,4.621308676027748e-16 l -3.7735849056603774,4.621308676027748e-16 l -6.931963014041621e-16,-3.7735849056603774 l -3.7735849056603774,4.621308676027748e-16 l 2.310654338013874e-16,3.7735849056603774 l 2.310654338013874e-16,3.7735849056603774 l -3.7735849056603774,4.621308676027748e-16 l -6.931963014041621e-16,-3.7735849056603774 l -3.7735849056603774,4.621308676027748e-16 l -6.931963014041621e-16,-3.7735849056603774 l 3.7735849056603774,-9.242617352055496e-16 l -6.931963014041621e-16,-3.7735849056603774 l -3.7735849056603774,4.621308676027748e-16 l -3.7735849056603774,4.621308676027748e-16 l -6.931963014041621e-16,-3.7735849056603774 l 3.7735849056603774,-9.242617352055496e-16 l -6.931963014041621e-16,-3.7735849056603774 l 3.7735849056603774,-9.242617352055496e-16 l 1.155327169006937e-15,3.7735849056603774 l 3.7735849056603774,-9.242617352055496e-16 l -6.931963014041621e-16,-3.7735849056603774 l -6.931963014041621e-16,-3.7735849056603774 l 3.7735849056603774,-9.242617352055496e-16 l 1.155327169006937e-15,3.7735849056603774 l 3.7735849056603774,-9.242617352055496e-16 l -6.931963014041621e-16,-3.7735849056603774 l 3.7735849056603774,-9.242617352055496e-16 l -6.931963014041621e-16,-3.7735849056603774 l -3.7735849056603774,4.621308676027748e-16 l -3.7735849056603774,4.621308676027748e-16 l -6.931963014041621e-16,-3.7735849056603774 l 3.7735849056603774,-9.242617352055496e-16 l -6.931963014041621e-16,-3.7735849056603774 l 3.7735849056603774,-9.242617352055496e-16 l 1.155327169006937e-15,3.7735849056603774 l 3.7735849056603774,-9.242617352055496e-16 l -6.931963014041621e-16,-3.7735849056603774 l -6.931963014041621e-16,-3.7735849056603774 l 3.7735849056603774,-9.242617352055496e-16 l 1.155327169006937e-15,3.7735849056603774 l 3.7735849056603774,-9.242617352055496e-16 l 1.155327169006937e-15,3.7735849056603774 l -3.7735849056603774,1.3863926028083243e-15 l 1.155327169006937e-15,3.7735849056603774 l 3.7735849056603774,-9.242617352055496e-16 l 3.7735849056603774,-9.242617352055496e-16 l 1.155327169006937e-15,3.7735849056603774 l -3.7735849056603774,1.3863926028083243e-15 l 1.155327169006937e-15,3.7735849056603774 l 3.7735849056603774,-9.242617352055496e-16 l 1.155327169006937e-15,3.7735849056603774 l 3.7735849056603774,-9.242617352055496e-16 l -6.931963014041621e-16,-3.7735849056603774 l -6.931963014041621e-16,-3.7735849056603774 l 3.7735849056603774,-9.242617352055496e-16 l 1.155327169006937e-15,3.7735849056603774 l 3.7735849056603774,-9.242617352055496e-16 l -6.931963014041621e-16,-3.7735849056603774 l 3.7735849056603774,-9.242617352055496e-16 l -6.931963014041621e-16,-3.7735849056603774 l -3.7735849056603774,4.621308676027748e-16 l -3.7735849056603774,4.621308676027748e-16 l -6.931963014041621e-16,-3.7735849056603774 l 3.7735849056603774,-9.242617352055496e-16 l -6.931963014041621e-16,-3.7735849056603774 l -6.931963014041621e-16,-3.7735849056603774 l 3.7735849056603774,-9.242617352055496e-16 l -6.931963014041621e-16,-3.7735849056603774 l -3.7735849056603774,4.621308676027748e-16 l -3.7735849056603774,4.621308676027748e-16 l -6.931963014041621e-16,-3.7735849056603774 l 3.7735849056603774,-9.242617352055496e-16 l -6.931963014041621e-16,-3.7735849056603774 l 3.7735849056603774,-9.242617352055496e-16 l 1.155327169006937e-15,3.7735849056603774 l 3.7735849056603774,-9.242617352055496e-16 l -6.931963014041621e-16,-3.7735849056603774 l -6.931963014041621e-16,-3.7735849056603774 l 3.7735849056603774,-9.242617352055496e-16 l 1.155327169006937e-15,3.7735849056603774 l 3.7735849056603774,-9.242617352055496e-16 l 1.155327169006937e-15,3.7735849056603774 l -3.7735849056603774,1.3863926028083243e-15 l 1.155327169006937e-15,3.7735849056603774 l 3.7735849056603774,-9.242617352055496e-16 l 3.7735849056603774,-9.242617352055496e-16 l 1.155327169006937e-15,3.7735849056603774 l -3.7735849056603774,1.3863926028083243e-15 l 1.155327169006937e-15,3.7735849056603774 l 3.7735849056603774,-9.242617352055496e-16 l 1.155327169006937e-15,3.7735849056603774 l 3.7735849056603774,-9.242617352055496e-16 l -6.931963014041621e-16,-3.7735849056603774 l -6.931963014041621e-16,-3.7735849056603774 l 3.7735849056603774,-9.242617352055496e-16 l 1.155327169006937e-15,3.7735849056603774 l 3.7735849056603774,-9.242617352055496e-16 l -6.931963014041621e-16,-3.7735849056603774 l 3.7735849056603774,-9.242617352055496e-16 l -6.931963014041621e-16,-3.7735849056603774 l -3.7735849056603774,4.621308676027748e-16 l -3.7735849056603774,4.621308676027748e-16 l -6.931963014041621e-16,-3.7735849056603774 l 3.7735849056603774,-9.242617352055496e-16 l -6.931963014041621e-16,-3.7735849056603774 l 3.7735849056603774,-9.242617352055496e-16 l 1.155327169006937e-15,3.7735849056603774 l 3.7735849056603774,-9.242617352055496e-16 l -6.931963014041621e-16,-3.7735849056603774 l -6.931963014041621e-16,-3.7735849056603774 l 3.7735849056603774,-9.242617352055496e-16 l 1.155327169006937e-15,3.7735849056603774 l 3.7735849056603774,-9.242617352055496e-16 l -6.931963014041621e-16,-3.7735849056603774 l 3.7735849056603774,-9.242617352055496e-16 l -6.931963014041621e-16,-3.7735849056603774 l -3.7735849056603774,4.621308676027748e-16 l -3.7735849056603774,4.621308676027748e-16 l -6.931963014041621e-16,-3.7735849056603774 l 3.7735849056603774,-9.242617352055496e-16 l -6.931963014041621e-16,-3.7735849056603774 l -3.7735849056603774,4.621308676027748e-16 l -6.931963014041621e-16,-3.7735849056603774 l -3.7735849056603774,4.621308676027748e-16 l 2.310654338013874e-16,3.7735849056603774 l 2.310654338013874e-16,3.7735849056603774 l -3.7735849056603774,4.621308676027748e-16 l -6.931963014041621e-16,-3.7735849056603774 l -3.7735849056603774,4.621308676027748e-16 l -3.7735849056603774,4.621308676027748e-16 l -6.931963014041621e-16,-3.7735849056603774 l -3.7735849056603774,4.621308676027748e-16 l 2.310654338013874e-16,3.7735849056603774 l 2.310654338013874e-16,3.7735849056603774 l -3.7735849056603774,4.621308676027748e-16 l -6.931963014041621e-16,-3.7735849056603774 l -3.7735849056603774,4.621308676027748e-16 l -6.931963014041621e-16,-3.7735849056603774 l 3.7735849056603774,-9.242617352055496e-16 l -6.931963014041621e-16,-3.7735849056603774 l -3.7735849056603774,4.621308676027748e-16 l -3.7735849056603774,4.621308676027748e-16 l -6.931963014041621e-16,-3.7735849056603774 l 3.7735849056603774,-9.242617352055496e-16 l -6.931963014041621e-16,-3.7735849056603774 l 3.7735849056603774,-9.242617352055496e-16 l 1.155327169006937e-15,3.7735849056603774 l 3.7735849056603774,-9.242617352055496e-16 l -6.931963014041621e-16,-3.7735849056603774 l -6.931963014041621e-16,-3.7735849056603774 l 3.7735849056603774,-9.242617352055496e-16 l 1.155327169006937e-15,3.7735849056603774 l 3.7735849056603774,-9.242617352055496e-16 l -6.931963014041621e-16,-3.7735849056603774 l 3.7735849056603774,-9.242617352055496e-16 l -6.931963014041621e-16,-3.7735849056603774 l -3.7735849056603774,4.621308676027748e-16 l -3.7735849056603774,4.621308676027748e-16 l -6.931963014041621e-16,-3.7735849056603774 l 3.7735849056603774,-9.242617352055496e-16 l -6.931963014041621e-16,-3.7735849056603774 l -3.7735849056603774,4.621308676027748e-16 l -6.931963014041621e-16,-3.7735849056603774 l -3.7735849056603774,4.621308676027748e-16 l 2.310654338013874e-16,3.7735849056603774 l 2.310654338013874e-16,3.7735849056603774 l -3.7735849056603774,4.621308676027748e-16 l -6.931963014041621e-16,-3.7735849056603774 l -3.7735849056603774,4.621308676027748e-16 l -6.931963014041621e-16,-3.7735849056603774 l 3.7735849056603774,-9.242617352055496e-16 l -6.931963014041621e-16,-3.7735849056603774 l -3.7735849056603774,4.621308676027748e-16 l -3.7735849056603774,4.621308676027748e-16 l -6.931963014041621e-16,-3.7735849056603774 l 3.7735849056603774,-9.242617352055496e-16 l -6.931963014041621e-16,-3.7735849056603774 l -3.7735849056603774,4.621308676027748e-16 l -6.931963014041621e-16,-3.7735849056603774 l -3.7735849056603774,4.621308676027748e-16 l 2.310654338013874e-16,3.7735849056603774 l 2.310654338013874e-16,3.7735849056603774 l -3.7735849056603774,4.621308676027748e-16 l -6.931963014041621e-16,-3.7735849056603774 l -3.7735849056603774,4.621308676027748e-16 l 2.310654338013874e-16,3.7735849056603774 l -3.7735849056603774,4.621308676027748e-16 l 2.310654338013874e-16,3.7735849056603774 h 3.7735849056603774 h 3.7735849056603774 l 2.310654338013874e-16,3.7735849056603774 l -3.7735849056603774,4.621308676027748e-16 l 2.310654338013874e-16,3.7735849056603774 l 2.310654338013874e-16,3.7735849056603774 l -3.7735849056603774,4.621308676027748e-16 l 2.310654338013874e-16,3.7735849056603774 h 3.7735849056603774 h 3.7735849056603774 l 2.310654338013874e-16,3.7735849056603774 l -3.7735849056603774,4.621308676027748e-16 l 2.310654338013874e-16,3.7735849056603774 l -3.7735849056603774,4.621308676027748e-16 l -6.931963014041621e-16,-3.7735849056603774 l -3.7735849056603774,4.621308676027748e-16 l 2.310654338013874e-16,3.7735849056603774 l 2.310654338013874e-16,3.7735849056603774 l -3.7735849056603774,4.621308676027748e-16 l -6.931963014041621e-16,-3.7735849056603774 l -3.7735849056603774,4.621308676027748e-16 l -6.931963014041621e-16,-3.7735849056603774 l 3.7735849056603774,-9.242617352055496e-16 l -6.931963014041621e-16,-3.7735849056603774 l -3.7735849056603774,4.621308676027748e-16 l -3.7735849056603774,4.621308676027748e-16 l -6.931963014041621e-16,-3.7735849056603774 l 3.7735849056603774,-9.242617352055496e-16 l -6.931963014041621e-16,-3.7735849056603774 l -3.7735849056603774,4.621308676027748e-16 l -6.931963014041621e-16,-3.7735849056603774 l -3.7735849056603774,4.621308676027748e-16 l 2.310654338013874e-16,3.7735849056603774 l 2.310654338013874e-16,3.7735849056603774 l -3.7735849056603774,4.621308676027748e-16 l -6.931963014041621e-16,-3.7735849056603774 l -3.7735849056603774,4.621308676027748e-16 l -3.7735849056603774,4.621308676027748e-16 l -6.931963014041621e-16,-3.7735849056603774 l -3.7735849056603774,4.621308676027748e-16 l 2.310654338013874e-16,3.7735849056603774 l 2.310654338013874e-16,3.7735849056603774 l -3.7735849056603774,4.621308676027748e-16 l -6.931963014041621e-16,-3.7735849056603774 l -3.7735849056603774,4.621308676027748e-16 l -6.931963014041621e-16,-3.7735849056603774 l 3.7735849056603774,-9.242617352055496e-16 l -6.931963014041621e-16,-3.7735849056603774 l -3.7735849056603774,4.621308676027748e-16 l -3.7735849056603774,4.621308676027748e-16 l -6.931963014041621e-16,-3.7735849056603774 l 3.7735849056603774,-9.242617352055496e-16 l -6.931963014041621e-16,-3.7735849056603774 l -3.7735849056603774,4.621308676027748e-16 l -6.931963014041621e-16,-3.7735849056603774 l -3.7735849056603774,4.621308676027748e-16 l 2.310654338013874e-16,3.7735849056603774 l 2.310654338013874e-16,3.7735849056603774 l -3.7735849056603774,4.621308676027748e-16 l -6.931963014041621e-16,-3.7735849056603774 l -3.7735849056603774,4.621308676027748e-16 l 2.310654338013874e-16,3.7735849056603774 l -3.7735849056603774,4.621308676027748e-16 l 2.310654338013874e-16,3.7735849056603774 h 3.7735849056603774 h 3.7735849056603774 l 2.310654338013874e-16,3.7735849056603774 l -3.7735849056603774,4.621308676027748e-16 l 2.310654338013874e-16,3.7735849056603774 l 2.310654338013874e-16,3.7735849056603774 l -3.7735849056603774,4.621308676027748e-16 l 2.310654338013874e-16,3.7735849056603774 h 3.7735849056603774 h 3.7735849056603774 l 2.310654338013874e-16,3.7735849056603774 l -3.7735849056603774,4.621308676027748e-16 l 2.310654338013874e-16,3.7735849056603774 l -3.7735849056603774,4.621308676027748e-16 l -6.931963014041621e-16,-3.7735849056603774 l -3.7735849056603774,4.621308676027748e-16 l 2.310654338013874e-16,3.7735849056603774 l 2.310654338013874e-16,3.7735849056603774 l -3.7735849056603774,4.621308676027748e-16 l -6.931963014041621e-16,-3.7735849056603774 l -3.7735849056603774,4.621308676027748e-16 l -6.931963014041621e-16,-3.7735849056603774 l 3.7735849056603774,-9.242617352055496e-16 l -6.931963014041621e-16,-3.7735849056603774 l -3.7735849056603774,4.621308676027748e-16 l -3.7735849056603774,4.621308676027748e-16 l -6.931963014041621e-16,-3.7735849056603774 l 3.7735849056603774,-9.242617352055496e-16 l -6.931963014041621e-16,-3.7735849056603774 l -3.7735849056603774,4.621308676027748e-16 l -6.931963014041621e-16,-3.7735849056603774 l -3.7735849056603774,4.621308676027748e-16 l 2.310654338013874e-16,3.7735849056603774 l 2.310654338013874e-16,3.7735849056603774 l -3.7735849056603774,4.621308676027748e-16 l -6.931963014041621e-16,-3.7735849056603774 l -3.7735849056603774,4.621308676027748e-16 l -6.931963014041621e-16,-3.7735849056603774 l 3.7735849056603774,-9.242617352055496e-16 l -6.931963014041621e-16,-3.7735849056603774 l -3.7735849056603774,4.621308676027748e-16 l -3.7735849056603774,4.621308676027748e-16 l -6.931963014041621e-16,-3.7735849056603774 l 3.7735849056603774,-9.242617352055496e-16 l -6.931963014041621e-16,-3.7735849056603774 l 3.7735849056603774,-9.242617352055496e-16 l 1.155327169006937e-15,3.7735849056603774 l 3.7735849056603774,-9.242617352055496e-16 l -6.931963014041621e-16,-3.7735849056603774 l -6.931963014041621e-16,-3.7735849056603774 l 3.7735849056603774,-9.242617352055496e-16 l 1.155327169006937e-15,3.7735849056603774 l 3.7735849056603774,-9.242617352055496e-16 l -6.931963014041621e-16,-3.7735849056603774 l 3.7735849056603774,-9.242617352055496e-16 l -6.931963014041621e-16,-3.7735849056603774 l -3.7735849056603774,4.621308676027748e-16 l -3.7735849056603774,4.621308676027748e-16 l -6.931963014041621e-16,-3.7735849056603774 l 3.7735849056603774,-9.242617352055496e-16 l -6.931963014041621e-16,-3.7735849056603774 l -3.7735849056603774,4.621308676027748e-16 l -6.931963014041621e-16,-3.7735849056603774 l -3.7735849056603774,4.621308676027748e-16 l 2.310654338013874e-16,3.7735849056603774 l 2.310654338013874e-16,3.7735849056603774 l -3.7735849056603774,4.621308676027748e-16 l -6.931963014041621e-16,-3.7735849056603774 l -3.7735849056603774,4.621308676027748e-16 l -3.7735849056603774,4.621308676027748e-16 l -6.931963014041621e-16,-3.7735849056603774 l -3.7735849056603774,4.621308676027748e-16 l 2.310654338013874e-16,3.7735849056603774 l 2.310654338013874e-16,3.7735849056603774 l -3.7735849056603774,4.621308676027748e-16 l -6.931963014041621e-16,-3.7735849056603774 l -3.7735849056603774,4.621308676027748e-16 l -6.931963014041621e-16,-3.7735849056603774 l 3.7735849056603774,-9.242617352055496e-16 l -6.931963014041621e-16,-3.7735849056603774 l -3.7735849056603774,4.621308676027748e-16 l -3.7735849056603774,4.621308676027748e-16 l -6.931963014041621e-16,-3.7735849056603774 l 3.7735849056603774,-9.242617352055496e-16 l -6.931963014041621e-16,-3.7735849056603774 l 3.7735849056603774,-9.242617352055496e-16 l 1.155327169006937e-15,3.7735849056603774 l 3.7735849056603774,-9.242617352055496e-16 l -6.931963014041621e-16,-3.7735849056603774 l -6.931963014041621e-16,-3.7735849056603774 l 3.7735849056603774,-9.242617352055496e-16 l 1.155327169006937e-15,3.7735849056603774 l 3.7735849056603774,-9.242617352055496e-16 l -6.931963014041621e-16,-3.7735849056603774 l 3.7735849056603774,-9.242617352055496e-16 l -6.931963014041621e-16,-3.7735849056603774 l -3.7735849056603774,4.621308676027748e-16 l -3.7735849056603774,4.621308676027748e-16 l -6.931963014041621e-16,-3.7735849056603774 l 3.7735849056603774,-9.242617352055496e-16 l -6.931963014041621e-16,-3.7735849056603774 l 3.7735849056603774,-9.242617352055496e-16 l 1.155327169006937e-15,3.7735849056603774 l 3.7735849056603774,-9.242617352055496e-16 l -6.931963014041621e-16,-3.7735849056603774 l -6.931963014041621e-16,-3.7735849056603774 l 3.7735849056603774,-9.242617352055496e-16 l 1.155327169006937e-15,3.7735849056603774 l 3.7735849056603774,-9.242617352055496e-16 l 1.155327169006937e-15,3.7735849056603774 l -3.7735849056603774,1.3863926028083243e-15 l 1.155327169006937e-15,3.7735849056603774 l 3.7735849056603774,-9.242617352055496e-16 l 3.7735849056603774,-9.242617352055496e-16 l 1.155327169006937e-15,3.7735849056603774 l -3.7735849056603774,1.3863926028083243e-15 l 1.155327169006937e-15,3.7735849056603774 l 3.7735849056603774,-9.242617352055496e-16 l 1.155327169006937e-15,3.7735849056603774 l 3.7735849056603774,-9.242617352055496e-16 l -6.931963014041621e-16,-3.7735849056603774 l -6.931963014041621e-16,-3.7735849056603774 l 3.7735849056603774,-9.242617352055496e-16 l 1.155327169006937e-15,3.7735849056603774 l 3.7735849056603774,-9.242617352055496e-16 l -6.931963014041621e-16,-3.7735849056603774 l 3.7735849056603774,-9.242617352055496e-16 l -6.931963014041621e-16,-3.7735849056603774 l -3.7735849056603774,4.621308676027748e-16 l -3.7735849056603774,4.621308676027748e-16 l -6.931963014041621e-16,-3.7735849056603774 l 3.7735849056603774,-9.242617352055496e-16 l -6.931963014041621e-16,-3.7735849056603774 l -6.931963014041621e-16,-3.7735849056603774 l 3.7735849056603774,-9.242617352055496e-16 l -6.931963014041621e-16,-3.7735849056603774 l -3.7735849056603774,4.621308676027748e-16 l -3.7735849056603774,4.621308676027748e-16 l -6.931963014041621e-16,-3.7735849056603774 l 3.7735849056603774,-9.242617352055496e-16 l -6.931963014041621e-16,-3.7735849056603774 l 3.7735849056603774,-9.242617352055496e-16 l 1.155327169006937e-15,3.7735849056603774 l 3.7735849056603774,-9.242617352055496e-16 l -6.931963014041621e-16,-3.7735849056603774 l -6.931963014041621e-16,-3.7735849056603774 l 3.7735849056603774,-9.242617352055496e-16 l 1.155327169006937e-15,3.7735849056603774 l 3.7735849056603774,-9.242617352055496e-16 l 1.155327169006937e-15,3.7735849056603774 l -3.7735849056603774,1.3863926028083243e-15 l 1.155327169006937e-15,3.7735849056603774 l 3.7735849056603774,-9.242617352055496e-16 l 3.7735849056603774,-9.242617352055496e-16 l 1.155327169006937e-15,3.7735849056603774 l -3.7735849056603774,1.3863926028083243e-15 l 1.155327169006937e-15,3.7735849056603774 l 3.7735849056603774,-9.242617352055496e-16 l 1.155327169006937e-15,3.7735849056603774 l 3.7735849056603774,-9.242617352055496e-16 l -6.931963014041621e-16,-3.7735849056603774 l -6.931963014041621e-16,-3.7735849056603774 l 3.7735849056603774,-9.242617352055496e-16 l 1.155327169006937e-15,3.7735849056603774 l 3.7735849056603774,-9.242617352055496e-16 l -6.931963014041621e-16,-3.7735849056603774 l 3.7735849056603774,-9.242617352055496e-16 l -6.931963014041621e-16,-3.7735849056603774 l -3.7735849056603774,4.621308676027748e-16 l -3.7735849056603774,4.621308676027748e-16 l -6.931963014041621e-16,-3.7735849056603774 l 3.7735849056603774,-9.242617352055496e-16 l -6.931963014041621e-16,-3.7735849056603774 l 3.7735849056603774,-9.242617352055496e-16 l 1.155327169006937e-15,3.7735849056603774 l 3.7735849056603774,-9.242617352055496e-16 l -6.931963014041621e-16,-3.7735849056603774 l -6.931963014041621e-16,-3.7735849056603774 l 3.7735849056603774,-9.242617352055496e-16 l 1.155327169006937e-15,3.7735849056603774 l 3.7735849056603774,-9.242617352055496e-16 l -6.931963014041621e-16,-3.7735849056603774 l 3.7735849056603774,-9.242617352055496e-16 l -6.931963014041621e-16,-3.7735849056603774 l -3.7735849056603774,4.621308676027748e-16 l -3.7735849056603774,4.621308676027748e-16 l -6.931963014041621e-16,-3.7735849056603774 l 3.7735849056603774,-9.242617352055496e-16 l -6.931963014041621e-16,-3.7735849056603774 l -3.7735849056603774,4.621308676027748e-16 l -6.931963014041621e-16,-3.7735849056603774 l -3.7735849056603774,4.621308676027748e-16 l 2.310654338013874e-16,3.7735849056603774 l 2.310654338013874e-16,3.7735849056603774 l -3.7735849056603774,4.621308676027748e-16 l -6.931963014041621e-16,-3.7735849056603774 l -3.7735849056603774,4.621308676027748e-16 l -3.7735849056603774,4.621308676027748e-16 l -6.931963014041621e-16,-3.7735849056603774 l -3.7735849056603774,4.621308676027748e-16 l 2.310654338013874e-16,3.7735849056603774 l 2.310654338013874e-16,3.7735849056603774 l -3.7735849056603774,4.621308676027748e-16 l -6.931963014041621e-16,-3.7735849056603774 l -3.7735849056603774,4.621308676027748e-16 l -6.931963014041621e-16,-3.7735849056603774 l 3.7735849056603774,-9.242617352055496e-16 l -6.931963014041621e-16,-3.7735849056603774 l -3.7735849056603774,4.621308676027748e-16 l -3.7735849056603774,4.621308676027748e-16 l -6.931963014041621e-16,-3.7735849056603774 l 3.7735849056603774,-9.242617352055496e-16 l -6.931963014041621e-16,-3.7735849056603774 l 3.7735849056603774,-9.242617352055496e-16 l 1.155327169006937e-15,3.7735849056603774 l 3.7735849056603774,-9.242617352055496e-16 l -6.931963014041621e-16,-3.7735849056603774 l -6.931963014041621e-16,-3.7735849056603774 l 3.7735849056603774,-9.242617352055496e-16 l 1.155327169006937e-15,3.7735849056603774 l 3.7735849056603774,-9.242617352055496e-16 l -6.931963014041621e-16,-3.7735849056603774 l 3.7735849056603774,-9.242617352055496e-16 l -6.931963014041621e-16,-3.7735849056603774 l -3.7735849056603774,4.621308676027748e-16 l -3.7735849056603774,4.621308676027748e-16 l -6.931963014041621e-16,-3.7735849056603774 l 3.7735849056603774,-9.242617352055496e-16 l -6.931963014041621e-16,-3.7735849056603774 "/></g></svg>