<?xml version="1.0" encoding="UTF-8"?>
<!DOCTYPE svg PUBLIC "-//W3C//DTD SVG 1.1//EN"
    "http://www.w3.org/Graphics/SVG/1.1/DTD/svg11.dtd">
<svg xmlns="http://www.w3.org/2000/svg" xmlns:xlink="http://www.w3.org/1999/xlink" version="1.1" width="300.0" height="299.9999999999999" font-size="1" viewBox="0 0 300 300"><g><g stroke="rgb(0,0,0)" stroke-opacity="1.0" fill-opacity="0.0" stroke-width="1.0e-2" stroke-linecap="butt" stroke-linejoin="miter" font-size="1.0em" stroke-miterlimit="10.0"><g transform="matrix(29.99999999999999,0.0,0.0,29.99999999999999,150.00000000000003,149.99999999999994)"><g fill-opacity="0.0" stroke-width="0.0"><path d="M -5.0,5.0 h -1.0 v 1.0 h 1.0 " /></g><g fill-opacity="0.0" stroke-width="0.0"><path d="M -4.0,5.0 h -1.0 v 1.0 h 1.0 " /></g><g fill-opacity="0.0" stroke-width="0.0"><path d="M -3.0,5.0 h -1.0 v 1.0 h 1.0 " /></g><g fill-opacity="0.0" stroke-width="0.0"><path d="M -2.0,5.0 h -1.0 v 1.0 h 1.0 " /></g><g fill-opacity="0.0" stroke-width="0.0"><path d="M -1.0,5.0 h -1.0 v 1.0 h 1.0 " /></g><g fill-opacity="0.0" stroke-width="0.0"><path d="M 0.0,5.0 h -1.0 v 1.0 h 1.0 " /></g><g fill-opacity="0.0" stroke-width="0.0"><path d="M 1.0,5.0 h -1.0 v 1.0 h 1.0 " /></g><g fill-opacity="0.0" stroke-width="0.0"><path d="M 2.0,5.0 h -1.0 v 1.0 h 1.0 " /></g><g fill-opacity="0.0" stroke-width="0.0"><path d="M 3.0,5.0 h -1.0 v 1.0 h 1.0 " /></g><g fill-opacity="0.0" stroke-width="0.0"><path d="M 4.0,5.0 h -1.0 v 1.0 h 1.0 " /></g><g fill-opacity="0.0" stroke-width="0.0"><path d="M 5.0,5.0 v 1.0 h 1.0 v -1.0 " /></g><g fill-opacity="0.0" stroke-width="0.0"><path d="M 5.0,5.0 h -1.0 v 1.0 h 1.0 " /></g><g fill-opacity="0.0" stroke-width="0.0"><path d="M 5.0,4.0 v 1.0 h 1.0 v -1.0 " /></g><g fill-opacity="0.0" stroke-width="0.0"><path d="M 5.0,3.0 v 1.0 h 1.0 v -1.0 " /></g><g fill-opacity="0.0" stroke-width="0.0"><path d="M 5.0,2.0 v 1.0 h 1.0 v -1.0 " /></g><g fill-opacity="0.0" stroke-width="0.0"><path d="M 5.0,1.0 v 1.0 h 1.0 v -1.0 " /></g><g fill-opacity="0.0" stroke-width="0.0"><path d="M 5.0,0.0 v 1.0 h 1.0 v -1.0 " /></g><g fill-opacity="0.0" stroke-width="0.0"><path d="M 5.0,-1.0 v 1.0 h 1.0 v -1.0 " /></g><g fill-opacity="0.0" stroke-width="0.0"><path d="M 5.0,-2.0 v 1.0 h 1.0 v -1.0 " /></g><g fill-opacity="0.0" stroke-width="0.0"><path d="M 5.0,-3.0 v 1.0 h 1.0 v -1.0 " /></g><g fill-opacity="0.0" stroke-width="0.0"><path d="M 5.0,-4.0 v 1.0 h 1.0 v -1.0 " /></g><g fill-opacity="0.0" stroke-width="0.0"><path d="M 5.0,-5.0 h 1.0 v -1.0 h -1.0 " /></g><g fill-opacity="0.0" stroke-width="0.0"><path d="M 5.0,-5.0 v 1.0 h 1.0 v -1.0 " /></g><g fill-opacity="0.0" stroke-width="0.0"><path d="M 4.0,-5.0 h 1.0 v -1.0 h -1.0 " /></g><g fill-opacity="0.0" stroke-width="0.0"><path d="M 3.0,-5.0 h 1.0 v -1.0 h -1.0 " /></g><g fill-opacity="0.0" stroke-width="0.0"><path d="M 2.0,-5.0 h 1.0 v -1.0 h -1.0 " /></g><g fill-opacity="0.0" stroke-width="0.0"><path d="M 1.0,-5.0 h 1.0 v -1.0 h -1.0 " /></g><g fill-opacity="0.0" stroke-width="0.0"><path d="M 0.0,-5.0 h 1.0 v -1.0 h -1.0 " /></g><g fill-opacity="0.0" stroke-width="0.0"><path d="M -1.0,-5.0 h 1.0 v -1.0 h -1.0 " /></g><g fill-opacity="0.0" stroke-width="0.0"><path d="M -2.0,-5.0 h 1.0 v -1.0 h -1.0 " /></g><g fill-opacity="0.0" stroke-width="0.0"><path d="M -3.0,-5.0 h 1.0 v -1.0 h -1.0 " /></g><g fill-opacity="0.0" stroke-width="0.0"><path d="M -4.0,-5.0 h 1.0 v -1.0 h -1.0 " /></g><g fill-opacity="0.0" stroke-width="0.0"><path d="M -5.0,-5.0 h 1.0 v -1.0 h -1.0 " /></g><g fill-opacity="0.0" stroke-width="0.0"><path d="M -5.0,-5.0 v -1.0 h -1.0 v 1.0 " /></g><g fill-opacity="0.0" stroke-width="0.0"><path d="M -5.0,-4.0 v -1.0 h -1.0 v 1.0 " /></g><g fill-opacity="0.0" stroke-width="0.0"><path d="M -5.0,-3.0 v -1.0 h -1.0 v 1.0 " /></g><g fill-opacity="0.0" stroke-width="0.0"><path d="M -5.0,-2.0 v -1.0 h -1.0 v 1.0 " /></g><g fill-opacity="0.0" stroke-width="0.0"><path d="M -5.0,-1.0 v -1.0 h -1.0 v 1.0 " /></g><g fill-opacity="0.0" stroke-width="0.0"><path d="M -5.0,0.0 v -1.0 h -1.0 v 1.0 " /></g><g fill-opacity="0.0" stroke-width="0.0"><path d="M -5.0,1.0 v -1.0 h -1.0 v 1.0 " /></g><g fill-opacity="0.0" stroke-width="0.0"><path d="M -5.0,2.0 v -1.0 h -1.0 v 1.0 " /></g><g fill-opacity="0.0" stroke-width="0.0"><path d="M -5.0,3.0 v -1.0 h -1.0 v 1.0 " /></g><g fill-opacity="0.0" stroke-width="0.0"><path d="M -5.0,4.0 v -1.0 h -1.0 v 1.0 " /></g><g fill-opacity="0.0" stroke-width="0.0"><path d="M -5.0,4.0 h -1.0 v 1.0 h 1.0 " /></g><g fill-opacity="0.0" stroke-width="0.0"><path d="M -4.0,4.0 h -1.0 v 1.0 h 1.0 " /></g><g fill-opacity="0.0" stroke-width="0.0"><path d="M -3.0,4.0 h -1.0 v 1.0 h 1.0 " /></g><g fill-opacity="0.0" stroke-width="0.0"><path d="M -2.0,4.0 h -1.0 v 1.0 h 1.0 " /></g><g fill-opacity="0.0" stroke-width="0.0"><path d="M -1.0,4.0 h -1.0 v 1.0 h 1.0 " /></g><g fill-opacity="0.0" stroke-width="0.0"><path d="M 0.0,4.0 h -1.0 v 1.0 h 1.0 " /></g><g fill-opacity="0.0" stroke-width="0.0"><path d="M 1.0,4.0 h -1.0 v 1.0 h 1.0 " /></g><g fill-opacity="0.0" stroke-width="0.0"><path d="M 2.0,4.0 h -1.0 v 1.0 h 1.0 " /></g><g fill-opacity="0.0" stroke-width="0.0"><path d="M 3.0,4.0 h -1.0 v 1.0 h 1.0 " /></g><g fill-opacity="0.0" stroke-width="0.0"><path d="M 4.0,4.0 v 1.0 h 1.0 v -1.0 " /></g><g fill-opacity="0.0" stroke-width="0.0"><path d="M 4.0,4.0 h -1.0 v 1.0 h 1.0 " /></g><g fill-opacity="0.0" stroke-width="0.0"><path d="M 4.0,3.0 v 1.0 h 1.0 v -1.0 " /></g><g fill-opacity="0.0" stroke-width="0.0"><path d="M 4.0,2.0 v 1.0 h 1.0 v -1.0 " /></g><g fill-opacity="0.0" stroke-width="0.0"><path d="M 4.0,1.0 v 1.0 h 1.0 v -1.0 " /></g><g fill-opacity="0.0" stroke-width="0.0"><path d="M 4.0,0.0 v 1.0 h 1.0 v -1.0 " /></g><g fill-opacity="0.0" stroke-width="0.0"><path d="M 4.0,-1.0 v 1.0 h 1.0 v -1.0 " /></g><g fill-opacity="0.0" stroke-width="0.0"><path d="M 4.0,-2.0 v 1.0 h 1.0 v -1.0 " /></g><g fill-opacity="0.0" stroke-width="0.0"><path d="M 4.0,-3.0 v 1.0 h 1.0 v -1.0 " /></g><g fill-opacity="0.0" stroke-width="0.0"><path d="M 4.0,-4.0 h 1.0 v -1.0 h -1.0 " /></g><g fill-opacity="0.0" stroke-width="0.0"><path d="M 4.0,-4.0 v 1.0 h 1.0 v -1.0 " /></g><g fill-opacity="0.0" stroke-width="0.0"><path d="M 3.0,-4.0 h 1.0 v -1.0 h -1.0 " /></g><g fill-opacity="0.0" stroke-width="0.0"><path d="M 2.0,-4.0 h 1.0 v -1.0 h -1.0 " /></g><g fill-opacity="0.0" stroke-width="0.0"><path d="M 1.0,-4.0 h 1.0 v -1.0 h -1.0 " /></g><g fill-opacity="0.0" stroke-width="0.0"><path d="M 0.0,-4.0 h 1.0 v -1.0 h -1.0 " /></g><g fill-opacity="0.0" stroke-width="0.0"><path d="M -1.0,-4.0 h 1.0 v -1.0 h -1.0 " /></g><g fill-opacity="0.0" stroke-width="0.0"><path d="M -2.0,-4.0 h 1.0 v -1.0 h -1.0 " /></g><g fill-opacity="0.0" stroke-width="0.0"><path d="M -3.0,-4.0 h 1.0 v -1.0 h -1.0 " /></g><g fill-opacity="0.0" stroke-width="0.0"><path d="M -4.0,-4.0 h 1.0 v -1.0 h -1.0 " /></g><g fill-opacity="0.0" stroke-width="0.0"><path d="M -4.0,-4.0 v -1.0 h -1.0 v 1.0 " /></g><g fill-opacity="0.0" stroke-width="0.0"><path d="M -4.0,-3.0 v -1.0 h -1.0 v 1.0 " /></g><g fill-opacity="0.0" stroke-width="0.0"><path d="M -4.0,-2.0 v -1.0 h -1.0 v 1.0 " /></g><g fill-opacity="0.0" stroke-width="0.0"><path d="M -4.0,-1.0 v -1.0 h -1.0 v 1.0 " /></g><g fill-opacity="0.0" stroke-width="0.0"><path d="M -4.0,0.0 v -1.0 h -1.0 v 1.0 " /></g><g fill-opacity="0.0" stroke-width="0.0"><path d="M -4.0,1.0 v -1.0 h -1.0 v 1.0 " /></g><g fill-opacity="0.0" stroke-width="0.0"><path d="M -4.0,2.0 v -1.0 h -1.0 v 1.0 " /></g><g fill-opacity="0.0" stroke-width="0.0"><path d="M -4.0,3.0 v -1.0 h -1.0 v 1.0 " /></g><g fill-opacity="0.0" stroke-width="0.0"><path d="M -4.0,3.0 h -1.0 v 1.0 h 1.0 " /></g><g fill-opacity="0.0" stroke-width="0.0"><path d="M -3.0,3.0 h -1.0 v 1.0 h 1.0 " /></g><g fill-opacity="0.0" stroke-width="0.0"><path d="M -2.0,3.0 h -1.0 v 1.0 h 1.0 " /></g><g fill-opacity="0.0" stroke-width="0.0"><path d="M -1.0,3.0 h -1.0 v 1.0 h 1.0 " /></g><g fill-opacity="0.0" stroke-width="0.0"><path d="M 0.0,3.0 h -1.0 v 1.0 h 1.0 " /></g><g fill-opacity="0.0" stroke-width="0.0"><path d="M 1.0,3.0 h -1.0 v 1.0 h 1.0 " /></g><g fill-opacity="0.0" stroke-width="0.0"><path d="M 2.0,3.0 h -1.0 v 1.0 h 1.0 " /></g><g fill-opacity="0.0" stroke-width="0.0"><path d="M 3.0,3.0 v 1.0 h 1.0 v -1.0 " /></g><g fill-opacity="0.0" stroke-width="0.0"><path d="M 3.0,3.0 h -1.0 v 1.0 h 1.0 " /></g><g fill-opacity="0.0" stroke-width="0.0"><path d="M 3.0,2.0 v 1.0 h 1.0 v -1.0 " /></g><g fill-opacity="0.0" stroke-width="0.0"><path d="M 3.0,1.0 v 1.0 h 1.0 v -1.0 " /></g><g fill-opacity="0.0" stroke-width="0.0"><path d="M 3.0,0.0 v 1.0 h 1.0 v -1.0 " /></g><g fill-opacity="0.0" stroke-width="0.0"><path d="M 3.0,-1.0 v 1.0 h 1.0 v -1.0 " /></g><g fill-opacity="0.0" stroke-width="0.0"><path d="M 3.0,-2.0 v 1.0 h 1.0 v -1.0 " /></g><g fill-opacity="0.0" stroke-width="0.0"><path d="M 3.0,-3.0 h 1.0 v -1.0 h -1.0 " /></g><g fill-opacity="0.0" stroke-width="0.0"><path d="M 3.0,-3.0 v 1.0 h 1.0 v -1.0 " /></g><g fill-opacity="0.0" stroke-width="0.0"><path d="M 2.0,-3.0 h 1.0 v -1.0 h -1.0 " /></g><g fill-opacity="0.0" stroke-width="0.0"><path d="M 1.0,-3.0 h 1.0 v -1.0 h -1.0 " /></g><g fill-opacity="0.0" stroke-width="0.0"><path d="M 0.0,-3.0 h 1.0 v -1.0 h -1.0 " /></g><g fill-opacity="0.0" stroke-width="0.0"><path d="M -1.0,-3.0 h 1.0 v -1.0 h -1.0 " /></g><g fill-opacity="0.0" stroke-width="0.0"><path d="M -2.0,-3.0 h 1.0 v -1.0 h -1.0 " /></g><g fill-opacity="0.0" stroke-width="0.0"><path d="M -3.0,-3.0 h 1.0 v -1.0 h -1.0 " /></g><g fill-opacity="0.0" stroke-width="0.0"><path d="M -3.0,-3.0 v -1.0 h -1.0 v 1.0 " /></g><g fill-opacity="0.0" stroke-width="0.0"><path d="M -3.0,-2.0 v -1.0 h -1.0 v 1.0 " /></g><g fill-opacity="0.0" stroke-width="0.0"><path d="M -3.0,-1.0 v -1.0 h -1.0 v 1.0 " /></g><g fill-opacity="0.0" stroke-width="0.0"><path d="M -3.0,0.0 v -1.0 h -1.0 v 1.0 " /></g><g fill-opacity="0.0" stroke-width="0.0"><path d="M -3.0,1.0 v -1.0 h -1.0 v 1.0 " /></g><g fill-opacity="0.0" stroke-width="0.0"><path d="M -3.0,2.0 v -1.0 h -1.0 v 1.0 " /></g><g fill-opacity="0.0" stroke-width="0.0"><path d="M -3.0,2.0 h -1.0 v 1.0 h 1.0 " /></g><g fill-opacity="0.0" stroke-width="0.0"><path d="M -2.0,2.0 h -1.0 v 1.0 h 1.0 " /></g><g fill-opacity="0.0" stroke-width="0.0"><path d="M -1.0,2.0 h -1.0 v 1.0 h 1.0 " /></g><g fill-opacity="0.0" stroke-width="0.0"><path d="M 0.0,2.0 h -1.0 v 1.0 h 1.0 " /></g><g fill-opacity="0.0" stroke-width="0.0"><path d="M 1.0,2.0 h -1.0 v 1.0 h 1.0 " /></g><g fill-opacity="0.0" stroke-width="0.0"><path d="M 2.0,2.0 v 1.0 h 1.0 v -1.0 " /></g><g fill-opacity="0.0" stroke-width="0.0"><path d="M 2.0,2.0 h -1.0 v 1.0 h 1.0 " /></g><g fill-opacity="0.0" stroke-width="0.0"><path d="M 2.0,1.0 v 1.0 h 1.0 v -1.0 " /></g><g fill-opacity="0.0" stroke-width="0.0"><path d="M 2.0,0.0 v 1.0 h 1.0 v -1.0 " /></g><g fill-opacity="0.0" stroke-width="0.0"><path d="M 2.0,-1.0 v 1.0 h 1.0 v -1.0 " /></g><g fill-opacity="0.0" stroke-width="0.0"><path d="M 2.0,-2.0 h 1.0 v -1.0 h -1.0 " /></g><g fill-opacity="0.0" stroke-width="0.0"><path d="M 2.0,-2.0 v 1.0 h 1.0 v -1.0 " /></g><g fill-opacity="0.0" stroke-width="0.0"><path d="M 1.0,-2.0 h 1.0 v -1.0 h -1.0 " /></g><g fill-opacity="0.0" stroke-width="0.0"><path d="M 0.0,-2.0 h 1.0 v -1.0 h -1.0 " /></g><g fill-opacity="0.0" stroke-width="0.0"><path d="M -1.0,-2.0 h 1.0 v -1.0 h -1.0 " /></g><g fill-opacity="0.0" stroke-width="0.0"><path d="M -2.0,-2.0 h 1.0 v -1.0 h -1.0 " /></g><g fill-opacity="0.0" stroke-width="0.0"><path d="M -2.0,-2.0 v -1.0 h -1.0 v 1.0 " /></g><g fill-opacity="0.0" stroke-width="0.0"><path d="M -2.0,-1.0 v -1.0 h -1.0 v 1.0 " /></g><g fill-opacity="0.0" stroke-width="0.0"><path d="M -2.0,0.0 v -1.0 h -1.0 v 1.0 " /></g><g fill-opacity="0.0" stroke-width="0.0"><path d="M -2.0,1.0 v -1.0 h -1.0 v 1.0 " /></g><g fill-opacity="0.0" stroke-width="0.0"><path d="M -2.0,1.0 h -1.0 v 1.0 h 1.0 " /></g><g fill-opacity="0.0" stroke-width="0.0"><path d="M -1.0,1.0 h -1.0 v 1.0 h 1.0 " /></g><g fill-opacity="0.0" stroke-width="0.0"><path d="M 0.0,1.0 h -1.0 v 1.0 h 1.0 " /></g><g fill-opacity="0.0" stroke-width="0.0"><path d="M 1.0,1.0 v 1.0 h 1.0 v -1.0 " /></g><g fill-opacity="0.0" stroke-width="0.0"><path d="M 1.0,1.0 h -1.0 v 1.0 h 1.0 " /></g><g fill-opacity="0.0" stroke-width="0.0"><path d="M 1.0,0.0 v 1.0 h 1.0 v -1.0 " /></g><g fill-opacity="0.0" stroke-width="0.0"><path d="M 1.0,-1.0 h 1.0 v -1.0 h -1.0 " /></g><g fill-opacity="0.0" stroke-width="0.0"><path d="M 1.0,-1.0 v 1.0 h 1.0 v -1.0 " /></g><g fill-opacity="0.0" stroke-width="0.0"><path d="M 0.0,-1.0 h 1.0 v -1.0 h -1.0 " /></g><g fill-opacity="0.0" stroke-width="0.0"><path d="M -1.0,-1.0 h 1.0 v -1.0 h -1.0 " /></g><g fill-opacity="0.0" stroke-width="0.0"><path d="M -1.0,-1.0 v -1.0 h -1.0 v 1.0 " /></g><g fill-opacity="0.0" stroke-width="0.0"><path d="M -1.0,0.0 v -1.0 h -1.0 v 1.0 " /></g><g fill-opacity="0.0" stroke-width="0.0"><path d="M -1.0,0.0 h -1.0 v 1.0 h 1.0 " /></g><g fill-opacity="0.0" stroke-width="0.0"><path d="M 0.0,0.0 h 1.0 v -1.0 h -1.0 " /></g><g fill-opacity="0.0" stroke-width="0.0"><path d="M 0.0,0.0 v 1.0 h 1.0 v -1.0 " /></g><g fill-opacity="0.0" stroke-width="0.0"><path d="M 0.0,0.0 v -1.0 h -1.0 v 1.0 " /></g><g fill-opacity="0.0" stroke-width="0.0"><path d="M 0.0,0.0 h -1.0 v 1.0 h 1.0 " /></g><g fill-opacity="0.0" stroke-width="2.0e-2"><path d="M -5.0,6.0 v -1.0 " /></g><g fill-opacity="0.0" stroke-width="2.0e-2"><path d="M -6.0,5.0 h 1.0 " /></g><g fill-opacity="0.0" stroke-width="2.0e-2"><path d="M -4.0,6.0 v -1.0 " /></g><g fill-opacity="0.0" stroke-width="2.0e-2"><path d="M -5.0,5.0 h 1.0 " /></g><g fill-opacity="0.0" stroke-width="2.0e-2"><path d="M -3.0,6.0 v -1.0 " /></g><g fill-opacity="0.0" stroke-width="2.0e-2"><path d="M -4.0,5.0 h 1.0 " /></g><g fill-opacity="0.0" stroke-width="2.0e-2"><path d="M -2.0,6.0 v -1.0 " /></g><g fill-opacity="0.0" stroke-width="2.0e-2"><path d="M -3.0,5.0 h 1.0 " /></g><g fill-opacity="0.0" stroke-width="2.0e-2"><path d="M -1.0,6.0 v -1.0 " /></g><g fill-opacity="0.0" stroke-width="2.0e-2"><path d="M -2.0,5.0 h 1.0 " /></g><g fill-opacity="0.0" stroke-width="2.0e-2"><path d="M 0.0,6.0 v -1.0 " /></g><g fill-opacity="0.0" stroke-width="2.0e-2"><path d="M -1.0,5.0 h 1.0 " /></g><g fill-opacity="0.0" stroke-width="2.0e-2"><path d="M 1.0,6.0 v -1.0 " /></g><g fill-opacity="0.0" stroke-width="2.0e-2"><path d="M 0.0,5.0 h 1.0 " /></g><g fill-opacity="0.0" stroke-width="2.0e-2"><path d="M 2.0,6.0 v -1.0 " /></g><g fill-opacity="0.0" stroke-width="2.0e-2"><path d="M 1.0,5.0 h 1.0 " /></g><g fill-opacity="0.0" stroke-width="2.0e-2"><path d="M 3.0,6.0 v -1.0 " /></g><g fill-opacity="0.0" stroke-width="2.0e-2"><path d="M 2.0,5.0 h 1.0 " /></g><g fill-opacity="0.0" stroke-width="2.0e-2"><path d="M 4.0,6.0 v -1.0 " /></g><g fill-opacity="0.0" stroke-width="2.0e-2"><path d="M 3.0,5.0 h 1.0 " /></g><g fill-opacity="0.0" stroke-width="2.0e-2"><path d="M 5.0,5.0 h 1.0 " /></g><g fill-opacity="0.0" stroke-width="2.0e-2"><path d="M 5.0,6.0 v -1.0 " /></g><g fill-opacity="0.0" stroke-width="2.0e-2"><path d="M 4.0,5.0 h 1.0 " /></g><g fill-opacity="0.0" stroke-width="2.0e-2"><path d="M 5.0,4.0 h 1.0 " /></g><g fill-opacity="0.0" stroke-width="2.0e-2"><path d="M 5.0,5.0 v -1.0 " /></g><g fill-opacity="0.0" stroke-width="2.0e-2"><path d="M 5.0,3.0 h 1.0 " /></g><g fill-opacity="0.0" stroke-width="2.0e-2"><path d="M 5.0,4.0 v -1.0 " /></g><g fill-opacity="0.0" stroke-width="2.0e-2"><path d="M 5.0,2.0 h 1.0 " /></g><g fill-opacity="0.0" stroke-width="2.0e-2"><path d="M 5.0,3.0 v -1.0 " /></g><g fill-opacity="0.0" stroke-width="2.0e-2"><path d="M 5.0,1.0 h 1.0 " /></g><g fill-opacity="0.0" stroke-width="2.0e-2"><path d="M 5.0,2.0 v -1.0 " /></g><g fill-opacity="0.0" stroke-width="2.0e-2"><path d="M 5.0,0.0 h 1.0 " /></g><g fill-opacity="0.0" stroke-width="2.0e-2"><path d="M 5.0,1.0 v -1.0 " /></g><g fill-opacity="0.0" stroke-width="2.0e-2"><path d="M 5.0,-1.0 h 1.0 " /></g><g fill-opacity="0.0" stroke-width="2.0e-2"><path d="M 5.0,0.0 v -1.0 " /></g><g fill-opacity="0.0" stroke-width="2.0e-2"><path d="M 5.0,-2.0 h 1.0 " /></g><g fill-opacity="0.0" stroke-width="2.0e-2"><path d="M 5.0,-1.0 v -1.0 " /></g><g fill-opacity="0.0" stroke-width="2.0e-2"><path d="M 5.0,-3.0 h 1.0 " /></g><g fill-opacity="0.0" stroke-width="2.0e-2"><path d="M 5.0,-2.0 v -1.0 " /></g><g fill-opacity="0.0" stroke-width="2.0e-2"><path d="M 5.0,-4.0 h 1.0 " /></g><g fill-opacity="0.0" stroke-width="2.0e-2"><path d="M 5.0,-3.0 v -1.0 " /></g><g fill-opacity="0.0" stroke-width="2.0e-2"><path d="M 5.0,-5.0 h 1.0 " /></g><g fill-opacity="0.0" stroke-width="2.0e-2"><path d="M 5.0,-5.0 v -1.0 " /></g><g fill-opacity="0.0" stroke-width="2.0e-2"><path d="M 5.0,-4.0 v -1.0 " /></g><g fill-opacity="0.0" stroke-width="2.0e-2"><path d="M 4.0,-5.0 h 1.0 " /></g><g fill-opacity="0.0" stroke-width="2.0e-2"><path d="M 4.0,-5.0 v -1.0 " /></g><g fill-opacity="0.0" stroke-width="2.0e-2"><path d="M 3.0,-5.0 h 1.0 " /></g><g fill-opacity="0.0" stroke-width="2.0e-2"><path d="M 3.0,-5.0 v -1.0 " /></g><g fill-opacity="0.0" stroke-width="2.0e-2"><path d="M 2.0,-5.0 h 1.0 " /></g><g fill-opacity="0.0" stroke-width="2.0e-2"><path d="M 2.0,-5.0 v -1.0 " /></g><g fill-opacity="0.0" stroke-width="2.0e-2"><path d="M 1.0,-5.0 h 1.0 " /></g><g fill-opacity="0.0" stroke-width="2.0e-2"><path d="M 1.0,-5.0 v -1.0 " /></g><g fill-opacity="0.0" stroke-width="2.0e-2"><path d="M 0.0,-5.0 h 1.0 " /></g><g fill-opacity="0.0" stroke-width="2.0e-2"><path d="M 0.0,-5.0 v -1.0 " /></g><g fill-opacity="0.0" stroke-width="2.0e-2"><path d="M -1.0,-5.0 h 1.0 " /></g><g fill-opacity="0.0" stroke-width="2.0e-2"><path d="M -1.0,-5.0 v -1.0 " /></g><g fill-opacity="0.0" stroke-width="2.0e-2"><path d="M -2.0,-5.0 h 1.0 " /></g><g fill-opacity="0.0" stroke-width="2.0e-2"><path d="M -2.0,-5.0 v -1.0 " /></g><g fill-opacity="0.0" stroke-width="2.0e-2"><path d="M -3.0,-5.0 h 1.0 " /></g><g fill-opacity="0.0" stroke-width="2.0e-2"><path d="M -3.0,-5.0 v -1.0 " /></g><g fill-opacity="0.0" stroke-width="2.0e-2"><path d="M -4.0,-5.0 h 1.0 " /></g><g fill-opacity="0.0" stroke-width="2.0e-2"><path d="M -4.0,-5.0 v -1.0 " /></g><g fill-opacity="0.0" stroke-width="2.0e-2"><path d="M -5.0,-5.0 h 1.0 " /></g><g fill-opacity="0.0" stroke-width="2.0e-2"><path d="M -5.0,-5.0 v -1.0 " /></g><g fill-opacity="0.0" stroke-width="2.0e-2"><path d="M -6.0,-5.0 h 1.0 " /></g><g fill-opacity="0.0" stroke-width="2.0e-2"><path d="M -5.0,-4.0 v -1.0 " /></g><g fill-opacity="0.0" stroke-width="2.0e-2"><path d="M -6.0,-4.0 h 1.0 " /></g><g fill-opacity="0.0" stroke-width="2.0e-2"><path d="M -5.0,-3.0 v -1.0 " /></g><g fill-opacity="0.0" stroke-width="2.0e-2"><path d="M -6.0,-3.0 h 1.0 " /></g><g fill-opacity="0.0" stroke-width="2.0e-2"><path d="M -5.0,-2.0 v -1.0 " /></g><g fill-opacity="0.0" stroke-width="2.0e-2"><path d="M -6.0,-2.0 h 1.0 " /></g><g fill-opacity="0.0" stroke-width="2.0e-2"><path d="M -5.0,-1.0 v -1.0 " /></g><g fill-opacity="0.0" stroke-width="2.0e-2"><path d="M -6.0,-1.0 h 1.0 " /></g><g fill-opacity="0.0" stroke-width="2.0e-2"><path d="M -5.0,0.0 v -1.0 " /></g><g fill-opacity="0.0" stroke-width="2.0e-2"><path d="M -6.0,0.0 h 1.0 " /></g><g fill-opacity="0.0" stroke-width="2.0e-2"><path d="M -5.0,1.0 v -1.0 " /></g><g fill-opacity="0.0" stroke-width="2.0e-2"><path d="M -6.0,1.0 h 1.0 " /></g><g fill-opacity="0.0" stroke-width="2.0e-2"><path d="M -5.0,2.0 v -1.0 " /></g><g fill-opacity="0.0" stroke-width="2.0e-2"><path d="M -6.0,2.0 h 1.0 " /></g><g fill-opacity="0.0" stroke-width="2.0e-2"><path d="M -5.0,3.0 v -1.0 " /></g><g fill-opacity="0.0" stroke-width="2.0e-2"><path d="M -6.0,3.0 h 1.0 " /></g><g fill-opacity="0.0" stroke-width="2.0e-2"><path d="M -5.0,4.0 v -1.0 " /></g><g fill-opacity="0.0" stroke-width="2.0e-2"><path d="M -5.0,5.0 v -1.0 " /></g><g fill-opacity="0.0" stroke-width="2.0e-2"><path d="M -6.0,4.0 h 1.0 " /></g><g fill-opacity="0.0" stroke-width="2.0e-2"><path d="M -4.0,5.0 v -1.0 " /></g><g fill-opacity="0.0" stroke-width="2.0e-2"><path d="M -5.0,4.0 h 1.0 " /></g><g fill-opacity="0.0" stroke-width="2.0e-2"><path d="M -3.0,5.0 v -1.0 " /></g><g fill-opacity="0.0" stroke-width="2.0e-2"><path d="M -4.0,4.0 h 1.0 " /></g><g fill-opacity="0.0" stroke-width="2.0e-2"><path d="M -2.0,5.0 v -1.0 " /></g><g fill-opacity="0.0" stroke-width="2.0e-2"><path d="M -3.0,4.0 h 1.0 " /></g><g fill-opacity="0.0" stroke-width="2.0e-2"><path d="M -1.0,5.0 v -1.0 " /></g><g fill-opacity="0.0" stroke-width="2.0e-2"><path d="M -2.0,4.0 h 1.0 " /></g><g fill-opacity="0.0" stroke-width="2.0e-2"><path d="M 0.0,5.0 v -1.0 " /></g><g fill-opacity="0.0" stroke-width="2.0e-2"><path d="M -1.0,4.0 h 1.0 " /></g><g fill-opacity="0.0" stroke-width="2.0e-2"><path d="M 1.0,5.0 v -1.0 " /></g><g fill-opacity="0.0" stroke-width="2.0e-2"><path d="M 0.0,4.0 h 1.0 " /></g><g fill-opacity="0.0" stroke-width="2.0e-2"><path d="M 2.0,5.0 v -1.0 " /></g><g fill-opacity="0.0" stroke-width="2.0e-2"><path d="M 1.0,4.0 h 1.0 " /></g><g fill-opacity="0.0" stroke-width="2.0e-2"><path d="M 3.0,5.0 v -1.0 " /></g><g fill-opacity="0.0" stroke-width="2.0e-2"><path d="M 2.0,4.0 h 1.0 " /></g><g fill-opacity="0.0" stroke-width="2.0e-2"><path d="M 4.0,4.0 h 1.0 " /></g><g fill-opacity="0.0" stroke-width="2.0e-2"><path d="M 4.0,5.0 v -1.0 " /></g><g fill-opacity="0.0" stroke-width="2.0e-2"><path d="M 3.0,4.0 h 1.0 " /></g><g fill-opacity="0.0" stroke-width="2.0e-2"><path d="M 4.0,3.0 h 1.0 " /></g><g fill-opacity="0.0" stroke-width="2.0e-2"><path d="M 4.0,4.0 v -1.0 " /></g><g fill-opacity="0.0" stroke-width="2.0e-2"><path d="M 4.0,2.0 h 1.0 " /></g><g fill-opacity="0.0" stroke-width="2.0e-2"><path d="M 4.0,3.0 v -1.0 " /></g><g fill-opacity="0.0" stroke-width="2.0e-2"><path d="M 4.0,1.0 h 1.0 " /></g><g fill-opacity="0.0" stroke-width="2.0e-2"><path d="M 4.0,2.0 v -1.0 " /></g><g fill-opacity="0.0" stroke-width="2.0e-2"><path d="M 4.0,0.0 h 1.0 " /></g><g fill-opacity="0.0" stroke-width="2.0e-2"><path d="M 4.0,1.0 v -1.0 " /></g><g fill-opacity="0.0" stroke-width="2.0e-2"><path d="M 4.0,-1.0 h 1.0 " /></g><g fill-opacity="0.0" stroke-width="2.0e-2"><path d="M 4.0,0.0 v -1.0 " /></g><g fill-opacity="0.0" stroke-width="2.0e-2"><path d="M 4.0,-2.0 h 1.0 " /></g><g fill-opacity="0.0" stroke-width="2.0e-2"><path d="M 4.0,-1.0 v -1.0 " /></g><g fill-opacity="0.0" stroke-width="2.0e-2"><path d="M 4.0,-3.0 h 1.0 " /></g><g fill-opacity="0.0" stroke-width="2.0e-2"><path d="M 4.0,-2.0 v -1.0 " /></g><g fill-opacity="0.0" stroke-width="2.0e-2"><path d="M 4.0,-4.0 h 1.0 " /></g><g fill-opacity="0.0" stroke-width="2.0e-2"><path d="M 4.0,-4.0 v -1.0 " /></g><g fill-opacity="0.0" stroke-width="2.0e-2"><path d="M 4.0,-3.0 v -1.0 " /></g><g fill-opacity="0.0" stroke-width="2.0e-2"><path d="M 3.0,-4.0 h 1.0 " /></g><g fill-opacity="0.0" stroke-width="2.0e-2"><path d="M 3.0,-4.0 v -1.0 " /></g><g fill-opacity="0.0" stroke-width="2.0e-2"><path d="M 2.0,-4.0 h 1.0 " /></g><g fill-opacity="0.0" stroke-width="2.0e-2"><path d="M 2.0,-4.0 v -1.0 " /></g><g fill-opacity="0.0" stroke-width="2.0e-2"><path d="M 1.0,-4.0 h 1.0 " /></g><g fill-opacity="0.0" stroke-width="2.0e-2"><path d="M 1.0,-4.0 v -1.0 " /></g><g fill-opacity="0.0" stroke-width="2.0e-2"><path d="M 0.0,-4.0 h 1.0 " /></g><g fill-opacity="0.0" stroke-width="2.0e-2"><path d="M 0.0,-4.0 v -1.0 " /></g><g fill-opacity="0.0" stroke-width="2.0e-2"><path d="M -1.0,-4.0 h 1.0 " /></g><g fill-opacity="0.0" stroke-width="2.0e-2"><path d="M -1.0,-4.0 v -1.0 " /></g><g fill-opacity="0.0" stroke-width="2.0e-2"><path d="M -2.0,-4.0 h 1.0 " /></g><g fill-opacity="0.0" stroke-width="2.0e-2"><path d="M -2.0,-4.0 v -1.0 " /></g><g fill-opacity="0.0" stroke-width="2.0e-2"><path d="M -3.0,-4.0 h 1.0 " /></g><g fill-opacity="0.0" stroke-width="2.0e-2"><path d="M -3.0,-4.0 v -1.0 " /></g><g fill-opacity="0.0" stroke-width="2.0e-2"><path d="M -4.0,-4.0 h 1.0 " /></g><g fill-opacity="0.0" stroke-width="2.0e-2"><path d="M -4.0,-4.0 v -1.0 " /></g><g fill-opacity="0.0" stroke-width="2.0e-2"><path d="M -5.0,-4.0 h 1.0 " /></g><g fill-opacity="0.0" stroke-width="2.0e-2"><path d="M -4.0,-3.0 v -1.0 " /></g><g fill-opacity="0.0" stroke-width="2.0e-2"><path d="M -5.0,-3.0 h 1.0 " /></g><g fill-opacity="0.0" stroke-width="2.0e-2"><path d="M -4.0,-2.0 v -1.0 " /></g><g fill-opacity="0.0" stroke-width="2.0e-2"><path d="M -5.0,-2.0 h 1.0 " /></g><g fill-opacity="0.0" stroke-width="2.0e-2"><path d="M -4.0,-1.0 v -1.0 " /></g><g fill-opacity="0.0" stroke-width="2.0e-2"><path d="M -5.0,-1.0 h 1.0 " /></g><g fill-opacity="0.0" stroke-width="2.0e-2"><path d="M -4.0,0.0 v -1.0 " /></g><g fill-opacity="0.0" stroke-width="2.0e-2"><path d="M -5.0,0.0 h 1.0 " /></g><g fill-opacity="0.0" stroke-width="2.0e-2"><path d="M -4.0,1.0 v -1.0 " /></g><g fill-opacity="0.0" stroke-width="2.0e-2"><path d="M -5.0,1.0 h 1.0 " /></g><g fill-opacity="0.0" stroke-width="2.0e-2"><path d="M -4.0,2.0 v -1.0 " /></g><g fill-opacity="0.0" stroke-width="2.0e-2"><path d="M -5.0,2.0 h 1.0 " /></g><g fill-opacity="0.0" stroke-width="2.0e-2"><path d="M -4.0,3.0 v -1.0 " /></g><g fill-opacity="0.0" stroke-width="2.0e-2"><path d="M -4.0,4.0 v -1.0 " /></g><g fill-opacity="0.0" stroke-width="2.0e-2"><path d="M -5.0,3.0 h 1.0 " /></g><g fill-opacity="0.0" stroke-width="2.0e-2"><path d="M -3.0,4.0 v -1.0 " /></g><g fill-opacity="0.0" stroke-width="2.0e-2"><path d="M -4.0,3.0 h 1.0 " /></g><g fill-opacity="0.0" stroke-width="2.0e-2"><path d="M -2.0,4.0 v -1.0 " /></g><g fill-opacity="0.0" stroke-width="2.0e-2"><path d="M -3.0,3.0 h 1.0 " /></g><g fill-opacity="0.0" stroke-width="2.0e-2"><path d="M -1.0,4.0 v -1.0 " /></g><g fill-opacity="0.0" stroke-width="2.0e-2"><path d="M -2.0,3.0 h 1.0 " /></g><g fill-opacity="0.0" stroke-width="2.0e-2"><path d="M 0.0,4.0 v -1.0 " /></g><g fill-opacity="0.0" stroke-width="2.0e-2"><path d="M -1.0,3.0 h 1.0 " /></g><g fill-opacity="0.0" stroke-width="2.0e-2"><path d="M 1.0,4.0 v -1.0 " /></g><g fill-opacity="0.0" stroke-width="2.0e-2"><path d="M 0.0,3.0 h 1.0 " /></g><g fill-opacity="0.0" stroke-width="2.0e-2"><path d="M 2.0,4.0 v -1.0 " /></g><g fill-opacity="0.0" stroke-width="2.0e-2"><path d="M 1.0,3.0 h 1.0 " /></g><g fill-opacity="0.0" stroke-width="2.0e-2"><path d="M 3.0,3.0 h 1.0 " /></g><g fill-opacity="0.0" stroke-width="2.0e-2"><path d="M 3.0,4.0 v -1.0 " /></g><g fill-opacity="0.0" stroke-width="2.0e-2"><path d="M 2.0,3.0 h 1.0 " /></g><g fill-opacity="0.0" stroke-width="2.0e-2"><path d="M 3.0,2.0 h 1.0 " /></g><g fill-opacity="0.0" stroke-width="2.0e-2"><path d="M 3.0,3.0 v -1.0 " /></g><g fill-opacity="0.0" stroke-width="2.0e-2"><path d="M 3.0,1.0 h 1.0 " /></g><g fill-opacity="0.0" stroke-width="2.0e-2"><path d="M 3.0,2.0 v -1.0 " /></g><g fill-opacity="0.0" stroke-width="2.0e-2"><path d="M 3.0,0.0 h 1.0 " /></g><g fill-opacity="0.0" stroke-width="2.0e-2"><path d="M 3.0,1.0 v -1.0 " /></g><g fill-opacity="0.0" stroke-width="2.0e-2"><path d="M 3.0,-1.0 h 1.0 " /></g><g fill-opacity="0.0" stroke-width="2.0e-2"><path d="M 3.0,0.0 v -1.0 " /></g><g fill-opacity="0.0" stroke-width="2.0e-2"><path d="M 3.0,-2.0 h 1.0 " /></g><g fill-opacity="0.0" stroke-width="2.0e-2"><path d="M 3.0,-1.0 v -1.0 " /></g><g fill-opacity="0.0" stroke-width="2.0e-2"><path d="M 3.0,-3.0 h 1.0 " /></g><g fill-opacity="0.0" stroke-width="2.0e-2"><path d="M 3.0,-3.0 v -1.0 " /></g><g fill-opacity="0.0" stroke-width="2.0e-2"><path d="M 3.0,-2.0 v -1.0 " /></g><g fill-opacity="0.0" stroke-width="2.0e-2"><path d="M 2.0,-3.0 h 1.0 " /></g><g fill-opacity="0.0" stroke-width="2.0e-2"><path d="M 2.0,-3.0 v -1.0 " /></g><g fill-opacity="0.0" stroke-width="2.0e-2"><path d="M 1.0,-3.0 h 1.0 " /></g><g fill-opacity="0.0" stroke-width="2.0e-2"><path d="M 1.0,-3.0 v -1.0 " /></g><g fill-opacity="0.0" stroke-width="2.0e-2"><path d="M 0.0,-3.0 h 1.0 " /></g><g fill-opacity="0.0" stroke-width="2.0e-2"><path d="M 0.0,-3.0 v -1.0 " /></g><g fill-opacity="0.0" stroke-width="2.0e-2"><path d="M -1.0,-3.0 h 1.0 " /></g><g fill-opacity="0.0" stroke-width="2.0e-2"><path d="M -1.0,-3.0 v -1.0 " /></g><g fill-opacity="0.0" stroke-width="2.0e-2"><path d="M -2.0,-3.0 h 1.0 " /></g><g fill-opacity="0.0" stroke-width="2.0e-2"><path d="M -2.0,-3.0 v -1.0 " /></g><g fill-opacity="0.0" stroke-width="2.0e-2"><path d="M -3.0,-3.0 h 1.0 " /></g><g fill-opacity="0.0" stroke-width="2.0e-2"><path d="M -3.0,-3.0 v -1.0 " /></g><g fill-opacity="0.0" stroke-width="2.0e-2"><path d="M -4.0,-3.0 h 1.0 " /></g><g fill-opacity="0.0" stroke-width="2.0e-2"><path d="M -3.0,-2.0 v -1.0 " /></g><g fill-opacity="0.0" stroke-width="2.0e-2"><path d="M -4.0,-2.0 h 1.0 " /></g><g fill-opacity="0.0" stroke-width="2.0e-2"><path d="M -3.0,-1.0 v -1.0 " /></g><g fill-opacity="0.0" stroke-width="2.0e-2"><path d="M -4.0,-1.0 h 1.0 " /></g><g fill-opacity="0.0" stroke-width="2.0e-2"><path d="M -3.0,0.0 v -1.0 " /></g><g fill-opacity="0.0" stroke-width="2.0e-2"><path d="M -4.0,0.0 h 1.0 " /></g><g fill-opacity="0.0" stroke-width="2.0e-2"><path d="M -3.0,1.0 v -1.0 " /></g><g fill-opacity="0.0" stroke-width="2.0e-2"><path d="M -4.0,1.0 h 1.0 " /></g><g fill-opacity="0.0" stroke-width="2.0e-2"><path d="M -3.0,2.0 v -1.0 " /></g><g fill-opacity="0.0" stroke-width="2.0e-2"><path d="M -3.0,3.0 v -1.0 " /></g><g fill-opacity="0.0" stroke-width="2.0e-2"><path d="M -4.0,2.0 h 1.0 " /></g><g fill-opacity="0.0" stroke-width="2.0e-2"><path d="M -2.0,3.0 v -1.0 " /></g><g fill-opacity="0.0" stroke-width="2.0e-2"><path d="M -3.0,2.0 h 1.0 " /></g><g fill-opacity="0.0" stroke-width="2.0e-2"><path d="M -1.0,3.0 v -1.0 " /></g><g fill-opacity="0.0" stroke-width="2.0e-2"><path d="M -2.0,2.0 h 1.0 " /></g><g fill-opacity="0.0" stroke-width="2.0e-2"><path d="M 0.0,3.0 v -1.0 " /></g><g fill-opacity="0.0" stroke-width="2.0e-2"><path d="M -1.0,2.0 h 1.0 " /></g><g fill-opacity="0.0" stroke-width="2.0e-2"><path d="M 1.0,3.0 v -1.0 " /></g><g fill-opacity="0.0" stroke-width="2.0e-2"><path d="M 0.0,2.0 h 1.0 " /></g><g fill-opacity="0.0" stroke-width="2.0e-2"><path d="M 2.0,2.0 h 1.0 " /></g><g fill-opacity="0.0" stroke-width="2.0e-2"><path d="M 2.0,3.0 v -1.0 " /></g><g fill-opacity="0.0" stroke-width="2.0e-2"><path d="M 1.0,2.0 h 1.0 " /></g><g fill-opacity="0.0" stroke-width="2.0e-2"><path d="M 2.0,1.0 h 1.0 " /></g><g fill-opacity="0.0" stroke-width="2.0e-2"><path d="M 2.0,2.0 v -1.0 " /></g><g fill-opacity="0.0" stroke-width="2.0e-2"><path d="M 2.0,0.0 h 1.0 " /></g><g fill-opacity="0.0" stroke-width="2.0e-2"><path d="M 2.0,1.0 v -1.0 " /></g><g fill-opacity="0.0" stroke-width="2.0e-2"><path d="M 2.0,-1.0 h 1.0 " /></g><g fill-opacity="0.0" stroke-width="2.0e-2"><path d="M 2.0,0.0 v -1.0 " /></g><g fill-opacity="0.0" stroke-width="2.0e-2"><path d="M 2.0,-2.0 h 1.0 " /></g><g fill-opacity="0.0" stroke-width="2.0e-2"><path d="M 2.0,-2.0 v -1.0 " /></g><g fill-opacity="0.0" stroke-width="2.0e-2"><path d="M 2.0,-1.0 v -1.0 " /></g><g fill-opacity="0.0" stroke-width="2.0e-2"><path d="M 1.0,-2.0 h 1.0 " /></g><g fill-opacity="0.0" stroke-width="2.0e-2"><path d="M 1.0,-2.0 v -1.0 " /></g><g fill-opacity="0.0" stroke-width="2.0e-2"><path d="M 0.0,-2.0 h 1.0 " /></g><g fill-opacity="0.0" stroke-width="2.0e-2"><path d="M 0.0,-2.0 v -1.0 " /></g><g fill-opacity="0.0" stroke-width="2.0e-2"><path d="M -1.0,-2.0 h 1.0 " /></g><g fill-opacity="0.0" stroke-width="2.0e-2"><path d="M -1.0,-2.0 v -1.0 " /></g><g fill-opacity="0.0" stroke-width="2.0e-2"><path d="M -2.0,-2.0 h 1.0 " /></g><g fill-opacity="0.0" stroke-width="2.0e-2"><path d="M -2.0,-2.0 v -1.0 " /></g><g fill-opacity="0.0" stroke-width="2.0e-2"><path d="M -3.0,-2.0 h 1.0 " /></g><g fill-opacity="0.0" stroke-width="2.0e-2"><path d="M -2.0,-1.0 v -1.0 " /></g><g fill-opacity="0.0" stroke-width="2.0e-2"><path d="M -3.0,-1.0 h 1.0 " /></g><g fill-opacity="0.0" stroke-width="2.0e-2"><path d="M -2.0,0.0 v -1.0 " /></g><g fill-opacity="0.0" stroke-width="2.0e-2"><path d="M -3.0,0.0 h 1.0 " /></g><g fill-opacity="0.0" stroke-width="2.0e-2"><path d="M -2.0,1.0 v -1.0 " /></g><g fill-opacity="0.0" stroke-width="2.0e-2"><path d="M -2.0,2.0 v -1.0 " /></g><g fill-opacity="0.0" stroke-width="2.0e-2"><path d="M -3.0,1.0 h 1.0 " /></g><g fill-opacity="0.0" stroke-width="2.0e-2"><path d="M -1.0,2.0 v -1.0 " /></g><g fill-opacity="0.0" stroke-width="2.0e-2"><path d="M -2.0,1.0 h 1.0 " /></g><g fill-opacity="0.0" stroke-width="2.0e-2"><path d="M 0.0,2.0 v -1.0 " /></g><g fill-opacity="0.0" stroke-width="2.0e-2"><path d="M -1.0,1.0 h 1.0 " /></g><g fill-opacity="0.0" stroke-width="2.0e-2"><path d="M 1.0,1.0 h 1.0 " /></g><g fill-opacity="0.0" stroke-width="2.0e-2"><path d="M 1.0,2.0 v -1.0 " /></g><g fill-opacity="0.0" stroke-width="2.0e-2"><path d="M 0.0,1.0 h 1.0 " /></g><g fill-opacity="0.0" stroke-width="2.0e-2"><path d="M 1.0,0.0 h 1.0 " /></g><g fill-opacity="0.0" stroke-width="2.0e-2"><path d="M 1.0,1.0 v -1.0 " /></g><g fill-opacity="0.0" stroke-width="2.0e-2"><path d="M 1.0,-1.0 h 1.0 " /></g><g fill-opacity="0.0" stroke-width="2.0e-2"><path d="M 1.0,-1.0 v -1.0 " /></g><g fill-opacity="0.0" stroke-width="2.0e-2"><path d="M 1.0,0.0 v -1.0 " /></g><g fill-opacity="0.0" stroke-width="2.0e-2"><path d="M 0.0,-1.0 h 1.0 " /></g><g fill-opacity="0.0" stroke-width="2.0e-2"><path d="M 0.0,-1.0 v -1.0 " /></g><g fill-opacity="0.0" stroke-width="2.0e-2"><path d="M -1.0,-1.0 h 1.0 " /></g><g fill-opacity="0.0" stroke-width="2.0e-2"><path d="M -1.0,-1.0 v -1.0 " /></g><g fill-opacity="0.0" stroke-width="2.0e-2"><path d="M -2.0,-1.0 h 1.0 " /></g><g fill-opacity="0.0" stroke-width="2.0e-2"><path d="M -1.0,0.0 v -1.0 " /></g><g fill-opacity="0.0" stroke-width="2.0e-2"><path d="M -1.0,1.0 v -1.0 " /></g><g fill-opacity="0.0" stroke-width="2.0e-2"><path d="M -2.0,0.0 h 1.0 " /></g><g fill-opacity="0.0" stroke-width="2.0e-2"><path d="M 0.0,0.0 h 1.0 " /></g><g fill-opacity="0.0" stroke-width="2.0e-2"><path d="M 0.0,0.0 v -1.0 " /></g><g fill-opacity="0.0" stroke-width="2.0e-2"><path d="M 0.0,1.0 v -1.0 " /></g><g fill-opacity="0.0" stroke-width="2.0e-2"><path d="M -1.0,0.0 h 1.0 " /></g></g></g></g></svg>