<?xml version="1.0" encoding="UTF-8"?>
<!DOCTYPE svg PUBLIC "-//W3C//DTD SVG 1.1//EN"
    "http://www.w3.org/Graphics/SVG/1.1/DTD/svg11.dtd"><svg xmlns="http://www.w3.org/2000/svg" height="400.0" stroke-opacity="1" viewBox="0 0 400 400" font-size="1" width="400.0" xmlns:xlink="http://www.w3.org/1999/xlink" stroke="rgb(0,0,0)" version="1.1"><g><defs></defs><g stroke-linejoin="miter" stroke-opacity="1.0" fill-opacity="0.0" stroke="rgb(0,0,0)" stroke-width="0.6000000000000002" fill="rgb(0,0,0)" stroke-linecap="butt" stroke-miterlimit="10.0"><path d="M 221.37074200433747,336.6545082081932 c 0.0,-1.70565330139699 -1.3827051983073027,-3.088358499704293 -3.088358499704292 -3.088358499704293c -1.70565330139699,-1.0444114280054698e-16 -3.088358499704293,1.3827051983073024 -3.088358499704293 3.0883584997042917c -2.0888228560109395e-16,1.70565330139699 1.3827051983073022,3.088358499704293 3.0883584997042917 3.088358499704293c 1.70565330139699,3.133234284016409e-16 3.088358499704293,-1.382705198307302 3.0883584997042934 -3.0883584997042917Z"/></g><defs></defs><g stroke-linejoin="miter" stroke-opacity="1.0" fill-opacity="0.0" stroke="rgb(0,0,0)" stroke-width="0.6000000000000002" fill="rgb(0,0,0)" stroke-linecap="butt" stroke-miterlimit="10.0"><path d="M 239.42414752507455,331.6004792285848 c 0.0,-1.7360339848701958 -1.4073336083904802,-3.1433675932606766 -3.1433675932606757 -3.1433675932606766c -1.7360339848701958,-1.0630142313911551e-16 -3.1433675932606766,1.40733360839048 -3.1433675932606766 3.1433675932606753c -2.1260284627823101e-16,1.7360339848701958 1.4073336083904797,3.1433675932606766 3.143367593260675 3.1433675932606766c 1.7360339848701958,3.189042694173465e-16 3.1433675932606766,-1.4073336083904795 3.1433675932606775 -3.1433675932606753Z"/></g><defs></defs><g stroke-linejoin="miter" stroke-opacity="1.0" fill-opacity="0.0" stroke="rgb(0,0,0)" stroke-width="0.6000000000000002" fill="rgb(0,0,0)" stroke-linecap="butt" stroke-miterlimit="10.0"><path d="M 225.9123402005555,316.3858883110024 c 0.0,-2.110124343455521 -1.7105937627424341,-3.820718106197955 -3.8207181061979543 -3.820718106197955c -2.110124343455521,-1.2920785115078568e-16 -3.820718106197955,1.710593762742434 -3.820718106197955 3.8207181061979534c -2.5841570230157136e-16,2.110124343455521 1.7105937627424337,3.820718106197955 3.8207181061979534 3.820718106197955c 2.110124343455521,3.8762355345235704e-16 3.820718106197955,-1.7105937627424335 3.820718106197956 -3.8207181061979534Z"/></g><defs></defs><g stroke-linejoin="miter" stroke-opacity="1.0" fill-opacity="0.0" stroke="rgb(0,0,0)" stroke-width="0.6000000000000002" fill="rgb(0,0,0)" stroke-linecap="butt" stroke-miterlimit="10.0"><path d="M 233.74151946653245,327.9428742509383 c 0.0,-4.5460141711420965 -3.6852726288915516,-8.231286800033649 -8.231286800033647 -8.231286800033649c -4.5460141711420965,-2.7836308517838377e-16 -8.231286800033649,3.6852726288915516 -8.231286800033649 8.231286800033645c -5.567261703567675e-16,4.5460141711420965 3.6852726288915507,8.231286800033649 8.231286800033645 8.231286800033649c 4.5460141711420965,8.350892555351514e-16 8.231286800033649,-3.68527262889155 8.231286800033649 -8.231286800033645Z"/></g><defs></defs><g stroke-linejoin="miter" stroke-opacity="1.0" fill-opacity="0.0" stroke="rgb(0,0,0)" stroke-width="0.6000000000000002" fill="rgb(0,0,0)" stroke-linecap="butt" stroke-miterlimit="10.0"><path d="M 205.39023957844933,368.2788118080109 c 0.0,-2.307411559427813 -1.8705266511324954,-4.177938210560309 -4.177938210560308 -4.177938210560309c -2.307411559427813,-1.412882090284437e-16 -4.177938210560309,1.870526651132495 -4.177938210560309 4.177938210560307c -2.825764180568874e-16,2.307411559427813 1.870526651132495,4.177938210560309 4.177938210560307 4.177938210560309c 2.307411559427813,4.238646270853311e-16 4.177938210560309,-1.8705266511324945 4.177938210560309 -4.177938210560307Z"/></g><defs></defs><g stroke-linejoin="miter" stroke-opacity="1.0" fill-opacity="0.0" stroke="rgb(0,0,0)" stroke-width="0.6000000000000002" fill="rgb(0,0,0)" stroke-linecap="butt" stroke-miterlimit="10.0"><path d="M 224.8064841233963,395.919875312543 c 0.0,-1.5762777575305742 -1.2778255976924462,-2.8541033552230206 -2.8541033552230197 -2.8541033552230206c -1.5762777575305742,-9.651917551634926e-17 -2.8541033552230206,1.277825597692446 -2.8541033552230206 2.8541033552230197c -1.9303835103269853e-16,1.5762777575305742 1.277825597692446,2.8541033552230206 2.8541033552230193 2.8541033552230206c 1.5762777575305742,2.895575265490478e-16 2.8541033552230206,-1.2778255976924457 2.854103355223021 -2.8541033552230197Z"/></g><defs></defs><g stroke-linejoin="miter" stroke-opacity="1.0" fill-opacity="0.0" stroke="rgb(0,0,0)" stroke-width="0.6000000000000002" fill="rgb(0,0,0)" stroke-linecap="butt" stroke-miterlimit="10.0"><path d="M 219.3129032427649,394.04252327133463 c 0.0,-3.01762631378267 -2.446269465898367,-5.463895779681038 -5.463895779681037 -5.463895779681038c -3.01762631378267,-1.8477632030983867e-16 -5.463895779681038,2.446269465898367 -5.463895779681038 5.463895779681037c -3.6955264061967734e-16,3.01762631378267 2.446269465898367,5.463895779681038 5.463895779681036 5.463895779681038c 3.01762631378267,5.543289609295161e-16 5.463895779681038,-2.4462694658983666 5.463895779681038 -5.463895779681037Z"/></g><defs></defs><g stroke-linejoin="miter" stroke-opacity="1.0" fill-opacity="0.0" stroke="rgb(0,0,0)" stroke-width="0.6000000000000002" fill="rgb(0,0,0)" stroke-linecap="butt" stroke-miterlimit="10.0"><path d="M 182.44401197733305,381.82131684092667 c 0.0,-1.2920802159773397 -1.0474379698374983,-2.339518185814838 -2.3395181858148377 -2.339518185814838c -1.2920802159773397,-7.91170950369135e-17 -2.339518185814838,1.047437969837498 -2.339518185814838 2.3395181858148373c -1.58234190073827e-16,1.2920802159773397 1.047437969837498,2.339518185814838 2.339518185814837 2.339518185814838c 1.2920802159773397,2.3735128511074046e-16 2.339518185814838,-1.0474379698374978 2.3395181858148395 -2.3395181858148373Z"/></g><defs></defs><g stroke-linejoin="miter" stroke-opacity="1.0" fill-opacity="0.0" stroke="rgb(0,0,0)" stroke-width="0.6000000000000002" fill="rgb(0,0,0)" stroke-linecap="butt" stroke-miterlimit="10.0"><path d="M 185.8271262911584,396.58302878444283 c 0.0,-1.4882148444241414 -1.206436501426154,-2.694651345850296 -2.694651345850295 -2.694651345850296c -1.4882148444241414,-9.112687728338006e-17 -2.694651345850296,1.206436501426154 -2.694651345850296 2.694651345850295c -1.8225375456676012e-16,1.4882148444241414 1.2064365014261538,2.694651345850296 2.6946513458502945 2.694651345850296c 1.4882148444241414,2.7338063185014013e-16 2.694651345850296,-1.2064365014261536 2.6946513458502963 -2.694651345850295Z"/></g><defs></defs><g stroke-linejoin="miter" stroke-opacity="1.0" fill-opacity="0.0" stroke="rgb(0,0,0)" stroke-width="0.6000000000000002" fill="rgb(0,0,0)" stroke-linecap="butt" stroke-miterlimit="10.0"><path d="M 149.80992314458996,390.3364592368994 c 0.0,-1.3829613720456786 -1.1211117034274067,-2.5040730754730856 -2.5040730754730856 -2.5040730754730856c -1.3829613720456786,-8.468196088100862e-17 -2.5040730754730856,1.1211117034274067 -2.5040730754730856 2.504073075473085c -1.6936392176201723e-16,1.3829613720456786 1.1211117034274065,2.5040730754730856 2.5040730754730847 2.5040730754730856c 1.3829613720456786,2.540458826430258e-16 2.5040730754730856,-1.1211117034274063 2.5040730754730864 -2.504073075473085Z"/></g><defs></defs><g stroke-linejoin="miter" stroke-opacity="1.0" fill-opacity="0.0" stroke="rgb(0,0,0)" stroke-width="0.6000000000000002" fill="rgb(0,0,0)" stroke-linecap="butt" stroke-miterlimit="10.0"><path d="M 156.65733691920477,390.9143547589724 c 0.0,-1.898639848707206 -1.5391517059009967,-3.437791554608203 -3.4377915546082023 -3.437791554608203c -1.898639848707206,-1.1625816067264473e-16 -3.437791554608203,1.5391517059009965 -3.437791554608203 3.437791554608202c -2.3251632134528947e-16,1.898639848707206 1.5391517059009965,3.437791554608203 3.437791554608202 3.437791554608203c 1.898639848707206,3.4877448201793423e-16 3.437791554608203,-1.5391517059009963 3.4377915546082036 -3.437791554608202Z"/></g><defs></defs><g stroke-linejoin="miter" stroke-opacity="1.0" fill-opacity="0.0" stroke="rgb(0,0,0)" stroke-width="0.6000000000000002" fill="rgb(0,0,0)" stroke-linecap="butt" stroke-miterlimit="10.0"><path d="M 166.65403848745095,391.1917690754916 c 0.0,-2.7617724666939334 -2.2388589422668836,-5.0006314089608175 -5.000631408960817 -5.0006314089608175c -2.7617724666939334,-1.6910979056550077e-16 -5.0006314089608175,2.238858942266883 -5.0006314089608175 5.000631408960816c -3.3821958113100154e-16,2.7617724666939334 2.2388589422668828,5.0006314089608175 5.000631408960815 5.0006314089608175c 2.7617724666939334,5.073293716965024e-16 5.0006314089608175,-2.2388589422668828 5.00063140896082 -5.000631408960816Z"/></g><defs></defs><g stroke-linejoin="miter" stroke-opacity="1.0" fill-opacity="0.0" stroke="rgb(0,0,0)" stroke-width="0.6000000000000002" fill="rgb(0,0,0)" stroke-linecap="butt" stroke-miterlimit="10.0"><path d="M 182.42533722771978,390.4061059818182 c 0.0,-4.3617376457439905 -3.5358869891573343,-7.897624634901326 -7.897624634901324 -7.897624634901326c -4.3617376457439905,-2.670794023290445e-16 -7.897624634901326,3.535886989157334 -7.897624634901326 7.897624634901322c -5.34158804658089e-16,4.3617376457439905 3.5358869891573335,7.897624634901326 7.897624634901322 7.897624634901326c 4.3617376457439905,8.012382069871333e-16 7.897624634901326,-3.5358869891573335 7.8976246349013275 -7.897624634901322Z"/></g><defs></defs><g stroke-linejoin="miter" stroke-opacity="1.0" fill-opacity="0.0" stroke="rgb(0,0,0)" stroke-width="0.6000000000000002" fill="rgb(0,0,0)" stroke-linecap="butt" stroke-miterlimit="10.0"><path d="M 210.18642804223884,385.8383135001384 c 0.0,-7.798293614768986 -6.321766041338107,-14.120059656107095 -14.120059656107093 -14.120059656107095c -7.798293614768986,-4.775077657069041e-16 -14.120059656107095,6.3217660413381065 -14.120059656107095 14.120059656107092c -9.550155314138083e-16,7.798293614768986 6.321766041338106,14.120059656107095 14.12005965610709 14.120059656107095c 7.798293614768986,1.4325232971207124e-15 14.120059656107095,-6.321766041338105 14.1200596561071 -14.120059656107092Z"/></g><defs></defs><g stroke-linejoin="miter" stroke-opacity="1.0" fill-opacity="0.0" stroke="rgb(0,0,0)" stroke-width="0.6000000000000002" fill="rgb(0,0,0)" stroke-linecap="butt" stroke-miterlimit="10.0"><path d="M 272.61262496929476,351.2895294460867 c 0.0,-2.462896570253277 -1.9965721567174535,-4.459468726970731 -4.45946872697073 -4.459468726970731c -2.462896570253277,-1.5080892006958347e-16 -4.459468726970731,1.996572156717453 -4.459468726970731 4.459468726970729c -3.0161784013916695e-16,2.462896570253277 1.9965721567174526,4.459468726970731 4.459468726970729 4.459468726970731c 2.462896570253277,4.524267602087505e-16 4.459468726970731,-1.9965721567174526 4.459468726970731 -4.459468726970729Z"/></g><defs></defs><g stroke-linejoin="miter" stroke-opacity="1.0" fill-opacity="0.0" stroke="rgb(0,0,0)" stroke-width="0.6000000000000002" fill="rgb(0,0,0)" stroke-linecap="butt" stroke-miterlimit="10.0"><path d="M 278.9304970393482,382.2448509403389 c 0.0,-1.269961216751894 -1.0295069781258008,-2.2994681948776954 -2.299468194877695 -2.2994681948776954c -1.269961216751894,-7.776269695682425e-17 -2.2994681948776954,1.0295069781258006 -2.2994681948776954 2.2994681948776945c -1.555253939136485e-16,1.269961216751894 1.0295069781258006,2.2994681948776954 2.299468194877694 2.2994681948776954c 1.269961216751894,2.3328809087047275e-16 2.2994681948776954,-1.0295069781258006 2.2994681948776967 -2.2994681948776945Z"/></g><defs></defs><g stroke-linejoin="miter" stroke-opacity="1.0" fill-opacity="0.0" stroke="rgb(0,0,0)" stroke-width="0.6000000000000002" fill="rgb(0,0,0)" stroke-linecap="butt" stroke-miterlimit="10.0"><path d="M 264.6893133074503,387.1165989996674 c 0.0,-1.6380931579833147 -1.3279368808421033,-2.9660300388254184 -2.9660300388254175 -2.9660300388254184c -1.6380931579833147,-1.003042771314723e-16 -2.9660300388254184,1.327936880842103 -2.9660300388254184 2.9660300388254175c -2.006085542629446e-16,1.6380931579833147 1.3279368808421028,2.9660300388254184 2.966030038825417 2.9660300388254184c 1.6380931579833147,3.009128313944169e-16 2.9660300388254184,-1.3279368808421028 2.966030038825419 -2.9660300388254175Z"/></g><defs></defs><g stroke-linejoin="miter" stroke-opacity="1.0" fill-opacity="0.0" stroke="rgb(0,0,0)" stroke-width="0.6000000000000002" fill="rgb(0,0,0)" stroke-linecap="butt" stroke-miterlimit="10.0"><path d="M 274.34824226386695,381.72653537201677 c 0.0,-3.1818127927543456 -2.57936890514547,-5.761181697899816 -5.761181697899814 -5.761181697899816c -3.1818127927543456,-1.9482984260663549e-16 -5.761181697899816,2.5793689051454693 -5.761181697899816 5.761181697899814c -3.8965968521327097e-16,3.1818127927543456 2.579368905145469,5.761181697899816 5.761181697899813 5.761181697899816c 3.1818127927543456,5.844895278199065e-16 5.761181697899816,-2.5793689051454685 5.761181697899817 -5.761181697899814Z"/></g><defs></defs><g stroke-linejoin="miter" stroke-opacity="1.0" fill-opacity="0.0" stroke="rgb(0,0,0)" stroke-width="0.6000000000000002" fill="rgb(0,0,0)" stroke-linecap="butt" stroke-miterlimit="10.0"><path d="M 298.071500579158,353.51711975903777 c 0.0,-1.445367570069804 -1.1717019226377696,-2.617069492707574 -2.6170694927075737 -2.617069492707574c -1.445367570069804,-8.850323841386867e-17 -2.617069492707574,1.1717019226377694 -2.617069492707574 2.6170694927075733c -1.7700647682773733e-16,1.445367570069804 1.1717019226377694,2.617069492707574 2.617069492707573 2.617069492707574c 1.445367570069804,2.6550971524160596e-16 2.617069492707574,-1.1717019226377692 2.6170694927075755 -2.6170694927075733Z"/></g><defs></defs><g stroke-linejoin="miter" stroke-opacity="1.0" fill-opacity="0.0" stroke="rgb(0,0,0)" stroke-width="0.6000000000000002" fill="rgb(0,0,0)" stroke-linecap="butt" stroke-miterlimit="10.0"><path d="M 302.87227935134587,369.7975246244787 c 0.0,-1.666317312002365 -1.3508170783875266,-3.017134390389892 -3.0171343903898915 -3.017134390389892c -1.666317312002365,-1.020325081253759e-16 -3.017134390389892,1.3508170783875266 -3.017134390389892 3.017134390389891c -2.040650162507518e-16,1.666317312002365 1.3508170783875264,3.017134390389892 3.017134390389891 3.017134390389892c 1.666317312002365,3.0609752437612766e-16 3.017134390389892,-1.3508170783875262 3.017134390389892 -3.017134390389891Z"/></g><defs></defs><g stroke-linejoin="miter" stroke-opacity="1.0" fill-opacity="0.0" stroke="rgb(0,0,0)" stroke-width="0.6000000000000002" fill="rgb(0,0,0)" stroke-linecap="butt" stroke-miterlimit="10.0"><path d="M 340.2795901353037,341.58698552097275 c 0.0,-1.2704779694434143 -1.0299258889514762,-2.3004038583948905 -2.30040385839489 -2.3004038583948905c -1.2704779694434143,-7.779433893330529e-17 -2.3004038583948905,1.0299258889514762 -2.3004038583948905 2.30040385839489c -1.5558867786661058e-16,1.2704779694434143 1.029925888951476,2.3004038583948905 2.3004038583948896 2.3004038583948905c 1.2704779694434143,2.333830167999159e-16 2.3004038583948905,-1.0299258889514757 2.3004038583948914 -2.30040385839489Z"/></g><defs></defs><g stroke-linejoin="miter" stroke-opacity="1.0" fill-opacity="0.0" stroke="rgb(0,0,0)" stroke-width="0.6000000000000002" fill="rgb(0,0,0)" stroke-linecap="butt" stroke-miterlimit="10.0"><path d="M 336.6861248315114,344.6959378488189 c 0.0,-1.6573148115368002 -1.3435191098136638,-3.000833921350464 -3.000833921350463 -3.000833921350464c -1.6573148115368002,-1.0148126395640206e-16 -3.000833921350464,1.3435191098136636 -3.000833921350464 3.000833921350463c -2.0296252791280412e-16,1.6573148115368002 1.3435191098136634,3.000833921350464 3.000833921350463 3.000833921350464c 1.6573148115368002,3.0444379186920614e-16 3.000833921350464,-1.3435191098136632 3.000833921350464 -3.000833921350463Z"/></g><defs></defs><g stroke-linejoin="miter" stroke-opacity="1.0" fill-opacity="0.0" stroke="rgb(0,0,0)" stroke-width="0.6000000000000002" fill="rgb(0,0,0)" stroke-linecap="butt" stroke-miterlimit="10.0"><path d="M 331.8257789732994,348.5486200964051 c 0.0,-2.24914900246656 -1.823295516697954,-4.072444519164514 -4.072444519164513 -4.072444519164514c -2.24914900246656,-1.3772065633380674e-16 -4.072444519164514,1.8232955166979536 -4.072444519164514 4.072444519164512c -2.7544131266761347e-16,2.24914900246656 1.8232955166979536,4.072444519164514 4.072444519164512 4.072444519164514c 2.24914900246656,4.131619690014202e-16 4.072444519164514,-1.8232955166979532 4.072444519164514 -4.072444519164512Z"/></g><defs></defs><g stroke-linejoin="miter" stroke-opacity="1.0" fill-opacity="0.0" stroke="rgb(0,0,0)" stroke-width="0.6000000000000002" fill="rgb(0,0,0)" stroke-linecap="butt" stroke-miterlimit="10.0"><path d="M 324.92730880768795,353.3571350633713 c 0.0,-3.2176464169835 -2.608417797118569,-5.826064214102069 -5.826064214102068 -5.826064214102069c -3.2176464169835,-1.9702401926733963e-16 -5.826064214102069,2.6084177971185687 -5.826064214102069 5.826064214102068c -3.9404803853467925e-16,3.2176464169835 2.6084177971185682,5.826064214102069 5.826064214102067 5.826064214102069c 3.2176464169835,5.910720578020189e-16 5.826064214102069,-2.608417797118568 5.826064214102069 -5.826064214102068Z"/></g><defs></defs><g stroke-linejoin="miter" stroke-opacity="1.0" fill-opacity="0.0" stroke="rgb(0,0,0)" stroke-width="0.6000000000000002" fill="rgb(0,0,0)" stroke-linecap="butt" stroke-miterlimit="10.0"><path d="M 314.49504965218915,359.23974782696547 c 0.0,-4.952791224744443 -4.01503058504092,-8.967821809785365 -8.967821809785363 -8.967821809785365c -4.952791224744443,-3.032709960114191e-16 -8.967821809785365,4.015030585040919 -8.967821809785365 8.967821809785361c -6.065419920228382e-16,4.952791224744443 4.015030585040919,8.967821809785365 8.96782180978536 8.967821809785365c 4.952791224744443,9.098129880342574e-16 8.967821809785365,-4.015030585040918 8.967821809785367 -8.967821809785361Z"/></g><defs></defs><g stroke-linejoin="miter" stroke-opacity="1.0" fill-opacity="0.0" stroke="rgb(0,0,0)" stroke-width="0.6000000000000002" fill="rgb(0,0,0)" stroke-linecap="butt" stroke-miterlimit="10.0"><path d="M 297.3628059728309,365.4385638454509 c 0.0,-8.476504808737923 -6.871564844343963,-15.348069653081888 -15.348069653081886 -15.348069653081888c -8.476504808737923,-5.190362240989023e-16 -15.348069653081888,6.871564844343963 -15.348069653081888 15.348069653081883c -1.0380724481978045e-15,8.476504808737923 6.871564844343962,15.348069653081888 15.348069653081883 15.348069653081888c 8.476504808737923,1.5571086722967068e-15 15.348069653081888,-6.871564844343961 15.34806965308189 -15.348069653081883Z"/></g><defs></defs><g stroke-linejoin="miter" stroke-opacity="1.0" fill-opacity="0.0" stroke="rgb(0,0,0)" stroke-width="0.6000000000000002" fill="rgb(0,0,0)" stroke-linecap="butt" stroke-miterlimit="10.0"><path d="M 266.66666666666714,365.4385638454509 c 0.0,-16.953009617475846 -13.743129688687926,-30.696139306163776 -30.696139306163772 -30.696139306163776c -16.953009617475846,-1.0380724481978045e-15 -30.696139306163776,13.743129688687926 -30.696139306163776 30.696139306163765c -2.076144896395609e-15,16.953009617475846 13.743129688687924,30.696139306163776 30.696139306163765 30.696139306163776c 16.953009617475846,3.1142173445934136e-15 30.696139306163776,-13.743129688687922 30.69613930616378 -30.696139306163765Z"/></g><defs></defs><g stroke-linejoin="miter" stroke-opacity="1.0" fill-opacity="0.0" stroke="rgb(0,0,0)" stroke-width="0.6000000000000002" fill="rgb(0,0,0)" stroke-linecap="butt" stroke-miterlimit="10.0"><path d="M 210.80380272045338,272.86051973649796 c 0.0,-1.5426103919683112 -1.250532805342368,-2.79314319731068 -2.793143197310679 -2.79314319731068c -1.5426103919683112,-9.445764394277182e-17 -2.79314319731068,1.2505328053423679 -2.79314319731068 2.793143197310679c -1.8891528788554365e-16,1.5426103919683112 1.2505328053423677,2.79314319731068 2.7931431973106786 2.79314319731068c 1.5426103919683112,2.833729318283155e-16 2.79314319731068,-1.2505328053423677 2.7931431973106804 -2.793143197310679Z"/></g><defs></defs><g stroke-linejoin="miter" stroke-opacity="1.0" fill-opacity="0.0" stroke="rgb(0,0,0)" stroke-width="0.6000000000000002" fill="rgb(0,0,0)" stroke-linecap="butt" stroke-miterlimit="10.0"><path d="M 210.60460374186997,265.2644543978221 c 0.0,-2.9027083497580968 -2.3531100494416193,-5.2558183991997165 -5.2558183991997165 -5.2558183991997165c -2.9027083497580968,-1.7773962446947746e-16 -5.2558183991997165,2.353110049441619 -5.2558183991997165 5.255818399199716c -3.554792489389549e-16,2.9027083497580968 2.353110049441619,5.2558183991997165 5.255818399199715 5.2558183991997165c 2.9027083497580968,5.332188734084324e-16 5.2558183991997165,-2.3531100494416184 5.255818399199718 -5.255818399199716Z"/></g><defs></defs><g stroke-linejoin="miter" stroke-opacity="1.0" fill-opacity="0.0" stroke="rgb(0,0,0)" stroke-width="0.6000000000000002" fill="rgb(0,0,0)" stroke-linecap="butt" stroke-miterlimit="10.0"><path d="M 174.56164803233594,244.2450206525881 c 0.0,-1.658745560042024 -1.3446789606426823,-3.0034245206847068 -3.003424520684706 -3.0034245206847068c -1.658745560042024,-1.0156887203526741e-16 -3.0034245206847068,1.3446789606426823 -3.0034245206847068 3.0034245206847054c -2.0313774407053481e-16,1.658745560042024 1.344678960642682,3.0034245206847068 3.0034245206847054 3.0034245206847068c 1.658745560042024,3.0470661610580223e-16 3.0034245206847068,-1.3446789606426819 3.003424520684707 -3.0034245206847054Z"/></g><defs></defs><g stroke-linejoin="miter" stroke-opacity="1.0" fill-opacity="0.0" stroke="rgb(0,0,0)" stroke-width="0.6000000000000002" fill="rgb(0,0,0)" stroke-linecap="butt" stroke-miterlimit="10.0"><path d="M 185.57507871831967,245.1154377030121 c 0.0,-3.053566865688733 -2.475405039880398,-5.528971905569132 -5.52897190556913 -5.528971905569132c -3.053566865688733,-1.8697704440240614e-16 -5.528971905569132,2.4754050398803975 -5.528971905569132 5.52897190556913c -3.7395408880481227e-16,3.053566865688733 2.4754050398803975,5.528971905569132 5.528971905569129 5.528971905569132c 3.053566865688733,5.609311332072185e-16 5.528971905569132,-2.475405039880397 5.528971905569133 -5.52897190556913Z"/></g><defs></defs><g stroke-linejoin="miter" stroke-opacity="1.0" fill-opacity="0.0" stroke="rgb(0,0,0)" stroke-width="0.6000000000000002" fill="rgb(0,0,0)" stroke-linecap="butt" stroke-miterlimit="10.0"><path d="M 220.52224966091953,226.36218482001007 c 0.0,-1.7376039410527502 -1.4086063093391161,-3.1462102503918663 -3.146210250391866 -3.1462102503918663c -1.7376039410527502,-1.0639755522980382e-16 -3.1462102503918663,1.408606309339116 -3.1462102503918663 3.1462102503918654c -2.1279511045960764e-16,1.7376039410527502 1.4086063093391157,3.1462102503918663 3.146210250391865 3.1462102503918663c 1.7376039410527502,3.1919266568941146e-16 3.1462102503918663,-1.4086063093391157 3.1462102503918676 -3.1462102503918654Z"/></g><defs></defs><g stroke-linejoin="miter" stroke-opacity="1.0" fill-opacity="0.0" stroke="rgb(0,0,0)" stroke-width="0.6000000000000002" fill="rgb(0,0,0)" stroke-linecap="butt" stroke-miterlimit="10.0"><path d="M 217.1991072248433,232.97757572498475 c 0.0,-3.152328310507781 -2.5554670097026304,-5.707795320210412 -5.70779532021041 -5.707795320210412c -3.152328310507781,-1.9302443876624688e-16 -5.707795320210412,2.55546700970263 -5.707795320210412 5.70779532021041c -3.8604887753249376e-16,3.152328310507781 2.5554670097026295,5.707795320210412 5.707795320210409 5.707795320210412c 3.152328310507781,5.790733162987406e-16 5.707795320210412,-2.5554670097026295 5.707795320210413 -5.70779532021041Z"/></g><defs></defs><g stroke-linejoin="miter" stroke-opacity="1.0" fill-opacity="0.0" stroke="rgb(0,0,0)" stroke-width="0.6000000000000002" fill="rgb(0,0,0)" stroke-linecap="butt" stroke-miterlimit="10.0"><path d="M 212.4983977558374,247.58686900030966 c 0.0,-7.479077211046154 -6.06299001666122,-13.542067227707376 -13.542067227707372 -13.542067227707376c -7.479077211046154,-4.579613983541794e-16 -13.542067227707376,6.062990016661219 -13.542067227707376 13.54206722770737c -9.159227967083587e-16,7.479077211046154 6.062990016661218,13.542067227707376 13.542067227707369 13.542067227707376c 7.479077211046154,1.373884195062538e-15 13.542067227707376,-6.062990016661217 13.54206722770738 -13.54206722770737Z"/></g><defs></defs><g stroke-linejoin="miter" stroke-opacity="1.0" fill-opacity="0.0" stroke="rgb(0,0,0)" stroke-width="0.6000000000000002" fill="rgb(0,0,0)" stroke-linecap="butt" stroke-miterlimit="10.0"><path d="M 78.68186140893107,286.8964347793577 c 0.0,-1.3904617117467748 -1.1271919300979043,-2.5176536418446793 -2.517653641844679 -2.5176536418446793c -1.3904617117467748,-8.514122423138187e-17 -2.5176536418446793,1.1271919300979043 -2.5176536418446793 2.517653641844679c -1.7028244846276374e-16,1.3904617117467748 1.127191930097904,2.5176536418446793 2.5176536418446784 2.5176536418446793c 1.3904617117467748,2.554236726941456e-16 2.5176536418446793,-1.1271919300979039 2.5176536418446793 -2.517653641844679Z"/></g><defs></defs><g stroke-linejoin="miter" stroke-opacity="1.0" fill-opacity="0.0" stroke="rgb(0,0,0)" stroke-width="0.6000000000000002" fill="rgb(0,0,0)" stroke-linecap="butt" stroke-miterlimit="10.0"><path d="M 76.41178363744737,292.8550399772132 c 0.0,-2.91874640216332 -2.366111459759451,-5.284857861922772 -5.284857861922771 -5.284857861922772c -2.91874640216332,-1.7872167194660815e-16 -5.284857861922772,2.366111459759451 -5.284857861922772 5.28485786192277c -3.574433438932163e-16,2.91874640216332 2.3661114597594506,5.284857861922772 5.284857861922769 5.284857861922772c 2.91874640216332,5.361650158398245e-16 5.284857861922772,-2.36611145975945 5.284857861922775 -5.28485786192277Z"/></g><defs></defs><g stroke-linejoin="miter" stroke-opacity="1.0" fill-opacity="0.0" stroke="rgb(0,0,0)" stroke-width="0.6000000000000002" fill="rgb(0,0,0)" stroke-linecap="butt" stroke-miterlimit="10.0"><path d="M 45.19227840952921,293.59256089965083 c 0.0,-1.2920802159773397 -1.0474379698374983,-2.339518185814838 -2.3395181858148377 -2.339518185814838c -1.2920802159773397,-7.91170950369135e-17 -2.339518185814838,1.047437969837498 -2.339518185814838 2.3395181858148373c -1.58234190073827e-16,1.2920802159773397 1.047437969837498,2.339518185814838 2.339518185814837 2.339518185814838c 1.2920802159773397,2.3735128511074046e-16 2.339518185814838,-1.0474379698374978 2.3395181858148395 -2.3395181858148373Z"/></g><defs></defs><g stroke-linejoin="miter" stroke-opacity="1.0" fill-opacity="0.0" stroke="rgb(0,0,0)" stroke-width="0.6000000000000002" fill="rgb(0,0,0)" stroke-linecap="butt" stroke-miterlimit="10.0"><path d="M 37.25484732048098,306.76283420861034 c 0.0,-1.6106014735911316 -1.3056504672502194,-2.9162519408413514 -2.9162519408413505 -2.9162519408413514c -1.6106014735911316,-9.862089696676947e-17 -2.9162519408413514,1.3056504672502192 -2.9162519408413514 2.9162519408413505c -1.9724179393353894e-16,1.6106014735911316 1.3056504672502192,2.9162519408413514 2.91625194084135 2.9162519408413514c 1.6106014735911316,2.958626909003084e-16 2.9162519408413514,-1.305650467250219 2.916251940841352 -2.9162519408413505Z"/></g><defs></defs><g stroke-linejoin="miter" stroke-opacity="1.0" fill-opacity="0.0" stroke="rgb(0,0,0)" stroke-width="0.6000000000000002" fill="rgb(0,0,0)" stroke-linecap="butt" stroke-miterlimit="10.0"><path d="M 23.428883336858252,283.23187134905453 c 0.0,-1.3896881205072447 -1.1265648104907795,-2.5162529309980246 -2.516252930998024 -2.5162529309980246c -1.3896881205072447,-8.509385542961493e-17 -2.5162529309980246,1.1265648104907795 -2.5162529309980246 2.5162529309980237c -1.7018771085922987e-16,1.3896881205072447 1.1265648104907793,2.5162529309980246 2.5162529309980233 2.5162529309980246c 1.3896881205072447,2.552815662888448e-16 2.5162529309980246,-1.126564810490779 2.516252930998025 -2.5162529309980237Z"/></g><defs></defs><g stroke-linejoin="miter" stroke-opacity="1.0" fill-opacity="0.0" stroke="rgb(0,0,0)" stroke-width="0.6000000000000002" fill="rgb(0,0,0)" stroke-linecap="butt" stroke-miterlimit="10.0"><path d="M 29.124906938499137,288.30827071402496 c 0.0,-2.236204966122235 -1.8128023019715398,-4.049007268093775 -4.049007268093774 -4.049007268093775c -2.236204966122235,-1.3692806269995052e-16 -4.049007268093775,1.8128023019715394 -4.049007268093775 4.049007268093773c -2.7385612539990104e-16,2.236204966122235 1.8128023019715394,4.049007268093775 4.049007268093773 4.049007268093775c 2.236204966122235,4.1078418809985153e-16 4.049007268093775,-1.812802301971539 4.049007268093775 -4.049007268093773Z"/></g><defs></defs><g stroke-linejoin="miter" stroke-opacity="1.0" fill-opacity="0.0" stroke="rgb(0,0,0)" stroke-width="0.6000000000000002" fill="rgb(0,0,0)" stroke-linecap="butt" stroke-miterlimit="10.0"><path d="M 40.910836325742395,296.3649651791457 c 0.0,-4.1560500760893575 -3.369144268608137,-7.525194344697495 -7.525194344697494 -7.525194344697495c -4.1560500760893575,-2.544846711389473e-16 -7.525194344697495,3.3691442686081365 -7.525194344697495 7.525194344697493c -5.089693422778946e-16,4.1560500760893575 3.3691442686081357,7.525194344697495 7.525194344697493 7.525194344697495c 4.1560500760893575,7.634540134168418e-16 7.525194344697495,-3.369144268608135 7.525194344697496 -7.525194344697493Z"/></g><defs></defs><g stroke-linejoin="miter" stroke-opacity="1.0" fill-opacity="0.0" stroke="rgb(0,0,0)" stroke-width="0.6000000000000002" fill="rgb(0,0,0)" stroke-linecap="butt" stroke-miterlimit="10.0"><path d="M 73.61616893602105,323.9370295559528 c 0.0,-1.5679242035864718 -1.2710537042171481,-2.83897790780362 -2.8389779078036192 -2.83897790780362c -1.5679242035864718,-9.600766786139178e-17 -2.83897790780362,1.271053704217148 -2.83897790780362 2.8389779078036192c -1.9201533572278356e-16,1.5679242035864718 1.271053704217148,2.83897790780362 2.8389779078036192 2.83897790780362c 1.5679242035864718,2.8802300358417537e-16 2.83897790780362,-1.2710537042171477 2.83897790780362 -2.8389779078036192Z"/></g><defs></defs><g stroke-linejoin="miter" stroke-opacity="1.0" fill-opacity="0.0" stroke="rgb(0,0,0)" stroke-width="0.6000000000000002" fill="rgb(0,0,0)" stroke-linecap="butt" stroke-miterlimit="10.0"><path d="M 57.14104366719686,331.43048451238803 c 0.0,-1.8664162303452208 -1.5130293019043024,-3.3794455322495236 -3.3794455322495227 -3.3794455322495236c -1.8664162303452208,-1.1428503311844717e-16 -3.3794455322495236,1.5130293019043022 -3.3794455322495236 3.3794455322495223c -2.2857006623689433e-16,1.8664162303452208 1.513029301904302,3.3794455322495236 3.379445532249522 3.3794455322495236c 1.8664162303452208,3.428550993553415e-16 3.3794455322495236,-1.5130293019043017 3.3794455322495245 -3.3794455322495223Z"/></g><defs></defs><g stroke-linejoin="miter" stroke-opacity="1.0" fill-opacity="0.0" stroke="rgb(0,0,0)" stroke-width="0.6000000000000002" fill="rgb(0,0,0)" stroke-linecap="butt" stroke-miterlimit="10.0"><path d="M 88.2030827590203,360.50720215062154 c 0.0,-1.540042434255338 -1.2484510643016458,-2.7884934985569845 -2.7884934985569836 -2.7884934985569845c -1.540042434255338,-9.43004018830949e-17 -2.7884934985569845,1.2484510643016458 -2.7884934985569845 2.7884934985569836c -1.886008037661898e-16,1.540042434255338 1.2484510643016455,2.7884934985569845 2.788493498556983 2.7884934985569845c 1.540042434255338,2.829012056492847e-16 2.7884934985569845,-1.2484510643016453 2.788493498556985 -2.7884934985569836Z"/></g><defs></defs><g stroke-linejoin="miter" stroke-opacity="1.0" fill-opacity="0.0" stroke="rgb(0,0,0)" stroke-width="0.6000000000000002" fill="rgb(0,0,0)" stroke-linecap="butt" stroke-miterlimit="10.0"><path d="M 84.67231446927909,355.6921492164545 c 0.0,-2.153843684441826 -1.746035291216493,-3.8998789756583188 -3.8998789756583183 -3.8998789756583188c -2.153843684441826,-1.318848887007712e-16 -3.8998789756583188,1.7460352912164927 -3.8998789756583188 3.8998789756583174c -2.637697774015424e-16,2.153843684441826 1.7460352912164925,3.8998789756583188 3.8998789756583174 3.8998789756583188c 2.153843684441826,3.9565466610231353e-16 3.8998789756583188,-1.746035291216492 3.89987897565832 -3.8998789756583174Z"/></g><defs></defs><g stroke-linejoin="miter" stroke-opacity="1.0" fill-opacity="0.0" stroke="rgb(0,0,0)" stroke-width="0.6000000000000002" fill="rgb(0,0,0)" stroke-linecap="butt" stroke-miterlimit="10.0"><path d="M 80.37659588350033,348.2188399851027 c 0.0,-3.215161410576318 -2.6064033013976493,-5.821564711973968 -5.821564711973966 -5.821564711973968c -3.215161410576318,-1.9687185651021883e-16 -5.821564711973968,2.606403301397649 -5.821564711973968 5.821564711973966c -3.9374371302043766e-16,3.215161410576318 2.6064033013976484,5.821564711973968 5.8215647119739655 5.821564711973968c 3.215161410576318,5.906155695306566e-16 5.821564711973968,-2.606403301397648 5.821564711973969 -5.821564711973966Z"/></g><defs></defs><g stroke-linejoin="miter" stroke-opacity="1.0" fill-opacity="0.0" stroke="rgb(0,0,0)" stroke-width="0.6000000000000002" fill="rgb(0,0,0)" stroke-linecap="butt" stroke-miterlimit="10.0"><path d="M 75.62154483939855,335.399068473282 c 0.0,-5.275565365738328 -4.276690725625107,-9.552256091363436 -9.552256091363434 -9.552256091363436c -5.275565365738328,-3.2303521194220394e-16 -9.552256091363436,4.276690725625107 -9.552256091363436 9.552256091363434c -6.460704238844079e-16,5.275565365738328 4.276690725625106,9.552256091363436 9.552256091363432 9.552256091363436c 5.275565365738328,9.691056358266117e-16 9.552256091363436,-4.276690725625105 9.55225609136344 -9.552256091363434Z"/></g><defs></defs><g stroke-linejoin="miter" stroke-opacity="1.0" fill-opacity="0.0" stroke="rgb(0,0,0)" stroke-width="0.6000000000000002" fill="rgb(0,0,0)" stroke-linecap="butt" stroke-miterlimit="10.0"><path d="M 73.27149859987428,309.9644972833812 c 0.0,-10.013362688836217 -8.117434317425618,-18.13079700626184 -18.130797006261837 -18.13079700626184c -10.013362688836217,-6.131416282792404e-16 -18.13079700626184,8.117434317425618 -18.13079700626184 18.130797006261833c -1.2262832565584808e-15,10.013362688836217 8.117434317425616,18.13079700626184 18.13079700626183 18.13079700626184c 10.013362688836217,1.8394248848377216e-15 18.13079700626184,-8.117434317425614 18.130797006261844 -18.130797006261833Z"/></g><defs></defs><g stroke-linejoin="miter" stroke-opacity="1.0" fill-opacity="0.0" stroke="rgb(0,0,0)" stroke-width="0.6000000000000002" fill="rgb(0,0,0)" stroke-linecap="butt" stroke-miterlimit="10.0"><path d="M 101.29037811077285,255.9854109018849 c 0.0,-2.140659425461808 -1.7353473375669617,-3.87600676302877 -3.8760067630287693 -3.87600676302877c -2.140659425461808,-1.3107758567282074e-16 -3.87600676302877,1.7353473375669615 -3.87600676302877 3.8760067630287685c -2.621551713456415e-16,2.140659425461808 1.7353473375669612,3.87600676302877 3.8760067630287685 3.87600676302877c 2.140659425461808,3.932327570184622e-16 3.87600676302877,-1.7353473375669612 3.8760067630287702 -3.8760067630287685Z"/></g><defs></defs><g stroke-linejoin="miter" stroke-opacity="1.0" fill-opacity="0.0" stroke="rgb(0,0,0)" stroke-width="0.6000000000000002" fill="rgb(0,0,0)" stroke-linecap="butt" stroke-miterlimit="10.0"><path d="M 99.26670198732424,232.12503024008157 c 0.0,-2.2734208429823233 -1.8429717310998754,-4.1163925740822 -4.116392574082199 -4.1163925740822c -2.2734208429823233,-1.39206877923659e-16 -4.1163925740822,1.8429717310998754 -4.1163925740822 4.116392574082198c -2.78413755847318e-16,2.2734208429823233 1.8429717310998752,4.1163925740822 4.116392574082198 4.1163925740822c 2.2734208429823233,4.17620633770977e-16 4.1163925740822,-1.8429717310998752 4.116392574082202 -4.116392574082198Z"/></g><defs></defs><g stroke-linejoin="miter" stroke-opacity="1.0" fill-opacity="0.0" stroke="rgb(0,0,0)" stroke-width="0.6000000000000002" fill="rgb(0,0,0)" stroke-linecap="butt" stroke-miterlimit="10.0"><path d="M 129.13983640116572,242.53426051000548 c 0.0,-1.4606532893885453 -1.1840934464864787,-2.644746735875024 -2.6447467358750236 -2.644746735875024c -1.4606532893885453,-8.943921877568673e-17 -2.644746735875024,1.1840934464864785 -2.644746735875024 2.644746735875023c -1.7887843755137345e-16,1.4606532893885453 1.1840934464864783,2.644746735875024 2.644746735875023 2.644746735875024c 1.4606532893885453,2.683176563270602e-16 2.644746735875024,-1.184093446486478 2.644746735875024 -2.644746735875023Z"/></g><defs></defs><g stroke-linejoin="miter" stroke-opacity="1.0" fill-opacity="0.0" stroke="rgb(0,0,0)" stroke-width="0.6000000000000002" fill="rgb(0,0,0)" stroke-linecap="butt" stroke-miterlimit="10.0"><path d="M 123.85267726916011,242.7188789353301 c 0.0,-2.5719778828284676 -2.0850000323076254,-4.6569779151360935 -4.656977915136093 -4.6569779151360935c -2.5719778828284676,-1.5748822408418344e-16 -4.6569779151360935,2.085000032307625 -4.6569779151360935 4.656977915136092c -3.149764481683669e-16,2.5719778828284676 2.085000032307625,4.6569779151360935 4.656977915136092 4.6569779151360935c 2.5719778828284676,4.724646722525503e-16 4.6569779151360935,-2.0850000323076245 4.6569779151360935 -4.656977915136092Z"/></g><defs></defs><g stroke-linejoin="miter" stroke-opacity="1.0" fill-opacity="0.0" stroke="rgb(0,0,0)" stroke-width="0.6000000000000002" fill="rgb(0,0,0)" stroke-linecap="butt" stroke-miterlimit="10.0"><path d="M 114.55651971364651,243.450064679276 c 0.0,-5.72782598568233 -4.643320397478159,-10.37114638316049 -10.371146383160488 -10.37114638316049c -5.72782598568233,-3.5072818797194487e-16 -10.37114638316049,4.643320397478158 -10.37114638316049 10.371146383160486c -7.014563759438897e-16,5.72782598568233 4.643320397478158,10.37114638316049 10.371146383160484 10.37114638316049c 5.72782598568233,1.0521845639158348e-15 10.37114638316049,-4.643320397478158 10.371146383160495 -10.371146383160486Z"/></g><defs></defs><g stroke-linejoin="miter" stroke-opacity="1.0" fill-opacity="0.0" stroke="rgb(0,0,0)" stroke-width="0.6000000000000002" fill="rgb(0,0,0)" stroke-linecap="butt" stroke-miterlimit="10.0"><path d="M 24.65079247220907,213.23056705439552 c 0.0,-1.591210434935322 -1.2899309245225117,-2.881141359457834 -2.8811413594578332 -2.881141359457834c -1.591210434935322,-9.743353829567049e-17 -2.881141359457834,1.2899309245225117 -2.881141359457834 2.8811413594578332c -1.9486707659134098e-16,1.591210434935322 1.2899309245225115,2.881141359457834 2.881141359457833 2.881141359457834c 1.591210434935322,2.923006148870115e-16 2.881141359457834,-1.2899309245225112 2.8811413594578346 -2.8811413594578332Z"/></g><defs></defs><g stroke-linejoin="miter" stroke-opacity="1.0" fill-opacity="0.0" stroke="rgb(0,0,0)" stroke-width="0.6000000000000002" fill="rgb(0,0,0)" stroke-linecap="butt" stroke-miterlimit="10.0"><path d="M 7.670485265480836,204.55785598541465 c 0.0,-2.103524136063015 -1.7052432374838429,-3.808767373546858 -3.808767373546857 -3.808767373546858c -2.103524136063015,-1.288037050079386e-16 -3.808767373546858,1.7052432374838424 -3.808767373546858 3.808767373546856c -2.576074100158772e-16,2.103524136063015 1.7052432374838422,3.808767373546858 3.808767373546856 3.808767373546858c 2.103524136063015,3.8641111502381586e-16 3.808767373546858,-1.7052432374838422 3.808767373546859 -3.808767373546856Z"/></g><defs></defs><g stroke-linejoin="miter" stroke-opacity="1.0" fill-opacity="0.0" stroke="rgb(0,0,0)" stroke-width="0.6000000000000002" fill="rgb(0,0,0)" stroke-linecap="butt" stroke-miterlimit="10.0"><path d="M 9.249844670558991,237.35742025530027 c 0.0,-1.5680226302024838 -1.271133494754592,-2.8391561249570763 -2.8391561249570754 -2.8391561249570763c -1.5680226302024838,-9.601369475340428e-17 -2.8391561249570763,1.2711334947545918 -2.8391561249570763 2.8391561249570754c -1.9202738950680856e-16,1.5680226302024838 1.2711334947545918,2.8391561249570763 2.8391561249570754 2.8391561249570763c 1.5680226302024838,2.8804108426021284e-16 2.8391561249570763,-1.2711334947545918 2.8391561249570763 -2.8391561249570754Z"/></g><defs></defs><g stroke-linejoin="miter" stroke-opacity="1.0" fill-opacity="0.0" stroke="rgb(0,0,0)" stroke-width="0.6000000000000002" fill="rgb(0,0,0)" stroke-linecap="butt" stroke-miterlimit="10.0"><path d="M 11.732444199738751,229.8211665095914 c 0.0,-2.6073385792306563 -2.113665540527278,-4.721004119757935 -4.721004119757934 -4.721004119757935c -2.6073385792306563,-1.5965344226741155e-16 -4.721004119757935,2.1136655405272777 -4.721004119757935 4.721004119757933c -3.193068845348231e-16,2.6073385792306563 2.1136655405272777,4.721004119757935 4.721004119757932 4.721004119757935c 2.6073385792306563,4.789603268022346e-16 4.721004119757935,-2.1136655405272773 4.721004119757936 -4.721004119757933Z"/></g><defs></defs><g stroke-linejoin="miter" stroke-opacity="1.0" fill-opacity="0.0" stroke="rgb(0,0,0)" stroke-width="0.6000000000000002" fill="rgb(0,0,0)" stroke-linecap="butt" stroke-miterlimit="10.0"><path d="M 19.240779729909214,216.136223334416 c 0.0,-5.124357902569859 -4.154112857558564,-9.278470760128423 -9.278470760128421 -9.278470760128423c -5.124357902569859,-3.137764251533811e-16 -9.278470760128423,4.154112857558564 -9.278470760128423 9.27847076012842c -6.275528503067622e-16,5.124357902569859 4.154112857558563,9.278470760128423 9.27847076012842 9.278470760128423c 5.124357902569859,9.413292754601431e-16 9.278470760128423,-4.154112857558562 9.278470760128423 -9.27847076012842Z"/></g><defs></defs><g stroke-linejoin="miter" stroke-opacity="1.0" fill-opacity="0.0" stroke="rgb(0,0,0)" stroke-width="0.6000000000000002" fill="rgb(0,0,0)" stroke-linecap="butt" stroke-miterlimit="10.0"><path d="M 48.645786325905604,203.52569999291097 c 0.0,-1.3280471399656633 -1.0765949226162643,-2.404642062581928 -2.4046420625819276 -2.404642062581928c -1.3280471399656633,-8.131943395378732e-17 -2.404642062581928,1.076594922616264 -2.404642062581928 2.404642062581927c -1.6263886790757465e-16,1.3280471399656633 1.076594922616264,2.404642062581928 2.4046420625819267 2.404642062581928c 1.3280471399656633,2.4395830186136196e-16 2.404642062581928,-1.076594922616264 2.4046420625819294 -2.404642062581927Z"/></g><defs></defs><g stroke-linejoin="miter" stroke-opacity="1.0" fill-opacity="0.0" stroke="rgb(0,0,0)" stroke-width="0.6000000000000002" fill="rgb(0,0,0)" stroke-linecap="butt" stroke-miterlimit="10.0"><path d="M 55.535597561469956,189.7884153370491 c 0.0,-1.4822602078254883 -1.2016093146982032,-2.683869522523692 -2.683869522523691 -2.683869522523692c -1.4822602078254883,-9.076226095084874e-17 -2.683869522523692,1.2016093146982032 -2.683869522523692 2.683869522523691c -1.8152452190169748e-16,1.4822602078254883 1.201609314698203,2.683869522523692 2.6838695225236906 2.683869522523692c 1.4822602078254883,2.722867828525462e-16 2.683869522523692,-1.201609314698203 2.6838695225236924 -2.683869522523691Z"/></g><defs></defs><g stroke-linejoin="miter" stroke-opacity="1.0" fill-opacity="0.0" stroke="rgb(0,0,0)" stroke-width="0.6000000000000002" fill="rgb(0,0,0)" stroke-linecap="butt" stroke-miterlimit="10.0"><path d="M 65.75338066156908,204.08628394762476 c 0.0,-1.7158970706032193 -1.391009414011697,-3.1069064846149166 -3.106906484614916 -3.1069064846149166c -1.7158970706032193,-1.0506839275902762e-16 -3.1069064846149166,1.391009414011697 -3.1069064846149166 3.1069064846149157c -2.1013678551805525e-16,1.7158970706032193 1.3910094140116969,3.1069064846149166 3.1069064846149157 3.1069064846149166c 1.7158970706032193,3.1520517827708285e-16 3.1069064846149166,-1.3910094140116966 3.1069064846149175 -3.1069064846149157Z"/></g><defs></defs><g stroke-linejoin="miter" stroke-opacity="1.0" fill-opacity="0.0" stroke="rgb(0,0,0)" stroke-width="0.6000000000000002" fill="rgb(0,0,0)" stroke-linecap="butt" stroke-miterlimit="10.0"><path d="M 60.909441593072714,199.0844988313886 c 0.0,-3.705540573118967 -3.003934157541718,-6.709474730660685 -6.709474730660683 -6.709474730660685c -3.705540573118967,-2.268989200990396e-16 -6.709474730660685,3.0039341575417176 -6.709474730660685 6.709474730660683c -4.537978401980792e-16,3.705540573118967 3.003934157541717,6.709474730660685 6.709474730660682 6.709474730660685c 3.705540573118967,6.806967602971187e-16 6.709474730660685,-3.0039341575417167 6.709474730660686 -6.709474730660683Z"/></g><defs></defs><g stroke-linejoin="miter" stroke-opacity="1.0" fill-opacity="0.0" stroke="rgb(0,0,0)" stroke-width="0.6000000000000002" fill="rgb(0,0,0)" stroke-linecap="butt" stroke-miterlimit="10.0"><path d="M 7.968507914439811,166.90091324696402 c 0.0,-1.4287504788816077 -1.1582311086406654,-2.5869815875222733 -2.586981587522273 -2.5869815875222733c -1.4287504788816077,-8.748573503713043e-17 -2.5869815875222733,1.1582311086406654 -2.5869815875222733 2.586981587522273c -1.7497147007426087e-16,1.4287504788816077 1.1582311086406651,2.5869815875222733 2.5869815875222724 2.5869815875222733c 1.4287504788816077,2.6245720511139134e-16 2.5869815875222733,-1.158231108640665 2.586981587522274 -2.586981587522273Z"/></g><defs></defs><g stroke-linejoin="miter" stroke-opacity="1.0" fill-opacity="0.0" stroke="rgb(0,0,0)" stroke-width="0.6000000000000002" fill="rgb(0,0,0)" stroke-linecap="butt" stroke-miterlimit="10.0"><path d="M 14.6217020048975,160.15414090996643 c 0.0,-2.900012296965346 -2.35092446682152,-5.250936763786867 -5.250936763786866 -5.250936763786867c -2.900012296965346,-1.7757453884832872e-16 -5.250936763786867,2.35092446682152 -5.250936763786867 5.250936763786865c -3.5514907769665743e-16,2.900012296965346 2.3509244668215197,5.250936763786867 5.250936763786864 5.250936763786867c 2.900012296965346,5.327236165449861e-16 5.250936763786867,-2.3509244668215197 5.250936763786868 -5.250936763786865Z"/></g><defs></defs><g stroke-linejoin="miter" stroke-opacity="1.0" fill-opacity="0.0" stroke="rgb(0,0,0)" stroke-width="0.6000000000000002" fill="rgb(0,0,0)" stroke-linecap="butt" stroke-miterlimit="10.0"><path d="M 42.24704306271516,159.15611958448739 c 0.0,-2.383529532292873 -1.9322324600908165,-4.31576199238369 -4.315761992383689 -4.31576199238369c -2.383529532292873,-1.4594909061978275e-16 -4.31576199238369,1.9322324600908165 -4.31576199238369 4.315761992383688c -2.918981812395655e-16,2.383529532292873 1.932232460090816,4.31576199238369 4.315761992383688 4.31576199238369c 2.383529532292873,4.378472718593482e-16 4.31576199238369,-1.9322324600908158 4.315761992383692 -4.315761992383688Z"/></g><defs></defs><g stroke-linejoin="miter" stroke-opacity="1.0" fill-opacity="0.0" stroke="rgb(0,0,0)" stroke-width="0.6000000000000002" fill="rgb(0,0,0)" stroke-linecap="butt" stroke-miterlimit="10.0"><path d="M 20.365791794972843,127.70218917995396 c 0.0,-1.8218064785038288 -1.4768659528135044,-3.2986724313173337 -3.298672431317333 -3.2986724313173337c -1.8218064785038288,-1.1155347362828125e-16 -3.2986724313173337,1.4768659528135042 -3.2986724313173337 3.2986724313173323c -2.231069472565625e-16,1.8218064785038288 1.4768659528135042,3.2986724313173337 3.298672431317332 3.2986724313173337c 1.8218064785038288,3.3466042088484375e-16 3.2986724313173337,-1.476865952813504 3.2986724313173346 -3.2986724313173323Z"/></g><defs></defs><g stroke-linejoin="miter" stroke-opacity="1.0" fill-opacity="0.0" stroke="rgb(0,0,0)" stroke-width="0.6000000000000002" fill="rgb(0,0,0)" stroke-linecap="butt" stroke-miterlimit="10.0"><path d="M 38.26259274940129,130.9190016869353 c 0.0,-1.6035265274203114 -1.2999150901720493,-2.903441617592361 -2.9034416175923603 -2.903441617592361c -1.6035265274203114,-9.818768145765775e-17 -2.903441617592361,1.2999150901720493 -2.903441617592361 2.9034416175923603c -1.963753629153155e-16,1.6035265274203114 1.299915090172049,2.903441617592361 2.90344161759236 2.903441617592361c 1.6035265274203114,2.945630443729732e-16 2.903441617592361,-1.2999150901720489 2.9034416175923616 -2.9034416175923603Z"/></g><defs></defs><g stroke-linejoin="miter" stroke-opacity="1.0" fill-opacity="0.0" stroke="rgb(0,0,0)" stroke-width="0.6000000000000002" fill="rgb(0,0,0)" stroke-linecap="butt" stroke-miterlimit="10.0"><path d="M 53.347503751104014,71.10849097600465 c 0.0,-1.4976218710796954 -1.2140624032706826,-2.7116842743503784 -2.7116842743503775 -2.7116842743503784c -1.4976218710796954,-9.170289153754095e-17 -2.7116842743503784,1.2140624032706824 -2.7116842743503784 2.7116842743503775c -1.834057830750819e-16,1.4976218710796954 1.2140624032706824,2.7116842743503784 2.711684274350377 2.7116842743503784c 1.4976218710796954,2.7510867461262284e-16 2.7116842743503784,-1.2140624032706822 2.711684274350379 -2.7116842743503775Z"/></g><defs></defs><g stroke-linejoin="miter" stroke-opacity="1.0" fill-opacity="0.0" stroke="rgb(0,0,0)" stroke-width="0.6000000000000002" fill="rgb(0,0,0)" stroke-linecap="butt" stroke-miterlimit="10.0"><path d="M 50.596994352416154,76.12977418445053 c 0.0,-1.8453399729912 -1.4959436194972162,-3.3412835924884163 -3.341283592488416 -3.3412835924884163c -1.8453399729912,-1.129944845631168e-16 -3.3412835924884163,1.495943619497216 -3.3412835924884163 3.3412835924884154c -2.259889691262336e-16,1.8453399729912 1.4959436194972158,3.3412835924884163 3.341283592488415 3.3412835924884163c 1.8453399729912,3.3898345368935046e-16 3.3412835924884163,-1.4959436194972158 3.3412835924884177 -3.3412835924884154Z"/></g><defs></defs><g stroke-linejoin="miter" stroke-opacity="1.0" fill-opacity="0.0" stroke="rgb(0,0,0)" stroke-width="0.6000000000000002" fill="rgb(0,0,0)" stroke-linecap="butt" stroke-miterlimit="10.0"><path d="M 47.54300122926281,82.58443587123242 c 0.0,-2.3272818990019863 -1.8866347440250182,-4.213916643027005 -4.213916643027004 -4.213916643027005c -2.3272818990019863,-1.4250491641631781e-16 -4.213916643027005,1.8866347440250182 -4.213916643027005 4.213916643027003c -2.8500983283263563e-16,2.3272818990019863 1.8866347440250177,4.213916643027005 4.213916643027003 4.213916643027005c 2.3272818990019863,4.275147492489535e-16 4.213916643027005,-1.8866347440250177 4.213916643027007 -4.213916643027003Z"/></g><defs></defs><g stroke-linejoin="miter" stroke-opacity="1.0" fill-opacity="0.0" stroke="rgb(0,0,0)" stroke-width="0.6000000000000002" fill="rgb(0,0,0)" stroke-linecap="butt" stroke-miterlimit="10.0"><path d="M 44.25328132426898,91.13461155704617 c 0.0,-3.020545595479824 -2.4486360113004557,-5.46918160678028 -5.469181606780278 -5.46918160678028c -3.020545595479824,-1.8495507475915012e-16 -5.46918160678028,2.4486360113004553 -5.46918160678028 5.469181606780278c -3.6991014951830023e-16,3.020545595479824 2.448636011300455,5.46918160678028 5.469181606780277 5.46918160678028c 3.020545595479824,5.548652242774504e-16 5.46918160678028,-2.4486360113004544 5.469181606780281 -5.469181606780278Z"/></g><defs></defs><g stroke-linejoin="miter" stroke-opacity="1.0" fill-opacity="0.0" stroke="rgb(0,0,0)" stroke-width="0.6000000000000002" fill="rgb(0,0,0)" stroke-linecap="butt" stroke-miterlimit="10.0"><path d="M 40.989892276049794,102.88225319343017 c 0.0,-4.064277420226385 -3.2947478316415686,-7.359025251867954 -7.359025251867952 -7.359025251867954c -4.064277420226385,-2.488652166763552e-16 -7.359025251867954,3.294747831641568 -7.359025251867954 7.359025251867951c -4.977304333527104e-16,4.064277420226385 3.2947478316415677,7.359025251867954 7.359025251867951 7.359025251867954c 4.064277420226385,7.465956500290656e-16 7.359025251867954,-3.2947478316415673 7.359025251867955 -7.359025251867951Z"/></g><defs></defs><g stroke-linejoin="miter" stroke-opacity="1.0" fill-opacity="0.0" stroke="rgb(0,0,0)" stroke-width="0.6000000000000002" fill="rgb(0,0,0)" stroke-linecap="butt" stroke-miterlimit="10.0"><path d="M 38.5537550479267,119.75285076151022 c 0.0,-5.7265128330240875 -4.6422558769186555,-10.368768709942744 -10.368768709942742 -10.368768709942744c -5.7265128330240875,-3.5064778056195946e-16 -10.368768709942744,4.642255876918655 -10.368768709942744 10.36876870994274c -7.012955611239189e-16,5.7265128330240875 4.642255876918654,10.368768709942744 10.368768709942739 10.368768709942744c 5.7265128330240875,1.0519433416858785e-15 10.368768709942744,-4.642255876918654 10.368768709942746 -10.36876870994274Z"/></g><defs></defs><g stroke-linejoin="miter" stroke-opacity="1.0" fill-opacity="0.0" stroke="rgb(0,0,0)" stroke-width="0.6000000000000002" fill="rgb(0,0,0)" stroke-linecap="butt" stroke-miterlimit="10.0"><path d="M 39.31323845209271,145.25069226555388 c 0.0,-8.561170310772235 -6.940199794766924,-15.501370105539161 -15.50137010553916 -15.501370105539161c -8.561170310772235,-5.242204909021285e-16 -15.501370105539161,6.940199794766923 -15.501370105539161 15.501370105539156c -1.048440981804257e-15,8.561170310772235 6.940199794766922,15.501370105539161 15.501370105539156 15.501370105539161c 8.561170310772235,1.5726614727063855e-15 15.501370105539161,-6.940199794766921 15.501370105539163 -15.501370105539156Z"/></g><defs></defs><g stroke-linejoin="miter" stroke-opacity="1.0" fill-opacity="0.0" stroke="rgb(0,0,0)" stroke-width="0.6000000000000002" fill="rgb(0,0,0)" stroke-linecap="butt" stroke-miterlimit="10.0"><path d="M 50.478003559471276,185.66026463447417 c 0.0,-13.776657890816692 -11.168187852321285,-24.94484574313798 -24.94484574313797 -24.94484574313798c -13.776657890816692,-8.435769994468394e-16 -24.94484574313798,11.168187852321283 -24.94484574313798 24.94484574313797c -1.6871539988936789e-15,13.776657890816692 11.168187852321282,24.94484574313798 24.94484574313797 24.94484574313798c 13.776657890816692,2.530730998340518e-15 24.94484574313798,-11.16818785232128 24.94484574313798 -24.94484574313797Z"/></g><defs></defs><g stroke-linejoin="miter" stroke-opacity="1.0" fill-opacity="0.0" stroke="rgb(0,0,0)" stroke-width="0.6000000000000002" fill="rgb(0,0,0)" stroke-linecap="butt" stroke-miterlimit="10.0"><path d="M 94.08559188271585,248.83256578121615 c 0.0,-23.828473928145993 -19.316794767841813,-43.145268695987816 -43.1452686959878 -43.145268695987816c -23.828473928145993,-1.4590732162335076e-15 -43.145268695987816,19.31679476784181 -43.145268695987816 43.1452686959878c -2.918146432467015e-15,23.828473928145993 19.31679476784181,43.145268695987816 43.145268695987795 43.145268695987816c 23.828473928145993,4.377219648700522e-15 43.145268695987816,-19.31679476784181 43.14526869598782 -43.1452686959878Z"/></g><defs></defs><g stroke-linejoin="miter" stroke-opacity="1.0" fill-opacity="0.0" stroke="rgb(0,0,0)" stroke-width="0.6000000000000002" fill="rgb(0,0,0)" stroke-linecap="butt" stroke-miterlimit="10.0"><path d="M 218.27907935360093,315.2682285576543 c 0.0,-40.08558983116861 -32.49579113843058,-72.5813809695992 -72.5813809695992 -72.5813809695992c -40.08558983116861,-2.454534463933716e-15 -72.5813809695992,32.495791138430576 -72.5813809695992 72.58138096959918c -4.909068927867432e-15,40.08558983116861 32.495791138430576,72.5813809695992 72.58138096959917 72.5813809695992c 40.08558983116861,7.363603391801149e-15 72.5813809695992,-32.495791138430576 72.58138096959922 -72.58138096959918Z"/></g><defs></defs><g stroke-linejoin="miter" stroke-opacity="1.0" fill-opacity="0.0" stroke="rgb(0,0,0)" stroke-width="0.6000000000000002" fill="rgb(0,0,0)" stroke-linecap="butt" stroke-miterlimit="10.0"><path d="M 373.7100732704416,221.18135126585562 c 0.0,-2.1113728941857723 -1.711605913091896,-3.8229788072776687 -3.822978807277668 -3.8229788072776687c -2.1113728941857723,-1.2928430283355447e-16 -3.8229788072776687,1.7116059130918957 -3.8229788072776687 3.822978807277667c -2.5856860566710894e-16,2.1113728941857723 1.7116059130918955,3.8229788072776687 3.822978807277667 3.8229788072776687c 2.1113728941857723,3.878529085006634e-16 3.8229788072776687,-1.7116059130918952 3.8229788072776696 -3.822978807277667Z"/></g><defs></defs><g stroke-linejoin="miter" stroke-opacity="1.0" fill-opacity="0.0" stroke="rgb(0,0,0)" stroke-width="0.6000000000000002" fill="rgb(0,0,0)" stroke-linecap="butt" stroke-miterlimit="10.0"><path d="M 399.8226419983827,208.37007433586945 c 0.0,-1.3290364070702159 -1.0773968820571773,-2.4064332891273934 -2.406433289127393 -2.4064332891273934c -1.3290364070702159,-8.138000909344192e-17 -2.4064332891273934,1.077396882057177 -2.4064332891273934 2.4064332891273925c -1.6276001818688385e-16,1.3290364070702159 1.0773968820571769,2.4064332891273934 2.406433289127392 2.4064332891273934c 1.3290364070702159,2.4414002728032576e-16 2.4064332891273934,-1.0773968820571769 2.406433289127394 -2.4064332891273925Z"/></g><defs></defs><g stroke-linejoin="miter" stroke-opacity="1.0" fill-opacity="0.0" stroke="rgb(0,0,0)" stroke-width="0.6000000000000002" fill="rgb(0,0,0)" stroke-linecap="butt" stroke-miterlimit="10.0"><path d="M 399.42492129567404,214.9748939465376 c 0.0,-2.618584265919785 -2.122781970830469,-4.741366236750254 -4.741366236750254 -4.741366236750254c -2.618584265919785,-1.6034204197781432e-16 -4.741366236750254,2.1227819708304687 -4.741366236750254 4.741366236750253c -3.2068408395562865e-16,2.618584265919785 2.1227819708304687,4.741366236750254 4.7413662367502525 4.741366236750254c 2.618584265919785,4.810261259334429e-16 4.741366236750254,-2.1227819708304683 4.741366236750256 -4.741366236750253Z"/></g><defs></defs><g stroke-linejoin="miter" stroke-opacity="1.0" fill-opacity="0.0" stroke="rgb(0,0,0)" stroke-width="0.6000000000000002" fill="rgb(0,0,0)" stroke-linecap="butt" stroke-miterlimit="10.0"><path d="M 380.23990721598756,243.55926273333287 c 0.0,-1.2714480150862315 -1.0307122663189168,-2.3021602814051483 -2.302160281405148 -2.3021602814051483c -1.2714480150862315,-7.785373709788045e-17 -2.3021602814051483,1.0307122663189165 -2.3021602814051483 2.3021602814051474c -1.557074741957609e-16,1.2714480150862315 1.0307122663189165,2.3021602814051483 2.302160281405147 2.3021602814051483c 1.2714480150862315,2.3356121129364134e-16 2.3021602814051483,-1.0307122663189163 2.3021602814051487 -2.3021602814051474Z"/></g><defs></defs><g stroke-linejoin="miter" stroke-opacity="1.0" fill-opacity="0.0" stroke="rgb(0,0,0)" stroke-width="0.6000000000000002" fill="rgb(0,0,0)" stroke-linecap="butt" stroke-miterlimit="10.0"><path d="M 395.2366007099022,243.10268556289336 c 0.0,-1.43933541605736 -1.1668118956298394,-2.6061473116872 -2.6061473116871996 -2.6061473116872c -1.43933541605736,-8.81338755087035e-17 -2.6061473116872,1.1668118956298392 -2.6061473116872 2.606147311687199c -1.76267751017407e-16,1.43933541605736 1.1668118956298392,2.6061473116872 2.6061473116871987 2.6061473116872c 1.43933541605736,2.6440162652611046e-16 2.6061473116872,-1.166811895629839 2.6061473116872005 -2.606147311687199Z"/></g><defs></defs><g stroke-linejoin="miter" stroke-opacity="1.0" fill-opacity="0.0" stroke="rgb(0,0,0)" stroke-width="0.6000000000000002" fill="rgb(0,0,0)" stroke-linecap="butt" stroke-miterlimit="10.0"><path d="M 383.5363550958171,278.884615094462 c 0.0,-1.5367939675451405 -1.245817661720336,-2.782611629265477 -2.782611629265476 -2.782611629265477c -1.5367939675451405,-9.410149066515587e-17 -2.782611629265477,1.245817661720336 -2.782611629265477 2.782611629265476c -1.8820298133031175e-16,1.5367939675451405 1.2458176617203358,2.782611629265477 2.782611629265476 2.782611629265477c 1.5367939675451405,2.8230447199546764e-16 2.782611629265477,-1.2458176617203356 2.782611629265477 -2.782611629265476Z"/></g><defs></defs><g stroke-linejoin="miter" stroke-opacity="1.0" fill-opacity="0.0" stroke="rgb(0,0,0)" stroke-width="0.6000000000000002" fill="rgb(0,0,0)" stroke-linecap="butt" stroke-miterlimit="10.0"><path d="M 386.0904774332194,272.57074959477404 c 0.0,-2.061123420407669 -1.670870666047093,-3.7319940864547623 -3.7319940864547614 -3.7319940864547623c -2.061123420407669,-1.2620740997249482e-16 -3.7319940864547623,1.6708706660470927 -3.7319940864547623 3.731994086454761c -2.5241481994498964e-16,2.061123420407669 1.6708706660470927,3.7319940864547623 3.731994086454761 3.7319940864547623c 2.061123420407669,3.7862222991748443e-16 3.7319940864547623,-1.6708706660470924 3.7319940864547627 -3.731994086454761Z"/></g><defs></defs><g stroke-linejoin="miter" stroke-opacity="1.0" fill-opacity="0.0" stroke="rgb(0,0,0)" stroke-width="0.6000000000000002" fill="rgb(0,0,0)" stroke-linecap="butt" stroke-miterlimit="10.0"><path d="M 389.2739332576049,263.7389666526544 c 0.0,-2.9020338667120082 -2.3525632728996144,-5.254597139611623 -5.254597139611622 -5.254597139611623c -2.9020338667120082,-1.7769832429430386e-16 -5.254597139611623,2.3525632728996144 -5.254597139611623 5.254597139611621c -3.553966485886077e-16,2.9020338667120082 2.352563272899614,5.254597139611623 5.2545971396116204 5.254597139611623c 2.9020338667120082,5.330949728829115e-16 5.254597139611623,-2.3525632728996135 5.254597139611624 -5.254597139611621Z"/></g><defs></defs><g stroke-linejoin="miter" stroke-opacity="1.0" fill-opacity="0.0" stroke="rgb(0,0,0)" stroke-width="0.6000000000000002" fill="rgb(0,0,0)" stroke-linecap="butt" stroke-miterlimit="10.0"><path d="M 393.20543070964203,250.6378267135954 c 0.0,-4.367839352710769 -3.5408333999751735,-7.908672752685942 -7.908672752685941 -7.908672752685942c -4.367839352710769,-2.6745302412435447e-16 -7.908672752685942,3.540833399975173 -7.908672752685942 7.9086727526859395c -5.349060482487089e-16,4.367839352710769 3.5408333999751727,7.908672752685942 7.9086727526859395 7.908672752685942c 4.367839352710769,8.023590723730635e-16 7.908672752685942,-3.5408333999751718 7.908672752685943 -7.9086727526859395Z"/></g><defs></defs><g stroke-linejoin="miter" stroke-opacity="1.0" fill-opacity="0.0" stroke="rgb(0,0,0)" stroke-width="0.6000000000000002" fill="rgb(0,0,0)" stroke-linecap="butt" stroke-miterlimit="10.0"><path d="M 397.6338168630469,229.64617984978673 c 0.0,-7.233115978225967 -5.86359904141203,-13.096715019638 -13.096715019637996 -13.096715019638c -7.233115978225967,-4.429006165298004e-16 -13.096715019638,5.863599041412029 -13.096715019638 13.096715019637994c -8.858012330596008e-16,7.233115978225967 5.863599041412028,13.096715019638 13.096715019637992 13.096715019638c 7.233115978225967,1.328701849589401e-15 13.096715019638,-5.863599041412027 13.096715019638003 -13.096715019637994Z"/></g><defs></defs><g stroke-linejoin="miter" stroke-opacity="1.0" fill-opacity="0.0" stroke="rgb(0,0,0)" stroke-width="0.6000000000000002" fill="rgb(0,0,0)" stroke-linecap="butt" stroke-miterlimit="10.0"><path d="M 350.4162071918255,198.09877854403805 c 0.0,-1.4761785331079094 -1.196679143226942,-2.6728576763348513 -2.672857676334851 -2.6728576763348513c -1.4761785331079094,-9.038986577703181e-17 -2.6728576763348513,1.1966791432269417 -2.6728576763348513 2.672857676334851c -1.8077973155406363e-16,1.4761785331079094 1.1966791432269415,2.6728576763348513 2.6728576763348504 2.6728576763348513c 1.4761785331079094,2.711695973310954e-16 2.6728576763348513,-1.1966791432269412 2.6728576763348513 -2.672857676334851Z"/></g><defs></defs><g stroke-linejoin="miter" stroke-opacity="1.0" fill-opacity="0.0" stroke="rgb(0,0,0)" stroke-width="0.6000000000000002" fill="rgb(0,0,0)" stroke-linecap="butt" stroke-miterlimit="10.0"><path d="M 351.91856969830667,182.4945496280776 c 0.0,-1.4124997781528477 -1.1450573127963464,-2.5575570909491945 -2.557557090949194 -2.5575570909491945c -1.4124997781528477,-8.649066660556157e-17 -2.5575570909491945,1.1450573127963464 -2.5575570909491945 2.5575570909491936c -1.7298133321112313e-16,1.4124997781528477 1.1450573127963464,2.5575570909491945 2.5575570909491936 2.5575570909491945c 1.4124997781528477,2.5947199981668474e-16 2.5575570909491945,-1.1450573127963461 2.5575570909491945 -2.5575570909491936Z"/></g><defs></defs><g stroke-linejoin="miter" stroke-opacity="1.0" fill-opacity="0.0" stroke="rgb(0,0,0)" stroke-width="0.6000000000000002" fill="rgb(0,0,0)" stroke-linecap="butt" stroke-miterlimit="10.0"><path d="M 336.2624664233502,188.2552986951324 c 0.0,-1.8017202589637746 -1.4605828546307569,-3.2623031135945317 -3.262303113594531 -3.2623031135945317c -1.8017202589637746,-1.1032354740494635e-16 -3.2623031135945317,1.4605828546307569 -3.2623031135945317 3.262303113594531c -2.206470948098927e-16,1.8017202589637746 1.4605828546307567,3.2623031135945317 3.2623031135945304 3.2623031135945317c 1.8017202589637746,3.30970642214839e-16 3.2623031135945317,-1.4605828546307564 3.262303113594532 -3.262303113594531Z"/></g><defs></defs><g stroke-linejoin="miter" stroke-opacity="1.0" fill-opacity="0.0" stroke="rgb(0,0,0)" stroke-width="0.6000000000000002" fill="rgb(0,0,0)" stroke-linecap="butt" stroke-miterlimit="10.0"><path d="M 350.06475484288745,189.6623154310218 c 0.0,-3.838291022064206 -3.1115496592875136,-6.949840681351721 -6.949840681351719 -6.949840681351721c -3.838291022064206,-2.350275407183477e-16 -6.949840681351721,3.111549659287513 -6.949840681351721 6.949840681351718c -4.700550814366954e-16,3.838291022064206 3.111549659287513,6.949840681351721 6.949840681351717 6.949840681351721c 3.838291022064206,7.050826221550429e-16 6.949840681351721,-3.1115496592875127 6.949840681351723 -6.949840681351718Z"/></g><defs></defs><g stroke-linejoin="miter" stroke-opacity="1.0" fill-opacity="0.0" stroke="rgb(0,0,0)" stroke-width="0.6000000000000002" fill="rgb(0,0,0)" stroke-linecap="butt" stroke-miterlimit="10.0"><path d="M 397.7570417810606,170.44691997931383 c 0.0,-2.3106132454875903 -1.8731221305036996,-4.18373537599129 -4.183735375991289 -4.18373537599129c -2.3106132454875903,-1.4148425575769275e-16 -4.18373537599129,1.8731221305036991 -4.18373537599129 4.183735375991288c -2.829685115153855e-16,2.3106132454875903 1.8731221305036991,4.18373537599129 4.183735375991288 4.18373537599129c 2.3106132454875903,4.2445276727307826e-16 4.18373537599129,-1.8731221305036987 4.183735375991292 -4.183735375991288Z"/></g><defs></defs><g stroke-linejoin="miter" stroke-opacity="1.0" fill-opacity="0.0" stroke="rgb(0,0,0)" stroke-width="0.6000000000000002" fill="rgb(0,0,0)" stroke-linecap="butt" stroke-miterlimit="10.0"><path d="M 375.40226056902736,164.72103689216107 c 0.0,-1.8015903082820368 -1.4604775087887765,-3.2620678170708133 -3.262067817070813 -3.2620678170708133c -1.8015903082820368,-1.1031559022062448e-16 -3.2620678170708133,1.4604775087887762 -3.2620678170708133 3.2620678170708124c -2.2063118044124896e-16,1.8015903082820368 1.460477508788776,3.2620678170708133 3.262067817070812 3.2620678170708133c 1.8015903082820368,3.3094677066187345e-16 3.2620678170708133,-1.4604775087887758 3.2620678170708137 -3.2620678170708124Z"/></g><defs></defs><g stroke-linejoin="miter" stroke-opacity="1.0" fill-opacity="0.0" stroke="rgb(0,0,0)" stroke-width="0.6000000000000002" fill="rgb(0,0,0)" stroke-linecap="butt" stroke-miterlimit="10.0"><path d="M 385.8067926326964,126.47872219452262 c 0.0,-1.370818222165788 -1.1112677354598264,-2.4820859576256145 -2.4820859576256145 -2.4820859576256145c -1.370818222165788,-8.393840739940987e-17 -2.4820859576256145,1.1112677354598262 -2.4820859576256145 2.482085957625614c -1.6787681479881975e-16,1.370818222165788 1.1112677354598262,2.4820859576256145 2.4820859576256136 2.4820859576256145c 1.370818222165788,2.5181522219822963e-16 2.4820859576256145,-1.1112677354598262 2.4820859576256153 -2.482085957625614Z"/></g><defs></defs><g stroke-linejoin="miter" stroke-opacity="1.0" fill-opacity="0.0" stroke="rgb(0,0,0)" stroke-width="0.6000000000000002" fill="rgb(0,0,0)" stroke-linecap="butt" stroke-miterlimit="10.0"><path d="M 388.0363081975552,132.5075925728884 c 0.0,-2.0109180632981922 -1.6301711826284573,-3.6410892459266497 -3.641089245926649 -3.6410892459266497c -2.0109180632981922,-1.2313321847828628e-16 -3.6410892459266497,1.630171182628457 -3.6410892459266497 3.641089245926648c -2.4626643695657256e-16,2.0109180632981922 1.6301711826284568,3.6410892459266497 3.641089245926648 3.6410892459266497c 2.0109180632981922,3.6939965543485884e-16 3.6410892459266497,-1.6301711826284566 3.6410892459266506 -3.641089245926648Z"/></g><defs></defs><g stroke-linejoin="miter" stroke-opacity="1.0" fill-opacity="0.0" stroke="rgb(0,0,0)" stroke-width="0.6000000000000002" fill="rgb(0,0,0)" stroke-linecap="butt" stroke-miterlimit="10.0"><path d="M 391.1163490259656,141.94059785072344 c 0.0,-3.221796641640328 -2.6117822189517983,-5.833578860592127 -5.833578860592125 -5.833578860592127c -3.221796641640328,-1.9727814723442597e-16 -5.833578860592127,2.611782218951798 -5.833578860592127 5.833578860592125c -3.9455629446885194e-16,3.221796641640328 2.6117822189517974,5.833578860592127 5.833578860592124 5.833578860592127c 3.221796641640328,5.91834441703278e-16 5.833578860592127,-2.6117822189517974 5.8335788605921275 -5.833578860592125Z"/></g><defs></defs><g stroke-linejoin="miter" stroke-opacity="1.0" fill-opacity="0.0" stroke="rgb(0,0,0)" stroke-width="0.6000000000000002" fill="rgb(0,0,0)" stroke-linecap="butt" stroke-miterlimit="10.0"><path d="M 395.3920139382983,158.48975883632158 c 0.0,-5.92442051789958 -4.802691754736369,-10.727112272635951 -10.727112272635948 -10.727112272635951c -5.92442051789958,-3.6276613120243123e-16 -10.727112272635951,4.802691754736368 -10.727112272635951 10.727112272635948c -7.255322624048625e-16,5.92442051789958 4.802691754736368,10.727112272635951 10.727112272635946 10.727112272635951c 5.92442051789958,1.0882983936072937e-15 10.727112272635951,-4.802691754736368 10.727112272635953 -10.727112272635948Z"/></g><defs></defs><g stroke-linejoin="miter" stroke-opacity="1.0" fill-opacity="0.0" stroke="rgb(0,0,0)" stroke-width="0.6000000000000002" fill="rgb(0,0,0)" stroke-linecap="butt" stroke-miterlimit="10.0"><path d="M 399.8527595629638,192.8222146088538 c 0.0,-13.791871499282282 -11.180520918773391,-24.972392418055673 -24.97239241805567 -24.972392418055673c -13.791871499282282,-8.445085642923826e-16 -24.972392418055673,11.18052091877339 -24.972392418055673 24.972392418055666c -1.6890171285847653e-15,13.791871499282282 11.180520918773388,24.972392418055673 24.972392418055666 24.972392418055673c 13.791871499282282,2.533525692877148e-15 24.972392418055673,-11.180520918773386 24.972392418055673 -24.972392418055666Z"/></g><defs></defs><g stroke-linejoin="miter" stroke-opacity="1.0" fill-opacity="0.0" stroke="rgb(0,0,0)" stroke-width="0.6000000000000002" fill="rgb(0,0,0)" stroke-linecap="butt" stroke-miterlimit="10.0"><path d="M 254.64658282644857,191.06023857739135 c 0.0,-1.6596272491600284 -1.3453937108945402,-3.005020960054569 -3.0050209600545683 -3.005020960054569c -1.6596272491600284,-1.0162285992307778e-16 -3.005020960054569,1.3453937108945402 -3.005020960054569 3.005020960054568c -2.0324571984615556e-16,1.6596272491600284 1.34539371089454,3.005020960054569 3.005020960054568 3.005020960054569c 1.6596272491600284,3.048685797692333e-16 3.005020960054569,-1.3453937108945397 3.0050209600545696 -3.005020960054568Z"/></g><defs></defs><g stroke-linejoin="miter" stroke-opacity="1.0" fill-opacity="0.0" stroke="rgb(0,0,0)" stroke-width="0.6000000000000002" fill="rgb(0,0,0)" stroke-linecap="butt" stroke-miterlimit="10.0"><path d="M 263.09011428328085,185.31196183932508 c 0.0,-2.962913007472586 -2.4019155676063924,-5.364828575078978 -5.364828575078977 -5.364828575078978c -2.962913007472586,-1.8142609653766797e-16 -5.364828575078978,2.401915567606392 -5.364828575078978 5.364828575078977c -3.6285219307533595e-16,2.962913007472586 2.4019155676063915,5.364828575078978 5.364828575078977 5.364828575078978c 2.962913007472586,5.44278289613004e-16 5.364828575078978,-2.401915567606391 5.364828575078978 -5.364828575078977Z"/></g><defs></defs><g stroke-linejoin="miter" stroke-opacity="1.0" fill-opacity="0.0" stroke="rgb(0,0,0)" stroke-width="0.6000000000000002" fill="rgb(0,0,0)" stroke-linecap="butt" stroke-miterlimit="10.0"><path d="M 296.4566027837546,180.1985910200085 c 0.0,-1.3710439513250954 -1.1114507250988863,-2.482494676423982 -2.4824946764239817 -2.482494676423982c -1.3710439513250954,-8.395222932403088e-17 -2.482494676423982,1.111450725098886 -2.482494676423982 2.4824946764239813c -1.6790445864806175e-16,1.3710439513250954 1.1114507250988859,2.482494676423982 2.482494676423981 2.482494676423982c 1.3710439513250954,2.5185668797209264e-16 2.482494676423982,-1.1114507250988859 2.4824946764239826 -2.4824946764239813Z"/></g><defs></defs><g stroke-linejoin="miter" stroke-opacity="1.0" fill-opacity="0.0" stroke="rgb(0,0,0)" stroke-width="0.6000000000000002" fill="rgb(0,0,0)" stroke-linecap="butt" stroke-miterlimit="10.0"><path d="M 291.7451353986822,178.30684869856884 c 0.0,-2.5969604680875933 -2.1052524191652924,-4.702212887252886 -4.702212887252885 -4.702212887252886c -2.5969604680875933,-1.5901796623778413e-16 -4.702212887252886,2.105252419165292 -4.702212887252886 4.702212887252884c -3.1803593247556827e-16,2.5969604680875933 2.105252419165292,4.702212887252886 4.702212887252884 4.702212887252886c 2.5969604680875933,4.770538987133524e-16 4.702212887252886,-2.1052524191652915 4.702212887252887 -4.702212887252884Z"/></g><defs></defs><g stroke-linejoin="miter" stroke-opacity="1.0" fill-opacity="0.0" stroke="rgb(0,0,0)" stroke-width="0.6000000000000002" fill="rgb(0,0,0)" stroke-linecap="butt" stroke-miterlimit="10.0"><path d="M 270.1962980627785,148.82814894160742 c 0.0,-1.4620211944473605 -1.1852023526364361,-2.6472235470837973 -2.647223547083797 -2.6472235470837973c -1.4620211944473605,-8.95229788032775e-17 -2.6472235470837973,1.185202352636436 -2.6472235470837973 2.6472235470837964c -1.79045957606555e-16,1.4620211944473605 1.185202352636436,2.6472235470837973 2.647223547083796 2.6472235470837973c 1.4620211944473605,2.6856893640983253e-16 2.6472235470837973,-1.185202352636436 2.6472235470837986 -2.6472235470837964Z"/></g><defs></defs><g stroke-linejoin="miter" stroke-opacity="1.0" fill-opacity="0.0" stroke="rgb(0,0,0)" stroke-width="0.6000000000000002" fill="rgb(0,0,0)" stroke-linecap="butt" stroke-miterlimit="10.0"><path d="M 273.2262173684359,156.35702646268837 c 0.0,-2.7170548637467355 -2.2026081625801264,-4.919663026326862 -4.9196630263268615 -4.919663026326862c -2.7170548637467355,-1.6637162709975937e-16 -4.919663026326862,2.2026081625801264 -4.919663026326862 4.919663026326861c -3.3274325419951874e-16,2.7170548637467355 2.202608162580126,4.919663026326862 4.919663026326861 4.919663026326862c 2.7170548637467355,4.991148812992781e-16 4.919663026326862,-2.2026081625801255 4.919663026326864 -4.919663026326861Z"/></g><defs></defs><g stroke-linejoin="miter" stroke-opacity="1.0" fill-opacity="0.0" stroke="rgb(0,0,0)" stroke-width="0.6000000000000002" fill="rgb(0,0,0)" stroke-linecap="butt" stroke-miterlimit="10.0"><path d="M 283.06465156648716,173.398595457016 c 0.0,-6.7922677410948165 -5.50622093377046,-12.298488674865279 -12.298488674865276 -12.298488674865279c -6.7922677410948165,-4.1590644740417957e-16 -12.298488674865279,5.506220933770459 -12.298488674865279 12.298488674865274c -8.318128948083591e-16,6.7922677410948165 5.506220933770459,12.298488674865279 12.298488674865274 12.298488674865279c 6.7922677410948165,1.2477193422125385e-15 12.298488674865279,-5.506220933770458 12.29848867486528 -12.298488674865274Z"/></g><defs></defs><g stroke-linejoin="miter" stroke-opacity="1.0" fill-opacity="0.0" stroke="rgb(0,0,0)" stroke-width="0.6000000000000002" fill="rgb(0,0,0)" stroke-linecap="butt" stroke-miterlimit="10.0"><path d="M 378.81685816754447,266.7906514074999 c 0.0,-46.45413034240331 -37.658513283254855,-84.11264362565818 -84.11264362565817 -84.11264362565818c -46.45413034240331,-2.8444951015499074e-15 -84.11264362565818,37.65851328325485 -84.11264362565818 84.11264362565815c -5.688990203099815e-15,46.45413034240331 37.65851328325484,84.11264362565818 84.11264362565814 84.11264362565818c 46.45413034240331,8.533485304649723e-15 84.11264362565818,-37.65851328325484 84.1126436256582 -84.11264362565815Z"/></g><defs></defs><g stroke-linejoin="miter" stroke-opacity="1.0" fill-opacity="0.0" stroke="rgb(0,0,0)" stroke-width="0.6000000000000002" fill="rgb(0,0,0)" stroke-linecap="butt" stroke-miterlimit="10.0"><path d="M 222.71847958058865,5.005075917049098 c 0.0,-2.2754918915954607 -1.8446506477243654,-4.1201425393198265 -4.120142539319826 -4.1201425393198265c -2.2754918915954607,-1.3933369307640682e-16 -4.1201425393198265,1.8446506477243654 -4.1201425393198265 4.120142539319825c -2.7866738615281365e-16,2.2754918915954607 1.844650647724365,4.1201425393198265 4.120142539319825 4.1201425393198265c 2.2754918915954607,4.1800107922922047e-16 4.1201425393198265,-1.844650647724365 4.1201425393198265 -4.120142539319825Z"/></g><defs></defs><g stroke-linejoin="miter" stroke-opacity="1.0" fill-opacity="0.0" stroke="rgb(0,0,0)" stroke-width="0.6000000000000002" fill="rgb(0,0,0)" stroke-linecap="butt" stroke-miterlimit="10.0"><path d="M 215.0192246201241,26.73651690616049 c 0.0,-1.9448246325051288 -1.576591870668235,-3.5214165031733646 -3.5214165031733637 -3.5214165031733646c -1.9448246325051288,-1.1908616305501668e-16 -3.5214165031733646,1.5765918706682347 -3.5214165031733646 3.5214165031733633c -2.3817232611003335e-16,1.9448246325051288 1.5765918706682345,3.5214165031733646 3.521416503173363 3.5214165031733646c 1.9448246325051288,3.572584891650501e-16 3.5214165031733646,-1.5765918706682343 3.5214165031733655 -3.5214165031733633Z"/></g><defs></defs><g stroke-linejoin="miter" stroke-opacity="1.0" fill-opacity="0.0" stroke="rgb(0,0,0)" stroke-width="0.6000000000000002" fill="rgb(0,0,0)" stroke-linecap="butt" stroke-miterlimit="10.0"><path d="M 194.6634389659171,2.863869421730314 c 0.0,-1.4912356724144331 -1.2088853663636812,-2.7001210387781143 -2.7001210387781134 -2.7001210387781143c -1.4912356724144331,-9.13118496498343e-17 -2.7001210387781143,1.208885366363681 -2.7001210387781143 2.7001210387781134c -1.826236992996686e-16,1.4912356724144331 1.2088853663636807,2.7001210387781143 2.700121038778113 2.7001210387781143c 1.4912356724144331,2.7393554894950296e-16 2.7001210387781143,-1.2088853663636805 2.7001210387781147 -2.7001210387781134Z"/></g><defs></defs><g stroke-linejoin="miter" stroke-opacity="1.0" fill-opacity="0.0" stroke="rgb(0,0,0)" stroke-width="0.6000000000000002" fill="rgb(0,0,0)" stroke-linecap="butt" stroke-miterlimit="10.0"><path d="M 192.16435738179243,18.071041993984224 c 0.0,-1.3417333449526063 -1.0876897839019934,-2.4294231288546 -2.4294231288545998 -2.4294231288546c -1.3417333449526063,-8.215747231027403e-17 -2.4294231288546,1.0876897839019932 -2.4294231288546 2.4294231288545993c -1.6431494462054807e-16,1.3417333449526063 1.0876897839019932,2.4294231288546 2.429423128854599 2.4294231288546c 1.3417333449526063,2.4647241693082206e-16 2.4294231288546,-1.087689783901993 2.4294231288546007 -2.4294231288545993Z"/></g><defs></defs><g stroke-linejoin="miter" stroke-opacity="1.0" fill-opacity="0.0" stroke="rgb(0,0,0)" stroke-width="0.6000000000000002" fill="rgb(0,0,0)" stroke-linecap="butt" stroke-miterlimit="10.0"><path d="M 138.62212033898345,13.062778835434031 c 0.0,-1.3599432737650399 -1.1024518479211793,-2.4623951216862197 -2.462395121686219 -2.4623951216862197c -1.3599432737650399,-8.327250886191645e-17 -2.4623951216862197,1.1024518479211793 -2.4623951216862197 2.4623951216862188c -1.665450177238329e-16,1.3599432737650399 1.1024518479211791,2.4623951216862197 2.4623951216862183 2.4623951216862197c 1.3599432737650399,2.498175265857493e-16 2.4623951216862197,-1.102451847921179 2.46239512168622 -2.4623951216862188Z"/></g><defs></defs><g stroke-linejoin="miter" stroke-opacity="1.0" fill-opacity="0.0" stroke="rgb(0,0,0)" stroke-width="0.6000000000000002" fill="rgb(0,0,0)" stroke-linecap="butt" stroke-miterlimit="10.0"><path d="M 144.5030652103538,11.890848445084288 c 0.0,-1.6590760836572611 -1.3449469029733878,-3.004022986630649 -3.0040229866306483 -3.004022986630649c -1.6590760836572611,-1.0158911076963955e-16 -3.004022986630649,1.3449469029733876 -3.004022986630649 3.004022986630648c -2.031782215392791e-16,1.6590760836572611 1.3449469029733874,3.004022986630649 3.004022986630648 3.004022986630649c 1.6590760836572611,3.047673323089186e-16 3.004022986630649,-1.3449469029733871 3.0040229866306496 -3.004022986630648Z"/></g><defs></defs><g stroke-linejoin="miter" stroke-opacity="1.0" fill-opacity="0.0" stroke="rgb(0,0,0)" stroke-width="0.6000000000000002" fill="rgb(0,0,0)" stroke-linecap="butt" stroke-miterlimit="10.0"><path d="M 151.88600762236896,10.71783489498877 c 0.0,-2.06711763801175 -1.675729939519703,-3.7428475775314536 -3.7428475775314527 -3.7428475775314536c -2.06711763801175,-1.2657444994260632e-16 -3.7428475775314536,1.6757299395197027 -3.7428475775314536 3.742847577531452c -2.5314889988521264e-16,2.06711763801175 1.6757299395197025,3.7428475775314536 3.742847577531452 3.7428475775314536c 2.06711763801175,3.7972334982781905e-16 3.7428475775314536,-1.6757299395197023 3.7428475775314545 -3.742847577531452Z"/></g><defs></defs><g stroke-linejoin="miter" stroke-opacity="1.0" fill-opacity="0.0" stroke="rgb(0,0,0)" stroke-width="0.6000000000000002" fill="rgb(0,0,0)" stroke-linecap="butt" stroke-miterlimit="10.0"><path d="M 161.39173835135898,9.669198065179586 c 0.0,-2.6428062476397507 -2.1424177666924242,-4.785224014332176 -4.785224014332175 -4.785224014332176c -2.6428062476397507,-1.618252105969324e-16 -4.785224014332176,2.142417766692424 -4.785224014332176 4.785224014332174c -3.236504211938648e-16,2.6428062476397507 2.142417766692424,4.785224014332176 4.785224014332173 4.785224014332176c 2.6428062476397507,4.854756317907971e-16 4.785224014332176,-2.142417766692424 4.7852240143321785 -4.785224014332174Z"/></g><defs></defs><g stroke-linejoin="miter" stroke-opacity="1.0" fill-opacity="0.0" stroke="rgb(0,0,0)" stroke-width="0.6000000000000002" fill="rgb(0,0,0)" stroke-linecap="butt" stroke-miterlimit="10.0"><path d="M 174.00859617601665,9.031410231196844 c 0.0,-3.4891117691408695 -2.8284839461307323,-6.317595715271603 -6.317595715271601 -6.317595715271603c -3.4891117691408695,-2.1364647799728623e-16 -6.317595715271603,2.828483946130732 -6.317595715271603 6.3175957152716c -4.2729295599457246e-16,3.4891117691408695 2.8284839461307314,6.317595715271603 6.3175957152716 6.317595715271603c 3.4891117691408695,6.409394339918588e-16 6.317595715271603,-2.828483946130731 6.317595715271604 -6.3175957152716Z"/></g><defs></defs><g stroke-linejoin="miter" stroke-opacity="1.0" fill-opacity="0.0" stroke="rgb(0,0,0)" stroke-width="0.6000000000000002" fill="rgb(0,0,0)" stroke-linecap="butt" stroke-miterlimit="10.0"><path d="M 191.37672595202318,9.472068052857466 c 0.0,-4.797863777580258 -3.8894370741093924,-8.68730085168965 -8.687300851689649 -8.68730085168965c -4.797863777580258,-2.937844258979346e-16 -8.68730085168965,3.8894370741093915 -8.68730085168965 8.687300851689647c -5.875688517958692e-16,4.797863777580258 3.8894370741093915,8.68730085168965 8.687300851689647 8.68730085168965c 4.797863777580258,8.813532776938037e-16 8.68730085168965,-3.8894370741093907 8.68730085168965 -8.687300851689647Z"/></g><defs></defs><g stroke-linejoin="miter" stroke-opacity="1.0" fill-opacity="0.0" stroke="rgb(0,0,0)" stroke-width="0.6000000000000002" fill="rgb(0,0,0)" stroke-linecap="butt" stroke-miterlimit="10.0"><path d="M 216.3167950108677,12.624576578706481 c 0.0,-6.951866567858892 -5.635601346090883,-12.587467913949776 -12.587467913949773 -12.587467913949776c -6.951866567858892,-4.256790570213944e-16 -12.587467913949776,5.6356013460908825 -12.587467913949776 12.587467913949771c -8.513581140427888e-16,6.951866567858892 5.635601346090882,12.587467913949776 12.587467913949771 12.587467913949776c 6.951866567858892,1.2770371710641833e-15 12.587467913949776,-5.635601346090882 12.587467913949778 -12.587467913949771Z"/></g><defs></defs><g stroke-linejoin="miter" stroke-opacity="1.0" fill-opacity="0.0" stroke="rgb(0,0,0)" stroke-width="0.6000000000000002" fill="rgb(0,0,0)" stroke-linecap="butt" stroke-miterlimit="10.0"><path d="M 255.30800439154902,9.949293886579241 c 0.0,-1.568303988256475 -1.2713615805229723,-2.8396655687794476 -2.8396655687794468 -2.8396655687794476c -1.568303988256475,-9.603092296541603e-17 -2.8396655687794476,1.271361580522972 -2.8396655687794476 2.8396655687794468c -1.9206184593083205e-16,1.568303988256475 1.2713615805229719,2.8396655687794476 2.8396655687794468 2.8396655687794476c 1.568303988256475,2.8809276889624806e-16 2.8396655687794476,-1.2713615805229719 2.8396655687794476 -2.8396655687794468Z"/></g><defs></defs><g stroke-linejoin="miter" stroke-opacity="1.0" fill-opacity="0.0" stroke="rgb(0,0,0)" stroke-width="0.6000000000000002" fill="rgb(0,0,0)" stroke-linecap="butt" stroke-miterlimit="10.0"><path d="M 273.5579642558767,16.375720019293396 c 0.0,-1.902979282533181 -1.5426695120717888,-3.44564879460497 -3.445648794604969 -3.44564879460497c -1.902979282533181,-1.1652387435989934e-16 -3.44564879460497,1.5426695120717886 -3.44564879460497 3.445648794604969c -2.330477487197987e-16,1.902979282533181 1.5426695120717884,3.44564879460497 3.4456487946049688 3.44564879460497c 1.902979282533181,3.49571623079698e-16 3.44564879460497,-1.5426695120717882 3.4456487946049705 -3.445648794604969Z"/></g><defs></defs><g stroke-linejoin="miter" stroke-opacity="1.0" fill-opacity="0.0" stroke="rgb(0,0,0)" stroke-width="0.6000000000000002" fill="rgb(0,0,0)" stroke-linecap="butt" stroke-miterlimit="10.0"><path d="M 266.6666666666668,16.375720019293396 c 0.0,-3.805958565066362 -3.0853390241435776,-6.89129758920994 -6.891297589209938 -6.89129758920994c -3.805958565066362,-2.330477487197987e-16 -6.89129758920994,3.085339024143577 -6.89129758920994 6.891297589209938c -4.660954974395974e-16,3.805958565066362 3.0853390241435767,6.89129758920994 6.8912975892099375 6.89129758920994c 3.805958565066362,6.99143246159396e-16 6.89129758920994,-3.0853390241435763 6.891297589209941 -6.891297589209938Z"/></g><defs></defs><g stroke-linejoin="miter" stroke-opacity="1.0" fill-opacity="0.0" stroke="rgb(0,0,0)" stroke-width="0.6000000000000002" fill="rgb(0,0,0)" stroke-linecap="butt" stroke-miterlimit="10.0"><path d="M 245.01436228673927,54.36381398821271 c 0.0,-1.3797966355071287 -1.1185461775614278,-2.4983428130685565 -2.498342813068556 -2.4983428130685565c -1.3797966355071287,-8.44881766574046e-17 -2.4983428130685565,1.1185461775614276 -2.4983428130685565 2.498342813068556c -1.689763533148092e-16,1.3797966355071287 1.1185461775614274,2.4983428130685565 2.4983428130685557 2.4983428130685565c 1.3797966355071287,2.534645299722138e-16 2.4983428130685565,-1.1185461775614274 2.4983428130685574 -2.498342813068556Z"/></g><defs></defs><g stroke-linejoin="miter" stroke-opacity="1.0" fill-opacity="0.0" stroke="rgb(0,0,0)" stroke-width="0.6000000000000002" fill="rgb(0,0,0)" stroke-linecap="butt" stroke-miterlimit="10.0"><path d="M 245.20480658310936,46.96956831960192 c 0.0,-2.9632645067877523 -2.4022005141016054,-5.365465020889358 -5.365465020889356 -5.365465020889358c -2.9632645067877523,-1.8144761966322905e-16 -5.365465020889358,2.402200514101605 -5.365465020889358 5.365465020889356c -3.628952393264581e-16,2.9632645067877523 2.4022005141016045,5.365465020889358 5.3654650208893555 5.365465020889358c 2.9632645067877523,5.443428589896871e-16 5.365465020889358,-2.4022005141016045 5.365465020889359 -5.365465020889356Z"/></g><defs></defs><g stroke-linejoin="miter" stroke-opacity="1.0" fill-opacity="0.0" stroke="rgb(0,0,0)" stroke-width="0.6000000000000002" fill="rgb(0,0,0)" stroke-linecap="butt" stroke-miterlimit="10.0"><path d="M 253.66835021129458,22.76142374915389 c 0.0,-10.768157927665104 -8.729316755393235,-19.497474683058343 -19.49747468305834 -19.497474683058343c -10.768157927665104,-6.593595069414133e-16 -19.497474683058343,8.729316755393233 -19.497474683058343 19.497474683058336c -1.3187190138828267e-15,10.768157927665104 8.729316755393231,19.497474683058343 19.497474683058332 19.497474683058343c 10.768157927665104,1.97807852082424e-15 19.497474683058343,-8.729316755393231 19.497474683058353 -19.497474683058336Z"/></g><defs></defs><g stroke-linejoin="miter" stroke-opacity="1.0" fill-opacity="0.0" stroke="rgb(0,0,0)" stroke-width="0.6000000000000002" fill="rgb(0,0,0)" stroke-linecap="butt" stroke-miterlimit="10.0"><path d="M 340.11975313393776,58.275949285992894 c 0.0,-1.2946921111875442 -1.0495553292572737,-2.344247440444818 -2.3442474404448177 -2.344247440444818c -1.2946921111875442,-7.927702749235776e-17 -2.344247440444818,1.0495553292572735 -2.344247440444818 2.3442474404448173c -1.5855405498471552e-16,1.2946921111875442 1.0495553292572735,2.344247440444818 2.344247440444817 2.344247440444818c 1.2946921111875442,2.378310824770733e-16 2.344247440444818,-1.0495553292572732 2.3442474404448186 -2.3442474404448173Z"/></g><defs></defs><g stroke-linejoin="miter" stroke-opacity="1.0" fill-opacity="0.0" stroke="rgb(0,0,0)" stroke-width="0.6000000000000002" fill="rgb(0,0,0)" stroke-linecap="butt" stroke-miterlimit="10.0"><path d="M 357.1429369390814,77.22604292063784 c 0.0,-1.4990599287907127 -1.215228179381725,-2.714288108172438 -2.7142881081724375 -2.714288108172438c -1.4990599287907127,-9.179094717618026e-17 -2.714288108172438,1.215228179381725 -2.714288108172438 2.7142881081724375c -1.8358189435236053e-16,1.4990599287907127 1.2152281793817248,2.714288108172438 2.714288108172437 2.714288108172438c 1.4990599287907127,2.7537284152854083e-16 2.714288108172438,-1.2152281793817248 2.714288108172439 -2.7142881081724375Z"/></g><defs></defs><g stroke-linejoin="miter" stroke-opacity="1.0" fill-opacity="0.0" stroke="rgb(0,0,0)" stroke-width="0.6000000000000002" fill="rgb(0,0,0)" stroke-linecap="butt" stroke-miterlimit="10.0"><path d="M 353.23148259506405,72.9544762405778 c 0.0,-2.2410200488670435 -1.81670569777658,-4.057725746643624 -4.057725746643623 -4.057725746643624c -2.2410200488670435,-1.372229014835035e-16 -4.057725746643624,1.81670569777658 -4.057725746643624 4.057725746643623c -2.74445802967007e-16,2.2410200488670435 1.8167056977765796,4.057725746643624 4.057725746643623 4.057725746643624c 2.2410200488670435,4.1166870445051053e-16 4.057725746643624,-1.8167056977765796 4.057725746643623 -4.057725746643623Z"/></g><defs></defs><g stroke-linejoin="miter" stroke-opacity="1.0" fill-opacity="0.0" stroke="rgb(0,0,0)" stroke-width="0.6000000000000002" fill="rgb(0,0,0)" stroke-linecap="butt" stroke-miterlimit="10.0"><path d="M 346.940498784915,66.96388372060707 c 0.0,-3.69450110744882 -2.994984902405199,-6.689486009854019 -6.689486009854018 -6.689486009854019c -3.69450110744882,-2.2622294778417745e-16 -6.689486009854019,2.9949849024051987 -6.689486009854019 6.689486009854017c -4.524458955683549e-16,3.69450110744882 2.994984902405198,6.689486009854019 6.689486009854017 6.689486009854019c 3.69450110744882,6.786688433525323e-16 6.689486009854019,-2.9949849024051978 6.68948600985402 -6.689486009854017Z"/></g><defs></defs><g stroke-linejoin="miter" stroke-opacity="1.0" fill-opacity="0.0" stroke="rgb(0,0,0)" stroke-width="0.6000000000000002" fill="rgb(0,0,0)" stroke-linecap="butt" stroke-miterlimit="10.0"><path d="M 312.18460125474604,35.942180026904495 c 0.0,-1.5711788197994858 -1.2736920919554675,-2.8448709117549535 -2.844870911754953 -2.8448709117549535c -1.5711788197994858,-9.620695562777782e-17 -2.8448709117549535,1.2736920919554673 -2.8448709117549535 2.844870911754953c -1.9241391125555564e-16,1.5711788197994858 1.2736920919554673,2.8448709117549535 2.8448709117549527 2.8448709117549535c 1.5711788197994858,2.8862086688333346e-16 2.8448709117549535,-1.273692091955467 2.8448709117549544 -2.844870911754953Z"/></g><defs></defs><g stroke-linejoin="miter" stroke-opacity="1.0" fill-opacity="0.0" stroke="rgb(0,0,0)" stroke-width="0.6000000000000002" fill="rgb(0,0,0)" stroke-linecap="butt" stroke-miterlimit="10.0"><path d="M 319.60803887628083,42.38431268154868 c 0.0,-2.9238712506485616 -2.370265970312843,-5.294137220961405 -5.294137220961404 -5.294137220961405c -2.9238712506485616,-1.7903547841128647e-16 -5.294137220961405,2.3702659703128424 -5.294137220961405 5.294137220961403c -3.5807095682257294e-16,2.9238712506485616 2.3702659703128424,5.294137220961405 5.294137220961403 5.294137220961405c 2.9238712506485616,5.371064352338594e-16 5.294137220961405,-2.370265970312842 5.294137220961407 -5.294137220961403Z"/></g><defs></defs><g stroke-linejoin="miter" stroke-opacity="1.0" fill-opacity="0.0" stroke="rgb(0,0,0)" stroke-width="0.6000000000000002" fill="rgb(0,0,0)" stroke-linecap="butt" stroke-miterlimit="10.0"><path d="M 313.4646408139309,69.26655411929242 c 0.0,-2.1538172870424743 -1.7460138918962003,-3.8998311789386753 -3.899831178938675 -3.8998311789386753c -2.1538172870424743,-1.3188327232624014e-16 -3.8998311789386753,1.7460138918962 -3.8998311789386753 3.899831178938674c -2.6376654465248027e-16,2.1538172870424743 1.7460138918961998,3.8998311789386753 3.899831178938674 3.8998311789386753c 2.1538172870424743,3.956498169787204e-16 3.8998311789386753,-1.7460138918961998 3.8998311789386766 -3.899831178938674Z"/></g><defs></defs><g stroke-linejoin="miter" stroke-opacity="1.0" fill-opacity="0.0" stroke="rgb(0,0,0)" stroke-width="0.6000000000000002" fill="rgb(0,0,0)" stroke-linecap="butt" stroke-miterlimit="10.0"><path d="M 335.4348226744634,58.60552260779728 c 0.0,-7.121175719454549 -5.772853532007314,-12.894029251461864 -12.894029251461863 -12.894029251461864c -7.121175719454549,-4.3604625254979314e-16 -12.894029251461864,5.772853532007313 -12.894029251461864 12.89402925146186c -8.720925050995863e-16,7.121175719454549 5.772853532007313,12.894029251461864 12.894029251461859 12.894029251461864c 7.121175719454549,1.3081387576493795e-15 12.894029251461864,-5.772853532007312 12.894029251461866 -12.89402925146186Z"/></g><defs></defs><g stroke-linejoin="miter" stroke-opacity="1.0" fill-opacity="0.0" stroke="rgb(0,0,0)" stroke-width="0.6000000000000002" fill="rgb(0,0,0)" stroke-linecap="butt" stroke-miterlimit="10.0"><path d="M 400.0,200.00000000000006 c 0.0,-110.45694996615872 -89.54305003384131,-200.00000000000006 -200.0 -200.00000000000006c -110.45694996615872,-6.763537510981781e-15 -200.00000000000006,89.54305003384131 -200.00000000000006 199.99999999999997c -1.3527075021963561e-14,110.45694996615872 89.5430500338413,200.00000000000006 199.99999999999997 200.00000000000006c 110.45694996615872,2.0290612532945344e-14 200.00000000000006,-89.54305003384128 200.00000000000009 -199.99999999999997Z"/></g><defs></defs><g stroke-linejoin="miter" stroke-opacity="1.0" fill-opacity="0.0" stroke="rgb(0,0,0)" stroke-width="0.6000000000000002" fill="rgb(0,0,0)" stroke-linecap="butt" stroke-miterlimit="10.0"><path d="M 271.8041085758414,104.10135345162111 c 0.0,-2.1279981146840563 -1.7250833171969122,-3.8530814318809687 -3.853081431880968 -3.8530814318809687c -2.1279981146840563,-1.303023039869716e-16 -3.8530814318809687,1.725083317196912 -3.8530814318809687 3.8530814318809674c -2.606046079739432e-16,2.1279981146840563 1.7250833171969118,3.8530814318809687 3.8530814318809674 3.8530814318809687c 2.1279981146840563,3.9090691196091473e-16 3.8530814318809687,-1.7250833171969115 3.853081431880969 -3.8530814318809674Z"/></g><defs></defs><g stroke-linejoin="miter" stroke-opacity="1.0" fill-opacity="0.0" stroke="rgb(0,0,0)" stroke-width="0.6000000000000002" fill="rgb(0,0,0)" stroke-linecap="butt" stroke-miterlimit="10.0"><path d="M 264.43650813895965,83.67532368147133 c 0.0,-1.847523816836609 -1.497713974724076,-3.3452377915606855 -3.3452377915606846 -3.3452377915606855c -1.847523816836609,-1.131282064318727e-16 -3.3452377915606855,1.4977139747240757 -3.3452377915606855 3.345237791560684c -2.262564128637454e-16,1.847523816836609 1.4977139747240755,3.3452377915606855 3.3452377915606837 3.3452377915606855c 1.847523816836609,3.3938461929561807e-16 3.3452377915606855,-1.4977139747240753 3.3452377915606863 -3.345237791560684Z"/></g><defs></defs><g stroke-linejoin="miter" stroke-opacity="1.0" fill-opacity="0.0" stroke="rgb(0,0,0)" stroke-width="0.6000000000000002" fill="rgb(0,0,0)" stroke-linecap="butt" stroke-miterlimit="10.0"><path d="M 283.06688138490665,87.30356056983132 c 0.0,-1.6982978405314515 -1.3767424191385254,-3.075040259669977 -3.075040259669976 -3.075040259669977c -1.6982978405314515,-1.0399075072028519e-16 -3.075040259669977,1.3767424191385251 -3.075040259669977 3.0750402596699757c -2.0798150144057038e-16,1.6982978405314515 1.376742419138525,3.075040259669977 3.0750402596699757 3.075040259669977c 1.6982978405314515,3.1197225216085564e-16 3.075040259669977,-1.3767424191385247 3.0750402596699775 -3.0750402596699757Z"/></g><defs></defs><g stroke-linejoin="miter" stroke-opacity="1.0" fill-opacity="0.0" stroke="rgb(0,0,0)" stroke-width="0.6000000000000002" fill="rgb(0,0,0)" stroke-linecap="butt" stroke-miterlimit="10.0"><path d="M 277.8879465203897,91.92695173298532 c 0.0,-4.648006302596009 -3.767953587696172,-8.415959890292182 -8.41595989029218 -8.415959890292182c -4.648006302596009,-2.8460830204454634e-16 -8.415959890292182,3.767953587696171 -8.415959890292182 8.415959890292179c -5.692166040890927e-16,4.648006302596009 3.7679535876961703,8.415959890292182 8.415959890292179 8.415959890292182c 4.648006302596009,8.538249061336391e-16 8.415959890292182,-3.7679535876961703 8.415959890292186 -8.415959890292179Z"/></g><defs></defs><g stroke-linejoin="miter" stroke-opacity="1.0" fill-opacity="0.0" stroke="rgb(0,0,0)" stroke-width="0.6000000000000002" fill="rgb(0,0,0)" stroke-linecap="butt" stroke-miterlimit="10.0"><path d="M 310.1765951897506,51.68006543993188 c 0.0,-18.022402492145304 -14.610043900167584,-32.63244639231289 -32.632446392312886 -32.63244639231289c -18.022402492145304,-1.1035538762475514e-15 -32.63244639231289,14.61004390016758 -32.63244639231289 32.63244639231288c -2.207107752495103e-15,18.022402492145304 14.61004390016758,32.63244639231289 32.63244639231288 32.63244639231289c 18.022402492145304,3.310661628742654e-15 32.63244639231289,-14.610043900167579 32.63244639231289 -32.63244639231288Z"/></g><defs></defs><g stroke-linejoin="miter" stroke-opacity="1.0" fill-opacity="0.0" stroke="rgb(0,0,0)" stroke-width="0.6000000000000002" fill="rgb(0,0,0)" stroke-linecap="butt" stroke-miterlimit="10.0"><path d="M 380.8802290397619,128.59547920896833 c 0.0,-31.539204361254285 -25.567576825293276,-57.106781186547565 -57.10678118654755 -57.106781186547565c -31.539204361254285,-1.931219283433215e-15 -57.106781186547565,25.567576825293273 -57.106781186547565 57.10678118654754c -3.86243856686643e-15,31.539204361254285 25.56757682529327,57.106781186547565 57.106781186547536 57.106781186547565c 31.539204361254285,5.793657850299645e-15 57.106781186547565,-25.567576825293266 57.10678118654758 -57.10678118654754Z"/></g><defs></defs><g stroke-linejoin="miter" stroke-opacity="1.0" fill-opacity="0.0" stroke="rgb(0,0,0)" stroke-width="0.6000000000000002" fill="rgb(0,0,0)" stroke-linecap="butt" stroke-miterlimit="10.0"><path d="M 266.66666666666674,128.59547920896833 c 0.0,-63.07840872250857 -51.13515365058655,-114.21356237309513 -114.2135623730951 -114.21356237309513c -63.07840872250857,-3.86243856686643e-15 -114.21356237309513,51.135153650586545 -114.21356237309513 114.21356237309509c -7.72487713373286e-15,63.07840872250857 51.13515365058654,114.21356237309513 114.21356237309507 114.21356237309513c 63.07840872250857,1.158731570059929e-14 114.21356237309513,-51.13515365058653 114.21356237309516 -114.21356237309509Z"/></g></g></svg>