<?xml version="1.0" encoding="UTF-8"?>
<!DOCTYPE svg PUBLIC "-//W3C//DTD SVG 1.1//EN"
    "http://www.w3.org/Graphics/SVG/1.1/DTD/svg11.dtd"><svg xmlns="http://www.w3.org/2000/svg" height="310.9401076758502" stroke-opacity="1" viewBox="0 0 200 311" font-size="1" width="200.0" xmlns:xlink="http://www.w3.org/1999/xlink" stroke="rgb(0,0,0)" version="1.1"><g><defs></defs><g stroke-linejoin="miter" stroke-opacity="1.0" fill-opacity="0.0" stroke="rgb(0,0,0)" stroke-width="0.9975010499055731" fill="rgb(0,0,0)" stroke-linecap="butt" stroke-miterlimit="10.0"><path d="M 0.0,310.9401076758502 l 2.4691358024691343,4.3996035116985286e-17 l 1.2345679012345676,-2.138334330331946 l 1.2345679012345676,2.138334330331946 l 2.4691358024691343,4.3996035116985286e-17 l 1.2345679012345676,-2.138334330331946 l -1.2345679012345672,-2.1383343303319466 l 2.4691358024691343,4.3996035116985286e-17 l 1.2345679012345676,-2.138334330331946 l 1.2345679012345676,2.138334330331946 l 2.4691358024691343,4.3996035116985286e-17 l -1.2345679012345672,2.1383343303319466 l 1.2345679012345676,2.138334330331946 l 2.4691358024691343,4.3996035116985286e-17 l 1.2345679012345676,-2.138334330331946 l 1.2345679012345676,2.138334330331946 l 2.4691358024691343,4.3996035116985286e-17 l 1.2345679012345676,-2.1383343303319458 l -1.2345679012345667,-2.1383343303319466 l 2.4691358024691343,1.5250548711224236e-16 l 1.2345679012345676,-2.1383343303319458 l -1.2345679012345667,-2.1383343303319466 l -2.4691358024691348,-7.692960563484403e-16 l 1.2345679012345676,-2.1383343303319458 l -1.2345679012345667,-2.1383343303319466 l 2.4691358024691343,1.5250548711224236e-16 l 1.2345679012345676,-2.1383343303319458 l 1.2345679012345672,2.138334330331946 l 2.4691358024691343,1.5250548711224236e-16 l 1.2345679012345676,-2.1383343303319458 l -1.2345679012345667,-2.1383343303319466 l 2.4691358024691343,1.5250548711224236e-16 l 1.2345679012345676,-2.1383343303319458 l 1.2345679012345676,2.1383343303319458 l 2.4691358024691343,-1.5588979750585662e-16 l -1.2345679012345667,2.1383343303319466 l 1.2345679012345676,2.1383343303319458 l 2.4691358024691343,-1.5588979750585662e-16 l 1.2345679012345672,-2.138334330331946 l 1.2345679012345676,2.1383343303319458 l 2.4691358024691343,-1.5588979750585662e-16 l -1.2345679012345667,2.1383343303319466 l 1.2345679012345676,2.1383343303319458 l -2.4691358024691348,7.726803667420546e-16 l -1.2345679012345667,2.1383343303319466 l 1.2345679012345676,2.1383343303319458 l 2.4691358024691343,-1.5588979750585662e-16 l -1.2345679012345667,2.1383343303319466 l 1.2345679012345676,2.1383343303319458 l 2.4691358024691343,4.3996035116985286e-17 l 1.2345679012345676,-2.138334330331946 l 1.2345679012345676,2.138334330331946 l 2.4691358024691343,4.3996035116985286e-17 l 1.2345679012345676,-2.138334330331946 l -1.2345679012345672,-2.1383343303319466 l 2.4691358024691343,4.3996035116985286e-17 l 1.2345679012345676,-2.138334330331946 l 1.2345679012345676,2.138334330331946 l 2.4691358024691343,4.3996035116985286e-17 l -1.2345679012345672,2.1383343303319466 l 1.2345679012345676,2.138334330331946 l 2.4691358024691343,4.3996035116985286e-17 l 1.2345679012345676,-2.138334330331946 l 1.2345679012345676,2.138334330331946 l 2.4691358024691343,4.3996035116985286e-17 l 1.2345679012345674,-2.1383343303319458 l -1.2345679012345667,-2.1383343303319466 h 2.4691358024691348 l 1.2345679012345674,-2.1383343303319458 l -1.2345679012345667,-2.1383343303319466 l -2.4691358024691348,-6.938893903907227e-16 l 1.2345679012345674,-2.1383343303319458 l -1.2345679012345667,-2.1383343303319466 h 2.4691358024691348 l 1.2345679012345674,-2.1383343303319458 l 1.2345679012345676,2.1383343303319466 h 2.4691358024691348 l 1.2345679012345674,-2.1383343303319458 l -1.2345679012345667,-2.1383343303319466 h 2.4691358024691348 l 1.2345679012345674,-2.1383343303319458 l -1.2345679012345667,-2.1383343303319466 l -2.4691358024691348,-9.25185853854297e-16 l 1.2345679012345676,-2.1383343303319458 l -1.2345679012345667,-2.1383343303319466 l -2.4691358024691348,-9.25185853854297e-16 l -1.2345679012345683,2.1383343303319458 l -1.2345679012345667,-2.1383343303319466 l -2.4691358024691348,-9.25185853854297e-16 l 1.2345679012345676,-2.1383343303319458 l -1.2345679012345667,-2.1383343303319466 l 2.4691358024691343,4.625929269271485e-16 l 1.2345679012345676,-2.1383343303319458 l -1.2345679012345667,-2.1383343303319466 l -2.4691358024691348,-9.25185853854297e-16 l 1.2345679012345676,-2.1383343303319458 l -1.2345679012345667,-2.1383343303319466 l 2.4691358024691343,-2.3129646346357425e-16 l 1.2345679012345672,-2.1383343303319458 l 1.2345679012345676,2.138334330331946 l 2.4691358024691343,-2.3129646346357425e-16 l 1.2345679012345672,-2.1383343303319458 l -1.2345679012345672,-2.138334330331946 l 2.4691358024691343,-2.3129646346357425e-16 l 1.2345679012345672,-2.1383343303319458 l 1.2345679012345676,2.138334330331946 l 2.4691358024691343,-2.3129646346357425e-16 l -1.234567901234567,2.1383343303319466 l 1.2345679012345676,2.138334330331946 l 2.4691358024691343,-2.3129646346357425e-16 l 1.2345679012345672,-2.1383343303319458 l 1.2345679012345676,2.138334330331946 l 2.4691358024691343,-2.3129646346357425e-16 l 1.2345679012345674,-2.1383343303319458 l -1.2345679012345667,-2.1383343303319466 h 2.4691358024691348 l 1.2345679012345674,-2.1383343303319458 l -1.2345679012345667,-2.1383343303319466 l -2.4691358024691348,-6.938893903907227e-16 l 1.2345679012345674,-2.1383343303319458 l -1.2345679012345667,-2.1383343303319466 h 2.4691358024691348 l 1.2345679012345674,-2.1383343303319458 l 1.2345679012345676,2.1383343303319466 h 2.4691358024691348 l 1.2345679012345674,-2.1383343303319458 l -1.2345679012345667,-2.1383343303319466 h 2.4691358024691348 l 1.2345679012345674,-2.1383343303319458 l 1.2345679012345674,2.1383343303319458 h 2.4691358024691348 l -1.2345679012345667,2.1383343303319466 l 1.2345679012345674,2.1383343303319458 h 2.4691358024691348 l 1.2345679012345676,-2.1383343303319466 l 1.2345679012345674,2.1383343303319458 h 2.4691358024691348 l -1.2345679012345667,2.1383343303319466 l 1.2345679012345674,2.1383343303319458 l -2.4691358024691348,6.938893903907227e-16 l -1.2345679012345667,2.1383343303319466 l 1.2345679012345674,2.1383343303319458 h 2.4691358024691348 l -1.2345679012345667,2.1383343303319466 l 1.2345679012345674,2.1383343303319458 l 2.4691358024691343,2.3129646346357425e-16 l 1.2345679012345676,-2.138334330331946 l 1.2345679012345672,2.1383343303319458 l 2.4691358024691343,2.3129646346357425e-16 l 1.2345679012345676,-2.138334330331946 l -1.234567901234567,-2.1383343303319466 l 2.4691358024691343,2.3129646346357425e-16 l 1.2345679012345676,-2.138334330331946 l 1.2345679012345672,2.1383343303319458 l 2.4691358024691343,2.3129646346357425e-16 l -1.2345679012345672,2.138334330331946 l 1.2345679012345672,2.1383343303319458 l 2.4691358024691343,2.3129646346357425e-16 l 1.2345679012345676,-2.138334330331946 l 1.2345679012345672,2.1383343303319458 l 2.4691358024691343,2.3129646346357425e-16 l -1.2345679012345667,2.1383343303319466 l 1.2345679012345676,2.1383343303319458 l -2.4691358024691348,9.25185853854297e-16 l -1.2345679012345667,2.1383343303319466 l 1.2345679012345676,2.1383343303319458 l 2.4691358024691343,-4.625929269271485e-16 l -1.2345679012345667,2.1383343303319466 l 1.2345679012345676,2.1383343303319458 l -2.4691358024691348,9.25185853854297e-16 l -1.2345679012345667,2.1383343303319466 l -1.2345679012345683,-2.1383343303319458 l -2.4691358024691348,9.25185853854297e-16 l -1.2345679012345667,2.1383343303319466 l 1.2345679012345676,2.1383343303319458 l -2.4691358024691348,9.25185853854297e-16 l -1.2345679012345667,2.1383343303319466 l 1.2345679012345674,2.1383343303319458 h 2.4691358024691348 l -1.2345679012345667,2.1383343303319466 l 1.2345679012345674,2.1383343303319458 h 2.4691358024691348 l 1.2345679012345676,-2.1383343303319466 l 1.2345679012345674,2.1383343303319458 h 2.4691358024691348 l -1.2345679012345667,2.1383343303319466 l 1.2345679012345674,2.1383343303319458 l -2.4691358024691348,6.938893903907227e-16 l -1.2345679012345667,2.1383343303319466 l 1.2345679012345674,2.1383343303319458 h 2.4691358024691348 l -1.2345679012345667,2.1383343303319466 l 1.2345679012345674,2.1383343303319458 l 2.4691358024691343,4.3996035116985286e-17 l 1.2345679012345676,-2.138334330331946 l 1.2345679012345676,2.138334330331946 l 2.4691358024691343,4.3996035116985286e-17 l 1.2345679012345676,-2.138334330331946 l -1.2345679012345672,-2.1383343303319466 l 2.4691358024691343,4.3996035116985286e-17 l 1.2345679012345676,-2.138334330331946 l 1.2345679012345676,2.138334330331946 l 2.4691358024691343,4.3996035116985286e-17 l -1.2345679012345672,2.1383343303319466 l 1.2345679012345676,2.138334330331946 l 2.4691358024691343,4.3996035116985286e-17 l 1.2345679012345676,-2.138334330331946 l 1.2345679012345676,2.138334330331946 l 2.4691358024691343,4.3996035116985286e-17 l 1.2345679012345676,-2.1383343303319458 l -1.2345679012345667,-2.1383343303319466 l 2.4691358024691343,1.5250548711224236e-16 l 1.2345679012345676,-2.1383343303319458 l -1.2345679012345667,-2.1383343303319466 l -2.4691358024691348,-7.692960563484403e-16 l 1.2345679012345676,-2.1383343303319458 l -1.2345679012345667,-2.1383343303319466 l 2.4691358024691343,1.5250548711224236e-16 l 1.2345679012345676,-2.1383343303319458 l 1.2345679012345672,2.138334330331946 l 2.4691358024691343,1.5250548711224236e-16 l 1.2345679012345676,-2.1383343303319458 l -1.2345679012345667,-2.1383343303319466 l 2.4691358024691343,1.5250548711224236e-16 l 1.2345679012345676,-2.1383343303319458 l 1.2345679012345676,2.1383343303319458 l 2.4691358024691343,-1.5588979750585662e-16 l -1.2345679012345667,2.1383343303319466 l 1.2345679012345676,2.1383343303319458 l 2.4691358024691343,-1.5588979750585662e-16 l 1.2345679012345672,-2.138334330331946 l 1.2345679012345676,2.1383343303319458 l 2.4691358024691343,-1.5588979750585662e-16 l -1.2345679012345667,2.1383343303319466 l 1.2345679012345676,2.1383343303319458 l -2.4691358024691348,7.726803667420546e-16 l -1.2345679012345667,2.1383343303319466 l 1.2345679012345676,2.1383343303319458 l 2.4691358024691343,-1.5588979750585662e-16 l -1.2345679012345667,2.1383343303319466 l 1.2345679012345676,2.1383343303319458 l 2.4691358024691343,4.3996035116985286e-17 l 1.2345679012345676,-2.138334330331946 l 1.2345679012345676,2.138334330331946 l 2.4691358024691343,4.3996035116985286e-17 l 1.2345679012345676,-2.138334330331946 l -1.2345679012345672,-2.1383343303319466 l 2.4691358024691343,4.3996035116985286e-17 l 1.2345679012345676,-2.138334330331946 l 1.2345679012345676,2.138334330331946 l 2.4691358024691343,4.3996035116985286e-17 l -1.2345679012345672,2.1383343303319466 l 1.2345679012345676,2.138334330331946 l 2.4691358024691343,4.3996035116985286e-17 l 1.2345679012345676,-2.138334330331946 l 1.2345679012345676,2.138334330331946 l 2.4691358024691343,4.3996035116985286e-17 "/></g><defs></defs><g stroke-linejoin="miter" stroke-opacity="1.0" fill-opacity="0.0" stroke="rgb(0,0,0)" stroke-width="0.9975010499055731" fill="rgb(0,0,0)" stroke-linecap="butt" stroke-miterlimit="10.0"><path d="M 0.0,233.20508075688767 l 7.407407407407404,1.3706457094137724e-16 l 3.703703703703703,-6.4150029909958395 l 3.703703703703703,6.4150029909958395 l 7.407407407407404,1.3706457094137724e-16 l 3.703703703703703,-6.4150029909958395 l -3.7037037037037015,-6.41500299099584 l 7.407407407407404,1.3706457094137724e-16 l 3.703703703703703,-6.4150029909958395 l 3.703703703703703,6.4150029909958395 l 7.407407407407404,1.3706457094137724e-16 l -3.7037037037037015,6.41500299099584 l 3.703703703703703,6.4150029909958395 l 7.407407407407404,1.3706457094137724e-16 l 3.703703703703703,-6.4150029909958395 l 3.703703703703703,6.4150029909958395 l 7.407407407407404,1.3706457094137724e-16 l 3.703703703703703,-6.415002990995839 l -3.7037037037037006,-6.415002990995841 l 7.407407407407404,4.625929269271485e-16 l 3.703703703703703,-6.415002990995839 l -3.7037037037037006,-6.415002990995841 l -7.407407407407405,-2.3129646346357423e-15 l 3.703703703703703,-6.415002990995839 l -3.7037037037037006,-6.415002990995841 l 7.407407407407404,4.625929269271485e-16 l 3.703703703703703,-6.415002990995839 l 3.703703703703702,6.4150029909958395 l 7.407407407407404,4.625929269271485e-16 l 3.703703703703703,-6.415002990995839 l -3.7037037037037006,-6.415002990995841 l 7.407407407407404,4.625929269271485e-16 l 3.703703703703703,-6.415002990995839 l 3.703703703703703,6.415002990995839 l 7.407407407407404,-4.625929269271485e-16 l -3.7037037037037006,6.415002990995841 l 3.703703703703703,6.415002990995839 l 7.407407407407404,-4.625929269271485e-16 l 3.703703703703702,-6.4150029909958395 l 3.703703703703703,6.415002990995839 l 7.407407407407404,-4.625929269271485e-16 l -3.7037037037037006,6.415002990995841 l 3.703703703703703,6.415002990995839 l -7.407407407407405,2.3129646346357423e-15 l -3.7037037037037006,6.415002990995841 l 3.703703703703703,6.415002990995839 l 7.407407407407404,-4.625929269271485e-16 l -3.7037037037037006,6.415002990995841 l 3.703703703703703,6.415002990995839 l 7.407407407407404,1.3706457094137724e-16 l 3.703703703703703,-6.4150029909958395 l 3.703703703703703,6.4150029909958395 l 7.407407407407404,1.3706457094137724e-16 l 3.703703703703703,-6.4150029909958395 l -3.7037037037037015,-6.41500299099584 l 7.407407407407404,1.3706457094137724e-16 l 3.703703703703703,-6.4150029909958395 l 3.703703703703703,6.4150029909958395 l 7.407407407407404,1.3706457094137724e-16 l -3.7037037037037015,6.41500299099584 l 3.703703703703703,6.4150029909958395 l 7.407407407407404,1.3706457094137724e-16 l 3.703703703703703,-6.4150029909958395 l 3.703703703703703,6.4150029909958395 l 7.407407407407404,1.3706457094137724e-16 "/></g><defs></defs><g stroke-linejoin="miter" stroke-opacity="1.0" fill-opacity="0.0" stroke="rgb(0,0,0)" stroke-width="0.9975010499055731" fill="rgb(0,0,0)" stroke-linecap="butt" stroke-miterlimit="10.0"><path d="M 0.0,155.47005383792512 h 22.222222222222218 l 11.11111111111111,-19.24500897298752 l 11.11111111111111,19.24500897298752 h 22.222222222222218 l 11.11111111111111,-19.24500897298752 l -11.111111111111107,-19.245008972987524 h 22.222222222222218 l 11.11111111111111,-19.24500897298752 l 11.11111111111111,19.24500897298752 h 22.222222222222218 l -11.111111111111107,19.245008972987524 l 11.11111111111111,19.24500897298752 h 22.222222222222218 l 11.11111111111111,-19.24500897298752 l 11.11111111111111,19.24500897298752 h 22.222222222222218 "/></g><defs></defs><g stroke-linejoin="miter" stroke-opacity="1.0" fill-opacity="0.0" stroke="rgb(0,0,0)" stroke-width="0.9975010499055731" fill="rgb(0,0,0)" stroke-linecap="butt" stroke-miterlimit="10.0"><path d="M 0.0,77.73502691896256 h 66.66666666666666 l 33.333333333333336,-57.73502691896257 l 33.333333333333336,57.73502691896257 h 66.66666666666666 "/></g><defs></defs><g stroke-linejoin="miter" stroke-opacity="1.0" fill-opacity="0.0" stroke="rgb(0,0,0)" stroke-width="0.9975010499055731" fill="rgb(0,0,0)" stroke-linecap="butt" stroke-miterlimit="10.0"><path d="M 0.0,0.0 h 66.66666666666666 "/></g></g></svg>