<svg xmlns="http://www.w3.org/2000/svg" height="79.0306" stroke-opacity="1" viewBox="0 0 300 79" font-size="1" width="300.0000" xmlns:xlink="http://www.w3.org/1999/xlink" stroke="rgb(0,0,0)" version="1.1"><defs></defs><g stroke-linejoin="miter" stroke-opacity="1.0" fill-opacity="0.0" stroke="rgb(0,0,0)" stroke-width="0.6159114501893695" fill="rgb(0,0,0)" stroke-linecap="butt" stroke-miterlimit="10.0"><path d="M 150.0000,9.5795 l 47.6120,19.9572 "/></g><g stroke-linejoin="miter" stroke-opacity="1.0" fill-opacity="0.0" stroke="rgb(0,0,0)" stroke-width="0.6159114501893695" fill="rgb(0,0,0)" stroke-linecap="butt" stroke-miterlimit="10.0"><path d="M 150.0000,9.5795 l -47.6120,19.9572 "/></g><g stroke-linejoin="miter" stroke-opacity="1.0" fill-opacity="0.0" stroke="rgb(0,0,0)" stroke-width="0.6159114501893695" fill="rgb(0,0,0)" stroke-linecap="butt" stroke-miterlimit="10.0"><path d="M 197.6120,29.5367 l 43.4304,19.9572 "/></g><g stroke-linejoin="miter" stroke-opacity="1.0" fill-opacity="0.0" stroke="rgb(0,0,0)" stroke-width="0.6159114501893695" fill="rgb(0,0,0)" stroke-linecap="butt" stroke-miterlimit="10.0"><path d="M 197.6120,29.5367 l -13.9177,19.9572 "/></g><g stroke-linejoin="miter" stroke-opacity="1.0" fill-opacity="0.0" stroke="rgb(0,0,0)" stroke-width="0.6159114501893695" fill="rgb(0,0,0)" stroke-linecap="butt" stroke-miterlimit="10.0"><path d="M 241.0424,49.4939 l 39.3340,19.9572 "/></g><g stroke-linejoin="miter" stroke-opacity="1.0" fill-opacity="0.0" stroke="rgb(0,0,0)" stroke-width="0.6159114501893695" fill="rgb(0,0,0)" stroke-linecap="butt" stroke-miterlimit="10.0"><path d="M 241.0424,49.4939 l 4.1749,19.9572 "/></g><g stroke-linejoin="miter" stroke-opacity="1.0" fill-opacity="1.0" stroke="rgb(0,0,0)" stroke-width="0.6159114501893695" fill="rgb(255,255,255)" stroke-linecap="butt" stroke-miterlimit="10.0"><path d="M 286.3636,69.4511 c 0.0000,-3.3066 -2.6805,-5.9872 -5.9872 -5.9872c -3.3066,-0.0000 -5.9872,2.6805 -5.9872 5.9872c -0.0000,3.3066 2.6805,5.9872 5.9872 5.9872c 3.3066,0.0000 5.9872,-2.6805 5.9872 -5.9872Z"/></g><g stroke-linejoin="miter" stroke-opacity="1.0" fill-opacity="1.0" font-size="9.978612017949612px" stroke="rgb(0,0,0)" stroke-width="0.6159114501893695" fill="rgb(0,0,0)" stroke-linecap="butt" stroke-miterlimit="10.0"><text dominant-baseline="middle" transform="matrix(1.0000,0.0000,0.0000,1.0000,280.3765,69.4511)" stroke="none" text-anchor="middle">1</text></g><g stroke-linejoin="miter" stroke-opacity="1.0" fill-opacity="1.0" stroke="rgb(0,0,0)" stroke-width="0.6159114501893695" fill="rgb(255,255,255)" stroke-linecap="butt" stroke-miterlimit="10.0"><path d="M 251.2045,69.4511 c 0.0000,-3.3066 -2.6805,-5.9872 -5.9872 -5.9872c -3.3066,-0.0000 -5.9872,2.6805 -5.9872 5.9872c -0.0000,3.3066 2.6805,5.9872 5.9872 5.9872c 3.3066,0.0000 5.9872,-2.6805 5.9872 -5.9872Z"/></g><g stroke-linejoin="miter" stroke-opacity="1.0" fill-opacity="1.0" font-size="9.978612017949612px" stroke="rgb(0,0,0)" stroke-width="0.6159114501893695" fill="rgb(0,0,0)" stroke-linecap="butt" stroke-miterlimit="10.0"><text dominant-baseline="middle" transform="matrix(1.0000,0.0000,0.0000,1.0000,245.2173,69.4511)" stroke="none" text-anchor="middle">1</text></g><g stroke-linejoin="miter" stroke-opacity="1.0" fill-opacity="1.0" stroke="rgb(0,0,0)" stroke-width="0.6159114501893695" fill="rgb(255,255,255)" stroke-linecap="butt" stroke-miterlimit="10.0"><path d="M 247.0296,49.4939 c 0.0000,-3.3066 -2.6805,-5.9872 -5.9872 -5.9872c -3.3066,-0.0000 -5.9872,2.6805 -5.9872 5.9872c -0.0000,3.3066 2.6805,5.9872 5.9872 5.9872c 3.3066,0.0000 5.9872,-2.6805 5.9872 -5.9872Z"/></g><g stroke-linejoin="miter" stroke-opacity="1.0" fill-opacity="1.0" font-size="9.978612017949612px" stroke="rgb(0,0,0)" stroke-width="0.6159114501893695" fill="rgb(0,0,0)" stroke-linecap="butt" stroke-miterlimit="10.0"><text dominant-baseline="middle" transform="matrix(1.0000,0.0000,0.0000,1.0000,241.0424,49.4939)" stroke="none" text-anchor="middle">2</text></g><g stroke-linejoin="miter" stroke-opacity="1.0" fill-opacity="0.0" stroke="rgb(0,0,0)" stroke-width="0.6159114501893695" fill="rgb(0,0,0)" stroke-linecap="butt" stroke-miterlimit="10.0"><path d="M 183.6943,49.4939 l 22.3396,19.9572 "/></g><g stroke-linejoin="miter" stroke-opacity="1.0" fill-opacity="0.0" stroke="rgb(0,0,0)" stroke-width="0.6159114501893695" fill="rgb(0,0,0)" stroke-linecap="butt" stroke-miterlimit="10.0"><path d="M 183.6943,49.4939 l -15.6884,19.9572 "/></g><g stroke-linejoin="miter" stroke-opacity="1.0" fill-opacity="1.0" stroke="rgb(0,0,0)" stroke-width="0.6159114501893695" fill="rgb(255,255,255)" stroke-linecap="butt" stroke-miterlimit="10.0"><path d="M 212.0211,69.4511 c 0.0000,-3.3066 -2.6805,-5.9872 -5.9872 -5.9872c -3.3066,-0.0000 -5.9872,2.6805 -5.9872 5.9872c -0.0000,3.3066 2.6805,5.9872 5.9872 5.9872c 3.3066,0.0000 5.9872,-2.6805 5.9872 -5.9872Z"/></g><g stroke-linejoin="miter" stroke-opacity="1.0" fill-opacity="1.0" font-size="9.978612017949612px" stroke="rgb(0,0,0)" stroke-width="0.6159114501893695" fill="rgb(0,0,0)" stroke-linecap="butt" stroke-miterlimit="10.0"><text dominant-baseline="middle" transform="matrix(1.0000,0.0000,0.0000,1.0000,206.0339,69.4511)" stroke="none" text-anchor="middle">1</text></g><g stroke-linejoin="miter" stroke-opacity="1.0" fill-opacity="1.0" stroke="rgb(0,0,0)" stroke-width="0.6159114501893695" fill="rgb(255,255,255)" stroke-linecap="butt" stroke-miterlimit="10.0"><path d="M 173.9930,69.4511 c 0.0000,-3.3066 -2.6805,-5.9872 -5.9872 -5.9872c -3.3066,-0.0000 -5.9872,2.6805 -5.9872 5.9872c -0.0000,3.3066 2.6805,5.9872 5.9872 5.9872c 3.3066,0.0000 5.9872,-2.6805 5.9872 -5.9872Z"/></g><g stroke-linejoin="miter" stroke-opacity="1.0" fill-opacity="1.0" font-size="9.978612017949612px" stroke="rgb(0,0,0)" stroke-width="0.6159114501893695" fill="rgb(0,0,0)" stroke-linecap="butt" stroke-miterlimit="10.0"><text dominant-baseline="middle" transform="matrix(1.0000,0.0000,0.0000,1.0000,168.0059,69.4511)" stroke="none" text-anchor="middle">1</text></g><g stroke-linejoin="miter" stroke-opacity="1.0" fill-opacity="1.0" stroke="rgb(0,0,0)" stroke-width="0.6159114501893695" fill="rgb(255,255,255)" stroke-linecap="butt" stroke-miterlimit="10.0"><path d="M 189.6815,49.4939 c 0.0000,-3.3066 -2.6805,-5.9872 -5.9872 -5.9872c -3.3066,-0.0000 -5.9872,2.6805 -5.9872 5.9872c -0.0000,3.3066 2.6805,5.9872 5.9872 5.9872c 3.3066,0.0000 5.9872,-2.6805 5.9872 -5.9872Z"/></g><g stroke-linejoin="miter" stroke-opacity="1.0" fill-opacity="1.0" font-size="9.978612017949612px" stroke="rgb(0,0,0)" stroke-width="0.6159114501893695" fill="rgb(0,0,0)" stroke-linecap="butt" stroke-miterlimit="10.0"><text dominant-baseline="middle" transform="matrix(1.0000,0.0000,0.0000,1.0000,183.6943,49.4939)" stroke="none" text-anchor="middle">2</text></g><g stroke-linejoin="miter" stroke-opacity="1.0" fill-opacity="1.0" stroke="rgb(0,0,0)" stroke-width="0.6159114501893695" fill="rgb(255,255,255)" stroke-linecap="butt" stroke-miterlimit="10.0"><path d="M 203.5992,29.5367 c 0.0000,-3.3066 -2.6805,-5.9872 -5.9872 -5.9872c -3.3066,-0.0000 -5.9872,2.6805 -5.9872 5.9872c -0.0000,3.3066 2.6805,5.9872 5.9872 5.9872c 3.3066,0.0000 5.9872,-2.6805 5.9872 -5.9872Z"/></g><g stroke-linejoin="miter" stroke-opacity="1.0" fill-opacity="1.0" font-size="9.978612017949612px" stroke="rgb(0,0,0)" stroke-width="0.6159114501893695" fill="rgb(0,0,0)" stroke-linecap="butt" stroke-miterlimit="10.0"><text dominant-baseline="middle" transform="matrix(1.0000,0.0000,0.0000,1.0000,197.6120,29.5367)" stroke="none" text-anchor="middle">3</text></g><g stroke-linejoin="miter" stroke-opacity="1.0" fill-opacity="0.0" stroke="rgb(0,0,0)" stroke-width="0.6159114501893695" fill="rgb(0,0,0)" stroke-linecap="butt" stroke-miterlimit="10.0"><path d="M 102.3880,29.5367 l 13.9177,19.9572 "/></g><g stroke-linejoin="miter" stroke-opacity="1.0" fill-opacity="0.0" stroke="rgb(0,0,0)" stroke-width="0.6159114501893695" fill="rgb(0,0,0)" stroke-linecap="butt" stroke-miterlimit="10.0"><path d="M 102.3880,29.5367 l -43.4304,19.9572 "/></g><g stroke-linejoin="miter" stroke-opacity="1.0" fill-opacity="0.0" stroke="rgb(0,0,0)" stroke-width="0.6159114501893695" fill="rgb(0,0,0)" stroke-linecap="butt" stroke-miterlimit="10.0"><path d="M 116.3057,49.4939 l 15.6884,19.9572 "/></g><g stroke-linejoin="miter" stroke-opacity="1.0" fill-opacity="0.0" stroke="rgb(0,0,0)" stroke-width="0.6159114501893695" fill="rgb(0,0,0)" stroke-linecap="butt" stroke-miterlimit="10.0"><path d="M 116.3057,49.4939 l -22.3396,19.9572 "/></g><g stroke-linejoin="miter" stroke-opacity="1.0" fill-opacity="1.0" stroke="rgb(0,0,0)" stroke-width="0.6159114501893695" fill="rgb(255,255,255)" stroke-linecap="butt" stroke-miterlimit="10.0"><path d="M 137.9813,69.4511 c 0.0000,-3.3066 -2.6805,-5.9872 -5.9872 -5.9872c -3.3066,-0.0000 -5.9872,2.6805 -5.9872 5.9872c -0.0000,3.3066 2.6805,5.9872 5.9872 5.9872c 3.3066,0.0000 5.9872,-2.6805 5.9872 -5.9872Z"/></g><g stroke-linejoin="miter" stroke-opacity="1.0" fill-opacity="1.0" font-size="9.978612017949612px" stroke="rgb(0,0,0)" stroke-width="0.6159114501893695" fill="rgb(0,0,0)" stroke-linecap="butt" stroke-miterlimit="10.0"><text dominant-baseline="middle" transform="matrix(1.0000,0.0000,0.0000,1.0000,131.9941,69.4511)" stroke="none" text-anchor="middle">1</text></g><g stroke-linejoin="miter" stroke-opacity="1.0" fill-opacity="1.0" stroke="rgb(0,0,0)" stroke-width="0.6159114501893695" fill="rgb(255,255,255)" stroke-linecap="butt" stroke-miterlimit="10.0"><path d="M 99.9532,69.4511 c 0.0000,-3.3066 -2.6805,-5.9872 -5.9872 -5.9872c -3.3066,-0.0000 -5.9872,2.6805 -5.9872 5.9872c -0.0000,3.3066 2.6805,5.9872 5.9872 5.9872c 3.3066,0.0000 5.9872,-2.6805 5.9872 -5.9872Z"/></g><g stroke-linejoin="miter" stroke-opacity="1.0" fill-opacity="1.0" font-size="9.978612017949612px" stroke="rgb(0,0,0)" stroke-width="0.6159114501893695" fill="rgb(0,0,0)" stroke-linecap="butt" stroke-miterlimit="10.0"><text dominant-baseline="middle" transform="matrix(1.0000,0.0000,0.0000,1.0000,93.9661,69.4511)" stroke="none" text-anchor="middle">1</text></g><g stroke-linejoin="miter" stroke-opacity="1.0" fill-opacity="1.0" stroke="rgb(0,0,0)" stroke-width="0.6159114501893695" fill="rgb(255,255,255)" stroke-linecap="butt" stroke-miterlimit="10.0"><path d="M 122.2929,49.4939 c 0.0000,-3.3066 -2.6805,-5.9872 -5.9872 -5.9872c -3.3066,-0.0000 -5.9872,2.6805 -5.9872 5.9872c -0.0000,3.3066 2.6805,5.9872 5.9872 5.9872c 3.3066,0.0000 5.9872,-2.6805 5.9872 -5.9872Z"/></g><g stroke-linejoin="miter" stroke-opacity="1.0" fill-opacity="1.0" font-size="9.978612017949612px" stroke="rgb(0,0,0)" stroke-width="0.6159114501893695" fill="rgb(0,0,0)" stroke-linecap="butt" stroke-miterlimit="10.0"><text dominant-baseline="middle" transform="matrix(1.0000,0.0000,0.0000,1.0000,116.3057,49.4939)" stroke="none" text-anchor="middle">2</text></g><g stroke-linejoin="miter" stroke-opacity="1.0" fill-opacity="0.0" stroke="rgb(0,0,0)" stroke-width="0.6159114501893695" fill="rgb(0,0,0)" stroke-linecap="butt" stroke-miterlimit="10.0"><path d="M 58.9576,49.4939 l -4.1749,19.9572 "/></g><g stroke-linejoin="miter" stroke-opacity="1.0" fill-opacity="0.0" stroke="rgb(0,0,0)" stroke-width="0.6159114501893695" fill="rgb(0,0,0)" stroke-linecap="butt" stroke-miterlimit="10.0"><path d="M 58.9576,49.4939 l -39.3340,19.9572 "/></g><g stroke-linejoin="miter" stroke-opacity="1.0" fill-opacity="1.0" stroke="rgb(0,0,0)" stroke-width="0.6159114501893695" fill="rgb(255,255,255)" stroke-linecap="butt" stroke-miterlimit="10.0"><path d="M 60.7698,69.4511 c 0.0000,-3.3066 -2.6805,-5.9872 -5.9872 -5.9872c -3.3066,-0.0000 -5.9872,2.6805 -5.9872 5.9872c -0.0000,3.3066 2.6805,5.9872 5.9872 5.9872c 3.3066,0.0000 5.9872,-2.6805 5.9872 -5.9872Z"/></g><g stroke-linejoin="miter" stroke-opacity="1.0" fill-opacity="1.0" font-size="9.978612017949612px" stroke="rgb(0,0,0)" stroke-width="0.6159114501893695" fill="rgb(0,0,0)" stroke-linecap="butt" stroke-miterlimit="10.0"><text dominant-baseline="middle" transform="matrix(1.0000,0.0000,0.0000,1.0000,54.7827,69.4511)" stroke="none" text-anchor="middle">1</text></g><g stroke-linejoin="miter" stroke-opacity="1.0" fill-opacity="1.0" stroke="rgb(0,0,0)" stroke-width="0.6159114501893695" fill="rgb(255,255,255)" stroke-linecap="butt" stroke-miterlimit="10.0"><path d="M 25.6107,69.4511 c 0.0000,-3.3066 -2.6805,-5.9872 -5.9872 -5.9872c -3.3066,-0.0000 -5.9872,2.6805 -5.9872 5.9872c -0.0000,3.3066 2.6805,5.9872 5.9872 5.9872c 3.3066,0.0000 5.9872,-2.6805 5.9872 -5.9872Z"/></g><g stroke-linejoin="miter" stroke-opacity="1.0" fill-opacity="1.0" font-size="9.978612017949612px" stroke="rgb(0,0,0)" stroke-width="0.6159114501893695" fill="rgb(0,0,0)" stroke-linecap="butt" stroke-miterlimit="10.0"><text dominant-baseline="middle" transform="matrix(1.0000,0.0000,0.0000,1.0000,19.6235,69.4511)" stroke="none" text-anchor="middle">1</text></g><g stroke-linejoin="miter" stroke-opacity="1.0" fill-opacity="1.0" stroke="rgb(0,0,0)" stroke-width="0.6159114501893695" fill="rgb(255,255,255)" stroke-linecap="butt" stroke-miterlimit="10.0"><path d="M 64.9447,49.4939 c 0.0000,-3.3066 -2.6805,-5.9872 -5.9872 -5.9872c -3.3066,-0.0000 -5.9872,2.6805 -5.9872 5.9872c -0.0000,3.3066 2.6805,5.9872 5.9872 5.9872c 3.3066,0.0000 5.9872,-2.6805 5.9872 -5.9872Z"/></g><g stroke-linejoin="miter" stroke-opacity="1.0" fill-opacity="1.0" font-size="9.978612017949612px" stroke="rgb(0,0,0)" stroke-width="0.6159114501893695" fill="rgb(0,0,0)" stroke-linecap="butt" stroke-miterlimit="10.0"><text dominant-baseline="middle" transform="matrix(1.0000,0.0000,0.0000,1.0000,58.9576,49.4939)" stroke="none" text-anchor="middle">2</text></g><g stroke-linejoin="miter" stroke-opacity="1.0" fill-opacity="1.0" stroke="rgb(0,0,0)" stroke-width="0.6159114501893695" fill="rgb(255,255,255)" stroke-linecap="butt" stroke-miterlimit="10.0"><path d="M 108.3752,29.5367 c 0.0000,-3.3066 -2.6805,-5.9872 -5.9872 -5.9872c -3.3066,-0.0000 -5.9872,2.6805 -5.9872 5.9872c -0.0000,3.3066 2.6805,5.9872 5.9872 5.9872c 3.3066,0.0000 5.9872,-2.6805 5.9872 -5.9872Z"/></g><g stroke-linejoin="miter" stroke-opacity="1.0" fill-opacity="1.0" font-size="9.978612017949612px" stroke="rgb(0,0,0)" stroke-width="0.6159114501893695" fill="rgb(0,0,0)" stroke-linecap="butt" stroke-miterlimit="10.0"><text dominant-baseline="middle" transform="matrix(1.0000,0.0000,0.0000,1.0000,102.3880,29.5367)" stroke="none" text-anchor="middle">3</text></g><g stroke-linejoin="miter" stroke-opacity="1.0" fill-opacity="1.0" stroke="rgb(0,0,0)" stroke-width="0.6159114501893695" fill="rgb(255,255,255)" stroke-linecap="butt" stroke-miterlimit="10.0"><path d="M 155.9872,9.5795 c 0.0000,-3.3066 -2.6805,-5.9872 -5.9872 -5.9872c -3.3066,-0.0000 -5.9872,2.6805 -5.9872 5.9872c -0.0000,3.3066 2.6805,5.9872 5.9872 5.9872c 3.3066,0.0000 5.9872,-2.6805 5.9872 -5.9872Z"/></g><g stroke-linejoin="miter" stroke-opacity="1.0" fill-opacity="1.0" font-size="9.978612017949612px" stroke="rgb(0,0,0)" stroke-width="0.6159114501893695" fill="rgb(0,0,0)" stroke-linecap="butt" stroke-miterlimit="10.0"><text dominant-baseline="middle" transform="matrix(1.0000,0.0000,0.0000,1.0000,150.0000,9.5795)" stroke="none" text-anchor="middle">4</text></g></svg>