<svg xmlns="http://www.w3.org/2000/svg" height="126.5102" stroke-opacity="1" viewBox="0 0 400 127" font-size="1" width="400.0000" xmlns:xlink="http://www.w3.org/1999/xlink" stroke="rgb(0,0,0)" version="1.1"><defs></defs><g stroke-linejoin="miter" stroke-opacity="1.0" fill-opacity="0.0" stroke="rgb(0,0,0)" stroke-width="0.8998140140868814" fill="rgb(0,0,0)" stroke-linecap="butt" stroke-miterlimit="10.0"><path d="M 264.4068,92.6119 l 3.7665,-6.5237 l 3.7665,6.5237 l 3.7665,-6.5237 l -7.5330,0.0000 l 3.7665,-6.5237 l -7.5330,0.0000 l 3.7665,-6.5237 l 3.7665,6.5237 l 3.7665,-6.5237 l 3.7665,6.5237 l -7.5330,0.0000 l 3.7665,6.5237 l 3.7665,-6.5237 l 3.7665,6.5237 l 3.7665,-6.5237 l 3.7665,6.5237 l -7.5330,0.0000 l 3.7665,6.5237 l 3.7665,-6.5237 l 3.7665,6.5237 l 3.7665,-6.5237 l -7.5330,0.0000 l 3.7665,-6.5237 l -7.5330,0.0000 l 3.7665,-6.5237 l 3.7665,6.5237 l 3.7665,-6.5237 l -7.5330,-0.0000 l 3.7665,-6.5237 l -7.5330,-0.0000 l 3.7665,6.5237 l -7.5330,0.0000 l 3.7665,6.5237 l -7.5330,-0.0000 l 3.7665,-6.5237 l -7.5330,-0.0000 l 3.7665,-6.5237 l 3.7665,6.5237 l 3.7665,-6.5237 l -7.5330,0.0000 l 3.7665,-6.5237 l -7.5330,0.0000 l 3.7665,-6.5237 l 3.7665,6.5237 l 3.7665,-6.5237 l -7.5330,-0.0000 l 3.7665,-6.5237 l -7.5330,-0.0000 l 3.7665,6.5237 l -7.5330,0.0000 l 3.7665,6.5237 l -7.5330,-0.0000 l 3.7665,-6.5237 l -7.5330,-0.0000 l 3.7665,-6.5237 l 3.7665,6.5237 l 3.7665,-6.5237 l -7.5330,0.0000 l 3.7665,-6.5237 l -7.5330,0.0000 l 3.7665,-6.5237 l 3.7665,6.5237 l 3.7665,-6.5237 l 3.7665,6.5237 l -7.5330,0.0000 l 3.7665,6.5237 l 3.7665,-6.5237 l 3.7665,6.5237 l 3.7665,-6.5237 l 3.7665,6.5237 l -7.5330,0.0000 l 3.7665,6.5237 l 3.7665,-6.5237 l 3.7665,6.5237 l 3.7665,-6.5237 l -7.5330,0.0000 l 3.7665,-6.5237 l -7.5330,0.0000 l 3.7665,-6.5237 l 3.7665,6.5237 l 3.7665,-6.5237 l 3.7665,6.5237 l -7.5330,0.0000 l 3.7665,6.5237 l 3.7665,-6.5237 l 3.7665,6.5237 l 3.7665,-6.5237 l 3.7665,6.5237 l -7.5330,0.0000 l 3.7665,6.5237 l -7.5330,0.0000 l 3.7665,-6.5237 l -7.5330,0.0000 l 3.7665,6.5237 l -7.5330,0.0000 l 3.7665,6.5237 l -7.5330,0.0000 l 3.7665,-6.5237 l -7.5330,0.0000 l 3.7665,6.5237 l -7.5330,0.0000 l 3.7665,6.5237 l 3.7665,-6.5237 l 3.7665,6.5237 l 3.7665,-6.5237 l 3.7665,6.5237 l -7.5330,0.0000 l 3.7665,6.5237 l 3.7665,-6.5237 l 3.7665,6.5237 l 3.7665,-6.5237 l -7.5330,0.0000 l 3.7665,-6.5237 l -7.5330,0.0000 l 3.7665,-6.5237 l 3.7665,6.5237 l 3.7665,-6.5237 l 3.7665,6.5237 l -7.5330,0.0000 l 3.7665,6.5237 l 3.7665,-6.5237 l 3.7665,6.5237 l 3.7665,-6.5237 l 3.7665,6.5237 l -7.5330,0.0000 l 3.7665,6.5237 l 3.7665,-6.5237 l 3.7665,6.5237 l 3.7665,-6.5237 l -7.5330,0.0000 l 3.7665,-6.5237 l -7.5330,0.0000 l 3.7665,-6.5237 l 3.7665,6.5237 l 3.7665,-6.5237 l 3.7665,6.5237 l -7.5330,0.0000 l 3.7665,6.5237 l 3.7665,-6.5237 l 3.7665,6.5237 l 3.7665,-6.5237 l 3.7665,6.5237 l -7.5330,0.0000 l 3.7665,6.5237 l -7.5330,0.0000 l 3.7665,-6.5237 l -7.5330,0.0000 l 3.7665,6.5237 l -7.5330,0.0000 l 3.7665,6.5237 l -7.5330,0.0000 l 3.7665,-6.5237 l -7.5330,0.0000 l 3.7665,6.5237 l -7.5330,0.0000 l 3.7665,6.5237 l 3.7665,-6.5237 l 3.7665,6.5237 l 3.7665,-6.5237 l 3.7665,6.5237 l -7.5330,0.0000 l 3.7665,6.5237 l 3.7665,-6.5237 l 3.7665,6.5237 l 3.7665,-6.5237 l -7.5330,0.0000 l 3.7665,-6.5237 l -7.5330,0.0000 l 3.7665,-6.5237 l 3.7665,6.5237 l 3.7665,-6.5237 l 3.7665,6.5237 l -7.5330,0.0000 l 3.7665,6.5237 l 3.7665,-6.5237 l 3.7665,6.5237 l 3.7665,-6.5237 l 3.7665,6.5237 l -7.5330,0.0000 l 3.7665,6.5237 l 3.7665,-6.5237 l 3.7665,6.5237 l 3.7665,-6.5237 l -7.5330,0.0000 l 3.7665,-6.5237 l -7.5330,0.0000 l 3.7665,-6.5237 l 3.7665,6.5237 l 3.7665,-6.5237 l -7.5330,-0.0000 l 3.7665,-6.5237 l -7.5330,-0.0000 l 3.7665,6.5237 l -7.5330,0.0000 l 3.7665,6.5237 l -7.5330,-0.0000 l 3.7665,-6.5237 l -7.5330,-0.0000 l 3.7665,-6.5237 l 3.7665,6.5237 l 3.7665,-6.5237 l -7.5330,0.0000 l 3.7665,-6.5237 l -7.5330,0.0000 l 3.7665,-6.5237 l 3.7665,6.5237 l 3.7665,-6.5237 l -7.5330,-0.0000 l 3.7665,-6.5237 l -7.5330,-0.0000 l 3.7665,6.5237 l -7.5330,0.0000 l 3.7665,6.5237 l -7.5330,-0.0000 l 3.7665,-6.5237 l -7.5330,-0.0000 l 3.7665,-6.5237 l 3.7665,6.5237 l 3.7665,-6.5237 l -7.5330,0.0000 l 3.7665,-6.5237 l -7.5330,0.0000 l 3.7665,-6.5237 l 3.7665,6.5237 l 3.7665,-6.5237 l 3.7665,6.5237 l -7.5330,0.0000 l 3.7665,6.5237 l 3.7665,-6.5237 l 3.7665,6.5237 l 3.7665,-6.5237 l 3.7665,6.5237 l -7.5330,0.0000 l 3.7665,6.5237 l 3.7665,-6.5237 l 3.7665,6.5237 l 3.7665,-6.5237 l -7.5330,0.0000 l 3.7665,-6.5237 l -7.5330,0.0000 l 3.7665,-6.5237 l 3.7665,6.5237 l 3.7665,-6.5237 "/></g><g stroke-linejoin="miter" stroke-opacity="1.0" fill-opacity="0.0" stroke="rgb(0,0,0)" stroke-width="0.8998140140868814" fill="rgb(0,0,0)" stroke-linecap="butt" stroke-miterlimit="10.0"><path d="M 149.1525,92.6119 l 33.8983,-19.5712 l -33.8983,-19.5712 l 33.8983,-19.5712 l 0.0000,39.1424 l 33.8983,-19.5712 l 0.0000,39.1424 l 33.8983,-19.5712 l -33.8983,-19.5712 l 33.8983,-19.5712 "/></g><g stroke-linejoin="miter" stroke-opacity="1.0" fill-opacity="0.0" stroke="rgb(0,0,0)" stroke-width="0.8998140140868814" fill="rgb(0,0,0)" stroke-linecap="butt" stroke-miterlimit="10.0"><path d="M 135.5932,33.8983 l -30.6540,53.0942 "/></g><g stroke-linejoin="miter" stroke-opacity="1.0" fill-opacity="1.0" stroke="rgb(0,0,0)" stroke-width="0.0" fill="rgb(0,0,0)" stroke-linecap="butt" stroke-miterlimit="10.0"></g><g stroke-linejoin="miter" stroke-opacity="1.0" fill-opacity="1.0" stroke="rgb(0,0,0)" stroke-width="0.0" fill="rgb(0,0,0)" stroke-linecap="butt" stroke-miterlimit="10.0"></g><g stroke-linejoin="miter" stroke-opacity="1.0" fill-opacity="1.0" stroke="rgb(0,0,0)" stroke-width="0.0" fill="rgb(0,0,0)" stroke-linecap="butt" stroke-miterlimit="10.0"><path d="M 100.6129,93.5861 l 6.9738,-6.2792 l -3.2736,-0.1296 Z"/></g><g stroke-linejoin="miter" stroke-opacity="1.0" fill-opacity="1.0" stroke="rgb(0,0,0)" stroke-width="0.0" fill="rgb(0,0,0)" stroke-linecap="butt" stroke-miterlimit="10.0"><path d="M 104.3131,87.1772 l 0.2365,-0.4097 l 0.7793,0.4499 Z"/></g><g stroke-linejoin="miter" stroke-opacity="1.0" fill-opacity="0.0" stroke="rgb(0,0,0)" stroke-width="0.8998140140868814" fill="rgb(0,0,0)" stroke-linecap="butt" stroke-miterlimit="10.0"><path d="M 101.6949,92.6119 l -30.6540,-53.0942 "/></g><g stroke-linejoin="miter" stroke-opacity="1.0" fill-opacity="1.0" stroke="rgb(0,0,0)" stroke-width="0.0" fill="rgb(0,0,0)" stroke-linecap="butt" stroke-miterlimit="10.0"></g><g stroke-linejoin="miter" stroke-opacity="1.0" fill-opacity="1.0" stroke="rgb(0,0,0)" stroke-width="0.0" fill="rgb(0,0,0)" stroke-linecap="butt" stroke-miterlimit="10.0"></g><g stroke-linejoin="miter" stroke-opacity="1.0" fill-opacity="1.0" stroke="rgb(0,0,0)" stroke-width="0.0" fill="rgb(0,0,0)" stroke-linecap="butt" stroke-miterlimit="10.0"><path d="M 67.4939,32.4742 l 1.9511,9.1791 l 1.7491,-2.7702 Z"/></g><g stroke-linejoin="miter" stroke-opacity="1.0" fill-opacity="1.0" stroke="rgb(0,0,0)" stroke-width="0.0" fill="rgb(0,0,0)" stroke-linecap="butt" stroke-miterlimit="10.0"><path d="M 71.1941,38.8830 l 0.2365,0.4097 l -0.7793,0.4499 Z"/></g><g stroke-linejoin="miter" stroke-opacity="1.0" fill-opacity="0.0" stroke="rgb(0,0,0)" stroke-width="0.8998140140868814" fill="rgb(0,0,0)" stroke-linecap="butt" stroke-miterlimit="10.0"><path d="M 67.7966,33.8983 l -30.6540,53.0942 "/></g><g stroke-linejoin="miter" stroke-opacity="1.0" fill-opacity="1.0" stroke="rgb(0,0,0)" stroke-width="0.0" fill="rgb(0,0,0)" stroke-linecap="butt" stroke-miterlimit="10.0"></g><g stroke-linejoin="miter" stroke-opacity="1.0" fill-opacity="1.0" stroke="rgb(0,0,0)" stroke-width="0.0" fill="rgb(0,0,0)" stroke-linecap="butt" stroke-miterlimit="10.0"></g><g stroke-linejoin="miter" stroke-opacity="1.0" fill-opacity="1.0" stroke="rgb(0,0,0)" stroke-width="0.0" fill="rgb(0,0,0)" stroke-linecap="butt" stroke-miterlimit="10.0"><path d="M 32.8163,93.5861 l 6.9738,-6.2792 l -3.2736,-0.1296 Z"/></g><g stroke-linejoin="miter" stroke-opacity="1.0" fill-opacity="1.0" stroke="rgb(0,0,0)" stroke-width="0.0" fill="rgb(0,0,0)" stroke-linecap="butt" stroke-miterlimit="10.0"><path d="M 36.5165,87.1772 l 0.2365,-0.4097 l 0.7793,0.4499 Z"/></g></svg>