<?xml version="1.0" encoding="UTF-8"?>
<!DOCTYPE svg PUBLIC "-//W3C//DTD SVG 1.1//EN"
    "http://www.w3.org/Graphics/SVG/1.1/DTD/svg11.dtd">
<svg xmlns="http://www.w3.org/2000/svg" xmlns:xlink="http://www.w3.org/1999/xlink" version="1.1" width="300.0" height="299.9999999999999" font-size="1" viewBox="0 0 300 300"><g><g transform="matrix(29.99999999999999,0.0,0.0,29.99999999999999,150.00000000000003,149.99999999999994)"><g stroke="rgb(0,0,0)" stroke-opacity="1.0" fill-opacity="0.0" stroke-width="0.0" font-size="1.0em"><path d="M -4.414213562373095,0.0 l -0.7071067811865479,-0.7071067811865476 h -1.0 l -0.707106781186547,0.7071067811865476 v 1.0 l 0.707106781186547,0.7071067811865475 h 1.0 l 0.7071067811865479,-0.7071067811865475 " /></g></g><g transform="matrix(29.99999999999999,0.0,0.0,29.99999999999999,150.00000000000003,149.99999999999994)"><g stroke="rgb(0,0,0)" stroke-opacity="1.0" fill-opacity="0.0" stroke-width="0.0" font-size="1.0em"><path d="M -4.414213562373095,-3.414213562373095 l -0.7071067811865479,-0.7071067811865479 h -1.0 l -0.707106781186547,0.7071067811865479 v 1.0 l 0.707106781186547,0.7071067811865475 h 1.0 l 0.7071067811865479,-0.7071067811865475 " /></g></g><g transform="matrix(29.99999999999999,0.0,0.0,29.99999999999999,150.00000000000003,149.99999999999994)"><g stroke="rgb(0,0,0)" stroke-opacity="1.0" fill-opacity="0.0" stroke-width="0.0" font-size="1.0em"><path d="M 4.121320343559643,-4.121320343559643 h 1.0 v -1.0 h -1.0 " /></g></g><g transform="matrix(29.99999999999999,0.0,0.0,29.99999999999999,150.00000000000003,149.99999999999994)"><g stroke="rgb(0,0,0)" stroke-opacity="1.0" fill-opacity="0.0" stroke-width="0.0" font-size="1.0em"><path d="M 2.414213562373095,4.414213562373095 l -0.7071067811865475,0.7071067811865479 v 1.0 l 0.7071067811865475,0.707106781186547 h 1.0 l 0.7071067811865479,-0.707106781186547 v -1.0 l -0.7071067811865479,-0.7071067811865479 " /></g></g><g transform="matrix(29.99999999999999,0.0,0.0,29.99999999999999,150.00000000000003,149.99999999999994)"><g stroke="rgb(0,0,0)" stroke-opacity="1.0" fill-opacity="0.0" stroke-width="0.0" font-size="1.0em"><path d="M -1.0,4.414213562373095 l -0.7071067811865475,0.7071067811865479 v 1.0 l 0.7071067811865475,0.707106781186547 h 1.0 l 0.7071067811865476,-0.707106781186547 v -1.0 l -0.7071067811865476,-0.7071067811865479 " /></g></g><g transform="matrix(29.99999999999999,0.0,0.0,29.99999999999999,150.00000000000003,149.99999999999994)"><g stroke="rgb(0,0,0)" stroke-opacity="1.0" fill-opacity="0.0" stroke-width="0.0" font-size="1.0em"><path d="M -4.414213562373095,4.414213562373095 l -0.7071067811865479,0.7071067811865479 v 1.0 l 0.7071067811865479,0.707106781186547 h 1.0 l 0.7071067811865475,-0.707106781186547 v -1.0 l -0.7071067811865475,-0.7071067811865479 " /></g></g><g transform="matrix(29.99999999999999,0.0,0.0,29.99999999999999,150.00000000000003,149.99999999999994)"><g stroke="rgb(0,0,0)" stroke-opacity="1.0" fill-opacity="0.0" stroke-width="0.0" font-size="1.0em"><path d="M -4.414213562373095,3.414213562373095 l -0.7071067811865479,-0.7071067811865475 h -1.0 l -0.707106781186547,0.7071067811865475 v 1.0 l 0.707106781186547,0.7071067811865479 h 1.0 l 0.7071067811865479,-0.7071067811865479 " /></g></g><g transform="matrix(29.99999999999999,0.0,0.0,29.99999999999999,150.00000000000003,149.99999999999994)"><g stroke="rgb(0,0,0)" stroke-opacity="1.0" fill-opacity="0.0" stroke-width="0.0" font-size="1.0em"><path d="M -3.414213562373095,3.414213562373095 h -1.0 v 1.0 h 1.0 " /></g></g><g transform="matrix(29.99999999999999,0.0,0.0,29.99999999999999,150.00000000000003,149.99999999999994)"><g stroke="rgb(0,0,0)" stroke-opacity="1.0" fill-opacity="0.0" stroke-width="0.0" font-size="1.0em"><path d="M -1.0,3.414213562373095 l -0.7071067811865475,-0.7071067811865475 h -1.0 l -0.7071067811865475,0.7071067811865475 v 1.0 l 0.7071067811865475,0.7071067811865479 h 1.0 l 0.7071067811865475,-0.7071067811865479 " /></g></g><g transform="matrix(29.99999999999999,0.0,0.0,29.99999999999999,150.00000000000003,149.99999999999994)"><g stroke="rgb(0,0,0)" stroke-opacity="1.0" fill-opacity="0.0" stroke-width="0.0" font-size="1.0em"><path d="M 0.0,3.414213562373095 h -1.0 v 1.0 h 1.0 " /></g></g><g transform="matrix(29.99999999999999,0.0,0.0,29.99999999999999,150.00000000000003,149.99999999999994)"><g stroke="rgb(0,0,0)" stroke-opacity="1.0" fill-opacity="0.0" stroke-width="0.0" font-size="1.0em"><path d="M 2.414213562373095,3.414213562373095 l -0.7071067811865475,-0.7071067811865475 h -0.9999999999999999 l -0.7071067811865476,0.7071067811865475 v 1.0 l 0.7071067811865476,0.7071067811865479 h 0.9999999999999999 l 0.7071067811865475,-0.7071067811865479 " /></g></g><g transform="matrix(29.99999999999999,0.0,0.0,29.99999999999999,150.00000000000003,149.99999999999994)"><g stroke="rgb(0,0,0)" stroke-opacity="1.0" fill-opacity="0.0" stroke-width="0.0" font-size="1.0em"><path d="M 3.414213562373095,3.414213562373095 h -1.0 v 1.0 h 1.0 " /></g></g><g transform="matrix(29.99999999999999,0.0,0.0,29.99999999999999,150.00000000000003,149.99999999999994)"><g stroke="rgb(0,0,0)" stroke-opacity="1.0" fill-opacity="0.0" stroke-width="0.0" font-size="1.0em"><path d="M 4.121320343559643,2.7071067811865475 l -0.7071067811865479,0.7071067811865475 v 1.0 l 0.7071067811865479,0.7071067811865479 h 1.0 l 0.707106781186547,-0.7071067811865479 v -1.0 l -0.707106781186547,-0.7071067811865475 " /></g></g><g transform="matrix(29.99999999999999,0.0,0.0,29.99999999999999,150.00000000000003,149.99999999999994)"><g stroke="rgb(0,0,0)" stroke-opacity="1.0" fill-opacity="0.0" stroke-width="0.0" font-size="1.0em"><path d="M 4.121320343559643,1.7071067811865475 v 1.0 h 1.0 v -1.0 " /></g></g><g transform="matrix(29.99999999999999,0.0,0.0,29.99999999999999,150.00000000000003,149.99999999999994)"><g stroke="rgb(0,0,0)" stroke-opacity="1.0" fill-opacity="0.0" stroke-width="0.0" font-size="1.0em"><path d="M 4.121320343559643,-0.7071067811865476 l -0.7071067811865479,0.7071067811865476 v 1.0 l 0.7071067811865479,0.7071067811865475 h 1.0 l 0.707106781186547,-0.7071067811865475 v -1.0 l -0.707106781186547,-0.7071067811865476 " /></g></g><g transform="matrix(29.99999999999999,0.0,0.0,29.99999999999999,150.00000000000003,149.99999999999994)"><g stroke="rgb(0,0,0)" stroke-opacity="1.0" fill-opacity="0.0" stroke-width="0.0" font-size="1.0em"><path d="M 4.121320343559643,-1.7071067811865475 v 0.9999999999999999 h 1.0 v -0.9999999999999999 " /></g></g><g transform="matrix(29.99999999999999,0.0,0.0,29.99999999999999,150.00000000000003,149.99999999999994)"><g stroke="rgb(0,0,0)" stroke-opacity="1.0" fill-opacity="0.0" stroke-width="0.0" font-size="1.0em"><path d="M 3.414213562373095,-2.414213562373095 l 0.7071067811865479,0.7071067811865475 h 1.0 l 0.707106781186547,-0.7071067811865475 v -1.0 l -0.707106781186547,-0.7071067811865479 h -1.0 l -0.7071067811865479,0.7071067811865479 " /></g></g><g transform="matrix(29.99999999999999,0.0,0.0,29.99999999999999,150.00000000000003,149.99999999999994)"><g stroke="rgb(0,0,0)" stroke-opacity="1.0" fill-opacity="0.0" stroke-width="0.0" font-size="1.0em"><path d="M 2.414213562373095,-3.414213562373095 v 1.0 h 1.0 v -1.0 " /></g></g><g transform="matrix(29.99999999999999,0.0,0.0,29.99999999999999,150.00000000000003,149.99999999999994)"><g stroke="rgb(0,0,0)" stroke-opacity="1.0" fill-opacity="0.0" stroke-width="0.0" font-size="1.0em"><path d="M 1.7071067811865475,-4.121320343559643 l 0.7071067811865475,0.7071067811865479 h 1.0 l 0.7071067811865479,-0.7071067811865479 v -1.0 l -0.7071067811865479,-0.707106781186547 h -1.0 l -0.7071067811865475,0.707106781186547 " /></g></g><g transform="matrix(29.99999999999999,0.0,0.0,29.99999999999999,150.00000000000003,149.99999999999994)"><g stroke="rgb(0,0,0)" stroke-opacity="1.0" fill-opacity="0.0" stroke-width="0.0" font-size="1.0em"><path d="M 0.7071067811865476,-4.121320343559643 h 0.9999999999999999 v -1.0 h -0.9999999999999999 " /></g></g><g transform="matrix(29.99999999999999,0.0,0.0,29.99999999999999,150.00000000000003,149.99999999999994)"><g stroke="rgb(0,0,0)" stroke-opacity="1.0" fill-opacity="0.0" stroke-width="0.0" font-size="1.0em"><path d="M -1.7071067811865475,-4.121320343559643 l 0.7071067811865475,0.7071067811865479 h 1.0 l 0.7071067811865476,-0.7071067811865479 v -1.0 l -0.7071067811865476,-0.707106781186547 h -1.0 l -0.7071067811865475,0.707106781186547 " /></g></g><g transform="matrix(29.99999999999999,0.0,0.0,29.99999999999999,150.00000000000003,149.99999999999994)"><g stroke="rgb(0,0,0)" stroke-opacity="1.0" fill-opacity="0.0" stroke-width="0.0" font-size="1.0em"><path d="M -2.7071067811865475,-4.121320343559643 h 1.0 v -1.0 h -1.0 " /></g></g><g transform="matrix(29.99999999999999,0.0,0.0,29.99999999999999,150.00000000000003,149.99999999999994)"><g stroke="rgb(0,0,0)" stroke-opacity="1.0" fill-opacity="0.0" stroke-width="0.0" font-size="1.0em"><path d="M -3.414213562373095,-3.414213562373095 l 0.7071067811865475,-0.7071067811865479 v -1.0 l -0.7071067811865475,-0.707106781186547 h -1.0 l -0.7071067811865479,0.707106781186547 v 1.0 l 0.7071067811865479,0.7071067811865479 " /></g></g><g transform="matrix(29.99999999999999,0.0,0.0,29.99999999999999,150.00000000000003,149.99999999999994)"><g stroke="rgb(0,0,0)" stroke-opacity="1.0" fill-opacity="0.0" stroke-width="0.0" font-size="1.0em"><path d="M -3.414213562373095,-2.414213562373095 v -1.0 h -1.0 v 1.0 " /></g></g><g transform="matrix(29.99999999999999,0.0,0.0,29.99999999999999,150.00000000000003,149.99999999999994)"><g stroke="rgb(0,0,0)" stroke-opacity="1.0" fill-opacity="0.0" stroke-width="0.0" font-size="1.0em"><path d="M -3.414213562373095,0.0 l 0.7071067811865475,-0.7071067811865476 v -0.9999999999999999 l -0.7071067811865475,-0.7071067811865475 h -1.0 l -0.7071067811865479,0.7071067811865475 v 0.9999999999999999 l 0.7071067811865479,0.7071067811865476 " /></g></g><g transform="matrix(29.99999999999999,0.0,0.0,29.99999999999999,150.00000000000003,149.99999999999994)"><g stroke="rgb(0,0,0)" stroke-opacity="1.0" fill-opacity="0.0" stroke-width="0.0" font-size="1.0em"><path d="M -3.414213562373095,1.0 v -1.0 h -1.0 v 1.0 " /></g></g><g transform="matrix(29.99999999999999,0.0,0.0,29.99999999999999,150.00000000000003,149.99999999999994)"><g stroke="rgb(0,0,0)" stroke-opacity="1.0" fill-opacity="0.0" stroke-width="0.0" font-size="1.0em"><path d="M -2.7071067811865475,1.7071067811865475 l -0.7071067811865475,-0.7071067811865475 h -1.0 l -0.7071067811865479,0.7071067811865475 v 1.0 l 0.7071067811865479,0.7071067811865475 h 1.0 l 0.7071067811865475,-0.7071067811865475 " /></g></g><g transform="matrix(29.99999999999999,0.0,0.0,29.99999999999999,150.00000000000003,149.99999999999994)"><g stroke="rgb(0,0,0)" stroke-opacity="1.0" fill-opacity="0.0" stroke-width="0.0" font-size="1.0em"><path d="M -1.7071067811865475,1.7071067811865475 h -1.0 v 1.0 h 1.0 " /></g></g><g transform="matrix(29.99999999999999,0.0,0.0,29.99999999999999,150.00000000000003,149.99999999999994)"><g stroke="rgb(0,0,0)" stroke-opacity="1.0" fill-opacity="0.0" stroke-width="0.0" font-size="1.0em"><path d="M 0.7071067811865476,1.7071067811865475 l -0.7071067811865476,-0.7071067811865475 h -1.0 l -0.7071067811865475,0.7071067811865475 v 1.0 l 0.7071067811865475,0.7071067811865475 h 1.0 l 0.7071067811865476,-0.7071067811865475 " /></g></g><g transform="matrix(29.99999999999999,0.0,0.0,29.99999999999999,150.00000000000003,149.99999999999994)"><g stroke="rgb(0,0,0)" stroke-opacity="1.0" fill-opacity="0.0" stroke-width="0.0" font-size="1.0em"><path d="M 1.7071067811865475,1.7071067811865475 h -0.9999999999999999 v 1.0 h 0.9999999999999999 " /></g></g><g transform="matrix(29.99999999999999,0.0,0.0,29.99999999999999,150.00000000000003,149.99999999999994)"><g stroke="rgb(0,0,0)" stroke-opacity="1.0" fill-opacity="0.0" stroke-width="0.0" font-size="1.0em"><path d="M 2.414213562373095,1.0 l -0.7071067811865475,0.7071067811865475 v 1.0 l 0.7071067811865475,0.7071067811865475 h 1.0 l 0.7071067811865479,-0.7071067811865475 v -1.0 l -0.7071067811865479,-0.7071067811865475 " /></g></g><g transform="matrix(29.99999999999999,0.0,0.0,29.99999999999999,150.00000000000003,149.99999999999994)"><g stroke="rgb(0,0,0)" stroke-opacity="1.0" fill-opacity="0.0" stroke-width="0.0" font-size="1.0em"><path d="M 2.414213562373095,0.0 v 1.0 h 1.0 v -1.0 " /></g></g><g transform="matrix(29.99999999999999,0.0,0.0,29.99999999999999,150.00000000000003,149.99999999999994)"><g stroke="rgb(0,0,0)" stroke-opacity="1.0" fill-opacity="0.0" stroke-width="0.0" font-size="1.0em"><path d="M 1.7071067811865475,-0.7071067811865476 l 0.7071067811865475,0.7071067811865476 h 1.0 l 0.7071067811865479,-0.7071067811865476 v -0.9999999999999999 l -0.7071067811865479,-0.7071067811865475 h -1.0 l -0.7071067811865475,0.7071067811865475 " /></g></g><g transform="matrix(29.99999999999999,0.0,0.0,29.99999999999999,150.00000000000003,149.99999999999994)"><g stroke="rgb(0,0,0)" stroke-opacity="1.0" fill-opacity="0.0" stroke-width="0.0" font-size="1.0em"><path d="M 0.7071067811865476,-1.7071067811865475 v 0.9999999999999999 h 0.9999999999999999 v -0.9999999999999999 " /></g></g><g transform="matrix(29.99999999999999,0.0,0.0,29.99999999999999,150.00000000000003,149.99999999999994)"><g stroke="rgb(0,0,0)" stroke-opacity="1.0" fill-opacity="0.0" stroke-width="0.0" font-size="1.0em"><path d="M 0.0,-2.414213562373095 l 0.7071067811865476,0.7071067811865475 h 0.9999999999999999 l 0.7071067811865475,-0.7071067811865475 v -1.0 l -0.7071067811865475,-0.7071067811865479 h -0.9999999999999999 l -0.7071067811865476,0.7071067811865479 " /></g></g><g transform="matrix(29.99999999999999,0.0,0.0,29.99999999999999,150.00000000000003,149.99999999999994)"><g stroke="rgb(0,0,0)" stroke-opacity="1.0" fill-opacity="0.0" stroke-width="0.0" font-size="1.0em"><path d="M -1.0,-2.414213562373095 h 1.0 v -1.0 h -1.0 " /></g></g><g transform="matrix(29.99999999999999,0.0,0.0,29.99999999999999,150.00000000000003,149.99999999999994)"><g stroke="rgb(0,0,0)" stroke-opacity="1.0" fill-opacity="0.0" stroke-width="0.0" font-size="1.0em"><path d="M -1.7071067811865475,-1.7071067811865475 l 0.7071067811865475,-0.7071067811865475 v -1.0 l -0.7071067811865475,-0.7071067811865479 h -1.0 l -0.7071067811865475,0.7071067811865479 v 1.0 l 0.7071067811865475,0.7071067811865475 " /></g></g><g transform="matrix(29.99999999999999,0.0,0.0,29.99999999999999,150.00000000000003,149.99999999999994)"><g stroke="rgb(0,0,0)" stroke-opacity="1.0" fill-opacity="0.0" stroke-width="0.0" font-size="1.0em"><path d="M -1.7071067811865475,-0.7071067811865476 v -0.9999999999999999 h -1.0 v 0.9999999999999999 " /></g></g><g transform="matrix(29.99999999999999,0.0,0.0,29.99999999999999,150.00000000000003,149.99999999999994)"><g stroke="rgb(0,0,0)" stroke-opacity="1.0" fill-opacity="0.0" stroke-width="0.0" font-size="1.0em"><path d="M -1.0,0.0 l -0.7071067811865475,-0.7071067811865476 h -1.0 l -0.7071067811865475,0.7071067811865476 v 1.0 l 0.7071067811865475,0.7071067811865475 h 1.0 l 0.7071067811865475,-0.7071067811865475 " /></g></g><g transform="matrix(29.99999999999999,0.0,0.0,29.99999999999999,150.00000000000003,149.99999999999994)"><g stroke="rgb(0,0,0)" stroke-opacity="1.0" fill-opacity="0.0" stroke-width="0.0" font-size="1.0em"><path d="M 0.0,0.0 v 1.0 l 0.7071067811865476,0.7071067811865475 h 0.9999999999999999 l 0.7071067811865475,-0.7071067811865475 v -1.0 l -0.7071067811865475,-0.7071067811865476 h -0.9999999999999999 " /></g></g><g transform="matrix(29.99999999999999,0.0,0.0,29.99999999999999,150.00000000000003,149.99999999999994)"><g stroke="rgb(0,0,0)" stroke-opacity="1.0" fill-opacity="0.0" stroke-width="0.0" font-size="1.0em"><path d="M 0.0,0.0 h -1.0 v 1.0 h 1.0 " /></g></g><g transform="matrix(29.99999999999999,0.0,0.0,29.99999999999999,150.00000000000003,149.99999999999994)"><g stroke="rgb(0,0,0)" stroke-opacity="1.0" fill-opacity="0.0" stroke-width="0.0" font-size="1.0em"><path d="M 0.0,0.0 l 0.7071067811865476,-0.7071067811865476 v -0.9999999999999999 l -0.7071067811865476,-0.7071067811865475 h -1.0 l -0.7071067811865475,0.7071067811865475 v 0.9999999999999999 l 0.7071067811865475,0.7071067811865476 " /></g></g><g transform="matrix(29.99999999999999,0.0,0.0,29.99999999999999,150.00000000000003,149.99999999999994)"><g stroke="rgb(0,0,0)" stroke-opacity="1.0" fill-opacity="0.0" stroke-width="2.0e-2" font-size="1.0em"><path d="M -5.121320343559643,1.7071067811865475 l 0.7071067811865479,-0.7071067811865475 " /></g></g><g transform="matrix(29.99999999999999,0.0,0.0,29.99999999999999,150.00000000000003,149.99999999999994)"><g stroke="rgb(0,0,0)" stroke-opacity="1.0" fill-opacity="0.0" stroke-width="2.0e-2" font-size="1.0em"><path d="M -4.414213562373095,1.0 v -1.0 " /></g></g><g transform="matrix(29.99999999999999,0.0,0.0,29.99999999999999,150.00000000000003,149.99999999999994)"><g stroke="rgb(0,0,0)" stroke-opacity="1.0" fill-opacity="0.0" stroke-width="2.0e-2" font-size="1.0em"><path d="M -5.121320343559643,-0.7071067811865476 l 0.7071067811865479,0.7071067811865476 " /></g></g><g transform="matrix(29.99999999999999,0.0,0.0,29.99999999999999,150.00000000000003,149.99999999999994)"><g stroke="rgb(0,0,0)" stroke-opacity="1.0" fill-opacity="0.0" stroke-width="2.0e-2" font-size="1.0em"><path d="M -5.121320343559643,-1.7071067811865475 l 0.7071067811865479,-0.7071067811865475 " /></g></g><g transform="matrix(29.99999999999999,0.0,0.0,29.99999999999999,150.00000000000003,149.99999999999994)"><g stroke="rgb(0,0,0)" stroke-opacity="1.0" fill-opacity="0.0" stroke-width="2.0e-2" font-size="1.0em"><path d="M -4.414213562373095,-2.414213562373095 v -1.0 " /></g></g><g transform="matrix(29.99999999999999,0.0,0.0,29.99999999999999,150.00000000000003,149.99999999999994)"><g stroke="rgb(0,0,0)" stroke-opacity="1.0" fill-opacity="0.0" stroke-width="2.0e-2" font-size="1.0em"><path d="M -5.121320343559643,-4.121320343559643 l 0.7071067811865479,0.7071067811865479 " /></g></g><g transform="matrix(29.99999999999999,0.0,0.0,29.99999999999999,150.00000000000003,149.99999999999994)"><g stroke="rgb(0,0,0)" stroke-opacity="1.0" fill-opacity="0.0" stroke-width="2.0e-2" font-size="1.0em"><path d="M 4.121320343559643,-4.121320343559643 h 1.0 " /></g></g><g transform="matrix(29.99999999999999,0.0,0.0,29.99999999999999,150.00000000000003,149.99999999999994)"><g stroke="rgb(0,0,0)" stroke-opacity="1.0" fill-opacity="0.0" stroke-width="2.0e-2" font-size="1.0em"><path d="M 4.121320343559643,-4.121320343559643 v -1.0 " /></g></g><g transform="matrix(29.99999999999999,0.0,0.0,29.99999999999999,150.00000000000003,149.99999999999994)"><g stroke="rgb(0,0,0)" stroke-opacity="1.0" fill-opacity="0.0" stroke-width="2.0e-2" font-size="1.0em"><path d="M 3.414213562373095,-3.414213562373095 l 0.7071067811865479,-0.7071067811865479 " /></g></g><g transform="matrix(29.99999999999999,0.0,0.0,29.99999999999999,150.00000000000003,149.99999999999994)"><g stroke="rgb(0,0,0)" stroke-opacity="1.0" fill-opacity="0.0" stroke-width="2.0e-2" font-size="1.0em"><path d="M 3.414213562373095,4.414213562373095 l 0.7071067811865479,0.7071067811865479 " /></g></g><g transform="matrix(29.99999999999999,0.0,0.0,29.99999999999999,150.00000000000003,149.99999999999994)"><g stroke="rgb(0,0,0)" stroke-opacity="1.0" fill-opacity="0.0" stroke-width="2.0e-2" font-size="1.0em"><path d="M 2.414213562373095,4.414213562373095 h 1.0 " /></g></g><g transform="matrix(29.99999999999999,0.0,0.0,29.99999999999999,150.00000000000003,149.99999999999994)"><g stroke="rgb(0,0,0)" stroke-opacity="1.0" fill-opacity="0.0" stroke-width="2.0e-2" font-size="1.0em"><path d="M 1.7071067811865475,5.121320343559643 l 0.7071067811865475,-0.7071067811865479 " /></g></g><g transform="matrix(29.99999999999999,0.0,0.0,29.99999999999999,150.00000000000003,149.99999999999994)"><g stroke="rgb(0,0,0)" stroke-opacity="1.0" fill-opacity="0.0" stroke-width="2.0e-2" font-size="1.0em"><path d="M 0.0,4.414213562373095 l 0.7071067811865476,0.7071067811865479 " /></g></g><g transform="matrix(29.99999999999999,0.0,0.0,29.99999999999999,150.00000000000003,149.99999999999994)"><g stroke="rgb(0,0,0)" stroke-opacity="1.0" fill-opacity="0.0" stroke-width="2.0e-2" font-size="1.0em"><path d="M -1.0,4.414213562373095 h 1.0 " /></g></g><g transform="matrix(29.99999999999999,0.0,0.0,29.99999999999999,150.00000000000003,149.99999999999994)"><g stroke="rgb(0,0,0)" stroke-opacity="1.0" fill-opacity="0.0" stroke-width="2.0e-2" font-size="1.0em"><path d="M -1.7071067811865475,5.121320343559643 l 0.7071067811865475,-0.7071067811865479 " /></g></g><g transform="matrix(29.99999999999999,0.0,0.0,29.99999999999999,150.00000000000003,149.99999999999994)"><g stroke="rgb(0,0,0)" stroke-opacity="1.0" fill-opacity="0.0" stroke-width="2.0e-2" font-size="1.0em"><path d="M -3.414213562373095,4.414213562373095 l 0.7071067811865475,0.7071067811865479 " /></g></g><g transform="matrix(29.99999999999999,0.0,0.0,29.99999999999999,150.00000000000003,149.99999999999994)"><g stroke="rgb(0,0,0)" stroke-opacity="1.0" fill-opacity="0.0" stroke-width="2.0e-2" font-size="1.0em"><path d="M -4.414213562373095,4.414213562373095 h 1.0 " /></g></g><g transform="matrix(29.99999999999999,0.0,0.0,29.99999999999999,150.00000000000003,149.99999999999994)"><g stroke="rgb(0,0,0)" stroke-opacity="1.0" fill-opacity="0.0" stroke-width="2.0e-2" font-size="1.0em"><path d="M -5.121320343559643,5.121320343559643 l 0.7071067811865479,-0.7071067811865479 " /></g></g><g transform="matrix(29.99999999999999,0.0,0.0,29.99999999999999,150.00000000000003,149.99999999999994)"><g stroke="rgb(0,0,0)" stroke-opacity="1.0" fill-opacity="0.0" stroke-width="2.0e-2" font-size="1.0em"><path d="M -4.414213562373095,4.414213562373095 v -1.0 " /></g></g><g transform="matrix(29.99999999999999,0.0,0.0,29.99999999999999,150.00000000000003,149.99999999999994)"><g stroke="rgb(0,0,0)" stroke-opacity="1.0" fill-opacity="0.0" stroke-width="2.0e-2" font-size="1.0em"><path d="M -5.121320343559643,2.7071067811865475 l 0.7071067811865479,0.7071067811865475 " /></g></g><g transform="matrix(29.99999999999999,0.0,0.0,29.99999999999999,150.00000000000003,149.99999999999994)"><g stroke="rgb(0,0,0)" stroke-opacity="1.0" fill-opacity="0.0" stroke-width="2.0e-2" font-size="1.0em"><path d="M -3.414213562373095,4.414213562373095 v -1.0 " /></g></g><g transform="matrix(29.99999999999999,0.0,0.0,29.99999999999999,150.00000000000003,149.99999999999994)"><g stroke="rgb(0,0,0)" stroke-opacity="1.0" fill-opacity="0.0" stroke-width="2.0e-2" font-size="1.0em"><path d="M -4.414213562373095,3.414213562373095 h 1.0 " /></g></g><g transform="matrix(29.99999999999999,0.0,0.0,29.99999999999999,150.00000000000003,149.99999999999994)"><g stroke="rgb(0,0,0)" stroke-opacity="1.0" fill-opacity="0.0" stroke-width="2.0e-2" font-size="1.0em"><path d="M -3.414213562373095,3.414213562373095 l 0.7071067811865475,-0.7071067811865475 " /></g></g><g transform="matrix(29.99999999999999,0.0,0.0,29.99999999999999,150.00000000000003,149.99999999999994)"><g stroke="rgb(0,0,0)" stroke-opacity="1.0" fill-opacity="0.0" stroke-width="2.0e-2" font-size="1.0em"><path d="M -2.7071067811865475,2.7071067811865475 h 1.0 " /></g></g><g transform="matrix(29.99999999999999,0.0,0.0,29.99999999999999,150.00000000000003,149.99999999999994)"><g stroke="rgb(0,0,0)" stroke-opacity="1.0" fill-opacity="0.0" stroke-width="2.0e-2" font-size="1.0em"><path d="M -1.0,4.414213562373095 v -1.0 " /></g></g><g transform="matrix(29.99999999999999,0.0,0.0,29.99999999999999,150.00000000000003,149.99999999999994)"><g stroke="rgb(0,0,0)" stroke-opacity="1.0" fill-opacity="0.0" stroke-width="2.0e-2" font-size="1.0em"><path d="M -1.7071067811865475,2.7071067811865475 l 0.7071067811865475,0.7071067811865475 " /></g></g><g transform="matrix(29.99999999999999,0.0,0.0,29.99999999999999,150.00000000000003,149.99999999999994)"><g stroke="rgb(0,0,0)" stroke-opacity="1.0" fill-opacity="0.0" stroke-width="2.0e-2" font-size="1.0em"><path d="M 0.0,4.414213562373095 v -1.0 " /></g></g><g transform="matrix(29.99999999999999,0.0,0.0,29.99999999999999,150.00000000000003,149.99999999999994)"><g stroke="rgb(0,0,0)" stroke-opacity="1.0" fill-opacity="0.0" stroke-width="2.0e-2" font-size="1.0em"><path d="M -1.0,3.414213562373095 h 1.0 " /></g></g><g transform="matrix(29.99999999999999,0.0,0.0,29.99999999999999,150.00000000000003,149.99999999999994)"><g stroke="rgb(0,0,0)" stroke-opacity="1.0" fill-opacity="0.0" stroke-width="2.0e-2" font-size="1.0em"><path d="M 0.0,3.414213562373095 l 0.7071067811865476,-0.7071067811865475 " /></g></g><g transform="matrix(29.99999999999999,0.0,0.0,29.99999999999999,150.00000000000003,149.99999999999994)"><g stroke="rgb(0,0,0)" stroke-opacity="1.0" fill-opacity="0.0" stroke-width="2.0e-2" font-size="1.0em"><path d="M 0.7071067811865476,2.7071067811865475 h 0.9999999999999999 " /></g></g><g transform="matrix(29.99999999999999,0.0,0.0,29.99999999999999,150.00000000000003,149.99999999999994)"><g stroke="rgb(0,0,0)" stroke-opacity="1.0" fill-opacity="0.0" stroke-width="2.0e-2" font-size="1.0em"><path d="M 2.414213562373095,4.414213562373095 v -1.0 " /></g></g><g transform="matrix(29.99999999999999,0.0,0.0,29.99999999999999,150.00000000000003,149.99999999999994)"><g stroke="rgb(0,0,0)" stroke-opacity="1.0" fill-opacity="0.0" stroke-width="2.0e-2" font-size="1.0em"><path d="M 1.7071067811865475,2.7071067811865475 l 0.7071067811865475,0.7071067811865475 " /></g></g><g transform="matrix(29.99999999999999,0.0,0.0,29.99999999999999,150.00000000000003,149.99999999999994)"><g stroke="rgb(0,0,0)" stroke-opacity="1.0" fill-opacity="0.0" stroke-width="2.0e-2" font-size="1.0em"><path d="M 3.414213562373095,4.414213562373095 v -1.0 " /></g></g><g transform="matrix(29.99999999999999,0.0,0.0,29.99999999999999,150.00000000000003,149.99999999999994)"><g stroke="rgb(0,0,0)" stroke-opacity="1.0" fill-opacity="0.0" stroke-width="2.0e-2" font-size="1.0em"><path d="M 2.414213562373095,3.414213562373095 h 1.0 " /></g></g><g transform="matrix(29.99999999999999,0.0,0.0,29.99999999999999,150.00000000000003,149.99999999999994)"><g stroke="rgb(0,0,0)" stroke-opacity="1.0" fill-opacity="0.0" stroke-width="2.0e-2" font-size="1.0em"><path d="M 4.121320343559643,2.7071067811865475 h 1.0 " /></g></g><g transform="matrix(29.99999999999999,0.0,0.0,29.99999999999999,150.00000000000003,149.99999999999994)"><g stroke="rgb(0,0,0)" stroke-opacity="1.0" fill-opacity="0.0" stroke-width="2.0e-2" font-size="1.0em"><path d="M 3.414213562373095,3.414213562373095 l 0.7071067811865479,-0.7071067811865475 " /></g></g><g transform="matrix(29.99999999999999,0.0,0.0,29.99999999999999,150.00000000000003,149.99999999999994)"><g stroke="rgb(0,0,0)" stroke-opacity="1.0" fill-opacity="0.0" stroke-width="2.0e-2" font-size="1.0em"><path d="M 4.121320343559643,1.7071067811865475 h 1.0 " /></g></g><g transform="matrix(29.99999999999999,0.0,0.0,29.99999999999999,150.00000000000003,149.99999999999994)"><g stroke="rgb(0,0,0)" stroke-opacity="1.0" fill-opacity="0.0" stroke-width="2.0e-2" font-size="1.0em"><path d="M 4.121320343559643,2.7071067811865475 v -1.0 " /></g></g><g transform="matrix(29.99999999999999,0.0,0.0,29.99999999999999,150.00000000000003,149.99999999999994)"><g stroke="rgb(0,0,0)" stroke-opacity="1.0" fill-opacity="0.0" stroke-width="2.0e-2" font-size="1.0em"><path d="M 3.414213562373095,1.0 l 0.7071067811865479,0.7071067811865475 " /></g></g><g transform="matrix(29.99999999999999,0.0,0.0,29.99999999999999,150.00000000000003,149.99999999999994)"><g stroke="rgb(0,0,0)" stroke-opacity="1.0" fill-opacity="0.0" stroke-width="2.0e-2" font-size="1.0em"><path d="M 3.414213562373095,1.0 v -1.0 " /></g></g><g transform="matrix(29.99999999999999,0.0,0.0,29.99999999999999,150.00000000000003,149.99999999999994)"><g stroke="rgb(0,0,0)" stroke-opacity="1.0" fill-opacity="0.0" stroke-width="2.0e-2" font-size="1.0em"><path d="M 4.121320343559643,-0.7071067811865476 h 1.0 " /></g></g><g transform="matrix(29.99999999999999,0.0,0.0,29.99999999999999,150.00000000000003,149.99999999999994)"><g stroke="rgb(0,0,0)" stroke-opacity="1.0" fill-opacity="0.0" stroke-width="2.0e-2" font-size="1.0em"><path d="M 3.414213562373095,0.0 l 0.7071067811865479,-0.7071067811865476 " /></g></g><g transform="matrix(29.99999999999999,0.0,0.0,29.99999999999999,150.00000000000003,149.99999999999994)"><g stroke="rgb(0,0,0)" stroke-opacity="1.0" fill-opacity="0.0" stroke-width="2.0e-2" font-size="1.0em"><path d="M 4.121320343559643,-1.7071067811865475 h 1.0 " /></g></g><g transform="matrix(29.99999999999999,0.0,0.0,29.99999999999999,150.00000000000003,149.99999999999994)"><g stroke="rgb(0,0,0)" stroke-opacity="1.0" fill-opacity="0.0" stroke-width="2.0e-2" font-size="1.0em"><path d="M 4.121320343559643,-0.7071067811865476 v -0.9999999999999999 " /></g></g><g transform="matrix(29.99999999999999,0.0,0.0,29.99999999999999,150.00000000000003,149.99999999999994)"><g stroke="rgb(0,0,0)" stroke-opacity="1.0" fill-opacity="0.0" stroke-width="2.0e-2" font-size="1.0em"><path d="M 3.414213562373095,-2.414213562373095 l 0.7071067811865479,0.7071067811865475 " /></g></g><g transform="matrix(29.99999999999999,0.0,0.0,29.99999999999999,150.00000000000003,149.99999999999994)"><g stroke="rgb(0,0,0)" stroke-opacity="1.0" fill-opacity="0.0" stroke-width="2.0e-2" font-size="1.0em"><path d="M 3.414213562373095,-2.414213562373095 v -1.0 " /></g></g><g transform="matrix(29.99999999999999,0.0,0.0,29.99999999999999,150.00000000000003,149.99999999999994)"><g stroke="rgb(0,0,0)" stroke-opacity="1.0" fill-opacity="0.0" stroke-width="2.0e-2" font-size="1.0em"><path d="M 2.414213562373095,-2.414213562373095 h 1.0 " /></g></g><g transform="matrix(29.99999999999999,0.0,0.0,29.99999999999999,150.00000000000003,149.99999999999994)"><g stroke="rgb(0,0,0)" stroke-opacity="1.0" fill-opacity="0.0" stroke-width="2.0e-2" font-size="1.0em"><path d="M 1.7071067811865475,-1.7071067811865475 l 0.7071067811865475,-0.7071067811865475 " /></g></g><g transform="matrix(29.99999999999999,0.0,0.0,29.99999999999999,150.00000000000003,149.99999999999994)"><g stroke="rgb(0,0,0)" stroke-opacity="1.0" fill-opacity="0.0" stroke-width="2.0e-2" font-size="1.0em"><path d="M 2.414213562373095,-3.414213562373095 h 1.0 " /></g></g><g transform="matrix(29.99999999999999,0.0,0.0,29.99999999999999,150.00000000000003,149.99999999999994)"><g stroke="rgb(0,0,0)" stroke-opacity="1.0" fill-opacity="0.0" stroke-width="2.0e-2" font-size="1.0em"><path d="M 2.414213562373095,-2.414213562373095 v -1.0 " /></g></g><g transform="matrix(29.99999999999999,0.0,0.0,29.99999999999999,150.00000000000003,149.99999999999994)"><g stroke="rgb(0,0,0)" stroke-opacity="1.0" fill-opacity="0.0" stroke-width="2.0e-2" font-size="1.0em"><path d="M 1.7071067811865475,-4.121320343559643 l 0.7071067811865475,0.7071067811865479 " /></g></g><g transform="matrix(29.99999999999999,0.0,0.0,29.99999999999999,150.00000000000003,149.99999999999994)"><g stroke="rgb(0,0,0)" stroke-opacity="1.0" fill-opacity="0.0" stroke-width="2.0e-2" font-size="1.0em"><path d="M 1.7071067811865475,-4.121320343559643 v -1.0 " /></g></g><g transform="matrix(29.99999999999999,0.0,0.0,29.99999999999999,150.00000000000003,149.99999999999994)"><g stroke="rgb(0,0,0)" stroke-opacity="1.0" fill-opacity="0.0" stroke-width="2.0e-2" font-size="1.0em"><path d="M 0.7071067811865476,-4.121320343559643 h 0.9999999999999999 " /></g></g><g transform="matrix(29.99999999999999,0.0,0.0,29.99999999999999,150.00000000000003,149.99999999999994)"><g stroke="rgb(0,0,0)" stroke-opacity="1.0" fill-opacity="0.0" stroke-width="2.0e-2" font-size="1.0em"><path d="M 0.7071067811865476,-4.121320343559643 v -1.0 " /></g></g><g transform="matrix(29.99999999999999,0.0,0.0,29.99999999999999,150.00000000000003,149.99999999999994)"><g stroke="rgb(0,0,0)" stroke-opacity="1.0" fill-opacity="0.0" stroke-width="2.0e-2" font-size="1.0em"><path d="M 0.0,-3.414213562373095 l 0.7071067811865476,-0.7071067811865479 " /></g></g><g transform="matrix(29.99999999999999,0.0,0.0,29.99999999999999,150.00000000000003,149.99999999999994)"><g stroke="rgb(0,0,0)" stroke-opacity="1.0" fill-opacity="0.0" stroke-width="2.0e-2" font-size="1.0em"><path d="M -1.0,-3.414213562373095 h 1.0 " /></g></g><g transform="matrix(29.99999999999999,0.0,0.0,29.99999999999999,150.00000000000003,149.99999999999994)"><g stroke="rgb(0,0,0)" stroke-opacity="1.0" fill-opacity="0.0" stroke-width="2.0e-2" font-size="1.0em"><path d="M -1.7071067811865475,-4.121320343559643 l 0.7071067811865475,0.7071067811865479 " /></g></g><g transform="matrix(29.99999999999999,0.0,0.0,29.99999999999999,150.00000000000003,149.99999999999994)"><g stroke="rgb(0,0,0)" stroke-opacity="1.0" fill-opacity="0.0" stroke-width="2.0e-2" font-size="1.0em"><path d="M -1.7071067811865475,-4.121320343559643 v -1.0 " /></g></g><g transform="matrix(29.99999999999999,0.0,0.0,29.99999999999999,150.00000000000003,149.99999999999994)"><g stroke="rgb(0,0,0)" stroke-opacity="1.0" fill-opacity="0.0" stroke-width="2.0e-2" font-size="1.0em"><path d="M -2.7071067811865475,-4.121320343559643 h 1.0 " /></g></g><g transform="matrix(29.99999999999999,0.0,0.0,29.99999999999999,150.00000000000003,149.99999999999994)"><g stroke="rgb(0,0,0)" stroke-opacity="1.0" fill-opacity="0.0" stroke-width="2.0e-2" font-size="1.0em"><path d="M -2.7071067811865475,-4.121320343559643 v -1.0 " /></g></g><g transform="matrix(29.99999999999999,0.0,0.0,29.99999999999999,150.00000000000003,149.99999999999994)"><g stroke="rgb(0,0,0)" stroke-opacity="1.0" fill-opacity="0.0" stroke-width="2.0e-2" font-size="1.0em"><path d="M -3.414213562373095,-3.414213562373095 l 0.7071067811865475,-0.7071067811865479 " /></g></g><g transform="matrix(29.99999999999999,0.0,0.0,29.99999999999999,150.00000000000003,149.99999999999994)"><g stroke="rgb(0,0,0)" stroke-opacity="1.0" fill-opacity="0.0" stroke-width="2.0e-2" font-size="1.0em"><path d="M -4.414213562373095,-3.414213562373095 h 1.0 " /></g></g><g transform="matrix(29.99999999999999,0.0,0.0,29.99999999999999,150.00000000000003,149.99999999999994)"><g stroke="rgb(0,0,0)" stroke-opacity="1.0" fill-opacity="0.0" stroke-width="2.0e-2" font-size="1.0em"><path d="M -3.414213562373095,-2.414213562373095 v -1.0 " /></g></g><g transform="matrix(29.99999999999999,0.0,0.0,29.99999999999999,150.00000000000003,149.99999999999994)"><g stroke="rgb(0,0,0)" stroke-opacity="1.0" fill-opacity="0.0" stroke-width="2.0e-2" font-size="1.0em"><path d="M -4.414213562373095,-2.414213562373095 h 1.0 " /></g></g><g transform="matrix(29.99999999999999,0.0,0.0,29.99999999999999,150.00000000000003,149.99999999999994)"><g stroke="rgb(0,0,0)" stroke-opacity="1.0" fill-opacity="0.0" stroke-width="2.0e-2" font-size="1.0em"><path d="M -3.414213562373095,-2.414213562373095 l 0.7071067811865475,0.7071067811865475 " /></g></g><g transform="matrix(29.99999999999999,0.0,0.0,29.99999999999999,150.00000000000003,149.99999999999994)"><g stroke="rgb(0,0,0)" stroke-opacity="1.0" fill-opacity="0.0" stroke-width="2.0e-2" font-size="1.0em"><path d="M -2.7071067811865475,-0.7071067811865476 v -0.9999999999999999 " /></g></g><g transform="matrix(29.99999999999999,0.0,0.0,29.99999999999999,150.00000000000003,149.99999999999994)"><g stroke="rgb(0,0,0)" stroke-opacity="1.0" fill-opacity="0.0" stroke-width="2.0e-2" font-size="1.0em"><path d="M -3.414213562373095,0.0 l 0.7071067811865475,-0.7071067811865476 " /></g></g><g transform="matrix(29.99999999999999,0.0,0.0,29.99999999999999,150.00000000000003,149.99999999999994)"><g stroke="rgb(0,0,0)" stroke-opacity="1.0" fill-opacity="0.0" stroke-width="2.0e-2" font-size="1.0em"><path d="M -4.414213562373095,0.0 h 1.0 " /></g></g><g transform="matrix(29.99999999999999,0.0,0.0,29.99999999999999,150.00000000000003,149.99999999999994)"><g stroke="rgb(0,0,0)" stroke-opacity="1.0" fill-opacity="0.0" stroke-width="2.0e-2" font-size="1.0em"><path d="M -3.414213562373095,1.0 v -1.0 " /></g></g><g transform="matrix(29.99999999999999,0.0,0.0,29.99999999999999,150.00000000000003,149.99999999999994)"><g stroke="rgb(0,0,0)" stroke-opacity="1.0" fill-opacity="0.0" stroke-width="2.0e-2" font-size="1.0em"><path d="M -4.414213562373095,1.0 h 1.0 " /></g></g><g transform="matrix(29.99999999999999,0.0,0.0,29.99999999999999,150.00000000000003,149.99999999999994)"><g stroke="rgb(0,0,0)" stroke-opacity="1.0" fill-opacity="0.0" stroke-width="2.0e-2" font-size="1.0em"><path d="M -2.7071067811865475,2.7071067811865475 v -1.0 " /></g></g><g transform="matrix(29.99999999999999,0.0,0.0,29.99999999999999,150.00000000000003,149.99999999999994)"><g stroke="rgb(0,0,0)" stroke-opacity="1.0" fill-opacity="0.0" stroke-width="2.0e-2" font-size="1.0em"><path d="M -3.414213562373095,1.0 l 0.7071067811865475,0.7071067811865475 " /></g></g><g transform="matrix(29.99999999999999,0.0,0.0,29.99999999999999,150.00000000000003,149.99999999999994)"><g stroke="rgb(0,0,0)" stroke-opacity="1.0" fill-opacity="0.0" stroke-width="2.0e-2" font-size="1.0em"><path d="M -1.7071067811865475,2.7071067811865475 v -1.0 " /></g></g><g transform="matrix(29.99999999999999,0.0,0.0,29.99999999999999,150.00000000000003,149.99999999999994)"><g stroke="rgb(0,0,0)" stroke-opacity="1.0" fill-opacity="0.0" stroke-width="2.0e-2" font-size="1.0em"><path d="M -2.7071067811865475,1.7071067811865475 h 1.0 " /></g></g><g transform="matrix(29.99999999999999,0.0,0.0,29.99999999999999,150.00000000000003,149.99999999999994)"><g stroke="rgb(0,0,0)" stroke-opacity="1.0" fill-opacity="0.0" stroke-width="2.0e-2" font-size="1.0em"><path d="M -1.7071067811865475,1.7071067811865475 l 0.7071067811865475,-0.7071067811865475 " /></g></g><g transform="matrix(29.99999999999999,0.0,0.0,29.99999999999999,150.00000000000003,149.99999999999994)"><g stroke="rgb(0,0,0)" stroke-opacity="1.0" fill-opacity="0.0" stroke-width="2.0e-2" font-size="1.0em"><path d="M -1.0,1.0 h 1.0 " /></g></g><g transform="matrix(29.99999999999999,0.0,0.0,29.99999999999999,150.00000000000003,149.99999999999994)"><g stroke="rgb(0,0,0)" stroke-opacity="1.0" fill-opacity="0.0" stroke-width="2.0e-2" font-size="1.0em"><path d="M 0.7071067811865476,2.7071067811865475 v -1.0 " /></g></g><g transform="matrix(29.99999999999999,0.0,0.0,29.99999999999999,150.00000000000003,149.99999999999994)"><g stroke="rgb(0,0,0)" stroke-opacity="1.0" fill-opacity="0.0" stroke-width="2.0e-2" font-size="1.0em"><path d="M 0.0,1.0 l 0.7071067811865476,0.7071067811865475 " /></g></g><g transform="matrix(29.99999999999999,0.0,0.0,29.99999999999999,150.00000000000003,149.99999999999994)"><g stroke="rgb(0,0,0)" stroke-opacity="1.0" fill-opacity="0.0" stroke-width="2.0e-2" font-size="1.0em"><path d="M 1.7071067811865475,2.7071067811865475 v -1.0 " /></g></g><g transform="matrix(29.99999999999999,0.0,0.0,29.99999999999999,150.00000000000003,149.99999999999994)"><g stroke="rgb(0,0,0)" stroke-opacity="1.0" fill-opacity="0.0" stroke-width="2.0e-2" font-size="1.0em"><path d="M 0.7071067811865476,1.7071067811865475 h 0.9999999999999999 " /></g></g><g transform="matrix(29.99999999999999,0.0,0.0,29.99999999999999,150.00000000000003,149.99999999999994)"><g stroke="rgb(0,0,0)" stroke-opacity="1.0" fill-opacity="0.0" stroke-width="2.0e-2" font-size="1.0em"><path d="M 2.414213562373095,1.0 h 1.0 " /></g></g><g transform="matrix(29.99999999999999,0.0,0.0,29.99999999999999,150.00000000000003,149.99999999999994)"><g stroke="rgb(0,0,0)" stroke-opacity="1.0" fill-opacity="0.0" stroke-width="2.0e-2" font-size="1.0em"><path d="M 1.7071067811865475,1.7071067811865475 l 0.7071067811865475,-0.7071067811865475 " /></g></g><g transform="matrix(29.99999999999999,0.0,0.0,29.99999999999999,150.00000000000003,149.99999999999994)"><g stroke="rgb(0,0,0)" stroke-opacity="1.0" fill-opacity="0.0" stroke-width="2.0e-2" font-size="1.0em"><path d="M 2.414213562373095,0.0 h 1.0 " /></g></g><g transform="matrix(29.99999999999999,0.0,0.0,29.99999999999999,150.00000000000003,149.99999999999994)"><g stroke="rgb(0,0,0)" stroke-opacity="1.0" fill-opacity="0.0" stroke-width="2.0e-2" font-size="1.0em"><path d="M 2.414213562373095,1.0 v -1.0 " /></g></g><g transform="matrix(29.99999999999999,0.0,0.0,29.99999999999999,150.00000000000003,149.99999999999994)"><g stroke="rgb(0,0,0)" stroke-opacity="1.0" fill-opacity="0.0" stroke-width="2.0e-2" font-size="1.0em"><path d="M 1.7071067811865475,-0.7071067811865476 l 0.7071067811865475,0.7071067811865476 " /></g></g><g transform="matrix(29.99999999999999,0.0,0.0,29.99999999999999,150.00000000000003,149.99999999999994)"><g stroke="rgb(0,0,0)" stroke-opacity="1.0" fill-opacity="0.0" stroke-width="2.0e-2" font-size="1.0em"><path d="M 1.7071067811865475,-0.7071067811865476 v -0.9999999999999999 " /></g></g><g transform="matrix(29.99999999999999,0.0,0.0,29.99999999999999,150.00000000000003,149.99999999999994)"><g stroke="rgb(0,0,0)" stroke-opacity="1.0" fill-opacity="0.0" stroke-width="2.0e-2" font-size="1.0em"><path d="M 0.7071067811865476,-0.7071067811865476 h 0.9999999999999999 " /></g></g><g transform="matrix(29.99999999999999,0.0,0.0,29.99999999999999,150.00000000000003,149.99999999999994)"><g stroke="rgb(0,0,0)" stroke-opacity="1.0" fill-opacity="0.0" stroke-width="2.0e-2" font-size="1.0em"><path d="M 0.7071067811865476,-1.7071067811865475 h 0.9999999999999999 " /></g></g><g transform="matrix(29.99999999999999,0.0,0.0,29.99999999999999,150.00000000000003,149.99999999999994)"><g stroke="rgb(0,0,0)" stroke-opacity="1.0" fill-opacity="0.0" stroke-width="2.0e-2" font-size="1.0em"><path d="M 0.7071067811865476,-0.7071067811865476 v -0.9999999999999999 " /></g></g><g transform="matrix(29.99999999999999,0.0,0.0,29.99999999999999,150.00000000000003,149.99999999999994)"><g stroke="rgb(0,0,0)" stroke-opacity="1.0" fill-opacity="0.0" stroke-width="2.0e-2" font-size="1.0em"><path d="M 0.0,-2.414213562373095 l 0.7071067811865476,0.7071067811865475 " /></g></g><g transform="matrix(29.99999999999999,0.0,0.0,29.99999999999999,150.00000000000003,149.99999999999994)"><g stroke="rgb(0,0,0)" stroke-opacity="1.0" fill-opacity="0.0" stroke-width="2.0e-2" font-size="1.0em"><path d="M 0.0,-2.414213562373095 v -1.0 " /></g></g><g transform="matrix(29.99999999999999,0.0,0.0,29.99999999999999,150.00000000000003,149.99999999999994)"><g stroke="rgb(0,0,0)" stroke-opacity="1.0" fill-opacity="0.0" stroke-width="2.0e-2" font-size="1.0em"><path d="M -1.0,-2.414213562373095 h 1.0 " /></g></g><g transform="matrix(29.99999999999999,0.0,0.0,29.99999999999999,150.00000000000003,149.99999999999994)"><g stroke="rgb(0,0,0)" stroke-opacity="1.0" fill-opacity="0.0" stroke-width="2.0e-2" font-size="1.0em"><path d="M -1.0,-2.414213562373095 v -1.0 " /></g></g><g transform="matrix(29.99999999999999,0.0,0.0,29.99999999999999,150.00000000000003,149.99999999999994)"><g stroke="rgb(0,0,0)" stroke-opacity="1.0" fill-opacity="0.0" stroke-width="2.0e-2" font-size="1.0em"><path d="M -1.7071067811865475,-1.7071067811865475 l 0.7071067811865475,-0.7071067811865475 " /></g></g><g transform="matrix(29.99999999999999,0.0,0.0,29.99999999999999,150.00000000000003,149.99999999999994)"><g stroke="rgb(0,0,0)" stroke-opacity="1.0" fill-opacity="0.0" stroke-width="2.0e-2" font-size="1.0em"><path d="M -2.7071067811865475,-1.7071067811865475 h 1.0 " /></g></g><g transform="matrix(29.99999999999999,0.0,0.0,29.99999999999999,150.00000000000003,149.99999999999994)"><g stroke="rgb(0,0,0)" stroke-opacity="1.0" fill-opacity="0.0" stroke-width="2.0e-2" font-size="1.0em"><path d="M -1.7071067811865475,-0.7071067811865476 v -0.9999999999999999 " /></g></g><g transform="matrix(29.99999999999999,0.0,0.0,29.99999999999999,150.00000000000003,149.99999999999994)"><g stroke="rgb(0,0,0)" stroke-opacity="1.0" fill-opacity="0.0" stroke-width="2.0e-2" font-size="1.0em"><path d="M -2.7071067811865475,-0.7071067811865476 h 1.0 " /></g></g><g transform="matrix(29.99999999999999,0.0,0.0,29.99999999999999,150.00000000000003,149.99999999999994)"><g stroke="rgb(0,0,0)" stroke-opacity="1.0" fill-opacity="0.0" stroke-width="2.0e-2" font-size="1.0em"><path d="M -1.0,1.0 v -1.0 " /></g></g><g transform="matrix(29.99999999999999,0.0,0.0,29.99999999999999,150.00000000000003,149.99999999999994)"><g stroke="rgb(0,0,0)" stroke-opacity="1.0" fill-opacity="0.0" stroke-width="2.0e-2" font-size="1.0em"><path d="M -1.7071067811865475,-0.7071067811865476 l 0.7071067811865475,0.7071067811865476 " /></g></g><g transform="matrix(29.99999999999999,0.0,0.0,29.99999999999999,150.00000000000003,149.99999999999994)"><g stroke="rgb(0,0,0)" stroke-opacity="1.0" fill-opacity="0.0" stroke-width="2.0e-2" font-size="1.0em"><path d="M 0.0,0.0 l 0.7071067811865476,-0.7071067811865476 " /></g></g><g transform="matrix(29.99999999999999,0.0,0.0,29.99999999999999,150.00000000000003,149.99999999999994)"><g stroke="rgb(0,0,0)" stroke-opacity="1.0" fill-opacity="0.0" stroke-width="2.0e-2" font-size="1.0em"><path d="M 0.0,1.0 v -1.0 " /></g></g><g transform="matrix(29.99999999999999,0.0,0.0,29.99999999999999,150.00000000000003,149.99999999999994)"><g stroke="rgb(0,0,0)" stroke-opacity="1.0" fill-opacity="0.0" stroke-width="2.0e-2" font-size="1.0em"><path d="M -1.0,0.0 h 1.0 " /></g></g></g></svg>