<svg xmlns="http://www.w3.org/2000/svg" height="100.0000" stroke-opacity="1" viewBox="0 0 590 100" font-size="1" width="590.1524" xmlns:xlink="http://www.w3.org/1999/xlink" stroke="rgb(0,0,0)" version="1.1"><defs></defs><g stroke-linejoin="miter" stroke-opacity="1.0" fill-opacity="0.0" stroke="rgb(0,0,0)" stroke-width="2.857142857142858" fill="rgb(0,0,0)" stroke-linecap="butt" stroke-miterlimit="10.0"><path d="M 585.5810,38.2857 c -7.2068,-5.8595 -14.4136,-11.7191 -22.8571 -11.4286c -8.4435,0.2905 -18.1237,6.7311 -22.8571 11.4286c -4.7334,4.6975 -4.5201,7.6518 0.0000 11.4286c 4.5201,3.7768 13.3471,8.3761 22.8571 11.4286c 9.5101,3.0525 19.7033,4.5581 22.8571 11.4286c 3.1539,6.8705 -0.7315,19.1059 -11.4286 22.8571c -10.6970,3.7513 -28.2057,-0.9815 -45.7143 -5.7143"/></g><g stroke-linejoin="miter" stroke-opacity="1.0" fill-opacity="1.0" stroke="rgb(0,0,0)" stroke-width="0.0" fill="rgb(0,0,255)" stroke-linecap="butt" stroke-miterlimit="10.0"><path d="M 533.0095,89.7143 c 0.0000,-2.5247 -2.0467,-4.5714 -4.5714 -4.5714c -2.5247,-0.0000 -4.5714,2.0467 -4.5714 4.5714c -0.0000,2.5247 2.0467,4.5714 4.5714 4.5714c 2.5247,0.0000 4.5714,-2.0467 4.5714 -4.5714Z"/></g><g stroke-linejoin="miter" stroke-opacity="1.0" fill-opacity="1.0" stroke="rgb(0,0,0)" stroke-width="0.0" fill="rgb(0,0,255)" stroke-linecap="butt" stroke-miterlimit="10.0"><path d="M 578.7238,95.4286 c 0.0000,-2.5247 -2.0467,-4.5714 -4.5714 -4.5714c -2.5247,-0.0000 -4.5714,2.0467 -4.5714 4.5714c -0.0000,2.5247 2.0467,4.5714 4.5714 4.5714c 2.5247,0.0000 4.5714,-2.0467 4.5714 -4.5714Z"/></g><g stroke-linejoin="miter" stroke-opacity="1.0" fill-opacity="1.0" stroke="rgb(0,0,0)" stroke-width="0.0" fill="rgb(0,0,255)" stroke-linecap="butt" stroke-miterlimit="10.0"><path d="M 590.1524,72.5714 c 0.0000,-2.5247 -2.0467,-4.5714 -4.5714 -4.5714c -2.5247,-0.0000 -4.5714,2.0467 -4.5714 4.5714c -0.0000,2.5247 2.0467,4.5714 4.5714 4.5714c 2.5247,0.0000 4.5714,-2.0467 4.5714 -4.5714Z"/></g><g stroke-linejoin="miter" stroke-opacity="1.0" fill-opacity="1.0" stroke="rgb(0,0,0)" stroke-width="0.0" fill="rgb(0,0,255)" stroke-linecap="butt" stroke-miterlimit="10.0"><path d="M 567.2952,61.1429 c 0.0000,-2.5247 -2.0467,-4.5714 -4.5714 -4.5714c -2.5247,-0.0000 -4.5714,2.0467 -4.5714 4.5714c -0.0000,2.5247 2.0467,4.5714 4.5714 4.5714c 2.5247,0.0000 4.5714,-2.0467 4.5714 -4.5714Z"/></g><g stroke-linejoin="miter" stroke-opacity="1.0" fill-opacity="1.0" stroke="rgb(0,0,0)" stroke-width="0.0" fill="rgb(0,0,255)" stroke-linecap="butt" stroke-miterlimit="10.0"><path d="M 544.4381,49.7143 c 0.0000,-2.5247 -2.0467,-4.5714 -4.5714 -4.5714c -2.5247,-0.0000 -4.5714,2.0467 -4.5714 4.5714c -0.0000,2.5247 2.0467,4.5714 4.5714 4.5714c 2.5247,0.0000 4.5714,-2.0467 4.5714 -4.5714Z"/></g><g stroke-linejoin="miter" stroke-opacity="1.0" fill-opacity="1.0" stroke="rgb(0,0,0)" stroke-width="0.0" fill="rgb(0,0,255)" stroke-linecap="butt" stroke-miterlimit="10.0"><path d="M 544.4381,38.2857 c 0.0000,-2.5247 -2.0467,-4.5714 -4.5714 -4.5714c -2.5247,-0.0000 -4.5714,2.0467 -4.5714 4.5714c -0.0000,2.5247 2.0467,4.5714 4.5714 4.5714c 2.5247,0.0000 4.5714,-2.0467 4.5714 -4.5714Z"/></g><g stroke-linejoin="miter" stroke-opacity="1.0" fill-opacity="1.0" stroke="rgb(0,0,0)" stroke-width="0.0" fill="rgb(0,0,255)" stroke-linecap="butt" stroke-miterlimit="10.0"><path d="M 567.2952,26.8571 c 0.0000,-2.5247 -2.0467,-4.5714 -4.5714 -4.5714c -2.5247,-0.0000 -4.5714,2.0467 -4.5714 4.5714c -0.0000,2.5247 2.0467,4.5714 4.5714 4.5714c 2.5247,0.0000 4.5714,-2.0467 4.5714 -4.5714Z"/></g><g stroke-linejoin="miter" stroke-opacity="1.0" fill-opacity="1.0" stroke="rgb(0,0,0)" stroke-width="0.0" fill="rgb(0,0,255)" stroke-linecap="butt" stroke-miterlimit="10.0"><path d="M 590.1524,38.2857 c 0.0000,-2.5247 -2.0467,-4.5714 -4.5714 -4.5714c -2.5247,-0.0000 -4.5714,2.0467 -4.5714 4.5714c -0.0000,2.5247 2.0467,4.5714 4.5714 4.5714c 2.5247,0.0000 4.5714,-2.0467 4.5714 -4.5714Z"/></g><g stroke-linejoin="miter" stroke-opacity="1.0" fill-opacity="1.0" font-size="85.71428571428574px" font-style="italic" stroke="rgb(0,0,0)" stroke-width="0.9717220936046178" fill="rgb(0,128,0)" stroke-linecap="butt" font-family="freeserif" stroke-miterlimit="10.0"><text dominant-baseline="middle" transform="matrix(1.0000,0.0000,0.0000,1.0000,481.0095,64.2857)" stroke="none" text-anchor="middle">m</text></g><g stroke-linejoin="miter" stroke-opacity="1.0" fill-opacity="0.0" stroke="rgb(0,0,0)" stroke-width="0.7142857142857145" fill="rgb(0,0,0)" stroke-linecap="butt" stroke-miterlimit="10.0"><path d="M 516.7238,100.0000 l -0.0000,-71.4286 h -71.4286 l -0.0000,71.4286 Z"/></g><g stroke-linejoin="miter" stroke-opacity="1.0" fill-opacity="0.0" stroke="rgb(0,0,0)" stroke-width="1.428571428571429" fill="rgb(0,0,0)" stroke-linecap="butt" stroke-miterlimit="10.0"><path d="M 387.5065,35.7143 l 21.0310,28.5714 "/></g><g stroke-linejoin="miter" stroke-opacity="1.0" fill-opacity="0.0" stroke="rgb(0,0,0)" stroke-width="1.428571428571429" fill="rgb(0,0,0)" stroke-linecap="butt" stroke-miterlimit="10.0"><path d="M 387.5065,35.7143 l -21.0310,28.5714 "/></g><g stroke-linejoin="miter" stroke-opacity="1.0" fill-opacity="0.0" stroke="rgb(0,0,0)" stroke-width="1.428571428571429" fill="rgb(0,0,0)" stroke-linecap="butt" stroke-miterlimit="10.0"><path d="M 408.5375,64.2857 l 22.4720,28.5714 "/></g><g stroke-linejoin="miter" stroke-opacity="1.0" fill-opacity="0.0" stroke="rgb(0,0,0)" stroke-width="1.428571428571429" fill="rgb(0,0,0)" stroke-linecap="butt" stroke-miterlimit="10.0"><path d="M 408.5375,64.2857 l -4.1241,28.5714 "/></g><g stroke-linejoin="miter" stroke-opacity="1.0" fill-opacity="1.0" stroke="rgb(0,0,0)" stroke-width="1.428571428571429" fill="rgb(128,0,128)" stroke-linecap="butt" stroke-miterlimit="10.0"><path d="M 438.1524,92.8571 c 0.0000,-3.9449 -3.1980,-7.1429 -7.1429 -7.1429c -3.9449,-0.0000 -7.1429,3.1980 -7.1429 7.1429c -0.0000,3.9449 3.1980,7.1429 7.1429 7.1429c 3.9449,0.0000 7.1429,-3.1980 7.1429 -7.1429Z"/></g><g stroke-linejoin="miter" stroke-opacity="1.0" fill-opacity="1.0" stroke="rgb(0,0,0)" stroke-width="1.428571428571429" fill="rgb(128,0,128)" stroke-linecap="butt" stroke-miterlimit="10.0"><path d="M 411.5563,92.8571 c 0.0000,-3.9449 -3.1980,-7.1429 -7.1429 -7.1429c -3.9449,-0.0000 -7.1429,3.1980 -7.1429 7.1429c -0.0000,3.9449 3.1980,7.1429 7.1429 7.1429c 3.9449,0.0000 7.1429,-3.1980 7.1429 -7.1429Z"/></g><g stroke-linejoin="miter" stroke-opacity="1.0" fill-opacity="1.0" stroke="rgb(0,0,0)" stroke-width="1.428571428571429" fill="rgb(128,0,128)" stroke-linecap="butt" stroke-miterlimit="10.0"><path d="M 415.6804,64.2857 c 0.0000,-3.9449 -3.1980,-7.1429 -7.1429 -7.1429c -3.9449,-0.0000 -7.1429,3.1980 -7.1429 7.1429c -0.0000,3.9449 3.1980,7.1429 7.1429 7.1429c 3.9449,0.0000 7.1429,-3.1980 7.1429 -7.1429Z"/></g><g stroke-linejoin="miter" stroke-opacity="1.0" fill-opacity="0.0" stroke="rgb(0,0,0)" stroke-width="1.428571428571429" fill="rgb(0,0,0)" stroke-linecap="butt" stroke-miterlimit="10.0"><path d="M 366.4756,64.2857 l 4.1241,28.5714 "/></g><g stroke-linejoin="miter" stroke-opacity="1.0" fill-opacity="0.0" stroke="rgb(0,0,0)" stroke-width="1.428571428571429" fill="rgb(0,0,0)" stroke-linecap="butt" stroke-miterlimit="10.0"><path d="M 366.4756,64.2857 l -22.4720,28.5714 "/></g><g stroke-linejoin="miter" stroke-opacity="1.0" fill-opacity="1.0" stroke="rgb(0,0,0)" stroke-width="1.428571428571429" fill="rgb(128,0,128)" stroke-linecap="butt" stroke-miterlimit="10.0"><path d="M 377.7425,92.8571 c 0.0000,-3.9449 -3.1980,-7.1429 -7.1429 -7.1429c -3.9449,-0.0000 -7.1429,3.1980 -7.1429 7.1429c -0.0000,3.9449 3.1980,7.1429 7.1429 7.1429c 3.9449,0.0000 7.1429,-3.1980 7.1429 -7.1429Z"/></g><g stroke-linejoin="miter" stroke-opacity="1.0" fill-opacity="1.0" stroke="rgb(0,0,0)" stroke-width="1.428571428571429" fill="rgb(128,0,128)" stroke-linecap="butt" stroke-miterlimit="10.0"><path d="M 351.1464,92.8571 c 0.0000,-3.9449 -3.1980,-7.1429 -7.1429 -7.1429c -3.9449,-0.0000 -7.1429,3.1980 -7.1429 7.1429c -0.0000,3.9449 3.1980,7.1429 7.1429 7.1429c 3.9449,0.0000 7.1429,-3.1980 7.1429 -7.1429Z"/></g><g stroke-linejoin="miter" stroke-opacity="1.0" fill-opacity="1.0" stroke="rgb(0,0,0)" stroke-width="1.428571428571429" fill="rgb(128,0,128)" stroke-linecap="butt" stroke-miterlimit="10.0"><path d="M 373.6184,64.2857 c 0.0000,-3.9449 -3.1980,-7.1429 -7.1429 -7.1429c -3.9449,-0.0000 -7.1429,3.1980 -7.1429 7.1429c -0.0000,3.9449 3.1980,7.1429 7.1429 7.1429c 3.9449,0.0000 7.1429,-3.1980 7.1429 -7.1429Z"/></g><g stroke-linejoin="miter" stroke-opacity="1.0" fill-opacity="1.0" stroke="rgb(0,0,0)" stroke-width="1.428571428571429" fill="rgb(128,0,128)" stroke-linecap="butt" stroke-miterlimit="10.0"><path d="M 394.6494,35.7143 c 0.0000,-3.9449 -3.1980,-7.1429 -7.1429 -7.1429c -3.9449,-0.0000 -7.1429,3.1980 -7.1429 7.1429c -0.0000,3.9449 3.1980,7.1429 7.1429 7.1429c 3.9449,0.0000 7.1429,-3.1980 7.1429 -7.1429Z"/></g><g stroke-linejoin="round" stroke-opacity="1.0" fill-opacity="0.0" stroke="rgb(255,165,0)" stroke-width="4.2857142857142865" fill="rgb(0,0,0)" stroke-linecap="round" stroke-miterlimit="10.0"><path d="M 322.1361,92.4182 l -30.3046,-30.3046 l 12.8571,-0.0000 l 10.4016,-7.5572 l 3.9731,-12.2279 l -3.9731,-12.2279 l -10.4016,-7.5572 h -12.8571 l -0.0000,71.4286 "/></g><g stroke-linejoin="miter" stroke-opacity="1.0" fill-opacity="0.0" stroke="rgb(0,0,0)" stroke-width="1.428571428571429" fill="rgb(0,0,0)" stroke-linecap="butt" stroke-miterlimit="10.0"><path d="M 313.2944,93.6781 l 16.4234,6.3219 l -6.3219,-16.4234 Z"/></g><g stroke-linejoin="miter" stroke-opacity="1.0" fill-opacity="0.0" stroke="rgb(128,128,128)" stroke-width="0.7142857142857145" fill="rgb(0,0,0)" stroke-linecap="butt" stroke-miterlimit="10.0"><defs><clipPath id="myClip1"><path d="M 284.6886,100.0000 l -0.0000,-71.4286 h -71.4286 l -0.0000,71.4286 Z"/></clipPath></defs><g clip-path="url(#myClip1)"><path d="M 202.0107,-22.3229 l 135.8652,44.1453 "/></g></g><g stroke-linejoin="miter" stroke-opacity="1.0" fill-opacity="0.0" stroke="rgb(128,128,128)" stroke-width="0.7142857142857145" fill="rgb(0,0,0)" stroke-linecap="butt" stroke-miterlimit="10.0"><defs><clipPath id="myClip2"><path d="M 284.6886,100.0000 l -0.0000,-71.4286 h -71.4286 l -0.0000,71.4286 Z"/></clipPath></defs><g clip-path="url(#myClip2)"><path d="M 199.8035,-15.5296 l 135.8652,44.1453 "/></g></g><g stroke-linejoin="miter" stroke-opacity="1.0" fill-opacity="0.0" stroke="rgb(128,128,128)" stroke-width="0.7142857142857145" fill="rgb(0,0,0)" stroke-linecap="butt" stroke-miterlimit="10.0"><defs><clipPath id="myClip3"><path d="M 284.6886,100.0000 l -0.0000,-71.4286 h -71.4286 l -0.0000,71.4286 Z"/></clipPath></defs><g clip-path="url(#myClip3)"><path d="M 197.5962,-8.7364 l 135.8652,44.1453 "/></g></g><g stroke-linejoin="miter" stroke-opacity="1.0" fill-opacity="0.0" stroke="rgb(128,128,128)" stroke-width="0.7142857142857145" fill="rgb(0,0,0)" stroke-linecap="butt" stroke-miterlimit="10.0"><defs><clipPath id="myClip4"><path d="M 284.6886,100.0000 l -0.0000,-71.4286 h -71.4286 l -0.0000,71.4286 Z"/></clipPath></defs><g clip-path="url(#myClip4)"><path d="M 195.3889,-1.9431 l 135.8652,44.1453 "/></g></g><g stroke-linejoin="miter" stroke-opacity="1.0" fill-opacity="0.0" stroke="rgb(128,128,128)" stroke-width="0.7142857142857145" fill="rgb(0,0,0)" stroke-linecap="butt" stroke-miterlimit="10.0"><defs><clipPath id="myClip5"><path d="M 284.6886,100.0000 l -0.0000,-71.4286 h -71.4286 l -0.0000,71.4286 Z"/></clipPath></defs><g clip-path="url(#myClip5)"><path d="M 193.1817,4.8501 l 135.8652,44.1453 "/></g></g><g stroke-linejoin="miter" stroke-opacity="1.0" fill-opacity="0.0" stroke="rgb(128,128,128)" stroke-width="0.7142857142857145" fill="rgb(0,0,0)" stroke-linecap="butt" stroke-miterlimit="10.0"><defs><clipPath id="myClip6"><path d="M 284.6886,100.0000 l -0.0000,-71.4286 h -71.4286 l -0.0000,71.4286 Z"/></clipPath></defs><g clip-path="url(#myClip6)"><path d="M 190.9744,11.6434 l 135.8652,44.1453 "/></g></g><g stroke-linejoin="miter" stroke-opacity="1.0" fill-opacity="0.0" stroke="rgb(128,128,128)" stroke-width="0.7142857142857145" fill="rgb(0,0,0)" stroke-linecap="butt" stroke-miterlimit="10.0"><defs><clipPath id="myClip7"><path d="M 284.6886,100.0000 l -0.0000,-71.4286 h -71.4286 l -0.0000,71.4286 Z"/></clipPath></defs><g clip-path="url(#myClip7)"><path d="M 188.7671,18.4367 l 135.8652,44.1453 "/></g></g><g stroke-linejoin="miter" stroke-opacity="1.0" fill-opacity="0.0" stroke="rgb(128,128,128)" stroke-width="0.7142857142857145" fill="rgb(0,0,0)" stroke-linecap="butt" stroke-miterlimit="10.0"><defs><clipPath id="myClip8"><path d="M 284.6886,100.0000 l -0.0000,-71.4286 h -71.4286 l -0.0000,71.4286 Z"/></clipPath></defs><g clip-path="url(#myClip8)"><path d="M 186.5599,25.2299 l 135.8652,44.1453 "/></g></g><g stroke-linejoin="miter" stroke-opacity="1.0" fill-opacity="0.0" stroke="rgb(128,128,128)" stroke-width="0.7142857142857145" fill="rgb(0,0,0)" stroke-linecap="butt" stroke-miterlimit="10.0"><defs><clipPath id="myClip9"><path d="M 284.6886,100.0000 l -0.0000,-71.4286 h -71.4286 l -0.0000,71.4286 Z"/></clipPath></defs><g clip-path="url(#myClip9)"><path d="M 184.3526,32.0232 l 135.8652,44.1453 "/></g></g><g stroke-linejoin="miter" stroke-opacity="1.0" fill-opacity="0.0" stroke="rgb(128,128,128)" stroke-width="0.7142857142857145" fill="rgb(0,0,0)" stroke-linecap="butt" stroke-miterlimit="10.0"><defs><clipPath id="myClip10"><path d="M 284.6886,100.0000 l -0.0000,-71.4286 h -71.4286 l -0.0000,71.4286 Z"/></clipPath></defs><g clip-path="url(#myClip10)"><path d="M 182.1454,38.8164 l 135.8652,44.1453 "/></g></g><g stroke-linejoin="miter" stroke-opacity="1.0" fill-opacity="0.0" stroke="rgb(128,128,128)" stroke-width="0.7142857142857145" fill="rgb(0,0,0)" stroke-linecap="butt" stroke-miterlimit="10.0"><defs><clipPath id="myClip11"><path d="M 284.6886,100.0000 l -0.0000,-71.4286 h -71.4286 l -0.0000,71.4286 Z"/></clipPath></defs><g clip-path="url(#myClip11)"><path d="M 179.9381,45.6097 l 135.8652,44.1453 "/></g></g><g stroke-linejoin="miter" stroke-opacity="1.0" fill-opacity="0.0" stroke="rgb(128,128,128)" stroke-width="0.7142857142857145" fill="rgb(0,0,0)" stroke-linecap="butt" stroke-miterlimit="10.0"><defs><clipPath id="myClip12"><path d="M 284.6886,100.0000 l -0.0000,-71.4286 h -71.4286 l -0.0000,71.4286 Z"/></clipPath></defs><g clip-path="url(#myClip12)"><path d="M 177.7308,52.4030 l 135.8652,44.1453 "/></g></g><g stroke-linejoin="miter" stroke-opacity="1.0" fill-opacity="0.0" stroke="rgb(128,128,128)" stroke-width="0.7142857142857145" fill="rgb(0,0,0)" stroke-linecap="butt" stroke-miterlimit="10.0"><defs><clipPath id="myClip13"><path d="M 284.6886,100.0000 l -0.0000,-71.4286 h -71.4286 l -0.0000,71.4286 Z"/></clipPath></defs><g clip-path="url(#myClip13)"><path d="M 175.5236,59.1962 l 135.8652,44.1453 "/></g></g><g stroke-linejoin="miter" stroke-opacity="1.0" fill-opacity="0.0" stroke="rgb(128,128,128)" stroke-width="0.7142857142857145" fill="rgb(0,0,0)" stroke-linecap="butt" stroke-miterlimit="10.0"><defs><clipPath id="myClip14"><path d="M 284.6886,100.0000 l -0.0000,-71.4286 h -71.4286 l -0.0000,71.4286 Z"/></clipPath></defs><g clip-path="url(#myClip14)"><path d="M 173.3163,65.9895 l 135.8652,44.1453 "/></g></g><g stroke-linejoin="miter" stroke-opacity="1.0" fill-opacity="0.0" stroke="rgb(128,128,128)" stroke-width="0.7142857142857145" fill="rgb(0,0,0)" stroke-linecap="butt" stroke-miterlimit="10.0"><defs><clipPath id="myClip15"><path d="M 284.6886,100.0000 l -0.0000,-71.4286 h -71.4286 l -0.0000,71.4286 Z"/></clipPath></defs><g clip-path="url(#myClip15)"><path d="M 171.1090,72.7827 l 135.8652,44.1453 "/></g></g><g stroke-linejoin="miter" stroke-opacity="1.0" fill-opacity="0.0" stroke="rgb(128,128,128)" stroke-width="0.7142857142857145" fill="rgb(0,0,0)" stroke-linecap="butt" stroke-miterlimit="10.0"><defs><clipPath id="myClip16"><path d="M 284.6886,100.0000 l -0.0000,-71.4286 h -71.4286 l -0.0000,71.4286 Z"/></clipPath></defs><g clip-path="url(#myClip16)"><path d="M 168.9018,79.5760 l 135.8652,44.1453 "/></g></g><g stroke-linejoin="miter" stroke-opacity="1.0" fill-opacity="0.0" stroke="rgb(128,128,128)" stroke-width="0.7142857142857145" fill="rgb(0,0,0)" stroke-linecap="butt" stroke-miterlimit="10.0"><defs><clipPath id="myClip17"><path d="M 284.6886,100.0000 l -0.0000,-71.4286 h -71.4286 l -0.0000,71.4286 Z"/></clipPath></defs><g clip-path="url(#myClip17)"><path d="M 166.6945,86.3693 l 135.8652,44.1453 "/></g></g><g stroke-linejoin="miter" stroke-opacity="1.0" fill-opacity="0.0" stroke="rgb(128,128,128)" stroke-width="0.7142857142857145" fill="rgb(0,0,0)" stroke-linecap="butt" stroke-miterlimit="10.0"><defs><clipPath id="myClip18"><path d="M 284.6886,100.0000 l -0.0000,-71.4286 h -71.4286 l -0.0000,71.4286 Z"/></clipPath></defs><g clip-path="url(#myClip18)"><path d="M 164.4872,93.1625 l 135.8652,44.1453 "/></g></g><g stroke-linejoin="miter" stroke-opacity="1.0" fill-opacity="0.0" stroke="rgb(128,128,128)" stroke-width="0.7142857142857145" fill="rgb(0,0,0)" stroke-linecap="butt" stroke-miterlimit="10.0"><defs><clipPath id="myClip19"><path d="M 284.6886,100.0000 l -0.0000,-71.4286 h -71.4286 l -0.0000,71.4286 Z"/></clipPath></defs><g clip-path="url(#myClip19)"><path d="M 162.2800,99.9558 l 135.8652,44.1453 "/></g></g><g stroke-linejoin="miter" stroke-opacity="1.0" fill-opacity="0.0" stroke="rgb(128,128,128)" stroke-width="0.7142857142857145" fill="rgb(0,0,0)" stroke-linecap="butt" stroke-miterlimit="10.0"><defs><clipPath id="myClip20"><path d="M 284.6886,100.0000 l -0.0000,-71.4286 h -71.4286 l -0.0000,71.4286 Z"/></clipPath></defs><g clip-path="url(#myClip20)"><path d="M 160.0727,106.7490 l 135.8652,44.1453 "/></g></g><g stroke-linejoin="miter" stroke-opacity="1.0" fill-opacity="0.0" stroke="rgb(128,128,128)" stroke-width="0.7142857142857145" fill="rgb(0,0,0)" stroke-linecap="butt" stroke-miterlimit="10.0"><defs><clipPath id="myClip21"><path d="M 284.6886,100.0000 l -0.0000,-71.4286 h -71.4286 l -0.0000,71.4286 Z"/></clipPath></defs><g clip-path="url(#myClip21)"><path d="M 335.5830,17.3221 l -44.1453,135.8652 "/></g></g><g stroke-linejoin="miter" stroke-opacity="1.0" fill-opacity="0.0" stroke="rgb(128,128,128)" stroke-width="0.7142857142857145" fill="rgb(0,0,0)" stroke-linecap="butt" stroke-miterlimit="10.0"><defs><clipPath id="myClip22"><path d="M 284.6886,100.0000 l -0.0000,-71.4286 h -71.4286 l -0.0000,71.4286 Z"/></clipPath></defs><g clip-path="url(#myClip22)"><path d="M 328.7897,15.1149 l -44.1453,135.8652 "/></g></g><g stroke-linejoin="miter" stroke-opacity="1.0" fill-opacity="0.0" stroke="rgb(128,128,128)" stroke-width="0.7142857142857145" fill="rgb(0,0,0)" stroke-linecap="butt" stroke-miterlimit="10.0"><defs><clipPath id="myClip23"><path d="M 284.6886,100.0000 l -0.0000,-71.4286 h -71.4286 l -0.0000,71.4286 Z"/></clipPath></defs><g clip-path="url(#myClip23)"><path d="M 321.9964,12.9076 l -44.1453,135.8652 "/></g></g><g stroke-linejoin="miter" stroke-opacity="1.0" fill-opacity="0.0" stroke="rgb(128,128,128)" stroke-width="0.7142857142857145" fill="rgb(0,0,0)" stroke-linecap="butt" stroke-miterlimit="10.0"><defs><clipPath id="myClip24"><path d="M 284.6886,100.0000 l -0.0000,-71.4286 h -71.4286 l -0.0000,71.4286 Z"/></clipPath></defs><g clip-path="url(#myClip24)"><path d="M 315.2032,10.7003 l -44.1453,135.8652 "/></g></g><g stroke-linejoin="miter" stroke-opacity="1.0" fill-opacity="0.0" stroke="rgb(128,128,128)" stroke-width="0.7142857142857145" fill="rgb(0,0,0)" stroke-linecap="butt" stroke-miterlimit="10.0"><defs><clipPath id="myClip25"><path d="M 284.6886,100.0000 l -0.0000,-71.4286 h -71.4286 l -0.0000,71.4286 Z"/></clipPath></defs><g clip-path="url(#myClip25)"><path d="M 308.4099,8.4931 l -44.1453,135.8652 "/></g></g><g stroke-linejoin="miter" stroke-opacity="1.0" fill-opacity="0.0" stroke="rgb(128,128,128)" stroke-width="0.7142857142857145" fill="rgb(0,0,0)" stroke-linecap="butt" stroke-miterlimit="10.0"><defs><clipPath id="myClip26"><path d="M 284.6886,100.0000 l -0.0000,-71.4286 h -71.4286 l -0.0000,71.4286 Z"/></clipPath></defs><g clip-path="url(#myClip26)"><path d="M 301.6166,6.2858 l -44.1453,135.8652 "/></g></g><g stroke-linejoin="miter" stroke-opacity="1.0" fill-opacity="0.0" stroke="rgb(128,128,128)" stroke-width="0.7142857142857145" fill="rgb(0,0,0)" stroke-linecap="butt" stroke-miterlimit="10.0"><defs><clipPath id="myClip27"><path d="M 284.6886,100.0000 l -0.0000,-71.4286 h -71.4286 l -0.0000,71.4286 Z"/></clipPath></defs><g clip-path="url(#myClip27)"><path d="M 294.8234,4.0785 l -44.1453,135.8652 "/></g></g><g stroke-linejoin="miter" stroke-opacity="1.0" fill-opacity="0.0" stroke="rgb(128,128,128)" stroke-width="0.7142857142857145" fill="rgb(0,0,0)" stroke-linecap="butt" stroke-miterlimit="10.0"><defs><clipPath id="myClip28"><path d="M 284.6886,100.0000 l -0.0000,-71.4286 h -71.4286 l -0.0000,71.4286 Z"/></clipPath></defs><g clip-path="url(#myClip28)"><path d="M 288.0301,1.8713 l -44.1453,135.8652 "/></g></g><g stroke-linejoin="miter" stroke-opacity="1.0" fill-opacity="0.0" stroke="rgb(128,128,128)" stroke-width="0.7142857142857145" fill="rgb(0,0,0)" stroke-linecap="butt" stroke-miterlimit="10.0"><defs><clipPath id="myClip29"><path d="M 284.6886,100.0000 l -0.0000,-71.4286 h -71.4286 l -0.0000,71.4286 Z"/></clipPath></defs><g clip-path="url(#myClip29)"><path d="M 281.2369,-0.3360 l -44.1453,135.8652 "/></g></g><g stroke-linejoin="miter" stroke-opacity="1.0" fill-opacity="0.0" stroke="rgb(128,128,128)" stroke-width="0.7142857142857145" fill="rgb(0,0,0)" stroke-linecap="butt" stroke-miterlimit="10.0"><defs><clipPath id="myClip30"><path d="M 284.6886,100.0000 l -0.0000,-71.4286 h -71.4286 l -0.0000,71.4286 Z"/></clipPath></defs><g clip-path="url(#myClip30)"><path d="M 274.4436,-2.5433 l -44.1453,135.8652 "/></g></g><g stroke-linejoin="miter" stroke-opacity="1.0" fill-opacity="0.0" stroke="rgb(128,128,128)" stroke-width="0.7142857142857145" fill="rgb(0,0,0)" stroke-linecap="butt" stroke-miterlimit="10.0"><defs><clipPath id="myClip31"><path d="M 284.6886,100.0000 l -0.0000,-71.4286 h -71.4286 l -0.0000,71.4286 Z"/></clipPath></defs><g clip-path="url(#myClip31)"><path d="M 267.6503,-4.7505 l -44.1453,135.8652 "/></g></g><g stroke-linejoin="miter" stroke-opacity="1.0" fill-opacity="0.0" stroke="rgb(128,128,128)" stroke-width="0.7142857142857145" fill="rgb(0,0,0)" stroke-linecap="butt" stroke-miterlimit="10.0"><defs><clipPath id="myClip32"><path d="M 284.6886,100.0000 l -0.0000,-71.4286 h -71.4286 l -0.0000,71.4286 Z"/></clipPath></defs><g clip-path="url(#myClip32)"><path d="M 260.8571,-6.9578 l -44.1453,135.8652 "/></g></g><g stroke-linejoin="miter" stroke-opacity="1.0" fill-opacity="0.0" stroke="rgb(128,128,128)" stroke-width="0.7142857142857145" fill="rgb(0,0,0)" stroke-linecap="butt" stroke-miterlimit="10.0"><defs><clipPath id="myClip33"><path d="M 284.6886,100.0000 l -0.0000,-71.4286 h -71.4286 l -0.0000,71.4286 Z"/></clipPath></defs><g clip-path="url(#myClip33)"><path d="M 254.0638,-9.1651 l -44.1453,135.8652 "/></g></g><g stroke-linejoin="miter" stroke-opacity="1.0" fill-opacity="0.0" stroke="rgb(128,128,128)" stroke-width="0.7142857142857145" fill="rgb(0,0,0)" stroke-linecap="butt" stroke-miterlimit="10.0"><defs><clipPath id="myClip34"><path d="M 284.6886,100.0000 l -0.0000,-71.4286 h -71.4286 l -0.0000,71.4286 Z"/></clipPath></defs><g clip-path="url(#myClip34)"><path d="M 247.2706,-11.3723 l -44.1453,135.8652 "/></g></g><g stroke-linejoin="miter" stroke-opacity="1.0" fill-opacity="0.0" stroke="rgb(128,128,128)" stroke-width="0.7142857142857145" fill="rgb(0,0,0)" stroke-linecap="butt" stroke-miterlimit="10.0"><defs><clipPath id="myClip35"><path d="M 284.6886,100.0000 l -0.0000,-71.4286 h -71.4286 l -0.0000,71.4286 Z"/></clipPath></defs><g clip-path="url(#myClip35)"><path d="M 240.4773,-13.5796 l -44.1453,135.8652 "/></g></g><g stroke-linejoin="miter" stroke-opacity="1.0" fill-opacity="0.0" stroke="rgb(128,128,128)" stroke-width="0.7142857142857145" fill="rgb(0,0,0)" stroke-linecap="butt" stroke-miterlimit="10.0"><defs><clipPath id="myClip36"><path d="M 284.6886,100.0000 l -0.0000,-71.4286 h -71.4286 l -0.0000,71.4286 Z"/></clipPath></defs><g clip-path="url(#myClip36)"><path d="M 233.6840,-15.7868 l -44.1453,135.8652 "/></g></g><g stroke-linejoin="miter" stroke-opacity="1.0" fill-opacity="0.0" stroke="rgb(128,128,128)" stroke-width="0.7142857142857145" fill="rgb(0,0,0)" stroke-linecap="butt" stroke-miterlimit="10.0"><defs><clipPath id="myClip37"><path d="M 284.6886,100.0000 l -0.0000,-71.4286 h -71.4286 l -0.0000,71.4286 Z"/></clipPath></defs><g clip-path="url(#myClip37)"><path d="M 226.8908,-17.9941 l -44.1453,135.8652 "/></g></g><g stroke-linejoin="miter" stroke-opacity="1.0" fill-opacity="0.0" stroke="rgb(128,128,128)" stroke-width="0.7142857142857145" fill="rgb(0,0,0)" stroke-linecap="butt" stroke-miterlimit="10.0"><defs><clipPath id="myClip38"><path d="M 284.6886,100.0000 l -0.0000,-71.4286 h -71.4286 l -0.0000,71.4286 Z"/></clipPath></defs><g clip-path="url(#myClip38)"><path d="M 220.0975,-20.2014 l -44.1453,135.8652 "/></g></g><g stroke-linejoin="miter" stroke-opacity="1.0" fill-opacity="0.0" stroke="rgb(128,128,128)" stroke-width="0.7142857142857145" fill="rgb(0,0,0)" stroke-linecap="butt" stroke-miterlimit="10.0"><defs><clipPath id="myClip39"><path d="M 284.6886,100.0000 l -0.0000,-71.4286 h -71.4286 l -0.0000,71.4286 Z"/></clipPath></defs><g clip-path="url(#myClip39)"><path d="M 213.3043,-22.4086 l -44.1453,135.8652 "/></g></g><g stroke-linejoin="miter" stroke-opacity="1.0" fill-opacity="0.0" stroke="rgb(128,128,128)" stroke-width="0.7142857142857145" fill="rgb(0,0,0)" stroke-linecap="butt" stroke-miterlimit="10.0"><defs><clipPath id="myClip40"><path d="M 284.6886,100.0000 l -0.0000,-71.4286 h -71.4286 l -0.0000,71.4286 Z"/></clipPath></defs><g clip-path="url(#myClip40)"><path d="M 206.5110,-24.6159 l -44.1453,135.8652 "/></g></g><g stroke-linejoin="miter" stroke-opacity="1.0" fill-opacity="1.0" font-size="57.14285714285716px" stroke="rgb(0,0,0)" stroke-width="0.9717220936046178" fill="rgb(0,0,0)" stroke-linecap="butt" stroke-miterlimit="10.0"><text dominant-baseline="middle" transform="matrix(0.9511,0.3090,-0.3090,0.9511,248.9743,64.2857)" stroke="none" text-anchor="middle">G</text></g><g stroke-linejoin="miter" stroke-opacity="1.0" fill-opacity="1.0" stroke="rgb(0,0,0)" stroke-width="0.0" fill="rgb(0,0,128)" stroke-linecap="butt" stroke-miterlimit="10.0"><path d="M 206.1172,100.0000 l -6.1859,-10.7143 l -6.1859,10.7143 Z"/></g><g stroke-linejoin="miter" stroke-opacity="1.0" fill-opacity="1.0" stroke="rgb(0,0,0)" stroke-width="0.0" fill="rgb(0,0,128)" stroke-linecap="butt" stroke-miterlimit="10.0"><path d="M 193.7454,100.0000 l -6.1859,-10.7143 l -6.1859,10.7143 Z"/></g><g stroke-linejoin="miter" stroke-opacity="1.0" fill-opacity="1.0" stroke="rgb(0,0,0)" stroke-width="0.0" fill="rgb(0,0,128)" stroke-linecap="butt" stroke-miterlimit="10.0"><path d="M 199.9313,89.2857 l -6.1859,-10.7143 l -6.1859,10.7143 Z"/></g><g stroke-linejoin="miter" stroke-opacity="1.0" fill-opacity="1.0" stroke="rgb(0,0,0)" stroke-width="0.0" fill="rgb(0,0,128)" stroke-linecap="butt" stroke-miterlimit="10.0"><path d="M 181.3736,100.0000 l -6.1859,-10.7143 l -6.1859,10.7143 Z"/></g><g stroke-linejoin="miter" stroke-opacity="1.0" fill-opacity="1.0" stroke="rgb(0,0,0)" stroke-width="0.0" fill="rgb(0,0,128)" stroke-linecap="butt" stroke-miterlimit="10.0"><path d="M 169.0018,100.0000 l -6.1859,-10.7143 l -6.1859,10.7143 Z"/></g><g stroke-linejoin="miter" stroke-opacity="1.0" fill-opacity="1.0" stroke="rgb(0,0,0)" stroke-width="0.0" fill="rgb(0,0,128)" stroke-linecap="butt" stroke-miterlimit="10.0"><path d="M 175.1877,89.2857 l -6.1859,-10.7143 l -6.1859,10.7143 Z"/></g><g stroke-linejoin="miter" stroke-opacity="1.0" fill-opacity="1.0" stroke="rgb(0,0,0)" stroke-width="0.0" fill="rgb(0,0,128)" stroke-linecap="butt" stroke-miterlimit="10.0"><path d="M 193.7454,78.5714 l -6.1859,-10.7143 l -6.1859,10.7143 Z"/></g><g stroke-linejoin="miter" stroke-opacity="1.0" fill-opacity="1.0" stroke="rgb(0,0,0)" stroke-width="0.0" fill="rgb(0,0,128)" stroke-linecap="butt" stroke-miterlimit="10.0"><path d="M 181.3736,78.5714 l -6.1859,-10.7143 l -6.1859,10.7143 Z"/></g><g stroke-linejoin="miter" stroke-opacity="1.0" fill-opacity="1.0" stroke="rgb(0,0,0)" stroke-width="0.0" fill="rgb(0,0,128)" stroke-linecap="butt" stroke-miterlimit="10.0"><path d="M 187.5595,67.8571 l -6.1859,-10.7143 l -6.1859,10.7143 Z"/></g><g stroke-linejoin="miter" stroke-opacity="1.0" fill-opacity="1.0" stroke="rgb(0,0,0)" stroke-width="0.0" fill="rgb(0,0,128)" stroke-linecap="butt" stroke-miterlimit="10.0"><path d="M 156.6300,100.0000 l -6.1859,-10.7143 l -6.1859,10.7143 Z"/></g><g stroke-linejoin="miter" stroke-opacity="1.0" fill-opacity="1.0" stroke="rgb(0,0,0)" stroke-width="0.0" fill="rgb(0,0,128)" stroke-linecap="butt" stroke-miterlimit="10.0"><path d="M 144.2582,100.0000 l -6.1859,-10.7143 l -6.1859,10.7143 Z"/></g><g stroke-linejoin="miter" stroke-opacity="1.0" fill-opacity="1.0" stroke="rgb(0,0,0)" stroke-width="0.0" fill="rgb(0,0,128)" stroke-linecap="butt" stroke-miterlimit="10.0"><path d="M 150.4441,89.2857 l -6.1859,-10.7143 l -6.1859,10.7143 Z"/></g><g stroke-linejoin="miter" stroke-opacity="1.0" fill-opacity="1.0" stroke="rgb(0,0,0)" stroke-width="0.0" fill="rgb(0,0,128)" stroke-linecap="butt" stroke-miterlimit="10.0"><path d="M 131.8864,100.0000 l -6.1859,-10.7143 l -6.1859,10.7143 Z"/></g><g stroke-linejoin="miter" stroke-opacity="1.0" fill-opacity="1.0" stroke="rgb(0,0,0)" stroke-width="0.0" fill="rgb(0,0,128)" stroke-linecap="butt" stroke-miterlimit="10.0"><path d="M 119.5146,100.0000 l -6.1859,-10.7143 l -6.1859,10.7143 Z"/></g><g stroke-linejoin="miter" stroke-opacity="1.0" fill-opacity="1.0" stroke="rgb(0,0,0)" stroke-width="0.0" fill="rgb(0,0,128)" stroke-linecap="butt" stroke-miterlimit="10.0"><path d="M 125.7005,89.2857 l -6.1859,-10.7143 l -6.1859,10.7143 Z"/></g><g stroke-linejoin="miter" stroke-opacity="1.0" fill-opacity="1.0" stroke="rgb(0,0,0)" stroke-width="0.0" fill="rgb(0,0,128)" stroke-linecap="butt" stroke-miterlimit="10.0"><path d="M 144.2582,78.5714 l -6.1859,-10.7143 l -6.1859,10.7143 Z"/></g><g stroke-linejoin="miter" stroke-opacity="1.0" fill-opacity="1.0" stroke="rgb(0,0,0)" stroke-width="0.0" fill="rgb(0,0,128)" stroke-linecap="butt" stroke-miterlimit="10.0"><path d="M 131.8864,78.5714 l -6.1859,-10.7143 l -6.1859,10.7143 Z"/></g><g stroke-linejoin="miter" stroke-opacity="1.0" fill-opacity="1.0" stroke="rgb(0,0,0)" stroke-width="0.0" fill="rgb(0,0,128)" stroke-linecap="butt" stroke-miterlimit="10.0"><path d="M 138.0723,67.8571 l -6.1859,-10.7143 l -6.1859,10.7143 Z"/></g><g stroke-linejoin="miter" stroke-opacity="1.0" fill-opacity="1.0" stroke="rgb(0,0,0)" stroke-width="0.0" fill="rgb(0,0,128)" stroke-linecap="butt" stroke-miterlimit="10.0"><path d="M 181.3736,57.1429 l -6.1859,-10.7143 l -6.1859,10.7143 Z"/></g><g stroke-linejoin="miter" stroke-opacity="1.0" fill-opacity="1.0" stroke="rgb(0,0,0)" stroke-width="0.0" fill="rgb(0,0,128)" stroke-linecap="butt" stroke-miterlimit="10.0"><path d="M 169.0018,57.1429 l -6.1859,-10.7143 l -6.1859,10.7143 Z"/></g><g stroke-linejoin="miter" stroke-opacity="1.0" fill-opacity="1.0" stroke="rgb(0,0,0)" stroke-width="0.0" fill="rgb(0,0,128)" stroke-linecap="butt" stroke-miterlimit="10.0"><path d="M 175.1877,46.4286 l -6.1859,-10.7143 l -6.1859,10.7143 Z"/></g><g stroke-linejoin="miter" stroke-opacity="1.0" fill-opacity="1.0" stroke="rgb(0,0,0)" stroke-width="0.0" fill="rgb(0,0,128)" stroke-linecap="butt" stroke-miterlimit="10.0"><path d="M 156.6300,57.1429 l -6.1859,-10.7143 l -6.1859,10.7143 Z"/></g><g stroke-linejoin="miter" stroke-opacity="1.0" fill-opacity="1.0" stroke="rgb(0,0,0)" stroke-width="0.0" fill="rgb(0,0,128)" stroke-linecap="butt" stroke-miterlimit="10.0"><path d="M 144.2582,57.1429 l -6.1859,-10.7143 l -6.1859,10.7143 Z"/></g><g stroke-linejoin="miter" stroke-opacity="1.0" fill-opacity="1.0" stroke="rgb(0,0,0)" stroke-width="0.0" fill="rgb(0,0,128)" stroke-linecap="butt" stroke-miterlimit="10.0"><path d="M 150.4441,46.4286 l -6.1859,-10.7143 l -6.1859,10.7143 Z"/></g><g stroke-linejoin="miter" stroke-opacity="1.0" fill-opacity="1.0" stroke="rgb(0,0,0)" stroke-width="0.0" fill="rgb(0,0,128)" stroke-linecap="butt" stroke-miterlimit="10.0"><path d="M 169.0018,35.7143 l -6.1859,-10.7143 l -6.1859,10.7143 Z"/></g><g stroke-linejoin="miter" stroke-opacity="1.0" fill-opacity="1.0" stroke="rgb(0,0,0)" stroke-width="0.0" fill="rgb(0,0,128)" stroke-linecap="butt" stroke-miterlimit="10.0"><path d="M 156.6300,35.7143 l -6.1859,-10.7143 l -6.1859,10.7143 Z"/></g><g stroke-linejoin="miter" stroke-opacity="1.0" fill-opacity="1.0" stroke="rgb(0,0,0)" stroke-width="0.0" fill="rgb(0,0,128)" stroke-linecap="butt" stroke-miterlimit="10.0"><path d="M 162.8159,25.0000 l -6.1859,-10.7143 l -6.1859,10.7143 Z"/></g><g stroke-linejoin="miter" stroke-opacity="1.0" fill-opacity="1.0" stroke="rgb(0,0,255)" stroke-width="0.7142857142857145" fill="rgb(255,255,0)" stroke-linecap="butt" stroke-miterlimit="10.0"><path d="M 100.0000,94.2857 v -45.7143 c 0.0000,-3.1559 -2.5584,-5.7143 -5.7143 -5.7143h -17.1429 c -3.1559,-0.0000 -5.7143,2.5584 -5.7143 5.7143v 45.7143 c -0.0000,3.1559 2.5584,5.7143 5.7143 5.7143h 17.1429 c 3.1559,0.0000 5.7143,-2.5584 5.7143 -5.7143Z"/></g><g stroke-linejoin="miter" stroke-opacity="1.0" fill-opacity="1.0" stroke="rgb(0,0,255)" stroke-width="0.7142857142857145" fill="rgb(255,255,0)" stroke-linecap="butt" stroke-miterlimit="10.0"><path d="M 100.0000,21.4286 c 0.0000,-7.8898 -6.3959,-14.2857 -14.2857 -14.2857c -7.8898,-0.0000 -14.2857,6.3959 -14.2857 14.2857c -0.0000,7.8898 6.3959,14.2857 14.2857 14.2857c 7.8898,0.0000 14.2857,-6.3959 14.2857 -14.2857Z"/></g><g stroke-linejoin="miter" stroke-opacity="1.0" fill-opacity="1.0" stroke="rgb(0,0,0)" stroke-width="0.0" fill="rgb(255,0,0)" stroke-linecap="butt" stroke-miterlimit="10.0"><path d="M 57.1429,71.4286 c 0.0000,-15.7796 -12.7919,-28.5714 -28.5714 -28.5714c -15.7796,-0.0000 -28.5714,12.7919 -28.5714 28.5714c -0.0000,15.7796 12.7919,28.5714 28.5714 28.5714c 15.7796,0.0000 28.5714,-12.7919 28.5714 -28.5714ZM 52.8571,4.2857 c 0.0000,2.3669 -1.9188,4.2857 -4.2857 4.2857c -2.3669,-0.0000 -4.2857,-1.9188 -4.2857 -4.2857c 0.0000,-2.3669 1.9188,-4.2857 4.2857 -4.2857c 2.3669,-0.0000 4.2857,1.9188 4.2857 4.2857ZM 52.8571,15.7143 c 0.0000,2.3669 -1.9188,4.2857 -4.2857 4.2857c -2.3669,-0.0000 -4.2857,-1.9188 -4.2857 -4.2857c 0.0000,-2.3669 1.9188,-4.2857 4.2857 -4.2857c 2.3669,-0.0000 4.2857,1.9188 4.2857 4.2857ZM 52.8571,27.1429 c 0.0000,2.3669 -1.9188,4.2857 -4.2857 4.2857c -2.3669,-0.0000 -4.2857,-1.9188 -4.2857 -4.2857c 0.0000,-2.3669 1.9188,-4.2857 4.2857 -4.2857c 2.3669,-0.0000 4.2857,1.9188 4.2857 4.2857ZM 52.8571,38.5714 c 0.0000,2.3669 -1.9188,4.2857 -4.2857 4.2857c -2.3669,-0.0000 -4.2857,-1.9188 -4.2857 -4.2857c 0.0000,-2.3669 1.9188,-4.2857 4.2857 -4.2857c 2.3669,-0.0000 4.2857,1.9188 4.2857 4.2857ZM 52.8571,50.0000 c 0.0000,2.3669 -1.9188,4.2857 -4.2857 4.2857c -2.3669,-0.0000 -4.2857,-1.9188 -4.2857 -4.2857c 0.0000,-2.3669 1.9188,-4.2857 4.2857 -4.2857c 2.3669,-0.0000 4.2857,1.9188 4.2857 4.2857ZM 52.8571,61.4286 c 0.0000,2.3669 -1.9188,4.2857 -4.2857 4.2857c -2.3669,-0.0000 -4.2857,-1.9188 -4.2857 -4.2857c 0.0000,-2.3669 1.9188,-4.2857 4.2857 -4.2857c 2.3669,-0.0000 4.2857,1.9188 4.2857 4.2857ZM 52.8571,72.8571 c 0.0000,2.3669 -1.9188,4.2857 -4.2857 4.2857c -2.3669,-0.0000 -4.2857,-1.9188 -4.2857 -4.2857c 0.0000,-2.3669 1.9188,-4.2857 4.2857 -4.2857c 2.3669,-0.0000 4.2857,1.9188 4.2857 4.2857ZM 52.8571,84.2857 c 0.0000,2.3669 -1.9188,4.2857 -4.2857 4.2857c -2.3669,-0.0000 -4.2857,-1.9188 -4.2857 -4.2857c 0.0000,-2.3669 1.9188,-4.2857 4.2857 -4.2857c 2.3669,-0.0000 4.2857,1.9188 4.2857 4.2857ZM 52.8571,95.7143 c 0.0000,2.3669 -1.9188,4.2857 -4.2857 4.2857c -2.3669,-0.0000 -4.2857,-1.9188 -4.2857 -4.2857c 0.0000,-2.3669 1.9188,-4.2857 4.2857 -4.2857c 2.3669,-0.0000 4.2857,1.9188 4.2857 4.2857ZM 64.2857,4.2857 c 0.0000,2.3669 -1.9188,4.2857 -4.2857 4.2857c -2.3669,-0.0000 -4.2857,-1.9188 -4.2857 -4.2857c 0.0000,-2.3669 1.9188,-4.2857 4.2857 -4.2857c 2.3669,-0.0000 4.2857,1.9188 4.2857 4.2857ZM 64.2857,15.7143 c 0.0000,2.3669 -1.9188,4.2857 -4.2857 4.2857c -2.3669,-0.0000 -4.2857,-1.9188 -4.2857 -4.2857c 0.0000,-2.3669 1.9188,-4.2857 4.2857 -4.2857c 2.3669,-0.0000 4.2857,1.9188 4.2857 4.2857ZM 64.2857,27.1429 c 0.0000,2.3669 -1.9188,4.2857 -4.2857 4.2857c -2.3669,-0.0000 -4.2857,-1.9188 -4.2857 -4.2857c 0.0000,-2.3669 1.9188,-4.2857 4.2857 -4.2857c 2.3669,-0.0000 4.2857,1.9188 4.2857 4.2857ZM 64.2857,38.5714 c 0.0000,2.3669 -1.9188,4.2857 -4.2857 4.2857c -2.3669,-0.0000 -4.2857,-1.9188 -4.2857 -4.2857c 0.0000,-2.3669 1.9188,-4.2857 4.2857 -4.2857c 2.3669,-0.0000 4.2857,1.9188 4.2857 4.2857ZM 64.2857,50.0000 c 0.0000,2.3669 -1.9188,4.2857 -4.2857 4.2857c -2.3669,-0.0000 -4.2857,-1.9188 -4.2857 -4.2857c 0.0000,-2.3669 1.9188,-4.2857 4.2857 -4.2857c 2.3669,-0.0000 4.2857,1.9188 4.2857 4.2857ZM 64.2857,61.4286 c 0.0000,2.3669 -1.9188,4.2857 -4.2857 4.2857c -2.3669,-0.0000 -4.2857,-1.9188 -4.2857 -4.2857c 0.0000,-2.3669 1.9188,-4.2857 4.2857 -4.2857c 2.3669,-0.0000 4.2857,1.9188 4.2857 4.2857ZM 64.2857,72.8571 c 0.0000,2.3669 -1.9188,4.2857 -4.2857 4.2857c -2.3669,-0.0000 -4.2857,-1.9188 -4.2857 -4.2857c 0.0000,-2.3669 1.9188,-4.2857 4.2857 -4.2857c 2.3669,-0.0000 4.2857,1.9188 4.2857 4.2857ZM 64.2857,84.2857 c 0.0000,2.3669 -1.9188,4.2857 -4.2857 4.2857c -2.3669,-0.0000 -4.2857,-1.9188 -4.2857 -4.2857c 0.0000,-2.3669 1.9188,-4.2857 4.2857 -4.2857c 2.3669,-0.0000 4.2857,1.9188 4.2857 4.2857ZM 64.2857,95.7143 c 0.0000,2.3669 -1.9188,4.2857 -4.2857 4.2857c -2.3669,-0.0000 -4.2857,-1.9188 -4.2857 -4.2857c 0.0000,-2.3669 1.9188,-4.2857 4.2857 -4.2857c 2.3669,-0.0000 4.2857,1.9188 4.2857 4.2857Z"/></g></svg>