<svg xmlns="http://www.w3.org/2000/svg" height="513.0941" stroke-opacity="1" viewBox="0 0 400 513" font-size="1" width="400.0000" xmlns:xlink="http://www.w3.org/1999/xlink" stroke="rgb(0,0,0)" version="1.1"><defs></defs><g stroke-linejoin="miter" stroke-opacity="1.0" fill-opacity="0.0" stroke="rgb(0,0,0)" stroke-width="1.8121264144142966" fill="rgb(0,0,0)" stroke-linecap="butt" stroke-miterlimit="10.0"><path d="M 137.8515,471.6617 h 82.8647 l 20.7162,-35.8815 l 20.7162,35.8815 c 25.1294,-0.0000 47.4009,-16.1812 55.1663 -40.0807l 25.6066,-78.8090 l -27.7237,-30.7902 l 40.5269,-8.6143 c 7.7654,-23.8995 -0.7415,-50.0812 -21.0717 -64.8519l -67.0389,-48.7066 l -37.8503,16.8521 l 4.3309,-41.2054 c -20.3301,-14.7707 -47.8592,-14.7707 -68.1893 -0.0000l -67.0389,48.7066 l 4.3309,41.2054 l -37.8503,-16.8521 c -20.3301,14.7707 -28.8371,40.9524 -21.0717 64.8519l 25.6066,78.8090 l 40.5269,8.6143 l -27.7237,30.7902 c 7.7654,23.8995 30.0369,40.0807 55.1663 40.0807"/></g><g stroke-linejoin="miter" stroke-opacity="1.0" fill-opacity="0.0" stroke="rgb(0,0,0)" stroke-width="1.8121264144142966" fill="rgb(0,0,0)" stroke-linecap="butt" stroke-miterlimit="10.0"><path d="M 110.2683,81.5130 h 82.8647 l 20.7162,-35.8815 l 20.7162,35.8815 c 25.1294,-0.0000 47.4009,-16.1812 55.1663 -40.0807"/></g></svg>