<?xml version="1.0" encoding="UTF-8"?>
<!DOCTYPE svg PUBLIC "-//W3C//DTD SVG 1.1//EN"
    "http://www.w3.org/Graphics/SVG/1.1/DTD/svg11.dtd">
<svg xmlns="http://www.w3.org/2000/svg" xmlns:xlink="http://www.w3.org/1999/xlink" version="1.1" width="300.0" height="346.4101615137754" font-size="1" viewBox="0 0 300 346"><g><g fill="rgb(0,0,0)" fill-opacity="0.0"><g stroke="rgb(0,0,0)" stroke-opacity="1.0" stroke-width="1.28948391818825" stroke-linecap="butt" stroke-linejoin="miter" font-size="272.7272727272725em" stroke-miterlimit="10.0"><g><path d="M 13.636363636363711,94.475498594666 h 3.367003367003364 l 1.6835016835016825,-2.9159104504526527 l 1.6835016835016825,2.9159104504526527 h 3.367003367003364 l 1.6835016835016825,-2.9159104504526527 l -1.6835016835016812,-2.915910450452653 l 3.367003367003364,-2.365532012695644e-16 l 1.6835016835016825,-2.9159104504526527 l 1.6835016835016825,2.9159104504526527 l 3.367003367003364,2.365532012695644e-16 l -1.6835016835016812,2.915910450452653 l 1.6835016835016825,2.9159104504526527 h 3.367003367003364 l 1.6835016835016825,-2.9159104504526527 l 1.6835016835016825,2.9159104504526527 h 3.367003367003364 l 1.6835016835016825,-2.9159104504526527 l -1.6835016835016812,-2.915910450452653 l 3.367003367003364,-2.365532012695644e-16 l 1.6835016835016825,-2.9159104504526527 l -1.6835016835016803,-2.9159104504526545 l -3.367003367003364,-2.838638415234773e-15 l 1.6835016835016838,-2.9159104504526523 l -1.6835016835016803,-2.9159104504526545 h 3.367003367003364 l 1.6835016835016825,-2.9159104504526527 l 1.6835016835016825,2.9159104504526527 h 3.367003367003364 l 1.6835016835016825,-2.9159104504526527 l -1.6835016835016812,-2.915910450452653 l 3.367003367003364,-2.365532012695644e-16 l 1.6835016835016825,-2.9159104504526527 l 1.6835016835016825,2.9159104504526527 l 3.367003367003364,2.365532012695644e-16 l -1.6835016835016812,2.915910450452653 l 1.6835016835016825,2.9159104504526527 h 3.367003367003364 l 1.6835016835016825,-2.9159104504526527 l 1.6835016835016825,2.9159104504526527 h 3.367003367003364 l -1.6835016835016803,2.9159104504526545 l 1.6835016835016838,2.9159104504526523 l -3.367003367003364,2.838638415234773e-15 l -1.6835016835016803,2.9159104504526545 l 1.6835016835016825,2.9159104504526527 l 3.367003367003364,2.365532012695644e-16 l -1.6835016835016812,2.915910450452653 l 1.6835016835016825,2.9159104504526527 h 3.367003367003364 l 1.6835016835016825,-2.9159104504526527 l 1.6835016835016825,2.9159104504526527 h 3.367003367003364 l 1.6835016835016825,-2.9159104504526527 l -1.6835016835016812,-2.915910450452653 l 3.367003367003364,-2.365532012695644e-16 l 1.6835016835016825,-2.9159104504526527 l 1.6835016835016825,2.9159104504526527 l 3.367003367003364,2.365532012695644e-16 l -1.6835016835016812,2.915910450452653 l 1.6835016835016825,2.9159104504526527 h 3.367003367003364 l 1.6835016835016825,-2.9159104504526527 l 1.6835016835016825,2.9159104504526527 h 3.367003367003364 l 1.6835016835016825,-2.9159104504526527 l -1.6835016835016812,-2.915910450452653 l 3.367003367003364,-2.365532012695644e-16 l 1.6835016835016825,-2.9159104504526527 l -1.6835016835016803,-2.9159104504526545 l -3.367003367003364,-2.838638415234773e-15 l 1.6835016835016838,-2.9159104504526523 l -1.6835016835016803,-2.9159104504526545 h 3.367003367003364 l 1.6835016835016825,-2.9159104504526527 l 1.6835016835016825,2.9159104504526527 h 3.367003367003364 l 1.6835016835016825,-2.9159104504526527 l -1.6835016835016812,-2.915910450452653 l 3.367003367003364,-2.365532012695644e-16 l 1.6835016835016825,-2.9159104504526527 l -1.68350168350168,-2.915910450452654 l -3.3670033670033637,-2.838638415234773e-15 l 1.6835016835016836,-2.915910450452652 l -1.68350168350168,-2.915910450452654 l -3.367003367003364,-3.402838719241952e-15 l -1.6835016835016854,2.915910450452651 l -1.6835016835016798,-2.9159104504526545 l -3.367003367003364,-3.402838719241952e-15 l 1.6835016835016834,-2.915910450452652 l -1.6835016835016798,-2.9159104504526536 l 3.3670033670033637,9.462128050782577e-16 l 1.6835016835016834,-2.915910450452652 l -1.68350168350168,-2.915910450452654 l -3.3670033670033637,-2.838638415234773e-15 l 1.6835016835016836,-2.915910450452652 l -1.68350168350168,-2.915910450452654 h 3.367003367003364 l 1.6835016835016825,-2.9159104504526527 l 1.6835016835016825,2.9159104504526527 h 3.367003367003364 l 1.6835016835016825,-2.9159104504526527 l -1.6835016835016812,-2.915910450452653 l 3.367003367003364,-2.365532012695644e-16 l 1.6835016835016825,-2.9159104504526527 l 1.6835016835016825,2.9159104504526527 l 3.367003367003364,2.365532012695644e-16 l -1.6835016835016812,2.915910450452653 l 1.6835016835016825,2.9159104504526527 h 3.367003367003364 l 1.6835016835016825,-2.9159104504526527 l 1.6835016835016825,2.9159104504526527 h 3.367003367003364 l 1.6835016835016825,-2.9159104504526527 l -1.6835016835016812,-2.915910450452653 l 3.367003367003364,-2.365532012695644e-16 l 1.6835016835016825,-2.9159104504526527 l -1.6835016835016803,-2.9159104504526545 l -3.367003367003364,-2.838638415234773e-15 l 1.6835016835016838,-2.9159104504526523 l -1.6835016835016803,-2.9159104504526545 h 3.367003367003364 l 1.6835016835016825,-2.9159104504526527 l 1.6835016835016825,2.9159104504526527 h 3.367003367003364 l 1.6835016835016825,-2.9159104504526527 l -1.6835016835016812,-2.915910450452653 l 3.367003367003364,-2.365532012695644e-16 l 1.6835016835016825,-2.9159104504526527 l 1.6835016835016825,2.9159104504526527 l 3.367003367003364,2.365532012695644e-16 l -1.6835016835016812,2.915910450452653 l 1.6835016835016825,2.9159104504526527 h 3.367003367003364 l 1.6835016835016825,-2.9159104504526527 l 1.6835016835016825,2.9159104504526527 h 3.367003367003364 l -1.6835016835016803,2.9159104504526545 l 1.6835016835016838,2.9159104504526523 l -3.367003367003364,2.838638415234773e-15 l -1.6835016835016803,2.9159104504526545 l 1.6835016835016825,2.9159104504526527 l 3.367003367003364,2.365532012695644e-16 l -1.6835016835016812,2.915910450452653 l 1.6835016835016825,2.9159104504526527 h 3.367003367003364 l 1.6835016835016825,-2.9159104504526527 l 1.6835016835016825,2.9159104504526527 h 3.367003367003364 l 1.6835016835016825,-2.9159104504526527 l -1.6835016835016812,-2.915910450452653 l 3.367003367003364,-2.365532012695644e-16 l 1.6835016835016825,-2.9159104504526527 l 1.6835016835016825,2.9159104504526527 l 3.367003367003364,2.365532012695644e-16 l -1.6835016835016812,2.915910450452653 l 1.6835016835016825,2.9159104504526527 h 3.367003367003364 l 1.6835016835016825,-2.9159104504526527 l 1.6835016835016825,2.9159104504526527 h 3.367003367003364 l -1.68350168350168,2.915910450452654 l 1.6835016835016836,2.915910450452652 l -3.3670033670033637,2.838638415234773e-15 l -1.68350168350168,2.915910450452654 l 1.6835016835016834,2.915910450452652 l 3.3670033670033637,-9.462128050782577e-16 l -1.6835016835016798,2.9159104504526536 l 1.6835016835016834,2.915910450452652 l -3.367003367003364,3.402838719241952e-15 l -1.6835016835016798,2.9159104504526545 l -1.6835016835016854,-2.915910450452651 l -3.367003367003364,3.402838719241952e-15 l -1.68350168350168,2.915910450452654 l 1.6835016835016836,2.915910450452652 l -3.3670033670033637,2.838638415234773e-15 l -1.68350168350168,2.915910450452654 l 1.6835016835016825,2.9159104504526527 l 3.367003367003364,2.365532012695644e-16 l -1.6835016835016812,2.915910450452653 l 1.6835016835016825,2.9159104504526527 h 3.367003367003364 l 1.6835016835016825,-2.9159104504526527 l 1.6835016835016825,2.9159104504526527 h 3.367003367003364 l -1.6835016835016803,2.9159104504526545 l 1.6835016835016838,2.9159104504526523 l -3.367003367003364,2.838638415234773e-15 l -1.6835016835016803,2.9159104504526545 l 1.6835016835016825,2.9159104504526527 l 3.367003367003364,2.365532012695644e-16 l -1.6835016835016812,2.915910450452653 l 1.6835016835016825,2.9159104504526527 h 3.367003367003364 l 1.6835016835016825,-2.9159104504526527 l 1.6835016835016825,2.9159104504526527 h 3.367003367003364 l 1.6835016835016825,-2.9159104504526527 l -1.6835016835016812,-2.915910450452653 l 3.367003367003364,-2.365532012695644e-16 l 1.6835016835016825,-2.9159104504526527 l 1.6835016835016825,2.9159104504526527 l 3.367003367003364,2.365532012695644e-16 l -1.6835016835016812,2.915910450452653 l 1.6835016835016825,2.9159104504526527 h 3.367003367003364 l 1.6835016835016825,-2.9159104504526527 l 1.6835016835016825,2.9159104504526527 h 3.367003367003364 l 1.6835016835016825,-2.9159104504526527 l -1.6835016835016812,-2.915910450452653 l 3.367003367003364,-2.365532012695644e-16 l 1.6835016835016825,-2.9159104504526527 l -1.6835016835016803,-2.9159104504526545 l -3.367003367003364,-2.838638415234773e-15 l 1.6835016835016838,-2.9159104504526523 l -1.6835016835016803,-2.9159104504526545 h 3.367003367003364 l 1.6835016835016825,-2.9159104504526527 l 1.6835016835016825,2.9159104504526527 h 3.367003367003364 l 1.6835016835016825,-2.9159104504526527 l -1.6835016835016812,-2.915910450452653 l 3.367003367003364,-2.365532012695644e-16 l 1.6835016835016825,-2.9159104504526527 l 1.6835016835016825,2.9159104504526527 l 3.367003367003364,2.365532012695644e-16 l -1.6835016835016812,2.915910450452653 l 1.6835016835016825,2.9159104504526527 h 3.367003367003364 l 1.6835016835016825,-2.9159104504526527 l 1.6835016835016825,2.9159104504526527 h 3.367003367003364 l -1.6835016835016803,2.9159104504526545 l 1.6835016835016838,2.9159104504526523 l -3.367003367003364,2.838638415234773e-15 l -1.6835016835016803,2.9159104504526545 l 1.6835016835016825,2.9159104504526527 l 3.367003367003364,2.365532012695644e-16 l -1.6835016835016812,2.915910450452653 l 1.6835016835016825,2.9159104504526527 h 3.367003367003364 l 1.6835016835016825,-2.9159104504526527 l 1.6835016835016825,2.9159104504526527 h 3.367003367003364 l 1.6835016835016825,-2.9159104504526527 l -1.6835016835016812,-2.915910450452653 l 3.367003367003364,-2.365532012695644e-16 l 1.6835016835016825,-2.9159104504526527 l 1.6835016835016825,2.9159104504526527 l 3.367003367003364,2.365532012695644e-16 l -1.6835016835016812,2.915910450452653 l 1.6835016835016825,2.9159104504526527 h 3.367003367003364 l 1.6835016835016825,-2.9159104504526527 l 1.6835016835016825,2.9159104504526527 h 3.367003367003364 l -1.6835016835016814,2.915910450452653 l 1.683501683501682,2.9159104504526527 l -3.367003367003364,1.4193192076173865e-15 l -1.6835016835016814,2.915910450452653 l 1.683501683501682,2.9159104504526527 h 3.3670033670033637 l -1.6835016835016812,2.915910450452653 l 1.683501683501682,2.9159104504526527 l -3.367003367003364,1.4193192076173865e-15 l -1.6835016835016816,2.915910450452653 l -1.6835016835016836,-2.915910450452652 l -3.367003367003364,1.4193192076173865e-15 l -1.6835016835016814,2.915910450452653 l 1.683501683501682,2.9159104504526527 l -3.367003367003364,1.4193192076173865e-15 l -1.6835016835016814,2.915910450452653 l 1.683501683501682,2.9159104504526527 h 3.3670033670033637 l -1.6835016835016812,2.915910450452653 l 1.683501683501682,2.9159104504526527 l 3.367003367003364,1.655872408886951e-15 l 1.6835016835016838,-2.915910450452652 l 1.6835016835016812,2.915910450452653 l 3.367003367003364,1.655872408886951e-15 l -1.6835016835016814,2.915910450452653 l 1.683501683501682,2.9159104504526527 l -3.367003367003364,1.4193192076173865e-15 l -1.6835016835016814,2.915910450452653 l 1.683501683501682,2.9159104504526527 h 3.3670033670033637 l -1.6835016835016812,2.915910450452653 l 1.683501683501682,2.9159104504526527 l -3.367003367003364,1.4193192076173865e-15 l -1.6835016835016816,2.915910450452653 l -1.6835016835016836,-2.915910450452652 l -3.367003367003364,1.4193192076173865e-15 l -1.6835016835016814,2.915910450452653 l 1.683501683501682,2.9159104504526527 l -3.367003367003364,1.4193192076173865e-15 l -1.6835016835016814,2.915910450452653 l -1.683501683501685,-2.9159104504526514 l -3.367003367003364,2.6020852139652087e-15 l 1.683501683501679,-2.9159104504526545 l -1.683501683501685,-2.9159104504526514 l -3.367003367003364,1.4193192076173865e-15 l -1.6835016835016816,2.915910450452653 l -1.6835016835016836,-2.915910450452652 l -3.367003367003364,1.4193192076173865e-15 l -1.6835016835016814,2.915910450452653 l 1.683501683501682,2.9159104504526527 l -3.367003367003364,1.4193192076173865e-15 l -1.6835016835016814,2.915910450452653 l 1.683501683501682,2.9159104504526527 h 3.3670033670033637 l -1.6835016835016812,2.915910450452653 l 1.683501683501682,2.9159104504526527 l -3.367003367003364,1.4193192076173865e-15 l -1.6835016835016816,2.915910450452653 l -1.6835016835016836,-2.915910450452652 l -3.367003367003364,1.4193192076173865e-15 l -1.6835016835016814,2.915910450452653 l 1.683501683501682,2.9159104504526527 l -3.367003367003364,1.4193192076173865e-15 l -1.6835016835016814,2.915910450452653 l 1.683501683501682,2.9159104504526527 h 3.3670033670033637 l -1.6835016835016812,2.915910450452653 l 1.683501683501682,2.9159104504526527 l 3.367003367003364,1.655872408886951e-15 l 1.6835016835016838,-2.915910450452652 l 1.6835016835016812,2.915910450452653 l 3.367003367003364,1.655872408886951e-15 l -1.6835016835016814,2.915910450452653 l 1.683501683501682,2.9159104504526527 l -3.367003367003364,1.4193192076173865e-15 l -1.6835016835016814,2.915910450452653 l 1.683501683501682,2.9159104504526527 h 3.3670033670033637 l -1.6835016835016812,2.915910450452653 l 1.683501683501682,2.9159104504526527 l 3.3670033670033637,1.655872408886951e-15 l 1.6835016835016836,-2.9159104504526514 l 1.6835016835016807,2.915910450452653 l 3.3670033670033637,1.655872408886951e-15 l 1.6835016835016843,-2.9159104504526514 l -1.6835016835016787,-2.915910450452654 l 3.367003367003364,2.12897881142608e-15 l 1.6835016835016843,-2.9159104504526514 l 1.683501683501681,2.9159104504526527 l 3.3670033670033637,1.655872408886951e-15 l -1.6835016835016818,2.9159104504526523 l 1.683501683501681,2.9159104504526527 l 3.3670033670033637,1.655872408886951e-15 l 1.6835016835016836,-2.9159104504526514 l 1.6835016835016807,2.915910450452653 l 3.3670033670033637,1.655872408886951e-15 l -1.6835016835016814,2.915910450452653 l 1.683501683501682,2.9159104504526527 l -3.367003367003364,1.4193192076173865e-15 l -1.6835016835016814,2.915910450452653 l 1.683501683501682,2.9159104504526527 h 3.3670033670033637 l -1.6835016835016812,2.915910450452653 l 1.683501683501682,2.9159104504526527 l -3.367003367003364,1.4193192076173865e-15 l -1.6835016835016816,2.915910450452653 l -1.6835016835016836,-2.915910450452652 l -3.367003367003364,1.4193192076173865e-15 l -1.6835016835016814,2.915910450452653 l 1.683501683501682,2.9159104504526527 l -3.367003367003364,1.4193192076173865e-15 l -1.6835016835016814,2.915910450452653 l 1.683501683501682,2.9159104504526527 h 3.3670033670033637 l -1.6835016835016812,2.915910450452653 l 1.683501683501682,2.9159104504526527 l 3.367003367003364,1.655872408886951e-15 l 1.6835016835016838,-2.915910450452652 l 1.6835016835016812,2.915910450452653 l 3.367003367003364,1.655872408886951e-15 l -1.6835016835016814,2.915910450452653 l 1.683501683501682,2.9159104504526527 l -3.367003367003364,1.4193192076173865e-15 l -1.6835016835016814,2.915910450452653 l 1.683501683501682,2.9159104504526527 h 3.3670033670033637 l -1.6835016835016812,2.915910450452653 l 1.683501683501682,2.9159104504526527 l -3.367003367003364,1.4193192076173865e-15 l -1.6835016835016816,2.915910450452653 l -1.6835016835016836,-2.915910450452652 l -3.367003367003364,1.4193192076173865e-15 l -1.6835016835016814,2.915910450452653 l 1.683501683501682,2.9159104504526527 l -3.367003367003364,1.4193192076173865e-15 l -1.6835016835016814,2.915910450452653 l -1.683501683501685,-2.9159104504526514 l -3.367003367003364,2.6020852139652087e-15 l 1.683501683501679,-2.9159104504526545 l -1.683501683501685,-2.9159104504526514 l -3.367003367003364,1.4193192076173865e-15 l -1.6835016835016816,2.915910450452653 l -1.6835016835016836,-2.915910450452652 l -3.367003367003364,1.4193192076173865e-15 l -1.6835016835016814,2.915910450452653 l 1.683501683501682,2.9159104504526527 l -3.367003367003364,1.4193192076173865e-15 l -1.6835016835016814,2.915910450452653 l 1.683501683501682,2.9159104504526527 h 3.3670033670033637 l -1.6835016835016812,2.915910450452653 l 1.683501683501682,2.9159104504526527 l -3.367003367003364,1.4193192076173865e-15 l -1.6835016835016816,2.915910450452653 l -1.6835016835016836,-2.915910450452652 l -3.367003367003364,1.4193192076173865e-15 l -1.6835016835016814,2.915910450452653 l 1.683501683501682,2.9159104504526527 l -3.367003367003364,1.4193192076173865e-15 l -1.6835016835016814,2.915910450452653 l -1.6835016835016845,-2.9159104504526514 l -3.3670033670033637,2.6020852139652087e-15 l 1.6835016835016787,-2.915910450452654 l -1.6835016835016845,-2.9159104504526514 l -3.3670033670033632,2.3655320126956442e-15 l -1.6835016835016805,2.915910450452653 l -1.6835016835016845,-2.9159104504526505 l -3.3670033670033632,2.3655320126956442e-15 l 1.6835016835016785,-2.915910450452655 l -1.683501683501685,-2.9159104504526514 l 3.3670033670033637,-4.7310640253912885e-15 l 1.6835016835016785,-2.915910450452655 l -1.6835016835016845,-2.9159104504526514 l -3.3670033670033637,2.6020852139652087e-15 l 1.6835016835016787,-2.915910450452654 l -1.6835016835016845,-2.9159104504526514 l -3.367003367003364,1.4193192076173865e-15 l -1.6835016835016816,2.915910450452653 l -1.6835016835016836,-2.915910450452652 l -3.367003367003364,1.4193192076173865e-15 l -1.6835016835016814,2.915910450452653 l 1.683501683501682,2.9159104504526527 l -3.367003367003364,1.4193192076173865e-15 l -1.6835016835016814,2.915910450452653 l -1.683501683501685,-2.9159104504526514 l -3.367003367003364,2.6020852139652087e-15 l 1.683501683501679,-2.9159104504526545 l -1.683501683501685,-2.9159104504526514 l -3.367003367003364,1.4193192076173865e-15 l -1.6835016835016816,2.915910450452653 l -1.6835016835016836,-2.915910450452652 l -3.367003367003364,1.4193192076173865e-15 l -1.6835016835016814,2.915910450452653 l 1.683501683501682,2.9159104504526527 l -3.367003367003364,1.4193192076173865e-15 l -1.6835016835016814,2.915910450452653 l 1.683501683501682,2.9159104504526527 h 3.3670033670033637 l -1.6835016835016812,2.915910450452653 l 1.683501683501682,2.9159104504526527 l -3.367003367003364,1.4193192076173865e-15 l -1.6835016835016816,2.915910450452653 l -1.6835016835016836,-2.915910450452652 l -3.367003367003364,1.4193192076173865e-15 l -1.6835016835016814,2.915910450452653 l 1.683501683501682,2.9159104504526527 l -3.367003367003364,1.4193192076173865e-15 l -1.6835016835016814,2.915910450452653 l 1.683501683501682,2.9159104504526527 h 3.3670033670033637 l -1.6835016835016812,2.915910450452653 l 1.683501683501682,2.9159104504526527 l 3.367003367003364,1.655872408886951e-15 l 1.6835016835016838,-2.915910450452652 l 1.6835016835016812,2.915910450452653 l 3.367003367003364,1.655872408886951e-15 l -1.6835016835016814,2.915910450452653 l 1.683501683501682,2.9159104504526527 l -3.367003367003364,1.4193192076173865e-15 l -1.6835016835016814,2.915910450452653 l 1.683501683501682,2.9159104504526527 h 3.3670033670033637 l -1.6835016835016812,2.915910450452653 l 1.683501683501682,2.9159104504526527 l -3.367003367003364,1.4193192076173865e-15 l -1.6835016835016816,2.915910450452653 l -1.6835016835016836,-2.915910450452652 l -3.367003367003364,1.4193192076173865e-15 l -1.6835016835016814,2.915910450452653 l 1.683501683501682,2.9159104504526527 l -3.367003367003364,1.4193192076173865e-15 l -1.6835016835016814,2.915910450452653 l -1.683501683501685,-2.9159104504526514 l -3.367003367003364,2.6020852139652087e-15 l 1.683501683501679,-2.9159104504526545 l -1.683501683501685,-2.9159104504526514 l -3.367003367003364,1.4193192076173865e-15 l -1.6835016835016816,2.915910450452653 l -1.6835016835016836,-2.915910450452652 l -3.367003367003364,1.4193192076173865e-15 l -1.6835016835016814,2.915910450452653 l 1.683501683501682,2.9159104504526527 l -3.367003367003364,1.4193192076173865e-15 l -1.6835016835016814,2.915910450452653 l 1.683501683501682,2.9159104504526527 h 3.3670033670033637 l -1.6835016835016812,2.915910450452653 l 1.683501683501682,2.9159104504526527 l -3.367003367003364,1.4193192076173865e-15 l -1.6835016835016816,2.915910450452653 l -1.6835016835016836,-2.915910450452652 l -3.367003367003364,1.4193192076173865e-15 l -1.6835016835016814,2.915910450452653 l 1.683501683501682,2.9159104504526527 l -3.367003367003364,1.4193192076173865e-15 l -1.6835016835016814,2.915910450452653 l -1.6835016835016834,-2.915910450452652 l -3.3670033670033637,9.462128050782577e-16 l 1.6835016835016803,-2.9159104504526536 l -1.6835016835016834,-2.915910450452652 l -3.3670033670033637,9.462128050782577e-16 l -1.6835016835016812,2.9159104504526527 l -1.6835016835016836,-2.915910450452652 l -3.3670033670033637,9.462128050782577e-16 l 1.6835016835016803,-2.9159104504526536 l -1.6835016835016832,-2.9159104504526523 l 3.3670033670033637,-2.6020852139652087e-15 l 1.6835016835016803,-2.9159104504526536 l -1.6835016835016834,-2.915910450452652 l -3.3670033670033637,9.462128050782577e-16 l 1.6835016835016803,-2.9159104504526536 l -1.6835016835016834,-2.915910450452652 l -3.3670033670033637,9.462128050782577e-16 l -1.6835016835016812,2.9159104504526527 l -1.6835016835016836,-2.915910450452652 l -3.3670033670033637,9.462128050782577e-16 l -1.683501683501683,2.9159104504526523 l 1.6835016835016807,2.915910450452653 h -3.3670033670033637 l -1.683501683501683,2.9159104504526523 l -1.6835016835016834,-2.915910450452652 l -3.3670033670033637,9.462128050782577e-16 l 1.6835016835016803,-2.9159104504526536 l -1.6835016835016834,-2.915910450452652 l -3.3670033670033637,9.462128050782577e-16 l -1.6835016835016812,2.9159104504526527 l -1.6835016835016836,-2.915910450452652 l -3.3670033670033637,9.462128050782577e-16 l 1.6835016835016803,-2.9159104504526536 l -1.6835016835016832,-2.9159104504526523 l 3.3670033670033637,-2.6020852139652087e-15 l 1.6835016835016803,-2.9159104504526536 l -1.6835016835016834,-2.915910450452652 l -3.3670033670033637,9.462128050782577e-16 l 1.6835016835016803,-2.9159104504526536 l -1.6835016835016834,-2.915910450452652 l 3.3670033670033637,-4.021404421582595e-15 l 1.683501683501679,-2.9159104504526545 l 1.6835016835016854,2.9159104504526505 l 3.3670033670033637,-4.021404421582595e-15 l 1.6835016835016803,-2.9159104504526536 l -1.6835016835016832,-2.9159104504526523 l 3.3670033670033637,-2.6020852139652087e-15 l 1.6835016835016803,-2.9159104504526536 l -1.6835016835016834,-2.915910450452652 l -3.3670033670033637,9.462128050782577e-16 l 1.6835016835016803,-2.9159104504526536 l -1.6835016835016834,-2.915910450452652 l -3.3670033670033637,9.462128050782577e-16 l -1.6835016835016812,2.9159104504526527 l -1.6835016835016836,-2.915910450452652 l -3.3670033670033637,9.462128050782577e-16 l 1.6835016835016803,-2.9159104504526536 l -1.6835016835016832,-2.9159104504526523 l 3.3670033670033637,-2.6020852139652087e-15 l 1.6835016835016803,-2.9159104504526536 l -1.6835016835016834,-2.915910450452652 l -3.3670033670033637,9.462128050782577e-16 l 1.6835016835016803,-2.9159104504526536 l -1.6835016835016834,-2.915910450452652 l -3.3670033670033637,9.462128050782577e-16 l -1.6835016835016812,2.9159104504526527 l -1.6835016835016836,-2.915910450452652 l -3.3670033670033637,9.462128050782577e-16 l -1.683501683501683,2.9159104504526523 l 1.6835016835016807,2.915910450452653 h -3.3670033670033637 l -1.683501683501683,2.9159104504526523 l -1.6835016835016834,-2.915910450452652 l -3.3670033670033637,9.462128050782577e-16 l 1.6835016835016803,-2.9159104504526536 l -1.6835016835016834,-2.915910450452652 l -3.3670033670033637,9.462128050782577e-16 l -1.6835016835016812,2.9159104504526527 l -1.6835016835016836,-2.915910450452652 l -3.3670033670033637,9.462128050782577e-16 l -1.6835016835016825,2.915910450452652 l 1.6835016835016803,2.9159104504526527 l -3.3670033670033637,-4.731064025391288e-16 l -1.6835016835016825,2.915910450452652 l 1.68350168350168,2.915910450452653 l 3.3670033670033632,2.6020852139652087e-15 l -1.6835016835016834,2.9159104504526523 l 1.68350168350168,2.915910450452653 h -3.3670033670033632 l -1.6835016835016825,2.915910450452652 l -1.683501683501682,-2.915910450452652 h -3.3670033670033632 l -1.6835016835016825,2.915910450452652 l 1.6835016835016803,2.9159104504526527 l -3.3670033670033637,-4.731064025391288e-16 l -1.6835016835016825,2.915910450452652 l -1.6835016835016834,-2.915910450452652 l -3.3670033670033637,9.462128050782577e-16 l 1.6835016835016803,-2.9159104504526536 l -1.6835016835016834,-2.915910450452652 l -3.3670033670033637,9.462128050782577e-16 l -1.6835016835016812,2.9159104504526527 l -1.6835016835016836,-2.915910450452652 l -3.3670033670033637,9.462128050782577e-16 l 1.6835016835016803,-2.9159104504526536 l -1.6835016835016832,-2.9159104504526523 l 3.3670033670033637,-2.6020852139652087e-15 l 1.6835016835016803,-2.9159104504526536 l -1.6835016835016834,-2.915910450452652 l -3.3670033670033637,9.462128050782577e-16 l 1.6835016835016803,-2.9159104504526536 l -1.6835016835016834,-2.915910450452652 l -3.3670033670033637,9.462128050782577e-16 l -1.6835016835016812,2.9159104504526527 l -1.6835016835016836,-2.915910450452652 l -3.3670033670033637,9.462128050782577e-16 l -1.683501683501683,2.9159104504526523 l 1.6835016835016807,2.915910450452653 h -3.3670033670033637 l -1.683501683501683,2.9159104504526523 l -1.6835016835016834,-2.915910450452652 l -3.3670033670033637,9.462128050782577e-16 l 1.6835016835016803,-2.9159104504526536 l -1.6835016835016834,-2.915910450452652 l -3.3670033670033637,9.462128050782577e-16 l -1.6835016835016812,2.9159104504526527 l -1.6835016835016836,-2.915910450452652 l -3.3670033670033637,9.462128050782577e-16 l 1.6835016835016803,-2.9159104504526536 l -1.6835016835016832,-2.9159104504526523 l 3.3670033670033637,-2.6020852139652087e-15 l 1.6835016835016803,-2.9159104504526536 l -1.6835016835016834,-2.915910450452652 l -3.3670033670033637,9.462128050782577e-16 l 1.6835016835016803,-2.9159104504526536 l -1.6835016835016834,-2.915910450452652 l 3.3670033670033637,-4.021404421582595e-15 l 1.683501683501679,-2.9159104504526545 l 1.6835016835016854,2.9159104504526505 l 3.3670033670033637,-4.021404421582595e-15 l 1.6835016835016803,-2.9159104504526536 l -1.6835016835016832,-2.9159104504526523 l 3.3670033670033637,-2.6020852139652087e-15 l 1.6835016835016803,-2.9159104504526536 l -1.6835016835016834,-2.915910450452652 l -3.3670033670033637,9.462128050782577e-16 l 1.6835016835016803,-2.9159104504526536 l -1.6835016835016834,-2.915910450452652 l -3.3670033670033637,9.462128050782577e-16 l -1.6835016835016812,2.9159104504526527 l -1.6835016835016836,-2.915910450452652 l -3.3670033670033637,9.462128050782577e-16 l 1.6835016835016803,-2.9159104504526536 l -1.6835016835016832,-2.9159104504526523 l 3.3670033670033637,-2.6020852139652087e-15 l 1.6835016835016803,-2.9159104504526536 l -1.6835016835016834,-2.915910450452652 l -3.3670033670033637,9.462128050782577e-16 l 1.6835016835016803,-2.9159104504526536 l -1.6835016835016834,-2.915910450452652 l 3.3670033670033637,-3.784851220313031e-15 l 1.6835016835016787,-2.915910450452654 l 1.683501683501685,2.9159104504526505 l 3.3670033670033637,-3.784851220313031e-15 l 1.6835016835016787,-2.915910450452653 l -1.6835016835016838,-2.9159104504526514 l 3.367003367003363,-4.25795762285216e-15 l 1.6835016835016787,-2.915910450452653 l 1.683501683501686,2.9159104504526505 l 3.3670033670033637,-4.021404421582595e-15 l -1.6835016835016772,2.915910450452655 l 1.683501683501686,2.9159104504526505 l 3.3670033670033637,-3.784851220313031e-15 l 1.6835016835016787,-2.915910450452654 l 1.683501683501685,2.9159104504526505 l 3.3670033670033637,-3.784851220313031e-15 l 1.6835016835016803,-2.9159104504526536 l -1.6835016835016832,-2.9159104504526523 l 3.3670033670033637,-2.6020852139652087e-15 l 1.6835016835016803,-2.9159104504526536 l -1.6835016835016834,-2.915910450452652 l -3.3670033670033637,9.462128050782577e-16 l 1.6835016835016803,-2.9159104504526536 l -1.6835016835016834,-2.915910450452652 l 3.3670033670033637,-4.021404421582595e-15 l 1.683501683501679,-2.9159104504526545 l 1.6835016835016854,2.9159104504526505 l 3.3670033670033637,-4.021404421582595e-15 l 1.6835016835016803,-2.9159104504526536 l -1.6835016835016832,-2.9159104504526523 l 3.3670033670033637,-2.6020852139652087e-15 l 1.6835016835016803,-2.9159104504526536 l -1.6835016835016834,-2.915910450452652 l -3.3670033670033637,9.462128050782577e-16 l 1.6835016835016803,-2.9159104504526536 l -1.6835016835016834,-2.915910450452652 l -3.3670033670033637,9.462128050782577e-16 l -1.6835016835016812,2.9159104504526527 l -1.6835016835016836,-2.915910450452652 l -3.3670033670033637,9.462128050782577e-16 l 1.6835016835016803,-2.9159104504526536 l -1.6835016835016832,-2.9159104504526523 l 3.3670033670033637,-2.6020852139652087e-15 l 1.6835016835016803,-2.9159104504526536 l -1.6835016835016834,-2.915910450452652 l -3.3670033670033637,9.462128050782577e-16 l 1.6835016835016803,-2.9159104504526536 l -1.6835016835016834,-2.915910450452652 l -3.3670033670033637,9.462128050782577e-16 l -1.6835016835016812,2.9159104504526527 l -1.6835016835016836,-2.915910450452652 l -3.3670033670033637,9.462128050782577e-16 l -1.683501683501683,2.9159104504526523 l 1.6835016835016807,2.915910450452653 h -3.3670033670033637 l -1.683501683501683,2.9159104504526523 l -1.6835016835016834,-2.915910450452652 l -3.3670033670033637,9.462128050782577e-16 l 1.6835016835016803,-2.9159104504526536 l -1.6835016835016834,-2.915910450452652 l -3.3670033670033637,9.462128050782577e-16 l -1.6835016835016812,2.9159104504526527 l -1.6835016835016836,-2.915910450452652 l -3.3670033670033637,9.462128050782577e-16 l 1.6835016835016803,-2.9159104504526536 l -1.6835016835016832,-2.9159104504526523 l 3.3670033670033637,-2.6020852139652087e-15 l 1.6835016835016803,-2.9159104504526536 l -1.6835016835016834,-2.915910450452652 l -3.3670033670033637,9.462128050782577e-16 l 1.6835016835016803,-2.9159104504526536 l -1.6835016835016834,-2.915910450452652 l 3.3670033670033637,-4.021404421582595e-15 l 1.683501683501679,-2.9159104504526545 l 1.6835016835016854,2.9159104504526505 l 3.3670033670033637,-4.021404421582595e-15 l 1.6835016835016803,-2.9159104504526536 l -1.6835016835016832,-2.9159104504526523 l 3.3670033670033637,-2.6020852139652087e-15 l 1.6835016835016803,-2.9159104504526536 l -1.6835016835016834,-2.915910450452652 l -3.3670033670033637,9.462128050782577e-16 l 1.6835016835016803,-2.9159104504526536 l -1.6835016835016834,-2.915910450452652 l -3.3670033670033637,9.462128050782577e-16 l -1.6835016835016812,2.9159104504526527 l -1.6835016835016836,-2.915910450452652 l -3.3670033670033637,9.462128050782577e-16 l 1.6835016835016803,-2.9159104504526536 l -1.6835016835016832,-2.9159104504526523 l 3.3670033670033637,-2.6020852139652087e-15 l 1.6835016835016803,-2.9159104504526536 l -1.6835016835016834,-2.915910450452652 l -3.3670033670033637,9.462128050782577e-16 l 1.6835016835016803,-2.9159104504526536 Z" /></g></g></g></g></svg>