<?xml version="1.0" encoding="UTF-8"?>
<!DOCTYPE svg PUBLIC "-//W3C//DTD SVG 1.1//EN"
    "http://www.w3.org/Graphics/SVG/1.1/DTD/svg11.dtd">
<svg xmlns="http://www.w3.org/2000/svg" xmlns:xlink="http://www.w3.org/1999/xlink" version="1.1" width="88.71119695091166" height="200.0" font-size="1" viewBox="0 0 89 200"><g><g stroke="rgb(0,0,0)" stroke-opacity="1.0" fill="rgb(0,0,0)" fill-opacity="0.0" stroke-width="1.0e-2" stroke-linecap="butt" stroke-linejoin="miter" font-size="1.0em" stroke-miterlimit="10.0"><g transform="matrix(3.27066542773286,0.0,0.0,3.27066542773286,44.35559847545583,100.0)"><g><g fill="rgb(89,89,255)" fill-opacity="1.0" stroke-width="0.0"><path d="M 9.708203932499362,19.52139491384038 l -9.70820393249937,7.053423027509675 l -9.708203932499368,-7.053423027509677 l 3.7082039324993694,-11.412678195541842 h 12.0 l 3.7082039324993694,11.412678195541844 Z" /></g><g><g fill="rgb(148,148,148)" fill-opacity="1.0" stroke-width="0.0"><path d="M 10.635254915624207,16.668225364954914 l 2.007391819076574,2.2294344764321834 l -0.9270509831248436,2.8531695488854605 l -2.934442802201417,0.6237350724532773 l -2.007391819076574,-2.2294344764321825 l 0.9270509831248417,-2.85316954888546 l 2.934442802201419,-0.6237350724532784 Z" /></g><g fill="rgb(0,0,0)" fill-opacity="1.0"><path d="M 11.268507802572689,16.770858269286407 c 0.41042755402683134,-0.3695506295370292 1.0427248022992233,-0.3364133349082955 1.4122754318362525 7.401421911853578e-2c 0.3695506295370292,0.41042755402683134 0.33641333490829556,1.0427248022992233 -7.401421911853567e-2 1.4122754318362523c -0.4104275540268313,0.3695506295370293 -1.0427248022992233,0.3364133349082956 -1.4122754318362523 -7.401421911853556e-2c -0.3695506295370293,-0.4104275540268313 -0.33641333490829567,-1.0427248022992233 7.401421911853534e-2 -1.4122754318362525Z" /></g><g fill="rgb(0,0,0)" fill-opacity="1.0"><path d="M 8.106321259312278,16.794863802456717 c -0.11482645615018389,-0.5402160029688606 0.23001990694718472,-1.0712328354013816 0.7702359099160452 -1.1860592915515655c 0.5402160029688606,-0.11482645615018391 1.0712328354013816,0.23001990694718466 1.1860592915515655 0.7702359099160451c 0.11482645615018396,0.5402160029688606 -0.2300199069471846,1.0712328354013816 -0.770235909916045 1.1860592915515655c -0.5402160029688606,0.11482645615018398 -1.0712328354013816,-0.23001990694718455 -1.1860592915515658 -0.7702359099160451Z" /></g><g fill="rgb(0,0,0)" fill-opacity="1.0"><path d="M 6.546017389238956,19.54540044701069 c -0.5252540101770149,-0.17066537343183139 -0.8127048953520379,-0.7348195004930858 -0.6420395219202066 -1.2600735106701006c 0.17066537343183136,-0.5252540101770149 0.7348195004930858,-0.8127048953520379 1.2600735106701004 -0.6420395219202066c 0.5252540101770149,0.17066537343183133 0.8127048953520379,0.7348195004930858 0.6420395219202066 1.2600735106701002c -0.1706653734318313,0.5252540101770149 -0.7348195004930856,0.8127048953520379 -1.2600735106701004 0.6420395219202071Z" /></g><g fill="rgb(0,0,0)" fill-opacity="1.0"><path d="M 8.147900062426041,22.271931558394343 c -0.4104275540268312,0.3695506295370293 -1.042724802299223,0.3364133349082958 -1.4122754318362523 -7.401421911853534e-2c -0.3695506295370293,-0.4104275540268312 -0.33641333490829584,-1.042724802299223 7.401421911853523e-2 -1.4122754318362523c 0.4104275540268311,-0.36955062953702933 1.0427248022992228,-0.3364133349082959 1.412275431836252 7.401421911853512e-2c 0.36955062953702933,0.4104275540268311 0.3364133349082959,1.0427248022992228 -7.401421911853512e-2 1.4122754318362525Z" /></g><g fill="rgb(0,0,0)" fill-opacity="1.0"><path d="M 11.310086605686449,22.247926025224032 c 0.11482645615018368,0.5402160029688606 -0.23001990694718516,1.0712328354013816 -0.7702359099160456 1.1860592915515653c -0.5402160029688606,0.1148264561501837 -1.0712328354013816,-0.2300199069471851 -1.1860592915515653 -0.7702359099160456c -0.11482645615018375,-0.5402160029688606 0.23001990694718505,-1.0712328354013816 0.7702359099160454 -1.186059291551565c 0.5402160029688606,-0.11482645615018378 1.0712328354013816,0.230019906947185 1.1860592915515655 0.7702359099160454Z" /></g><g fill="rgb(0,0,0)" fill-opacity="1.0"><path d="M 12.870390475759772,19.497389380670064 c 0.5252540101770149,0.17066537343183144 0.8127048953520379,0.734819500493086 0.6420395219202064 1.2600735106701006c -0.1706653734318314,0.5252540101770149 -0.7348195004930859,0.8127048953520379 -1.2600735106701006 0.6420395219202065c -0.5252540101770149,-0.17066537343183139 -0.8127048953520379,-0.7348195004930858 -0.6420395219202065 -1.2600735106701004c 0.17066537343183136,-0.5252540101770149 0.7348195004930858,-0.8127048953520379 1.2600735106701006 -0.6420395219202069Z" /></g></g><g><g fill="rgb(148,148,148)" fill-opacity="1.0" stroke-width="0.0"><path d="M 3.5729490168751514,6.345360961421112 l 2.7406363729278036,-1.2202099292273996 l 2.4270509831248415,1.7633557568774207 l -0.313585389802961,2.9835656861048196 l -2.7406363729278023,1.2202099292273998 l -2.427050983124842,-1.7633557568774187 l 0.31358538980296036,-2.983565686104822 Z" /></g><g fill="rgb(0,0,0)" fill-opacity="1.0"><path d="M 3.8662446131299903,5.77481698844653 c -0.22463444516813508,-0.5045372245332016 2.2715900335990025e-3,-1.095647655550266 0.5068088145668005 -1.3202821007184011c 0.5045372245332016,-0.2246344451681351 1.095647655550266,2.271590033598947e-3 1.3202821007184011 0.5068088145668004c 0.22463444516813513,0.5045372245332016 -2.2715900335988914e-3,1.095647655550266 -0.5068088145668003 1.3202821007184011c -0.5045372245332016,0.22463444516813516 -1.095647655550266,-2.271590033598836e-3 -1.3202821007184014 -0.5068088145668004Z" /></g><g fill="rgb(0,0,0)" fill-opacity="1.0"><path d="M 2.9119058506275195,8.789653223863848 c -0.5492592761847135,-5.772947618597291e-2 -0.9477229082865937,-0.5497910824512127 -0.8899934321006208 -1.0990503586359262c 5.772947618597288e-2,-0.5492592761847135 0.5497910824512127,-0.9477229082865937 1.099050358635926 -0.8899934321006208c 0.5492592761847135,5.772947618597284e-2 0.9477229082865937,0.5497910824512127 0.8899934321006208 1.099050358635926c -5.772947618597281e-2,0.5492592761847135 -0.5497910824512126,0.9477229082865937 -1.099050358635926 0.8899934321006211Z" /></g><g fill="rgb(0,0,0)" fill-opacity="1.0"><path d="M 5.045661237497521,11.12355295371585 c -0.32462483101657824,0.4468077483472284 -0.9499944983201921,0.545856573099053 -1.3968022466674204 0.22123174208247487c -0.4468077483472284,-0.32462483101657824 -0.545856573099053,-0.949994498320192 -0.22123174208247498 -1.3968022466674204c 0.3246248310165782,-0.4468077483472285 0.949994498320192,-0.5458565730990531 1.3968022466674204 -0.22123174208247498c 0.4468077483472285,0.3246248310165782 0.5458565730990532,0.949994498320192 0.22123174208247498 1.3968022466674204Z" /></g><g fill="rgb(0,0,0)" fill-opacity="1.0"><path d="M 8.133755386869995,10.442616448150533 c 0.22463444516813524,0.5045372245332015 -2.271590033598614e-3,1.095647655550266 -0.5068088145667999 1.3202821007184011c -0.5045372245332015,0.22463444516813527 -1.095647655550266,-2.271590033598614e-3 -1.3202821007184011 -0.5068088145667999c -0.2246344451681353,-0.5045372245332015 2.2715900335985584e-3,-1.0956476555502659 0.5068088145667997 -1.3202821007184011c 0.5045372245332015,-0.22463444516813533 1.0956476555502659,2.271590033598503e-3 1.3202821007184014 0.5068088145667999Z" /></g><g fill="rgb(0,0,0)" fill-opacity="1.0"><path d="M 9.088094149372468,7.427780212733219 c 0.5492592761847134,5.772947618597309e-2 0.9477229082865933,0.549791082451213 0.8899934321006203 1.0990503586359264c -5.772947618597306e-2,0.5492592761847134 -0.5497910824512129,0.9477229082865933 -1.0990503586359262 0.8899934321006203c -0.5492592761847134,-5.7729476185973023e-2 -0.9477229082865933,-0.5497910824512129 -0.8899934321006203 -1.0990503586359262c 5.772947618597299e-2,-0.5492592761847134 0.5497910824512129,-0.9477229082865934 1.0990503586359262 -0.8899934321006204Z" /></g><g fill="rgb(0,0,0)" fill-opacity="1.0"><path d="M 6.954338762502465,5.093880482881216 c 0.3246248310165783,-0.44680774834722836 0.9499944983201922,-0.5458565730990529 1.3968022466674204 -0.22123174208247465c 0.44680774834722836,0.3246248310165783 0.5458565730990529,0.9499944983201921 0.22123174208247476 1.3968022466674204c -0.32462483101657824,0.4468077483472284 -0.949994498320192,0.545856573099053 -1.3968022466674204 0.22123174208247476c -0.4468077483472284,-0.32462483101657824 -0.545856573099053,-0.949994498320192 -0.22123174208247476 -1.3968022466674206Z" /></g></g><g><g fill="rgb(148,148,148)" fill-opacity="1.0" stroke-width="0.0"><path d="M -8.42705098312485,9.872072475175953 l -0.31358538980295925,-2.9835656861048205 l 2.4270509831248432,-1.763355756877418 l 2.7406363729278023,1.2202099292274013 l 0.3135853898029597,2.983565686104819 l -2.4270509831248415,1.763355756877419 l -2.7406363729278045,-1.2202099292274007 Z" /></g><g fill="rgb(0,0,0)" fill-opacity="1.0"><path d="M -8.879037222837173,9.416824003469769 c -0.5492592761847134,5.772947618597328e-2 -1.0413208824499534,-0.34073415591590633 -1.0990503586359268 -0.8899934321006195c -5.7729476185973315e-2,-0.5492592761847134 0.3407341559159063,-1.0413208824499534 0.8899934321006195 -1.0990503586359268c 0.5492592761847134,-5.772947618597335e-2 1.0413208824499534,0.3407341559159062 1.0990503586359268 0.8899934321006193c 5.7729476185973384e-2,0.5492592761847134 -0.34073415591590617,1.0413208824499534 -0.8899934321006195 1.099050358635927Z" /></g><g fill="rgb(0,0,0)" fill-opacity="1.0"><path d="M -6.306664471584804,11.256089734302137 c -0.22463444516813472,0.5045372245332017 -0.815744876185199,0.7314432597349363 -1.3202821007184005 0.5068088145668017c -0.5045372245332017,-0.2246344451681347 -0.7314432597349364,-0.8157448761851989 -0.5068088145668017 -1.3202821007184005c 0.22463444516813466,-0.5045372245332017 0.8157448761851989,-0.7314432597349364 1.3202821007184005 -0.5068088145668017c 0.5045372245332017,0.22463444516813463 0.7314432597349364,0.8157448761851989 0.5068088145668017 1.3202821007184005Z" /></g><g fill="rgb(0,0,0)" fill-opacity="1.0"><path d="M -3.4276272487476387,9.947982449130903 c 0.32462483101657846,0.44680774834722814 0.22557600626475438,1.0721774156508421 -0.22123174208247365 1.3968022466674204c -0.44680774834722814,0.32462483101657846 -1.0721774156508421,0.22557600626475444 -1.3968022466674204 -0.22123174208247365c -0.3246248310165785,-0.4468077483472281 -0.2255760062647545,-1.0721774156508421 0.22123174208247354 -1.3968022466674204c 0.4468077483472281,-0.3246248310165785 1.072177415650842,-0.2255760062647545 1.3968022466674204 0.22123174208247365Z" /></g><g fill="rgb(0,0,0)" fill-opacity="1.0"><path d="M -3.1209627771628403,6.8006094331273 c 0.5492592761847134,-5.7729476185973495e-2 1.0413208824499536,0.34073415591590595 1.099050358635927 0.8899934321006192c 5.772947618597353e-2,0.5492592761847134 -0.3407341559159059,1.0413208824499536 -0.8899934321006191 1.099050358635927c -0.5492592761847134,5.7729476185973565e-2 -1.0413208824499536,-0.34073415591590583 -1.099050358635927 -0.889993432100619c -5.77294761859736e-2,-0.5492592761847134 0.3407341559159058,-1.0413208824499536 0.8899934321006191 -1.0990503586359273Z" /></g><g fill="rgb(0,0,0)" fill-opacity="1.0"><path d="M -5.693335528415207,4.961343702294931 c 0.22463444516813488,-0.5045372245332016 0.8157448761851992,-0.731443259734936 1.3202821007184007 -0.5068088145668012c 0.5045372245332016,0.22463444516813486 0.7314432597349361,0.8157448761851991 0.5068088145668012 1.3202821007184005c -0.22463444516813483,0.5045372245332016 -0.8157448761851991,0.7314432597349361 -1.3202821007184005 0.5068088145668013c -0.5045372245332016,-0.2246344451681348 -0.7314432597349361,-0.8157448761851991 -0.5068088145668015 -1.3202821007184005Z" /></g><g fill="rgb(0,0,0)" fill-opacity="1.0"><path d="M -8.572372751252372,6.269450987466167 c -0.3246248310165784,-0.44680774834722825 -0.22557600626475421,-1.0721774156508421 0.22123174208247387 -1.3968022466674204c 0.44680774834722825,-0.3246248310165784 1.0721774156508421,-0.22557600626475427 1.3968022466674204 0.22123174208247387c 0.32462483101657846,0.4468077483472282 0.22557600626475433,1.0721774156508421 -0.22123174208247376 1.3968022466674204c -0.4468077483472282,0.32462483101657846 -1.0721774156508421,0.22557600626475438 -1.3968022466674204 -0.22123174208247387Z" /></g></g><g><g fill="rgb(148,148,148)" fill-opacity="1.0" stroke-width="0.0"><path d="M -8.781152949374533,22.374564462725836 l -2.9344428022014166,-0.6237350724532794 l -0.9270509831248405,-2.853169548885461 l 2.0073918190765756,-2.2294344764321816 l 2.9344428022014157,0.6237350724532786 l 0.9270509831248419,2.8531695488854596 l -2.007391819076576,2.2294344764321834 Z" /></g><g fill="rgb(0,0,0)" fill-opacity="1.0"><path d="M -9.353791404218846,22.66374940685955 c -0.11482645615018353,0.5402160029688606 -0.6458432885827042,0.8850623660662298 -1.1860592915515649 0.7702359099160463c -0.5402160029688606,-0.1148264561501835 -0.8850623660662298,-0.6458432885827041 -0.7702359099160463 -1.1860592915515646c 0.11482645615018346,-0.5402160029688606 0.6458432885827041,-0.8850623660662298 1.1860592915515644 -0.7702359099160463c 0.5402160029688606,0.11482645615018343 0.8850623660662298,0.6458432885827041 0.7702359099160467 1.1860592915515646Z" /></g><g fill="rgb(0,0,0)" fill-opacity="1.0"><path d="M -6.809638849708332,20.785641907439555 c 0.4104275540268315,0.3695506295370289 0.4435648486555658,1.0018478778094209 7.40142191185369e-2 1.4122754318362523c -0.3695506295370289,0.4104275540268315 -1.0018478778094206,0.4435648486555658 -1.4122754318362523 7.4014219118537e-2c -0.41042755402683156,-0.36955062953702883 -0.44356484865556584,-1.0018478778094206 -7.401421911853712e-2 -1.412275431836252c 0.36955062953702883,-0.41042755402683156 1.0018478778094206,-0.4435648486555659 1.4122754318362525 -7.401421911853734e-2Z" /></g><g fill="rgb(0,0,0)" fill-opacity="1.0"><path d="M -7.1640513779888595,17.643287414420378 c 0.5252540101770148,-0.17066537343183164 1.0894081372382693,0.11678551174319107 1.260073510670101 0.6420395219202057c 0.17066537343183166,0.5252540101770148 -0.11678551174319102,1.0894081372382693 -0.6420395219202056 1.260073510670101c -0.5252540101770148,0.1706653734318317 -1.0894081372382693,-0.11678551174319096 -1.260073510670101 -0.6420395219202055c -0.17066537343183172,-0.5252540101770148 0.1167855117431909,-1.0894081372382693 0.6420395219202056 -1.2600735106701013Z" /></g><g fill="rgb(0,0,0)" fill-opacity="1.0"><path d="M -10.062616460779902,16.379040420821198 c 0.11482645615018335,-0.5402160029688607 0.6458432885827039,-0.88506236606623 1.1860592915515644 -0.7702359099160467c 0.5402160029688607,0.11482645615018332 0.88506236606623,0.6458432885827039 0.7702359099160467 1.1860592915515644c -0.11482645615018328,0.5402160029688607 -0.6458432885827039,0.88506236606623 -1.1860592915515644 0.7702359099160467c -0.5402160029688607,-0.11482645615018325 -0.88506236606623,-0.6458432885827038 -0.7702359099160467 -1.1860592915515644Z" /></g><g fill="rgb(0,0,0)" fill-opacity="1.0"><path d="M -12.606769015290412,18.257147920241195 c -0.4104275540268314,-0.3695506295370291 -0.4435648486555654,-1.0018478778094209 -7.401421911853634e-2 -1.4122754318362523c 0.3695506295370291,-0.4104275540268314 1.0018478778094209,-0.44356484865556545 1.4122754318362523 -7.401421911853645e-2c 0.41042755402683145,0.36955062953702905 0.44356484865556545,1.0018478778094209 7.401421911853656e-2 1.4122754318362523c -0.36955062953702905,0.41042755402683145 -1.0018478778094209,0.4435648486555655 -1.4122754318362527 7.401421911853645e-2Z" /></g><g fill="rgb(0,0,0)" fill-opacity="1.0"><path d="M -12.252356487009887,21.39950241326037 c -0.5252540101770148,0.17066537343183155 -1.0894081372382693,-0.11678551174319118 -1.2600735106701009 -0.6420395219202059c -0.17066537343183158,-0.5252540101770148 0.11678551174319113,-1.0894081372382693 0.6420395219202057 -1.2600735106701009c 0.5252540101770148,-0.1706653734318316 1.0894081372382693,0.11678551174319107 1.2600735106701009 0.6420395219202056c 0.17066537343183164,0.5252540101770148 -0.11678551174319102,1.0894081372382693 -0.6420395219202057 1.260073510670101Z" /></g></g><g><g fill="rgb(148,148,148)" fill-opacity="1.0" stroke-width="0.0"><path d="M 2.9999999999999947,26.57481794135006 l -1.5000000000000013,2.598076211353315 l -3.0,-1.9984014443252818e-15 l -1.499999999999999,-2.5980762113533165 l 1.5000000000000004,-2.5980762113533147 l 2.999999999999999,2.2204460492503052e-16 l 1.5000000000000009,2.598076211353318 Z" /></g><g fill="rgb(0,0,0)" fill-opacity="1.0"><path d="M 3.0980762113533107,27.208792537565618 c 0.47829262347620055,0.2761423749153968 0.6421677786998353,0.887732780308238 0.3660254037844386 1.3660254037844384c -0.2761423749153967,0.47829262347620055 -0.887732780308238,0.6421677786998353 -1.3660254037844384 0.36602540378443865c -0.4782926234762006,-0.2761423749153967 -0.6421677786998354,-0.887732780308238 -0.3660254037844387 -1.3660254037844384c 0.27614237491539667,-0.4782926234762006 0.887732780308238,-0.6421677786998354 1.3660254037844384 -0.3660254037844386Z" /></g><g fill="rgb(0,0,0)" fill-opacity="1.0"><path d="M 2.0980762113533094,24.208792537565618 c 0.47829262347620044,-0.27614237491539695 1.0898830288690418,-0.11226721969176262 1.3660254037844388 0.3660254037844377c 0.276142374915397,0.47829262347620044 0.11226721969176262,1.0898830288690418 -0.3660254037844376 1.3660254037844386c -0.4782926234762004,0.276142374915397 -1.0898830288690418,0.11226721969176268 -1.3660254037844386 -0.3660254037844376c -0.27614237491539706,-0.4782926234762004 -0.11226721969176273,-1.0898830288690418 0.36602540378443726 -1.3660254037844388Z" /></g><g fill="rgb(0,0,0)" fill-opacity="1.0"><path d="M -1.0000000000000058,23.574817941350055 c -6.763537510981779e-17,-0.5522847498307935 0.4477152501692063,-1.0 0.9999999999999997 -1.0000000000000002c 0.5522847498307935,-1.0145306266472669e-16 1.0,0.44771525016920627 1.0000000000000002 0.9999999999999996c 1.3527075021963558e-16,0.5522847498307935 -0.4477152501692062,1.0 -0.9999999999999994 1.0000000000000002c -0.5522847498307935,1.690884377745445e-16 -1.0,-0.44771525016920616 -1.0000000000000004 -0.9999999999999996Z" /></g><g fill="rgb(0,0,0)" fill-opacity="1.0"><path d="M -3.0980762113533213,25.940843345134493 c -0.4782926234762006,-0.2761423749153966 -0.6421677786998357,-0.8877327803082378 -0.36602540378443904 -1.3660254037844384c 0.27614237491539656,-0.4782926234762006 0.8877327803082378,-0.6421677786998357 1.3660254037844382 -0.3660254037844391c 0.47829262347620066,0.27614237491539656 0.6421677786998357,0.8877327803082377 0.36602540378443915 1.3660254037844382c -0.2761423749153965,0.47829262347620066 -0.8877327803082375,0.6421677786998357 -1.3660254037844384 0.36602540378443926Z" /></g><g fill="rgb(0,0,0)" fill-opacity="1.0"><path d="M -2.0980762113533213,28.940843345134493 c -0.47829262347620055,0.2761423749153968 -1.0898830288690418,0.11226721969176218 -1.3660254037844386 -0.36602540378443826c -0.27614237491539684,-0.47829262347620055 -0.11226721969176223,-1.0898830288690418 0.36602540378443815 -1.3660254037844386c 0.4782926234762005,-0.27614237491539684 1.0898830288690418,-0.11226721969176229 1.3660254037844384 0.36602540378443815c 0.2761423749153969,0.4782926234762005 0.11226721969176229,1.0898830288690418 -0.36602540378443793 1.3660254037844386Z" /></g><g fill="rgb(0,0,0)" fill-opacity="1.0"><path d="M 0.9999999999999947,29.574817941350055 c 0.0,0.5522847498307935 -0.44771525016920644,1.0 -0.9999999999999998 1.0c -0.5522847498307935,3.3817687554908895e-17 -1.0,-0.4477152501692064 -1.0 -0.9999999999999997c -6.763537510981779e-17,-0.5522847498307935 0.4477152501692063,-1.0 0.9999999999999996 -1.0c 0.5522847498307935,-1.0145306266472669e-16 1.0,0.44771525016920627 1.0000000000000002 0.9999999999999997Z" /></g></g></g><g></g><g fill="rgb(89,89,255)" fill-opacity="1.0" stroke-width="0.0"><path d="M 9.708203932499362,-19.521394913840385 l -9.70820393249937,-7.053423027509675 l -9.708203932499368,7.053423027509677 l 3.7082039324993694,11.412678195541842 h 12.0 l 3.7082039324993694,-11.412678195541844 Z" /></g><g><g fill="rgb(148,148,148)" fill-opacity="1.0" stroke-width="0.0"><path d="M 10.635254915624207,-16.66822536495492 l 2.007391819076574,-2.2294344764321834 l -0.9270509831248436,-2.8531695488854605 l -2.934442802201417,-0.6237350724532773 l -2.007391819076574,2.2294344764321825 l 0.9270509831248417,2.85316954888546 l 2.934442802201419,0.6237350724532784 Z" /></g><g fill="rgb(0,0,0)" fill-opacity="1.0"><path d="M 11.268507802572689,-16.770858269286414 c 0.41042755402683134,0.3695506295370292 1.0427248022992233,0.3364133349082955 1.4122754318362525 -7.401421911853578e-2c 0.3695506295370292,-0.41042755402683134 0.33641333490829556,-1.0427248022992233 -7.401421911853567e-2 -1.4122754318362523c -0.4104275540268313,-0.3695506295370293 -1.0427248022992233,-0.3364133349082956 -1.4122754318362523 7.401421911853556e-2c -0.3695506295370293,0.4104275540268313 -0.33641333490829567,1.0427248022992233 7.401421911853534e-2 1.4122754318362525Z" /></g><g fill="rgb(0,0,0)" fill-opacity="1.0"><path d="M 8.106321259312278,-16.794863802456724 c -0.11482645615018389,0.5402160029688606 0.23001990694718472,1.0712328354013816 0.7702359099160452 1.1860592915515655c 0.5402160029688606,0.11482645615018391 1.0712328354013816,-0.23001990694718466 1.1860592915515655 -0.7702359099160451c 0.11482645615018396,-0.5402160029688606 -0.2300199069471846,-1.0712328354013816 -0.770235909916045 -1.1860592915515655c -0.5402160029688606,-0.11482645615018398 -1.0712328354013816,0.23001990694718455 -1.1860592915515658 0.7702359099160451Z" /></g><g fill="rgb(0,0,0)" fill-opacity="1.0"><path d="M 6.546017389238956,-19.545400447010696 c -0.5252540101770149,0.17066537343183139 -0.8127048953520379,0.7348195004930858 -0.6420395219202066 1.2600735106701006c 0.17066537343183136,0.5252540101770149 0.7348195004930858,0.8127048953520379 1.2600735106701004 0.6420395219202066c 0.5252540101770149,-0.17066537343183133 0.8127048953520379,-0.7348195004930858 0.6420395219202066 -1.2600735106701002c -0.1706653734318313,-0.5252540101770149 -0.7348195004930856,-0.8127048953520379 -1.2600735106701004 -0.6420395219202071Z" /></g><g fill="rgb(0,0,0)" fill-opacity="1.0"><path d="M 8.147900062426041,-22.27193155839435 c -0.4104275540268312,-0.3695506295370293 -1.042724802299223,-0.3364133349082958 -1.4122754318362523 7.401421911853534e-2c -0.3695506295370293,0.4104275540268312 -0.33641333490829584,1.042724802299223 7.401421911853523e-2 1.4122754318362523c 0.4104275540268311,0.36955062953702933 1.0427248022992228,0.3364133349082959 1.412275431836252 -7.401421911853512e-2c 0.36955062953702933,-0.4104275540268311 0.3364133349082959,-1.0427248022992228 -7.401421911853512e-2 -1.4122754318362525Z" /></g><g fill="rgb(0,0,0)" fill-opacity="1.0"><path d="M 11.310086605686449,-22.24792602522404 c 0.11482645615018368,-0.5402160029688606 -0.23001990694718516,-1.0712328354013816 -0.7702359099160456 -1.1860592915515653c -0.5402160029688606,-0.1148264561501837 -1.0712328354013816,0.2300199069471851 -1.1860592915515653 0.7702359099160456c -0.11482645615018375,0.5402160029688606 0.23001990694718505,1.0712328354013816 0.7702359099160454 1.186059291551565c 0.5402160029688606,0.11482645615018378 1.0712328354013816,-0.230019906947185 1.1860592915515655 -0.7702359099160454Z" /></g><g fill="rgb(0,0,0)" fill-opacity="1.0"><path d="M 12.870390475759772,-19.49738938067007 c 0.5252540101770149,-0.17066537343183144 0.8127048953520379,-0.734819500493086 0.6420395219202064 -1.2600735106701006c -0.1706653734318314,-0.5252540101770149 -0.7348195004930859,-0.8127048953520379 -1.2600735106701006 -0.6420395219202065c -0.5252540101770149,0.17066537343183139 -0.8127048953520379,0.7348195004930858 -0.6420395219202065 1.2600735106701004c 0.17066537343183136,0.5252540101770149 0.7348195004930858,0.8127048953520379 1.2600735106701006 0.6420395219202069Z" /></g></g><g><g fill="rgb(148,148,148)" fill-opacity="1.0" stroke-width="0.0"><path d="M 3.5729490168751514,-6.345360961421119 l 2.7406363729278036,1.2202099292273996 l 2.4270509831248415,-1.7633557568774207 l -0.313585389802961,-2.9835656861048196 l -2.7406363729278023,-1.2202099292273998 l -2.427050983124842,1.7633557568774187 l 0.31358538980296036,2.983565686104822 Z" /></g><g fill="rgb(0,0,0)" fill-opacity="1.0"><path d="M 3.8662446131299903,-5.7748169884465375 c -0.22463444516813508,0.5045372245332016 2.2715900335990025e-3,1.095647655550266 0.5068088145668005 1.3202821007184011c 0.5045372245332016,0.2246344451681351 1.095647655550266,-2.271590033598947e-3 1.3202821007184011 -0.5068088145668004c 0.22463444516813513,-0.5045372245332016 -2.2715900335988914e-3,-1.095647655550266 -0.5068088145668003 -1.3202821007184011c -0.5045372245332016,-0.22463444516813516 -1.095647655550266,2.271590033598836e-3 -1.3202821007184014 0.5068088145668004Z" /></g><g fill="rgb(0,0,0)" fill-opacity="1.0"><path d="M 2.9119058506275195,-8.789653223863855 c -0.5492592761847135,5.772947618597291e-2 -0.9477229082865937,0.5497910824512127 -0.8899934321006208 1.0990503586359262c 5.772947618597288e-2,0.5492592761847135 0.5497910824512127,0.9477229082865937 1.099050358635926 0.8899934321006208c 0.5492592761847135,-5.772947618597284e-2 0.9477229082865937,-0.5497910824512127 0.8899934321006208 -1.099050358635926c -5.772947618597281e-2,-0.5492592761847135 -0.5497910824512126,-0.9477229082865937 -1.099050358635926 -0.8899934321006211Z" /></g><g fill="rgb(0,0,0)" fill-opacity="1.0"><path d="M 5.045661237497521,-11.123552953715857 c -0.32462483101657824,-0.4468077483472284 -0.9499944983201921,-0.545856573099053 -1.3968022466674204 -0.22123174208247487c -0.4468077483472284,0.32462483101657824 -0.545856573099053,0.949994498320192 -0.22123174208247498 1.3968022466674204c 0.3246248310165782,0.4468077483472285 0.949994498320192,0.5458565730990531 1.3968022466674204 0.22123174208247498c 0.4468077483472285,-0.3246248310165782 0.5458565730990532,-0.949994498320192 0.22123174208247498 -1.3968022466674204Z" /></g><g fill="rgb(0,0,0)" fill-opacity="1.0"><path d="M 8.133755386869995,-10.44261644815054 c 0.22463444516813524,-0.5045372245332015 -2.271590033598614e-3,-1.095647655550266 -0.5068088145667999 -1.3202821007184011c -0.5045372245332015,-0.22463444516813527 -1.095647655550266,2.271590033598614e-3 -1.3202821007184011 0.5068088145667999c -0.2246344451681353,0.5045372245332015 2.2715900335985584e-3,1.0956476555502659 0.5068088145667997 1.3202821007184011c 0.5045372245332015,0.22463444516813533 1.0956476555502659,-2.271590033598503e-3 1.3202821007184014 -0.5068088145667999Z" /></g><g fill="rgb(0,0,0)" fill-opacity="1.0"><path d="M 9.088094149372468,-7.427780212733226 c 0.5492592761847134,-5.772947618597309e-2 0.9477229082865933,-0.549791082451213 0.8899934321006203 -1.0990503586359264c -5.772947618597306e-2,-0.5492592761847134 -0.5497910824512129,-0.9477229082865933 -1.0990503586359262 -0.8899934321006203c -0.5492592761847134,5.7729476185973023e-2 -0.9477229082865933,0.5497910824512129 -0.8899934321006203 1.0990503586359262c 5.772947618597299e-2,0.5492592761847134 0.5497910824512129,0.9477229082865934 1.0990503586359262 0.8899934321006204Z" /></g><g fill="rgb(0,0,0)" fill-opacity="1.0"><path d="M 6.954338762502465,-5.093880482881223 c 0.3246248310165783,0.44680774834722836 0.9499944983201922,0.5458565730990529 1.3968022466674204 0.22123174208247465c 0.44680774834722836,-0.3246248310165783 0.5458565730990529,-0.9499944983201921 0.22123174208247476 -1.3968022466674204c -0.32462483101657824,-0.4468077483472284 -0.949994498320192,-0.545856573099053 -1.3968022466674204 -0.22123174208247476c -0.4468077483472284,0.32462483101657824 -0.545856573099053,0.949994498320192 -0.22123174208247476 1.3968022466674206Z" /></g></g><g><g fill="rgb(148,148,148)" fill-opacity="1.0" stroke-width="0.0"><path d="M -8.42705098312485,-9.87207247517596 l -0.31358538980295925,2.9835656861048205 l 2.4270509831248432,1.763355756877418 l 2.7406363729278023,-1.2202099292274013 l 0.3135853898029597,-2.983565686104819 l -2.4270509831248415,-1.763355756877419 l -2.7406363729278045,1.2202099292274007 Z" /></g><g fill="rgb(0,0,0)" fill-opacity="1.0"><path d="M -8.879037222837173,-9.416824003469776 c -0.5492592761847134,-5.772947618597328e-2 -1.0413208824499534,0.34073415591590633 -1.0990503586359268 0.8899934321006195c -5.7729476185973315e-2,0.5492592761847134 0.3407341559159063,1.0413208824499534 0.8899934321006195 1.0990503586359268c 0.5492592761847134,5.772947618597335e-2 1.0413208824499534,-0.3407341559159062 1.0990503586359268 -0.8899934321006193c 5.7729476185973384e-2,-0.5492592761847134 -0.34073415591590617,-1.0413208824499534 -0.8899934321006195 -1.099050358635927Z" /></g><g fill="rgb(0,0,0)" fill-opacity="1.0"><path d="M -6.306664471584804,-11.256089734302144 c -0.22463444516813472,-0.5045372245332017 -0.815744876185199,-0.7314432597349363 -1.3202821007184005 -0.5068088145668017c -0.5045372245332017,0.2246344451681347 -0.7314432597349364,0.8157448761851989 -0.5068088145668017 1.3202821007184005c 0.22463444516813466,0.5045372245332017 0.8157448761851989,0.7314432597349364 1.3202821007184005 0.5068088145668017c 0.5045372245332017,-0.22463444516813463 0.7314432597349364,-0.8157448761851989 0.5068088145668017 -1.3202821007184005Z" /></g><g fill="rgb(0,0,0)" fill-opacity="1.0"><path d="M -3.4276272487476387,-9.94798244913091 c 0.32462483101657846,-0.44680774834722814 0.22557600626475438,-1.0721774156508421 -0.22123174208247365 -1.3968022466674204c -0.44680774834722814,-0.32462483101657846 -1.0721774156508421,-0.22557600626475444 -1.3968022466674204 0.22123174208247365c -0.3246248310165785,0.4468077483472281 -0.2255760062647545,1.0721774156508421 0.22123174208247354 1.3968022466674204c 0.4468077483472281,0.3246248310165785 1.072177415650842,0.2255760062647545 1.3968022466674204 -0.22123174208247365Z" /></g><g fill="rgb(0,0,0)" fill-opacity="1.0"><path d="M -3.1209627771628403,-6.800609433127307 c 0.5492592761847134,5.7729476185973495e-2 1.0413208824499536,-0.34073415591590595 1.099050358635927 -0.8899934321006192c 5.772947618597353e-2,-0.5492592761847134 -0.3407341559159059,-1.0413208824499536 -0.8899934321006191 -1.099050358635927c -0.5492592761847134,-5.7729476185973565e-2 -1.0413208824499536,0.34073415591590583 -1.099050358635927 0.889993432100619c -5.77294761859736e-2,0.5492592761847134 0.3407341559159058,1.0413208824499536 0.8899934321006191 1.0990503586359273Z" /></g><g fill="rgb(0,0,0)" fill-opacity="1.0"><path d="M -5.693335528415207,-4.961343702294938 c 0.22463444516813488,0.5045372245332016 0.8157448761851992,0.731443259734936 1.3202821007184007 0.5068088145668012c 0.5045372245332016,-0.22463444516813486 0.7314432597349361,-0.8157448761851991 0.5068088145668012 -1.3202821007184005c -0.22463444516813483,-0.5045372245332016 -0.8157448761851991,-0.7314432597349361 -1.3202821007184005 -0.5068088145668013c -0.5045372245332016,0.2246344451681348 -0.7314432597349361,0.8157448761851991 -0.5068088145668015 1.3202821007184005Z" /></g><g fill="rgb(0,0,0)" fill-opacity="1.0"><path d="M -8.572372751252372,-6.269450987466174 c -0.3246248310165784,0.44680774834722825 -0.22557600626475421,1.0721774156508421 0.22123174208247387 1.3968022466674204c 0.44680774834722825,0.3246248310165784 1.0721774156508421,0.22557600626475427 1.3968022466674204 -0.22123174208247387c 0.32462483101657846,-0.4468077483472282 0.22557600626475433,-1.0721774156508421 -0.22123174208247376 -1.3968022466674204c -0.4468077483472282,-0.32462483101657846 -1.0721774156508421,-0.22557600626475438 -1.3968022466674204 0.22123174208247387Z" /></g></g><g><g fill="rgb(148,148,148)" fill-opacity="1.0" stroke-width="0.0"><path d="M -8.781152949374533,-22.374564462725843 l -2.9344428022014166,0.6237350724532794 l -0.9270509831248405,2.853169548885461 l 2.0073918190765756,2.2294344764321816 l 2.9344428022014157,-0.6237350724532786 l 0.9270509831248419,-2.8531695488854596 l -2.007391819076576,-2.2294344764321834 Z" /></g><g fill="rgb(0,0,0)" fill-opacity="1.0"><path d="M -9.353791404218846,-22.66374940685956 c -0.11482645615018353,-0.5402160029688606 -0.6458432885827042,-0.8850623660662298 -1.1860592915515649 -0.7702359099160463c -0.5402160029688606,0.1148264561501835 -0.8850623660662298,0.6458432885827041 -0.7702359099160463 1.1860592915515646c 0.11482645615018346,0.5402160029688606 0.6458432885827041,0.8850623660662298 1.1860592915515644 0.7702359099160463c 0.5402160029688606,-0.11482645615018343 0.8850623660662298,-0.6458432885827041 0.7702359099160467 -1.1860592915515646Z" /></g><g fill="rgb(0,0,0)" fill-opacity="1.0"><path d="M -6.809638849708332,-20.78564190743956 c 0.4104275540268315,-0.3695506295370289 0.4435648486555658,-1.0018478778094209 7.40142191185369e-2 -1.4122754318362523c -0.3695506295370289,-0.4104275540268315 -1.0018478778094206,-0.4435648486555658 -1.4122754318362523 -7.4014219118537e-2c -0.41042755402683156,0.36955062953702883 -0.44356484865556584,1.0018478778094206 -7.401421911853712e-2 1.412275431836252c 0.36955062953702883,0.41042755402683156 1.0018478778094206,0.4435648486555659 1.4122754318362525 7.401421911853734e-2Z" /></g><g fill="rgb(0,0,0)" fill-opacity="1.0"><path d="M -7.1640513779888595,-17.643287414420385 c 0.5252540101770148,0.17066537343183164 1.0894081372382693,-0.11678551174319107 1.260073510670101 -0.6420395219202057c 0.17066537343183166,-0.5252540101770148 -0.11678551174319102,-1.0894081372382693 -0.6420395219202056 -1.260073510670101c -0.5252540101770148,-0.1706653734318317 -1.0894081372382693,0.11678551174319096 -1.260073510670101 0.6420395219202055c -0.17066537343183172,0.5252540101770148 0.1167855117431909,1.0894081372382693 0.6420395219202056 1.2600735106701013Z" /></g><g fill="rgb(0,0,0)" fill-opacity="1.0"><path d="M -10.062616460779902,-16.379040420821205 c 0.11482645615018335,0.5402160029688607 0.6458432885827039,0.88506236606623 1.1860592915515644 0.7702359099160467c 0.5402160029688607,-0.11482645615018332 0.88506236606623,-0.6458432885827039 0.7702359099160467 -1.1860592915515644c -0.11482645615018328,-0.5402160029688607 -0.6458432885827039,-0.88506236606623 -1.1860592915515644 -0.7702359099160467c -0.5402160029688607,0.11482645615018325 -0.88506236606623,0.6458432885827038 -0.7702359099160467 1.1860592915515644Z" /></g><g fill="rgb(0,0,0)" fill-opacity="1.0"><path d="M -12.606769015290412,-18.257147920241202 c -0.4104275540268314,0.3695506295370291 -0.4435648486555654,1.0018478778094209 -7.401421911853634e-2 1.4122754318362523c 0.3695506295370291,0.4104275540268314 1.0018478778094209,0.44356484865556545 1.4122754318362523 7.401421911853645e-2c 0.41042755402683145,-0.36955062953702905 0.44356484865556545,-1.0018478778094209 7.401421911853656e-2 -1.4122754318362523c -0.36955062953702905,-0.41042755402683145 -1.0018478778094209,-0.4435648486555655 -1.4122754318362527 -7.401421911853645e-2Z" /></g><g fill="rgb(0,0,0)" fill-opacity="1.0"><path d="M -12.252356487009887,-21.39950241326038 c -0.5252540101770148,-0.17066537343183155 -1.0894081372382693,0.11678551174319118 -1.2600735106701009 0.6420395219202059c -0.17066537343183158,0.5252540101770148 0.11678551174319113,1.0894081372382693 0.6420395219202057 1.2600735106701009c 0.5252540101770148,0.1706653734318316 1.0894081372382693,-0.11678551174319107 1.2600735106701009 -0.6420395219202056c 0.17066537343183164,-0.5252540101770148 -0.11678551174319102,-1.0894081372382693 -0.6420395219202057 -1.260073510670101Z" /></g></g><g><g fill="rgb(148,148,148)" fill-opacity="1.0" stroke-width="0.0"><path d="M 2.9999999999999947,-26.574817941350066 l -1.5000000000000013,-2.598076211353315 l -3.0,1.9984014443252818e-15 l -1.499999999999999,2.5980762113533165 l 1.5000000000000004,2.5980762113533147 l 2.999999999999999,-2.2204460492503052e-16 l 1.5000000000000009,-2.598076211353318 Z" /></g><g fill="rgb(0,0,0)" fill-opacity="1.0"><path d="M 3.0980762113533107,-27.208792537565625 c 0.47829262347620055,-0.2761423749153968 0.6421677786998353,-0.887732780308238 0.3660254037844386 -1.3660254037844384c -0.2761423749153967,-0.47829262347620055 -0.887732780308238,-0.6421677786998353 -1.3660254037844384 -0.36602540378443865c -0.4782926234762006,0.2761423749153967 -0.6421677786998354,0.887732780308238 -0.3660254037844387 1.3660254037844384c 0.27614237491539667,0.4782926234762006 0.887732780308238,0.6421677786998354 1.3660254037844384 0.3660254037844386Z" /></g><g fill="rgb(0,0,0)" fill-opacity="1.0"><path d="M 2.0980762113533094,-24.208792537565625 c 0.47829262347620044,0.27614237491539695 1.0898830288690418,0.11226721969176262 1.3660254037844388 -0.3660254037844377c 0.276142374915397,-0.47829262347620044 0.11226721969176262,-1.0898830288690418 -0.3660254037844376 -1.3660254037844386c -0.4782926234762004,-0.276142374915397 -1.0898830288690418,-0.11226721969176268 -1.3660254037844386 0.3660254037844376c -0.27614237491539706,0.4782926234762004 -0.11226721969176273,1.0898830288690418 0.36602540378443726 1.3660254037844388Z" /></g><g fill="rgb(0,0,0)" fill-opacity="1.0"><path d="M -1.0000000000000058,-23.574817941350062 c -6.763537510981779e-17,0.5522847498307935 0.4477152501692063,1.0 0.9999999999999997 1.0000000000000002c 0.5522847498307935,1.0145306266472669e-16 1.0,-0.44771525016920627 1.0000000000000002 -0.9999999999999996c 1.3527075021963558e-16,-0.5522847498307935 -0.4477152501692062,-1.0 -0.9999999999999994 -1.0000000000000002c -0.5522847498307935,-1.690884377745445e-16 -1.0,0.44771525016920616 -1.0000000000000004 0.9999999999999996Z" /></g><g fill="rgb(0,0,0)" fill-opacity="1.0"><path d="M -3.0980762113533213,-25.9408433451345 c -0.4782926234762006,0.2761423749153966 -0.6421677786998357,0.8877327803082378 -0.36602540378443904 1.3660254037844384c 0.27614237491539656,0.4782926234762006 0.8877327803082378,0.6421677786998357 1.3660254037844382 0.3660254037844391c 0.47829262347620066,-0.27614237491539656 0.6421677786998357,-0.8877327803082377 0.36602540378443915 -1.3660254037844382c -0.2761423749153965,-0.47829262347620066 -0.8877327803082375,-0.6421677786998357 -1.3660254037844384 -0.36602540378443926Z" /></g><g fill="rgb(0,0,0)" fill-opacity="1.0"><path d="M -2.0980762113533213,-28.9408433451345 c -0.47829262347620055,-0.2761423749153968 -1.0898830288690418,-0.11226721969176218 -1.3660254037844386 0.36602540378443826c -0.27614237491539684,0.47829262347620055 -0.11226721969176223,1.0898830288690418 0.36602540378443815 1.3660254037844386c 0.4782926234762005,0.27614237491539684 1.0898830288690418,0.11226721969176229 1.3660254037844384 -0.36602540378443815c 0.2761423749153969,-0.4782926234762005 0.11226721969176229,-1.0898830288690418 -0.36602540378443793 -1.3660254037844386Z" /></g><g fill="rgb(0,0,0)" fill-opacity="1.0"><path d="M 0.9999999999999947,-29.574817941350062 c 0.0,-0.5522847498307935 -0.44771525016920644,-1.0 -0.9999999999999998 -1.0c -0.5522847498307935,-3.3817687554908895e-17 -1.0,0.4477152501692064 -1.0 0.9999999999999997c -6.763537510981779e-17,0.5522847498307935 0.4477152501692063,1.0 0.9999999999999996 1.0c 0.5522847498307935,1.0145306266472669e-16 1.0,-0.44771525016920627 1.0000000000000002 -0.9999999999999997Z" /></g></g></g></g></g></svg>