<svg xmlns="http://www.w3.org/2000/svg" height="200.0000" stroke-opacity="1" viewBox="0 0 200 200" font-size="1" width="200.0000" xmlns:xlink="http://www.w3.org/1999/xlink" stroke="rgb(0,0,0)" version="1.1"><defs></defs><g stroke-linejoin="miter" stroke-opacity="1.0" fill-opacity="1.0" stroke="rgb(0,0,0)" stroke-width="0.8" fill="rgb(128,128,128)" stroke-linecap="butt" stroke-miterlimit="10.0"><path d="M 11.7647,11.7647 c 39.2157,-0.0000 78.4314,-0.0000 117.6471 -0.0000c 0.0000,19.6078 0.0000,39.2157 0.0000 58.8235c 32.4873,-0.0000 58.8235,26.3362 58.8235 58.8235c 0.0000,32.4873 -26.3362,58.8235 -58.8235 58.8235c -32.4873,-0.0000 -58.8235,-26.3362 -58.8235 -58.8235c 19.6078,-0.0000 39.2157,-0.0000 58.8235 -0.0000c 0.0000,-19.6078 0.0000,-39.2157 0.0000 -58.8235c -32.4873,-0.0000 -58.8235,26.3362 -58.8235 58.8235c -19.6078,-0.0000 -39.2157,-0.0000 -58.8235 -0.0000c 0.0000,-39.2157 0.0000,-78.4314 -0.0000 -117.6471Z"/></g></svg>