<?xml version="1.0" encoding="UTF-8"?>
<!DOCTYPE svg PUBLIC "-//W3C//DTD SVG 1.1//EN"
    "http://www.w3.org/Graphics/SVG/1.1/DTD/svg11.dtd"><svg xmlns="http://www.w3.org/2000/svg" height="93.1899641577061" stroke-opacity="1" viewBox="0 0 400 93" font-size="1" width="400.0" xmlns:xlink="http://www.w3.org/1999/xlink" stroke="rgb(0,0,0)" version="1.1"><g><defs></defs><g stroke-linejoin="miter" stroke-opacity="1.0" fill-opacity="0.0" stroke="rgb(0,0,0)" stroke-width="0.7722795935471293" fill="rgb(0,0,0)" stroke-linecap="butt" stroke-miterlimit="10.0"><path d="M 205.8651026392962,88.95405669599218 l 6.516780710329097,1.2058466651734077e-16 l 5.196223983998279e-16,-6.516780710329097 l 6.516780710329097,1.2058466651734077e-16 l 2.784530653651464e-16,6.516780710329097 l 6.516780710329097,1.2058466651734077e-16 l 5.196223983998279e-16,-6.516780710329097 l -6.516780710329097,-9.186601302823152e-16 l 5.196223983998279e-16,-6.516780710329097 l 6.516780710329097,1.2058466651734077e-16 l 5.196223983998279e-16,-6.516780710329097 l 6.516780710329097,1.2058466651734077e-16 l 5.196223983998279e-16,-6.516780710329097 l 6.516780710329097,1.2058466651734077e-16 l 2.784530653651464e-16,6.516780710329097 l 6.516780710329097,1.2058466651734077e-16 l 2.784530653651464e-16,6.516780710329097 l 6.516780710329097,1.2058466651734077e-16 l 2.784530653651464e-16,6.516780710329097 l -6.516780710329097,6.774907972476336e-16 l 2.784530653651464e-16,6.516780710329097 l 6.516780710329097,1.2058466651734077e-16 l 5.196223983998279e-16,-6.516780710329097 l 6.516780710329097,1.2058466651734077e-16 l 2.784530653651464e-16,6.516780710329097 l 6.516780710329097,1.2058466651734077e-16 l 3.9903773188248716e-16,-6.516780710329097 l -6.516780710329097,-7.980754637649743e-16 l 3.9903773188248716e-16,-6.516780710329097 h 6.516780710329097 l 3.9903773188248716e-16,-6.516780710329097 l -6.516780710329097,-7.980754637649743e-16 l -1.1971131956474614e-15,6.516780710329097 l -6.516780710329097,-7.980754637649743e-16 l 3.9903773188248716e-16,-6.516780710329097 l -6.516780710329097,-7.980754637649743e-16 l 3.9903773188248716e-16,-6.516780710329097 l -6.516780710329097,-7.980754637649743e-16 l 3.9903773188248716e-16,-6.516780710329097 h 6.516780710329097 l 3.9903773188248716e-16,-6.516780710329097 h 6.516780710329097 l 3.9903773188248716e-16,-6.516780710329097 h 6.516780710329097 l 3.9903773188248716e-16,6.516780710329097 h 6.516780710329097 l 3.9903773188248716e-16,-6.516780710329097 l -6.516780710329097,-7.980754637649743e-16 l 3.9903773188248716e-16,-6.516780710329097 h 6.516780710329097 l 3.9903773188248716e-16,-6.516780710329097 l 6.516780710329097,1.2058466651734077e-16 l 5.196223983998279e-16,-6.516780710329097 l 6.516780710329097,1.2058466651734077e-16 l 2.784530653651464e-16,6.516780710329097 l 6.516780710329097,1.2058466651734077e-16 l 5.196223983998279e-16,-6.516780710329097 l -6.516780710329097,-9.186601302823152e-16 l 5.196223983998279e-16,-6.516780710329097 l 6.516780710329097,1.2058466651734077e-16 l 5.196223983998279e-16,-6.516780710329097 l 6.516780710329097,1.2058466651734077e-16 l 5.196223983998279e-16,-6.516780710329097 l 6.516780710329097,1.2058466651734077e-16 l 2.784530653651464e-16,6.516780710329097 l 6.516780710329097,1.2058466651734077e-16 l 2.784530653651464e-16,6.516780710329097 l 6.516780710329097,1.2058466651734077e-16 l 2.784530653651464e-16,6.516780710329097 l -6.516780710329097,6.774907972476336e-16 l 2.784530653651464e-16,6.516780710329097 l 6.516780710329097,1.2058466651734077e-16 l 5.196223983998279e-16,-6.516780710329097 l 6.516780710329097,1.2058466651734077e-16 l 2.784530653651464e-16,6.516780710329097 l 6.516780710329097,1.2058466651734077e-16 l 3.9903773188248716e-16,6.516780710329097 h 6.516780710329097 l 3.9903773188248716e-16,6.516780710329097 l -6.516780710329097,7.980754637649743e-16 l 3.9903773188248716e-16,6.516780710329097 h 6.516780710329097 l 3.9903773188248716e-16,-6.516780710329097 h 6.516780710329097 l 3.9903773188248716e-16,6.516780710329097 h 6.516780710329097 l 3.9903773188248716e-16,6.516780710329097 h 6.516780710329097 l 3.9903773188248716e-16,6.516780710329097 l -6.516780710329097,7.980754637649743e-16 l 3.9903773188248716e-16,6.516780710329097 l -6.516780710329097,7.980754637649743e-16 l 3.9903773188248716e-16,6.516780710329097 l -6.516780710329097,7.980754637649743e-16 l -1.1971131956474614e-15,-6.516780710329097 l -6.516780710329097,7.980754637649743e-16 l 3.9903773188248716e-16,6.516780710329097 h 6.516780710329097 l 3.9903773188248716e-16,6.516780710329097 l -6.516780710329097,7.980754637649743e-16 l 3.9903773188248716e-16,6.516780710329097 l 6.516780710329097,1.2058466651734077e-16 l 5.196223983998279e-16,-6.516780710329097 l 6.516780710329097,1.2058466651734077e-16 l 2.784530653651464e-16,6.516780710329097 l 6.516780710329097,1.2058466651734077e-16 l 5.196223983998279e-16,-6.516780710329097 l -6.516780710329097,-9.186601302823152e-16 l 5.196223983998279e-16,-6.516780710329097 l 6.516780710329097,1.2058466651734077e-16 l 5.196223983998279e-16,-6.516780710329097 l 6.516780710329097,1.2058466651734077e-16 l 5.196223983998279e-16,-6.516780710329097 l 6.516780710329097,1.2058466651734077e-16 l 2.784530653651464e-16,6.516780710329097 l 6.516780710329097,1.2058466651734077e-16 l 2.784530653651464e-16,6.516780710329097 l 6.516780710329097,1.2058466651734077e-16 l 2.784530653651464e-16,6.516780710329097 l -6.516780710329097,6.774907972476336e-16 l 2.784530653651464e-16,6.516780710329097 l 6.516780710329097,1.2058466651734077e-16 l 5.196223983998279e-16,-6.516780710329097 l 6.516780710329097,1.2058466651734077e-16 l 2.784530653651464e-16,6.516780710329097 l 6.516780710329097,1.2058466651734077e-16 "/></g><defs></defs><g stroke-linejoin="miter" stroke-opacity="1.0" fill-opacity="0.0" stroke="rgb(0,0,0)" stroke-width="0.7722795935471293" fill="rgb(0,0,0)" stroke-linecap="butt" stroke-miterlimit="10.0"><path d="M 18.181818181818187,88.95405669599218 h 58.651026392961874 l 3.591339586942384e-15,-58.651026392961874 h 58.651026392961874 l 3.591339586942384e-15,58.651026392961874 h 58.651026392961874 "/></g></g></svg>