<svg xmlns="http://www.w3.org/2000/svg" height="310.9401" stroke-opacity="1" viewBox="0 0 200 311" font-size="1" width="200.0000" xmlns:xlink="http://www.w3.org/1999/xlink" stroke="rgb(0,0,0)" version="1.1"><defs></defs><g stroke-linejoin="miter" stroke-opacity="1.0" fill-opacity="0.0" stroke="rgb(0,0,0)" stroke-width="0.9975010499055731" fill="rgb(0,0,0)" stroke-linecap="butt" stroke-miterlimit="10.0"><path d="M 0.0000,310.9401 l 2.4691,0.0000 l 1.2346,-2.1383 l 1.2346,2.1383 l 2.4691,0.0000 l 1.2346,-2.1383 l -1.2346,-2.1383 l 2.4691,0.0000 l 1.2346,-2.1383 l 1.2346,2.1383 l 2.4691,0.0000 l -1.2346,2.1383 l 1.2346,2.1383 l 2.4691,0.0000 l 1.2346,-2.1383 l 1.2346,2.1383 l 2.4691,0.0000 l 1.2346,-2.1383 l -1.2346,-2.1383 l 2.4691,0.0000 l 1.2346,-2.1383 l -1.2346,-2.1383 l -2.4691,-0.0000 l 1.2346,-2.1383 l -1.2346,-2.1383 l 2.4691,0.0000 l 1.2346,-2.1383 l 1.2346,2.1383 l 2.4691,0.0000 l 1.2346,-2.1383 l -1.2346,-2.1383 l 2.4691,0.0000 l 1.2346,-2.1383 l 1.2346,2.1383 l 2.4691,-0.0000 l -1.2346,2.1383 l 1.2346,2.1383 l 2.4691,-0.0000 l 1.2346,-2.1383 l 1.2346,2.1383 l 2.4691,-0.0000 l -1.2346,2.1383 l 1.2346,2.1383 l -2.4691,0.0000 l -1.2346,2.1383 l 1.2346,2.1383 l 2.4691,-0.0000 l -1.2346,2.1383 l 1.2346,2.1383 l 2.4691,0.0000 l 1.2346,-2.1383 l 1.2346,2.1383 l 2.4691,0.0000 l 1.2346,-2.1383 l -1.2346,-2.1383 l 2.4691,0.0000 l 1.2346,-2.1383 l 1.2346,2.1383 l 2.4691,0.0000 l -1.2346,2.1383 l 1.2346,2.1383 l 2.4691,0.0000 l 1.2346,-2.1383 l 1.2346,2.1383 l 2.4691,0.0000 l 1.2346,-2.1383 l -1.2346,-2.1383 h 2.4691 l 1.2346,-2.1383 l -1.2346,-2.1383 l -2.4691,-0.0000 l 1.2346,-2.1383 l -1.2346,-2.1383 h 2.4691 l 1.2346,-2.1383 l 1.2346,2.1383 h 2.4691 l 1.2346,-2.1383 l -1.2346,-2.1383 h 2.4691 l 1.2346,-2.1383 l -1.2346,-2.1383 l -2.4691,-0.0000 l 1.2346,-2.1383 l -1.2346,-2.1383 l -2.4691,-0.0000 l -1.2346,2.1383 l -1.2346,-2.1383 l -2.4691,-0.0000 l 1.2346,-2.1383 l -1.2346,-2.1383 l 2.4691,0.0000 l 1.2346,-2.1383 l -1.2346,-2.1383 l -2.4691,-0.0000 l 1.2346,-2.1383 l -1.2346,-2.1383 l 2.4691,-0.0000 l 1.2346,-2.1383 l 1.2346,2.1383 l 2.4691,-0.0000 l 1.2346,-2.1383 l -1.2346,-2.1383 l 2.4691,-0.0000 l 1.2346,-2.1383 l 1.2346,2.1383 l 2.4691,-0.0000 l -1.2346,2.1383 l 1.2346,2.1383 l 2.4691,-0.0000 l 1.2346,-2.1383 l 1.2346,2.1383 l 2.4691,-0.0000 l 1.2346,-2.1383 l -1.2346,-2.1383 h 2.4691 l 1.2346,-2.1383 l -1.2346,-2.1383 l -2.4691,-0.0000 l 1.2346,-2.1383 l -1.2346,-2.1383 h 2.4691 l 1.2346,-2.1383 l 1.2346,2.1383 h 2.4691 l 1.2346,-2.1383 l -1.2346,-2.1383 h 2.4691 l 1.2346,-2.1383 l 1.2346,2.1383 h 2.4691 l -1.2346,2.1383 l 1.2346,2.1383 h 2.4691 l 1.2346,-2.1383 l 1.2346,2.1383 h 2.4691 l -1.2346,2.1383 l 1.2346,2.1383 l -2.4691,0.0000 l -1.2346,2.1383 l 1.2346,2.1383 h 2.4691 l -1.2346,2.1383 l 1.2346,2.1383 l 2.4691,0.0000 l 1.2346,-2.1383 l 1.2346,2.1383 l 2.4691,0.0000 l 1.2346,-2.1383 l -1.2346,-2.1383 l 2.4691,0.0000 l 1.2346,-2.1383 l 1.2346,2.1383 l 2.4691,0.0000 l -1.2346,2.1383 l 1.2346,2.1383 l 2.4691,0.0000 l 1.2346,-2.1383 l 1.2346,2.1383 l 2.4691,0.0000 l -1.2346,2.1383 l 1.2346,2.1383 l -2.4691,0.0000 l -1.2346,2.1383 l 1.2346,2.1383 l 2.4691,-0.0000 l -1.2346,2.1383 l 1.2346,2.1383 l -2.4691,0.0000 l -1.2346,2.1383 l -1.2346,-2.1383 l -2.4691,0.0000 l -1.2346,2.1383 l 1.2346,2.1383 l -2.4691,0.0000 l -1.2346,2.1383 l 1.2346,2.1383 h 2.4691 l -1.2346,2.1383 l 1.2346,2.1383 h 2.4691 l 1.2346,-2.1383 l 1.2346,2.1383 h 2.4691 l -1.2346,2.1383 l 1.2346,2.1383 l -2.4691,0.0000 l -1.2346,2.1383 l 1.2346,2.1383 h 2.4691 l -1.2346,2.1383 l 1.2346,2.1383 l 2.4691,0.0000 l 1.2346,-2.1383 l 1.2346,2.1383 l 2.4691,0.0000 l 1.2346,-2.1383 l -1.2346,-2.1383 l 2.4691,0.0000 l 1.2346,-2.1383 l 1.2346,2.1383 l 2.4691,0.0000 l -1.2346,2.1383 l 1.2346,2.1383 l 2.4691,0.0000 l 1.2346,-2.1383 l 1.2346,2.1383 l 2.4691,0.0000 l 1.2346,-2.1383 l -1.2346,-2.1383 l 2.4691,0.0000 l 1.2346,-2.1383 l -1.2346,-2.1383 l -2.4691,-0.0000 l 1.2346,-2.1383 l -1.2346,-2.1383 l 2.4691,0.0000 l 1.2346,-2.1383 l 1.2346,2.1383 l 2.4691,0.0000 l 1.2346,-2.1383 l -1.2346,-2.1383 l 2.4691,0.0000 l 1.2346,-2.1383 l 1.2346,2.1383 l 2.4691,-0.0000 l -1.2346,2.1383 l 1.2346,2.1383 l 2.4691,-0.0000 l 1.2346,-2.1383 l 1.2346,2.1383 l 2.4691,-0.0000 l -1.2346,2.1383 l 1.2346,2.1383 l -2.4691,0.0000 l -1.2346,2.1383 l 1.2346,2.1383 l 2.4691,-0.0000 l -1.2346,2.1383 l 1.2346,2.1383 l 2.4691,0.0000 l 1.2346,-2.1383 l 1.2346,2.1383 l 2.4691,0.0000 l 1.2346,-2.1383 l -1.2346,-2.1383 l 2.4691,0.0000 l 1.2346,-2.1383 l 1.2346,2.1383 l 2.4691,0.0000 l -1.2346,2.1383 l 1.2346,2.1383 l 2.4691,0.0000 l 1.2346,-2.1383 l 1.2346,2.1383 l 2.4691,0.0000 "/></g><g stroke-linejoin="miter" stroke-opacity="1.0" fill-opacity="0.0" stroke="rgb(0,0,0)" stroke-width="0.9975010499055731" fill="rgb(0,0,0)" stroke-linecap="butt" stroke-miterlimit="10.0"><path d="M 0.0000,233.2051 l 7.4074,0.0000 l 3.7037,-6.4150 l 3.7037,6.4150 l 7.4074,0.0000 l 3.7037,-6.4150 l -3.7037,-6.4150 l 7.4074,0.0000 l 3.7037,-6.4150 l 3.7037,6.4150 l 7.4074,0.0000 l -3.7037,6.4150 l 3.7037,6.4150 l 7.4074,0.0000 l 3.7037,-6.4150 l 3.7037,6.4150 l 7.4074,0.0000 l 3.7037,-6.4150 l -3.7037,-6.4150 l 7.4074,0.0000 l 3.7037,-6.4150 l -3.7037,-6.4150 l -7.4074,-0.0000 l 3.7037,-6.4150 l -3.7037,-6.4150 l 7.4074,0.0000 l 3.7037,-6.4150 l 3.7037,6.4150 l 7.4074,0.0000 l 3.7037,-6.4150 l -3.7037,-6.4150 l 7.4074,0.0000 l 3.7037,-6.4150 l 3.7037,6.4150 l 7.4074,-0.0000 l -3.7037,6.4150 l 3.7037,6.4150 l 7.4074,-0.0000 l 3.7037,-6.4150 l 3.7037,6.4150 l 7.4074,-0.0000 l -3.7037,6.4150 l 3.7037,6.4150 l -7.4074,0.0000 l -3.7037,6.4150 l 3.7037,6.4150 l 7.4074,-0.0000 l -3.7037,6.4150 l 3.7037,6.4150 l 7.4074,0.0000 l 3.7037,-6.4150 l 3.7037,6.4150 l 7.4074,0.0000 l 3.7037,-6.4150 l -3.7037,-6.4150 l 7.4074,0.0000 l 3.7037,-6.4150 l 3.7037,6.4150 l 7.4074,0.0000 l -3.7037,6.4150 l 3.7037,6.4150 l 7.4074,0.0000 l 3.7037,-6.4150 l 3.7037,6.4150 l 7.4074,0.0000 "/></g><g stroke-linejoin="miter" stroke-opacity="1.0" fill-opacity="0.0" stroke="rgb(0,0,0)" stroke-width="0.9975010499055731" fill="rgb(0,0,0)" stroke-linecap="butt" stroke-miterlimit="10.0"><path d="M 0.0000,155.4701 h 22.2222 l 11.1111,-19.2450 l 11.1111,19.2450 h 22.2222 l 11.1111,-19.2450 l -11.1111,-19.2450 h 22.2222 l 11.1111,-19.2450 l 11.1111,19.2450 h 22.2222 l -11.1111,19.2450 l 11.1111,19.2450 h 22.2222 l 11.1111,-19.2450 l 11.1111,19.2450 h 22.2222 "/></g><g stroke-linejoin="miter" stroke-opacity="1.0" fill-opacity="0.0" stroke="rgb(0,0,0)" stroke-width="0.9975010499055731" fill="rgb(0,0,0)" stroke-linecap="butt" stroke-miterlimit="10.0"><path d="M 0.0000,77.7350 h 66.6667 l 33.3333,-57.7350 l 33.3333,57.7350 h 66.6667 "/></g><g stroke-linejoin="miter" stroke-opacity="1.0" fill-opacity="0.0" stroke="rgb(0,0,0)" stroke-width="0.9975010499055731" fill="rgb(0,0,0)" stroke-linecap="butt" stroke-miterlimit="10.0"><path d="M 0.0000,0.0000 h 66.6667 "/></g></svg>