<?xml version="1.0" encoding="UTF-8"?>
<!DOCTYPE svg PUBLIC "-//W3C//DTD SVG 1.1//EN"
    "http://www.w3.org/Graphics/SVG/1.1/DTD/svg11.dtd">
<svg xmlns="http://www.w3.org/2000/svg" xmlns:xlink="http://www.w3.org/1999/xlink" version="1.1" width="400.0" height="121.33314464870146" font-size="1" viewBox="0 0 400 121" stroke="rgb(0,0,0)" stroke-opacity="1"><g><g fill="rgb(0,0,0)" fill-opacity="0.0"><g stroke="rgb(0,0,0)" stroke-opacity="1.0" stroke-width="0.8812106023827047" stroke-linecap="butt" stroke-linejoin="miter" font-size="1.0em" stroke-miterlimit="10.0"><g><g><path d="M 215.5844467646898,60.666572324350746 l -8.018607164493702,1.6386433401477944 l 5.647946922394645,7.199285494419804 l -8.018607164493702,1.6386433401477944 l 5.647946922394645,7.199285494419804 l 4.375312033222482,-9.247589669604547 l 5.647946922394645,7.199285494419804 l -8.018607164493702,1.6386433401477944 l 5.647946922394645,7.199285494419804 l -8.018607164493702,1.6386433401477944 l 5.647946922394643,7.199285494419805 l 4.3753120332224835,-9.247589669604546 l 5.647946922394643,7.199285494419805 l 4.375312033222486,-9.247589669604544 l -11.435245686215787,0.24848280157978633 l 4.375312033222486,-9.247589669604544 l 5.647946922394643,7.199285494419805 l 4.3753120332224835,-9.247589669604546 l 5.647946922394643,7.199285494419805 l -8.018607164493702,1.6386433401477944 l 5.647946922394645,7.199285494419804 l -8.018607164493702,1.6386433401477944 l 5.647946922394645,7.199285494419804 l 4.375312033222482,-9.247589669604547 l 5.647946922394645,7.199285494419804 l -8.018607164493702,1.6386433401477944 l 5.647946922394645,7.199285494419804 l -8.018607164493702,1.6386433401477944 l 5.647946922394643,7.199285494419803 l 4.375312033222482,-9.247589669604544 l 5.647946922394643,7.199285494419803 l 4.375312033222482,-9.247589669604546 l -11.435245686215787,0.24848280157979172 l 4.375312033222482,-9.247589669604546 l 5.647946922394643,7.199285494419803 l 4.375312033222482,-9.247589669604544 l 5.647946922394643,7.199285494419803 l 4.375312033222486,-9.247589669604544 l -11.435245686215787,0.24848280157978633 l 4.375312033222486,-9.247589669604544 l -11.435245686215787,0.24848280157979385 l 5.966105644687687,11.31100428542589 l -11.435245686215787,0.24848280157979385 l 4.375312033222486,-9.247589669604544 l -11.435245686215787,0.24848280157978633 l 4.375312033222486,-9.247589669604544 l 5.647946922394643,7.199285494419803 l 4.375312033222482,-9.247589669604544 l 5.647946922394643,7.199285494419803 l 4.375312033222482,-9.247589669604546 l -11.435245686215787,0.24848280157979172 l 4.375312033222482,-9.247589669604546 l 5.647946922394643,7.199285494419803 l 4.375312033222482,-9.247589669604544 l 5.647946922394643,7.199285494419803 l -8.018607164493702,1.6386433401477944 l 5.647946922394645,7.199285494419804 l -8.018607164493702,1.6386433401477944 l 5.647946922394645,7.199285494419804 l 4.375312033222482,-9.247589669604547 l 5.647946922394645,7.199285494419804 l -8.018607164493702,1.6386433401477944 l 5.647946922394645,7.199285494419804 l -8.018607164493702,1.6386433401477944 l 5.647946922394643,7.199285494419805 l 4.3753120332224835,-9.247589669604546 l 5.647946922394643,7.199285494419805 l 4.375312033222486,-9.247589669604544 l -11.435245686215787,0.24848280157978633 l 4.375312033222486,-9.247589669604544 l 5.647946922394643,7.199285494419805 l 4.3753120332224835,-9.247589669604546 l 5.647946922394643,7.199285494419805 l -8.018607164493702,1.6386433401477944 l 5.647946922394645,7.199285494419804 l -8.018607164493702,1.6386433401477944 l 5.647946922394645,7.199285494419804 l 4.375312033222482,-9.247589669604547 l 5.647946922394645,7.199285494419804 l -8.018607164493702,1.6386433401477944 l 5.647946922394645,7.199285494419804 l -8.018607164493702,1.6386433401477944 l 5.647946922394645,7.199285494419805 l 4.375312033222483,-9.247589669604547 l 5.647946922394645,7.199285494419805 l 4.375312033222482,-9.247589669604546 l -11.435245686215787,0.24848280157979172 l 4.375312033222482,-9.247589669604546 l 5.647946922394645,7.199285494419805 l 4.375312033222483,-9.247589669604547 l 5.647946922394645,7.199285494419805 l 4.375312033222486,-9.247589669604544 l -11.435245686215787,0.24848280157978633 l 4.375312033222486,-9.247589669604544 l -11.435245686215787,0.24848280157979385 l 5.966105644687687,11.31100428542589 l -11.435245686215787,0.24848280157979385 l 4.375312033222486,-9.247589669604544 l -11.435245686215787,0.24848280157978633 l 4.375312033222486,-9.247589669604544 l 5.647946922394645,7.199285494419805 l 4.375312033222483,-9.247589669604547 l 5.647946922394645,7.199285494419805 l 4.375312033222482,-9.247589669604546 l -11.435245686215787,0.24848280157979172 l 4.375312033222482,-9.247589669604546 l 5.647946922394645,7.199285494419805 l 4.375312033222483,-9.247589669604547 l 5.647946922394645,7.199285494419805 l 4.375312033222483,-9.24758966960455 l -11.43524568621579,0.24848280157979172 l 4.375312033222483,-9.24758966960455 l -11.43524568621579,0.24848280157979896 l 5.966105644687693,11.31100428542589 l -11.43524568621579,0.24848280157979896 l 4.375312033222483,-9.24758966960455 l -11.43524568621579,0.24848280157979172 l 4.375312033222483,-9.24758966960455 l -11.435245686215787,0.24848280157979893 l 5.966105644687692,11.311004285425888 l -11.435245686215787,0.24848280157979893 l 5.9661056446876914,11.311004285425888 l 8.327951463082043,-11.621607787400634 l 5.9661056446876914,11.311004285425888 l -11.435245686215787,0.24848280157979893 l 5.966105644687692,11.311004285425888 l -11.435245686215787,0.24848280157979893 l 4.375312033222483,-9.24758966960455 l -11.43524568621579,0.24848280157979172 l 4.375312033222483,-9.24758966960455 l -11.43524568621579,0.24848280157979896 l 5.966105644687693,11.31100428542589 l -11.43524568621579,0.24848280157979896 l 4.375312033222483,-9.24758966960455 l -11.43524568621579,0.24848280157979172 l 4.375312033222483,-9.24758966960455 l 5.647946922394645,7.199285494419805 l 4.375312033222483,-9.247589669604547 l 5.647946922394645,7.199285494419805 l 4.375312033222482,-9.247589669604546 l -11.435245686215787,0.24848280157979172 l 4.375312033222482,-9.247589669604546 l 5.647946922394645,7.199285494419805 l 4.375312033222483,-9.247589669604547 l 5.647946922394645,7.199285494419805 l 4.375312033222486,-9.247589669604544 l -11.435245686215787,0.24848280157978633 l 4.375312033222486,-9.247589669604544 l -11.435245686215787,0.24848280157979385 l 5.966105644687687,11.31100428542589 l -11.435245686215787,0.24848280157979385 l 4.375312033222486,-9.247589669604544 l -11.435245686215787,0.24848280157978633 l 4.375312033222486,-9.247589669604544 l 5.647946922394645,7.199285494419805 l 4.375312033222483,-9.247589669604547 l 5.647946922394645,7.199285494419805 l 4.375312033222482,-9.247589669604546 l -11.435245686215787,0.24848280157979172 l 4.375312033222482,-9.247589669604546 l 5.647946922394645,7.199285494419805 l 4.375312033222483,-9.247589669604547 l 5.647946922394645,7.199285494419805 l -8.018607164493702,1.6386433401477944 l 5.647946922394645,7.199285494419804 l -8.018607164493702,1.6386433401477944 l 5.647946922394645,7.199285494419804 l 4.375312033222482,-9.247589669604547 l 5.647946922394645,7.199285494419804 l -8.018607164493702,1.6386433401477944 l 5.647946922394645,7.199285494419804 l -8.018607164493702,1.6386433401477944 l 5.647946922394643,7.199285494419805 l 4.3753120332224835,-9.247589669604546 l 5.647946922394643,7.199285494419805 l 4.375312033222486,-9.247589669604544 l -11.435245686215787,0.24848280157978633 l 4.375312033222486,-9.247589669604544 l 5.647946922394643,7.199285494419805 l 4.3753120332224835,-9.247589669604546 l 5.647946922394643,7.199285494419805 l -8.018607164493702,1.6386433401477944 l 5.647946922394645,7.199285494419804 l -8.018607164493702,1.6386433401477944 l 5.647946922394645,7.199285494419804 l 4.375312033222482,-9.247589669604547 l 5.647946922394645,7.199285494419804 l -8.018607164493702,1.6386433401477944 l 5.647946922394645,7.199285494419804 l -8.018607164493702,1.6386433401477944 l 5.647946922394643,7.199285494419803 l 4.375312033222482,-9.247589669604544 l 5.647946922394643,7.199285494419803 l 4.375312033222482,-9.247589669604546 l -11.435245686215787,0.24848280157979172 l 4.375312033222482,-9.247589669604546 l 5.647946922394643,7.199285494419803 l 4.375312033222482,-9.247589669604544 l 5.647946922394643,7.199285494419803 l 4.375312033222486,-9.247589669604544 l -11.435245686215787,0.24848280157978633 l 4.375312033222486,-9.247589669604544 l -11.435245686215787,0.24848280157979385 l 5.966105644687687,11.31100428542589 l -11.435245686215787,0.24848280157979385 l 4.375312033222486,-9.247589669604544 l -11.435245686215787,0.24848280157978633 l 4.375312033222486,-9.247589669604544 l 5.647946922394643,7.199285494419803 l 4.375312033222482,-9.247589669604544 l 5.647946922394643,7.199285494419803 l 4.375312033222482,-9.247589669604546 l -11.435245686215787,0.24848280157979172 l 4.375312033222482,-9.247589669604546 l 5.647946922394643,7.199285494419803 l 4.375312033222482,-9.247589669604544 l 5.647946922394643,7.199285494419803 l -8.018607164493702,1.6386433401477944 l 5.647946922394645,7.199285494419804 l -8.018607164493702,1.6386433401477944 l 5.647946922394645,7.199285494419804 l 4.375312033222482,-9.247589669604547 l 5.647946922394645,7.199285494419804 l -8.018607164493702,1.6386433401477944 l 5.647946922394645,7.199285494419804 l -8.018607164493702,1.6386433401477944 l 5.647946922394643,7.199285494419805 l 4.3753120332224835,-9.247589669604546 l 5.647946922394643,7.199285494419805 l 4.375312033222486,-9.247589669604544 l -11.435245686215787,0.24848280157978633 l 4.375312033222486,-9.247589669604544 l 5.647946922394643,7.199285494419805 l 4.3753120332224835,-9.247589669604546 l 5.647946922394643,7.199285494419805 l -8.018607164493702,1.6386433401477944 l 5.647946922394645,7.199285494419804 l -8.018607164493702,1.6386433401477944 l 5.647946922394645,7.199285494419804 l 4.375312033222482,-9.247589669604547 l 5.647946922394645,7.199285494419804 l -8.018607164493702,1.6386433401477944 l 5.647946922394645,7.199285494419804 l -8.018607164493702,1.6386433401477944 " /></g><path d="M 18.181818181818187,60.666572324350746 l 71.92821583703034,47.95214389135355 l 11.988035972838382,-95.90428778270712 l 71.92821583703034,47.95214389135355 " /></g></g></g></g></svg>