<?xml version="1.0" encoding="UTF-8"?>
<!DOCTYPE svg PUBLIC "-//W3C//DTD SVG 1.1//EN"
    "http://www.w3.org/Graphics/SVG/1.1/DTD/svg11.dtd">
<svg xmlns="http://www.w3.org/2000/svg" xmlns:xlink="http://www.w3.org/1999/xlink" version="1.1" width="200.0" height="100.0" font-size="1" viewBox="0 0 200 100"><g><g stroke="rgb(0,0,0)" stroke-opacity="1.0" fill="rgb(0,0,0)" fill-opacity="0.0" stroke-width="1.0e-2" stroke-linecap="butt" stroke-linejoin="miter" font-size="1.0em" stroke-miterlimit="10.0"><g transform="matrix(100.0,0.0,0.0,100.0,50.0,50.0)"><g><path d="M 1.5,0.5 l -1.1102230246251565e-16,-1.0 h -1.0 l -1.1102230246251565e-16,1.0 h 1.0 Z" /><g><g><g fill="rgb(255,255,89)" fill-opacity="1.0" stroke-width="0.0"><path d="M 1.1104899379850617,0.13228727693161313 l -0.11048993798506163,0.19137418631526112 l -0.11048993798506163,-0.19137418631526107 l 0.22097987597012325,-5.551115123125783e-17 Z" /></g><g><g fill="rgb(89,89,255)" fill-opacity="1.0" stroke-width="0.0"><path d="M 1.0990867003435452,7.863926177779756e-2 l 5.890173781772905e-2,2.622474329097557e-2 l -6.73957501115411e-3,6.412277292269172e-2 l -6.306702424435173e-2,1.340530982813936e-2 l -3.223798954116893e-2,-5.5837835819178595e-2 l 4.3142850978945727e-2,-4.7914990222628066e-2 Z" /></g><g fill="rgb(0,0,0)" fill-opacity="1.0"><path d="M 1.0780643589287613,8.310769838717735e-2 c -2.467849394946079e-3,-1.1610318569121465e-2 4.943586236282656e-3,-2.3022928629217634e-2 1.655390480540412e-2 -2.549077802416371e-2c 1.1610318569121465e-2,-2.46784939494608e-3 2.3022928629217634e-2,4.943586236282656e-3 2.549077802416371e-2 1.6553904805404116e-2c 2.4678493949460804e-3,1.1610318569121465e-2 -4.943586236282654e-3,2.3022928629217634e-2 -1.6553904805404113e-2 2.549077802416371e-2c -1.1610318569121465e-2,2.4678493949460813e-3 -2.3022928629217634e-2,-4.943586236282652e-3 -2.549077802416372e-2 -1.6553904805404116e-2Z" /></g><g fill="rgb(0,0,0)" fill-opacity="1.0"><path d="M 1.0536973243608814,0.1479285096413229 c -1.1804676534021863e-2,-1.2407214996670356e-3 -2.0368454136846254e-2,-1.1816106110593416e-2 -1.9127732637179217e-2 -2.3620782644615278e-2c 1.240721499667035e-3,-1.1804676534021863e-2 1.1816106110593414e-2,-2.0368454136846254e-2 2.3620782644615274e-2 -1.9127732637179217e-2c 1.1804676534021863e-2,1.240721499667034e-3 2.0368454136846254e-2,1.1816106110593414e-2 1.9127732637179217e-2 2.362078264461527e-2c -1.2407214996670334e-3,1.1804676534021863e-2 -1.1816106110593413e-2,2.0368454136846254e-2 -2.3620782644615274e-2 1.912773263717922e-2Z" /></g><g fill="rgb(0,0,0)" fill-opacity="1.0"><path d="M 1.1078157515116782,0.19113366891659608 c -4.8278419292777375e-3,1.0843510511754495e-2 -1.7531983191147044e-2,1.5720173438195578e-2 -2.8375493702901537e-2 1.0892331508917842e-2c -1.0843510511754495e-2,-4.827841929277737e-3 -1.5720173438195578e-2,-1.7531983191147044e-2 -1.0892331508917844e-2 -2.8375493702901534e-2c 4.827841929277736e-3,-1.0843510511754495e-2 1.753198319114704e-2,-1.572017343819558e-2 2.837549370290153e-2 -1.0892331508917844e-2c 1.0843510511754497e-2,4.827841929277736e-3 1.572017343819558e-2,1.753198319114704e-2 1.089233150891785e-2 2.8375493702901537e-2Z" /></g><g fill="rgb(0,0,0)" fill-opacity="1.0"><path d="M 1.1656298134764354,0.15301511458392214 c 8.820906129416353e-3,7.942379553298082e-3 9.533092634525531e-3,2.153170760444158e-2 1.5907130812274507e-3 3.0352613733857933e-2c -7.942379553298082e-3,8.820906129416353e-3 -2.1531707604441577e-2,9.533092634525533e-3 -3.0352613733857926e-2 1.5907130812274524e-3c -8.820906129416354e-3,-7.94237955329808e-3 -9.533092634525533e-3,-2.1531707604441577e-2 -1.5907130812274541e-3 -3.0352613733857926e-2c 7.94237955329808e-3,-8.820906129416354e-3 2.1531707604441577e-2,-9.533092634525533e-3 3.0352613733857933e-2 -1.5907130812274559e-3Z" /></g><g fill="rgb(0,0,0)" fill-opacity="1.0"><path d="M 1.1472424416475513,8.625139312904692e-2 c 1.0279461728829323e-2,-5.934849996264074e-3 2.3423758457185105e-2,-2.412846302826104e-3 2.9358608453449175e-2 7.86661542600322e-3c 5.9348499962640746e-3,1.0279461728829323e-2 2.412846302826104e-3,2.3423758457185105e-2 -7.866615426003216e-3 2.9358608453449175e-2c -1.0279461728829323e-2,5.9348499962640746e-3 -2.34237584571851e-2,2.412846302826106e-3 -2.9358608453449175e-2 -7.866615426003216e-3c -5.934849996264075e-3,-1.0279461728829322e-2 -2.412846302826106e-3,-2.34237584571851e-2 7.866615426003216e-3 -2.935860845344918e-2Z" /></g></g><g><g fill="rgb(89,89,255)" fill-opacity="1.0" stroke-width="0.0"><path d="M 0.8487511368498798,0.16898677799146491 l -6.739575011154141e-3,-6.412277292269171e-2 l 5.890173781772902e-2,-2.6224743290975596e-2 l 4.314285097894575e-2,4.7914990222628025e-2 l -3.223798954116888e-2,5.5837835819178616e-2 l -6.306702424435173e-2,-1.3405309828139332e-2 Z" /></g><g fill="rgb(0,0,0)" fill-opacity="1.0"><path d="M 0.863132087176195,0.18495844139900763 c -8.820906129416346e-3,7.942379553298089e-3 -2.2410234180559842e-2,7.230193048188928e-3 -3.0352613733857933e-2 -1.590713081227416e-3c -7.942379553298089e-3,-8.820906129416346e-3 -7.230193048188929e-3,-2.2410234180559842e-2 1.5907130812274125e-3 -3.035261373385793e-2c 8.820906129416344e-3,-7.94237955329809e-3 2.2410234180559842e-2,-7.23019304818893e-3 3.0352613733857926e-2 1.5907130812274125e-3c 7.94237955329809e-3,8.820906129416344e-3 7.2301930481889305e-3,2.2410234180559842e-2 -1.5907130812274073e-3 3.0352613733857933e-2Z" /></g><g fill="rgb(0,0,0)" fill-opacity="1.0"><path d="M 0.9314520737001412,0.1736505067226124 c 4.827841929277749e-3,1.084351051175449e-2 -4.882099716331696e-5,2.35476517736238e-2 -1.0892331508917805e-2 2.837549370290155e-2c -1.084351051175449e-2,4.82784192927775e-3 -2.35476517736238e-2,-4.882099716331523e-5 -2.8375493702901548e-2 -1.0892331508917802e-2c -4.8278419292777505e-3,-1.084351051175449e-2 4.882099716331523e-5,-2.35476517736238e-2 1.0892331508917798e-2 -2.8375493702901548e-2c 1.0843510511754488e-2,-4.8278419292777505e-3 2.35476517736238e-2,4.882099716331349e-5 2.8375493702901555e-2 1.0892331508917798e-2Z" /></g><g fill="rgb(0,0,0)" fill-opacity="1.0"><path d="M 0.9418096256316824,0.10517999435952839 c 1.1804676534021862e-2,-1.2407214996670482e-3 2.238006114494825e-2,7.323056103157328e-3 2.36207826446153e-2 1.9127732637179186e-2c 1.2407214996670488e-3,1.1804676534021862e-2 -7.323056103157326e-3,2.238006114494825e-2 -1.9127732637179186e-2 2.36207826446153e-2c -1.1804676534021862e-2,1.2407214996670497e-3 -2.238006114494825e-2,-7.323056103157326e-3 -2.36207826446153e-2 -1.912773263717918e-2c -1.2407214996670503e-3,-1.1804676534021862e-2 7.323056103157324e-3,-2.238006114494825e-2 1.9127732637179186e-2 -2.3620782644615305e-2Z" /></g><g fill="rgb(0,0,0)" fill-opacity="1.0"><path d="M 0.8798909582416709,7.417082516841784e-2 c 2.4678493949460666e-3,-1.1610318569121465e-2 1.3880459455042224e-2,-1.9021754200350214e-2 2.5490778024163687e-2 -1.6553904805404147e-2c 1.1610318569121465e-2,2.4678493949460657e-3 1.9021754200350214e-2,1.3880459455042224e-2 1.6553904805404147e-2 2.5490778024163684e-2c -2.4678493949460653e-3,1.1610318569121465e-2 -1.388045945504222e-2,1.9021754200350214e-2 -2.549077802416368e-2 1.6553904805404147e-2c -1.1610318569121465e-2,-2.4678493949460644e-3 -1.9021754200350214e-2,-1.388045945504222e-2 -1.655390480540415e-2 -2.5490778024163684e-2Z" /></g><g fill="rgb(0,0,0)" fill-opacity="1.0"><path d="M 0.8312655653250026,0.12347661700849943 c -1.0279461728829329e-2,-5.934849996264065e-3 -1.380146542226731e-2,-1.907914672461984e-2 -7.866615426003247e-3 -2.935860845344917e-2c 5.934849996264064e-3,-1.0279461728829329e-2 1.907914672461984e-2,-1.3801465422267312e-2 2.935860845344916e-2 -7.866615426003249e-3c 1.0279461728829329e-2,5.934849996264064e-3 1.3801465422267314e-2,1.9079146724619838e-2 7.86661542600325e-3 2.935860845344916e-2c -5.934849996264063e-3,1.027946172882933e-2 -1.9079146724619835e-2,1.3801465422267314e-2 -2.9358608453449165e-2 7.866615426003254e-3Z" /></g></g><g><g fill="rgb(89,89,255)" fill-opacity="1.0" stroke-width="0.0"><path d="M 1.052162162806575,0.340609977340838 l -5.21621628065749e-2,3.7898029631716124e-2 l -5.2162162806574895e-2,-3.789802963171614e-2 l 1.9924173265406006e-2,-6.1320300050767364e-2 l 6.447597908233779e-2,2.38609055041538e-18 l 1.9924173265406006e-2,6.132030005076738e-2 Z" /></g><g fill="rgb(0,0,0)" fill-opacity="1.0"><path d="M 1.0588035538950435,0.32016987732391544 c 1.1288755524362419e-2,3.667939015823378e-3 1.7466647944277176e-2,1.5792735581028707e-2 1.37987089284538e-2 2.7081491105391126e-2c -3.667939015823377e-3,1.1288755524362419e-2 -1.5792735581028707e-2,1.7466647944277176e-2 -2.7081491105391122e-2 1.37987089284538e-2c -1.1288755524362419e-2,-3.6679390158233767e-3 -1.7466647944277176e-2,-1.5792735581028703e-2 -1.37987089284538e-2 -2.708149110539112e-2c 3.667939015823376e-3,-1.1288755524362419e-2 1.5792735581028703e-2,-1.7466647944277176e-2 2.7081491105391122e-2 -1.3798708928453807e-2Z" /></g><g fill="rgb(0,0,0)" fill-opacity="1.0"><path d="M 1.0148506019389771,0.2666570007461652 c 6.976834604744115e-3,-9.60278901208745e-3 2.041727513400957e-2,-1.1731545663030377e-2 3.0020064146097016e-2 -4.754711058286265e-3c 9.60278901208745e-3,6.9768346047441145e-3 1.1731545663030378e-2,2.0417275134009566e-2 4.754711058286265e-3 3.0020064146097016e-2c -6.9768346047441145e-3,9.60278901208745e-3 -2.0417275134009566e-2,1.173154566303038e-2 -3.0020064146097016e-2 4.7547110582862664e-3c -9.602789012087451e-3,-6.976834604744114e-3 -1.173154566303038e-2,-2.0417275134009566e-2 -4.7547110582862664e-3 -3.0020064146097016e-2Z" /></g><g fill="rgb(0,0,0)" fill-opacity="1.0"><path d="M 0.9503746228566395,0.29192235383397597 c -6.976834604744118e-3,-9.602789012087446e-3 -4.848077953801199e-3,-2.30432295413529e-2 4.754711058286246e-3 -3.0020064146097016e-2c 9.602789012087446e-3,-6.976834604744119e-3 2.30432295413529e-2,-4.8480779538012005e-3 3.0020064146097016e-2 4.754711058286242e-3c 6.976834604744119e-3,9.602789012087446e-3 4.848077953801201e-3,2.30432295413529e-2 -4.754711058286242e-3 3.0020064146097016e-2c -9.602789012087444e-3,6.97683460474412e-3 -2.30432295413529e-2,4.848077953801202e-3 -3.002006414609702e-2 -4.754711058286242e-3Z" /></g><g fill="rgb(0,0,0)" fill-opacity="1.0"><path d="M 0.9544792282818937,0.36105007735776046 c -1.1288755524362419e-2,3.6679390158233806e-3 -2.3413552089567753e-2,-2.509953404091371e-3 -2.7081491105391133e-2 -1.379870892845379e-2c -3.6679390158233815e-3,-1.1288755524362419e-2 2.5099534040913694e-3,-2.3413552089567753e-2 1.3798708928453786e-2 -2.7081491105391133e-2c 1.1288755524362419e-2,-3.667939015823382e-3 2.341355208956775e-2,2.5099534040913677e-3 2.7081491105391133e-2 1.3798708928453782e-2c 3.667939015823383e-3,1.1288755524362419e-2 -2.5099534040913677e-3,2.341355208956775e-2 -1.3798708928453786e-2 2.7081491105391136e-2Z" /></g><g fill="rgb(0,0,0)" fill-opacity="1.0"><path d="M 1.021491993027446,0.3785080069725541 c 0.0,1.1869699992528135e-2 -9.622293034917797e-3,2.1491993027445935e-2 -2.1491993027445932e-2 2.1491993027445935e-2c -1.1869699992528135e-2,7.268095051344471e-19 -2.1491993027445935e-2,-9.622293034917797e-3 -2.1491993027445935e-2 -2.149199302744593e-2c -1.4536190102688943e-18,-1.1869699992528135e-2 9.622293034917795e-3,-2.1491993027445935e-2 2.1491993027445925e-2 -2.1491993027445935e-2c 1.1869699992528135e-2,-2.1804285154033415e-18 2.1491993027445935e-2,9.622293034917793e-3 2.1491993027445946e-2 2.149199302744593e-2Z" /></g></g></g><g></g><g fill="rgb(255,255,89)" fill-opacity="1.0" stroke-width="0.0"><path d="M 1.1104899379850617,-0.13228727693161313 l -0.11048993798506163,-0.19137418631526112 l -0.11048993798506163,0.19137418631526107 l 0.22097987597012325,5.551115123125783e-17 Z" /></g><g><g fill="rgb(89,89,255)" fill-opacity="1.0" stroke-width="0.0"><path d="M 1.0990867003435452,-7.863926177779756e-2 l 5.890173781772905e-2,-2.622474329097557e-2 l -6.73957501115411e-3,-6.412277292269172e-2 l -6.306702424435173e-2,-1.340530982813936e-2 l -3.223798954116893e-2,5.5837835819178595e-2 l 4.3142850978945727e-2,4.7914990222628066e-2 Z" /></g><g fill="rgb(0,0,0)" fill-opacity="1.0"><path d="M 1.0780643589287613,-8.310769838717735e-2 c -2.467849394946079e-3,1.1610318569121465e-2 4.943586236282656e-3,2.3022928629217634e-2 1.655390480540412e-2 2.549077802416371e-2c 1.1610318569121465e-2,2.46784939494608e-3 2.3022928629217634e-2,-4.943586236282656e-3 2.549077802416371e-2 -1.6553904805404116e-2c 2.4678493949460804e-3,-1.1610318569121465e-2 -4.943586236282654e-3,-2.3022928629217634e-2 -1.6553904805404113e-2 -2.549077802416371e-2c -1.1610318569121465e-2,-2.4678493949460813e-3 -2.3022928629217634e-2,4.943586236282652e-3 -2.549077802416372e-2 1.6553904805404116e-2Z" /></g><g fill="rgb(0,0,0)" fill-opacity="1.0"><path d="M 1.0536973243608814,-0.1479285096413229 c -1.1804676534021863e-2,1.2407214996670356e-3 -2.0368454136846254e-2,1.1816106110593416e-2 -1.9127732637179217e-2 2.3620782644615278e-2c 1.240721499667035e-3,1.1804676534021863e-2 1.1816106110593414e-2,2.0368454136846254e-2 2.3620782644615274e-2 1.9127732637179217e-2c 1.1804676534021863e-2,-1.240721499667034e-3 2.0368454136846254e-2,-1.1816106110593414e-2 1.9127732637179217e-2 -2.362078264461527e-2c -1.2407214996670334e-3,-1.1804676534021863e-2 -1.1816106110593413e-2,-2.0368454136846254e-2 -2.3620782644615274e-2 -1.912773263717922e-2Z" /></g><g fill="rgb(0,0,0)" fill-opacity="1.0"><path d="M 1.1078157515116782,-0.19113366891659608 c -4.8278419292777375e-3,-1.0843510511754495e-2 -1.7531983191147044e-2,-1.5720173438195578e-2 -2.8375493702901537e-2 -1.0892331508917842e-2c -1.0843510511754495e-2,4.827841929277737e-3 -1.5720173438195578e-2,1.7531983191147044e-2 -1.0892331508917844e-2 2.8375493702901534e-2c 4.827841929277736e-3,1.0843510511754495e-2 1.753198319114704e-2,1.572017343819558e-2 2.837549370290153e-2 1.0892331508917844e-2c 1.0843510511754497e-2,-4.827841929277736e-3 1.572017343819558e-2,-1.753198319114704e-2 1.089233150891785e-2 -2.8375493702901537e-2Z" /></g><g fill="rgb(0,0,0)" fill-opacity="1.0"><path d="M 1.1656298134764354,-0.15301511458392214 c 8.820906129416353e-3,-7.942379553298082e-3 9.533092634525531e-3,-2.153170760444158e-2 1.5907130812274507e-3 -3.0352613733857933e-2c -7.942379553298082e-3,-8.820906129416353e-3 -2.1531707604441577e-2,-9.533092634525533e-3 -3.0352613733857926e-2 -1.5907130812274524e-3c -8.820906129416354e-3,7.94237955329808e-3 -9.533092634525533e-3,2.1531707604441577e-2 -1.5907130812274541e-3 3.0352613733857926e-2c 7.94237955329808e-3,8.820906129416354e-3 2.1531707604441577e-2,9.533092634525533e-3 3.0352613733857933e-2 1.5907130812274559e-3Z" /></g><g fill="rgb(0,0,0)" fill-opacity="1.0"><path d="M 1.1472424416475513,-8.625139312904692e-2 c 1.0279461728829323e-2,5.934849996264074e-3 2.3423758457185105e-2,2.412846302826104e-3 2.9358608453449175e-2 -7.86661542600322e-3c 5.9348499962640746e-3,-1.0279461728829323e-2 2.412846302826104e-3,-2.3423758457185105e-2 -7.866615426003216e-3 -2.9358608453449175e-2c -1.0279461728829323e-2,-5.9348499962640746e-3 -2.34237584571851e-2,-2.412846302826106e-3 -2.9358608453449175e-2 7.866615426003216e-3c -5.934849996264075e-3,1.0279461728829322e-2 -2.412846302826106e-3,2.34237584571851e-2 7.866615426003216e-3 2.935860845344918e-2Z" /></g></g><g><g fill="rgb(89,89,255)" fill-opacity="1.0" stroke-width="0.0"><path d="M 0.8487511368498798,-0.16898677799146491 l -6.739575011154141e-3,6.412277292269171e-2 l 5.890173781772902e-2,2.6224743290975596e-2 l 4.314285097894575e-2,-4.7914990222628025e-2 l -3.223798954116888e-2,-5.5837835819178616e-2 l -6.306702424435173e-2,1.3405309828139332e-2 Z" /></g><g fill="rgb(0,0,0)" fill-opacity="1.0"><path d="M 0.863132087176195,-0.18495844139900763 c -8.820906129416346e-3,-7.942379553298089e-3 -2.2410234180559842e-2,-7.230193048188928e-3 -3.0352613733857933e-2 1.590713081227416e-3c -7.942379553298089e-3,8.820906129416346e-3 -7.230193048188929e-3,2.2410234180559842e-2 1.5907130812274125e-3 3.035261373385793e-2c 8.820906129416344e-3,7.94237955329809e-3 2.2410234180559842e-2,7.23019304818893e-3 3.0352613733857926e-2 -1.5907130812274125e-3c 7.94237955329809e-3,-8.820906129416344e-3 7.2301930481889305e-3,-2.2410234180559842e-2 -1.5907130812274073e-3 -3.0352613733857933e-2Z" /></g><g fill="rgb(0,0,0)" fill-opacity="1.0"><path d="M 0.9314520737001412,-0.1736505067226124 c 4.827841929277749e-3,-1.084351051175449e-2 -4.882099716331696e-5,-2.35476517736238e-2 -1.0892331508917805e-2 -2.837549370290155e-2c -1.084351051175449e-2,-4.82784192927775e-3 -2.35476517736238e-2,4.882099716331523e-5 -2.8375493702901548e-2 1.0892331508917802e-2c -4.8278419292777505e-3,1.084351051175449e-2 4.882099716331523e-5,2.35476517736238e-2 1.0892331508917798e-2 2.8375493702901548e-2c 1.0843510511754488e-2,4.8278419292777505e-3 2.35476517736238e-2,-4.882099716331349e-5 2.8375493702901555e-2 -1.0892331508917798e-2Z" /></g><g fill="rgb(0,0,0)" fill-opacity="1.0"><path d="M 0.9418096256316824,-0.10517999435952839 c 1.1804676534021862e-2,1.2407214996670482e-3 2.238006114494825e-2,-7.323056103157328e-3 2.36207826446153e-2 -1.9127732637179186e-2c 1.2407214996670488e-3,-1.1804676534021862e-2 -7.323056103157326e-3,-2.238006114494825e-2 -1.9127732637179186e-2 -2.36207826446153e-2c -1.1804676534021862e-2,-1.2407214996670497e-3 -2.238006114494825e-2,7.323056103157326e-3 -2.36207826446153e-2 1.912773263717918e-2c -1.2407214996670503e-3,1.1804676534021862e-2 7.323056103157324e-3,2.238006114494825e-2 1.9127732637179186e-2 2.3620782644615305e-2Z" /></g><g fill="rgb(0,0,0)" fill-opacity="1.0"><path d="M 0.8798909582416709,-7.417082516841784e-2 c 2.4678493949460666e-3,1.1610318569121465e-2 1.3880459455042224e-2,1.9021754200350214e-2 2.5490778024163687e-2 1.6553904805404147e-2c 1.1610318569121465e-2,-2.4678493949460657e-3 1.9021754200350214e-2,-1.3880459455042224e-2 1.6553904805404147e-2 -2.5490778024163684e-2c -2.4678493949460653e-3,-1.1610318569121465e-2 -1.388045945504222e-2,-1.9021754200350214e-2 -2.549077802416368e-2 -1.6553904805404147e-2c -1.1610318569121465e-2,2.4678493949460644e-3 -1.9021754200350214e-2,1.388045945504222e-2 -1.655390480540415e-2 2.5490778024163684e-2Z" /></g><g fill="rgb(0,0,0)" fill-opacity="1.0"><path d="M 0.8312655653250026,-0.12347661700849943 c -1.0279461728829329e-2,5.934849996264065e-3 -1.380146542226731e-2,1.907914672461984e-2 -7.866615426003247e-3 2.935860845344917e-2c 5.934849996264064e-3,1.0279461728829329e-2 1.907914672461984e-2,1.3801465422267312e-2 2.935860845344916e-2 7.866615426003249e-3c 1.0279461728829329e-2,-5.934849996264064e-3 1.3801465422267314e-2,-1.9079146724619838e-2 7.86661542600325e-3 -2.935860845344916e-2c -5.934849996264063e-3,-1.027946172882933e-2 -1.9079146724619835e-2,-1.3801465422267314e-2 -2.9358608453449165e-2 -7.866615426003254e-3Z" /></g></g><g><g fill="rgb(89,89,255)" fill-opacity="1.0" stroke-width="0.0"><path d="M 1.052162162806575,-0.340609977340838 l -5.21621628065749e-2,-3.7898029631716124e-2 l -5.2162162806574895e-2,3.789802963171614e-2 l 1.9924173265406006e-2,6.1320300050767364e-2 l 6.447597908233779e-2,-2.38609055041538e-18 l 1.9924173265406006e-2,-6.132030005076738e-2 Z" /></g><g fill="rgb(0,0,0)" fill-opacity="1.0"><path d="M 1.0588035538950435,-0.32016987732391544 c 1.1288755524362419e-2,-3.667939015823378e-3 1.7466647944277176e-2,-1.5792735581028707e-2 1.37987089284538e-2 -2.7081491105391126e-2c -3.667939015823377e-3,-1.1288755524362419e-2 -1.5792735581028707e-2,-1.7466647944277176e-2 -2.7081491105391122e-2 -1.37987089284538e-2c -1.1288755524362419e-2,3.6679390158233767e-3 -1.7466647944277176e-2,1.5792735581028703e-2 -1.37987089284538e-2 2.708149110539112e-2c 3.667939015823376e-3,1.1288755524362419e-2 1.5792735581028703e-2,1.7466647944277176e-2 2.7081491105391122e-2 1.3798708928453807e-2Z" /></g><g fill="rgb(0,0,0)" fill-opacity="1.0"><path d="M 1.0148506019389771,-0.2666570007461652 c 6.976834604744115e-3,9.60278901208745e-3 2.041727513400957e-2,1.1731545663030377e-2 3.0020064146097016e-2 4.754711058286265e-3c 9.60278901208745e-3,-6.9768346047441145e-3 1.1731545663030378e-2,-2.0417275134009566e-2 4.754711058286265e-3 -3.0020064146097016e-2c -6.9768346047441145e-3,-9.60278901208745e-3 -2.0417275134009566e-2,-1.173154566303038e-2 -3.0020064146097016e-2 -4.7547110582862664e-3c -9.602789012087451e-3,6.976834604744114e-3 -1.173154566303038e-2,2.0417275134009566e-2 -4.7547110582862664e-3 3.0020064146097016e-2Z" /></g><g fill="rgb(0,0,0)" fill-opacity="1.0"><path d="M 0.9503746228566395,-0.29192235383397597 c -6.976834604744118e-3,9.602789012087446e-3 -4.848077953801199e-3,2.30432295413529e-2 4.754711058286246e-3 3.0020064146097016e-2c 9.602789012087446e-3,6.976834604744119e-3 2.30432295413529e-2,4.8480779538012005e-3 3.0020064146097016e-2 -4.754711058286242e-3c 6.976834604744119e-3,-9.602789012087446e-3 4.848077953801201e-3,-2.30432295413529e-2 -4.754711058286242e-3 -3.0020064146097016e-2c -9.602789012087444e-3,-6.97683460474412e-3 -2.30432295413529e-2,-4.848077953801202e-3 -3.002006414609702e-2 4.754711058286242e-3Z" /></g><g fill="rgb(0,0,0)" fill-opacity="1.0"><path d="M 0.9544792282818937,-0.36105007735776046 c -1.1288755524362419e-2,-3.6679390158233806e-3 -2.3413552089567753e-2,2.509953404091371e-3 -2.7081491105391133e-2 1.379870892845379e-2c -3.6679390158233815e-3,1.1288755524362419e-2 2.5099534040913694e-3,2.3413552089567753e-2 1.3798708928453786e-2 2.7081491105391133e-2c 1.1288755524362419e-2,3.667939015823382e-3 2.341355208956775e-2,-2.5099534040913677e-3 2.7081491105391133e-2 -1.3798708928453782e-2c 3.667939015823383e-3,-1.1288755524362419e-2 -2.5099534040913677e-3,-2.341355208956775e-2 -1.3798708928453786e-2 -2.7081491105391136e-2Z" /></g><g fill="rgb(0,0,0)" fill-opacity="1.0"><path d="M 1.021491993027446,-0.3785080069725541 c 0.0,-1.1869699992528135e-2 -9.622293034917797e-3,-2.1491993027445935e-2 -2.1491993027445932e-2 -2.1491993027445935e-2c -1.1869699992528135e-2,-7.268095051344471e-19 -2.1491993027445935e-2,9.622293034917797e-3 -2.1491993027445935e-2 2.149199302744593e-2c -1.4536190102688943e-18,1.1869699992528135e-2 9.622293034917795e-3,2.1491993027445935e-2 2.1491993027445925e-2 2.1491993027445935e-2c 1.1869699992528135e-2,2.1804285154033415e-18 2.1491993027445935e-2,-9.622293034917793e-3 2.1491993027445946e-2 -2.149199302744593e-2Z" /></g></g></g></g><path d="M 0.5000000000000001,0.5 l -1.1102230246251565e-16,-1.0 h -1.0 l -1.1102230246251565e-16,1.0 h 1.0 Z" /><g><path d="M 0.4,5.684341886080803e-17 c 0.0,-0.22091389993231741 -0.1790861000676826,-0.4000000000000001 -0.39999999999999997 -0.4000000000000001c -0.22091389993231741,-1.352707502196356e-17 -0.4000000000000001,0.17908610006768258 -0.4000000000000001 0.39999999999999997c -2.705415004392712e-17,0.22091389993231741 0.17908610006768255,0.4000000000000001 0.3999999999999999 0.4000000000000001c 0.22091389993231741,4.058122506589068e-17 0.4000000000000001,-0.17908610006768255 0.40000000000000013 -0.39999999999999997Z" /></g></g></g></g></svg>