<svg xmlns="http://www.w3.org/2000/svg" height="413.5969" stroke-opacity="1" viewBox="0 0 400 414" font-size="1" width="400.0000" xmlns:xlink="http://www.w3.org/1999/xlink" stroke="rgb(0,0,0)" version="1.1"><defs></defs><g stroke-linejoin="miter" stroke-opacity="1.0" fill-opacity="1.0" stroke="rgb(0,0,0)" stroke-width="1.6269665737058416" fill="rgb(75,0,130)" stroke-linecap="butt" stroke-miterlimit="10.0"><path d="M 211.6242,218.5773 c 0.0000,-37.3439 -30.2732,-67.6171 -67.6171 -67.6171c -37.3439,-0.0000 -67.6171,30.2732 -67.6171 67.6171c -0.0000,37.3439 30.2732,67.6171 67.6171 67.6171c 37.3439,0.0000 67.6171,-30.2732 67.6171 -67.6171Z"/></g><g stroke-linejoin="miter" stroke-opacity="1.0" fill-opacity="1.0" stroke="rgb(0,0,0)" stroke-width="1.6269665737058416" fill="rgb(178,34,34)" stroke-linecap="butt" stroke-miterlimit="10.0"><path d="M 338.4416,218.5773 c 0.0000,-35.0099 -28.3811,-63.3910 -63.3910 -63.3910c -35.0099,-0.0000 -63.3910,28.3811 -63.3910 63.3910c -0.0000,35.0099 28.3811,63.3910 63.3910 63.3910c 35.0099,0.0000 63.3910,-28.3811 63.3910 -63.3910Z"/></g><g stroke-linejoin="miter" stroke-opacity="1.0" fill-opacity="1.0" stroke="rgb(0,0,0)" stroke-width="1.6269665737058416" fill="rgb(255,228,196)" stroke-linecap="butt" stroke-miterlimit="10.0"><path d="M 272.7165,112.5304 c 0.0000,-32.6759 -26.4891,-59.1650 -59.1650 -59.1650c -32.6759,-0.0000 -59.1650,26.4891 -59.1650 59.1650c -0.0000,32.6759 26.4891,59.1650 59.1650 59.1650c 32.6759,0.0000 59.1650,-26.4891 59.1650 -59.1650Z"/></g><g stroke-linejoin="miter" stroke-opacity="1.0" fill-opacity="1.0" stroke="rgb(0,0,0)" stroke-width="1.6269665737058416" fill="rgb(0,255,255)" stroke-linecap="butt" stroke-miterlimit="10.0"><path d="M 268.3540,319.6249 c 0.0000,-30.3419 -24.5970,-54.9389 -54.9389 -54.9389c -30.3419,-0.0000 -54.9389,24.5970 -54.9389 54.9389c -0.0000,30.3419 24.5970,54.9389 54.9389 54.9389c 30.3419,0.0000 54.9389,-24.5970 54.9389 -54.9389Z"/></g><g stroke-linejoin="miter" stroke-opacity="1.0" fill-opacity="1.0" stroke="rgb(0,0,0)" stroke-width="1.6269665737058416" fill="rgb(255,0,255)" stroke-linecap="butt" stroke-miterlimit="10.0"><path d="M 154.4831,107.2646 c 0.0000,-28.0079 -22.7049,-50.7128 -50.7128 -50.7128c -28.0079,-0.0000 -50.7128,22.7049 -50.7128 50.7128c -0.0000,28.0079 22.7049,50.7128 50.7128 50.7128c 28.0079,0.0000 50.7128,-22.7049 50.7128 -50.7128Z"/></g><g stroke-linejoin="miter" stroke-opacity="1.0" fill-opacity="1.0" stroke="rgb(0,0,0)" stroke-width="1.6269665737058416" fill="rgb(255,228,196)" stroke-linecap="butt" stroke-miterlimit="10.0"><path d="M 359.2280,145.1453 l 9.1415,-28.1346 l -9.1415,-28.1346 l -23.9327,-17.3881 l -29.5825,0.0000 l -23.9327,17.3881 l -9.1415,28.1346 l 9.1415,28.1346 l 23.9327,17.3881 l 29.5825,-0.0000 Z"/></g><g stroke-linejoin="miter" stroke-opacity="1.0" fill-opacity="1.0" stroke="rgb(0,0,0)" stroke-width="1.6269665737058416" fill="rgb(255,255,0)" stroke-linecap="butt" stroke-miterlimit="10.0"><path d="M 158.8142,328.2273 c 0.0000,-25.6739 -20.8128,-46.4868 -46.4868 -46.4868c -25.6739,-0.0000 -46.4868,20.8128 -46.4868 46.4868c -0.0000,25.6739 20.8128,46.4868 46.4868 46.4868c 25.6739,0.0000 46.4868,-20.8128 46.4868 -46.4868Z"/></g><g stroke-linejoin="miter" stroke-opacity="1.0" fill-opacity="1.0" stroke="rgb(0,0,0)" stroke-width="1.6269665737058416" fill="rgb(0,0,255)" stroke-linecap="butt" stroke-miterlimit="10.0"><path d="M 84.5214,177.0164 c 0.0000,-23.3399 -18.9208,-42.2607 -42.2607 -42.2607c -23.3399,-0.0000 -42.2607,18.9208 -42.2607 42.2607c -0.0000,23.3399 18.9208,42.2607 42.2607 42.2607c 23.3399,0.0000 42.2607,-18.9208 42.2607 -42.2607Z"/></g><g stroke-linejoin="miter" stroke-opacity="1.0" fill-opacity="1.0" stroke="rgb(0,0,0)" stroke-width="1.6269665737058416" fill="rgb(0,255,255)" stroke-linecap="butt" stroke-miterlimit="10.0"><path d="M 80.9912,293.2068 l 7.8356,-24.1154 l -7.8356,-24.1154 l -20.5138,-14.9041 l -25.3564,-0.0000 l -20.5138,14.9041 l -7.8356,24.1154 l 7.8356,24.1154 l 20.5138,14.9041 l 25.3564,0.0000 Z"/></g><g stroke-linejoin="miter" stroke-opacity="1.0" fill-opacity="1.0" stroke="rgb(0,0,0)" stroke-width="1.6269665737058416" fill="rgb(255,0,0)" stroke-linecap="butt" stroke-miterlimit="10.0"><path d="M 344.3380,315.0966 c 0.0000,-21.0059 -17.0287,-38.0346 -38.0346 -38.0346c -21.0059,-0.0000 -38.0346,17.0287 -38.0346 38.0346c -0.0000,21.0059 17.0287,38.0346 38.0346 38.0346c 21.0059,0.0000 38.0346,-17.0287 38.0346 -38.0346Z"/></g><g stroke-linejoin="miter" stroke-opacity="1.0" fill-opacity="1.0" stroke="rgb(0,0,0)" stroke-width="1.6269665737058416" fill="rgb(255,0,255)" stroke-linecap="butt" stroke-miterlimit="10.0"><path d="M 182.8245,59.7636 l 6.5296,-20.0961 l -6.5296,-20.0961 l -17.0948,-12.4201 l -21.1303,0.0000 l -17.0948,12.4201 l -6.5296,20.0961 l 6.5296,20.0961 l 17.0948,12.4201 l 21.1303,-0.0000 Z"/></g><g stroke-linejoin="miter" stroke-opacity="1.0" fill-opacity="1.0" stroke="rgb(0,0,0)" stroke-width="1.6269665737058416" fill="rgb(75,0,130)" stroke-linecap="butt" stroke-miterlimit="10.0"><path d="M 400.0000,184.7218 c 0.0000,-18.6719 -15.1366,-33.8085 -33.8085 -33.8085c -18.6719,-0.0000 -33.8085,15.1366 -33.8085 33.8085c -0.0000,18.6719 15.1366,33.8085 33.8085 33.8085c 18.6719,0.0000 33.8085,-15.1366 33.8085 -33.8085Z"/></g><g stroke-linejoin="miter" stroke-opacity="1.0" fill-opacity="1.0" stroke="rgb(0,0,0)" stroke-width="1.6269665737058416" fill="rgb(178,34,34)" stroke-linecap="butt" stroke-miterlimit="10.0"><path d="M 308.0345,51.9642 c 0.0000,-16.3380 -13.2445,-29.5825 -29.5825 -29.5825c -16.3380,-0.0000 -29.5825,13.2445 -29.5825 29.5825c -0.0000,16.3380 13.2445,29.5825 29.5825 29.5825c 16.3380,0.0000 29.5825,-13.2445 29.5825 -29.5825Z"/></g><g stroke-linejoin="miter" stroke-opacity="1.0" fill-opacity="1.0" stroke="rgb(0,0,0)" stroke-width="1.6269665737058416" fill="rgb(178,34,34)" stroke-linecap="butt" stroke-miterlimit="10.0"><path d="M 369.0048,292.9866 l 14.7912,-25.6192 l -14.7912,-25.6192 l -29.5825,-0.0000 l -14.7912,25.6192 l 14.7912,25.6192 Z"/></g><g stroke-linejoin="miter" stroke-opacity="1.0" fill-opacity="1.0" stroke="rgb(0,0,0)" stroke-width="1.6269665737058416" fill="rgb(255,255,0)" stroke-linecap="butt" stroke-miterlimit="10.0"><path d="M 237.2999,42.0899 l 5.2237,-16.0769 l -5.2237,-16.0769 l -13.6758,-9.9361 l -16.9043,-0.0000 l -13.6758,9.9361 l -5.2237,16.0769 l 5.2237,16.0769 l 13.6758,9.9361 l 16.9043,0.0000 Z"/></g><g stroke-linejoin="miter" stroke-opacity="1.0" fill-opacity="1.0" stroke="rgb(0,0,0)" stroke-width="1.6269665737058416" fill="rgb(255,228,196)" stroke-linecap="butt" stroke-miterlimit="10.0"><path d="M 186.7019,380.7769 c 0.0000,-14.0040 -11.3525,-25.3564 -25.3564 -25.3564c -14.0040,-0.0000 -25.3564,11.3525 -25.3564 25.3564c -0.0000,14.0040 11.3525,25.3564 25.3564 25.3564c 14.0040,0.0000 25.3564,-11.3525 25.3564 -25.3564Z"/></g><g stroke-linejoin="miter" stroke-opacity="1.0" fill-opacity="1.0" stroke="rgb(0,0,0)" stroke-width="1.6269665737058416" fill="rgb(255,228,196)" stroke-linecap="butt" stroke-miterlimit="10.0"><path d="M 288.2096,392.4888 l 12.6782,-21.9593 l -12.6782,-21.9593 l -25.3564,-0.0000 l -12.6782,21.9593 l 12.6782,21.9593 Z"/></g><g stroke-linejoin="miter" stroke-opacity="1.0" fill-opacity="1.0" stroke="rgb(0,0,0)" stroke-width="1.6269665737058416" fill="rgb(0,255,255)" stroke-linecap="butt" stroke-miterlimit="10.0"><path d="M 53.3933,114.4014 c 0.0000,-11.6700 -9.4604,-21.1303 -21.1303 -21.1303c -11.6700,-0.0000 -21.1303,9.4604 -21.1303 21.1303c -0.0000,11.6700 9.4604,21.1303 21.1303 21.1303c 11.6700,0.0000 21.1303,-9.4604 21.1303 -21.1303Z"/></g><g stroke-linejoin="miter" stroke-opacity="1.0" fill-opacity="1.0" stroke="rgb(0,0,0)" stroke-width="1.6269665737058416" fill="rgb(0,255,255)" stroke-linecap="butt" stroke-miterlimit="10.0"><path d="M 216.0786,413.5969 l 10.5652,-18.2994 l -10.5652,-18.2994 l -21.1303,-0.0000 l -10.5652,18.2994 l 10.5652,18.2994 Z"/></g><g stroke-linejoin="miter" stroke-opacity="1.0" fill-opacity="1.0" stroke="rgb(0,0,0)" stroke-width="1.6269665737058416" fill="rgb(0,0,255)" stroke-linecap="butt" stroke-miterlimit="10.0"><path d="M 117.1739,48.1536 l 3.9178,-12.0577 l -3.9178,-12.0577 l -10.2569,-7.4521 l -12.6782,-0.0000 l -10.2569,7.4521 l -3.9178,12.0577 l 3.9178,12.0577 l 10.2569,7.4521 l 12.6782,0.0000 Z"/></g><g stroke-linejoin="miter" stroke-opacity="1.0" fill-opacity="1.0" stroke="rgb(0,0,0)" stroke-width="1.6269665737058416" fill="rgb(255,0,255)" stroke-linecap="butt" stroke-miterlimit="10.0"><path d="M 65.8352,327.0168 c 0.0000,-9.3360 -7.5683,-16.9043 -16.9043 -16.9043c -9.3360,-0.0000 -16.9043,7.5683 -16.9043 16.9043c -0.0000,9.3360 7.5683,16.9043 16.9043 16.9043c 9.3360,0.0000 16.9043,-7.5683 16.9043 -16.9043Z"/></g><g stroke-linejoin="miter" stroke-opacity="1.0" fill-opacity="1.0" stroke="rgb(0,0,0)" stroke-width="1.6269665737058416" fill="rgb(255,0,255)" stroke-linecap="butt" stroke-miterlimit="10.0"><path d="M 51.3148,92.5072 l 8.4521,-14.6395 l -8.4521,-14.6395 l -16.9043,-0.0000 l -8.4521,14.6395 l 8.4521,14.6395 Z"/></g><g stroke-linejoin="miter" stroke-opacity="1.0" fill-opacity="1.0" stroke="rgb(0,0,0)" stroke-width="1.6269665737058416" fill="rgb(255,0,0)" stroke-linecap="butt" stroke-miterlimit="10.0"><path d="M 249.7566,391.4682 l 2.6119,-8.0385 l -2.6119,-8.0385 l -6.8379,-4.9680 l -8.4521,0.0000 l -6.8379,4.9680 l -2.6119,8.0385 l 2.6119,8.0385 l 6.8379,4.9680 l 8.4521,-0.0000 Z"/></g><g stroke-linejoin="miter" stroke-opacity="1.0" fill-opacity="1.0" stroke="rgb(0,0,0)" stroke-width="1.6269665737058416" fill="rgb(255,255,0)" stroke-linecap="butt" stroke-miterlimit="10.0"><path d="M 84.4200,52.5401 c 0.0000,-7.0020 -5.6762,-12.6782 -12.6782 -12.6782c -7.0020,-0.0000 -12.6782,5.6762 -12.6782 12.6782c -0.0000,7.0020 5.6762,12.6782 12.6782 12.6782c 7.0020,0.0000 12.6782,-5.6762 12.6782 -12.6782Z"/></g><g stroke-linejoin="miter" stroke-opacity="1.0" fill-opacity="1.0" stroke="rgb(0,0,0)" stroke-width="1.6269665737058416" fill="rgb(255,255,0)" stroke-linecap="butt" stroke-miterlimit="10.0"><path d="M 326.8193,67.4466 l 6.3391,-10.9796 l -6.3391,-10.9796 l -12.6782,-0.0000 l -6.3391,10.9796 l 6.3391,10.9796 Z"/></g><g stroke-linejoin="miter" stroke-opacity="1.0" fill-opacity="1.0" stroke="rgb(0,0,0)" stroke-width="1.6269665737058416" fill="rgb(0,0,255)" stroke-linecap="butt" stroke-miterlimit="10.0"><path d="M 220.3673,184.2532 c 0.0000,-4.6680 -3.7842,-8.4521 -8.4521 -8.4521c -4.6680,-0.0000 -8.4521,3.7842 -8.4521 8.4521c -0.0000,4.6680 3.7842,8.4521 8.4521 8.4521c 4.6680,0.0000 8.4521,-3.7842 8.4521 -8.4521Z"/></g><g stroke-linejoin="miter" stroke-opacity="1.0" fill-opacity="1.0" stroke="rgb(0,0,0)" stroke-width="1.6269665737058416" fill="rgb(0,0,255)" stroke-linecap="butt" stroke-miterlimit="10.0"><path d="M 216.1412,260.2163 l 4.2261,-7.3198 l -4.2261,-7.3198 l -8.4521,-0.0000 l -4.2261,7.3198 l 4.2261,7.3198 Z"/></g><g stroke-linejoin="miter" stroke-opacity="1.0" fill-opacity="1.0" stroke="rgb(0,0,0)" stroke-width="1.6269665737058416" fill="rgb(75,0,130)" stroke-linecap="butt" stroke-miterlimit="10.0"><path d="M 161.6557,149.1156 l 1.3059,-4.0192 l -1.3059,-4.0192 l -3.4190,-2.4840 l -4.2261,0.0000 l -3.4190,2.4840 l -1.3059,4.0192 l 1.3059,4.0192 l 3.4190,2.4840 l 4.2261,-0.0000 Z"/></g><g stroke-linejoin="miter" stroke-opacity="1.0" fill-opacity="1.0" stroke="rgb(0,0,0)" stroke-width="1.6269665737058416" fill="rgb(255,0,0)" stroke-linecap="butt" stroke-miterlimit="10.0"><path d="M 206.3058,176.2477 c 0.0000,-2.3340 -1.8921,-4.2261 -4.2261 -4.2261c -2.3340,-0.0000 -4.2261,1.8921 -4.2261 4.2261c -0.0000,2.3340 1.8921,4.2261 4.2261 4.2261c 2.3340,0.0000 4.2261,-1.8921 4.2261 -4.2261Z"/></g><g stroke-linejoin="miter" stroke-opacity="1.0" fill-opacity="1.0" stroke="rgb(0,0,0)" stroke-width="1.6269665737058416" fill="rgb(255,0,0)" stroke-linecap="butt" stroke-miterlimit="10.0"><path d="M 224.1357,180.2559 l 2.1130,-3.6599 l -2.1130,-3.6599 l -4.2261,-0.0000 l -2.1130,3.6599 l 2.1130,3.6599 Z"/></g></svg>