<svg xmlns="http://www.w3.org/2000/svg" height="138.5281" stroke-opacity="1" viewBox="0 0 400 139" font-size="1" width="400.0000" xmlns:xlink="http://www.w3.org/1999/xlink" stroke="rgb(0,0,0)" version="1.1"><defs></defs><g stroke-linejoin="miter" stroke-opacity="1.0" fill-opacity="0.0" stroke="rgb(0,0,0)" stroke-width="0.9415838181383995" fill="rgb(0,0,0)" stroke-linecap="butt" stroke-miterlimit="10.0"><path d="M 235.4978,103.8961 l 8.6580,-0.0000 l -0.0000,-8.6580 l 8.6580,-0.0000 l 0.0000,8.6580 h 8.6580 v -8.6580 h -8.6580 v -8.6580 h 8.6580 v -8.6580 h 8.6580 v 8.6580 l -8.6580,0.0000 l 0.0000,8.6580 l 8.6580,-0.0000 l 0.0000,8.6580 l 8.6580,-0.0000 l -0.0000,-8.6580 l 8.6580,-0.0000 l 0.0000,8.6580 l 8.6580,-0.0000 l -0.0000,-8.6580 l -8.6580,0.0000 l -0.0000,-8.6580 l -8.6580,0.0000 l 0.0000,8.6580 l -8.6580,0.0000 l -0.0000,-8.6580 l 8.6580,-0.0000 l -0.0000,-8.6580 l -8.6580,0.0000 l -0.0000,-8.6580 l 8.6580,-0.0000 l -0.0000,-8.6580 l 8.6580,-0.0000 l 0.0000,8.6580 h 8.6580 v -8.6580 h -8.6580 v -8.6580 h 8.6580 v -8.6580 h 8.6580 v 8.6580 l -8.6580,0.0000 l 0.0000,8.6580 l 8.6580,-0.0000 l 0.0000,8.6580 h -8.6580 v 8.6580 h -8.6580 v -8.6580 l -8.6580,-0.0000 l -0.0000,8.6580 l 8.6580,0.0000 l -0.0000,8.6580 l 8.6580,0.0000 l 0.0000,-8.6580 l 8.6580,0.0000 l -0.0000,8.6580 h -8.6580 v 8.6580 h 8.6580 v 8.6580 h 8.6580 v -8.6580 h 8.6580 v 8.6580 l 8.6580,0.0000 l 0.0000,-8.6580 l -8.6580,-0.0000 l 0.0000,-8.6580 l 8.6580,0.0000 l 0.0000,-8.6580 l 8.6580,0.0000 l -0.0000,8.6580 h -8.6580 v 8.6580 h 8.6580 v 8.6580 l 8.6580,-0.0000 l -0.0000,-8.6580 l 8.6580,-0.0000 l 0.0000,8.6580 h 8.6580 v -8.6580 h -8.6580 v -8.6580 h -8.6580 v 8.6580 h -8.6580 v -8.6580 l 8.6580,-0.0000 l -0.0000,-8.6580 l -8.6580,0.0000 l -0.0000,-8.6580 l -8.6580,0.0000 l 0.0000,8.6580 l -8.6580,0.0000 l -0.0000,-8.6580 l -8.6580,0.0000 l 0.0000,8.6580 l 8.6580,-0.0000 l 0.0000,8.6580 l -8.6580,0.0000 l 0.0000,8.6580 l -8.6580,0.0000 l -0.0000,-8.6580 l 8.6580,-0.0000 l -0.0000,-8.6580 l -8.6580,0.0000 l -0.0000,-8.6580 l 8.6580,-0.0000 l -0.0000,-8.6580 l 8.6580,-0.0000 l 0.0000,8.6580 h 8.6580 v -8.6580 h -8.6580 v -8.6580 h -8.6580 v 8.6580 h -8.6580 v -8.6580 l 8.6580,-0.0000 l -0.0000,-8.6580 l -8.6580,0.0000 l -0.0000,-8.6580 "/></g><g stroke-linejoin="miter" stroke-opacity="1.0" fill-opacity="0.0" stroke="rgb(0,0,0)" stroke-width="0.9415838181383995" fill="rgb(0,0,0)" stroke-linecap="butt" stroke-miterlimit="10.0"><path d="M 117.7489,103.8961 l 34.6320,-34.6320 l 34.6320,34.6320 l 34.6320,-34.6320 l -34.6320,-34.6320 "/></g><g stroke-linejoin="miter" stroke-opacity="1.0" fill-opacity="0.0" stroke="rgb(0,0,0)" stroke-width="0.9415838181383995" fill="rgb(0,0,0)" stroke-linecap="butt" stroke-miterlimit="10.0"><path d="M 103.8961,34.6320 l 0.0000,62.4742 "/></g><g stroke-linejoin="miter" stroke-opacity="1.0" fill-opacity="1.0" stroke="rgb(0,0,0)" stroke-width="0.0" fill="rgb(0,0,0)" stroke-linecap="butt" stroke-miterlimit="10.0"></g><g stroke-linejoin="miter" stroke-opacity="1.0" fill-opacity="1.0" stroke="rgb(0,0,0)" stroke-width="0.0" fill="rgb(0,0,0)" stroke-linecap="butt" stroke-miterlimit="10.0"></g><g stroke-linejoin="miter" stroke-opacity="1.0" fill-opacity="1.0" stroke="rgb(0,0,0)" stroke-width="0.0" fill="rgb(0,0,0)" stroke-linecap="butt" stroke-miterlimit="10.0"><path d="M 103.4253,105.3451 l 3.0345,-9.3392 l -3.0345,1.5953 Z"/></g><g stroke-linejoin="miter" stroke-opacity="1.0" fill-opacity="1.0" stroke="rgb(0,0,0)" stroke-width="0.0" fill="rgb(0,0,0)" stroke-linecap="butt" stroke-miterlimit="10.0"><path d="M 103.4253,97.6012 l -0.0000,-0.4950 l 0.9416,-0.0000 Z"/></g><g stroke-linejoin="miter" stroke-opacity="1.0" fill-opacity="0.0" stroke="rgb(0,0,0)" stroke-width="0.9415838181383995" fill="rgb(0,0,0)" stroke-linecap="butt" stroke-miterlimit="10.0"><path d="M 34.6320,103.8961 h 62.4742 "/></g><g stroke-linejoin="miter" stroke-opacity="1.0" fill-opacity="1.0" stroke="rgb(0,0,0)" stroke-width="0.0" fill="rgb(0,0,0)" stroke-linecap="butt" stroke-miterlimit="10.0"></g><g stroke-linejoin="miter" stroke-opacity="1.0" fill-opacity="1.0" stroke="rgb(0,0,0)" stroke-width="0.0" fill="rgb(0,0,0)" stroke-linecap="butt" stroke-miterlimit="10.0"></g><g stroke-linejoin="miter" stroke-opacity="1.0" fill-opacity="1.0" stroke="rgb(0,0,0)" stroke-width="0.0" fill="rgb(0,0,0)" stroke-linecap="butt" stroke-miterlimit="10.0"><path d="M 105.3451,104.3669 l -9.3392,-3.0345 l 1.5953,3.0345 Z"/></g><g stroke-linejoin="miter" stroke-opacity="1.0" fill-opacity="1.0" stroke="rgb(0,0,0)" stroke-width="0.0" fill="rgb(0,0,0)" stroke-linecap="butt" stroke-miterlimit="10.0"><path d="M 97.6012,104.3669 h -0.4950 v -0.9416 Z"/></g></svg>