<?xml version="1.0" encoding="UTF-8"?>
<!DOCTYPE svg PUBLIC "-//W3C//DTD SVG 1.1//EN"
    "http://www.w3.org/Graphics/SVG/1.1/DTD/svg11.dtd"><svg xmlns="http://www.w3.org/2000/svg" height="126.5101968667416" stroke-opacity="1" viewBox="0 0 400 127" font-size="1" width="400.0" xmlns:xlink="http://www.w3.org/1999/xlink" stroke="rgb(0,0,0)" version="1.1"><defs></defs><defs></defs><g stroke-linejoin="miter" stroke-opacity="1.0" fill-opacity="0.0" stroke="rgb(0,0,0)" stroke-width="0.8998140140868813" fill="rgb(0,0,0)" stroke-linecap="butt" stroke-miterlimit="10.0"><path d="M 264.4067796610169,92.61189178199584 l 3.7664783427495307,-6.52373185525001 l 3.766478342749524,6.523731855250011 l 3.7664783427495307,-6.52373185525001 l -7.53295668549906,4.61260564650606e-16 l 3.7664783427495334,-6.523731855250008 l -7.53295668549906,4.61260564650606e-16 l 3.7664783427495307,-6.52373185525001 l 3.766478342749524,6.523731855250011 l 3.7664783427495307,-6.52373185525001 l 3.766478342749527,6.523731855250011 l -7.532956685499058,-7.736017309064177e-15 l 3.766478342749527,6.523731855250011 l 3.7664783427495307,-6.52373185525001 l 3.7664783427495245,6.523731855250013 l 3.7664783427495307,-6.52373185525001 l 3.766478342749527,6.523731855250011 l -7.532956685499058,-7.736017309064177e-15 l 3.766478342749527,6.523731855250011 l 3.7664783427495307,-6.52373185525001 l 3.766478342749524,6.523731855250011 l 3.7664783427495307,-6.52373185525001 l -7.53295668549906,4.61260564650606e-16 l 3.7664783427495334,-6.523731855250008 l -7.53295668549906,4.61260564650606e-16 l 3.7664783427495307,-6.52373185525001 l 3.766478342749524,6.523731855250011 l 3.7664783427495307,-6.52373185525001 l -7.532956685499061,1.0905163548814483e-15 l 3.7664783427495316,-6.5237318552500065 l -7.532956685499061,1.0905163548814483e-15 l 3.7664783427495316,6.523731855250008 l -7.53295668549906,-2.711952234012604e-15 l 3.7664783427495316,6.523731855250008 l -7.532956685499061,1.0905163548814483e-15 l 3.7664783427495316,-6.5237318552500065 l -7.532956685499061,1.0905163548814483e-15 l 3.7664783427495307,-6.523731855250009 l 3.766478342749524,6.523731855250012 l 3.7664783427495307,-6.523731855250009 l -7.532956685499061,1.0905163548814483e-15 l 3.766478342749534,-6.523731855250008 l -7.532956685499061,1.0905163548814483e-15 l 3.7664783427495307,-6.523731855250009 l 3.766478342749524,6.523731855250012 l 3.7664783427495307,-6.523731855250009 l -7.532956685499061,1.0905163548814483e-15 l 3.7664783427495316,-6.5237318552500065 l -7.532956685499061,1.0905163548814483e-15 l 3.7664783427495316,6.523731855250008 l -7.53295668549906,-2.711952234012604e-15 l 3.7664783427495316,6.523731855250008 l -7.532956685499061,1.0905163548814483e-15 l 3.7664783427495316,-6.5237318552500065 l -7.532956685499061,1.0905163548814483e-15 l 3.7664783427495307,-6.52373185525001 l 3.766478342749524,6.523731855250011 l 3.7664783427495307,-6.52373185525001 l -7.53295668549906,4.61260564650606e-16 l 3.7664783427495334,-6.523731855250008 l -7.53295668549906,4.61260564650606e-16 l 3.7664783427495307,-6.52373185525001 l 3.766478342749524,6.523731855250011 l 3.7664783427495307,-6.52373185525001 l 3.766478342749527,6.523731855250011 l -7.532956685499058,-7.736017309064177e-15 l 3.766478342749527,6.523731855250011 l 3.7664783427495307,-6.52373185525001 l 3.7664783427495245,6.523731855250013 l 3.7664783427495307,-6.52373185525001 l 3.766478342749527,6.523731855250011 l -7.532956685499058,-7.736017309064177e-15 l 3.766478342749527,6.523731855250011 l 3.7664783427495307,-6.52373185525001 l 3.766478342749524,6.523731855250011 l 3.7664783427495307,-6.52373185525001 l -7.53295668549906,4.61260564650606e-16 l 3.7664783427495334,-6.523731855250008 l -7.53295668549906,4.61260564650606e-16 l 3.7664783427495307,-6.52373185525001 l 3.766478342749524,6.523731855250011 l 3.7664783427495307,-6.52373185525001 l 3.7664783427495285,6.523731855250012 l -7.532956685499058,-7.0565022751598924e-15 l 3.7664783427495285,6.523731855250012 l 3.7664783427495307,-6.523731855250009 l 3.766478342749525,6.523731855250014 l 3.7664783427495307,-6.523731855250009 l 3.7664783427495285,6.523731855250012 l -7.532956685499058,-7.0565022751598924e-15 l 3.7664783427495285,6.523731855250012 l -7.532956685499059,-4.7043348501065944e-15 l 3.766478342749537,-6.523731855250004 l -7.532956685499059,-4.7043348501065944e-15 l 3.7664783427495285,6.523731855250012 l -7.53295668549906,-7.526935760170552e-15 l 3.7664783427495285,6.523731855250012 l -7.532956685499059,-4.7043348501065944e-15 l 3.766478342749537,-6.523731855250004 l -7.532956685499059,-4.7043348501065944e-15 l 3.7664783427495285,6.523731855250012 l -7.532956685499058,-7.0565022751598924e-15 l 3.7664783427495285,6.523731855250012 l 3.7664783427495307,-6.523731855250009 l 3.766478342749525,6.523731855250014 l 3.7664783427495307,-6.523731855250009 l 3.7664783427495285,6.523731855250012 l -7.532956685499058,-7.0565022751598924e-15 l 3.7664783427495285,6.523731855250012 l 3.7664783427495307,-6.523731855250011 l 3.766478342749525,6.523731855250012 l 3.7664783427495307,-6.523731855250011 l -7.532956685499059,9.40866970021319e-16 l 3.7664783427495334,-6.523731855250008 l -7.532956685499059,9.40866970021319e-16 l 3.7664783427495307,-6.523731855250011 l 3.766478342749525,6.523731855250012 l 3.7664783427495307,-6.523731855250011 l 3.7664783427495276,6.523731855250012 l -7.532956685499059,-7.526935760170552e-15 l 3.7664783427495276,6.523731855250012 l 3.7664783427495307,-6.523731855250011 l 3.7664783427495245,6.523731855250014 l 3.7664783427495307,-6.523731855250011 l 3.7664783427495276,6.523731855250012 l -7.532956685499059,-7.526935760170552e-15 l 3.7664783427495276,6.523731855250012 l 3.7664783427495307,-6.523731855250011 l 3.766478342749525,6.523731855250012 l 3.7664783427495307,-6.523731855250011 l -7.532956685499059,9.40866970021319e-16 l 3.7664783427495334,-6.523731855250008 l -7.532956685499059,9.40866970021319e-16 l 3.7664783427495307,-6.523731855250011 l 3.766478342749525,6.523731855250012 l 3.7664783427495307,-6.523731855250011 l 3.7664783427495285,6.523731855250012 l -7.532956685499058,-7.0565022751598924e-15 l 3.7664783427495285,6.523731855250012 l 3.7664783427495307,-6.523731855250009 l 3.766478342749525,6.523731855250014 l 3.7664783427495307,-6.523731855250009 l 3.7664783427495285,6.523731855250012 l -7.532956685499058,-7.0565022751598924e-15 l 3.7664783427495285,6.523731855250012 l -7.532956685499059,-4.7043348501065944e-15 l 3.766478342749537,-6.523731855250004 l -7.532956685499059,-4.7043348501065944e-15 l 3.7664783427495285,6.523731855250012 l -7.53295668549906,-7.526935760170552e-15 l 3.7664783427495285,6.523731855250012 l -7.532956685499059,-4.7043348501065944e-15 l 3.766478342749537,-6.523731855250004 l -7.532956685499059,-4.7043348501065944e-15 l 3.7664783427495285,6.523731855250012 l -7.532956685499058,-7.0565022751598924e-15 l 3.7664783427495285,6.523731855250012 l 3.7664783427495307,-6.523731855250009 l 3.766478342749525,6.523731855250014 l 3.7664783427495307,-6.523731855250009 l 3.7664783427495285,6.523731855250012 l -7.532956685499058,-7.0565022751598924e-15 l 3.7664783427495285,6.523731855250012 l 3.7664783427495307,-6.52373185525001 l 3.766478342749524,6.523731855250011 l 3.7664783427495307,-6.52373185525001 l -7.53295668549906,4.61260564650606e-16 l 3.7664783427495334,-6.523731855250008 l -7.53295668549906,4.61260564650606e-16 l 3.7664783427495307,-6.52373185525001 l 3.766478342749524,6.523731855250011 l 3.7664783427495307,-6.52373185525001 l 3.766478342749527,6.523731855250011 l -7.532956685499058,-7.736017309064177e-15 l 3.766478342749527,6.523731855250011 l 3.7664783427495307,-6.52373185525001 l 3.7664783427495245,6.523731855250013 l 3.7664783427495307,-6.52373185525001 l 3.766478342749527,6.523731855250011 l -7.532956685499058,-7.736017309064177e-15 l 3.766478342749527,6.523731855250011 l 3.7664783427495307,-6.52373185525001 l 3.766478342749524,6.523731855250011 l 3.7664783427495307,-6.52373185525001 l -7.53295668549906,4.61260564650606e-16 l 3.7664783427495334,-6.523731855250008 l -7.53295668549906,4.61260564650606e-16 l 3.7664783427495307,-6.52373185525001 l 3.766478342749524,6.523731855250011 l 3.7664783427495307,-6.52373185525001 l -7.532956685499061,1.0905163548814483e-15 l 3.7664783427495316,-6.5237318552500065 l -7.532956685499061,1.0905163548814483e-15 l 3.7664783427495316,6.523731855250008 l -7.53295668549906,-2.711952234012604e-15 l 3.7664783427495316,6.523731855250008 l -7.532956685499061,1.0905163548814483e-15 l 3.7664783427495316,-6.5237318552500065 l -7.532956685499061,1.0905163548814483e-15 l 3.7664783427495307,-6.523731855250009 l 3.766478342749524,6.523731855250012 l 3.7664783427495307,-6.523731855250009 l -7.532956685499061,1.0905163548814483e-15 l 3.766478342749534,-6.523731855250008 l -7.532956685499061,1.0905163548814483e-15 l 3.7664783427495307,-6.523731855250009 l 3.766478342749524,6.523731855250012 l 3.7664783427495307,-6.523731855250009 l -7.532956685499061,1.0905163548814483e-15 l 3.7664783427495316,-6.5237318552500065 l -7.532956685499061,1.0905163548814483e-15 l 3.7664783427495316,6.523731855250008 l -7.53295668549906,-2.711952234012604e-15 l 3.7664783427495316,6.523731855250008 l -7.532956685499061,1.0905163548814483e-15 l 3.7664783427495316,-6.5237318552500065 l -7.532956685499061,1.0905163548814483e-15 l 3.7664783427495307,-6.52373185525001 l 3.766478342749524,6.523731855250011 l 3.7664783427495307,-6.52373185525001 l -7.53295668549906,4.61260564650606e-16 l 3.7664783427495334,-6.523731855250008 l -7.53295668549906,4.61260564650606e-16 l 3.7664783427495307,-6.52373185525001 l 3.766478342749524,6.523731855250011 l 3.7664783427495307,-6.52373185525001 l 3.766478342749527,6.523731855250011 l -7.532956685499058,-7.736017309064177e-15 l 3.766478342749527,6.523731855250011 l 3.7664783427495307,-6.52373185525001 l 3.7664783427495245,6.523731855250013 l 3.7664783427495307,-6.52373185525001 l 3.766478342749527,6.523731855250011 l -7.532956685499058,-7.736017309064177e-15 l 3.766478342749527,6.523731855250011 l 3.7664783427495307,-6.52373185525001 l 3.766478342749524,6.523731855250011 l 3.7664783427495307,-6.52373185525001 l -7.53295668549906,4.61260564650606e-16 l 3.7664783427495334,-6.523731855250008 l -7.53295668549906,4.61260564650606e-16 l 3.7664783427495307,-6.52373185525001 l 3.766478342749524,6.523731855250011 l 3.7664783427495307,-6.52373185525001 "/></g><defs></defs><g stroke-linejoin="miter" stroke-opacity="1.0" fill-opacity="0.0" stroke="rgb(0,0,0)" stroke-width="0.8998140140868813" fill="rgb(0,0,0)" stroke-linecap="butt" stroke-miterlimit="10.0"><path d="M 149.15254237288133,92.61189178199584 l 33.898305084745765,-19.57119556575004 l -33.89830508474578,-19.571195565749996 l 33.898305084745765,-19.57119556575004 v 39.14239113150006 l 33.89830508474575,-19.57119556575005 v 39.14239113150006 l 33.898305084745765,-19.57119556575004 l -33.89830508474578,-19.571195565749996 l 33.898305084745765,-19.57119556575004 "/></g><defs></defs><g stroke-linejoin="miter" stroke-opacity="1.0" fill-opacity="0.0" stroke="rgb(0,0,0)" stroke-width="0.8998140140868813" fill="rgb(0,0,0)" stroke-linecap="butt" stroke-miterlimit="10.0"><path d="M 135.59322033898303,33.89830508474577 l -30.653954467534344,53.09420659067243 "/></g><defs></defs><g stroke-linejoin="miter" stroke-opacity="1.0" fill-opacity="1.0" stroke="rgb(0,0,0)" stroke-width="0.0" fill="rgb(0,0,0)" stroke-linecap="butt" stroke-miterlimit="10.0"></g><defs></defs><g stroke-linejoin="miter" stroke-opacity="1.0" fill-opacity="1.0" stroke="rgb(0,0,0)" stroke-width="0.0" fill="rgb(0,0,0)" stroke-linecap="butt" stroke-miterlimit="10.0"></g><defs></defs><g stroke-linejoin="miter" stroke-opacity="1.0" fill-opacity="1.0" stroke="rgb(0,0,0)" stroke-width="0.0" fill="rgb(0,0,0)" stroke-linecap="butt" stroke-miterlimit="10.0"><path d="M 100.61294866237833,93.58609887710074 l 6.973785319650914,-6.27922450587859 l -3.2736291191839486,-0.12963402927121026 Z"/></g><defs></defs><g stroke-linejoin="miter" stroke-opacity="1.0" fill-opacity="1.0" stroke="rgb(0,0,0)" stroke-width="0.0" fill="rgb(0,0,0)" stroke-linecap="butt" stroke-miterlimit="10.0"><path d="M 104.3131048628453,87.17724034195093 l 0.23653011116313855,-0.40968217005447066 l 0.7792617948804881,0.44990700704344044 Z"/></g><defs></defs><g stroke-linejoin="miter" stroke-opacity="1.0" fill-opacity="0.0" stroke="rgb(0,0,0)" stroke-width="0.8998140140868813" fill="rgb(0,0,0)" stroke-linecap="butt" stroke-miterlimit="10.0"><path d="M 101.69491525423726,92.61189178199584 l -30.653954467534334,-53.094206590672464 "/></g><defs></defs><g stroke-linejoin="miter" stroke-opacity="1.0" fill-opacity="1.0" stroke="rgb(0,0,0)" stroke-width="0.0" fill="rgb(0,0,0)" stroke-linecap="butt" stroke-miterlimit="10.0"></g><defs></defs><g stroke-linejoin="miter" stroke-opacity="1.0" fill-opacity="1.0" stroke="rgb(0,0,0)" stroke-width="0.0" fill="rgb(0,0,0)" stroke-linecap="butt" stroke-miterlimit="10.0"></g><defs></defs><g stroke-linejoin="miter" stroke-opacity="1.0" fill-opacity="1.0" stroke="rgb(0,0,0)" stroke-width="0.0" fill="rgb(0,0,0)" stroke-linecap="butt" stroke-miterlimit="10.0"><path d="M 67.49390537251307,32.474190982597385 l 1.951075278331182,9.179087500295969 l 1.7490809221357804,-2.7702289651461682 Z"/></g><defs></defs><g stroke-linejoin="miter" stroke-opacity="1.0" fill-opacity="1.0" stroke="rgb(0,0,0)" stroke-width="0.0" fill="rgb(0,0,0)" stroke-linecap="butt" stroke-miterlimit="10.0"><path d="M 71.19406157298003,38.88304951774718 l 0.23653011116313835,0.4096821700544708 l -0.7792617948804883,0.4499070070434401 Z"/></g><defs></defs><g stroke-linejoin="miter" stroke-opacity="1.0" fill-opacity="0.0" stroke="rgb(0,0,0)" stroke-width="0.8998140140868813" fill="rgb(0,0,0)" stroke-linecap="butt" stroke-miterlimit="10.0"><path d="M 67.7966101694915,33.89830508474577 l -30.65395446753432,53.09420659067244 "/></g><defs></defs><g stroke-linejoin="miter" stroke-opacity="1.0" fill-opacity="1.0" stroke="rgb(0,0,0)" stroke-width="0.0" fill="rgb(0,0,0)" stroke-linecap="butt" stroke-miterlimit="10.0"></g><defs></defs><g stroke-linejoin="miter" stroke-opacity="1.0" fill-opacity="1.0" stroke="rgb(0,0,0)" stroke-width="0.0" fill="rgb(0,0,0)" stroke-linecap="butt" stroke-miterlimit="10.0"></g><defs></defs><g stroke-linejoin="miter" stroke-opacity="1.0" fill-opacity="1.0" stroke="rgb(0,0,0)" stroke-width="0.0" fill="rgb(0,0,0)" stroke-linecap="butt" stroke-miterlimit="10.0"><path d="M 32.81633849288683,93.58609887710077 l 6.973785319650911,-6.2792245058785925 l -3.2736291191839486,-0.12963402927120882 Z"/></g><defs></defs><g stroke-linejoin="miter" stroke-opacity="1.0" fill-opacity="1.0" stroke="rgb(0,0,0)" stroke-width="0.0" fill="rgb(0,0,0)" stroke-linecap="butt" stroke-miterlimit="10.0"><path d="M 36.51649469335379,87.17724034195096 l 0.23653011116313835,-0.4096821700544708 l 0.7792617948804883,0.4499070070434401 Z"/></g></svg>