<svg xmlns="http://www.w3.org/2000/svg" height="234.6939" stroke-opacity="1" viewBox="0 0 400 235" font-size="1" width="400.0000" xmlns:xlink="http://www.w3.org/1999/xlink" stroke="rgb(0,0,0)" version="1.1"><defs></defs><g stroke-linejoin="miter" stroke-opacity="1.0" fill-opacity="0.0" stroke="rgb(0,0,0)" stroke-width="1.225577747972984" fill="rgb(0,0,0)" stroke-linecap="butt" stroke-miterlimit="10.0"><path d="M 257.1429,142.8571 l -0.0000,-10.2041 l -10.2041,-0.0000 l -0.0000,10.2041 l -10.2041,-0.0000 l -0.0000,10.2041 l 10.2041,0.0000 l -0.0000,10.2041 l -10.2041,-0.0000 l -0.0000,10.2041 l 10.2041,0.0000 l 0.0000,-10.2041 l 10.2041,0.0000 l -0.0000,10.2041 l 10.2041,0.0000 l -0.0000,10.2041 l -10.2041,-0.0000 v 10.2041 l 10.2041,0.0000 l 0.0000,-10.2041 l 10.2041,0.0000 l 0.0000,-10.2041 l -10.2041,-0.0000 l 0.0000,-10.2041 l 10.2041,0.0000 l -0.0000,10.2041 l 10.2041,0.0000 l 0.0000,-10.2041 l 10.2041,0.0000 l -0.0000,10.2041 l 10.2041,0.0000 v 10.2041 l -10.2041,0.0000 l 0.0000,10.2041 l 10.2041,0.0000 l 0.0000,-10.2041 l 10.2041,0.0000 l 0.0000,-10.2041 l -10.2041,-0.0000 l 0.0000,-10.2041 l 10.2041,0.0000 l 0.0000,-10.2041 l -10.2041,-0.0000 l -0.0000,10.2041 l -10.2041,-0.0000 l 0.0000,-10.2041 l -10.2041,-0.0000 l 0.0000,-10.2041 l 10.2041,0.0000 l -0.0000,10.2041 l 10.2041,0.0000 l 0.0000,-10.2041 l 10.2041,0.0000 l 0.0000,-10.2041 l -10.2041,-0.0000 l 0.0000,-10.2041 l 10.2041,0.0000 l -0.0000,10.2041 l 10.2041,0.0000 l 0.0000,-10.2041 l 10.2041,0.0000 l -0.0000,10.2041 l 10.2041,0.0000 l -0.0000,10.2041 l -10.2041,0.0000 l -0.0000,10.2041 l 10.2041,0.0000 l 0.0000,-10.2041 l 10.2041,0.0000 l 0.0000,-10.2041 l -10.2041,-0.0000 l 0.0000,-10.2041 l 10.2041,0.0000 l 0.0000,-10.2041 l -10.2041,-0.0000 l -0.0000,10.2041 l -10.2041,-0.0000 l 0.0000,-10.2041 l -10.2041,-0.0000 l 0.0000,-10.2041 l 10.2041,0.0000 l 0.0000,-10.2041 l -10.2041,-0.0000 l -0.0000,10.2041 l -10.2041,-0.0000 l -0.0000,10.2041 l 10.2041,0.0000 l -0.0000,10.2041 l -10.2041,-0.0000 l 0.0000,-10.2041 l -10.2041,-0.0000 l -0.0000,10.2041 l -10.2041,-0.0000 l 0.0000,-10.2041 l -10.2041,-0.0000 l 0.0000,-10.2041 h 10.2041 l 0.0000,10.2041 l 10.2041,0.0000 l 0.0000,-10.2041 l 10.2041,0.0000 l 0.0000,-10.2041 l -10.2041,-0.0000 l 0.0000,-10.2041 l 10.2041,0.0000 l 0.0000,-10.2041 l -10.2041,-0.0000 l -0.0000,10.2041 l -10.2041,-0.0000 l 0.0000,-10.2041 l -10.2041,-0.0000 l 0.0000,-10.2041 l 10.2041,0.0000 l -0.0000,10.2041 l 10.2041,0.0000 l 0.0000,-10.2041 l 10.2041,0.0000 l 0.0000,-10.2041 l -10.2041,-0.0000 l 0.0000,-10.2041 l 10.2041,0.0000 l -0.0000,10.2041 l 10.2041,0.0000 l 0.0000,-10.2041 l 10.2041,0.0000 l -0.0000,10.2041 l 10.2041,0.0000 l -0.0000,10.2041 l -10.2041,-0.0000 "/></g><g stroke-linejoin="miter" stroke-opacity="1.0" fill-opacity="0.0" stroke="rgb(0,0,0)" stroke-width="1.225577747972984" fill="rgb(0,0,0)" stroke-linecap="butt" stroke-miterlimit="10.0"><path d="M 138.7755,142.8571 l 40.8163,40.8163 l 40.8163,-40.8163 l -40.8163,-40.8163 l 40.8163,-40.8163 "/></g><g stroke-linejoin="miter" stroke-opacity="1.0" fill-opacity="0.0" stroke="rgb(0,0,0)" stroke-width="1.225577747972984" fill="rgb(0,0,0)" stroke-linecap="butt" stroke-miterlimit="10.0"><path d="M 122.4490,61.2245 l 0.0000,72.7948 "/></g><g stroke-linejoin="miter" stroke-opacity="1.0" fill-opacity="1.0" stroke="rgb(0,0,0)" stroke-width="0.0" fill="rgb(0,0,0)" stroke-linecap="butt" stroke-miterlimit="10.0"></g><g stroke-linejoin="miter" stroke-opacity="1.0" fill-opacity="1.0" stroke="rgb(0,0,0)" stroke-width="0.0" fill="rgb(0,0,0)" stroke-linecap="butt" stroke-miterlimit="10.0"></g><g stroke-linejoin="miter" stroke-opacity="1.0" fill-opacity="1.0" stroke="rgb(0,0,0)" stroke-width="0.0" fill="rgb(0,0,0)" stroke-linecap="butt" stroke-miterlimit="10.0"><path d="M 121.8362,144.7431 l 3.9497,-12.1560 l -3.9497,2.0765 Z"/></g><g stroke-linejoin="miter" stroke-opacity="1.0" fill-opacity="1.0" stroke="rgb(0,0,0)" stroke-width="0.0" fill="rgb(0,0,0)" stroke-linecap="butt" stroke-miterlimit="10.0"><path d="M 121.8362,134.6636 l -0.0000,-0.6443 l 1.2256,-0.0000 Z"/></g><g stroke-linejoin="miter" stroke-opacity="1.0" fill-opacity="0.0" stroke="rgb(0,0,0)" stroke-width="1.225577747972984" fill="rgb(0,0,0)" stroke-linecap="butt" stroke-miterlimit="10.0"><path d="M 40.8163,142.8571 h 72.7948 "/></g><g stroke-linejoin="miter" stroke-opacity="1.0" fill-opacity="1.0" stroke="rgb(0,0,0)" stroke-width="0.0" fill="rgb(0,0,0)" stroke-linecap="butt" stroke-miterlimit="10.0"></g><g stroke-linejoin="miter" stroke-opacity="1.0" fill-opacity="1.0" stroke="rgb(0,0,0)" stroke-width="0.0" fill="rgb(0,0,0)" stroke-linecap="butt" stroke-miterlimit="10.0"></g><g stroke-linejoin="miter" stroke-opacity="1.0" fill-opacity="1.0" stroke="rgb(0,0,0)" stroke-width="0.0" fill="rgb(0,0,0)" stroke-linecap="butt" stroke-miterlimit="10.0"><path d="M 124.3349,143.4699 l -12.1560,-3.9497 l 2.0765,3.9497 Z"/></g><g stroke-linejoin="miter" stroke-opacity="1.0" fill-opacity="1.0" stroke="rgb(0,0,0)" stroke-width="0.0" fill="rgb(0,0,0)" stroke-linecap="butt" stroke-miterlimit="10.0"><path d="M 114.2555,143.4699 h -0.6443 v -1.2256 Z"/></g></svg>