<?xml version="1.0" encoding="UTF-8"?>
<!DOCTYPE svg PUBLIC "-//W3C//DTD SVG 1.1//EN"
    "http://www.w3.org/Graphics/SVG/1.1/DTD/svg11.dtd">
<svg xmlns="http://www.w3.org/2000/svg" xmlns:xlink="http://www.w3.org/1999/xlink" version="1.1" width="500.0" height="50.0" font-size="1" viewBox="0 0 500 50"><g><g transform="matrix(50.0,0.0,0.0,50.0,25.0,25.0)"><g stroke="rgb(0,0,0)" stroke-opacity="1.0" fill="rgb(177,98,98)" fill-opacity="1.0" stroke-width="0.0" font-size="1.0em"><path d="M 9.5,0.5 l -1.1102230246251565e-16,-1.0 h -1.0 l -1.1102230246251565e-16,1.0 h 1.0 Z" /></g></g><g transform="matrix(50.0,0.0,0.0,50.0,25.0,25.0)"><g stroke="rgb(0,0,0)" stroke-opacity="1.0" fill="rgb(0,0,0)" fill-opacity="1.0" stroke-width="1.0e-2" font-size="1.0em"><text transform="matrix(1.0,0.0,0.0,1.0,9.0,0.0)" dominant-baseline="middle" text-anchor="middle" stroke="none">9</text></g></g><g transform="matrix(50.0,0.0,0.0,50.0,25.0,25.0)"><g stroke="rgb(0,0,0)" stroke-opacity="1.0" fill="rgb(255,255,255)" fill-opacity="1.0" stroke-width="0.0" font-size="1.0em"><path d="M 8.5,0.5 l -1.1102230246251565e-16,-1.0 h -1.0 l -1.1102230246251565e-16,1.0 h 1.0 Z" /></g></g><g transform="matrix(50.0,0.0,0.0,50.0,25.0,25.0)"><g stroke="rgb(0,0,0)" stroke-opacity="1.0" fill="rgb(0,0,0)" fill-opacity="1.0" stroke-width="1.0e-2" font-size="1.0em"><text transform="matrix(1.0,0.0,0.0,1.0,8.0,0.0)" dominant-baseline="middle" text-anchor="middle" stroke="none">8</text></g></g><g transform="matrix(50.0,0.0,0.0,50.0,25.0,25.0)"><g stroke="rgb(0,0,0)" stroke-opacity="1.0" fill="rgb(148,89,148)" fill-opacity="1.0" stroke-width="0.0" font-size="1.0em"><path d="M 7.5,0.5 l -1.1102230246251565e-16,-1.0 h -1.0 l -1.1102230246251565e-16,1.0 h 1.0 Z" /></g></g><g transform="matrix(50.0,0.0,0.0,50.0,25.0,25.0)"><g stroke="rgb(0,0,0)" stroke-opacity="1.0" fill="rgb(0,0,0)" fill-opacity="1.0" stroke-width="1.0e-2" font-size="1.0em"><text transform="matrix(1.0,0.0,0.0,1.0,7.0,0.0)" dominant-baseline="middle" text-anchor="middle" stroke="none">7</text></g></g><g transform="matrix(50.0,0.0,0.0,50.0,25.0,25.0)"><g stroke="rgb(0,0,0)" stroke-opacity="1.0" fill="rgb(148,148,148)" fill-opacity="1.0" stroke-width="0.0" font-size="1.0em"><path d="M 6.5,0.5 l -1.1102230246251565e-16,-1.0 h -1.0 l -1.1102230246251565e-16,1.0 h 1.0 Z" /></g></g><g transform="matrix(50.0,0.0,0.0,50.0,25.0,25.0)"><g stroke="rgb(0,0,0)" stroke-opacity="1.0" fill="rgb(0,0,0)" fill-opacity="1.0" stroke-width="1.0e-2" font-size="1.0em"><text transform="matrix(1.0,0.0,0.0,1.0,6.0,0.0)" dominant-baseline="middle" text-anchor="middle" stroke="none">6</text></g></g><g transform="matrix(50.0,0.0,0.0,50.0,25.0,25.0)"><g stroke="rgb(0,0,0)" stroke-opacity="1.0" fill="rgb(89,89,255)" fill-opacity="1.0" stroke-width="0.0" font-size="1.0em"><path d="M 5.5,0.5 l -1.1102230246251565e-16,-1.0 h -1.0 l -1.1102230246251565e-16,1.0 h 1.0 Z" /></g></g><g transform="matrix(50.0,0.0,0.0,50.0,25.0,25.0)"><g stroke="rgb(0,0,0)" stroke-opacity="1.0" fill="rgb(0,0,0)" fill-opacity="1.0" stroke-width="1.0e-2" font-size="1.0em"><text transform="matrix(1.0,0.0,0.0,1.0,5.0,0.0)" dominant-baseline="middle" text-anchor="middle" stroke="none">5</text></g></g><g transform="matrix(50.0,0.0,0.0,50.0,25.0,25.0)"><g stroke="rgb(0,0,0)" stroke-opacity="1.0" fill="rgb(89,148,89)" fill-opacity="1.0" stroke-width="0.0" font-size="1.0em"><path d="M 4.5,0.5 l -1.1102230246251565e-16,-1.0 h -1.0 l -1.1102230246251565e-16,1.0 h 1.0 Z" /></g></g><g transform="matrix(50.0,0.0,0.0,50.0,25.0,25.0)"><g stroke="rgb(0,0,0)" stroke-opacity="1.0" fill="rgb(0,0,0)" fill-opacity="1.0" stroke-width="1.0e-2" font-size="1.0em"><text transform="matrix(1.0,0.0,0.0,1.0,4.0,0.0)" dominant-baseline="middle" text-anchor="middle" stroke="none">4</text></g></g><g transform="matrix(50.0,0.0,0.0,50.0,25.0,25.0)"><g stroke="rgb(0,0,0)" stroke-opacity="1.0" fill="rgb(255,255,89)" fill-opacity="1.0" stroke-width="0.0" font-size="1.0em"><path d="M 3.5,0.5 l -1.1102230246251565e-16,-1.0 h -1.0 l -1.1102230246251565e-16,1.0 h 1.0 Z" /></g></g><g transform="matrix(50.0,0.0,0.0,50.0,25.0,25.0)"><g stroke="rgb(0,0,0)" stroke-opacity="1.0" fill="rgb(0,0,0)" fill-opacity="1.0" stroke-width="1.0e-2" font-size="1.0em"><text transform="matrix(1.0,0.0,0.0,1.0,3.0,0.0)" dominant-baseline="middle" text-anchor="middle" stroke="none">3</text></g></g><g transform="matrix(50.0,0.0,0.0,50.0,25.0,25.0)"><g stroke="rgb(0,0,0)" stroke-opacity="1.0" fill="rgb(255,177,89)" fill-opacity="1.0" stroke-width="0.0" font-size="1.0em"><path d="M 2.5,0.5 l -1.1102230246251565e-16,-1.0 h -1.0 l -1.1102230246251565e-16,1.0 h 1.0 Z" /></g></g><g transform="matrix(50.0,0.0,0.0,50.0,25.0,25.0)"><g stroke="rgb(0,0,0)" stroke-opacity="1.0" fill="rgb(0,0,0)" fill-opacity="1.0" stroke-width="1.0e-2" font-size="1.0em"><text transform="matrix(1.0,0.0,0.0,1.0,2.0,0.0)" dominant-baseline="middle" text-anchor="middle" stroke="none">2</text></g></g><g transform="matrix(50.0,0.0,0.0,50.0,25.0,25.0)"><g stroke="rgb(0,0,0)" stroke-opacity="1.0" fill="rgb(255,89,89)" fill-opacity="1.0" stroke-width="0.0" font-size="1.0em"><path d="M 1.5,0.5 l -1.1102230246251565e-16,-1.0 h -1.0 l -1.1102230246251565e-16,1.0 h 1.0 Z" /></g></g><g transform="matrix(50.0,0.0,0.0,50.0,25.0,25.0)"><g stroke="rgb(0,0,0)" stroke-opacity="1.0" fill="rgb(0,0,0)" fill-opacity="1.0" stroke-width="1.0e-2" font-size="1.0em"><text transform="matrix(1.0,0.0,0.0,1.0,1.0,0.0)" dominant-baseline="middle" text-anchor="middle" stroke="none">1</text></g></g><g transform="matrix(50.0,0.0,0.0,50.0,25.0,25.0)"><g stroke="rgb(0,0,0)" stroke-opacity="1.0" fill="rgb(89,89,89)" fill-opacity="1.0" stroke-width="0.0" font-size="1.0em"><path d="M 0.5000000000000001,0.5 l -1.1102230246251565e-16,-1.0 h -1.0 l -1.1102230246251565e-16,1.0 h 1.0 Z" /></g></g><g transform="matrix(50.0,0.0,0.0,50.0,25.0,25.0)"><g stroke="rgb(0,0,0)" stroke-opacity="1.0" fill="rgb(0,0,0)" fill-opacity="1.0" stroke-width="1.0e-2" font-size="1.0em"><text transform="matrix(1.0,0.0,0.0,1.0,0.0,0.0)" dominant-baseline="middle" text-anchor="middle" stroke="none">0</text></g></g></g></svg>