<?xml version="1.0" encoding="UTF-8"?>
<!DOCTYPE svg PUBLIC "-//W3C//DTD SVG 1.1//EN"
    "http://www.w3.org/Graphics/SVG/1.1/DTD/svg11.dtd">
<svg xmlns="http://www.w3.org/2000/svg" xmlns:xlink="http://www.w3.org/1999/xlink" version="1.1" width="400.0" height="413.5969112431447" font-size="1" viewBox="0 0 400 414" stroke="rgb(0,0,0)" stroke-opacity="1"><g><g fill="rgb(0,0,0)" fill-opacity="0.0"><g stroke="rgb(0,0,0)" stroke-opacity="1.0" stroke-width="1.6269665737058425" stroke-linecap="butt" stroke-linejoin="miter" font-size="1.0em" stroke-miterlimit="10.0"><g fill="rgb(75,0,130)" fill-opacity="1.0"><g fill="rgb(75,0,130)" fill-opacity="1.0"><g fill="rgb(75,0,130)" fill-opacity="1.0"><path d="M 211.6241767286894,218.5773361244366 c 0.0,-37.34388836604299 -30.273202957742864,-67.61709132378586 -67.61709132378584 -67.61709132378586c -37.34388836604299,-2.2866536677595312e-15 -67.61709132378586,30.27320295774286 -67.61709132378586 67.61709132378583c -4.5733073355190624e-15,37.34388836604299 30.273202957742857,67.61709132378586 67.61709132378583 67.61709132378586c 37.34388836604299,6.859961003278594e-15 67.61709132378586,-30.273202957742853 67.61709132378586 -67.61709132378583Z" /></g></g></g><g fill="rgb(178,34,34)" fill-opacity="1.0"><g fill="rgb(178,34,34)" fill-opacity="1.0"><g fill="rgb(178,34,34)" fill-opacity="1.0"><path d="M 338.4415950576274,218.5773361244366 c 0.0,-35.0098953431653 -28.381127772883932,-63.39102311604924 -63.391023116049226 -63.39102311604924c -35.0098953431653,-2.1437378135245603e-15 -63.39102311604924,28.38112777288393 -63.39102311604924 63.39102311604922c -4.287475627049121e-15,35.0098953431653 28.381127772883925,63.39102311604924 63.39102311604921 63.39102311604924c 35.0098953431653,6.431213440573682e-15 63.39102311604924,-28.38112777288392 63.391023116049254 -63.39102311604922Z" /></g></g></g><g fill="rgb(255,228,196)" fill-opacity="1.0"><g fill="rgb(255,228,196)" fill-opacity="1.0"><g fill="rgb(255,228,196)" fill-opacity="1.0"><path d="M 272.71645044194054,112.53044457902686 c 0.0,-32.67590232028761 -26.489052588025004,-59.16495490831262 -59.16495490831261 -59.16495490831262c -32.67590232028761,-2.00082195928959e-15 -59.16495490831262,26.489052588025 -59.16495490831262 59.1649549083126c -4.00164391857918e-15,32.67590232028761 26.489052588024997,59.16495490831262 59.164954908312595 59.16495490831262c 32.67590232028761,6.002465877868769e-15 59.16495490831262,-26.489052588024993 59.16495490831264 -59.1649549083126Z" /></g></g></g><g fill="rgb(0,255,255)" fill-opacity="1.0"><g fill="rgb(0,255,255)" fill-opacity="1.0"><g fill="rgb(0,255,255)" fill-opacity="1.0"><path d="M 268.3540206457162,319.6248615929555 c 0.0,-30.341909297409924 -24.596977403166076,-54.938886700576006 -54.93888670057599 -54.938886700576006c -30.341909297409924,-1.857906105054619e-15 -54.938886700576006,24.596977403166072 -54.938886700576006 54.938886700575985c -3.715812210109238e-15,30.341909297409924 24.59697740316607,54.938886700576006 54.938886700575985 54.938886700576006c 30.341909297409924,5.573718315163857e-15 54.938886700576006,-24.596977403166065 54.93888670057601 -54.938886700575985Z" /></g></g></g><g fill="rgb(255,0,255)" fill-opacity="1.0"><g fill="rgb(255,0,255)" fill-opacity="1.0"><g fill="rgb(255,0,255)" fill-opacity="1.0"><path d="M 154.483094549256,107.26458396289303 c 0.0,-28.007916274532235 -22.704902218307144,-50.71281849283938 -50.71281849283937 -50.71281849283938c -28.007916274532235,-1.714990250819648e-15 -50.71281849283938,22.70490221830714 -50.71281849283938 50.71281849283937c -3.429980501639296e-15,28.007916274532235 22.704902218307137,50.71281849283938 50.71281849283936 50.71281849283938c 28.007916274532235,5.1449707524589444e-15 50.71281849283938,-22.704902218307133 50.71281849283939 -50.71281849283937Z" /></g></g></g><g fill="rgb(255,228,196)" fill-opacity="1.0"><g fill="rgb(255,228,196)" fill-opacity="1.0"><g fill="rgb(255,228,196)" fill-opacity="1.0"><path d="M 359.228048487296,145.14526266505092 l 9.14148826904802,-28.134607950929823 l -9.141488269048038,-28.13460795092982 l -23.932726996126185,-17.388143973827656 l -29.582477454156308,4.691878227865559e-15 l -23.93272699612618,17.388143973827667 l -9.141488269048024,28.134607950929823 l 9.14148826904803,28.13460795092982 l 23.93272699612618,17.38814397382766 l 29.582477454156308,-2.3459391139327794e-15 Z" /></g></g></g><g fill="rgb(255,255,0)" fill-opacity="1.0"><g fill="rgb(255,255,0)" fill-opacity="1.0"><g fill="rgb(255,255,0)" fill-opacity="1.0"><path d="M 158.81423321584856,328.2273293675836 c 0.0,-25.673923251654546 -20.81282703344821,-46.486750285102765 -46.48675028510276 -46.486750285102765c -25.673923251654546,-1.5720743965846773e-15 -46.486750285102765,20.81282703344821 -46.486750285102765 46.48675028510275c -3.1441487931693546e-15,25.673923251654546 20.812827033448208,46.486750285102765 46.486750285102744 46.486750285102765c 25.673923251654546,4.716223189754032e-15 46.486750285102765,-20.812827033448205 46.48675028510277 -46.48675028510275Z" /></g></g></g><g fill="rgb(0,0,255)" fill-opacity="1.0"><g fill="rgb(0,0,255)" fill-opacity="1.0"><g fill="rgb(0,0,255)" fill-opacity="1.0"><path d="M 84.52136415473231,177.01635865948435 c 0.0,-23.33993022877686 -18.920751848589283,-42.26068207736615 -42.26068207736614 -42.26068207736615c -23.33993022877686,-1.4291585423497066e-15 -42.26068207736615,18.92075184858928 -42.26068207736615 42.260682077366134c -2.8583170846994132e-15,23.33993022877686 18.92075184858928,42.26068207736615 42.26068207736613 42.26068207736615c 23.33993022877686,4.28747562704912e-15 42.26068207736615,-18.920751848589276 42.260682077366155 -42.260682077366134Z" /></g></g></g><g fill="rgb(0,255,255)" fill-opacity="1.0"><g fill="rgb(0,255,255)" fill-opacity="1.0"><g fill="rgb(0,255,255)" fill-opacity="1.0"><path d="M 80.9912223232024,293.2068133798514 l 7.835561373469738,-24.11537824365413 l -7.83556137346974,-24.115378243654135 l -20.513765996679584,-14.904123406137996 l -25.35640924641969,-2.3459391139327794e-15 l -20.513765996679584,14.904123406137996 l -7.835561373469742,24.11537824365413 l 7.835561373469737,24.115378243654135 l 20.51376599667958,14.904123406138 l 25.35640924641969,5.8648477848319484e-15 Z" /></g></g></g><g fill="rgb(255,0,0)" fill-opacity="1.0"><g fill="rgb(255,0,0)" fill-opacity="1.0"><g fill="rgb(255,0,0)" fill-opacity="1.0"><path d="M 344.33804290943795,315.0966324470845 c 0.0,-21.005937205899173 -17.028676663730355,-38.03461386962953 -38.034613869629524 -38.03461386962953c -21.005937205899173,-1.286242688114736e-15 -38.03461386962953,17.02867666373035 -38.03461386962953 38.03461386962952c -2.572485376229472e-15,21.005937205899173 17.02867666373035,38.03461386962953 38.03461386962952 38.03461386962953c 21.005937205899173,3.858728064344208e-15 38.03461386962953,-17.028676663730348 38.03461386962953 -38.03461386962952Z" /></g></g></g><g fill="rgb(255,0,255)" fill-opacity="1.0"><g fill="rgb(255,0,255)" fill-opacity="1.0"><g fill="rgb(255,0,255)" fill-opacity="1.0"><path d="M 182.82451551179417,59.76356373525364 l 6.529634477891444,-20.096148536378447 l -6.529634477891453,-20.096148536378447 l -17.09480499723299,-12.42010283844833 l -21.130341038683078,3.5189086708991694e-15 l -17.094804997232988,12.420102838448335 l -6.529634477891446,20.096148536378447 l 6.5296344778914515,20.096148536378447 l 17.09480499723299,12.42010283844833 l 21.130341038683078,-1.1729695569663897e-15 Z" /></g></g></g><g fill="rgb(75,0,130)" fill-opacity="1.0"><g fill="rgb(75,0,130)" fill-opacity="1.0"><g fill="rgb(75,0,130)" fill-opacity="1.0"><path d="M 400.0,184.7217872424058 c 0.0,-18.671944183021488 -15.136601478871428,-33.80854566189292 -33.808545661892914 -33.80854566189292c -18.671944183021488,-1.1433268338797654e-15 -33.80854566189292,15.136601478871427 -33.80854566189292 33.80854566189291c -2.286653667759531e-15,18.671944183021488 15.136601478871425,33.80854566189292 33.80854566189291 33.80854566189292c 18.671944183021488,3.429980501639296e-15 33.80854566189292,-15.136601478871423 33.808545661892936 -33.80854566189291Z" /></g></g></g><g fill="rgb(178,34,34)" fill-opacity="1.0"><g fill="rgb(178,34,34)" fill-opacity="1.0"><g fill="rgb(178,34,34)" fill-opacity="1.0"><path d="M 308.0345474733901,51.96415161940763 c 0.0,-16.337951160143803 -13.2445262940125,-29.582477454156308 -29.5824774541563 -29.582477454156308c -16.337951160143803,-1.0004109796447947e-15 -29.582477454156308,13.244526294012498 -29.582477454156308 29.582477454156297c -2.0008219592895894e-15,16.337951160143803 13.244526294012497,29.582477454156308 29.582477454156294 29.582477454156308c 16.337951160143803,3.001232938934384e-15 29.582477454156308,-13.244526294012495 29.582477454156315 -29.582477454156297Z" /></g></g></g><g fill="rgb(178,34,34)" fill-opacity="1.0"><g fill="rgb(178,34,34)" fill-opacity="1.0"><g fill="rgb(178,34,34)" fill-opacity="1.0"><path d="M 369.00481937701824,292.98660159875965 l 14.791238727078161,-25.619176982179763 l -14.791238727078142,-25.61917698217977 l -29.582477454156308,-1.4075634683596677e-14 l -14.791238727078163,25.619176982179763 l 14.791238727078133,25.619176982179777 Z" /></g></g></g><g fill="rgb(255,255,0)" fill-opacity="1.0"><g fill="rgb(255,255,0)" fill-opacity="1.0"><g fill="rgb(255,255,0)" fill-opacity="1.0"><path d="M 237.29992273445404,42.08991992896419 l 5.22370758231316,-16.076918829102755 l -5.2237075823131605,-16.076918829102755 l -13.67584399778639,-9.936082270758664 l -16.904272830946464,-1.1729695569663897e-15 l -13.67584399778639,9.936082270758664 l -5.223707582313161,16.076918829102755 l 5.223707582313158,16.076918829102755 l 13.675843997786389,9.936082270758666 l 16.904272830946464,2.9324238924159742e-15 Z" /></g></g></g><g fill="rgb(255,228,196)" fill-opacity="1.0"><g fill="rgb(255,228,196)" fill-opacity="1.0"><g fill="rgb(255,228,196)" fill-opacity="1.0"><path d="M 186.70193842684748,380.77690842926495 c 0.0,-14.003958137266117 -11.352451109153572,-25.35640924641969 -25.356409246419684 -25.35640924641969c -14.003958137266117,-8.57495125409824e-16 -25.35640924641969,11.35245110915357 -25.35640924641969 25.356409246419684c -1.714990250819648e-15,14.003958137266117 11.352451109153568,25.35640924641969 25.35640924641968 25.35640924641969c 14.003958137266117,2.5724853762294722e-15 25.35640924641969,-11.352451109153566 25.356409246419695 -25.356409246419684Z" /></g></g></g><g fill="rgb(255,228,196)" fill-opacity="1.0"><g fill="rgb(255,228,196)" fill-opacity="1.0"><g fill="rgb(255,228,196)" fill-opacity="1.0"><path d="M 288.2096108720761,392.48882784485977 l 12.67820462320985,-21.95929455615408 l -12.678204623209837,-21.95929455615409 l -25.356409246419688,-9.383756455731118e-15 l -12.678204623209853,21.95929455615408 l 12.678204623209828,21.959294556154095 Z" /></g></g></g><g fill="rgb(0,255,255)" fill-opacity="1.0"><g fill="rgb(0,255,255)" fill-opacity="1.0"><g fill="rgb(0,255,255)" fill-opacity="1.0"><path d="M 53.393320008628656,114.40136062207404 c 0.0,-11.669965114388432 -9.460375924294643,-21.130341038683078 -21.130341038683074 -21.130341038683078c -11.669965114388432,-7.145792711748534e-16 -21.130341038683078,9.460375924294642 -21.130341038683078 21.13034103868307c -1.4291585423497068e-15,11.669965114388432 9.460375924294642,21.130341038683078 21.130341038683067 21.130341038683078c 11.669965114388432,2.1437378135245603e-15 21.130341038683078,-9.46037592429464 21.13034103868309 -21.13034103868307Z" /></g></g></g><g fill="rgb(0,255,255)" fill-opacity="1.0"><g fill="rgb(0,255,255)" fill-opacity="1.0"><g fill="rgb(0,255,255)" fill-opacity="1.0"><path d="M 216.07864012557442,413.5969112431447 l 10.565170519341535,-18.29941213012841 l -10.565170519341542,-18.299412130128406 l -21.130341038683078,-1.1729695569663897e-15 l -10.565170519341537,18.299412130128406 l 10.565170519341534,18.299412130128413 Z" /></g></g></g><g fill="rgb(0,0,255)" fill-opacity="1.0"><g fill="rgb(0,0,255)" fill-opacity="1.0"><g fill="rgb(0,0,255)" fill-opacity="1.0"><path d="M 117.17386558952256,48.15356040841861 l 3.917780686734869,-12.057689121827066 l -3.91778068673487,-12.057689121827067 l -10.256882998339792,-7.452061703068998 l -12.678204623209846,-1.1729695569663897e-15 l -10.256882998339792,7.452061703068998 l -3.917780686734871,12.057689121827066 l 3.9177806867348686,12.057689121827067 l 10.25688299833979,7.452061703069 l 12.678204623209846,2.9324238924159742e-15 Z" /></g></g></g><g fill="rgb(255,0,255)" fill-opacity="1.0"><g fill="rgb(255,0,255)" fill-opacity="1.0"><g fill="rgb(255,0,255)" fill-opacity="1.0"><path d="M 65.83517425556096,327.01675099941417 c 0.0,-9.335972091510747 -7.568300739435716,-16.904272830946464 -16.90427283094646 -16.904272830946464c -9.335972091510747,-5.716634169398828e-16 -16.904272830946464,7.568300739435715 -16.904272830946464 16.904272830946457c -1.1433268338797656e-15,9.335972091510747 7.568300739435714,16.904272830946464 16.904272830946457 16.904272830946464c 9.335972091510747,1.7149902508196484e-15 16.904272830946464,-7.568300739435713 16.904272830946464 -16.904272830946457Z" /></g></g></g><g fill="rgb(255,0,255)" fill-opacity="1.0"><g fill="rgb(255,0,255)" fill-opacity="1.0"><g fill="rgb(255,0,255)" fill-opacity="1.0"><path d="M 51.31476049282378,92.50716074980373 l 8.452136415473229,-14.639529704102728 l -8.45213641547323,-14.639529704102726 l -16.90427283094646,-1.1729695569663897e-15 l -8.452136415473232,14.639529704102728 l 8.452136415473225,14.639529704102728 Z" /></g></g></g><g fill="rgb(255,0,0)" fill-opacity="1.0"><g fill="rgb(255,0,0)" fill-opacity="1.0"><g fill="rgb(255,0,0)" fill-opacity="1.0"><path d="M 249.7565550527481,391.46824686443614 l 2.611853791156577,-8.038459414551378 l -2.611853791156581,-8.038459414551378 l -6.837921998893195,-4.96804113537933 l -8.452136415473232,1.4662119462079871e-15 l -6.8379219988931945,4.968041135379333 l -2.611853791156578,8.038459414551378 l 2.6118537911565807,8.038459414551378 l 6.837921998893195,4.96804113537933 l 8.45213641547323,-5.864847784831949e-16 Z" /></g></g></g><g fill="rgb(255,255,0)" fill-opacity="1.0"><g fill="rgb(255,255,0)" fill-opacity="1.0"><g fill="rgb(255,255,0)" fill-opacity="1.0"><path d="M 84.41998034476472,52.540117652578175 c 0.0,-7.001979068633059 -5.676225554576786,-12.678204623209846 -12.678204623209842 -12.678204623209846c -7.001979068633059,-4.28747562704912e-16 -12.678204623209846,5.676225554576785 -12.678204623209846 12.678204623209842c -8.57495125409824e-16,7.001979068633059 5.676225554576784,12.678204623209846 12.67820462320984 12.678204623209846c 7.001979068633059,1.2862426881147361e-15 12.678204623209846,-5.676225554576783 12.678204623209847 -12.678204623209842Z" /></g></g></g><g fill="rgb(255,255,0)" fill-opacity="1.0"><g fill="rgb(255,255,0)" fill-opacity="1.0"><g fill="rgb(255,255,0)" fill-opacity="1.0"><path d="M 326.8193147562154,67.44664808236644 l 6.339102311604925,-10.97964727807704 l -6.339102311604918,-10.979647278077046 l -12.678204623209844,-4.691878227865559e-15 l -6.339102311604926,10.97964727807704 l 6.339102311604914,10.979647278077048 Z" /></g></g></g><g fill="rgb(0,0,255)" fill-opacity="1.0"><g fill="rgb(0,0,255)" fill-opacity="1.0"><g fill="rgb(0,0,255)" fill-opacity="1.0"><path d="M 220.36729288724877,184.2531983908931 c 0.0,-4.667986045755372 -3.784150369717857,-8.45213641547323 -8.452136415473229 -8.45213641547323c -4.667986045755372,-2.8583170846994135e-16 -8.45213641547323,3.7841503697178567 -8.45213641547323 8.452136415473227c -5.716634169398827e-16,4.667986045755372 3.7841503697178562,8.45213641547323 8.452136415473227 8.45213641547323c 4.667986045755372,8.57495125409824e-16 8.45213641547323,-3.784150369717856 8.452136415473234 -8.452136415473227Z" /></g></g></g><g fill="rgb(0,0,255)" fill-opacity="1.0"><g fill="rgb(0,0,255)" fill-opacity="1.0"><g fill="rgb(0,0,255)" fill-opacity="1.0"><path d="M 216.1411510643262,260.2163251813225 l 4.226068207736614,-7.319764852051363 l -4.226068207736616,-7.319764852051362 l -8.452136415473229,-5.864847784831949e-16 l -4.226068207736615,7.319764852051363 l 4.2260682077366125,7.319764852051363 Z" /></g></g></g><g fill="rgb(75,0,130)" fill-opacity="1.0"><g fill="rgb(75,0,130)" fill-opacity="1.0"><g fill="rgb(75,0,130)" fill-opacity="1.0"><path d="M 161.65570510554414,149.11557960877158 l 1.3059268955782886,-4.019229707275689 l -1.3059268955782906,-4.019229707275689 l -3.4189609994465977,-2.484020567689665 l -4.226068207736616,7.331059731039936e-16 l -3.4189609994465973,2.4840205676896665 l -1.305926895578289,4.019229707275689 l 1.3059268955782903,4.019229707275689 l 3.4189609994465977,2.484020567689665 l 4.226068207736615,-2.9324238924159743e-16 Z" /></g></g></g><g fill="rgb(255,0,0)" fill-opacity="1.0"><g fill="rgb(255,0,0)" fill-opacity="1.0"><g fill="rgb(255,0,0)" fill-opacity="1.0"><path d="M 206.30578293337908,176.2477147999797 c 0.0,-2.333993022877686 -1.8920751848589286,-4.226068207736615 -4.226068207736614 -4.226068207736615c -2.333993022877686,-1.4291585423497068e-16 -4.226068207736615,1.8920751848589283 -4.226068207736615 4.226068207736613c -2.8583170846994135e-16,2.333993022877686 1.8920751848589281,4.226068207736615 4.226068207736613 4.226068207736615c 2.333993022877686,4.28747562704912e-16 4.226068207736615,-1.892075184858928 4.226068207736617 -4.226068207736613Z" /></g></g></g><g fill="rgb(255,0,0)" fill-opacity="1.0"><g fill="rgb(255,0,0)" fill-opacity="1.0"><g fill="rgb(255,0,0)" fill-opacity="1.0"><path d="M 224.13573300678232,180.255905828793 l 2.113034103868307,-3.6598824260256815 l -2.113034103868308,-3.659882426025681 l -4.226068207736614,-2.9324238924159743e-16 l -2.1130341038683076,3.6598824260256815 l 2.1130341038683063,3.6598824260256815 Z" /></g></g></g></g></g></g></svg>