<?xml version="1.0" encoding="UTF-8"?>
<!DOCTYPE svg PUBLIC "-//W3C//DTD SVG 1.1//EN"
    "http://www.w3.org/Graphics/SVG/1.1/DTD/svg11.dtd">
<svg xmlns="http://www.w3.org/2000/svg" xmlns:xlink="http://www.w3.org/1999/xlink" version="1.1" width="400.0" height="119.31818181818181" font-size="1" viewBox="0 0 400 119"><g><g stroke="rgb(0,0,0)" stroke-opacity="1.0" fill-opacity="0.0" stroke-width="1.0e-2" stroke-linecap="butt" stroke-linejoin="miter" font-size="1.0em" stroke-miterlimit="10.0"><g transform="matrix(165.2892561983471,0.0,0.0,165.2892561983471,200.0,59.65909090909091)"><g fill-opacity="0.0"><g fill-opacity="0.0"><path d="M 9.999999999999987e-2,0.0 h 1.5625e-2 v -1.5625e-2 h 1.5625e-2 v 3.125e-2 h 1.5625e-2 v -1.5625e-2 h 1.5625e-2 l 9.567553118338697e-19,-1.5625e-2 l -1.5625e-2,-9.567553118338697e-19 l 9.567553118338697e-19,-1.5625e-2 l 3.125e-2,1.9135106236677394e-18 l 9.567553118338697e-19,-1.5625e-2 l -1.5625e-2,-9.567553118338697e-19 l 9.567553118338697e-19,-1.5625e-2 h 1.5625e-2 v -1.5625e-2 h 1.5625e-2 v 3.125e-2 h 1.5625e-2 v -1.5625e-2 h 1.5625e-2 l 1.9135106236677394e-18,3.125e-2 l 3.125e-2,-1.9135106236677394e-18 l 1.9135106236677394e-18,3.125e-2 l -6.25e-2,3.827021247335479e-18 l 1.9135106236677394e-18,3.125e-2 l 3.125e-2,-1.9135106236677394e-18 l 1.9135106236677394e-18,3.125e-2 h 1.5625e-2 v -1.5625e-2 h 1.5625e-2 v 3.125e-2 h 1.5625e-2 v -1.5625e-2 h 1.5625e-2 l 9.567553118338697e-19,-1.5625e-2 l -1.5625e-2,-9.567553118338697e-19 l 9.567553118338697e-19,-1.5625e-2 l 3.125e-2,1.9135106236677394e-18 l 9.567553118338697e-19,-1.5625e-2 l -1.5625e-2,-9.567553118338697e-19 l 9.567553118338697e-19,-1.5625e-2 h 1.5625e-2 v -1.5625e-2 h 1.5625e-2 v 3.125e-2 h 1.5625e-2 v -1.5625e-2 h 1.5625e-2 l 9.567553118338697e-19,-1.5625e-2 l -1.5625e-2,-9.567553118338697e-19 l 9.567553118338697e-19,-1.5625e-2 l 3.125e-2,1.9135106236677394e-18 l 9.567553118338697e-19,-1.5625e-2 l -1.5625e-2,-9.567553118338697e-19 l 9.567553118338697e-19,-1.5625e-2 l -1.5625e-2,-1.9135106236677394e-18 l -1.9135106236677394e-18,1.5625e-2 l -1.5625e-2,-1.9135106236677394e-18 l 3.827021247335479e-18,-3.125e-2 l -1.5625e-2,-1.9135106236677394e-18 l -1.9135106236677394e-18,1.5625e-2 l -1.5625e-2,-1.9135106236677394e-18 l 9.567553118338697e-19,-1.5625e-2 l -1.5625e-2,-9.567553118338697e-19 l 9.567553118338697e-19,-1.5625e-2 l 3.125e-2,1.9135106236677394e-18 l 9.567553118338697e-19,-1.5625e-2 l -1.5625e-2,-9.567553118338697e-19 l 9.567553118338697e-19,-1.5625e-2 l 3.125e-2,1.9135106236677394e-18 l 1.9135106236677394e-18,-3.125e-2 l 3.125e-2,1.9135106236677394e-18 l -3.827021247335479e-18,6.25e-2 l 3.125e-2,1.9135106236677394e-18 l 1.9135106236677394e-18,-3.125e-2 l 3.125e-2,1.9135106236677394e-18 l 9.567553118338697e-19,-1.5625e-2 l -1.5625e-2,-9.567553118338697e-19 l 9.567553118338697e-19,-1.5625e-2 l 3.125e-2,1.9135106236677394e-18 l 9.567553118338697e-19,-1.5625e-2 l -1.5625e-2,-9.567553118338697e-19 l 9.567553118338697e-19,-1.5625e-2 l -1.5625e-2,-1.9135106236677394e-18 l -1.9135106236677394e-18,1.5625e-2 l -1.5625e-2,-1.9135106236677394e-18 l 3.827021247335479e-18,-3.125e-2 l -1.5625e-2,-1.9135106236677394e-18 l -1.9135106236677394e-18,1.5625e-2 l -1.5625e-2,-1.9135106236677394e-18 l 9.567553118338697e-19,-1.5625e-2 l -1.5625e-2,-9.567553118338697e-19 l 9.567553118338697e-19,-1.5625e-2 l 3.125e-2,1.9135106236677394e-18 l 9.567553118338697e-19,-1.5625e-2 l -1.5625e-2,-9.567553118338697e-19 l 9.567553118338697e-19,-1.5625e-2 h 1.5625e-2 v -1.5625e-2 h 1.5625e-2 v 3.125e-2 h 1.5625e-2 v -1.5625e-2 h 1.5625e-2 l 9.567553118338697e-19,-1.5625e-2 l -1.5625e-2,-9.567553118338697e-19 l 9.567553118338697e-19,-1.5625e-2 l 3.125e-2,1.9135106236677394e-18 l 9.567553118338697e-19,-1.5625e-2 l -1.5625e-2,-9.567553118338697e-19 l 9.567553118338697e-19,-1.5625e-2 h 1.5625e-2 v -1.5625e-2 h 1.5625e-2 v 3.125e-2 h 1.5625e-2 v -1.5625e-2 h 1.5625e-2 l 1.9135106236677394e-18,3.125e-2 l 3.125e-2,-1.9135106236677394e-18 l 1.9135106236677394e-18,3.125e-2 l -6.25e-2,3.827021247335479e-18 l 1.9135106236677394e-18,3.125e-2 l 3.125e-2,-1.9135106236677394e-18 l 1.9135106236677394e-18,3.125e-2 h 1.5625e-2 v -1.5625e-2 h 1.5625e-2 v 3.125e-2 h 1.5625e-2 v -1.5625e-2 h 1.5625e-2 l 9.567553118338697e-19,-1.5625e-2 l -1.5625e-2,-9.567553118338697e-19 l 9.567553118338697e-19,-1.5625e-2 l 3.125e-2,1.9135106236677394e-18 l 9.567553118338697e-19,-1.5625e-2 l -1.5625e-2,-9.567553118338697e-19 l 9.567553118338697e-19,-1.5625e-2 h 1.5625e-2 v -1.5625e-2 h 1.5625e-2 v 3.125e-2 h 1.5625e-2 v -1.5625e-2 h 1.5625e-2 l 1.9135106236677394e-18,3.125e-2 l 3.125e-2,-1.9135106236677394e-18 l 1.9135106236677394e-18,3.125e-2 l -6.25e-2,3.827021247335479e-18 l 1.9135106236677394e-18,3.125e-2 l 3.125e-2,-1.9135106236677394e-18 l 1.9135106236677394e-18,3.125e-2 l 3.125e-2,-1.9135106236677394e-18 l -1.9135106236677394e-18,-3.125e-2 l 3.125e-2,-1.9135106236677394e-18 l 3.827021247335479e-18,6.25e-2 l 3.125e-2,-1.9135106236677394e-18 l -1.9135106236677394e-18,-3.125e-2 l 3.125e-2,-1.9135106236677394e-18 l 1.9135106236677394e-18,3.125e-2 l 3.125e-2,-1.9135106236677394e-18 l 1.9135106236677394e-18,3.125e-2 l -6.25e-2,3.827021247335479e-18 l 1.9135106236677394e-18,3.125e-2 l 3.125e-2,-1.9135106236677394e-18 l 1.9135106236677394e-18,3.125e-2 l -6.25e-2,7.654042494670958e-18 l 7.654042494670958e-18,6.25e-2 l -6.25e-2,7.654042494670958e-18 l -1.5308084989341915e-17,-0.125 l -6.25e-2,7.654042494670958e-18 l 7.654042494670958e-18,6.25e-2 l -6.25e-2,7.654042494670958e-18 l 1.9135106236677394e-18,3.125e-2 l 3.125e-2,-1.9135106236677394e-18 l 1.9135106236677394e-18,3.125e-2 l -6.25e-2,3.827021247335479e-18 l 1.9135106236677394e-18,3.125e-2 l 3.125e-2,-1.9135106236677394e-18 l 1.9135106236677394e-18,3.125e-2 l 3.125e-2,-1.9135106236677394e-18 l -1.9135106236677394e-18,-3.125e-2 l 3.125e-2,-1.9135106236677394e-18 l 3.827021247335479e-18,6.25e-2 l 3.125e-2,-1.9135106236677394e-18 l -1.9135106236677394e-18,-3.125e-2 l 3.125e-2,-1.9135106236677394e-18 l 1.9135106236677394e-18,3.125e-2 l 3.125e-2,-1.9135106236677394e-18 l 1.9135106236677394e-18,3.125e-2 l -6.25e-2,3.827021247335479e-18 l 1.9135106236677394e-18,3.125e-2 l 3.125e-2,-1.9135106236677394e-18 l 1.9135106236677394e-18,3.125e-2 h 1.5625e-2 v -1.5625e-2 h 1.5625e-2 v 3.125e-2 h 1.5625e-2 v -1.5625e-2 h 1.5625e-2 l 9.567553118338697e-19,-1.5625e-2 l -1.5625e-2,-9.567553118338697e-19 l 9.567553118338697e-19,-1.5625e-2 l 3.125e-2,1.9135106236677394e-18 l 9.567553118338697e-19,-1.5625e-2 l -1.5625e-2,-9.567553118338697e-19 l 9.567553118338697e-19,-1.5625e-2 h 1.5625e-2 v -1.5625e-2 h 1.5625e-2 v 3.125e-2 h 1.5625e-2 v -1.5625e-2 h 1.5625e-2 l 1.9135106236677394e-18,3.125e-2 l 3.125e-2,-1.9135106236677394e-18 l 1.9135106236677394e-18,3.125e-2 l -6.25e-2,3.827021247335479e-18 l 1.9135106236677394e-18,3.125e-2 l 3.125e-2,-1.9135106236677394e-18 l 1.9135106236677394e-18,3.125e-2 h 1.5625e-2 v -1.5625e-2 h 1.5625e-2 v 3.125e-2 h 1.5625e-2 v -1.5625e-2 h 1.5625e-2 l 9.567553118338697e-19,-1.5625e-2 l -1.5625e-2,-9.567553118338697e-19 l 9.567553118338697e-19,-1.5625e-2 l 3.125e-2,1.9135106236677394e-18 l 9.567553118338697e-19,-1.5625e-2 l -1.5625e-2,-9.567553118338697e-19 l 9.567553118338697e-19,-1.5625e-2 h 1.5625e-2 v -1.5625e-2 h 1.5625e-2 v 3.125e-2 h 1.5625e-2 v -1.5625e-2 h 1.5625e-2 l 9.567553118338697e-19,-1.5625e-2 l -1.5625e-2,-9.567553118338697e-19 l 9.567553118338697e-19,-1.5625e-2 l 3.125e-2,1.9135106236677394e-18 l 9.567553118338697e-19,-1.5625e-2 l -1.5625e-2,-9.567553118338697e-19 l 9.567553118338697e-19,-1.5625e-2 l -1.5625e-2,-1.9135106236677394e-18 l -1.9135106236677394e-18,1.5625e-2 l -1.5625e-2,-1.9135106236677394e-18 l 3.827021247335479e-18,-3.125e-2 l -1.5625e-2,-1.9135106236677394e-18 l -1.9135106236677394e-18,1.5625e-2 l -1.5625e-2,-1.9135106236677394e-18 l 9.567553118338697e-19,-1.5625e-2 l -1.5625e-2,-9.567553118338697e-19 l 9.567553118338697e-19,-1.5625e-2 l 3.125e-2,1.9135106236677394e-18 l 9.567553118338697e-19,-1.5625e-2 l -1.5625e-2,-9.567553118338697e-19 l 9.567553118338697e-19,-1.5625e-2 l 3.125e-2,1.9135106236677394e-18 l 1.9135106236677394e-18,-3.125e-2 l 3.125e-2,1.9135106236677394e-18 l -3.827021247335479e-18,6.25e-2 l 3.125e-2,1.9135106236677394e-18 l 1.9135106236677394e-18,-3.125e-2 l 3.125e-2,1.9135106236677394e-18 l 9.567553118338697e-19,-1.5625e-2 l -1.5625e-2,-9.567553118338697e-19 l 9.567553118338697e-19,-1.5625e-2 l 3.125e-2,1.9135106236677394e-18 l 9.567553118338697e-19,-1.5625e-2 l -1.5625e-2,-9.567553118338697e-19 l 9.567553118338697e-19,-1.5625e-2 l -1.5625e-2,-1.9135106236677394e-18 l -1.9135106236677394e-18,1.5625e-2 l -1.5625e-2,-1.9135106236677394e-18 l 3.827021247335479e-18,-3.125e-2 l -1.5625e-2,-1.9135106236677394e-18 l -1.9135106236677394e-18,1.5625e-2 l -1.5625e-2,-1.9135106236677394e-18 l 9.567553118338697e-19,-1.5625e-2 l -1.5625e-2,-9.567553118338697e-19 l 9.567553118338697e-19,-1.5625e-2 l 3.125e-2,1.9135106236677394e-18 l 9.567553118338697e-19,-1.5625e-2 l -1.5625e-2,-9.567553118338697e-19 l 9.567553118338697e-19,-1.5625e-2 h 1.5625e-2 v -1.5625e-2 h 1.5625e-2 v 3.125e-2 h 1.5625e-2 v -1.5625e-2 h 1.5625e-2 l 9.567553118338697e-19,-1.5625e-2 l -1.5625e-2,-9.567553118338697e-19 l 9.567553118338697e-19,-1.5625e-2 l 3.125e-2,1.9135106236677394e-18 l 9.567553118338697e-19,-1.5625e-2 l -1.5625e-2,-9.567553118338697e-19 l 9.567553118338697e-19,-1.5625e-2 h 1.5625e-2 v -1.5625e-2 h 1.5625e-2 v 3.125e-2 h 1.5625e-2 v -1.5625e-2 h 1.5625e-2 l 1.9135106236677394e-18,3.125e-2 l 3.125e-2,-1.9135106236677394e-18 l 1.9135106236677394e-18,3.125e-2 l -6.25e-2,3.827021247335479e-18 l 1.9135106236677394e-18,3.125e-2 l 3.125e-2,-1.9135106236677394e-18 l 1.9135106236677394e-18,3.125e-2 h 1.5625e-2 v -1.5625e-2 h 1.5625e-2 v 3.125e-2 h 1.5625e-2 v -1.5625e-2 h 1.5625e-2 l 9.567553118338697e-19,-1.5625e-2 l -1.5625e-2,-9.567553118338697e-19 l 9.567553118338697e-19,-1.5625e-2 l 3.125e-2,1.9135106236677394e-18 l 9.567553118338697e-19,-1.5625e-2 l -1.5625e-2,-9.567553118338697e-19 l 9.567553118338697e-19,-1.5625e-2 h 1.5625e-2 v -1.5625e-2 h 1.5625e-2 v 3.125e-2 h 1.5625e-2 v -1.5625e-2 h 1.5625e-2 " /></g><path d="M -1.1,0.0 h 0.25 v -0.25 h 0.25 v 0.5 h 0.25 v -0.25 h 0.25 " /></g></g></g></g></svg>