<svg xmlns="http://www.w3.org/2000/svg" height="160.4651" stroke-opacity="1" viewBox="0 0 300 160" font-size="1" width="300.0000" xmlns:xlink="http://www.w3.org/1999/xlink" stroke="rgb(0,0,0)" version="1.1"><defs></defs><g stroke-linejoin="miter" stroke-opacity="1.0" fill-opacity="0.0" stroke="rgb(0,0,0)" stroke-width="0.8776289410334727" fill="rgb(0,0,0)" stroke-linecap="butt" stroke-miterlimit="10.0"><path d="M 289.5349,115.1163 l -0.0000,-69.7674 h -69.7674 l -0.0000,69.7674 Z"/></g><g stroke-linejoin="miter" stroke-opacity="1.0" fill-opacity="0.0" stroke="rgb(0,0,0)" stroke-width="0.8776289410334727" fill="rgb(0,0,0)" stroke-linecap="butt" stroke-miterlimit="10.0"><path d="M 80.2326,115.1163 l -0.0000,-69.7674 h -69.7674 l -0.0000,69.7674 Z"/></g><g stroke-linejoin="miter" stroke-opacity="1.0" fill-opacity="0.0" stroke="rgb(0,0,0)" stroke-width="0.8776289410334727" fill="rgb(0,0,0)" stroke-linecap="butt" stroke-miterlimit="10.0"><path d="M 209.5502,55.5660 c 0.0000,-19.2657 -15.6180,-34.8837 -34.8837 -34.8837c -19.2657,-0.0000 -34.8837,15.6180 -34.8837 34.8837c -0.0000,19.2657 15.6180,34.8837 34.8837 34.8837c 19.2657,0.0000 34.8837,-15.6180 34.8837 -34.8837Z"/></g><g stroke-linejoin="miter" stroke-opacity="1.0" fill-opacity="0.0" stroke="rgb(0,0,0)" stroke-width="0.8776289410334727" fill="rgb(0,0,0)" stroke-linecap="butt" stroke-miterlimit="10.0"><path d="M 219.7674,80.2326 c 0.0000,-38.5315 -31.2359,-69.7674 -69.7674 -69.7674c -38.5315,-0.0000 -69.7674,31.2359 -69.7674 69.7674c -0.0000,38.5315 31.2359,69.7674 69.7674 69.7674c 38.5315,0.0000 69.7674,-31.2359 69.7674 -69.7674Z"/></g></svg>