<?xml version="1.0" encoding="UTF-8"?>
<!DOCTYPE svg PUBLIC "-//W3C//DTD SVG 1.1//EN"
    "http://www.w3.org/Graphics/SVG/1.1/DTD/svg11.dtd"><svg xmlns="http://www.w3.org/2000/svg" height="126.5101968667416" stroke-opacity="1" viewBox="0 0 400 127" font-size="1" width="399.99999999999994" xmlns:xlink="http://www.w3.org/1999/xlink" stroke="rgb(0,0,0)" version="1.1"><defs></defs><defs></defs><g stroke-linejoin="miter" stroke-opacity="1.0" fill-opacity="0.0" stroke="rgb(0,0,0)" stroke-width="0.8998140140868812" fill="rgb(0,0,0)" stroke-linecap="butt" stroke-miterlimit="10.0"><path d="M 264.4067796610169,92.61189178199584 l 3.7664783427495294,-6.523731855250013 l 3.7664783427495303,6.523731855250011 l 3.7664783427495294,-6.523731855250013 l -3.7664783427495347,-6.52373185525001 l -3.766478342749525,6.523731855250015 l -3.7664783427495347,-6.52373185525001 l 3.7664783427495294,-6.523731855250013 l 3.7664783427495303,6.523731855250011 l 3.7664783427495294,-6.523731855250013 l 3.7664783427495303,6.523731855250012 l 3.7664783427495294,-6.523731855250011 l 3.7664783427495303,6.523731855250012 l -3.766478342749534,6.52373185525001 l -3.766478342749526,-6.523731855250014 l -3.766478342749534,6.52373185525001 l 3.7664783427495303,6.523731855250012 l 3.7664783427495294,-6.523731855250011 l 3.7664783427495303,6.523731855250012 l 3.7664783427495294,-6.523731855250013 l 3.7664783427495303,6.523731855250011 l 3.7664783427495294,-6.523731855250013 l -3.7664783427495347,-6.52373185525001 l -3.766478342749525,6.523731855250015 l -3.7664783427495347,-6.52373185525001 l 3.7664783427495294,-6.523731855250013 l 3.7664783427495303,6.523731855250011 l 3.7664783427495294,-6.523731855250013 l -3.7664783427495347,-6.523731855250009 l -3.766478342749523,6.523731855250013 l -3.7664783427495347,-6.523731855250009 l 3.7664783427495276,-6.523731855250011 l 3.7664783427495303,6.523731855250011 l 3.7664783427495276,-6.523731855250011 l -3.7664783427495347,-6.523731855250009 l -3.766478342749523,6.523731855250013 l -3.7664783427495347,-6.523731855250009 l -3.766478342749523,6.523731855250014 l -3.7664783427495347,-6.5237318552500065 l -3.766478342749523,6.523731855250014 l 3.766478342749539,6.523731855250006 l 3.766478342749519,-6.523731855250015 l 3.766478342749539,6.523731855250006 l -3.766478342749523,6.523731855250014 l -3.7664783427495347,-6.5237318552500065 l -3.766478342749523,6.523731855250014 l -3.7664783427495347,-6.523731855250009 l -3.766478342749523,6.523731855250013 l -3.7664783427495347,-6.523731855250009 l 3.7664783427495276,-6.523731855250011 l 3.7664783427495303,6.523731855250011 l 3.7664783427495276,-6.523731855250011 l -3.7664783427495347,-6.523731855250009 l -3.766478342749523,6.523731855250013 l -3.7664783427495347,-6.523731855250009 l 3.7664783427495294,-6.523731855250013 l 3.7664783427495303,6.523731855250011 l 3.7664783427495294,-6.523731855250013 l -3.7664783427495347,-6.52373185525001 l -3.766478342749525,6.523731855250015 l -3.7664783427495347,-6.52373185525001 l 3.7664783427495294,-6.523731855250013 l 3.7664783427495303,6.523731855250011 l 3.7664783427495294,-6.523731855250013 l 3.7664783427495303,6.523731855250012 l 3.7664783427495294,-6.523731855250011 l 3.7664783427495303,6.523731855250012 l -3.766478342749534,6.52373185525001 l -3.766478342749526,-6.523731855250014 l -3.766478342749534,6.52373185525001 l 3.7664783427495303,6.523731855250012 l 3.7664783427495294,-6.523731855250011 l 3.7664783427495303,6.523731855250012 l 3.7664783427495294,-6.523731855250013 l 3.7664783427495303,6.523731855250011 l 3.7664783427495294,-6.523731855250013 l -3.7664783427495347,-6.52373185525001 l -3.766478342749525,6.523731855250015 l -3.7664783427495347,-6.52373185525001 l 3.7664783427495294,-6.523731855250013 l 3.7664783427495303,6.523731855250011 l 3.7664783427495294,-6.523731855250013 l 3.7664783427495303,6.523731855250013 l 3.7664783427495294,-6.523731855250011 l 3.7664783427495303,6.523731855250013 l -3.7664783427495334,6.52373185525001 l -3.766478342749526,-6.523731855250015 l -3.7664783427495334,6.52373185525001 l 3.7664783427495303,6.523731855250013 l 3.7664783427495294,-6.523731855250011 l 3.7664783427495303,6.523731855250013 l 3.7664783427495294,-6.523731855250012 l 3.7664783427495303,6.523731855250011 l 3.7664783427495294,-6.523731855250012 l -3.766478342749535,-6.52373185525001 l -3.766478342749525,6.523731855250014 l -3.766478342749535,-6.52373185525001 l 3.7664783427495294,-6.523731855250012 l 3.7664783427495303,6.523731855250011 l 3.7664783427495294,-6.523731855250012 l 3.7664783427495303,6.523731855250013 l 3.7664783427495294,-6.523731855250011 l 3.7664783427495303,6.523731855250013 l -3.7664783427495334,6.52373185525001 l -3.766478342749526,-6.523731855250015 l -3.7664783427495334,6.52373185525001 l 3.7664783427495303,6.523731855250013 l 3.7664783427495294,-6.523731855250011 l 3.7664783427495303,6.523731855250013 l -3.7664783427495334,6.523731855250009 l -3.766478342749524,-6.523731855250013 l -3.7664783427495334,6.523731855250009 l 3.7664783427495285,6.523731855250011 l 3.7664783427495294,-6.523731855250011 l 3.7664783427495285,6.523731855250011 l -3.7664783427495334,6.523731855250009 l -3.766478342749524,-6.523731855250013 l -3.7664783427495334,6.523731855250009 l -3.766478342749524,-6.523731855250014 l -3.7664783427495334,6.5237318552500065 l -3.766478342749524,-6.523731855250014 l 3.7664783427495383,-6.523731855250006 l 3.76647834274952,6.523731855250015 l 3.7664783427495383,-6.523731855250006 l -3.766478342749524,-6.523731855250014 l -3.7664783427495334,6.5237318552500065 l -3.766478342749524,-6.523731855250014 l -3.7664783427495334,6.523731855250009 l -3.766478342749524,-6.523731855250013 l -3.7664783427495334,6.523731855250009 l 3.7664783427495285,6.523731855250011 l 3.7664783427495294,-6.523731855250011 l 3.7664783427495285,6.523731855250011 l -3.7664783427495334,6.523731855250009 l -3.766478342749524,-6.523731855250013 l -3.7664783427495334,6.523731855250009 l 3.7664783427495303,6.523731855250013 l 3.7664783427495294,-6.523731855250011 l 3.7664783427495303,6.523731855250013 l -3.7664783427495334,6.52373185525001 l -3.766478342749526,-6.523731855250015 l -3.7664783427495334,6.52373185525001 l 3.7664783427495303,6.523731855250013 l 3.7664783427495294,-6.523731855250011 l 3.7664783427495303,6.523731855250013 l 3.7664783427495294,-6.523731855250012 l 3.7664783427495303,6.523731855250011 l 3.7664783427495294,-6.523731855250012 l -3.766478342749535,-6.52373185525001 l -3.766478342749525,6.523731855250014 l -3.766478342749535,-6.52373185525001 l 3.7664783427495294,-6.523731855250012 l 3.7664783427495303,6.523731855250011 l 3.7664783427495294,-6.523731855250012 l 3.7664783427495303,6.523731855250013 l 3.7664783427495294,-6.523731855250011 l 3.7664783427495303,6.523731855250013 l -3.7664783427495334,6.52373185525001 l -3.766478342749526,-6.523731855250015 l -3.7664783427495334,6.52373185525001 l 3.7664783427495303,6.523731855250013 l 3.7664783427495294,-6.523731855250011 l 3.7664783427495303,6.523731855250013 l 3.7664783427495294,-6.523731855250013 l 3.7664783427495303,6.523731855250011 l 3.7664783427495294,-6.523731855250013 l -3.7664783427495347,-6.52373185525001 l -3.766478342749525,6.523731855250015 l -3.7664783427495347,-6.52373185525001 l 3.7664783427495294,-6.523731855250013 l 3.7664783427495303,6.523731855250011 l 3.7664783427495294,-6.523731855250013 l 3.7664783427495303,6.523731855250012 l 3.7664783427495294,-6.523731855250011 l 3.7664783427495303,6.523731855250012 l -3.766478342749534,6.52373185525001 l -3.766478342749526,-6.523731855250014 l -3.766478342749534,6.52373185525001 l 3.7664783427495303,6.523731855250012 l 3.7664783427495294,-6.523731855250011 l 3.7664783427495303,6.523731855250012 l 3.7664783427495294,-6.523731855250013 l 3.7664783427495303,6.523731855250011 l 3.7664783427495294,-6.523731855250013 l -3.7664783427495347,-6.52373185525001 l -3.766478342749525,6.523731855250015 l -3.7664783427495347,-6.52373185525001 l 3.7664783427495294,-6.523731855250013 l 3.7664783427495303,6.523731855250011 l 3.7664783427495294,-6.523731855250013 l -3.7664783427495347,-6.523731855250009 l -3.766478342749523,6.523731855250013 l -3.7664783427495347,-6.523731855250009 l 3.7664783427495276,-6.523731855250011 l 3.7664783427495303,6.523731855250011 l 3.7664783427495276,-6.523731855250011 l -3.7664783427495347,-6.523731855250009 l -3.766478342749523,6.523731855250013 l -3.7664783427495347,-6.523731855250009 l -3.766478342749523,6.523731855250014 l -3.7664783427495347,-6.5237318552500065 l -3.766478342749523,6.523731855250014 l 3.766478342749539,6.523731855250006 l 3.766478342749519,-6.523731855250015 l 3.766478342749539,6.523731855250006 l -3.766478342749523,6.523731855250014 l -3.7664783427495347,-6.5237318552500065 l -3.766478342749523,6.523731855250014 l -3.7664783427495347,-6.523731855250009 l -3.766478342749523,6.523731855250013 l -3.7664783427495347,-6.523731855250009 l 3.7664783427495276,-6.523731855250011 l 3.7664783427495303,6.523731855250011 l 3.7664783427495276,-6.523731855250011 l -3.7664783427495347,-6.523731855250009 l -3.766478342749523,6.523731855250013 l -3.7664783427495347,-6.523731855250009 l 3.7664783427495294,-6.523731855250013 l 3.7664783427495303,6.523731855250011 l 3.7664783427495294,-6.523731855250013 l -3.7664783427495347,-6.52373185525001 l -3.766478342749525,6.523731855250015 l -3.7664783427495347,-6.52373185525001 l 3.7664783427495294,-6.523731855250013 l 3.7664783427495303,6.523731855250011 l 3.7664783427495294,-6.523731855250013 l 3.7664783427495303,6.523731855250012 l 3.7664783427495294,-6.523731855250011 l 3.7664783427495303,6.523731855250012 l -3.766478342749534,6.52373185525001 l -3.766478342749526,-6.523731855250014 l -3.766478342749534,6.52373185525001 l 3.7664783427495303,6.523731855250012 l 3.7664783427495294,-6.523731855250011 l 3.7664783427495303,6.523731855250012 l 3.7664783427495294,-6.523731855250013 l 3.7664783427495303,6.523731855250011 l 3.7664783427495294,-6.523731855250013 l -3.7664783427495347,-6.52373185525001 l -3.766478342749525,6.523731855250015 l -3.7664783427495347,-6.52373185525001 l 3.7664783427495294,-6.523731855250013 l 3.7664783427495303,6.523731855250011 l 3.7664783427495294,-6.523731855250013 "/></g><defs></defs><g stroke-linejoin="miter" stroke-opacity="1.0" fill-opacity="0.0" stroke="rgb(0,0,0)" stroke-width="0.8998140140868812" fill="rgb(0,0,0)" stroke-linecap="butt" stroke-miterlimit="10.0"><path d="M 149.15254237288133,92.61189178199584 l 33.89830508474575,-19.571195565750035 l -33.898305084745765,-19.571195565750003 l 33.89830508474575,-19.571195565750035 l 33.89830508474576,19.571195565750024 l -33.898305084745765,19.57119556575001 l 33.89830508474576,19.571195565750024 l 33.89830508474575,-19.571195565750035 l -33.898305084745765,-19.571195565750003 l 33.89830508474575,-19.571195565750035 "/></g><defs></defs><g stroke-linejoin="miter" stroke-opacity="1.0" fill-opacity="0.0" stroke="rgb(0,0,0)" stroke-width="0.8998140140868812" fill="rgb(0,0,0)" stroke-linecap="butt" stroke-miterlimit="10.0"><path d="M 135.59322033898303,33.89830508474577 l -30.653954467534344,53.09420659067243 "/></g><defs></defs><g stroke-linejoin="miter" stroke-opacity="1.0" fill-opacity="1.0" stroke="rgb(0,0,0)" stroke-width="0.0" fill="rgb(0,0,0)" stroke-linecap="butt" stroke-miterlimit="10.0"></g><defs></defs><g stroke-linejoin="miter" stroke-opacity="1.0" fill-opacity="1.0" stroke="rgb(0,0,0)" stroke-width="0.0" fill="rgb(0,0,0)" stroke-linecap="butt" stroke-miterlimit="10.0"></g><defs></defs><g stroke-linejoin="miter" stroke-opacity="1.0" fill-opacity="1.0" stroke="rgb(0,0,0)" stroke-width="0.0" fill="rgb(0,0,0)" stroke-linecap="butt" stroke-miterlimit="10.0"><path d="M 100.61294866237833,93.58609887710074 l 6.973785319650914,-6.27922450587859 l -3.2736291191839486,-0.12963402927121026 Z"/></g><defs></defs><g stroke-linejoin="miter" stroke-opacity="1.0" fill-opacity="1.0" stroke="rgb(0,0,0)" stroke-width="0.0" fill="rgb(0,0,0)" stroke-linecap="butt" stroke-miterlimit="10.0"><path d="M 104.3131048628453,87.17724034195093 l 0.2365301111631385,-0.40968217005447055 l 0.779261794880488,0.4499070070434404 Z"/></g><defs></defs><g stroke-linejoin="miter" stroke-opacity="1.0" fill-opacity="0.0" stroke="rgb(0,0,0)" stroke-width="0.8998140140868812" fill="rgb(0,0,0)" stroke-linecap="butt" stroke-miterlimit="10.0"><path d="M 67.7966101694915,33.89830508474577 l 30.653954467534337,53.09420659067246 "/></g><defs></defs><g stroke-linejoin="miter" stroke-opacity="1.0" fill-opacity="1.0" stroke="rgb(0,0,0)" stroke-width="0.0" fill="rgb(0,0,0)" stroke-linecap="butt" stroke-miterlimit="10.0"></g><defs></defs><g stroke-linejoin="miter" stroke-opacity="1.0" fill-opacity="1.0" stroke="rgb(0,0,0)" stroke-width="0.0" fill="rgb(0,0,0)" stroke-linecap="butt" stroke-miterlimit="10.0"></g><defs></defs><g stroke-linejoin="miter" stroke-opacity="1.0" fill-opacity="1.0" stroke="rgb(0,0,0)" stroke-width="0.0" fill="rgb(0,0,0)" stroke-linecap="butt" stroke-miterlimit="10.0"><path d="M 101.9976200512157,94.0360058841442 l -1.9510752783311873,-9.179087500295969 l -1.7490809221357788,2.7702289651461696 Z"/></g><defs></defs><g stroke-linejoin="miter" stroke-opacity="1.0" fill-opacity="1.0" stroke="rgb(0,0,0)" stroke-width="0.0" fill="rgb(0,0,0)" stroke-linecap="butt" stroke-miterlimit="10.0"><path d="M 98.29746385074873,87.62714734899441 l -0.23653011116313855,-0.4096821700544705 l 0.779261794880488,-0.44990700704344055 Z"/></g><defs></defs><g stroke-linejoin="miter" stroke-opacity="1.0" fill-opacity="0.0" stroke="rgb(0,0,0)" stroke-width="0.8998140140868812" fill="rgb(0,0,0)" stroke-linecap="butt" stroke-miterlimit="10.0"><path d="M 67.7966101694915,33.89830508474577 l -30.65395446753432,53.09420659067244 "/></g><defs></defs><g stroke-linejoin="miter" stroke-opacity="1.0" fill-opacity="1.0" stroke="rgb(0,0,0)" stroke-width="0.0" fill="rgb(0,0,0)" stroke-linecap="butt" stroke-miterlimit="10.0"></g><defs></defs><g stroke-linejoin="miter" stroke-opacity="1.0" fill-opacity="1.0" stroke="rgb(0,0,0)" stroke-width="0.0" fill="rgb(0,0,0)" stroke-linecap="butt" stroke-miterlimit="10.0"></g><defs></defs><g stroke-linejoin="miter" stroke-opacity="1.0" fill-opacity="1.0" stroke="rgb(0,0,0)" stroke-width="0.0" fill="rgb(0,0,0)" stroke-linecap="butt" stroke-miterlimit="10.0"><path d="M 32.81633849288683,93.58609887710077 l 6.973785319650911,-6.2792245058785925 l -3.2736291191839486,-0.12963402927120882 Z"/></g><defs></defs><g stroke-linejoin="miter" stroke-opacity="1.0" fill-opacity="1.0" stroke="rgb(0,0,0)" stroke-width="0.0" fill="rgb(0,0,0)" stroke-linecap="butt" stroke-miterlimit="10.0"><path d="M 36.51649469335379,87.17724034195096 l 0.2365301111631383,-0.40968217005447066 l 0.7792617948804882,0.44990700704344005 Z"/></g></svg>