<?xml version="1.0" encoding="UTF-8"?>
<!DOCTYPE svg PUBLIC "-//W3C//DTD SVG 1.1//EN"
    "http://www.w3.org/Graphics/SVG/1.1/DTD/svg11.dtd">
<svg xmlns="http://www.w3.org/2000/svg" xmlns:xlink="http://www.w3.org/1999/xlink" version="1.1" width="590.1523919995885" height="100.0" font-size="1" viewBox="0 0 590 100"><g><g stroke="rgb(0,0,0)" stroke-opacity="1.0" fill="rgb(0,0,0)" fill-opacity="0.0" stroke-width="1.0e-2" stroke-linecap="butt" stroke-linejoin="miter" font-size="1.0em" stroke-miterlimit="10.0"><g transform="matrix(14.28571428571429,0.0,0.0,14.28571428571429,295.07619599979427,50.0)"><g><g><g><g fill-opacity="0.0" stroke-width="0.2"><path d="M 20.3353337199856,-0.8200000000000012 c -0.5044772701248142,-0.4101683270353824 -1.008954540249628,-0.8203366540707663 -1.6 -0.8c -0.5910454597503723,2.033665407076626e-2 -1.2686591091263026,0.47117828924768124 -1.6 0.8c -0.33134089087369745,0.3288217107523188 -0.31640902324516207,0.5356234970800415 0.0 0.8c 0.31640902324516207,0.2643765029199585 0.9342952021069508,0.5863277224321539 1.6 0.8c 0.6657047978930493,0.2136722775678461 1.3792282148173591,0.3190656131913432 1.6 0.8c 0.22077178518264093,0.48093438680865663 -5.120806137638852e-2,1.3374098248024735 -0.8 1.5999999999999999c -0.7487919386236115,0.26259017519752664 -1.9743959693118058,-6.870491240123672e-2 -3.2 -0.4000000000000002" /></g><g fill="rgb(0,0,255)" fill-opacity="1.0" stroke-width="0.0"><path d="M 16.6553337199856,2.779999999999999 c 0.0,-0.17673111994585394 -0.1432688800541461,-0.32000000000000006 -0.32 -0.32000000000000006c -0.17673111994585394,-1.0821660017570848e-17 -0.32000000000000006,0.14326888005414606 -0.32000000000000006 0.31999999999999995c -2.1643320035141697e-17,0.17673111994585394 0.14326888005414606,0.32000000000000006 0.3199999999999999 0.32000000000000006c 0.17673111994585394,3.2464980052712547e-17 0.32000000000000006,-0.14326888005414604 0.32000000000000023 -0.31999999999999995Z" /></g><g fill="rgb(0,0,255)" fill-opacity="1.0" stroke-width="0.0"><path d="M 19.855333719985598,3.179999999999999 c 0.0,-0.17673111994585394 -0.1432688800541461,-0.32000000000000006 -0.32 -0.32000000000000006c -0.17673111994585394,-1.0821660017570848e-17 -0.32000000000000006,0.14326888005414606 -0.32000000000000006 0.31999999999999995c -2.1643320035141697e-17,0.17673111994585394 0.14326888005414606,0.32000000000000006 0.3199999999999999 0.32000000000000006c 0.17673111994585394,3.2464980052712547e-17 0.32000000000000006,-0.14326888005414604 0.32000000000000023 -0.31999999999999995Z" /></g><g fill="rgb(0,0,255)" fill-opacity="1.0" stroke-width="0.0"><path d="M 20.6553337199856,1.5799999999999987 c 0.0,-0.17673111994585394 -0.1432688800541461,-0.32000000000000006 -0.32 -0.32000000000000006c -0.17673111994585394,-1.0821660017570848e-17 -0.32000000000000006,0.14326888005414606 -0.32000000000000006 0.31999999999999995c -2.1643320035141697e-17,0.17673111994585394 0.14326888005414606,0.32000000000000006 0.3199999999999999 0.32000000000000006c 0.17673111994585394,3.2464980052712547e-17 0.32000000000000006,-0.14326888005414604 0.32000000000000023 -0.31999999999999995Z" /></g><g fill="rgb(0,0,255)" fill-opacity="1.0" stroke-width="0.0"><path d="M 19.055333719985597,0.7799999999999985 c 0.0,-0.17673111994585394 -0.1432688800541461,-0.32000000000000006 -0.32 -0.32000000000000006c -0.17673111994585394,-1.0821660017570848e-17 -0.32000000000000006,0.14326888005414606 -0.32000000000000006 0.31999999999999995c -2.1643320035141697e-17,0.17673111994585394 0.14326888005414606,0.32000000000000006 0.3199999999999999 0.32000000000000006c 0.17673111994585394,3.2464980052712547e-17 0.32000000000000006,-0.14326888005414604 0.32000000000000023 -0.31999999999999995Z" /></g><g fill="rgb(0,0,255)" fill-opacity="1.0" stroke-width="0.0"><path d="M 17.4553337199856,-2.000000000000135e-2 c 0.0,-0.17673111994585394 -0.1432688800541461,-0.32000000000000006 -0.32 -0.32000000000000006c -0.17673111994585394,-1.0821660017570848e-17 -0.32000000000000006,0.14326888005414606 -0.32000000000000006 0.31999999999999995c -2.1643320035141697e-17,0.17673111994585394 0.14326888005414606,0.32000000000000006 0.3199999999999999 0.32000000000000006c 0.17673111994585394,3.2464980052712547e-17 0.32000000000000006,-0.14326888005414604 0.32000000000000023 -0.31999999999999995Z" /></g><g fill="rgb(0,0,255)" fill-opacity="1.0" stroke-width="0.0"><path d="M 17.4553337199856,-0.8200000000000012 c 0.0,-0.17673111994585394 -0.1432688800541461,-0.32000000000000006 -0.32 -0.32000000000000006c -0.17673111994585394,-1.0821660017570848e-17 -0.32000000000000006,0.14326888005414606 -0.32000000000000006 0.31999999999999995c -2.1643320035141697e-17,0.17673111994585394 0.14326888005414606,0.32000000000000006 0.3199999999999999 0.32000000000000006c 0.17673111994585394,3.2464980052712547e-17 0.32000000000000006,-0.14326888005414604 0.32000000000000023 -0.31999999999999995Z" /></g><g fill="rgb(0,0,255)" fill-opacity="1.0" stroke-width="0.0"><path d="M 19.055333719985597,-1.6200000000000019 c 0.0,-0.17673111994585394 -0.1432688800541461,-0.32000000000000006 -0.32 -0.32000000000000006c -0.17673111994585394,-1.0821660017570848e-17 -0.32000000000000006,0.14326888005414606 -0.32000000000000006 0.31999999999999995c -2.1643320035141697e-17,0.17673111994585394 0.14326888005414606,0.32000000000000006 0.3199999999999999 0.32000000000000006c 0.17673111994585394,3.2464980052712547e-17 0.32000000000000006,-0.14326888005414604 0.32000000000000023 -0.31999999999999995Z" /></g><g fill="rgb(0,0,255)" fill-opacity="1.0" stroke-width="0.0"><path d="M 20.6553337199856,-0.8200000000000012 c 0.0,-0.17673111994585394 -0.1432688800541461,-0.32000000000000006 -0.32 -0.32000000000000006c -0.17673111994585394,-1.0821660017570848e-17 -0.32000000000000006,0.14326888005414606 -0.32000000000000006 0.31999999999999995c -2.1643320035141697e-17,0.17673111994585394 0.14326888005414606,0.32000000000000006 0.3199999999999999 0.32000000000000006c 0.17673111994585394,3.2464980052712547e-17 0.32000000000000006,-0.14326888005414604 0.32000000000000023 -0.31999999999999995Z" /></g></g><g><g fill="rgb(0,128,0)" fill-opacity="1.0" font-size="6.0em" font-style="italic" font-family="freeserif"><text transform="matrix(1.0,0.0,0.0,1.0,13.015333719985597,0.9999999999999991)" dominant-baseline="middle" text-anchor="middle" stroke="none">m</text></g><g stroke-width="5.0e-2"><path d="M 15.515333719985597,3.499999999999999 l -5.551115123125783e-16,-5.0 h -5.0 l -5.551115123125783e-16,5.0 h 5.000000000000002 Z" /></g></g></g><g stroke-width="0.1"><path d="M 6.47012317571909,-1.0000000000000009 l 1.472168388222995,2.0 " /><path d="M 6.47012317571909,-1.0000000000000009 l -1.4721683882229954,2.0 " /><path d="M 7.942291563942085,0.9999999999999991 l 1.5730421560435097,2.0 " /><path d="M 7.942291563942085,0.9999999999999991 l -0.28868441920393195,2.0 " /><g fill="rgb(128,0,128)" fill-opacity="1.0"><path d="M 10.015333719985595,2.999999999999999 c 0.0,-0.2761423749153967 -0.22385762508460322,-0.5 -0.4999999999999999 -0.5c -0.2761423749153967,-1.6908843777454448e-17 -0.5,0.2238576250846032 -0.5 0.49999999999999983c -3.3817687554908895e-17,0.2761423749153967 0.22385762508460316,0.5 0.4999999999999998 0.5c 0.2761423749153967,5.072653133236334e-17 0.5,-0.22385762508460313 0.5000000000000001 -0.49999999999999983Z" /></g><g fill="rgb(128,0,128)" fill-opacity="1.0"><path d="M 8.153607144738153,2.999999999999999 c 0.0,-0.2761423749153967 -0.22385762508460322,-0.5 -0.4999999999999999 -0.5c -0.2761423749153967,-1.6908843777454448e-17 -0.5,0.2238576250846032 -0.5 0.49999999999999983c -3.3817687554908895e-17,0.2761423749153967 0.22385762508460316,0.5 0.4999999999999998 0.5c 0.2761423749153967,5.072653133236334e-17 0.5,-0.22385762508460313 0.5000000000000001 -0.49999999999999983Z" /></g><g fill="rgb(128,0,128)" fill-opacity="1.0"><path d="M 8.442291563942085,0.9999999999999991 c 0.0,-0.2761423749153967 -0.22385762508460322,-0.5 -0.4999999999999999 -0.5c -0.2761423749153967,-1.6908843777454448e-17 -0.5,0.2238576250846032 -0.5 0.49999999999999983c -3.3817687554908895e-17,0.2761423749153967 0.22385762508460316,0.5 0.4999999999999998 0.5c 0.2761423749153967,5.072653133236334e-17 0.5,-0.22385762508460313 0.5000000000000001 -0.49999999999999983Z" /></g><path d="M 4.997954787496094,0.9999999999999991 l 0.2886844192039326,2.0 " /><path d="M 4.997954787496094,0.9999999999999991 l -1.5730421560435097,2.0 " /><g fill="rgb(128,0,128)" fill-opacity="1.0"><path d="M 5.786639206700027,2.999999999999999 c 0.0,-0.2761423749153967 -0.22385762508460322,-0.5 -0.4999999999999999 -0.5c -0.2761423749153967,-1.6908843777454448e-17 -0.5,0.2238576250846032 -0.5 0.49999999999999983c -3.3817687554908895e-17,0.2761423749153967 0.22385762508460316,0.5 0.4999999999999998 0.5c 0.2761423749153967,5.072653133236334e-17 0.5,-0.22385762508460313 0.5000000000000001 -0.49999999999999983Z" /></g><g fill="rgb(128,0,128)" fill-opacity="1.0"><path d="M 3.9249126314525844,2.999999999999999 c 0.0,-0.2761423749153967 -0.22385762508460322,-0.5 -0.4999999999999999 -0.5c -0.2761423749153967,-1.6908843777454448e-17 -0.5,0.2238576250846032 -0.5 0.49999999999999983c -3.3817687554908895e-17,0.2761423749153967 0.22385762508460316,0.5 0.4999999999999998 0.5c 0.2761423749153967,5.072653133236334e-17 0.5,-0.22385762508460313 0.5000000000000001 -0.49999999999999983Z" /></g><g fill="rgb(128,0,128)" fill-opacity="1.0"><path d="M 5.497954787496094,0.9999999999999991 c 0.0,-0.2761423749153967 -0.22385762508460322,-0.5 -0.4999999999999999 -0.5c -0.2761423749153967,-1.6908843777454448e-17 -0.5,0.2238576250846032 -0.5 0.49999999999999983c -3.3817687554908895e-17,0.2761423749153967 0.22385762508460316,0.5 0.4999999999999998 0.5c 0.2761423749153967,5.072653133236334e-17 0.5,-0.22385762508460313 0.5000000000000001 -0.49999999999999983Z" /></g><g fill="rgb(128,0,128)" fill-opacity="1.0"><path d="M 6.97012317571909,-1.0000000000000009 c 0.0,-0.2761423749153967 -0.22385762508460322,-0.5 -0.4999999999999999 -0.5c -0.2761423749153967,-1.6908843777454448e-17 -0.5,0.2238576250846032 -0.5 0.49999999999999983c -3.3817687554908895e-17,0.2761423749153967 0.22385762508460316,0.5 0.4999999999999998 0.5c 0.2761423749153967,5.072653133236334e-17 0.5,-0.22385762508460313 0.5000000000000001 -0.49999999999999983Z" /></g></g><g><g stroke="rgb(255,165,0)" stroke-opacity="1.0" fill-opacity="0.0" stroke-width="0.3" stroke-linecap="round" stroke-linejoin="round"><path d="M 1.8941898538495625,2.9692772223969772 l -2.121320343559643,-2.1213203435596424 l 0.9,-1.1021821192326179e-16 l 0.7281152949374526,-0.5290067270632259 l 0.27811529493745263,-0.8559508646656383 l -0.27811529493745274,-0.8559508646656382 l -0.7281152949374528,-0.5290067270632258 h -0.9 l -3.061616997868383e-16,5.0 " /></g><g stroke-width="0.1"><path d="M 1.2752750744547778,3.0574692241887402 l 1.1496375569978068,0.44253077581125877 l -0.44253077581125927,-1.1496375569978066 l -0.7071067811865475,0.7071067811865478 Z" /></g></g></g><g><g><g fill-opacity="0.0" stroke-width="5.0e-2"><g stroke="rgb(128,128,128)" stroke-opacity="1.0" fill-opacity="0.0"><g clip-path="url(#myClip1)"><clipPath id="myClip1"><path d="M -0.7271304897100808,3.499999999999999 l -5.551115123125783e-16,-5.0 h -5.0 l -5.551115123125783e-16,5.0 h 5.000000000000002 Z" /></clipPath><g fill-opacity="0.0"><g fill-opacity="0.0"><g fill-opacity="0.0"><g fill-opacity="0.0"><path d="M -6.514582347904849,-5.062603424276718 l 9.510565162951535,3.0901699437494745 " /></g><path d="M -6.669090845092322,-4.587075166129141 l 9.510565162951535,3.0901699437494745 " /></g><g fill-opacity="0.0"><path d="M -6.823599342279795,-4.111546907981564 l 9.510565162951535,3.0901699437494745 " /></g><path d="M -6.9781078394672695,-3.6360186498339875 l 9.510565162951535,3.0901699437494745 " /></g><g fill-opacity="0.0"><g fill-opacity="0.0"><g fill-opacity="0.0"><g fill-opacity="0.0"><path d="M -7.132616336654744,-3.1604903916864107 l 9.510565162951535,3.0901699437494745 " /></g><path d="M -7.287124833842217,-2.684962133538834 l 9.510565162951535,3.0901699437494745 " /></g><g fill-opacity="0.0"><path d="M -7.44163333102969,-2.209433875391257 l 9.510565162951535,3.0901699437494745 " /></g><path d="M -7.596141828217164,-1.7339056172436804 l 9.510565162951535,3.0901699437494745 " /></g><g fill-opacity="0.0"><g fill-opacity="0.0"><path d="M -7.750650325404639,-1.2583773590961036 l 9.510565162951535,3.0901699437494745 " /></g><path d="M -7.905158822592112,-0.7828491009485269 l 9.510565162951535,3.0901699437494745 " /></g><g fill-opacity="0.0"><path d="M -8.059667319779585,-0.3073208428009502 l 9.510565162951535,3.0901699437494745 " /></g><path d="M -8.21417581696706,0.16820741534662664 l 9.510565162951535,3.0901699437494745 " /></g><g fill-opacity="0.0"><g fill-opacity="0.0"><g fill-opacity="0.0"><path d="M -8.368684314154534,0.643735673494203 l 9.510565162951535,3.0901699437494745 " /></g><path d="M -8.523192811342007,1.1192639316417798 l 9.510565162951535,3.0901699437494745 " /></g><g fill-opacity="0.0"><path d="M -8.67770130852948,1.5947921897893567 l 9.510565162951535,3.0901699437494745 " /></g><path d="M -8.832209805716953,2.0703204479369335 l 9.510565162951535,3.0901699437494745 " /></g><g fill-opacity="0.0"><g fill-opacity="0.0"><path d="M -8.986718302904428,2.5458487060845103 l 9.510565162951535,3.0901699437494745 " /></g><path d="M -9.141226800091902,3.021376964232087 l 9.510565162951535,3.0901699437494745 " /></g><g fill-opacity="0.0"><path d="M -9.295735297279375,3.496905222379664 l 9.510565162951535,3.0901699437494745 " /></g><path d="M -9.45024379446685,3.9724334805272408 l 9.510565162951535,3.0901699437494745 " /></g><g fill-opacity="0.0"><g fill-opacity="0.0"><g fill-opacity="0.0"><g fill-opacity="0.0"><path d="M 2.8354729345666354,-2.287451858194768 l -3.090169943749474,9.510565162951535 " /></g><path d="M 2.3599446764190586,-2.4419603553822418 l -3.090169943749474,9.510565162951535 " /></g><g fill-opacity="0.0"><path d="M 1.884416418271482,-2.5964688525697155 l -3.090169943749474,9.510565162951535 " /></g><path d="M 1.4088881601239052,-2.750977349757189 l -3.090169943749474,9.510565162951535 " /></g><g fill-opacity="0.0"><g fill-opacity="0.0"><g fill-opacity="0.0"><g fill-opacity="0.0"><path d="M 0.9333599019763283,-2.905485846944663 l -3.090169943749474,9.510565162951535 " /></g><path d="M 0.4578316438287515,-3.0599943441321367 l -3.090169943749474,9.510565162951535 " /></g><g fill-opacity="0.0"><path d="M -1.76966143188253e-2,-3.2145028413196104 l -3.090169943749474,9.510565162951535 " /></g><path d="M -0.4932248724664021,-3.369011338507084 l -3.090169943749474,9.510565162951535 " /></g><g fill-opacity="0.0"><g fill-opacity="0.0"><path d="M -0.9687531306139785,-3.5235198356945574 l -3.090169943749474,9.510565162951535 " /></g><path d="M -1.4442813887615553,-3.6780283328820316 l -3.090169943749474,9.510565162951535 " /></g><g fill-opacity="0.0"><path d="M -1.9198096469091321,-3.832536830069505 l -3.090169943749474,9.510565162951535 " /></g><path d="M -2.395337905056709,-3.987045327256979 l -3.090169943749474,9.510565162951535 " /></g><g fill-opacity="0.0"><g fill-opacity="0.0"><g fill-opacity="0.0"><path d="M -2.870866163204285,-4.141553824444452 l -3.090169943749474,9.510565162951535 " /></g><path d="M -3.346394421351862,-4.2960623216319265 l -3.090169943749474,9.510565162951535 " /></g><g fill-opacity="0.0"><path d="M -3.8219226794994388,-4.4505708188194 l -3.090169943749474,9.510565162951535 " /></g><path d="M -4.297450937647016,-4.605079316006874 l -3.090169943749474,9.510565162951535 " /></g><g fill-opacity="0.0"><g fill-opacity="0.0"><path d="M -4.772979195794592,-4.759587813194347 l -3.090169943749474,9.510565162951535 " /></g><path d="M -5.248507453942169,-4.914096310381821 l -3.090169943749474,9.510565162951535 " /></g><g fill-opacity="0.0"><path d="M -5.724035712089746,-5.068604807569295 l -3.090169943749474,9.510565162951535 " /></g><path d="M -6.199563970237323,-5.223113304756769 l -3.090169943749474,9.510565162951535 " /></g></g></g></g><g fill="rgb(0,0,0)" fill-opacity="1.0" font-size="4.0em"><text transform="matrix(0.9510565162951535,0.3090169943749474,-0.3090169943749474,0.9510565162951535,-3.227130489710081,0.9999999999999991)" dominant-baseline="middle" text-anchor="middle" stroke="none">G</text></g></g><g fill="rgb(0,0,128)" fill-opacity="1.0" stroke-width="0.0"><g><g><g><g><g><g><path d="M -6.227130489710082,3.499999999999999 l -0.4330127018922193,-0.7499999999999999 l -0.4330127018922194,0.7499999999999999 h 0.8660254037844387 Z" /></g><path d="M -7.0931558934945205,3.499999999999999 l -0.4330127018922193,-0.7499999999999999 l -0.4330127018922194,0.7499999999999999 h 0.8660254037844387 Z" /></g><path d="M -6.660143191602301,2.749999999999999 l -0.4330127018922193,-0.7499999999999999 l -0.4330127018922194,0.7499999999999999 h 0.8660254037844387 Z" /></g><g><g><path d="M -7.959181297278957,3.499999999999999 l -0.4330127018922193,-0.7499999999999999 l -0.4330127018922194,0.7499999999999999 h 0.8660254037844387 Z" /></g><path d="M -8.825206701063397,3.499999999999999 l -0.4330127018922193,-0.7499999999999999 l -0.4330127018922194,0.7499999999999999 h 0.8660254037844387 Z" /></g><path d="M -8.392193999171178,2.749999999999999 l -0.4330127018922193,-0.7499999999999999 l -0.4330127018922194,0.7499999999999999 h 0.8660254037844387 Z" /></g><g><g><path d="M -7.0931558934945205,1.9999999999999996 l -0.4330127018922193,-0.7499999999999999 l -0.4330127018922194,0.7499999999999999 h 0.8660254037844387 Z" /></g><path d="M -7.959181297278959,1.9999999999999996 l -0.4330127018922193,-0.7499999999999999 l -0.4330127018922194,0.7499999999999999 h 0.8660254037844387 Z" /></g><path d="M -7.526168595386739,1.2499999999999996 l -0.4330127018922193,-0.7499999999999999 l -0.4330127018922194,0.7499999999999999 h 0.8660254037844387 Z" /></g><g><g><g><g><path d="M -9.691232104847836,3.499999999999999 l -0.4330127018922193,-0.7499999999999999 l -0.4330127018922194,0.7499999999999999 h 0.8660254037844387 Z" /></g><path d="M -10.557257508632276,3.499999999999999 l -0.4330127018922193,-0.7499999999999999 l -0.4330127018922194,0.7499999999999999 h 0.8660254037844387 Z" /></g><path d="M -10.124244806740057,2.749999999999999 l -0.4330127018922193,-0.7499999999999999 l -0.4330127018922194,0.7499999999999999 h 0.8660254037844387 Z" /></g><g><g><path d="M -11.423282912416713,3.499999999999999 l -0.4330127018922193,-0.7499999999999999 l -0.4330127018922194,0.7499999999999999 h 0.8660254037844387 Z" /></g><path d="M -12.289308316201152,3.499999999999999 l -0.4330127018922193,-0.7499999999999999 l -0.4330127018922194,0.7499999999999999 h 0.8660254037844387 Z" /></g><path d="M -11.856295614308934,2.749999999999999 l -0.4330127018922193,-0.7499999999999999 l -0.4330127018922194,0.7499999999999999 h 0.8660254037844387 Z" /></g><g><g><path d="M -10.557257508632274,1.9999999999999996 l -0.4330127018922193,-0.7499999999999999 l -0.4330127018922194,0.7499999999999999 h 0.8660254037844387 Z" /></g><path d="M -11.423282912416713,1.9999999999999996 l -0.4330127018922193,-0.7499999999999999 l -0.4330127018922194,0.7499999999999999 h 0.8660254037844387 Z" /></g><path d="M -10.990270210524494,1.2499999999999996 l -0.4330127018922193,-0.7499999999999999 l -0.4330127018922194,0.7499999999999999 h 0.8660254037844387 Z" /></g><g><g><g><g><path d="M -7.959181297278959,0.49999999999999956 l -0.4330127018922193,-0.7499999999999999 l -0.4330127018922194,0.7499999999999999 h 0.8660254037844387 Z" /></g><path d="M -8.825206701063399,0.49999999999999956 l -0.4330127018922193,-0.7499999999999999 l -0.4330127018922194,0.7499999999999999 h 0.8660254037844387 Z" /></g><path d="M -8.39219399917118,-0.25000000000000033 l -0.4330127018922193,-0.7499999999999999 l -0.4330127018922194,0.7499999999999999 h 0.8660254037844387 Z" /></g><g><g><path d="M -9.691232104847836,0.49999999999999956 l -0.4330127018922193,-0.7499999999999999 l -0.4330127018922194,0.7499999999999999 h 0.8660254037844387 Z" /></g><path d="M -10.557257508632276,0.49999999999999956 l -0.4330127018922193,-0.7499999999999999 l -0.4330127018922194,0.7499999999999999 h 0.8660254037844387 Z" /></g><path d="M -10.124244806740057,-0.25000000000000033 l -0.4330127018922193,-0.7499999999999999 l -0.4330127018922194,0.7499999999999999 h 0.8660254037844387 Z" /></g><g><g><path d="M -8.825206701063397,-1.0 l -0.4330127018922193,-0.7499999999999999 l -0.4330127018922194,0.7499999999999999 h 0.8660254037844387 Z" /></g><path d="M -9.691232104847836,-1.0 l -0.4330127018922193,-0.7499999999999999 l -0.4330127018922194,0.7499999999999999 h 0.8660254037844387 Z" /></g><path d="M -9.258219402955618,-1.75 l -0.4330127018922193,-0.7499999999999999 l -0.4330127018922194,0.7499999999999999 h 0.8660254037844387 Z" /></g></g><g stroke="rgb(0,0,255)" stroke-opacity="1.0" fill="rgb(255,255,0)" fill-opacity="1.0" stroke-width="5.0e-2"><g><path d="M -13.655333719985592,3.0999999999999988 v -3.2 c 0.0,-0.2209138999323174 -0.17908610006768258,-0.4 -0.3999999999999999 -0.4h -1.2 c -0.2209138999323174,-1.3527075021963559e-17 -0.4,0.17908610006768255 -0.4 0.3999999999999999v 3.2 c -2.7054150043927117e-17,0.2209138999323174 0.17908610006768255,0.4 0.3999999999999999 0.40000000000000013h 1.2000000000000002 c 0.2209138999323174,4.058122506589068e-17 0.4,-0.17908610006768252 0.3999999999999999 -0.40000000000000036Z" /></g><g></g><g><path d="M -13.655333719985592,-2.000000000000001 c 0.0,-0.5522847498307935 -0.44771525016920644,-1.0 -0.9999999999999998 -1.0c -0.5522847498307935,-3.3817687554908895e-17 -1.0,0.4477152501692064 -1.0 0.9999999999999997c -6.763537510981779e-17,0.5522847498307935 0.4477152501692063,1.0 0.9999999999999996 1.0c 0.5522847498307935,1.0145306266472669e-16 1.0,-0.44771525016920627 1.0000000000000002 -0.9999999999999997Z" /></g></g><g fill="rgb(255,0,0)" fill-opacity="1.0" stroke-width="0.0"><path d="M -16.65533371998559,1.5 c 0.0,-1.104569499661587 -0.8954305003384129,-2.0 -1.9999999999999996 -2.0c -1.104569499661587,-6.763537510981779e-17 -2.0,0.8954305003384128 -2.0 1.9999999999999993c -1.3527075021963558e-16,1.104569499661587 0.8954305003384126,2.0 1.9999999999999991 2.0c 1.104569499661587,2.0290612532945337e-16 2.0,-0.8954305003384125 2.0000000000000004 -1.9999999999999993ZM -16.955333719985592,-3.1999999999999993 c 0.0,0.165685424949238 -0.13431457505076197,0.29999999999999993 -0.3 0.2999999999999999c -0.165685424949238,0.0 -0.2999999999999999,-0.13431457505076197 -0.2999999999999999 -0.3c 0.0,-0.16568542494923796 0.13431457505076197,-0.2999999999999999 0.3 -0.2999999999999999c 0.16568542494923802,0.0 0.29999999999999993,0.13431457505076197 0.2999999999999999 0.3ZM -16.955333719985592,-2.3999999999999995 c 0.0,0.165685424949238 -0.13431457505076197,0.29999999999999993 -0.3 0.2999999999999999c -0.165685424949238,0.0 -0.2999999999999999,-0.13431457505076197 -0.2999999999999999 -0.3c 0.0,-0.16568542494923796 0.13431457505076197,-0.2999999999999999 0.3 -0.2999999999999999c 0.16568542494923802,0.0 0.29999999999999993,0.13431457505076197 0.2999999999999999 0.3ZM -16.955333719985592,-1.5999999999999996 c 0.0,0.165685424949238 -0.13431457505076197,0.29999999999999993 -0.3 0.2999999999999999c -0.165685424949238,0.0 -0.2999999999999999,-0.13431457505076197 -0.2999999999999999 -0.3c 0.0,-0.16568542494923796 0.13431457505076197,-0.2999999999999999 0.3 -0.2999999999999999c 0.16568542494923802,0.0 0.29999999999999993,0.13431457505076197 0.2999999999999999 0.3ZM -16.955333719985592,-0.7999999999999998 c 0.0,0.165685424949238 -0.13431457505076197,0.29999999999999993 -0.3 0.2999999999999999c -0.165685424949238,0.0 -0.2999999999999999,-0.13431457505076197 -0.2999999999999999 -0.3c 0.0,-0.16568542494923796 0.13431457505076197,-0.2999999999999999 0.3 -0.2999999999999999c 0.16568542494923802,0.0 0.29999999999999993,0.13431457505076197 0.2999999999999999 0.3ZM -16.955333719985592,0.0 c 0.0,0.165685424949238 -0.13431457505076197,0.29999999999999993 -0.3 0.2999999999999999c -0.165685424949238,0.0 -0.2999999999999999,-0.13431457505076197 -0.2999999999999999 -0.3c 0.0,-0.16568542494923796 0.13431457505076197,-0.2999999999999999 0.3 -0.2999999999999999c 0.16568542494923802,0.0 0.29999999999999993,0.13431457505076197 0.2999999999999999 0.3ZM -16.955333719985592,0.7999999999999998 c 0.0,0.165685424949238 -0.13431457505076197,0.29999999999999993 -0.3 0.2999999999999999c -0.165685424949238,0.0 -0.2999999999999999,-0.13431457505076197 -0.2999999999999999 -0.3c 0.0,-0.16568542494923796 0.13431457505076197,-0.2999999999999999 0.3 -0.2999999999999999c 0.16568542494923802,0.0 0.29999999999999993,0.13431457505076197 0.2999999999999999 0.3ZM -16.955333719985592,1.5999999999999996 c 0.0,0.165685424949238 -0.13431457505076197,0.29999999999999993 -0.3 0.2999999999999999c -0.165685424949238,0.0 -0.2999999999999999,-0.13431457505076197 -0.2999999999999999 -0.3c 0.0,-0.16568542494923796 0.13431457505076197,-0.2999999999999999 0.3 -0.2999999999999999c 0.16568542494923802,0.0 0.29999999999999993,0.13431457505076197 0.2999999999999999 0.3ZM -16.955333719985592,2.3999999999999995 c 0.0,0.165685424949238 -0.13431457505076197,0.29999999999999993 -0.3 0.2999999999999999c -0.165685424949238,0.0 -0.2999999999999999,-0.13431457505076197 -0.2999999999999999 -0.3c 0.0,-0.16568542494923796 0.13431457505076197,-0.2999999999999999 0.3 -0.2999999999999999c 0.16568542494923802,0.0 0.29999999999999993,0.13431457505076197 0.2999999999999999 0.3ZM -16.955333719985592,3.1999999999999993 c 0.0,0.165685424949238 -0.13431457505076197,0.29999999999999993 -0.3 0.2999999999999999c -0.165685424949238,0.0 -0.2999999999999999,-0.13431457505076197 -0.2999999999999999 -0.3c 0.0,-0.16568542494923796 0.13431457505076197,-0.2999999999999999 0.3 -0.2999999999999999c 0.16568542494923802,0.0 0.29999999999999993,0.13431457505076197 0.2999999999999999 0.3ZM -16.15533371998559,-3.1999999999999993 c 0.0,0.165685424949238 -0.13431457505076197,0.29999999999999993 -0.3 0.2999999999999999c -0.165685424949238,0.0 -0.2999999999999999,-0.13431457505076197 -0.2999999999999999 -0.3c 0.0,-0.16568542494923796 0.13431457505076197,-0.2999999999999999 0.3 -0.2999999999999999c 0.16568542494923802,0.0 0.29999999999999993,0.13431457505076197 0.2999999999999999 0.3ZM -16.15533371998559,-2.3999999999999995 c 0.0,0.165685424949238 -0.13431457505076197,0.29999999999999993 -0.3 0.2999999999999999c -0.165685424949238,0.0 -0.2999999999999999,-0.13431457505076197 -0.2999999999999999 -0.3c 0.0,-0.16568542494923796 0.13431457505076197,-0.2999999999999999 0.3 -0.2999999999999999c 0.16568542494923802,0.0 0.29999999999999993,0.13431457505076197 0.2999999999999999 0.3ZM -16.15533371998559,-1.5999999999999996 c 0.0,0.165685424949238 -0.13431457505076197,0.29999999999999993 -0.3 0.2999999999999999c -0.165685424949238,0.0 -0.2999999999999999,-0.13431457505076197 -0.2999999999999999 -0.3c 0.0,-0.16568542494923796 0.13431457505076197,-0.2999999999999999 0.3 -0.2999999999999999c 0.16568542494923802,0.0 0.29999999999999993,0.13431457505076197 0.2999999999999999 0.3ZM -16.15533371998559,-0.7999999999999998 c 0.0,0.165685424949238 -0.13431457505076197,0.29999999999999993 -0.3 0.2999999999999999c -0.165685424949238,0.0 -0.2999999999999999,-0.13431457505076197 -0.2999999999999999 -0.3c 0.0,-0.16568542494923796 0.13431457505076197,-0.2999999999999999 0.3 -0.2999999999999999c 0.16568542494923802,0.0 0.29999999999999993,0.13431457505076197 0.2999999999999999 0.3ZM -16.15533371998559,0.0 c 0.0,0.165685424949238 -0.13431457505076197,0.29999999999999993 -0.3 0.2999999999999999c -0.165685424949238,0.0 -0.2999999999999999,-0.13431457505076197 -0.2999999999999999 -0.3c 0.0,-0.16568542494923796 0.13431457505076197,-0.2999999999999999 0.3 -0.2999999999999999c 0.16568542494923802,0.0 0.29999999999999993,0.13431457505076197 0.2999999999999999 0.3ZM -16.15533371998559,0.7999999999999998 c 0.0,0.165685424949238 -0.13431457505076197,0.29999999999999993 -0.3 0.2999999999999999c -0.165685424949238,0.0 -0.2999999999999999,-0.13431457505076197 -0.2999999999999999 -0.3c 0.0,-0.16568542494923796 0.13431457505076197,-0.2999999999999999 0.3 -0.2999999999999999c 0.16568542494923802,0.0 0.29999999999999993,0.13431457505076197 0.2999999999999999 0.3ZM -16.15533371998559,1.5999999999999996 c 0.0,0.165685424949238 -0.13431457505076197,0.29999999999999993 -0.3 0.2999999999999999c -0.165685424949238,0.0 -0.2999999999999999,-0.13431457505076197 -0.2999999999999999 -0.3c 0.0,-0.16568542494923796 0.13431457505076197,-0.2999999999999999 0.3 -0.2999999999999999c 0.16568542494923802,0.0 0.29999999999999993,0.13431457505076197 0.2999999999999999 0.3ZM -16.15533371998559,2.3999999999999995 c 0.0,0.165685424949238 -0.13431457505076197,0.29999999999999993 -0.3 0.2999999999999999c -0.165685424949238,0.0 -0.2999999999999999,-0.13431457505076197 -0.2999999999999999 -0.3c 0.0,-0.16568542494923796 0.13431457505076197,-0.2999999999999999 0.3 -0.2999999999999999c 0.16568542494923802,0.0 0.29999999999999993,0.13431457505076197 0.2999999999999999 0.3ZM -16.15533371998559,3.1999999999999993 c 0.0,0.165685424949238 -0.13431457505076197,0.29999999999999993 -0.3 0.2999999999999999c -0.165685424949238,0.0 -0.2999999999999999,-0.13431457505076197 -0.2999999999999999 -0.3c 0.0,-0.16568542494923796 0.13431457505076197,-0.2999999999999999 0.3 -0.2999999999999999c 0.16568542494923802,0.0 0.29999999999999993,0.13431457505076197 0.2999999999999999 0.3Z" /></g></g></g></g></svg>