<svg xmlns="http://www.w3.org/2000/svg" height="135.8025" stroke-opacity="1" viewBox="0 0 400 136" font-size="1" width="400.0000" xmlns:xlink="http://www.w3.org/1999/xlink" stroke="rgb(0,0,0)" version="1.1"><defs></defs><g stroke-linejoin="miter" stroke-opacity="1.0" fill-opacity="0.0" stroke="rgb(0,0,0)" stroke-width="0.9322745317068014" fill="rgb(0,0,0)" stroke-linecap="butt" stroke-miterlimit="10.0"><path d="M 205.5556,108.0247 l 6.1728,0.0000 l 0.0000,-6.1728 l 6.1728,0.0000 l 0.0000,6.1728 l 6.1728,0.0000 l 0.0000,-6.1728 l -6.1728,-0.0000 l 0.0000,-6.1728 l 6.1728,0.0000 l 0.0000,-6.1728 l 6.1728,0.0000 l 0.0000,-6.1728 l 6.1728,0.0000 l 0.0000,6.1728 l 6.1728,0.0000 l 0.0000,6.1728 l 6.1728,0.0000 l 0.0000,6.1728 l -6.1728,0.0000 l 0.0000,6.1728 l 6.1728,0.0000 l 0.0000,-6.1728 l 6.1728,0.0000 l 0.0000,6.1728 l 6.1728,0.0000 l 0.0000,-6.1728 l -6.1728,-0.0000 l 0.0000,-6.1728 h 6.1728 l 0.0000,-6.1728 l -6.1728,-0.0000 l -0.0000,6.1728 l -6.1728,-0.0000 l 0.0000,-6.1728 l -6.1728,-0.0000 l 0.0000,-6.1728 l -6.1728,-0.0000 l 0.0000,-6.1728 h 6.1728 l 0.0000,-6.1728 h 6.1728 l 0.0000,-6.1728 h 6.1728 l 0.0000,6.1728 h 6.1728 l 0.0000,-6.1728 l -6.1728,-0.0000 l 0.0000,-6.1728 h 6.1728 l 0.0000,-6.1728 l 6.1728,0.0000 l 0.0000,-6.1728 l 6.1728,0.0000 l 0.0000,6.1728 l 6.1728,0.0000 l 0.0000,-6.1728 l -6.1728,-0.0000 l 0.0000,-6.1728 l 6.1728,0.0000 l 0.0000,-6.1728 l 6.1728,0.0000 l 0.0000,-6.1728 l 6.1728,0.0000 l 0.0000,6.1728 l 6.1728,0.0000 l 0.0000,6.1728 l 6.1728,0.0000 l 0.0000,6.1728 l -6.1728,0.0000 l 0.0000,6.1728 l 6.1728,0.0000 l 0.0000,-6.1728 l 6.1728,0.0000 l 0.0000,6.1728 l 6.1728,0.0000 l 0.0000,6.1728 h 6.1728 l 0.0000,6.1728 l -6.1728,0.0000 l 0.0000,6.1728 h 6.1728 l 0.0000,-6.1728 h 6.1728 l 0.0000,6.1728 h 6.1728 l 0.0000,6.1728 h 6.1728 l 0.0000,6.1728 l -6.1728,0.0000 l 0.0000,6.1728 l -6.1728,0.0000 l 0.0000,6.1728 l -6.1728,0.0000 l -0.0000,-6.1728 l -6.1728,0.0000 l 0.0000,6.1728 h 6.1728 l 0.0000,6.1728 l -6.1728,0.0000 l 0.0000,6.1728 l 6.1728,0.0000 l 0.0000,-6.1728 l 6.1728,0.0000 l 0.0000,6.1728 l 6.1728,0.0000 l 0.0000,-6.1728 l -6.1728,-0.0000 l 0.0000,-6.1728 l 6.1728,0.0000 l 0.0000,-6.1728 l 6.1728,0.0000 l 0.0000,-6.1728 l 6.1728,0.0000 l 0.0000,6.1728 l 6.1728,0.0000 l 0.0000,6.1728 l 6.1728,0.0000 l 0.0000,6.1728 l -6.1728,0.0000 l 0.0000,6.1728 l 6.1728,0.0000 l 0.0000,-6.1728 l 6.1728,0.0000 l 0.0000,6.1728 l 6.1728,0.0000 "/></g><g stroke-linejoin="miter" stroke-opacity="1.0" fill-opacity="0.0" stroke="rgb(0,0,0)" stroke-width="0.9322745317068014" fill="rgb(0,0,0)" stroke-linecap="butt" stroke-miterlimit="10.0"><path d="M 27.7778,108.0247 h 55.5556 l 0.0000,-55.5556 h 55.5556 l 0.0000,55.5556 h 55.5556 "/></g></svg>