<svg xmlns="http://www.w3.org/2000/svg" height="400.0000" stroke-opacity="1" viewBox="0 0 469 400" font-size="1" width="469.2116" xmlns:xlink="http://www.w3.org/1999/xlink" stroke="rgb(0,0,0)" version="1.1"><defs></defs><g stroke-linejoin="miter" stroke-opacity="1.0" fill-opacity="0.0" stroke="rgb(0,0,0)" stroke-width="4.0" fill="rgb(0,0,0)" stroke-linecap="butt" stroke-miterlimit="10.0"><path d="M 21.3278,381.8182 h 6.6649 l 3.3325,-5.7720 l -3.3325,-5.7720 l 3.3325,-5.7720 h 6.6649 l 3.3325,5.7720 l -3.3325,5.7720 l 3.3325,5.7720 h 6.6649 l 3.3325,-5.7720 h 6.6649 l 3.3325,5.7720 h 6.6649 l 3.3325,-5.7720 l -3.3325,-5.7720 l -6.6649,-0.0000 l -3.3325,-5.7720 l 3.3325,-5.7720 l -3.3325,-5.7720 l -6.6649,-0.0000 l -3.3325,5.7720 l -6.6649,-0.0000 l -3.3325,-5.7720 l 3.3325,-5.7720 l 6.6649,-0.0000 l 3.3325,-5.7720 l -3.3325,-5.7720 l 3.3325,-5.7720 l 6.6649,-0.0000 l 3.3325,5.7720 l 6.6649,-0.0000 l 3.3325,-5.7720 l -3.3325,-5.7720 l -6.6649,-0.0000 l -3.3325,-5.7720 l 3.3325,-5.7720 l 6.6649,-0.0000 l 3.3325,-5.7720 l -3.3325,-5.7720 l 3.3325,-5.7720 l 6.6649,-0.0000 l 3.3325,5.7720 l -3.3325,5.7720 l 3.3325,5.7720 l 6.6649,-0.0000 l 3.3325,5.7720 l -3.3325,5.7720 l -6.6649,0.0000 l -3.3325,5.7720 l 3.3325,5.7720 l 6.6649,-0.0000 l 3.3325,-5.7720 l 6.6649,-0.0000 l 3.3325,5.7720 l -3.3325,5.7720 l 3.3325,5.7720 l 6.6649,-0.0000 l 3.3325,5.7720 l -3.3325,5.7720 l -6.6649,0.0000 l -3.3325,-5.7720 l -6.6649,0.0000 l -3.3325,5.7720 l 3.3325,5.7720 l -3.3325,5.7720 l -6.6649,0.0000 l -3.3325,5.7720 l 3.3325,5.7720 l 6.6649,-0.0000 l 3.3325,-5.7720 l 6.6649,-0.0000 l 3.3325,5.7720 l 6.6649,-0.0000 l 3.3325,-5.7720 l -3.3325,-5.7720 l 3.3325,-5.7720 l 6.6649,-0.0000 l 3.3325,5.7720 l -3.3325,5.7720 l 3.3325,5.7720 l 6.6649,-0.0000 l 3.3325,-5.7720 l 6.6649,-0.0000 l 3.3325,5.7720 l 6.6649,-0.0000 l 3.3325,-5.7720 l -3.3325,-5.7720 l -6.6649,-0.0000 l -3.3325,-5.7720 l 3.3325,-5.7720 l 6.6649,-0.0000 l 3.3325,-5.7720 l -3.3325,-5.7720 l 3.3325,-5.7720 l 6.6649,-0.0000 l 3.3325,5.7720 l -3.3325,5.7720 l 3.3325,5.7720 l 6.6649,-0.0000 l 3.3325,5.7720 l -3.3325,5.7720 l -6.6649,0.0000 l -3.3325,5.7720 l 3.3325,5.7720 l 6.6649,-0.0000 l 3.3325,-5.7720 l 6.6649,-0.0000 l 3.3325,5.7720 l 6.6649,-0.0000 l 3.3325,-5.7720 l -3.3325,-5.7720 l 3.3325,-5.7720 l 6.6649,-0.0000 l 3.3325,5.7720 l -3.3325,5.7720 l 3.3325,5.7720 l 6.6649,-0.0000 l 3.3325,-5.7720 l 6.6649,-0.0000 l 3.3325,5.7720 l 6.6649,-0.0000 l 3.3325,-5.7720 l -3.3325,-5.7720 l -6.6649,-0.0000 l -3.3325,-5.7720 l 3.3325,-5.7720 l -3.3325,-5.7720 l -6.6649,-0.0000 l -3.3325,5.7720 l -6.6649,-0.0000 l -3.3325,-5.7720 l 3.3325,-5.7720 l 6.6649,-0.0000 l 3.3325,-5.7720 l -3.3325,-5.7720 l -6.6649,-0.0000 l -3.3325,-5.7720 l 3.3325,-5.7720 l -3.3325,-5.7720 l -6.6649,-0.0000 l -3.3325,5.7720 l 3.3325,5.7720 l -3.3325,5.7720 l -6.6649,-0.0000 l -3.3325,-5.7720 l -6.6649,-0.0000 l -3.3325,5.7720 l -6.6649,-0.0000 l -3.3325,-5.7720 l 3.3325,-5.7720 l 6.6649,-0.0000 l 3.3325,-5.7720 l -3.3325,-5.7720 l 3.3325,-5.7720 l 6.6649,-0.0000 l 3.3325,5.7720 l 6.6649,-0.0000 l 3.3325,-5.7720 l -3.3325,-5.7720 l -6.6649,-0.0000 l -3.3325,-5.7720 l 3.3325,-5.7720 l -3.3325,-5.7720 l -6.6649,-0.0000 l -3.3325,5.7720 l -6.6649,-0.0000 l -3.3325,-5.7720 l 3.3325,-5.7720 l 6.6649,-0.0000 l 3.3325,-5.7720 l -3.3325,-5.7720 l -6.6649,-0.0000 l -3.3325,-5.7720 l 3.3325,-5.7720 l -3.3325,-5.7720 l -6.6649,-0.0000 l -3.3325,5.7720 l 3.3325,5.7720 l -3.3325,5.7720 l -6.6649,-0.0000 l -3.3325,5.7720 l 3.3325,5.7720 l 6.6649,0.0000 l 3.3325,5.7720 l -3.3325,5.7720 l -6.6649,-0.0000 l -3.3325,-5.7720 l -6.6649,-0.0000 l -3.3325,5.7720 l -6.6649,-0.0000 l -3.3325,-5.7720 l 3.3325,-5.7720 l -3.3325,-5.7720 l -6.6649,-0.0000 l -3.3325,5.7720 l 3.3325,5.7720 l -3.3325,5.7720 l -6.6649,-0.0000 l -3.3325,-5.7720 l -6.6649,-0.0000 l -3.3325,5.7720 l -6.6649,-0.0000 l -3.3325,-5.7720 l 3.3325,-5.7720 l 6.6649,-0.0000 l 3.3325,-5.7720 l -3.3325,-5.7720 l 3.3325,-5.7720 l 6.6649,-0.0000 l 3.3325,5.7720 l 6.6649,-0.0000 l 3.3325,-5.7720 l -3.3325,-5.7720 l -6.6649,-0.0000 l -3.3325,-5.7720 l 3.3325,-5.7720 l 6.6649,-0.0000 l 3.3325,-5.7720 l -3.3325,-5.7720 l 3.3325,-5.7720 l 6.6649,-0.0000 l 3.3325,5.7720 l -3.3325,5.7720 l 3.3325,5.7720 l 6.6649,-0.0000 l 3.3325,-5.7720 l 6.6649,-0.0000 l 3.3325,5.7720 l 6.6649,-0.0000 l 3.3325,-5.7720 l -3.3325,-5.7720 l -6.6649,-0.0000 l -3.3325,-5.7720 l 3.3325,-5.7720 l -3.3325,-5.7720 l -6.6649,-0.0000 l -3.3325,5.7720 l -6.6649,-0.0000 l -3.3325,-5.7720 l 3.3325,-5.7720 l 6.6649,-0.0000 l 3.3325,-5.7720 l -3.3325,-5.7720 l 3.3325,-5.7720 l 6.6649,-0.0000 l 3.3325,5.7720 l 6.6649,-0.0000 l 3.3325,-5.7720 l -3.3325,-5.7720 l -6.6649,-0.0000 l -3.3325,-5.7720 l 3.3325,-5.7720 l 6.6649,-0.0000 l 3.3325,-5.7720 l -3.3325,-5.7720 l 3.3325,-5.7720 l 6.6649,-0.0000 l 3.3325,5.7720 l -3.3325,5.7720 l 3.3325,5.7720 l 6.6649,-0.0000 l 3.3325,5.7720 l -3.3325,5.7720 l -6.6649,0.0000 l -3.3325,5.7720 l 3.3325,5.7720 l 6.6649,-0.0000 l 3.3325,-5.7720 l 6.6649,-0.0000 l 3.3325,5.7720 l 6.6649,-0.0000 l 3.3325,-5.7720 l -3.3325,-5.7720 l 3.3325,-5.7720 l 6.6649,-0.0000 l 3.3325,5.7720 l -3.3325,5.7720 l 3.3325,5.7720 l 6.6649,-0.0000 l 3.3325,-5.7720 l 6.6649,-0.0000 l 3.3325,5.7720 l 6.6649,-0.0000 l 3.3325,-5.7720 l -3.3325,-5.7720 l -6.6649,-0.0000 l -3.3325,-5.7720 l 3.3325,-5.7720 l -3.3325,-5.7720 l -6.6649,-0.0000 l -3.3325,5.7720 l -6.6649,-0.0000 l -3.3325,-5.7720 l 3.3325,-5.7720 l 6.6649,-0.0000 l 3.3325,-5.7720 l -3.3325,-5.7720 l -6.6649,-0.0000 l -3.3325,-5.7720 l 3.3325,-5.7720 l -3.3325,-5.7720 l -6.6649,-0.0000 l -3.3325,5.7720 l 3.3325,5.7720 l -3.3325,5.7720 l -6.6649,-0.0000 l -3.3325,-5.7720 l -6.6649,-0.0000 l -3.3325,5.7720 l -6.6649,-0.0000 l -3.3325,-5.7720 l 3.3325,-5.7720 l 6.6649,-0.0000 l 3.3325,-5.7720 l -3.3325,-5.7720 l 3.3325,-5.7720 l 6.6649,-0.0000 l 3.3325,5.7720 l 6.6649,-0.0000 l 3.3325,-5.7720 l -3.3325,-5.7720 l -6.6649,-0.0000 l -3.3325,-5.7720 l 3.3325,-5.7720 l 6.6649,-0.0000 l 3.3325,-5.7720 l -3.3325,-5.7720 l 3.3325,-5.7720 l 6.6649,-0.0000 l 3.3325,5.7720 l -3.3325,5.7720 l 3.3325,5.7720 l 6.6649,-0.0000 l 3.3325,-5.7720 l 6.6649,-0.0000 l 3.3325,5.7720 l 6.6649,-0.0000 l 3.3325,-5.7720 l -3.3325,-5.7720 l -6.6649,-0.0000 l -3.3325,-5.7720 l 3.3325,-5.7720 l -3.3325,-5.7720 l -6.6649,-0.0000 l -3.3325,5.7720 l -6.6649,-0.0000 l -3.3325,-5.7720 l 3.3325,-5.7720 l 6.6649,-0.0000 l 3.3325,-5.7720 l -3.3325,-5.7720 l 3.3325,-5.7720 l 6.6649,-0.0000 l 3.3325,5.7720 l 6.6649,-0.0000 l 3.3325,-5.7720 l -3.3325,-5.7720 l -6.6649,-0.0000 l -3.3325,-5.7720 l 3.3325,-5.7720 l 6.6649,-0.0000 l 3.3325,-5.7720 l -3.3325,-5.7720 l 3.3325,-5.7720 l 6.6649,-0.0000 l 3.3325,5.7720 l -3.3325,5.7720 l 3.3325,5.7720 l 6.6649,-0.0000 l 3.3325,5.7720 l -3.3325,5.7720 l -6.6649,0.0000 l -3.3325,5.7720 l 3.3325,5.7720 l 6.6649,-0.0000 l 3.3325,-5.7720 l 6.6649,-0.0000 l 3.3325,5.7720 l -3.3325,5.7720 l 3.3325,5.7720 l 6.6649,-0.0000 l 3.3325,5.7720 l -3.3325,5.7720 l -6.6649,0.0000 l -3.3325,-5.7720 l -6.6649,0.0000 l -3.3325,5.7720 l 3.3325,5.7720 l -3.3325,5.7720 l -6.6649,0.0000 l -3.3325,5.7720 l 3.3325,5.7720 l 6.6649,-0.0000 l 3.3325,-5.7720 l 6.6649,-0.0000 l 3.3325,5.7720 l 6.6649,-0.0000 l 3.3325,-5.7720 l -3.3325,-5.7720 l 3.3325,-5.7720 l 6.6649,-0.0000 l 3.3325,5.7720 l -3.3325,5.7720 l 3.3325,5.7720 l 6.6649,-0.0000 l 3.3325,5.7720 l -3.3325,5.7720 l -6.6649,0.0000 l -3.3325,5.7720 l 3.3325,5.7720 l 6.6649,-0.0000 l 3.3325,-5.7720 l 6.6649,-0.0000 l 3.3325,5.7720 l -3.3325,5.7720 l 3.3325,5.7720 l 6.6649,-0.0000 l 3.3325,5.7720 l -3.3325,5.7720 l -6.6649,0.0000 l -3.3325,-5.7720 l -6.6649,0.0000 l -3.3325,5.7720 l -6.6649,0.0000 l -3.3325,-5.7720 l 3.3325,-5.7720 l -3.3325,-5.7720 l -6.6649,0.0000 l -3.3325,5.7720 l 3.3325,5.7720 l -3.3325,5.7720 l -6.6649,0.0000 l -3.3325,5.7720 l 3.3325,5.7720 l 6.6649,-0.0000 l 3.3325,5.7720 l -3.3325,5.7720 l -6.6649,0.0000 l -3.3325,-5.7720 l -6.6649,0.0000 l -3.3325,5.7720 l 3.3325,5.7720 l -3.3325,5.7720 l -6.6649,0.0000 l -3.3325,5.7720 l 3.3325,5.7720 l 6.6649,-0.0000 l 3.3325,-5.7720 l 6.6649,-0.0000 l 3.3325,5.7720 l 6.6649,-0.0000 l 3.3325,-5.7720 l -3.3325,-5.7720 l 3.3325,-5.7720 l 6.6649,-0.0000 l 3.3325,5.7720 l -3.3325,5.7720 l 3.3325,5.7720 l 6.6649,-0.0000 l 3.3325,-5.7720 l 6.6649,-0.0000 l 3.3325,5.7720 l 6.6649,-0.0000 l 3.3325,-5.7720 l -3.3325,-5.7720 l -6.6649,-0.0000 l -3.3325,-5.7720 l 3.3325,-5.7720 l 6.6649,-0.0000 l 3.3325,-5.7720 l -3.3325,-5.7720 l 3.3325,-5.7720 l 6.6649,-0.0000 l 3.3325,5.7720 l -3.3325,5.7720 l 3.3325,5.7720 l 6.6649,-0.0000 l 3.3325,5.7720 l -3.3325,5.7720 l -6.6649,0.0000 l -3.3325,5.7720 l 3.3325,5.7720 l 6.6649,-0.0000 l 3.3325,-5.7720 l 6.6649,-0.0000 l 3.3325,5.7720 l -3.3325,5.7720 l 3.3325,5.7720 l 6.6649,-0.0000 l 3.3325,5.7720 l -3.3325,5.7720 l -6.6649,0.0000 l -3.3325,-5.7720 l -6.6649,0.0000 l -3.3325,5.7720 l 3.3325,5.7720 l -3.3325,5.7720 l -6.6649,0.0000 l -3.3325,5.7720 l 3.3325,5.7720 l 6.6649,-0.0000 l 3.3325,-5.7720 l 6.6649,-0.0000 l 3.3325,5.7720 l 6.6649,-0.0000 l 3.3325,-5.7720 l -3.3325,-5.7720 l 3.3325,-5.7720 l 6.6649,-0.0000 l 3.3325,5.7720 l -3.3325,5.7720 l 3.3325,5.7720 l 6.6649,-0.0000 l 3.3325,5.7720 l -3.3325,5.7720 l -6.6649,0.0000 l -3.3325,5.7720 l 3.3325,5.7720 l 6.6649,-0.0000 l 3.3325,-5.7720 l 6.6649,-0.0000 l 3.3325,5.7720 l -3.3325,5.7720 l 3.3325,5.7720 l 6.6649,-0.0000 l 3.3325,5.7720 l -3.3325,5.7720 l -6.6649,0.0000 l -3.3325,-5.7720 l -6.6649,0.0000 l -3.3325,5.7720 l -6.6649,0.0000 l -3.3325,-5.7720 l 3.3325,-5.7720 l -3.3325,-5.7720 l -6.6649,0.0000 l -3.3325,5.7720 l 3.3325,5.7720 l -3.3325,5.7720 l -6.6649,0.0000 l -3.3325,-5.7720 l -6.6649,0.0000 l -3.3325,5.7720 l -6.6649,0.0000 l -3.3325,-5.7720 l 3.3325,-5.7720 l 6.6649,-0.0000 l 3.3325,-5.7720 l -3.3325,-5.7720 l -6.6649,0.0000 l -3.3325,-5.7720 l 3.3325,-5.7720 l -3.3325,-5.7720 l -6.6649,0.0000 l -3.3325,5.7720 l 3.3325,5.7720 l -3.3325,5.7720 l -6.6649,0.0000 l -3.3325,5.7720 l 3.3325,5.7720 l 6.6649,-0.0000 l 3.3325,5.7720 l -3.3325,5.7720 l -6.6649,0.0000 l -3.3325,-5.7720 l -6.6649,0.0000 l -3.3325,5.7720 l 3.3325,5.7720 l -3.3325,5.7720 l -6.6649,0.0000 l -3.3325,5.7720 l 3.3325,5.7720 l 6.6649,-0.0000 l 3.3325,-5.7720 l 6.6649,-0.0000 l 3.3325,5.7720 l -3.3325,5.7720 l 3.3325,5.7720 l 6.6649,-0.0000 l 3.3325,5.7720 l -3.3325,5.7720 l -6.6649,0.0000 l -3.3325,-5.7720 l -6.6649,0.0000 l -3.3325,5.7720 l -6.6649,0.0000 l -3.3325,-5.7720 l 3.3325,-5.7720 l -3.3325,-5.7720 l -6.6649,0.0000 l -3.3325,5.7720 l 3.3325,5.7720 l -3.3325,5.7720 l -6.6649,0.0000 l -3.3325,5.7720 l 3.3325,5.7720 l 6.6649,-0.0000 l 3.3325,5.7720 l -3.3325,5.7720 l -6.6649,0.0000 l -3.3325,-5.7720 l -6.6649,0.0000 l -3.3325,5.7720 l 3.3325,5.7720 l -3.3325,5.7720 l -6.6649,0.0000 l -3.3325,5.7720 l 3.3325,5.7720 l 6.6649,-0.0000 l 3.3325,-5.7720 l 6.6649,-0.0000 l 3.3325,5.7720 l 6.6649,-0.0000 l 3.3325,-5.7720 l -3.3325,-5.7720 l 3.3325,-5.7720 l 6.6649,-0.0000 l 3.3325,5.7720 l -3.3325,5.7720 l 3.3325,5.7720 l 6.6649,-0.0000 l 3.3325,-5.7720 l 6.6649,-0.0000 l 3.3325,5.7720 l 6.6649,-0.0000 l 3.3325,-5.7720 l -3.3325,-5.7720 l -6.6649,-0.0000 l -3.3325,-5.7720 l 3.3325,-5.7720 l 6.6649,-0.0000 l 3.3325,-5.7720 l -3.3325,-5.7720 l 3.3325,-5.7720 l 6.6649,-0.0000 l 3.3325,5.7720 l -3.3325,5.7720 l 3.3325,5.7720 l 6.6649,-0.0000 l 3.3325,5.7720 l -3.3325,5.7720 l -6.6649,0.0000 l -3.3325,5.7720 l 3.3325,5.7720 l 6.6649,-0.0000 l 3.3325,-5.7720 l 6.6649,-0.0000 l 3.3325,5.7720 l 6.6649,-0.0000 l 3.3325,-5.7720 l -3.3325,-5.7720 l 3.3325,-5.7720 l 6.6649,-0.0000 l 3.3325,5.7720 l -3.3325,5.7720 l 3.3325,5.7720 l 6.6649,-0.0000 l 3.3325,-5.7720 l 6.6649,-0.0000 l 3.3325,5.7720 l 6.6649,-0.0000 l 3.3325,-5.7720 l -3.3325,-5.7720 l -6.6649,-0.0000 l -3.3325,-5.7720 l 3.3325,-5.7720 l -3.3325,-5.7720 l -6.6649,-0.0000 l -3.3325,5.7720 l -6.6649,-0.0000 l -3.3325,-5.7720 l 3.3325,-5.7720 l 6.6649,-0.0000 l 3.3325,-5.7720 l -3.3325,-5.7720 l 3.3325,-5.7720 l 6.6649,-0.0000 l 3.3325,5.7720 l 6.6649,-0.0000 l 3.3325,-5.7720 l -3.3325,-5.7720 l -6.6649,-0.0000 l -3.3325,-5.7720 l 3.3325,-5.7720 l 6.6649,-0.0000 l 3.3325,-5.7720 l -3.3325,-5.7720 l 3.3325,-5.7720 l 6.6649,-0.0000 l 3.3325,5.7720 l -3.3325,5.7720 l 3.3325,5.7720 l 6.6649,-0.0000 l 3.3325,5.7720 l -3.3325,5.7720 l -6.6649,0.0000 l -3.3325,5.7720 l 3.3325,5.7720 l 6.6649,-0.0000 l 3.3325,-5.7720 l 6.6649,-0.0000 l 3.3325,5.7720 l -3.3325,5.7720 l 3.3325,5.7720 l 6.6649,-0.0000 l 3.3325,5.7720 l -3.3325,5.7720 l -6.6649,0.0000 l -3.3325,-5.7720 l -6.6649,0.0000 l -3.3325,5.7720 l 3.3325,5.7720 l -3.3325,5.7720 l -6.6649,0.0000 l -3.3325,5.7720 l 3.3325,5.7720 l 6.6649,-0.0000 l 3.3325,-5.7720 l 6.6649,-0.0000 l 3.3325,5.7720 l 6.6649,-0.0000 l 3.3325,-5.7720 l -3.3325,-5.7720 l 3.3325,-5.7720 l 6.6649,-0.0000 l 3.3325,5.7720 l -3.3325,5.7720 l 3.3325,5.7720 l 6.6649,-0.0000 "/></g></svg>