<svg xmlns="http://www.w3.org/2000/svg" height="249.3487" stroke-opacity="1" viewBox="0 0 600 249" font-size="1" width="600.0000" xmlns:xlink="http://www.w3.org/1999/xlink" stroke="rgb(0,0,0)" version="1.1"><defs></defs><g stroke-linejoin="miter" stroke-opacity="1.0" fill-opacity="0.0" stroke="rgb(0,0,0)" stroke-width="1.5471739538078182" fill="rgb(0,0,0)" stroke-linecap="butt" stroke-miterlimit="10.0"><path d="M 397.2115,207.5331 l 1.9546,3.0469 l 3.6160,-0.1693 l -1.9546,-3.0469 l 1.6614,-3.2162 l 1.9546,3.0469 l 1.9546,3.0469 l -1.6614,3.2162 l 3.6160,-0.1693 l 1.6614,-3.2162 l -3.6160,0.1693 l -1.9546,-3.0469 l 3.6160,-0.1693 l 3.6160,-0.1693 l 1.9546,3.0469 l 1.6614,-3.2162 l -1.9546,-3.0469 l -1.9546,-3.0469 l -1.6614,3.2162 l 1.9546,3.0469 l -3.6160,0.1693 l -1.9546,-3.0469 l 3.6160,-0.1693 l 1.6614,-3.2162 l 1.6614,-3.2162 l -3.6160,0.1693 l -1.6614,3.2162 l -1.9546,-3.0469 l 1.6614,-3.2162 l 1.9546,3.0469 l 3.6160,-0.1693 l -1.9546,-3.0469 l 1.6614,-3.2162 l 1.9546,3.0469 l 1.9546,3.0469 l -1.6614,3.2162 l -1.6614,3.2162 l 1.9546,3.0469 l 1.9546,3.0469 l 1.6614,-3.2162 l -1.9546,-3.0469 l 3.6160,-0.1693 l 1.9546,3.0469 l -3.6160,0.1693 l -1.6614,3.2162 l -1.6614,3.2162 l 3.6160,-0.1693 l 1.6614,-3.2162 l 1.9546,3.0469 l -1.6614,3.2162 l 3.6160,-0.1693 l 1.6614,-3.2162 l -3.6160,0.1693 l -1.9546,-3.0469 l 3.6160,-0.1693 l 3.6160,-0.1693 l 1.9546,3.0469 l 1.6614,-3.2162 l -1.9546,-3.0469 l -1.6614,3.2162 l -3.6160,0.1693 l 1.6614,-3.2162 l 1.6614,-3.2162 l 3.6160,-0.1693 l -1.9546,-3.0469 l -3.6160,0.1693 l -3.6160,0.1693 l 1.9546,3.0469 l 3.6160,-0.1693 l -1.6614,3.2162 l -3.6160,0.1693 l 1.6614,-3.2162 l -1.9546,-3.0469 l -1.9546,-3.0469 l -1.6614,3.2162 l 1.9546,3.0469 l -3.6160,0.1693 l -1.9546,-3.0469 l 3.6160,-0.1693 l 1.6614,-3.2162 l -3.6160,0.1693 l -1.9546,-3.0469 l 3.6160,-0.1693 l 3.6160,-0.1693 l 1.9546,3.0469 l 1.9546,3.0469 l 3.6160,-0.1693 l 3.6160,-0.1693 l -1.9546,-3.0469 l -3.6160,0.1693 l 1.6614,-3.2162 l 3.6160,-0.1693 l -1.6614,3.2162 l 1.9546,3.0469 l 1.9546,3.0469 l 1.6614,-3.2162 l -1.9546,-3.0469 l 3.6160,-0.1693 l 1.9546,3.0469 l 1.6614,-3.2162 l -1.9546,-3.0469 l -1.6614,3.2162 l -3.6160,0.1693 l 1.6614,-3.2162 l 1.6614,-3.2162 l 3.6160,-0.1693 l -1.9546,-3.0469 l -3.6160,0.1693 l 1.9546,3.0469 l -1.6614,3.2162 l -1.9546,-3.0469 l -1.9546,-3.0469 l 1.6614,-3.2162 l 1.6614,-3.2162 l -1.9546,-3.0469 l -1.9546,-3.0469 l -1.6614,3.2162 l 1.9546,3.0469 l -3.6160,0.1693 l -1.9546,-3.0469 l -1.6614,3.2162 l 1.9546,3.0469 l 1.6614,-3.2162 l 3.6160,-0.1693 l -1.6614,3.2162 l -1.6614,3.2162 l -3.6160,0.1693 l 1.9546,3.0469 l 3.6160,-0.1693 l -1.9546,-3.0469 l 1.6614,-3.2162 l 1.9546,3.0469 l 1.9546,3.0469 l -1.6614,3.2162 l -1.9546,-3.0469 l -3.6160,0.1693 l -3.6160,0.1693 l 1.9546,3.0469 l 3.6160,-0.1693 l -1.6614,3.2162 l -3.6160,0.1693 l 1.6614,-3.2162 l -1.9546,-3.0469 l -1.9546,-3.0469 l -1.6614,3.2162 l 1.9546,3.0469 l -3.6160,0.1693 l -1.9546,-3.0469 l 3.6160,-0.1693 l 1.6614,-3.2162 l -3.6160,0.1693 l -1.9546,-3.0469 l 3.6160,-0.1693 l 3.6160,-0.1693 l 1.9546,3.0469 l 1.6614,-3.2162 l -1.9546,-3.0469 l -1.6614,3.2162 l -3.6160,0.1693 l 1.6614,-3.2162 l 1.6614,-3.2162 l 3.6160,-0.1693 l 3.6160,-0.1693 l 1.6614,-3.2162 l 1.6614,-3.2162 l -3.6160,0.1693 l -1.6614,3.2162 l -1.9546,-3.0469 l 1.6614,-3.2162 l -3.6160,0.1693 l -1.6614,3.2162 l 3.6160,-0.1693 l 1.9546,3.0469 l -3.6160,0.1693 l -3.6160,0.1693 l -1.9546,-3.0469 l -1.6614,3.2162 l 1.9546,3.0469 l 1.6614,-3.2162 l 3.6160,-0.1693 l -1.6614,3.2162 l -1.6614,3.2162 l -3.6160,0.1693 l 1.6614,-3.2162 l -1.9546,-3.0469 l -1.9546,-3.0469 l -1.6614,3.2162 l 1.9546,3.0469 l -3.6160,0.1693 l -1.9546,-3.0469 l 3.6160,-0.1693 l 1.6614,-3.2162 l 1.6614,-3.2162 l -3.6160,0.1693 l -1.6614,3.2162 l -1.9546,-3.0469 l 1.6614,-3.2162 l 1.9546,3.0469 l 3.6160,-0.1693 l -1.9546,-3.0469 l 1.6614,-3.2162 l 1.9546,3.0469 l 1.9546,3.0469 l -1.6614,3.2162 l 3.6160,-0.1693 l 1.6614,-3.2162 l -3.6160,0.1693 l -1.9546,-3.0469 l 3.6160,-0.1693 l 3.6160,-0.1693 l 1.9546,3.0469 l 1.6614,-3.2162 l -1.9546,-3.0469 l -1.9546,-3.0469 l -1.6614,3.2162 l 1.9546,3.0469 l -3.6160,0.1693 l -1.9546,-3.0469 l 3.6160,-0.1693 l 1.6614,-3.2162 l 1.6614,-3.2162 l -3.6160,0.1693 l -1.6614,3.2162 l -1.9546,-3.0469 l 1.6614,-3.2162 l 1.9546,3.0469 l 3.6160,-0.1693 l -1.9546,-3.0469 l 1.6614,-3.2162 l 1.9546,3.0469 l 1.9546,3.0469 l -1.6614,3.2162 l -1.6614,3.2162 l 1.9546,3.0469 l 1.9546,3.0469 l 1.6614,-3.2162 l -1.9546,-3.0469 l 3.6160,-0.1693 l 1.9546,3.0469 l -3.6160,0.1693 l -1.6614,3.2162 l -1.6614,3.2162 l 3.6160,-0.1693 l 1.6614,-3.2162 l 1.9546,3.0469 l -1.6614,3.2162 l -1.6614,3.2162 l 1.9546,3.0469 l 1.6614,-3.2162 l 3.6160,-0.1693 l -1.6614,3.2162 l -1.6614,3.2162 l -3.6160,0.1693 l 1.9546,3.0469 l 3.6160,-0.1693 l -1.9546,-3.0469 l 1.6614,-3.2162 l 1.9546,3.0469 l 1.9546,3.0469 l -1.6614,3.2162 l -1.6614,3.2162 l 1.9546,3.0469 l 1.9546,3.0469 l 1.6614,-3.2162 l -1.9546,-3.0469 l 3.6160,-0.1693 l 1.9546,3.0469 l 1.6614,-3.2162 l -1.9546,-3.0469 l -1.6614,3.2162 l -3.6160,0.1693 l 1.6614,-3.2162 l 1.6614,-3.2162 l 3.6160,-0.1693 l -1.9546,-3.0469 l -3.6160,0.1693 l 1.9546,3.0469 l -1.6614,3.2162 l -1.9546,-3.0469 l -1.9546,-3.0469 l 1.6614,-3.2162 l 1.9546,3.0469 l 3.6160,-0.1693 l 3.6160,-0.1693 l -1.9546,-3.0469 l -3.6160,0.1693 l 1.6614,-3.2162 l 3.6160,-0.1693 l -1.6614,3.2162 l 1.9546,3.0469 l 1.9546,3.0469 l 1.6614,-3.2162 l -1.9546,-3.0469 l 3.6160,-0.1693 l 1.9546,3.0469 l -3.6160,0.1693 l -1.6614,3.2162 l 3.6160,-0.1693 l 1.9546,3.0469 l -3.6160,0.1693 l -3.6160,0.1693 l -1.9546,-3.0469 l -1.6614,3.2162 l 1.9546,3.0469 l 1.6614,-3.2162 l 3.6160,-0.1693 l -1.6614,3.2162 l -1.6614,3.2162 l -3.6160,0.1693 l -3.6160,0.1693 l -1.6614,3.2162 l -1.6614,3.2162 l 3.6160,-0.1693 l 1.6614,-3.2162 l 1.9546,3.0469 l -1.6614,3.2162 l 3.6160,-0.1693 l 1.6614,-3.2162 l -3.6160,0.1693 l -1.9546,-3.0469 l 3.6160,-0.1693 l 3.6160,-0.1693 l 1.9546,3.0469 l 1.6614,-3.2162 l -1.9546,-3.0469 l -1.6614,3.2162 l -3.6160,0.1693 l 1.6614,-3.2162 l 1.6614,-3.2162 l 3.6160,-0.1693 l -1.6614,3.2162 l 1.9546,3.0469 l 1.9546,3.0469 l 1.6614,-3.2162 l -1.9546,-3.0469 l 3.6160,-0.1693 l 1.9546,3.0469 l -3.6160,0.1693 l -1.6614,3.2162 l -1.6614,3.2162 l 3.6160,-0.1693 l 1.6614,-3.2162 l 1.9546,3.0469 l -1.6614,3.2162 l 3.6160,-0.1693 l 1.6614,-3.2162 l -3.6160,0.1693 l -1.9546,-3.0469 l 3.6160,-0.1693 l 3.6160,-0.1693 l 1.9546,3.0469 l 1.6614,-3.2162 l -1.9546,-3.0469 l -1.6614,3.2162 l -3.6160,0.1693 l 1.6614,-3.2162 l 1.6614,-3.2162 l 3.6160,-0.1693 l -1.9546,-3.0469 l -3.6160,0.1693 l -3.6160,0.1693 l 1.9546,3.0469 l 3.6160,-0.1693 l -1.6614,3.2162 l -3.6160,0.1693 l 1.6614,-3.2162 l -1.9546,-3.0469 l -1.9546,-3.0469 l -1.6614,3.2162 l 1.9546,3.0469 l -3.6160,0.1693 l -1.9546,-3.0469 l 3.6160,-0.1693 l 1.6614,-3.2162 l -3.6160,0.1693 l -1.9546,-3.0469 l 3.6160,-0.1693 l 3.6160,-0.1693 l 1.9546,3.0469 l 1.9546,3.0469 l 3.6160,-0.1693 l 3.6160,-0.1693 l -1.9546,-3.0469 l -3.6160,0.1693 l 1.6614,-3.2162 l 3.6160,-0.1693 l -1.6614,3.2162 l 1.9546,3.0469 l 1.9546,3.0469 l 1.6614,-3.2162 l -1.9546,-3.0469 l 3.6160,-0.1693 l 1.9546,3.0469 l 1.6614,-3.2162 l -1.9546,-3.0469 l -1.6614,3.2162 l -3.6160,0.1693 l 1.6614,-3.2162 l 1.6614,-3.2162 l 3.6160,-0.1693 l -1.9546,-3.0469 l -3.6160,0.1693 l 1.9546,3.0469 l -1.6614,3.2162 l -1.9546,-3.0469 l -1.9546,-3.0469 l 1.6614,-3.2162 l -3.6160,0.1693 l -1.6614,3.2162 l -1.6614,3.2162 l 3.6160,-0.1693 l 1.6614,-3.2162 l 1.9546,3.0469 l -1.6614,3.2162 l -1.9546,-3.0469 l -3.6160,0.1693 l -3.6160,0.1693 l 1.9546,3.0469 l 3.6160,-0.1693 l -1.6614,3.2162 l -3.6160,0.1693 l 1.6614,-3.2162 l -1.9546,-3.0469 l -1.6614,3.2162 l -3.6160,0.1693 l 1.6614,-3.2162 l 1.6614,-3.2162 l 3.6160,-0.1693 l 3.6160,-0.1693 l 1.6614,-3.2162 l 1.6614,-3.2162 l -3.6160,0.1693 l -1.6614,3.2162 l -1.9546,-3.0469 l 1.6614,-3.2162 l 1.9546,3.0469 l 3.6160,-0.1693 l 3.6160,-0.1693 l -1.9546,-3.0469 l -3.6160,0.1693 l 1.6614,-3.2162 l 3.6160,-0.1693 l -1.9546,-3.0469 l -3.6160,0.1693 l 1.9546,3.0469 l -1.6614,3.2162 l -1.9546,-3.0469 l -1.9546,-3.0469 l 1.6614,-3.2162 l -3.6160,0.1693 l -1.6614,3.2162 l 3.6160,-0.1693 l 1.9546,3.0469 l -3.6160,0.1693 l -3.6160,0.1693 l -1.9546,-3.0469 l -1.9546,-3.0469 l -3.6160,0.1693 l -3.6160,0.1693 l 1.9546,3.0469 l 3.6160,-0.1693 l -1.6614,3.2162 l -3.6160,0.1693 l 1.9546,3.0469 l 3.6160,-0.1693 l -1.9546,-3.0469 l 1.6614,-3.2162 l 1.9546,3.0469 l 1.9546,3.0469 l -1.6614,3.2162 l 3.6160,-0.1693 l 1.6614,-3.2162 l -3.6160,0.1693 l -1.9546,-3.0469 l 3.6160,-0.1693 l 3.6160,-0.1693 l 1.9546,3.0469 l -3.6160,0.1693 l -1.6614,3.2162 l -1.6614,3.2162 l 3.6160,-0.1693 l 1.6614,-3.2162 l 1.9546,3.0469 l -1.6614,3.2162 l -1.9546,-3.0469 l -3.6160,0.1693 l -3.6160,0.1693 l 1.9546,3.0469 l 3.6160,-0.1693 l -1.6614,3.2162 l -3.6160,0.1693 l 1.6614,-3.2162 l -1.9546,-3.0469 l -1.6614,3.2162 l -3.6160,0.1693 l 1.6614,-3.2162 l 1.6614,-3.2162 l 3.6160,-0.1693 l -1.9546,-3.0469 l -3.6160,0.1693 l 1.9546,3.0469 l -1.6614,3.2162 l -1.9546,-3.0469 l -1.9546,-3.0469 l 1.6614,-3.2162 l 1.6614,-3.2162 l -1.9546,-3.0469 l -1.9546,-3.0469 l -1.6614,3.2162 l 1.9546,3.0469 l -3.6160,0.1693 l -1.9546,-3.0469 l -1.6614,3.2162 l 1.9546,3.0469 l 1.6614,-3.2162 l 3.6160,-0.1693 l -1.6614,3.2162 l -1.6614,3.2162 l -3.6160,0.1693 l 1.9546,3.0469 l 3.6160,-0.1693 l -1.9546,-3.0469 l 1.6614,-3.2162 l 1.9546,3.0469 l 1.9546,3.0469 l -1.6614,3.2162 l -1.9546,-3.0469 l -3.6160,0.1693 l -3.6160,0.1693 l 1.9546,3.0469 l 3.6160,-0.1693 l -1.6614,3.2162 l -3.6160,0.1693 l 1.6614,-3.2162 l -1.9546,-3.0469 l -1.9546,-3.0469 l -1.6614,3.2162 l 1.9546,3.0469 l -3.6160,0.1693 l -1.9546,-3.0469 l 3.6160,-0.1693 l 1.6614,-3.2162 l -3.6160,0.1693 l -1.9546,-3.0469 l 3.6160,-0.1693 l 3.6160,-0.1693 l 1.9546,3.0469 l 1.6614,-3.2162 l -1.9546,-3.0469 l -1.6614,3.2162 l -3.6160,0.1693 l 1.6614,-3.2162 l 1.6614,-3.2162 l 3.6160,-0.1693 l -1.9546,-3.0469 l -3.6160,0.1693 l -3.6160,0.1693 l 1.9546,3.0469 l 3.6160,-0.1693 l -1.6614,3.2162 l -3.6160,0.1693 l 1.6614,-3.2162 l -1.9546,-3.0469 l -1.9546,-3.0469 l -1.6614,3.2162 l 1.9546,3.0469 l -3.6160,0.1693 l -1.9546,-3.0469 l 3.6160,-0.1693 l 1.6614,-3.2162 l -3.6160,0.1693 l -1.9546,-3.0469 l 3.6160,-0.1693 l 3.6160,-0.1693 l 1.9546,3.0469 l 1.9546,3.0469 l 3.6160,-0.1693 l 3.6160,-0.1693 l -1.9546,-3.0469 l -3.6160,0.1693 l 1.6614,-3.2162 l 3.6160,-0.1693 l -1.6614,3.2162 l 1.9546,3.0469 l 1.9546,3.0469 l 1.6614,-3.2162 l -1.9546,-3.0469 l 3.6160,-0.1693 l 1.9546,3.0469 l 1.9546,3.0469 l 3.6160,-0.1693 l -1.9546,-3.0469 l 1.6614,-3.2162 l 1.9546,3.0469 l 1.9546,3.0469 l -1.6614,3.2162 l 3.6160,-0.1693 l 1.6614,-3.2162 l -3.6160,0.1693 l -1.9546,-3.0469 l 3.6160,-0.1693 l 3.6160,-0.1693 l 1.9546,3.0469 l 1.9546,3.0469 l 3.6160,-0.1693 l 3.6160,-0.1693 l -1.9546,-3.0469 l -3.6160,0.1693 l 1.6614,-3.2162 l 3.6160,-0.1693 l -1.9546,-3.0469 l -3.6160,0.1693 l 1.9546,3.0469 l -1.6614,3.2162 l -1.9546,-3.0469 l -1.9546,-3.0469 l 1.6614,-3.2162 l -3.6160,0.1693 l -1.6614,3.2162 l 3.6160,-0.1693 l 1.9546,3.0469 l -3.6160,0.1693 l -3.6160,0.1693 l -1.9546,-3.0469 l 3.6160,-0.1693 l 1.6614,-3.2162 l 1.6614,-3.2162 l -3.6160,0.1693 l -1.6614,3.2162 l -1.9546,-3.0469 l 1.6614,-3.2162 l 1.9546,3.0469 l 3.6160,-0.1693 l 3.6160,-0.1693 l -1.9546,-3.0469 l -3.6160,0.1693 l 1.6614,-3.2162 l 3.6160,-0.1693 l -1.6614,3.2162 l 1.9546,3.0469 l 1.6614,-3.2162 l 3.6160,-0.1693 l -1.6614,3.2162 l -1.6614,3.2162 l -3.6160,0.1693 l 1.9546,3.0469 l 3.6160,-0.1693 l -1.9546,-3.0469 l 1.6614,-3.2162 l 1.9546,3.0469 l 1.9546,3.0469 l -1.6614,3.2162 l -1.6614,3.2162 l 1.9546,3.0469 l 1.9546,3.0469 l 1.6614,-3.2162 l -1.9546,-3.0469 l 3.6160,-0.1693 l 1.9546,3.0469 l 1.6614,-3.2162 l -1.9546,-3.0469 l -1.6614,3.2162 l -3.6160,0.1693 l 1.6614,-3.2162 l 1.6614,-3.2162 l 3.6160,-0.1693 l -1.9546,-3.0469 l -3.6160,0.1693 l 1.9546,3.0469 l -1.6614,3.2162 l -1.9546,-3.0469 l -1.9546,-3.0469 l 1.6614,-3.2162 l 1.9546,3.0469 l 3.6160,-0.1693 l 3.6160,-0.1693 l -1.9546,-3.0469 l -3.6160,0.1693 l 1.6614,-3.2162 l 3.6160,-0.1693 l -1.6614,3.2162 l 1.9546,3.0469 l 1.9546,3.0469 l 1.6614,-3.2162 l -1.9546,-3.0469 l 3.6160,-0.1693 l 1.9546,3.0469 l 1.6614,-3.2162 l -1.9546,-3.0469 l -1.6614,3.2162 l -3.6160,0.1693 l 1.6614,-3.2162 l 1.6614,-3.2162 l 3.6160,-0.1693 l -1.9546,-3.0469 l -3.6160,0.1693 l 1.9546,3.0469 l -1.6614,3.2162 l -1.9546,-3.0469 l -1.9546,-3.0469 l 1.6614,-3.2162 l -3.6160,0.1693 l -1.6614,3.2162 l -1.6614,3.2162 l 3.6160,-0.1693 l 1.6614,-3.2162 l 1.9546,3.0469 l -1.6614,3.2162 l -1.9546,-3.0469 l -3.6160,0.1693 l -3.6160,0.1693 l 1.9546,3.0469 l 3.6160,-0.1693 l -1.6614,3.2162 l -3.6160,0.1693 l 1.6614,-3.2162 l -1.9546,-3.0469 l -1.6614,3.2162 l -3.6160,0.1693 l 1.6614,-3.2162 l 1.6614,-3.2162 l 3.6160,-0.1693 l 3.6160,-0.1693 l 1.6614,-3.2162 l 1.6614,-3.2162 l -3.6160,0.1693 l -1.6614,3.2162 l -1.9546,-3.0469 l 1.6614,-3.2162 l 1.9546,3.0469 l 3.6160,-0.1693 l 3.6160,-0.1693 l -1.9546,-3.0469 l -3.6160,0.1693 l 1.6614,-3.2162 l 3.6160,-0.1693 l -1.9546,-3.0469 l -3.6160,0.1693 l 1.9546,3.0469 l -1.6614,3.2162 l -1.9546,-3.0469 l -1.9546,-3.0469 l 1.6614,-3.2162 l -3.6160,0.1693 l -1.6614,3.2162 l 3.6160,-0.1693 l 1.9546,3.0469 l -3.6160,0.1693 l -3.6160,0.1693 l -1.9546,-3.0469 l -1.6614,3.2162 l 1.9546,3.0469 l 1.9546,3.0469 l 1.6614,-3.2162 l -1.9546,-3.0469 l 3.6160,-0.1693 l 1.9546,3.0469 l -3.6160,0.1693 l -1.6614,3.2162 l -1.6614,3.2162 l 3.6160,-0.1693 l 1.6614,-3.2162 l 1.9546,3.0469 l -1.6614,3.2162 l -1.9546,-3.0469 l -3.6160,0.1693 l 1.9546,3.0469 l -1.6614,3.2162 l -1.9546,-3.0469 l -1.9546,-3.0469 l 1.6614,-3.2162 l 1.6614,-3.2162 l -1.9546,-3.0469 l -1.9546,-3.0469 l -1.6614,3.2162 l 1.9546,3.0469 l -3.6160,0.1693 l -1.9546,-3.0469 l 3.6160,-0.1693 l 1.6614,-3.2162 l 1.6614,-3.2162 l -3.6160,0.1693 l -1.6614,3.2162 l -1.9546,-3.0469 l 1.6614,-3.2162 l 1.6614,-3.2162 l -1.9546,-3.0469 l -1.6614,3.2162 l -3.6160,0.1693 l 1.6614,-3.2162 l 1.6614,-3.2162 l 3.6160,-0.1693 l -1.9546,-3.0469 l -3.6160,0.1693 l 1.9546,3.0469 l -1.6614,3.2162 l -1.9546,-3.0469 l -1.9546,-3.0469 l 1.6614,-3.2162 l 1.6614,-3.2162 l -1.9546,-3.0469 l -1.9546,-3.0469 l -1.6614,3.2162 l 1.9546,3.0469 l -3.6160,0.1693 l -1.9546,-3.0469 l -1.6614,3.2162 l 1.9546,3.0469 l 1.6614,-3.2162 l 3.6160,-0.1693 l -1.6614,3.2162 l -1.6614,3.2162 l -3.6160,0.1693 l 1.9546,3.0469 l 3.6160,-0.1693 l -1.9546,-3.0469 l 1.6614,-3.2162 l 1.9546,3.0469 l 1.9546,3.0469 l -1.6614,3.2162 l -1.9546,-3.0469 l -3.6160,0.1693 l -3.6160,0.1693 l 1.9546,3.0469 l 3.6160,-0.1693 l -1.6614,3.2162 l -3.6160,0.1693 l 1.6614,-3.2162 l -1.9546,-3.0469 l -1.9546,-3.0469 l -1.6614,3.2162 l 1.9546,3.0469 l -3.6160,0.1693 l -1.9546,-3.0469 l -1.6614,3.2162 l 1.9546,3.0469 l 1.6614,-3.2162 l 3.6160,-0.1693 l -1.6614,3.2162 l -1.6614,3.2162 l -3.6160,0.1693 l 1.9546,3.0469 l 3.6160,-0.1693 l -1.9546,-3.0469 l 1.6614,-3.2162 l 1.9546,3.0469 l 1.9546,3.0469 l -1.6614,3.2162 l 3.6160,-0.1693 l 1.6614,-3.2162 l 1.6614,-3.2162 l -3.6160,0.1693 l -1.6614,3.2162 l -1.9546,-3.0469 l 1.6614,-3.2162 l 1.9546,3.0469 l 3.6160,-0.1693 l 3.6160,-0.1693 l -1.9546,-3.0469 l -3.6160,0.1693 l 1.6614,-3.2162 l 3.6160,-0.1693 l -1.6614,3.2162 l 1.9546,3.0469 l 1.6614,-3.2162 l 3.6160,-0.1693 l -1.6614,3.2162 l -1.6614,3.2162 l -3.6160,0.1693 l -3.6160,0.1693 l -1.6614,3.2162 l -1.6614,3.2162 l 3.6160,-0.1693 l 1.6614,-3.2162 l 1.9546,3.0469 l -1.6614,3.2162 l -1.9546,-3.0469 l -3.6160,0.1693 l -3.6160,0.1693 l 1.9546,3.0469 l 3.6160,-0.1693 l -1.6614,3.2162 l -3.6160,0.1693 l 1.9546,3.0469 l 3.6160,-0.1693 l -1.9546,-3.0469 l 1.6614,-3.2162 l 1.9546,3.0469 l 1.9546,3.0469 l -1.6614,3.2162 l 3.6160,-0.1693 l 1.6614,-3.2162 l -3.6160,0.1693 l -1.9546,-3.0469 l 3.6160,-0.1693 l 3.6160,-0.1693 l 1.9546,3.0469 l 1.6614,-3.2162 l -1.9546,-3.0469 l -1.9546,-3.0469 l -1.6614,3.2162 l 1.9546,3.0469 l -3.6160,0.1693 l -1.9546,-3.0469 l 3.6160,-0.1693 l 1.6614,-3.2162 l 1.6614,-3.2162 l -3.6160,0.1693 l -1.6614,3.2162 l -1.9546,-3.0469 l 1.6614,-3.2162 l 1.9546,3.0469 l 3.6160,-0.1693 l -1.9546,-3.0469 l 1.6614,-3.2162 l 1.9546,3.0469 l 1.9546,3.0469 l -1.6614,3.2162 l -1.6614,3.2162 l 1.9546,3.0469 l 1.9546,3.0469 l 1.6614,-3.2162 l -1.9546,-3.0469 l 3.6160,-0.1693 l 1.9546,3.0469 l -3.6160,0.1693 l -1.6614,3.2162 l -1.6614,3.2162 l 3.6160,-0.1693 l 1.6614,-3.2162 l 1.9546,3.0469 l -1.6614,3.2162 l -1.9546,-3.0469 l -3.6160,0.1693 l 1.9546,3.0469 l -1.6614,3.2162 l -1.9546,-3.0469 l -1.9546,-3.0469 l 1.6614,-3.2162 l -3.6160,0.1693 l -1.6614,3.2162 l 3.6160,-0.1693 l 1.9546,3.0469 l -3.6160,0.1693 l -3.6160,0.1693 l -1.9546,-3.0469 l -1.9546,-3.0469 l -3.6160,0.1693 l -3.6160,0.1693 l 1.9546,3.0469 l 3.6160,-0.1693 l -1.6614,3.2162 l -3.6160,0.1693 l 1.9546,3.0469 l 3.6160,-0.1693 l -1.9546,-3.0469 l 1.6614,-3.2162 l 1.9546,3.0469 l 1.9546,3.0469 l -1.6614,3.2162 l 3.6160,-0.1693 l 1.6614,-3.2162 l -3.6160,0.1693 l -1.9546,-3.0469 l 3.6160,-0.1693 l 3.6160,-0.1693 l 1.9546,3.0469 l -3.6160,0.1693 l -1.6614,3.2162 l -1.6614,3.2162 l 3.6160,-0.1693 l 1.6614,-3.2162 l 1.9546,3.0469 l -1.6614,3.2162 l -1.9546,-3.0469 l -3.6160,0.1693 l -3.6160,0.1693 l 1.9546,3.0469 l 3.6160,-0.1693 l -1.6614,3.2162 l -3.6160,0.1693 l 1.6614,-3.2162 l -1.9546,-3.0469 l -1.6614,3.2162 l -3.6160,0.1693 l 1.6614,-3.2162 l 1.6614,-3.2162 l 3.6160,-0.1693 l -1.9546,-3.0469 l -3.6160,0.1693 l 1.9546,3.0469 l -1.6614,3.2162 l -1.9546,-3.0469 l -1.9546,-3.0469 l 1.6614,-3.2162 l 1.6614,-3.2162 l -1.9546,-3.0469 l -1.9546,-3.0469 l -1.6614,3.2162 l 1.9546,3.0469 l -3.6160,0.1693 l -1.9546,-3.0469 l -1.6614,3.2162 l 1.9546,3.0469 l 1.6614,-3.2162 l 3.6160,-0.1693 l -1.6614,3.2162 l -1.6614,3.2162 l -3.6160,0.1693 l 1.9546,3.0469 l 3.6160,-0.1693 l -1.9546,-3.0469 l 1.6614,-3.2162 l 1.9546,3.0469 l 1.9546,3.0469 l -1.6614,3.2162 l -1.9546,-3.0469 l -3.6160,0.1693 l -3.6160,0.1693 l 1.9546,3.0469 l 3.6160,-0.1693 l -1.6614,3.2162 l -3.6160,0.1693 l 1.6614,-3.2162 l -1.9546,-3.0469 l -1.9546,-3.0469 l -1.6614,3.2162 l 1.9546,3.0469 l -3.6160,0.1693 l -1.9546,-3.0469 l 3.6160,-0.1693 l 1.6614,-3.2162 l -3.6160,0.1693 l -1.9546,-3.0469 l 3.6160,-0.1693 l 3.6160,-0.1693 l 1.9546,3.0469 l 1.6614,-3.2162 l -1.9546,-3.0469 l -1.6614,3.2162 l -3.6160,0.1693 l 1.6614,-3.2162 l 1.6614,-3.2162 l 3.6160,-0.1693 l -1.9546,-3.0469 l -3.6160,0.1693 l -3.6160,0.1693 l 1.9546,3.0469 l 3.6160,-0.1693 l -1.6614,3.2162 l -3.6160,0.1693 l 1.6614,-3.2162 l -1.9546,-3.0469 l -1.9546,-3.0469 l -1.6614,3.2162 l 1.9546,3.0469 l -3.6160,0.1693 l -1.9546,-3.0469 l 3.6160,-0.1693 l 1.6614,-3.2162 l -3.6160,0.1693 l -1.9546,-3.0469 l 3.6160,-0.1693 l 3.6160,-0.1693 l 1.9546,3.0469 l 1.9546,3.0469 l 3.6160,-0.1693 l 3.6160,-0.1693 l -1.9546,-3.0469 l -3.6160,0.1693 l 1.6614,-3.2162 l 3.6160,-0.1693 l -1.6614,3.2162 l 1.9546,3.0469 l 1.9546,3.0469 l 1.6614,-3.2162 l -1.9546,-3.0469 l 3.6160,-0.1693 l 1.9546,3.0469 l 1.6614,-3.2162 l -1.9546,-3.0469 l -1.6614,3.2162 l -3.6160,0.1693 l 1.6614,-3.2162 l 1.6614,-3.2162 l 3.6160,-0.1693 l -1.9546,-3.0469 l -3.6160,0.1693 l 1.9546,3.0469 l -1.6614,3.2162 l -1.9546,-3.0469 l -1.9546,-3.0469 l 1.6614,-3.2162 l -3.6160,0.1693 l -1.6614,3.2162 l -1.6614,3.2162 l 3.6160,-0.1693 l 1.6614,-3.2162 l 1.9546,3.0469 l -1.6614,3.2162 l -1.9546,-3.0469 l -3.6160,0.1693 l -3.6160,0.1693 l 1.9546,3.0469 l 3.6160,-0.1693 l -1.6614,3.2162 l -3.6160,0.1693 l 1.6614,-3.2162 l -1.9546,-3.0469 l -1.6614,3.2162 l -3.6160,0.1693 l 1.6614,-3.2162 l 1.6614,-3.2162 l 3.6160,-0.1693 l 3.6160,-0.1693 l 1.6614,-3.2162 l 1.6614,-3.2162 l -3.6160,0.1693 l -1.6614,3.2162 l -1.9546,-3.0469 l 1.6614,-3.2162 l 1.9546,3.0469 l 3.6160,-0.1693 l 3.6160,-0.1693 l -1.9546,-3.0469 l -3.6160,0.1693 l 1.6614,-3.2162 l 3.6160,-0.1693 l 3.6160,-0.1693 l 1.6614,-3.2162 l -3.6160,0.1693 l -1.9546,-3.0469 l 3.6160,-0.1693 l 3.6160,-0.1693 l 1.9546,3.0469 l 1.6614,-3.2162 l -1.9546,-3.0469 l -1.6614,3.2162 l -3.6160,0.1693 l 1.6614,-3.2162 l 1.6614,-3.2162 l 3.6160,-0.1693 l 3.6160,-0.1693 l 1.6614,-3.2162 l 1.6614,-3.2162 l -3.6160,0.1693 l -1.6614,3.2162 l -1.9546,-3.0469 l 1.6614,-3.2162 l -3.6160,0.1693 l -1.6614,3.2162 l 3.6160,-0.1693 l 1.9546,3.0469 l -3.6160,0.1693 l -3.6160,0.1693 l -1.9546,-3.0469 l -1.6614,3.2162 l 1.9546,3.0469 l 1.6614,-3.2162 l 3.6160,-0.1693 l -1.6614,3.2162 l -1.6614,3.2162 l -3.6160,0.1693 l 1.6614,-3.2162 l -1.9546,-3.0469 l -1.9546,-3.0469 l -1.6614,3.2162 l 1.9546,3.0469 l -3.6160,0.1693 l -1.9546,-3.0469 l 3.6160,-0.1693 l 1.6614,-3.2162 l 1.6614,-3.2162 l -3.6160,0.1693 l -1.6614,3.2162 l -1.9546,-3.0469 l 1.6614,-3.2162 l -3.6160,0.1693 l -1.6614,3.2162 l 3.6160,-0.1693 l 1.9546,3.0469 l -3.6160,0.1693 l -3.6160,0.1693 l -1.9546,-3.0469 l -1.6614,3.2162 l 1.9546,3.0469 l 1.6614,-3.2162 l 3.6160,-0.1693 l -1.6614,3.2162 l -1.6614,3.2162 l -3.6160,0.1693 l 1.9546,3.0469 l 3.6160,-0.1693 l 3.6160,-0.1693 l -1.9546,-3.0469 l -3.6160,0.1693 l 1.6614,-3.2162 l 3.6160,-0.1693 l -1.6614,3.2162 l 1.9546,3.0469 l 1.9546,3.0469 l 1.6614,-3.2162 l -1.9546,-3.0469 l 3.6160,-0.1693 l 1.9546,3.0469 l -3.6160,0.1693 l -1.6614,3.2162 l 3.6160,-0.1693 l 1.9546,3.0469 l -3.6160,0.1693 l -3.6160,0.1693 l -1.9546,-3.0469 l -1.9546,-3.0469 l -3.6160,0.1693 l -3.6160,0.1693 l 1.9546,3.0469 l 3.6160,-0.1693 l -1.6614,3.2162 l -3.6160,0.1693 l 1.6614,-3.2162 l -1.9546,-3.0469 l -1.9546,-3.0469 l -1.6614,3.2162 l 1.9546,3.0469 l -3.6160,0.1693 l -1.9546,-3.0469 l -1.6614,3.2162 l 1.9546,3.0469 l 1.6614,-3.2162 l 3.6160,-0.1693 l -1.6614,3.2162 l -1.6614,3.2162 l -3.6160,0.1693 l 1.9546,3.0469 l 3.6160,-0.1693 l -1.9546,-3.0469 l 1.6614,-3.2162 l 1.9546,3.0469 l 1.9546,3.0469 l -1.6614,3.2162 l 3.6160,-0.1693 l 1.6614,-3.2162 l 1.6614,-3.2162 l -3.6160,0.1693 l -1.6614,3.2162 l -1.9546,-3.0469 l 1.6614,-3.2162 l 1.9546,3.0469 l 3.6160,-0.1693 l 3.6160,-0.1693 l -1.9546,-3.0469 l -3.6160,0.1693 l 1.6614,-3.2162 l 3.6160,-0.1693 l -1.6614,3.2162 l 1.9546,3.0469 l 1.6614,-3.2162 l 3.6160,-0.1693 l -1.6614,3.2162 l -1.6614,3.2162 l -3.6160,0.1693 l -3.6160,0.1693 l -1.6614,3.2162 l -1.6614,3.2162 l 3.6160,-0.1693 l 1.6614,-3.2162 l 1.9546,3.0469 l -1.6614,3.2162 l -1.9546,-3.0469 l -3.6160,0.1693 l -3.6160,0.1693 l 1.9546,3.0469 l 3.6160,-0.1693 l -1.6614,3.2162 l -3.6160,0.1693 l 1.6614,-3.2162 l -1.9546,-3.0469 l -1.6614,3.2162 l -3.6160,0.1693 l 1.6614,-3.2162 l 1.6614,-3.2162 l 3.6160,-0.1693 l -1.9546,-3.0469 l -3.6160,0.1693 l 1.9546,3.0469 l -1.6614,3.2162 l -1.9546,-3.0469 l -1.9546,-3.0469 l 1.6614,-3.2162 l 1.6614,-3.2162 l -1.9546,-3.0469 l -1.9546,-3.0469 l -1.6614,3.2162 l 1.9546,3.0469 l -3.6160,0.1693 l -1.9546,-3.0469 l -1.6614,3.2162 l 1.9546,3.0469 l 1.6614,-3.2162 l 3.6160,-0.1693 l -1.6614,3.2162 l -1.6614,3.2162 l -3.6160,0.1693 l 1.9546,3.0469 l 3.6160,-0.1693 l -1.9546,-3.0469 l 1.6614,-3.2162 l 1.9546,3.0469 l 1.9546,3.0469 l -1.6614,3.2162 l -1.9546,-3.0469 l -3.6160,0.1693 l -3.6160,0.1693 l 1.9546,3.0469 l 3.6160,-0.1693 l -1.6614,3.2162 l -3.6160,0.1693 l 1.6614,-3.2162 l -1.9546,-3.0469 l -1.9546,-3.0469 l -1.6614,3.2162 l 1.9546,3.0469 l -3.6160,0.1693 l -1.9546,-3.0469 l 3.6160,-0.1693 l 1.6614,-3.2162 l -3.6160,0.1693 l -1.9546,-3.0469 l 3.6160,-0.1693 l 3.6160,-0.1693 l 1.9546,3.0469 l 1.6614,-3.2162 l -1.9546,-3.0469 l -1.6614,3.2162 l -3.6160,0.1693 l 1.6614,-3.2162 l 1.6614,-3.2162 l 3.6160,-0.1693 l 3.6160,-0.1693 l 1.6614,-3.2162 l 1.6614,-3.2162 l -3.6160,0.1693 l -1.6614,3.2162 l -1.9546,-3.0469 l 1.6614,-3.2162 l -3.6160,0.1693 l -1.6614,3.2162 l 3.6160,-0.1693 l 1.9546,3.0469 l -3.6160,0.1693 l -3.6160,0.1693 l -1.9546,-3.0469 l -1.6614,3.2162 l 1.9546,3.0469 l 1.6614,-3.2162 l 3.6160,-0.1693 l -1.6614,3.2162 l -1.6614,3.2162 l -3.6160,0.1693 l 1.6614,-3.2162 l -1.9546,-3.0469 l -1.9546,-3.0469 l -1.6614,3.2162 l 1.9546,3.0469 l -3.6160,0.1693 l -1.9546,-3.0469 l 3.6160,-0.1693 l 1.6614,-3.2162 l 1.6614,-3.2162 l -3.6160,0.1693 l -1.6614,3.2162 l -1.9546,-3.0469 l 1.6614,-3.2162 l 1.9546,3.0469 l 3.6160,-0.1693 l -1.9546,-3.0469 l 1.6614,-3.2162 l 1.9546,3.0469 l 1.9546,3.0469 l -1.6614,3.2162 l 3.6160,-0.1693 l 1.6614,-3.2162 l -3.6160,0.1693 l -1.9546,-3.0469 l 3.6160,-0.1693 l 3.6160,-0.1693 l 1.9546,3.0469 l 1.6614,-3.2162 l -1.9546,-3.0469 l -1.9546,-3.0469 l -1.6614,3.2162 l 1.9546,3.0469 l -3.6160,0.1693 l -1.9546,-3.0469 l 3.6160,-0.1693 l 1.6614,-3.2162 l 1.6614,-3.2162 l -3.6160,0.1693 l -1.6614,3.2162 l -1.9546,-3.0469 l 1.6614,-3.2162 l 1.9546,3.0469 l 3.6160,-0.1693 l -1.9546,-3.0469 l 1.6614,-3.2162 l 1.9546,3.0469 l 1.9546,3.0469 l -1.6614,3.2162 l -1.6614,3.2162 l 1.9546,3.0469 l 1.9546,3.0469 l 1.6614,-3.2162 l -1.9546,-3.0469 l 3.6160,-0.1693 l 1.9546,3.0469 l -3.6160,0.1693 l -1.6614,3.2162 l -1.6614,3.2162 l 3.6160,-0.1693 l 1.6614,-3.2162 l 1.9546,3.0469 l -1.6614,3.2162 l 3.6160,-0.1693 l 1.6614,-3.2162 l -3.6160,0.1693 l -1.9546,-3.0469 l 3.6160,-0.1693 l 3.6160,-0.1693 l 1.9546,3.0469 l 1.6614,-3.2162 l -1.9546,-3.0469 l -1.6614,3.2162 l -3.6160,0.1693 l 1.6614,-3.2162 l 1.6614,-3.2162 l 3.6160,-0.1693 l -1.9546,-3.0469 l -3.6160,0.1693 l -3.6160,0.1693 l 1.9546,3.0469 l 3.6160,-0.1693 l -1.6614,3.2162 l -3.6160,0.1693 l 1.6614,-3.2162 l -1.9546,-3.0469 l -1.9546,-3.0469 l -1.6614,3.2162 l 1.9546,3.0469 l -3.6160,0.1693 l -1.9546,-3.0469 l 3.6160,-0.1693 l 1.6614,-3.2162 l -3.6160,0.1693 l -1.9546,-3.0469 l 3.6160,-0.1693 l 3.6160,-0.1693 l 1.9546,3.0469 l 1.9546,3.0469 l 3.6160,-0.1693 l 3.6160,-0.1693 l -1.9546,-3.0469 l -3.6160,0.1693 l 1.6614,-3.2162 l 3.6160,-0.1693 l -1.6614,3.2162 l 1.9546,3.0469 l 1.9546,3.0469 l 1.6614,-3.2162 l -1.9546,-3.0469 l 3.6160,-0.1693 l 1.9546,3.0469 l 1.6614,-3.2162 l -1.9546,-3.0469 l -1.6614,3.2162 l -3.6160,0.1693 l 1.6614,-3.2162 l 1.6614,-3.2162 l 3.6160,-0.1693 l -1.9546,-3.0469 l -3.6160,0.1693 l 1.9546,3.0469 l -1.6614,3.2162 l -1.9546,-3.0469 l -1.9546,-3.0469 l 1.6614,-3.2162 l 1.6614,-3.2162 l -1.9546,-3.0469 l -1.9546,-3.0469 l -1.6614,3.2162 l 1.9546,3.0469 l -3.6160,0.1693 l -1.9546,-3.0469 l -1.6614,3.2162 l 1.9546,3.0469 l 1.6614,-3.2162 l 3.6160,-0.1693 l -1.6614,3.2162 l -1.6614,3.2162 l -3.6160,0.1693 l 1.9546,3.0469 l 3.6160,-0.1693 l -1.9546,-3.0469 l 1.6614,-3.2162 l 1.9546,3.0469 l 1.9546,3.0469 l -1.6614,3.2162 l -1.9546,-3.0469 l -3.6160,0.1693 l -3.6160,0.1693 l 1.9546,3.0469 l 3.6160,-0.1693 l -1.6614,3.2162 l -3.6160,0.1693 l 1.6614,-3.2162 l -1.9546,-3.0469 l -1.9546,-3.0469 l -1.6614,3.2162 l 1.9546,3.0469 l -3.6160,0.1693 l -1.9546,-3.0469 l 3.6160,-0.1693 l 1.6614,-3.2162 l -3.6160,0.1693 l -1.9546,-3.0469 l 3.6160,-0.1693 l 3.6160,-0.1693 l 1.9546,3.0469 l 1.6614,-3.2162 l -1.9546,-3.0469 l -1.6614,3.2162 l -3.6160,0.1693 l 1.6614,-3.2162 l 1.6614,-3.2162 l 3.6160,-0.1693 l 3.6160,-0.1693 l 1.6614,-3.2162 l 1.6614,-3.2162 l -3.6160,0.1693 l -1.6614,3.2162 l -1.9546,-3.0469 l 1.6614,-3.2162 l -3.6160,0.1693 l -1.6614,3.2162 l 3.6160,-0.1693 l 1.9546,3.0469 l -3.6160,0.1693 l -3.6160,0.1693 l -1.9546,-3.0469 l -1.6614,3.2162 l 1.9546,3.0469 l 1.6614,-3.2162 l 3.6160,-0.1693 l -1.6614,3.2162 l -1.6614,3.2162 l -3.6160,0.1693 l 1.6614,-3.2162 l -1.9546,-3.0469 l -1.9546,-3.0469 l -1.6614,3.2162 l 1.9546,3.0469 l -3.6160,0.1693 l -1.9546,-3.0469 l 3.6160,-0.1693 l 1.6614,-3.2162 l 1.6614,-3.2162 l -3.6160,0.1693 l -1.6614,3.2162 l -1.9546,-3.0469 l 1.6614,-3.2162 l 1.9546,3.0469 l 3.6160,-0.1693 l -1.9546,-3.0469 l 1.6614,-3.2162 l 1.9546,3.0469 l 1.9546,3.0469 l -1.6614,3.2162 l 3.6160,-0.1693 l 1.6614,-3.2162 l -3.6160,0.1693 l -1.9546,-3.0469 l 3.6160,-0.1693 l 3.6160,-0.1693 l 1.9546,3.0469 l 1.6614,-3.2162 l -1.9546,-3.0469 l -1.9546,-3.0469 l -1.6614,3.2162 l 1.9546,3.0469 l -3.6160,0.1693 l -1.9546,-3.0469 l 3.6160,-0.1693 l 1.6614,-3.2162 l 1.6614,-3.2162 l -3.6160,0.1693 l -1.6614,3.2162 l -1.9546,-3.0469 l 1.6614,-3.2162 l 1.9546,3.0469 l 3.6160,-0.1693 l -1.9546,-3.0469 l 1.6614,-3.2162 l 1.9546,3.0469 l 1.9546,3.0469 l -1.6614,3.2162 l -1.6614,3.2162 l 1.9546,3.0469 l 1.9546,3.0469 l 1.6614,-3.2162 l -1.9546,-3.0469 l 3.6160,-0.1693 l 1.9546,3.0469 l -3.6160,0.1693 l -1.6614,3.2162 l -1.6614,3.2162 l 3.6160,-0.1693 l 1.6614,-3.2162 l 1.9546,3.0469 l -1.6614,3.2162 l -1.6614,3.2162 l 1.9546,3.0469 l 1.6614,-3.2162 l 3.6160,-0.1693 l -1.6614,3.2162 l -1.6614,3.2162 l -3.6160,0.1693 l 1.9546,3.0469 l 3.6160,-0.1693 l -1.9546,-3.0469 l 1.6614,-3.2162 l 1.9546,3.0469 l 1.9546,3.0469 l -1.6614,3.2162 l -1.6614,3.2162 l 1.9546,3.0469 l 1.9546,3.0469 l 1.6614,-3.2162 l -1.9546,-3.0469 l 3.6160,-0.1693 l 1.9546,3.0469 l 1.6614,-3.2162 l -1.9546,-3.0469 l -1.6614,3.2162 l -3.6160,0.1693 l 1.6614,-3.2162 l 1.6614,-3.2162 l 3.6160,-0.1693 l -1.9546,-3.0469 l -3.6160,0.1693 l 1.9546,3.0469 l -1.6614,3.2162 l -1.9546,-3.0469 l -1.9546,-3.0469 l 1.6614,-3.2162 l 1.9546,3.0469 l 3.6160,-0.1693 l 3.6160,-0.1693 l -1.9546,-3.0469 l -3.6160,0.1693 l 1.6614,-3.2162 l 3.6160,-0.1693 l -1.6614,3.2162 l 1.9546,3.0469 l 1.9546,3.0469 l 1.6614,-3.2162 l -1.9546,-3.0469 l 3.6160,-0.1693 l 1.9546,3.0469 l -3.6160,0.1693 l -1.6614,3.2162 l 3.6160,-0.1693 l 1.9546,3.0469 l -3.6160,0.1693 l -3.6160,0.1693 l -1.9546,-3.0469 l -1.6614,3.2162 l 1.9546,3.0469 l 1.6614,-3.2162 l 3.6160,-0.1693 l -1.6614,3.2162 l -1.6614,3.2162 l -3.6160,0.1693 l -3.6160,0.1693 l -1.6614,3.2162 l -1.6614,3.2162 l 3.6160,-0.1693 l 1.6614,-3.2162 l 1.9546,3.0469 l -1.6614,3.2162 l 3.6160,-0.1693 l 1.6614,-3.2162 l -3.6160,0.1693 l -1.9546,-3.0469 l 3.6160,-0.1693 l 3.6160,-0.1693 l 1.9546,3.0469 l 1.6614,-3.2162 l -1.9546,-3.0469 l -1.6614,3.2162 l -3.6160,0.1693 l 1.6614,-3.2162 l 1.6614,-3.2162 l 3.6160,-0.1693 l -1.6614,3.2162 l 1.9546,3.0469 l 1.9546,3.0469 l 1.6614,-3.2162 l -1.9546,-3.0469 l 3.6160,-0.1693 l 1.9546,3.0469 l -3.6160,0.1693 l -1.6614,3.2162 l -1.6614,3.2162 l 3.6160,-0.1693 l 1.6614,-3.2162 l 1.9546,3.0469 l -1.6614,3.2162 l -1.6614,3.2162 l 1.9546,3.0469 l 1.6614,-3.2162 l 3.6160,-0.1693 l -1.6614,3.2162 l -1.6614,3.2162 l -3.6160,0.1693 l 1.9546,3.0469 l 3.6160,-0.1693 l -1.9546,-3.0469 l 1.6614,-3.2162 l 1.9546,3.0469 l 1.9546,3.0469 l -1.6614,3.2162 l 3.6160,-0.1693 l 1.6614,-3.2162 l 1.6614,-3.2162 l -3.6160,0.1693 l -1.6614,3.2162 l -1.9546,-3.0469 l 1.6614,-3.2162 l 1.9546,3.0469 l 3.6160,-0.1693 l 3.6160,-0.1693 l -1.9546,-3.0469 l -3.6160,0.1693 l 1.6614,-3.2162 l 3.6160,-0.1693 l -1.6614,3.2162 l 1.9546,3.0469 l 1.6614,-3.2162 l 3.6160,-0.1693 l -1.6614,3.2162 l -1.6614,3.2162 l -3.6160,0.1693 l -3.6160,0.1693 l -1.6614,3.2162 l -1.6614,3.2162 l 3.6160,-0.1693 l 1.6614,-3.2162 l 1.9546,3.0469 l -1.6614,3.2162 l -1.9546,-3.0469 l -3.6160,0.1693 l -3.6160,0.1693 l 1.9546,3.0469 l 3.6160,-0.1693 l -1.6614,3.2162 l -3.6160,0.1693 l 1.9546,3.0469 l 3.6160,-0.1693 l -1.9546,-3.0469 l 1.6614,-3.2162 l 1.9546,3.0469 l 1.9546,3.0469 l -1.6614,3.2162 l 3.6160,-0.1693 l 1.6614,-3.2162 l -3.6160,0.1693 l -1.9546,-3.0469 l 3.6160,-0.1693 l 3.6160,-0.1693 l 1.9546,3.0469 l 1.6614,-3.2162 l -1.9546,-3.0469 l -1.9546,-3.0469 l -1.6614,3.2162 l 1.9546,3.0469 l -3.6160,0.1693 l -1.9546,-3.0469 l 3.6160,-0.1693 l 1.6614,-3.2162 l 1.6614,-3.2162 l -3.6160,0.1693 l -1.6614,3.2162 l -1.9546,-3.0469 l 1.6614,-3.2162 l 1.9546,3.0469 l 3.6160,-0.1693 l -1.9546,-3.0469 l 1.6614,-3.2162 l 1.9546,3.0469 l 1.9546,3.0469 l -1.6614,3.2162 l -1.6614,3.2162 l 1.9546,3.0469 l 1.9546,3.0469 l 1.6614,-3.2162 l -1.9546,-3.0469 l 3.6160,-0.1693 l 1.9546,3.0469 l -3.6160,0.1693 l -1.6614,3.2162 l -1.6614,3.2162 l 3.6160,-0.1693 l 1.6614,-3.2162 l 1.9546,3.0469 l -1.6614,3.2162 l -1.6614,3.2162 l 1.9546,3.0469 l 1.6614,-3.2162 l 3.6160,-0.1693 l -1.6614,3.2162 l -1.6614,3.2162 l -3.6160,0.1693 l 1.9546,3.0469 l 3.6160,-0.1693 l -1.9546,-3.0469 l 1.6614,-3.2162 l 1.9546,3.0469 l 1.9546,3.0469 l -1.6614,3.2162 l -1.6614,3.2162 l 1.9546,3.0469 l 1.9546,3.0469 l 1.6614,-3.2162 l -1.9546,-3.0469 l 3.6160,-0.1693 l 1.9546,3.0469 l 1.6614,-3.2162 l -1.9546,-3.0469 l -1.6614,3.2162 l -3.6160,0.1693 l 1.6614,-3.2162 l 1.6614,-3.2162 l 3.6160,-0.1693 l -1.9546,-3.0469 l -3.6160,0.1693 l 1.9546,3.0469 l -1.6614,3.2162 l -1.9546,-3.0469 l -1.9546,-3.0469 l 1.6614,-3.2162 l 1.9546,3.0469 l 3.6160,-0.1693 l 3.6160,-0.1693 l -1.9546,-3.0469 l -3.6160,0.1693 l 1.6614,-3.2162 l 3.6160,-0.1693 l -1.6614,3.2162 l 1.9546,3.0469 l 1.9546,3.0469 l 1.6614,-3.2162 l -1.9546,-3.0469 l 3.6160,-0.1693 l 1.9546,3.0469 l 1.6614,-3.2162 l -1.9546,-3.0469 l -1.6614,3.2162 l -3.6160,0.1693 l 1.6614,-3.2162 l 1.6614,-3.2162 l 3.6160,-0.1693 l -1.9546,-3.0469 l -3.6160,0.1693 l 1.9546,3.0469 l -1.6614,3.2162 l -1.9546,-3.0469 l -1.9546,-3.0469 l 1.6614,-3.2162 l -3.6160,0.1693 l -1.6614,3.2162 l -1.6614,3.2162 l 3.6160,-0.1693 l 1.6614,-3.2162 l 1.9546,3.0469 l -1.6614,3.2162 l -1.9546,-3.0469 l -3.6160,0.1693 l -3.6160,0.1693 l 1.9546,3.0469 l 3.6160,-0.1693 l -1.6614,3.2162 l -3.6160,0.1693 l 1.6614,-3.2162 l -1.9546,-3.0469 l -1.6614,3.2162 l -3.6160,0.1693 l 1.6614,-3.2162 l 1.6614,-3.2162 l 3.6160,-0.1693 l 3.6160,-0.1693 l 1.6614,-3.2162 l 1.6614,-3.2162 l -3.6160,0.1693 l -1.6614,3.2162 l -1.9546,-3.0469 l 1.6614,-3.2162 l 1.9546,3.0469 l 3.6160,-0.1693 l 3.6160,-0.1693 l -1.9546,-3.0469 l -3.6160,0.1693 l 1.6614,-3.2162 l 3.6160,-0.1693 l -1.9546,-3.0469 l -3.6160,0.1693 l 1.9546,3.0469 l -1.6614,3.2162 l -1.9546,-3.0469 l -1.9546,-3.0469 l 1.6614,-3.2162 l -3.6160,0.1693 l -1.6614,3.2162 l 3.6160,-0.1693 l 1.9546,3.0469 l -3.6160,0.1693 l -3.6160,0.1693 l -1.9546,-3.0469 l -1.6614,3.2162 l 1.9546,3.0469 l 1.9546,3.0469 l 1.6614,-3.2162 l -1.9546,-3.0469 l 3.6160,-0.1693 l 1.9546,3.0469 l -3.6160,0.1693 l -1.6614,3.2162 l -1.6614,3.2162 l 3.6160,-0.1693 l 1.6614,-3.2162 l 1.9546,3.0469 l -1.6614,3.2162 l -1.9546,-3.0469 l -3.6160,0.1693 l 1.9546,3.0469 l -1.6614,3.2162 l -1.9546,-3.0469 l -1.9546,-3.0469 l 1.6614,-3.2162 l 1.6614,-3.2162 l -1.9546,-3.0469 l -1.9546,-3.0469 l -1.6614,3.2162 l 1.9546,3.0469 l -3.6160,0.1693 l -1.9546,-3.0469 l 3.6160,-0.1693 l 1.6614,-3.2162 l 1.6614,-3.2162 l -3.6160,0.1693 l -1.6614,3.2162 l -1.9546,-3.0469 l 1.6614,-3.2162 l 1.9546,3.0469 l 3.6160,-0.1693 l -1.9546,-3.0469 l 1.6614,-3.2162 l 1.9546,3.0469 l 1.9546,3.0469 l -1.6614,3.2162 l 3.6160,-0.1693 l 1.6614,-3.2162 l -3.6160,0.1693 l -1.9546,-3.0469 l 3.6160,-0.1693 l 3.6160,-0.1693 l 1.9546,3.0469 l 1.9546,3.0469 l 3.6160,-0.1693 l 3.6160,-0.1693 l -1.9546,-3.0469 l -3.6160,0.1693 l 1.6614,-3.2162 l 3.6160,-0.1693 l -1.9546,-3.0469 l -3.6160,0.1693 l 1.9546,3.0469 l -1.6614,3.2162 l -1.9546,-3.0469 l -1.9546,-3.0469 l 1.6614,-3.2162 l -3.6160,0.1693 l -1.6614,3.2162 l 3.6160,-0.1693 l 1.9546,3.0469 l -3.6160,0.1693 l -3.6160,0.1693 l -1.9546,-3.0469 l 3.6160,-0.1693 l 1.6614,-3.2162 l 1.6614,-3.2162 l -3.6160,0.1693 l -1.6614,3.2162 l -1.9546,-3.0469 l 1.6614,-3.2162 l 1.9546,3.0469 l 3.6160,-0.1693 l 3.6160,-0.1693 l -1.9546,-3.0469 l -3.6160,0.1693 l 1.6614,-3.2162 l 3.6160,-0.1693 l -1.6614,3.2162 l 1.9546,3.0469 l 1.6614,-3.2162 l 3.6160,-0.1693 l -1.6614,3.2162 l -1.6614,3.2162 l -3.6160,0.1693 l 1.9546,3.0469 l 3.6160,-0.1693 l -1.9546,-3.0469 l 1.6614,-3.2162 l 1.9546,3.0469 l 1.9546,3.0469 l -1.6614,3.2162 l -1.6614,3.2162 l 1.9546,3.0469 l 1.9546,3.0469 l 1.6614,-3.2162 l -1.9546,-3.0469 l 3.6160,-0.1693 l 1.9546,3.0469 l 1.6614,-3.2162 l -1.9546,-3.0469 l -1.6614,3.2162 l -3.6160,0.1693 l 1.6614,-3.2162 l 1.6614,-3.2162 l 3.6160,-0.1693 l -1.9546,-3.0469 l -3.6160,0.1693 l 1.9546,3.0469 l -1.6614,3.2162 l -1.9546,-3.0469 l -1.9546,-3.0469 l 1.6614,-3.2162 l 1.9546,3.0469 l 3.6160,-0.1693 l 3.6160,-0.1693 l -1.9546,-3.0469 l -3.6160,0.1693 l 1.6614,-3.2162 l 3.6160,-0.1693 l -1.6614,3.2162 l 1.9546,3.0469 l 1.9546,3.0469 l 1.6614,-3.2162 l -1.9546,-3.0469 l 3.6160,-0.1693 l 1.9546,3.0469 l -3.6160,0.1693 l -1.6614,3.2162 l 3.6160,-0.1693 l 1.9546,3.0469 l -3.6160,0.1693 l -3.6160,0.1693 l -1.9546,-3.0469 l -1.6614,3.2162 l 1.9546,3.0469 l 1.6614,-3.2162 l 3.6160,-0.1693 l -1.6614,3.2162 l -1.6614,3.2162 l -3.6160,0.1693 l 1.9546,3.0469 l 3.6160,-0.1693 l 3.6160,-0.1693 l -1.9546,-3.0469 l -3.6160,0.1693 l 1.6614,-3.2162 l 3.6160,-0.1693 l -1.6614,3.2162 l 1.9546,3.0469 l 1.9546,3.0469 l 1.6614,-3.2162 l -1.9546,-3.0469 l 3.6160,-0.1693 l 1.9546,3.0469 l -3.6160,0.1693 l -1.6614,3.2162 l 3.6160,-0.1693 l 1.9546,3.0469 l -3.6160,0.1693 l -3.6160,0.1693 l -1.9546,-3.0469 l -1.9546,-3.0469 l -3.6160,0.1693 l -3.6160,0.1693 l 1.9546,3.0469 l 3.6160,-0.1693 l -1.6614,3.2162 l -3.6160,0.1693 l 1.6614,-3.2162 l -1.9546,-3.0469 l -1.9546,-3.0469 l -1.6614,3.2162 l 1.9546,3.0469 l -3.6160,0.1693 l -1.9546,-3.0469 l -1.6614,3.2162 l 1.9546,3.0469 l 1.6614,-3.2162 l 3.6160,-0.1693 l -1.6614,3.2162 l -1.6614,3.2162 l -3.6160,0.1693 l 1.9546,3.0469 l 3.6160,-0.1693 l -1.9546,-3.0469 l 1.6614,-3.2162 l 1.9546,3.0469 l 1.9546,3.0469 l -1.6614,3.2162 l 3.6160,-0.1693 l 1.6614,-3.2162 l 1.6614,-3.2162 l -3.6160,0.1693 l -1.6614,3.2162 l -1.9546,-3.0469 l 1.6614,-3.2162 l 1.9546,3.0469 l 3.6160,-0.1693 l 3.6160,-0.1693 l -1.9546,-3.0469 l -3.6160,0.1693 l 1.6614,-3.2162 l 3.6160,-0.1693 l -1.6614,3.2162 l 1.9546,3.0469 l 1.6614,-3.2162 l 3.6160,-0.1693 l -1.6614,3.2162 l -1.6614,3.2162 l -3.6160,0.1693 l -3.6160,0.1693 l -1.6614,3.2162 l -1.6614,3.2162 l 3.6160,-0.1693 l 1.6614,-3.2162 l 1.9546,3.0469 l -1.6614,3.2162 l -1.9546,-3.0469 l -3.6160,0.1693 l -3.6160,0.1693 l 1.9546,3.0469 l 3.6160,-0.1693 l -1.6614,3.2162 l -3.6160,0.1693 l -3.6160,0.1693 l -1.6614,3.2162 l 3.6160,-0.1693 l 1.9546,3.0469 l -3.6160,0.1693 l -3.6160,0.1693 l -1.9546,-3.0469 l -1.6614,3.2162 l 1.9546,3.0469 l 1.6614,-3.2162 l 3.6160,-0.1693 l -1.6614,3.2162 l -1.6614,3.2162 l -3.6160,0.1693 l -3.6160,0.1693 l -1.6614,3.2162 l -1.6614,3.2162 l 3.6160,-0.1693 l 1.6614,-3.2162 l 1.9546,3.0469 l -1.6614,3.2162 l 3.6160,-0.1693 l 1.6614,-3.2162 l -3.6160,0.1693 l -1.9546,-3.0469 l 3.6160,-0.1693 l 3.6160,-0.1693 l 1.9546,3.0469 l 1.6614,-3.2162 l -1.9546,-3.0469 l -1.6614,3.2162 l -3.6160,0.1693 l 1.6614,-3.2162 l 1.6614,-3.2162 l 3.6160,-0.1693 l -1.6614,3.2162 l 1.9546,3.0469 l 1.9546,3.0469 l 1.6614,-3.2162 l -1.9546,-3.0469 l 3.6160,-0.1693 l 1.9546,3.0469 l -3.6160,0.1693 l -1.6614,3.2162 l -1.6614,3.2162 l 3.6160,-0.1693 l 1.6614,-3.2162 l 1.9546,3.0469 l -1.6614,3.2162 l 3.6160,-0.1693 l 1.6614,-3.2162 l -3.6160,0.1693 l -1.9546,-3.0469 l 3.6160,-0.1693 l 3.6160,-0.1693 l 1.9546,3.0469 l 1.6614,-3.2162 l -1.9546,-3.0469 l -1.6614,3.2162 l -3.6160,0.1693 l 1.6614,-3.2162 l 1.6614,-3.2162 l 3.6160,-0.1693 l -1.9546,-3.0469 l -3.6160,0.1693 l -3.6160,0.1693 l 1.9546,3.0469 l 3.6160,-0.1693 l -1.6614,3.2162 l -3.6160,0.1693 l 1.6614,-3.2162 l -1.9546,-3.0469 l -1.9546,-3.0469 l -1.6614,3.2162 l 1.9546,3.0469 l -3.6160,0.1693 l -1.9546,-3.0469 l 3.6160,-0.1693 l 1.6614,-3.2162 l -3.6160,0.1693 l -1.9546,-3.0469 l 3.6160,-0.1693 l 3.6160,-0.1693 l 1.9546,3.0469 l 1.9546,3.0469 l 3.6160,-0.1693 l 3.6160,-0.1693 l -1.9546,-3.0469 l -3.6160,0.1693 l 1.6614,-3.2162 l 3.6160,-0.1693 l -1.6614,3.2162 l 1.9546,3.0469 l 1.9546,3.0469 l 1.6614,-3.2162 l -1.9546,-3.0469 l 3.6160,-0.1693 l 1.9546,3.0469 l 1.6614,-3.2162 l -1.9546,-3.0469 l -1.6614,3.2162 l -3.6160,0.1693 l 1.6614,-3.2162 l 1.6614,-3.2162 l 3.6160,-0.1693 l -1.9546,-3.0469 l -3.6160,0.1693 l 1.9546,3.0469 l -1.6614,3.2162 l -1.9546,-3.0469 l -1.9546,-3.0469 l 1.6614,-3.2162 l -3.6160,0.1693 l -1.6614,3.2162 l -1.6614,3.2162 l 3.6160,-0.1693 l 1.6614,-3.2162 l 1.9546,3.0469 l -1.6614,3.2162 l -1.9546,-3.0469 l -3.6160,0.1693 l -3.6160,0.1693 l 1.9546,3.0469 l 3.6160,-0.1693 l -1.6614,3.2162 l -3.6160,0.1693 l 1.6614,-3.2162 l -1.9546,-3.0469 l -1.6614,3.2162 l -3.6160,0.1693 l 1.6614,-3.2162 l 1.6614,-3.2162 l 3.6160,-0.1693 l 3.6160,-0.1693 l 1.6614,-3.2162 l 1.6614,-3.2162 l -3.6160,0.1693 l -1.6614,3.2162 l -1.9546,-3.0469 l 1.6614,-3.2162 l 1.9546,3.0469 l 3.6160,-0.1693 l 3.6160,-0.1693 l -1.9546,-3.0469 l -3.6160,0.1693 l 1.6614,-3.2162 l 3.6160,-0.1693 l -1.6614,3.2162 l 1.9546,3.0469 l 1.6614,-3.2162 l 3.6160,-0.1693 l -1.6614,3.2162 l -1.6614,3.2162 l -3.6160,0.1693 l 1.9546,3.0469 l 3.6160,-0.1693 l -1.9546,-3.0469 l 1.6614,-3.2162 l 1.9546,3.0469 l 1.9546,3.0469 l -1.6614,3.2162 l -1.6614,3.2162 l 1.9546,3.0469 l 1.9546,3.0469 l 1.6614,-3.2162 l -1.9546,-3.0469 l 3.6160,-0.1693 l 1.9546,3.0469 l 1.6614,-3.2162 l -1.9546,-3.0469 l -1.6614,3.2162 l -3.6160,0.1693 l 1.6614,-3.2162 l 1.6614,-3.2162 l 3.6160,-0.1693 l -1.9546,-3.0469 l -3.6160,0.1693 l 1.9546,3.0469 l -1.6614,3.2162 l -1.9546,-3.0469 l -1.9546,-3.0469 l 1.6614,-3.2162 l 1.9546,3.0469 l 3.6160,-0.1693 l 3.6160,-0.1693 l -1.9546,-3.0469 l -3.6160,0.1693 l 1.6614,-3.2162 l 3.6160,-0.1693 l -1.6614,3.2162 l 1.9546,3.0469 l 1.9546,3.0469 l 1.6614,-3.2162 l -1.9546,-3.0469 l 3.6160,-0.1693 l 1.9546,3.0469 l -3.6160,0.1693 l -1.6614,3.2162 l 3.6160,-0.1693 l 1.9546,3.0469 l -3.6160,0.1693 l -3.6160,0.1693 l -1.9546,-3.0469 l -1.6614,3.2162 l 1.9546,3.0469 l 1.6614,-3.2162 l 3.6160,-0.1693 l -1.6614,3.2162 l -1.6614,3.2162 l -3.6160,0.1693 l -3.6160,0.1693 l -1.6614,3.2162 l -1.6614,3.2162 l 3.6160,-0.1693 l 1.6614,-3.2162 l 1.9546,3.0469 l -1.6614,3.2162 l 3.6160,-0.1693 l 1.6614,-3.2162 l -3.6160,0.1693 l -1.9546,-3.0469 l 3.6160,-0.1693 l 3.6160,-0.1693 l 1.9546,3.0469 l 1.6614,-3.2162 l -1.9546,-3.0469 l -1.6614,3.2162 l -3.6160,0.1693 l 1.6614,-3.2162 l 1.6614,-3.2162 l 3.6160,-0.1693 l -1.6614,3.2162 l 1.9546,3.0469 l 1.9546,3.0469 l 1.6614,-3.2162 l -1.9546,-3.0469 l 3.6160,-0.1693 l 1.9546,3.0469 l -3.6160,0.1693 l -1.6614,3.2162 l -1.6614,3.2162 l 3.6160,-0.1693 l 1.6614,-3.2162 l 1.9546,3.0469 l -1.6614,3.2162 "/></g><g stroke-linejoin="miter" stroke-opacity="1.0" fill-opacity="0.0" stroke="rgb(0,0,0)" stroke-width="1.5471739538078182" fill="rgb(0,0,0)" stroke-linecap="butt" stroke-miterlimit="10.0"><path d="M 214.5356,207.5331 l 23.9437,8.2943 l 19.1550,-16.5887 l -23.9437,-8.2943 l -4.7887,-24.8830 l 23.9437,8.2943 l 23.9437,8.2943 l 4.7887,24.8830 l 19.1550,-16.5887 l -4.7887,-24.8830 l -19.1550,16.5887 l -23.9437,-8.2943 l 19.1550,-16.5887 l 19.1550,-16.5887 l 23.9437,8.2943 l -4.7887,-24.8830 l -23.9437,-8.2943 l -23.9437,-8.2943 l 4.7887,24.8830 l 23.9437,8.2943 l -19.1550,16.5887 l -23.9437,-8.2943 l 19.1550,-16.5887 l -4.7887,-24.8830 l -4.7887,-24.8830 l -19.1550,16.5887 l 4.7887,24.8830 l -23.9437,-8.2943 l -4.7887,-24.8830 l 23.9437,8.2943 l 19.1550,-16.5887 l -23.9437,-8.2943 l -4.7887,-24.8830 l 23.9437,8.2943 l 23.9437,8.2943 l 4.7887,24.8830 l 4.7887,24.8830 l 23.9437,8.2943 l 23.9437,8.2943 l -4.7887,-24.8830 l -23.9437,-8.2943 l 19.1550,-16.5887 l 23.9437,8.2943 l -19.1550,16.5887 l 4.7887,24.8830 l 4.7887,24.8830 l 19.1550,-16.5887 l -4.7887,-24.8830 l 23.9437,8.2943 l 4.7887,24.8830 "/></g><g stroke-linejoin="miter" stroke-opacity="1.0" fill-opacity="0.0" stroke="rgb(0,0,0)" stroke-width="1.5471739538078182" fill="rgb(0,0,0)" stroke-linecap="butt" stroke-miterlimit="10.0"><path d="M 201.1271,149.4727 l -27.9427,-48.3982 "/></g><g stroke-linejoin="miter" stroke-opacity="1.0" fill-opacity="1.0" stroke="rgb(0,0,0)" stroke-width="0.0" fill="rgb(0,0,0)" stroke-linecap="butt" stroke-miterlimit="10.0"></g><g stroke-linejoin="miter" stroke-opacity="1.0" fill-opacity="1.0" stroke="rgb(0,0,0)" stroke-width="0.0" fill="rgb(0,0,0)" stroke-linecap="butt" stroke-miterlimit="10.0"></g><g stroke-linejoin="miter" stroke-opacity="1.0" fill-opacity="1.0" stroke="rgb(0,0,0)" stroke-width="0.0" fill="rgb(0,0,0)" stroke-linecap="butt" stroke-miterlimit="10.0"><path d="M 167.0855,88.9636 l 3.3548,15.7829 l 3.0074,-4.7632 Z"/></g><g stroke-linejoin="miter" stroke-opacity="1.0" fill-opacity="1.0" stroke="rgb(0,0,0)" stroke-width="0.0" fill="rgb(0,0,0)" stroke-linecap="butt" stroke-miterlimit="10.0"><path d="M 173.4477,99.9833 l 0.4067,0.7044 l -1.3399,0.7736 Z"/></g><g stroke-linejoin="miter" stroke-opacity="1.0" fill-opacity="0.0" stroke="rgb(0,0,0)" stroke-width="1.5471739538078182" fill="rgb(0,0,0)" stroke-linecap="butt" stroke-miterlimit="10.0"><path d="M 167.6060,91.4123 l -55.8855,0.0000 "/></g><g stroke-linejoin="miter" stroke-opacity="1.0" fill-opacity="1.0" stroke="rgb(0,0,0)" stroke-width="0.0" fill="rgb(0,0,0)" stroke-linecap="butt" stroke-miterlimit="10.0"></g><g stroke-linejoin="miter" stroke-opacity="1.0" fill-opacity="1.0" stroke="rgb(0,0,0)" stroke-width="0.0" fill="rgb(0,0,0)" stroke-linecap="butt" stroke-miterlimit="10.0"></g><g stroke-linejoin="miter" stroke-opacity="1.0" fill-opacity="1.0" stroke="rgb(0,0,0)" stroke-width="0.0" fill="rgb(0,0,0)" stroke-linecap="butt" stroke-miterlimit="10.0"><path d="M 98.1827,90.6387 l 15.3457,4.9861 l -2.6214,-4.9861 Z"/></g><g stroke-linejoin="miter" stroke-opacity="1.0" fill-opacity="1.0" stroke="rgb(0,0,0)" stroke-width="0.0" fill="rgb(0,0,0)" stroke-linecap="butt" stroke-miterlimit="10.0"><path d="M 110.9071,90.6387 l 0.8134,-0.0000 l 0.0000,1.5472 Z"/></g><g stroke-linejoin="miter" stroke-opacity="1.0" fill-opacity="0.0" stroke="rgb(0,0,0)" stroke-width="1.5471739538078182" fill="rgb(0,0,0)" stroke-linecap="butt" stroke-miterlimit="10.0"><path d="M 33.5212,91.4123 h 55.8855 "/></g><g stroke-linejoin="miter" stroke-opacity="1.0" fill-opacity="1.0" stroke="rgb(0,0,0)" stroke-width="0.0" fill="rgb(0,0,0)" stroke-linecap="butt" stroke-miterlimit="10.0"></g><g stroke-linejoin="miter" stroke-opacity="1.0" fill-opacity="1.0" stroke="rgb(0,0,0)" stroke-width="0.0" fill="rgb(0,0,0)" stroke-linecap="butt" stroke-miterlimit="10.0"></g><g stroke-linejoin="miter" stroke-opacity="1.0" fill-opacity="1.0" stroke="rgb(0,0,0)" stroke-width="0.0" fill="rgb(0,0,0)" stroke-linecap="butt" stroke-miterlimit="10.0"><path d="M 102.9444,92.1859 l -15.3457,-4.9861 l 2.6214,4.9861 Z"/></g><g stroke-linejoin="miter" stroke-opacity="1.0" fill-opacity="1.0" stroke="rgb(0,0,0)" stroke-width="0.0" fill="rgb(0,0,0)" stroke-linecap="butt" stroke-miterlimit="10.0"><path d="M 90.2201,92.1859 h -0.8134 v -1.5472 Z"/></g><g stroke-linejoin="miter" stroke-opacity="1.0" fill-opacity="0.0" stroke="rgb(0,0,0)" stroke-width="1.5471739538078182" fill="rgb(0,0,0)" stroke-linecap="butt" stroke-miterlimit="10.0"><path d="M 33.5212,91.4123 l 27.9427,48.3982 "/></g><g stroke-linejoin="miter" stroke-opacity="1.0" fill-opacity="1.0" stroke="rgb(0,0,0)" stroke-width="0.0" fill="rgb(0,0,0)" stroke-linecap="butt" stroke-miterlimit="10.0"></g><g stroke-linejoin="miter" stroke-opacity="1.0" fill-opacity="1.0" stroke="rgb(0,0,0)" stroke-width="0.0" fill="rgb(0,0,0)" stroke-linecap="butt" stroke-miterlimit="10.0"></g><g stroke-linejoin="miter" stroke-opacity="1.0" fill-opacity="1.0" stroke="rgb(0,0,0)" stroke-width="0.0" fill="rgb(0,0,0)" stroke-linecap="butt" stroke-miterlimit="10.0"><path d="M 67.5629,151.9214 l -3.3548,-15.7829 l -3.0074,4.7632 Z"/></g><g stroke-linejoin="miter" stroke-opacity="1.0" fill-opacity="1.0" stroke="rgb(0,0,0)" stroke-width="0.0" fill="rgb(0,0,0)" stroke-linecap="butt" stroke-miterlimit="10.0"><path d="M 61.2007,140.9018 l -0.4067,-0.7044 l 1.3399,-0.7736 Z"/></g><g stroke-linejoin="miter" stroke-opacity="1.0" fill-opacity="0.0" stroke="rgb(0,0,0)" stroke-width="1.5471739538078182" fill="rgb(0,0,0)" stroke-linecap="butt" stroke-miterlimit="10.0"><path d="M 67.0424,149.4727 h 55.8855 "/></g><g stroke-linejoin="miter" stroke-opacity="1.0" fill-opacity="1.0" stroke="rgb(0,0,0)" stroke-width="0.0" fill="rgb(0,0,0)" stroke-linecap="butt" stroke-miterlimit="10.0"></g><g stroke-linejoin="miter" stroke-opacity="1.0" fill-opacity="1.0" stroke="rgb(0,0,0)" stroke-width="0.0" fill="rgb(0,0,0)" stroke-linecap="butt" stroke-miterlimit="10.0"></g><g stroke-linejoin="miter" stroke-opacity="1.0" fill-opacity="1.0" stroke="rgb(0,0,0)" stroke-width="0.0" fill="rgb(0,0,0)" stroke-linecap="butt" stroke-miterlimit="10.0"><path d="M 136.4656,150.2463 l -15.3457,-4.9861 l 2.6214,4.9861 Z"/></g><g stroke-linejoin="miter" stroke-opacity="1.0" fill-opacity="1.0" stroke="rgb(0,0,0)" stroke-width="0.0" fill="rgb(0,0,0)" stroke-linecap="butt" stroke-miterlimit="10.0"><path d="M 123.7412,150.2463 h -0.8134 v -1.5472 Z"/></g><g stroke-linejoin="miter" stroke-opacity="1.0" fill-opacity="0.0" stroke="rgb(0,0,0)" stroke-width="1.5471739538078182" fill="rgb(0,0,0)" stroke-linecap="butt" stroke-miterlimit="10.0"><path d="M 100.5636,207.5331 l 27.9427,-48.3982 "/></g><g stroke-linejoin="miter" stroke-opacity="1.0" fill-opacity="1.0" stroke="rgb(0,0,0)" stroke-width="0.0" fill="rgb(0,0,0)" stroke-linecap="butt" stroke-miterlimit="10.0"></g><g stroke-linejoin="miter" stroke-opacity="1.0" fill-opacity="1.0" stroke="rgb(0,0,0)" stroke-width="0.0" fill="rgb(0,0,0)" stroke-linecap="butt" stroke-miterlimit="10.0"></g><g stroke-linejoin="miter" stroke-opacity="1.0" fill-opacity="1.0" stroke="rgb(0,0,0)" stroke-width="0.0" fill="rgb(0,0,0)" stroke-linecap="butt" stroke-miterlimit="10.0"><path d="M 135.9451,147.7976 l -11.9910,10.7967 l 5.6288,0.2229 Z"/></g><g stroke-linejoin="miter" stroke-opacity="1.0" fill-opacity="1.0" stroke="rgb(0,0,0)" stroke-width="0.0" fill="rgb(0,0,0)" stroke-linecap="butt" stroke-miterlimit="10.0"><path d="M 129.5830,158.8173 l -0.4067,0.7044 l -1.3399,-0.7736 Z"/></g><g stroke-linejoin="miter" stroke-opacity="1.0" fill-opacity="0.0" stroke="rgb(0,0,0)" stroke-width="1.5471739538078182" fill="rgb(0,0,0)" stroke-linecap="butt" stroke-miterlimit="10.0"><path d="M 33.5212,207.5331 h 55.8855 "/></g><g stroke-linejoin="miter" stroke-opacity="1.0" fill-opacity="1.0" stroke="rgb(0,0,0)" stroke-width="0.0" fill="rgb(0,0,0)" stroke-linecap="butt" stroke-miterlimit="10.0"></g><g stroke-linejoin="miter" stroke-opacity="1.0" fill-opacity="1.0" stroke="rgb(0,0,0)" stroke-width="0.0" fill="rgb(0,0,0)" stroke-linecap="butt" stroke-miterlimit="10.0"></g><g stroke-linejoin="miter" stroke-opacity="1.0" fill-opacity="1.0" stroke="rgb(0,0,0)" stroke-width="0.0" fill="rgb(0,0,0)" stroke-linecap="butt" stroke-miterlimit="10.0"><path d="M 102.9444,208.3067 l -15.3457,-4.9861 l 2.6214,4.9861 Z"/></g><g stroke-linejoin="miter" stroke-opacity="1.0" fill-opacity="1.0" stroke="rgb(0,0,0)" stroke-width="0.0" fill="rgb(0,0,0)" stroke-linecap="butt" stroke-miterlimit="10.0"><path d="M 90.2201,208.3067 h -0.8134 v -1.5472 Z"/></g></svg>