<?xml version="1.0" encoding="UTF-8"?>
<!DOCTYPE svg PUBLIC "-//W3C//DTD SVG 1.1//EN"
    "http://www.w3.org/Graphics/SVG/1.1/DTD/svg11.dtd"><svg xmlns="http://www.w3.org/2000/svg" height="190.21130325903067" stroke-opacity="1" viewBox="0 0 200 190" font-size="1" width="200.0" xmlns:xlink="http://www.w3.org/1999/xlink" stroke="rgb(0,0,0)" version="1.1"><g><defs></defs><g stroke-linejoin="miter" stroke-opacity="1.0" fill-opacity="0.0" stroke="rgb(0,0,0)" stroke-width="0.7801770122407466" fill="rgb(0,0,0)" stroke-linecap="butt" stroke-miterlimit="10.0"><path d="M 126.96723314583159,178.10226112560798 l 6.366100187501746,-19.592841743082435 l -6.366100187501757,-19.59284174308243 l -16.666666666666664,-12.109042133422674 l -20.601132958329824,3.4307778215552903e-15 l -16.66666666666666,12.10904213342268 l -6.366100187501749,19.592841743082435 l 6.366100187501754,19.59284174308243 l 16.666666666666664,12.109042133422676 l 20.601132958329824,-1.1435926071850968e-15 Z"/></g><defs></defs><g stroke-linejoin="miter" stroke-opacity="1.0" fill-opacity="0.0" stroke="rgb(0,0,0)" stroke-width="0.7801770122407466" fill="rgb(0,0,0)" stroke-linecap="butt" stroke-miterlimit="10.0"><path d="M 59.41528323718204,173.56784018050294 l 3.5773491960881074,-20.28815545819854 l -10.300566479164914,-17.84110448865449 l -19.358732620771907,-7.046002447079122 l -19.358732620771907,7.046002447079124 l -10.30056647916491,17.841104488654494 l 3.5773491960881154,20.28815545819854 l 15.781383424683792,13.242153011119418 l 20.601132958329824,3.4307778215552903e-15 Z"/></g><defs></defs><g stroke-linejoin="miter" stroke-opacity="1.0" fill-opacity="0.0" stroke="rgb(0,0,0)" stroke-width="0.7801770122407466" fill="rgb(0,0,0)" stroke-linecap="butt" stroke-miterlimit="10.0"><path d="M 191.53443396079228,105.40621810868024 l -4.574370428740387e-15,-20.601132958329824 l -14.567200814960701,-14.567200814960698 l -20.601132958329824,3.312914851929004e-15 l -14.567200814960698,14.567200814960701 l 2.051459275117621e-15,20.601132958329824 l 14.567200814960701,14.567200814960701 l 20.601132958329824,-7.900036983062382e-16 Z"/></g><defs></defs><g stroke-linejoin="miter" stroke-opacity="1.0" fill-opacity="0.0" stroke="rgb(0,0,0)" stroke-width="0.7801770122407466" fill="rgb(0,0,0)" stroke-linecap="butt" stroke-miterlimit="10.0"><path d="M 123.1451627854194,100.38838399898506 l -4.5841833464457675,-20.08461954364465 l -18.560979438973636,-8.938496598018103 l -18.560979438973636,8.938496598018109 l -4.58418334644576,20.08461954364465 l 12.844596306254488,16.106614321331993 l 20.60113295832982,-5.717963035925484e-16 Z"/></g><defs></defs><g stroke-linejoin="miter" stroke-opacity="1.0" fill-opacity="0.0" stroke="rgb(0,0,0)" stroke-width="0.7801770122407466" fill="rgb(0,0,0)" stroke-linecap="butt" stroke-miterlimit="10.0"><path d="M 43.63389981249824,112.94675611816983 l 10.300566479164917,-17.84110448865449 l -10.300566479164903,-17.841104488654498 l -20.601132958329824,-1.0292333464665872e-14 l -10.30056647916492,17.841104488654487 l 10.300566479164898,17.8411044886545 Z"/></g><defs></defs><g stroke-linejoin="miter" stroke-opacity="1.0" fill-opacity="0.0" stroke="rgb(0,0,0)" stroke-width="0.7801770122407466" fill="rgb(0,0,0)" stroke-linecap="butt" stroke-miterlimit="10.0"><path d="M 176.96723314583159,45.8793973490391 l 6.36610018750175,-19.592841743082435 l -16.66666666666666,-12.10904213342268 l -16.666666666666664,12.109042133422676 l 6.3661001875017496,19.592841743082435 Z"/></g><defs></defs><g stroke-linejoin="miter" stroke-opacity="1.0" fill-opacity="0.0" stroke="rgb(0,0,0)" stroke-width="0.7801770122407466" fill="rgb(0,0,0)" stroke-linecap="butt" stroke-miterlimit="10.0"><path d="M 110.30056647916491,42.00245035567002 v -20.601132958329824 l -20.601132958329824,-1.2614555768113832e-15 l -2.5229111536227664e-15,20.601132958329824 Z"/></g><defs></defs><g stroke-linejoin="miter" stroke-opacity="1.0" fill-opacity="0.0" stroke="rgb(0,0,0)" stroke-width="0.7801770122407466" fill="rgb(0,0,0)" stroke-linecap="butt" stroke-miterlimit="10.0"><path d="M 43.63389981249824,37.648918706056605 l -10.300566479164917,-17.84110448865449 l -10.300566479164912,17.84110448865449 Z"/></g></g></svg>