<?xml version="1.0" encoding="UTF-8"?>
<!DOCTYPE svg PUBLIC "-//W3C//DTD SVG 1.1//EN"
    "http://www.w3.org/Graphics/SVG/1.1/DTD/svg11.dtd"><svg xmlns="http://www.w3.org/2000/svg" height="400.0" stroke-opacity="1" viewBox="0 0 400 400" font-size="1" width="400.0" xmlns:xlink="http://www.w3.org/1999/xlink" stroke="rgb(0,0,0)" version="1.1"><g><defs></defs><g stroke-linejoin="miter" stroke-opacity="1.0" fill-opacity="0.0" stroke="rgb(0,0,0)" stroke-width="0.6000000000000002" fill="rgb(0,0,0)" stroke-linecap="butt" stroke-miterlimit="10.0"><path d="M 211.45622631391882,374.4477621777013 c 0.0,-1.8767012987433331 -1.5213669972186832,-3.3980682959620165 -3.3980682959620157 -3.3980682959620165c -1.8767012987433331,-1.1491481192308516e-16 -3.3980682959620165,1.5213669972186832 -3.3980682959620165 3.398068295962015c -2.2982962384617033e-16,1.8767012987433331 1.521366997218683,3.3980682959620165 3.3980682959620148 3.3980682959620165c 1.8767012987433331,3.447444357692555e-16 3.3980682959620165,-1.5213669972186827 3.3980682959620174 -3.398068295962015Z"/></g><defs></defs><g stroke-linejoin="miter" stroke-opacity="1.0" fill-opacity="0.0" stroke="rgb(0,0,0)" stroke-width="0.6000000000000002" fill="rgb(0,0,0)" stroke-linecap="butt" stroke-miterlimit="10.0"><path d="M 192.8070171368956,397.3061418537093 c 0.0,-1.3574981632457483 -1.1004696942075898,-2.457967857453338 -2.4579678574533377 -2.457967857453338c -1.3574981632457483,-8.312278902336584e-17 -2.457967857453338,1.1004696942075896 -2.457967857453338 2.4579678574533377c -1.6624557804673168e-16,1.3574981632457483 1.1004696942075896,2.457967857453338 2.4579678574533372 2.457967857453338c 1.3574981632457483,2.4936836707009752e-16 2.457967857453338,-1.1004696942075893 2.457967857453338 -2.4579678574533377Z"/></g><defs></defs><g stroke-linejoin="miter" stroke-opacity="1.0" fill-opacity="0.0" stroke="rgb(0,0,0)" stroke-width="0.6000000000000002" fill="rgb(0,0,0)" stroke-linecap="butt" stroke-miterlimit="10.0"><path d="M 201.6732019381527,395.4159242673976 c 0.0,-2.5199173904050625 -2.0427966645767257,-4.562714054981789 -4.562714054981788 -4.562714054981789c -2.5199173904050625,-1.5430043831376555e-16 -4.562714054981789,2.0427966645767257 -4.562714054981789 4.562714054981788c -3.086008766275311e-16,2.5199173904050625 2.0427966645767253,4.562714054981789 4.562714054981787 4.562714054981789c 2.5199173904050625,4.629013149412967e-16 4.562714054981789,-2.0427966645767253 4.562714054981789 -4.562714054981788Z"/></g><defs></defs><g stroke-linejoin="miter" stroke-opacity="1.0" fill-opacity="0.0" stroke="rgb(0,0,0)" stroke-width="0.6000000000000002" fill="rgb(0,0,0)" stroke-linecap="butt" stroke-miterlimit="10.0"><path d="M 239.9999999999997,393.1446379035706 c 0.0,-1.8901062754743145 -1.5322338779581255,-3.4223401534324407 -3.42234015343244 -3.4223401534324407c -1.8901062754743145,-1.1573563001539726e-16 -3.4223401534324407,1.5322338779581253 -3.4223401534324407 3.4223401534324394c -2.3147126003079453e-16,1.8901062754743145 1.532233877958125,3.4223401534324407 3.4223401534324394 3.4223401534324407c 1.8901062754743145,3.4720689004619174e-16 3.4223401534324407,-1.5322338779581248 3.422340153432441 -3.4223401534324394Z"/></g><defs></defs><g stroke-linejoin="miter" stroke-opacity="1.0" fill-opacity="0.0" stroke="rgb(0,0,0)" stroke-width="0.6000000000000002" fill="rgb(0,0,0)" stroke-linecap="butt" stroke-miterlimit="10.0"><path d="M 233.18866401337704,392.3664016610917 c 0.0,-3.134830826154476 -2.5412824960310654,-5.676113322185541 -5.6761133221855395 -5.676113322185541c -3.134830826154476,-1.9195302685592657e-16 -5.676113322185541,2.541282496031065 -5.676113322185541 5.6761133221855395c -3.8390605371185313e-16,3.134830826154476 2.5412824960310645,5.676113322185541 5.676113322185539 5.676113322185541c 3.134830826154476,5.758590805677797e-16 5.676113322185541,-2.541282496031064 5.676113322185542 -5.6761133221855395Z"/></g><defs></defs><g stroke-linejoin="miter" stroke-opacity="1.0" fill-opacity="0.0" stroke="rgb(0,0,0)" stroke-width="0.6000000000000002" fill="rgb(0,0,0)" stroke-linecap="butt" stroke-miterlimit="10.0"><path d="M 222.26834218422565,388.58625284492916 c 0.0,-6.1205776255437545 -4.961708509315028,-11.082286134858784 -11.082286134858782 -11.082286134858784c -6.1205776255437545,-3.747772899027533e-16 -11.082286134858784,4.961708509315027 -11.082286134858784 11.082286134858782c -7.495545798055066e-16,6.1205776255437545 4.961708509315027,11.082286134858784 11.08228613485878 11.082286134858784c 6.1205776255437545,1.1243318697082598e-15 11.082286134858784,-4.961708509315026 11.082286134858787 -11.082286134858782Z"/></g><defs></defs><g stroke-linejoin="miter" stroke-opacity="1.0" fill-opacity="0.0" stroke="rgb(0,0,0)" stroke-width="0.6000000000000002" fill="rgb(0,0,0)" stroke-linecap="butt" stroke-miterlimit="10.0"><path d="M 200.2427097480393,345.6949050086612 c 0.0,-1.524815631996822 -1.2361073021670999,-2.760922934163922 -2.760922934163921 -2.760922934163922c -1.524815631996822,-9.336802915073781e-17 -2.760922934163922,1.2361073021670996 -2.760922934163922 2.760922934163921c -1.8673605830147563e-16,1.524815631996822 1.2361073021670994,2.760922934163922 2.7609229341639208 2.760922934163922c 1.524815631996822,2.8010408745221343e-16 2.760922934163922,-1.2361073021670994 2.7609229341639225 -2.760922934163921Z"/></g><defs></defs><g stroke-linejoin="miter" stroke-opacity="1.0" fill-opacity="0.0" stroke="rgb(0,0,0)" stroke-width="0.6000000000000002" fill="rgb(0,0,0)" stroke-linecap="butt" stroke-miterlimit="10.0"><path d="M 185.09322647976688,337.63824570330996 c 0.0,-1.6846763154243247 -1.3656999912552787,-3.050376306679604 -3.050376306679603 -3.050376306679604c -1.6846763154243247,-1.031566728641878e-16 -3.050376306679604,1.3656999912552787 -3.050376306679604 3.0503763066796026c -2.063133457283756e-16,1.6846763154243247 1.3656999912552785,3.050376306679604 3.0503763066796026 3.050376306679604c 1.6846763154243247,3.094700185925634e-16 3.050376306679604,-1.3656999912552783 3.0503763066796044 -3.0503763066796026Z"/></g><defs></defs><g stroke-linejoin="miter" stroke-opacity="1.0" fill-opacity="0.0" stroke="rgb(0,0,0)" stroke-width="0.6000000000000002" fill="rgb(0,0,0)" stroke-linecap="butt" stroke-miterlimit="10.0"><path d="M 202.08364377046973,327.0316004092549 c 0.0,-1.9389467884001161 -1.5718269365563704,-3.510773724956487 -3.5107737249564863 -3.510773724956487c -1.9389467884001161,-1.1872624890656214e-16 -3.510773724956487,1.5718269365563702 -3.510773724956487 3.510773724956486c -2.3745249781312427e-16,1.9389467884001161 1.57182693655637,3.510773724956487 3.5107737249564854 3.510773724956487c 1.9389467884001161,3.5617874671968643e-16 3.510773724956487,-1.5718269365563697 3.510773724956488 -3.510773724956486Z"/></g><defs></defs><g stroke-linejoin="miter" stroke-opacity="1.0" fill-opacity="0.0" stroke="rgb(0,0,0)" stroke-width="0.6000000000000002" fill="rgb(0,0,0)" stroke-linecap="butt" stroke-miterlimit="10.0"><path d="M 200.2998329703569,336.48250921750645 c 0.0,-4.216499387732121 -3.4181481179684305,-7.634647505700552 -7.63464750570055 -7.634647505700552c -4.216499387732121,-2.581861239396458e-16 -7.634647505700552,3.41814811796843 -7.634647505700552 7.634647505700548c -5.163722478792916e-16,4.216499387732121 3.4181481179684297,7.634647505700552 7.634647505700548 7.634647505700552c 4.216499387732121,7.745583718189373e-16 7.634647505700552,-3.418148117968429 7.634647505700554 -7.634647505700548Z"/></g><defs></defs><g stroke-linejoin="miter" stroke-opacity="1.0" fill-opacity="0.0" stroke="rgb(0,0,0)" stroke-width="0.6000000000000002" fill="rgb(0,0,0)" stroke-linecap="butt" stroke-miterlimit="10.0"><path d="M 138.75526062322157,386.8508515077938 c 0.0,-1.4120183221815097 -1.144667015615917,-2.5566853377974272 -2.556685337797427 -2.5566853377974272c -1.4120183221815097,-8.64611859298501e-17 -2.5566853377974272,1.144667015615917 -2.5566853377974272 2.5566853377974263c -1.729223718597002e-16,1.4120183221815097 1.1446670156159169,2.5566853377974272 2.556685337797426 2.5566853377974272c 1.4120183221815097,2.593835577895503e-16 2.5566853377974272,-1.1446670156159167 2.5566853377974286 -2.5566853377974263Z"/></g><defs></defs><g stroke-linejoin="miter" stroke-opacity="1.0" fill-opacity="0.0" stroke="rgb(0,0,0)" stroke-width="0.6000000000000002" fill="rgb(0,0,0)" stroke-linecap="butt" stroke-miterlimit="10.0"><path d="M 155.50461803903002,391.1103124222028 c 0.0,-1.6907793800062125 -1.3706475026376155,-3.0614268826438282 -3.0614268826438273 -3.0614268826438282c -1.6907793800062125,-1.0353037778944773e-16 -3.0614268826438282,1.3706475026376153 -3.0614268826438282 3.061426882643827c -2.0706075557889546e-16,1.6907793800062125 1.370647502637615,3.0614268826438282 3.061426882643827 3.0614268826438282c 1.6907793800062125,3.105911333683432e-16 3.0614268826438282,-1.3706475026376148 3.0614268826438287 -3.061426882643827Z"/></g><defs></defs><g stroke-linejoin="miter" stroke-opacity="1.0" fill-opacity="0.0" stroke="rgb(0,0,0)" stroke-width="0.6000000000000002" fill="rgb(0,0,0)" stroke-linecap="butt" stroke-miterlimit="10.0"><path d="M 151.04829775301295,385.81733279663706 c 0.0,-3.4115742098958544 -2.7656273350337806,-6.177201544929636 -6.177201544929634 -6.177201544929636c -3.4115742098958544,-2.0889867181013093e-16 -6.177201544929636,2.76562733503378 -6.177201544929636 6.177201544929633c -4.1779734362026185e-16,3.4115742098958544 2.7656273350337797,6.177201544929636 6.177201544929633 6.177201544929636c 3.4115742098958544,6.266960154303929e-16 6.177201544929636,-2.765627335033779 6.177201544929637 -6.177201544929633Z"/></g><defs></defs><g stroke-linejoin="miter" stroke-opacity="1.0" fill-opacity="0.0" stroke="rgb(0,0,0)" stroke-width="0.6000000000000002" fill="rgb(0,0,0)" stroke-linecap="butt" stroke-miterlimit="10.0"><path d="M 151.16959905534316,352.69437233154974 c 0.0,-2.7255375423938193 -2.2094847323093245,-4.935022274703145 -4.935022274703144 -4.935022274703145c -2.7255375423938193,-1.668910413624267e-16 -4.935022274703145,2.209484732309324 -4.935022274703145 4.935022274703143c -3.337820827248534e-16,2.7255375423938193 2.2094847323093236,4.935022274703145 4.935022274703142 4.935022274703145c 2.7255375423938193,5.006731240872802e-16 4.935022274703145,-2.2094847323093236 4.935022274703146 -4.935022274703143Z"/></g><defs></defs><g stroke-linejoin="miter" stroke-opacity="1.0" fill-opacity="0.0" stroke="rgb(0,0,0)" stroke-width="0.6000000000000002" fill="rgb(0,0,0)" stroke-linecap="butt" stroke-miterlimit="10.0"><path d="M 111.85243402683147,373.2976214146422 c 0.0,-2.10636745282489 -1.7075482011384493,-3.8139156539633396 -3.8139156539633388 -3.8139156539633396c -2.10636745282489,-1.2897780794650827e-16 -3.8139156539633396,1.707548201138449 -3.8139156539633396 3.813915653963338c -2.5795561589301653e-16,2.10636745282489 1.7075482011384486,3.8139156539633396 3.813915653963338 3.8139156539633396c 2.10636745282489,3.8693342383952475e-16 3.8139156539633396,-1.7075482011384484 3.8139156539633405 -3.813915653963338Z"/></g><defs></defs><g stroke-linejoin="miter" stroke-opacity="1.0" fill-opacity="0.0" stroke="rgb(0,0,0)" stroke-width="0.6000000000000002" fill="rgb(0,0,0)" stroke-linecap="butt" stroke-miterlimit="10.0"><path d="M 117.20561574541354,352.8263913158989 c 0.0,-1.8230501556094207 -1.4778741523095622,-3.3009243079189834 -3.300924307918983 -3.3009243079189834c -1.8230501556094207,-1.1162962688760806e-16 -3.3009243079189834,1.4778741523095622 -3.3009243079189834 3.3009243079189825c -2.2325925377521613e-16,1.8230501556094207 1.477874152309562,3.3009243079189834 3.300924307918982 3.3009243079189834c 1.8230501556094207,3.348888806628242e-16 3.3009243079189834,-1.477874152309562 3.300924307918984 -3.3009243079189825Z"/></g><defs></defs><g stroke-linejoin="miter" stroke-opacity="1.0" fill-opacity="0.0" stroke="rgb(0,0,0)" stroke-width="0.6000000000000002" fill="rgb(0,0,0)" stroke-linecap="butt" stroke-miterlimit="10.0"><path d="M 88.65932406917113,361.2805393880131 c 0.0,-1.4118774889473111 -1.1445528477220897,-2.556430336669401 -2.5564303366694006 -2.556430336669401c -1.4118774889473111,-8.645256238137637e-17 -2.556430336669401,1.1445528477220894 -2.556430336669401 2.5564303366694006c -1.7290512476275274e-16,1.4118774889473111 1.1445528477220894,2.556430336669401 2.5564303366694 2.556430336669401c 1.4118774889473111,2.593576871441291e-16 2.556430336669401,-1.1445528477220892 2.556430336669401 -2.5564303366694006Z"/></g><defs></defs><g stroke-linejoin="miter" stroke-opacity="1.0" fill-opacity="0.0" stroke="rgb(0,0,0)" stroke-width="0.6000000000000002" fill="rgb(0,0,0)" stroke-linecap="butt" stroke-miterlimit="10.0"><path d="M 48.33364806165227,323.56798016116755 c 0.0,-1.3571077337339876 -1.1001531885525178,-2.4572609222865056 -2.457260922286505 -2.4572609222865056c -1.3571077337339876,-8.309888211077231e-17 -2.4572609222865056,1.1001531885525178 -2.4572609222865056 2.4572609222865047c -1.6619776422154462e-16,1.3571077337339876 1.1001531885525175,2.4572609222865056 2.4572609222865043 2.4572609222865056c 1.3571077337339876,2.4929664633231694e-16 2.4572609222865056,-1.1001531885525173 2.457260922286507 -2.4572609222865047Z"/></g><defs></defs><g stroke-linejoin="miter" stroke-opacity="1.0" fill-opacity="0.0" stroke="rgb(0,0,0)" stroke-width="0.6000000000000002" fill="rgb(0,0,0)" stroke-linecap="butt" stroke-miterlimit="10.0"><path d="M 52.7082108105079,327.41128360036146 c 0.0,-1.647108263342041 -1.3352450677008214,-2.9823533310428627 -2.982353331042862 -2.9823533310428627c -1.647108263342041,-1.008562931275493e-16 -2.9823533310428627,1.3352450677008214 -2.9823533310428627 2.982353331042862c -2.017125862550986e-16,1.647108263342041 1.3352450677008212,2.9823533310428627 2.9823533310428614 2.9823533310428627c 1.647108263342041,3.025688793826479e-16 2.9823533310428627,-1.335245067700821 2.982353331042863 -2.982353331042862Z"/></g><defs></defs><g stroke-linejoin="miter" stroke-opacity="1.0" fill-opacity="0.0" stroke="rgb(0,0,0)" stroke-width="0.6000000000000002" fill="rgb(0,0,0)" stroke-linecap="butt" stroke-miterlimit="10.0"><path d="M 58.32905729745269,331.93219803262934 c 0.0,-2.0393107955691177 -1.6531880398485042,-3.692498835417622 -3.6924988354176214 -3.692498835417622c -2.0393107955691177,-1.2487177191301811e-16 -3.692498835417622,1.653188039848504 -3.692498835417622 3.6924988354176205c -2.4974354382603623e-16,2.0393107955691177 1.6531880398485037,3.692498835417622 3.6924988354176205 3.692498835417622c 2.0393107955691177,3.746153157390543e-16 3.692498835417622,-1.6531880398485035 3.692498835417623 -3.6924988354176205Z"/></g><defs></defs><g stroke-linejoin="miter" stroke-opacity="1.0" fill-opacity="0.0" stroke="rgb(0,0,0)" stroke-width="0.6000000000000002" fill="rgb(0,0,0)" stroke-linecap="butt" stroke-miterlimit="10.0"><path d="M 65.75957551202887,337.2895581035437 c 0.0,-2.5868368077621025 -2.0970455709467895,-4.683882378708892 -4.6838823787088915 -4.683882378708892c -2.5868368077621025,-1.5839807082712078e-16 -4.683882378708892,2.097045570946789 -4.683882378708892 4.683882378708891c -3.1679614165424156e-16,2.5868368077621025 2.097045570946789,4.683882378708892 4.68388237870889 4.683882378708892c 2.5868368077621025,4.751942124813623e-16 4.683882378708892,-2.0970455709467886 4.683882378708895 -4.683882378708891Z"/></g><defs></defs><g stroke-linejoin="miter" stroke-opacity="1.0" fill-opacity="0.0" stroke="rgb(0,0,0)" stroke-width="0.6000000000000002" fill="rgb(0,0,0)" stroke-linecap="butt" stroke-miterlimit="10.0"><path d="M 75.92711617911733,343.6589422665969 c 0.0,-3.3811549102624197 -2.740967620367518,-6.122122530629938 -6.1221225306299365 -6.122122530629938c -3.3811549102624197,-2.0703602691371143e-16 -6.122122530629938,2.7409676203675177 -6.122122530629938 6.1221225306299365c -4.1407205382742287e-16,3.3811549102624197 2.7409676203675173,6.122122530629938 6.1221225306299365 6.122122530629938c 3.3811549102624197,6.211080807411342e-16 6.122122530629938,-2.740967620367517 6.122122530629938 -6.1221225306299365Z"/></g><defs></defs><g stroke-linejoin="miter" stroke-opacity="1.0" fill-opacity="0.0" stroke="rgb(0,0,0)" stroke-width="0.6000000000000002" fill="rgb(0,0,0)" stroke-linecap="butt" stroke-miterlimit="10.0"><path d="M 90.43763740934266,351.1680154345465 c 0.0,-4.588945111526858 -3.7200750323985314,-8.309020143925391 -8.30902014392539 -8.309020143925391c -4.588945111526858,-2.80991847114713e-16 -8.309020143925391,3.7200750323985314 -8.309020143925391 8.309020143925387c -5.61983694229426e-16,4.588945111526858 3.720075032398531,8.309020143925391 8.309020143925387 8.309020143925391c 4.588945111526858,8.42975541344139e-16 8.309020143925391,-3.720075032398531 8.309020143925395 -8.309020143925387Z"/></g><defs></defs><g stroke-linejoin="miter" stroke-opacity="1.0" fill-opacity="0.0" stroke="rgb(0,0,0)" stroke-width="0.6000000000000002" fill="rgb(0,0,0)" stroke-linecap="butt" stroke-miterlimit="10.0"><path d="M 112.22772229005184,359.6461526194849 c 0.0,-6.533951891699001 -5.296814562925799,-11.8307664546248 -11.830766454624797 -11.8307664546248c -6.533951891699001,-4.0008916349759874e-16 -11.8307664546248,5.296814562925798 -11.8307664546248 11.830766454624797c -8.001783269951975e-16,6.533951891699001 5.296814562925797,11.8307664546248 11.830766454624795 11.8307664546248c 6.533951891699001,1.2002674904927962e-15 11.8307664546248,-5.296814562925796 11.830766454624802 -11.830766454624797Z"/></g><defs></defs><g stroke-linejoin="miter" stroke-opacity="1.0" fill-opacity="0.0" stroke="rgb(0,0,0)" stroke-width="0.6000000000000002" fill="rgb(0,0,0)" stroke-linecap="butt" stroke-miterlimit="10.0"><path d="M 146.91808406570397,367.69553099229483 c 0.0,-9.886100510681436 -8.014267938221588,-17.900368448903027 -17.900368448903023 -17.900368448903027c -9.886100510681436,-6.053490673227518e-16 -17.900368448903027,8.014267938221588 -17.900368448903027 17.90036844890302c -1.2106981346455035e-15,9.886100510681436 8.014267938221588,17.900368448903027 17.90036844890302 17.900368448903027c 9.886100510681436,1.816047201968255e-15 17.900368448903027,-8.014267938221586 17.900368448903027 -17.90036844890302Z"/></g><defs></defs><g stroke-linejoin="miter" stroke-opacity="1.0" fill-opacity="0.0" stroke="rgb(0,0,0)" stroke-width="0.6000000000000002" fill="rgb(0,0,0)" stroke-linecap="butt" stroke-miterlimit="10.0"><path d="M 205.08513756224107,369.2092354477868 c 0.0,-16.069121722345095 -13.026596975787125,-29.095718698132224 -29.095718698132217 -29.095718698132224c -16.069121722345095,-9.839499241189561e-16 -29.095718698132224,13.026596975787124 -29.095718698132224 29.095718698132217c -1.9678998482379122e-15,16.069121722345095 13.026596975787122,29.095718698132224 29.095718698132213 29.095718698132224c 16.069121722345095,2.9518497723568688e-15 29.095718698132224,-13.026596975787122 29.095718698132227 -29.095718698132217Z"/></g><defs></defs><g stroke-linejoin="miter" stroke-opacity="1.0" fill-opacity="0.0" stroke="rgb(0,0,0)" stroke-width="0.6000000000000002" fill="rgb(0,0,0)" stroke-linecap="butt" stroke-miterlimit="10.0"><path d="M 305.02354554274103,347.7637507266914 c 0.0,-1.5216742619993255 -1.2335607186253055,-2.7552349806246315 -2.7552349806246306 -2.7552349806246315c -1.5216742619993255,-9.317567571511924e-17 -2.7552349806246315,1.2335607186253055 -2.7552349806246315 2.7552349806246306c -1.8635135143023849e-16,1.5216742619993255 1.2335607186253053,2.7552349806246315 2.75523498062463 2.7552349806246315c 1.5216742619993255,2.7952702714535774e-16 2.7552349806246315,-1.233560718625305 2.755234980624632 -2.7552349806246306Z"/></g><defs></defs><g stroke-linejoin="miter" stroke-opacity="1.0" fill-opacity="0.0" stroke="rgb(0,0,0)" stroke-width="0.6000000000000002" fill="rgb(0,0,0)" stroke-linecap="butt" stroke-miterlimit="10.0"><path d="M 321.9932972923196,356.7660653621995 c 0.0,-1.9187986306309632 -1.5554936275181817,-3.474292258149145 -3.4742922581491444 -3.474292258149145c -1.9187986306309632,-1.1749253006052666e-16 -3.474292258149145,1.5554936275181814 -3.474292258149145 3.474292258149144c -2.349850601210533e-16,1.9187986306309632 1.5554936275181812,3.474292258149145 3.4742922581491436 3.474292258149145c 1.9187986306309632,3.5247759018158e-16 3.474292258149145,-1.555493627518181 3.474292258149146 -3.474292258149144Z"/></g><defs></defs><g stroke-linejoin="miter" stroke-opacity="1.0" fill-opacity="0.0" stroke="rgb(0,0,0)" stroke-width="0.6000000000000002" fill="rgb(0,0,0)" stroke-linecap="butt" stroke-miterlimit="10.0"><path d="M 294.4103662064083,374.4944997963593 c 0.0,-1.6694453049171238 -1.353352817661131,-3.022798122578255 -3.0227981225782545 -3.022798122578255c -1.6694453049171238,-1.0222404245091663e-16 -3.022798122578255,1.353352817661131 -3.022798122578255 3.0227981225782545c -2.0444808490183326e-16,1.6694453049171238 1.353352817661131,3.022798122578255 3.022798122578254 3.022798122578255c 1.6694453049171238,3.066721273527499e-16 3.022798122578255,-1.3533528176611307 3.022798122578256 -3.0227981225782545Z"/></g><defs></defs><g stroke-linejoin="miter" stroke-opacity="1.0" fill-opacity="0.0" stroke="rgb(0,0,0)" stroke-width="0.6000000000000002" fill="rgb(0,0,0)" stroke-linecap="butt" stroke-miterlimit="10.0"><path d="M 302.0708665560152,369.20923544778685 c 0.0,-2.678186953724183 -2.1710994959645213,-4.849286449688704 -4.849286449688703 -4.849286449688704c -2.678186953724183,-1.6399165401982603e-16 -4.849286449688704,2.171099495964521 -4.849286449688704 4.8492864496887025c -3.2798330803965206e-16,2.678186953724183 2.171099495964521,4.849286449688704 4.849286449688702 4.849286449688704c 2.678186953724183,4.919749620594781e-16 4.849286449688704,-2.1710994959645205 4.849286449688705 -4.8492864496887025Z"/></g><defs></defs><g stroke-linejoin="miter" stroke-opacity="1.0" fill-opacity="0.0" stroke="rgb(0,0,0)" stroke-width="0.6000000000000002" fill="rgb(0,0,0)" stroke-linecap="butt" stroke-miterlimit="10.0"><path d="M 315.2078093629166,358.7728535261049 c 0.0,-4.944776926109585 -4.00853371233289,-8.953310638442476 -8.953310638442474 -8.953310638442476c -4.944776926109585,-3.027802617528895e-16 -8.953310638442476,4.00853371233289 -8.953310638442476 8.953310638442472c -6.05560523505779e-16,4.944776926109585 4.0085337123328895,8.953310638442476 8.953310638442472 8.953310638442476c 4.944776926109585,9.083407852586686e-16 8.953310638442476,-4.0085337123328895 8.953310638442476 -8.953310638442472Z"/></g><defs></defs><g stroke-linejoin="miter" stroke-opacity="1.0" fill-opacity="0.0" stroke="rgb(0,0,0)" stroke-width="0.6000000000000002" fill="rgb(0,0,0)" stroke-linecap="butt" stroke-miterlimit="10.0"><path d="M 294.9817449046813,309.77136442003535 c 0.0,-1.5815405848928412 -1.282091962225989,-2.8636325471188306 -2.8636325471188298 -2.8636325471188306c -1.5815405848928412,-9.684143075053255e-17 -2.8636325471188306,1.282091962225989 -2.8636325471188306 2.8636325471188298c -1.936828615010651e-16,1.5815405848928412 1.2820919622259888,2.8636325471188306 2.8636325471188293 2.8636325471188306c 1.5815405848928412,2.905242922515976e-16 2.8636325471188306,-1.2820919622259885 2.863632547118831 -2.8636325471188298Z"/></g><defs></defs><g stroke-linejoin="miter" stroke-opacity="1.0" fill-opacity="0.0" stroke="rgb(0,0,0)" stroke-width="0.6000000000000002" fill="rgb(0,0,0)" stroke-linecap="butt" stroke-miterlimit="10.0"><path d="M 305.33096324310304,315.07414753907574 c 0.0,-3.3408606195298187 -2.7083026437204816,-6.049163263250302 -6.0491632632503 -6.049163263250302c -3.3408606195298187,-2.045687132052318e-16 -6.049163263250302,2.7083026437204816 -6.049163263250302 6.0491632632503c -4.091374264104636e-16,3.3408606195298187 2.708302643720481,6.049163263250302 6.049163263250299 6.049163263250302c 3.3408606195298187,6.137061396156953e-16 6.049163263250302,-2.7083026437204807 6.0491632632503025 -6.0491632632503Z"/></g><defs></defs><g stroke-linejoin="miter" stroke-opacity="1.0" fill-opacity="0.0" stroke="rgb(0,0,0)" stroke-width="0.6000000000000002" fill="rgb(0,0,0)" stroke-linecap="butt" stroke-miterlimit="10.0"><path d="M 349.5226585405307,331.31018609348797 c 0.0,-2.1915831185819044 -1.7766291473793625,-3.9682122659612675 -3.9682122659612666 -3.9682122659612675c -2.1915831185819044,-1.3419576256183517e-16 -3.9682122659612675,1.7766291473793623 -3.9682122659612675 3.9682122659612658c -2.6839152512367035e-16,2.1915831185819044 1.776629147379362,3.9682122659612675 3.9682122659612658 3.9682122659612675c 2.1915831185819044,4.025872876855055e-16 3.9682122659612675,-1.7766291473793618 3.9682122659612684 -3.9682122659612658Z"/></g><defs></defs><g stroke-linejoin="miter" stroke-opacity="1.0" fill-opacity="0.0" stroke="rgb(0,0,0)" stroke-width="0.6000000000000002" fill="rgb(0,0,0)" stroke-linecap="butt" stroke-miterlimit="10.0"><path d="M 338.1597536447212,312.49186914949826 c 0.0,-1.8070711661709087 -1.4649206219864703,-3.2719917881573792 -3.2719917881573783 -3.2719917881573792c -1.8070711661709087,-1.106511959741339e-16 -3.2719917881573792,1.46492062198647 -3.2719917881573792 3.271991788157378c -2.213023919482678e-16,1.8070711661709087 1.4649206219864699,3.2719917881573792 3.2719917881573775 3.2719917881573792c 1.8070711661709087,3.3195358792240173e-16 3.2719917881573792,-1.4649206219864697 3.27199178815738 -3.271991788157378Z"/></g><defs></defs><g stroke-linejoin="miter" stroke-opacity="1.0" fill-opacity="0.0" stroke="rgb(0,0,0)" stroke-width="0.6000000000000002" fill="rgb(0,0,0)" stroke-linecap="butt" stroke-miterlimit="10.0"><path d="M 380.1735752231074,286.27255757862633 c 0.0,-1.3165940123296243 -1.067310328199417,-2.383904340529041 -2.3839043405290408 -2.383904340529041c -1.3165940123296243,-8.061813214880226e-17 -2.383904340529041,1.0673103281994167 -2.383904340529041 2.3839043405290403c -1.6123626429760453e-16,1.3165940123296243 1.0673103281994167,2.383904340529041 2.3839043405290403 2.383904340529041c 1.3165940123296243,2.4185439644640676e-16 2.383904340529041,-1.0673103281994165 2.383904340529041 -2.3839043405290403Z"/></g><defs></defs><g stroke-linejoin="miter" stroke-opacity="1.0" fill-opacity="0.0" stroke="rgb(0,0,0)" stroke-width="0.6000000000000002" fill="rgb(0,0,0)" stroke-linecap="butt" stroke-miterlimit="10.0"><path d="M 377.7827300298445,290.8382117439769 c 0.0,-1.7614652913318651 -1.427949755655282,-3.1894150469871474 -3.189415046987147 -3.1894150469871474c -1.7614652913318651,-1.0785864154193643e-16 -3.1894150469871474,1.4279497556552818 -3.1894150469871474 3.1894150469871465c -2.1571728308387286e-16,1.7614652913318651 1.4279497556552818,3.1894150469871474 3.189415046987146 3.1894150469871474c 1.7614652913318651,3.235759246258093e-16 3.1894150469871474,-1.4279497556552816 3.189415046987148 -3.1894150469871465Z"/></g><defs></defs><g stroke-linejoin="miter" stroke-opacity="1.0" fill-opacity="0.0" stroke="rgb(0,0,0)" stroke-width="0.6000000000000002" fill="rgb(0,0,0)" stroke-linecap="butt" stroke-miterlimit="10.0"><path d="M 374.3231199698004,296.85822939505215 c 0.0,-2.472820356967101 -2.0046169753595877,-4.477437332326689 -4.477437332326688 -4.477437332326689c -2.472820356967101,-1.5141657675130876e-16 -4.477437332326689,2.0046169753595877 -4.477437332326689 4.477437332326687c -3.028331535026175e-16,2.472820356967101 2.0046169753595873,4.477437332326689 4.477437332326687 4.477437332326689c 2.472820356967101,4.542497302539263e-16 4.477437332326689,-2.0046169753595873 4.477437332326691 -4.477437332326687Z"/></g><defs></defs><g stroke-linejoin="miter" stroke-opacity="1.0" fill-opacity="0.0" stroke="rgb(0,0,0)" stroke-width="0.6000000000000002" fill="rgb(0,0,0)" stroke-linecap="butt" stroke-miterlimit="10.0"><path d="M 368.9501951710084,305.0655075929754 c 0.0,-3.7092305354506507 -3.0069254630393814,-6.716155998490033 -6.716155998490032 -6.716155998490033c -3.7092305354506507,-2.271248651269631e-16 -6.716155998490033,3.006925463039381 -6.716155998490033 6.716155998490031c -4.542497302539262e-16,3.7092305354506507 3.0069254630393805,6.716155998490033 6.71615599849003 6.716155998490033c 3.7092305354506507,6.813745953808894e-16 6.716155998490033,-3.0069254630393805 6.716155998490035 -6.716155998490031Z"/></g><defs></defs><g stroke-linejoin="miter" stroke-opacity="1.0" fill-opacity="0.0" stroke="rgb(0,0,0)" stroke-width="0.6000000000000002" fill="rgb(0,0,0)" stroke-linecap="butt" stroke-miterlimit="10.0"><path d="M 359.7404629965094,316.57728369669945 c 0.0,-6.123225152838028 -4.963854754246197,-11.087079907084226 -11.087079907084224 -11.087079907084226c -6.123225152838028,-3.749394041940827e-16 -11.087079907084226,4.963854754246197 -11.087079907084226 11.087079907084224c -7.498788083881654e-16,6.123225152838028 4.963854754246196,11.087079907084226 11.087079907084222 11.087079907084226c 6.123225152838028,1.1248182125822481e-15 11.087079907084226,-4.963854754246195 11.087079907084226 -11.087079907084224Z"/></g><defs></defs><g stroke-linejoin="miter" stroke-opacity="1.0" fill-opacity="0.0" stroke="rgb(0,0,0)" stroke-width="0.6000000000000002" fill="rgb(0,0,0)" stroke-linecap="butt" stroke-miterlimit="10.0"><path d="M 341.60196397723206,332.19929078599904 c 0.0,-11.6902531786423 -9.476822649947763,-21.167075828590068 -21.167075828590065 -21.167075828590068c -11.6902531786423,-7.158215568223232e-16 -21.167075828590068,9.476822649947763 -21.167075828590068 21.16707582859006c -1.4316431136446464e-15,11.6902531786423 9.476822649947763,21.167075828590068 21.167075828590058 21.167075828590068c 11.6902531786423,2.1474646704669693e-15 21.167075828590068,-9.476822649947762 21.16707582859007 -21.16707582859006Z"/></g><defs></defs><g stroke-linejoin="miter" stroke-opacity="1.0" fill-opacity="0.0" stroke="rgb(0,0,0)" stroke-width="0.6000000000000002" fill="rgb(0,0,0)" stroke-linecap="butt" stroke-miterlimit="10.0"><path d="M 227.31566680912886,295.6026161078857 c 0.0,-1.3471853429020366 -1.0921095014962219,-2.439294844398259 -2.4392948443982587 -2.439294844398259c -1.3471853429020366,-8.249131090216043e-17 -2.439294844398259,1.0921095014962219 -2.439294844398259 2.4392948443982583c -1.6498262180432087e-16,1.3471853429020366 1.0921095014962217,2.439294844398259 2.439294844398258 2.439294844398259c 1.3471853429020366,2.4747393270648127e-16 2.439294844398259,-1.0921095014962214 2.4392948443982605 -2.4392948443982583Z"/></g><defs></defs><g stroke-linejoin="miter" stroke-opacity="1.0" fill-opacity="0.0" stroke="rgb(0,0,0)" stroke-width="0.6000000000000002" fill="rgb(0,0,0)" stroke-linecap="butt" stroke-miterlimit="10.0"><path d="M 234.55414648390186,290.88345505695185 c 0.0,-2.5063848722944297 -2.0318263911205467,-4.5382112634149765 -4.538211263414976 -4.5382112634149765c -2.5063848722944297,-1.5347181056433603e-16 -4.5382112634149765,2.0318263911205463 -4.5382112634149765 4.538211263414975c -3.0694362112867206e-16,2.5063848722944297 2.0318263911205463,4.5382112634149765 4.538211263414975 4.5382112634149765c 2.5063848722944297,4.604154316930081e-16 4.5382112634149765,-2.031826391120546 4.5382112634149765 -4.538211263414975Z"/></g><defs></defs><g stroke-linejoin="miter" stroke-opacity="1.0" fill-opacity="0.0" stroke="rgb(0,0,0)" stroke-width="0.6000000000000002" fill="rgb(0,0,0)" stroke-linecap="butt" stroke-miterlimit="10.0"><path d="M 260.5809842106536,287.71007260725276 c 0.0,-2.3680341075109173 -1.919670936375275,-4.287705043886193 -4.287705043886192 -4.287705043886193c -2.3680341075109173,-1.4500026950175022e-16 -4.287705043886193,1.919670936375275 -4.287705043886193 4.2877050438861914c -2.9000053900350043e-16,2.3680341075109173 1.9196709363752746,4.287705043886193 4.2877050438861914 4.287705043886193c 2.3680341075109173,4.3500080850525065e-16 4.287705043886193,-1.9196709363752746 4.287705043886195 -4.2877050438861914Z"/></g><defs></defs><g stroke-linejoin="miter" stroke-opacity="1.0" fill-opacity="0.0" stroke="rgb(0,0,0)" stroke-width="0.6000000000000002" fill="rgb(0,0,0)" stroke-linecap="butt" stroke-miterlimit="10.0"><path d="M 243.40296817102578,256.55389275166505 c 0.0,-1.566172854181014 -1.2696339550072733,-2.8358068091882873 -2.8358068091882864 -2.8358068091882873c -1.566172854181014,-9.590042863921265e-17 -2.8358068091882873,1.269633955007273 -2.8358068091882873 2.8358068091882864c -1.918008572784253e-16,1.566172854181014 1.2696339550072728,2.8358068091882873 2.835806809188286 2.8358068091882873c 1.566172854181014,2.8770128591763795e-16 2.8358068091882873,-1.2696339550072726 2.8358068091882878 -2.8358068091882864Z"/></g><defs></defs><g stroke-linejoin="miter" stroke-opacity="1.0" fill-opacity="0.0" stroke="rgb(0,0,0)" stroke-width="0.6000000000000002" fill="rgb(0,0,0)" stroke-linecap="butt" stroke-miterlimit="10.0"><path d="M 246.03452714382652,264.4062328890935 c 0.0,-2.7773144283128723 -2.251458191542688,-5.028772619855562 -5.028772619855561 -5.028772619855562c -2.7773144283128723,-1.70061461242956e-16 -5.028772619855562,2.251458191542688 -5.028772619855562 5.02877261985556c -3.40122922485912e-16,2.7773144283128723 2.2514581915426874,5.028772619855562 5.028772619855559 5.028772619855562c 2.7773144283128723,5.10184383728868e-16 5.028772619855562,-2.2514581915426874 5.0287726198555625 -5.02877261985556Z"/></g><defs></defs><g stroke-linejoin="miter" stroke-opacity="1.0" fill-opacity="0.0" stroke="rgb(0,0,0)" stroke-width="0.6000000000000002" fill="rgb(0,0,0)" stroke-linecap="butt" stroke-miterlimit="10.0"><path d="M 253.63777261362466,280.7507657008131 c 0.0,-6.27661153013753 -5.088198981216495,-11.364810511354026 -11.364810511354023 -11.364810511354026c -6.27661153013753,-3.8433161099371485e-16 -11.364810511354026,5.088198981216494 -11.364810511354026 11.364810511354023c -7.686632219874297e-16,6.27661153013753 5.088198981216493,11.364810511354026 11.36481051135402 11.364810511354026c 6.27661153013753,1.1529948329811446e-15 11.364810511354026,-5.088198981216492 11.364810511354028 -11.364810511354023Z"/></g><defs></defs><g stroke-linejoin="miter" stroke-opacity="1.0" fill-opacity="0.0" stroke="rgb(0,0,0)" stroke-width="0.6000000000000002" fill="rgb(0,0,0)" stroke-linecap="butt" stroke-miterlimit="10.0"><path d="M 299.88318308316866,341.5314815695889 c 0.0,-27.560473990132937 -22.342178579174455,-49.9026525693074 -49.902652569307385 -49.9026525693074c -27.560473990132937,-1.687592312750009e-15 -49.9026525693074,22.34217857917445 -49.9026525693074 49.90265256930738c -3.375184625500018e-15,27.560473990132937 22.342178579174448,49.9026525693074 49.90265256930738 49.9026525693074c 27.560473990132937,5.062776938250028e-15 49.9026525693074,-22.342178579174444 49.902652569307406 -49.90265256930738Z"/></g><defs></defs><g stroke-linejoin="miter" stroke-opacity="1.0" fill-opacity="0.0" stroke="rgb(0,0,0)" stroke-width="0.6000000000000002" fill="rgb(0,0,0)" stroke-linecap="butt" stroke-miterlimit="10.0"><path d="M 80.97040374897733,75.46718266649083 c 0.0,-1.8767012987433331 -1.5213669972186832,-3.3980682959620165 -3.3980682959620157 -3.3980682959620165c -1.8767012987433331,-1.1491481192308516e-16 -3.3980682959620165,1.5213669972186832 -3.3980682959620165 3.398068295962015c -2.2982962384617033e-16,1.8767012987433331 1.521366997218683,3.3980682959620165 3.3980682959620148 3.3980682959620165c 1.8767012987433331,3.447444357692555e-16 3.3980682959620165,-1.5213669972186827 3.3980682959620174 -3.398068295962015Z"/></g><defs></defs><g stroke-linejoin="miter" stroke-opacity="1.0" fill-opacity="0.0" stroke="rgb(0,0,0)" stroke-width="0.6000000000000002" fill="rgb(0,0,0)" stroke-linecap="butt" stroke-miterlimit="10.0"><path d="M 51.22806854758326,72.90801749231682 c 0.0,-1.3574981632457483 -1.1004696942075898,-2.457967857453338 -2.4579678574533377 -2.457967857453338c -1.3574981632457483,-8.312278902336584e-17 -2.457967857453338,1.1004696942075896 -2.457967857453338 2.4579678574533377c -1.6624557804673168e-16,1.3574981632457483 1.1004696942075896,2.457967857453338 2.4579678574533372 2.457967857453338c 1.3574981632457483,2.4936836707009752e-16 2.457967857453338,-1.1004696942075893 2.457967857453338 -2.4579678574533377Z"/></g><defs></defs><g stroke-linejoin="miter" stroke-opacity="1.0" fill-opacity="0.0" stroke="rgb(0,0,0)" stroke-width="0.6000000000000002" fill="rgb(0,0,0)" stroke-linecap="butt" stroke-miterlimit="10.0"><path d="M 59.3165234227208,69.23579677766753 c 0.0,-2.5199173904050625 -2.0427966645767257,-4.562714054981789 -4.562714054981788 -4.562714054981789c -2.5199173904050625,-1.5430043831376555e-16 -4.562714054981789,2.0427966645767257 -4.562714054981789 4.562714054981788c -3.086008766275311e-16,2.5199173904050625 2.0427966645767253,4.562714054981789 4.562714054981787 4.562714054981789c 2.5199173904050625,4.629013149412967e-16 4.562714054981789,-2.0427966645767253 4.562714054981789 -4.562714054981788Z"/></g><defs></defs><g stroke-linejoin="miter" stroke-opacity="1.0" fill-opacity="0.0" stroke="rgb(0,0,0)" stroke-width="0.6000000000000002" fill="rgb(0,0,0)" stroke-linecap="butt" stroke-miterlimit="10.0"><path d="M 86.67916112622633,41.842463026973434 c 0.0,-1.8901062754743145 -1.5322338779581255,-3.4223401534324407 -3.42234015343244 -3.4223401534324407c -1.8901062754743145,-1.1573563001539726e-16 -3.4223401534324407,1.5322338779581253 -3.4223401534324407 3.4223401534324394c -2.3147126003079453e-16,1.8901062754743145 1.532233877958125,3.4223401534324407 3.4223401534324394 3.4223401534324407c 1.8901062754743145,3.4720689004619174e-16 3.4223401534324407,-1.5322338779581248 3.422340153432441 -3.4223401534324394Z"/></g><defs></defs><g stroke-linejoin="miter" stroke-opacity="1.0" fill-opacity="0.0" stroke="rgb(0,0,0)" stroke-width="0.6000000000000002" fill="rgb(0,0,0)" stroke-linecap="butt" stroke-miterlimit="10.0"><path d="M 83.33927230767873,49.01831149386658 c 0.0,-3.134830826154476 -2.5412824960310654,-5.676113322185541 -5.6761133221855395 -5.676113322185541c -3.134830826154476,-1.9195302685592657e-16 -5.676113322185541,2.541282496031065 -5.676113322185541 5.6761133221855395c -3.8390605371185313e-16,3.134830826154476 2.5412824960310645,5.676113322185541 5.676113322185539 5.676113322185541c 3.134830826154476,5.758590805677797e-16 5.676113322185541,-2.541282496031064 5.676113322185542 -5.6761133221855395Z"/></g><defs></defs><g stroke-linejoin="miter" stroke-opacity="1.0" fill-opacity="0.0" stroke="rgb(0,0,0)" stroke-width="0.6000000000000002" fill="rgb(0,0,0)" stroke-linecap="butt" stroke-miterlimit="10.0"><path d="M 80.41507965803316,63.5595962935694 c 0.0,-6.1205776255437545 -4.961708509315028,-11.082286134858784 -11.082286134858782 -11.082286134858784c -6.1205776255437545,-3.747772899027533e-16 -11.082286134858784,4.961708509315027 -11.082286134858784 11.082286134858782c -7.495545798055066e-16,6.1205776255437545 4.961708509315027,11.082286134858784 11.08228613485878 11.082286134858784c 6.1205776255437545,1.1243318697082598e-15 11.082286134858784,-4.961708509315026 11.082286134858787 -11.082286134858782Z"/></g><defs></defs><g stroke-linejoin="miter" stroke-opacity="1.0" fill-opacity="0.0" stroke="rgb(0,0,0)" stroke-width="0.6000000000000002" fill="rgb(0,0,0)" stroke-linecap="butt" stroke-miterlimit="10.0"><path d="M 94.22326907614465,102.77384900074276 c 0.0,-1.524815631996822 -1.2361073021670999,-2.760922934163922 -2.760922934163921 -2.760922934163922c -1.524815631996822,-9.336802915073781e-17 -2.760922934163922,1.2361073021670996 -2.760922934163922 2.760922934163921c -1.8673605830147563e-16,1.524815631996822 1.2361073021670994,2.760922934163922 2.7609229341639208 2.760922934163922c 1.524815631996822,2.8010408745221343e-16 2.760922934163922,-1.2361073021670994 2.7609229341639225 -2.760922934163921Z"/></g><defs></defs><g stroke-linejoin="miter" stroke-opacity="1.0" fill-opacity="0.0" stroke="rgb(0,0,0)" stroke-width="0.6000000000000002" fill="rgb(0,0,0)" stroke-linecap="butt" stroke-miterlimit="10.0"><path d="M 89.92148571136323,119.57239265734776 c 0.0,-1.6846763154243247 -1.3656999912552787,-3.050376306679604 -3.050376306679603 -3.050376306679604c -1.6846763154243247,-1.031566728641878e-16 -3.050376306679604,1.3656999912552787 -3.050376306679604 3.0503763066796026c -2.063133457283756e-16,1.6846763154243247 1.3656999912552785,3.050376306679604 3.0503763066796026 3.050376306679604c 1.6846763154243247,3.094700185925634e-16 3.050376306679604,-1.3656999912552783 3.0503763066796044 -3.0503763066796026Z"/></g><defs></defs><g stroke-linejoin="miter" stroke-opacity="1.0" fill-opacity="0.0" stroke="rgb(0,0,0)" stroke-width="0.6000000000000002" fill="rgb(0,0,0)" stroke-linecap="butt" stroke-miterlimit="10.0"><path d="M 109.39921743161844,114.66490068858259 c 0.0,-1.9389467884001161 -1.5718269365563704,-3.510773724956487 -3.5107737249564863 -3.510773724956487c -1.9389467884001161,-1.1872624890656214e-16 -3.510773724956487,1.5718269365563702 -3.510773724956487 3.510773724956486c -2.3745249781312427e-16,1.9389467884001161 1.57182693655637,3.510773724956487 3.5107737249564854 3.510773724956487c 1.9389467884001161,3.5617874671968643e-16 3.510773724956487,-1.5718269365563697 3.510773724956488 -3.510773724956486Z"/></g><defs></defs><g stroke-linejoin="miter" stroke-opacity="1.0" fill-opacity="0.0" stroke="rgb(0,0,0)" stroke-width="0.6000000000000002" fill="rgb(0,0,0)" stroke-linecap="butt" stroke-miterlimit="10.0"><path d="M 102.57634489738983,112.56986858276359 c 0.0,-4.216499387732121 -3.4181481179684305,-7.634647505700552 -7.63464750570055 -7.634647505700552c -4.216499387732121,-2.581861239396458e-16 -7.634647505700552,3.41814811796843 -7.634647505700552 7.634647505700548c -5.163722478792916e-16,4.216499387732121 3.4181481179684297,7.634647505700552 7.634647505700548 7.634647505700552c 4.216499387732121,7.745583718189373e-16 7.634647505700552,-3.418148117968429 7.634647505700554 -7.634647505700548Z"/></g><defs></defs><g stroke-linejoin="miter" stroke-opacity="1.0" fill-opacity="0.0" stroke="rgb(0,0,0)" stroke-width="0.6000000000000002" fill="rgb(0,0,0)" stroke-linecap="butt" stroke-miterlimit="10.0"><path d="M 22.170409219658843,119.7213982867915 c 0.0,-1.4120183221815097 -1.144667015615917,-2.5566853377974272 -2.556685337797427 -2.5566853377974272c -1.4120183221815097,-8.64611859298501e-17 -2.5566853377974272,1.144667015615917 -2.5566853377974272 2.5566853377974263c -1.729223718597002e-16,1.4120183221815097 1.1446670156159169,2.5566853377974272 2.556685337797426 2.5566853377974272c 1.4120183221815097,2.593835577895503e-16 2.5566853377974272,-1.1446670156159167 2.5566853377974286 -2.5566853377974263Z"/></g><defs></defs><g stroke-linejoin="miter" stroke-opacity="1.0" fill-opacity="0.0" stroke="rgb(0,0,0)" stroke-width="0.6000000000000002" fill="rgb(0,0,0)" stroke-linecap="butt" stroke-miterlimit="10.0"><path d="M 30.598401227161816,104.91421576672701 c 0.0,-1.6907793800062125 -1.3706475026376155,-3.0614268826438282 -3.0614268826438273 -3.0614268826438282c -1.6907793800062125,-1.0353037778944773e-16 -3.0614268826438282,1.3706475026376153 -3.0614268826438282 3.061426882643827c -2.0706075557889546e-16,1.6907793800062125 1.370647502637615,3.0614268826438282 3.061426882643827 3.0614268826438282c 1.6907793800062125,3.105911333683432e-16 3.0614268826438282,-1.3706475026376148 3.0614268826438287 -3.061426882643827Z"/></g><defs></defs><g stroke-linejoin="miter" stroke-opacity="1.0" fill-opacity="0.0" stroke="rgb(0,0,0)" stroke-width="0.6000000000000002" fill="rgb(0,0,0)" stroke-linecap="butt" stroke-miterlimit="10.0"><path d="M 32.44602809036389,114.06539363531022 c 0.0,-3.4115742098958544 -2.7656273350337806,-6.177201544929636 -6.177201544929634 -6.177201544929636c -3.4115742098958544,-2.0889867181013093e-16 -6.177201544929636,2.76562733503378 -6.177201544929636 6.177201544929633c -4.1779734362026185e-16,3.4115742098958544 2.7656273350337797,6.177201544929636 6.177201544929633 6.177201544929636c 3.4115742098958544,6.266960154303929e-16 6.177201544929636,-2.765627335033779 6.177201544929637 -6.177201544929633Z"/></g><defs></defs><g stroke-linejoin="miter" stroke-opacity="1.0" fill-opacity="0.0" stroke="rgb(0,0,0)" stroke-width="0.6000000000000002" fill="rgb(0,0,0)" stroke-linecap="butt" stroke-miterlimit="10.0"><path d="M 56.41717138104275,135.58928628239477 c 0.0,-2.7255375423938193 -2.2094847323093245,-4.935022274703145 -4.935022274703144 -4.935022274703145c -2.7255375423938193,-1.668910413624267e-16 -4.935022274703145,2.209484732309324 -4.935022274703145 4.935022274703143c -3.337820827248534e-16,2.7255375423938193 2.2094847323093236,4.935022274703145 4.935022274703142 4.935022274703145c 2.7255375423938193,5.006731240872802e-16 4.935022274703145,-2.2094847323093236 4.935022274703146 -4.935022274703143Z"/></g><defs></defs><g stroke-linejoin="miter" stroke-opacity="1.0" fill-opacity="0.0" stroke="rgb(0,0,0)" stroke-width="0.6000000000000002" fill="rgb(0,0,0)" stroke-linecap="butt" stroke-miterlimit="10.0"><path d="M 14.21619328536996,149.58488953030295 c 0.0,-2.10636745282489 -1.7075482011384493,-3.8139156539633396 -3.8139156539633388 -3.8139156539633396c -2.10636745282489,-1.2897780794650827e-16 -3.8139156539633396,1.707548201138449 -3.8139156539633396 3.813915653963338c -2.5795561589301653e-16,2.10636745282489 1.7075482011384486,3.8139156539633396 3.813915653963338 3.8139156539633396c 2.10636745282489,3.8693342383952475e-16 3.8139156539633396,-1.7075482011384484 3.8139156539633405 -3.813915653963338Z"/></g><defs></defs><g stroke-linejoin="miter" stroke-opacity="1.0" fill-opacity="0.0" stroke="rgb(0,0,0)" stroke-width="0.6000000000000002" fill="rgb(0,0,0)" stroke-linecap="butt" stroke-miterlimit="10.0"><path d="M 32.701953462687534,159.20417686011058 c 0.0,-1.8230501556094207 -1.4778741523095622,-3.3009243079189834 -3.300924307918983 -3.3009243079189834c -1.8230501556094207,-1.1162962688760806e-16 -3.3009243079189834,1.4778741523095622 -3.3009243079189834 3.3009243079189825c -2.2325925377521613e-16,1.8230501556094207 1.477874152309562,3.3009243079189834 3.300924307918982 3.3009243079189834c 1.8230501556094207,3.348888806628242e-16 3.3009243079189834,-1.477874152309562 3.300924307918984 -3.3009243079189825Z"/></g><defs></defs><g stroke-linejoin="miter" stroke-opacity="1.0" fill-opacity="0.0" stroke="rgb(0,0,0)" stroke-width="0.6000000000000002" fill="rgb(0,0,0)" stroke-linecap="butt" stroke-miterlimit="10.0"><path d="M 6.853553295750267,173.83997096130955 c 0.0,-1.4118774889473111 -1.1445528477220897,-2.556430336669401 -2.5564303366694006 -2.556430336669401c -1.4118774889473111,-8.645256238137637e-17 -2.556430336669401,1.1445528477220894 -2.556430336669401 2.5564303366694006c -1.7290512476275274e-16,1.4118774889473111 1.1445528477220894,2.556430336669401 2.5564303366694 2.556430336669401c 1.4118774889473111,2.593576871441291e-16 2.556430336669401,-1.1445528477220892 2.556430336669401 -2.5564303366694006Z"/></g><defs></defs><g stroke-linejoin="miter" stroke-opacity="1.0" fill-opacity="0.0" stroke="rgb(0,0,0)" stroke-width="0.6000000000000002" fill="rgb(0,0,0)" stroke-linecap="butt" stroke-miterlimit="10.0"><path d="M 7.051664567238956,228.97907306063428 c 0.0,-1.3571077337339876 -1.1001531885525178,-2.4572609222865056 -2.457260922286505 -2.4572609222865056c -1.3571077337339876,-8.309888211077231e-17 -2.4572609222865056,1.1001531885525178 -2.4572609222865056 2.4572609222865047c -1.6619776422154462e-16,1.3571077337339876 1.1001531885525175,2.4572609222865056 2.4572609222865043 2.4572609222865056c 1.3571077337339876,2.4929664633231694e-16 2.4572609222865056,-1.1001531885525173 2.457260922286507 -2.4572609222865047Z"/></g><defs></defs><g stroke-linejoin="miter" stroke-opacity="1.0" fill-opacity="0.0" stroke="rgb(0,0,0)" stroke-width="0.6000000000000002" fill="rgb(0,0,0)" stroke-linecap="butt" stroke-miterlimit="10.0"><path d="M 7.3764401786563845,223.5431484469436 c 0.0,-1.647108263342041 -1.3352450677008214,-2.9823533310428627 -2.982353331042862 -2.9823533310428627c -1.647108263342041,-1.008562931275493e-16 -2.9823533310428627,1.3352450677008214 -2.9823533310428627 2.982353331042862c -2.017125862550986e-16,1.647108263342041 1.3352450677008212,2.9823533310428627 2.9823533310428614 2.9823533310428627c 1.647108263342041,3.025688793826479e-16 2.9823533310428627,-1.335245067700821 2.982353331042863 -2.982353331042862Z"/></g><defs></defs><g stroke-linejoin="miter" stroke-opacity="1.0" fill-opacity="0.0" stroke="rgb(0,0,0)" stroke-width="0.6000000000000002" fill="rgb(0,0,0)" stroke-linecap="butt" stroke-miterlimit="10.0"><path d="M 8.111073135773038,216.86834119813406 c 0.0,-2.0393107955691177 -1.6531880398485042,-3.692498835417622 -3.6924988354176214 -3.692498835417622c -2.0393107955691177,-1.2487177191301811e-16 -3.692498835417622,1.653188039848504 -3.692498835417622 3.6924988354176205c -2.4974354382603623e-16,2.0393107955691177 1.6531880398485037,3.692498835417622 3.6924988354176205 3.692498835417622c 2.0393107955691177,3.746153157390543e-16 3.692498835417622,-1.6531880398485035 3.692498835417623 -3.6924988354176205Z"/></g><defs></defs><g stroke-linejoin="miter" stroke-opacity="1.0" fill-opacity="0.0" stroke="rgb(0,0,0)" stroke-width="0.6000000000000002" fill="rgb(0,0,0)" stroke-linecap="butt" stroke-miterlimit="10.0"><path d="M 9.552986967522164,208.50408482332384 c 0.0,-2.5868368077621025 -2.0970455709467895,-4.683882378708892 -4.6838823787088915 -4.683882378708892c -2.5868368077621025,-1.5839807082712078e-16 -4.683882378708892,2.097045570946789 -4.683882378708892 4.683882378708891c -3.1679614165424156e-16,2.5868368077621025 2.097045570946789,4.683882378708892 4.68388237870889 4.683882378708892c 2.5868368077621025,4.751942124813623e-16 4.683882378708892,-2.0970455709467886 4.683882378708895 -4.683882378708891Z"/></g><defs></defs><g stroke-linejoin="miter" stroke-opacity="1.0" fill-opacity="0.0" stroke="rgb(0,0,0)" stroke-width="0.6000000000000002" fill="rgb(0,0,0)" stroke-linecap="butt" stroke-miterlimit="10.0"><path d="M 12.257041860565963,197.7724747324842 c 0.0,-3.3811549102624197 -2.740967620367518,-6.122122530629938 -6.1221225306299365 -6.122122530629938c -3.3811549102624197,-2.0703602691371143e-16 -6.122122530629938,2.7409676203675177 -6.122122530629938 6.1221225306299365c -4.1407205382742287e-16,3.3811549102624197 2.7409676203675173,6.122122530629938 6.1221225306299365 6.122122530629938c 3.3811549102624197,6.211080807411342e-16 6.122122530629938,-2.740967620367517 6.122122530629938 -6.1221225306299365Z"/></g><defs></defs><g stroke-linejoin="miter" stroke-opacity="1.0" fill-opacity="0.0" stroke="rgb(0,0,0)" stroke-width="0.6000000000000002" fill="rgb(0,0,0)" stroke-linecap="butt" stroke-miterlimit="10.0"><path d="M 17.318260142799186,183.63047488856222 c 0.0,-4.588945111526858 -3.7200750323985314,-8.309020143925391 -8.30902014392539 -8.309020143925391c -4.588945111526858,-2.80991847114713e-16 -8.309020143925391,3.7200750323985314 -8.309020143925391 8.309020143925387c -5.61983694229426e-16,4.588945111526858 3.720075032398531,8.309020143925391 8.309020143925387 8.309020143925391c 4.588945111526858,8.42975541344139e-16 8.309020143925391,-3.720075032398531 8.309020143925395 -8.309020143925387Z"/></g><defs></defs><g stroke-linejoin="miter" stroke-opacity="1.0" fill-opacity="0.0" stroke="rgb(0,0,0)" stroke-width="0.6000000000000002" fill="rgb(0,0,0)" stroke-linecap="butt" stroke-miterlimit="10.0"><path d="M 27.046203816753227,164.47077451189995 c 0.0,-6.533951891699001 -5.296814562925799,-11.8307664546248 -11.830766454624797 -11.8307664546248c -6.533951891699001,-4.0008916349759874e-16 -11.8307664546248,5.296814562925798 -11.8307664546248 11.830766454624797c -8.001783269951975e-16,6.533951891699001 5.296814562925797,11.8307664546248 11.830766454624795 11.8307664546248c 6.533951891699001,1.2002674904927962e-15 11.8307664546248,-5.296814562925796 11.830766454624802 -11.830766454624797Z"/></g><defs></defs><g stroke-linejoin="miter" stroke-opacity="1.0" fill-opacity="0.0" stroke="rgb(0,0,0)" stroke-width="0.6000000000000002" fill="rgb(0,0,0)" stroke-linecap="butt" stroke-miterlimit="10.0"><path d="M 46.67602075184699,138.01210951514219 c 0.0,-9.886100510681436 -8.014267938221588,-17.900368448903027 -17.900368448903023 -17.900368448903027c -9.886100510681436,-6.053490673227518e-16 -17.900368448903027,8.014267938221588 -17.900368448903027 17.90036844890302c -1.2106981346455035e-15,9.886100510681436 8.014267938221588,17.900368448903027 17.90036844890302 17.900368448903027c 9.886100510681436,1.816047201968255e-15 17.900368448903027,-8.014267938221586 17.900368448903027 -17.90036844890302Z"/></g><defs></defs><g stroke-linejoin="miter" stroke-opacity="1.0" fill-opacity="0.0" stroke="rgb(0,0,0)" stroke-width="0.6000000000000002" fill="rgb(0,0,0)" stroke-linecap="butt" stroke-miterlimit="10.0"><path d="M 88.70226276971212,102.54256878112099 c 0.0,-16.069121722345095 -13.026596975787125,-29.095718698132224 -29.095718698132217 -29.095718698132224c -16.069121722345095,-9.839499241189561e-16 -29.095718698132224,13.026596975787124 -29.095718698132224 29.095718698132217c -1.9678998482379122e-15,16.069121722345095 13.026596975787122,29.095718698132224 29.095718698132213 29.095718698132224c 16.069121722345095,2.9518497723568688e-15 29.095718698132224,-13.026596975787122 29.095718698132227 -29.095718698132217Z"/></g><defs></defs><g stroke-linejoin="miter" stroke-opacity="1.0" fill-opacity="0.0" stroke="rgb(0,0,0)" stroke-width="0.6000000000000002" fill="rgb(0,0,0)" stroke-linecap="butt" stroke-miterlimit="10.0"><path d="M 163.95551453475989,24.536285610465796 c 0.0,-1.5216742619993255 -1.2335607186253055,-2.7552349806246315 -2.7552349806246306 -2.7552349806246315c -1.5216742619993255,-9.317567571511924e-17 -2.7552349806246315,1.2335607186253055 -2.7552349806246315 2.7552349806246306c -1.8635135143023849e-16,1.5216742619993255 1.2335607186253053,2.7552349806246315 2.75523498062463 2.7552349806246315c 1.5216742619993255,2.7952702714535774e-16 2.7552349806246315,-1.233560718625305 2.755234980624632 -2.7552349806246306Z"/></g><defs></defs><g stroke-linejoin="miter" stroke-opacity="1.0" fill-opacity="0.0" stroke="rgb(0,0,0)" stroke-width="0.6000000000000002" fill="rgb(0,0,0)" stroke-linecap="butt" stroke-miterlimit="10.0"><path d="M 169.12443793375712,6.4995056561142235 c 0.0,-1.9187986306309632 -1.5554936275181817,-3.474292258149145 -3.4742922581491444 -3.474292258149145c -1.9187986306309632,-1.1749253006052666e-16 -3.474292258149145,1.5554936275181814 -3.474292258149145 3.474292258149144c -2.349850601210533e-16,1.9187986306309632 1.5554936275181812,3.474292258149145 3.4742922581491436 3.474292258149145c 1.9187986306309632,3.5247759018158e-16 3.474292258149145,-1.555493627518181 3.474292258149146 -3.474292258149144Z"/></g><defs></defs><g stroke-linejoin="miter" stroke-opacity="1.0" fill-opacity="0.0" stroke="rgb(0,0,0)" stroke-width="0.6000000000000002" fill="rgb(0,0,0)" stroke-linecap="butt" stroke-miterlimit="10.0"><path d="M 137.224863832339,14.337268406942627 c 0.0,-1.6694453049171238 -1.353352817661131,-3.022798122578255 -3.0227981225782545 -3.022798122578255c -1.6694453049171238,-1.0222404245091663e-16 -3.022798122578255,1.353352817661131 -3.022798122578255 3.0227981225782545c -2.0444808490183326e-16,1.6694453049171238 1.353352817661131,3.022798122578255 3.022798122578254 3.022798122578255c 1.6694453049171238,3.066721273527499e-16 3.022798122578255,-1.3533528176611307 3.022798122578256 -3.0227981225782545Z"/></g><defs></defs><g stroke-linejoin="miter" stroke-opacity="1.0" fill-opacity="0.0" stroke="rgb(0,0,0)" stroke-width="0.6000000000000002" fill="rgb(0,0,0)" stroke-linecap="butt" stroke-miterlimit="10.0"><path d="M 146.89370016597655,13.65367989223239 c 0.0,-2.678186953724183 -2.1710994959645213,-4.849286449688704 -4.849286449688703 -4.849286449688704c -2.678186953724183,-1.6399165401982603e-16 -4.849286449688704,2.171099495964521 -4.849286449688704 4.8492864496887025c -3.2798330803965206e-16,2.678186953724183 2.171099495964521,4.849286449688704 4.849286449688702 4.849286449688704c 2.678186953724183,4.919749620594781e-16 4.849286449688704,-2.1710994959645205 4.849286449688705 -4.8492864496887025Z"/></g><defs></defs><g stroke-linejoin="miter" stroke-opacity="1.0" fill-opacity="0.0" stroke="rgb(0,0,0)" stroke-width="0.6000000000000002" fill="rgb(0,0,0)" stroke-linecap="butt" stroke-miterlimit="10.0"><path d="M 164.7921906370829,14.127374268730108 c 0.0,-4.944776926109585 -4.00853371233289,-8.953310638442476 -8.953310638442474 -8.953310638442476c -4.944776926109585,-3.027802617528895e-16 -8.953310638442476,4.00853371233289 -8.953310638442476 8.953310638442472c -6.05560523505779e-16,4.944776926109585 4.0085337123328895,8.953310638442476 8.953310638442472 8.953310638442476c 4.944776926109585,9.083407852586686e-16 8.953310638442476,-4.0085337123328895 8.953310638442476 -8.953310638442472Z"/></g><defs></defs><g stroke-linejoin="miter" stroke-opacity="1.0" fill-opacity="0.0" stroke="rgb(0,0,0)" stroke-width="0.6000000000000002" fill="rgb(0,0,0)" stroke-linecap="butt" stroke-miterlimit="10.0"><path d="M 185.0182550953182,57.81335655357958 c 0.0,-1.5815405848928412 -1.282091962225989,-2.8636325471188306 -2.8636325471188298 -2.8636325471188306c -1.5815405848928412,-9.684143075053255e-17 -2.8636325471188306,1.282091962225989 -2.8636325471188306 2.8636325471188298c -1.936828615010651e-16,1.5815405848928412 1.2820919622259888,2.8636325471188306 2.8636325471188293 2.8636325471188306c 1.5815405848928412,2.905242922515976e-16 2.8636325471188306,-1.2820919622259885 2.863632547118831 -2.8636325471188298Z"/></g><defs></defs><g stroke-linejoin="miter" stroke-opacity="1.0" fill-opacity="0.0" stroke="rgb(0,0,0)" stroke-width="0.6000000000000002" fill="rgb(0,0,0)" stroke-linecap="butt" stroke-miterlimit="10.0"><path d="M 189.18702858869722,48.954961507166075 c 0.0,-3.3408606195298187 -2.7083026437204816,-6.049163263250302 -6.0491632632503 -6.049163263250302c -3.3408606195298187,-2.045687132052318e-16 -6.049163263250302,2.7083026437204816 -6.049163263250302 6.0491632632503c -4.091374264104636e-16,3.3408606195298187 2.708302643720481,6.049163263250302 6.049163263250299 6.049163263250302c 3.3408606195298187,6.137061396156953e-16 6.049163263250302,-2.7083026437204807 6.0491632632503025 -6.0491632632503Z"/></g><defs></defs><g stroke-linejoin="miter" stroke-opacity="1.0" fill-opacity="0.0" stroke="rgb(0,0,0)" stroke-width="0.6000000000000002" fill="rgb(0,0,0)" stroke-linecap="butt" stroke-miterlimit="10.0"><path d="M 206.66701696592506,3.986790609932598 c 0.0,-2.1915831185819044 -1.7766291473793625,-3.9682122659612675 -3.9682122659612666 -3.9682122659612675c -2.1915831185819044,-1.3419576256183517e-16 -3.9682122659612675,1.7766291473793623 -3.9682122659612675 3.9682122659612658c -2.6839152512367035e-16,2.1915831185819044 1.776629147379362,3.9682122659612675 3.9682122659612658 3.9682122659612675c 2.1915831185819044,4.025872876855055e-16 3.9682122659612675,-1.7766291473793618 3.9682122659612684 -3.9682122659612658Z"/></g><defs></defs><g stroke-linejoin="miter" stroke-opacity="1.0" fill-opacity="0.0" stroke="rgb(0,0,0)" stroke-width="0.6000000000000002" fill="rgb(0,0,0)" stroke-linecap="butt" stroke-miterlimit="10.0"><path d="M 212.51526897947775,24.60418833340026 c 0.0,-1.8070711661709087 -1.4649206219864703,-3.2719917881573792 -3.2719917881573783 -3.2719917881573792c -1.8070711661709087,-1.106511959741339e-16 -3.2719917881573792,1.46492062198647 -3.2719917881573792 3.271991788157378c -2.213023919482678e-16,1.8070711661709087 1.4649206219864699,3.2719917881573792 3.2719917881573775 3.2719917881573792c 1.8070711661709087,3.3195358792240173e-16 3.2719917881573792,-1.4649206219864697 3.27199178815738 -3.271991788157378Z"/></g><defs></defs><g stroke-linejoin="miter" stroke-opacity="1.0" fill-opacity="0.0" stroke="rgb(0,0,0)" stroke-width="0.6000000000000002" fill="rgb(0,0,0)" stroke-linecap="butt" stroke-miterlimit="10.0"><path d="M 260.0247964604437,10.977120910421803 c 0.0,-1.3165940123296243 -1.067310328199417,-2.383904340529041 -2.3839043405290408 -2.383904340529041c -1.3165940123296243,-8.061813214880226e-17 -2.383904340529041,1.0673103281994167 -2.383904340529041 2.3839043405290403c -1.6123626429760453e-16,1.3165940123296243 1.0673103281994167,2.383904340529041 2.3839043405290403 2.383904340529041c 1.3165940123296243,2.4185439644640676e-16 2.383904340529041,-1.0673103281994165 2.383904340529041 -2.3839043405290403Z"/></g><defs></defs><g stroke-linejoin="miter" stroke-opacity="1.0" fill-opacity="0.0" stroke="rgb(0,0,0)" stroke-width="0.6000000000000002" fill="rgb(0,0,0)" stroke-linecap="butt" stroke-miterlimit="10.0"><path d="M 255.309192225538,10.216082935341802 c 0.0,-1.7614652913318651 -1.427949755655282,-3.1894150469871474 -3.189415046987147 -3.1894150469871474c -1.7614652913318651,-1.0785864154193643e-16 -3.1894150469871474,1.4279497556552818 -3.1894150469871474 3.1894150469871465c -2.1571728308387286e-16,1.7614652913318651 1.4279497556552818,3.1894150469871474 3.189415046987146 3.1894150469871474c 1.7614652913318651,3.235759246258093e-16 3.1894150469871474,-1.4279497556552816 3.189415046987148 -3.1894150469871465Z"/></g><defs></defs><g stroke-linejoin="miter" stroke-opacity="1.0" fill-opacity="0.0" stroke="rgb(0,0,0)" stroke-width="0.6000000000000002" fill="rgb(0,0,0)" stroke-linecap="butt" stroke-miterlimit="10.0"><path d="M 248.9548746646531,9.603492467737283 c 0.0,-2.472820356967101 -2.0046169753595877,-4.477437332326689 -4.477437332326688 -4.477437332326689c -2.472820356967101,-1.5141657675130876e-16 -4.477437332326689,2.0046169753595877 -4.477437332326689 4.477437332326687c -3.028331535026175e-16,2.472820356967101 2.0046169753595873,4.477437332326689 4.477437332326687 4.477437332326689c 2.472820356967101,4.542497302539263e-16 4.477437332326689,-2.0046169753595873 4.477437332326691 -4.477437332326687Z"/></g><defs></defs><g stroke-linejoin="miter" stroke-opacity="1.0" fill-opacity="0.0" stroke="rgb(0,0,0)" stroke-width="0.6000000000000002" fill="rgb(0,0,0)" stroke-linecap="butt" stroke-miterlimit="10.0"><path d="M 239.99999999999972,9.60349246773734 c 0.0,-3.7092305354506507 -3.0069254630393814,-6.716155998490033 -6.716155998490032 -6.716155998490033c -3.7092305354506507,-2.271248651269631e-16 -6.716155998490033,3.006925463039381 -6.716155998490033 6.716155998490031c -4.542497302539262e-16,3.7092305354506507 3.0069254630393805,6.716155998490033 6.71615599849003 6.716155998490033c 3.7092305354506507,6.813745953808894e-16 6.716155998490033,-3.0069254630393805 6.716155998490035 -6.716155998490031Z"/></g><defs></defs><g stroke-linejoin="miter" stroke-opacity="1.0" fill-opacity="0.0" stroke="rgb(0,0,0)" stroke-width="0.6000000000000002" fill="rgb(0,0,0)" stroke-linecap="butt" stroke-miterlimit="10.0"><path d="M 226.69550411149868,11.732986235274893 c 0.0,-6.123225152838028 -4.963854754246197,-11.087079907084226 -11.087079907084224 -11.087079907084226c -6.123225152838028,-3.749394041940827e-16 -11.087079907084226,4.963854754246197 -11.087079907084226 11.087079907084224c -7.498788083881654e-16,6.123225152838028 4.963854754246196,11.087079907084226 11.087079907084222 11.087079907084226c 6.123225152838028,1.1248182125822481e-15 11.087079907084226,-4.963854754246195 11.087079907084226 -11.087079907084224Z"/></g><defs></defs><g stroke-linejoin="miter" stroke-opacity="1.0" fill-opacity="0.0" stroke="rgb(0,0,0)" stroke-width="0.6000000000000002" fill="rgb(0,0,0)" stroke-linecap="butt" stroke-miterlimit="10.0"><path d="M 206.13267867425563,21.80016366476994 c 0.0,-11.6902531786423 -9.476822649947763,-21.167075828590068 -21.167075828590065 -21.167075828590068c -11.6902531786423,-7.158215568223232e-16 -21.167075828590068,9.476822649947763 -21.167075828590068 21.16707582859006c -1.4316431136446464e-15,11.6902531786423 9.476822649947763,21.167075828590068 21.167075828590058 21.167075828590068c 11.6902531786423,2.1474646704669693e-15 21.167075828590068,-9.476822649947762 21.16707582859007 -21.16707582859006Z"/></g><defs></defs><g stroke-linejoin="miter" stroke-opacity="1.0" fill-opacity="0.0" stroke="rgb(0,0,0)" stroke-width="0.6000000000000002" fill="rgb(0,0,0)" stroke-linecap="butt" stroke-miterlimit="10.0"><path d="M 149.25823178838456,116.7505638395569 c 0.0,-1.3471853429020366 -1.0921095014962219,-2.439294844398259 -2.4392948443982587 -2.439294844398259c -1.3471853429020366,-8.249131090216043e-17 -2.439294844398259,1.0921095014962219 -2.439294844398259 2.4392948443982583c -1.6498262180432087e-16,1.3471853429020366 1.0921095014962217,2.439294844398259 2.439294844398258 2.439294844398259c 1.3471853429020366,2.4747393270648127e-16 2.439294844398259,-1.0921095014962214 2.4392948443982605 -2.4392948443982583Z"/></g><defs></defs><g stroke-linejoin="miter" stroke-opacity="1.0" fill-opacity="0.0" stroke="rgb(0,0,0)" stroke-width="0.6000000000000002" fill="rgb(0,0,0)" stroke-linecap="butt" stroke-miterlimit="10.0"><path d="M 158.3121972585302,116.19120332882925 c 0.0,-2.5063848722944297 -2.0318263911205467,-4.5382112634149765 -4.538211263414976 -4.5382112634149765c -2.5063848722944297,-1.5347181056433603e-16 -4.5382112634149765,2.0318263911205463 -4.5382112634149765 4.538211263414975c -3.0694362112867206e-16,2.5063848722944297 2.0318263911205463,4.5382112634149765 4.538211263414975 4.5382112634149765c 2.5063848722944297,4.604154316930081e-16 4.5382112634149765,-2.031826391120546 4.5382112634149765 -4.538211263414975Z"/></g><defs></defs><g stroke-linejoin="miter" stroke-opacity="1.0" fill-opacity="0.0" stroke="rgb(0,0,0)" stroke-width="0.6000000000000002" fill="rgb(0,0,0)" stroke-linecap="butt" stroke-miterlimit="10.0"><path d="M 178.25704736803863,99.08223656322943 c 0.0,-2.3680341075109173 -1.919670936375275,-4.287705043886193 -4.287705043886192 -4.287705043886193c -2.3680341075109173,-1.4500026950175022e-16 -4.287705043886193,1.919670936375275 -4.287705043886193 4.2877050438861914c -2.9000053900350043e-16,2.3680341075109173 1.9196709363752746,4.287705043886193 4.2877050438861914 4.287705043886193c 2.3680341075109173,4.3500080850525065e-16 4.287705043886193,-1.9196709363752746 4.287705043886195 -4.2877050438861914Z"/></g><defs></defs><g stroke-linejoin="miter" stroke-opacity="1.0" fill-opacity="0.0" stroke="rgb(0,0,0)" stroke-width="0.6000000000000002" fill="rgb(0,0,0)" stroke-linecap="butt" stroke-miterlimit="10.0"><path d="M 188.95547743461066,131.79901890165047 c 0.0,-1.566172854181014 -1.2696339550072733,-2.8358068091882873 -2.8358068091882864 -2.8358068091882873c -1.566172854181014,-9.590042863921265e-17 -2.8358068091882873,1.269633955007273 -2.8358068091882873 2.8358068091882864c -1.918008572784253e-16,1.566172854181014 1.2696339550072728,2.8358068091882873 2.835806809188286 2.8358068091882873c 1.566172854181014,2.8770128591763795e-16 2.8358068091882873,-1.2696339550072726 2.8358068091882878 -2.8358068091882864Z"/></g><defs></defs><g stroke-linejoin="miter" stroke-opacity="1.0" fill-opacity="0.0" stroke="rgb(0,0,0)" stroke-width="0.6000000000000002" fill="rgb(0,0,0)" stroke-linecap="butt" stroke-miterlimit="10.0"><path d="M 185.68925570555976,126.13784578983649 c 0.0,-2.7773144283128723 -2.251458191542688,-5.028772619855562 -5.028772619855561 -5.028772619855562c -2.7773144283128723,-1.70061461242956e-16 -5.028772619855562,2.251458191542688 -5.028772619855562 5.02877261985556c -3.40122922485912e-16,2.7773144283128723 2.2514581915426874,5.028772619855562 5.028772619855559 5.028772619855562c 2.7773144283128723,5.10184383728868e-16 5.028772619855562,-2.2514581915426874 5.0287726198555625 -5.02877261985556Z"/></g><defs></defs><g stroke-linejoin="miter" stroke-opacity="1.0" fill-opacity="0.0" stroke="rgb(0,0,0)" stroke-width="0.6000000000000002" fill="rgb(0,0,0)" stroke-linecap="butt" stroke-miterlimit="10.0"><path d="M 180.90298534095888,114.09443153406235 c 0.0,-6.27661153013753 -5.088198981216495,-11.364810511354026 -11.364810511354023 -11.364810511354026c -6.27661153013753,-3.8433161099371485e-16 -11.364810511354026,5.088198981216494 -11.364810511354026 11.364810511354023c -7.686632219874297e-16,6.27661153013753 5.088198981216493,11.364810511354026 11.36481051135402 11.364810511354026c 6.27661153013753,1.1529948329811446e-15 11.364810511354026,-5.088198981216492 11.364810511354028 -11.364810511354023Z"/></g><defs></defs><g stroke-linejoin="miter" stroke-opacity="1.0" fill-opacity="0.0" stroke="rgb(0,0,0)" stroke-width="0.6000000000000002" fill="rgb(0,0,0)" stroke-linecap="butt" stroke-miterlimit="10.0"><path d="M 180.11681691683089,67.11226223606849 c 0.0,-27.560473990132937 -22.342178579174455,-49.9026525693074 -49.902652569307385 -49.9026525693074c -27.560473990132937,-1.687592312750009e-15 -49.9026525693074,22.34217857917445 -49.9026525693074 49.90265256930738c -3.375184625500018e-15,27.560473990132937 22.342178579174448,49.9026525693074 49.90265256930738 49.9026525693074c 27.560473990132937,5.062776938250028e-15 49.9026525693074,-22.342178579174444 49.902652569307406 -49.90265256930738Z"/></g><defs></defs><g stroke-linejoin="miter" stroke-opacity="1.0" fill-opacity="0.0" stroke="rgb(0,0,0)" stroke-width="0.6000000000000002" fill="rgb(0,0,0)" stroke-linecap="butt" stroke-miterlimit="10.0"><path d="M 390.6489959147429,140.00673003097373 c 0.0,-1.5878080729204989 -1.287172765147118,-2.8749808380676174 -2.8749808380676165 -2.8749808380676174c -1.5878080729204989,-9.722520370812081e-17 -2.8749808380676174,1.2871727651471179 -2.8749808380676174 2.8749808380676165c -1.9445040741624162e-16,1.5878080729204989 1.2871727651471179,2.8749808380676174 2.874980838067616 2.8749808380676174c 1.5878080729204989,2.916756111243624e-16 2.8749808380676174,-1.2871727651471176 2.874980838067618 -2.8749808380676165Z"/></g><defs></defs><g stroke-linejoin="miter" stroke-opacity="1.0" fill-opacity="0.0" stroke="rgb(0,0,0)" stroke-width="0.6000000000000002" fill="rgb(0,0,0)" stroke-linecap="butt" stroke-miterlimit="10.0"><path d="M 393.0348012125424,148.42166055711158 c 0.0,-3.0622748877925487 -2.4824642865749396,-5.544739174367489 -5.544739174367487 -5.544739174367489c -3.0622748877925487,-1.8751025697222325e-16 -5.544739174367489,2.4824642865749396 -5.544739174367489 5.544739174367487c -3.750205139444465e-16,3.0622748877925487 2.482464286574939,5.544739174367489 5.5447391743674865 5.544739174367489c 3.0622748877925487,5.625307709166697e-16 5.544739174367489,-2.4824642865749387 5.54473917436749 -5.544739174367487Z"/></g><defs></defs><g stroke-linejoin="miter" stroke-opacity="1.0" fill-opacity="0.0" stroke="rgb(0,0,0)" stroke-width="0.6000000000000002" fill="rgb(0,0,0)" stroke-linecap="butt" stroke-miterlimit="10.0"><path d="M 368.22007350488957,165.75462042543614 c 0.0,-2.3604663739644676 -1.913536076198526,-4.274002450162994 -4.274002450162993 -4.274002450162994c -2.3604663739644676,-1.4453687946852722e-16 -4.274002450162994,1.913536076198526 -4.274002450162994 4.2740024501629925c -2.8907375893705445e-16,2.3604663739644676 1.9135360761985256,4.274002450162994 4.2740024501629925 4.274002450162994c 2.3604663739644676,4.336106384055817e-16 4.274002450162994,-1.9135360761985256 4.274002450162996 -4.2740024501629925Z"/></g><defs></defs><g stroke-linejoin="miter" stroke-opacity="1.0" fill-opacity="0.0" stroke="rgb(0,0,0)" stroke-width="0.6000000000000002" fill="rgb(0,0,0)" stroke-linecap="butt" stroke-miterlimit="10.0"><path d="M 398.87612309209385,178.97725403179132 c 0.0,-1.555759927234106 -1.2611926098597621,-2.816952537093868 -2.8169525370938673 -2.816952537093868c -1.555759927234106,-9.526282075644834e-17 -2.816952537093868,1.261192609859762 -2.816952537093868 2.8169525370938673c -1.9052564151289668e-16,1.555759927234106 1.2611926098597617,2.816952537093868 2.816952537093867 2.816952537093868c 1.555759927234106,2.8578846226934504e-16 2.816952537093868,-1.2611926098597617 2.8169525370938686 -2.8169525370938673Z"/></g><defs></defs><g stroke-linejoin="miter" stroke-opacity="1.0" fill-opacity="0.0" stroke="rgb(0,0,0)" stroke-width="0.6000000000000002" fill="rgb(0,0,0)" stroke-linecap="butt" stroke-miterlimit="10.0"><path d="M 383.90068599933153,184.89235616292444 c 0.0,-1.351601264755451 -1.0956893134644772,-2.447290578219928 -2.4472905782199277 -2.447290578219928c -1.351601264755451,-8.276170813031387e-17 -2.447290578219928,1.095689313464477 -2.447290578219928 2.4472905782199277c -1.6552341626062773e-16,1.351601264755451 1.0956893134644767,2.447290578219928 2.4472905782199272 2.447290578219928c 1.351601264755451,2.4828512439094158e-16 2.447290578219928,-1.0956893134644767 2.447290578219928 -2.4472905782199277Z"/></g><defs></defs><g stroke-linejoin="miter" stroke-opacity="1.0" fill-opacity="0.0" stroke="rgb(0,0,0)" stroke-width="0.6000000000000002" fill="rgb(0,0,0)" stroke-linecap="butt" stroke-miterlimit="10.0"><path d="M 399.2098601319994,217.63952325555405 c 0.0,-1.495394179823079 -1.2122565026939216,-2.707650682517001 -2.707650682517001 -2.707650682517001c -1.495394179823079,-9.156648478919576e-17 -2.707650682517001,1.2122565026939216 -2.707650682517001 2.7076506825170004c -1.8313296957839153e-16,1.495394179823079 1.2122565026939214,2.707650682517001 2.707650682517 2.707650682517001c 1.495394179823079,2.746994543675873e-16 2.707650682517001,-1.2122565026939212 2.7076506825170017 -2.7076506825170004Z"/></g><defs></defs><g stroke-linejoin="miter" stroke-opacity="1.0" fill-opacity="0.0" stroke="rgb(0,0,0)" stroke-width="0.6000000000000002" fill="rgb(0,0,0)" stroke-linecap="butt" stroke-miterlimit="10.0"><path d="M 399.67697404166216,211.256912698925 c 0.0,-2.0413693903318895 -1.6548568606325178,-3.6962262509644073 -3.696226250964407 -3.6962262509644073c -2.0413693903318895,-1.249978244873666e-16 -3.6962262509644073,1.6548568606325176 -3.6962262509644073 3.696226250964406c -2.499956489747332e-16,2.0413693903318895 1.6548568606325174,3.6962262509644073 3.696226250964406 3.6962262509644073c 2.0413693903318895,3.749934734620998e-16 3.6962262509644073,-1.6548568606325171 3.6962262509644077 -3.696226250964406Z"/></g><defs></defs><g stroke-linejoin="miter" stroke-opacity="1.0" fill-opacity="0.0" stroke="rgb(0,0,0)" stroke-width="0.6000000000000002" fill="rgb(0,0,0)" stroke-linecap="butt" stroke-miterlimit="10.0"><path d="M 399.98610400716626,202.325939161782 c 0.0,-2.9452628476000418 -2.3876072859721744,-5.332870133572216 -5.332870133572215 -5.332870133572216c -2.9452628476000418,-1.8034533594805046e-16 -5.332870133572216,2.387607285972174 -5.332870133572216 5.332870133572214c -3.606906718961009e-16,2.9452628476000418 2.3876072859721735,5.332870133572216 5.3328701335722135 5.332870133572216c 2.9452628476000418,5.410360078441514e-16 5.332870133572216,-2.3876072859721735 5.332870133572219 -5.332870133572214Z"/></g><defs></defs><g stroke-linejoin="miter" stroke-opacity="1.0" fill-opacity="0.0" stroke="rgb(0,0,0)" stroke-width="0.6000000000000002" fill="rgb(0,0,0)" stroke-linecap="butt" stroke-miterlimit="10.0"><path d="M 399.6884882217834,189.07635971763312 c 0.0,-4.593412331688824 -3.7236964298624087,-8.317108761551232 -8.317108761551232 -8.317108761551232c -4.593412331688824,-2.8126538545833487e-16 -8.317108761551232,3.7236964298624087 -8.317108761551232 8.31710876155123c -5.625307709166697e-16,4.593412331688824 3.723696429862408,8.317108761551232 8.31710876155123 8.317108761551232c 4.593412331688824,8.437961563750045e-16 8.317108761551232,-3.723696429862408 8.317108761551234 -8.31710876155123Z"/></g><defs></defs><g stroke-linejoin="miter" stroke-opacity="1.0" fill-opacity="0.0" stroke="rgb(0,0,0)" stroke-width="0.6000000000000002" fill="rgb(0,0,0)" stroke-linecap="butt" stroke-miterlimit="10.0"><path d="M 397.20610860228606,167.93110094626462 c 0.0,-8.039123737156135 -6.5169974297222275,-14.556121166878363 -14.556121166878361 -14.556121166878363c -8.039123737156135,-4.922543576328884e-16 -14.556121166878363,6.516997429722227 -14.556121166878363 14.55612116687836c -9.845087152657768e-16,8.039123737156135 6.516997429722226,14.556121166878363 14.556121166878357 14.556121166878363c 8.039123737156135,1.476763072898665e-15 14.556121166878363,-6.516997429722225 14.556121166878368 -14.55612116687836Z"/></g><defs></defs><g stroke-linejoin="miter" stroke-opacity="1.0" fill-opacity="0.0" stroke="rgb(0,0,0)" stroke-width="0.6000000000000002" fill="rgb(0,0,0)" stroke-linecap="butt" stroke-miterlimit="10.0"><path d="M 374.5491032215642,103.11724155739489 c 0.0,-1.5878080729204989 -1.287172765147118,-2.8749808380676174 -2.8749808380676165 -2.8749808380676174c -1.5878080729204989,-9.722520370812081e-17 -2.8749808380676174,1.2871727651471179 -2.8749808380676174 2.8749808380676165c -1.9445040741624162e-16,1.5878080729204989 1.2871727651471179,2.8749808380676174 2.874980838067616 2.8749808380676174c 1.5878080729204989,2.916756111243624e-16 2.8749808380676174,-1.2871727651471176 2.874980838067618 -2.8749808380676165Z"/></g><defs></defs><g stroke-linejoin="miter" stroke-opacity="1.0" fill-opacity="0.0" stroke="rgb(0,0,0)" stroke-width="0.6000000000000002" fill="rgb(0,0,0)" stroke-linecap="butt" stroke-miterlimit="10.0"><path d="M 370.8558445150725,97.60328660645962 c 0.0,-3.0622748877925487 -2.4824642865749396,-5.544739174367489 -5.544739174367487 -5.544739174367489c -3.0622748877925487,-1.8751025697222325e-16 -5.544739174367489,2.4824642865749396 -5.544739174367489 5.544739174367487c -3.750205139444465e-16,3.0622748877925487 2.482464286574939,5.544739174367489 5.5447391743674865 5.544739174367489c 3.0622748877925487,5.625307709166697e-16 5.544739174367489,-2.4824642865749387 5.54473917436749 -5.544739174367487Z"/></g><defs></defs><g stroke-linejoin="miter" stroke-opacity="1.0" fill-opacity="0.0" stroke="rgb(0,0,0)" stroke-width="0.6000000000000002" fill="rgb(0,0,0)" stroke-linecap="butt" stroke-miterlimit="10.0"><path d="M 340.8664578238464,103.07961323088048 c 0.0,-2.3604663739644676 -1.913536076198526,-4.274002450162994 -4.274002450162993 -4.274002450162994c -2.3604663739644676,-1.4453687946852722e-16 -4.274002450162994,1.913536076198526 -4.274002450162994 4.2740024501629925c -2.8907375893705445e-16,2.3604663739644676 1.9135360761985256,4.274002450162994 4.2740024501629925 4.274002450162994c 2.3604663739644676,4.336106384055817e-16 4.274002450162994,-1.9135360761985256 4.274002450162996 -4.2740024501629925Z"/></g><defs></defs><g stroke-linejoin="miter" stroke-opacity="1.0" fill-opacity="0.0" stroke="rgb(0,0,0)" stroke-width="0.6000000000000002" fill="rgb(0,0,0)" stroke-linecap="butt" stroke-miterlimit="10.0"><path d="M 351.5513204689169,70.54250889701473 c 0.0,-1.555759927234106 -1.2611926098597621,-2.816952537093868 -2.8169525370938673 -2.816952537093868c -1.555759927234106,-9.526282075644834e-17 -2.816952537093868,1.261192609859762 -2.816952537093868 2.8169525370938673c -1.9052564151289668e-16,1.555759927234106 1.2611926098597617,2.816952537093868 2.816952537093867 2.816952537093868c 1.555759927234106,2.8578846226934504e-16 2.816952537093868,-1.2611926098597617 2.8169525370938686 -2.8169525370938673Z"/></g><defs></defs><g stroke-linejoin="miter" stroke-opacity="1.0" fill-opacity="0.0" stroke="rgb(0,0,0)" stroke-width="0.6000000000000002" fill="rgb(0,0,0)" stroke-linecap="butt" stroke-miterlimit="10.0"><path d="M 336.91270689750894,77.22937066937178 c 0.0,-1.351601264755451 -1.0956893134644772,-2.447290578219928 -2.4472905782199277 -2.447290578219928c -1.351601264755451,-8.276170813031387e-17 -2.447290578219928,1.095689313464477 -2.447290578219928 2.4472905782199277c -1.6552341626062773e-16,1.351601264755451 1.0956893134644767,2.447290578219928 2.4472905782199272 2.447290578219928c 1.351601264755451,2.4828512439094158e-16 2.447290578219928,-1.0956893134644767 2.447290578219928 -2.4472905782199277Z"/></g><defs></defs><g stroke-linejoin="miter" stroke-opacity="1.0" fill-opacity="0.0" stroke="rgb(0,0,0)" stroke-width="0.6000000000000002" fill="rgb(0,0,0)" stroke-linecap="butt" stroke-miterlimit="10.0"><path d="M 323.39564102152343,43.927324341691985 c 0.0,-1.495394179823079 -1.2122565026939216,-2.707650682517001 -2.707650682517001 -2.707650682517001c -1.495394179823079,-9.156648478919576e-17 -2.707650682517001,1.2122565026939216 -2.707650682517001 2.7076506825170004c -1.8313296957839153e-16,1.495394179823079 1.2122565026939214,2.707650682517001 2.707650682517 2.707650682517001c 1.495394179823079,2.746994543675873e-16 2.707650682517001,-1.2122565026939212 2.7076506825170017 -2.7076506825170004Z"/></g><defs></defs><g stroke-linejoin="miter" stroke-opacity="1.0" fill-opacity="0.0" stroke="rgb(0,0,0)" stroke-width="0.6000000000000002" fill="rgb(0,0,0)" stroke-linecap="butt" stroke-miterlimit="10.0"><path d="M 328.70943002314556,48.64984152394345 c 0.0,-2.0413693903318895 -1.6548568606325178,-3.6962262509644073 -3.696226250964407 -3.6962262509644073c -2.0413693903318895,-1.249978244873666e-16 -3.6962262509644073,1.6548568606325176 -3.6962262509644073 3.696226250964406c -2.499956489747332e-16,2.0413693903318895 1.6548568606325174,3.6962262509644073 3.696226250964406 3.6962262509644073c 2.0413693903318895,3.749934734620998e-16 3.6962262509644073,-1.6548568606325171 3.6962262509644077 -3.696226250964406Z"/></g><defs></defs><g stroke-linejoin="miter" stroke-opacity="1.0" fill-opacity="0.0" stroke="rgb(0,0,0)" stroke-width="0.6000000000000002" fill="rgb(0,0,0)" stroke-linecap="butt" stroke-miterlimit="10.0"><path d="M 335.99166240429963,55.696252810998345 c 0.0,-2.9452628476000418 -2.3876072859721744,-5.332870133572216 -5.332870133572215 -5.332870133572216c -2.9452628476000418,-1.8034533594805046e-16 -5.332870133572216,2.387607285972174 -5.332870133572216 5.332870133572214c -3.606906718961009e-16,2.9452628476000418 2.3876072859721735,5.332870133572216 5.3328701335722135 5.332870133572216c 2.9452628476000418,5.410360078441514e-16 5.332870133572216,-2.3876072859721735 5.332870133572219 -5.332870133572214Z"/></g><defs></defs><g stroke-linejoin="miter" stroke-opacity="1.0" fill-opacity="0.0" stroke="rgb(0,0,0)" stroke-width="0.6000000000000002" fill="rgb(0,0,0)" stroke-linecap="butt" stroke-miterlimit="10.0"><path d="M 346.45899214785555,67.11226223606846 c 0.0,-4.593412331688824 -3.7236964298624087,-8.317108761551232 -8.317108761551232 -8.317108761551232c -4.593412331688824,-2.8126538545833487e-16 -8.317108761551232,3.7236964298624087 -8.317108761551232 8.31710876155123c -5.625307709166697e-16,4.593412331688824 3.723696429862408,8.317108761551232 8.31710876155123 8.317108761551232c 4.593412331688824,8.437961563750045e-16 8.317108761551232,-3.723696429862408 8.317108761551234 -8.31710876155123Z"/></g><defs></defs><g stroke-linejoin="miter" stroke-opacity="1.0" fill-opacity="0.0" stroke="rgb(0,0,0)" stroke-width="0.6000000000000002" fill="rgb(0,0,0)" stroke-linecap="butt" stroke-miterlimit="10.0"><path d="M 362.271417801778,87.88566845966182 c 0.0,-8.039123737156135 -6.5169974297222275,-14.556121166878363 -14.556121166878361 -14.556121166878363c -8.039123737156135,-4.922543576328884e-16 -14.556121166878363,6.516997429722227 -14.556121166878363 14.55612116687836c -9.845087152657768e-16,8.039123737156135 6.516997429722226,14.556121166878363 14.556121166878357 14.556121166878363c 8.039123737156135,1.476763072898665e-15 14.556121166878363,-6.516997429722225 14.556121166878368 -14.55612116687836Z"/></g><defs></defs><g stroke-linejoin="miter" stroke-opacity="1.0" fill-opacity="0.0" stroke="rgb(0,0,0)" stroke-width="0.6000000000000002" fill="rgb(0,0,0)" stroke-linecap="butt" stroke-miterlimit="10.0"><path d="M 332.78100597946997,153.52262073815544 c 0.0,-1.7080511558807006 -1.3846490434349703,-3.0927001993156713 -3.0927001993156704 -3.0927001993156713c -1.7080511558807006,-1.0458796904146183e-16 -3.0927001993156713,1.38464904343497 -3.0927001993156713 3.09270019931567c -2.0917593808292366e-16,1.7080511558807006 1.38464904343497,3.0927001993156713 3.09270019931567 3.0927001993156713c 1.7080511558807006,3.1376390712438554e-16 3.0927001993156713,-1.3846490434349699 3.0927001993156717 -3.09270019931567Z"/></g><defs></defs><g stroke-linejoin="miter" stroke-opacity="1.0" fill-opacity="0.0" stroke="rgb(0,0,0)" stroke-width="0.6000000000000002" fill="rgb(0,0,0)" stroke-linecap="butt" stroke-miterlimit="10.0"><path d="M 325.35852550111235,136.51558141995253 c 0.0,-1.7080511558807006 -1.3846490434349703,-3.0927001993156713 -3.0927001993156704 -3.0927001993156713c -1.7080511558807006,-1.0458796904146183e-16 -3.0927001993156713,1.38464904343497 -3.0927001993156713 3.09270019931567c -2.0917593808292366e-16,1.7080511558807006 1.38464904343497,3.0927001993156713 3.09270019931567 3.0927001993156713c 1.7080511558807006,3.1376390712438554e-16 3.0927001993156713,-1.3846490434349699 3.0927001993156717 -3.09270019931567Z"/></g><defs></defs><g stroke-linejoin="miter" stroke-opacity="1.0" fill-opacity="0.0" stroke="rgb(0,0,0)" stroke-width="0.6000000000000002" fill="rgb(0,0,0)" stroke-linecap="butt" stroke-miterlimit="10.0"><path d="M 312.9414005156433,152.3663648987085 c 0.0,-2.0981470383380136 -1.7008842385184169,-3.7990312768564314 -3.7990312768564305 -3.7990312768564314c -2.0981470383380136,-1.2847445273205737e-16 -3.7990312768564314,1.7008842385184166 -3.7990312768564314 3.7990312768564296c -2.5694890546411474e-16,2.0981470383380136 1.7008842385184164,3.7990312768564314 3.7990312768564296 3.7990312768564314c 2.0981470383380136,3.854233581961721e-16 3.7990312768564314,-1.7008842385184162 3.7990312768564323 -3.7990312768564296Z"/></g><defs></defs><g stroke-linejoin="miter" stroke-opacity="1.0" fill-opacity="0.0" stroke="rgb(0,0,0)" stroke-width="0.6000000000000002" fill="rgb(0,0,0)" stroke-linecap="butt" stroke-miterlimit="10.0"><path d="M 328.29212776079595,147.57667358201053 c 0.0,-4.5150366381851645 -3.660160376703371,-8.175197014888537 -8.175197014888536 -8.175197014888537c -4.5150366381851645,-2.7646625834932445e-16 -8.175197014888537,3.6601603767033706 -8.175197014888537 8.175197014888534c -5.529325166986489e-16,4.5150366381851645 3.6601603767033697,8.175197014888537 8.175197014888534 8.175197014888537c 4.5150366381851645,8.293987750479732e-16 8.175197014888537,-3.6601603767033697 8.175197014888537 -8.175197014888534Z"/></g><defs></defs><g stroke-linejoin="miter" stroke-opacity="1.0" fill-opacity="0.0" stroke="rgb(0,0,0)" stroke-width="0.6000000000000002" fill="rgb(0,0,0)" stroke-linecap="butt" stroke-miterlimit="10.0"><path d="M 385.8395686563293,132.15329738802768 c 0.0,-16.78020201891495 -13.60304145115369,-30.383243470068642 -30.383243470068635 -30.383243470068642c -16.78020201891495,-1.0274910345755073e-15 -30.383243470068642,13.603041451153688 -30.383243470068642 30.383243470068628c -2.0549820691510146e-15,16.78020201891495 13.603041451153686,30.383243470068642 30.383243470068628 30.383243470068642c 16.78020201891495,3.0824731037265213e-15 30.383243470068642,-13.603041451153684 30.38324347006865 -30.383243470068628Z"/></g><defs></defs><g stroke-linejoin="miter" stroke-opacity="1.0" fill-opacity="0.0" stroke="rgb(0,0,0)" stroke-width="0.6000000000000002" fill="rgb(0,0,0)" stroke-linecap="butt" stroke-miterlimit="10.0"><path d="M 400.00000000000006,200.00000000000003 c 0.0,-110.45694996615872 -89.54305003384131,-200.00000000000006 -200.0 -200.00000000000006c -110.45694996615872,-6.763537510981781e-15 -200.00000000000006,89.5430500338413 -200.00000000000006 199.99999999999997c -1.3527075021963561e-14,110.45694996615872 89.5430500338413,200.00000000000006 199.99999999999997 200.00000000000006c 110.45694996615872,2.0290612532945344e-14 200.00000000000006,-89.54305003384128 200.00000000000009 -199.99999999999997Z"/></g><defs></defs><g stroke-linejoin="miter" stroke-opacity="1.0" fill-opacity="0.0" stroke="rgb(0,0,0)" stroke-width="0.6000000000000002" fill="rgb(0,0,0)" stroke-linecap="butt" stroke-miterlimit="10.0"><path d="M 243.70401551529298,209.21588966902638 c 0.0,-1.7047260685275534 -1.381953527550085,-3.0866795960776385 -3.086679596077638 -3.0866795960776385c -1.7047260685275534,-1.0438436616226598e-16 -3.0866795960776385,1.381953527550085 -3.0866795960776385 3.0866795960776376c -2.0876873232453196e-16,1.7047260685275534 1.3819535275500847,3.0866795960776385 3.0866795960776376 3.0866795960776385c 1.7047260685275534,3.1315309848679794e-16 3.0866795960776385,-1.3819535275500847 3.0866795960776385 -3.0866795960776376Z"/></g><defs></defs><g stroke-linejoin="miter" stroke-opacity="1.0" fill-opacity="0.0" stroke="rgb(0,0,0)" stroke-width="0.6000000000000002" fill="rgb(0,0,0)" stroke-linecap="butt" stroke-miterlimit="10.0"><path d="M 246.7658912413124,200.5059040134398 c 0.0,-3.1139154596588834 -2.5243272414349107,-5.6382427010937946 -5.638242701093794 -5.6382427010937946c -3.1139154596588834,-1.9067233002433555e-16 -5.6382427010937946,2.5243272414349103 -5.6382427010937946 5.638242701093794c -3.813446600486711e-16,3.1139154596588834 2.5243272414349103,5.6382427010937946 5.638242701093793 5.6382427010937946c 3.1139154596588834,5.720169900730066e-16 5.6382427010937946,-2.52432724143491 5.638242701093796 -5.638242701093794Z"/></g><defs></defs><g stroke-linejoin="miter" stroke-opacity="1.0" fill-opacity="0.0" stroke="rgb(0,0,0)" stroke-width="0.6000000000000002" fill="rgb(0,0,0)" stroke-linecap="butt" stroke-miterlimit="10.0"><path d="M 223.9492661003961,163.95207240470157 c 0.0,-1.7047260685275534 -1.381953527550085,-3.0866795960776385 -3.086679596077638 -3.0866795960776385c -1.7047260685275534,-1.0438436616226598e-16 -3.0866795960776385,1.381953527550085 -3.0866795960776385 3.0866795960776376c -2.0876873232453196e-16,1.7047260685275534 1.3819535275500847,3.0866795960776385 3.0866795960776376 3.0866795960776385c 1.7047260685275534,3.1315309848679794e-16 3.0866795960776385,-1.3819535275500847 3.0866795960776385 -3.0866795960776376Z"/></g><defs></defs><g stroke-linejoin="miter" stroke-opacity="1.0" fill-opacity="0.0" stroke="rgb(0,0,0)" stroke-width="0.6000000000000002" fill="rgb(0,0,0)" stroke-linecap="butt" stroke-miterlimit="10.0"><path d="M 233.23410875868726,169.5006952562863 c 0.0,-3.1139154596588834 -2.5243272414349107,-5.6382427010937946 -5.638242701093794 -5.6382427010937946c -3.1139154596588834,-1.9067233002433555e-16 -5.6382427010937946,2.5243272414349103 -5.6382427010937946 5.638242701093794c -3.813446600486711e-16,3.1139154596588834 2.5243272414349103,5.6382427010937946 5.638242701093793 5.6382427010937946c 3.1139154596588834,5.720169900730066e-16 5.6382427010937946,-2.52432724143491 5.638242701093796 -5.638242701093794Z"/></g><defs></defs><g stroke-linejoin="miter" stroke-opacity="1.0" fill-opacity="0.0" stroke="rgb(0,0,0)" stroke-width="0.6000000000000002" fill="rgb(0,0,0)" stroke-linecap="butt" stroke-miterlimit="10.0"><path d="M 270.142084107873,170.60554811202957 c 0.0,-1.5413901278606925 -1.2495435858312691,-2.790933713691962 -2.790933713691961 -2.790933713691962c -1.5413901278606925,-9.438292431609633e-17 -2.790933713691962,1.249543585831269 -2.790933713691962 2.790933713691961c -1.8876584863219266e-16,1.5413901278606925 1.249543585831269,2.790933713691962 2.790933713691961 2.790933713691962c 1.5413901278606925,2.83148772948289e-16 2.790933713691962,-1.2495435858312687 2.790933713691962 -2.790933713691961Z"/></g><defs></defs><g stroke-linejoin="miter" stroke-opacity="1.0" fill-opacity="0.0" stroke="rgb(0,0,0)" stroke-width="0.6000000000000002" fill="rgb(0,0,0)" stroke-linecap="butt" stroke-miterlimit="10.0"><path d="M 265.23207070952606,173.82459415663357 c 0.0,-2.903184970734083 -2.353496427083886,-5.256681397817969 -5.256681397817968 -5.256681397817969c -2.903184970734083,-1.7776880908710982e-16 -5.256681397817969,2.3534964270838854 -5.256681397817969 5.256681397817967c -3.5553761817421963e-16,2.903184970734083 2.353496427083885,5.256681397817969 5.2566813978179665 5.256681397817969c 2.903184970734083,5.333064272613295e-16 5.256681397817969,-2.353496427083885 5.256681397817972 -5.256681397817967Z"/></g><defs></defs><g stroke-linejoin="miter" stroke-opacity="1.0" fill-opacity="0.0" stroke="rgb(0,0,0)" stroke-width="0.6000000000000002" fill="rgb(0,0,0)" stroke-linecap="butt" stroke-miterlimit="10.0"><path d="M 256.2909331369573,181.3575777614132 c 0.0,-7.4976949433789235 -6.078082670752253,-13.575777614131178 -13.575777614131175 -13.575777614131178c -7.4976949433789235,-4.591014056696147e-16 -13.575777614131178,6.078082670752252 -13.575777614131178 13.575777614131173c -9.182028113392293e-16,7.4976949433789235 6.078082670752251,13.575777614131178 13.575777614131171 13.575777614131178c 7.4976949433789235,1.3773042170088441e-15 13.575777614131178,-6.07808267075225 13.575777614131182 -13.575777614131173Z"/></g><defs></defs><g stroke-linejoin="miter" stroke-opacity="1.0" fill-opacity="0.0" stroke="rgb(0,0,0)" stroke-width="0.6000000000000002" fill="rgb(0,0,0)" stroke-linecap="butt" stroke-miterlimit="10.0"><path d="M 333.21211119293406,91.0100926607789 c 0.0,-42.89968959282483 -34.77706973462037,-77.67675932744521 -77.6767593274452 -77.67675932744521c -42.89968959282483,-2.6268483772133973e-15 -77.67675932744521,34.77706973462037 -77.67675932744521 77.67675932744518c -5.253696754426795e-15,42.89968959282483 34.77706973462036,77.67675932744521 77.67675932744517 77.67675932744521c 42.89968959282483,7.880545131640192e-15 77.67675932744521,-34.77706973462036 77.67675932744525 -77.67675932744518Z"/></g><defs></defs><g stroke-linejoin="miter" stroke-opacity="1.0" fill-opacity="0.0" stroke="rgb(0,0,0)" stroke-width="0.6000000000000002" fill="rgb(0,0,0)" stroke-linecap="butt" stroke-miterlimit="10.0"><path d="M 395.35351865489025,233.3939444035328 c 0.0,-42.89968959282483 -34.77706973462037,-77.67675932744521 -77.6767593274452 -77.67675932744521c -42.89968959282483,-2.6268483772133973e-15 -77.67675932744521,34.77706973462037 -77.67675932744521 77.67675932744518c -5.253696754426795e-15,42.89968959282483 34.77706973462036,77.67675932744521 77.67675932744517 77.67675932744521c 42.89968959282483,7.880545131640192e-15 77.67675932744521,-34.77706973462036 77.67675932744525 -77.67675932744518Z"/></g><defs></defs><g stroke-linejoin="miter" stroke-opacity="1.0" fill-opacity="0.0" stroke="rgb(0,0,0)" stroke-width="0.6000000000000002" fill="rgb(0,0,0)" stroke-linecap="butt" stroke-miterlimit="10.0"><path d="M 239.99999999999983,233.3939444035328 c 0.0,-64.34953438923725 -52.16560460193056,-116.51513899116782 -116.51513899116779 -116.51513899116782c -64.34953438923725,-3.940272565820096e-15 -116.51513899116782,52.16560460193055 -116.51513899116782 116.51513899116777c -7.880545131640192e-15,64.34953438923725 52.165604601930546,116.51513899116782 116.51513899116776 116.51513899116782c 64.34953438923725,1.1820817697460287e-14 116.51513899116782,-52.16560460193054 116.51513899116785 -116.51513899116777Z"/></g></g></svg>