<svg xmlns="http://www.w3.org/2000/svg" height="208.3333" stroke-opacity="1" viewBox="0 0 300 208" font-size="1" width="300.0000" xmlns:xlink="http://www.w3.org/1999/xlink" stroke="rgb(0,0,0)" version="1.1"><defs></defs><g stroke-linejoin="miter" stroke-opacity="1.0" fill-opacity="0.0" stroke="rgb(0,0,0)" stroke-width="1.0000000000000002" fill="rgb(0,0,0)" stroke-linecap="butt" stroke-miterlimit="10.0"><path d="M 291.6667,200.0000 l -0.0000,-191.6667 h -191.6667 l -0.0000,191.6667 Z"/></g><g stroke-linejoin="miter" stroke-opacity="1.0" fill-opacity="0.0" stroke="rgb(0,0,0)" stroke-width="1.0000000000000002" fill="rgb(0,0,0)" stroke-linecap="butt" stroke-miterlimit="10.0"><path d="M 291.6667,104.1667 c 0.0000,-23.0119 -18.6548,-41.6667 -41.6667 -41.6667c -23.0119,-0.0000 -41.6667,18.6548 -41.6667 41.6667c -0.0000,23.0119 18.6548,41.6667 41.6667 41.6667c 23.0119,0.0000 41.6667,-18.6548 41.6667 -41.6667Z"/></g><g stroke-linejoin="miter" stroke-opacity="1.0" fill-opacity="0.0" stroke="rgb(0,0,0)" stroke-width="1.0000000000000002" fill="rgb(0,0,0)" stroke-linecap="butt" stroke-miterlimit="10.0"><path d="M 200.0000,104.1667 c 0.0000,-18.4095 -14.9238,-33.3333 -33.3333 -33.3333c -18.4095,-0.0000 -33.3333,14.9238 -33.3333 33.3333c -0.0000,18.4095 14.9238,33.3333 33.3333 33.3333c 18.4095,0.0000 33.3333,-14.9238 33.3333 -33.3333Z"/></g><g stroke-linejoin="miter" stroke-opacity="1.0" fill-opacity="0.0" stroke="rgb(0,0,0)" stroke-width="1.0000000000000002" fill="rgb(0,0,0)" stroke-linecap="butt" stroke-miterlimit="10.0"><path d="M 125.0000,104.1667 c 0.0000,-13.8071 -11.1929,-25.0000 -25.0000 -25.0000c -13.8071,-0.0000 -25.0000,11.1929 -25.0000 25.0000c -0.0000,13.8071 11.1929,25.0000 25.0000 25.0000c 13.8071,0.0000 25.0000,-11.1929 25.0000 -25.0000Z"/></g><g stroke-linejoin="miter" stroke-opacity="1.0" fill-opacity="0.0" stroke="rgb(0,0,0)" stroke-width="1.0000000000000002" fill="rgb(0,0,0)" stroke-linecap="butt" stroke-miterlimit="10.0"><path d="M 66.6667,104.1667 c 0.0000,-9.2047 -7.4619,-16.6667 -16.6667 -16.6667c -9.2047,-0.0000 -16.6667,7.4619 -16.6667 16.6667c -0.0000,9.2047 7.4619,16.6667 16.6667 16.6667c 9.2047,0.0000 16.6667,-7.4619 16.6667 -16.6667Z"/></g><g stroke-linejoin="miter" stroke-opacity="1.0" fill-opacity="0.0" stroke="rgb(0,0,0)" stroke-width="1.0000000000000002" fill="rgb(0,0,0)" stroke-linecap="butt" stroke-miterlimit="10.0"><path d="M 25.0000,104.1667 c 0.0000,-4.6024 -3.7310,-8.3333 -8.3333 -8.3333c -4.6024,-0.0000 -8.3333,3.7310 -8.3333 8.3333c -0.0000,4.6024 3.7310,8.3333 8.3333 8.3333c 4.6024,0.0000 8.3333,-3.7310 8.3333 -8.3333Z"/></g></svg>