<svg xmlns="http://www.w3.org/2000/svg" height="168.6747" stroke-opacity="1" viewBox="0 0 400 169" font-size="1" width="400.0000" xmlns:xlink="http://www.w3.org/1999/xlink" stroke="rgb(0,0,0)" version="1.1"><defs></defs><g stroke-linejoin="miter" stroke-opacity="1.0" fill-opacity="0.0" stroke="rgb(0,0,0)" stroke-width="1.0389985910910358" fill="rgb(0,0,0)" stroke-linecap="butt" stroke-miterlimit="10.0"><path d="M 251.4056,105.7564 l 1.3387,1.3387 l 1.3387,-1.3387 l 0.0000,-2.6774 l 1.3387,-1.3387 l -1.3387,-1.3387 l -2.6774,-0.0000 l -2.6774,2.6774 l -2.6774,0.0000 l -0.0000,-2.6774 l 1.3387,-1.3387 l -1.3387,-1.3387 l -2.6774,-0.0000 l -1.3387,-1.3387 l -1.3387,1.3387 l -0.0000,2.6774 l 2.6774,2.6774 v 2.6774 l -2.6774,0.0000 l -2.6774,2.6774 l 2.6774,2.6774 l 5.3548,0.0000 l 2.6774,2.6774 l -0.0000,2.6774 l -2.6774,-0.0000 l -2.6774,2.6774 l -2.6774,-0.0000 v -2.6774 l 1.3387,-1.3387 l -1.3387,-1.3387 l -2.6774,-0.0000 l -1.3387,-1.3387 l -1.3387,1.3387 l -0.0000,2.6774 l 2.6774,2.6774 v 2.6774 l -2.6774,0.0000 l -1.3387,-1.3387 l -1.3387,1.3387 l -0.0000,2.6774 l -1.3387,1.3387 l 1.3387,1.3387 l 2.6774,0.0000 l 2.6774,-2.6774 h 2.6774 v 2.6774 l 2.6774,2.6774 l 2.6774,-2.6774 l 0.0000,-5.3548 l 2.6774,-2.6774 l 2.6774,0.0000 l -0.0000,2.6774 l 2.6774,2.6774 l -0.0000,2.6774 h -2.6774 l -2.6774,2.6774 l 2.6774,2.6774 l 5.3548,0.0000 l 2.6774,2.6774 l 2.6774,-2.6774 l 0.0000,-5.3548 l -5.3548,-5.3548 v -5.3548 h 5.3548 l 2.6774,2.6774 l 2.6774,-2.6774 v -5.3548 l 2.6774,-2.6774 h 2.6774 v 2.6774 l 2.6774,2.6774 v 2.6774 l -2.6774,0.0000 l -2.6774,2.6774 l 2.6774,2.6774 l 5.3548,-0.0000 l 2.6774,2.6774 l 0.0000,2.6774 l -2.6774,0.0000 l -2.6774,2.6774 l -2.6774,0.0000 l -0.0000,-2.6774 l 1.3387,-1.3387 l -1.3387,-1.3387 l -2.6774,-0.0000 l -1.3387,-1.3387 l -1.3387,1.3387 l -0.0000,2.6774 l 2.6774,2.6774 v 2.6774 l -2.6774,0.0000 l -1.3387,-1.3387 l -1.3387,1.3387 l -0.0000,2.6774 l -1.3387,1.3387 l 1.3387,1.3387 l 2.6774,0.0000 l 2.6774,-2.6774 h 2.6774 v 2.6774 l 2.6774,2.6774 l 2.6774,-2.6774 l 0.0000,-5.3548 l 2.6774,-2.6774 l 2.6774,0.0000 l -0.0000,2.6774 l 2.6774,2.6774 l -0.0000,2.6774 h -2.6774 l -1.3387,-1.3387 l -1.3387,1.3387 l -0.0000,2.6774 l -1.3387,1.3387 l 1.3387,1.3387 l 2.6774,0.0000 l 2.6774,-2.6774 h 2.6774 v 2.6774 l -1.3387,1.3387 l 1.3387,1.3387 l 2.6774,0.0000 l 1.3387,1.3387 l 1.3387,-1.3387 l 0.0000,-2.6774 l -2.6774,-2.6774 v -2.6774 h 2.6774 l 2.6774,-2.6774 l -2.6774,-2.6774 l -5.3548,-0.0000 l -2.6774,-2.6774 l 0.0000,-2.6774 l 2.6774,0.0000 l 2.6774,-2.6774 l 2.6774,0.0000 v 2.6774 l 2.6774,2.6774 l 2.6774,-2.6774 l 0.0000,-5.3548 l 2.6774,-2.6774 l -2.6774,-2.6774 l -5.3548,-0.0000 l -5.3548,5.3548 h -5.3548 l 0.0000,-5.3548 l 2.6774,-2.6774 l -2.6774,-2.6774 l -5.3548,-0.0000 l -2.6774,-2.6774 l 0.0000,-2.6774 l 2.6774,0.0000 l 2.6774,-2.6774 l 2.6774,0.0000 v 2.6774 l 2.6774,2.6774 l 2.6774,-2.6774 v -5.3548 l 2.6774,-2.6774 h 2.6774 l 0.0000,2.6774 l 2.6774,2.6774 l 0.0000,2.6774 l -2.6774,0.0000 l -2.6774,2.6774 l 2.6774,2.6774 h 5.3548 l 2.6774,2.6774 l 2.6774,-2.6774 v -5.3548 l -5.3548,-5.3548 l -0.0000,-5.3548 l 5.3548,-0.0000 l 2.6774,2.6774 l 2.6774,-2.6774 v -5.3548 l 2.6774,-2.6774 l -2.6774,-2.6774 h -5.3548 l -5.3548,5.3548 l -5.3548,0.0000 l -0.0000,-5.3548 l -5.3548,-5.3548 l -5.3548,5.3548 v 10.7095 l -5.3548,5.3548 h -5.3548 v -5.3548 l -5.3548,-5.3548 v -5.3548 l 5.3548,-0.0000 l 2.6774,2.6774 l 2.6774,-2.6774 l 0.0000,-5.3548 l 2.6774,-2.6774 l -2.6774,-2.6774 l -5.3548,-0.0000 l -5.3548,5.3548 l -5.3548,-0.0000 v -5.3548 l 2.6774,-2.6774 l -2.6774,-2.6774 h -5.3548 l -2.6774,-2.6774 v -2.6774 h 2.6774 l 2.6774,-2.6774 h 2.6774 v 2.6774 l 2.6774,2.6774 l 2.6774,-2.6774 v -5.3548 l 2.6774,-2.6774 h 2.6774 l 0.0000,2.6774 l 2.6774,2.6774 l 0.0000,2.6774 l -2.6774,0.0000 l -2.6774,2.6774 l 2.6774,2.6774 l 5.3548,0.0000 l 2.6774,2.6774 l 2.6774,-2.6774 l 0.0000,-5.3548 l -5.3548,-5.3548 l 0.0000,-5.3548 h 5.3548 l 2.6774,2.6774 l 2.6774,-2.6774 v -5.3548 l 2.6774,-2.6774 h 2.6774 v 2.6774 l 2.6774,2.6774 v 2.6774 l -2.6774,0.0000 l -2.6774,2.6774 l 2.6774,2.6774 l 5.3548,-0.0000 l 2.6774,2.6774 l 0.0000,2.6774 l -2.6774,0.0000 l -2.6774,2.6774 l -2.6774,0.0000 l -0.0000,-2.6774 l 1.3387,-1.3387 l -1.3387,-1.3387 l -2.6774,0.0000 l -1.3387,-1.3387 l -1.3387,1.3387 l 0.0000,2.6774 l 2.6774,2.6774 l 0.0000,2.6774 l -2.6774,0.0000 l -1.3387,-1.3387 l -1.3387,1.3387 l 0.0000,2.6774 l -1.3387,1.3387 l 1.3387,1.3387 l 2.6774,-0.0000 l 2.6774,-2.6774 l 2.6774,-0.0000 l 0.0000,2.6774 l 2.6774,2.6774 l 2.6774,-2.6774 l -0.0000,-5.3548 l 2.6774,-2.6774 l 2.6774,-0.0000 l 0.0000,2.6774 l 2.6774,2.6774 l 0.0000,2.6774 l -2.6774,0.0000 l -1.3387,-1.3387 l -1.3387,1.3387 l 0.0000,2.6774 l -1.3387,1.3387 l 1.3387,1.3387 l 2.6774,-0.0000 l 2.6774,-2.6774 l 2.6774,-0.0000 l 0.0000,2.6774 l -1.3387,1.3387 l 1.3387,1.3387 l 2.6774,-0.0000 l 1.3387,1.3387 l 1.3387,-1.3387 l -0.0000,-2.6774 l -2.6774,-2.6774 l -0.0000,-2.6774 l 2.6774,-0.0000 l 2.6774,-2.6774 l -2.6774,-2.6774 l -5.3548,0.0000 l -2.6774,-2.6774 l -0.0000,-2.6774 l 2.6774,-0.0000 l 2.6774,-2.6774 l 2.6774,-0.0000 l 0.0000,2.6774 l 2.6774,2.6774 l 2.6774,-2.6774 l -0.0000,-5.3548 l 2.6774,-2.6774 l -2.6774,-2.6774 l -5.3548,0.0000 l -5.3548,5.3548 l -5.3548,0.0000 l -0.0000,-5.3548 l 2.6774,-2.6774 l -2.6774,-2.6774 l -5.3548,0.0000 l -2.6774,-2.6774 l -0.0000,-2.6774 l 2.6774,-0.0000 l 2.6774,-2.6774 l 2.6774,-0.0000 l 0.0000,2.6774 l 2.6774,2.6774 l 2.6774,-2.6774 l -0.0000,-5.3548 l 2.6774,-2.6774 l 2.6774,-0.0000 l 0.0000,2.6774 l 2.6774,2.6774 l 0.0000,2.6774 l -2.6774,0.0000 l -1.3387,-1.3387 l -1.3387,1.3387 l 0.0000,2.6774 l -1.3387,1.3387 l 1.3387,1.3387 l 2.6774,-0.0000 l 2.6774,-2.6774 l 2.6774,-0.0000 l 0.0000,2.6774 l -1.3387,1.3387 l 1.3387,1.3387 l 2.6774,-0.0000 l 1.3387,1.3387 l 1.3387,-1.3387 l -0.0000,-2.6774 l -2.6774,-2.6774 l -0.0000,-2.6774 l 2.6774,-0.0000 l 2.6774,-2.6774 l -2.6774,-2.6774 l -5.3548,0.0000 l -2.6774,-2.6774 l -0.0000,-2.6774 l 2.6774,-0.0000 l 2.6774,-2.6774 l 2.6774,-0.0000 l 0.0000,2.6774 l -1.3387,1.3387 l 1.3387,1.3387 l 2.6774,0.0000 l 1.3387,1.3387 l 1.3387,-1.3387 l 0.0000,-2.6774 l -2.6774,-2.6774 l -0.0000,-2.6774 l 2.6774,-0.0000 l 1.3387,1.3387 l 1.3387,-1.3387 l -0.0000,-2.6774 l 1.3387,-1.3387 l 1.3387,-0.0000 l 0.0000,1.3387 l 1.3387,1.3387 l 0.0000,1.3387 l -1.3387,0.0000 l -1.3387,1.3387 l 1.3387,1.3387 l 2.6774,-0.0000 l 1.3387,1.3387 l 0.0000,1.3387 l -1.3387,0.0000 l -1.3387,1.3387 l -1.3387,0.0000 l -0.0000,-1.3387 l -1.3387,-1.3387 l -1.3387,1.3387 l 0.0000,2.6774 l -1.3387,1.3387 l 1.3387,1.3387 l 2.6774,-0.0000 l 2.6774,-2.6774 l 2.6774,-0.0000 l 0.0000,2.6774 l -1.3387,1.3387 l 1.3387,1.3387 l 2.6774,-0.0000 l 1.3387,1.3387 l 0.0000,1.3387 l -1.3387,0.0000 l -1.3387,1.3387 l -1.3387,0.0000 l -0.0000,-1.3387 l -1.3387,-1.3387 l -1.3387,1.3387 l 0.0000,2.6774 l -1.3387,1.3387 l -1.3387,0.0000 l -0.0000,-1.3387 l -1.3387,-1.3387 l -0.0000,-1.3387 l 1.3387,-0.0000 l 1.3387,-1.3387 l -1.3387,-1.3387 l -2.6774,0.0000 l -1.3387,-1.3387 l -1.3387,1.3387 l 0.0000,2.6774 l 2.6774,2.6774 l 0.0000,2.6774 l -2.6774,0.0000 l -1.3387,-1.3387 l -1.3387,1.3387 l 0.0000,2.6774 l -1.3387,1.3387 l 1.3387,1.3387 l 2.6774,-0.0000 l 2.6774,-2.6774 l 2.6774,-0.0000 l 0.0000,2.6774 l 2.6774,2.6774 l 2.6774,-2.6774 l -0.0000,-5.3548 l 2.6774,-2.6774 l 2.6774,-0.0000 l 0.0000,2.6774 l 2.6774,2.6774 l 0.0000,2.6774 l -2.6774,0.0000 l -1.3387,-1.3387 l -1.3387,1.3387 l 0.0000,2.6774 l -1.3387,1.3387 l 1.3387,1.3387 l 2.6774,-0.0000 l 2.6774,-2.6774 l 2.6774,-0.0000 l 0.0000,2.6774 l -1.3387,1.3387 l 1.3387,1.3387 l 2.6774,-0.0000 l 1.3387,1.3387 l 0.0000,1.3387 l -1.3387,0.0000 l -1.3387,1.3387 l -1.3387,0.0000 l -0.0000,-1.3387 l -1.3387,-1.3387 l -1.3387,1.3387 l 0.0000,2.6774 l -1.3387,1.3387 l -1.3387,0.0000 l -0.0000,-1.3387 l -1.3387,-1.3387 l -0.0000,-1.3387 l 1.3387,-0.0000 l 1.3387,-1.3387 l -1.3387,-1.3387 l -2.6774,0.0000 l -1.3387,-1.3387 l -1.3387,1.3387 l 0.0000,2.6774 l 2.6774,2.6774 l 0.0000,2.6774 l -2.6774,0.0000 l -1.3387,-1.3387 l -1.3387,1.3387 l 0.0000,2.6774 l -1.3387,1.3387 l -1.3387,0.0000 l -0.0000,-1.3387 l -1.3387,-1.3387 l -0.0000,-1.3387 l 1.3387,-0.0000 l 1.3387,-1.3387 l -1.3387,-1.3387 l -2.6774,0.0000 l -1.3387,-1.3387 l -0.0000,-1.3387 l 1.3387,-0.0000 l 1.3387,-1.3387 l 1.3387,-0.0000 l 0.0000,1.3387 l 1.3387,1.3387 l 1.3387,-1.3387 l -0.0000,-2.6774 l 1.3387,-1.3387 l -1.3387,-1.3387 l -2.6774,0.0000 l -2.6774,2.6774 l -2.6774,0.0000 l -0.0000,-2.6774 l 1.3387,-1.3387 l -1.3387,-1.3387 l -2.6774,0.0000 l -1.3387,-1.3387 l -1.3387,1.3387 l 0.0000,2.6774 l 2.6774,2.6774 l 0.0000,2.6774 l -2.6774,0.0000 l -2.6774,2.6774 l 2.6774,2.6774 l 5.3548,-0.0000 l 2.6774,2.6774 l 0.0000,2.6774 l -2.6774,0.0000 l -2.6774,2.6774 l -2.6774,0.0000 l -0.0000,-2.6774 l 1.3387,-1.3387 l -1.3387,-1.3387 l -2.6774,0.0000 l -1.3387,-1.3387 l -1.3387,1.3387 l 0.0000,2.6774 l 2.6774,2.6774 l 0.0000,2.6774 l -2.6774,0.0000 l -1.3387,-1.3387 l -1.3387,1.3387 l 0.0000,2.6774 l -1.3387,1.3387 l 1.3387,1.3387 l 2.6774,-0.0000 l 2.6774,-2.6774 l 2.6774,-0.0000 l 0.0000,2.6774 l 2.6774,2.6774 l 2.6774,-2.6774 l -0.0000,-5.3548 l 2.6774,-2.6774 l 2.6774,-0.0000 l 0.0000,2.6774 l 2.6774,2.6774 l 0.0000,2.6774 l -2.6774,0.0000 l -2.6774,2.6774 l 2.6774,2.6774 l 5.3548,-0.0000 l 2.6774,2.6774 l 2.6774,-2.6774 l -0.0000,-5.3548 l -5.3548,-5.3548 l -0.0000,-5.3548 l 5.3548,-0.0000 l 2.6774,2.6774 l 2.6774,-2.6774 l -0.0000,-5.3548 l 2.6774,-2.6774 l 2.6774,-0.0000 l 0.0000,2.6774 l 2.6774,2.6774 l 0.0000,2.6774 l -2.6774,0.0000 l -2.6774,2.6774 l 2.6774,2.6774 l 5.3548,-0.0000 l 2.6774,2.6774 l 0.0000,2.6774 l -2.6774,0.0000 l -2.6774,2.6774 l -2.6774,0.0000 l -0.0000,-2.6774 l 1.3387,-1.3387 l -1.3387,-1.3387 l -2.6774,0.0000 l -1.3387,-1.3387 l -1.3387,1.3387 l 0.0000,2.6774 l 2.6774,2.6774 l 0.0000,2.6774 l -2.6774,0.0000 l -1.3387,-1.3387 l -1.3387,1.3387 l 0.0000,2.6774 l -1.3387,1.3387 l 1.3387,1.3387 l 2.6774,-0.0000 l 2.6774,-2.6774 l 2.6774,-0.0000 l 0.0000,2.6774 l 2.6774,2.6774 l 2.6774,-2.6774 l -0.0000,-5.3548 l 2.6774,-2.6774 l 2.6774,-0.0000 l 0.0000,2.6774 l 2.6774,2.6774 l 0.0000,2.6774 l -2.6774,0.0000 l -1.3387,-1.3387 l -1.3387,1.3387 l 0.0000,2.6774 l -1.3387,1.3387 l 1.3387,1.3387 l 2.6774,-0.0000 l 2.6774,-2.6774 l 2.6774,-0.0000 l 0.0000,2.6774 l -1.3387,1.3387 l 1.3387,1.3387 l 2.6774,-0.0000 l 1.3387,1.3387 l 0.0000,1.3387 l -1.3387,0.0000 l -1.3387,1.3387 l -1.3387,0.0000 l -0.0000,-1.3387 l -1.3387,-1.3387 l -1.3387,1.3387 l 0.0000,2.6774 l -1.3387,1.3387 l -1.3387,0.0000 l -0.0000,-1.3387 l -1.3387,-1.3387 l -0.0000,-1.3387 l 1.3387,-0.0000 l 1.3387,-1.3387 l -1.3387,-1.3387 l -2.6774,0.0000 l -1.3387,-1.3387 l -1.3387,1.3387 l 0.0000,2.6774 l 2.6774,2.6774 l 0.0000,2.6774 l -2.6774,0.0000 l -1.3387,-1.3387 l -1.3387,1.3387 l 0.0000,2.6774 l -1.3387,1.3387 l -1.3387,0.0000 l -0.0000,-1.3387 l -1.3387,-1.3387 l -0.0000,-1.3387 l 1.3387,-0.0000 l 1.3387,-1.3387 l -1.3387,-1.3387 l -2.6774,0.0000 l -1.3387,-1.3387 l -0.0000,-1.3387 l 1.3387,-0.0000 l 1.3387,-1.3387 l 1.3387,-0.0000 l 0.0000,1.3387 l 1.3387,1.3387 l 1.3387,-1.3387 l -0.0000,-2.6774 l 1.3387,-1.3387 l -1.3387,-1.3387 l -2.6774,0.0000 l -2.6774,2.6774 l -2.6774,0.0000 l -0.0000,-2.6774 l 1.3387,-1.3387 l -1.3387,-1.3387 l -2.6774,0.0000 l -1.3387,-1.3387 l -1.3387,1.3387 l 0.0000,2.6774 l 2.6774,2.6774 l 0.0000,2.6774 l -2.6774,0.0000 l -2.6774,2.6774 l 2.6774,2.6774 l 5.3548,-0.0000 l 2.6774,2.6774 l 0.0000,2.6774 l -2.6774,0.0000 l -2.6774,2.6774 l -2.6774,0.0000 l -0.0000,-2.6774 l 1.3387,-1.3387 l -1.3387,-1.3387 l -2.6774,0.0000 l -1.3387,-1.3387 l -1.3387,1.3387 l 0.0000,2.6774 l 2.6774,2.6774 l 0.0000,2.6774 l -2.6774,0.0000 l -1.3387,-1.3387 l -1.3387,1.3387 l 0.0000,2.6774 l -1.3387,1.3387 l -1.3387,0.0000 l -0.0000,-1.3387 l -1.3387,-1.3387 l -0.0000,-1.3387 l 1.3387,-0.0000 l 1.3387,-1.3387 l -1.3387,-1.3387 l -2.6774,0.0000 l -1.3387,-1.3387 l -0.0000,-1.3387 l 1.3387,-0.0000 l 1.3387,-1.3387 l 1.3387,-0.0000 l 0.0000,1.3387 l 1.3387,1.3387 l 1.3387,-1.3387 l -0.0000,-2.6774 l 1.3387,-1.3387 l -1.3387,-1.3387 l -2.6774,0.0000 l -2.6774,2.6774 l -2.6774,0.0000 l -0.0000,-2.6774 l 1.3387,-1.3387 l -1.3387,-1.3387 l -2.6774,0.0000 l -1.3387,-1.3387 l -0.0000,-1.3387 l 1.3387,-0.0000 l 1.3387,-1.3387 l 1.3387,-0.0000 l 0.0000,1.3387 l 1.3387,1.3387 l 1.3387,-1.3387 l -0.0000,-2.6774 l 1.3387,-1.3387 l 1.3387,-0.0000 l 0.0000,1.3387 l 1.3387,1.3387 l 0.0000,1.3387 l -1.3387,0.0000 "/></g><g stroke-linejoin="miter" stroke-opacity="1.0" fill-opacity="0.0" stroke="rgb(0,0,0)" stroke-width="1.0389985910910358" fill="rgb(0,0,0)" stroke-linecap="butt" stroke-miterlimit="10.0"><path d="M 115.6627,105.7564 l 21.4190,21.4190 l 21.4190,-21.4190 v -42.8380 l 21.4190,-21.4190 h 21.4190 l 0.0000,21.4190 l 21.4190,21.4190 l 0.0000,21.4190 l -21.4190,0.0000 "/></g><g stroke-linejoin="miter" stroke-opacity="1.0" fill-opacity="0.0" stroke="rgb(0,0,0)" stroke-width="1.0389985910910358" fill="rgb(0,0,0)" stroke-linecap="butt" stroke-miterlimit="10.0"><path d="M 107.0950,62.9183 l 0.0000,35.3456 "/></g><g stroke-linejoin="miter" stroke-opacity="1.0" fill-opacity="1.0" stroke="rgb(0,0,0)" stroke-width="0.0" fill="rgb(0,0,0)" stroke-linecap="butt" stroke-miterlimit="10.0"></g><g stroke-linejoin="miter" stroke-opacity="1.0" fill-opacity="1.0" stroke="rgb(0,0,0)" stroke-width="0.0" fill="rgb(0,0,0)" stroke-linecap="butt" stroke-miterlimit="10.0"></g><g stroke-linejoin="miter" stroke-opacity="1.0" fill-opacity="1.0" stroke="rgb(0,0,0)" stroke-width="0.0" fill="rgb(0,0,0)" stroke-linecap="butt" stroke-miterlimit="10.0"><path d="M 106.5755,107.3552 l 3.3484,-10.3054 l -3.3484,1.7604 Z"/></g><g stroke-linejoin="miter" stroke-opacity="1.0" fill-opacity="1.0" stroke="rgb(0,0,0)" stroke-width="0.0" fill="rgb(0,0,0)" stroke-linecap="butt" stroke-miterlimit="10.0"><path d="M 106.5755,98.8102 l -0.0000,-0.5462 l 1.0390,-0.0000 Z"/></g><g stroke-linejoin="miter" stroke-opacity="1.0" fill-opacity="0.0" stroke="rgb(0,0,0)" stroke-width="1.0389985910910358" fill="rgb(0,0,0)" stroke-linecap="butt" stroke-miterlimit="10.0"><path d="M 64.2570,62.9183 h 35.3456 "/></g><g stroke-linejoin="miter" stroke-opacity="1.0" fill-opacity="1.0" stroke="rgb(0,0,0)" stroke-width="0.0" fill="rgb(0,0,0)" stroke-linecap="butt" stroke-miterlimit="10.0"></g><g stroke-linejoin="miter" stroke-opacity="1.0" fill-opacity="1.0" stroke="rgb(0,0,0)" stroke-width="0.0" fill="rgb(0,0,0)" stroke-linecap="butt" stroke-miterlimit="10.0"></g><g stroke-linejoin="miter" stroke-opacity="1.0" fill-opacity="1.0" stroke="rgb(0,0,0)" stroke-width="0.0" fill="rgb(0,0,0)" stroke-linecap="butt" stroke-miterlimit="10.0"><path d="M 108.6939,63.4378 l -10.3054,-3.3484 l 1.7604,3.3484 Z"/></g><g stroke-linejoin="miter" stroke-opacity="1.0" fill-opacity="1.0" stroke="rgb(0,0,0)" stroke-width="0.0" fill="rgb(0,0,0)" stroke-linecap="butt" stroke-miterlimit="10.0"><path d="M 100.1489,63.4378 h -0.5462 v -1.0390 Z"/></g><g stroke-linejoin="miter" stroke-opacity="1.0" fill-opacity="0.0" stroke="rgb(0,0,0)" stroke-width="1.0389985910910358" fill="rgb(0,0,0)" stroke-linecap="butt" stroke-miterlimit="10.0"><path d="M 64.2570,62.9183 l -37.5401,37.5401 "/></g><g stroke-linejoin="miter" stroke-opacity="1.0" fill-opacity="1.0" stroke="rgb(0,0,0)" stroke-width="0.0" fill="rgb(0,0,0)" stroke-linecap="butt" stroke-miterlimit="10.0"></g><g stroke-linejoin="miter" stroke-opacity="1.0" fill-opacity="1.0" stroke="rgb(0,0,0)" stroke-width="0.0" fill="rgb(0,0,0)" stroke-linecap="butt" stroke-miterlimit="10.0"></g><g stroke-linejoin="miter" stroke-opacity="1.0" fill-opacity="1.0" stroke="rgb(0,0,0)" stroke-width="0.0" fill="rgb(0,0,0)" stroke-linecap="butt" stroke-miterlimit="10.0"><path d="M 19.9211,106.5196 l 9.6547,-4.9193 l -3.6125,-1.1229 Z"/></g><g stroke-linejoin="miter" stroke-opacity="1.0" fill-opacity="1.0" stroke="rgb(0,0,0)" stroke-width="0.0" fill="rgb(0,0,0)" stroke-linecap="butt" stroke-miterlimit="10.0"><path d="M 25.9633,100.4773 l 0.3862,-0.3862 l 0.7347,0.7347 Z"/></g></svg>